<svg xmlns="http://www.w3.org/2000/svg" width="280" height="160"><defs><style type="text/css"><![CDATA[ 
.bar rect {
  fill-opacity: 0;
  stroke:       black;
  stroke-width: 0.5;
}

.highlight rect {
  fill:       red;
  fill-opacity: 1;
}
.axis path,
.axis line {
  fill: none;
  stroke: #000;
  shape-rendering: crispEdges;
}
 ]]></style></defs><g transform="translate(50,10)"><g class="bar" transform="translate(0,83.68617683686176)"><rect x="1" width="11.5" height="36.31382316313824"></rect></g><g class="bar" transform="translate(12.5,110.13698630136986)"><rect x="1" width="11.5" height="9.86301369863014"></rect></g><g class="bar" transform="translate(25,110.28642590286427)"><rect x="1" width="11.5" height="9.713574097135734"></rect></g><g class="bar" transform="translate(37.5,105.50435865504359)"><rect x="1" width="11.5" height="14.495641344956411"></rect></g><g class="bar" transform="translate(50,87.87048567870485)"><rect x="1" width="11.5" height="32.12951432129515"></rect></g><g class="bar" transform="translate(62.5,48.11955168119552)"><rect x="1" width="11.5" height="71.88044831880448"></rect></g><g class="bar" transform="translate(75,22.714819427148186)"><rect x="1" width="11.5" height="97.28518057285181"></rect></g><g class="bar" transform="translate(87.5,0.7471980074719795)"><rect x="1" width="11.5" height="119.25280199252802"></rect></g><g class="bar" transform="translate(100,0)"><rect x="1" width="11.5" height="120"></rect></g><g class="bar" transform="translate(112.5,30.78455790784558)"><rect x="1" width="11.5" height="89.21544209215442"></rect></g><g class="bar" transform="translate(125,86.5255292652553)"><rect x="1" width="11.5" height="33.4744707347447"></rect></g><g class="bar" transform="translate(137.5,117.31008717310087)"><rect x="1" width="11.5" height="2.689912826899132"></rect></g><g class="bar" transform="translate(150,120)"><rect x="1" width="11.5" height="0"></rect></g><g class="bar" transform="translate(162.5,120)"><rect x="1" width="11.5" height="0"></rect></g><g class="bar" transform="translate(175,120)"><rect x="1" width="11.5" height="0"></rect></g><g class="bar" transform="translate(187.5,120)"><rect x="1" width="11.5" height="0"></rect></g></g></svg>