<svg xmlns="http://www.w3.org/2000/svg" width="600" height="350"><defs><style type="text/css"><![CDATA[ 
.bar rect {
  fill-opacity: 0;
  stroke:       black;
  stroke-width: 0.5;
}

.highlight rect {
  fill:       red;
  fill-opacity: 1;
}
.axis path,
.axis line {
  fill: none;
  stroke: #000;
  shape-rendering: crispEdges;
}
 ]]></style></defs><g transform="translate(50,10)"><g class="bar" transform="translate(0,302.7485380116959)"><rect x="1" width="11.999999999999996" height="7.251461988304072"></rect></g><g class="bar" transform="translate(12.999999999999996,118.74269005847952)"><rect x="1" width="11.999999999999996" height="191.25730994152048"></rect></g><g class="bar" transform="translate(25.999999999999993,280.0877192982456)"><rect x="1" width="11.999999999999996" height="29.912280701754412"></rect></g><g class="bar" transform="translate(39.00000000000001,274.64912280701753)"><rect x="1" width="11.999999999999996" height="35.350877192982466"></rect></g><g class="bar" transform="translate(52,293.6842105263158)"><rect x="1" width="11.999999999999996" height="16.31578947368422"></rect></g><g class="bar" transform="translate(65,292.77777777777777)"><rect x="1" width="11.999999999999996" height="17.22222222222223"></rect></g><g class="bar" transform="translate(78.00000000000001,282.8070175438597)"><rect x="1" width="11.999999999999996" height="27.192982456140328"></rect></g><g class="bar" transform="translate(91.00000000000001,283.7134502923977)"><rect x="1" width="11.999999999999996" height="26.28654970760232"></rect></g><g class="bar" transform="translate(104,275.55555555555554)"><rect x="1" width="11.999999999999996" height="34.44444444444446"></rect></g><g class="bar" transform="translate(117,268.30409356725147)"><rect x="1" width="11.999999999999996" height="41.69590643274853"></rect></g><g class="bar" transform="translate(130,251.98830409356725)"><rect x="1" width="11.999999999999996" height="58.01169590643275"></rect></g><g class="bar" transform="translate(143,222.07602339181287)"><rect x="1" width="11.999999999999996" height="87.92397660818713"></rect></g><g class="bar" transform="translate(156.00000000000003,200.32163742690057)"><rect x="1" width="11.999999999999996" height="109.67836257309943"></rect></g><g class="bar" transform="translate(169,136.87134502923976)"><rect x="1" width="11.999999999999996" height="173.12865497076024"></rect></g><g class="bar" transform="translate(182.00000000000003,107.86549707602339)"><rect x="1" width="11.999999999999996" height="202.1345029239766"></rect></g><g class="bar" transform="translate(195,107.86549707602339)"><rect x="1" width="11.999999999999996" height="202.1345029239766"></rect></g><g class="bar" transform="translate(208,52.573099415204695)"><rect x="1" width="11.999999999999996" height="257.4269005847953"></rect></g><g class="bar" transform="translate(221.00000000000003,61.637426900584785)"><rect x="1" width="11.999999999999996" height="248.36257309941521"></rect></g><g class="bar" transform="translate(234,0)"><rect x="1" width="11.999999999999996" height="310"></rect></g><g class="bar" transform="translate(247.00000000000003,14.502923976608201)"><rect x="1" width="11.999999999999996" height="295.4970760233918"></rect></g><g class="bar" transform="translate(260,2.719298245614027)"><rect x="1" width="11.999999999999996" height="307.280701754386"></rect></g><g class="bar" transform="translate(273,24.4736842105263)"><rect x="1" width="11.999999999999996" height="285.5263157894737"></rect></g><g class="bar" transform="translate(286,55.29239766081869)"><rect x="1" width="11.999999999999996" height="254.7076023391813"></rect></g><g class="bar" transform="translate(299.00000000000006,82.48538011695908)"><rect x="1" width="11.999999999999996" height="227.51461988304092"></rect></g><g class="bar" transform="translate(312.00000000000006,116.0233918128655)"><rect x="1" width="11.999999999999996" height="193.9766081871345"></rect></g><g class="bar" transform="translate(325,178.5672514619883)"><rect x="1" width="11.999999999999996" height="131.4327485380117"></rect></g><g class="bar" transform="translate(338,254.70760233918128)"><rect x="1" width="11.999999999999996" height="55.29239766081872"></rect></g><g class="bar" transform="translate(351,290.05847953216374)"><rect x="1" width="11.999999999999996" height="19.941520467836256"></rect></g><g class="bar" transform="translate(364.00000000000006,299.12280701754383)"><rect x="1" width="11.999999999999996" height="10.877192982456165"></rect></g><g class="bar" transform="translate(377.00000000000006,308.187134502924)"><rect x="1" width="11.999999999999996" height="1.812865497076018"></rect></g><g class="bar" transform="translate(390,310)"><rect x="1" width="11.999999999999996" height="0"></rect></g><g class="bar" transform="translate(403,310)"><rect x="1" width="11.999999999999996" height="0"></rect></g><g class="bar" transform="translate(416,310)"><rect x="1" width="11.999999999999996" height="0"></rect></g><g class="bar" transform="translate(429.00000000000006,310)"><rect x="1" width="11.999999999999996" height="0"></rect></g><g class="bar" transform="translate(442.00000000000006,310)"><rect x="1" width="11.999999999999996" height="0"></rect></g><g class="bar" transform="translate(455,310)"><rect x="1" width="11.999999999999996" height="0"></rect></g><g class="bar" transform="translate(468,310)"><rect x="1" width="11.999999999999996" height="0"></rect></g><g class="bar" transform="translate(481,310)"><rect x="1" width="11.999999999999996" height="0"></rect></g><g class="bar" transform="translate(494.00000000000006,310)"><rect x="1" width="11.999999999999996" height="0"></rect></g><g class="bar" transform="translate(507.00000000000006,310)"><rect x="1" width="11.999999999999996" height="0"></rect></g><g class="axis axis--x" transform="translate(0,310)" fill="none" font-size="10" font-family="sans-serif" text-anchor="middle"><path class="domain" stroke="#000" d="M0.5,6V0.5H520.5V6"></path><g class="tick" opacity="1" transform="translate(0,0)"><line stroke="#000" y2="6" x1="0.5" x2="0.5"></line><text fill="#000" y="9" x="0.5" dy="0.71em">0.01</text></g><g class="tick" opacity="1" transform="translate(130,0)"><line stroke="#000" y2="6" x1="0.5" x2="0.5"></line><text fill="#000" y="9" x="0.5" dy="0.71em">1</text></g><g class="tick" opacity="1" transform="translate(260,0)"><line stroke="#000" y2="6" x1="0.5" x2="0.5"></line><text fill="#000" y="9" x="0.5" dy="0.71em">100</text></g><g class="tick" opacity="1" transform="translate(390,0)"><line stroke="#000" y2="6" x1="0.5" x2="0.5"></line><text fill="#000" y="9" x="0.5" dy="0.71em">10000</text></g><g class="tick" opacity="1" transform="translate(520,0)"><line stroke="#000" y2="6" x1="0.5" x2="0.5"></line><text fill="#000" y="9" x="0.5" dy="0.71em"></text></g></g><g class="axis axis--y" fill="none" font-size="10" font-family="sans-serif" text-anchor="end"><path class="domain" stroke="#000" d="M-6,310.5H0.5V0.5H-6"></path><g class="tick" opacity="1" transform="translate(0,310)"><line stroke="#000" x2="-6" y1="0.5" y2="0.5"></line><text fill="#000" x="-9" y="0.5" dy="0.32em">0</text></g><g class="tick" opacity="1" transform="translate(0,264.67836257309943)"><line stroke="#000" x2="-6" y1="0.5" y2="0.5"></line><text fill="#000" x="-9" y="0.5" dy="0.32em">50</text></g><g class="tick" opacity="1" transform="translate(0,219.35672514619884)"><line stroke="#000" x2="-6" y1="0.5" y2="0.5"></line><text fill="#000" x="-9" y="0.5" dy="0.32em">100</text></g><g class="tick" opacity="1" transform="translate(0,174.03508771929825)"><line stroke="#000" x2="-6" y1="0.5" y2="0.5"></line><text fill="#000" x="-9" y="0.5" dy="0.32em">150</text></g><g class="tick" opacity="1" transform="translate(0,128.71345029239768)"><line stroke="#000" x2="-6" y1="0.5" y2="0.5"></line><text fill="#000" x="-9" y="0.5" dy="0.32em">200</text></g><g class="tick" opacity="1" transform="translate(0,83.39181286549706)"><line stroke="#000" x2="-6" y1="0.5" y2="0.5"></line><text fill="#000" x="-9" y="0.5" dy="0.32em">250</text></g><g class="tick" opacity="1" transform="translate(0,38.07017543859649)"><line stroke="#000" x2="-6" y1="0.5" y2="0.5"></line><text fill="#000" x="-9" y="0.5" dy="0.32em">300</text></g></g></g></svg>