<svg xmlns="http://www.w3.org/2000/svg" width="600" height="350"><defs><style type="text/css"><![CDATA[ 
.bar rect {
  fill-opacity: 0;
  stroke:       black;
  stroke-width: 0.5;
}

.highlight rect {
  fill:       red;
  fill-opacity: 1;
}
.axis path,
.axis line {
  fill: none;
  stroke: #000;
  shape-rendering: crispEdges;
}
path {
    stroke: red;
    fill: none;
}

line {
    stroke: red;
}

path.marker {
    fill: red;
}
 ]]></style></defs><g transform="translate(50,10)"><g class="bar" transform="translate(0,100.12919896640824)"><rect x="1" width="11.999999999999996" height="209.87080103359176"></rect></g><g class="bar" transform="translate(12.999999999999996,57.67441860465115)"><rect x="1" width="11.999999999999996" height="252.32558139534885"></rect></g><g class="bar" transform="translate(25.999999999999993,44.056847545219625)"><rect x="1" width="11.999999999999996" height="265.9431524547804"></rect></g><g class="bar" transform="translate(39.00000000000001,0)"><rect x="1" width="11.999999999999996" height="310"></rect></g><g class="bar" transform="translate(52,11.214470284237734)"><rect x="1" width="11.999999999999996" height="298.78552971576227"></rect></g><g class="bar" transform="translate(65,21.627906976744214)"><rect x="1" width="11.999999999999996" height="288.3720930232558"></rect></g><g class="bar" transform="translate(78.00000000000001,27.235142118863052)"><rect x="1" width="11.999999999999996" height="282.76485788113695"></rect></g><g class="bar" transform="translate(91.00000000000001,24.031007751937977)"><rect x="1" width="11.999999999999996" height="285.968992248062"></rect></g><g class="bar" transform="translate(104,34.44444444444446)"><rect x="1" width="11.999999999999996" height="275.55555555555554"></rect></g><g class="bar" transform="translate(117,14.41860465116281)"><rect x="1" width="11.999999999999996" height="295.5813953488372"></rect></g><g class="bar" transform="translate(130,39.25064599483204)"><rect x="1" width="11.999999999999996" height="270.74935400516796"></rect></g><g class="bar" transform="translate(143,48.06201550387601)"><rect x="1" width="11.999999999999996" height="261.937984496124"></rect></g><g class="bar" transform="translate(156.00000000000003,36.84754521963822)"><rect x="1" width="11.999999999999996" height="273.1524547803618"></rect></g><g class="bar" transform="translate(169,83.30749354005167)"><rect x="1" width="11.999999999999996" height="226.69250645994833"></rect></g><g class="bar" transform="translate(182.00000000000003,144.18604651162792)"><rect x="1" width="11.999999999999996" height="165.81395348837208"></rect></g><g class="bar" transform="translate(195,120.9560723514212)"><rect x="1" width="11.999999999999996" height="189.0439276485788"></rect></g><g class="bar" transform="translate(208,193.85012919896639)"><rect x="1" width="11.999999999999996" height="116.14987080103361"></rect></g><g class="bar" transform="translate(221.00000000000003,195.45219638242895)"><rect x="1" width="11.999999999999996" height="114.54780361757105"></rect></g><g class="bar" transform="translate(234,221.08527131782944)"><rect x="1" width="11.999999999999996" height="88.91472868217056"></rect></g><g class="bar" transform="translate(247.00000000000003,233.9018087855297)"><rect x="1" width="11.999999999999996" height="76.09819121447029"></rect></g><g class="bar" transform="translate(260,265.1421188630491)"><rect x="1" width="11.999999999999996" height="44.85788113695088"></rect></g><g class="bar" transform="translate(273,273.95348837209303)"><rect x="1" width="11.999999999999996" height="36.046511627906966"></rect></g><g class="bar" transform="translate(286,273.95348837209303)"><rect x="1" width="11.999999999999996" height="36.046511627906966"></rect></g><g class="bar" transform="translate(299.00000000000006,281.9638242894057)"><rect x="1" width="11.999999999999996" height="28.036175710594307"></rect></g><g class="bar" transform="translate(312.00000000000006,291.57622739018086)"><rect x="1" width="11.999999999999996" height="18.42377260981914"></rect></g><g class="bar" transform="translate(325,288.37209302325584)"><rect x="1" width="11.999999999999996" height="21.627906976744157"></rect></g><g class="bar" transform="translate(338,286.7700258397933)"><rect x="1" width="11.999999999999996" height="23.229974160206723"></rect></g><g class="bar" transform="translate(351,290.7751937984496)"><rect x="1" width="11.999999999999996" height="19.224806201550393"></rect></g><g class="bar" transform="translate(364.00000000000006,291.57622739018086)"><rect x="1" width="11.999999999999996" height="18.42377260981914"></rect></g><g class="bar" transform="translate(377.00000000000006,293.9793281653747)"><rect x="1" width="11.999999999999996" height="16.02067183462532"></rect></g><g class="bar" transform="translate(390,304.39276485788116)"><rect x="1" width="11.999999999999996" height="5.607235142118839"></rect></g><g class="bar" transform="translate(403,300.38759689922483)"><rect x="1" width="11.999999999999996" height="9.612403100775168"></rect></g><g class="bar" transform="translate(416,307.5968992248062)"><rect x="1" width="11.999999999999996" height="2.4031007751938205"></rect></g><g class="bar" transform="translate(429.00000000000006,309.19896640826875)"><rect x="1" width="11.999999999999996" height="0.8010335917312545"></rect></g><g class="bar" transform="translate(442.00000000000006,310)"><rect x="1" width="11.999999999999996" height="0"></rect></g><g class="bar" transform="translate(455,310)"><rect x="1" width="11.999999999999996" height="0"></rect></g><g class="bar" transform="translate(468,310)"><rect x="1" width="11.999999999999996" height="0"></rect></g><g class="bar" transform="translate(481,310)"><rect x="1" width="11.999999999999996" height="0"></rect></g><g class="bar" transform="translate(494.00000000000006,310)"><rect x="1" width="11.999999999999996" height="0"></rect></g><g class="bar" transform="translate(507.00000000000006,310)"><rect x="1" width="11.999999999999996" height="0"></rect></g><g class="axis axis--x" transform="translate(0,310)" fill="none" font-size="10" font-family="sans-serif" text-anchor="middle"><path class="domain" stroke="#000" d="M0.5,6V0.5H520.5V6"></path><g class="tick" opacity="1" transform="translate(0.5,0)"><line stroke="#000" y2="6"></line><text fill="#000" y="9" dy="0.71em">0.01</text></g><g class="tick" opacity="1" transform="translate(130.5,0)"><line stroke="#000" y2="6"></line><text fill="#000" y="9" dy="0.71em">1</text></g><g class="tick" opacity="1" transform="translate(260.5,0)"><line stroke="#000" y2="6"></line><text fill="#000" y="9" dy="0.71em">100</text></g><g class="tick" opacity="1" transform="translate(390.5,0)"><line stroke="#000" y2="6"></line><text fill="#000" y="9" dy="0.71em">10000</text></g><g class="tick" opacity="1" transform="translate(520.5,0)"><line stroke="#000" y2="6"></line><text fill="#000" y="9" dy="0.71em"></text></g></g><g class="axis axis--y" fill="none" font-size="10" font-family="sans-serif" text-anchor="end"><path class="domain" stroke="#000" d="M-6,310.5H0.5V0.5H-6"></path><g class="tick" opacity="1" transform="translate(0,310.5)"><line stroke="#000" x2="-6"></line><text fill="#000" x="-9" dy="0.32em">0</text></g><g class="tick" opacity="1" transform="translate(0,270.4483204134367)"><line stroke="#000" x2="-6"></line><text fill="#000" x="-9" dy="0.32em">50</text></g><g class="tick" opacity="1" transform="translate(0,230.3966408268734)"><line stroke="#000" x2="-6"></line><text fill="#000" x="-9" dy="0.32em">100</text></g><g class="tick" opacity="1" transform="translate(0,190.34496124031006)"><line stroke="#000" x2="-6"></line><text fill="#000" x="-9" dy="0.32em">150</text></g><g class="tick" opacity="1" transform="translate(0,150.2932816537468)"><line stroke="#000" x2="-6"></line><text fill="#000" x="-9" dy="0.32em">200</text></g><g class="tick" opacity="1" transform="translate(0,110.24160206718346)"><line stroke="#000" x2="-6"></line><text fill="#000" x="-9" dy="0.32em">250</text></g><g class="tick" opacity="1" transform="translate(0,70.18992248062014)"><line stroke="#000" x2="-6"></line><text fill="#000" x="-9" dy="0.32em">300</text></g><g class="tick" opacity="1" transform="translate(0,30.138242894056873)"><line stroke="#000" x2="-6"></line><text fill="#000" x="-9" dy="0.32em">350</text></g></g></g></svg>