<svg xmlns="http://www.w3.org/2000/svg" width="280" height="160"><defs><style type="text/css"><![CDATA[ 
.bar rect {
  fill-opacity: 0;
  stroke:       black;
  stroke-width: 0.5;
}

.highlight rect {
  fill:       red;
  fill-opacity: 1;
}
.axis path,
.axis line {
  fill: none;
  stroke: #000;
  shape-rendering: crispEdges;
}
path {
    stroke: red;
    fill: none;
}

line {
    stroke: red;
}

path.marker {
    fill: red;
}
 ]]></style></defs><g transform="translate(50,10)"><g class="bar" transform="translate(0,26.25400213447172)"><rect x="1" width="11.5" height="93.74599786552828"></rect></g><g class="bar" transform="translate(12.5,0)"><rect x="1" width="11.5" height="120"></rect></g><g class="bar" transform="translate(25,4.482390608324451)"><rect x="1" width="11.5" height="115.51760939167555"></rect></g><g class="bar" transform="translate(37.5,7.171824973319104)"><rect x="1" width="11.5" height="112.8281750266809"></rect></g><g class="bar" transform="translate(50,11.52614727854855)"><rect x="1" width="11.5" height="108.47385272145145"></rect></g><g class="bar" transform="translate(62.5,36.8836712913554)"><rect x="1" width="11.5" height="83.1163287086446"></rect></g><g class="bar" transform="translate(75,61.6008537886873)"><rect x="1" width="11.5" height="58.3991462113127"></rect></g><g class="bar" transform="translate(87.5,84.90928495197439)"><rect x="1" width="11.5" height="35.090715048025615"></rect></g><g class="bar" transform="translate(100,104.11953041622198)"><rect x="1" width="11.5" height="15.880469583778023"></rect></g><g class="bar" transform="translate(112.5,109.75453575240128)"><rect x="1" width="11.5" height="10.245464247598719"></rect></g><g class="bar" transform="translate(125,111.29135538954108)"><rect x="1" width="11.5" height="8.708644610458919"></rect></g><g class="bar" transform="translate(137.5,112.95624332977589)"><rect x="1" width="11.5" height="7.043756670224113"></rect></g><g class="bar" transform="translate(150,117.31056563500533)"><rect x="1" width="11.5" height="2.6894343649946677"></rect></g><g class="bar" transform="translate(162.5,119.74386339381003)"><rect x="1" width="11.5" height="0.25613660618996903"></rect></g><g class="bar" transform="translate(175,120)"><rect x="1" width="11.5" height="0"></rect></g><g class="bar" transform="translate(187.5,120)"><rect x="1" width="11.5" height="0"></rect></g></g></svg>