<svg xmlns="http://www.w3.org/2000/svg" width="280" height="160"><defs><style type="text/css"><![CDATA[ 
.bar rect {
  fill-opacity: 0;
  stroke:       black;
  stroke-width: 0.5;
}

.highlight rect {
  fill:       red;
  fill-opacity: 1;
}
.axis path,
.axis line {
  fill: none;
  stroke: #000;
  shape-rendering: crispEdges;
}
path {
    stroke: red;
    fill: none;
}

line {
    stroke: red;
}

path.marker {
    fill: red;
}
 ]]></style></defs><g transform="translate(50,10)"><g class="bar" transform="translate(0,115.24038461538461)"><rect x="1" width="11.5" height="4.759615384615387"></rect></g><g class="bar" transform="translate(12.5,115.24038461538461)"><rect x="1" width="11.5" height="4.759615384615387"></rect></g><g class="bar" transform="translate(25,100.67307692307692)"><rect x="1" width="11.5" height="19.32692307692308"></rect></g><g class="bar" transform="translate(37.5,63.75)"><rect x="1" width="11.5" height="56.25"></rect></g><g class="bar" transform="translate(50,18.317307692307693)"><rect x="1" width="11.5" height="101.6826923076923"></rect></g><g class="bar" transform="translate(62.5,0)"><rect x="1" width="11.5" height="120"></rect></g><g class="bar" transform="translate(75,1.0096153846153868)"><rect x="1" width="11.5" height="118.99038461538461"></rect></g><g class="bar" transform="translate(87.5,28.557692307692307)"><rect x="1" width="11.5" height="91.4423076923077"></rect></g><g class="bar" transform="translate(100,63.75)"><rect x="1" width="11.5" height="56.25"></rect></g><g class="bar" transform="translate(112.5,86.25)"><rect x="1" width="11.5" height="33.75"></rect></g><g class="bar" transform="translate(125,100.67307692307692)"><rect x="1" width="11.5" height="19.32692307692308"></rect></g><g class="bar" transform="translate(137.5,110.33653846153847)"><rect x="1" width="11.5" height="9.663461538461533"></rect></g><g class="bar" transform="translate(150,118.5576923076923)"><rect x="1" width="11.5" height="1.4423076923076934"></rect></g><g class="bar" transform="translate(162.5,119.85576923076923)"><rect x="1" width="11.5" height="0.1442307692307736"></rect></g><g class="bar" transform="translate(175,120)"><rect x="1" width="11.5" height="0"></rect></g><g class="bar" transform="translate(187.5,120)"><rect x="1" width="11.5" height="0"></rect></g></g></svg>