<svg xmlns="http://www.w3.org/2000/svg" width="280" height="160"><defs><style type="text/css"><![CDATA[ 
.bar rect {
  fill-opacity: 0;
  stroke:       black;
  stroke-width: 0.5;
}

.highlight rect {
  fill:       red;
  fill-opacity: 1;
}
.axis path,
.axis line {
  fill: none;
  stroke: #000;
  shape-rendering: crispEdges;
}
 ]]></style></defs><g transform="translate(50,10)"><g class="bar" transform="translate(0,120)"><rect x="1" width="11.5" height="0"></rect></g><g class="bar" transform="translate(12.5,120)"><rect x="1" width="11.5" height="0"></rect></g><g class="bar" transform="translate(25,118.23529411764706)"><rect x="1" width="11.5" height="1.764705882352942"></rect></g><g class="bar" transform="translate(37.5,116.47058823529412)"><rect x="1" width="11.5" height="3.529411764705884"></rect></g><g class="bar" transform="translate(50,97.64705882352942)"><rect x="1" width="11.5" height="22.35294117647058"></rect></g><g class="bar" transform="translate(62.5,83.52941176470588)"><rect x="1" width="11.5" height="36.470588235294116"></rect></g><g class="bar" transform="translate(75,35.29411764705881)"><rect x="1" width="11.5" height="84.70588235294119"></rect></g><g class="bar" transform="translate(87.5,5.294117647058812)"><rect x="1" width="11.5" height="114.70588235294119"></rect></g><g class="bar" transform="translate(100,0)"><rect x="1" width="11.5" height="120"></rect></g><g class="bar" transform="translate(112.5,1.7647058823529278)"><rect x="1" width="11.5" height="118.23529411764707"></rect></g><g class="bar" transform="translate(125,51.76470588235294)"><rect x="1" width="11.5" height="68.23529411764706"></rect></g><g class="bar" transform="translate(137.5,82.35294117647058)"><rect x="1" width="11.5" height="37.64705882352942"></rect></g><g class="bar" transform="translate(150,111.76470588235294)"><rect x="1" width="11.5" height="8.235294117647058"></rect></g><g class="bar" transform="translate(162.5,119.41176470588235)"><rect x="1" width="11.5" height="0.5882352941176521"></rect></g><g class="bar" transform="translate(175,120)"><rect x="1" width="11.5" height="0"></rect></g><g class="bar" transform="translate(187.5,120)"><rect x="1" width="11.5" height="0"></rect></g></g></svg>