<svg xmlns="http://www.w3.org/2000/svg" width="600" height="350"><defs><style type="text/css"><![CDATA[ 
.bar rect {
  fill-opacity: 0;
  stroke:       black;
  stroke-width: 0.5;
}

.highlight rect {
  fill:       red;
  fill-opacity: 1;
}
.axis path,
.axis line {
  fill: none;
  stroke: #000;
  shape-rendering: crispEdges;
}
path {
    stroke: red;
    fill: none;
}

line {
    stroke: red;
}

path.marker {
    fill: red;
}
 ]]></style></defs><g transform="translate(50,10)"><g class="bar" transform="translate(0,310)"><rect x="1" width="11.999999999999996" height="0"></rect></g><g class="bar" transform="translate(12.999999999999996,310)"><rect x="1" width="11.999999999999996" height="0"></rect></g><g class="bar" transform="translate(25.999999999999993,310)"><rect x="1" width="11.999999999999996" height="0"></rect></g><g class="bar" transform="translate(39.00000000000001,310)"><rect x="1" width="11.999999999999996" height="0"></rect></g><g class="bar" transform="translate(52,310)"><rect x="1" width="11.999999999999996" height="0"></rect></g><g class="bar" transform="translate(65,310)"><rect x="1" width="11.999999999999996" height="0"></rect></g><g class="bar" transform="translate(78.00000000000001,310)"><rect x="1" width="11.999999999999996" height="0"></rect></g><g class="bar" transform="translate(91.00000000000001,310)"><rect x="1" width="11.999999999999996" height="0"></rect></g><g class="bar" transform="translate(104,310)"><rect x="1" width="11.999999999999996" height="0"></rect></g><g class="bar" transform="translate(117,310)"><rect x="1" width="11.999999999999996" height="0"></rect></g><g class="bar" transform="translate(130,308.9902280130293)"><rect x="1" width="11.999999999999996" height="1.0097719869706907"></rect></g><g class="bar" transform="translate(143,301.92182410423453)"><rect x="1" width="11.999999999999996" height="8.078175895765469"></rect></g><g class="bar" transform="translate(156.00000000000003,296.87296416938113)"><rect x="1" width="11.999999999999996" height="13.127035830618865"></rect></g><g class="bar" transform="translate(169,227.1986970684039)"><rect x="1" width="11.999999999999996" height="82.8013029315961"></rect></g><g class="bar" transform="translate(182.00000000000003,152.4755700325733)"><rect x="1" width="11.999999999999996" height="157.5244299674267"></rect></g><g class="bar" transform="translate(195,81.7915309446254)"><rect x="1" width="11.999999999999996" height="228.2084690553746"></rect></g><g class="bar" transform="translate(208,0)"><rect x="1" width="11.999999999999996" height="310"></rect></g><g class="bar" transform="translate(221.00000000000003,21.20521172638439)"><rect x="1" width="11.999999999999996" height="288.7947882736156"></rect></g><g class="bar" transform="translate(234,101.98697068403911)"><rect x="1" width="11.999999999999996" height="208.0130293159609"></rect></g><g class="bar" transform="translate(247.00000000000003,136.31921824104234)"><rect x="1" width="11.999999999999996" height="173.68078175895766"></rect></g><g class="bar" transform="translate(260,149.44625407166123)"><rect x="1" width="11.999999999999996" height="160.55374592833877"></rect></g><g class="bar" transform="translate(273,130.26058631921822)"><rect x="1" width="11.999999999999996" height="179.73941368078178"></rect></g><g class="bar" transform="translate(286,161.56351791530946)"><rect x="1" width="11.999999999999996" height="148.43648208469054"></rect></g><g class="bar" transform="translate(299.00000000000006,173.68078175895766)"><rect x="1" width="11.999999999999996" height="136.31921824104234"></rect></g><g class="bar" transform="translate(312.00000000000006,195.8957654723127)"><rect x="1" width="11.999999999999996" height="114.10423452768731"></rect></g><g class="bar" transform="translate(325,233.25732899022802)"><rect x="1" width="11.999999999999996" height="76.74267100977198"></rect></g><g class="bar" transform="translate(338,260.5211726384365)"><rect x="1" width="11.999999999999996" height="49.4788273615635"></rect></g><g class="bar" transform="translate(351,261.5309446254072)"><rect x="1" width="11.999999999999996" height="48.46905537459281"></rect></g><g class="bar" transform="translate(364.00000000000006,279.7068403908795)"><rect x="1" width="11.999999999999996" height="30.293159609120494"></rect></g><g class="bar" transform="translate(377.00000000000006,291.8241042345277)"><rect x="1" width="11.999999999999996" height="18.17589576547232"></rect></g><g class="bar" transform="translate(390,307.9804560260586)"><rect x="1" width="11.999999999999996" height="2.0195439739413814"></rect></g><g class="bar" transform="translate(403,308.9902280130293)"><rect x="1" width="11.999999999999996" height="1.0097719869706907"></rect></g><g class="bar" transform="translate(416,308.9902280130293)"><rect x="1" width="11.999999999999996" height="1.0097719869706907"></rect></g><g class="bar" transform="translate(429.00000000000006,310)"><rect x="1" width="11.999999999999996" height="0"></rect></g><g class="bar" transform="translate(442.00000000000006,310)"><rect x="1" width="11.999999999999996" height="0"></rect></g><g class="bar" transform="translate(455,310)"><rect x="1" width="11.999999999999996" height="0"></rect></g><g class="bar" transform="translate(468,310)"><rect x="1" width="11.999999999999996" height="0"></rect></g><g class="bar" transform="translate(481,310)"><rect x="1" width="11.999999999999996" height="0"></rect></g><g class="bar" transform="translate(494.00000000000006,310)"><rect x="1" width="11.999999999999996" height="0"></rect></g><g class="bar" transform="translate(507.00000000000006,310)"><rect x="1" width="11.999999999999996" height="0"></rect></g><g class="axis axis--x" transform="translate(0,310)" fill="none" font-size="10" font-family="sans-serif" text-anchor="middle"><path class="domain" stroke="#000" d="M0.5,6V0.5H520.5V6"></path><g class="tick" opacity="1" transform="translate(0.5,0)"><line stroke="#000" y2="6"></line><text fill="#000" y="9" dy="0.71em">0.01</text></g><g class="tick" opacity="1" transform="translate(130.5,0)"><line stroke="#000" y2="6"></line><text fill="#000" y="9" dy="0.71em">1</text></g><g class="tick" opacity="1" transform="translate(260.5,0)"><line stroke="#000" y2="6"></line><text fill="#000" y="9" dy="0.71em">100</text></g><g class="tick" opacity="1" transform="translate(390.5,0)"><line stroke="#000" y2="6"></line><text fill="#000" y="9" dy="0.71em">10000</text></g><g class="tick" opacity="1" transform="translate(520.5,0)"><line stroke="#000" y2="6"></line><text fill="#000" y="9" dy="0.71em"></text></g></g><g class="axis axis--y" fill="none" font-size="10" font-family="sans-serif" text-anchor="end"><path class="domain" stroke="#000" d="M-6,310.5H0.5V0.5H-6"></path><g class="tick" opacity="1" transform="translate(0,310.5)"><line stroke="#000" x2="-6"></line><text fill="#000" x="-9" dy="0.32em">0</text></g><g class="tick" opacity="1" transform="translate(0,290.3045602605863)"><line stroke="#000" x2="-6"></line><text fill="#000" x="-9" dy="0.32em">20</text></g><g class="tick" opacity="1" transform="translate(0,270.10912052117266)"><line stroke="#000" x2="-6"></line><text fill="#000" x="-9" dy="0.32em">40</text></g><g class="tick" opacity="1" transform="translate(0,249.91368078175896)"><line stroke="#000" x2="-6"></line><text fill="#000" x="-9" dy="0.32em">60</text></g><g class="tick" opacity="1" transform="translate(0,229.71824104234526)"><line stroke="#000" x2="-6"></line><text fill="#000" x="-9" dy="0.32em">80</text></g><g class="tick" opacity="1" transform="translate(0,209.5228013029316)"><line stroke="#000" x2="-6"></line><text fill="#000" x="-9" dy="0.32em">100</text></g><g class="tick" opacity="1" transform="translate(0,189.3273615635179)"><line stroke="#000" x2="-6"></line><text fill="#000" x="-9" dy="0.32em">120</text></g><g class="tick" opacity="1" transform="translate(0,169.13192182410424)"><line stroke="#000" x2="-6"></line><text fill="#000" x="-9" dy="0.32em">140</text></g><g class="tick" opacity="1" transform="translate(0,148.93648208469054)"><line stroke="#000" x2="-6"></line><text fill="#000" x="-9" dy="0.32em">160</text></g><g class="tick" opacity="1" transform="translate(0,128.74104234527687)"><line stroke="#000" x2="-6"></line><text fill="#000" x="-9" dy="0.32em">180</text></g><g class="tick" opacity="1" transform="translate(0,108.5456026058632)"><line stroke="#000" x2="-6"></line><text fill="#000" x="-9" dy="0.32em">200</text></g><g class="tick" opacity="1" transform="translate(0,88.35016286644952)"><line stroke="#000" x2="-6"></line><text fill="#000" x="-9" dy="0.32em">220</text></g><g class="tick" opacity="1" transform="translate(0,68.15472312703582)"><line stroke="#000" x2="-6"></line><text fill="#000" x="-9" dy="0.32em">240</text></g><g class="tick" opacity="1" transform="translate(0,47.95928338762212)"><line stroke="#000" x2="-6"></line><text fill="#000" x="-9" dy="0.32em">260</text></g><g class="tick" opacity="1" transform="translate(0,27.76384364820848)"><line stroke="#000" x2="-6"></line><text fill="#000" x="-9" dy="0.32em">280</text></g><g class="tick" opacity="1" transform="translate(0,7.568403908794778)"><line stroke="#000" x2="-6"></line><text fill="#000" x="-9" dy="0.32em">300</text></g></g></g></svg>