<svg xmlns="http://www.w3.org/2000/svg" width="600" height="350"><defs><style type="text/css"><![CDATA[ 
.bar rect {
  fill-opacity: 0;
  stroke:       black;
  stroke-width: 0.5;
}

.highlight rect {
  fill:       red;
  fill-opacity: 1;
}
.axis path,
.axis line {
  fill: none;
  stroke: #000;
  shape-rendering: crispEdges;
}
path {
    stroke: red;
    fill: none;
}

line {
    stroke: red;
}

path.marker {
    fill: red;
}
 ]]></style></defs><g transform="translate(50,10)"><g class="bar" transform="translate(0,310)"><rect x="1" width="11.999999999999996" height="0"></rect></g><g class="bar" transform="translate(12.999999999999996,310)"><rect x="1" width="11.999999999999996" height="0"></rect></g><g class="bar" transform="translate(25.999999999999993,310)"><rect x="1" width="11.999999999999996" height="0"></rect></g><g class="bar" transform="translate(39.00000000000001,310)"><rect x="1" width="11.999999999999996" height="0"></rect></g><g class="bar" transform="translate(52,310)"><rect x="1" width="11.999999999999996" height="0"></rect></g><g class="bar" transform="translate(65,310)"><rect x="1" width="11.999999999999996" height="0"></rect></g><g class="bar" transform="translate(78.00000000000001,310)"><rect x="1" width="11.999999999999996" height="0"></rect></g><g class="bar" transform="translate(91.00000000000001,310)"><rect x="1" width="11.999999999999996" height="0"></rect></g><g class="bar" transform="translate(104,310)"><rect x="1" width="11.999999999999996" height="0"></rect></g><g class="bar" transform="translate(117,310)"><rect x="1" width="11.999999999999996" height="0"></rect></g><g class="bar" transform="translate(130,310)"><rect x="1" width="11.999999999999996" height="0"></rect></g><g class="bar" transform="translate(143,310)"><rect x="1" width="11.999999999999996" height="0"></rect></g><g class="bar" transform="translate(156.00000000000003,310)"><rect x="1" width="11.999999999999996" height="0"></rect></g><g class="bar" transform="translate(169,310)"><rect x="1" width="11.999999999999996" height="0"></rect></g><g class="bar" transform="translate(182.00000000000003,310)"><rect x="1" width="11.999999999999996" height="0"></rect></g><g class="bar" transform="translate(195,303.8)"><rect x="1" width="11.999999999999996" height="6.199999999999989"></rect></g><g class="bar" transform="translate(208,303.8)"><rect x="1" width="11.999999999999996" height="6.199999999999989"></rect></g><g class="bar" transform="translate(221.00000000000003,285.2)"><rect x="1" width="11.999999999999996" height="24.80000000000001"></rect></g><g class="bar" transform="translate(234,204.6)"><rect x="1" width="11.999999999999996" height="105.4"></rect></g><g class="bar" transform="translate(247.00000000000003,155)"><rect x="1" width="11.999999999999996" height="155"></rect></g><g class="bar" transform="translate(260,111.6)"><rect x="1" width="11.999999999999996" height="198.4"></rect></g><g class="bar" transform="translate(273,49.60000000000002)"><rect x="1" width="11.999999999999996" height="260.4"></rect></g><g class="bar" transform="translate(286,93)"><rect x="1" width="11.999999999999996" height="217"></rect></g><g class="bar" transform="translate(299.00000000000006,31)"><rect x="1" width="11.999999999999996" height="279"></rect></g><g class="bar" transform="translate(312.00000000000006,31)"><rect x="1" width="11.999999999999996" height="279"></rect></g><g class="bar" transform="translate(325,0)"><rect x="1" width="11.999999999999996" height="310"></rect></g><g class="bar" transform="translate(338,24.80000000000001)"><rect x="1" width="11.999999999999996" height="285.2"></rect></g><g class="bar" transform="translate(351,111.6)"><rect x="1" width="11.999999999999996" height="198.4"></rect></g><g class="bar" transform="translate(364.00000000000006,111.6)"><rect x="1" width="11.999999999999996" height="198.4"></rect></g><g class="bar" transform="translate(377.00000000000006,130.20000000000002)"><rect x="1" width="11.999999999999996" height="179.79999999999998"></rect></g><g class="bar" transform="translate(390,272.8)"><rect x="1" width="11.999999999999996" height="37.19999999999999"></rect></g><g class="bar" transform="translate(403,291.4)"><rect x="1" width="11.999999999999996" height="18.600000000000023"></rect></g><g class="bar" transform="translate(416,291.4)"><rect x="1" width="11.999999999999996" height="18.600000000000023"></rect></g><g class="bar" transform="translate(429.00000000000006,303.8)"><rect x="1" width="11.999999999999996" height="6.199999999999989"></rect></g><g class="bar" transform="translate(442.00000000000006,310)"><rect x="1" width="11.999999999999996" height="0"></rect></g><g class="bar" transform="translate(455,310)"><rect x="1" width="11.999999999999996" height="0"></rect></g><g class="bar" transform="translate(468,310)"><rect x="1" width="11.999999999999996" height="0"></rect></g><g class="bar" transform="translate(481,310)"><rect x="1" width="11.999999999999996" height="0"></rect></g><g class="bar" transform="translate(494.00000000000006,310)"><rect x="1" width="11.999999999999996" height="0"></rect></g><g class="bar" transform="translate(507.00000000000006,310)"><rect x="1" width="11.999999999999996" height="0"></rect></g><g class="axis axis--x" transform="translate(0,310)" fill="none" font-size="10" font-family="sans-serif" text-anchor="middle"><path class="domain" stroke="#000" d="M0.5,6V0.5H520.5V6"></path><g class="tick" opacity="1" transform="translate(0.5,0)"><line stroke="#000" y2="6"></line><text fill="#000" y="9" dy="0.71em">0.01</text></g><g class="tick" opacity="1" transform="translate(130.5,0)"><line stroke="#000" y2="6"></line><text fill="#000" y="9" dy="0.71em">1</text></g><g class="tick" opacity="1" transform="translate(260.5,0)"><line stroke="#000" y2="6"></line><text fill="#000" y="9" dy="0.71em">100</text></g><g class="tick" opacity="1" transform="translate(390.5,0)"><line stroke="#000" y2="6"></line><text fill="#000" y="9" dy="0.71em">10000</text></g><g class="tick" opacity="1" transform="translate(520.5,0)"><line stroke="#000" y2="6"></line><text fill="#000" y="9" dy="0.71em"></text></g></g><g class="axis axis--y" fill="none" font-size="10" font-family="sans-serif" text-anchor="end"><path class="domain" stroke="#000" d="M-6,310.5H0.5V0.5H-6"></path><g class="tick" opacity="1" transform="translate(0,310.5)"><line stroke="#000" x2="-6"></line><text fill="#000" x="-9" dy="0.32em">0</text></g><g class="tick" opacity="1" transform="translate(0,279.5)"><line stroke="#000" x2="-6"></line><text fill="#000" x="-9" dy="0.32em">5</text></g><g class="tick" opacity="1" transform="translate(0,248.5)"><line stroke="#000" x2="-6"></line><text fill="#000" x="-9" dy="0.32em">10</text></g><g class="tick" opacity="1" transform="translate(0,217.5)"><line stroke="#000" x2="-6"></line><text fill="#000" x="-9" dy="0.32em">15</text></g><g class="tick" opacity="1" transform="translate(0,186.5)"><line stroke="#000" x2="-6"></line><text fill="#000" x="-9" dy="0.32em">20</text></g><g class="tick" opacity="1" transform="translate(0,155.5)"><line stroke="#000" x2="-6"></line><text fill="#000" x="-9" dy="0.32em">25</text></g><g class="tick" opacity="1" transform="translate(0,124.5)"><line stroke="#000" x2="-6"></line><text fill="#000" x="-9" dy="0.32em">30</text></g><g class="tick" opacity="1" transform="translate(0,93.5)"><line stroke="#000" x2="-6"></line><text fill="#000" x="-9" dy="0.32em">35</text></g><g class="tick" opacity="1" transform="translate(0,62.5)"><line stroke="#000" x2="-6"></line><text fill="#000" x="-9" dy="0.32em">40</text></g><g class="tick" opacity="1" transform="translate(0,31.5)"><line stroke="#000" x2="-6"></line><text fill="#000" x="-9" dy="0.32em">45</text></g><g class="tick" opacity="1" transform="translate(0,0.5)"><line stroke="#000" x2="-6"></line><text fill="#000" x="-9" dy="0.32em">50</text></g></g></g></svg>