<svg xmlns="http://www.w3.org/2000/svg" width="280" height="160"><defs><style type="text/css"><![CDATA[ 
.bar rect {
  fill-opacity: 0;
  stroke:       black;
  stroke-width: 0.5;
}

.highlight rect {
  fill:       red;
  fill-opacity: 1;
}
.axis path,
.axis line {
  fill: none;
  stroke: #000;
  shape-rendering: crispEdges;
}
path {
    stroke: red;
    fill: none;
}

line {
    stroke: red;
}

path.marker {
    fill: red;
}
 ]]></style></defs><g transform="translate(50,10)"><g class="bar" transform="translate(0,118.73817034700315)"><rect x="1" width="11.5" height="1.2618296529968518"></rect></g><g class="bar" transform="translate(12.5,114.06940063091483)"><rect x="1" width="11.5" height="5.930599369085172"></rect></g><g class="bar" transform="translate(25,102.71293375394322)"><rect x="1" width="11.5" height="17.28706624605678"></rect></g><g class="bar" transform="translate(37.5,74.3217665615142)"><rect x="1" width="11.5" height="45.678233438485805"></rect></g><g class="bar" transform="translate(50,40)"><rect x="1" width="11.5" height="80"></rect></g><g class="bar" transform="translate(62.5,17.66561514195584)"><rect x="1" width="11.5" height="102.33438485804416"></rect></g><g class="bar" transform="translate(75,0)"><rect x="1" width="11.5" height="120"></rect></g><g class="bar" transform="translate(87.5,11.104100946372242)"><rect x="1" width="11.5" height="108.89589905362776"></rect></g><g class="bar" transform="translate(100,42.52365930599369)"><rect x="1" width="11.5" height="77.47634069400631"></rect></g><g class="bar" transform="translate(112.5,74.06940063091483)"><rect x="1" width="11.5" height="45.93059936908517"></rect></g><g class="bar" transform="translate(125,102.8391167192429)"><rect x="1" width="11.5" height="17.160883280757105"></rect></g><g class="bar" transform="translate(137.5,112.55520504731861)"><rect x="1" width="11.5" height="7.4447949526813915"></rect></g><g class="bar" transform="translate(150,119.49526813880126)"><rect x="1" width="11.5" height="0.504731861198735"></rect></g><g class="bar" transform="translate(162.5,120)"><rect x="1" width="11.5" height="0"></rect></g><g class="bar" transform="translate(175,120)"><rect x="1" width="11.5" height="0"></rect></g><g class="bar" transform="translate(187.5,120)"><rect x="1" width="11.5" height="0"></rect></g></g></svg>