<svg xmlns="http://www.w3.org/2000/svg" width="600" height="350"><defs><style type="text/css"><![CDATA[ 
.bar rect {
  fill-opacity: 0;
  stroke:       black;
  stroke-width: 0.5;
}

.highlight rect {
  fill:       red;
  fill-opacity: 1;
}
.axis path,
.axis line {
  fill: none;
  stroke: #000;
  shape-rendering: crispEdges;
}
 ]]></style></defs><g transform="translate(50,10)"><g class="bar" transform="translate(0,296.94736842105266)"><rect x="1" width="11.999999999999996" height="13.052631578947341"></rect></g><g class="bar" transform="translate(12.999999999999996,282.2631578947368)"><rect x="1" width="11.999999999999996" height="27.73684210526318"></rect></g><g class="bar" transform="translate(25.999999999999993,264.3157894736842)"><rect x="1" width="11.999999999999996" height="45.68421052631578"></rect></g><g class="bar" transform="translate(39.00000000000001,249.63157894736844)"><rect x="1" width="11.999999999999996" height="60.36842105263156"></rect></g><g class="bar" transform="translate(52,221.89473684210526)"><rect x="1" width="11.999999999999996" height="88.10526315789474"></rect></g><g class="bar" transform="translate(65,163.1578947368421)"><rect x="1" width="11.999999999999996" height="146.8421052631579"></rect></g><g class="bar" transform="translate(78.00000000000001,119.10526315789474)"><rect x="1" width="11.999999999999996" height="190.89473684210526"></rect></g><g class="bar" transform="translate(91.00000000000001,96.26315789473682)"><rect x="1" width="11.999999999999996" height="213.73684210526318"></rect></g><g class="bar" transform="translate(104,94.63157894736841)"><rect x="1" width="11.999999999999996" height="215.3684210526316"></rect></g><g class="bar" transform="translate(117,63.63157894736841)"><rect x="1" width="11.999999999999996" height="246.3684210526316"></rect></g><g class="bar" transform="translate(130,16.31578947368422)"><rect x="1" width="11.999999999999996" height="293.6842105263158"></rect></g><g class="bar" transform="translate(143,58.73684210526318)"><rect x="1" width="11.999999999999996" height="251.26315789473682"></rect></g><g class="bar" transform="translate(156.00000000000003,4.89473684210526)"><rect x="1" width="11.999999999999996" height="305.10526315789474"></rect></g><g class="bar" transform="translate(169,0)"><rect x="1" width="11.999999999999996" height="310"></rect></g><g class="bar" transform="translate(182.00000000000003,35.89473684210526)"><rect x="1" width="11.999999999999996" height="274.10526315789474"></rect></g><g class="bar" transform="translate(195,22.84210526315792)"><rect x="1" width="11.999999999999996" height="287.1578947368421"></rect></g><g class="bar" transform="translate(208,42.42105263157896)"><rect x="1" width="11.999999999999996" height="267.57894736842104"></rect></g><g class="bar" transform="translate(221.00000000000003,31)"><rect x="1" width="11.999999999999996" height="279"></rect></g><g class="bar" transform="translate(234,76.68421052631578)"><rect x="1" width="11.999999999999996" height="233.31578947368422"></rect></g><g class="bar" transform="translate(247.00000000000003,35.89473684210526)"><rect x="1" width="11.999999999999996" height="274.10526315789474"></rect></g><g class="bar" transform="translate(260,76.68421052631578)"><rect x="1" width="11.999999999999996" height="233.31578947368422"></rect></g><g class="bar" transform="translate(273,91.36842105263159)"><rect x="1" width="11.999999999999996" height="218.6315789473684"></rect></g><g class="bar" transform="translate(286,96.26315789473682)"><rect x="1" width="11.999999999999996" height="213.73684210526318"></rect></g><g class="bar" transform="translate(299.00000000000006,102.78947368421055)"><rect x="1" width="11.999999999999996" height="207.21052631578945"></rect></g><g class="bar" transform="translate(312.00000000000006,150.1052631578947)"><rect x="1" width="11.999999999999996" height="159.8947368421053"></rect></g><g class="bar" transform="translate(325,195.78947368421052)"><rect x="1" width="11.999999999999996" height="114.21052631578948"></rect></g><g class="bar" transform="translate(338,230.05263157894734)"><rect x="1" width="11.999999999999996" height="79.94736842105266"></rect></g><g class="bar" transform="translate(351,238.21052631578948)"><rect x="1" width="11.999999999999996" height="71.78947368421052"></rect></g><g class="bar" transform="translate(364.00000000000006,274.10526315789474)"><rect x="1" width="11.999999999999996" height="35.89473684210526"></rect></g><g class="bar" transform="translate(377.00000000000006,285.5263157894737)"><rect x="1" width="11.999999999999996" height="24.4736842105263"></rect></g><g class="bar" transform="translate(390,293.6842105263158)"><rect x="1" width="11.999999999999996" height="16.31578947368422"></rect></g><g class="bar" transform="translate(403,308.36842105263156)"><rect x="1" width="11.999999999999996" height="1.631578947368439"></rect></g><g class="bar" transform="translate(416,308.36842105263156)"><rect x="1" width="11.999999999999996" height="1.631578947368439"></rect></g><g class="bar" transform="translate(429.00000000000006,310)"><rect x="1" width="11.999999999999996" height="0"></rect></g><g class="bar" transform="translate(442.00000000000006,310)"><rect x="1" width="11.999999999999996" height="0"></rect></g><g class="bar" transform="translate(455,310)"><rect x="1" width="11.999999999999996" height="0"></rect></g><g class="bar" transform="translate(468,310)"><rect x="1" width="11.999999999999996" height="0"></rect></g><g class="bar" transform="translate(481,310)"><rect x="1" width="11.999999999999996" height="0"></rect></g><g class="bar" transform="translate(494.00000000000006,310)"><rect x="1" width="11.999999999999996" height="0"></rect></g><g class="bar" transform="translate(507.00000000000006,310)"><rect x="1" width="11.999999999999996" height="0"></rect></g><g class="axis axis--x" transform="translate(0,310)" fill="none" font-size="10" font-family="sans-serif" text-anchor="middle"><path class="domain" stroke="#000" d="M0.5,6V0.5H520.5V6"></path><g class="tick" opacity="1" transform="translate(0,0)"><line stroke="#000" y2="6" x1="0.5" x2="0.5"></line><text fill="#000" y="9" x="0.5" dy="0.71em">0.01</text></g><g class="tick" opacity="1" transform="translate(130,0)"><line stroke="#000" y2="6" x1="0.5" x2="0.5"></line><text fill="#000" y="9" x="0.5" dy="0.71em">1</text></g><g class="tick" opacity="1" transform="translate(260,0)"><line stroke="#000" y2="6" x1="0.5" x2="0.5"></line><text fill="#000" y="9" x="0.5" dy="0.71em">100</text></g><g class="tick" opacity="1" transform="translate(390,0)"><line stroke="#000" y2="6" x1="0.5" x2="0.5"></line><text fill="#000" y="9" x="0.5" dy="0.71em">10000</text></g><g class="tick" opacity="1" transform="translate(520,0)"><line stroke="#000" y2="6" x1="0.5" x2="0.5"></line><text fill="#000" y="9" x="0.5" dy="0.71em"></text></g></g><g class="axis axis--y" fill="none" font-size="10" font-family="sans-serif" text-anchor="end"><path class="domain" stroke="#000" d="M-6,310.5H0.5V0.5H-6"></path><g class="tick" opacity="1" transform="translate(0,310)"><line stroke="#000" x2="-6" y1="0.5" y2="0.5"></line><text fill="#000" x="-9" y="0.5" dy="0.32em">0</text></g><g class="tick" opacity="1" transform="translate(0,277.36842105263156)"><line stroke="#000" x2="-6" y1="0.5" y2="0.5"></line><text fill="#000" x="-9" y="0.5" dy="0.32em">20</text></g><g class="tick" opacity="1" transform="translate(0,244.73684210526318)"><line stroke="#000" x2="-6" y1="0.5" y2="0.5"></line><text fill="#000" x="-9" y="0.5" dy="0.32em">40</text></g><g class="tick" opacity="1" transform="translate(0,212.10526315789474)"><line stroke="#000" x2="-6" y1="0.5" y2="0.5"></line><text fill="#000" x="-9" y="0.5" dy="0.32em">60</text></g><g class="tick" opacity="1" transform="translate(0,179.47368421052633)"><line stroke="#000" x2="-6" y1="0.5" y2="0.5"></line><text fill="#000" x="-9" y="0.5" dy="0.32em">80</text></g><g class="tick" opacity="1" transform="translate(0,146.8421052631579)"><line stroke="#000" x2="-6" y1="0.5" y2="0.5"></line><text fill="#000" x="-9" y="0.5" dy="0.32em">100</text></g><g class="tick" opacity="1" transform="translate(0,114.21052631578948)"><line stroke="#000" x2="-6" y1="0.5" y2="0.5"></line><text fill="#000" x="-9" y="0.5" dy="0.32em">120</text></g><g class="tick" opacity="1" transform="translate(0,81.57894736842107)"><line stroke="#000" x2="-6" y1="0.5" y2="0.5"></line><text fill="#000" x="-9" y="0.5" dy="0.32em">140</text></g><g class="tick" opacity="1" transform="translate(0,48.94736842105266)"><line stroke="#000" x2="-6" y1="0.5" y2="0.5"></line><text fill="#000" x="-9" y="0.5" dy="0.32em">160</text></g><g class="tick" opacity="1" transform="translate(0,16.31578947368422)"><line stroke="#000" x2="-6" y1="0.5" y2="0.5"></line><text fill="#000" x="-9" y="0.5" dy="0.32em">180</text></g></g></g></svg>