<svg xmlns="http://www.w3.org/2000/svg" width="600" height="350"><defs><style type="text/css"><![CDATA[ 
.bar rect {
  fill-opacity: 0;
  stroke:       black;
  stroke-width: 0.5;
}

.highlight rect {
  fill:       red;
  fill-opacity: 1;
}
.axis path,
.axis line {
  fill: none;
  stroke: #000;
  shape-rendering: crispEdges;
}
 ]]></style></defs><g transform="translate(50,10)"><g class="bar" transform="translate(0,310)"><rect x="1" width="11.999999999999996" height="0"></rect></g><g class="bar" transform="translate(12.999999999999996,310)"><rect x="1" width="11.999999999999996" height="0"></rect></g><g class="bar" transform="translate(25.999999999999993,310)"><rect x="1" width="11.999999999999996" height="0"></rect></g><g class="bar" transform="translate(39.00000000000001,310)"><rect x="1" width="11.999999999999996" height="0"></rect></g><g class="bar" transform="translate(52,310)"><rect x="1" width="11.999999999999996" height="0"></rect></g><g class="bar" transform="translate(65,309.48504983388705)"><rect x="1" width="11.999999999999996" height="0.5149501661129534"></rect></g><g class="bar" transform="translate(78.00000000000001,306.3953488372093)"><rect x="1" width="11.999999999999996" height="3.604651162790674"></rect></g><g class="bar" transform="translate(91.00000000000001,298.67109634551497)"><rect x="1" width="11.999999999999996" height="11.328903654485032"></rect></g><g class="bar" transform="translate(104,260.56478405315613)"><rect x="1" width="11.999999999999996" height="49.43521594684387"></rect></g><g class="bar" transform="translate(117,202.890365448505)"><rect x="1" width="11.999999999999996" height="107.10963455149499"></rect></g><g class="bar" transform="translate(130,146.24584717607974)"><rect x="1" width="11.999999999999996" height="163.75415282392026"></rect></g><g class="bar" transform="translate(143,91.14617940199335)"><rect x="1" width="11.999999999999996" height="218.85382059800665"></rect></g><g class="bar" transform="translate(156.00000000000003,25.74750830564784)"><rect x="1" width="11.999999999999996" height="284.25249169435216"></rect></g><g class="bar" transform="translate(169,29.352159468438515)"><rect x="1" width="11.999999999999996" height="280.6478405315615"></rect></g><g class="bar" transform="translate(182.00000000000003,4.6345514950166375)"><rect x="1" width="11.999999999999996" height="305.36544850498336"></rect></g><g class="bar" transform="translate(195,3.6046511627907307)"><rect x="1" width="11.999999999999996" height="306.39534883720927"></rect></g><g class="bar" transform="translate(208,10.299003322259125)"><rect x="1" width="11.999999999999996" height="299.7009966777409"></rect></g><g class="bar" transform="translate(221.00000000000003,0)"><rect x="1" width="11.999999999999996" height="310"></rect></g><g class="bar" transform="translate(234,66.42857142857144)"><rect x="1" width="11.999999999999996" height="243.57142857142856"></rect></g><g class="bar" transform="translate(247.00000000000003,89.60132890365449)"><rect x="1" width="11.999999999999996" height="220.3986710963455"></rect></g><g class="bar" transform="translate(260,131.312292358804)"><rect x="1" width="11.999999999999996" height="178.687707641196"></rect></g><g class="bar" transform="translate(273,153.9700996677741)"><rect x="1" width="11.999999999999996" height="156.0299003322259"></rect></g><g class="bar" transform="translate(286,192.59136212624585)"><rect x="1" width="11.999999999999996" height="117.40863787375415"></rect></g><g class="bar" transform="translate(299.00000000000006,230.69767441860466)"><rect x="1" width="11.999999999999996" height="79.30232558139534"></rect></g><g class="bar" transform="translate(312.00000000000006,253.35548172757476)"><rect x="1" width="11.999999999999996" height="56.644518272425245"></rect></g><g class="bar" transform="translate(325,270.3488372093023)"><rect x="1" width="11.999999999999996" height="39.6511627906977"></rect></g><g class="bar" transform="translate(338,285.797342192691)"><rect x="1" width="11.999999999999996" height="24.20265780730898"></rect></g><g class="bar" transform="translate(351,284.25249169435216)"><rect x="1" width="11.999999999999996" height="25.74750830564784"></rect></g><g class="bar" transform="translate(364.00000000000006,297.12624584717605)"><rect x="1" width="11.999999999999996" height="12.873754152823949"></rect></g><g class="bar" transform="translate(377.00000000000006,306.3953488372093)"><rect x="1" width="11.999999999999996" height="3.604651162790674"></rect></g><g class="bar" transform="translate(390,310)"><rect x="1" width="11.999999999999996" height="0"></rect></g><g class="bar" transform="translate(403,310)"><rect x="1" width="11.999999999999996" height="0"></rect></g><g class="bar" transform="translate(416,309.48504983388705)"><rect x="1" width="11.999999999999996" height="0.5149501661129534"></rect></g><g class="bar" transform="translate(429.00000000000006,310)"><rect x="1" width="11.999999999999996" height="0"></rect></g><g class="bar" transform="translate(442.00000000000006,310)"><rect x="1" width="11.999999999999996" height="0"></rect></g><g class="bar" transform="translate(455,310)"><rect x="1" width="11.999999999999996" height="0"></rect></g><g class="bar" transform="translate(468,310)"><rect x="1" width="11.999999999999996" height="0"></rect></g><g class="bar" transform="translate(481,310)"><rect x="1" width="11.999999999999996" height="0"></rect></g><g class="bar" transform="translate(494.00000000000006,310)"><rect x="1" width="11.999999999999996" height="0"></rect></g><g class="bar" transform="translate(507.00000000000006,310)"><rect x="1" width="11.999999999999996" height="0"></rect></g><g class="axis axis--x" transform="translate(0,310)" fill="none" font-size="10" font-family="sans-serif" text-anchor="middle"><path class="domain" stroke="#000" d="M0.5,6V0.5H520.5V6"></path><g class="tick" opacity="1" transform="translate(0,0)"><line stroke="#000" y2="6" x1="0.5" x2="0.5"></line><text fill="#000" y="9" x="0.5" dy="0.71em">0.01</text></g><g class="tick" opacity="1" transform="translate(130,0)"><line stroke="#000" y2="6" x1="0.5" x2="0.5"></line><text fill="#000" y="9" x="0.5" dy="0.71em">1</text></g><g class="tick" opacity="1" transform="translate(260,0)"><line stroke="#000" y2="6" x1="0.5" x2="0.5"></line><text fill="#000" y="9" x="0.5" dy="0.71em">100</text></g><g class="tick" opacity="1" transform="translate(390,0)"><line stroke="#000" y2="6" x1="0.5" x2="0.5"></line><text fill="#000" y="9" x="0.5" dy="0.71em">10000</text></g><g class="tick" opacity="1" transform="translate(520,0)"><line stroke="#000" y2="6" x1="0.5" x2="0.5"></line><text fill="#000" y="9" x="0.5" dy="0.71em"></text></g></g><g class="axis axis--y" fill="none" font-size="10" font-family="sans-serif" text-anchor="end"><path class="domain" stroke="#000" d="M-6,310.5H0.5V0.5H-6"></path><g class="tick" opacity="1" transform="translate(0,310)"><line stroke="#000" x2="-6" y1="0.5" y2="0.5"></line><text fill="#000" x="-9" y="0.5" dy="0.32em">0</text></g><g class="tick" opacity="1" transform="translate(0,284.25249169435216)"><line stroke="#000" x2="-6" y1="0.5" y2="0.5"></line><text fill="#000" x="-9" y="0.5" dy="0.32em">50</text></g><g class="tick" opacity="1" transform="translate(0,258.5049833887043)"><line stroke="#000" x2="-6" y1="0.5" y2="0.5"></line><text fill="#000" x="-9" y="0.5" dy="0.32em">100</text></g><g class="tick" opacity="1" transform="translate(0,232.75747508305648)"><line stroke="#000" x2="-6" y1="0.5" y2="0.5"></line><text fill="#000" x="-9" y="0.5" dy="0.32em">150</text></g><g class="tick" opacity="1" transform="translate(0,207.00996677740864)"><line stroke="#000" x2="-6" y1="0.5" y2="0.5"></line><text fill="#000" x="-9" y="0.5" dy="0.32em">200</text></g><g class="tick" opacity="1" transform="translate(0,181.2624584717608)"><line stroke="#000" x2="-6" y1="0.5" y2="0.5"></line><text fill="#000" x="-9" y="0.5" dy="0.32em">250</text></g><g class="tick" opacity="1" transform="translate(0,155.51495016611295)"><line stroke="#000" x2="-6" y1="0.5" y2="0.5"></line><text fill="#000" x="-9" y="0.5" dy="0.32em">300</text></g><g class="tick" opacity="1" transform="translate(0,129.7674418604651)"><line stroke="#000" x2="-6" y1="0.5" y2="0.5"></line><text fill="#000" x="-9" y="0.5" dy="0.32em">350</text></g><g class="tick" opacity="1" transform="translate(0,104.01993355481727)"><line stroke="#000" x2="-6" y1="0.5" y2="0.5"></line><text fill="#000" x="-9" y="0.5" dy="0.32em">400</text></g><g class="tick" opacity="1" transform="translate(0,78.27242524916943)"><line stroke="#000" x2="-6" y1="0.5" y2="0.5"></line><text fill="#000" x="-9" y="0.5" dy="0.32em">450</text></g><g class="tick" opacity="1" transform="translate(0,52.52491694352159)"><line stroke="#000" x2="-6" y1="0.5" y2="0.5"></line><text fill="#000" x="-9" y="0.5" dy="0.32em">500</text></g><g class="tick" opacity="1" transform="translate(0,26.777408637873748)"><line stroke="#000" x2="-6" y1="0.5" y2="0.5"></line><text fill="#000" x="-9" y="0.5" dy="0.32em">550</text></g><g class="tick" opacity="1" transform="translate(0,1.0299003322259068)"><line stroke="#000" x2="-6" y1="0.5" y2="0.5"></line><text fill="#000" x="-9" y="0.5" dy="0.32em">600</text></g></g></g></svg>