<svg xmlns="http://www.w3.org/2000/svg" width="280" height="160"><defs><style type="text/css"><![CDATA[ 
.bar rect {
  fill-opacity: 0;
  stroke:       black;
  stroke-width: 0.5;
}

.highlight rect {
  fill:       red;
  fill-opacity: 1;
}
.axis path,
.axis line {
  fill: none;
  stroke: #000;
  shape-rendering: crispEdges;
}
path {
    stroke: red;
    fill: none;
}

line {
    stroke: red;
}

path.marker {
    fill: red;
}
 ]]></style></defs><g transform="translate(50,10)"><g class="bar" transform="translate(0,120)"><rect x="1" width="11.5" height="0"></rect></g><g class="bar" transform="translate(12.5,120)"><rect x="1" width="11.5" height="0"></rect></g><g class="bar" transform="translate(25,120)"><rect x="1" width="11.5" height="0"></rect></g><g class="bar" transform="translate(37.5,117.93499043977056)"><rect x="1" width="11.5" height="2.0650095602294414"></rect></g><g class="bar" transform="translate(50,77.09369024856596)"><rect x="1" width="11.5" height="42.90630975143404"></rect></g><g class="bar" transform="translate(62.5,14.455066921606118)"><rect x="1" width="11.5" height="105.54493307839388"></rect></g><g class="bar" transform="translate(75,0)"><rect x="1" width="11.5" height="120"></rect></g><g class="bar" transform="translate(87.5,21.108986615678774)"><rect x="1" width="11.5" height="98.89101338432123"></rect></g><g class="bar" transform="translate(100,57.59082217973231)"><rect x="1" width="11.5" height="62.40917782026769"></rect></g><g class="bar" transform="translate(112.5,86.04206500956023)"><rect x="1" width="11.5" height="33.95793499043977"></rect></g><g class="bar" transform="translate(125,99.80879541108986)"><rect x="1" width="11.5" height="20.19120458891014"></rect></g><g class="bar" transform="translate(137.5,111.51051625239006)"><rect x="1" width="11.5" height="8.489483747609938"></rect></g><g class="bar" transform="translate(150,117.93499043977056)"><rect x="1" width="11.5" height="2.0650095602294414"></rect></g><g class="bar" transform="translate(162.5,119.08221797323135)"><rect x="1" width="11.5" height="0.9177820267686485"></rect></g><g class="bar" transform="translate(175,119.77055449330784)"><rect x="1" width="11.5" height="0.22944550669215857"></rect></g><g class="bar" transform="translate(187.5,120)"><rect x="1" width="11.5" height="0"></rect></g></g></svg>