<svg xmlns="http://www.w3.org/2000/svg" width="600" height="350"><defs><style type="text/css"><![CDATA[ 
.bar rect {
  fill-opacity: 0;
  stroke:       black;
  stroke-width: 0.5;
}

.highlight rect {
  fill:       red;
  fill-opacity: 1;
}
.axis path,
.axis line {
  fill: none;
  stroke: #000;
  shape-rendering: crispEdges;
}
 ]]></style></defs><g transform="translate(50,10)"><g class="bar" transform="translate(0,263.20754716981133)"><rect x="1" width="11.999999999999996" height="46.792452830188665"></rect></g><g class="bar" transform="translate(12.999999999999996,253.7590711175617)"><rect x="1" width="11.999999999999996" height="56.24092888243831"></rect></g><g class="bar" transform="translate(25.999999999999993,265.6821480406386)"><rect x="1" width="11.999999999999996" height="44.317851959361406"></rect></g><g class="bar" transform="translate(39.00000000000001,260.732946298984)"><rect x="1" width="11.999999999999996" height="49.26705370101598"></rect></g><g class="bar" transform="translate(52,256.45863570391873)"><rect x="1" width="11.999999999999996" height="53.54136429608127"></rect></g><g class="bar" transform="translate(65,231.26269956458634)"><rect x="1" width="11.999999999999996" height="78.73730043541366"></rect></g><g class="bar" transform="translate(78.00000000000001,192.1190130624093)"><rect x="1" width="11.999999999999996" height="117.8809869375907"></rect></g><g class="bar" transform="translate(91.00000000000001,143.97677793904208)"><rect x="1" width="11.999999999999996" height="166.02322206095792"></rect></g><g class="bar" transform="translate(104,132.2786647314949)"><rect x="1" width="11.999999999999996" height="177.7213352685051"></rect></g><g class="bar" transform="translate(117,102.5834542815675)"><rect x="1" width="11.999999999999996" height="207.4165457184325"></rect></g><g class="bar" transform="translate(130,56.91582002902757)"><rect x="1" width="11.999999999999996" height="253.08417997097243"></rect></g><g class="bar" transform="translate(143,0)"><rect x="1" width="11.999999999999996" height="310"></rect></g><g class="bar" transform="translate(156.00000000000003,6.074020319303315)"><rect x="1" width="11.999999999999996" height="303.9259796806967"></rect></g><g class="bar" transform="translate(169,51.06676342525401)"><rect x="1" width="11.999999999999996" height="258.933236574746"></rect></g><g class="bar" transform="translate(182.00000000000003,102.35849056603774)"><rect x="1" width="11.999999999999996" height="207.64150943396226"></rect></g><g class="bar" transform="translate(195,142.4020319303338)"><rect x="1" width="11.999999999999996" height="167.5979680696662"></rect></g><g class="bar" transform="translate(208,187.61973875181422)"><rect x="1" width="11.999999999999996" height="122.38026124818578"></rect></g><g class="bar" transform="translate(221.00000000000003,214.16545718432513)"><rect x="1" width="11.999999999999996" height="95.83454281567487"></rect></g><g class="bar" transform="translate(234,225.18867924528303)"><rect x="1" width="11.999999999999996" height="84.81132075471697"></rect></g><g class="bar" transform="translate(247.00000000000003,252.85921625544267)"><rect x="1" width="11.999999999999996" height="57.140783744557325"></rect></g><g class="bar" transform="translate(260,259.1582002902758)"><rect x="1" width="11.999999999999996" height="50.84179970972423"></rect></g><g class="bar" transform="translate(273,264.3323657474601)"><rect x="1" width="11.999999999999996" height="45.667634252539926"></rect></g><g class="bar" transform="translate(286,273.1059506531205)"><rect x="1" width="11.999999999999996" height="36.89404934687951"></rect></g><g class="bar" transform="translate(299.00000000000006,281.20464441219156)"><rect x="1" width="11.999999999999996" height="28.795355587808444"></rect></g><g class="bar" transform="translate(312.00000000000006,289.52830188679246)"><rect x="1" width="11.999999999999996" height="20.471698113207538"></rect></g><g class="bar" transform="translate(325,295.82728592162556)"><rect x="1" width="11.999999999999996" height="14.17271407837444"></rect></g><g class="bar" transform="translate(338,303.2510885341074)"><rect x="1" width="11.999999999999996" height="6.748911465892604"></rect></g><g class="bar" transform="translate(351,304.6008708272859)"><rect x="1" width="11.999999999999996" height="5.399129172714083"></rect></g><g class="bar" transform="translate(364.00000000000006,306.1756168359942)"><rect x="1" width="11.999999999999996" height="3.8243831640057806"></rect></g><g class="bar" transform="translate(377.00000000000006,307.75036284470247)"><rect x="1" width="11.999999999999996" height="2.2496371552975347"></rect></g><g class="bar" transform="translate(390,307.97532656023225)"><rect x="1" width="11.999999999999996" height="2.024673439767753"></rect></g><g class="bar" transform="translate(403,309.100145137881)"><rect x="1" width="11.999999999999996" height="0.8998548621190139"></rect></g><g class="bar" transform="translate(416,309.5500725689405)"><rect x="1" width="11.999999999999996" height="0.44992743105950694"></rect></g><g class="bar" transform="translate(429.00000000000006,310)"><rect x="1" width="11.999999999999996" height="0"></rect></g><g class="bar" transform="translate(442.00000000000006,310)"><rect x="1" width="11.999999999999996" height="0"></rect></g><g class="bar" transform="translate(455,310)"><rect x="1" width="11.999999999999996" height="0"></rect></g><g class="bar" transform="translate(468,310)"><rect x="1" width="11.999999999999996" height="0"></rect></g><g class="bar" transform="translate(481,310)"><rect x="1" width="11.999999999999996" height="0"></rect></g><g class="bar" transform="translate(494.00000000000006,310)"><rect x="1" width="11.999999999999996" height="0"></rect></g><g class="bar" transform="translate(507.00000000000006,310)"><rect x="1" width="11.999999999999996" height="0"></rect></g><g class="axis axis--x" transform="translate(0,310)" fill="none" font-size="10" font-family="sans-serif" text-anchor="middle"><path class="domain" stroke="#000" d="M0.5,6V0.5H520.5V6"></path><g class="tick" opacity="1" transform="translate(0,0)"><line stroke="#000" y2="6" x1="0.5" x2="0.5"></line><text fill="#000" y="9" x="0.5" dy="0.71em">0.01</text></g><g class="tick" opacity="1" transform="translate(130,0)"><line stroke="#000" y2="6" x1="0.5" x2="0.5"></line><text fill="#000" y="9" x="0.5" dy="0.71em">1</text></g><g class="tick" opacity="1" transform="translate(260,0)"><line stroke="#000" y2="6" x1="0.5" x2="0.5"></line><text fill="#000" y="9" x="0.5" dy="0.71em">100</text></g><g class="tick" opacity="1" transform="translate(390,0)"><line stroke="#000" y2="6" x1="0.5" x2="0.5"></line><text fill="#000" y="9" x="0.5" dy="0.71em">10000</text></g><g class="tick" opacity="1" transform="translate(520,0)"><line stroke="#000" y2="6" x1="0.5" x2="0.5"></line><text fill="#000" y="9" x="0.5" dy="0.71em"></text></g></g><g class="axis axis--y" fill="none" font-size="10" font-family="sans-serif" text-anchor="end"><path class="domain" stroke="#000" d="M-6,310.5H0.5V0.5H-6"></path><g class="tick" opacity="1" transform="translate(0,310)"><line stroke="#000" x2="-6" y1="0.5" y2="0.5"></line><text fill="#000" x="-9" y="0.5" dy="0.32em">0</text></g><g class="tick" opacity="1" transform="translate(0,287.50362844702465)"><line stroke="#000" x2="-6" y1="0.5" y2="0.5"></line><text fill="#000" x="-9" y="0.5" dy="0.32em">100</text></g><g class="tick" opacity="1" transform="translate(0,265.00725689404936)"><line stroke="#000" x2="-6" y1="0.5" y2="0.5"></line><text fill="#000" x="-9" y="0.5" dy="0.32em">200</text></g><g class="tick" opacity="1" transform="translate(0,242.51088534107402)"><line stroke="#000" x2="-6" y1="0.5" y2="0.5"></line><text fill="#000" x="-9" y="0.5" dy="0.32em">300</text></g><g class="tick" opacity="1" transform="translate(0,220.0145137880987)"><line stroke="#000" x2="-6" y1="0.5" y2="0.5"></line><text fill="#000" x="-9" y="0.5" dy="0.32em">400</text></g><g class="tick" opacity="1" transform="translate(0,197.51814223512338)"><line stroke="#000" x2="-6" y1="0.5" y2="0.5"></line><text fill="#000" x="-9" y="0.5" dy="0.32em">500</text></g><g class="tick" opacity="1" transform="translate(0,175.02177068214806)"><line stroke="#000" x2="-6" y1="0.5" y2="0.5"></line><text fill="#000" x="-9" y="0.5" dy="0.32em">600</text></g><g class="tick" opacity="1" transform="translate(0,152.5253991291727)"><line stroke="#000" x2="-6" y1="0.5" y2="0.5"></line><text fill="#000" x="-9" y="0.5" dy="0.32em">700</text></g><g class="tick" opacity="1" transform="translate(0,130.0290275761974)"><line stroke="#000" x2="-6" y1="0.5" y2="0.5"></line><text fill="#000" x="-9" y="0.5" dy="0.32em">800</text></g><g class="tick" opacity="1" transform="translate(0,107.53265602322205)"><line stroke="#000" x2="-6" y1="0.5" y2="0.5"></line><text fill="#000" x="-9" y="0.5" dy="0.32em">900</text></g><g class="tick" opacity="1" transform="translate(0,85.03628447024676)"><line stroke="#000" x2="-6" y1="0.5" y2="0.5"></line><text fill="#000" x="-9" y="0.5" dy="0.32em">1,000</text></g><g class="tick" opacity="1" transform="translate(0,62.53991291727141)"><line stroke="#000" x2="-6" y1="0.5" y2="0.5"></line><text fill="#000" x="-9" y="0.5" dy="0.32em">1,100</text></g><g class="tick" opacity="1" transform="translate(0,40.04354136429612)"><line stroke="#000" x2="-6" y1="0.5" y2="0.5"></line><text fill="#000" x="-9" y="0.5" dy="0.32em">1,200</text></g><g class="tick" opacity="1" transform="translate(0,17.54716981132077)"><line stroke="#000" x2="-6" y1="0.5" y2="0.5"></line><text fill="#000" x="-9" y="0.5" dy="0.32em">1,300</text></g></g></g></svg>