<svg xmlns="http://www.w3.org/2000/svg" width="280" height="160"><defs><style type="text/css"><![CDATA[ 
.bar rect {
  fill-opacity: 0;
  stroke:       black;
  stroke-width: 0.5;
}

.highlight rect {
  fill:       red;
  fill-opacity: 1;
}
.axis path,
.axis line {
  fill: none;
  stroke: #000;
  shape-rendering: crispEdges;
}
 ]]></style></defs><g transform="translate(50,10)"><g class="bar" transform="translate(0,120)"><rect x="1" width="11.5" height="0"></rect></g><g class="bar" transform="translate(12.5,120)"><rect x="1" width="11.5" height="0"></rect></g><g class="bar" transform="translate(25,120)"><rect x="1" width="11.5" height="0"></rect></g><g class="bar" transform="translate(37.5,115.5899419729207)"><rect x="1" width="11.5" height="4.410058027079302"></rect></g><g class="bar" transform="translate(50,68.70406189555126)"><rect x="1" width="11.5" height="51.29593810444874"></rect></g><g class="bar" transform="translate(62.5,12.533849129593804)"><rect x="1" width="11.5" height="107.4661508704062"></rect></g><g class="bar" transform="translate(75,0)"><rect x="1" width="11.5" height="120"></rect></g><g class="bar" transform="translate(87.5,19.96131528046422)"><rect x="1" width="11.5" height="100.03868471953578"></rect></g><g class="bar" transform="translate(100,56.63442940038684)"><rect x="1" width="11.5" height="63.36557059961316"></rect></g><g class="bar" transform="translate(112.5,83.79110251450678)"><rect x="1" width="11.5" height="36.208897485493225"></rect></g><g class="bar" transform="translate(125,99.80657640232108)"><rect x="1" width="11.5" height="20.193423597678915"></rect></g><g class="bar" transform="translate(137.5,111.41199226305609)"><rect x="1" width="11.5" height="8.588007736943908"></rect></g><g class="bar" transform="translate(150,118.3752417794971)"><rect x="1" width="11.5" height="1.6247582205028976"></rect></g><g class="bar" transform="translate(162.5,119.3036750483559)"><rect x="1" width="11.5" height="0.696324951644101"></rect></g><g class="bar" transform="translate(175,119.5357833655706)"><rect x="1" width="11.5" height="0.4642166344294054"></rect></g><g class="bar" transform="translate(187.5,120)"><rect x="1" width="11.5" height="0"></rect></g></g></svg>