<svg xmlns="http://www.w3.org/2000/svg" width="600" height="350"><defs><style type="text/css"><![CDATA[ 
.bar rect {
  fill-opacity: 0;
  stroke:       black;
  stroke-width: 0.5;
}

.highlight rect {
  fill:       red;
  fill-opacity: 1;
}
.axis path,
.axis line {
  fill: none;
  stroke: #000;
  shape-rendering: crispEdges;
}
 ]]></style></defs><g transform="translate(50,10)"><g class="bar" transform="translate(0,310)"><rect x="1" width="11.999999999999996" height="0"></rect></g><g class="bar" transform="translate(12.999999999999996,310)"><rect x="1" width="11.999999999999996" height="0"></rect></g><g class="bar" transform="translate(25.999999999999993,310)"><rect x="1" width="11.999999999999996" height="0"></rect></g><g class="bar" transform="translate(39.00000000000001,305.5131578947368)"><rect x="1" width="11.999999999999996" height="4.486842105263179"></rect></g><g class="bar" transform="translate(52,303.4736842105263)"><rect x="1" width="11.999999999999996" height="6.526315789473699"></rect></g><g class="bar" transform="translate(65,305.10526315789474)"><rect x="1" width="11.999999999999996" height="4.89473684210526"></rect></g><g class="bar" transform="translate(78.00000000000001,292.0526315789474)"><rect x="1" width="11.999999999999996" height="17.9473684210526"></rect></g><g class="bar" transform="translate(91.00000000000001,270.8421052631579)"><rect x="1" width="11.999999999999996" height="39.15789473684208"></rect></g><g class="bar" transform="translate(104,224.3421052631579)"><rect x="1" width="11.999999999999996" height="85.65789473684211"></rect></g><g class="bar" transform="translate(117,159.07894736842104)"><rect x="1" width="11.999999999999996" height="150.92105263157896"></rect></g><g class="bar" transform="translate(130,88.51315789473685)"><rect x="1" width="11.999999999999996" height="221.48684210526315"></rect></g><g class="bar" transform="translate(143,46.5)"><rect x="1" width="11.999999999999996" height="263.5"></rect></g><g class="bar" transform="translate(156.00000000000003,37.11842105263156)"><rect x="1" width="11.999999999999996" height="272.88157894736844"></rect></g><g class="bar" transform="translate(169,7.75)"><rect x="1" width="11.999999999999996" height="302.25"></rect></g><g class="bar" transform="translate(182.00000000000003,0)"><rect x="1" width="11.999999999999996" height="310"></rect></g><g class="bar" transform="translate(195,12.64473684210526)"><rect x="1" width="11.999999999999996" height="297.35526315789474"></rect></g><g class="bar" transform="translate(208,16.31578947368422)"><rect x="1" width="11.999999999999996" height="293.6842105263158"></rect></g><g class="bar" transform="translate(221.00000000000003,8.9736842105263)"><rect x="1" width="11.999999999999996" height="301.0263157894737"></rect></g><g class="bar" transform="translate(234,98.71052631578948)"><rect x="1" width="11.999999999999996" height="211.28947368421052"></rect></g><g class="bar" transform="translate(247.00000000000003,121.55263157894737)"><rect x="1" width="11.999999999999996" height="188.44736842105263"></rect></g><g class="bar" transform="translate(260,159.48684210526315)"><rect x="1" width="11.999999999999996" height="150.51315789473685"></rect></g><g class="bar" transform="translate(273,177.02631578947367)"><rect x="1" width="11.999999999999996" height="132.97368421052633"></rect></g><g class="bar" transform="translate(286,230.46052631578948)"><rect x="1" width="11.999999999999996" height="79.53947368421052"></rect></g><g class="bar" transform="translate(299.00000000000006,226.38157894736844)"><rect x="1" width="11.999999999999996" height="83.61842105263156"></rect></g><g class="bar" transform="translate(312.00000000000006,260.64473684210526)"><rect x="1" width="11.999999999999996" height="49.35526315789474"></rect></g><g class="bar" transform="translate(325,281.44736842105266)"><rect x="1" width="11.999999999999996" height="28.55263157894734"></rect></g><g class="bar" transform="translate(338,278.1842105263158)"><rect x="1" width="11.999999999999996" height="31.81578947368422"></rect></g><g class="bar" transform="translate(351,289.60526315789474)"><rect x="1" width="11.999999999999996" height="20.39473684210526"></rect></g><g class="bar" transform="translate(364.00000000000006,303.88157894736844)"><rect x="1" width="11.999999999999996" height="6.118421052631561"></rect></g><g class="bar" transform="translate(377.00000000000006,308.36842105263156)"><rect x="1" width="11.999999999999996" height="1.631578947368439"></rect></g><g class="bar" transform="translate(390,310)"><rect x="1" width="11.999999999999996" height="0"></rect></g><g class="bar" transform="translate(403,310)"><rect x="1" width="11.999999999999996" height="0"></rect></g><g class="bar" transform="translate(416,310)"><rect x="1" width="11.999999999999996" height="0"></rect></g><g class="bar" transform="translate(429.00000000000006,310)"><rect x="1" width="11.999999999999996" height="0"></rect></g><g class="bar" transform="translate(442.00000000000006,310)"><rect x="1" width="11.999999999999996" height="0"></rect></g><g class="bar" transform="translate(455,310)"><rect x="1" width="11.999999999999996" height="0"></rect></g><g class="bar" transform="translate(468,310)"><rect x="1" width="11.999999999999996" height="0"></rect></g><g class="bar" transform="translate(481,310)"><rect x="1" width="11.999999999999996" height="0"></rect></g><g class="bar" transform="translate(494.00000000000006,310)"><rect x="1" width="11.999999999999996" height="0"></rect></g><g class="bar" transform="translate(507.00000000000006,310)"><rect x="1" width="11.999999999999996" height="0"></rect></g><g class="axis axis--x" transform="translate(0,310)" fill="none" font-size="10" font-family="sans-serif" text-anchor="middle"><path class="domain" stroke="#000" d="M0.5,6V0.5H520.5V6"></path><g class="tick" opacity="1" transform="translate(0,0)"><line stroke="#000" y2="6" x1="0.5" x2="0.5"></line><text fill="#000" y="9" x="0.5" dy="0.71em">0.01</text></g><g class="tick" opacity="1" transform="translate(130,0)"><line stroke="#000" y2="6" x1="0.5" x2="0.5"></line><text fill="#000" y="9" x="0.5" dy="0.71em">1</text></g><g class="tick" opacity="1" transform="translate(260,0)"><line stroke="#000" y2="6" x1="0.5" x2="0.5"></line><text fill="#000" y="9" x="0.5" dy="0.71em">100</text></g><g class="tick" opacity="1" transform="translate(390,0)"><line stroke="#000" y2="6" x1="0.5" x2="0.5"></line><text fill="#000" y="9" x="0.5" dy="0.71em">10000</text></g><g class="tick" opacity="1" transform="translate(520,0)"><line stroke="#000" y2="6" x1="0.5" x2="0.5"></line><text fill="#000" y="9" x="0.5" dy="0.71em"></text></g></g><g class="axis axis--y" fill="none" font-size="10" font-family="sans-serif" text-anchor="end"><path class="domain" stroke="#000" d="M-6,310.5H0.5V0.5H-6"></path><g class="tick" opacity="1" transform="translate(0,310)"><line stroke="#000" x2="-6" y1="0.5" y2="0.5"></line><text fill="#000" x="-9" y="0.5" dy="0.32em">0</text></g><g class="tick" opacity="1" transform="translate(0,269.2105263157895)"><line stroke="#000" x2="-6" y1="0.5" y2="0.5"></line><text fill="#000" x="-9" y="0.5" dy="0.32em">100</text></g><g class="tick" opacity="1" transform="translate(0,228.42105263157896)"><line stroke="#000" x2="-6" y1="0.5" y2="0.5"></line><text fill="#000" x="-9" y="0.5" dy="0.32em">200</text></g><g class="tick" opacity="1" transform="translate(0,187.63157894736844)"><line stroke="#000" x2="-6" y1="0.5" y2="0.5"></line><text fill="#000" x="-9" y="0.5" dy="0.32em">300</text></g><g class="tick" opacity="1" transform="translate(0,146.8421052631579)"><line stroke="#000" x2="-6" y1="0.5" y2="0.5"></line><text fill="#000" x="-9" y="0.5" dy="0.32em">400</text></g><g class="tick" opacity="1" transform="translate(0,106.05263157894734)"><line stroke="#000" x2="-6" y1="0.5" y2="0.5"></line><text fill="#000" x="-9" y="0.5" dy="0.32em">500</text></g><g class="tick" opacity="1" transform="translate(0,65.26315789473685)"><line stroke="#000" x2="-6" y1="0.5" y2="0.5"></line><text fill="#000" x="-9" y="0.5" dy="0.32em">600</text></g><g class="tick" opacity="1" transform="translate(0,24.4736842105263)"><line stroke="#000" x2="-6" y1="0.5" y2="0.5"></line><text fill="#000" x="-9" y="0.5" dy="0.32em">700</text></g></g></g></svg>