<svg xmlns="http://www.w3.org/2000/svg" width="600" height="350"><defs><style type="text/css"><![CDATA[ 
.bar rect {
  fill-opacity: 0;
  stroke:       black;
  stroke-width: 0.5;
}

.highlight rect {
  fill:       red;
  fill-opacity: 1;
}
.axis path,
.axis line {
  fill: none;
  stroke: #000;
  shape-rendering: crispEdges;
}
path {
    stroke: red;
    fill: none;
}

line {
    stroke: red;
}

path.marker {
    fill: red;
}
 ]]></style></defs><g transform="translate(50,10)"><g class="bar" transform="translate(0,310)"><rect x="1" width="5.500000000000005" height="0"></rect></g><g class="bar" transform="translate(6.500000000000005,310)"><rect x="1" width="5.500000000000005" height="0"></rect></g><g class="bar" transform="translate(12.999999999999996,310)"><rect x="1" width="5.500000000000005" height="0"></rect></g><g class="bar" transform="translate(19.500000000000004,310)"><rect x="1" width="5.500000000000005" height="0"></rect></g><g class="bar" transform="translate(25.999999999999993,310)"><rect x="1" width="5.500000000000005" height="0"></rect></g><g class="bar" transform="translate(32.5,310)"><rect x="1" width="5.500000000000005" height="0"></rect></g><g class="bar" transform="translate(39.00000000000001,310)"><rect x="1" width="5.500000000000005" height="0"></rect></g><g class="bar" transform="translate(45.500000000000014,310)"><rect x="1" width="5.500000000000005" height="0"></rect></g><g class="bar" transform="translate(52,310)"><rect x="1" width="5.500000000000005" height="0"></rect></g><g class="bar" transform="translate(58.49999999999999,310)"><rect x="1" width="5.500000000000005" height="0"></rect></g><g class="bar" transform="translate(65,310)"><rect x="1" width="5.500000000000005" height="0"></rect></g><g class="bar" transform="translate(71.5,310)"><rect x="1" width="5.500000000000005" height="0"></rect></g><g class="bar" transform="translate(78.00000000000001,310)"><rect x="1" width="5.500000000000005" height="0"></rect></g><g class="bar" transform="translate(84.5,310)"><rect x="1" width="5.500000000000005" height="0"></rect></g><g class="bar" transform="translate(91.00000000000001,310)"><rect x="1" width="5.500000000000005" height="0"></rect></g><g class="bar" transform="translate(97.5,310)"><rect x="1" width="5.500000000000005" height="0"></rect></g><g class="bar" transform="translate(104,305.93175853018374)"><rect x="1" width="5.500000000000005" height="4.0682414698162574"></rect></g><g class="bar" transform="translate(110.50000000000001,309.18635170603676)"><rect x="1" width="5.500000000000005" height="0.8136482939632401"></rect></g><g class="bar" transform="translate(117,306.745406824147)"><rect x="1" width="5.500000000000005" height="3.2545931758530173"></rect></g><g class="bar" transform="translate(123.50000000000001,302.6771653543307)"><rect x="1" width="5.500000000000005" height="7.322834645669275"></rect></g><g class="bar" transform="translate(130,302.6771653543307)"><rect x="1" width="5.500000000000005" height="7.322834645669275"></rect></g><g class="bar" transform="translate(136.5,296.98162729658793)"><rect x="1" width="5.500000000000005" height="13.01837270341207"></rect></g><g class="bar" transform="translate(143,284.7769028871391)"><rect x="1" width="5.500000000000005" height="25.2230971128609"></rect></g><g class="bar" transform="translate(149.50000000000003,272.5721784776903)"><rect x="1" width="5.500000000000005" height="37.42782152230973"></rect></g><g class="bar" transform="translate(156.00000000000003,232.70341207349082)"><rect x="1" width="5.500000000000005" height="77.29658792650918"></rect></g><g class="bar" transform="translate(162.5,198.5301837270341)"><rect x="1" width="5.500000000000005" height="111.46981627296589"></rect></g><g class="bar" transform="translate(169,170.0524934383202)"><rect x="1" width="5.500000000000005" height="139.9475065616798"></rect></g><g class="bar" transform="translate(175.5,101.70603674540683)"><rect x="1" width="5.500000000000005" height="208.29396325459317"></rect></g><g class="bar" transform="translate(182.00000000000003,89.501312335958)"><rect x="1" width="5.500000000000005" height="220.498687664042"></rect></g><g class="bar" transform="translate(188.50000000000003,38.24146981627297)"><rect x="1" width="5.500000000000005" height="271.75853018372703"></rect></g><g class="bar" transform="translate(195,56.9553805774278)"><rect x="1" width="5.500000000000005" height="253.0446194225722"></rect></g><g class="bar" transform="translate(201.5,0)"><rect x="1" width="5.500000000000005" height="310"></rect></g><g class="bar" transform="translate(208,30.918635170603693)"><rect x="1" width="5.500000000000005" height="279.0813648293963"></rect></g><g class="bar" transform="translate(214.50000000000003,2.440944881889777)"><rect x="1" width="5.500000000000005" height="307.5590551181102"></rect></g><g class="bar" transform="translate(221.00000000000003,5.6955380577427945)"><rect x="1" width="5.500000000000005" height="304.3044619422572"></rect></g><g class="bar" transform="translate(227.5,10.577427821522292)"><rect x="1" width="5.500000000000005" height="299.4225721784777"></rect></g><g class="bar" transform="translate(234,6.509186351706035)"><rect x="1" width="5.500000000000005" height="303.49081364829397"></rect></g><g class="bar" transform="translate(240.5,24.4094488188976)"><rect x="1" width="5.500000000000005" height="285.5905511811024"></rect></g><g class="bar" transform="translate(247.00000000000003,64.27821522309713)"><rect x="1" width="5.500000000000005" height="245.72178477690287"></rect></g><g class="bar" transform="translate(253.50000000000003,74.04199475065616)"><rect x="1" width="5.500000000000005" height="235.95800524934384"></rect></g><g class="bar" transform="translate(260,100.0787401574803)"><rect x="1" width="5.500000000000005" height="209.9212598425197"></rect></g><g class="bar" transform="translate(266.50000000000006,72.41469816272965)"><rect x="1" width="5.500000000000005" height="237.58530183727035"></rect></g><g class="bar" transform="translate(273,106.58792650918633)"><rect x="1" width="5.500000000000005" height="203.41207349081367"></rect></g><g class="bar" transform="translate(279.5,130.99737532808396)"><rect x="1" width="5.500000000000005" height="179.00262467191604"></rect></g><g class="bar" transform="translate(286,169.23884514435696)"><rect x="1" width="5.500000000000005" height="140.76115485564304"></rect></g><g class="bar" transform="translate(292.5,182.25721784776903)"><rect x="1" width="5.500000000000005" height="127.74278215223097"></rect></g><g class="bar" transform="translate(299.00000000000006,189.5800524934383)"><rect x="1" width="5.500000000000005" height="120.4199475065617"></rect></g><g class="bar" transform="translate(305.5,232.70341207349082)"><rect x="1" width="5.500000000000005" height="77.29658792650918"></rect></g><g class="bar" transform="translate(312.00000000000006,263.62204724409446)"><rect x="1" width="5.500000000000005" height="46.37795275590554"></rect></g><g class="bar" transform="translate(318.5,266.06299212598424)"><rect x="1" width="5.500000000000005" height="43.93700787401576"></rect></g><g class="bar" transform="translate(325,269.31758530183725)"><rect x="1" width="5.500000000000005" height="40.682414698162745"></rect></g><g class="bar" transform="translate(331.50000000000006,285.59055118110234)"><rect x="1" width="5.500000000000005" height="24.40944881889766"></rect></g><g class="bar" transform="translate(338,287.2178477690289)"><rect x="1" width="5.500000000000005" height="22.78215223097112"></rect></g><g class="bar" transform="translate(344.50000000000006,301.0498687664042)"><rect x="1" width="5.500000000000005" height="8.950131233595812"></rect></g><g class="bar" transform="translate(351,296.1679790026247)"><rect x="1" width="5.500000000000005" height="13.83202099737531"></rect></g><g class="bar" transform="translate(357.5,302.6771653543307)"><rect x="1" width="5.500000000000005" height="7.322834645669275"></rect></g><g class="bar" transform="translate(364.00000000000006,305.11811023622045)"><rect x="1" width="5.500000000000005" height="4.881889763779554"></rect></g><g class="bar" transform="translate(370.5,301.0498687664042)"><rect x="1" width="5.500000000000005" height="8.950131233595812"></rect></g><g class="bar" transform="translate(377.00000000000006,308.37270341207346)"><rect x="1" width="5.500000000000005" height="1.627296587926537"></rect></g><g class="bar" transform="translate(383.5,310)"><rect x="1" width="5.500000000000005" height="0"></rect></g><g class="bar" transform="translate(390,310)"><rect x="1" width="5.500000000000005" height="0"></rect></g><g class="bar" transform="translate(396.50000000000006,310)"><rect x="1" width="5.500000000000005" height="0"></rect></g><g class="bar" transform="translate(403,310)"><rect x="1" width="5.500000000000005" height="0"></rect></g><g class="bar" transform="translate(409.50000000000006,310)"><rect x="1" width="5.500000000000005" height="0"></rect></g><g class="bar" transform="translate(416,310)"><rect x="1" width="5.500000000000005" height="0"></rect></g><g class="bar" transform="translate(422.5,309.18635170603676)"><rect x="1" width="5.500000000000005" height="0.8136482939632401"></rect></g><g class="bar" transform="translate(429.00000000000006,310)"><rect x="1" width="5.500000000000005" height="0"></rect></g><g class="bar" transform="translate(435.5,310)"><rect x="1" width="5.500000000000005" height="0"></rect></g><g class="bar" transform="translate(442.00000000000006,310)"><rect x="1" width="5.500000000000005" height="0"></rect></g><g class="bar" transform="translate(448.5,310)"><rect x="1" width="5.500000000000005" height="0"></rect></g><g class="bar" transform="translate(455,310)"><rect x="1" width="5.500000000000005" height="0"></rect></g><g class="bar" transform="translate(461.50000000000006,310)"><rect x="1" width="5.500000000000005" height="0"></rect></g><g class="bar" transform="translate(468,310)"><rect x="1" width="5.500000000000005" height="0"></rect></g><g class="bar" transform="translate(474.50000000000006,310)"><rect x="1" width="5.500000000000005" height="0"></rect></g><g class="bar" transform="translate(481,310)"><rect x="1" width="5.500000000000005" height="0"></rect></g><g class="bar" transform="translate(487.5,310)"><rect x="1" width="5.500000000000005" height="0"></rect></g><g class="bar" transform="translate(494.00000000000006,310)"><rect x="1" width="5.500000000000005" height="0"></rect></g><g class="bar" transform="translate(500.5,310)"><rect x="1" width="5.500000000000005" height="0"></rect></g><g class="bar" transform="translate(507.00000000000006,310)"><rect x="1" width="5.500000000000005" height="0"></rect></g><g class="bar" transform="translate(513.5,310)"><rect x="1" width="5.500000000000005" height="0"></rect></g><g class="axis axis--x" transform="translate(0,310)" fill="none" font-size="10" font-family="sans-serif" text-anchor="middle"><path class="domain" stroke="#000" d="M0.5,6V0.5H520.5V6"></path><g class="tick" opacity="1" transform="translate(0.5,0)"><line stroke="#000" y2="6"></line><text fill="#000" y="9" dy="0.71em">0.01</text></g><g class="tick" opacity="1" transform="translate(130.5,0)"><line stroke="#000" y2="6"></line><text fill="#000" y="9" dy="0.71em">1</text></g><g class="tick" opacity="1" transform="translate(260.5,0)"><line stroke="#000" y2="6"></line><text fill="#000" y="9" dy="0.71em">100</text></g><g class="tick" opacity="1" transform="translate(390.5,0)"><line stroke="#000" y2="6"></line><text fill="#000" y="9" dy="0.71em">10000</text></g><g class="tick" opacity="1" transform="translate(520.5,0)"><line stroke="#000" y2="6"></line><text fill="#000" y="9" dy="0.71em"></text></g></g><g class="axis axis--y" fill="none" font-size="10" font-family="sans-serif" text-anchor="end"><path class="domain" stroke="#000" d="M-6,310.5H0.5V0.5H-6"></path><g class="tick" opacity="1" transform="translate(0,310.5)"><line stroke="#000" x2="-6"></line><text fill="#000" x="-9" dy="0.32em">0</text></g><g class="tick" opacity="1" transform="translate(0,269.81758530183725)"><line stroke="#000" x2="-6"></line><text fill="#000" x="-9" dy="0.32em">50</text></g><g class="tick" opacity="1" transform="translate(0,229.13517060367454)"><line stroke="#000" x2="-6"></line><text fill="#000" x="-9" dy="0.32em">100</text></g><g class="tick" opacity="1" transform="translate(0,188.45275590551182)"><line stroke="#000" x2="-6"></line><text fill="#000" x="-9" dy="0.32em">150</text></g><g class="tick" opacity="1" transform="translate(0,147.77034120734908)"><line stroke="#000" x2="-6"></line><text fill="#000" x="-9" dy="0.32em">200</text></g><g class="tick" opacity="1" transform="translate(0,107.08792650918633)"><line stroke="#000" x2="-6"></line><text fill="#000" x="-9" dy="0.32em">250</text></g><g class="tick" opacity="1" transform="translate(0,66.40551181102362)"><line stroke="#000" x2="-6"></line><text fill="#000" x="-9" dy="0.32em">300</text></g><g class="tick" opacity="1" transform="translate(0,25.7230971128609)"><line stroke="#000" x2="-6"></line><text fill="#000" x="-9" dy="0.32em">350</text></g></g></g></svg>