<svg xmlns="http://www.w3.org/2000/svg" width="600" height="350"><defs><style type="text/css"><![CDATA[ 
.bar rect {
  fill-opacity: 0;
  stroke:       black;
  stroke-width: 0.5;
}

.highlight rect {
  fill:       red;
  fill-opacity: 1;
}
.axis path,
.axis line {
  fill: none;
  stroke: #000;
  shape-rendering: crispEdges;
}
 ]]></style></defs><g transform="translate(50,10)"><g class="bar" transform="translate(0,308.5342789598109)"><rect x="1" width="11.999999999999996" height="1.4657210401891234"></rect></g><g class="bar" transform="translate(12.999999999999996,309.26713947990544)"><rect x="1" width="11.999999999999996" height="0.7328605200945617"></rect></g><g class="bar" transform="translate(25.999999999999993,307.8014184397163)"><rect x="1" width="11.999999999999996" height="2.198581560283685"></rect></g><g class="bar" transform="translate(39.00000000000001,299.0070921985816)"><rect x="1" width="11.999999999999996" height="10.992907801418426"></rect></g><g class="bar" transform="translate(52,274.822695035461)"><rect x="1" width="11.999999999999996" height="35.17730496453902"></rect></g><g class="bar" transform="translate(65,240.37825059101655)"><rect x="1" width="11.999999999999996" height="69.62174940898345"></rect></g><g class="bar" transform="translate(78.00000000000001,225.7210401891253)"><rect x="1" width="11.999999999999996" height="84.27895981087471"></rect></g><g class="bar" transform="translate(91.00000000000001,205.20094562647756)"><rect x="1" width="11.999999999999996" height="104.79905437352244"></rect></g><g class="bar" transform="translate(104,160.49645390070924)"><rect x="1" width="11.999999999999996" height="149.50354609929076"></rect></g><g class="bar" transform="translate(117,134.84633569739952)"><rect x="1" width="11.999999999999996" height="175.15366430260048"></rect></g><g class="bar" transform="translate(130,71.82033096926713)"><rect x="1" width="11.999999999999996" height="238.17966903073287"></rect></g><g class="bar" transform="translate(143,74.01891252955082)"><rect x="1" width="11.999999999999996" height="235.98108747044918"></rect></g><g class="bar" transform="translate(156.00000000000003,62.2931442080378)"><rect x="1" width="11.999999999999996" height="247.7068557919622"></rect></g><g class="bar" transform="translate(169,5.130023640661932)"><rect x="1" width="11.999999999999996" height="304.86997635933807"></rect></g><g class="bar" transform="translate(182.00000000000003,0)"><rect x="1" width="11.999999999999996" height="310"></rect></g><g class="bar" transform="translate(195,32.24586288416077)"><rect x="1" width="11.999999999999996" height="277.7541371158392"></rect></g><g class="bar" transform="translate(208,79.14893617021278)"><rect x="1" width="11.999999999999996" height="230.85106382978722"></rect></g><g class="bar" transform="translate(221.00000000000003,52.7659574468085)"><rect x="1" width="11.999999999999996" height="257.2340425531915"></rect></g><g class="bar" transform="translate(234,102.60047281323878)"><rect x="1" width="11.999999999999996" height="207.39952718676122"></rect></g><g class="bar" transform="translate(247.00000000000003,117.25768321513002)"><rect x="1" width="11.999999999999996" height="192.74231678486998"></rect></g><g class="bar" transform="translate(260,158.29787234042553)"><rect x="1" width="11.999999999999996" height="151.70212765957447"></rect></g><g class="bar" transform="translate(273,166.3593380614657)"><rect x="1" width="11.999999999999996" height="143.6406619385343"></rect></g><g class="bar" transform="translate(286,210.3309692671395)"><rect x="1" width="11.999999999999996" height="99.6690307328605"></rect></g><g class="bar" transform="translate(299.00000000000006,233.0496453900709)"><rect x="1" width="11.999999999999996" height="76.9503546099291"></rect></g><g class="bar" transform="translate(312.00000000000006,252.83687943262413)"><rect x="1" width="11.999999999999996" height="57.16312056737587"></rect></g><g class="bar" transform="translate(325,261.63120567375887)"><rect x="1" width="11.999999999999996" height="48.36879432624113"></rect></g><g class="bar" transform="translate(338,282.1513002364066)"><rect x="1" width="11.999999999999996" height="27.8486997635934"></rect></g><g class="bar" transform="translate(351,296.8085106382979)"><rect x="1" width="11.999999999999996" height="13.19148936170211"></rect></g><g class="bar" transform="translate(364.00000000000006,299.73995271867614)"><rect x="1" width="11.999999999999996" height="10.260047281323864"></rect></g><g class="bar" transform="translate(377.00000000000006,303.40425531914894)"><rect x="1" width="11.999999999999996" height="6.595744680851055"></rect></g><g class="bar" transform="translate(390,304.86997635933807)"><rect x="1" width="11.999999999999996" height="5.130023640661932"></rect></g><g class="bar" transform="translate(403,308.5342789598109)"><rect x="1" width="11.999999999999996" height="1.4657210401891234"></rect></g><g class="bar" transform="translate(416,310)"><rect x="1" width="11.999999999999996" height="0"></rect></g><g class="bar" transform="translate(429.00000000000006,310)"><rect x="1" width="11.999999999999996" height="0"></rect></g><g class="bar" transform="translate(442.00000000000006,307.8014184397163)"><rect x="1" width="11.999999999999996" height="2.198581560283685"></rect></g><g class="bar" transform="translate(455,310)"><rect x="1" width="11.999999999999996" height="0"></rect></g><g class="bar" transform="translate(468,310)"><rect x="1" width="11.999999999999996" height="0"></rect></g><g class="bar" transform="translate(481,310)"><rect x="1" width="11.999999999999996" height="0"></rect></g><g class="bar" transform="translate(494.00000000000006,310)"><rect x="1" width="11.999999999999996" height="0"></rect></g><g class="bar" transform="translate(507.00000000000006,310)"><rect x="1" width="11.999999999999996" height="0"></rect></g><g class="axis axis--x" transform="translate(0,310)" fill="none" font-size="10" font-family="sans-serif" text-anchor="middle"><path class="domain" stroke="#000" d="M0.5,6V0.5H520.5V6"></path><g class="tick" opacity="1" transform="translate(0,0)"><line stroke="#000" y2="6" x1="0.5" x2="0.5"></line><text fill="#000" y="9" x="0.5" dy="0.71em">0.01</text></g><g class="tick" opacity="1" transform="translate(130,0)"><line stroke="#000" y2="6" x1="0.5" x2="0.5"></line><text fill="#000" y="9" x="0.5" dy="0.71em">1</text></g><g class="tick" opacity="1" transform="translate(260,0)"><line stroke="#000" y2="6" x1="0.5" x2="0.5"></line><text fill="#000" y="9" x="0.5" dy="0.71em">100</text></g><g class="tick" opacity="1" transform="translate(390,0)"><line stroke="#000" y2="6" x1="0.5" x2="0.5"></line><text fill="#000" y="9" x="0.5" dy="0.71em">10000</text></g><g class="tick" opacity="1" transform="translate(520,0)"><line stroke="#000" y2="6" x1="0.5" x2="0.5"></line><text fill="#000" y="9" x="0.5" dy="0.71em"></text></g></g><g class="axis axis--y" fill="none" font-size="10" font-family="sans-serif" text-anchor="end"><path class="domain" stroke="#000" d="M-6,310.5H0.5V0.5H-6"></path><g class="tick" opacity="1" transform="translate(0,310)"><line stroke="#000" x2="-6" y1="0.5" y2="0.5"></line><text fill="#000" x="-9" y="0.5" dy="0.32em">0</text></g><g class="tick" opacity="1" transform="translate(0,273.35697399527186)"><line stroke="#000" x2="-6" y1="0.5" y2="0.5"></line><text fill="#000" x="-9" y="0.5" dy="0.32em">50</text></g><g class="tick" opacity="1" transform="translate(0,236.71394799054372)"><line stroke="#000" x2="-6" y1="0.5" y2="0.5"></line><text fill="#000" x="-9" y="0.5" dy="0.32em">100</text></g><g class="tick" opacity="1" transform="translate(0,200.0709219858156)"><line stroke="#000" x2="-6" y1="0.5" y2="0.5"></line><text fill="#000" x="-9" y="0.5" dy="0.32em">150</text></g><g class="tick" opacity="1" transform="translate(0,163.42789598108746)"><line stroke="#000" x2="-6" y1="0.5" y2="0.5"></line><text fill="#000" x="-9" y="0.5" dy="0.32em">200</text></g><g class="tick" opacity="1" transform="translate(0,126.78486997635935)"><line stroke="#000" x2="-6" y1="0.5" y2="0.5"></line><text fill="#000" x="-9" y="0.5" dy="0.32em">250</text></g><g class="tick" opacity="1" transform="translate(0,90.1418439716312)"><line stroke="#000" x2="-6" y1="0.5" y2="0.5"></line><text fill="#000" x="-9" y="0.5" dy="0.32em">300</text></g><g class="tick" opacity="1" transform="translate(0,53.49881796690306)"><line stroke="#000" x2="-6" y1="0.5" y2="0.5"></line><text fill="#000" x="-9" y="0.5" dy="0.32em">350</text></g><g class="tick" opacity="1" transform="translate(0,16.85579196217492)"><line stroke="#000" x2="-6" y1="0.5" y2="0.5"></line><text fill="#000" x="-9" y="0.5" dy="0.32em">400</text></g></g></g></svg>