<svg xmlns="http://www.w3.org/2000/svg" width="280" height="160"><defs><style type="text/css"><![CDATA[ 
.bar rect {
  fill-opacity: 0;
  stroke:       black;
  stroke-width: 0.5;
}

.highlight rect {
  fill:       red;
  fill-opacity: 1;
}
.axis path,
.axis line {
  fill: none;
  stroke: #000;
  shape-rendering: crispEdges;
}
 ]]></style></defs><g transform="translate(50,10)"><g class="bar" transform="translate(0,120)"><rect x="1" width="11.5" height="0"></rect></g><g class="bar" transform="translate(12.5,120)"><rect x="1" width="11.5" height="0"></rect></g><g class="bar" transform="translate(25,118.62464183381088)"><rect x="1" width="11.5" height="1.375358166189116"></rect></g><g class="bar" transform="translate(37.5,106.59025787965616)"><rect x="1" width="11.5" height="13.409742120343836"></rect></g><g class="bar" transform="translate(50,77.93696275071633)"><rect x="1" width="11.5" height="42.06303724928367"></rect></g><g class="bar" transform="translate(62.5,62.23495702005731)"><rect x="1" width="11.5" height="57.76504297994269"></rect></g><g class="bar" transform="translate(75,30.372492836676216)"><rect x="1" width="11.5" height="89.62750716332378"></rect></g><g class="bar" transform="translate(87.5,0)"><rect x="1" width="11.5" height="120"></rect></g><g class="bar" transform="translate(100,9.398280802292263)"><rect x="1" width="11.5" height="110.60171919770774"></rect></g><g class="bar" transform="translate(112.5,51.46131805157593)"><rect x="1" width="11.5" height="68.53868194842407"></rect></g><g class="bar" transform="translate(125,93.86819484240688)"><rect x="1" width="11.5" height="26.13180515759312"></rect></g><g class="bar" transform="translate(137.5,118.62464183381088)"><rect x="1" width="11.5" height="1.375358166189116"></rect></g><g class="bar" transform="translate(150,120)"><rect x="1" width="11.5" height="0"></rect></g><g class="bar" transform="translate(162.5,120)"><rect x="1" width="11.5" height="0"></rect></g><g class="bar" transform="translate(175,120)"><rect x="1" width="11.5" height="0"></rect></g><g class="bar" transform="translate(187.5,120)"><rect x="1" width="11.5" height="0"></rect></g></g></svg>