<svg xmlns="http://www.w3.org/2000/svg" width="600" height="350"><defs><style type="text/css"><![CDATA[ 
.bar rect {
  fill-opacity: 0;
  stroke:       black;
  stroke-width: 0.5;
}

.highlight rect {
  fill:       red;
  fill-opacity: 1;
}
.axis path,
.axis line {
  fill: none;
  stroke: #000;
  shape-rendering: crispEdges;
}
 ]]></style></defs><g transform="translate(50,10)"><g class="bar" transform="translate(0,310)"><rect x="1" width="11.999999999999996" height="0"></rect></g><g class="bar" transform="translate(12.999999999999996,310)"><rect x="1" width="11.999999999999996" height="0"></rect></g><g class="bar" transform="translate(25.999999999999993,310)"><rect x="1" width="11.999999999999996" height="0"></rect></g><g class="bar" transform="translate(39.00000000000001,310)"><rect x="1" width="11.999999999999996" height="0"></rect></g><g class="bar" transform="translate(52,310)"><rect x="1" width="11.999999999999996" height="0"></rect></g><g class="bar" transform="translate(65,309.297052154195)"><rect x="1" width="11.999999999999996" height="0.7029478458049994"></rect></g><g class="bar" transform="translate(78.00000000000001,306.48526077097506)"><rect x="1" width="11.999999999999996" height="3.51473922902494"></rect></g><g class="bar" transform="translate(91.00000000000001,298.0498866213152)"><rect x="1" width="11.999999999999996" height="11.950113378684819"></rect></g><g class="bar" transform="translate(104,285.3968253968254)"><rect x="1" width="11.999999999999996" height="24.60317460317458"></rect></g><g class="bar" transform="translate(117,260.0907029478458)"><rect x="1" width="11.999999999999996" height="49.909297052154216"></rect></g><g class="bar" transform="translate(130,222.8344671201814)"><rect x="1" width="11.999999999999996" height="87.16553287981861"></rect></g><g class="bar" transform="translate(143,198.93424036281178)"><rect x="1" width="11.999999999999996" height="111.06575963718822"></rect></g><g class="bar" transform="translate(156.00000000000003,191.90476190476193)"><rect x="1" width="11.999999999999996" height="118.09523809523807"></rect></g><g class="bar" transform="translate(169,170.81632653061226)"><rect x="1" width="11.999999999999996" height="139.18367346938774"></rect></g><g class="bar" transform="translate(182.00000000000003,153.2426303854875)"><rect x="1" width="11.999999999999996" height="156.7573696145125"></rect></g><g class="bar" transform="translate(195,101.92743764172334)"><rect x="1" width="11.999999999999996" height="208.07256235827666"></rect></g><g class="bar" transform="translate(208,91.38321995464852)"><rect x="1" width="11.999999999999996" height="218.61678004535148"></rect></g><g class="bar" transform="translate(221.00000000000003,60.45351473922901)"><rect x="1" width="11.999999999999996" height="249.546485260771"></rect></g><g class="bar" transform="translate(234,10.54421768707482)"><rect x="1" width="11.999999999999996" height="299.4557823129252"></rect></g><g class="bar" transform="translate(247.00000000000003,0)"><rect x="1" width="11.999999999999996" height="310"></rect></g><g class="bar" transform="translate(260,0)"><rect x="1" width="11.999999999999996" height="310"></rect></g><g class="bar" transform="translate(273,43.58276643990928)"><rect x="1" width="11.999999999999996" height="266.4172335600907"></rect></g><g class="bar" transform="translate(286,96.30385487528343)"><rect x="1" width="11.999999999999996" height="213.69614512471657"></rect></g><g class="bar" transform="translate(299.00000000000006,149.02494331065762)"><rect x="1" width="11.999999999999996" height="160.97505668934238"></rect></g><g class="bar" transform="translate(312.00000000000006,162.38095238095238)"><rect x="1" width="11.999999999999996" height="147.61904761904762"></rect></g><g class="bar" transform="translate(325,212.29024943310657)"><rect x="1" width="11.999999999999996" height="97.70975056689343"></rect></g><g class="bar" transform="translate(338,257.27891156462584)"><rect x="1" width="11.999999999999996" height="52.721088435374156"></rect></g><g class="bar" transform="translate(351,298.0498866213152)"><rect x="1" width="11.999999999999996" height="11.950113378684819"></rect></g><g class="bar" transform="translate(364.00000000000006,304.3764172335601)"><rect x="1" width="11.999999999999996" height="5.623582766439881"></rect></g><g class="bar" transform="translate(377.00000000000006,309.297052154195)"><rect x="1" width="11.999999999999996" height="0.7029478458049994"></rect></g><g class="bar" transform="translate(390,310)"><rect x="1" width="11.999999999999996" height="0"></rect></g><g class="bar" transform="translate(403,310)"><rect x="1" width="11.999999999999996" height="0"></rect></g><g class="bar" transform="translate(416,310)"><rect x="1" width="11.999999999999996" height="0"></rect></g><g class="bar" transform="translate(429.00000000000006,310)"><rect x="1" width="11.999999999999996" height="0"></rect></g><g class="bar" transform="translate(442.00000000000006,310)"><rect x="1" width="11.999999999999996" height="0"></rect></g><g class="bar" transform="translate(455,310)"><rect x="1" width="11.999999999999996" height="0"></rect></g><g class="bar" transform="translate(468,310)"><rect x="1" width="11.999999999999996" height="0"></rect></g><g class="bar" transform="translate(481,310)"><rect x="1" width="11.999999999999996" height="0"></rect></g><g class="bar" transform="translate(494.00000000000006,310)"><rect x="1" width="11.999999999999996" height="0"></rect></g><g class="bar" transform="translate(507.00000000000006,310)"><rect x="1" width="11.999999999999996" height="0"></rect></g><g class="axis axis--x" transform="translate(0,310)" fill="none" font-size="10" font-family="sans-serif" text-anchor="middle"><path class="domain" stroke="#000" d="M0.5,6V0.5H520.5V6"></path><g class="tick" opacity="1" transform="translate(0,0)"><line stroke="#000" y2="6" x1="0.5" x2="0.5"></line><text fill="#000" y="9" x="0.5" dy="0.71em">0.01</text></g><g class="tick" opacity="1" transform="translate(130,0)"><line stroke="#000" y2="6" x1="0.5" x2="0.5"></line><text fill="#000" y="9" x="0.5" dy="0.71em">1</text></g><g class="tick" opacity="1" transform="translate(260,0)"><line stroke="#000" y2="6" x1="0.5" x2="0.5"></line><text fill="#000" y="9" x="0.5" dy="0.71em">100</text></g><g class="tick" opacity="1" transform="translate(390,0)"><line stroke="#000" y2="6" x1="0.5" x2="0.5"></line><text fill="#000" y="9" x="0.5" dy="0.71em">10000</text></g><g class="tick" opacity="1" transform="translate(520,0)"><line stroke="#000" y2="6" x1="0.5" x2="0.5"></line><text fill="#000" y="9" x="0.5" dy="0.71em"></text></g></g><g class="axis axis--y" fill="none" font-size="10" font-family="sans-serif" text-anchor="end"><path class="domain" stroke="#000" d="M-6,310.5H0.5V0.5H-6"></path><g class="tick" opacity="1" transform="translate(0,310)"><line stroke="#000" x2="-6" y1="0.5" y2="0.5"></line><text fill="#000" x="-9" y="0.5" dy="0.32em">0</text></g><g class="tick" opacity="1" transform="translate(0,274.85260770975054)"><line stroke="#000" x2="-6" y1="0.5" y2="0.5"></line><text fill="#000" x="-9" y="0.5" dy="0.32em">50</text></g><g class="tick" opacity="1" transform="translate(0,239.70521541950114)"><line stroke="#000" x2="-6" y1="0.5" y2="0.5"></line><text fill="#000" x="-9" y="0.5" dy="0.32em">100</text></g><g class="tick" opacity="1" transform="translate(0,204.5578231292517)"><line stroke="#000" x2="-6" y1="0.5" y2="0.5"></line><text fill="#000" x="-9" y="0.5" dy="0.32em">150</text></g><g class="tick" opacity="1" transform="translate(0,169.41043083900226)"><line stroke="#000" x2="-6" y1="0.5" y2="0.5"></line><text fill="#000" x="-9" y="0.5" dy="0.32em">200</text></g><g class="tick" opacity="1" transform="translate(0,134.26303854875283)"><line stroke="#000" x2="-6" y1="0.5" y2="0.5"></line><text fill="#000" x="-9" y="0.5" dy="0.32em">250</text></g><g class="tick" opacity="1" transform="translate(0,99.1156462585034)"><line stroke="#000" x2="-6" y1="0.5" y2="0.5"></line><text fill="#000" x="-9" y="0.5" dy="0.32em">300</text></g><g class="tick" opacity="1" transform="translate(0,63.968253968253975)"><line stroke="#000" x2="-6" y1="0.5" y2="0.5"></line><text fill="#000" x="-9" y="0.5" dy="0.32em">350</text></g><g class="tick" opacity="1" transform="translate(0,28.82086167800452)"><line stroke="#000" x2="-6" y1="0.5" y2="0.5"></line><text fill="#000" x="-9" y="0.5" dy="0.32em">400</text></g></g></g></svg>