<svg xmlns="http://www.w3.org/2000/svg" width="280" height="160"><defs><style type="text/css"><![CDATA[ 
.bar rect {
  fill-opacity: 0;
  stroke:       black;
  stroke-width: 0.5;
}

.highlight rect {
  fill:       red;
  fill-opacity: 1;
}
.axis path,
.axis line {
  fill: none;
  stroke: #000;
  shape-rendering: crispEdges;
}
 ]]></style></defs><g transform="translate(50,10)"><g class="bar" transform="translate(0,106.29508196721312)"><rect x="1" width="11.5" height="13.704918032786878"></rect></g><g class="bar" transform="translate(12.5,111.08196721311475)"><rect x="1" width="11.5" height="8.918032786885249"></rect></g><g class="bar" transform="translate(25,111.80327868852459)"><rect x="1" width="11.5" height="8.196721311475414"></rect></g><g class="bar" transform="translate(37.5,102.88524590163934)"><rect x="1" width="11.5" height="17.114754098360663"></rect></g><g class="bar" transform="translate(50,33.77049180327869)"><rect x="1" width="11.5" height="86.22950819672131"></rect></g><g class="bar" transform="translate(62.5,0)"><rect x="1" width="11.5" height="120"></rect></g><g class="bar" transform="translate(75,54.29508196721312)"><rect x="1" width="11.5" height="65.70491803278688"></rect></g><g class="bar" transform="translate(87.5,87.27868852459017)"><rect x="1" width="11.5" height="32.721311475409834"></rect></g><g class="bar" transform="translate(100,97.11475409836066)"><rect x="1" width="11.5" height="22.885245901639337"></rect></g><g class="bar" transform="translate(112.5,105.31147540983606)"><rect x="1" width="11.5" height="14.688524590163937"></rect></g><g class="bar" transform="translate(125,113.18032786885246)"><rect x="1" width="11.5" height="6.8196721311475414"></rect></g><g class="bar" transform="translate(137.5,117.24590163934427)"><rect x="1" width="11.5" height="2.754098360655732"></rect></g><g class="bar" transform="translate(150,119.14754098360656)"><rect x="1" width="11.5" height="0.8524590163934391"></rect></g><g class="bar" transform="translate(162.5,119.80327868852459)"><rect x="1" width="11.5" height="0.1967213114754145"></rect></g><g class="bar" transform="translate(175,120)"><rect x="1" width="11.5" height="0"></rect></g><g class="bar" transform="translate(187.5,120)"><rect x="1" width="11.5" height="0"></rect></g></g></svg>