<svg xmlns="http://www.w3.org/2000/svg" width="600" height="350"><defs><style type="text/css"><![CDATA[ 
.bar rect {
  fill-opacity: 0;
  stroke:       black;
  stroke-width: 0.5;
}

.highlight rect {
  fill:       red;
  fill-opacity: 1;
}
.axis path,
.axis line {
  fill: none;
  stroke: #000;
  shape-rendering: crispEdges;
}
 ]]></style></defs><g transform="translate(50,10)"><g class="bar" transform="translate(0,272.9794933655006)"><rect x="1" width="11.999999999999996" height="37.020506634499384"></rect></g><g class="bar" transform="translate(12.999999999999996,278.58866103739444)"><rect x="1" width="11.999999999999996" height="31.411338962605555"></rect></g><g class="bar" transform="translate(25.999999999999993,288.6851628468034)"><rect x="1" width="11.999999999999996" height="21.314837153196606"></rect></g><g class="bar" transform="translate(39.00000000000001,290.9288299155609)"><rect x="1" width="11.999999999999996" height="19.071170084439075"></rect></g><g class="bar" transform="translate(52,289.80699638118216)"><rect x="1" width="11.999999999999996" height="20.19300361881784"></rect></g><g class="bar" transform="translate(65,292.7985524728589)"><rect x="1" width="11.999999999999996" height="17.201447527141113"></rect></g><g class="bar" transform="translate(78.00000000000001,291.3027744270205)"><rect x="1" width="11.999999999999996" height="18.697225572979505"></rect></g><g class="bar" transform="translate(91.00000000000001,290.18094089264173)"><rect x="1" width="11.999999999999996" height="19.81905910735827"></rect></g><g class="bar" transform="translate(104,275.97104945717734)"><rect x="1" width="11.999999999999996" height="34.028950542822656"></rect></g><g class="bar" transform="translate(117,255.40410132689988)"><rect x="1" width="11.999999999999996" height="54.59589867310012"></rect></g><g class="bar" transform="translate(130,184.3546441495778)"><rect x="1" width="11.999999999999996" height="125.64535585042219"></rect></g><g class="bar" transform="translate(143,92.36429433051867)"><rect x="1" width="11.999999999999996" height="217.63570566948133"></rect></g><g class="bar" transform="translate(156.00000000000003,0)"><rect x="1" width="11.999999999999996" height="310"></rect></g><g class="bar" transform="translate(169,31.411338962605555)"><rect x="1" width="11.999999999999996" height="278.58866103739444"></rect></g><g class="bar" transform="translate(182.00000000000003,65.81423401688781)"><rect x="1" width="11.999999999999996" height="244.1857659831122"></rect></g><g class="bar" transform="translate(195,117.4185765983112)"><rect x="1" width="11.999999999999996" height="192.5814234016888"></rect></g><g class="bar" transform="translate(208,176.50180940892642)"><rect x="1" width="11.999999999999996" height="133.49819059107358"></rect></g><g class="bar" transform="translate(221.00000000000003,213.5223160434258)"><rect x="1" width="11.999999999999996" height="96.4776839565742"></rect></g><g class="bar" transform="translate(234,230.34981905910735)"><rect x="1" width="11.999999999999996" height="79.65018094089265"></rect></g><g class="bar" transform="translate(247.00000000000003,250.9167671893848)"><rect x="1" width="11.999999999999996" height="59.083232810615186"></rect></g><g class="bar" transform="translate(260,250.54282267792522)"><rect x="1" width="11.999999999999996" height="59.457177322074784"></rect></g><g class="bar" transform="translate(273,259.1435464414958)"><rect x="1" width="11.999999999999996" height="50.8564535585042"></rect></g><g class="bar" transform="translate(286,264.75271411338963)"><rect x="1" width="11.999999999999996" height="45.24728588661037"></rect></g><g class="bar" transform="translate(299.00000000000006,277.84077201447525)"><rect x="1" width="11.999999999999996" height="32.15922798552475"></rect></g><g class="bar" transform="translate(312.00000000000006,283.44993968636913)"><rect x="1" width="11.999999999999996" height="26.550060313630865"></rect></g><g class="bar" transform="translate(325,289.80699638118216)"><rect x="1" width="11.999999999999996" height="20.19300361881784"></rect></g><g class="bar" transform="translate(338,295.79010856453556)"><rect x="1" width="11.999999999999996" height="14.209891435464442"></rect></g><g class="bar" transform="translate(351,301.773220747889)"><rect x="1" width="11.999999999999996" height="8.226779252110987"></rect></g><g class="bar" transform="translate(364.00000000000006,303.642943305187)"><rect x="1" width="11.999999999999996" height="6.357056694813025"></rect></g><g class="bar" transform="translate(377.00000000000006,304.39083232810617)"><rect x="1" width="11.999999999999996" height="5.609167671893829"></rect></g><g class="bar" transform="translate(390,308.13027744270204)"><rect x="1" width="11.999999999999996" height="1.8697225572979619"></rect></g><g class="bar" transform="translate(403,307.3823884197829)"><rect x="1" width="11.999999999999996" height="2.617611580217101"></rect></g><g class="bar" transform="translate(416,309.2521109770808)"><rect x="1" width="11.999999999999996" height="0.7478890229191961"></rect></g><g class="bar" transform="translate(429.00000000000006,309.2521109770808)"><rect x="1" width="11.999999999999996" height="0.7478890229191961"></rect></g><g class="bar" transform="translate(442.00000000000006,310)"><rect x="1" width="11.999999999999996" height="0"></rect></g><g class="bar" transform="translate(455,310)"><rect x="1" width="11.999999999999996" height="0"></rect></g><g class="bar" transform="translate(468,310)"><rect x="1" width="11.999999999999996" height="0"></rect></g><g class="bar" transform="translate(481,310)"><rect x="1" width="11.999999999999996" height="0"></rect></g><g class="bar" transform="translate(494.00000000000006,310)"><rect x="1" width="11.999999999999996" height="0"></rect></g><g class="bar" transform="translate(507.00000000000006,310)"><rect x="1" width="11.999999999999996" height="0"></rect></g><g class="axis axis--x" transform="translate(0,310)" fill="none" font-size="10" font-family="sans-serif" text-anchor="middle"><path class="domain" stroke="#000" d="M0.5,6V0.5H520.5V6"></path><g class="tick" opacity="1" transform="translate(0,0)"><line stroke="#000" y2="6" x1="0.5" x2="0.5"></line><text fill="#000" y="9" x="0.5" dy="0.71em">0.01</text></g><g class="tick" opacity="1" transform="translate(130,0)"><line stroke="#000" y2="6" x1="0.5" x2="0.5"></line><text fill="#000" y="9" x="0.5" dy="0.71em">1</text></g><g class="tick" opacity="1" transform="translate(260,0)"><line stroke="#000" y2="6" x1="0.5" x2="0.5"></line><text fill="#000" y="9" x="0.5" dy="0.71em">100</text></g><g class="tick" opacity="1" transform="translate(390,0)"><line stroke="#000" y2="6" x1="0.5" x2="0.5"></line><text fill="#000" y="9" x="0.5" dy="0.71em">10000</text></g><g class="tick" opacity="1" transform="translate(520,0)"><line stroke="#000" y2="6" x1="0.5" x2="0.5"></line><text fill="#000" y="9" x="0.5" dy="0.71em"></text></g></g><g class="axis axis--y" fill="none" font-size="10" font-family="sans-serif" text-anchor="end"><path class="domain" stroke="#000" d="M-6,310.5H0.5V0.5H-6"></path><g class="tick" opacity="1" transform="translate(0,310)"><line stroke="#000" x2="-6" y1="0.5" y2="0.5"></line><text fill="#000" x="-9" y="0.5" dy="0.32em">0</text></g><g class="tick" opacity="1" transform="translate(0,272.605548854041)"><line stroke="#000" x2="-6" y1="0.5" y2="0.5"></line><text fill="#000" x="-9" y="0.5" dy="0.32em">100</text></g><g class="tick" opacity="1" transform="translate(0,235.21109770808204)"><line stroke="#000" x2="-6" y1="0.5" y2="0.5"></line><text fill="#000" x="-9" y="0.5" dy="0.32em">200</text></g><g class="tick" opacity="1" transform="translate(0,197.81664656212303)"><line stroke="#000" x2="-6" y1="0.5" y2="0.5"></line><text fill="#000" x="-9" y="0.5" dy="0.32em">300</text></g><g class="tick" opacity="1" transform="translate(0,160.42219541616404)"><line stroke="#000" x2="-6" y1="0.5" y2="0.5"></line><text fill="#000" x="-9" y="0.5" dy="0.32em">400</text></g><g class="tick" opacity="1" transform="translate(0,123.02774427020509)"><line stroke="#000" x2="-6" y1="0.5" y2="0.5"></line><text fill="#000" x="-9" y="0.5" dy="0.32em">500</text></g><g class="tick" opacity="1" transform="translate(0,85.63329312424605)"><line stroke="#000" x2="-6" y1="0.5" y2="0.5"></line><text fill="#000" x="-9" y="0.5" dy="0.32em">600</text></g><g class="tick" opacity="1" transform="translate(0,48.2388419782871)"><line stroke="#000" x2="-6" y1="0.5" y2="0.5"></line><text fill="#000" x="-9" y="0.5" dy="0.32em">700</text></g><g class="tick" opacity="1" transform="translate(0,10.844390832328088)"><line stroke="#000" x2="-6" y1="0.5" y2="0.5"></line><text fill="#000" x="-9" y="0.5" dy="0.32em">800</text></g></g></g></svg>