<svg xmlns="http://www.w3.org/2000/svg" width="600" height="350"><defs><style type="text/css"><![CDATA[ 
.bar rect {
  fill-opacity: 0;
  stroke:       black;
  stroke-width: 0.5;
}

.highlight rect {
  fill:       red;
  fill-opacity: 1;
}
.axis path,
.axis line {
  fill: none;
  stroke: #000;
  shape-rendering: crispEdges;
}
path {
    stroke: red;
    fill: none;
}

line {
    stroke: red;
}

path.marker {
    fill: red;
}
 ]]></style></defs><g transform="translate(50,10)"><g class="bar" transform="translate(0,310)"><rect x="1" width="5.500000000000005" height="0"></rect></g><g class="bar" transform="translate(6.500000000000005,310)"><rect x="1" width="5.500000000000005" height="0"></rect></g><g class="bar" transform="translate(12.999999999999996,310)"><rect x="1" width="5.500000000000005" height="0"></rect></g><g class="bar" transform="translate(19.500000000000004,310)"><rect x="1" width="5.500000000000005" height="0"></rect></g><g class="bar" transform="translate(25.999999999999993,310)"><rect x="1" width="5.500000000000005" height="0"></rect></g><g class="bar" transform="translate(32.5,310)"><rect x="1" width="5.500000000000005" height="0"></rect></g><g class="bar" transform="translate(39.00000000000001,308.97520661157023)"><rect x="1" width="5.500000000000005" height="1.0247933884297709"></rect></g><g class="bar" transform="translate(45.500000000000014,309.4876033057851)"><rect x="1" width="5.500000000000005" height="0.5123966942148854"></rect></g><g class="bar" transform="translate(52,310)"><rect x="1" width="5.500000000000005" height="0"></rect></g><g class="bar" transform="translate(58.49999999999999,309.4876033057851)"><rect x="1" width="5.500000000000005" height="0.5123966942148854"></rect></g><g class="bar" transform="translate(65,306.41322314049586)"><rect x="1" width="5.500000000000005" height="3.586776859504141"></rect></g><g class="bar" transform="translate(71.5,305.3884297520661)"><rect x="1" width="5.500000000000005" height="4.611570247933912"></rect></g><g class="bar" transform="translate(78.00000000000001,299.75206611570246)"><rect x="1" width="5.500000000000005" height="10.247933884297538"></rect></g><g class="bar" transform="translate(84.5,298.21487603305786)"><rect x="1" width="5.500000000000005" height="11.785123966942137"></rect></g><g class="bar" transform="translate(91.00000000000001,272.59504132231405)"><rect x="1" width="5.500000000000005" height="37.404958677685954"></rect></g><g class="bar" transform="translate(97.5,259.27272727272725)"><rect x="1" width="5.500000000000005" height="50.72727272727275"></rect></g><g class="bar" transform="translate(104,224.42975206611573)"><rect x="1" width="5.500000000000005" height="85.57024793388427"></rect></g><g class="bar" transform="translate(110.50000000000001,175.2396694214876)"><rect x="1" width="5.500000000000005" height="134.7603305785124"></rect></g><g class="bar" transform="translate(117,132.71074380165288)"><rect x="1" width="5.500000000000005" height="177.28925619834712"></rect></g><g class="bar" transform="translate(123.50000000000001,92.2314049586777)"><rect x="1" width="5.500000000000005" height="217.7685950413223"></rect></g><g class="bar" transform="translate(130,40.991735537190095)"><rect x="1" width="5.500000000000005" height="269.0082644628099"></rect></g><g class="bar" transform="translate(136.5,16.396694214875993)"><rect x="1" width="5.500000000000005" height="293.603305785124"></rect></g><g class="bar" transform="translate(143,7.173553719008282)"><rect x="1" width="5.500000000000005" height="302.8264462809917"></rect></g><g class="bar" transform="translate(149.50000000000003,0)"><rect x="1" width="5.500000000000005" height="310"></rect></g><g class="bar" transform="translate(156.00000000000003,5.636363636363626)"><rect x="1" width="5.500000000000005" height="304.3636363636364"></rect></g><g class="bar" transform="translate(162.5,47.14049586776861)"><rect x="1" width="5.500000000000005" height="262.8595041322314"></rect></g><g class="bar" transform="translate(169,37.404958677685954)"><rect x="1" width="5.500000000000005" height="272.59504132231405"></rect></g><g class="bar" transform="translate(175.5,52.26446280991735)"><rect x="1" width="5.500000000000005" height="257.73553719008265"></rect></g><g class="bar" transform="translate(182.00000000000003,68.66115702479337)"><rect x="1" width="5.500000000000005" height="241.33884297520663"></rect></g><g class="bar" transform="translate(188.50000000000003,67.63636363636363)"><rect x="1" width="5.500000000000005" height="242.36363636363637"></rect></g><g class="bar" transform="translate(195,86.08264462809919)"><rect x="1" width="5.500000000000005" height="223.9173553719008"></rect></g><g class="bar" transform="translate(201.5,71.22314049586774)"><rect x="1" width="5.500000000000005" height="238.77685950413226"></rect></g><g class="bar" transform="translate(208,84.54545454545453)"><rect x="1" width="5.500000000000005" height="225.45454545454547"></rect></g><g class="bar" transform="translate(214.50000000000003,71.73553719008265)"><rect x="1" width="5.500000000000005" height="238.26446280991735"></rect></g><g class="bar" transform="translate(221.00000000000003,85.5702479338843)"><rect x="1" width="5.500000000000005" height="224.4297520661157"></rect></g><g class="bar" transform="translate(227.5,93.7685950413223)"><rect x="1" width="5.500000000000005" height="216.2314049586777"></rect></g><g class="bar" transform="translate(234,105.55371900826447)"><rect x="1" width="5.500000000000005" height="204.44628099173553"></rect></g><g class="bar" transform="translate(240.5,101.96694214876032)"><rect x="1" width="5.500000000000005" height="208.03305785123968"></rect></g><g class="bar" transform="translate(247.00000000000003,132.19834710743802)"><rect x="1" width="5.500000000000005" height="177.80165289256198"></rect></g><g class="bar" transform="translate(253.50000000000003,122.97520661157026)"><rect x="1" width="5.500000000000005" height="187.02479338842974"></rect></g><g class="bar" transform="translate(260,163.96694214876032)"><rect x="1" width="5.500000000000005" height="146.03305785123968"></rect></g><g class="bar" transform="translate(266.50000000000006,167.55371900826447)"><rect x="1" width="5.500000000000005" height="142.44628099173553"></rect></g><g class="bar" transform="translate(273,172.16528925619835)"><rect x="1" width="5.500000000000005" height="137.83471074380165"></rect></g><g class="bar" transform="translate(279.5,182.41322314049586)"><rect x="1" width="5.500000000000005" height="127.58677685950414"></rect></g><g class="bar" transform="translate(286,212.64462809917353)"><rect x="1" width="5.500000000000005" height="97.35537190082647"></rect></g><g class="bar" transform="translate(292.5,220.3305785123967)"><rect x="1" width="5.500000000000005" height="89.6694214876033"></rect></g><g class="bar" transform="translate(299.00000000000006,249.02479338842974)"><rect x="1" width="5.500000000000005" height="60.97520661157026"></rect></g><g class="bar" transform="translate(305.5,245.43801652892563)"><rect x="1" width="5.500000000000005" height="64.56198347107437"></rect></g><g class="bar" transform="translate(312.00000000000006,259.27272727272725)"><rect x="1" width="5.500000000000005" height="50.72727272727275"></rect></g><g class="bar" transform="translate(318.5,276.6942148760331)"><rect x="1" width="5.500000000000005" height="33.30578512396693"></rect></g><g class="bar" transform="translate(325,288.9917355371901)"><rect x="1" width="5.500000000000005" height="21.008264462809905"></rect></g><g class="bar" transform="translate(331.50000000000006,293.60330578512395)"><rect x="1" width="5.500000000000005" height="16.39669421487605"></rect></g><g class="bar" transform="translate(338,296.6776859504132)"><rect x="1" width="5.500000000000005" height="13.322314049586794"></rect></g><g class="bar" transform="translate(344.50000000000006,305.900826446281)"><rect x="1" width="5.500000000000005" height="4.099173553719027"></rect></g><g class="bar" transform="translate(351,306.41322314049586)"><rect x="1" width="5.500000000000005" height="3.586776859504141"></rect></g><g class="bar" transform="translate(357.5,307.43801652892563)"><rect x="1" width="5.500000000000005" height="2.5619834710743703"></rect></g><g class="bar" transform="translate(364.00000000000006,308.46280991735534)"><rect x="1" width="5.500000000000005" height="1.5371900826446563"></rect></g><g class="bar" transform="translate(370.5,308.46280991735534)"><rect x="1" width="5.500000000000005" height="1.5371900826446563"></rect></g><g class="bar" transform="translate(377.00000000000006,308.46280991735534)"><rect x="1" width="5.500000000000005" height="1.5371900826446563"></rect></g><g class="bar" transform="translate(383.5,308.97520661157023)"><rect x="1" width="5.500000000000005" height="1.0247933884297709"></rect></g><g class="bar" transform="translate(390,310)"><rect x="1" width="5.500000000000005" height="0"></rect></g><g class="bar" transform="translate(396.50000000000006,310)"><rect x="1" width="5.500000000000005" height="0"></rect></g><g class="bar" transform="translate(403,309.4876033057851)"><rect x="1" width="5.500000000000005" height="0.5123966942148854"></rect></g><g class="bar" transform="translate(409.50000000000006,310)"><rect x="1" width="5.500000000000005" height="0"></rect></g><g class="bar" transform="translate(416,310)"><rect x="1" width="5.500000000000005" height="0"></rect></g><g class="bar" transform="translate(422.5,310)"><rect x="1" width="5.500000000000005" height="0"></rect></g><g class="bar" transform="translate(429.00000000000006,310)"><rect x="1" width="5.500000000000005" height="0"></rect></g><g class="bar" transform="translate(435.5,310)"><rect x="1" width="5.500000000000005" height="0"></rect></g><g class="bar" transform="translate(442.00000000000006,310)"><rect x="1" width="5.500000000000005" height="0"></rect></g><g class="bar" transform="translate(448.5,310)"><rect x="1" width="5.500000000000005" height="0"></rect></g><g class="bar" transform="translate(455,310)"><rect x="1" width="5.500000000000005" height="0"></rect></g><g class="bar" transform="translate(461.50000000000006,310)"><rect x="1" width="5.500000000000005" height="0"></rect></g><g class="bar" transform="translate(468,310)"><rect x="1" width="5.500000000000005" height="0"></rect></g><g class="bar" transform="translate(474.50000000000006,310)"><rect x="1" width="5.500000000000005" height="0"></rect></g><g class="bar" transform="translate(481,310)"><rect x="1" width="5.500000000000005" height="0"></rect></g><g class="bar" transform="translate(487.5,310)"><rect x="1" width="5.500000000000005" height="0"></rect></g><g class="bar" transform="translate(494.00000000000006,310)"><rect x="1" width="5.500000000000005" height="0"></rect></g><g class="bar" transform="translate(500.5,310)"><rect x="1" width="5.500000000000005" height="0"></rect></g><g class="bar" transform="translate(507.00000000000006,310)"><rect x="1" width="5.500000000000005" height="0"></rect></g><g class="bar" transform="translate(513.5,310)"><rect x="1" width="5.500000000000005" height="0"></rect></g><g class="axis axis--x" transform="translate(0,310)" fill="none" font-size="10" font-family="sans-serif" text-anchor="middle"><path class="domain" stroke="#000" d="M0.5,6V0.5H520.5V6"></path><g class="tick" opacity="1" transform="translate(0.5,0)"><line stroke="#000" y2="6"></line><text fill="#000" y="9" dy="0.71em">0.01</text></g><g class="tick" opacity="1" transform="translate(130.5,0)"><line stroke="#000" y2="6"></line><text fill="#000" y="9" dy="0.71em">1</text></g><g class="tick" opacity="1" transform="translate(260.5,0)"><line stroke="#000" y2="6"></line><text fill="#000" y="9" dy="0.71em">100</text></g><g class="tick" opacity="1" transform="translate(390.5,0)"><line stroke="#000" y2="6"></line><text fill="#000" y="9" dy="0.71em">10000</text></g><g class="tick" opacity="1" transform="translate(520.5,0)"><line stroke="#000" y2="6"></line><text fill="#000" y="9" dy="0.71em"></text></g></g><g class="axis axis--y" fill="none" font-size="10" font-family="sans-serif" text-anchor="end"><path class="domain" stroke="#000" d="M-6,310.5H0.5V0.5H-6"></path><g class="tick" opacity="1" transform="translate(0,310.5)"><line stroke="#000" x2="-6"></line><text fill="#000" x="-9" dy="0.32em">0</text></g><g class="tick" opacity="1" transform="translate(0,284.8801652892562)"><line stroke="#000" x2="-6"></line><text fill="#000" x="-9" dy="0.32em">50</text></g><g class="tick" opacity="1" transform="translate(0,259.26033057851237)"><line stroke="#000" x2="-6"></line><text fill="#000" x="-9" dy="0.32em">100</text></g><g class="tick" opacity="1" transform="translate(0,233.6404958677686)"><line stroke="#000" x2="-6"></line><text fill="#000" x="-9" dy="0.32em">150</text></g><g class="tick" opacity="1" transform="translate(0,208.0206611570248)"><line stroke="#000" x2="-6"></line><text fill="#000" x="-9" dy="0.32em">200</text></g><g class="tick" opacity="1" transform="translate(0,182.400826446281)"><line stroke="#000" x2="-6"></line><text fill="#000" x="-9" dy="0.32em">250</text></g><g class="tick" opacity="1" transform="translate(0,156.78099173553719)"><line stroke="#000" x2="-6"></line><text fill="#000" x="-9" dy="0.32em">300</text></g><g class="tick" opacity="1" transform="translate(0,131.1611570247934)"><line stroke="#000" x2="-6"></line><text fill="#000" x="-9" dy="0.32em">350</text></g><g class="tick" opacity="1" transform="translate(0,105.54132231404958)"><line stroke="#000" x2="-6"></line><text fill="#000" x="-9" dy="0.32em">400</text></g><g class="tick" opacity="1" transform="translate(0,79.92148760330579)"><line stroke="#000" x2="-6"></line><text fill="#000" x="-9" dy="0.32em">450</text></g><g class="tick" opacity="1" transform="translate(0,54.301652892562004)"><line stroke="#000" x2="-6"></line><text fill="#000" x="-9" dy="0.32em">500</text></g><g class="tick" opacity="1" transform="translate(0,28.681818181818187)"><line stroke="#000" x2="-6"></line><text fill="#000" x="-9" dy="0.32em">550</text></g><g class="tick" opacity="1" transform="translate(0,3.0619834710743703)"><line stroke="#000" x2="-6"></line><text fill="#000" x="-9" dy="0.32em">600</text></g></g></g></svg>