<svg xmlns="http://www.w3.org/2000/svg" width="280" height="160"><defs><style type="text/css"><![CDATA[ 
.bar rect {
  fill-opacity: 0;
  stroke:       black;
  stroke-width: 0.5;
}

.highlight rect {
  fill:       red;
  fill-opacity: 1;
}
.axis path,
.axis line {
  fill: none;
  stroke: #000;
  shape-rendering: crispEdges;
}
path {
    stroke: red;
    fill: none;
}

line {
    stroke: red;
}

path.marker {
    fill: red;
}
 ]]></style></defs><g transform="translate(50,10)"><g class="bar" transform="translate(0,120)"><rect x="1" width="11.5" height="0"></rect></g><g class="bar" transform="translate(12.5,119.83379501385042)"><rect x="1" width="11.5" height="0.16620498614958024"></rect></g><g class="bar" transform="translate(25,114.51523545706371)"><rect x="1" width="11.5" height="5.48476454293629"></rect></g><g class="bar" transform="translate(37.5,65.98337950138504)"><rect x="1" width="11.5" height="54.016620498614955"></rect></g><g class="bar" transform="translate(50,0)"><rect x="1" width="11.5" height="120"></rect></g><g class="bar" transform="translate(62.5,16.45429362880887)"><rect x="1" width="11.5" height="103.54570637119113"></rect></g><g class="bar" transform="translate(75,26.67590027700831)"><rect x="1" width="11.5" height="93.32409972299169"></rect></g><g class="bar" transform="translate(87.5,39.43213296398892)"><rect x="1" width="11.5" height="80.56786703601108"></rect></g><g class="bar" transform="translate(100,67.18836565096953)"><rect x="1" width="11.5" height="52.81163434903047"></rect></g><g class="bar" transform="translate(112.5,95.73407202216066)"><rect x="1" width="11.5" height="24.26592797783934"></rect></g><g class="bar" transform="translate(125,115.26315789473685)"><rect x="1" width="11.5" height="4.73684210526315"></rect></g><g class="bar" transform="translate(137.5,119.33518005540166)"><rect x="1" width="11.5" height="0.6648199445983352"></rect></g><g class="bar" transform="translate(150,119.9584487534626)"><rect x="1" width="11.5" height="0.04155124653739506"></rect></g><g class="bar" transform="translate(162.5,120)"><rect x="1" width="11.5" height="0"></rect></g><g class="bar" transform="translate(175,120)"><rect x="1" width="11.5" height="0"></rect></g><g class="bar" transform="translate(187.5,120)"><rect x="1" width="11.5" height="0"></rect></g></g></svg>