<svg xmlns="http://www.w3.org/2000/svg" width="280" height="160"><defs><style type="text/css"><![CDATA[ 
.bar rect {
  fill-opacity: 0;
  stroke:       black;
  stroke-width: 0.5;
}

.highlight rect {
  fill:       red;
  fill-opacity: 1;
}
.axis path,
.axis line {
  fill: none;
  stroke: #000;
  shape-rendering: crispEdges;
}
path {
    stroke: red;
    fill: none;
}

line {
    stroke: red;
}

path.marker {
    fill: red;
}
 ]]></style></defs><g transform="translate(50,10)"><g class="bar" transform="translate(0,120)"><rect x="1" width="11.5" height="0"></rect></g><g class="bar" transform="translate(12.5,120)"><rect x="1" width="11.5" height="0"></rect></g><g class="bar" transform="translate(25,120)"><rect x="1" width="11.5" height="0"></rect></g><g class="bar" transform="translate(37.5,118.85714285714286)"><rect x="1" width="11.5" height="1.1428571428571388"></rect></g><g class="bar" transform="translate(50,116.95238095238095)"><rect x="1" width="11.5" height="3.047619047619051"></rect></g><g class="bar" transform="translate(62.5,105.9047619047619)"><rect x="1" width="11.5" height="14.095238095238102"></rect></g><g class="bar" transform="translate(75,48.38095238095238)"><rect x="1" width="11.5" height="71.61904761904762"></rect></g><g class="bar" transform="translate(87.5,8)"><rect x="1" width="11.5" height="112"></rect></g><g class="bar" transform="translate(100,0)"><rect x="1" width="11.5" height="120"></rect></g><g class="bar" transform="translate(112.5,6.095238095238102)"><rect x="1" width="11.5" height="113.9047619047619"></rect></g><g class="bar" transform="translate(125,55.23809523809524)"><rect x="1" width="11.5" height="64.76190476190476"></rect></g><g class="bar" transform="translate(137.5,98.66666666666666)"><rect x="1" width="11.5" height="21.333333333333343"></rect></g><g class="bar" transform="translate(150,116.57142857142857)"><rect x="1" width="11.5" height="3.4285714285714306"></rect></g><g class="bar" transform="translate(162.5,119.61904761904762)"><rect x="1" width="11.5" height="0.3809523809523796"></rect></g><g class="bar" transform="translate(175,120)"><rect x="1" width="11.5" height="0"></rect></g><g class="bar" transform="translate(187.5,120)"><rect x="1" width="11.5" height="0"></rect></g></g></svg>