<svg xmlns="http://www.w3.org/2000/svg" width="600" height="350"><defs><style type="text/css"><![CDATA[ 
.bar rect {
  fill-opacity: 0;
  stroke:       black;
  stroke-width: 0.5;
}

.highlight rect {
  fill:       red;
  fill-opacity: 1;
}
.axis path,
.axis line {
  fill: none;
  stroke: #000;
  shape-rendering: crispEdges;
}
path {
    stroke: red;
    fill: none;
}

line {
    stroke: red;
}

path.marker {
    fill: red;
}
 ]]></style></defs><g transform="translate(50,10)"><g class="bar" transform="translate(0,310)"><rect x="1" width="11.999999999999996" height="0"></rect></g><g class="bar" transform="translate(12.999999999999996,310)"><rect x="1" width="11.999999999999996" height="0"></rect></g><g class="bar" transform="translate(25.999999999999993,310)"><rect x="1" width="11.999999999999996" height="0"></rect></g><g class="bar" transform="translate(39.00000000000001,310)"><rect x="1" width="11.999999999999996" height="0"></rect></g><g class="bar" transform="translate(52,310)"><rect x="1" width="11.999999999999996" height="0"></rect></g><g class="bar" transform="translate(65,310)"><rect x="1" width="11.999999999999996" height="0"></rect></g><g class="bar" transform="translate(78.00000000000001,310)"><rect x="1" width="11.999999999999996" height="0"></rect></g><g class="bar" transform="translate(91.00000000000001,310)"><rect x="1" width="11.999999999999996" height="0"></rect></g><g class="bar" transform="translate(104,307.7037037037037)"><rect x="1" width="11.999999999999996" height="2.2962962962963047"></rect></g><g class="bar" transform="translate(117,305.4074074074074)"><rect x="1" width="11.999999999999996" height="4.592592592592609"></rect></g><g class="bar" transform="translate(130,305.4074074074074)"><rect x="1" width="11.999999999999996" height="4.592592592592609"></rect></g><g class="bar" transform="translate(143,303.1111111111111)"><rect x="1" width="11.999999999999996" height="6.888888888888914"></rect></g><g class="bar" transform="translate(156.00000000000003,296.22222222222223)"><rect x="1" width="11.999999999999996" height="13.777777777777771"></rect></g><g class="bar" transform="translate(169,287.03703703703707)"><rect x="1" width="11.999999999999996" height="22.962962962962933"></rect></g><g class="bar" transform="translate(182.00000000000003,254.88888888888889)"><rect x="1" width="11.999999999999996" height="55.111111111111114"></rect></g><g class="bar" transform="translate(195,199.77777777777777)"><rect x="1" width="11.999999999999996" height="110.22222222222223"></rect></g><g class="bar" transform="translate(208,124)"><rect x="1" width="11.999999999999996" height="186"></rect></g><g class="bar" transform="translate(221.00000000000003,36.740740740740705)"><rect x="1" width="11.999999999999996" height="273.2592592592593"></rect></g><g class="bar" transform="translate(234,57.40740740740742)"><rect x="1" width="11.999999999999996" height="252.59259259259258"></rect></g><g class="bar" transform="translate(247.00000000000003,25.259259259259238)"><rect x="1" width="11.999999999999996" height="284.74074074074076"></rect></g><g class="bar" transform="translate(260,22.962962962962933)"><rect x="1" width="11.999999999999996" height="287.03703703703707"></rect></g><g class="bar" transform="translate(273,27.555555555555543)"><rect x="1" width="11.999999999999996" height="282.44444444444446"></rect></g><g class="bar" transform="translate(286,6.888888888888914)"><rect x="1" width="11.999999999999996" height="303.1111111111111"></rect></g><g class="bar" transform="translate(299.00000000000006,0)"><rect x="1" width="11.999999999999996" height="310"></rect></g><g class="bar" transform="translate(312.00000000000006,82.66666666666669)"><rect x="1" width="11.999999999999996" height="227.33333333333331"></rect></g><g class="bar" transform="translate(325,114.81481481481481)"><rect x="1" width="11.999999999999996" height="195.1851851851852"></rect></g><g class="bar" transform="translate(338,183.7037037037037)"><rect x="1" width="11.999999999999996" height="126.2962962962963"></rect></g><g class="bar" transform="translate(351,190.5925925925926)"><rect x="1" width="11.999999999999996" height="119.40740740740739"></rect></g><g class="bar" transform="translate(364.00000000000006,266.3703703703704)"><rect x="1" width="11.999999999999996" height="43.62962962962962"></rect></g><g class="bar" transform="translate(377.00000000000006,275.55555555555554)"><rect x="1" width="11.999999999999996" height="34.44444444444446"></rect></g><g class="bar" transform="translate(390,296.22222222222223)"><rect x="1" width="11.999999999999996" height="13.777777777777771"></rect></g><g class="bar" transform="translate(403,303.1111111111111)"><rect x="1" width="11.999999999999996" height="6.888888888888914"></rect></g><g class="bar" transform="translate(416,310)"><rect x="1" width="11.999999999999996" height="0"></rect></g><g class="bar" transform="translate(429.00000000000006,307.7037037037037)"><rect x="1" width="11.999999999999996" height="2.2962962962963047"></rect></g><g class="bar" transform="translate(442.00000000000006,310)"><rect x="1" width="11.999999999999996" height="0"></rect></g><g class="bar" transform="translate(455,310)"><rect x="1" width="11.999999999999996" height="0"></rect></g><g class="bar" transform="translate(468,310)"><rect x="1" width="11.999999999999996" height="0"></rect></g><g class="bar" transform="translate(481,310)"><rect x="1" width="11.999999999999996" height="0"></rect></g><g class="bar" transform="translate(494.00000000000006,310)"><rect x="1" width="11.999999999999996" height="0"></rect></g><g class="bar" transform="translate(507.00000000000006,310)"><rect x="1" width="11.999999999999996" height="0"></rect></g><g class="axis axis--x" transform="translate(0,310)" fill="none" font-size="10" font-family="sans-serif" text-anchor="middle"><path class="domain" stroke="#000" d="M0.5,6V0.5H520.5V6"></path><g class="tick" opacity="1" transform="translate(0.5,0)"><line stroke="#000" y2="6"></line><text fill="#000" y="9" dy="0.71em">0.01</text></g><g class="tick" opacity="1" transform="translate(130.5,0)"><line stroke="#000" y2="6"></line><text fill="#000" y="9" dy="0.71em">1</text></g><g class="tick" opacity="1" transform="translate(260.5,0)"><line stroke="#000" y2="6"></line><text fill="#000" y="9" dy="0.71em">100</text></g><g class="tick" opacity="1" transform="translate(390.5,0)"><line stroke="#000" y2="6"></line><text fill="#000" y="9" dy="0.71em">10000</text></g><g class="tick" opacity="1" transform="translate(520.5,0)"><line stroke="#000" y2="6"></line><text fill="#000" y="9" dy="0.71em"></text></g></g><g class="axis axis--y" fill="none" font-size="10" font-family="sans-serif" text-anchor="end"><path class="domain" stroke="#000" d="M-6,310.5H0.5V0.5H-6"></path><g class="tick" opacity="1" transform="translate(0,310.5)"><line stroke="#000" x2="-6"></line><text fill="#000" x="-9" dy="0.32em">0</text></g><g class="tick" opacity="1" transform="translate(0,287.53703703703707)"><line stroke="#000" x2="-6"></line><text fill="#000" x="-9" dy="0.32em">10</text></g><g class="tick" opacity="1" transform="translate(0,264.5740740740741)"><line stroke="#000" x2="-6"></line><text fill="#000" x="-9" dy="0.32em">20</text></g><g class="tick" opacity="1" transform="translate(0,241.61111111111111)"><line stroke="#000" x2="-6"></line><text fill="#000" x="-9" dy="0.32em">30</text></g><g class="tick" opacity="1" transform="translate(0,218.64814814814815)"><line stroke="#000" x2="-6"></line><text fill="#000" x="-9" dy="0.32em">40</text></g><g class="tick" opacity="1" transform="translate(0,195.6851851851852)"><line stroke="#000" x2="-6"></line><text fill="#000" x="-9" dy="0.32em">50</text></g><g class="tick" opacity="1" transform="translate(0,172.72222222222223)"><line stroke="#000" x2="-6"></line><text fill="#000" x="-9" dy="0.32em">60</text></g><g class="tick" opacity="1" transform="translate(0,149.75925925925927)"><line stroke="#000" x2="-6"></line><text fill="#000" x="-9" dy="0.32em">70</text></g><g class="tick" opacity="1" transform="translate(0,126.7962962962963)"><line stroke="#000" x2="-6"></line><text fill="#000" x="-9" dy="0.32em">80</text></g><g class="tick" opacity="1" transform="translate(0,103.83333333333334)"><line stroke="#000" x2="-6"></line><text fill="#000" x="-9" dy="0.32em">90</text></g><g class="tick" opacity="1" transform="translate(0,80.87037037037038)"><line stroke="#000" x2="-6"></line><text fill="#000" x="-9" dy="0.32em">100</text></g><g class="tick" opacity="1" transform="translate(0,57.90740740740742)"><line stroke="#000" x2="-6"></line><text fill="#000" x="-9" dy="0.32em">110</text></g><g class="tick" opacity="1" transform="translate(0,34.94444444444446)"><line stroke="#000" x2="-6"></line><text fill="#000" x="-9" dy="0.32em">120</text></g><g class="tick" opacity="1" transform="translate(0,11.981481481481524)"><line stroke="#000" x2="-6"></line><text fill="#000" x="-9" dy="0.32em">130</text></g></g></g></svg>