<svg xmlns="http://www.w3.org/2000/svg" width="600" height="350"><defs><style type="text/css"><![CDATA[ 
.bar rect {
  fill-opacity: 0;
  stroke:       black;
  stroke-width: 0.5;
}

.highlight rect {
  fill:       red;
  fill-opacity: 1;
}
.axis path,
.axis line {
  fill: none;
  stroke: #000;
  shape-rendering: crispEdges;
}
path {
    stroke: red;
    fill: none;
}

line {
    stroke: red;
}

path.marker {
    fill: red;
}
 ]]></style></defs><g transform="translate(50,10)"><g class="bar" transform="translate(0,310)"><rect x="1" width="5.500000000000005" height="0"></rect></g><g class="bar" transform="translate(6.500000000000005,310)"><rect x="1" width="5.500000000000005" height="0"></rect></g><g class="bar" transform="translate(12.999999999999996,310)"><rect x="1" width="5.500000000000005" height="0"></rect></g><g class="bar" transform="translate(19.500000000000004,310)"><rect x="1" width="5.500000000000005" height="0"></rect></g><g class="bar" transform="translate(25.999999999999993,310)"><rect x="1" width="5.500000000000005" height="0"></rect></g><g class="bar" transform="translate(32.5,308.36195508586525)"><rect x="1" width="5.500000000000005" height="1.6380449141347526"></rect></g><g class="bar" transform="translate(39.00000000000001,304.2668428005284)"><rect x="1" width="5.500000000000005" height="5.733157199471577"></rect></g><g class="bar" transform="translate(45.500000000000014,303.85733157199473)"><rect x="1" width="5.500000000000005" height="6.1426684280052655"></rect></g><g class="bar" transform="translate(52,306.3143989431968)"><rect x="1" width="5.500000000000005" height="3.6856010568031934"></rect></g><g class="bar" transform="translate(58.49999999999999,306.7239101717305)"><rect x="1" width="5.500000000000005" height="3.2760898282695052"></rect></g><g class="bar" transform="translate(65,309.5904887714663)"><rect x="1" width="5.500000000000005" height="0.40951122853368815"></rect></g><g class="bar" transform="translate(71.5,309.5904887714663)"><rect x="1" width="5.500000000000005" height="0.40951122853368815"></rect></g><g class="bar" transform="translate(78.00000000000001,309.1809775429326)"><rect x="1" width="5.500000000000005" height="0.8190224570673763"></rect></g><g class="bar" transform="translate(84.5,309.5904887714663)"><rect x="1" width="5.500000000000005" height="0.40951122853368815"></rect></g><g class="bar" transform="translate(91.00000000000001,306.7239101717305)"><rect x="1" width="5.500000000000005" height="3.2760898282695052"></rect></g><g class="bar" transform="translate(97.5,307.1334214002642)"><rect x="1" width="5.500000000000005" height="2.866578599735817"></rect></g><g class="bar" transform="translate(104,308.77146631439894)"><rect x="1" width="5.500000000000005" height="1.2285336856010645"></rect></g><g class="bar" transform="translate(110.50000000000001,306.3143989431968)"><rect x="1" width="5.500000000000005" height="3.6856010568031934"></rect></g><g class="bar" transform="translate(117,303.85733157199473)"><rect x="1" width="5.500000000000005" height="6.1426684280052655"></rect></g><g class="bar" transform="translate(123.50000000000001,301.4002642007926)"><rect x="1" width="5.500000000000005" height="8.599735799207394"></rect></g><g class="bar" transform="translate(130,297.3051519154557)"><rect x="1" width="5.500000000000005" height="12.694848084544276"></rect></g><g class="bar" transform="translate(136.5,290.75297225891677)"><rect x="1" width="5.500000000000005" height="19.24702774108323"></rect></g><g class="bar" transform="translate(143,271.50594451783354)"><rect x="1" width="5.500000000000005" height="38.49405548216646"></rect></g><g class="bar" transform="translate(149.50000000000003,253.48745046235138)"><rect x="1" width="5.500000000000005" height="56.512549537648624"></rect></g><g class="bar" transform="translate(156.00000000000003,206.39365918097755)"><rect x="1" width="5.500000000000005" height="103.60634081902245"></rect></g><g class="bar" transform="translate(162.5,166.26155878467634)"><rect x="1" width="5.500000000000005" height="143.73844121532366"></rect></g><g class="bar" transform="translate(169,105.65389696169089)"><rect x="1" width="5.500000000000005" height="204.3461030383091"></rect></g><g class="bar" transform="translate(175.5,67.97886393659181)"><rect x="1" width="5.500000000000005" height="242.0211360634082"></rect></g><g class="bar" transform="translate(182.00000000000003,4.0951122853368815)"><rect x="1" width="5.500000000000005" height="305.9048877146631"></rect></g><g class="bar" transform="translate(188.50000000000003,13.513870541611595)"><rect x="1" width="5.500000000000005" height="296.4861294583884"></rect></g><g class="bar" transform="translate(195,0)"><rect x="1" width="5.500000000000005" height="310"></rect></g><g class="bar" transform="translate(201.5,4.0951122853368815)"><rect x="1" width="5.500000000000005" height="305.9048877146631"></rect></g><g class="bar" transform="translate(208,26.61822985468956)"><rect x="1" width="5.500000000000005" height="283.38177014531044"></rect></g><g class="bar" transform="translate(214.50000000000003,80.26420079260237)"><rect x="1" width="5.500000000000005" height="229.73579920739763"></rect></g><g class="bar" transform="translate(221.00000000000003,119.16776750330251)"><rect x="1" width="5.500000000000005" height="190.8322324966975"></rect></g><g class="bar" transform="translate(227.5,165.442536327609)"><rect x="1" width="5.500000000000005" height="144.557463672391"></rect></g><g class="bar" transform="translate(234,186.73712021136066)"><rect x="1" width="5.500000000000005" height="123.26287978863934"></rect></g><g class="bar" transform="translate(240.5,199.43196829590488)"><rect x="1" width="5.500000000000005" height="110.56803170409512"></rect></g><g class="bar" transform="translate(247.00000000000003,207.2126816380449)"><rect x="1" width="5.500000000000005" height="102.7873183619551"></rect></g><g class="bar" transform="translate(253.50000000000003,232.60237780713342)"><rect x="1" width="5.500000000000005" height="77.39762219286658"></rect></g><g class="bar" transform="translate(260,243.65918097754292)"><rect x="1" width="5.500000000000005" height="66.34081902245708"></rect></g><g class="bar" transform="translate(266.50000000000006,235.05944517833552)"><rect x="1" width="5.500000000000005" height="74.94055482166448"></rect></g><g class="bar" transform="translate(273,249.39233817701452)"><rect x="1" width="5.500000000000005" height="60.60766182298548"></rect></g><g class="bar" transform="translate(279.5,245.70673712021136)"><rect x="1" width="5.500000000000005" height="64.29326287978864"></rect></g><g class="bar" transform="translate(286,257.99207397622195)"><rect x="1" width="5.500000000000005" height="52.007926023778055"></rect></g><g class="bar" transform="translate(292.5,261.6776750330251)"><rect x="1" width="5.500000000000005" height="48.32232496697492"></rect></g><g class="bar" transform="translate(299.00000000000006,263.7252311756935)"><rect x="1" width="5.500000000000005" height="46.27476882430648"></rect></g><g class="bar" transform="translate(305.5,263.31571994715983)"><rect x="1" width="5.500000000000005" height="46.684280052840165"></rect></g><g class="bar" transform="translate(312.00000000000006,278.05812417437255)"><rect x="1" width="5.500000000000005" height="31.94187582562745"></rect></g><g class="bar" transform="translate(318.5,277.64861294583886)"><rect x="1" width="5.500000000000005" height="32.35138705416114"></rect></g><g class="bar" transform="translate(325,286.24834874504626)"><rect x="1" width="5.500000000000005" height="23.751651254953742"></rect></g><g class="bar" transform="translate(331.50000000000006,290.75297225891677)"><rect x="1" width="5.500000000000005" height="19.24702774108323"></rect></g><g class="bar" transform="translate(338,294.84808454425365)"><rect x="1" width="5.500000000000005" height="15.151915455746348"></rect></g><g class="bar" transform="translate(344.50000000000006,296.4861294583884)"><rect x="1" width="5.500000000000005" height="13.513870541611595"></rect></g><g class="bar" transform="translate(351,305.49537648612943)"><rect x="1" width="5.500000000000005" height="4.50462351387057"></rect></g><g class="bar" transform="translate(357.5,304.2668428005284)"><rect x="1" width="5.500000000000005" height="5.733157199471577"></rect></g><g class="bar" transform="translate(364.00000000000006,307.1334214002642)"><rect x="1" width="5.500000000000005" height="2.866578599735817"></rect></g><g class="bar" transform="translate(370.5,309.1809775429326)"><rect x="1" width="5.500000000000005" height="0.8190224570673763"></rect></g><g class="bar" transform="translate(377.00000000000006,309.1809775429326)"><rect x="1" width="5.500000000000005" height="0.8190224570673763"></rect></g><g class="bar" transform="translate(383.5,309.5904887714663)"><rect x="1" width="5.500000000000005" height="0.40951122853368815"></rect></g><g class="bar" transform="translate(390,309.5904887714663)"><rect x="1" width="5.500000000000005" height="0.40951122853368815"></rect></g><g class="bar" transform="translate(396.50000000000006,310)"><rect x="1" width="5.500000000000005" height="0"></rect></g><g class="bar" transform="translate(403,310)"><rect x="1" width="5.500000000000005" height="0"></rect></g><g class="bar" transform="translate(409.50000000000006,310)"><rect x="1" width="5.500000000000005" height="0"></rect></g><g class="bar" transform="translate(416,310)"><rect x="1" width="5.500000000000005" height="0"></rect></g><g class="bar" transform="translate(422.5,310)"><rect x="1" width="5.500000000000005" height="0"></rect></g><g class="bar" transform="translate(429.00000000000006,310)"><rect x="1" width="5.500000000000005" height="0"></rect></g><g class="bar" transform="translate(435.5,310)"><rect x="1" width="5.500000000000005" height="0"></rect></g><g class="bar" transform="translate(442.00000000000006,310)"><rect x="1" width="5.500000000000005" height="0"></rect></g><g class="bar" transform="translate(448.5,310)"><rect x="1" width="5.500000000000005" height="0"></rect></g><g class="bar" transform="translate(455,310)"><rect x="1" width="5.500000000000005" height="0"></rect></g><g class="bar" transform="translate(461.50000000000006,310)"><rect x="1" width="5.500000000000005" height="0"></rect></g><g class="bar" transform="translate(468,310)"><rect x="1" width="5.500000000000005" height="0"></rect></g><g class="bar" transform="translate(474.50000000000006,310)"><rect x="1" width="5.500000000000005" height="0"></rect></g><g class="bar" transform="translate(481,310)"><rect x="1" width="5.500000000000005" height="0"></rect></g><g class="bar" transform="translate(487.5,310)"><rect x="1" width="5.500000000000005" height="0"></rect></g><g class="bar" transform="translate(494.00000000000006,310)"><rect x="1" width="5.500000000000005" height="0"></rect></g><g class="bar" transform="translate(500.5,310)"><rect x="1" width="5.500000000000005" height="0"></rect></g><g class="bar" transform="translate(507.00000000000006,310)"><rect x="1" width="5.500000000000005" height="0"></rect></g><g class="bar" transform="translate(513.5,310)"><rect x="1" width="5.500000000000005" height="0"></rect></g><g class="axis axis--x" transform="translate(0,310)" fill="none" font-size="10" font-family="sans-serif" text-anchor="middle"><path class="domain" stroke="#000" d="M0.5,6V0.5H520.5V6"></path><g class="tick" opacity="1" transform="translate(0.5,0)"><line stroke="#000" y2="6"></line><text fill="#000" y="9" dy="0.71em">0.01</text></g><g class="tick" opacity="1" transform="translate(130.5,0)"><line stroke="#000" y2="6"></line><text fill="#000" y="9" dy="0.71em">1</text></g><g class="tick" opacity="1" transform="translate(260.5,0)"><line stroke="#000" y2="6"></line><text fill="#000" y="9" dy="0.71em">100</text></g><g class="tick" opacity="1" transform="translate(390.5,0)"><line stroke="#000" y2="6"></line><text fill="#000" y="9" dy="0.71em">10000</text></g><g class="tick" opacity="1" transform="translate(520.5,0)"><line stroke="#000" y2="6"></line><text fill="#000" y="9" dy="0.71em"></text></g></g><g class="axis axis--y" fill="none" font-size="10" font-family="sans-serif" text-anchor="end"><path class="domain" stroke="#000" d="M-6,310.5H0.5V0.5H-6"></path><g class="tick" opacity="1" transform="translate(0,310.5)"><line stroke="#000" x2="-6"></line><text fill="#000" x="-9" dy="0.32em">0</text></g><g class="tick" opacity="1" transform="translate(0,269.5488771466314)"><line stroke="#000" x2="-6"></line><text fill="#000" x="-9" dy="0.32em">100</text></g><g class="tick" opacity="1" transform="translate(0,228.59775429326288)"><line stroke="#000" x2="-6"></line><text fill="#000" x="-9" dy="0.32em">200</text></g><g class="tick" opacity="1" transform="translate(0,187.64663143989432)"><line stroke="#000" x2="-6"></line><text fill="#000" x="-9" dy="0.32em">300</text></g><g class="tick" opacity="1" transform="translate(0,146.69550858652573)"><line stroke="#000" x2="-6"></line><text fill="#000" x="-9" dy="0.32em">400</text></g><g class="tick" opacity="1" transform="translate(0,105.7443857331572)"><line stroke="#000" x2="-6"></line><text fill="#000" x="-9" dy="0.32em">500</text></g><g class="tick" opacity="1" transform="translate(0,64.79326287978864)"><line stroke="#000" x2="-6"></line><text fill="#000" x="-9" dy="0.32em">600</text></g><g class="tick" opacity="1" transform="translate(0,23.842140026420054)"><line stroke="#000" x2="-6"></line><text fill="#000" x="-9" dy="0.32em">700</text></g></g></g></svg>