<svg xmlns="http://www.w3.org/2000/svg" width="280" height="160"><defs><style type="text/css"><![CDATA[ 
.bar rect {
  fill-opacity: 0;
  stroke:       black;
  stroke-width: 0.5;
}

.highlight rect {
  fill:       red;
  fill-opacity: 1;
}
.axis path,
.axis line {
  fill: none;
  stroke: #000;
  shape-rendering: crispEdges;
}
path {
    stroke: red;
    fill: none;
}

line {
    stroke: red;
}

path.marker {
    fill: red;
}
 ]]></style></defs><g transform="translate(50,10)"><g class="bar" transform="translate(0,120)"><rect x="1" width="11.5" height="0"></rect></g><g class="bar" transform="translate(12.5,119.7851387645479)"><rect x="1" width="11.5" height="0.2148612354521049"></rect></g><g class="bar" transform="translate(25,118.49597135183528)"><rect x="1" width="11.5" height="1.50402864816472"></rect></g><g class="bar" transform="translate(37.5,112.90957923008057)"><rect x="1" width="11.5" height="7.090420769919433"></rect></g><g class="bar" transform="translate(50,90.13428827215756)"><rect x="1" width="11.5" height="29.865711727842438"></rect></g><g class="bar" transform="translate(62.5,51.02954341987467)"><rect x="1" width="11.5" height="68.97045658012533"></rect></g><g class="bar" transform="translate(75,17.081468218442268)"><rect x="1" width="11.5" height="102.91853178155773"></rect></g><g class="bar" transform="translate(87.5,0)"><rect x="1" width="11.5" height="120"></rect></g><g class="bar" transform="translate(100,19.33751119068934)"><rect x="1" width="11.5" height="100.66248880931066"></rect></g><g class="bar" transform="translate(112.5,68.75559534467322)"><rect x="1" width="11.5" height="51.244404655326775"></rect></g><g class="bar" transform="translate(125,107.10832587287376)"><rect x="1" width="11.5" height="12.891674127126237"></rect></g><g class="bar" transform="translate(137.5,117.42166517457476)"><rect x="1" width="11.5" height="2.5783348254252445"></rect></g><g class="bar" transform="translate(150,119.35541629364369)"><rect x="1" width="11.5" height="0.6445837063563147"></rect></g><g class="bar" transform="translate(162.5,119.89256938227395)"><rect x="1" width="11.5" height="0.10743061772605245"></rect></g><g class="bar" transform="translate(175,120)"><rect x="1" width="11.5" height="0"></rect></g><g class="bar" transform="translate(187.5,120)"><rect x="1" width="11.5" height="0"></rect></g></g></svg>