<svg xmlns="http://www.w3.org/2000/svg" width="600" height="350"><defs><style type="text/css"><![CDATA[ 
.bar rect {
  fill-opacity: 0;
  stroke:       black;
  stroke-width: 0.5;
}

.highlight rect {
  fill:       red;
  fill-opacity: 1;
}
.axis path,
.axis line {
  fill: none;
  stroke: #000;
  shape-rendering: crispEdges;
}
 ]]></style></defs><g transform="translate(50,10)"><g class="bar" transform="translate(0,310)"><rect x="1" width="11.999999999999996" height="0"></rect></g><g class="bar" transform="translate(12.999999999999996,308.8475836431227)"><rect x="1" width="11.999999999999996" height="1.1524163568773247"></rect></g><g class="bar" transform="translate(25.999999999999993,310)"><rect x="1" width="11.999999999999996" height="0"></rect></g><g class="bar" transform="translate(39.00000000000001,305.3903345724907)"><rect x="1" width="11.999999999999996" height="4.609665427509299"></rect></g><g class="bar" transform="translate(52,301.9330855018587)"><rect x="1" width="11.999999999999996" height="8.066914498141273"></rect></g><g class="bar" transform="translate(65,296.1710037174721)"><rect x="1" width="11.999999999999996" height="13.828996282527896"></rect></g><g class="bar" transform="translate(78.00000000000001,274.275092936803)"><rect x="1" width="11.999999999999996" height="35.72490706319701"></rect></g><g class="bar" transform="translate(91.00000000000001,273.12267657992567)"><rect x="1" width="11.999999999999996" height="36.87732342007433"></rect></g><g class="bar" transform="translate(104,231.635687732342)"><rect x="1" width="11.999999999999996" height="78.364312267658"></rect></g><g class="bar" transform="translate(117,146.35687732342006)"><rect x="1" width="11.999999999999996" height="163.64312267657994"></rect></g><g class="bar" transform="translate(130,148.66171003717471)"><rect x="1" width="11.999999999999996" height="161.33828996282529"></rect></g><g class="bar" transform="translate(143,84.12639405204462)"><rect x="1" width="11.999999999999996" height="225.87360594795538"></rect></g><g class="bar" transform="translate(156.00000000000003,74.90706319702602)"><rect x="1" width="11.999999999999996" height="235.09293680297398"></rect></g><g class="bar" transform="translate(169,70.29739776951672)"><rect x="1" width="11.999999999999996" height="239.70260223048328"></rect></g><g class="bar" transform="translate(182.00000000000003,23.048327137546494)"><rect x="1" width="11.999999999999996" height="286.9516728624535"></rect></g><g class="bar" transform="translate(195,25.353159851301143)"><rect x="1" width="11.999999999999996" height="284.64684014869886"></rect></g><g class="bar" transform="translate(208,53.01115241635688)"><rect x="1" width="11.999999999999996" height="256.9888475836431"></rect></g><g class="bar" transform="translate(221.00000000000003,69.14498141263942)"><rect x="1" width="11.999999999999996" height="240.85501858736058"></rect></g><g class="bar" transform="translate(234,0)"><rect x="1" width="11.999999999999996" height="310"></rect></g><g class="bar" transform="translate(247.00000000000003,72.60223048327137)"><rect x="1" width="11.999999999999996" height="237.39776951672863"></rect></g><g class="bar" transform="translate(260,118.69888475836433)"><rect x="1" width="11.999999999999996" height="191.30111524163567"></rect></g><g class="bar" transform="translate(273,165.94795539033458)"><rect x="1" width="11.999999999999996" height="144.05204460966542"></rect></g><g class="bar" transform="translate(286,215.5018587360595)"><rect x="1" width="11.999999999999996" height="94.49814126394051"></rect></g><g class="bar" transform="translate(299.00000000000006,200.52044609665427)"><rect x="1" width="11.999999999999996" height="109.47955390334573"></rect></g><g class="bar" transform="translate(312.00000000000006,218.95910780669146)"><rect x="1" width="11.999999999999996" height="91.04089219330854"></rect></g><g class="bar" transform="translate(325,244.31226765799255)"><rect x="1" width="11.999999999999996" height="65.68773234200745"></rect></g><g class="bar" transform="translate(338,263.90334572490707)"><rect x="1" width="11.999999999999996" height="46.09665427509293"></rect></g><g class="bar" transform="translate(351,283.49442379182153)"><rect x="1" width="11.999999999999996" height="26.505576208178468"></rect></g><g class="bar" transform="translate(364.00000000000006,286.9516728624535)"><rect x="1" width="11.999999999999996" height="23.048327137546494"></rect></g><g class="bar" transform="translate(377.00000000000006,297.32342007434943)"><rect x="1" width="11.999999999999996" height="12.676579925650572"></rect></g><g class="bar" transform="translate(390,306.542750929368)"><rect x="1" width="11.999999999999996" height="3.457249070631974"></rect></g><g class="bar" transform="translate(403,306.542750929368)"><rect x="1" width="11.999999999999996" height="3.457249070631974"></rect></g><g class="bar" transform="translate(416,310)"><rect x="1" width="11.999999999999996" height="0"></rect></g><g class="bar" transform="translate(429.00000000000006,310)"><rect x="1" width="11.999999999999996" height="0"></rect></g><g class="bar" transform="translate(442.00000000000006,306.542750929368)"><rect x="1" width="11.999999999999996" height="3.457249070631974"></rect></g><g class="bar" transform="translate(455,310)"><rect x="1" width="11.999999999999996" height="0"></rect></g><g class="bar" transform="translate(468,310)"><rect x="1" width="11.999999999999996" height="0"></rect></g><g class="bar" transform="translate(481,310)"><rect x="1" width="11.999999999999996" height="0"></rect></g><g class="bar" transform="translate(494.00000000000006,310)"><rect x="1" width="11.999999999999996" height="0"></rect></g><g class="bar" transform="translate(507.00000000000006,310)"><rect x="1" width="11.999999999999996" height="0"></rect></g><g class="axis axis--x" transform="translate(0,310)" fill="none" font-size="10" font-family="sans-serif" text-anchor="middle"><path class="domain" stroke="#000" d="M0.5,6V0.5H520.5V6"></path><g class="tick" opacity="1" transform="translate(0,0)"><line stroke="#000" y2="6" x1="0.5" x2="0.5"></line><text fill="#000" y="9" x="0.5" dy="0.71em">0.01</text></g><g class="tick" opacity="1" transform="translate(130,0)"><line stroke="#000" y2="6" x1="0.5" x2="0.5"></line><text fill="#000" y="9" x="0.5" dy="0.71em">1</text></g><g class="tick" opacity="1" transform="translate(260,0)"><line stroke="#000" y2="6" x1="0.5" x2="0.5"></line><text fill="#000" y="9" x="0.5" dy="0.71em">100</text></g><g class="tick" opacity="1" transform="translate(390,0)"><line stroke="#000" y2="6" x1="0.5" x2="0.5"></line><text fill="#000" y="9" x="0.5" dy="0.71em">10000</text></g><g class="tick" opacity="1" transform="translate(520,0)"><line stroke="#000" y2="6" x1="0.5" x2="0.5"></line><text fill="#000" y="9" x="0.5" dy="0.71em"></text></g></g><g class="axis axis--y" fill="none" font-size="10" font-family="sans-serif" text-anchor="end"><path class="domain" stroke="#000" d="M-6,310.5H0.5V0.5H-6"></path><g class="tick" opacity="1" transform="translate(0,310)"><line stroke="#000" x2="-6" y1="0.5" y2="0.5"></line><text fill="#000" x="-9" y="0.5" dy="0.32em">0</text></g><g class="tick" opacity="1" transform="translate(0,286.9516728624535)"><line stroke="#000" x2="-6" y1="0.5" y2="0.5"></line><text fill="#000" x="-9" y="0.5" dy="0.32em">20</text></g><g class="tick" opacity="1" transform="translate(0,263.90334572490707)"><line stroke="#000" x2="-6" y1="0.5" y2="0.5"></line><text fill="#000" x="-9" y="0.5" dy="0.32em">40</text></g><g class="tick" opacity="1" transform="translate(0,240.85501858736058)"><line stroke="#000" x2="-6" y1="0.5" y2="0.5"></line><text fill="#000" x="-9" y="0.5" dy="0.32em">60</text></g><g class="tick" opacity="1" transform="translate(0,217.80669144981414)"><line stroke="#000" x2="-6" y1="0.5" y2="0.5"></line><text fill="#000" x="-9" y="0.5" dy="0.32em">80</text></g><g class="tick" opacity="1" transform="translate(0,194.75836431226764)"><line stroke="#000" x2="-6" y1="0.5" y2="0.5"></line><text fill="#000" x="-9" y="0.5" dy="0.32em">100</text></g><g class="tick" opacity="1" transform="translate(0,171.71003717472118)"><line stroke="#000" x2="-6" y1="0.5" y2="0.5"></line><text fill="#000" x="-9" y="0.5" dy="0.32em">120</text></g><g class="tick" opacity="1" transform="translate(0,148.66171003717471)"><line stroke="#000" x2="-6" y1="0.5" y2="0.5"></line><text fill="#000" x="-9" y="0.5" dy="0.32em">140</text></g><g class="tick" opacity="1" transform="translate(0,125.61338289962825)"><line stroke="#000" x2="-6" y1="0.5" y2="0.5"></line><text fill="#000" x="-9" y="0.5" dy="0.32em">160</text></g><g class="tick" opacity="1" transform="translate(0,102.56505576208178)"><line stroke="#000" x2="-6" y1="0.5" y2="0.5"></line><text fill="#000" x="-9" y="0.5" dy="0.32em">180</text></g><g class="tick" opacity="1" transform="translate(0,79.51672862453532)"><line stroke="#000" x2="-6" y1="0.5" y2="0.5"></line><text fill="#000" x="-9" y="0.5" dy="0.32em">200</text></g><g class="tick" opacity="1" transform="translate(0,56.46840148698885)"><line stroke="#000" x2="-6" y1="0.5" y2="0.5"></line><text fill="#000" x="-9" y="0.5" dy="0.32em">220</text></g><g class="tick" opacity="1" transform="translate(0,33.42007434944236)"><line stroke="#000" x2="-6" y1="0.5" y2="0.5"></line><text fill="#000" x="-9" y="0.5" dy="0.32em">240</text></g><g class="tick" opacity="1" transform="translate(0,10.371747211895922)"><line stroke="#000" x2="-6" y1="0.5" y2="0.5"></line><text fill="#000" x="-9" y="0.5" dy="0.32em">260</text></g></g></g></svg>