<svg xmlns="http://www.w3.org/2000/svg" width="280" height="160"><defs><style type="text/css"><![CDATA[ 
.bar rect {
  fill-opacity: 0;
  stroke:       black;
  stroke-width: 0.5;
}

.highlight rect {
  fill:       red;
  fill-opacity: 1;
}
.axis path,
.axis line {
  fill: none;
  stroke: #000;
  shape-rendering: crispEdges;
}
 ]]></style></defs><g transform="translate(50,10)"><g class="bar" transform="translate(0,120)"><rect x="1" width="11.5" height="0"></rect></g><g class="bar" transform="translate(12.5,120)"><rect x="1" width="11.5" height="0"></rect></g><g class="bar" transform="translate(25,120)"><rect x="1" width="11.5" height="0"></rect></g><g class="bar" transform="translate(37.5,120)"><rect x="1" width="11.5" height="0"></rect></g><g class="bar" transform="translate(50,118.21052631578948)"><rect x="1" width="11.5" height="1.7894736842105203"></rect></g><g class="bar" transform="translate(62.5,93.26315789473685)"><rect x="1" width="11.5" height="26.73684210526315"></rect></g><g class="bar" transform="translate(75,9.89473684210526)"><rect x="1" width="11.5" height="110.10526315789474"></rect></g><g class="bar" transform="translate(87.5,0)"><rect x="1" width="11.5" height="120"></rect></g><g class="bar" transform="translate(100,25.78947368421052)"><rect x="1" width="11.5" height="94.21052631578948"></rect></g><g class="bar" transform="translate(112.5,68.52631578947368)"><rect x="1" width="11.5" height="51.473684210526315"></rect></g><g class="bar" transform="translate(125,104.31578947368422)"><rect x="1" width="11.5" height="15.68421052631578"></rect></g><g class="bar" transform="translate(137.5,115.89473684210526)"><rect x="1" width="11.5" height="4.10526315789474"></rect></g><g class="bar" transform="translate(150,119.6842105263158)"><rect x="1" width="11.5" height="0.3157894736842053"></rect></g><g class="bar" transform="translate(162.5,120)"><rect x="1" width="11.5" height="0"></rect></g><g class="bar" transform="translate(175,120)"><rect x="1" width="11.5" height="0"></rect></g><g class="bar" transform="translate(187.5,120)"><rect x="1" width="11.5" height="0"></rect></g></g></svg>