<svg xmlns="http://www.w3.org/2000/svg" width="600" height="350"><defs><style type="text/css"><![CDATA[ 
.bar rect {
  fill-opacity: 0;
  stroke:       black;
  stroke-width: 0.5;
}

.highlight rect {
  fill:       red;
  fill-opacity: 1;
}
.axis path,
.axis line {
  fill: none;
  stroke: #000;
  shape-rendering: crispEdges;
}
 ]]></style></defs><g transform="translate(50,10)"><g class="bar" transform="translate(0,310)"><rect x="1" width="11.999999999999996" height="0"></rect></g><g class="bar" transform="translate(12.999999999999996,310)"><rect x="1" width="11.999999999999996" height="0"></rect></g><g class="bar" transform="translate(25.999999999999993,310)"><rect x="1" width="11.999999999999996" height="0"></rect></g><g class="bar" transform="translate(39.00000000000001,310)"><rect x="1" width="11.999999999999996" height="0"></rect></g><g class="bar" transform="translate(52,308.61915367483294)"><rect x="1" width="11.999999999999996" height="1.380846325167056"></rect></g><g class="bar" transform="translate(65,309.3095768374165)"><rect x="1" width="11.999999999999996" height="0.6904231625834996"></rect></g><g class="bar" transform="translate(78.00000000000001,310)"><rect x="1" width="11.999999999999996" height="0"></rect></g><g class="bar" transform="translate(91.00000000000001,304.47661469933183)"><rect x="1" width="11.999999999999996" height="5.523385300668167"></rect></g><g class="bar" transform="translate(104,287.9064587973274)"><rect x="1" width="11.999999999999996" height="22.09354120267261"></rect></g><g class="bar" transform="translate(117,251.3140311804009)"><rect x="1" width="11.999999999999996" height="58.68596881959911"></rect></g><g class="bar" transform="translate(130,218.17371937639197)"><rect x="1" width="11.999999999999996" height="91.82628062360803"></rect></g><g class="bar" transform="translate(143,198.84187082405344)"><rect x="1" width="11.999999999999996" height="111.15812917594656"></rect></g><g class="bar" transform="translate(156.00000000000003,175.3674832962138)"><rect x="1" width="11.999999999999996" height="134.6325167037862"></rect></g><g class="bar" transform="translate(169,176.74832962138083)"><rect x="1" width="11.999999999999996" height="133.25167037861917"></rect></g><g class="bar" transform="translate(182.00000000000003,153.9643652561247)"><rect x="1" width="11.999999999999996" height="156.0356347438753"></rect></g><g class="bar" transform="translate(195,110.46770601336303)"><rect x="1" width="11.999999999999996" height="199.53229398663697"></rect></g><g class="bar" transform="translate(208,74.56570155902003)"><rect x="1" width="11.999999999999996" height="235.43429844097997"></rect></g><g class="bar" transform="translate(221.00000000000003,70.42316258351892)"><rect x="1" width="11.999999999999996" height="239.57683741648108"></rect></g><g class="bar" transform="translate(234,15.879732739420945)"><rect x="1" width="11.999999999999996" height="294.12026726057906"></rect></g><g class="bar" transform="translate(247.00000000000003,0)"><rect x="1" width="11.999999999999996" height="310"></rect></g><g class="bar" transform="translate(260,30.378619153674833)"><rect x="1" width="11.999999999999996" height="279.62138084632517"></rect></g><g class="bar" transform="translate(273,47.639198218262834)"><rect x="1" width="11.999999999999996" height="262.36080178173717"></rect></g><g class="bar" transform="translate(286,118.06236080178175)"><rect x="1" width="11.999999999999996" height="191.93763919821825"></rect></g><g class="bar" transform="translate(299.00000000000006,137.39420935412028)"><rect x="1" width="11.999999999999996" height="172.60579064587972"></rect></g><g class="bar" transform="translate(312.00000000000006,164.3207126948775)"><rect x="1" width="11.999999999999996" height="145.6792873051225"></rect></g><g class="bar" transform="translate(325,221.62583518930958)"><rect x="1" width="11.999999999999996" height="88.37416481069042"></rect></g><g class="bar" transform="translate(338,257.52783964365256)"><rect x="1" width="11.999999999999996" height="52.472160356347445"></rect></g><g class="bar" transform="translate(351,296.1915367483296)"><rect x="1" width="11.999999999999996" height="13.80846325167039"></rect></g><g class="bar" transform="translate(364.00000000000006,305.1670378619154)"><rect x="1" width="11.999999999999996" height="4.832962138084611"></rect></g><g class="bar" transform="translate(377.00000000000006,309.3095768374165)"><rect x="1" width="11.999999999999996" height="0.6904231625834996"></rect></g><g class="bar" transform="translate(390,310)"><rect x="1" width="11.999999999999996" height="0"></rect></g><g class="bar" transform="translate(403,310)"><rect x="1" width="11.999999999999996" height="0"></rect></g><g class="bar" transform="translate(416,310)"><rect x="1" width="11.999999999999996" height="0"></rect></g><g class="bar" transform="translate(429.00000000000006,310)"><rect x="1" width="11.999999999999996" height="0"></rect></g><g class="bar" transform="translate(442.00000000000006,310)"><rect x="1" width="11.999999999999996" height="0"></rect></g><g class="bar" transform="translate(455,310)"><rect x="1" width="11.999999999999996" height="0"></rect></g><g class="bar" transform="translate(468,310)"><rect x="1" width="11.999999999999996" height="0"></rect></g><g class="bar" transform="translate(481,310)"><rect x="1" width="11.999999999999996" height="0"></rect></g><g class="bar" transform="translate(494.00000000000006,310)"><rect x="1" width="11.999999999999996" height="0"></rect></g><g class="bar" transform="translate(507.00000000000006,310)"><rect x="1" width="11.999999999999996" height="0"></rect></g><g class="axis axis--x" transform="translate(0,310)" fill="none" font-size="10" font-family="sans-serif" text-anchor="middle"><path class="domain" stroke="#000" d="M0.5,6V0.5H520.5V6"></path><g class="tick" opacity="1" transform="translate(0,0)"><line stroke="#000" y2="6" x1="0.5" x2="0.5"></line><text fill="#000" y="9" x="0.5" dy="0.71em">0.01</text></g><g class="tick" opacity="1" transform="translate(130,0)"><line stroke="#000" y2="6" x1="0.5" x2="0.5"></line><text fill="#000" y="9" x="0.5" dy="0.71em">1</text></g><g class="tick" opacity="1" transform="translate(260,0)"><line stroke="#000" y2="6" x1="0.5" x2="0.5"></line><text fill="#000" y="9" x="0.5" dy="0.71em">100</text></g><g class="tick" opacity="1" transform="translate(390,0)"><line stroke="#000" y2="6" x1="0.5" x2="0.5"></line><text fill="#000" y="9" x="0.5" dy="0.71em">10000</text></g><g class="tick" opacity="1" transform="translate(520,0)"><line stroke="#000" y2="6" x1="0.5" x2="0.5"></line><text fill="#000" y="9" x="0.5" dy="0.71em"></text></g></g><g class="axis axis--y" fill="none" font-size="10" font-family="sans-serif" text-anchor="end"><path class="domain" stroke="#000" d="M-6,310.5H0.5V0.5H-6"></path><g class="tick" opacity="1" transform="translate(0,310)"><line stroke="#000" x2="-6" y1="0.5" y2="0.5"></line><text fill="#000" x="-9" y="0.5" dy="0.32em">0</text></g><g class="tick" opacity="1" transform="translate(0,275.47884187082406)"><line stroke="#000" x2="-6" y1="0.5" y2="0.5"></line><text fill="#000" x="-9" y="0.5" dy="0.32em">50</text></g><g class="tick" opacity="1" transform="translate(0,240.9576837416481)"><line stroke="#000" x2="-6" y1="0.5" y2="0.5"></line><text fill="#000" x="-9" y="0.5" dy="0.32em">100</text></g><g class="tick" opacity="1" transform="translate(0,206.43652561247217)"><line stroke="#000" x2="-6" y1="0.5" y2="0.5"></line><text fill="#000" x="-9" y="0.5" dy="0.32em">150</text></g><g class="tick" opacity="1" transform="translate(0,171.9153674832962)"><line stroke="#000" x2="-6" y1="0.5" y2="0.5"></line><text fill="#000" x="-9" y="0.5" dy="0.32em">200</text></g><g class="tick" opacity="1" transform="translate(0,137.39420935412028)"><line stroke="#000" x2="-6" y1="0.5" y2="0.5"></line><text fill="#000" x="-9" y="0.5" dy="0.32em">250</text></g><g class="tick" opacity="1" transform="translate(0,102.8730512249443)"><line stroke="#000" x2="-6" y1="0.5" y2="0.5"></line><text fill="#000" x="-9" y="0.5" dy="0.32em">300</text></g><g class="tick" opacity="1" transform="translate(0,68.35189309576836)"><line stroke="#000" x2="-6" y1="0.5" y2="0.5"></line><text fill="#000" x="-9" y="0.5" dy="0.32em">350</text></g><g class="tick" opacity="1" transform="translate(0,33.83073496659239)"><line stroke="#000" x2="-6" y1="0.5" y2="0.5"></line><text fill="#000" x="-9" y="0.5" dy="0.32em">400</text></g></g></g></svg>