<svg xmlns="http://www.w3.org/2000/svg" width="600" height="350"><defs><style type="text/css"><![CDATA[ 
.bar rect {
  fill-opacity: 0;
  stroke:       black;
  stroke-width: 0.5;
}

.highlight rect {
  fill:       red;
  fill-opacity: 1;
}
.axis path,
.axis line {
  fill: none;
  stroke: #000;
  shape-rendering: crispEdges;
}
 ]]></style></defs><g transform="translate(50,10)"><g class="bar" transform="translate(0,310)"><rect x="1" width="11.999999999999996" height="0"></rect></g><g class="bar" transform="translate(12.999999999999996,310)"><rect x="1" width="11.999999999999996" height="0"></rect></g><g class="bar" transform="translate(25.999999999999993,310)"><rect x="1" width="11.999999999999996" height="0"></rect></g><g class="bar" transform="translate(39.00000000000001,310)"><rect x="1" width="11.999999999999996" height="0"></rect></g><g class="bar" transform="translate(52,310)"><rect x="1" width="11.999999999999996" height="0"></rect></g><g class="bar" transform="translate(65,310)"><rect x="1" width="11.999999999999996" height="0"></rect></g><g class="bar" transform="translate(78.00000000000001,310)"><rect x="1" width="11.999999999999996" height="0"></rect></g><g class="bar" transform="translate(91.00000000000001,310)"><rect x="1" width="11.999999999999996" height="0"></rect></g><g class="bar" transform="translate(104,310)"><rect x="1" width="11.999999999999996" height="0"></rect></g><g class="bar" transform="translate(117,310)"><rect x="1" width="11.999999999999996" height="0"></rect></g><g class="bar" transform="translate(130,310)"><rect x="1" width="11.999999999999996" height="0"></rect></g><g class="bar" transform="translate(143,310)"><rect x="1" width="11.999999999999996" height="0"></rect></g><g class="bar" transform="translate(156.00000000000003,298.0769230769231)"><rect x="1" width="11.999999999999996" height="11.923076923076906"></rect></g><g class="bar" transform="translate(169,307.0192307692308)"><rect x="1" width="11.999999999999996" height="2.9807692307692264"></rect></g><g class="bar" transform="translate(182.00000000000003,301.0576923076923)"><rect x="1" width="11.999999999999996" height="8.94230769230768"></rect></g><g class="bar" transform="translate(195,280.1923076923077)"><rect x="1" width="11.999999999999996" height="29.80769230769232"></rect></g><g class="bar" transform="translate(208,262.3076923076923)"><rect x="1" width="11.999999999999996" height="47.69230769230768"></rect></g><g class="bar" transform="translate(221.00000000000003,190.76923076923077)"><rect x="1" width="11.999999999999996" height="119.23076923076923"></rect></g><g class="bar" transform="translate(234,190.76923076923077)"><rect x="1" width="11.999999999999996" height="119.23076923076923"></rect></g><g class="bar" transform="translate(247.00000000000003,143.0769230769231)"><rect x="1" width="11.999999999999996" height="166.9230769230769"></rect></g><g class="bar" transform="translate(260,119.23076923076923)"><rect x="1" width="11.999999999999996" height="190.76923076923077"></rect></g><g class="bar" transform="translate(273,110.28846153846152)"><rect x="1" width="11.999999999999996" height="199.71153846153848"></rect></g><g class="bar" transform="translate(286,77.5)"><rect x="1" width="11.999999999999996" height="232.5"></rect></g><g class="bar" transform="translate(299.00000000000006,0)"><rect x="1" width="11.999999999999996" height="310"></rect></g><g class="bar" transform="translate(312.00000000000006,125.19230769230771)"><rect x="1" width="11.999999999999996" height="184.8076923076923"></rect></g><g class="bar" transform="translate(325,116.25)"><rect x="1" width="11.999999999999996" height="193.75"></rect></g><g class="bar" transform="translate(338,122.21153846153848)"><rect x="1" width="11.999999999999996" height="187.78846153846152"></rect></g><g class="bar" transform="translate(351,190.76923076923077)"><rect x="1" width="11.999999999999996" height="119.23076923076923"></rect></g><g class="bar" transform="translate(364.00000000000006,208.65384615384613)"><rect x="1" width="11.999999999999996" height="101.34615384615387"></rect></g><g class="bar" transform="translate(377.00000000000006,286.15384615384613)"><rect x="1" width="11.999999999999996" height="23.846153846153868"></rect></g><g class="bar" transform="translate(390,283.1730769230769)"><rect x="1" width="11.999999999999996" height="26.826923076923094"></rect></g><g class="bar" transform="translate(403,295.09615384615387)"><rect x="1" width="11.999999999999996" height="14.903846153846132"></rect></g><g class="bar" transform="translate(416,310)"><rect x="1" width="11.999999999999996" height="0"></rect></g><g class="bar" transform="translate(429.00000000000006,307.0192307692308)"><rect x="1" width="11.999999999999996" height="2.9807692307692264"></rect></g><g class="bar" transform="translate(442.00000000000006,310)"><rect x="1" width="11.999999999999996" height="0"></rect></g><g class="bar" transform="translate(455,310)"><rect x="1" width="11.999999999999996" height="0"></rect></g><g class="bar" transform="translate(468,310)"><rect x="1" width="11.999999999999996" height="0"></rect></g><g class="bar" transform="translate(481,310)"><rect x="1" width="11.999999999999996" height="0"></rect></g><g class="bar" transform="translate(494.00000000000006,310)"><rect x="1" width="11.999999999999996" height="0"></rect></g><g class="bar" transform="translate(507.00000000000006,310)"><rect x="1" width="11.999999999999996" height="0"></rect></g><g class="axis axis--x" transform="translate(0,310)" fill="none" font-size="10" font-family="sans-serif" text-anchor="middle"><path class="domain" stroke="#000" d="M0.5,6V0.5H520.5V6"></path><g class="tick" opacity="1" transform="translate(0,0)"><line stroke="#000" y2="6" x1="0.5" x2="0.5"></line><text fill="#000" y="9" x="0.5" dy="0.71em">0.01</text></g><g class="tick" opacity="1" transform="translate(130,0)"><line stroke="#000" y2="6" x1="0.5" x2="0.5"></line><text fill="#000" y="9" x="0.5" dy="0.71em">1</text></g><g class="tick" opacity="1" transform="translate(260,0)"><line stroke="#000" y2="6" x1="0.5" x2="0.5"></line><text fill="#000" y="9" x="0.5" dy="0.71em">100</text></g><g class="tick" opacity="1" transform="translate(390,0)"><line stroke="#000" y2="6" x1="0.5" x2="0.5"></line><text fill="#000" y="9" x="0.5" dy="0.71em">10000</text></g><g class="tick" opacity="1" transform="translate(520,0)"><line stroke="#000" y2="6" x1="0.5" x2="0.5"></line><text fill="#000" y="9" x="0.5" dy="0.71em"></text></g></g><g class="axis axis--y" fill="none" font-size="10" font-family="sans-serif" text-anchor="end"><path class="domain" stroke="#000" d="M-6,310.5H0.5V0.5H-6"></path><g class="tick" opacity="1" transform="translate(0,310)"><line stroke="#000" x2="-6" y1="0.5" y2="0.5"></line><text fill="#000" x="-9" y="0.5" dy="0.32em">0</text></g><g class="tick" opacity="1" transform="translate(0,280.1923076923077)"><line stroke="#000" x2="-6" y1="0.5" y2="0.5"></line><text fill="#000" x="-9" y="0.5" dy="0.32em">10</text></g><g class="tick" opacity="1" transform="translate(0,250.3846153846154)"><line stroke="#000" x2="-6" y1="0.5" y2="0.5"></line><text fill="#000" x="-9" y="0.5" dy="0.32em">20</text></g><g class="tick" opacity="1" transform="translate(0,220.5769230769231)"><line stroke="#000" x2="-6" y1="0.5" y2="0.5"></line><text fill="#000" x="-9" y="0.5" dy="0.32em">30</text></g><g class="tick" opacity="1" transform="translate(0,190.76923076923077)"><line stroke="#000" x2="-6" y1="0.5" y2="0.5"></line><text fill="#000" x="-9" y="0.5" dy="0.32em">40</text></g><g class="tick" opacity="1" transform="translate(0,160.96153846153845)"><line stroke="#000" x2="-6" y1="0.5" y2="0.5"></line><text fill="#000" x="-9" y="0.5" dy="0.32em">50</text></g><g class="tick" opacity="1" transform="translate(0,131.15384615384616)"><line stroke="#000" x2="-6" y1="0.5" y2="0.5"></line><text fill="#000" x="-9" y="0.5" dy="0.32em">60</text></g><g class="tick" opacity="1" transform="translate(0,101.34615384615384)"><line stroke="#000" x2="-6" y1="0.5" y2="0.5"></line><text fill="#000" x="-9" y="0.5" dy="0.32em">70</text></g><g class="tick" opacity="1" transform="translate(0,71.53846153846152)"><line stroke="#000" x2="-6" y1="0.5" y2="0.5"></line><text fill="#000" x="-9" y="0.5" dy="0.32em">80</text></g><g class="tick" opacity="1" transform="translate(0,41.730769230769226)"><line stroke="#000" x2="-6" y1="0.5" y2="0.5"></line><text fill="#000" x="-9" y="0.5" dy="0.32em">90</text></g><g class="tick" opacity="1" transform="translate(0,11.923076923076906)"><line stroke="#000" x2="-6" y1="0.5" y2="0.5"></line><text fill="#000" x="-9" y="0.5" dy="0.32em">100</text></g></g></g></svg>