<svg xmlns="http://www.w3.org/2000/svg" width="280" height="160"><defs><style type="text/css"><![CDATA[ 
.bar rect {
  fill-opacity: 0;
  stroke:       black;
  stroke-width: 0.5;
}

.highlight rect {
  fill:       red;
  fill-opacity: 1;
}
.axis path,
.axis line {
  fill: none;
  stroke: #000;
  shape-rendering: crispEdges;
}
 ]]></style></defs><g transform="translate(50,10)"><g class="bar" transform="translate(0,120)"><rect x="1" width="11.5" height="0"></rect></g><g class="bar" transform="translate(12.5,120)"><rect x="1" width="11.5" height="0"></rect></g><g class="bar" transform="translate(25,120)"><rect x="1" width="11.5" height="0"></rect></g><g class="bar" transform="translate(37.5,119.39899833055092)"><rect x="1" width="11.5" height="0.6010016694490758"></rect></g><g class="bar" transform="translate(50,114.59098497495826)"><rect x="1" width="11.5" height="5.4090150250417395"></rect></g><g class="bar" transform="translate(62.5,84.9415692821369)"><rect x="1" width="11.5" height="35.058430717863104"></rect></g><g class="bar" transform="translate(75,47.2787979966611)"><rect x="1" width="11.5" height="72.7212020033389"></rect></g><g class="bar" transform="translate(87.5,18.8313856427379)"><rect x="1" width="11.5" height="101.1686143572621"></rect></g><g class="bar" transform="translate(100,0)"><rect x="1" width="11.5" height="120"></rect></g><g class="bar" transform="translate(112.5,19.232053422370626)"><rect x="1" width="11.5" height="100.76794657762937"></rect></g><g class="bar" transform="translate(125,76.32721202003339)"><rect x="1" width="11.5" height="43.672787979966614"></rect></g><g class="bar" transform="translate(137.5,113.58931552587646)"><rect x="1" width="11.5" height="6.410684474123542"></rect></g><g class="bar" transform="translate(150,119.59933222036727)"><rect x="1" width="11.5" height="0.4006677796327267"></rect></g><g class="bar" transform="translate(162.5,120)"><rect x="1" width="11.5" height="0"></rect></g><g class="bar" transform="translate(175,120)"><rect x="1" width="11.5" height="0"></rect></g><g class="bar" transform="translate(187.5,120)"><rect x="1" width="11.5" height="0"></rect></g></g></svg>