<svg xmlns="http://www.w3.org/2000/svg" width="600" height="350"><defs><style type="text/css"><![CDATA[ 
.bar rect {
  fill-opacity: 0;
  stroke:       black;
  stroke-width: 0.5;
}

.highlight rect {
  fill:       red;
  fill-opacity: 1;
}
.axis path,
.axis line {
  fill: none;
  stroke: #000;
  shape-rendering: crispEdges;
}
path {
    stroke: red;
    fill: none;
}

line {
    stroke: red;
}

path.marker {
    fill: red;
}
 ]]></style></defs><g transform="translate(50,10)"><g class="bar" transform="translate(0,310)"><rect x="1" width="11.999999999999996" height="0"></rect></g><g class="bar" transform="translate(12.999999999999996,310)"><rect x="1" width="11.999999999999996" height="0"></rect></g><g class="bar" transform="translate(25.999999999999993,310)"><rect x="1" width="11.999999999999996" height="0"></rect></g><g class="bar" transform="translate(39.00000000000001,309.4627383015598)"><rect x="1" width="11.999999999999996" height="0.5372616984402043"></rect></g><g class="bar" transform="translate(52,304.0901213171577)"><rect x="1" width="11.999999999999996" height="5.909878682842304"></rect></g><g class="bar" transform="translate(65,293.34488734835355)"><rect x="1" width="11.999999999999996" height="16.655112651646448"></rect></g><g class="bar" transform="translate(78.00000000000001,258.42287694974004)"><rect x="1" width="11.999999999999996" height="51.57712305025996"></rect></g><g class="bar" transform="translate(91.00000000000001,172.99826689774696)"><rect x="1" width="11.999999999999996" height="137.00173310225304"></rect></g><g class="bar" transform="translate(104,85.96187175043326)"><rect x="1" width="11.999999999999996" height="224.03812824956674"></rect></g><g class="bar" transform="translate(117,30.623916811091874)"><rect x="1" width="11.999999999999996" height="279.3760831889081"></rect></g><g class="bar" transform="translate(130,0)"><rect x="1" width="11.999999999999996" height="310"></rect></g><g class="bar" transform="translate(143,23.63951473136916)"><rect x="1" width="11.999999999999996" height="286.36048526863084"></rect></g><g class="bar" transform="translate(156.00000000000003,31.16117850953208)"><rect x="1" width="11.999999999999996" height="278.8388214904679"></rect></g><g class="bar" transform="translate(169,54.80069324090121)"><rect x="1" width="11.999999999999996" height="255.1993067590988"></rect></g><g class="bar" transform="translate(182.00000000000003,41.36915077989602)"><rect x="1" width="11.999999999999996" height="268.630849220104"></rect></g><g class="bar" transform="translate(195,77.36568457538996)"><rect x="1" width="11.999999999999996" height="232.63431542461004"></rect></g><g class="bar" transform="translate(208,109.60138648180242)"><rect x="1" width="11.999999999999996" height="200.39861351819758"></rect></g><g class="bar" transform="translate(221.00000000000003,111.21317157712303)"><rect x="1" width="11.999999999999996" height="198.78682842287697"></rect></g><g class="bar" transform="translate(234,167.6256499133449)"><rect x="1" width="11.999999999999996" height="142.3743500866551"></rect></g><g class="bar" transform="translate(247.00000000000003,183.20623916811093)"><rect x="1" width="11.999999999999996" height="126.79376083188907"></rect></g><g class="bar" transform="translate(260,182.13171577123052)"><rect x="1" width="11.999999999999996" height="127.86828422876948"></rect></g><g class="bar" transform="translate(273,213.29289428076257)"><rect x="1" width="11.999999999999996" height="96.70710571923743"></rect></g><g class="bar" transform="translate(286,251.97573656845753)"><rect x="1" width="11.999999999999996" height="58.024263431542465"></rect></g><g class="bar" transform="translate(299.00000000000006,226.72443674176776)"><rect x="1" width="11.999999999999996" height="83.27556325823224"></rect></g><g class="bar" transform="translate(312.00000000000006,248.7521663778163)"><rect x="1" width="11.999999999999996" height="61.24783362218369"></rect></g><g class="bar" transform="translate(325,274.5407279029463)"><rect x="1" width="11.999999999999996" height="35.45927209705371"></rect></g><g class="bar" transform="translate(338,271.8544194107452)"><rect x="1" width="11.999999999999996" height="38.14558058925479"></rect></g><g class="bar" transform="translate(351,292.27036395147314)"><rect x="1" width="11.999999999999996" height="17.729636048526856"></rect></g><g class="bar" transform="translate(364.00000000000006,297.64298093587524)"><rect x="1" width="11.999999999999996" height="12.357019064124756"></rect></g><g class="bar" transform="translate(377.00000000000006,303.5528596187175)"><rect x="1" width="11.999999999999996" height="6.447140381282509"></rect></g><g class="bar" transform="translate(390,307.8509532062392)"><rect x="1" width="11.999999999999996" height="2.1490467937608173"></rect></g><g class="bar" transform="translate(403,308.3882149046794)"><rect x="1" width="11.999999999999996" height="1.611785095320613"></rect></g><g class="bar" transform="translate(416,310)"><rect x="1" width="11.999999999999996" height="0"></rect></g><g class="bar" transform="translate(429.00000000000006,309.4627383015598)"><rect x="1" width="11.999999999999996" height="0.5372616984402043"></rect></g><g class="bar" transform="translate(442.00000000000006,310)"><rect x="1" width="11.999999999999996" height="0"></rect></g><g class="bar" transform="translate(455,310)"><rect x="1" width="11.999999999999996" height="0"></rect></g><g class="bar" transform="translate(468,310)"><rect x="1" width="11.999999999999996" height="0"></rect></g><g class="bar" transform="translate(481,310)"><rect x="1" width="11.999999999999996" height="0"></rect></g><g class="bar" transform="translate(494.00000000000006,310)"><rect x="1" width="11.999999999999996" height="0"></rect></g><g class="bar" transform="translate(507.00000000000006,310)"><rect x="1" width="11.999999999999996" height="0"></rect></g><g class="axis axis--x" transform="translate(0,310)" fill="none" font-size="10" font-family="sans-serif" text-anchor="middle"><path class="domain" stroke="#000" d="M0.5,6V0.5H520.5V6"></path><g class="tick" opacity="1" transform="translate(0.5,0)"><line stroke="#000" y2="6"></line><text fill="#000" y="9" dy="0.71em">0.01</text></g><g class="tick" opacity="1" transform="translate(130.5,0)"><line stroke="#000" y2="6"></line><text fill="#000" y="9" dy="0.71em">1</text></g><g class="tick" opacity="1" transform="translate(260.5,0)"><line stroke="#000" y2="6"></line><text fill="#000" y="9" dy="0.71em">100</text></g><g class="tick" opacity="1" transform="translate(390.5,0)"><line stroke="#000" y2="6"></line><text fill="#000" y="9" dy="0.71em">10000</text></g><g class="tick" opacity="1" transform="translate(520.5,0)"><line stroke="#000" y2="6"></line><text fill="#000" y="9" dy="0.71em"></text></g></g><g class="axis axis--y" fill="none" font-size="10" font-family="sans-serif" text-anchor="end"><path class="domain" stroke="#000" d="M-6,310.5H0.5V0.5H-6"></path><g class="tick" opacity="1" transform="translate(0,310.5)"><line stroke="#000" x2="-6"></line><text fill="#000" x="-9" dy="0.32em">0</text></g><g class="tick" opacity="1" transform="translate(0,283.6369150779896)"><line stroke="#000" x2="-6"></line><text fill="#000" x="-9" dy="0.32em">50</text></g><g class="tick" opacity="1" transform="translate(0,256.7738301559792)"><line stroke="#000" x2="-6"></line><text fill="#000" x="-9" dy="0.32em">100</text></g><g class="tick" opacity="1" transform="translate(0,229.91074523396878)"><line stroke="#000" x2="-6"></line><text fill="#000" x="-9" dy="0.32em">150</text></g><g class="tick" opacity="1" transform="translate(0,203.0476603119584)"><line stroke="#000" x2="-6"></line><text fill="#000" x="-9" dy="0.32em">200</text></g><g class="tick" opacity="1" transform="translate(0,176.184575389948)"><line stroke="#000" x2="-6"></line><text fill="#000" x="-9" dy="0.32em">250</text></g><g class="tick" opacity="1" transform="translate(0,149.3214904679376)"><line stroke="#000" x2="-6"></line><text fill="#000" x="-9" dy="0.32em">300</text></g><g class="tick" opacity="1" transform="translate(0,122.4584055459272)"><line stroke="#000" x2="-6"></line><text fill="#000" x="-9" dy="0.32em">350</text></g><g class="tick" opacity="1" transform="translate(0,95.59532062391679)"><line stroke="#000" x2="-6"></line><text fill="#000" x="-9" dy="0.32em">400</text></g><g class="tick" opacity="1" transform="translate(0,68.73223570190643)"><line stroke="#000" x2="-6"></line><text fill="#000" x="-9" dy="0.32em">450</text></g><g class="tick" opacity="1" transform="translate(0,41.86915077989602)"><line stroke="#000" x2="-6"></line><text fill="#000" x="-9" dy="0.32em">500</text></g><g class="tick" opacity="1" transform="translate(0,15.00606585788563)"><line stroke="#000" x2="-6"></line><text fill="#000" x="-9" dy="0.32em">550</text></g></g></g></svg>