<svg xmlns="http://www.w3.org/2000/svg" width="600" height="350"><defs><style type="text/css"><![CDATA[ 
.bar rect {
  fill-opacity: 0;
  stroke:       black;
  stroke-width: 0.5;
}

.highlight rect {
  fill:       red;
  fill-opacity: 1;
}
.axis path,
.axis line {
  fill: none;
  stroke: #000;
  shape-rendering: crispEdges;
}
 ]]></style></defs><g transform="translate(50,10)"><g class="bar" transform="translate(0,310)"><rect x="1" width="11.999999999999996" height="0"></rect></g><g class="bar" transform="translate(12.999999999999996,310)"><rect x="1" width="11.999999999999996" height="0"></rect></g><g class="bar" transform="translate(25.999999999999993,310)"><rect x="1" width="11.999999999999996" height="0"></rect></g><g class="bar" transform="translate(39.00000000000001,308.4203821656051)"><rect x="1" width="11.999999999999996" height="1.5796178343949236"></rect></g><g class="bar" transform="translate(52,307.63057324840764)"><rect x="1" width="11.999999999999996" height="2.369426751592357"></rect></g><g class="bar" transform="translate(65,306.0509554140127)"><rect x="1" width="11.999999999999996" height="3.9490445859872807"></rect></g><g class="bar" transform="translate(78.00000000000001,300.12738853503186)"><rect x="1" width="11.999999999999996" height="9.872611464968145"></rect></g><g class="bar" transform="translate(91.00000000000001,293.4140127388535)"><rect x="1" width="11.999999999999996" height="16.5859872611465"></rect></g><g class="bar" transform="translate(104,278.0127388535032)"><rect x="1" width="11.999999999999996" height="31.98726114649679"></rect></g><g class="bar" transform="translate(117,264.5859872611465)"><rect x="1" width="11.999999999999996" height="45.4140127388535"></rect></g><g class="bar" transform="translate(130,264.1910828025478)"><rect x="1" width="11.999999999999996" height="45.80891719745222"></rect></g><g class="bar" transform="translate(143,244.05095541401272)"><rect x="1" width="11.999999999999996" height="65.94904458598728"></rect></g><g class="bar" transform="translate(156.00000000000003,181.2611464968153)"><rect x="1" width="11.999999999999996" height="128.7388535031847"></rect></g><g class="bar" transform="translate(169,76.21656050955411)"><rect x="1" width="11.999999999999996" height="233.7834394904459"></rect></g><g class="bar" transform="translate(182.00000000000003,0)"><rect x="1" width="11.999999999999996" height="310"></rect></g><g class="bar" transform="translate(195,54.496815286624184)"><rect x="1" width="11.999999999999996" height="255.50318471337582"></rect></g><g class="bar" transform="translate(208,138.61146496815286)"><rect x="1" width="11.999999999999996" height="171.38853503184714"></rect></g><g class="bar" transform="translate(221.00000000000003,191.52866242038215)"><rect x="1" width="11.999999999999996" height="118.47133757961785"></rect></g><g class="bar" transform="translate(234,216.40764331210192)"><rect x="1" width="11.999999999999996" height="93.59235668789808"></rect></g><g class="bar" transform="translate(247.00000000000003,219.96178343949043)"><rect x="1" width="11.999999999999996" height="90.03821656050957"></rect></g><g class="bar" transform="translate(260,235.36305732484078)"><rect x="1" width="11.999999999999996" height="74.63694267515922"></rect></g><g class="bar" transform="translate(273,238.52229299363057)"><rect x="1" width="11.999999999999996" height="71.47770700636943"></rect></g><g class="bar" transform="translate(286,241.68152866242036)"><rect x="1" width="11.999999999999996" height="68.31847133757964"></rect></g><g class="bar" transform="translate(299.00000000000006,261.8216560509554)"><rect x="1" width="11.999999999999996" height="48.178343949044574"></rect></g><g class="bar" transform="translate(312.00000000000006,258.26751592356686)"><rect x="1" width="11.999999999999996" height="51.73248407643314"></rect></g><g class="bar" transform="translate(325,276.4331210191083)"><rect x="1" width="11.999999999999996" height="33.566878980891715"></rect></g><g class="bar" transform="translate(338,280.7770700636943)"><rect x="1" width="11.999999999999996" height="29.222929936305718"></rect></g><g class="bar" transform="translate(351,295.78343949044586)"><rect x="1" width="11.999999999999996" height="14.216560509554142"></rect></g><g class="bar" transform="translate(364.00000000000006,302.4968152866242)"><rect x="1" width="11.999999999999996" height="7.503184713375788"></rect></g><g class="bar" transform="translate(377.00000000000006,305.2611464968153)"><rect x="1" width="11.999999999999996" height="4.738853503184714"></rect></g><g class="bar" transform="translate(390,308.81528662420385)"><rect x="1" width="11.999999999999996" height="1.18471337579615"></rect></g><g class="bar" transform="translate(403,309.21019108280257)"><rect x="1" width="11.999999999999996" height="0.7898089171974334"></rect></g><g class="bar" transform="translate(416,309.6050955414013)"><rect x="1" width="11.999999999999996" height="0.3949044585987167"></rect></g><g class="bar" transform="translate(429.00000000000006,310)"><rect x="1" width="11.999999999999996" height="0"></rect></g><g class="bar" transform="translate(442.00000000000006,310)"><rect x="1" width="11.999999999999996" height="0"></rect></g><g class="bar" transform="translate(455,310)"><rect x="1" width="11.999999999999996" height="0"></rect></g><g class="bar" transform="translate(468,310)"><rect x="1" width="11.999999999999996" height="0"></rect></g><g class="bar" transform="translate(481,310)"><rect x="1" width="11.999999999999996" height="0"></rect></g><g class="bar" transform="translate(494.00000000000006,310)"><rect x="1" width="11.999999999999996" height="0"></rect></g><g class="bar" transform="translate(507.00000000000006,310)"><rect x="1" width="11.999999999999996" height="0"></rect></g><g class="axis axis--x" transform="translate(0,310)" fill="none" font-size="10" font-family="sans-serif" text-anchor="middle"><path class="domain" stroke="#000" d="M0.5,6V0.5H520.5V6"></path><g class="tick" opacity="1" transform="translate(0,0)"><line stroke="#000" y2="6" x1="0.5" x2="0.5"></line><text fill="#000" y="9" x="0.5" dy="0.71em">0.01</text></g><g class="tick" opacity="1" transform="translate(130,0)"><line stroke="#000" y2="6" x1="0.5" x2="0.5"></line><text fill="#000" y="9" x="0.5" dy="0.71em">1</text></g><g class="tick" opacity="1" transform="translate(260,0)"><line stroke="#000" y2="6" x1="0.5" x2="0.5"></line><text fill="#000" y="9" x="0.5" dy="0.71em">100</text></g><g class="tick" opacity="1" transform="translate(390,0)"><line stroke="#000" y2="6" x1="0.5" x2="0.5"></line><text fill="#000" y="9" x="0.5" dy="0.71em">10000</text></g><g class="tick" opacity="1" transform="translate(520,0)"><line stroke="#000" y2="6" x1="0.5" x2="0.5"></line><text fill="#000" y="9" x="0.5" dy="0.71em"></text></g></g><g class="axis axis--y" fill="none" font-size="10" font-family="sans-serif" text-anchor="end"><path class="domain" stroke="#000" d="M-6,310.5H0.5V0.5H-6"></path><g class="tick" opacity="1" transform="translate(0,310)"><line stroke="#000" x2="-6" y1="0.5" y2="0.5"></line><text fill="#000" x="-9" y="0.5" dy="0.32em">0</text></g><g class="tick" opacity="1" transform="translate(0,270.5095541401274)"><line stroke="#000" x2="-6" y1="0.5" y2="0.5"></line><text fill="#000" x="-9" y="0.5" dy="0.32em">100</text></g><g class="tick" opacity="1" transform="translate(0,231.01910828025478)"><line stroke="#000" x2="-6" y1="0.5" y2="0.5"></line><text fill="#000" x="-9" y="0.5" dy="0.32em">200</text></g><g class="tick" opacity="1" transform="translate(0,191.52866242038215)"><line stroke="#000" x2="-6" y1="0.5" y2="0.5"></line><text fill="#000" x="-9" y="0.5" dy="0.32em">300</text></g><g class="tick" opacity="1" transform="translate(0,152.03821656050957)"><line stroke="#000" x2="-6" y1="0.5" y2="0.5"></line><text fill="#000" x="-9" y="0.5" dy="0.32em">400</text></g><g class="tick" opacity="1" transform="translate(0,112.54777070063696)"><line stroke="#000" x2="-6" y1="0.5" y2="0.5"></line><text fill="#000" x="-9" y="0.5" dy="0.32em">500</text></g><g class="tick" opacity="1" transform="translate(0,73.05732484076432)"><line stroke="#000" x2="-6" y1="0.5" y2="0.5"></line><text fill="#000" x="-9" y="0.5" dy="0.32em">600</text></g><g class="tick" opacity="1" transform="translate(0,33.566878980891715)"><line stroke="#000" x2="-6" y1="0.5" y2="0.5"></line><text fill="#000" x="-9" y="0.5" dy="0.32em">700</text></g></g></g></svg>