<svg xmlns="http://www.w3.org/2000/svg" width="600" height="350"><defs><style type="text/css"><![CDATA[ 
.bar rect {
  fill-opacity: 0;
  stroke:       black;
  stroke-width: 0.5;
}

.highlight rect {
  fill:       red;
  fill-opacity: 1;
}
.axis path,
.axis line {
  fill: none;
  stroke: #000;
  shape-rendering: crispEdges;
}
path {
    stroke: red;
    fill: none;
}

line {
    stroke: red;
}

path.marker {
    fill: red;
}
 ]]></style></defs><g transform="translate(50,10)"><g class="bar" transform="translate(0,310)"><rect x="1" width="11.999999999999996" height="0"></rect></g><g class="bar" transform="translate(12.999999999999996,310)"><rect x="1" width="11.999999999999996" height="0"></rect></g><g class="bar" transform="translate(25.999999999999993,310)"><rect x="1" width="11.999999999999996" height="0"></rect></g><g class="bar" transform="translate(39.00000000000001,310)"><rect x="1" width="11.999999999999996" height="0"></rect></g><g class="bar" transform="translate(52,310)"><rect x="1" width="11.999999999999996" height="0"></rect></g><g class="bar" transform="translate(65,308.48039215686276)"><rect x="1" width="11.999999999999996" height="1.519607843137237"></rect></g><g class="bar" transform="translate(78.00000000000001,305.9477124183006)"><rect x="1" width="11.999999999999996" height="4.052287581699375"></rect></g><g class="bar" transform="translate(91.00000000000001,288.218954248366)"><rect x="1" width="11.999999999999996" height="21.781045751633997"></rect></g><g class="bar" transform="translate(104,242.12418300653593)"><rect x="1" width="11.999999999999996" height="67.87581699346407"></rect></g><g class="bar" transform="translate(117,174.7549019607843)"><rect x="1" width="11.999999999999996" height="135.2450980392157"></rect></g><g class="bar" transform="translate(130,119.5424836601307)"><rect x="1" width="11.999999999999996" height="190.4575163398693"></rect></g><g class="bar" transform="translate(143,77.5)"><rect x="1" width="11.999999999999996" height="232.5"></rect></g><g class="bar" transform="translate(156.00000000000003,16.715686274509835)"><rect x="1" width="11.999999999999996" height="293.28431372549016"></rect></g><g class="bar" transform="translate(169,28.872549019607845)"><rect x="1" width="11.999999999999996" height="281.12745098039215"></rect></g><g class="bar" transform="translate(182.00000000000003,6.078431372549005)"><rect x="1" width="11.999999999999996" height="303.921568627451"></rect></g><g class="bar" transform="translate(195,16.209150326797385)"><rect x="1" width="11.999999999999996" height="293.7908496732026"></rect></g><g class="bar" transform="translate(208,0)"><rect x="1" width="11.999999999999996" height="310"></rect></g><g class="bar" transform="translate(221.00000000000003,46.60130718954247)"><rect x="1" width="11.999999999999996" height="263.39869281045753"></rect></g><g class="bar" transform="translate(234,73.95424836601308)"><rect x="1" width="11.999999999999996" height="236.04575163398692"></rect></g><g class="bar" transform="translate(247.00000000000003,130.1797385620915)"><rect x="1" width="11.999999999999996" height="179.8202614379085"></rect></g><g class="bar" transform="translate(260,125.62091503267973)"><rect x="1" width="11.999999999999996" height="184.37908496732027"></rect></g><g class="bar" transform="translate(273,190.45751633986927)"><rect x="1" width="11.999999999999996" height="119.54248366013073"></rect></g><g class="bar" transform="translate(286,211.73202614379085)"><rect x="1" width="11.999999999999996" height="98.26797385620915"></rect></g><g class="bar" transform="translate(299.00000000000006,237.56535947712416)"><rect x="1" width="11.999999999999996" height="72.43464052287584"></rect></g><g class="bar" transform="translate(312.00000000000006,259.34640522875816)"><rect x="1" width="11.999999999999996" height="50.65359477124184"></rect></g><g class="bar" transform="translate(325,273.52941176470586)"><rect x="1" width="11.999999999999996" height="36.470588235294144"></rect></g><g class="bar" transform="translate(338,277.58169934640523)"><rect x="1" width="11.999999999999996" height="32.41830065359477"></rect></g><g class="bar" transform="translate(351,289.73856209150324)"><rect x="1" width="11.999999999999996" height="20.26143790849676"></rect></g><g class="bar" transform="translate(364.00000000000006,293.7908496732026)"><rect x="1" width="11.999999999999996" height="16.209150326797385"></rect></g><g class="bar" transform="translate(377.00000000000006,306.4542483660131)"><rect x="1" width="11.999999999999996" height="3.5457516339869244"></rect></g><g class="bar" transform="translate(390,309.4934640522876)"><rect x="1" width="11.999999999999996" height="0.5065359477123934"></rect></g><g class="bar" transform="translate(403,310)"><rect x="1" width="11.999999999999996" height="0"></rect></g><g class="bar" transform="translate(416,309.4934640522876)"><rect x="1" width="11.999999999999996" height="0.5065359477123934"></rect></g><g class="bar" transform="translate(429.00000000000006,310)"><rect x="1" width="11.999999999999996" height="0"></rect></g><g class="bar" transform="translate(442.00000000000006,310)"><rect x="1" width="11.999999999999996" height="0"></rect></g><g class="bar" transform="translate(455,310)"><rect x="1" width="11.999999999999996" height="0"></rect></g><g class="bar" transform="translate(468,310)"><rect x="1" width="11.999999999999996" height="0"></rect></g><g class="bar" transform="translate(481,310)"><rect x="1" width="11.999999999999996" height="0"></rect></g><g class="bar" transform="translate(494.00000000000006,310)"><rect x="1" width="11.999999999999996" height="0"></rect></g><g class="bar" transform="translate(507.00000000000006,310)"><rect x="1" width="11.999999999999996" height="0"></rect></g><g class="axis axis--x" transform="translate(0,310)" fill="none" font-size="10" font-family="sans-serif" text-anchor="middle"><path class="domain" stroke="#000" d="M0.5,6V0.5H520.5V6"></path><g class="tick" opacity="1" transform="translate(0.5,0)"><line stroke="#000" y2="6"></line><text fill="#000" y="9" dy="0.71em">0.01</text></g><g class="tick" opacity="1" transform="translate(130.5,0)"><line stroke="#000" y2="6"></line><text fill="#000" y="9" dy="0.71em">1</text></g><g class="tick" opacity="1" transform="translate(260.5,0)"><line stroke="#000" y2="6"></line><text fill="#000" y="9" dy="0.71em">100</text></g><g class="tick" opacity="1" transform="translate(390.5,0)"><line stroke="#000" y2="6"></line><text fill="#000" y="9" dy="0.71em">10000</text></g><g class="tick" opacity="1" transform="translate(520.5,0)"><line stroke="#000" y2="6"></line><text fill="#000" y="9" dy="0.71em"></text></g></g><g class="axis axis--y" fill="none" font-size="10" font-family="sans-serif" text-anchor="end"><path class="domain" stroke="#000" d="M-6,310.5H0.5V0.5H-6"></path><g class="tick" opacity="1" transform="translate(0,310.5)"><line stroke="#000" x2="-6"></line><text fill="#000" x="-9" dy="0.32em">0</text></g><g class="tick" opacity="1" transform="translate(0,285.1732026143791)"><line stroke="#000" x2="-6"></line><text fill="#000" x="-9" dy="0.32em">50</text></g><g class="tick" opacity="1" transform="translate(0,259.84640522875816)"><line stroke="#000" x2="-6"></line><text fill="#000" x="-9" dy="0.32em">100</text></g><g class="tick" opacity="1" transform="translate(0,234.51960784313724)"><line stroke="#000" x2="-6"></line><text fill="#000" x="-9" dy="0.32em">150</text></g><g class="tick" opacity="1" transform="translate(0,209.19281045751634)"><line stroke="#000" x2="-6"></line><text fill="#000" x="-9" dy="0.32em">200</text></g><g class="tick" opacity="1" transform="translate(0,183.86601307189542)"><line stroke="#000" x2="-6"></line><text fill="#000" x="-9" dy="0.32em">250</text></g><g class="tick" opacity="1" transform="translate(0,158.5392156862745)"><line stroke="#000" x2="-6"></line><text fill="#000" x="-9" dy="0.32em">300</text></g><g class="tick" opacity="1" transform="translate(0,133.2124183006536)"><line stroke="#000" x2="-6"></line><text fill="#000" x="-9" dy="0.32em">350</text></g><g class="tick" opacity="1" transform="translate(0,107.88562091503269)"><line stroke="#000" x2="-6"></line><text fill="#000" x="-9" dy="0.32em">400</text></g><g class="tick" opacity="1" transform="translate(0,82.55882352941174)"><line stroke="#000" x2="-6"></line><text fill="#000" x="-9" dy="0.32em">450</text></g><g class="tick" opacity="1" transform="translate(0,57.23202614379085)"><line stroke="#000" x2="-6"></line><text fill="#000" x="-9" dy="0.32em">500</text></g><g class="tick" opacity="1" transform="translate(0,31.905228758169926)"><line stroke="#000" x2="-6"></line><text fill="#000" x="-9" dy="0.32em">550</text></g><g class="tick" opacity="1" transform="translate(0,6.578431372549005)"><line stroke="#000" x2="-6"></line><text fill="#000" x="-9" dy="0.32em">600</text></g></g></g></svg>