<svg xmlns="http://www.w3.org/2000/svg" width="280" height="160"><defs><style type="text/css"><![CDATA[ 
.bar rect {
  fill-opacity: 0;
  stroke:       black;
  stroke-width: 0.5;
}

.highlight rect {
  fill:       red;
  fill-opacity: 1;
}
.axis path,
.axis line {
  fill: none;
  stroke: #000;
  shape-rendering: crispEdges;
}
path {
    stroke: red;
    fill: none;
}

line {
    stroke: red;
}

path.marker {
    fill: red;
}
 ]]></style></defs><g transform="translate(50,10)"><g class="bar" transform="translate(0,120)"><rect x="1" width="11.5" height="0"></rect></g><g class="bar" transform="translate(12.5,120)"><rect x="1" width="11.5" height="0"></rect></g><g class="bar" transform="translate(25,117.5223675154852)"><rect x="1" width="11.5" height="2.4776324845147997"></rect></g><g class="bar" transform="translate(37.5,84.9002064693737)"><rect x="1" width="11.5" height="35.0997935306263"></rect></g><g class="bar" transform="translate(50,24.941500344115624)"><rect x="1" width="11.5" height="95.05849965588438"></rect></g><g class="bar" transform="translate(62.5,2.890571231933933)"><rect x="1" width="11.5" height="117.10942876806607"></rect></g><g class="bar" transform="translate(75,0)"><rect x="1" width="11.5" height="120"></rect></g><g class="bar" transform="translate(87.5,30.805230557467297)"><rect x="1" width="11.5" height="89.1947694425327"></rect></g><g class="bar" transform="translate(100,62.43633860977289)"><rect x="1" width="11.5" height="57.56366139022711"></rect></g><g class="bar" transform="translate(112.5,91.92016517549897)"><rect x="1" width="11.5" height="28.079834824501035"></rect></g><g class="bar" transform="translate(125,107.11631108052306)"><rect x="1" width="11.5" height="12.883688919476938"></rect></g><g class="bar" transform="translate(137.5,115.12732278045424)"><rect x="1" width="11.5" height="4.872677219545764"></rect></g><g class="bar" transform="translate(150,119.83482450103234)"><rect x="1" width="11.5" height="0.16517549896765615"></rect></g><g class="bar" transform="translate(162.5,120)"><rect x="1" width="11.5" height="0"></rect></g><g class="bar" transform="translate(175,120)"><rect x="1" width="11.5" height="0"></rect></g><g class="bar" transform="translate(187.5,120)"><rect x="1" width="11.5" height="0"></rect></g></g></svg>