<svg xmlns="http://www.w3.org/2000/svg" width="280" height="160"><defs><style type="text/css"><![CDATA[ 
.bar rect {
  fill-opacity: 0;
  stroke:       black;
  stroke-width: 0.5;
}

.highlight rect {
  fill:       red;
  fill-opacity: 1;
}
.axis path,
.axis line {
  fill: none;
  stroke: #000;
  shape-rendering: crispEdges;
}
path {
    stroke: red;
    fill: none;
}

line {
    stroke: red;
}

path.marker {
    fill: red;
}
 ]]></style></defs><g transform="translate(50,10)"><g class="bar" transform="translate(0,120)"><rect x="1" width="11.5" height="0"></rect></g><g class="bar" transform="translate(12.5,120)"><rect x="1" width="11.5" height="0"></rect></g><g class="bar" transform="translate(25,120)"><rect x="1" width="11.5" height="0"></rect></g><g class="bar" transform="translate(37.5,120)"><rect x="1" width="11.5" height="0"></rect></g><g class="bar" transform="translate(50,119.65087281795512)"><rect x="1" width="11.5" height="0.3491271820448816"></rect></g><g class="bar" transform="translate(62.5,119.75062344139651)"><rect x="1" width="11.5" height="0.24937655860348684"></rect></g><g class="bar" transform="translate(75,116.88279301745636)"><rect x="1" width="11.5" height="3.1172069825436353"></rect></g><g class="bar" transform="translate(87.5,63.64089775561097)"><rect x="1" width="11.5" height="56.35910224438903"></rect></g><g class="bar" transform="translate(100,0)"><rect x="1" width="11.5" height="120"></rect></g><g class="bar" transform="translate(112.5,118.30423940149626)"><rect x="1" width="11.5" height="1.695760598503739"></rect></g><g class="bar" transform="translate(125,120)"><rect x="1" width="11.5" height="0"></rect></g><g class="bar" transform="translate(137.5,120)"><rect x="1" width="11.5" height="0"></rect></g><g class="bar" transform="translate(150,120)"><rect x="1" width="11.5" height="0"></rect></g><g class="bar" transform="translate(162.5,120)"><rect x="1" width="11.5" height="0"></rect></g><g class="bar" transform="translate(175,120)"><rect x="1" width="11.5" height="0"></rect></g><g class="bar" transform="translate(187.5,120)"><rect x="1" width="11.5" height="0"></rect></g></g></svg>