<svg xmlns="http://www.w3.org/2000/svg" width="280" height="160"><defs><style type="text/css"><![CDATA[ 
.bar rect {
  fill-opacity: 0;
  stroke:       black;
  stroke-width: 0.5;
}

.highlight rect {
  fill:       red;
  fill-opacity: 1;
}
.axis path,
.axis line {
  fill: none;
  stroke: #000;
  shape-rendering: crispEdges;
}
path {
    stroke: red;
    fill: none;
}

line {
    stroke: red;
}

path.marker {
    fill: red;
}
 ]]></style></defs><g transform="translate(50,10)"><g class="bar" transform="translate(0,86.23401231643771)"><rect x="1" width="11.5" height="33.76598768356229"></rect></g><g class="bar" transform="translate(12.5,53.49123638086215)"><rect x="1" width="11.5" height="66.50876361913785"></rect></g><g class="bar" transform="translate(25,41.38323069635244)"><rect x="1" width="11.5" height="78.61676930364756"></rect></g><g class="bar" transform="translate(37.5,39.39365229748934)"><rect x="1" width="11.5" height="80.60634770251066"></rect></g><g class="bar" transform="translate(50,26.94457603031738)"><rect x="1" width="11.5" height="93.05542396968262"></rect></g><g class="bar" transform="translate(62.5,1.136901942207487)"><rect x="1" width="11.5" height="118.86309805779251"></rect></g><g class="bar" transform="translate(75,0)"><rect x="1" width="11.5" height="120"></rect></g><g class="bar" transform="translate(87.5,14.324964471814297)"><rect x="1" width="11.5" height="105.6750355281857"></rect></g><g class="bar" transform="translate(100,40.47370914258646)"><rect x="1" width="11.5" height="79.52629085741354"></rect></g><g class="bar" transform="translate(112.5,84.35812411179535)"><rect x="1" width="11.5" height="35.64187588820465"></rect></g><g class="bar" transform="translate(125,113.74703931785884)"><rect x="1" width="11.5" height="6.252960682141165"></rect></g><g class="bar" transform="translate(137.5,119.26101373756514)"><rect x="1" width="11.5" height="0.7389862624348638"></rect></g><g class="bar" transform="translate(150,119.94315490288963)"><rect x="1" width="11.5" height="0.05684509711036867"></rect></g><g class="bar" transform="translate(162.5,120)"><rect x="1" width="11.5" height="0"></rect></g><g class="bar" transform="translate(175,120)"><rect x="1" width="11.5" height="0"></rect></g><g class="bar" transform="translate(187.5,120)"><rect x="1" width="11.5" height="0"></rect></g></g></svg>