<svg xmlns="http://www.w3.org/2000/svg" width="600" height="350"><defs><style type="text/css"><![CDATA[ 
.bar rect {
  fill-opacity: 0;
  stroke:       black;
  stroke-width: 0.5;
}

.highlight rect {
  fill:       red;
  fill-opacity: 1;
}
.axis path,
.axis line {
  fill: none;
  stroke: #000;
  shape-rendering: crispEdges;
}
path {
    stroke: red;
    fill: none;
}

line {
    stroke: red;
}

path.marker {
    fill: red;
}
 ]]></style></defs><g transform="translate(50,10)"><g class="bar" transform="translate(0,251.24418604651163)"><rect x="1" width="11.999999999999996" height="58.75581395348837"></rect></g><g class="bar" transform="translate(12.999999999999996,217.36046511627904)"><rect x="1" width="11.999999999999996" height="92.63953488372096"></rect></g><g class="bar" transform="translate(25.999999999999993,189.96511627906978)"><rect x="1" width="11.999999999999996" height="120.03488372093022"></rect></g><g class="bar" transform="translate(39.00000000000001,142.7441860465116)"><rect x="1" width="11.999999999999996" height="167.2558139534884"></rect></g><g class="bar" transform="translate(52,112.82558139534885)"><rect x="1" width="11.999999999999996" height="197.17441860465115"></rect></g><g class="bar" transform="translate(65,101.29069767441862)"><rect x="1" width="11.999999999999996" height="208.70930232558138"></rect></g><g class="bar" transform="translate(78.00000000000001,117.87209302325584)"><rect x="1" width="11.999999999999996" height="192.12790697674416"></rect></g><g class="bar" transform="translate(91.00000000000001,106.69767441860463)"><rect x="1" width="11.999999999999996" height="203.30232558139537"></rect></g><g class="bar" transform="translate(104,105.25581395348837)"><rect x="1" width="11.999999999999996" height="204.74418604651163"></rect></g><g class="bar" transform="translate(117,109.22093023255815)"><rect x="1" width="11.999999999999996" height="200.77906976744185"></rect></g><g class="bar" transform="translate(130,96.24418604651163)"><rect x="1" width="11.999999999999996" height="213.75581395348837"></rect></g><g class="bar" transform="translate(143,65.2441860465116)"><rect x="1" width="11.999999999999996" height="244.7558139534884"></rect></g><g class="bar" transform="translate(156.00000000000003,39.290697674418595)"><rect x="1" width="11.999999999999996" height="270.7093023255814"></rect></g><g class="bar" transform="translate(169,2.523255813953483)"><rect x="1" width="11.999999999999996" height="307.4767441860465"></rect></g><g class="bar" transform="translate(182.00000000000003,2.8837209302325277)"><rect x="1" width="11.999999999999996" height="307.1162790697675"></rect></g><g class="bar" transform="translate(195,7.569767441860449)"><rect x="1" width="11.999999999999996" height="302.43023255813955"></rect></g><g class="bar" transform="translate(208,0)"><rect x="1" width="11.999999999999996" height="310"></rect></g><g class="bar" transform="translate(221.00000000000003,13.697674418604663)"><rect x="1" width="11.999999999999996" height="296.30232558139534"></rect></g><g class="bar" transform="translate(234,45.779069767441854)"><rect x="1" width="11.999999999999996" height="264.22093023255815"></rect></g><g class="bar" transform="translate(247.00000000000003,51.90697674418607)"><rect x="1" width="11.999999999999996" height="258.09302325581393"></rect></g><g class="bar" transform="translate(260,100.20930232558138)"><rect x="1" width="11.999999999999996" height="209.79069767441862"></rect></g><g class="bar" transform="translate(273,111.38372093023256)"><rect x="1" width="11.999999999999996" height="198.61627906976744"></rect></g><g class="bar" transform="translate(286,142.7441860465116)"><rect x="1" width="11.999999999999996" height="167.2558139534884"></rect></g><g class="bar" transform="translate(299.00000000000006,206.54651162790697)"><rect x="1" width="11.999999999999996" height="103.45348837209303"></rect></g><g class="bar" transform="translate(312.00000000000006,258.8139534883721)"><rect x="1" width="11.999999999999996" height="51.18604651162792"></rect></g><g class="bar" transform="translate(325,287.2906976744186)"><rect x="1" width="11.999999999999996" height="22.709302325581405"></rect></g><g class="bar" transform="translate(338,295.22093023255815)"><rect x="1" width="11.999999999999996" height="14.779069767441854"></rect></g><g class="bar" transform="translate(351,304.95348837209303)"><rect x="1" width="11.999999999999996" height="5.046511627906966"></rect></g><g class="bar" transform="translate(364.00000000000006,309.63953488372096)"><rect x="1" width="11.999999999999996" height="0.36046511627904465"></rect></g><g class="bar" transform="translate(377.00000000000006,308.5581395348837)"><rect x="1" width="11.999999999999996" height="1.4418604651162923"></rect></g><g class="bar" transform="translate(390,309.63953488372096)"><rect x="1" width="11.999999999999996" height="0.36046511627904465"></rect></g><g class="bar" transform="translate(403,310)"><rect x="1" width="11.999999999999996" height="0"></rect></g><g class="bar" transform="translate(416,310)"><rect x="1" width="11.999999999999996" height="0"></rect></g><g class="bar" transform="translate(429.00000000000006,310)"><rect x="1" width="11.999999999999996" height="0"></rect></g><g class="bar" transform="translate(442.00000000000006,310)"><rect x="1" width="11.999999999999996" height="0"></rect></g><g class="bar" transform="translate(455,310)"><rect x="1" width="11.999999999999996" height="0"></rect></g><g class="bar" transform="translate(468,310)"><rect x="1" width="11.999999999999996" height="0"></rect></g><g class="bar" transform="translate(481,310)"><rect x="1" width="11.999999999999996" height="0"></rect></g><g class="bar" transform="translate(494.00000000000006,310)"><rect x="1" width="11.999999999999996" height="0"></rect></g><g class="bar" transform="translate(507.00000000000006,310)"><rect x="1" width="11.999999999999996" height="0"></rect></g><g class="axis axis--x" transform="translate(0,310)" fill="none" font-size="10" font-family="sans-serif" text-anchor="middle"><path class="domain" stroke="#000" d="M0.5,6V0.5H520.5V6"></path><g class="tick" opacity="1" transform="translate(0.5,0)"><line stroke="#000" y2="6"></line><text fill="#000" y="9" dy="0.71em">0.01</text></g><g class="tick" opacity="1" transform="translate(130.5,0)"><line stroke="#000" y2="6"></line><text fill="#000" y="9" dy="0.71em">1</text></g><g class="tick" opacity="1" transform="translate(260.5,0)"><line stroke="#000" y2="6"></line><text fill="#000" y="9" dy="0.71em">100</text></g><g class="tick" opacity="1" transform="translate(390.5,0)"><line stroke="#000" y2="6"></line><text fill="#000" y="9" dy="0.71em">10000</text></g><g class="tick" opacity="1" transform="translate(520.5,0)"><line stroke="#000" y2="6"></line><text fill="#000" y="9" dy="0.71em"></text></g></g><g class="axis axis--y" fill="none" font-size="10" font-family="sans-serif" text-anchor="end"><path class="domain" stroke="#000" d="M-6,310.5H0.5V0.5H-6"></path><g class="tick" opacity="1" transform="translate(0,310.5)"><line stroke="#000" x2="-6"></line><text fill="#000" x="-9" dy="0.32em">0</text></g><g class="tick" opacity="1" transform="translate(0,274.45348837209303)"><line stroke="#000" x2="-6"></line><text fill="#000" x="-9" dy="0.32em">100</text></g><g class="tick" opacity="1" transform="translate(0,238.40697674418607)"><line stroke="#000" x2="-6"></line><text fill="#000" x="-9" dy="0.32em">200</text></g><g class="tick" opacity="1" transform="translate(0,202.36046511627907)"><line stroke="#000" x2="-6"></line><text fill="#000" x="-9" dy="0.32em">300</text></g><g class="tick" opacity="1" transform="translate(0,166.3139534883721)"><line stroke="#000" x2="-6"></line><text fill="#000" x="-9" dy="0.32em">400</text></g><g class="tick" opacity="1" transform="translate(0,130.2674418604651)"><line stroke="#000" x2="-6"></line><text fill="#000" x="-9" dy="0.32em">500</text></g><g class="tick" opacity="1" transform="translate(0,94.22093023255815)"><line stroke="#000" x2="-6"></line><text fill="#000" x="-9" dy="0.32em">600</text></g><g class="tick" opacity="1" transform="translate(0,58.17441860465115)"><line stroke="#000" x2="-6"></line><text fill="#000" x="-9" dy="0.32em">700</text></g><g class="tick" opacity="1" transform="translate(0,22.127906976744214)"><line stroke="#000" x2="-6"></line><text fill="#000" x="-9" dy="0.32em">800</text></g></g></g></svg>