<svg xmlns="http://www.w3.org/2000/svg" width="280" height="160"><defs><style type="text/css"><![CDATA[ 
.bar rect {
  fill-opacity: 0;
  stroke:       black;
  stroke-width: 0.5;
}

.highlight rect {
  fill:       red;
  fill-opacity: 1;
}
.axis path,
.axis line {
  fill: none;
  stroke: #000;
  shape-rendering: crispEdges;
}
path {
    stroke: red;
    fill: none;
}

line {
    stroke: red;
}

path.marker {
    fill: red;
}
 ]]></style></defs><g transform="translate(50,10)"><g class="bar" transform="translate(0,119.63819095477388)"><rect x="1" width="11.5" height="0.3618090452261242"></rect></g><g class="bar" transform="translate(12.5,114.57286432160804)"><rect x="1" width="11.5" height="5.427135678391963"></rect></g><g class="bar" transform="translate(25,97.92964824120602)"><rect x="1" width="11.5" height="22.070351758793976"></rect></g><g class="bar" transform="translate(37.5,64.64321608040201)"><rect x="1" width="11.5" height="55.35678391959799"></rect></g><g class="bar" transform="translate(50,34.4924623115578)"><rect x="1" width="11.5" height="85.5075376884422"></rect></g><g class="bar" transform="translate(62.5,0)"><rect x="1" width="11.5" height="120"></rect></g><g class="bar" transform="translate(75,0.9648241206030121)"><rect x="1" width="11.5" height="119.03517587939699"></rect></g><g class="bar" transform="translate(87.5,21.587939698492463)"><rect x="1" width="11.5" height="98.41206030150754"></rect></g><g class="bar" transform="translate(100,58.49246231155779)"><rect x="1" width="11.5" height="61.50753768844221"></rect></g><g class="bar" transform="translate(112.5,82.13065326633165)"><rect x="1" width="11.5" height="37.86934673366835"></rect></g><g class="bar" transform="translate(125,104.56281407035176)"><rect x="1" width="11.5" height="15.437185929648237"></rect></g><g class="bar" transform="translate(137.5,115.77889447236181)"><rect x="1" width="11.5" height="4.221105527638187"></rect></g><g class="bar" transform="translate(150,119.27638190954774)"><rect x="1" width="11.5" height="0.7236180904522627"></rect></g><g class="bar" transform="translate(162.5,119.87939698492463)"><rect x="1" width="11.5" height="0.12060301507537474"></rect></g><g class="bar" transform="translate(175,120)"><rect x="1" width="11.5" height="0"></rect></g><g class="bar" transform="translate(187.5,120)"><rect x="1" width="11.5" height="0"></rect></g></g></svg>