<svg xmlns="http://www.w3.org/2000/svg" width="600" height="350"><defs><style type="text/css"><![CDATA[ 
.bar rect {
  fill-opacity: 0;
  stroke:       black;
  stroke-width: 0.5;
}

.highlight rect {
  fill:       red;
  fill-opacity: 1;
}
.axis path,
.axis line {
  fill: none;
  stroke: #000;
  shape-rendering: crispEdges;
}
 ]]></style></defs><g transform="translate(50,10)"><g class="bar" transform="translate(0,310)"><rect x="1" width="11.999999999999996" height="0"></rect></g><g class="bar" transform="translate(12.999999999999996,310)"><rect x="1" width="11.999999999999996" height="0"></rect></g><g class="bar" transform="translate(25.999999999999993,304.4642857142857)"><rect x="1" width="11.999999999999996" height="5.535714285714278"></rect></g><g class="bar" transform="translate(39.00000000000001,280.4761904761905)"><rect x="1" width="11.999999999999996" height="29.52380952380952"></rect></g><g class="bar" transform="translate(52,277.7083333333333)"><rect x="1" width="11.999999999999996" height="32.291666666666686"></rect></g><g class="bar" transform="translate(65,261.1011904761905)"><rect x="1" width="11.999999999999996" height="48.89880952380952"></rect></g><g class="bar" transform="translate(78.00000000000001,222.35119047619048)"><rect x="1" width="11.999999999999996" height="87.64880952380952"></rect></g><g class="bar" transform="translate(91.00000000000001,173.45238095238096)"><rect x="1" width="11.999999999999996" height="136.54761904761904"></rect></g><g class="bar" transform="translate(104,148.54166666666666)"><rect x="1" width="11.999999999999996" height="161.45833333333334"></rect></g><g class="bar" transform="translate(117,79.3452380952381)"><rect x="1" width="11.999999999999996" height="230.6547619047619"></rect></g><g class="bar" transform="translate(130,50.74404761904759)"><rect x="1" width="11.999999999999996" height="259.2559523809524"></rect></g><g class="bar" transform="translate(143,36.904761904761926)"><rect x="1" width="11.999999999999996" height="273.0952380952381"></rect></g><g class="bar" transform="translate(156.00000000000003,0)"><rect x="1" width="11.999999999999996" height="310"></rect></g><g class="bar" transform="translate(169,19.375)"><rect x="1" width="11.999999999999996" height="290.625"></rect></g><g class="bar" transform="translate(182.00000000000003,0.9226190476190368)"><rect x="1" width="11.999999999999996" height="309.07738095238096"></rect></g><g class="bar" transform="translate(195,3.690476190476204)"><rect x="1" width="11.999999999999996" height="306.3095238095238"></rect></g><g class="bar" transform="translate(208,27.678571428571445)"><rect x="1" width="11.999999999999996" height="282.32142857142856"></rect></g><g class="bar" transform="translate(221.00000000000003,32.29166666666663)"><rect x="1" width="11.999999999999996" height="277.70833333333337"></rect></g><g class="bar" transform="translate(234,80.26785714285714)"><rect x="1" width="11.999999999999996" height="229.73214285714286"></rect></g><g class="bar" transform="translate(247.00000000000003,90.41666666666666)"><rect x="1" width="11.999999999999996" height="219.58333333333334"></rect></g><g class="bar" transform="translate(260,114.4047619047619)"><rect x="1" width="11.999999999999996" height="195.5952380952381"></rect></g><g class="bar" transform="translate(273,132.85714285714286)"><rect x="1" width="11.999999999999996" height="177.14285714285714"></rect></g><g class="bar" transform="translate(286,149.4642857142857)"><rect x="1" width="11.999999999999996" height="160.5357142857143"></rect></g><g class="bar" transform="translate(299.00000000000006,170.6845238095238)"><rect x="1" width="11.999999999999996" height="139.3154761904762"></rect></g><g class="bar" transform="translate(312.00000000000006,199.28571428571428)"><rect x="1" width="11.999999999999996" height="110.71428571428572"></rect></g><g class="bar" transform="translate(325,213.125)"><rect x="1" width="11.999999999999996" height="96.875"></rect></g><g class="bar" transform="translate(338,258.3333333333333)"><rect x="1" width="11.999999999999996" height="51.666666666666686"></rect></g><g class="bar" transform="translate(351,292.4702380952381)"><rect x="1" width="11.999999999999996" height="17.529761904761926"></rect></g><g class="bar" transform="translate(364.00000000000006,303.5416666666667)"><rect x="1" width="11.999999999999996" height="6.458333333333314"></rect></g><g class="bar" transform="translate(377.00000000000006,309.07738095238096)"><rect x="1" width="11.999999999999996" height="0.9226190476190368"></rect></g><g class="bar" transform="translate(390,305.38690476190476)"><rect x="1" width="11.999999999999996" height="4.613095238095241"></rect></g><g class="bar" transform="translate(403,308.1547619047619)"><rect x="1" width="11.999999999999996" height="1.8452380952380736"></rect></g><g class="bar" transform="translate(416,305.38690476190476)"><rect x="1" width="11.999999999999996" height="4.613095238095241"></rect></g><g class="bar" transform="translate(429.00000000000006,309.07738095238096)"><rect x="1" width="11.999999999999996" height="0.9226190476190368"></rect></g><g class="bar" transform="translate(442.00000000000006,310)"><rect x="1" width="11.999999999999996" height="0"></rect></g><g class="bar" transform="translate(455,310)"><rect x="1" width="11.999999999999996" height="0"></rect></g><g class="bar" transform="translate(468,310)"><rect x="1" width="11.999999999999996" height="0"></rect></g><g class="bar" transform="translate(481,310)"><rect x="1" width="11.999999999999996" height="0"></rect></g><g class="bar" transform="translate(494.00000000000006,310)"><rect x="1" width="11.999999999999996" height="0"></rect></g><g class="bar" transform="translate(507.00000000000006,310)"><rect x="1" width="11.999999999999996" height="0"></rect></g><g class="axis axis--x" transform="translate(0,310)" fill="none" font-size="10" font-family="sans-serif" text-anchor="middle"><path class="domain" stroke="#000" d="M0.5,6V0.5H520.5V6"></path><g class="tick" opacity="1" transform="translate(0,0)"><line stroke="#000" y2="6" x1="0.5" x2="0.5"></line><text fill="#000" y="9" x="0.5" dy="0.71em">0.01</text></g><g class="tick" opacity="1" transform="translate(130,0)"><line stroke="#000" y2="6" x1="0.5" x2="0.5"></line><text fill="#000" y="9" x="0.5" dy="0.71em">1</text></g><g class="tick" opacity="1" transform="translate(260,0)"><line stroke="#000" y2="6" x1="0.5" x2="0.5"></line><text fill="#000" y="9" x="0.5" dy="0.71em">100</text></g><g class="tick" opacity="1" transform="translate(390,0)"><line stroke="#000" y2="6" x1="0.5" x2="0.5"></line><text fill="#000" y="9" x="0.5" dy="0.71em">10000</text></g><g class="tick" opacity="1" transform="translate(520,0)"><line stroke="#000" y2="6" x1="0.5" x2="0.5"></line><text fill="#000" y="9" x="0.5" dy="0.71em"></text></g></g><g class="axis axis--y" fill="none" font-size="10" font-family="sans-serif" text-anchor="end"><path class="domain" stroke="#000" d="M-6,310.5H0.5V0.5H-6"></path><g class="tick" opacity="1" transform="translate(0,310)"><line stroke="#000" x2="-6" y1="0.5" y2="0.5"></line><text fill="#000" x="-9" y="0.5" dy="0.32em">0</text></g><g class="tick" opacity="1" transform="translate(0,263.8690476190476)"><line stroke="#000" x2="-6" y1="0.5" y2="0.5"></line><text fill="#000" x="-9" y="0.5" dy="0.32em">50</text></g><g class="tick" opacity="1" transform="translate(0,217.73809523809524)"><line stroke="#000" x2="-6" y1="0.5" y2="0.5"></line><text fill="#000" x="-9" y="0.5" dy="0.32em">100</text></g><g class="tick" opacity="1" transform="translate(0,171.60714285714286)"><line stroke="#000" x2="-6" y1="0.5" y2="0.5"></line><text fill="#000" x="-9" y="0.5" dy="0.32em">150</text></g><g class="tick" opacity="1" transform="translate(0,125.47619047619048)"><line stroke="#000" x2="-6" y1="0.5" y2="0.5"></line><text fill="#000" x="-9" y="0.5" dy="0.32em">200</text></g><g class="tick" opacity="1" transform="translate(0,79.3452380952381)"><line stroke="#000" x2="-6" y1="0.5" y2="0.5"></line><text fill="#000" x="-9" y="0.5" dy="0.32em">250</text></g><g class="tick" opacity="1" transform="translate(0,33.21428571428572)"><line stroke="#000" x2="-6" y1="0.5" y2="0.5"></line><text fill="#000" x="-9" y="0.5" dy="0.32em">300</text></g></g></g></svg>