<svg xmlns="http://www.w3.org/2000/svg" width="280" height="160"><defs><style type="text/css"><![CDATA[ 
.bar rect {
  fill-opacity: 0;
  stroke:       black;
  stroke-width: 0.5;
}

.highlight rect {
  fill:       red;
  fill-opacity: 1;
}
.axis path,
.axis line {
  fill: none;
  stroke: #000;
  shape-rendering: crispEdges;
}
path {
    stroke: red;
    fill: none;
}

line {
    stroke: red;
}

path.marker {
    fill: red;
}
 ]]></style></defs><g transform="translate(50,10)"><g class="bar" transform="translate(0,119.17241379310344)"><rect x="1" width="11.5" height="0.8275862068965552"></rect></g><g class="bar" transform="translate(12.5,108.82758620689656)"><rect x="1" width="11.5" height="11.172413793103445"></rect></g><g class="bar" transform="translate(25,81.93103448275862)"><rect x="1" width="11.5" height="38.06896551724138"></rect></g><g class="bar" transform="translate(37.5,55.0344827586207)"><rect x="1" width="11.5" height="64.9655172413793"></rect></g><g class="bar" transform="translate(50,25.93103448275862)"><rect x="1" width="11.5" height="94.06896551724138"></rect></g><g class="bar" transform="translate(62.5,3.0344827586206975)"><rect x="1" width="11.5" height="116.9655172413793"></rect></g><g class="bar" transform="translate(75,0)"><rect x="1" width="11.5" height="120"></rect></g><g class="bar" transform="translate(87.5,22.206896551724128)"><rect x="1" width="11.5" height="97.79310344827587"></rect></g><g class="bar" transform="translate(100,50.20689655172414)"><rect x="1" width="11.5" height="69.79310344827586"></rect></g><g class="bar" transform="translate(112.5,75.58620689655173)"><rect x="1" width="11.5" height="44.41379310344827"></rect></g><g class="bar" transform="translate(125,100.6896551724138)"><rect x="1" width="11.5" height="19.310344827586206"></rect></g><g class="bar" transform="translate(137.5,111.72413793103448)"><rect x="1" width="11.5" height="8.275862068965523"></rect></g><g class="bar" transform="translate(150,118.75862068965517)"><rect x="1" width="11.5" height="1.2413793103448256"></rect></g><g class="bar" transform="translate(162.5,120)"><rect x="1" width="11.5" height="0"></rect></g><g class="bar" transform="translate(175,120)"><rect x="1" width="11.5" height="0"></rect></g><g class="bar" transform="translate(187.5,120)"><rect x="1" width="11.5" height="0"></rect></g></g></svg>