<svg xmlns="http://www.w3.org/2000/svg" width="600" height="350"><defs><style type="text/css"><![CDATA[ 
.bar rect {
  fill-opacity: 0;
  stroke:       black;
  stroke-width: 0.5;
}

.highlight rect {
  fill:       red;
  fill-opacity: 1;
}
.axis path,
.axis line {
  fill: none;
  stroke: #000;
  shape-rendering: crispEdges;
}
path {
    stroke: red;
    fill: none;
}

line {
    stroke: red;
}

path.marker {
    fill: red;
}
 ]]></style></defs><g transform="translate(50,10)"><g class="bar" transform="translate(0,310)"><rect x="1" width="5.500000000000005" height="0"></rect></g><g class="bar" transform="translate(6.500000000000005,310)"><rect x="1" width="5.500000000000005" height="0"></rect></g><g class="bar" transform="translate(12.999999999999996,310)"><rect x="1" width="5.500000000000005" height="0"></rect></g><g class="bar" transform="translate(19.500000000000004,310)"><rect x="1" width="5.500000000000005" height="0"></rect></g><g class="bar" transform="translate(25.999999999999993,310)"><rect x="1" width="5.500000000000005" height="0"></rect></g><g class="bar" transform="translate(32.5,310)"><rect x="1" width="5.500000000000005" height="0"></rect></g><g class="bar" transform="translate(39.00000000000001,310)"><rect x="1" width="5.500000000000005" height="0"></rect></g><g class="bar" transform="translate(45.500000000000014,310)"><rect x="1" width="5.500000000000005" height="0"></rect></g><g class="bar" transform="translate(52,310)"><rect x="1" width="5.500000000000005" height="0"></rect></g><g class="bar" transform="translate(58.49999999999999,310)"><rect x="1" width="5.500000000000005" height="0"></rect></g><g class="bar" transform="translate(65,310)"><rect x="1" width="5.500000000000005" height="0"></rect></g><g class="bar" transform="translate(71.5,310)"><rect x="1" width="5.500000000000005" height="0"></rect></g><g class="bar" transform="translate(78.00000000000001,310)"><rect x="1" width="5.500000000000005" height="0"></rect></g><g class="bar" transform="translate(84.5,310)"><rect x="1" width="5.500000000000005" height="0"></rect></g><g class="bar" transform="translate(91.00000000000001,310)"><rect x="1" width="5.500000000000005" height="0"></rect></g><g class="bar" transform="translate(97.5,310)"><rect x="1" width="5.500000000000005" height="0"></rect></g><g class="bar" transform="translate(104,310)"><rect x="1" width="5.500000000000005" height="0"></rect></g><g class="bar" transform="translate(110.50000000000001,310)"><rect x="1" width="5.500000000000005" height="0"></rect></g><g class="bar" transform="translate(117,310)"><rect x="1" width="5.500000000000005" height="0"></rect></g><g class="bar" transform="translate(123.50000000000001,310)"><rect x="1" width="5.500000000000005" height="0"></rect></g><g class="bar" transform="translate(130,308.8167938931298)"><rect x="1" width="5.500000000000005" height="1.183206106870216"></rect></g><g class="bar" transform="translate(136.5,307.63358778625957)"><rect x="1" width="5.500000000000005" height="2.366412213740432"></rect></g><g class="bar" transform="translate(143,307.63358778625957)"><rect x="1" width="5.500000000000005" height="2.366412213740432"></rect></g><g class="bar" transform="translate(149.50000000000003,306.4503816793893)"><rect x="1" width="5.500000000000005" height="3.549618320610705"></rect></g><g class="bar" transform="translate(156.00000000000003,299.35114503816794)"><rect x="1" width="5.500000000000005" height="10.648854961832058"></rect></g><g class="bar" transform="translate(162.5,293.4351145038168)"><rect x="1" width="5.500000000000005" height="16.564885496183194"></rect></g><g class="bar" transform="translate(169,276.8702290076336)"><rect x="1" width="5.500000000000005" height="33.12977099236639"></rect></g><g class="bar" transform="translate(175.5,252.0229007633588)"><rect x="1" width="5.500000000000005" height="57.97709923664121"></rect></g><g class="bar" transform="translate(182.00000000000003,237.82442748091603)"><rect x="1" width="5.500000000000005" height="72.17557251908397"></rect></g><g class="bar" transform="translate(188.50000000000003,189.31297709923666)"><rect x="1" width="5.500000000000005" height="120.68702290076334"></rect></g><g class="bar" transform="translate(195,144.35114503816794)"><rect x="1" width="5.500000000000005" height="165.64885496183206"></rect></g><g class="bar" transform="translate(201.5,68.6259541984733)"><rect x="1" width="5.500000000000005" height="241.3740458015267"></rect></g><g class="bar" transform="translate(208,75.72519083969465)"><rect x="1" width="5.500000000000005" height="234.27480916030535"></rect></g><g class="bar" transform="translate(214.50000000000003,1.183206106870216)"><rect x="1" width="5.500000000000005" height="308.8167938931298"></rect></g><g class="bar" transform="translate(221.00000000000003,22.48091603053433)"><rect x="1" width="5.500000000000005" height="287.51908396946567"></rect></g><g class="bar" transform="translate(227.5,48.51145038167937)"><rect x="1" width="5.500000000000005" height="261.48854961832063"></rect></g><g class="bar" transform="translate(234,0)"><rect x="1" width="5.500000000000005" height="310"></rect></g><g class="bar" transform="translate(240.5,35.49618320610688)"><rect x="1" width="5.500000000000005" height="274.5038167938931"></rect></g><g class="bar" transform="translate(247.00000000000003,49.69465648854964)"><rect x="1" width="5.500000000000005" height="260.30534351145036"></rect></g><g class="bar" transform="translate(253.50000000000003,66.25954198473283)"><rect x="1" width="5.500000000000005" height="243.74045801526717"></rect></g><g class="bar" transform="translate(260,87.55725190839695)"><rect x="1" width="5.500000000000005" height="222.44274809160305"></rect></g><g class="bar" transform="translate(266.50000000000006,63.893129770992374)"><rect x="1" width="5.500000000000005" height="246.10687022900763"></rect></g><g class="bar" transform="translate(273,80.45801526717557)"><rect x="1" width="5.500000000000005" height="229.54198473282443"></rect></g><g class="bar" transform="translate(279.5,106.4885496183206)"><rect x="1" width="5.500000000000005" height="203.5114503816794"></rect></g><g class="bar" transform="translate(286,153.81679389312978)"><rect x="1" width="5.500000000000005" height="156.18320610687022"></rect></g><g class="bar" transform="translate(292.5,159.73282442748092)"><rect x="1" width="5.500000000000005" height="150.26717557251908"></rect></g><g class="bar" transform="translate(299.00000000000006,157.36641221374046)"><rect x="1" width="5.500000000000005" height="152.63358778625954"></rect></g><g class="bar" transform="translate(305.5,192.8625954198473)"><rect x="1" width="5.500000000000005" height="117.13740458015269"></rect></g><g class="bar" transform="translate(312.00000000000006,214.16030534351142)"><rect x="1" width="5.500000000000005" height="95.83969465648858"></rect></g><g class="bar" transform="translate(318.5,247.29007633587787)"><rect x="1" width="5.500000000000005" height="62.70992366412213"></rect></g><g class="bar" transform="translate(325,246.10687022900763)"><rect x="1" width="5.500000000000005" height="63.893129770992374"></rect></g><g class="bar" transform="translate(331.50000000000006,267.40458015267177)"><rect x="1" width="5.500000000000005" height="42.59541984732823"></rect></g><g class="bar" transform="translate(338,281.6030534351145)"><rect x="1" width="5.500000000000005" height="28.396946564885525"></rect></g><g class="bar" transform="translate(344.50000000000006,282.78625954198475)"><rect x="1" width="5.500000000000005" height="27.213740458015252"></rect></g><g class="bar" transform="translate(351,295.80152671755724)"><rect x="1" width="5.500000000000005" height="14.198473282442762"></rect></g><g class="bar" transform="translate(357.5,292.2519083969466)"><rect x="1" width="5.500000000000005" height="17.74809160305341"></rect></g><g class="bar" transform="translate(364.00000000000006,304.08396946564886)"><rect x="1" width="5.500000000000005" height="5.916030534351137"></rect></g><g class="bar" transform="translate(370.5,299.35114503816794)"><rect x="1" width="5.500000000000005" height="10.648854961832058"></rect></g><g class="bar" transform="translate(377.00000000000006,302.90076335877865)"><rect x="1" width="5.500000000000005" height="7.099236641221353"></rect></g><g class="bar" transform="translate(383.5,305.2671755725191)"><rect x="1" width="5.500000000000005" height="4.732824427480921"></rect></g><g class="bar" transform="translate(390,308.8167938931298)"><rect x="1" width="5.500000000000005" height="1.183206106870216"></rect></g><g class="bar" transform="translate(396.50000000000006,308.8167938931298)"><rect x="1" width="5.500000000000005" height="1.183206106870216"></rect></g><g class="bar" transform="translate(403,310)"><rect x="1" width="5.500000000000005" height="0"></rect></g><g class="bar" transform="translate(409.50000000000006,308.8167938931298)"><rect x="1" width="5.500000000000005" height="1.183206106870216"></rect></g><g class="bar" transform="translate(416,310)"><rect x="1" width="5.500000000000005" height="0"></rect></g><g class="bar" transform="translate(422.5,310)"><rect x="1" width="5.500000000000005" height="0"></rect></g><g class="bar" transform="translate(429.00000000000006,310)"><rect x="1" width="5.500000000000005" height="0"></rect></g><g class="bar" transform="translate(435.5,310)"><rect x="1" width="5.500000000000005" height="0"></rect></g><g class="bar" transform="translate(442.00000000000006,310)"><rect x="1" width="5.500000000000005" height="0"></rect></g><g class="bar" transform="translate(448.5,310)"><rect x="1" width="5.500000000000005" height="0"></rect></g><g class="bar" transform="translate(455,310)"><rect x="1" width="5.500000000000005" height="0"></rect></g><g class="bar" transform="translate(461.50000000000006,310)"><rect x="1" width="5.500000000000005" height="0"></rect></g><g class="bar" transform="translate(468,310)"><rect x="1" width="5.500000000000005" height="0"></rect></g><g class="bar" transform="translate(474.50000000000006,310)"><rect x="1" width="5.500000000000005" height="0"></rect></g><g class="bar" transform="translate(481,310)"><rect x="1" width="5.500000000000005" height="0"></rect></g><g class="bar" transform="translate(487.5,310)"><rect x="1" width="5.500000000000005" height="0"></rect></g><g class="bar" transform="translate(494.00000000000006,310)"><rect x="1" width="5.500000000000005" height="0"></rect></g><g class="bar" transform="translate(500.5,310)"><rect x="1" width="5.500000000000005" height="0"></rect></g><g class="bar" transform="translate(507.00000000000006,310)"><rect x="1" width="5.500000000000005" height="0"></rect></g><g class="bar" transform="translate(513.5,310)"><rect x="1" width="5.500000000000005" height="0"></rect></g><g class="axis axis--x" transform="translate(0,310)" fill="none" font-size="10" font-family="sans-serif" text-anchor="middle"><path class="domain" stroke="#000" d="M0.5,6V0.5H520.5V6"></path><g class="tick" opacity="1" transform="translate(0.5,0)"><line stroke="#000" y2="6"></line><text fill="#000" y="9" dy="0.71em">0.01</text></g><g class="tick" opacity="1" transform="translate(130.5,0)"><line stroke="#000" y2="6"></line><text fill="#000" y="9" dy="0.71em">1</text></g><g class="tick" opacity="1" transform="translate(260.5,0)"><line stroke="#000" y2="6"></line><text fill="#000" y="9" dy="0.71em">100</text></g><g class="tick" opacity="1" transform="translate(390.5,0)"><line stroke="#000" y2="6"></line><text fill="#000" y="9" dy="0.71em">10000</text></g><g class="tick" opacity="1" transform="translate(520.5,0)"><line stroke="#000" y2="6"></line><text fill="#000" y="9" dy="0.71em"></text></g></g><g class="axis axis--y" fill="none" font-size="10" font-family="sans-serif" text-anchor="end"><path class="domain" stroke="#000" d="M-6,310.5H0.5V0.5H-6"></path><g class="tick" opacity="1" transform="translate(0,310.5)"><line stroke="#000" x2="-6"></line><text fill="#000" x="-9" dy="0.32em">0</text></g><g class="tick" opacity="1" transform="translate(0,286.8358778625954)"><line stroke="#000" x2="-6"></line><text fill="#000" x="-9" dy="0.32em">20</text></g><g class="tick" opacity="1" transform="translate(0,263.17175572519085)"><line stroke="#000" x2="-6"></line><text fill="#000" x="-9" dy="0.32em">40</text></g><g class="tick" opacity="1" transform="translate(0,239.50763358778624)"><line stroke="#000" x2="-6"></line><text fill="#000" x="-9" dy="0.32em">60</text></g><g class="tick" opacity="1" transform="translate(0,215.8435114503817)"><line stroke="#000" x2="-6"></line><text fill="#000" x="-9" dy="0.32em">80</text></g><g class="tick" opacity="1" transform="translate(0,192.1793893129771)"><line stroke="#000" x2="-6"></line><text fill="#000" x="-9" dy="0.32em">100</text></g><g class="tick" opacity="1" transform="translate(0,168.51526717557252)"><line stroke="#000" x2="-6"></line><text fill="#000" x="-9" dy="0.32em">120</text></g><g class="tick" opacity="1" transform="translate(0,144.85114503816794)"><line stroke="#000" x2="-6"></line><text fill="#000" x="-9" dy="0.32em">140</text></g><g class="tick" opacity="1" transform="translate(0,121.18702290076337)"><line stroke="#000" x2="-6"></line><text fill="#000" x="-9" dy="0.32em">160</text></g><g class="tick" opacity="1" transform="translate(0,97.52290076335876)"><line stroke="#000" x2="-6"></line><text fill="#000" x="-9" dy="0.32em">180</text></g><g class="tick" opacity="1" transform="translate(0,73.85877862595419)"><line stroke="#000" x2="-6"></line><text fill="#000" x="-9" dy="0.32em">200</text></g><g class="tick" opacity="1" transform="translate(0,50.19465648854964)"><line stroke="#000" x2="-6"></line><text fill="#000" x="-9" dy="0.32em">220</text></g><g class="tick" opacity="1" transform="translate(0,26.530534351145036)"><line stroke="#000" x2="-6"></line><text fill="#000" x="-9" dy="0.32em">240</text></g><g class="tick" opacity="1" transform="translate(0,2.866412213740489)"><line stroke="#000" x2="-6"></line><text fill="#000" x="-9" dy="0.32em">260</text></g></g></g></svg>