<svg xmlns="http://www.w3.org/2000/svg" width="280" height="160"><defs><style type="text/css"><![CDATA[ 
.bar rect {
  fill-opacity: 0;
  stroke:       black;
  stroke-width: 0.5;
}

.highlight rect {
  fill:       red;
  fill-opacity: 1;
}
.axis path,
.axis line {
  fill: none;
  stroke: #000;
  shape-rendering: crispEdges;
}
 ]]></style></defs><g transform="translate(50,10)"><g class="bar" transform="translate(0,117.82650142993327)"><rect x="1" width="11.5" height="2.1734985700667266"></rect></g><g class="bar" transform="translate(12.5,107.01620591039085)"><rect x="1" width="11.5" height="12.983794089609148"></rect></g><g class="bar" transform="translate(25,74.35653002859867)"><rect x="1" width="11.5" height="45.64346997140133"></rect></g><g class="bar" transform="translate(37.5,26.367969494756906)"><rect x="1" width="11.5" height="93.6320305052431"></rect></g><g class="bar" transform="translate(50,4.861773117254529)"><rect x="1" width="11.5" height="115.13822688274547"></rect></g><g class="bar" transform="translate(62.5,0)"><rect x="1" width="11.5" height="120"></rect></g><g class="bar" transform="translate(75,16.358436606291704)"><rect x="1" width="11.5" height="103.6415633937083"></rect></g><g class="bar" transform="translate(87.5,47.01620591039085)"><rect x="1" width="11.5" height="72.98379408960915"></rect></g><g class="bar" transform="translate(100,74.29933269780744)"><rect x="1" width="11.5" height="45.70066730219256"></rect></g><g class="bar" transform="translate(112.5,93.63203050524308)"><rect x="1" width="11.5" height="26.36796949475692"></rect></g><g class="bar" transform="translate(125,111.76358436606291)"><rect x="1" width="11.5" height="8.236415633937085"></rect></g><g class="bar" transform="translate(137.5,118.16968541468064)"><rect x="1" width="11.5" height="1.830314585319357"></rect></g><g class="bar" transform="translate(150,119.65681601525262)"><rect x="1" width="11.5" height="0.3431839847473839"></rect></g><g class="bar" transform="translate(162.5,120)"><rect x="1" width="11.5" height="0"></rect></g><g class="bar" transform="translate(175,120)"><rect x="1" width="11.5" height="0"></rect></g><g class="bar" transform="translate(187.5,120)"><rect x="1" width="11.5" height="0"></rect></g></g></svg>