<svg xmlns="http://www.w3.org/2000/svg" width="280" height="160"><defs><style type="text/css"><![CDATA[ 
.bar rect {
  fill-opacity: 0;
  stroke:       black;
  stroke-width: 0.5;
}

.highlight rect {
  fill:       red;
  fill-opacity: 1;
}
.axis path,
.axis line {
  fill: none;
  stroke: #000;
  shape-rendering: crispEdges;
}
 ]]></style></defs><g transform="translate(50,10)"><g class="bar" transform="translate(0,107.18266253869969)"><rect x="1" width="11.5" height="12.817337461300312"></rect></g><g class="bar" transform="translate(12.5,106.25386996904025)"><rect x="1" width="11.5" height="13.746130030959748"></rect></g><g class="bar" transform="translate(25,89.72136222910217)"><rect x="1" width="11.5" height="30.27863777089783"></rect></g><g class="bar" transform="translate(37.5,55.913312693498455)"><rect x="1" width="11.5" height="64.08668730650155"></rect></g><g class="bar" transform="translate(50,34.17956656346749)"><rect x="1" width="11.5" height="85.82043343653251"></rect></g><g class="bar" transform="translate(62.5,0)"><rect x="1" width="11.5" height="120"></rect></g><g class="bar" transform="translate(75,0)"><rect x="1" width="11.5" height="120"></rect></g><g class="bar" transform="translate(87.5,13.56037151702786)"><rect x="1" width="11.5" height="106.43962848297214"></rect></g><g class="bar" transform="translate(100,27.492260061919495)"><rect x="1" width="11.5" height="92.5077399380805"></rect></g><g class="bar" transform="translate(112.5,54.05572755417957)"><rect x="1" width="11.5" height="65.94427244582043"></rect></g><g class="bar" transform="translate(125,82.6625386996904)"><rect x="1" width="11.5" height="37.3374613003096"></rect></g><g class="bar" transform="translate(137.5,112.56965944272446)"><rect x="1" width="11.5" height="7.430340557275542"></rect></g><g class="bar" transform="translate(150,119.25696594427245)"><rect x="1" width="11.5" height="0.7430340557275485"></rect></g><g class="bar" transform="translate(162.5,119.81424148606811)"><rect x="1" width="11.5" height="0.18575851393188714"></rect></g><g class="bar" transform="translate(175,120)"><rect x="1" width="11.5" height="0"></rect></g><g class="bar" transform="translate(187.5,120)"><rect x="1" width="11.5" height="0"></rect></g></g></svg>