<svg xmlns="http://www.w3.org/2000/svg" width="600" height="350"><defs><style type="text/css"><![CDATA[ 
.bar rect {
  fill-opacity: 0;
  stroke:       black;
  stroke-width: 0.5;
}

.highlight rect {
  fill:       red;
  fill-opacity: 1;
}
.axis path,
.axis line {
  fill: none;
  stroke: #000;
  shape-rendering: crispEdges;
}
path {
    stroke: red;
    fill: none;
}

line {
    stroke: red;
}

path.marker {
    fill: red;
}
 ]]></style></defs><g transform="translate(50,10)"><g class="bar" transform="translate(0,285.4524886877828)"><rect x="1" width="11.999999999999996" height="24.547511312217182"></rect></g><g class="bar" transform="translate(12.999999999999996,274.2307692307692)"><rect x="1" width="11.999999999999996" height="35.769230769230774"></rect></g><g class="bar" transform="translate(25.999999999999993,263.00904977375563)"><rect x="1" width="11.999999999999996" height="46.990950226244365"></rect></g><g class="bar" transform="translate(39.00000000000001,216.71945701357467)"><rect x="1" width="11.999999999999996" height="93.28054298642533"></rect></g><g class="bar" transform="translate(52,198.4841628959276)"><rect x="1" width="11.999999999999996" height="111.5158371040724"></rect></g><g class="bar" transform="translate(65,166.22171945701356)"><rect x="1" width="11.999999999999996" height="143.77828054298644"></rect></g><g class="bar" transform="translate(78.00000000000001,152.89592760180997)"><rect x="1" width="11.999999999999996" height="157.10407239819003"></rect></g><g class="bar" transform="translate(91.00000000000001,124.14027149321268)"><rect x="1" width="11.999999999999996" height="185.85972850678732"></rect></g><g class="bar" transform="translate(104,86.9683257918552)"><rect x="1" width="11.999999999999996" height="223.0316742081448"></rect></g><g class="bar" transform="translate(117,79.25339366515837)"><rect x="1" width="11.999999999999996" height="230.74660633484163"></rect></g><g class="bar" transform="translate(130,95.38461538461539)"><rect x="1" width="11.999999999999996" height="214.6153846153846"></rect></g><g class="bar" transform="translate(143,80.65610859728505)"><rect x="1" width="11.999999999999996" height="229.34389140271495"></rect></g><g class="bar" transform="translate(156.00000000000003,92.57918552036202)"><rect x="1" width="11.999999999999996" height="217.42081447963798"></rect></g><g class="bar" transform="translate(169,85.56561085972851)"><rect x="1" width="11.999999999999996" height="224.4343891402715"></rect></g><g class="bar" transform="translate(182.00000000000003,90.47511312217193)"><rect x="1" width="11.999999999999996" height="219.52488687782807"></rect></g><g class="bar" transform="translate(195,0)"><rect x="1" width="11.999999999999996" height="310"></rect></g><g class="bar" transform="translate(208,8.416289592760165)"><rect x="1" width="11.999999999999996" height="301.58371040723983"></rect></g><g class="bar" transform="translate(221.00000000000003,18.936651583710386)"><rect x="1" width="11.999999999999996" height="291.0633484162896"></rect></g><g class="bar" transform="translate(234,26.651583710407238)"><rect x="1" width="11.999999999999996" height="283.34841628959276"></rect></g><g class="bar" transform="translate(247.00000000000003,32.96380090497735)"><rect x="1" width="11.999999999999996" height="277.03619909502265"></rect></g><g class="bar" transform="translate(260,63.12217194570138)"><rect x="1" width="11.999999999999996" height="246.87782805429862"></rect></g><g class="bar" transform="translate(273,72.94117647058826)"><rect x="1" width="11.999999999999996" height="237.05882352941174"></rect></g><g class="bar" transform="translate(286,132.55656108597287)"><rect x="1" width="11.999999999999996" height="177.44343891402713"></rect></g><g class="bar" transform="translate(299.00000000000006,179.54751131221718)"><rect x="1" width="11.999999999999996" height="130.45248868778282"></rect></g><g class="bar" transform="translate(312.00000000000006,230.74660633484163)"><rect x="1" width="11.999999999999996" height="79.25339366515837"></rect></g><g class="bar" transform="translate(325,261.60633484162895)"><rect x="1" width="11.999999999999996" height="48.39366515837105"></rect></g><g class="bar" transform="translate(338,283.34841628959276)"><rect x="1" width="11.999999999999996" height="26.651583710407238"></rect></g><g class="bar" transform="translate(351,297.3755656108597)"><rect x="1" width="11.999999999999996" height="12.624434389140276"></rect></g><g class="bar" transform="translate(364.00000000000006,296.67420814479635)"><rect x="1" width="11.999999999999996" height="13.325791855203647"></rect></g><g class="bar" transform="translate(377.00000000000006,307.89592760180994)"><rect x="1" width="11.999999999999996" height="2.1040723981900555"></rect></g><g class="bar" transform="translate(390,305.7918552036199)"><rect x="1" width="11.999999999999996" height="4.208144796380111"></rect></g><g class="bar" transform="translate(403,308.5972850678733)"><rect x="1" width="11.999999999999996" height="1.4027149321266847"></rect></g><g class="bar" transform="translate(416,309.29864253393663)"><rect x="1" width="11.999999999999996" height="0.7013574660633708"></rect></g><g class="bar" transform="translate(429.00000000000006,310)"><rect x="1" width="11.999999999999996" height="0"></rect></g><g class="bar" transform="translate(442.00000000000006,310)"><rect x="1" width="11.999999999999996" height="0"></rect></g><g class="bar" transform="translate(455,310)"><rect x="1" width="11.999999999999996" height="0"></rect></g><g class="bar" transform="translate(468,310)"><rect x="1" width="11.999999999999996" height="0"></rect></g><g class="bar" transform="translate(481,310)"><rect x="1" width="11.999999999999996" height="0"></rect></g><g class="bar" transform="translate(494.00000000000006,310)"><rect x="1" width="11.999999999999996" height="0"></rect></g><g class="bar" transform="translate(507.00000000000006,310)"><rect x="1" width="11.999999999999996" height="0"></rect></g><g class="axis axis--x" transform="translate(0,310)" fill="none" font-size="10" font-family="sans-serif" text-anchor="middle"><path class="domain" stroke="#000" d="M0.5,6V0.5H520.5V6"></path><g class="tick" opacity="1" transform="translate(0.5,0)"><line stroke="#000" y2="6"></line><text fill="#000" y="9" dy="0.71em">0.01</text></g><g class="tick" opacity="1" transform="translate(130.5,0)"><line stroke="#000" y2="6"></line><text fill="#000" y="9" dy="0.71em">1</text></g><g class="tick" opacity="1" transform="translate(260.5,0)"><line stroke="#000" y2="6"></line><text fill="#000" y="9" dy="0.71em">100</text></g><g class="tick" opacity="1" transform="translate(390.5,0)"><line stroke="#000" y2="6"></line><text fill="#000" y="9" dy="0.71em">10000</text></g><g class="tick" opacity="1" transform="translate(520.5,0)"><line stroke="#000" y2="6"></line><text fill="#000" y="9" dy="0.71em"></text></g></g><g class="axis axis--y" fill="none" font-size="10" font-family="sans-serif" text-anchor="end"><path class="domain" stroke="#000" d="M-6,310.5H0.5V0.5H-6"></path><g class="tick" opacity="1" transform="translate(0,310.5)"><line stroke="#000" x2="-6"></line><text fill="#000" x="-9" dy="0.32em">0</text></g><g class="tick" opacity="1" transform="translate(0,275.4321266968326)"><line stroke="#000" x2="-6"></line><text fill="#000" x="-9" dy="0.32em">50</text></g><g class="tick" opacity="1" transform="translate(0,240.36425339366514)"><line stroke="#000" x2="-6"></line><text fill="#000" x="-9" dy="0.32em">100</text></g><g class="tick" opacity="1" transform="translate(0,205.29638009049773)"><line stroke="#000" x2="-6"></line><text fill="#000" x="-9" dy="0.32em">150</text></g><g class="tick" opacity="1" transform="translate(0,170.2285067873303)"><line stroke="#000" x2="-6"></line><text fill="#000" x="-9" dy="0.32em">200</text></g><g class="tick" opacity="1" transform="translate(0,135.1606334841629)"><line stroke="#000" x2="-6"></line><text fill="#000" x="-9" dy="0.32em">250</text></g><g class="tick" opacity="1" transform="translate(0,100.09276018099547)"><line stroke="#000" x2="-6"></line><text fill="#000" x="-9" dy="0.32em">300</text></g><g class="tick" opacity="1" transform="translate(0,65.02488687782807)"><line stroke="#000" x2="-6"></line><text fill="#000" x="-9" dy="0.32em">350</text></g><g class="tick" opacity="1" transform="translate(0,29.957013574660607)"><line stroke="#000" x2="-6"></line><text fill="#000" x="-9" dy="0.32em">400</text></g></g></g></svg>