<svg xmlns="http://www.w3.org/2000/svg" width="280" height="160"><defs><style type="text/css"><![CDATA[ 
.bar rect {
  fill-opacity: 0;
  stroke:       black;
  stroke-width: 0.5;
}

.highlight rect {
  fill:       red;
  fill-opacity: 1;
}
.axis path,
.axis line {
  fill: none;
  stroke: #000;
  shape-rendering: crispEdges;
}
path {
    stroke: red;
    fill: none;
}

line {
    stroke: red;
}

path.marker {
    fill: red;
}
 ]]></style></defs><g transform="translate(50,10)"><g class="bar" transform="translate(0,107.65840220385675)"><rect x="1" width="11.5" height="12.341597796143247"></rect></g><g class="bar" transform="translate(12.5,83.30578512396694)"><rect x="1" width="11.5" height="36.69421487603306"></rect></g><g class="bar" transform="translate(25,60.71625344352617)"><rect x="1" width="11.5" height="59.28374655647383"></rect></g><g class="bar" transform="translate(37.5,31.515151515151516)"><rect x="1" width="11.5" height="88.48484848484848"></rect></g><g class="bar" transform="translate(50,34.0495867768595)"><rect x="1" width="11.5" height="85.9504132231405"></rect></g><g class="bar" transform="translate(62.5,32.286501377410474)"><rect x="1" width="11.5" height="87.71349862258953"></rect></g><g class="bar" transform="translate(75,0)"><rect x="1" width="11.5" height="120"></rect></g><g class="bar" transform="translate(87.5,10.137741046831962)"><rect x="1" width="11.5" height="109.86225895316804"></rect></g><g class="bar" transform="translate(100,28.650137741046834)"><rect x="1" width="11.5" height="91.34986225895317"></rect></g><g class="bar" transform="translate(112.5,74.49035812672176)"><rect x="1" width="11.5" height="45.50964187327824"></rect></g><g class="bar" transform="translate(125,106.77685950413223)"><rect x="1" width="11.5" height="13.223140495867767"></rect></g><g class="bar" transform="translate(137.5,117.02479338842976)"><rect x="1" width="11.5" height="2.9752066115702434"></rect></g><g class="bar" transform="translate(150,119.11845730027548)"><rect x="1" width="11.5" height="0.8815426997245197"></rect></g><g class="bar" transform="translate(162.5,119.88980716253444)"><rect x="1" width="11.5" height="0.11019283746556141"></rect></g><g class="bar" transform="translate(175,120)"><rect x="1" width="11.5" height="0"></rect></g><g class="bar" transform="translate(187.5,120)"><rect x="1" width="11.5" height="0"></rect></g></g></svg>