<svg xmlns="http://www.w3.org/2000/svg" width="280" height="160"><defs><style type="text/css"><![CDATA[ 
.bar rect {
  fill-opacity: 0;
  stroke:       black;
  stroke-width: 0.5;
}

.highlight rect {
  fill:       red;
  fill-opacity: 1;
}
.axis path,
.axis line {
  fill: none;
  stroke: #000;
  shape-rendering: crispEdges;
}
 ]]></style></defs><g transform="translate(50,10)"><g class="bar" transform="translate(0,120)"><rect x="1" width="11.5" height="0"></rect></g><g class="bar" transform="translate(12.5,119.88668555240793)"><rect x="1" width="11.5" height="0.11331444759207443"></rect></g><g class="bar" transform="translate(25,119.20679886685552)"><rect x="1" width="11.5" height="0.7932011331444784"></rect></g><g class="bar" transform="translate(37.5,107.53541076487252)"><rect x="1" width="11.5" height="12.464589235127477"></rect></g><g class="bar" transform="translate(50,75.35410764872522)"><rect x="1" width="11.5" height="44.64589235127478"></rect></g><g class="bar" transform="translate(62.5,61.64305949008499)"><rect x="1" width="11.5" height="58.35694050991501"></rect></g><g class="bar" transform="translate(75,27.195467422096314)"><rect x="1" width="11.5" height="92.80453257790369"></rect></g><g class="bar" transform="translate(87.5,0)"><rect x="1" width="11.5" height="120"></rect></g><g class="bar" transform="translate(100,15.864022662889525)"><rect x="1" width="11.5" height="104.13597733711048"></rect></g><g class="bar" transform="translate(112.5,53.8243626062323)"><rect x="1" width="11.5" height="66.1756373937677"></rect></g><g class="bar" transform="translate(125,94.61756373937678)"><rect x="1" width="11.5" height="25.382436260623223"></rect></g><g class="bar" transform="translate(137.5,118.52691218130312)"><rect x="1" width="11.5" height="1.4730878186968823"></rect></g><g class="bar" transform="translate(150,120)"><rect x="1" width="11.5" height="0"></rect></g><g class="bar" transform="translate(162.5,120)"><rect x="1" width="11.5" height="0"></rect></g><g class="bar" transform="translate(175,120)"><rect x="1" width="11.5" height="0"></rect></g><g class="bar" transform="translate(187.5,120)"><rect x="1" width="11.5" height="0"></rect></g></g></svg>