<svg xmlns="http://www.w3.org/2000/svg" width="600" height="350"><defs><style type="text/css"><![CDATA[ 
.bar rect {
  fill-opacity: 0;
  stroke:       black;
  stroke-width: 0.5;
}

.highlight rect {
  fill:       red;
  fill-opacity: 1;
}
.axis path,
.axis line {
  fill: none;
  stroke: #000;
  shape-rendering: crispEdges;
}
 ]]></style></defs><g transform="translate(50,10)"><g class="bar" transform="translate(0,310)"><rect x="1" width="11.999999999999996" height="0"></rect></g><g class="bar" transform="translate(12.999999999999996,310)"><rect x="1" width="11.999999999999996" height="0"></rect></g><g class="bar" transform="translate(25.999999999999993,310)"><rect x="1" width="11.999999999999996" height="0"></rect></g><g class="bar" transform="translate(39.00000000000001,310)"><rect x="1" width="11.999999999999996" height="0"></rect></g><g class="bar" transform="translate(52,309.3290043290043)"><rect x="1" width="11.999999999999996" height="0.6709956709956941"></rect></g><g class="bar" transform="translate(65,309.3290043290043)"><rect x="1" width="11.999999999999996" height="0.6709956709956941"></rect></g><g class="bar" transform="translate(78.00000000000001,307.987012987013)"><rect x="1" width="11.999999999999996" height="2.0129870129870255"></rect></g><g class="bar" transform="translate(91.00000000000001,305.3030303030303)"><rect x="1" width="11.999999999999996" height="4.696969696969688"></rect></g><g class="bar" transform="translate(104,289.1991341991342)"><rect x="1" width="11.999999999999996" height="20.80086580086578"></rect></g><g class="bar" transform="translate(117,259.67532467532465)"><rect x="1" width="11.999999999999996" height="50.324675324675354"></rect></g><g class="bar" transform="translate(130,209.35064935064935)"><rect x="1" width="11.999999999999996" height="100.64935064935065"></rect></g><g class="bar" transform="translate(143,204.65367965367966)"><rect x="1" width="11.999999999999996" height="105.34632034632034"></rect></g><g class="bar" transform="translate(156.00000000000003,184.52380952380952)"><rect x="1" width="11.999999999999996" height="125.47619047619048"></rect></g><g class="bar" transform="translate(169,176.47186147186147)"><rect x="1" width="11.999999999999996" height="133.52813852813853"></rect></g><g class="bar" transform="translate(182.00000000000003,165.06493506493507)"><rect x="1" width="11.999999999999996" height="144.93506493506493"></rect></g><g class="bar" transform="translate(195,105.34632034632034)"><rect x="1" width="11.999999999999996" height="204.65367965367966"></rect></g><g class="bar" transform="translate(208,83.87445887445887)"><rect x="1" width="11.999999999999996" height="226.12554112554113"></rect></g><g class="bar" transform="translate(221.00000000000003,77.83549783549785)"><rect x="1" width="11.999999999999996" height="232.16450216450215"></rect></g><g class="bar" transform="translate(234,22.813852813852805)"><rect x="1" width="11.999999999999996" height="287.1861471861472"></rect></g><g class="bar" transform="translate(247.00000000000003,0)"><rect x="1" width="11.999999999999996" height="310"></rect></g><g class="bar" transform="translate(260,36.23376623376623)"><rect x="1" width="11.999999999999996" height="273.76623376623377"></rect></g><g class="bar" transform="translate(273,63.07359307359306)"><rect x="1" width="11.999999999999996" height="246.92640692640694"></rect></g><g class="bar" transform="translate(286,122.79220779220779)"><rect x="1" width="11.999999999999996" height="187.2077922077922"></rect></g><g class="bar" transform="translate(299.00000000000006,149.63203463203465)"><rect x="1" width="11.999999999999996" height="160.36796536796535"></rect></g><g class="bar" transform="translate(312.00000000000006,169.76190476190476)"><rect x="1" width="11.999999999999996" height="140.23809523809524"></rect></g><g class="bar" transform="translate(325,221.42857142857144)"><rect x="1" width="11.999999999999996" height="88.57142857142856"></rect></g><g class="bar" transform="translate(338,257.6623376623377)"><rect x="1" width="11.999999999999996" height="52.33766233766232"></rect></g><g class="bar" transform="translate(351,296.5800865800866)"><rect x="1" width="11.999999999999996" height="13.419913419913428"></rect></g><g class="bar" transform="translate(364.00000000000006,305.97402597402595)"><rect x="1" width="11.999999999999996" height="4.025974025974051"></rect></g><g class="bar" transform="translate(377.00000000000006,309.3290043290043)"><rect x="1" width="11.999999999999996" height="0.6709956709956941"></rect></g><g class="bar" transform="translate(390,310)"><rect x="1" width="11.999999999999996" height="0"></rect></g><g class="bar" transform="translate(403,310)"><rect x="1" width="11.999999999999996" height="0"></rect></g><g class="bar" transform="translate(416,310)"><rect x="1" width="11.999999999999996" height="0"></rect></g><g class="bar" transform="translate(429.00000000000006,310)"><rect x="1" width="11.999999999999996" height="0"></rect></g><g class="bar" transform="translate(442.00000000000006,310)"><rect x="1" width="11.999999999999996" height="0"></rect></g><g class="bar" transform="translate(455,310)"><rect x="1" width="11.999999999999996" height="0"></rect></g><g class="bar" transform="translate(468,310)"><rect x="1" width="11.999999999999996" height="0"></rect></g><g class="bar" transform="translate(481,310)"><rect x="1" width="11.999999999999996" height="0"></rect></g><g class="bar" transform="translate(494.00000000000006,310)"><rect x="1" width="11.999999999999996" height="0"></rect></g><g class="bar" transform="translate(507.00000000000006,310)"><rect x="1" width="11.999999999999996" height="0"></rect></g><g class="axis axis--x" transform="translate(0,310)" fill="none" font-size="10" font-family="sans-serif" text-anchor="middle"><path class="domain" stroke="#000" d="M0.5,6V0.5H520.5V6"></path><g class="tick" opacity="1" transform="translate(0,0)"><line stroke="#000" y2="6" x1="0.5" x2="0.5"></line><text fill="#000" y="9" x="0.5" dy="0.71em">0.01</text></g><g class="tick" opacity="1" transform="translate(130,0)"><line stroke="#000" y2="6" x1="0.5" x2="0.5"></line><text fill="#000" y="9" x="0.5" dy="0.71em">1</text></g><g class="tick" opacity="1" transform="translate(260,0)"><line stroke="#000" y2="6" x1="0.5" x2="0.5"></line><text fill="#000" y="9" x="0.5" dy="0.71em">100</text></g><g class="tick" opacity="1" transform="translate(390,0)"><line stroke="#000" y2="6" x1="0.5" x2="0.5"></line><text fill="#000" y="9" x="0.5" dy="0.71em">10000</text></g><g class="tick" opacity="1" transform="translate(520,0)"><line stroke="#000" y2="6" x1="0.5" x2="0.5"></line><text fill="#000" y="9" x="0.5" dy="0.71em"></text></g></g><g class="axis axis--y" fill="none" font-size="10" font-family="sans-serif" text-anchor="end"><path class="domain" stroke="#000" d="M-6,310.5H0.5V0.5H-6"></path><g class="tick" opacity="1" transform="translate(0,310)"><line stroke="#000" x2="-6" y1="0.5" y2="0.5"></line><text fill="#000" x="-9" y="0.5" dy="0.32em">0</text></g><g class="tick" opacity="1" transform="translate(0,276.45021645021643)"><line stroke="#000" x2="-6" y1="0.5" y2="0.5"></line><text fill="#000" x="-9" y="0.5" dy="0.32em">50</text></g><g class="tick" opacity="1" transform="translate(0,242.90043290043292)"><line stroke="#000" x2="-6" y1="0.5" y2="0.5"></line><text fill="#000" x="-9" y="0.5" dy="0.32em">100</text></g><g class="tick" opacity="1" transform="translate(0,209.35064935064935)"><line stroke="#000" x2="-6" y1="0.5" y2="0.5"></line><text fill="#000" x="-9" y="0.5" dy="0.32em">150</text></g><g class="tick" opacity="1" transform="translate(0,175.8008658008658)"><line stroke="#000" x2="-6" y1="0.5" y2="0.5"></line><text fill="#000" x="-9" y="0.5" dy="0.32em">200</text></g><g class="tick" opacity="1" transform="translate(0,142.25108225108227)"><line stroke="#000" x2="-6" y1="0.5" y2="0.5"></line><text fill="#000" x="-9" y="0.5" dy="0.32em">250</text></g><g class="tick" opacity="1" transform="translate(0,108.7012987012987)"><line stroke="#000" x2="-6" y1="0.5" y2="0.5"></line><text fill="#000" x="-9" y="0.5" dy="0.32em">300</text></g><g class="tick" opacity="1" transform="translate(0,75.15151515151516)"><line stroke="#000" x2="-6" y1="0.5" y2="0.5"></line><text fill="#000" x="-9" y="0.5" dy="0.32em">350</text></g><g class="tick" opacity="1" transform="translate(0,41.601731601731615)"><line stroke="#000" x2="-6" y1="0.5" y2="0.5"></line><text fill="#000" x="-9" y="0.5" dy="0.32em">400</text></g><g class="tick" opacity="1" transform="translate(0,8.051948051948045)"><line stroke="#000" x2="-6" y1="0.5" y2="0.5"></line><text fill="#000" x="-9" y="0.5" dy="0.32em">450</text></g></g></g></svg>