<svg xmlns="http://www.w3.org/2000/svg" width="600" height="350"><defs><style type="text/css"><![CDATA[ 
.bar rect {
  fill-opacity: 0;
  stroke:       black;
  stroke-width: 0.5;
}

.highlight rect {
  fill:       red;
  fill-opacity: 1;
}
.axis path,
.axis line {
  fill: none;
  stroke: #000;
  shape-rendering: crispEdges;
}
path {
    stroke: red;
    fill: none;
}

line {
    stroke: red;
}

path.marker {
    fill: red;
}
 ]]></style></defs><g transform="translate(50,10)"><g class="bar" transform="translate(0,310)"><rect x="1" width="11.999999999999996" height="0"></rect></g><g class="bar" transform="translate(12.999999999999996,308.8167938931298)"><rect x="1" width="11.999999999999996" height="1.183206106870216"></rect></g><g class="bar" transform="translate(25.999999999999993,310)"><rect x="1" width="11.999999999999996" height="0"></rect></g><g class="bar" transform="translate(39.00000000000001,306.4503816793893)"><rect x="1" width="11.999999999999996" height="3.549618320610705"></rect></g><g class="bar" transform="translate(52,298.1679389312977)"><rect x="1" width="11.999999999999996" height="11.832061068702274"></rect></g><g class="bar" transform="translate(65,300.53435114503816)"><rect x="1" width="11.999999999999996" height="9.465648854961842"></rect></g><g class="bar" transform="translate(78.00000000000001,280.41984732824426)"><rect x="1" width="11.999999999999996" height="29.58015267175574"></rect></g><g class="bar" transform="translate(91.00000000000001,265.0381679389313)"><rect x="1" width="11.999999999999996" height="44.96183206106872"></rect></g><g class="bar" transform="translate(104,236.6412213740458)"><rect x="1" width="11.999999999999996" height="73.35877862595419"></rect></g><g class="bar" transform="translate(117,131.33587786259542)"><rect x="1" width="11.999999999999996" height="178.66412213740458"></rect></g><g class="bar" transform="translate(130,118.32061068702288)"><rect x="1" width="11.999999999999996" height="191.67938931297712"></rect></g><g class="bar" transform="translate(143,81.64122137404581)"><rect x="1" width="11.999999999999996" height="228.3587786259542"></rect></g><g class="bar" transform="translate(156.00000000000003,80.45801526717557)"><rect x="1" width="11.999999999999996" height="229.54198473282443"></rect></g><g class="bar" transform="translate(169,46.145038167938935)"><rect x="1" width="11.999999999999996" height="263.85496183206106"></rect></g><g class="bar" transform="translate(182.00000000000003,2.366412213740489)"><rect x="1" width="11.999999999999996" height="307.6335877862595"></rect></g><g class="bar" transform="translate(195,53.24427480916029)"><rect x="1" width="11.999999999999996" height="256.7557251908397"></rect></g><g class="bar" transform="translate(208,49.69465648854964)"><rect x="1" width="11.999999999999996" height="260.30534351145036"></rect></g><g class="bar" transform="translate(221.00000000000003,15.381679389312978)"><rect x="1" width="11.999999999999996" height="294.618320610687"></rect></g><g class="bar" transform="translate(234,0)"><rect x="1" width="11.999999999999996" height="310"></rect></g><g class="bar" transform="translate(247.00000000000003,67.44274809160305)"><rect x="1" width="11.999999999999996" height="242.55725190839695"></rect></g><g class="bar" transform="translate(260,140.80152671755727)"><rect x="1" width="11.999999999999996" height="169.19847328244273"></rect></g><g class="bar" transform="translate(273,150.26717557251908)"><rect x="1" width="11.999999999999996" height="159.73282442748092"></rect></g><g class="bar" transform="translate(286,197.59541984732823)"><rect x="1" width="11.999999999999996" height="112.40458015267177"></rect></g><g class="bar" transform="translate(299.00000000000006,204.6946564885496)"><rect x="1" width="11.999999999999996" height="105.30534351145039"></rect></g><g class="bar" transform="translate(312.00000000000006,223.62595419847327)"><rect x="1" width="11.999999999999996" height="86.37404580152673"></rect></g><g class="bar" transform="translate(325,236.6412213740458)"><rect x="1" width="11.999999999999996" height="73.35877862595419"></rect></g><g class="bar" transform="translate(338,257.9389312977099)"><rect x="1" width="11.999999999999996" height="52.06106870229007"></rect></g><g class="bar" transform="translate(351,282.78625954198475)"><rect x="1" width="11.999999999999996" height="27.213740458015252"></rect></g><g class="bar" transform="translate(364.00000000000006,291.0687022900763)"><rect x="1" width="11.999999999999996" height="18.931297709923683"></rect></g><g class="bar" transform="translate(377.00000000000006,300.53435114503816)"><rect x="1" width="11.999999999999996" height="9.465648854961842"></rect></g><g class="bar" transform="translate(390,306.4503816793893)"><rect x="1" width="11.999999999999996" height="3.549618320610705"></rect></g><g class="bar" transform="translate(403,306.4503816793893)"><rect x="1" width="11.999999999999996" height="3.549618320610705"></rect></g><g class="bar" transform="translate(416,310)"><rect x="1" width="11.999999999999996" height="0"></rect></g><g class="bar" transform="translate(429.00000000000006,310)"><rect x="1" width="11.999999999999996" height="0"></rect></g><g class="bar" transform="translate(442.00000000000006,307.63358778625957)"><rect x="1" width="11.999999999999996" height="2.366412213740432"></rect></g><g class="bar" transform="translate(455,308.8167938931298)"><rect x="1" width="11.999999999999996" height="1.183206106870216"></rect></g><g class="bar" transform="translate(468,310)"><rect x="1" width="11.999999999999996" height="0"></rect></g><g class="bar" transform="translate(481,310)"><rect x="1" width="11.999999999999996" height="0"></rect></g><g class="bar" transform="translate(494.00000000000006,310)"><rect x="1" width="11.999999999999996" height="0"></rect></g><g class="bar" transform="translate(507.00000000000006,310)"><rect x="1" width="11.999999999999996" height="0"></rect></g><g class="axis axis--x" transform="translate(0,310)" fill="none" font-size="10" font-family="sans-serif" text-anchor="middle"><path class="domain" stroke="#000" d="M0.5,6V0.5H520.5V6"></path><g class="tick" opacity="1" transform="translate(0.5,0)"><line stroke="#000" y2="6"></line><text fill="#000" y="9" dy="0.71em">0.01</text></g><g class="tick" opacity="1" transform="translate(130.5,0)"><line stroke="#000" y2="6"></line><text fill="#000" y="9" dy="0.71em">1</text></g><g class="tick" opacity="1" transform="translate(260.5,0)"><line stroke="#000" y2="6"></line><text fill="#000" y="9" dy="0.71em">100</text></g><g class="tick" opacity="1" transform="translate(390.5,0)"><line stroke="#000" y2="6"></line><text fill="#000" y="9" dy="0.71em">10000</text></g><g class="tick" opacity="1" transform="translate(520.5,0)"><line stroke="#000" y2="6"></line><text fill="#000" y="9" dy="0.71em"></text></g></g><g class="axis axis--y" fill="none" font-size="10" font-family="sans-serif" text-anchor="end"><path class="domain" stroke="#000" d="M-6,310.5H0.5V0.5H-6"></path><g class="tick" opacity="1" transform="translate(0,310.5)"><line stroke="#000" x2="-6"></line><text fill="#000" x="-9" dy="0.32em">0</text></g><g class="tick" opacity="1" transform="translate(0,286.8358778625954)"><line stroke="#000" x2="-6"></line><text fill="#000" x="-9" dy="0.32em">20</text></g><g class="tick" opacity="1" transform="translate(0,263.17175572519085)"><line stroke="#000" x2="-6"></line><text fill="#000" x="-9" dy="0.32em">40</text></g><g class="tick" opacity="1" transform="translate(0,239.50763358778624)"><line stroke="#000" x2="-6"></line><text fill="#000" x="-9" dy="0.32em">60</text></g><g class="tick" opacity="1" transform="translate(0,215.8435114503817)"><line stroke="#000" x2="-6"></line><text fill="#000" x="-9" dy="0.32em">80</text></g><g class="tick" opacity="1" transform="translate(0,192.1793893129771)"><line stroke="#000" x2="-6"></line><text fill="#000" x="-9" dy="0.32em">100</text></g><g class="tick" opacity="1" transform="translate(0,168.51526717557252)"><line stroke="#000" x2="-6"></line><text fill="#000" x="-9" dy="0.32em">120</text></g><g class="tick" opacity="1" transform="translate(0,144.85114503816794)"><line stroke="#000" x2="-6"></line><text fill="#000" x="-9" dy="0.32em">140</text></g><g class="tick" opacity="1" transform="translate(0,121.18702290076337)"><line stroke="#000" x2="-6"></line><text fill="#000" x="-9" dy="0.32em">160</text></g><g class="tick" opacity="1" transform="translate(0,97.52290076335876)"><line stroke="#000" x2="-6"></line><text fill="#000" x="-9" dy="0.32em">180</text></g><g class="tick" opacity="1" transform="translate(0,73.85877862595419)"><line stroke="#000" x2="-6"></line><text fill="#000" x="-9" dy="0.32em">200</text></g><g class="tick" opacity="1" transform="translate(0,50.19465648854964)"><line stroke="#000" x2="-6"></line><text fill="#000" x="-9" dy="0.32em">220</text></g><g class="tick" opacity="1" transform="translate(0,26.530534351145036)"><line stroke="#000" x2="-6"></line><text fill="#000" x="-9" dy="0.32em">240</text></g><g class="tick" opacity="1" transform="translate(0,2.866412213740489)"><line stroke="#000" x2="-6"></line><text fill="#000" x="-9" dy="0.32em">260</text></g></g></g></svg>