<svg xmlns="http://www.w3.org/2000/svg" width="600" height="350"><defs><style type="text/css"><![CDATA[ 
.bar rect {
  fill-opacity: 0;
  stroke:       black;
  stroke-width: 0.5;
}

.highlight rect {
  fill:       red;
  fill-opacity: 1;
}
.axis path,
.axis line {
  fill: none;
  stroke: #000;
  shape-rendering: crispEdges;
}
path {
    stroke: red;
    fill: none;
}

line {
    stroke: red;
}

path.marker {
    fill: red;
}
 ]]></style></defs><g transform="translate(50,10)"><g class="bar" transform="translate(0,306.3953488372093)"><rect x="1" width="11.999999999999996" height="3.604651162790674"></rect></g><g class="bar" transform="translate(12.999999999999996,307.29651162790697)"><rect x="1" width="11.999999999999996" height="2.703488372093034"></rect></g><g class="bar" transform="translate(25.999999999999993,307.29651162790697)"><rect x="1" width="11.999999999999996" height="2.703488372093034"></rect></g><g class="bar" transform="translate(39.00000000000001,306.3953488372093)"><rect x="1" width="11.999999999999996" height="3.604651162790674"></rect></g><g class="bar" transform="translate(52,302.7906976744186)"><rect x="1" width="11.999999999999996" height="7.209302325581405"></rect></g><g class="bar" transform="translate(65,301.88953488372096)"><rect x="1" width="11.999999999999996" height="8.110465116279045"></rect></g><g class="bar" transform="translate(78.00000000000001,286.56976744186045)"><rect x="1" width="11.999999999999996" height="23.43023255813955"></rect></g><g class="bar" transform="translate(91.00000000000001,282.0639534883721)"><rect x="1" width="11.999999999999996" height="27.93604651162792"></rect></g><g class="bar" transform="translate(104,222.58720930232556)"><rect x="1" width="11.999999999999996" height="87.41279069767444"></rect></g><g class="bar" transform="translate(117,173.92441860465115)"><rect x="1" width="11.999999999999996" height="136.07558139534885"></rect></g><g class="bar" transform="translate(130,123.4593023255814)"><rect x="1" width="11.999999999999996" height="186.5406976744186"></rect></g><g class="bar" transform="translate(143,70.2906976744186)"><rect x="1" width="11.999999999999996" height="239.7093023255814"></rect></g><g class="bar" transform="translate(156.00000000000003,37.8488372093023)"><rect x="1" width="11.999999999999996" height="272.1511627906977"></rect></g><g class="bar" transform="translate(169,8.110465116279101)"><rect x="1" width="11.999999999999996" height="301.8895348837209"></rect></g><g class="bar" transform="translate(182.00000000000003,0)"><rect x="1" width="11.999999999999996" height="310"></rect></g><g class="bar" transform="translate(195,47.76162790697674)"><rect x="1" width="11.999999999999996" height="262.23837209302326"></rect></g><g class="bar" transform="translate(208,18.92441860465118)"><rect x="1" width="11.999999999999996" height="291.0755813953488"></rect></g><g class="bar" transform="translate(221.00000000000003,50.465116279069775)"><rect x="1" width="11.999999999999996" height="259.5348837209302"></rect></g><g class="bar" transform="translate(234,44.15697674418607)"><rect x="1" width="11.999999999999996" height="265.84302325581393"></rect></g><g class="bar" transform="translate(247.00000000000003,64.88372093023256)"><rect x="1" width="11.999999999999996" height="245.11627906976744"></rect></g><g class="bar" transform="translate(260,101.83139534883722)"><rect x="1" width="11.999999999999996" height="208.16860465116278"></rect></g><g class="bar" transform="translate(273,158.6046511627907)"><rect x="1" width="11.999999999999996" height="151.3953488372093"></rect></g><g class="bar" transform="translate(286,163.11046511627907)"><rect x="1" width="11.999999999999996" height="146.88953488372093"></rect></g><g class="bar" transform="translate(299.00000000000006,202.76162790697674)"><rect x="1" width="11.999999999999996" height="107.23837209302326"></rect></g><g class="bar" transform="translate(312.00000000000006,210.87209302325581)"><rect x="1" width="11.999999999999996" height="99.12790697674419"></rect></g><g class="bar" transform="translate(325,237.90697674418607)"><rect x="1" width="11.999999999999996" height="72.09302325581393"></rect></g><g class="bar" transform="translate(338,277.5581395348837)"><rect x="1" width="11.999999999999996" height="32.44186046511629"></rect></g><g class="bar" transform="translate(351,280.26162790697674)"><rect x="1" width="11.999999999999996" height="29.73837209302326"></rect></g><g class="bar" transform="translate(364.00000000000006,275.75581395348837)"><rect x="1" width="11.999999999999996" height="34.24418604651163"></rect></g><g class="bar" transform="translate(377.00000000000006,304.59302325581393)"><rect x="1" width="11.999999999999996" height="5.406976744186068"></rect></g><g class="bar" transform="translate(390,300.98837209302326)"><rect x="1" width="11.999999999999996" height="9.011627906976742"></rect></g><g class="bar" transform="translate(403,308.19767441860466)"><rect x="1" width="11.999999999999996" height="1.802325581395337"></rect></g><g class="bar" transform="translate(416,310)"><rect x="1" width="11.999999999999996" height="0"></rect></g><g class="bar" transform="translate(429.00000000000006,310)"><rect x="1" width="11.999999999999996" height="0"></rect></g><g class="bar" transform="translate(442.00000000000006,310)"><rect x="1" width="11.999999999999996" height="0"></rect></g><g class="bar" transform="translate(455,310)"><rect x="1" width="11.999999999999996" height="0"></rect></g><g class="bar" transform="translate(468,310)"><rect x="1" width="11.999999999999996" height="0"></rect></g><g class="bar" transform="translate(481,310)"><rect x="1" width="11.999999999999996" height="0"></rect></g><g class="bar" transform="translate(494.00000000000006,310)"><rect x="1" width="11.999999999999996" height="0"></rect></g><g class="bar" transform="translate(507.00000000000006,310)"><rect x="1" width="11.999999999999996" height="0"></rect></g><g class="axis axis--x" transform="translate(0,310)" fill="none" font-size="10" font-family="sans-serif" text-anchor="middle"><path class="domain" stroke="#000" d="M0.5,6V0.5H520.5V6"></path><g class="tick" opacity="1" transform="translate(0.5,0)"><line stroke="#000" y2="6"></line><text fill="#000" y="9" dy="0.71em">0.01</text></g><g class="tick" opacity="1" transform="translate(130.5,0)"><line stroke="#000" y2="6"></line><text fill="#000" y="9" dy="0.71em">1</text></g><g class="tick" opacity="1" transform="translate(260.5,0)"><line stroke="#000" y2="6"></line><text fill="#000" y="9" dy="0.71em">100</text></g><g class="tick" opacity="1" transform="translate(390.5,0)"><line stroke="#000" y2="6"></line><text fill="#000" y="9" dy="0.71em">10000</text></g><g class="tick" opacity="1" transform="translate(520.5,0)"><line stroke="#000" y2="6"></line><text fill="#000" y="9" dy="0.71em"></text></g></g><g class="axis axis--y" fill="none" font-size="10" font-family="sans-serif" text-anchor="end"><path class="domain" stroke="#000" d="M-6,310.5H0.5V0.5H-6"></path><g class="tick" opacity="1" transform="translate(0,310.5)"><line stroke="#000" x2="-6"></line><text fill="#000" x="-9" dy="0.32em">0</text></g><g class="tick" opacity="1" transform="translate(0,265.4418604651163)"><line stroke="#000" x2="-6"></line><text fill="#000" x="-9" dy="0.32em">50</text></g><g class="tick" opacity="1" transform="translate(0,220.38372093023256)"><line stroke="#000" x2="-6"></line><text fill="#000" x="-9" dy="0.32em">100</text></g><g class="tick" opacity="1" transform="translate(0,175.32558139534885)"><line stroke="#000" x2="-6"></line><text fill="#000" x="-9" dy="0.32em">150</text></g><g class="tick" opacity="1" transform="translate(0,130.2674418604651)"><line stroke="#000" x2="-6"></line><text fill="#000" x="-9" dy="0.32em">200</text></g><g class="tick" opacity="1" transform="translate(0,85.2093023255814)"><line stroke="#000" x2="-6"></line><text fill="#000" x="-9" dy="0.32em">250</text></g><g class="tick" opacity="1" transform="translate(0,40.1511627906977)"><line stroke="#000" x2="-6"></line><text fill="#000" x="-9" dy="0.32em">300</text></g></g></g></svg>