<svg xmlns="http://www.w3.org/2000/svg" width="600" height="350"><defs><style type="text/css"><![CDATA[ 
.bar rect {
  fill-opacity: 0;
  stroke:       black;
  stroke-width: 0.5;
}

.highlight rect {
  fill:       red;
  fill-opacity: 1;
}
.axis path,
.axis line {
  fill: none;
  stroke: #000;
  shape-rendering: crispEdges;
}
 ]]></style></defs><g transform="translate(50,10)"><g class="bar" transform="translate(0,143.71225577264653)"><rect x="1" width="11.999999999999996" height="166.28774422735347"></rect></g><g class="bar" transform="translate(12.999999999999996,107.92184724689167)"><rect x="1" width="11.999999999999996" height="202.07815275310833"></rect></g><g class="bar" transform="translate(25.999999999999993,121.13676731793959)"><rect x="1" width="11.999999999999996" height="188.8632326820604"></rect></g><g class="bar" transform="translate(39.00000000000001,56.71403197158082)"><rect x="1" width="11.999999999999996" height="253.28596802841918"></rect></g><g class="bar" transform="translate(52,46.25222024866787)"><rect x="1" width="11.999999999999996" height="263.74777975133213"></rect></g><g class="bar" transform="translate(65,0)"><rect x="1" width="11.999999999999996" height="310"></rect></g><g class="bar" transform="translate(78.00000000000001,14.316163410301954)"><rect x="1" width="11.999999999999996" height="295.68383658969805"></rect></g><g class="bar" transform="translate(91.00000000000001,24.227353463587917)"><rect x="1" width="11.999999999999996" height="285.7726465364121"></rect></g><g class="bar" transform="translate(104,50.6571936056838)"><rect x="1" width="11.999999999999996" height="259.3428063943162"></rect></g><g class="bar" transform="translate(117,57.264653641207815)"><rect x="1" width="11.999999999999996" height="252.73534635879219"></rect></g><g class="bar" transform="translate(130,65.52397868561278)"><rect x="1" width="11.999999999999996" height="244.47602131438722"></rect></g><g class="bar" transform="translate(143,68.82770870337478)"><rect x="1" width="11.999999999999996" height="241.17229129662522"></rect></g><g class="bar" transform="translate(156.00000000000003,45.701598579040876)"><rect x="1" width="11.999999999999996" height="264.2984014209591"></rect></g><g class="bar" transform="translate(169,38.54351687388987)"><rect x="1" width="11.999999999999996" height="271.45648312611013"></rect></g><g class="bar" transform="translate(182.00000000000003,91.4031971580817)"><rect x="1" width="11.999999999999996" height="218.5968028419183"></rect></g><g class="bar" transform="translate(195,110.12433392539964)"><rect x="1" width="11.999999999999996" height="199.87566607460036"></rect></g><g class="bar" transform="translate(208,165.18650088809946)"><rect x="1" width="11.999999999999996" height="144.81349911190054"></rect></g><g class="bar" transform="translate(221.00000000000003,187.76198934280637)"><rect x="1" width="11.999999999999996" height="122.23801065719363"></rect></g><g class="bar" transform="translate(234,95.80817051509771)"><rect x="1" width="11.999999999999996" height="214.19182948490229"></rect></g><g class="bar" transform="translate(247.00000000000003,6.056838365897022)"><rect x="1" width="11.999999999999996" height="303.943161634103"></rect></g><g class="bar" transform="translate(260,41.84724689165188)"><rect x="1" width="11.999999999999996" height="268.1527531083481"></rect></g><g class="bar" transform="translate(273,56.16341030195383)"><rect x="1" width="11.999999999999996" height="253.83658969804617"></rect></g><g class="bar" transform="translate(286,129.94671403197157)"><rect x="1" width="11.999999999999996" height="180.05328596802843"></rect></g><g class="bar" transform="translate(299.00000000000006,207.0337477797513)"><rect x="1" width="11.999999999999996" height="102.96625222024869"></rect></g><g class="bar" transform="translate(312.00000000000006,252.1847246891652)"><rect x="1" width="11.999999999999996" height="57.81527531083481"></rect></g><g class="bar" transform="translate(325,245.5772646536412)"><rect x="1" width="11.999999999999996" height="64.42273534635879"></rect></g><g class="bar" transform="translate(338,285.7726465364121)"><rect x="1" width="11.999999999999996" height="24.227353463587917"></rect></g><g class="bar" transform="translate(351,297.886323268206)"><rect x="1" width="11.999999999999996" height="12.113676731793987"></rect></g><g class="bar" transform="translate(364.00000000000006,305.595026642984)"><rect x="1" width="11.999999999999996" height="4.40497335701599"></rect></g><g class="bar" transform="translate(377.00000000000006,307.246891651865)"><rect x="1" width="11.999999999999996" height="2.753108348135015"></rect></g><g class="bar" transform="translate(390,306.696269982238)"><rect x="1" width="11.999999999999996" height="3.303730017762007"></rect></g><g class="bar" transform="translate(403,309.449378330373)"><rect x="1" width="11.999999999999996" height="0.5506216696269917"></rect></g><g class="bar" transform="translate(416,310)"><rect x="1" width="11.999999999999996" height="0"></rect></g><g class="bar" transform="translate(429.00000000000006,310)"><rect x="1" width="11.999999999999996" height="0"></rect></g><g class="bar" transform="translate(442.00000000000006,310)"><rect x="1" width="11.999999999999996" height="0"></rect></g><g class="bar" transform="translate(455,310)"><rect x="1" width="11.999999999999996" height="0"></rect></g><g class="bar" transform="translate(468,310)"><rect x="1" width="11.999999999999996" height="0"></rect></g><g class="bar" transform="translate(481,310)"><rect x="1" width="11.999999999999996" height="0"></rect></g><g class="bar" transform="translate(494.00000000000006,310)"><rect x="1" width="11.999999999999996" height="0"></rect></g><g class="bar" transform="translate(507.00000000000006,310)"><rect x="1" width="11.999999999999996" height="0"></rect></g><g class="axis axis--x" transform="translate(0,310)" fill="none" font-size="10" font-family="sans-serif" text-anchor="middle"><path class="domain" stroke="#000" d="M0.5,6V0.5H520.5V6"></path><g class="tick" opacity="1" transform="translate(0,0)"><line stroke="#000" y2="6" x1="0.5" x2="0.5"></line><text fill="#000" y="9" x="0.5" dy="0.71em">0.01</text></g><g class="tick" opacity="1" transform="translate(130,0)"><line stroke="#000" y2="6" x1="0.5" x2="0.5"></line><text fill="#000" y="9" x="0.5" dy="0.71em">1</text></g><g class="tick" opacity="1" transform="translate(260,0)"><line stroke="#000" y2="6" x1="0.5" x2="0.5"></line><text fill="#000" y="9" x="0.5" dy="0.71em">100</text></g><g class="tick" opacity="1" transform="translate(390,0)"><line stroke="#000" y2="6" x1="0.5" x2="0.5"></line><text fill="#000" y="9" x="0.5" dy="0.71em">10000</text></g><g class="tick" opacity="1" transform="translate(520,0)"><line stroke="#000" y2="6" x1="0.5" x2="0.5"></line><text fill="#000" y="9" x="0.5" dy="0.71em"></text></g></g><g class="axis axis--y" fill="none" font-size="10" font-family="sans-serif" text-anchor="end"><path class="domain" stroke="#000" d="M-6,310.5H0.5V0.5H-6"></path><g class="tick" opacity="1" transform="translate(0,310)"><line stroke="#000" x2="-6" y1="0.5" y2="0.5"></line><text fill="#000" x="-9" y="0.5" dy="0.32em">0</text></g><g class="tick" opacity="1" transform="translate(0,282.4689165186501)"><line stroke="#000" x2="-6" y1="0.5" y2="0.5"></line><text fill="#000" x="-9" y="0.5" dy="0.32em">50</text></g><g class="tick" opacity="1" transform="translate(0,254.93783303730018)"><line stroke="#000" x2="-6" y1="0.5" y2="0.5"></line><text fill="#000" x="-9" y="0.5" dy="0.32em">100</text></g><g class="tick" opacity="1" transform="translate(0,227.40674955595028)"><line stroke="#000" x2="-6" y1="0.5" y2="0.5"></line><text fill="#000" x="-9" y="0.5" dy="0.32em">150</text></g><g class="tick" opacity="1" transform="translate(0,199.87566607460036)"><line stroke="#000" x2="-6" y1="0.5" y2="0.5"></line><text fill="#000" x="-9" y="0.5" dy="0.32em">200</text></g><g class="tick" opacity="1" transform="translate(0,172.34458259325044)"><line stroke="#000" x2="-6" y1="0.5" y2="0.5"></line><text fill="#000" x="-9" y="0.5" dy="0.32em">250</text></g><g class="tick" opacity="1" transform="translate(0,144.81349911190054)"><line stroke="#000" x2="-6" y1="0.5" y2="0.5"></line><text fill="#000" x="-9" y="0.5" dy="0.32em">300</text></g><g class="tick" opacity="1" transform="translate(0,117.28241563055062)"><line stroke="#000" x2="-6" y1="0.5" y2="0.5"></line><text fill="#000" x="-9" y="0.5" dy="0.32em">350</text></g><g class="tick" opacity="1" transform="translate(0,89.75133214920072)"><line stroke="#000" x2="-6" y1="0.5" y2="0.5"></line><text fill="#000" x="-9" y="0.5" dy="0.32em">400</text></g><g class="tick" opacity="1" transform="translate(0,62.2202486678508)"><line stroke="#000" x2="-6" y1="0.5" y2="0.5"></line><text fill="#000" x="-9" y="0.5" dy="0.32em">450</text></g><g class="tick" opacity="1" transform="translate(0,34.68916518650087)"><line stroke="#000" x2="-6" y1="0.5" y2="0.5"></line><text fill="#000" x="-9" y="0.5" dy="0.32em">500</text></g><g class="tick" opacity="1" transform="translate(0,7.158081705150948)"><line stroke="#000" x2="-6" y1="0.5" y2="0.5"></line><text fill="#000" x="-9" y="0.5" dy="0.32em">550</text></g></g></g></svg>