<svg xmlns="http://www.w3.org/2000/svg" width="280" height="160"><defs><style type="text/css"><![CDATA[ 
.bar rect {
  fill-opacity: 0;
  stroke:       black;
  stroke-width: 0.5;
}

.highlight rect {
  fill:       red;
  fill-opacity: 1;
}
.axis path,
.axis line {
  fill: none;
  stroke: #000;
  shape-rendering: crispEdges;
}
path {
    stroke: red;
    fill: none;
}

line {
    stroke: red;
}

path.marker {
    fill: red;
}
 ]]></style></defs><g transform="translate(50,10)"><g class="bar" transform="translate(0,120)"><rect x="1" width="11.5" height="0"></rect></g><g class="bar" transform="translate(12.5,120)"><rect x="1" width="11.5" height="0"></rect></g><g class="bar" transform="translate(25,120)"><rect x="1" width="11.5" height="0"></rect></g><g class="bar" transform="translate(37.5,118.50622406639005)"><rect x="1" width="11.5" height="1.4937759336099532"></rect></g><g class="bar" transform="translate(50,111.28630705394191)"><rect x="1" width="11.5" height="8.713692946058089"></rect></g><g class="bar" transform="translate(62.5,88.38174273858921)"><rect x="1" width="11.5" height="31.61825726141079"></rect></g><g class="bar" transform="translate(75,53.27800829875518)"><rect x="1" width="11.5" height="66.72199170124482"></rect></g><g class="bar" transform="translate(87.5,0)"><rect x="1" width="11.5" height="120"></rect></g><g class="bar" transform="translate(100,15.933609958506224)"><rect x="1" width="11.5" height="104.06639004149378"></rect></g><g class="bar" transform="translate(112.5,43.81742738589212)"><rect x="1" width="11.5" height="76.18257261410788"></rect></g><g class="bar" transform="translate(125,88.38174273858921)"><rect x="1" width="11.5" height="31.61825726141079"></rect></g><g class="bar" transform="translate(137.5,108.04979253112033)"><rect x="1" width="11.5" height="11.950207468879668"></rect></g><g class="bar" transform="translate(150,116.01659751037344)"><rect x="1" width="11.5" height="3.983402489626556"></rect></g><g class="bar" transform="translate(162.5,120)"><rect x="1" width="11.5" height="0"></rect></g><g class="bar" transform="translate(175,120)"><rect x="1" width="11.5" height="0"></rect></g><g class="bar" transform="translate(187.5,120)"><rect x="1" width="11.5" height="0"></rect></g></g></svg>