<svg xmlns="http://www.w3.org/2000/svg" width="600" height="350"><defs><style type="text/css"><![CDATA[ 
.bar rect {
  fill-opacity: 0;
  stroke:       black;
  stroke-width: 0.5;
}

.highlight rect {
  fill:       red;
  fill-opacity: 1;
}
.axis path,
.axis line {
  fill: none;
  stroke: #000;
  shape-rendering: crispEdges;
}
path {
    stroke: red;
    fill: none;
}

line {
    stroke: red;
}

path.marker {
    fill: red;
}
 ]]></style></defs><g transform="translate(50,10)"><g class="bar" transform="translate(0,310)"><rect x="1" width="11.999999999999996" height="0"></rect></g><g class="bar" transform="translate(12.999999999999996,310)"><rect x="1" width="11.999999999999996" height="0"></rect></g><g class="bar" transform="translate(25.999999999999993,310)"><rect x="1" width="11.999999999999996" height="0"></rect></g><g class="bar" transform="translate(39.00000000000001,310)"><rect x="1" width="11.999999999999996" height="0"></rect></g><g class="bar" transform="translate(52,310)"><rect x="1" width="11.999999999999996" height="0"></rect></g><g class="bar" transform="translate(65,310)"><rect x="1" width="11.999999999999996" height="0"></rect></g><g class="bar" transform="translate(78.00000000000001,310)"><rect x="1" width="11.999999999999996" height="0"></rect></g><g class="bar" transform="translate(91.00000000000001,310)"><rect x="1" width="11.999999999999996" height="0"></rect></g><g class="bar" transform="translate(104,306.9)"><rect x="1" width="11.999999999999996" height="3.1000000000000227"></rect></g><g class="bar" transform="translate(117,303.8)"><rect x="1" width="11.999999999999996" height="6.199999999999989"></rect></g><g class="bar" transform="translate(130,291.4)"><rect x="1" width="11.999999999999996" height="18.600000000000023"></rect></g><g class="bar" transform="translate(143,283.65)"><rect x="1" width="11.999999999999996" height="26.350000000000023"></rect></g><g class="bar" transform="translate(156.00000000000003,288.3)"><rect x="1" width="11.999999999999996" height="21.69999999999999"></rect></g><g class="bar" transform="translate(169,232.5)"><rect x="1" width="11.999999999999996" height="77.5"></rect></g><g class="bar" transform="translate(182.00000000000003,203.05)"><rect x="1" width="11.999999999999996" height="106.94999999999999"></rect></g><g class="bar" transform="translate(195,173.6)"><rect x="1" width="11.999999999999996" height="136.4"></rect></g><g class="bar" transform="translate(208,147.25)"><rect x="1" width="11.999999999999996" height="162.75"></rect></g><g class="bar" transform="translate(221.00000000000003,58.89999999999998)"><rect x="1" width="11.999999999999996" height="251.10000000000002"></rect></g><g class="bar" transform="translate(234,0)"><rect x="1" width="11.999999999999996" height="310"></rect></g><g class="bar" transform="translate(247.00000000000003,7.75)"><rect x="1" width="11.999999999999996" height="302.25"></rect></g><g class="bar" transform="translate(260,15.5)"><rect x="1" width="11.999999999999996" height="294.5"></rect></g><g class="bar" transform="translate(273,63.54999999999998)"><rect x="1" width="11.999999999999996" height="246.45000000000002"></rect></g><g class="bar" transform="translate(286,97.64999999999998)"><rect x="1" width="11.999999999999996" height="212.35000000000002"></rect></g><g class="bar" transform="translate(299.00000000000006,91.45000000000002)"><rect x="1" width="11.999999999999996" height="218.54999999999998"></rect></g><g class="bar" transform="translate(312.00000000000006,159.65)"><rect x="1" width="11.999999999999996" height="150.35"></rect></g><g class="bar" transform="translate(325,226.3)"><rect x="1" width="11.999999999999996" height="83.69999999999999"></rect></g><g class="bar" transform="translate(338,221.65)"><rect x="1" width="11.999999999999996" height="88.35"></rect></g><g class="bar" transform="translate(351,265.05)"><rect x="1" width="11.999999999999996" height="44.94999999999999"></rect></g><g class="bar" transform="translate(364.00000000000006,274.35)"><rect x="1" width="11.999999999999996" height="35.64999999999998"></rect></g><g class="bar" transform="translate(377.00000000000006,291.4)"><rect x="1" width="11.999999999999996" height="18.600000000000023"></rect></g><g class="bar" transform="translate(390,292.95)"><rect x="1" width="11.999999999999996" height="17.05000000000001"></rect></g><g class="bar" transform="translate(403,303.8)"><rect x="1" width="11.999999999999996" height="6.199999999999989"></rect></g><g class="bar" transform="translate(416,308.45)"><rect x="1" width="11.999999999999996" height="1.5500000000000114"></rect></g><g class="bar" transform="translate(429.00000000000006,310)"><rect x="1" width="11.999999999999996" height="0"></rect></g><g class="bar" transform="translate(442.00000000000006,310)"><rect x="1" width="11.999999999999996" height="0"></rect></g><g class="bar" transform="translate(455,310)"><rect x="1" width="11.999999999999996" height="0"></rect></g><g class="bar" transform="translate(468,310)"><rect x="1" width="11.999999999999996" height="0"></rect></g><g class="bar" transform="translate(481,310)"><rect x="1" width="11.999999999999996" height="0"></rect></g><g class="bar" transform="translate(494.00000000000006,310)"><rect x="1" width="11.999999999999996" height="0"></rect></g><g class="bar" transform="translate(507.00000000000006,310)"><rect x="1" width="11.999999999999996" height="0"></rect></g><g class="axis axis--x" transform="translate(0,310)" fill="none" font-size="10" font-family="sans-serif" text-anchor="middle"><path class="domain" stroke="#000" d="M0.5,6V0.5H520.5V6"></path><g class="tick" opacity="1" transform="translate(0.5,0)"><line stroke="#000" y2="6"></line><text fill="#000" y="9" dy="0.71em">0.01</text></g><g class="tick" opacity="1" transform="translate(130.5,0)"><line stroke="#000" y2="6"></line><text fill="#000" y="9" dy="0.71em">1</text></g><g class="tick" opacity="1" transform="translate(260.5,0)"><line stroke="#000" y2="6"></line><text fill="#000" y="9" dy="0.71em">100</text></g><g class="tick" opacity="1" transform="translate(390.5,0)"><line stroke="#000" y2="6"></line><text fill="#000" y="9" dy="0.71em">10000</text></g><g class="tick" opacity="1" transform="translate(520.5,0)"><line stroke="#000" y2="6"></line><text fill="#000" y="9" dy="0.71em"></text></g></g><g class="axis axis--y" fill="none" font-size="10" font-family="sans-serif" text-anchor="end"><path class="domain" stroke="#000" d="M-6,310.5H0.5V0.5H-6"></path><g class="tick" opacity="1" transform="translate(0,310.5)"><line stroke="#000" x2="-6"></line><text fill="#000" x="-9" dy="0.32em">0</text></g><g class="tick" opacity="1" transform="translate(0,279.5)"><line stroke="#000" x2="-6"></line><text fill="#000" x="-9" dy="0.32em">20</text></g><g class="tick" opacity="1" transform="translate(0,248.5)"><line stroke="#000" x2="-6"></line><text fill="#000" x="-9" dy="0.32em">40</text></g><g class="tick" opacity="1" transform="translate(0,217.5)"><line stroke="#000" x2="-6"></line><text fill="#000" x="-9" dy="0.32em">60</text></g><g class="tick" opacity="1" transform="translate(0,186.5)"><line stroke="#000" x2="-6"></line><text fill="#000" x="-9" dy="0.32em">80</text></g><g class="tick" opacity="1" transform="translate(0,155.5)"><line stroke="#000" x2="-6"></line><text fill="#000" x="-9" dy="0.32em">100</text></g><g class="tick" opacity="1" transform="translate(0,124.5)"><line stroke="#000" x2="-6"></line><text fill="#000" x="-9" dy="0.32em">120</text></g><g class="tick" opacity="1" transform="translate(0,93.5)"><line stroke="#000" x2="-6"></line><text fill="#000" x="-9" dy="0.32em">140</text></g><g class="tick" opacity="1" transform="translate(0,62.5)"><line stroke="#000" x2="-6"></line><text fill="#000" x="-9" dy="0.32em">160</text></g><g class="tick" opacity="1" transform="translate(0,31.5)"><line stroke="#000" x2="-6"></line><text fill="#000" x="-9" dy="0.32em">180</text></g><g class="tick" opacity="1" transform="translate(0,0.5)"><line stroke="#000" x2="-6"></line><text fill="#000" x="-9" dy="0.32em">200</text></g></g></g></svg>