<svg xmlns="http://www.w3.org/2000/svg" width="280" height="160"><defs><style type="text/css"><![CDATA[ 
.bar rect {
  fill-opacity: 0;
  stroke:       black;
  stroke-width: 0.5;
}

.highlight rect {
  fill:       red;
  fill-opacity: 1;
}
.axis path,
.axis line {
  fill: none;
  stroke: #000;
  shape-rendering: crispEdges;
}
path {
    stroke: red;
    fill: none;
}

line {
    stroke: red;
}

path.marker {
    fill: red;
}
 ]]></style></defs><g transform="translate(50,10)"><g class="bar" transform="translate(0,119.05511811023622)"><rect x="1" width="11.5" height="0.9448818897637778"></rect></g><g class="bar" transform="translate(12.5,114.80314960629921)"><rect x="1" width="11.5" height="5.196850393700785"></rect></g><g class="bar" transform="translate(25,99.92125984251969)"><rect x="1" width="11.5" height="20.07874015748031"></rect></g><g class="bar" transform="translate(37.5,74.1732283464567)"><rect x="1" width="11.5" height="45.826771653543304"></rect></g><g class="bar" transform="translate(50,34.13385826771655)"><rect x="1" width="11.5" height="85.86614173228345"></rect></g><g class="bar" transform="translate(62.5,4.8425196850393775)"><rect x="1" width="11.5" height="115.15748031496062"></rect></g><g class="bar" transform="translate(75,0)"><rect x="1" width="11.5" height="120"></rect></g><g class="bar" transform="translate(87.5,18.307086614173215)"><rect x="1" width="11.5" height="101.69291338582678"></rect></g><g class="bar" transform="translate(100,55.86614173228345)"><rect x="1" width="11.5" height="64.13385826771655"></rect></g><g class="bar" transform="translate(112.5,81.85039370078741)"><rect x="1" width="11.5" height="38.14960629921259"></rect></g><g class="bar" transform="translate(125,103.81889763779527)"><rect x="1" width="11.5" height="16.181102362204726"></rect></g><g class="bar" transform="translate(137.5,115.15748031496064)"><rect x="1" width="11.5" height="4.842519685039363"></rect></g><g class="bar" transform="translate(150,119.40944881889764)"><rect x="1" width="11.5" height="0.5905511811023558"></rect></g><g class="bar" transform="translate(162.5,120)"><rect x="1" width="11.5" height="0"></rect></g><g class="bar" transform="translate(175,120)"><rect x="1" width="11.5" height="0"></rect></g><g class="bar" transform="translate(187.5,120)"><rect x="1" width="11.5" height="0"></rect></g></g></svg>