<svg xmlns="http://www.w3.org/2000/svg" width="600" height="350"><defs><style type="text/css"><![CDATA[ 
.bar rect {
  fill-opacity: 0;
  stroke:       black;
  stroke-width: 0.5;
}

.highlight rect {
  fill:       red;
  fill-opacity: 1;
}
.axis path,
.axis line {
  fill: none;
  stroke: #000;
  shape-rendering: crispEdges;
}
path {
    stroke: red;
    fill: none;
}

line {
    stroke: red;
}

path.marker {
    fill: red;
}
 ]]></style></defs><g transform="translate(50,10)"><g class="bar" transform="translate(0,310)"><rect x="1" width="5.500000000000005" height="0"></rect></g><g class="bar" transform="translate(6.500000000000005,310)"><rect x="1" width="5.500000000000005" height="0"></rect></g><g class="bar" transform="translate(12.999999999999996,310)"><rect x="1" width="5.500000000000005" height="0"></rect></g><g class="bar" transform="translate(19.500000000000004,310)"><rect x="1" width="5.500000000000005" height="0"></rect></g><g class="bar" transform="translate(25.999999999999993,310)"><rect x="1" width="5.500000000000005" height="0"></rect></g><g class="bar" transform="translate(32.5,310)"><rect x="1" width="5.500000000000005" height="0"></rect></g><g class="bar" transform="translate(39.00000000000001,310)"><rect x="1" width="5.500000000000005" height="0"></rect></g><g class="bar" transform="translate(45.500000000000014,310)"><rect x="1" width="5.500000000000005" height="0"></rect></g><g class="bar" transform="translate(52,310)"><rect x="1" width="5.500000000000005" height="0"></rect></g><g class="bar" transform="translate(58.49999999999999,310)"><rect x="1" width="5.500000000000005" height="0"></rect></g><g class="bar" transform="translate(65,310)"><rect x="1" width="5.500000000000005" height="0"></rect></g><g class="bar" transform="translate(71.5,310)"><rect x="1" width="5.500000000000005" height="0"></rect></g><g class="bar" transform="translate(78.00000000000001,310)"><rect x="1" width="5.500000000000005" height="0"></rect></g><g class="bar" transform="translate(84.5,309.43223443223445)"><rect x="1" width="5.500000000000005" height="0.567765567765548"></rect></g><g class="bar" transform="translate(91.00000000000001,310)"><rect x="1" width="5.500000000000005" height="0"></rect></g><g class="bar" transform="translate(97.5,310)"><rect x="1" width="5.500000000000005" height="0"></rect></g><g class="bar" transform="translate(104,310)"><rect x="1" width="5.500000000000005" height="0"></rect></g><g class="bar" transform="translate(110.50000000000001,309.43223443223445)"><rect x="1" width="5.500000000000005" height="0.567765567765548"></rect></g><g class="bar" transform="translate(117,304.32234432234435)"><rect x="1" width="5.500000000000005" height="5.67765567765565"></rect></g><g class="bar" transform="translate(123.50000000000001,307.72893772893775)"><rect x="1" width="5.500000000000005" height="2.271062271062249"></rect></g><g class="bar" transform="translate(130,306.5934065934066)"><rect x="1" width="5.500000000000005" height="3.4065934065934016"></rect></g><g class="bar" transform="translate(136.5,295.23809523809524)"><rect x="1" width="5.500000000000005" height="14.76190476190476"></rect></g><g class="bar" transform="translate(143,299.2124542124542)"><rect x="1" width="5.500000000000005" height="10.78754578754581"></rect></g><g class="bar" transform="translate(149.50000000000003,289.56043956043953)"><rect x="1" width="5.500000000000005" height="20.439560439560466"></rect></g><g class="bar" transform="translate(156.00000000000003,285.01831501831504)"><rect x="1" width="5.500000000000005" height="24.981684981684964"></rect></g><g class="bar" transform="translate(162.5,256.06227106227107)"><rect x="1" width="5.500000000000005" height="53.937728937728934"></rect></g><g class="bar" transform="translate(169,234.4871794871795)"><rect x="1" width="5.500000000000005" height="75.5128205128205"></rect></g><g class="bar" transform="translate(175.5,190.2014652014652)"><rect x="1" width="5.500000000000005" height="119.7985347985348"></rect></g><g class="bar" transform="translate(182.00000000000003,131.72161172161174)"><rect x="1" width="5.500000000000005" height="178.27838827838826"></rect></g><g class="bar" transform="translate(188.50000000000003,74.94505494505495)"><rect x="1" width="5.500000000000005" height="235.05494505494505"></rect></g><g class="bar" transform="translate(195,30.65934065934067)"><rect x="1" width="5.500000000000005" height="279.34065934065933"></rect></g><g class="bar" transform="translate(201.5,5.109890109890102)"><rect x="1" width="5.500000000000005" height="304.8901098901099"></rect></g><g class="bar" transform="translate(208,0)"><rect x="1" width="5.500000000000005" height="310"></rect></g><g class="bar" transform="translate(214.50000000000003,21.575091575091562)"><rect x="1" width="5.500000000000005" height="288.42490842490844"></rect></g><g class="bar" transform="translate(221.00000000000003,32.36263736263737)"><rect x="1" width="5.500000000000005" height="277.6373626373626"></rect></g><g class="bar" transform="translate(227.5,48.260073260073284)"><rect x="1" width="5.500000000000005" height="261.7399267399267"></rect></g><g class="bar" transform="translate(234,88.00366300366301)"><rect x="1" width="5.500000000000005" height="221.996336996337"></rect></g><g class="bar" transform="translate(240.5,118.66300366300365)"><rect x="1" width="5.500000000000005" height="191.33699633699635"></rect></g><g class="bar" transform="translate(247.00000000000003,174.87179487179486)"><rect x="1" width="5.500000000000005" height="135.12820512820514"></rect></g><g class="bar" transform="translate(253.50000000000003,178.2783882783883)"><rect x="1" width="5.500000000000005" height="131.7216117216117"></rect></g><g class="bar" transform="translate(260,204.39560439560438)"><rect x="1" width="5.500000000000005" height="105.60439560439562"></rect></g><g class="bar" transform="translate(266.50000000000006,209.50549450549448)"><rect x="1" width="5.500000000000005" height="100.49450549450552"></rect></g><g class="bar" transform="translate(273,233.91941391941393)"><rect x="1" width="5.500000000000005" height="76.08058608058607"></rect></g><g class="bar" transform="translate(279.5,239.5970695970696)"><rect x="1" width="5.500000000000005" height="70.4029304029304"></rect></g><g class="bar" transform="translate(286,231.64835164835165)"><rect x="1" width="5.500000000000005" height="78.35164835164835"></rect></g><g class="bar" transform="translate(292.5,248.6813186813187)"><rect x="1" width="5.500000000000005" height="61.318681318681314"></rect></g><g class="bar" transform="translate(299.00000000000006,256.06227106227107)"><rect x="1" width="5.500000000000005" height="53.937728937728934"></rect></g><g class="bar" transform="translate(305.5,257.1978021978022)"><rect x="1" width="5.500000000000005" height="52.80219780219778"></rect></g><g class="bar" transform="translate(312.00000000000006,244.13919413919416)"><rect x="1" width="5.500000000000005" height="65.86080586080584"></rect></g><g class="bar" transform="translate(318.5,267.4175824175824)"><rect x="1" width="5.500000000000005" height="42.58241758241758"></rect></g><g class="bar" transform="translate(325,275.9340659340659)"><rect x="1" width="5.500000000000005" height="34.06593406593407"></rect></g><g class="bar" transform="translate(331.50000000000006,291.2637362637363)"><rect x="1" width="5.500000000000005" height="18.73626373626371"></rect></g><g class="bar" transform="translate(338,286.72161172161174)"><rect x="1" width="5.500000000000005" height="23.278388278388263"></rect></g><g class="bar" transform="translate(344.50000000000006,300.34798534798534)"><rect x="1" width="5.500000000000005" height="9.652014652014657"></rect></g><g class="bar" transform="translate(351,301.4835164835165)"><rect x="1" width="5.500000000000005" height="8.516483516483504"></rect></g><g class="bar" transform="translate(357.5,302.05128205128204)"><rect x="1" width="5.500000000000005" height="7.948717948717956"></rect></g><g class="bar" transform="translate(364.00000000000006,306.02564102564105)"><rect x="1" width="5.500000000000005" height="3.9743589743589496"></rect></g><g class="bar" transform="translate(370.5,306.5934065934066)"><rect x="1" width="5.500000000000005" height="3.4065934065934016"></rect></g><g class="bar" transform="translate(377.00000000000006,308.2967032967033)"><rect x="1" width="5.500000000000005" height="1.7032967032967008"></rect></g><g class="bar" transform="translate(383.5,309.43223443223445)"><rect x="1" width="5.500000000000005" height="0.567765567765548"></rect></g><g class="bar" transform="translate(390,309.43223443223445)"><rect x="1" width="5.500000000000005" height="0.567765567765548"></rect></g><g class="bar" transform="translate(396.50000000000006,310)"><rect x="1" width="5.500000000000005" height="0"></rect></g><g class="bar" transform="translate(403,309.43223443223445)"><rect x="1" width="5.500000000000005" height="0.567765567765548"></rect></g><g class="bar" transform="translate(409.50000000000006,310)"><rect x="1" width="5.500000000000005" height="0"></rect></g><g class="bar" transform="translate(416,310)"><rect x="1" width="5.500000000000005" height="0"></rect></g><g class="bar" transform="translate(422.5,310)"><rect x="1" width="5.500000000000005" height="0"></rect></g><g class="bar" transform="translate(429.00000000000006,310)"><rect x="1" width="5.500000000000005" height="0"></rect></g><g class="bar" transform="translate(435.5,310)"><rect x="1" width="5.500000000000005" height="0"></rect></g><g class="bar" transform="translate(442.00000000000006,310)"><rect x="1" width="5.500000000000005" height="0"></rect></g><g class="bar" transform="translate(448.5,310)"><rect x="1" width="5.500000000000005" height="0"></rect></g><g class="bar" transform="translate(455,310)"><rect x="1" width="5.500000000000005" height="0"></rect></g><g class="bar" transform="translate(461.50000000000006,310)"><rect x="1" width="5.500000000000005" height="0"></rect></g><g class="bar" transform="translate(468,310)"><rect x="1" width="5.500000000000005" height="0"></rect></g><g class="bar" transform="translate(474.50000000000006,310)"><rect x="1" width="5.500000000000005" height="0"></rect></g><g class="bar" transform="translate(481,310)"><rect x="1" width="5.500000000000005" height="0"></rect></g><g class="bar" transform="translate(487.5,310)"><rect x="1" width="5.500000000000005" height="0"></rect></g><g class="bar" transform="translate(494.00000000000006,310)"><rect x="1" width="5.500000000000005" height="0"></rect></g><g class="bar" transform="translate(500.5,310)"><rect x="1" width="5.500000000000005" height="0"></rect></g><g class="bar" transform="translate(507.00000000000006,310)"><rect x="1" width="5.500000000000005" height="0"></rect></g><g class="bar" transform="translate(513.5,310)"><rect x="1" width="5.500000000000005" height="0"></rect></g><g class="axis axis--x" transform="translate(0,310)" fill="none" font-size="10" font-family="sans-serif" text-anchor="middle"><path class="domain" stroke="#000" d="M0.5,6V0.5H520.5V6"></path><g class="tick" opacity="1" transform="translate(0.5,0)"><line stroke="#000" y2="6"></line><text fill="#000" y="9" dy="0.71em">0.01</text></g><g class="tick" opacity="1" transform="translate(130.5,0)"><line stroke="#000" y2="6"></line><text fill="#000" y="9" dy="0.71em">1</text></g><g class="tick" opacity="1" transform="translate(260.5,0)"><line stroke="#000" y2="6"></line><text fill="#000" y="9" dy="0.71em">100</text></g><g class="tick" opacity="1" transform="translate(390.5,0)"><line stroke="#000" y2="6"></line><text fill="#000" y="9" dy="0.71em">10000</text></g><g class="tick" opacity="1" transform="translate(520.5,0)"><line stroke="#000" y2="6"></line><text fill="#000" y="9" dy="0.71em"></text></g></g><g class="axis axis--y" fill="none" font-size="10" font-family="sans-serif" text-anchor="end"><path class="domain" stroke="#000" d="M-6,310.5H0.5V0.5H-6"></path><g class="tick" opacity="1" transform="translate(0,310.5)"><line stroke="#000" x2="-6"></line><text fill="#000" x="-9" dy="0.32em">0</text></g><g class="tick" opacity="1" transform="translate(0,282.11172161172163)"><line stroke="#000" x2="-6"></line><text fill="#000" x="-9" dy="0.32em">50</text></g><g class="tick" opacity="1" transform="translate(0,253.7234432234432)"><line stroke="#000" x2="-6"></line><text fill="#000" x="-9" dy="0.32em">100</text></g><g class="tick" opacity="1" transform="translate(0,225.33516483516485)"><line stroke="#000" x2="-6"></line><text fill="#000" x="-9" dy="0.32em">150</text></g><g class="tick" opacity="1" transform="translate(0,196.94688644688645)"><line stroke="#000" x2="-6"></line><text fill="#000" x="-9" dy="0.32em">200</text></g><g class="tick" opacity="1" transform="translate(0,168.55860805860806)"><line stroke="#000" x2="-6"></line><text fill="#000" x="-9" dy="0.32em">250</text></g><g class="tick" opacity="1" transform="translate(0,140.17032967032966)"><line stroke="#000" x2="-6"></line><text fill="#000" x="-9" dy="0.32em">300</text></g><g class="tick" opacity="1" transform="translate(0,111.78205128205127)"><line stroke="#000" x2="-6"></line><text fill="#000" x="-9" dy="0.32em">350</text></g><g class="tick" opacity="1" transform="translate(0,83.3937728937729)"><line stroke="#000" x2="-6"></line><text fill="#000" x="-9" dy="0.32em">400</text></g><g class="tick" opacity="1" transform="translate(0,55.00549450549451)"><line stroke="#000" x2="-6"></line><text fill="#000" x="-9" dy="0.32em">450</text></g><g class="tick" opacity="1" transform="translate(0,26.617216117216117)"><line stroke="#000" x2="-6"></line><text fill="#000" x="-9" dy="0.32em">500</text></g></g></g></svg>