<svg xmlns="http://www.w3.org/2000/svg" width="280" height="160"><defs><style type="text/css"><![CDATA[ 
.bar rect {
  fill-opacity: 0;
  stroke:       black;
  stroke-width: 0.5;
}

.highlight rect {
  fill:       red;
  fill-opacity: 1;
}
.axis path,
.axis line {
  fill: none;
  stroke: #000;
  shape-rendering: crispEdges;
}
path {
    stroke: red;
    fill: none;
}

line {
    stroke: red;
}

path.marker {
    fill: red;
}
 ]]></style></defs><g transform="translate(50,10)"><g class="bar" transform="translate(0,120)"><rect x="1" width="11.5" height="0"></rect></g><g class="bar" transform="translate(12.5,120)"><rect x="1" width="11.5" height="0"></rect></g><g class="bar" transform="translate(25,119.72911963882619)"><rect x="1" width="11.5" height="0.2708803611738091"></rect></g><g class="bar" transform="translate(37.5,116.11738148984199)"><rect x="1" width="11.5" height="3.882618510158011"></rect></g><g class="bar" transform="translate(50,107.44920993227991)"><rect x="1" width="11.5" height="12.550790067720087"></rect></g><g class="bar" transform="translate(62.5,79.63882618510158)"><rect x="1" width="11.5" height="40.36117381489842"></rect></g><g class="bar" transform="translate(75,25.733634311512418)"><rect x="1" width="11.5" height="94.26636568848758"></rect></g><g class="bar" transform="translate(87.5,0)"><rect x="1" width="11.5" height="120"></rect></g><g class="bar" transform="translate(100,6.3205417607223495)"><rect x="1" width="11.5" height="113.67945823927765"></rect></g><g class="bar" transform="translate(112.5,75.66591422121897)"><rect x="1" width="11.5" height="44.33408577878103"></rect></g><g class="bar" transform="translate(125,108.17155756207674)"><rect x="1" width="11.5" height="11.828442437923258"></rect></g><g class="bar" transform="translate(137.5,117.83295711060948)"><rect x="1" width="11.5" height="2.1670428893905154"></rect></g><g class="bar" transform="translate(150,119.36794582392777)"><rect x="1" width="11.5" height="0.6320541760722307"></rect></g><g class="bar" transform="translate(162.5,120)"><rect x="1" width="11.5" height="0"></rect></g><g class="bar" transform="translate(175,120)"><rect x="1" width="11.5" height="0"></rect></g><g class="bar" transform="translate(187.5,120)"><rect x="1" width="11.5" height="0"></rect></g></g></svg>