<svg xmlns="http://www.w3.org/2000/svg" width="600" height="350"><defs><style type="text/css"><![CDATA[ 
.bar rect {
  fill-opacity: 0;
  stroke:       black;
  stroke-width: 0.5;
}

.highlight rect {
  fill:       red;
  fill-opacity: 1;
}
.axis path,
.axis line {
  fill: none;
  stroke: #000;
  shape-rendering: crispEdges;
}
path {
    stroke: red;
    fill: none;
}

line {
    stroke: red;
}

path.marker {
    fill: red;
}
 ]]></style></defs><g transform="translate(50,10)"><g class="bar" transform="translate(0,310)"><rect x="1" width="5.500000000000005" height="0"></rect></g><g class="bar" transform="translate(6.500000000000005,310)"><rect x="1" width="5.500000000000005" height="0"></rect></g><g class="bar" transform="translate(12.999999999999996,310)"><rect x="1" width="5.500000000000005" height="0"></rect></g><g class="bar" transform="translate(19.500000000000004,310)"><rect x="1" width="5.500000000000005" height="0"></rect></g><g class="bar" transform="translate(25.999999999999993,310)"><rect x="1" width="5.500000000000005" height="0"></rect></g><g class="bar" transform="translate(32.5,310)"><rect x="1" width="5.500000000000005" height="0"></rect></g><g class="bar" transform="translate(39.00000000000001,310)"><rect x="1" width="5.500000000000005" height="0"></rect></g><g class="bar" transform="translate(45.500000000000014,310)"><rect x="1" width="5.500000000000005" height="0"></rect></g><g class="bar" transform="translate(52,310)"><rect x="1" width="5.500000000000005" height="0"></rect></g><g class="bar" transform="translate(58.49999999999999,310)"><rect x="1" width="5.500000000000005" height="0"></rect></g><g class="bar" transform="translate(65,310)"><rect x="1" width="5.500000000000005" height="0"></rect></g><g class="bar" transform="translate(71.5,310)"><rect x="1" width="5.500000000000005" height="0"></rect></g><g class="bar" transform="translate(78.00000000000001,310)"><rect x="1" width="5.500000000000005" height="0"></rect></g><g class="bar" transform="translate(84.5,308.9160839160839)"><rect x="1" width="5.500000000000005" height="1.0839160839161082"></rect></g><g class="bar" transform="translate(91.00000000000001,307.83216783216784)"><rect x="1" width="5.500000000000005" height="2.1678321678321595"></rect></g><g class="bar" transform="translate(97.5,308.9160839160839)"><rect x="1" width="5.500000000000005" height="1.0839160839161082"></rect></g><g class="bar" transform="translate(104,307.83216783216784)"><rect x="1" width="5.500000000000005" height="2.1678321678321595"></rect></g><g class="bar" transform="translate(110.50000000000001,304.5804195804196)"><rect x="1" width="5.500000000000005" height="5.419580419580427"></rect></g><g class="bar" transform="translate(117,281.8181818181818)"><rect x="1" width="5.500000000000005" height="28.181818181818187"></rect></g><g class="bar" transform="translate(123.50000000000001,300.24475524475525)"><rect x="1" width="5.500000000000005" height="9.755244755244746"></rect></g><g class="bar" transform="translate(130,289.4055944055944)"><rect x="1" width="5.500000000000005" height="20.5944055944056"></rect></g><g class="bar" transform="translate(136.5,287.23776223776224)"><rect x="1" width="5.500000000000005" height="22.76223776223776"></rect></g><g class="bar" transform="translate(143,281.8181818181818)"><rect x="1" width="5.500000000000005" height="28.181818181818187"></rect></g><g class="bar" transform="translate(149.50000000000003,272.06293706293707)"><rect x="1" width="5.500000000000005" height="37.93706293706293"></rect></g><g class="bar" transform="translate(156.00000000000003,268.8111888111888)"><rect x="1" width="5.500000000000005" height="41.1888111888112"></rect></g><g class="bar" transform="translate(162.5,246.04895104895104)"><rect x="1" width="5.500000000000005" height="63.95104895104896"></rect></g><g class="bar" transform="translate(169,247.13286713286715)"><rect x="1" width="5.500000000000005" height="62.86713286713285"></rect></g><g class="bar" transform="translate(175.5,217.86713286713285)"><rect x="1" width="5.500000000000005" height="92.13286713286715"></rect></g><g class="bar" transform="translate(182.00000000000003,197.27272727272725)"><rect x="1" width="5.500000000000005" height="112.72727272727275"></rect></g><g class="bar" transform="translate(188.50000000000003,157.16783216783216)"><rect x="1" width="5.500000000000005" height="152.83216783216784"></rect></g><g class="bar" transform="translate(195,124.65034965034965)"><rect x="1" width="5.500000000000005" height="185.34965034965035"></rect></g><g class="bar" transform="translate(201.5,110.55944055944056)"><rect x="1" width="5.500000000000005" height="199.44055944055944"></rect></g><g class="bar" transform="translate(208,98.63636363636365)"><rect x="1" width="5.500000000000005" height="211.36363636363635"></rect></g><g class="bar" transform="translate(214.50000000000003,36.853146853146825)"><rect x="1" width="5.500000000000005" height="273.1468531468532"></rect></g><g class="bar" transform="translate(221.00000000000003,47.69230769230768)"><rect x="1" width="5.500000000000005" height="262.3076923076923"></rect></g><g class="bar" transform="translate(227.5,56.363636363636346)"><rect x="1" width="5.500000000000005" height="253.63636363636365"></rect></g><g class="bar" transform="translate(234,1.0839160839161082)"><rect x="1" width="5.500000000000005" height="308.9160839160839"></rect></g><g class="bar" transform="translate(240.5,19.510489510489492)"><rect x="1" width="5.500000000000005" height="290.4895104895105"></rect></g><g class="bar" transform="translate(247.00000000000003,7.587412587412587)"><rect x="1" width="5.500000000000005" height="302.4125874125874"></rect></g><g class="bar" transform="translate(253.50000000000003,24.93006993006992)"><rect x="1" width="5.500000000000005" height="285.0699300699301"></rect></g><g class="bar" transform="translate(260,7.587412587412587)"><rect x="1" width="5.500000000000005" height="302.4125874125874"></rect></g><g class="bar" transform="translate(266.50000000000006,0)"><rect x="1" width="5.500000000000005" height="310"></rect></g><g class="bar" transform="translate(273,31.433566433566398)"><rect x="1" width="5.500000000000005" height="278.5664335664336"></rect></g><g class="bar" transform="translate(279.5,53.111888111888106)"><rect x="1" width="5.500000000000005" height="256.8881118881119"></rect></g><g class="bar" transform="translate(286,93.21678321678323)"><rect x="1" width="5.500000000000005" height="216.78321678321677"></rect></g><g class="bar" transform="translate(292.5,145.24475524475525)"><rect x="1" width="5.500000000000005" height="164.75524475524475"></rect></g><g class="bar" transform="translate(299.00000000000006,174.5104895104895)"><rect x="1" width="5.500000000000005" height="135.4895104895105"></rect></g><g class="bar" transform="translate(305.5,208.1118881118881)"><rect x="1" width="5.500000000000005" height="101.8881118881119"></rect></g><g class="bar" transform="translate(312.00000000000006,240.6293706293706)"><rect x="1" width="5.500000000000005" height="69.37062937062939"></rect></g><g class="bar" transform="translate(318.5,249.3006993006993)"><rect x="1" width="5.500000000000005" height="60.69930069930069"></rect></g><g class="bar" transform="translate(325,264.4755244755245)"><rect x="1" width="5.500000000000005" height="45.52447552447552"></rect></g><g class="bar" transform="translate(331.50000000000006,273.1468531468531)"><rect x="1" width="5.500000000000005" height="36.85314685314688"></rect></g><g class="bar" transform="translate(338,282.9020979020979)"><rect x="1" width="5.500000000000005" height="27.09790209790208"></rect></g><g class="bar" transform="translate(344.50000000000006,287.23776223776224)"><rect x="1" width="5.500000000000005" height="22.76223776223776"></rect></g><g class="bar" transform="translate(351,300.24475524475525)"><rect x="1" width="5.500000000000005" height="9.755244755244746"></rect></g><g class="bar" transform="translate(357.5,300.24475524475525)"><rect x="1" width="5.500000000000005" height="9.755244755244746"></rect></g><g class="bar" transform="translate(364.00000000000006,303.4965034965035)"><rect x="1" width="5.500000000000005" height="6.5034965034964785"></rect></g><g class="bar" transform="translate(370.5,303.4965034965035)"><rect x="1" width="5.500000000000005" height="6.5034965034964785"></rect></g><g class="bar" transform="translate(377.00000000000006,306.74825174825173)"><rect x="1" width="5.500000000000005" height="3.2517482517482676"></rect></g><g class="bar" transform="translate(383.5,310)"><rect x="1" width="5.500000000000005" height="0"></rect></g><g class="bar" transform="translate(390,304.5804195804196)"><rect x="1" width="5.500000000000005" height="5.419580419580427"></rect></g><g class="bar" transform="translate(396.50000000000006,310)"><rect x="1" width="5.500000000000005" height="0"></rect></g><g class="bar" transform="translate(403,308.9160839160839)"><rect x="1" width="5.500000000000005" height="1.0839160839161082"></rect></g><g class="bar" transform="translate(409.50000000000006,308.9160839160839)"><rect x="1" width="5.500000000000005" height="1.0839160839161082"></rect></g><g class="bar" transform="translate(416,310)"><rect x="1" width="5.500000000000005" height="0"></rect></g><g class="bar" transform="translate(422.5,310)"><rect x="1" width="5.500000000000005" height="0"></rect></g><g class="bar" transform="translate(429.00000000000006,310)"><rect x="1" width="5.500000000000005" height="0"></rect></g><g class="bar" transform="translate(435.5,310)"><rect x="1" width="5.500000000000005" height="0"></rect></g><g class="bar" transform="translate(442.00000000000006,310)"><rect x="1" width="5.500000000000005" height="0"></rect></g><g class="bar" transform="translate(448.5,310)"><rect x="1" width="5.500000000000005" height="0"></rect></g><g class="bar" transform="translate(455,310)"><rect x="1" width="5.500000000000005" height="0"></rect></g><g class="bar" transform="translate(461.50000000000006,310)"><rect x="1" width="5.500000000000005" height="0"></rect></g><g class="bar" transform="translate(468,310)"><rect x="1" width="5.500000000000005" height="0"></rect></g><g class="bar" transform="translate(474.50000000000006,310)"><rect x="1" width="5.500000000000005" height="0"></rect></g><g class="bar" transform="translate(481,310)"><rect x="1" width="5.500000000000005" height="0"></rect></g><g class="bar" transform="translate(487.5,310)"><rect x="1" width="5.500000000000005" height="0"></rect></g><g class="bar" transform="translate(494.00000000000006,310)"><rect x="1" width="5.500000000000005" height="0"></rect></g><g class="bar" transform="translate(500.5,310)"><rect x="1" width="5.500000000000005" height="0"></rect></g><g class="bar" transform="translate(507.00000000000006,310)"><rect x="1" width="5.500000000000005" height="0"></rect></g><g class="bar" transform="translate(513.5,310)"><rect x="1" width="5.500000000000005" height="0"></rect></g><g class="axis axis--x" transform="translate(0,310)" fill="none" font-size="10" font-family="sans-serif" text-anchor="middle"><path class="domain" stroke="#000" d="M0.5,6V0.5H520.5V6"></path><g class="tick" opacity="1" transform="translate(0.5,0)"><line stroke="#000" y2="6"></line><text fill="#000" y="9" dy="0.71em">0.01</text></g><g class="tick" opacity="1" transform="translate(130.5,0)"><line stroke="#000" y2="6"></line><text fill="#000" y="9" dy="0.71em">1</text></g><g class="tick" opacity="1" transform="translate(260.5,0)"><line stroke="#000" y2="6"></line><text fill="#000" y="9" dy="0.71em">100</text></g><g class="tick" opacity="1" transform="translate(390.5,0)"><line stroke="#000" y2="6"></line><text fill="#000" y="9" dy="0.71em">10000</text></g><g class="tick" opacity="1" transform="translate(520.5,0)"><line stroke="#000" y2="6"></line><text fill="#000" y="9" dy="0.71em"></text></g></g><g class="axis axis--y" fill="none" font-size="10" font-family="sans-serif" text-anchor="end"><path class="domain" stroke="#000" d="M-6,310.5H0.5V0.5H-6"></path><g class="tick" opacity="1" transform="translate(0,310.5)"><line stroke="#000" x2="-6"></line><text fill="#000" x="-9" dy="0.32em">0</text></g><g class="tick" opacity="1" transform="translate(0,288.8216783216783)"><line stroke="#000" x2="-6"></line><text fill="#000" x="-9" dy="0.32em">20</text></g><g class="tick" opacity="1" transform="translate(0,267.14335664335664)"><line stroke="#000" x2="-6"></line><text fill="#000" x="-9" dy="0.32em">40</text></g><g class="tick" opacity="1" transform="translate(0,245.46503496503496)"><line stroke="#000" x2="-6"></line><text fill="#000" x="-9" dy="0.32em">60</text></g><g class="tick" opacity="1" transform="translate(0,223.78671328671328)"><line stroke="#000" x2="-6"></line><text fill="#000" x="-9" dy="0.32em">80</text></g><g class="tick" opacity="1" transform="translate(0,202.10839160839163)"><line stroke="#000" x2="-6"></line><text fill="#000" x="-9" dy="0.32em">100</text></g><g class="tick" opacity="1" transform="translate(0,180.43006993006992)"><line stroke="#000" x2="-6"></line><text fill="#000" x="-9" dy="0.32em">120</text></g><g class="tick" opacity="1" transform="translate(0,158.75174825174824)"><line stroke="#000" x2="-6"></line><text fill="#000" x="-9" dy="0.32em">140</text></g><g class="tick" opacity="1" transform="translate(0,137.07342657342656)"><line stroke="#000" x2="-6"></line><text fill="#000" x="-9" dy="0.32em">160</text></g><g class="tick" opacity="1" transform="translate(0,115.39510489510491)"><line stroke="#000" x2="-6"></line><text fill="#000" x="-9" dy="0.32em">180</text></g><g class="tick" opacity="1" transform="translate(0,93.71678321678323)"><line stroke="#000" x2="-6"></line><text fill="#000" x="-9" dy="0.32em">200</text></g><g class="tick" opacity="1" transform="translate(0,72.03846153846152)"><line stroke="#000" x2="-6"></line><text fill="#000" x="-9" dy="0.32em">220</text></g><g class="tick" opacity="1" transform="translate(0,50.36013986013984)"><line stroke="#000" x2="-6"></line><text fill="#000" x="-9" dy="0.32em">240</text></g><g class="tick" opacity="1" transform="translate(0,28.681818181818187)"><line stroke="#000" x2="-6"></line><text fill="#000" x="-9" dy="0.32em">260</text></g><g class="tick" opacity="1" transform="translate(0,7.0034965034964785)"><line stroke="#000" x2="-6"></line><text fill="#000" x="-9" dy="0.32em">280</text></g></g></g></svg>