<svg xmlns="http://www.w3.org/2000/svg" width="600" height="350"><defs><style type="text/css"><![CDATA[ 
.bar rect {
  fill-opacity: 0;
  stroke:       black;
  stroke-width: 0.5;
}

.highlight rect {
  fill:       red;
  fill-opacity: 1;
}
.axis path,
.axis line {
  fill: none;
  stroke: #000;
  shape-rendering: crispEdges;
}
path {
    stroke: red;
    fill: none;
}

line {
    stroke: red;
}

path.marker {
    fill: red;
}
 ]]></style></defs><g transform="translate(50,10)"><g class="bar" transform="translate(0,259.27272727272725)"><rect x="1" width="11.999999999999996" height="50.72727272727275"></rect></g><g class="bar" transform="translate(12.999999999999996,258.46753246753246)"><rect x="1" width="11.999999999999996" height="51.532467532467535"></rect></g><g class="bar" transform="translate(25.999999999999993,280.2077922077922)"><rect x="1" width="11.999999999999996" height="29.79220779220782"></rect></g><g class="bar" transform="translate(39.00000000000001,260.8831168831169)"><rect x="1" width="11.999999999999996" height="49.116883116883116"></rect></g><g class="bar" transform="translate(52,277.7922077922078)"><rect x="1" width="11.999999999999996" height="32.20779220779218"></rect></g><g class="bar" transform="translate(65,264.1038961038961)"><rect x="1" width="11.999999999999996" height="45.89610389610391"></rect></g><g class="bar" transform="translate(78.00000000000001,278.5974025974026)"><rect x="1" width="11.999999999999996" height="31.402597402597394"></rect></g><g class="bar" transform="translate(91.00000000000001,257.6623376623377)"><rect x="1" width="11.999999999999996" height="52.33766233766232"></rect></g><g class="bar" transform="translate(104,213.3766233766234)"><rect x="1" width="11.999999999999996" height="96.6233766233766"></rect></g><g class="bar" transform="translate(117,228.6753246753247)"><rect x="1" width="11.999999999999996" height="81.3246753246753"></rect></g><g class="bar" transform="translate(130,219.01298701298703)"><rect x="1" width="11.999999999999996" height="90.98701298701297"></rect></g><g class="bar" transform="translate(143,136.0779220779221)"><rect x="1" width="11.999999999999996" height="173.9220779220779"></rect></g><g class="bar" transform="translate(156.00000000000003,111.11688311688312)"><rect x="1" width="11.999999999999996" height="198.88311688311688"></rect></g><g class="bar" transform="translate(169,66.83116883116881)"><rect x="1" width="11.999999999999996" height="243.1688311688312"></rect></g><g class="bar" transform="translate(182.00000000000003,40.25974025974028)"><rect x="1" width="11.999999999999996" height="269.7402597402597"></rect></g><g class="bar" transform="translate(195,17.714285714285722)"><rect x="1" width="11.999999999999996" height="292.2857142857143"></rect></g><g class="bar" transform="translate(208,0)"><rect x="1" width="11.999999999999996" height="310"></rect></g><g class="bar" transform="translate(221.00000000000003,32.20779220779224)"><rect x="1" width="11.999999999999996" height="277.79220779220776"></rect></g><g class="bar" transform="translate(234,22.54545454545456)"><rect x="1" width="11.999999999999996" height="287.45454545454544"></rect></g><g class="bar" transform="translate(247.00000000000003,22.54545454545456)"><rect x="1" width="11.999999999999996" height="287.45454545454544"></rect></g><g class="bar" transform="translate(260,45.09090909090912)"><rect x="1" width="11.999999999999996" height="264.9090909090909"></rect></g><g class="bar" transform="translate(273,75.68831168831167)"><rect x="1" width="11.999999999999996" height="234.31168831168833"></rect></g><g class="bar" transform="translate(286,126.41558441558442)"><rect x="1" width="11.999999999999996" height="183.58441558441558"></rect></g><g class="bar" transform="translate(299.00000000000006,165.06493506493507)"><rect x="1" width="11.999999999999996" height="144.93506493506493"></rect></g><g class="bar" transform="translate(312.00000000000006,225.45454545454547)"><rect x="1" width="11.999999999999996" height="84.54545454545453"></rect></g><g class="bar" transform="translate(325,249.6103896103896)"><rect x="1" width="11.999999999999996" height="60.3896103896104"></rect></g><g class="bar" transform="translate(338,271.35064935064935)"><rect x="1" width="11.999999999999996" height="38.64935064935065"></rect></g><g class="bar" transform="translate(351,288.2597402597403)"><rect x="1" width="11.999999999999996" height="21.740259740259717"></rect></g><g class="bar" transform="translate(364.00000000000006,289.87012987012986)"><rect x="1" width="11.999999999999996" height="20.12987012987014"></rect></g><g class="bar" transform="translate(377.00000000000006,305.16883116883116)"><rect x="1" width="11.999999999999996" height="4.8311688311688386"></rect></g><g class="bar" transform="translate(390,308.38961038961037)"><rect x="1" width="11.999999999999996" height="1.6103896103896318"></rect></g><g class="bar" transform="translate(403,306.7792207792208)"><rect x="1" width="11.999999999999996" height="3.2207792207792068"></rect></g><g class="bar" transform="translate(416,309.1948051948052)"><rect x="1" width="11.999999999999996" height="0.8051948051947875"></rect></g><g class="bar" transform="translate(429.00000000000006,310)"><rect x="1" width="11.999999999999996" height="0"></rect></g><g class="bar" transform="translate(442.00000000000006,310)"><rect x="1" width="11.999999999999996" height="0"></rect></g><g class="bar" transform="translate(455,310)"><rect x="1" width="11.999999999999996" height="0"></rect></g><g class="bar" transform="translate(468,310)"><rect x="1" width="11.999999999999996" height="0"></rect></g><g class="bar" transform="translate(481,310)"><rect x="1" width="11.999999999999996" height="0"></rect></g><g class="bar" transform="translate(494.00000000000006,310)"><rect x="1" width="11.999999999999996" height="0"></rect></g><g class="bar" transform="translate(507.00000000000006,310)"><rect x="1" width="11.999999999999996" height="0"></rect></g><g class="axis axis--x" transform="translate(0,310)" fill="none" font-size="10" font-family="sans-serif" text-anchor="middle"><path class="domain" stroke="#000" d="M0.5,6V0.5H520.5V6"></path><g class="tick" opacity="1" transform="translate(0.5,0)"><line stroke="#000" y2="6"></line><text fill="#000" y="9" dy="0.71em">0.01</text></g><g class="tick" opacity="1" transform="translate(130.5,0)"><line stroke="#000" y2="6"></line><text fill="#000" y="9" dy="0.71em">1</text></g><g class="tick" opacity="1" transform="translate(260.5,0)"><line stroke="#000" y2="6"></line><text fill="#000" y="9" dy="0.71em">100</text></g><g class="tick" opacity="1" transform="translate(390.5,0)"><line stroke="#000" y2="6"></line><text fill="#000" y="9" dy="0.71em">10000</text></g><g class="tick" opacity="1" transform="translate(520.5,0)"><line stroke="#000" y2="6"></line><text fill="#000" y="9" dy="0.71em"></text></g></g><g class="axis axis--y" fill="none" font-size="10" font-family="sans-serif" text-anchor="end"><path class="domain" stroke="#000" d="M-6,310.5H0.5V0.5H-6"></path><g class="tick" opacity="1" transform="translate(0,310.5)"><line stroke="#000" x2="-6"></line><text fill="#000" x="-9" dy="0.32em">0</text></g><g class="tick" opacity="1" transform="translate(0,270.2402597402597)"><line stroke="#000" x2="-6"></line><text fill="#000" x="-9" dy="0.32em">50</text></g><g class="tick" opacity="1" transform="translate(0,229.9805194805195)"><line stroke="#000" x2="-6"></line><text fill="#000" x="-9" dy="0.32em">100</text></g><g class="tick" opacity="1" transform="translate(0,189.7207792207792)"><line stroke="#000" x2="-6"></line><text fill="#000" x="-9" dy="0.32em">150</text></g><g class="tick" opacity="1" transform="translate(0,149.46103896103898)"><line stroke="#000" x2="-6"></line><text fill="#000" x="-9" dy="0.32em">200</text></g><g class="tick" opacity="1" transform="translate(0,109.2012987012987)"><line stroke="#000" x2="-6"></line><text fill="#000" x="-9" dy="0.32em">250</text></g><g class="tick" opacity="1" transform="translate(0,68.94155844155844)"><line stroke="#000" x2="-6"></line><text fill="#000" x="-9" dy="0.32em">300</text></g><g class="tick" opacity="1" transform="translate(0,28.681818181818187)"><line stroke="#000" x2="-6"></line><text fill="#000" x="-9" dy="0.32em">350</text></g></g></g></svg>