<svg xmlns="http://www.w3.org/2000/svg" width="600" height="350"><defs><style type="text/css"><![CDATA[ 
.bar rect {
  fill-opacity: 0;
  stroke:       black;
  stroke-width: 0.5;
}

.highlight rect {
  fill:       red;
  fill-opacity: 1;
}
.axis path,
.axis line {
  fill: none;
  stroke: #000;
  shape-rendering: crispEdges;
}
 ]]></style></defs><g transform="translate(50,10)"><g class="bar" transform="translate(0,310)"><rect x="1" width="11.999999999999996" height="0"></rect></g><g class="bar" transform="translate(12.999999999999996,310)"><rect x="1" width="11.999999999999996" height="0"></rect></g><g class="bar" transform="translate(25.999999999999993,310)"><rect x="1" width="11.999999999999996" height="0"></rect></g><g class="bar" transform="translate(39.00000000000001,310)"><rect x="1" width="11.999999999999996" height="0"></rect></g><g class="bar" transform="translate(52,310)"><rect x="1" width="11.999999999999996" height="0"></rect></g><g class="bar" transform="translate(65,305.53314121037465)"><rect x="1" width="11.999999999999996" height="4.466858789625348"></rect></g><g class="bar" transform="translate(78.00000000000001,306.42651296829973)"><rect x="1" width="11.999999999999996" height="3.5734870317002674"></rect></g><g class="bar" transform="translate(91.00000000000001,304.63976945244957)"><rect x="1" width="11.999999999999996" height="5.3602305475504295"></rect></g><g class="bar" transform="translate(104,297.492795389049)"><rect x="1" width="11.999999999999996" height="12.507204610951021"></rect></g><g class="bar" transform="translate(117,281.4121037463977)"><rect x="1" width="11.999999999999996" height="28.58789625360231"></rect></g><g class="bar" transform="translate(130,265.3314121037464)"><rect x="1" width="11.999999999999996" height="44.6685878962536"></rect></g><g class="bar" transform="translate(143,255.5043227665706)"><rect x="1" width="11.999999999999996" height="54.495677233429404"></rect></g><g class="bar" transform="translate(156.00000000000003,229.5965417867435)"><rect x="1" width="11.999999999999996" height="80.4034582132565"></rect></g><g class="bar" transform="translate(169,206.36887608069165)"><rect x="1" width="11.999999999999996" height="103.63112391930835"></rect></g><g class="bar" transform="translate(182.00000000000003,192.96829971181558)"><rect x="1" width="11.999999999999996" height="117.03170028818442"></rect></g><g class="bar" transform="translate(195,158.12680115273776)"><rect x="1" width="11.999999999999996" height="151.87319884726224"></rect></g><g class="bar" transform="translate(208,125.07204610951007)"><rect x="1" width="11.999999999999996" height="184.92795389048993"></rect></g><g class="bar" transform="translate(221.00000000000003,33.05475504322766)"><rect x="1" width="11.999999999999996" height="276.94524495677234"></rect></g><g class="bar" transform="translate(234,34.84149855907782)"><rect x="1" width="11.999999999999996" height="275.1585014409222"></rect></g><g class="bar" transform="translate(247.00000000000003,0)"><rect x="1" width="11.999999999999996" height="310"></rect></g><g class="bar" transform="translate(260,5.3602305475504295)"><rect x="1" width="11.999999999999996" height="304.63976945244957"></rect></g><g class="bar" transform="translate(273,38.41498559077809)"><rect x="1" width="11.999999999999996" height="271.5850144092219"></rect></g><g class="bar" transform="translate(286,92.01729106628241)"><rect x="1" width="11.999999999999996" height="217.9827089337176"></rect></g><g class="bar" transform="translate(299.00000000000006,165.27377521613835)"><rect x="1" width="11.999999999999996" height="144.72622478386165"></rect></g><g class="bar" transform="translate(312.00000000000006,199.2219020172911)"><rect x="1" width="11.999999999999996" height="110.77809798270891"></rect></g><g class="bar" transform="translate(325,228.70317002881845)"><rect x="1" width="11.999999999999996" height="81.29682997118155"></rect></g><g class="bar" transform="translate(338,246.57060518731987)"><rect x="1" width="11.999999999999996" height="63.42939481268013"></rect></g><g class="bar" transform="translate(351,290.34582132564844)"><rect x="1" width="11.999999999999996" height="19.654178674351556"></rect></g><g class="bar" transform="translate(364.00000000000006,299.27953890489914)"><rect x="1" width="11.999999999999996" height="10.720461095100859"></rect></g><g class="bar" transform="translate(377.00000000000006,301.9596541786743)"><rect x="1" width="11.999999999999996" height="8.040345821325673"></rect></g><g class="bar" transform="translate(390,310)"><rect x="1" width="11.999999999999996" height="0"></rect></g><g class="bar" transform="translate(403,309.1066282420749)"><rect x="1" width="11.999999999999996" height="0.8933717579250811"></rect></g><g class="bar" transform="translate(416,308.21325648414984)"><rect x="1" width="11.999999999999996" height="1.7867435158501621"></rect></g><g class="bar" transform="translate(429.00000000000006,309.1066282420749)"><rect x="1" width="11.999999999999996" height="0.8933717579250811"></rect></g><g class="bar" transform="translate(442.00000000000006,310)"><rect x="1" width="11.999999999999996" height="0"></rect></g><g class="bar" transform="translate(455,310)"><rect x="1" width="11.999999999999996" height="0"></rect></g><g class="bar" transform="translate(468,310)"><rect x="1" width="11.999999999999996" height="0"></rect></g><g class="bar" transform="translate(481,310)"><rect x="1" width="11.999999999999996" height="0"></rect></g><g class="bar" transform="translate(494.00000000000006,310)"><rect x="1" width="11.999999999999996" height="0"></rect></g><g class="bar" transform="translate(507.00000000000006,310)"><rect x="1" width="11.999999999999996" height="0"></rect></g><g class="axis axis--x" transform="translate(0,310)" fill="none" font-size="10" font-family="sans-serif" text-anchor="middle"><path class="domain" stroke="#000" d="M0.5,6V0.5H520.5V6"></path><g class="tick" opacity="1" transform="translate(0,0)"><line stroke="#000" y2="6" x1="0.5" x2="0.5"></line><text fill="#000" y="9" x="0.5" dy="0.71em">0.01</text></g><g class="tick" opacity="1" transform="translate(130,0)"><line stroke="#000" y2="6" x1="0.5" x2="0.5"></line><text fill="#000" y="9" x="0.5" dy="0.71em">1</text></g><g class="tick" opacity="1" transform="translate(260,0)"><line stroke="#000" y2="6" x1="0.5" x2="0.5"></line><text fill="#000" y="9" x="0.5" dy="0.71em">100</text></g><g class="tick" opacity="1" transform="translate(390,0)"><line stroke="#000" y2="6" x1="0.5" x2="0.5"></line><text fill="#000" y="9" x="0.5" dy="0.71em">10000</text></g><g class="tick" opacity="1" transform="translate(520,0)"><line stroke="#000" y2="6" x1="0.5" x2="0.5"></line><text fill="#000" y="9" x="0.5" dy="0.71em"></text></g></g><g class="axis axis--y" fill="none" font-size="10" font-family="sans-serif" text-anchor="end"><path class="domain" stroke="#000" d="M-6,310.5H0.5V0.5H-6"></path><g class="tick" opacity="1" transform="translate(0,310)"><line stroke="#000" x2="-6" y1="0.5" y2="0.5"></line><text fill="#000" x="-9" y="0.5" dy="0.32em">0</text></g><g class="tick" opacity="1" transform="translate(0,265.3314121037464)"><line stroke="#000" x2="-6" y1="0.5" y2="0.5"></line><text fill="#000" x="-9" y="0.5" dy="0.32em">50</text></g><g class="tick" opacity="1" transform="translate(0,220.6628242074928)"><line stroke="#000" x2="-6" y1="0.5" y2="0.5"></line><text fill="#000" x="-9" y="0.5" dy="0.32em">100</text></g><g class="tick" opacity="1" transform="translate(0,175.9942363112392)"><line stroke="#000" x2="-6" y1="0.5" y2="0.5"></line><text fill="#000" x="-9" y="0.5" dy="0.32em">150</text></g><g class="tick" opacity="1" transform="translate(0,131.32564841498558)"><line stroke="#000" x2="-6" y1="0.5" y2="0.5"></line><text fill="#000" x="-9" y="0.5" dy="0.32em">200</text></g><g class="tick" opacity="1" transform="translate(0,86.65706051873198)"><line stroke="#000" x2="-6" y1="0.5" y2="0.5"></line><text fill="#000" x="-9" y="0.5" dy="0.32em">250</text></g><g class="tick" opacity="1" transform="translate(0,41.98847262247841)"><line stroke="#000" x2="-6" y1="0.5" y2="0.5"></line><text fill="#000" x="-9" y="0.5" dy="0.32em">300</text></g></g></g></svg>