<svg xmlns="http://www.w3.org/2000/svg" width="600" height="350"><defs><style type="text/css"><![CDATA[ 
.bar rect {
  fill-opacity: 0;
  stroke:       black;
  stroke-width: 0.5;
}

.highlight rect {
  fill:       red;
  fill-opacity: 1;
}
.axis path,
.axis line {
  fill: none;
  stroke: #000;
  shape-rendering: crispEdges;
}
path {
    stroke: red;
    fill: none;
}

line {
    stroke: red;
}

path.marker {
    fill: red;
}
 ]]></style></defs><g transform="translate(50,10)"><g class="bar" transform="translate(0,278.96987366375123)"><rect x="1" width="5.500000000000005" height="31.03012633624877"></rect></g><g class="bar" transform="translate(6.500000000000005,281.37998056365404)"><rect x="1" width="5.500000000000005" height="28.620019436345956"></rect></g><g class="bar" transform="translate(12.999999999999996,280.4761904761905)"><rect x="1" width="5.500000000000005" height="29.52380952380952"></rect></g><g class="bar" transform="translate(19.500000000000004,272.94460641399417)"><rect x="1" width="5.500000000000005" height="37.055393586005835"></rect></g><g class="bar" transform="translate(25.999999999999993,287.7065111758989)"><rect x="1" width="5.500000000000005" height="22.293488824101075"></rect></g><g class="bar" transform="translate(32.5,280.7774538386783)"><rect x="1" width="5.500000000000005" height="29.222546161321702"></rect></g><g class="bar" transform="translate(39.00000000000001,278.96987366375123)"><rect x="1" width="5.500000000000005" height="31.03012633624877"></rect></g><g class="bar" transform="translate(45.500000000000014,285.2964042759961)"><rect x="1" width="5.500000000000005" height="24.70359572400389"></rect></g><g class="bar" transform="translate(52,281.68124392614186)"><rect x="1" width="5.500000000000005" height="28.31875607385814"></rect></g><g class="bar" transform="translate(58.49999999999999,272.6433430515063)"><rect x="1" width="5.500000000000005" height="37.35665694849371"></rect></g><g class="bar" transform="translate(65,270.53449951409135)"><rect x="1" width="5.500000000000005" height="39.46550048590865"></rect></g><g class="bar" transform="translate(71.5,268.7269193391642)"><rect x="1" width="5.500000000000005" height="41.273080660835774"></rect></g><g class="bar" transform="translate(78.00000000000001,261.79786200194366)"><rect x="1" width="5.500000000000005" height="48.202137998056344"></rect></g><g class="bar" transform="translate(84.5,242.81827016520896)"><rect x="1" width="5.500000000000005" height="67.18172983479104"></rect></g><g class="bar" transform="translate(91.00000000000001,233.17784256559764)"><rect x="1" width="5.500000000000005" height="76.82215743440236"></rect></g><g class="bar" transform="translate(97.5,203.955296404276)"><rect x="1" width="5.500000000000005" height="106.044703595724"></rect></g><g class="bar" transform="translate(104,195.821185617104)"><rect x="1" width="5.500000000000005" height="114.17881438289601"></rect></g><g class="bar" transform="translate(110.50000000000001,187.08454810495627)"><rect x="1" width="5.500000000000005" height="122.91545189504373"></rect></g><g class="bar" transform="translate(117,155.15063168124394)"><rect x="1" width="5.500000000000005" height="154.84936831875606"></rect></g><g class="bar" transform="translate(123.50000000000001,142.49757045675412)"><rect x="1" width="5.500000000000005" height="167.50242954324588"></rect></g><g class="bar" transform="translate(130,122.9154518950437)"><rect x="1" width="5.500000000000005" height="187.0845481049563"></rect></g><g class="bar" transform="translate(136.5,78.93100097181733)"><rect x="1" width="5.500000000000005" height="231.06899902818267"></rect></g><g class="bar" transform="translate(143,65.0728862973761)"><rect x="1" width="5.500000000000005" height="244.9271137026239"></rect></g><g class="bar" transform="translate(149.50000000000003,14.76190476190476)"><rect x="1" width="5.500000000000005" height="295.23809523809524"></rect></g><g class="bar" transform="translate(156.00000000000003,0)"><rect x="1" width="5.500000000000005" height="310"></rect></g><g class="bar" transform="translate(162.5,14.76190476190476)"><rect x="1" width="5.500000000000005" height="295.23809523809524"></rect></g><g class="bar" transform="translate(169,7.832847424684132)"><rect x="1" width="5.500000000000005" height="302.16715257531587"></rect></g><g class="bar" transform="translate(175.5,38.86297376093296)"><rect x="1" width="5.500000000000005" height="271.13702623906704"></rect></g><g class="bar" transform="translate(182.00000000000003,59.34888241010691)"><rect x="1" width="5.500000000000005" height="250.6511175898931"></rect></g><g class="bar" transform="translate(188.50000000000003,128.33819241982508)"><rect x="1" width="5.500000000000005" height="181.66180758017492"></rect></g><g class="bar" transform="translate(195,141.2925170068027)"><rect x="1" width="5.500000000000005" height="168.7074829931973"></rect></g><g class="bar" transform="translate(201.5,161.17589893100097)"><rect x="1" width="5.500000000000005" height="148.82410106899903"></rect></g><g class="bar" transform="translate(208,176.54033041788145)"><rect x="1" width="5.500000000000005" height="133.45966958211855"></rect></g><g class="bar" transform="translate(214.50000000000003,179.2517006802721)"><rect x="1" width="5.500000000000005" height="130.7482993197279"></rect></g><g class="bar" transform="translate(221.00000000000003,204.85908649173956)"><rect x="1" width="5.500000000000005" height="105.14091350826044"></rect></g><g class="bar" transform="translate(227.5,223.5374149659864)"><rect x="1" width="5.500000000000005" height="86.46258503401361"></rect></g><g class="bar" transform="translate(234,221.72983479105926)"><rect x="1" width="5.500000000000005" height="88.27016520894074"></rect></g><g class="bar" transform="translate(240.5,238.60058309037902)"><rect x="1" width="5.500000000000005" height="71.39941690962098"></rect></g><g class="bar" transform="translate(247.00000000000003,244.9271137026239)"><rect x="1" width="5.500000000000005" height="65.0728862973761"></rect></g><g class="bar" transform="translate(253.50000000000003,265.41302235179785)"><rect x="1" width="5.500000000000005" height="44.58697764820215"></rect></g><g class="bar" transform="translate(260,268.42565597667635)"><rect x="1" width="5.500000000000005" height="41.57434402332365"></rect></g><g class="bar" transform="translate(266.50000000000006,275.0534499514091)"><rect x="1" width="5.500000000000005" height="34.94655004859089"></rect></g><g class="bar" transform="translate(273,275.95724003887267)"><rect x="1" width="5.500000000000005" height="34.04275996112733"></rect></g><g class="bar" transform="translate(279.5,280.7774538386783)"><rect x="1" width="5.500000000000005" height="29.222546161321702"></rect></g><g class="bar" transform="translate(286,277.1622934888241)"><rect x="1" width="5.500000000000005" height="32.837706511175895"></rect></g><g class="bar" transform="translate(292.5,292.22546161321674)"><rect x="1" width="5.500000000000005" height="17.774538386783263"></rect></g><g class="bar" transform="translate(299.00000000000006,292.52672497570455)"><rect x="1" width="5.500000000000005" height="17.473275024295447"></rect></g><g class="bar" transform="translate(305.5,298.8532555879495)"><rect x="1" width="5.500000000000005" height="11.14674441205051"></rect></g><g class="bar" transform="translate(312.00000000000006,295.23809523809524)"><rect x="1" width="5.500000000000005" height="14.76190476190476"></rect></g><g class="bar" transform="translate(318.5,302.16715257531587)"><rect x="1" width="5.500000000000005" height="7.832847424684132"></rect></g><g class="bar" transform="translate(325,303.0709426627794)"><rect x="1" width="5.500000000000005" height="6.929057337220627"></rect></g><g class="bar" transform="translate(331.50000000000006,303.6734693877551)"><rect x="1" width="5.500000000000005" height="6.326530612244881"></rect></g><g class="bar" transform="translate(338,303.97473275024294)"><rect x="1" width="5.500000000000005" height="6.025267249757064"></rect></g><g class="bar" transform="translate(344.50000000000006,306.38483965014575)"><rect x="1" width="5.500000000000005" height="3.61516034985425"></rect></g><g class="bar" transform="translate(351,305.4810495626822)"><rect x="1" width="5.500000000000005" height="4.518950437317812"></rect></g><g class="bar" transform="translate(357.5,308.1924198250729)"><rect x="1" width="5.500000000000005" height="1.807580174927125"></rect></g><g class="bar" transform="translate(364.00000000000006,308.1924198250729)"><rect x="1" width="5.500000000000005" height="1.807580174927125"></rect></g><g class="bar" transform="translate(370.5,308.79494655004856)"><rect x="1" width="5.500000000000005" height="1.2050534499514356"></rect></g><g class="bar" transform="translate(377.00000000000006,309.6987366375121)"><rect x="1" width="5.500000000000005" height="0.3012633624878731"></rect></g><g class="bar" transform="translate(383.5,309.3974732750243)"><rect x="1" width="5.500000000000005" height="0.6025267249756894"></rect></g><g class="bar" transform="translate(390,309.6987366375121)"><rect x="1" width="5.500000000000005" height="0.3012633624878731"></rect></g><g class="bar" transform="translate(396.50000000000006,309.6987366375121)"><rect x="1" width="5.500000000000005" height="0.3012633624878731"></rect></g><g class="bar" transform="translate(403,310)"><rect x="1" width="5.500000000000005" height="0"></rect></g><g class="bar" transform="translate(409.50000000000006,310)"><rect x="1" width="5.500000000000005" height="0"></rect></g><g class="bar" transform="translate(416,310)"><rect x="1" width="5.500000000000005" height="0"></rect></g><g class="bar" transform="translate(422.5,309.6987366375121)"><rect x="1" width="5.500000000000005" height="0.3012633624878731"></rect></g><g class="bar" transform="translate(429.00000000000006,309.6987366375121)"><rect x="1" width="5.500000000000005" height="0.3012633624878731"></rect></g><g class="bar" transform="translate(435.5,309.6987366375121)"><rect x="1" width="5.500000000000005" height="0.3012633624878731"></rect></g><g class="bar" transform="translate(442.00000000000006,310)"><rect x="1" width="5.500000000000005" height="0"></rect></g><g class="bar" transform="translate(448.5,309.6987366375121)"><rect x="1" width="5.500000000000005" height="0.3012633624878731"></rect></g><g class="bar" transform="translate(455,309.6987366375121)"><rect x="1" width="5.500000000000005" height="0.3012633624878731"></rect></g><g class="bar" transform="translate(461.50000000000006,310)"><rect x="1" width="5.500000000000005" height="0"></rect></g><g class="bar" transform="translate(468,310)"><rect x="1" width="5.500000000000005" height="0"></rect></g><g class="bar" transform="translate(474.50000000000006,310)"><rect x="1" width="5.500000000000005" height="0"></rect></g><g class="bar" transform="translate(481,310)"><rect x="1" width="5.500000000000005" height="0"></rect></g><g class="bar" transform="translate(487.5,310)"><rect x="1" width="5.500000000000005" height="0"></rect></g><g class="bar" transform="translate(494.00000000000006,310)"><rect x="1" width="5.500000000000005" height="0"></rect></g><g class="bar" transform="translate(500.5,310)"><rect x="1" width="5.500000000000005" height="0"></rect></g><g class="bar" transform="translate(507.00000000000006,310)"><rect x="1" width="5.500000000000005" height="0"></rect></g><g class="bar" transform="translate(513.5,310)"><rect x="1" width="5.500000000000005" height="0"></rect></g><g class="axis axis--x" transform="translate(0,310)" fill="none" font-size="10" font-family="sans-serif" text-anchor="middle"><path class="domain" stroke="#000" d="M0.5,6V0.5H520.5V6"></path><g class="tick" opacity="1" transform="translate(0.5,0)"><line stroke="#000" y2="6"></line><text fill="#000" y="9" dy="0.71em">0.01</text></g><g class="tick" opacity="1" transform="translate(130.5,0)"><line stroke="#000" y2="6"></line><text fill="#000" y="9" dy="0.71em">1</text></g><g class="tick" opacity="1" transform="translate(260.5,0)"><line stroke="#000" y2="6"></line><text fill="#000" y="9" dy="0.71em">100</text></g><g class="tick" opacity="1" transform="translate(390.5,0)"><line stroke="#000" y2="6"></line><text fill="#000" y="9" dy="0.71em">10000</text></g><g class="tick" opacity="1" transform="translate(520.5,0)"><line stroke="#000" y2="6"></line><text fill="#000" y="9" dy="0.71em"></text></g></g><g class="axis axis--y" fill="none" font-size="10" font-family="sans-serif" text-anchor="end"><path class="domain" stroke="#000" d="M-6,310.5H0.5V0.5H-6"></path><g class="tick" opacity="1" transform="translate(0,310.5)"><line stroke="#000" x2="-6"></line><text fill="#000" x="-9" dy="0.32em">0</text></g><g class="tick" opacity="1" transform="translate(0,280.3736637512148)"><line stroke="#000" x2="-6"></line><text fill="#000" x="-9" dy="0.32em">100</text></g><g class="tick" opacity="1" transform="translate(0,250.24732750242953)"><line stroke="#000" x2="-6"></line><text fill="#000" x="-9" dy="0.32em">200</text></g><g class="tick" opacity="1" transform="translate(0,220.12099125364432)"><line stroke="#000" x2="-6"></line><text fill="#000" x="-9" dy="0.32em">300</text></g><g class="tick" opacity="1" transform="translate(0,189.99465500485908)"><line stroke="#000" x2="-6"></line><text fill="#000" x="-9" dy="0.32em">400</text></g><g class="tick" opacity="1" transform="translate(0,159.86831875607385)"><line stroke="#000" x2="-6"></line><text fill="#000" x="-9" dy="0.32em">500</text></g><g class="tick" opacity="1" transform="translate(0,129.7419825072886)"><line stroke="#000" x2="-6"></line><text fill="#000" x="-9" dy="0.32em">600</text></g><g class="tick" opacity="1" transform="translate(0,99.6156462585034)"><line stroke="#000" x2="-6"></line><text fill="#000" x="-9" dy="0.32em">700</text></g><g class="tick" opacity="1" transform="translate(0,69.48931000971817)"><line stroke="#000" x2="-6"></line><text fill="#000" x="-9" dy="0.32em">800</text></g><g class="tick" opacity="1" transform="translate(0,39.36297376093296)"><line stroke="#000" x2="-6"></line><text fill="#000" x="-9" dy="0.32em">900</text></g><g class="tick" opacity="1" transform="translate(0,9.236637512147695)"><line stroke="#000" x2="-6"></line><text fill="#000" x="-9" dy="0.32em">1,000</text></g></g></g></svg>