<svg xmlns="http://www.w3.org/2000/svg" width="600" height="350"><defs><style type="text/css"><![CDATA[ 
.bar rect {
  fill-opacity: 0;
  stroke:       black;
  stroke-width: 0.5;
}

.highlight rect {
  fill:       red;
  fill-opacity: 1;
}
.axis path,
.axis line {
  fill: none;
  stroke: #000;
  shape-rendering: crispEdges;
}
path {
    stroke: red;
    fill: none;
}

line {
    stroke: red;
}

path.marker {
    fill: red;
}
 ]]></style></defs><g transform="translate(50,10)"><g class="bar" transform="translate(0,302.31404958677683)"><rect x="1" width="11.999999999999996" height="7.685950413223168"></rect></g><g class="bar" transform="translate(12.999999999999996,294.6280991735537)"><rect x="1" width="11.999999999999996" height="15.371900826446279"></rect></g><g class="bar" transform="translate(25.999999999999993,267.4710743801653)"><rect x="1" width="11.999999999999996" height="42.528925619834695"></rect></g><g class="bar" transform="translate(39.00000000000001,237.75206611570246)"><rect x="1" width="11.999999999999996" height="72.24793388429754"></rect></g><g class="bar" transform="translate(52,205.98347107438016)"><rect x="1" width="11.999999999999996" height="104.01652892561984"></rect></g><g class="bar" transform="translate(65,167.04132231404958)"><rect x="1" width="11.999999999999996" height="142.95867768595042"></rect></g><g class="bar" transform="translate(78.00000000000001,134.7603305785124)"><rect x="1" width="11.999999999999996" height="175.2396694214876"></rect></g><g class="bar" transform="translate(91.00000000000001,152.69421487603307)"><rect x="1" width="11.999999999999996" height="157.30578512396693"></rect></g><g class="bar" transform="translate(104,122.46280991735534)"><rect x="1" width="11.999999999999996" height="187.53719008264466"></rect></g><g class="bar" transform="translate(117,127.07438016528923)"><rect x="1" width="11.999999999999996" height="182.92561983471077"></rect></g><g class="bar" transform="translate(130,118.87603305785123)"><rect x="1" width="11.999999999999996" height="191.12396694214877"></rect></g><g class="bar" transform="translate(143,99.91735537190084)"><rect x="1" width="11.999999999999996" height="210.08264462809916"></rect></g><g class="bar" transform="translate(156.00000000000003,68.66115702479337)"><rect x="1" width="11.999999999999996" height="241.33884297520663"></rect></g><g class="bar" transform="translate(169,59.950413223140515)"><rect x="1" width="11.999999999999996" height="250.04958677685948"></rect></g><g class="bar" transform="translate(182.00000000000003,51.75206611570246)"><rect x="1" width="11.999999999999996" height="258.24793388429754"></rect></g><g class="bar" transform="translate(195,31.768595041322328)"><rect x="1" width="11.999999999999996" height="278.2314049586777"></rect></g><g class="bar" transform="translate(208,0)"><rect x="1" width="11.999999999999996" height="310"></rect></g><g class="bar" transform="translate(221.00000000000003,5.636363636363626)"><rect x="1" width="11.999999999999996" height="304.3636363636364"></rect></g><g class="bar" transform="translate(234,23.570247933884332)"><rect x="1" width="11.999999999999996" height="286.42975206611567"></rect></g><g class="bar" transform="translate(247.00000000000003,59.950413223140515)"><rect x="1" width="11.999999999999996" height="250.04958677685948"></rect></g><g class="bar" transform="translate(260,70.19834710743802)"><rect x="1" width="11.999999999999996" height="239.80165289256198"></rect></g><g class="bar" transform="translate(273,112.21487603305783)"><rect x="1" width="11.999999999999996" height="197.78512396694217"></rect></g><g class="bar" transform="translate(286,162.94214876033058)"><rect x="1" width="11.999999999999996" height="147.05785123966942"></rect></g><g class="bar" transform="translate(299.00000000000006,204.44628099173553)"><rect x="1" width="11.999999999999996" height="105.55371900826447"></rect></g><g class="bar" transform="translate(312.00000000000006,225.96694214876032)"><rect x="1" width="11.999999999999996" height="84.03305785123968"></rect></g><g class="bar" transform="translate(325,255.17355371900828)"><rect x="1" width="11.999999999999996" height="54.82644628099172"></rect></g><g class="bar" transform="translate(338,280.2809917355372)"><rect x="1" width="11.999999999999996" height="29.719008264462786"></rect></g><g class="bar" transform="translate(351,301.801652892562)"><rect x="1" width="11.999999999999996" height="8.198347107437996"></rect></g><g class="bar" transform="translate(364.00000000000006,302.8264462809917)"><rect x="1" width="11.999999999999996" height="7.173553719008282"></rect></g><g class="bar" transform="translate(377.00000000000006,307.9504132231405)"><rect x="1" width="11.999999999999996" height="2.049586776859485"></rect></g><g class="bar" transform="translate(390,308.46280991735534)"><rect x="1" width="11.999999999999996" height="1.5371900826446563"></rect></g><g class="bar" transform="translate(403,310)"><rect x="1" width="11.999999999999996" height="0"></rect></g><g class="bar" transform="translate(416,310)"><rect x="1" width="11.999999999999996" height="0"></rect></g><g class="bar" transform="translate(429.00000000000006,310)"><rect x="1" width="11.999999999999996" height="0"></rect></g><g class="bar" transform="translate(442.00000000000006,310)"><rect x="1" width="11.999999999999996" height="0"></rect></g><g class="bar" transform="translate(455,310)"><rect x="1" width="11.999999999999996" height="0"></rect></g><g class="bar" transform="translate(468,310)"><rect x="1" width="11.999999999999996" height="0"></rect></g><g class="bar" transform="translate(481,310)"><rect x="1" width="11.999999999999996" height="0"></rect></g><g class="bar" transform="translate(494.00000000000006,310)"><rect x="1" width="11.999999999999996" height="0"></rect></g><g class="bar" transform="translate(507.00000000000006,310)"><rect x="1" width="11.999999999999996" height="0"></rect></g><g class="axis axis--x" transform="translate(0,310)" fill="none" font-size="10" font-family="sans-serif" text-anchor="middle"><path class="domain" stroke="#000" d="M0.5,6V0.5H520.5V6"></path><g class="tick" opacity="1" transform="translate(0.5,0)"><line stroke="#000" y2="6"></line><text fill="#000" y="9" dy="0.71em">0.01</text></g><g class="tick" opacity="1" transform="translate(130.5,0)"><line stroke="#000" y2="6"></line><text fill="#000" y="9" dy="0.71em">1</text></g><g class="tick" opacity="1" transform="translate(260.5,0)"><line stroke="#000" y2="6"></line><text fill="#000" y="9" dy="0.71em">100</text></g><g class="tick" opacity="1" transform="translate(390.5,0)"><line stroke="#000" y2="6"></line><text fill="#000" y="9" dy="0.71em">10000</text></g><g class="tick" opacity="1" transform="translate(520.5,0)"><line stroke="#000" y2="6"></line><text fill="#000" y="9" dy="0.71em"></text></g></g><g class="axis axis--y" fill="none" font-size="10" font-family="sans-serif" text-anchor="end"><path class="domain" stroke="#000" d="M-6,310.5H0.5V0.5H-6"></path><g class="tick" opacity="1" transform="translate(0,310.5)"><line stroke="#000" x2="-6"></line><text fill="#000" x="-9" dy="0.32em">0</text></g><g class="tick" opacity="1" transform="translate(0,284.8801652892562)"><line stroke="#000" x2="-6"></line><text fill="#000" x="-9" dy="0.32em">50</text></g><g class="tick" opacity="1" transform="translate(0,259.26033057851237)"><line stroke="#000" x2="-6"></line><text fill="#000" x="-9" dy="0.32em">100</text></g><g class="tick" opacity="1" transform="translate(0,233.6404958677686)"><line stroke="#000" x2="-6"></line><text fill="#000" x="-9" dy="0.32em">150</text></g><g class="tick" opacity="1" transform="translate(0,208.0206611570248)"><line stroke="#000" x2="-6"></line><text fill="#000" x="-9" dy="0.32em">200</text></g><g class="tick" opacity="1" transform="translate(0,182.400826446281)"><line stroke="#000" x2="-6"></line><text fill="#000" x="-9" dy="0.32em">250</text></g><g class="tick" opacity="1" transform="translate(0,156.78099173553719)"><line stroke="#000" x2="-6"></line><text fill="#000" x="-9" dy="0.32em">300</text></g><g class="tick" opacity="1" transform="translate(0,131.1611570247934)"><line stroke="#000" x2="-6"></line><text fill="#000" x="-9" dy="0.32em">350</text></g><g class="tick" opacity="1" transform="translate(0,105.54132231404958)"><line stroke="#000" x2="-6"></line><text fill="#000" x="-9" dy="0.32em">400</text></g><g class="tick" opacity="1" transform="translate(0,79.92148760330579)"><line stroke="#000" x2="-6"></line><text fill="#000" x="-9" dy="0.32em">450</text></g><g class="tick" opacity="1" transform="translate(0,54.301652892562004)"><line stroke="#000" x2="-6"></line><text fill="#000" x="-9" dy="0.32em">500</text></g><g class="tick" opacity="1" transform="translate(0,28.681818181818187)"><line stroke="#000" x2="-6"></line><text fill="#000" x="-9" dy="0.32em">550</text></g><g class="tick" opacity="1" transform="translate(0,3.0619834710743703)"><line stroke="#000" x2="-6"></line><text fill="#000" x="-9" dy="0.32em">600</text></g></g></g></svg>