<svg xmlns="http://www.w3.org/2000/svg" width="280" height="160"><defs><style type="text/css"><![CDATA[ 
.bar rect {
  fill-opacity: 0;
  stroke:       black;
  stroke-width: 0.5;
}

.highlight rect {
  fill:       red;
  fill-opacity: 1;
}
.axis path,
.axis line {
  fill: none;
  stroke: #000;
  shape-rendering: crispEdges;
}
path {
    stroke: red;
    fill: none;
}

line {
    stroke: red;
}

path.marker {
    fill: red;
}
 ]]></style></defs><g transform="translate(50,10)"><g class="bar" transform="translate(0,112.5)"><rect x="1" width="11.5" height="7.5"></rect></g><g class="bar" transform="translate(12.5,97.33812949640287)"><rect x="1" width="11.5" height="22.66187050359713"></rect></g><g class="bar" transform="translate(25,71.22302158273381)"><rect x="1" width="11.5" height="48.77697841726619"></rect></g><g class="bar" transform="translate(37.5,59.35251798561151)"><rect x="1" width="11.5" height="60.64748201438849"></rect></g><g class="bar" transform="translate(50,42.46402877697841)"><rect x="1" width="11.5" height="77.53597122302159"></rect></g><g class="bar" transform="translate(62.5,18.29136690647482)"><rect x="1" width="11.5" height="101.70863309352518"></rect></g><g class="bar" transform="translate(75,0)"><rect x="1" width="11.5" height="120"></rect></g><g class="bar" transform="translate(87.5,6.52877697841727)"><rect x="1" width="11.5" height="113.47122302158273"></rect></g><g class="bar" transform="translate(100,40.62949640287769)"><rect x="1" width="11.5" height="79.37050359712231"></rect></g><g class="bar" transform="translate(112.5,86.54676258992805)"><rect x="1" width="11.5" height="33.45323741007195"></rect></g><g class="bar" transform="translate(125,113.84892086330936)"><rect x="1" width="11.5" height="6.15107913669064"></rect></g><g class="bar" transform="translate(137.5,119.40647482014388)"><rect x="1" width="11.5" height="0.5935251798561154"></rect></g><g class="bar" transform="translate(150,120)"><rect x="1" width="11.5" height="0"></rect></g><g class="bar" transform="translate(162.5,120)"><rect x="1" width="11.5" height="0"></rect></g><g class="bar" transform="translate(175,120)"><rect x="1" width="11.5" height="0"></rect></g><g class="bar" transform="translate(187.5,120)"><rect x="1" width="11.5" height="0"></rect></g></g></svg>