<svg xmlns="http://www.w3.org/2000/svg" width="600" height="350"><defs><style type="text/css"><![CDATA[ 
.bar rect {
  fill-opacity: 0;
  stroke:       black;
  stroke-width: 0.5;
}

.highlight rect {
  fill:       red;
  fill-opacity: 1;
}
.axis path,
.axis line {
  fill: none;
  stroke: #000;
  shape-rendering: crispEdges;
}
path {
    stroke: red;
    fill: none;
}

line {
    stroke: red;
}

path.marker {
    fill: red;
}
 ]]></style></defs><g transform="translate(50,10)"><g class="bar" transform="translate(0,304.94172494172494)"><rect x="1" width="11.999999999999996" height="5.058275058275058"></rect></g><g class="bar" transform="translate(12.999999999999996,289.76689976689977)"><rect x="1" width="11.999999999999996" height="20.23310023310023"></rect></g><g class="bar" transform="translate(25.999999999999993,273.86946386946386)"><rect x="1" width="11.999999999999996" height="36.13053613053614"></rect></g><g class="bar" transform="translate(39.00000000000001,237.01631701631703)"><rect x="1" width="11.999999999999996" height="72.98368298368297"></rect></g><g class="bar" transform="translate(52,217.5058275058275)"><rect x="1" width="11.999999999999996" height="92.49417249417249"></rect></g><g class="bar" transform="translate(65,157.52913752913753)"><rect x="1" width="11.999999999999996" height="152.47086247086247"></rect></g><g class="bar" transform="translate(78.00000000000001,146.68997668997667)"><rect x="1" width="11.999999999999996" height="163.31002331002333"></rect></g><g class="bar" transform="translate(91.00000000000001,94.66200466200465)"><rect x="1" width="11.999999999999996" height="215.33799533799535"></rect></g><g class="bar" transform="translate(104,83.8228438228438)"><rect x="1" width="11.999999999999996" height="226.1771561771562"></rect></g><g class="bar" transform="translate(117,46.24708624708626)"><rect x="1" width="11.999999999999996" height="263.75291375291374"></rect></g><g class="bar" transform="translate(130,65.03496503496504)"><rect x="1" width="11.999999999999996" height="244.96503496503496"></rect></g><g class="bar" transform="translate(143,37.575757575757564)"><rect x="1" width="11.999999999999996" height="272.42424242424244"></rect></g><g class="bar" transform="translate(156.00000000000003,69.37062937062936)"><rect x="1" width="11.999999999999996" height="240.62937062937064"></rect></g><g class="bar" transform="translate(169,1.4452214452214207)"><rect x="1" width="11.999999999999996" height="308.5547785547786"></rect></g><g class="bar" transform="translate(182.00000000000003,4.335664335664319)"><rect x="1" width="11.999999999999996" height="305.6643356643357"></rect></g><g class="bar" transform="translate(195,16.620046620046594)"><rect x="1" width="11.999999999999996" height="293.3799533799534"></rect></g><g class="bar" transform="translate(208,0)"><rect x="1" width="11.999999999999996" height="310"></rect></g><g class="bar" transform="translate(221.00000000000003,20.23310023310023)"><rect x="1" width="11.999999999999996" height="289.76689976689977"></rect></g><g class="bar" transform="translate(234,47.69230769230768)"><rect x="1" width="11.999999999999996" height="262.3076923076923"></rect></g><g class="bar" transform="translate(247.00000000000003,27.459207459207448)"><rect x="1" width="11.999999999999996" height="282.54079254079255"></rect></g><g class="bar" transform="translate(260,71.53846153846152)"><rect x="1" width="11.999999999999996" height="238.46153846153848"></rect></g><g class="bar" transform="translate(273,99.7202797202797)"><rect x="1" width="11.999999999999996" height="210.2797202797203"></rect></g><g class="bar" transform="translate(286,135.12820512820514)"><rect x="1" width="11.999999999999996" height="174.87179487179486"></rect></g><g class="bar" transform="translate(299.00000000000006,172.7039627039627)"><rect x="1" width="11.999999999999996" height="137.2960372960373"></rect></g><g class="bar" transform="translate(312.00000000000006,201.60839160839163)"><rect x="1" width="11.999999999999996" height="108.39160839160837"></rect></g><g class="bar" transform="translate(325,239.9067599067599)"><rect x="1" width="11.999999999999996" height="70.0932400932401"></rect></g><g class="bar" transform="translate(338,282.54079254079255)"><rect x="1" width="11.999999999999996" height="27.459207459207448"></rect></g><g class="bar" transform="translate(351,289.04428904428903)"><rect x="1" width="11.999999999999996" height="20.95571095571097"></rect></g><g class="bar" transform="translate(364.00000000000006,302.7738927738928)"><rect x="1" width="11.999999999999996" height="7.226107226107217"></rect></g><g class="bar" transform="translate(377.00000000000006,303.4965034965035)"><rect x="1" width="11.999999999999996" height="6.5034965034964785"></rect></g><g class="bar" transform="translate(390,307.83216783216784)"><rect x="1" width="11.999999999999996" height="2.1678321678321595"></rect></g><g class="bar" transform="translate(403,307.1095571095571)"><rect x="1" width="11.999999999999996" height="2.8904428904428983"></rect></g><g class="bar" transform="translate(416,310)"><rect x="1" width="11.999999999999996" height="0"></rect></g><g class="bar" transform="translate(429.00000000000006,310)"><rect x="1" width="11.999999999999996" height="0"></rect></g><g class="bar" transform="translate(442.00000000000006,310)"><rect x="1" width="11.999999999999996" height="0"></rect></g><g class="bar" transform="translate(455,310)"><rect x="1" width="11.999999999999996" height="0"></rect></g><g class="bar" transform="translate(468,310)"><rect x="1" width="11.999999999999996" height="0"></rect></g><g class="bar" transform="translate(481,310)"><rect x="1" width="11.999999999999996" height="0"></rect></g><g class="bar" transform="translate(494.00000000000006,310)"><rect x="1" width="11.999999999999996" height="0"></rect></g><g class="bar" transform="translate(507.00000000000006,310)"><rect x="1" width="11.999999999999996" height="0"></rect></g><g class="axis axis--x" transform="translate(0,310)" fill="none" font-size="10" font-family="sans-serif" text-anchor="middle"><path class="domain" stroke="#000" d="M0.5,6V0.5H520.5V6"></path><g class="tick" opacity="1" transform="translate(0.5,0)"><line stroke="#000" y2="6"></line><text fill="#000" y="9" dy="0.71em">0.01</text></g><g class="tick" opacity="1" transform="translate(130.5,0)"><line stroke="#000" y2="6"></line><text fill="#000" y="9" dy="0.71em">1</text></g><g class="tick" opacity="1" transform="translate(260.5,0)"><line stroke="#000" y2="6"></line><text fill="#000" y="9" dy="0.71em">100</text></g><g class="tick" opacity="1" transform="translate(390.5,0)"><line stroke="#000" y2="6"></line><text fill="#000" y="9" dy="0.71em">10000</text></g><g class="tick" opacity="1" transform="translate(520.5,0)"><line stroke="#000" y2="6"></line><text fill="#000" y="9" dy="0.71em"></text></g></g><g class="axis axis--y" fill="none" font-size="10" font-family="sans-serif" text-anchor="end"><path class="domain" stroke="#000" d="M-6,310.5H0.5V0.5H-6"></path><g class="tick" opacity="1" transform="translate(0,310.5)"><line stroke="#000" x2="-6"></line><text fill="#000" x="-9" dy="0.32em">0</text></g><g class="tick" opacity="1" transform="translate(0,274.36946386946386)"><line stroke="#000" x2="-6"></line><text fill="#000" x="-9" dy="0.32em">50</text></g><g class="tick" opacity="1" transform="translate(0,238.23892773892774)"><line stroke="#000" x2="-6"></line><text fill="#000" x="-9" dy="0.32em">100</text></g><g class="tick" opacity="1" transform="translate(0,202.10839160839163)"><line stroke="#000" x2="-6"></line><text fill="#000" x="-9" dy="0.32em">150</text></g><g class="tick" opacity="1" transform="translate(0,165.97785547785548)"><line stroke="#000" x2="-6"></line><text fill="#000" x="-9" dy="0.32em">200</text></g><g class="tick" opacity="1" transform="translate(0,129.84731934731934)"><line stroke="#000" x2="-6"></line><text fill="#000" x="-9" dy="0.32em">250</text></g><g class="tick" opacity="1" transform="translate(0,93.71678321678323)"><line stroke="#000" x2="-6"></line><text fill="#000" x="-9" dy="0.32em">300</text></g><g class="tick" opacity="1" transform="translate(0,57.586247086247084)"><line stroke="#000" x2="-6"></line><text fill="#000" x="-9" dy="0.32em">350</text></g><g class="tick" opacity="1" transform="translate(0,21.45571095571097)"><line stroke="#000" x2="-6"></line><text fill="#000" x="-9" dy="0.32em">400</text></g></g></g></svg>