<svg xmlns="http://www.w3.org/2000/svg" width="280" height="160"><defs><style type="text/css"><![CDATA[ 
.bar rect {
  fill-opacity: 0;
  stroke:       black;
  stroke-width: 0.5;
}

.highlight rect {
  fill:       red;
  fill-opacity: 1;
}
.axis path,
.axis line {
  fill: none;
  stroke: #000;
  shape-rendering: crispEdges;
}
 ]]></style></defs><g transform="translate(50,10)"><g class="bar" transform="translate(0,120)"><rect x="1" width="11.5" height="0"></rect></g><g class="bar" transform="translate(12.5,120)"><rect x="1" width="11.5" height="0"></rect></g><g class="bar" transform="translate(25,120)"><rect x="1" width="11.5" height="0"></rect></g><g class="bar" transform="translate(37.5,119.2966002344666)"><rect x="1" width="11.5" height="0.7033997655334048"></rect></g><g class="bar" transform="translate(50,102.69636576787808)"><rect x="1" width="11.5" height="17.303634232121922"></rect></g><g class="bar" transform="translate(62.5,38.968347010551)"><rect x="1" width="11.5" height="81.031652989449"></rect></g><g class="bar" transform="translate(75,0)"><rect x="1" width="11.5" height="120"></rect></g><g class="bar" transform="translate(87.5,15.474794841735061)"><rect x="1" width="11.5" height="104.52520515826494"></rect></g><g class="bar" transform="translate(100,55.28722157092615)"><rect x="1" width="11.5" height="64.71277842907385"></rect></g><g class="bar" transform="translate(112.5,83.14185228604924)"><rect x="1" width="11.5" height="36.85814771395076"></rect></g><g class="bar" transform="translate(125,97.63188745603752)"><rect x="1" width="11.5" height="22.368112543962482"></rect></g><g class="bar" transform="translate(137.5,115.35756154747948)"><rect x="1" width="11.5" height="4.642438452520523"></rect></g><g class="bar" transform="translate(150,118.03048065650644)"><rect x="1" width="11.5" height="1.969519343493559"></rect></g><g class="bar" transform="translate(162.5,120)"><rect x="1" width="11.5" height="0"></rect></g><g class="bar" transform="translate(175,120)"><rect x="1" width="11.5" height="0"></rect></g><g class="bar" transform="translate(187.5,120)"><rect x="1" width="11.5" height="0"></rect></g></g></svg>