<svg xmlns="http://www.w3.org/2000/svg" width="600" height="350"><defs><style type="text/css"><![CDATA[ 
.bar rect {
  fill-opacity: 0;
  stroke:       black;
  stroke-width: 0.5;
}

.highlight rect {
  fill:       red;
  fill-opacity: 1;
}
.axis path,
.axis line {
  fill: none;
  stroke: #000;
  shape-rendering: crispEdges;
}
 ]]></style></defs><g transform="translate(50,10)"><g class="bar" transform="translate(0,310)"><rect x="1" width="11.999999999999996" height="0"></rect></g><g class="bar" transform="translate(12.999999999999996,310)"><rect x="1" width="11.999999999999996" height="0"></rect></g><g class="bar" transform="translate(25.999999999999993,310)"><rect x="1" width="11.999999999999996" height="0"></rect></g><g class="bar" transform="translate(39.00000000000001,310)"><rect x="1" width="11.999999999999996" height="0"></rect></g><g class="bar" transform="translate(52,310)"><rect x="1" width="11.999999999999996" height="0"></rect></g><g class="bar" transform="translate(65,310)"><rect x="1" width="11.999999999999996" height="0"></rect></g><g class="bar" transform="translate(78.00000000000001,310)"><rect x="1" width="11.999999999999996" height="0"></rect></g><g class="bar" transform="translate(91.00000000000001,310)"><rect x="1" width="11.999999999999996" height="0"></rect></g><g class="bar" transform="translate(104,310)"><rect x="1" width="11.999999999999996" height="0"></rect></g><g class="bar" transform="translate(117,310)"><rect x="1" width="11.999999999999996" height="0"></rect></g><g class="bar" transform="translate(130,310)"><rect x="1" width="11.999999999999996" height="0"></rect></g><g class="bar" transform="translate(143,310)"><rect x="1" width="11.999999999999996" height="0"></rect></g><g class="bar" transform="translate(156.00000000000003,310)"><rect x="1" width="11.999999999999996" height="0"></rect></g><g class="bar" transform="translate(169,307.86206896551727)"><rect x="1" width="11.999999999999996" height="2.137931034482733"></rect></g><g class="bar" transform="translate(182.00000000000003,307.86206896551727)"><rect x="1" width="11.999999999999996" height="2.137931034482733"></rect></g><g class="bar" transform="translate(195,303.58620689655174)"><rect x="1" width="11.999999999999996" height="6.413793103448256"></rect></g><g class="bar" transform="translate(208,297.17241379310343)"><rect x="1" width="11.999999999999996" height="12.82758620689657"></rect></g><g class="bar" transform="translate(221.00000000000003,280.0689655172414)"><rect x="1" width="11.999999999999996" height="29.931034482758605"></rect></g><g class="bar" transform="translate(234,200.9655172413793)"><rect x="1" width="11.999999999999996" height="109.0344827586207"></rect></g><g class="bar" transform="translate(247.00000000000003,156.0689655172414)"><rect x="1" width="11.999999999999996" height="153.9310344827586"></rect></g><g class="bar" transform="translate(260,91.93103448275863)"><rect x="1" width="11.999999999999996" height="218.06896551724137"></rect></g><g class="bar" transform="translate(273,68.41379310344828)"><rect x="1" width="11.999999999999996" height="241.58620689655172"></rect></g><g class="bar" transform="translate(286,0)"><rect x="1" width="11.999999999999996" height="310"></rect></g><g class="bar" transform="translate(299.00000000000006,51.31034482758622)"><rect x="1" width="11.999999999999996" height="258.6896551724138"></rect></g><g class="bar" transform="translate(312.00000000000006,115.44827586206895)"><rect x="1" width="11.999999999999996" height="194.55172413793105"></rect></g><g class="bar" transform="translate(325,160.3448275862069)"><rect x="1" width="11.999999999999996" height="149.6551724137931"></rect></g><g class="bar" transform="translate(338,164.6206896551724)"><rect x="1" width="11.999999999999996" height="145.3793103448276"></rect></g><g class="bar" transform="translate(351,254.41379310344828)"><rect x="1" width="11.999999999999996" height="55.586206896551715"></rect></g><g class="bar" transform="translate(364.00000000000006,269.37931034482756)"><rect x="1" width="11.999999999999996" height="40.62068965517244"></rect></g><g class="bar" transform="translate(377.00000000000006,299.3103448275862)"><rect x="1" width="11.999999999999996" height="10.68965517241378"></rect></g><g class="bar" transform="translate(390,297.17241379310343)"><rect x="1" width="11.999999999999996" height="12.82758620689657"></rect></g><g class="bar" transform="translate(403,303.58620689655174)"><rect x="1" width="11.999999999999996" height="6.413793103448256"></rect></g><g class="bar" transform="translate(416,307.86206896551727)"><rect x="1" width="11.999999999999996" height="2.137931034482733"></rect></g><g class="bar" transform="translate(429.00000000000006,307.86206896551727)"><rect x="1" width="11.999999999999996" height="2.137931034482733"></rect></g><g class="bar" transform="translate(442.00000000000006,310)"><rect x="1" width="11.999999999999996" height="0"></rect></g><g class="bar" transform="translate(455,307.86206896551727)"><rect x="1" width="11.999999999999996" height="2.137931034482733"></rect></g><g class="bar" transform="translate(468,310)"><rect x="1" width="11.999999999999996" height="0"></rect></g><g class="bar" transform="translate(481,310)"><rect x="1" width="11.999999999999996" height="0"></rect></g><g class="bar" transform="translate(494.00000000000006,310)"><rect x="1" width="11.999999999999996" height="0"></rect></g><g class="bar" transform="translate(507.00000000000006,310)"><rect x="1" width="11.999999999999996" height="0"></rect></g><g class="axis axis--x" transform="translate(0,310)" fill="none" font-size="10" font-family="sans-serif" text-anchor="middle"><path class="domain" stroke="#000" d="M0.5,6V0.5H520.5V6"></path><g class="tick" opacity="1" transform="translate(0,0)"><line stroke="#000" y2="6" x1="0.5" x2="0.5"></line><text fill="#000" y="9" x="0.5" dy="0.71em">0.01</text></g><g class="tick" opacity="1" transform="translate(130,0)"><line stroke="#000" y2="6" x1="0.5" x2="0.5"></line><text fill="#000" y="9" x="0.5" dy="0.71em">1</text></g><g class="tick" opacity="1" transform="translate(260,0)"><line stroke="#000" y2="6" x1="0.5" x2="0.5"></line><text fill="#000" y="9" x="0.5" dy="0.71em">100</text></g><g class="tick" opacity="1" transform="translate(390,0)"><line stroke="#000" y2="6" x1="0.5" x2="0.5"></line><text fill="#000" y="9" x="0.5" dy="0.71em">10000</text></g><g class="tick" opacity="1" transform="translate(520,0)"><line stroke="#000" y2="6" x1="0.5" x2="0.5"></line><text fill="#000" y="9" x="0.5" dy="0.71em"></text></g></g><g class="axis axis--y" fill="none" font-size="10" font-family="sans-serif" text-anchor="end"><path class="domain" stroke="#000" d="M-6,310.5H0.5V0.5H-6"></path><g class="tick" opacity="1" transform="translate(0,310)"><line stroke="#000" x2="-6" y1="0.5" y2="0.5"></line><text fill="#000" x="-9" y="0.5" dy="0.32em">0</text></g><g class="tick" opacity="1" transform="translate(0,267.2413793103448)"><line stroke="#000" x2="-6" y1="0.5" y2="0.5"></line><text fill="#000" x="-9" y="0.5" dy="0.32em">20</text></g><g class="tick" opacity="1" transform="translate(0,224.48275862068965)"><line stroke="#000" x2="-6" y1="0.5" y2="0.5"></line><text fill="#000" x="-9" y="0.5" dy="0.32em">40</text></g><g class="tick" opacity="1" transform="translate(0,181.72413793103448)"><line stroke="#000" x2="-6" y1="0.5" y2="0.5"></line><text fill="#000" x="-9" y="0.5" dy="0.32em">60</text></g><g class="tick" opacity="1" transform="translate(0,138.9655172413793)"><line stroke="#000" x2="-6" y1="0.5" y2="0.5"></line><text fill="#000" x="-9" y="0.5" dy="0.32em">80</text></g><g class="tick" opacity="1" transform="translate(0,96.20689655172413)"><line stroke="#000" x2="-6" y1="0.5" y2="0.5"></line><text fill="#000" x="-9" y="0.5" dy="0.32em">100</text></g><g class="tick" opacity="1" transform="translate(0,53.448275862068954)"><line stroke="#000" x2="-6" y1="0.5" y2="0.5"></line><text fill="#000" x="-9" y="0.5" dy="0.32em">120</text></g><g class="tick" opacity="1" transform="translate(0,10.68965517241378)"><line stroke="#000" x2="-6" y1="0.5" y2="0.5"></line><text fill="#000" x="-9" y="0.5" dy="0.32em">140</text></g></g></g></svg>