<svg xmlns="http://www.w3.org/2000/svg" width="600" height="350"><defs><style type="text/css"><![CDATA[ 
.bar rect {
  fill-opacity: 0;
  stroke:       black;
  stroke-width: 0.5;
}

.highlight rect {
  fill:       red;
  fill-opacity: 1;
}
.axis path,
.axis line {
  fill: none;
  stroke: #000;
  shape-rendering: crispEdges;
}
path {
    stroke: red;
    fill: none;
}

line {
    stroke: red;
}

path.marker {
    fill: red;
}
 ]]></style></defs><g transform="translate(50,10)"><g class="bar" transform="translate(0,263.9405684754522)"><rect x="1" width="11.999999999999996" height="46.05943152454779"></rect></g><g class="bar" transform="translate(12.999999999999996,251.12403100775194)"><rect x="1" width="11.999999999999996" height="58.87596899224806"></rect></g><g class="bar" transform="translate(25.999999999999993,239.90956072351423)"><rect x="1" width="11.999999999999996" height="70.09043927648577"></rect></g><g class="bar" transform="translate(39.00000000000001,212.87467700258398)"><rect x="1" width="11.999999999999996" height="97.12532299741602"></rect></g><g class="bar" transform="translate(52,181.43410852713177)"><rect x="1" width="11.999999999999996" height="128.56589147286823"></rect></g><g class="bar" transform="translate(65,129.96770025839794)"><rect x="1" width="11.999999999999996" height="180.03229974160206"></rect></g><g class="bar" transform="translate(78.00000000000001,59.677002583979316)"><rect x="1" width="11.999999999999996" height="250.32299741602068"></rect></g><g class="bar" transform="translate(91.00000000000001,0)"><rect x="1" width="11.999999999999996" height="310"></rect></g><g class="bar" transform="translate(104,7.810077519379831)"><rect x="1" width="11.999999999999996" height="302.18992248062017"></rect></g><g class="bar" transform="translate(117,40.65245478036178)"><rect x="1" width="11.999999999999996" height="269.3475452196382"></rect></g><g class="bar" transform="translate(130,68.68863049095609)"><rect x="1" width="11.999999999999996" height="241.3113695090439"></rect></g><g class="bar" transform="translate(143,90.71705426356587)"><rect x="1" width="11.999999999999996" height="219.28294573643413"></rect></g><g class="bar" transform="translate(156.00000000000003,92.11886304909561)"><rect x="1" width="11.999999999999996" height="217.8811369509044"></rect></g><g class="bar" transform="translate(169,111.94444444444446)"><rect x="1" width="11.999999999999996" height="198.05555555555554"></rect></g><g class="bar" transform="translate(182.00000000000003,122.55813953488374)"><rect x="1" width="11.999999999999996" height="187.44186046511626"></rect></g><g class="bar" transform="translate(195,131.56976744186045)"><rect x="1" width="11.999999999999996" height="178.43023255813955"></rect></g><g class="bar" transform="translate(208,153.7984496124031)"><rect x="1" width="11.999999999999996" height="156.2015503875969"></rect></g><g class="bar" transform="translate(221.00000000000003,174.02454780361757)"><rect x="1" width="11.999999999999996" height="135.97545219638243"></rect></g><g class="bar" transform="translate(234,192.8488372093023)"><rect x="1" width="11.999999999999996" height="117.1511627906977"></rect></g><g class="bar" transform="translate(247.00000000000003,218.28165374677002)"><rect x="1" width="11.999999999999996" height="91.71834625322998"></rect></g><g class="bar" transform="translate(260,236.3049095607235)"><rect x="1" width="11.999999999999996" height="73.6950904392765"></rect></g><g class="bar" transform="translate(273,252.32558139534885)"><rect x="1" width="11.999999999999996" height="57.67441860465115"></rect></g><g class="bar" transform="translate(286,277.1576227390181)"><rect x="1" width="11.999999999999996" height="32.84237726098189"></rect></g><g class="bar" transform="translate(299.00000000000006,279.9612403100775)"><rect x="1" width="11.999999999999996" height="30.038759689922472"></rect></g><g class="bar" transform="translate(312.00000000000006,283.1653746770026)"><rect x="1" width="11.999999999999996" height="26.834625322997397"></rect></g><g class="bar" transform="translate(325,292.57751937984494)"><rect x="1" width="11.999999999999996" height="17.422480620155056"></rect></g><g class="bar" transform="translate(338,301.3888888888889)"><rect x="1" width="11.999999999999996" height="8.611111111111086"></rect></g><g class="bar" transform="translate(351,306.7958656330749)"><rect x="1" width="11.999999999999996" height="3.204134366925075"></rect></g><g class="bar" transform="translate(364.00000000000006,306.5956072351421)"><rect x="1" width="11.999999999999996" height="3.404392764857903"></rect></g><g class="bar" transform="translate(377.00000000000006,309.19896640826875)"><rect x="1" width="11.999999999999996" height="0.8010335917312545"></rect></g><g class="bar" transform="translate(390,308.9987080103359)"><rect x="1" width="11.999999999999996" height="1.0012919896640824"></rect></g><g class="bar" transform="translate(403,309.59948320413434)"><rect x="1" width="11.999999999999996" height="0.4005167958656557"></rect></g><g class="bar" transform="translate(416,309.59948320413434)"><rect x="1" width="11.999999999999996" height="0.4005167958656557"></rect></g><g class="bar" transform="translate(429.00000000000006,310)"><rect x="1" width="11.999999999999996" height="0"></rect></g><g class="bar" transform="translate(442.00000000000006,310)"><rect x="1" width="11.999999999999996" height="0"></rect></g><g class="bar" transform="translate(455,310)"><rect x="1" width="11.999999999999996" height="0"></rect></g><g class="bar" transform="translate(468,310)"><rect x="1" width="11.999999999999996" height="0"></rect></g><g class="bar" transform="translate(481,310)"><rect x="1" width="11.999999999999996" height="0"></rect></g><g class="bar" transform="translate(494.00000000000006,310)"><rect x="1" width="11.999999999999996" height="0"></rect></g><g class="bar" transform="translate(507.00000000000006,310)"><rect x="1" width="11.999999999999996" height="0"></rect></g><g class="axis axis--x" transform="translate(0,310)" fill="none" font-size="10" font-family="sans-serif" text-anchor="middle"><path class="domain" stroke="#000" d="M0.5,6V0.5H520.5V6"></path><g class="tick" opacity="1" transform="translate(0.5,0)"><line stroke="#000" y2="6"></line><text fill="#000" y="9" dy="0.71em">0.01</text></g><g class="tick" opacity="1" transform="translate(130.5,0)"><line stroke="#000" y2="6"></line><text fill="#000" y="9" dy="0.71em">1</text></g><g class="tick" opacity="1" transform="translate(260.5,0)"><line stroke="#000" y2="6"></line><text fill="#000" y="9" dy="0.71em">100</text></g><g class="tick" opacity="1" transform="translate(390.5,0)"><line stroke="#000" y2="6"></line><text fill="#000" y="9" dy="0.71em">10000</text></g><g class="tick" opacity="1" transform="translate(520.5,0)"><line stroke="#000" y2="6"></line><text fill="#000" y="9" dy="0.71em"></text></g></g><g class="axis axis--y" fill="none" font-size="10" font-family="sans-serif" text-anchor="end"><path class="domain" stroke="#000" d="M-6,310.5H0.5V0.5H-6"></path><g class="tick" opacity="1" transform="translate(0,310.5)"><line stroke="#000" x2="-6"></line><text fill="#000" x="-9" dy="0.32em">0</text></g><g class="tick" opacity="1" transform="translate(0,270.4483204134367)"><line stroke="#000" x2="-6"></line><text fill="#000" x="-9" dy="0.32em">200</text></g><g class="tick" opacity="1" transform="translate(0,230.3966408268734)"><line stroke="#000" x2="-6"></line><text fill="#000" x="-9" dy="0.32em">400</text></g><g class="tick" opacity="1" transform="translate(0,190.34496124031006)"><line stroke="#000" x2="-6"></line><text fill="#000" x="-9" dy="0.32em">600</text></g><g class="tick" opacity="1" transform="translate(0,150.2932816537468)"><line stroke="#000" x2="-6"></line><text fill="#000" x="-9" dy="0.32em">800</text></g><g class="tick" opacity="1" transform="translate(0,110.24160206718346)"><line stroke="#000" x2="-6"></line><text fill="#000" x="-9" dy="0.32em">1,000</text></g><g class="tick" opacity="1" transform="translate(0,70.18992248062014)"><line stroke="#000" x2="-6"></line><text fill="#000" x="-9" dy="0.32em">1,200</text></g><g class="tick" opacity="1" transform="translate(0,30.138242894056873)"><line stroke="#000" x2="-6"></line><text fill="#000" x="-9" dy="0.32em">1,400</text></g></g></g></svg>