<svg xmlns="http://www.w3.org/2000/svg" width="280" height="160"><defs><style type="text/css"><![CDATA[ 
.bar rect {
  fill-opacity: 0;
  stroke:       black;
  stroke-width: 0.5;
}

.highlight rect {
  fill:       red;
  fill-opacity: 1;
}
.axis path,
.axis line {
  fill: none;
  stroke: #000;
  shape-rendering: crispEdges;
}
 ]]></style></defs><g transform="translate(50,10)"><g class="bar" transform="translate(0,119.83971504897596)"><rect x="1" width="11.5" height="0.16028495102403895"></rect></g><g class="bar" transform="translate(12.5,118.23686553873553)"><rect x="1" width="11.5" height="1.763134461264471"></rect></g><g class="bar" transform="translate(25,96.86553873552984)"><rect x="1" width="11.5" height="23.13446126447016"></rect></g><g class="bar" transform="translate(37.5,21.157613535173653)"><rect x="1" width="11.5" height="98.84238646482635"></rect></g><g class="bar" transform="translate(50,0)"><rect x="1" width="11.5" height="120"></rect></g><g class="bar" transform="translate(62.5,2.030276046304536)"><rect x="1" width="11.5" height="117.96972395369546"></rect></g><g class="bar" transform="translate(75,12.502226179875336)"><rect x="1" width="11.5" height="107.49777382012466"></rect></g><g class="bar" transform="translate(87.5,45.253784505788076)"><rect x="1" width="11.5" height="74.74621549421192"></rect></g><g class="bar" transform="translate(100,78.21905609973285)"><rect x="1" width="11.5" height="41.78094390026715"></rect></g><g class="bar" transform="translate(112.5,102.26179875333926)"><rect x="1" width="11.5" height="17.738201246660736"></rect></g><g class="bar" transform="translate(125,113.05431878895814)"><rect x="1" width="11.5" height="6.945681211041858"></rect></g><g class="bar" transform="translate(137.5,117.06144256455921)"><rect x="1" width="11.5" height="2.938557435440785"></rect></g><g class="bar" transform="translate(150,119.83971504897596)"><rect x="1" width="11.5" height="0.16028495102403895"></rect></g><g class="bar" transform="translate(162.5,120)"><rect x="1" width="11.5" height="0"></rect></g><g class="bar" transform="translate(175,120)"><rect x="1" width="11.5" height="0"></rect></g><g class="bar" transform="translate(187.5,120)"><rect x="1" width="11.5" height="0"></rect></g></g></svg>