<svg xmlns="http://www.w3.org/2000/svg" width="600" height="350"><defs><style type="text/css"><![CDATA[ 
.bar rect {
  fill-opacity: 0;
  stroke:       black;
  stroke-width: 0.5;
}

.highlight rect {
  fill:       red;
  fill-opacity: 1;
}
.axis path,
.axis line {
  fill: none;
  stroke: #000;
  shape-rendering: crispEdges;
}
path {
    stroke: red;
    fill: none;
}

line {
    stroke: red;
}

path.marker {
    fill: red;
}
 ]]></style></defs><g transform="translate(50,10)"><g class="bar" transform="translate(0,310)"><rect x="1" width="11.999999999999996" height="0"></rect></g><g class="bar" transform="translate(12.999999999999996,310)"><rect x="1" width="11.999999999999996" height="0"></rect></g><g class="bar" transform="translate(25.999999999999993,310)"><rect x="1" width="11.999999999999996" height="0"></rect></g><g class="bar" transform="translate(39.00000000000001,310)"><rect x="1" width="11.999999999999996" height="0"></rect></g><g class="bar" transform="translate(52,310)"><rect x="1" width="11.999999999999996" height="0"></rect></g><g class="bar" transform="translate(65,310)"><rect x="1" width="11.999999999999996" height="0"></rect></g><g class="bar" transform="translate(78.00000000000001,310)"><rect x="1" width="11.999999999999996" height="0"></rect></g><g class="bar" transform="translate(91.00000000000001,310)"><rect x="1" width="11.999999999999996" height="0"></rect></g><g class="bar" transform="translate(104,306.5934065934066)"><rect x="1" width="11.999999999999996" height="3.4065934065934016"></rect></g><g class="bar" transform="translate(117,310)"><rect x="1" width="11.999999999999996" height="0"></rect></g><g class="bar" transform="translate(130,310)"><rect x="1" width="11.999999999999996" height="0"></rect></g><g class="bar" transform="translate(143,296.3736263736264)"><rect x="1" width="11.999999999999996" height="13.626373626373606"></rect></g><g class="bar" transform="translate(156.00000000000003,255.4945054945055)"><rect x="1" width="11.999999999999996" height="54.50549450549451"></rect></g><g class="bar" transform="translate(169,245.27472527472526)"><rect x="1" width="11.999999999999996" height="64.72527472527474"></rect></g><g class="bar" transform="translate(182.00000000000003,187.36263736263737)"><rect x="1" width="11.999999999999996" height="122.63736263736263"></rect></g><g class="bar" transform="translate(195,109.010989010989)"><rect x="1" width="11.999999999999996" height="200.989010989011"></rect></g><g class="bar" transform="translate(208,115.82417582417582)"><rect x="1" width="11.999999999999996" height="194.17582417582418"></rect></g><g class="bar" transform="translate(221.00000000000003,3.4065934065934016)"><rect x="1" width="11.999999999999996" height="306.5934065934066"></rect></g><g class="bar" transform="translate(234,0)"><rect x="1" width="11.999999999999996" height="310"></rect></g><g class="bar" transform="translate(247.00000000000003,23.84615384615381)"><rect x="1" width="11.999999999999996" height="286.1538461538462"></rect></g><g class="bar" transform="translate(260,34.06593406593407)"><rect x="1" width="11.999999999999996" height="275.9340659340659"></rect></g><g class="bar" transform="translate(273,78.35164835164835)"><rect x="1" width="11.999999999999996" height="231.64835164835165"></rect></g><g class="bar" transform="translate(286,61.318681318681314)"><rect x="1" width="11.999999999999996" height="248.6813186813187"></rect></g><g class="bar" transform="translate(299.00000000000006,102.19780219780222)"><rect x="1" width="11.999999999999996" height="207.80219780219778"></rect></g><g class="bar" transform="translate(312.00000000000006,136.26373626373626)"><rect x="1" width="11.999999999999996" height="173.73626373626374"></rect></g><g class="bar" transform="translate(325,153.2967032967033)"><rect x="1" width="11.999999999999996" height="156.7032967032967"></rect></g><g class="bar" transform="translate(338,156.7032967032967)"><rect x="1" width="11.999999999999996" height="153.2967032967033"></rect></g><g class="bar" transform="translate(351,197.58241758241758)"><rect x="1" width="11.999999999999996" height="112.41758241758242"></rect></g><g class="bar" transform="translate(364.00000000000006,238.46153846153845)"><rect x="1" width="11.999999999999996" height="71.53846153846155"></rect></g><g class="bar" transform="translate(377.00000000000006,282.74725274725273)"><rect x="1" width="11.999999999999996" height="27.25274725274727"></rect></g><g class="bar" transform="translate(390,265.7142857142857)"><rect x="1" width="11.999999999999996" height="44.28571428571428"></rect></g><g class="bar" transform="translate(403,299.7802197802198)"><rect x="1" width="11.999999999999996" height="10.219780219780205"></rect></g><g class="bar" transform="translate(416,296.3736263736264)"><rect x="1" width="11.999999999999996" height="13.626373626373606"></rect></g><g class="bar" transform="translate(429.00000000000006,310)"><rect x="1" width="11.999999999999996" height="0"></rect></g><g class="bar" transform="translate(442.00000000000006,306.5934065934066)"><rect x="1" width="11.999999999999996" height="3.4065934065934016"></rect></g><g class="bar" transform="translate(455,310)"><rect x="1" width="11.999999999999996" height="0"></rect></g><g class="bar" transform="translate(468,310)"><rect x="1" width="11.999999999999996" height="0"></rect></g><g class="bar" transform="translate(481,310)"><rect x="1" width="11.999999999999996" height="0"></rect></g><g class="bar" transform="translate(494.00000000000006,310)"><rect x="1" width="11.999999999999996" height="0"></rect></g><g class="bar" transform="translate(507.00000000000006,310)"><rect x="1" width="11.999999999999996" height="0"></rect></g><g class="axis axis--x" transform="translate(0,310)" fill="none" font-size="10" font-family="sans-serif" text-anchor="middle"><path class="domain" stroke="#000" d="M0.5,6V0.5H520.5V6"></path><g class="tick" opacity="1" transform="translate(0.5,0)"><line stroke="#000" y2="6"></line><text fill="#000" y="9" dy="0.71em">0.01</text></g><g class="tick" opacity="1" transform="translate(130.5,0)"><line stroke="#000" y2="6"></line><text fill="#000" y="9" dy="0.71em">1</text></g><g class="tick" opacity="1" transform="translate(260.5,0)"><line stroke="#000" y2="6"></line><text fill="#000" y="9" dy="0.71em">100</text></g><g class="tick" opacity="1" transform="translate(390.5,0)"><line stroke="#000" y2="6"></line><text fill="#000" y="9" dy="0.71em">10000</text></g><g class="tick" opacity="1" transform="translate(520.5,0)"><line stroke="#000" y2="6"></line><text fill="#000" y="9" dy="0.71em"></text></g></g><g class="axis axis--y" fill="none" font-size="10" font-family="sans-serif" text-anchor="end"><path class="domain" stroke="#000" d="M-6,310.5H0.5V0.5H-6"></path><g class="tick" opacity="1" transform="translate(0,310.5)"><line stroke="#000" x2="-6"></line><text fill="#000" x="-9" dy="0.32em">0</text></g><g class="tick" opacity="1" transform="translate(0,276.4340659340659)"><line stroke="#000" x2="-6"></line><text fill="#000" x="-9" dy="0.32em">10</text></g><g class="tick" opacity="1" transform="translate(0,242.36813186813185)"><line stroke="#000" x2="-6"></line><text fill="#000" x="-9" dy="0.32em">20</text></g><g class="tick" opacity="1" transform="translate(0,208.3021978021978)"><line stroke="#000" x2="-6"></line><text fill="#000" x="-9" dy="0.32em">30</text></g><g class="tick" opacity="1" transform="translate(0,174.23626373626374)"><line stroke="#000" x2="-6"></line><text fill="#000" x="-9" dy="0.32em">40</text></g><g class="tick" opacity="1" transform="translate(0,140.17032967032966)"><line stroke="#000" x2="-6"></line><text fill="#000" x="-9" dy="0.32em">50</text></g><g class="tick" opacity="1" transform="translate(0,106.10439560439562)"><line stroke="#000" x2="-6"></line><text fill="#000" x="-9" dy="0.32em">60</text></g><g class="tick" opacity="1" transform="translate(0,72.03846153846152)"><line stroke="#000" x2="-6"></line><text fill="#000" x="-9" dy="0.32em">70</text></g><g class="tick" opacity="1" transform="translate(0,37.972527472527474)"><line stroke="#000" x2="-6"></line><text fill="#000" x="-9" dy="0.32em">80</text></g><g class="tick" opacity="1" transform="translate(0,3.9065934065934016)"><line stroke="#000" x2="-6"></line><text fill="#000" x="-9" dy="0.32em">90</text></g></g></g></svg>