<svg xmlns="http://www.w3.org/2000/svg" width="600" height="350"><defs><style type="text/css"><![CDATA[ 
.bar rect {
  fill-opacity: 0;
  stroke:       black;
  stroke-width: 0.5;
}

.highlight rect {
  fill:       red;
  fill-opacity: 1;
}
.axis path,
.axis line {
  fill: none;
  stroke: #000;
  shape-rendering: crispEdges;
}
path {
    stroke: red;
    fill: none;
}

line {
    stroke: red;
}

path.marker {
    fill: red;
}
 ]]></style></defs><g transform="translate(50,10)"><g class="bar" transform="translate(0,310)"><rect x="1" width="11.999999999999996" height="0"></rect></g><g class="bar" transform="translate(12.999999999999996,310)"><rect x="1" width="11.999999999999996" height="0"></rect></g><g class="bar" transform="translate(25.999999999999993,310)"><rect x="1" width="11.999999999999996" height="0"></rect></g><g class="bar" transform="translate(39.00000000000001,310)"><rect x="1" width="11.999999999999996" height="0"></rect></g><g class="bar" transform="translate(52,310)"><rect x="1" width="11.999999999999996" height="0"></rect></g><g class="bar" transform="translate(65,310)"><rect x="1" width="11.999999999999996" height="0"></rect></g><g class="bar" transform="translate(78.00000000000001,310)"><rect x="1" width="11.999999999999996" height="0"></rect></g><g class="bar" transform="translate(91.00000000000001,296.3972286374134)"><rect x="1" width="11.999999999999996" height="13.602771362586623"></rect></g><g class="bar" transform="translate(104,275.635103926097)"><rect x="1" width="11.999999999999996" height="34.364896073903026"></rect></g><g class="bar" transform="translate(117,260.6004618937644)"><rect x="1" width="11.999999999999996" height="49.39953810623558"></rect></g><g class="bar" transform="translate(130,299.9769053117783)"><rect x="1" width="11.999999999999996" height="10.023094688221704"></rect></g><g class="bar" transform="translate(143,280.6466512702078)"><rect x="1" width="11.999999999999996" height="29.353348729792174"></rect></g><g class="bar" transform="translate(156.00000000000003,243.41801385681293)"><rect x="1" width="11.999999999999996" height="66.58198614318707"></rect></g><g class="bar" transform="translate(169,264.18013856812934)"><rect x="1" width="11.999999999999996" height="45.81986143187066"></rect></g><g class="bar" transform="translate(182.00000000000003,169.6766743648961)"><rect x="1" width="11.999999999999996" height="140.3233256351039"></rect></g><g class="bar" transform="translate(195,116.69745958429561)"><rect x="1" width="11.999999999999996" height="193.30254041570439"></rect></g><g class="bar" transform="translate(208,27.20554272517319)"><rect x="1" width="11.999999999999996" height="282.7944572748268"></rect></g><g class="bar" transform="translate(221.00000000000003,0)"><rect x="1" width="11.999999999999996" height="310"></rect></g><g class="bar" transform="translate(234,55.842956120092396)"><rect x="1" width="11.999999999999996" height="254.1570438799076"></rect></g><g class="bar" transform="translate(247.00000000000003,96.6512702078522)"><rect x="1" width="11.999999999999996" height="213.3487297921478"></rect></g><g class="bar" transform="translate(260,181.84757505773672)"><rect x="1" width="11.999999999999996" height="128.15242494226328"></rect></g><g class="bar" transform="translate(273,224.80369515011546)"><rect x="1" width="11.999999999999996" height="85.19630484988454"></rect></g><g class="bar" transform="translate(286,249.86143187066975)"><rect x="1" width="11.999999999999996" height="60.13856812933025"></rect></g><g class="bar" transform="translate(299.00000000000006,271.3394919168591)"><rect x="1" width="11.999999999999996" height="38.66050808314088"></rect></g><g class="bar" transform="translate(312.00000000000006,283.51039260969975)"><rect x="1" width="11.999999999999996" height="26.48960739030025"></rect></g><g class="bar" transform="translate(325,283.51039260969975)"><rect x="1" width="11.999999999999996" height="26.48960739030025"></rect></g><g class="bar" transform="translate(338,296.3972286374134)"><rect x="1" width="11.999999999999996" height="13.602771362586623"></rect></g><g class="bar" transform="translate(351,297.82909930715937)"><rect x="1" width="11.999999999999996" height="12.170900692840632"></rect></g><g class="bar" transform="translate(364.00000000000006,295.68129330254044)"><rect x="1" width="11.999999999999996" height="14.318706697459561"></rect></g><g class="bar" transform="translate(377.00000000000006,302.8406466512702)"><rect x="1" width="11.999999999999996" height="7.1593533487297805"></rect></g><g class="bar" transform="translate(390,305.70438799076214)"><rect x="1" width="11.999999999999996" height="4.295612009237857"></rect></g><g class="bar" transform="translate(403,307.85219399538107)"><rect x="1" width="11.999999999999996" height="2.1478060046189285"></rect></g><g class="bar" transform="translate(416,308.56812933025407)"><rect x="1" width="11.999999999999996" height="1.4318706697459334"></rect></g><g class="bar" transform="translate(429.00000000000006,309.284064665127)"><rect x="1" width="11.999999999999996" height="0.7159353348729951"></rect></g><g class="bar" transform="translate(442.00000000000006,309.284064665127)"><rect x="1" width="11.999999999999996" height="0.7159353348729951"></rect></g><g class="bar" transform="translate(455,309.284064665127)"><rect x="1" width="11.999999999999996" height="0.7159353348729951"></rect></g><g class="bar" transform="translate(468,310)"><rect x="1" width="11.999999999999996" height="0"></rect></g><g class="bar" transform="translate(481,310)"><rect x="1" width="11.999999999999996" height="0"></rect></g><g class="bar" transform="translate(494.00000000000006,310)"><rect x="1" width="11.999999999999996" height="0"></rect></g><g class="bar" transform="translate(507.00000000000006,310)"><rect x="1" width="11.999999999999996" height="0"></rect></g><g class="axis axis--x" transform="translate(0,310)" fill="none" font-size="10" font-family="sans-serif" text-anchor="middle"><path class="domain" stroke="#000" d="M0.5,6V0.5H520.5V6"></path><g class="tick" opacity="1" transform="translate(0.5,0)"><line stroke="#000" y2="6"></line><text fill="#000" y="9" dy="0.71em">0.01</text></g><g class="tick" opacity="1" transform="translate(130.5,0)"><line stroke="#000" y2="6"></line><text fill="#000" y="9" dy="0.71em">1</text></g><g class="tick" opacity="1" transform="translate(260.5,0)"><line stroke="#000" y2="6"></line><text fill="#000" y="9" dy="0.71em">100</text></g><g class="tick" opacity="1" transform="translate(390.5,0)"><line stroke="#000" y2="6"></line><text fill="#000" y="9" dy="0.71em">10000</text></g><g class="tick" opacity="1" transform="translate(520.5,0)"><line stroke="#000" y2="6"></line><text fill="#000" y="9" dy="0.71em"></text></g></g><g class="axis axis--y" fill="none" font-size="10" font-family="sans-serif" text-anchor="end"><path class="domain" stroke="#000" d="M-6,310.5H0.5V0.5H-6"></path><g class="tick" opacity="1" transform="translate(0,310.5)"><line stroke="#000" x2="-6"></line><text fill="#000" x="-9" dy="0.32em">0</text></g><g class="tick" opacity="1" transform="translate(0,274.70323325635104)"><line stroke="#000" x2="-6"></line><text fill="#000" x="-9" dy="0.32em">50</text></g><g class="tick" opacity="1" transform="translate(0,238.90646651270208)"><line stroke="#000" x2="-6"></line><text fill="#000" x="-9" dy="0.32em">100</text></g><g class="tick" opacity="1" transform="translate(0,203.10969976905312)"><line stroke="#000" x2="-6"></line><text fill="#000" x="-9" dy="0.32em">150</text></g><g class="tick" opacity="1" transform="translate(0,167.31293302540416)"><line stroke="#000" x2="-6"></line><text fill="#000" x="-9" dy="0.32em">200</text></g><g class="tick" opacity="1" transform="translate(0,131.5161662817552)"><line stroke="#000" x2="-6"></line><text fill="#000" x="-9" dy="0.32em">250</text></g><g class="tick" opacity="1" transform="translate(0,95.71939953810625)"><line stroke="#000" x2="-6"></line><text fill="#000" x="-9" dy="0.32em">300</text></g><g class="tick" opacity="1" transform="translate(0,59.92263279445726)"><line stroke="#000" x2="-6"></line><text fill="#000" x="-9" dy="0.32em">350</text></g><g class="tick" opacity="1" transform="translate(0,24.125866050808327)"><line stroke="#000" x2="-6"></line><text fill="#000" x="-9" dy="0.32em">400</text></g></g></g></svg>