<svg xmlns="http://www.w3.org/2000/svg" width="600" height="350"><defs><style type="text/css"><![CDATA[ 
.bar rect {
  fill-opacity: 0;
  stroke:       black;
  stroke-width: 0.5;
}

.highlight rect {
  fill:       red;
  fill-opacity: 1;
}
.axis path,
.axis line {
  fill: none;
  stroke: #000;
  shape-rendering: crispEdges;
}
path {
    stroke: red;
    fill: none;
}

line {
    stroke: red;
}

path.marker {
    fill: red;
}
 ]]></style></defs><g transform="translate(50,10)"><g class="bar" transform="translate(0,310)"><rect x="1" width="11.999999999999996" height="0"></rect></g><g class="bar" transform="translate(12.999999999999996,310)"><rect x="1" width="11.999999999999996" height="0"></rect></g><g class="bar" transform="translate(25.999999999999993,310)"><rect x="1" width="11.999999999999996" height="0"></rect></g><g class="bar" transform="translate(39.00000000000001,310)"><rect x="1" width="11.999999999999996" height="0"></rect></g><g class="bar" transform="translate(52,310)"><rect x="1" width="11.999999999999996" height="0"></rect></g><g class="bar" transform="translate(65,310)"><rect x="1" width="11.999999999999996" height="0"></rect></g><g class="bar" transform="translate(78.00000000000001,307.66037735849056)"><rect x="1" width="11.999999999999996" height="2.339622641509436"></rect></g><g class="bar" transform="translate(91.00000000000001,307.66037735849056)"><rect x="1" width="11.999999999999996" height="2.339622641509436"></rect></g><g class="bar" transform="translate(104,305.3207547169811)"><rect x="1" width="11.999999999999996" height="4.679245283018872"></rect></g><g class="bar" transform="translate(117,292.45283018867923)"><rect x="1" width="11.999999999999996" height="17.54716981132077"></rect></g><g class="bar" transform="translate(130,274.90566037735846)"><rect x="1" width="11.999999999999996" height="35.09433962264154"></rect></g><g class="bar" transform="translate(143,276.07547169811323)"><rect x="1" width="11.999999999999996" height="33.92452830188677"></rect></g><g class="bar" transform="translate(156.00000000000003,231.62264150943395)"><rect x="1" width="11.999999999999996" height="78.37735849056605"></rect></g><g class="bar" transform="translate(169,177.81132075471697)"><rect x="1" width="11.999999999999996" height="132.18867924528303"></rect></g><g class="bar" transform="translate(182.00000000000003,79.54716981132077)"><rect x="1" width="11.999999999999996" height="230.45283018867923"></rect></g><g class="bar" transform="translate(195,73.69811320754715)"><rect x="1" width="11.999999999999996" height="236.30188679245285"></rect></g><g class="bar" transform="translate(208,22.226415094339643)"><rect x="1" width="11.999999999999996" height="287.77358490566036"></rect></g><g class="bar" transform="translate(221.00000000000003,15.207547169811335)"><rect x="1" width="11.999999999999996" height="294.79245283018867"></rect></g><g class="bar" transform="translate(234,0)"><rect x="1" width="11.999999999999996" height="310"></rect></g><g class="bar" transform="translate(247.00000000000003,16.377358490566053)"><rect x="1" width="11.999999999999996" height="293.62264150943395"></rect></g><g class="bar" transform="translate(260,19.886792452830207)"><rect x="1" width="11.999999999999996" height="290.1132075471698"></rect></g><g class="bar" transform="translate(273,67.84905660377356)"><rect x="1" width="11.999999999999996" height="242.15094339622644"></rect></g><g class="bar" transform="translate(286,90.07547169811323)"><rect x="1" width="11.999999999999996" height="219.92452830188677"></rect></g><g class="bar" transform="translate(299.00000000000006,125.16981132075472)"><rect x="1" width="11.999999999999996" height="184.83018867924528"></rect></g><g class="bar" transform="translate(312.00000000000006,155.58490566037736)"><rect x="1" width="11.999999999999996" height="154.41509433962264"></rect></g><g class="bar" transform="translate(325,187.16981132075472)"><rect x="1" width="11.999999999999996" height="122.83018867924528"></rect></g><g class="bar" transform="translate(338,222.26415094339623)"><rect x="1" width="11.999999999999996" height="87.73584905660377"></rect></g><g class="bar" transform="translate(351,257.35849056603774)"><rect x="1" width="11.999999999999996" height="52.641509433962256"></rect></g><g class="bar" transform="translate(364.00000000000006,287.77358490566036)"><rect x="1" width="11.999999999999996" height="22.226415094339643"></rect></g><g class="bar" transform="translate(377.00000000000006,305.3207547169811)"><rect x="1" width="11.999999999999996" height="4.679245283018872"></rect></g><g class="bar" transform="translate(390,308.8301886792453)"><rect x="1" width="11.999999999999996" height="1.169811320754718"></rect></g><g class="bar" transform="translate(403,308.8301886792453)"><rect x="1" width="11.999999999999996" height="1.169811320754718"></rect></g><g class="bar" transform="translate(416,310)"><rect x="1" width="11.999999999999996" height="0"></rect></g><g class="bar" transform="translate(429.00000000000006,308.8301886792453)"><rect x="1" width="11.999999999999996" height="1.169811320754718"></rect></g><g class="bar" transform="translate(442.00000000000006,310)"><rect x="1" width="11.999999999999996" height="0"></rect></g><g class="bar" transform="translate(455,310)"><rect x="1" width="11.999999999999996" height="0"></rect></g><g class="bar" transform="translate(468,310)"><rect x="1" width="11.999999999999996" height="0"></rect></g><g class="bar" transform="translate(481,310)"><rect x="1" width="11.999999999999996" height="0"></rect></g><g class="bar" transform="translate(494.00000000000006,310)"><rect x="1" width="11.999999999999996" height="0"></rect></g><g class="bar" transform="translate(507.00000000000006,310)"><rect x="1" width="11.999999999999996" height="0"></rect></g><g class="axis axis--x" transform="translate(0,310)" fill="none" font-size="10" font-family="sans-serif" text-anchor="middle"><path class="domain" stroke="#000" d="M0.5,6V0.5H520.5V6"></path><g class="tick" opacity="1" transform="translate(0.5,0)"><line stroke="#000" y2="6"></line><text fill="#000" y="9" dy="0.71em">0.01</text></g><g class="tick" opacity="1" transform="translate(130.5,0)"><line stroke="#000" y2="6"></line><text fill="#000" y="9" dy="0.71em">1</text></g><g class="tick" opacity="1" transform="translate(260.5,0)"><line stroke="#000" y2="6"></line><text fill="#000" y="9" dy="0.71em">100</text></g><g class="tick" opacity="1" transform="translate(390.5,0)"><line stroke="#000" y2="6"></line><text fill="#000" y="9" dy="0.71em">10000</text></g><g class="tick" opacity="1" transform="translate(520.5,0)"><line stroke="#000" y2="6"></line><text fill="#000" y="9" dy="0.71em"></text></g></g><g class="axis axis--y" fill="none" font-size="10" font-family="sans-serif" text-anchor="end"><path class="domain" stroke="#000" d="M-6,310.5H0.5V0.5H-6"></path><g class="tick" opacity="1" transform="translate(0,310.5)"><line stroke="#000" x2="-6"></line><text fill="#000" x="-9" dy="0.32em">0</text></g><g class="tick" opacity="1" transform="translate(0,287.10377358490564)"><line stroke="#000" x2="-6"></line><text fill="#000" x="-9" dy="0.32em">20</text></g><g class="tick" opacity="1" transform="translate(0,263.70754716981133)"><line stroke="#000" x2="-6"></line><text fill="#000" x="-9" dy="0.32em">40</text></g><g class="tick" opacity="1" transform="translate(0,240.31132075471697)"><line stroke="#000" x2="-6"></line><text fill="#000" x="-9" dy="0.32em">60</text></g><g class="tick" opacity="1" transform="translate(0,216.91509433962264)"><line stroke="#000" x2="-6"></line><text fill="#000" x="-9" dy="0.32em">80</text></g><g class="tick" opacity="1" transform="translate(0,193.5188679245283)"><line stroke="#000" x2="-6"></line><text fill="#000" x="-9" dy="0.32em">100</text></g><g class="tick" opacity="1" transform="translate(0,170.12264150943395)"><line stroke="#000" x2="-6"></line><text fill="#000" x="-9" dy="0.32em">120</text></g><g class="tick" opacity="1" transform="translate(0,146.72641509433961)"><line stroke="#000" x2="-6"></line><text fill="#000" x="-9" dy="0.32em">140</text></g><g class="tick" opacity="1" transform="translate(0,123.33018867924528)"><line stroke="#000" x2="-6"></line><text fill="#000" x="-9" dy="0.32em">160</text></g><g class="tick" opacity="1" transform="translate(0,99.93396226415095)"><line stroke="#000" x2="-6"></line><text fill="#000" x="-9" dy="0.32em">180</text></g><g class="tick" opacity="1" transform="translate(0,76.53773584905659)"><line stroke="#000" x2="-6"></line><text fill="#000" x="-9" dy="0.32em">200</text></g><g class="tick" opacity="1" transform="translate(0,53.141509433962256)"><line stroke="#000" x2="-6"></line><text fill="#000" x="-9" dy="0.32em">220</text></g><g class="tick" opacity="1" transform="translate(0,29.745283018867894)"><line stroke="#000" x2="-6"></line><text fill="#000" x="-9" dy="0.32em">240</text></g><g class="tick" opacity="1" transform="translate(0,6.34905660377359)"><line stroke="#000" x2="-6"></line><text fill="#000" x="-9" dy="0.32em">260</text></g></g></g></svg>