<svg xmlns="http://www.w3.org/2000/svg" width="600" height="350"><defs><style type="text/css"><![CDATA[ 
.bar rect {
  fill-opacity: 0;
  stroke:       black;
  stroke-width: 0.5;
}

.highlight rect {
  fill:       red;
  fill-opacity: 1;
}
.axis path,
.axis line {
  fill: none;
  stroke: #000;
  shape-rendering: crispEdges;
}
path {
    stroke: red;
    fill: none;
}

line {
    stroke: red;
}

path.marker {
    fill: red;
}
 ]]></style></defs><g transform="translate(50,10)"><g class="bar" transform="translate(0,310)"><rect x="1" width="11.999999999999996" height="0"></rect></g><g class="bar" transform="translate(12.999999999999996,310)"><rect x="1" width="11.999999999999996" height="0"></rect></g><g class="bar" transform="translate(25.999999999999993,310)"><rect x="1" width="11.999999999999996" height="0"></rect></g><g class="bar" transform="translate(39.00000000000001,310)"><rect x="1" width="11.999999999999996" height="0"></rect></g><g class="bar" transform="translate(52,310)"><rect x="1" width="11.999999999999996" height="0"></rect></g><g class="bar" transform="translate(65,310)"><rect x="1" width="11.999999999999996" height="0"></rect></g><g class="bar" transform="translate(78.00000000000001,310)"><rect x="1" width="11.999999999999996" height="0"></rect></g><g class="bar" transform="translate(91.00000000000001,310)"><rect x="1" width="11.999999999999996" height="0"></rect></g><g class="bar" transform="translate(104,303.8)"><rect x="1" width="11.999999999999996" height="6.199999999999989"></rect></g><g class="bar" transform="translate(117,270.73333333333335)"><rect x="1" width="11.999999999999996" height="39.26666666666665"></rect></g><g class="bar" transform="translate(130,281.06666666666666)"><rect x="1" width="11.999999999999996" height="28.933333333333337"></rect></g><g class="bar" transform="translate(143,297.6)"><rect x="1" width="11.999999999999996" height="12.399999999999977"></rect></g><g class="bar" transform="translate(156.00000000000003,293.46666666666664)"><rect x="1" width="11.999999999999996" height="16.53333333333336"></rect></g><g class="bar" transform="translate(169,262.4666666666667)"><rect x="1" width="11.999999999999996" height="47.5333333333333"></rect></g><g class="bar" transform="translate(182.00000000000003,233.53333333333333)"><rect x="1" width="11.999999999999996" height="76.46666666666667"></rect></g><g class="bar" transform="translate(195,202.53333333333333)"><rect x="1" width="11.999999999999996" height="107.46666666666667"></rect></g><g class="bar" transform="translate(208,136.39999999999998)"><rect x="1" width="11.999999999999996" height="173.60000000000002"></rect></g><g class="bar" transform="translate(221.00000000000003,74.4)"><rect x="1" width="11.999999999999996" height="235.6"></rect></g><g class="bar" transform="translate(234,12.400000000000034)"><rect x="1" width="11.999999999999996" height="297.59999999999997"></rect></g><g class="bar" transform="translate(247.00000000000003,68.19999999999999)"><rect x="1" width="11.999999999999996" height="241.8"></rect></g><g class="bar" transform="translate(260,28.933333333333337)"><rect x="1" width="11.999999999999996" height="281.06666666666666"></rect></g><g class="bar" transform="translate(273,0)"><rect x="1" width="11.999999999999996" height="310"></rect></g><g class="bar" transform="translate(286,113.66666666666669)"><rect x="1" width="11.999999999999996" height="196.33333333333331"></rect></g><g class="bar" transform="translate(299.00000000000006,43.39999999999998)"><rect x="1" width="11.999999999999996" height="266.6"></rect></g><g class="bar" transform="translate(312.00000000000006,132.26666666666665)"><rect x="1" width="11.999999999999996" height="177.73333333333335"></rect></g><g class="bar" transform="translate(325,183.93333333333334)"><rect x="1" width="11.999999999999996" height="126.06666666666666"></rect></g><g class="bar" transform="translate(338,229.39999999999998)"><rect x="1" width="11.999999999999996" height="80.60000000000002"></rect></g><g class="bar" transform="translate(351,254.2)"><rect x="1" width="11.999999999999996" height="55.80000000000001"></rect></g><g class="bar" transform="translate(364.00000000000006,283.1333333333333)"><rect x="1" width="11.999999999999996" height="26.866666666666674"></rect></g><g class="bar" transform="translate(377.00000000000006,289.3333333333333)"><rect x="1" width="11.999999999999996" height="20.666666666666686"></rect></g><g class="bar" transform="translate(390,305.8666666666667)"><rect x="1" width="11.999999999999996" height="4.133333333333326"></rect></g><g class="bar" transform="translate(403,303.8)"><rect x="1" width="11.999999999999996" height="6.199999999999989"></rect></g><g class="bar" transform="translate(416,301.73333333333335)"><rect x="1" width="11.999999999999996" height="8.266666666666652"></rect></g><g class="bar" transform="translate(429.00000000000006,307.93333333333334)"><rect x="1" width="11.999999999999996" height="2.066666666666663"></rect></g><g class="bar" transform="translate(442.00000000000006,310)"><rect x="1" width="11.999999999999996" height="0"></rect></g><g class="bar" transform="translate(455,307.93333333333334)"><rect x="1" width="11.999999999999996" height="2.066666666666663"></rect></g><g class="bar" transform="translate(468,310)"><rect x="1" width="11.999999999999996" height="0"></rect></g><g class="bar" transform="translate(481,310)"><rect x="1" width="11.999999999999996" height="0"></rect></g><g class="bar" transform="translate(494.00000000000006,310)"><rect x="1" width="11.999999999999996" height="0"></rect></g><g class="bar" transform="translate(507.00000000000006,310)"><rect x="1" width="11.999999999999996" height="0"></rect></g><g class="axis axis--x" transform="translate(0,310)" fill="none" font-size="10" font-family="sans-serif" text-anchor="middle"><path class="domain" stroke="#000" d="M0.5,6V0.5H520.5V6"></path><g class="tick" opacity="1" transform="translate(0.5,0)"><line stroke="#000" y2="6"></line><text fill="#000" y="9" dy="0.71em">0.01</text></g><g class="tick" opacity="1" transform="translate(130.5,0)"><line stroke="#000" y2="6"></line><text fill="#000" y="9" dy="0.71em">1</text></g><g class="tick" opacity="1" transform="translate(260.5,0)"><line stroke="#000" y2="6"></line><text fill="#000" y="9" dy="0.71em">100</text></g><g class="tick" opacity="1" transform="translate(390.5,0)"><line stroke="#000" y2="6"></line><text fill="#000" y="9" dy="0.71em">10000</text></g><g class="tick" opacity="1" transform="translate(520.5,0)"><line stroke="#000" y2="6"></line><text fill="#000" y="9" dy="0.71em"></text></g></g><g class="axis axis--y" fill="none" font-size="10" font-family="sans-serif" text-anchor="end"><path class="domain" stroke="#000" d="M-6,310.5H0.5V0.5H-6"></path><g class="tick" opacity="1" transform="translate(0,310.5)"><line stroke="#000" x2="-6"></line><text fill="#000" x="-9" dy="0.32em">0</text></g><g class="tick" opacity="1" transform="translate(0,269.1666666666667)"><line stroke="#000" x2="-6"></line><text fill="#000" x="-9" dy="0.32em">20</text></g><g class="tick" opacity="1" transform="translate(0,227.83333333333331)"><line stroke="#000" x2="-6"></line><text fill="#000" x="-9" dy="0.32em">40</text></g><g class="tick" opacity="1" transform="translate(0,186.5)"><line stroke="#000" x2="-6"></line><text fill="#000" x="-9" dy="0.32em">60</text></g><g class="tick" opacity="1" transform="translate(0,145.16666666666666)"><line stroke="#000" x2="-6"></line><text fill="#000" x="-9" dy="0.32em">80</text></g><g class="tick" opacity="1" transform="translate(0,103.83333333333334)"><line stroke="#000" x2="-6"></line><text fill="#000" x="-9" dy="0.32em">100</text></g><g class="tick" opacity="1" transform="translate(0,62.5)"><line stroke="#000" x2="-6"></line><text fill="#000" x="-9" dy="0.32em">120</text></g><g class="tick" opacity="1" transform="translate(0,21.166666666666686)"><line stroke="#000" x2="-6"></line><text fill="#000" x="-9" dy="0.32em">140</text></g></g></g></svg>