<svg xmlns="http://www.w3.org/2000/svg" width="600" height="350"><defs><style type="text/css"><![CDATA[ 
.bar rect {
  fill-opacity: 0;
  stroke:       black;
  stroke-width: 0.5;
}

.highlight rect {
  fill:       red;
  fill-opacity: 1;
}
.axis path,
.axis line {
  fill: none;
  stroke: #000;
  shape-rendering: crispEdges;
}
path {
    stroke: red;
    fill: none;
}

line {
    stroke: red;
}

path.marker {
    fill: red;
}
 ]]></style></defs><g transform="translate(50,10)"><g class="bar" transform="translate(0,310)"><rect x="1" width="11.999999999999996" height="0"></rect></g><g class="bar" transform="translate(12.999999999999996,309.1621621621622)"><rect x="1" width="11.999999999999996" height="0.8378378378378102"></rect></g><g class="bar" transform="translate(25.999999999999993,310)"><rect x="1" width="11.999999999999996" height="0"></rect></g><g class="bar" transform="translate(39.00000000000001,309.1621621621622)"><rect x="1" width="11.999999999999996" height="0.8378378378378102"></rect></g><g class="bar" transform="translate(52,308.3243243243243)"><rect x="1" width="11.999999999999996" height="1.6756756756756772"></rect></g><g class="bar" transform="translate(65,310)"><rect x="1" width="11.999999999999996" height="0"></rect></g><g class="bar" transform="translate(78.00000000000001,303.2972972972973)"><rect x="1" width="11.999999999999996" height="6.702702702702709"></rect></g><g class="bar" transform="translate(91.00000000000001,292.4054054054054)"><rect x="1" width="11.999999999999996" height="17.594594594594582"></rect></g><g class="bar" transform="translate(104,304.13513513513516)"><rect x="1" width="11.999999999999996" height="5.864864864864842"></rect></g><g class="bar" transform="translate(117,248.83783783783784)"><rect x="1" width="11.999999999999996" height="61.16216216216216"></rect></g><g class="bar" transform="translate(130,258.8918918918919)"><rect x="1" width="11.999999999999996" height="51.10810810810813"></rect></g><g class="bar" transform="translate(143,259.72972972972974)"><rect x="1" width="11.999999999999996" height="50.27027027027026"></rect></g><g class="bar" transform="translate(156.00000000000003,191.86486486486487)"><rect x="1" width="11.999999999999996" height="118.13513513513513"></rect></g><g class="bar" transform="translate(169,148.2972972972973)"><rect x="1" width="11.999999999999996" height="161.7027027027027"></rect></g><g class="bar" transform="translate(182.00000000000003,117.29729729729729)"><rect x="1" width="11.999999999999996" height="192.7027027027027"></rect></g><g class="bar" transform="translate(195,101.37837837837839)"><rect x="1" width="11.999999999999996" height="208.6216216216216"></rect></g><g class="bar" transform="translate(208,0)"><rect x="1" width="11.999999999999996" height="310"></rect></g><g class="bar" transform="translate(221.00000000000003,44.40540540540542)"><rect x="1" width="11.999999999999996" height="265.5945945945946"></rect></g><g class="bar" transform="translate(234,15.918918918918905)"><rect x="1" width="11.999999999999996" height="294.0810810810811"></rect></g><g class="bar" transform="translate(247.00000000000003,62)"><rect x="1" width="11.999999999999996" height="248"></rect></g><g class="bar" transform="translate(260,31)"><rect x="1" width="11.999999999999996" height="279"></rect></g><g class="bar" transform="translate(273,68.70270270270268)"><rect x="1" width="11.999999999999996" height="241.29729729729732"></rect></g><g class="bar" transform="translate(286,117.29729729729729)"><rect x="1" width="11.999999999999996" height="192.7027027027027"></rect></g><g class="bar" transform="translate(299.00000000000006,170.9189189189189)"><rect x="1" width="11.999999999999996" height="139.0810810810811"></rect></g><g class="bar" transform="translate(312.00000000000006,227.89189189189187)"><rect x="1" width="11.999999999999996" height="82.10810810810813"></rect></g><g class="bar" transform="translate(325,258.05405405405406)"><rect x="1" width="11.999999999999996" height="51.94594594594594"></rect></g><g class="bar" transform="translate(338,273.1351351351351)"><rect x="1" width="11.999999999999996" height="36.8648648648649"></rect></g><g class="bar" transform="translate(351,275.64864864864865)"><rect x="1" width="11.999999999999996" height="34.351351351351354"></rect></g><g class="bar" transform="translate(364.00000000000006,296.5945945945946)"><rect x="1" width="11.999999999999996" height="13.405405405405418"></rect></g><g class="bar" transform="translate(377.00000000000006,304.13513513513516)"><rect x="1" width="11.999999999999996" height="5.864864864864842"></rect></g><g class="bar" transform="translate(390,310)"><rect x="1" width="11.999999999999996" height="0"></rect></g><g class="bar" transform="translate(403,309.1621621621622)"><rect x="1" width="11.999999999999996" height="0.8378378378378102"></rect></g><g class="bar" transform="translate(416,310)"><rect x="1" width="11.999999999999996" height="0"></rect></g><g class="bar" transform="translate(429.00000000000006,309.1621621621622)"><rect x="1" width="11.999999999999996" height="0.8378378378378102"></rect></g><g class="bar" transform="translate(442.00000000000006,309.1621621621622)"><rect x="1" width="11.999999999999996" height="0.8378378378378102"></rect></g><g class="bar" transform="translate(455,310)"><rect x="1" width="11.999999999999996" height="0"></rect></g><g class="bar" transform="translate(468,310)"><rect x="1" width="11.999999999999996" height="0"></rect></g><g class="bar" transform="translate(481,310)"><rect x="1" width="11.999999999999996" height="0"></rect></g><g class="bar" transform="translate(494.00000000000006,310)"><rect x="1" width="11.999999999999996" height="0"></rect></g><g class="bar" transform="translate(507.00000000000006,310)"><rect x="1" width="11.999999999999996" height="0"></rect></g><g class="axis axis--x" transform="translate(0,310)" fill="none" font-size="10" font-family="sans-serif" text-anchor="middle"><path class="domain" stroke="#000" d="M0.5,6V0.5H520.5V6"></path><g class="tick" opacity="1" transform="translate(0.5,0)"><line stroke="#000" y2="6"></line><text fill="#000" y="9" dy="0.71em">0.01</text></g><g class="tick" opacity="1" transform="translate(130.5,0)"><line stroke="#000" y2="6"></line><text fill="#000" y="9" dy="0.71em">1</text></g><g class="tick" opacity="1" transform="translate(260.5,0)"><line stroke="#000" y2="6"></line><text fill="#000" y="9" dy="0.71em">100</text></g><g class="tick" opacity="1" transform="translate(390.5,0)"><line stroke="#000" y2="6"></line><text fill="#000" y="9" dy="0.71em">10000</text></g><g class="tick" opacity="1" transform="translate(520.5,0)"><line stroke="#000" y2="6"></line><text fill="#000" y="9" dy="0.71em"></text></g></g><g class="axis axis--y" fill="none" font-size="10" font-family="sans-serif" text-anchor="end"><path class="domain" stroke="#000" d="M-6,310.5H0.5V0.5H-6"></path><g class="tick" opacity="1" transform="translate(0,310.5)"><line stroke="#000" x2="-6"></line><text fill="#000" x="-9" dy="0.32em">0</text></g><g class="tick" opacity="1" transform="translate(0,268.6081081081081)"><line stroke="#000" x2="-6"></line><text fill="#000" x="-9" dy="0.32em">50</text></g><g class="tick" opacity="1" transform="translate(0,226.7162162162162)"><line stroke="#000" x2="-6"></line><text fill="#000" x="-9" dy="0.32em">100</text></g><g class="tick" opacity="1" transform="translate(0,184.82432432432432)"><line stroke="#000" x2="-6"></line><text fill="#000" x="-9" dy="0.32em">150</text></g><g class="tick" opacity="1" transform="translate(0,142.93243243243242)"><line stroke="#000" x2="-6"></line><text fill="#000" x="-9" dy="0.32em">200</text></g><g class="tick" opacity="1" transform="translate(0,101.04054054054055)"><line stroke="#000" x2="-6"></line><text fill="#000" x="-9" dy="0.32em">250</text></g><g class="tick" opacity="1" transform="translate(0,59.148648648648646)"><line stroke="#000" x2="-6"></line><text fill="#000" x="-9" dy="0.32em">300</text></g><g class="tick" opacity="1" transform="translate(0,17.256756756756772)"><line stroke="#000" x2="-6"></line><text fill="#000" x="-9" dy="0.32em">350</text></g></g></g></svg>