<svg xmlns="http://www.w3.org/2000/svg" width="600" height="350"><defs><style type="text/css"><![CDATA[ 
.bar rect {
  fill-opacity: 0;
  stroke:       black;
  stroke-width: 0.5;
}

.highlight rect {
  fill:       red;
  fill-opacity: 1;
}
.axis path,
.axis line {
  fill: none;
  stroke: #000;
  shape-rendering: crispEdges;
}
path {
    stroke: red;
    fill: none;
}

line {
    stroke: red;
}

path.marker {
    fill: red;
}
 ]]></style></defs><g transform="translate(50,10)"><g class="bar" transform="translate(0,238.65079365079367)"><rect x="1" width="11.999999999999996" height="71.34920634920633"></rect></g><g class="bar" transform="translate(12.999999999999996,209.94708994708995)"><rect x="1" width="11.999999999999996" height="100.05291005291005"></rect></g><g class="bar" transform="translate(25.999999999999993,197.64550264550263)"><rect x="1" width="11.999999999999996" height="112.35449735449737"></rect></g><g class="bar" transform="translate(39.00000000000001,203.3862433862434)"><rect x="1" width="11.999999999999996" height="106.6137566137566"></rect></g><g class="bar" transform="translate(52,184.52380952380952)"><rect x="1" width="11.999999999999996" height="125.47619047619048"></rect></g><g class="bar" transform="translate(65,161.56084656084656)"><rect x="1" width="11.999999999999996" height="148.43915343915344"></rect></g><g class="bar" transform="translate(78.00000000000001,166.48148148148147)"><rect x="1" width="11.999999999999996" height="143.51851851851853"></rect></g><g class="bar" transform="translate(91.00000000000001,107.43386243386243)"><rect x="1" width="11.999999999999996" height="202.56613756613757"></rect></g><g class="bar" transform="translate(104,68.06878306878306)"><rect x="1" width="11.999999999999996" height="241.93121693121694"></rect></g><g class="bar" transform="translate(117,82.010582010582)"><rect x="1" width="11.999999999999996" height="227.989417989418"></rect></g><g class="bar" transform="translate(130,74.62962962962962)"><rect x="1" width="11.999999999999996" height="235.37037037037038"></rect></g><g class="bar" transform="translate(143,101.6931216931217)"><rect x="1" width="11.999999999999996" height="208.3068783068783"></rect></g><g class="bar" transform="translate(156.00000000000003,109.8941798941799)"><rect x="1" width="11.999999999999996" height="200.1058201058201"></rect></g><g class="bar" transform="translate(169,77.91005291005288)"><rect x="1" width="11.999999999999996" height="232.08994708994712"></rect></g><g class="bar" transform="translate(182.00000000000003,0)"><rect x="1" width="11.999999999999996" height="310"></rect></g><g class="bar" transform="translate(195,9.84126984126982)"><rect x="1" width="11.999999999999996" height="300.1587301587302"></rect></g><g class="bar" transform="translate(208,54.94708994708992)"><rect x="1" width="11.999999999999996" height="255.05291005291008"></rect></g><g class="bar" transform="translate(221.00000000000003,62.32804232804233)"><rect x="1" width="11.999999999999996" height="247.67195767195767"></rect></g><g class="bar" transform="translate(234,72.989417989418)"><rect x="1" width="11.999999999999996" height="237.010582010582"></rect></g><g class="bar" transform="translate(247.00000000000003,59.04761904761904)"><rect x="1" width="11.999999999999996" height="250.95238095238096"></rect></g><g class="bar" transform="translate(260,107.43386243386243)"><rect x="1" width="11.999999999999996" height="202.56613756613757"></rect></g><g class="bar" transform="translate(273,136.13756613756615)"><rect x="1" width="11.999999999999996" height="173.86243386243385"></rect></g><g class="bar" transform="translate(286,164.02116402116403)"><rect x="1" width="11.999999999999996" height="145.97883597883597"></rect></g><g class="bar" transform="translate(299.00000000000006,195.1851851851852)"><rect x="1" width="11.999999999999996" height="114.81481481481481"></rect></g><g class="bar" transform="translate(312.00000000000006,218.96825396825398)"><rect x="1" width="11.999999999999996" height="91.03174603174602"></rect></g><g class="bar" transform="translate(325,265.7142857142857)"><rect x="1" width="11.999999999999996" height="44.28571428571428"></rect></g><g class="bar" transform="translate(338,264.8941798941799)"><rect x="1" width="11.999999999999996" height="45.1058201058201"></rect></g><g class="bar" transform="translate(351,284.5767195767196)"><rect x="1" width="11.999999999999996" height="25.423280423280403"></rect></g><g class="bar" transform="translate(364.00000000000006,290.3174603174603)"><rect x="1" width="11.999999999999996" height="19.682539682539698"></rect></g><g class="bar" transform="translate(377.00000000000006,300.978835978836)"><rect x="1" width="11.999999999999996" height="9.021164021163997"></rect></g><g class="bar" transform="translate(390,305.07936507936506)"><rect x="1" width="11.999999999999996" height="4.920634920634939"></rect></g><g class="bar" transform="translate(403,307.53968253968253)"><rect x="1" width="11.999999999999996" height="2.4603174603174693"></rect></g><g class="bar" transform="translate(416,310)"><rect x="1" width="11.999999999999996" height="0"></rect></g><g class="bar" transform="translate(429.00000000000006,310)"><rect x="1" width="11.999999999999996" height="0"></rect></g><g class="bar" transform="translate(442.00000000000006,310)"><rect x="1" width="11.999999999999996" height="0"></rect></g><g class="bar" transform="translate(455,310)"><rect x="1" width="11.999999999999996" height="0"></rect></g><g class="bar" transform="translate(468,310)"><rect x="1" width="11.999999999999996" height="0"></rect></g><g class="bar" transform="translate(481,310)"><rect x="1" width="11.999999999999996" height="0"></rect></g><g class="bar" transform="translate(494.00000000000006,310)"><rect x="1" width="11.999999999999996" height="0"></rect></g><g class="bar" transform="translate(507.00000000000006,310)"><rect x="1" width="11.999999999999996" height="0"></rect></g><g class="axis axis--x" transform="translate(0,310)" fill="none" font-size="10" font-family="sans-serif" text-anchor="middle"><path class="domain" stroke="#000" d="M0.5,6V0.5H520.5V6"></path><g class="tick" opacity="1" transform="translate(0.5,0)"><line stroke="#000" y2="6"></line><text fill="#000" y="9" dy="0.71em">0.01</text></g><g class="tick" opacity="1" transform="translate(130.5,0)"><line stroke="#000" y2="6"></line><text fill="#000" y="9" dy="0.71em">1</text></g><g class="tick" opacity="1" transform="translate(260.5,0)"><line stroke="#000" y2="6"></line><text fill="#000" y="9" dy="0.71em">100</text></g><g class="tick" opacity="1" transform="translate(390.5,0)"><line stroke="#000" y2="6"></line><text fill="#000" y="9" dy="0.71em">10000</text></g><g class="tick" opacity="1" transform="translate(520.5,0)"><line stroke="#000" y2="6"></line><text fill="#000" y="9" dy="0.71em"></text></g></g><g class="axis axis--y" fill="none" font-size="10" font-family="sans-serif" text-anchor="end"><path class="domain" stroke="#000" d="M-6,310.5H0.5V0.5H-6"></path><g class="tick" opacity="1" transform="translate(0,310.5)"><line stroke="#000" x2="-6"></line><text fill="#000" x="-9" dy="0.32em">0</text></g><g class="tick" opacity="1" transform="translate(0,269.494708994709)"><line stroke="#000" x2="-6"></line><text fill="#000" x="-9" dy="0.32em">50</text></g><g class="tick" opacity="1" transform="translate(0,228.48941798941797)"><line stroke="#000" x2="-6"></line><text fill="#000" x="-9" dy="0.32em">100</text></g><g class="tick" opacity="1" transform="translate(0,187.484126984127)"><line stroke="#000" x2="-6"></line><text fill="#000" x="-9" dy="0.32em">150</text></g><g class="tick" opacity="1" transform="translate(0,146.47883597883597)"><line stroke="#000" x2="-6"></line><text fill="#000" x="-9" dy="0.32em">200</text></g><g class="tick" opacity="1" transform="translate(0,105.47354497354496)"><line stroke="#000" x2="-6"></line><text fill="#000" x="-9" dy="0.32em">250</text></g><g class="tick" opacity="1" transform="translate(0,64.46825396825398)"><line stroke="#000" x2="-6"></line><text fill="#000" x="-9" dy="0.32em">300</text></g><g class="tick" opacity="1" transform="translate(0,23.462962962962933)"><line stroke="#000" x2="-6"></line><text fill="#000" x="-9" dy="0.32em">350</text></g></g></g></svg>