<svg xmlns="http://www.w3.org/2000/svg" width="600" height="350"><defs><style type="text/css"><![CDATA[ 
.bar rect {
  fill-opacity: 0;
  stroke:       black;
  stroke-width: 0.5;
}

.highlight rect {
  fill:       red;
  fill-opacity: 1;
}
.axis path,
.axis line {
  fill: none;
  stroke: #000;
  shape-rendering: crispEdges;
}
 ]]></style></defs><g transform="translate(50,10)"><g class="bar" transform="translate(0,310)"><rect x="1" width="11.999999999999996" height="0"></rect></g><g class="bar" transform="translate(12.999999999999996,310)"><rect x="1" width="11.999999999999996" height="0"></rect></g><g class="bar" transform="translate(25.999999999999993,307.27272727272725)"><rect x="1" width="11.999999999999996" height="2.727272727272748"></rect></g><g class="bar" transform="translate(39.00000000000001,298.1818181818182)"><rect x="1" width="11.999999999999996" height="11.818181818181813"></rect></g><g class="bar" transform="translate(52,291.8181818181818)"><rect x="1" width="11.999999999999996" height="18.181818181818187"></rect></g><g class="bar" transform="translate(65,251.8181818181818)"><rect x="1" width="11.999999999999996" height="58.18181818181819"></rect></g><g class="bar" transform="translate(78.00000000000001,243.63636363636363)"><rect x="1" width="11.999999999999996" height="66.36363636363637"></rect></g><g class="bar" transform="translate(91.00000000000001,196.36363636363637)"><rect x="1" width="11.999999999999996" height="113.63636363636363"></rect></g><g class="bar" transform="translate(104,170.9090909090909)"><rect x="1" width="11.999999999999996" height="139.0909090909091"></rect></g><g class="bar" transform="translate(117,158.1818181818182)"><rect x="1" width="11.999999999999996" height="151.8181818181818"></rect></g><g class="bar" transform="translate(130,114.54545454545456)"><rect x="1" width="11.999999999999996" height="195.45454545454544"></rect></g><g class="bar" transform="translate(143,111.81818181818181)"><rect x="1" width="11.999999999999996" height="198.1818181818182"></rect></g><g class="bar" transform="translate(156.00000000000003,80.9090909090909)"><rect x="1" width="11.999999999999996" height="229.0909090909091"></rect></g><g class="bar" transform="translate(169,41.81818181818181)"><rect x="1" width="11.999999999999996" height="268.1818181818182"></rect></g><g class="bar" transform="translate(182.00000000000003,10.909090909090878)"><rect x="1" width="11.999999999999996" height="299.0909090909091"></rect></g><g class="bar" transform="translate(195,0)"><rect x="1" width="11.999999999999996" height="310"></rect></g><g class="bar" transform="translate(208,29.090909090909122)"><rect x="1" width="11.999999999999996" height="280.9090909090909"></rect></g><g class="bar" transform="translate(221.00000000000003,81.81818181818181)"><rect x="1" width="11.999999999999996" height="228.1818181818182"></rect></g><g class="bar" transform="translate(234,75.45454545454547)"><rect x="1" width="11.999999999999996" height="234.54545454545453"></rect></g><g class="bar" transform="translate(247.00000000000003,117.27272727272728)"><rect x="1" width="11.999999999999996" height="192.72727272727272"></rect></g><g class="bar" transform="translate(260,140)"><rect x="1" width="11.999999999999996" height="170"></rect></g><g class="bar" transform="translate(273,176.36363636363637)"><rect x="1" width="11.999999999999996" height="133.63636363636363"></rect></g><g class="bar" transform="translate(286,198.1818181818182)"><rect x="1" width="11.999999999999996" height="111.81818181818181"></rect></g><g class="bar" transform="translate(299.00000000000006,216.36363636363637)"><rect x="1" width="11.999999999999996" height="93.63636363636363"></rect></g><g class="bar" transform="translate(312.00000000000006,249.0909090909091)"><rect x="1" width="11.999999999999996" height="60.90909090909091"></rect></g><g class="bar" transform="translate(325,250.9090909090909)"><rect x="1" width="11.999999999999996" height="59.09090909090909"></rect></g><g class="bar" transform="translate(338,231.8181818181818)"><rect x="1" width="11.999999999999996" height="78.18181818181819"></rect></g><g class="bar" transform="translate(351,261.8181818181818)"><rect x="1" width="11.999999999999996" height="48.18181818181819"></rect></g><g class="bar" transform="translate(364.00000000000006,293.6363636363636)"><rect x="1" width="11.999999999999996" height="16.363636363636374"></rect></g><g class="bar" transform="translate(377.00000000000006,305.45454545454544)"><rect x="1" width="11.999999999999996" height="4.545454545454561"></rect></g><g class="bar" transform="translate(390,305.45454545454544)"><rect x="1" width="11.999999999999996" height="4.545454545454561"></rect></g><g class="bar" transform="translate(403,306.3636363636364)"><rect x="1" width="11.999999999999996" height="3.636363636363626"></rect></g><g class="bar" transform="translate(416,308.1818181818182)"><rect x="1" width="11.999999999999996" height="1.818181818181813"></rect></g><g class="bar" transform="translate(429.00000000000006,310)"><rect x="1" width="11.999999999999996" height="0"></rect></g><g class="bar" transform="translate(442.00000000000006,310)"><rect x="1" width="11.999999999999996" height="0"></rect></g><g class="bar" transform="translate(455,310)"><rect x="1" width="11.999999999999996" height="0"></rect></g><g class="bar" transform="translate(468,310)"><rect x="1" width="11.999999999999996" height="0"></rect></g><g class="bar" transform="translate(481,310)"><rect x="1" width="11.999999999999996" height="0"></rect></g><g class="bar" transform="translate(494.00000000000006,310)"><rect x="1" width="11.999999999999996" height="0"></rect></g><g class="bar" transform="translate(507.00000000000006,310)"><rect x="1" width="11.999999999999996" height="0"></rect></g><g class="axis axis--x" transform="translate(0,310)" fill="none" font-size="10" font-family="sans-serif" text-anchor="middle"><path class="domain" stroke="#000" d="M0.5,6V0.5H520.5V6"></path><g class="tick" opacity="1" transform="translate(0,0)"><line stroke="#000" y2="6" x1="0.5" x2="0.5"></line><text fill="#000" y="9" x="0.5" dy="0.71em">0.01</text></g><g class="tick" opacity="1" transform="translate(130,0)"><line stroke="#000" y2="6" x1="0.5" x2="0.5"></line><text fill="#000" y="9" x="0.5" dy="0.71em">1</text></g><g class="tick" opacity="1" transform="translate(260,0)"><line stroke="#000" y2="6" x1="0.5" x2="0.5"></line><text fill="#000" y="9" x="0.5" dy="0.71em">100</text></g><g class="tick" opacity="1" transform="translate(390,0)"><line stroke="#000" y2="6" x1="0.5" x2="0.5"></line><text fill="#000" y="9" x="0.5" dy="0.71em">10000</text></g><g class="tick" opacity="1" transform="translate(520,0)"><line stroke="#000" y2="6" x1="0.5" x2="0.5"></line><text fill="#000" y="9" x="0.5" dy="0.71em"></text></g></g><g class="axis axis--y" fill="none" font-size="10" font-family="sans-serif" text-anchor="end"><path class="domain" stroke="#000" d="M-6,310.5H0.5V0.5H-6"></path><g class="tick" opacity="1" transform="translate(0,310)"><line stroke="#000" x2="-6" y1="0.5" y2="0.5"></line><text fill="#000" x="-9" y="0.5" dy="0.32em">0</text></g><g class="tick" opacity="1" transform="translate(0,264.54545454545456)"><line stroke="#000" x2="-6" y1="0.5" y2="0.5"></line><text fill="#000" x="-9" y="0.5" dy="0.32em">50</text></g><g class="tick" opacity="1" transform="translate(0,219.09090909090907)"><line stroke="#000" x2="-6" y1="0.5" y2="0.5"></line><text fill="#000" x="-9" y="0.5" dy="0.32em">100</text></g><g class="tick" opacity="1" transform="translate(0,173.63636363636363)"><line stroke="#000" x2="-6" y1="0.5" y2="0.5"></line><text fill="#000" x="-9" y="0.5" dy="0.32em">150</text></g><g class="tick" opacity="1" transform="translate(0,128.18181818181816)"><line stroke="#000" x2="-6" y1="0.5" y2="0.5"></line><text fill="#000" x="-9" y="0.5" dy="0.32em">200</text></g><g class="tick" opacity="1" transform="translate(0,82.72727272727272)"><line stroke="#000" x2="-6" y1="0.5" y2="0.5"></line><text fill="#000" x="-9" y="0.5" dy="0.32em">250</text></g><g class="tick" opacity="1" transform="translate(0,37.27272727272725)"><line stroke="#000" x2="-6" y1="0.5" y2="0.5"></line><text fill="#000" x="-9" y="0.5" dy="0.32em">300</text></g></g></g></svg>