<svg xmlns="http://www.w3.org/2000/svg" width="600" height="350"><defs><style type="text/css"><![CDATA[ 
.bar rect {
  fill-opacity: 0;
  stroke:       black;
  stroke-width: 0.5;
}

.highlight rect {
  fill:       red;
  fill-opacity: 1;
}
.axis path,
.axis line {
  fill: none;
  stroke: #000;
  shape-rendering: crispEdges;
}
path {
    stroke: red;
    fill: none;
}

line {
    stroke: red;
}

path.marker {
    fill: red;
}
 ]]></style></defs><g transform="translate(50,10)"><g class="bar" transform="translate(0,309.0704647676162)"><rect x="1" width="11.999999999999996" height="0.9295352323837847"></rect></g><g class="bar" transform="translate(12.999999999999996,306.74662668665667)"><rect x="1" width="11.999999999999996" height="3.2533733133433316"></rect></g><g class="bar" transform="translate(25.999999999999993,302.56371814092955)"><rect x="1" width="11.999999999999996" height="7.436281859070448"></rect></g><g class="bar" transform="translate(39.00000000000001,297.4512743628186)"><rect x="1" width="11.999999999999996" height="12.548725637181406"></rect></g><g class="bar" transform="translate(52,285.832083958021)"><rect x="1" width="11.999999999999996" height="24.167916041979026"></rect></g><g class="bar" transform="translate(65,274.2128935532234)"><rect x="1" width="11.999999999999996" height="35.78710644677659"></rect></g><g class="bar" transform="translate(78.00000000000001,253.29835082458771)"><rect x="1" width="11.999999999999996" height="56.701649175412285"></rect></g><g class="bar" transform="translate(91.00000000000001,241.6791604197901)"><rect x="1" width="11.999999999999996" height="68.3208395802099"></rect></g><g class="bar" transform="translate(104,242.14392803598201)"><rect x="1" width="11.999999999999996" height="67.85607196401799"></rect></g><g class="bar" transform="translate(117,195.66716641679162)"><rect x="1" width="11.999999999999996" height="114.33283358320838"></rect></g><g class="bar" transform="translate(130,174.287856071964)"><rect x="1" width="11.999999999999996" height="135.712143928036"></rect></g><g class="bar" transform="translate(143,141.75412293853074)"><rect x="1" width="11.999999999999996" height="168.24587706146926"></rect></g><g class="bar" transform="translate(156.00000000000003,76.68665667166417)"><rect x="1" width="11.999999999999996" height="233.31334332833583"></rect></g><g class="bar" transform="translate(169,51.58920539730133)"><rect x="1" width="11.999999999999996" height="258.4107946026987"></rect></g><g class="bar" transform="translate(182.00000000000003,0)"><rect x="1" width="11.999999999999996" height="310"></rect></g><g class="bar" transform="translate(195,31.139430284857553)"><rect x="1" width="11.999999999999996" height="278.86056971514245"></rect></g><g class="bar" transform="translate(208,51.124437781109464)"><rect x="1" width="11.999999999999996" height="258.87556221889054"></rect></g><g class="bar" transform="translate(221.00000000000003,71.10944527736132)"><rect x="1" width="11.999999999999996" height="238.89055472263868"></rect></g><g class="bar" transform="translate(234,100.38980509745127)"><rect x="1" width="11.999999999999996" height="209.61019490254873"></rect></g><g class="bar" transform="translate(247.00000000000003,108.75562218890553)"><rect x="1" width="11.999999999999996" height="201.24437781109447"></rect></g><g class="bar" transform="translate(260,135.24737631184408)"><rect x="1" width="11.999999999999996" height="174.75262368815592"></rect></g><g class="bar" transform="translate(273,153.3733133433283)"><rect x="1" width="11.999999999999996" height="156.6266866566717"></rect></g><g class="bar" transform="translate(286,189.16041979010495)"><rect x="1" width="11.999999999999996" height="120.83958020989505"></rect></g><g class="bar" transform="translate(299.00000000000006,213.32833583208395)"><rect x="1" width="11.999999999999996" height="96.67166416791605"></rect></g><g class="bar" transform="translate(312.00000000000006,246.32683658170913)"><rect x="1" width="11.999999999999996" height="63.67316341829087"></rect></g><g class="bar" transform="translate(325,278.3958020989505)"><rect x="1" width="11.999999999999996" height="31.604197901049474"></rect></g><g class="bar" transform="translate(338,289.5502248875562)"><rect x="1" width="11.999999999999996" height="20.449775112443774"></rect></g><g class="bar" transform="translate(351,297.4512743628186)"><rect x="1" width="11.999999999999996" height="12.548725637181406"></rect></g><g class="bar" transform="translate(364.00000000000006,304.88755622188904)"><rect x="1" width="11.999999999999996" height="5.112443778110958"></rect></g><g class="bar" transform="translate(377.00000000000006,305.35232383808096)"><rect x="1" width="11.999999999999996" height="4.647676161919037"></rect></g><g class="bar" transform="translate(390,307.2113943028486)"><rect x="1" width="11.999999999999996" height="2.788605697151411"></rect></g><g class="bar" transform="translate(403,309.5352323838081)"><rect x="1" width="11.999999999999996" height="0.46476761619192075"></rect></g><g class="bar" transform="translate(416,310)"><rect x="1" width="11.999999999999996" height="0"></rect></g><g class="bar" transform="translate(429.00000000000006,310)"><rect x="1" width="11.999999999999996" height="0"></rect></g><g class="bar" transform="translate(442.00000000000006,310)"><rect x="1" width="11.999999999999996" height="0"></rect></g><g class="bar" transform="translate(455,310)"><rect x="1" width="11.999999999999996" height="0"></rect></g><g class="bar" transform="translate(468,310)"><rect x="1" width="11.999999999999996" height="0"></rect></g><g class="bar" transform="translate(481,310)"><rect x="1" width="11.999999999999996" height="0"></rect></g><g class="bar" transform="translate(494.00000000000006,310)"><rect x="1" width="11.999999999999996" height="0"></rect></g><g class="bar" transform="translate(507.00000000000006,310)"><rect x="1" width="11.999999999999996" height="0"></rect></g><g class="axis axis--x" transform="translate(0,310)" fill="none" font-size="10" font-family="sans-serif" text-anchor="middle"><path class="domain" stroke="#000" d="M0.5,6V0.5H520.5V6"></path><g class="tick" opacity="1" transform="translate(0.5,0)"><line stroke="#000" y2="6"></line><text fill="#000" y="9" dy="0.71em">0.01</text></g><g class="tick" opacity="1" transform="translate(130.5,0)"><line stroke="#000" y2="6"></line><text fill="#000" y="9" dy="0.71em">1</text></g><g class="tick" opacity="1" transform="translate(260.5,0)"><line stroke="#000" y2="6"></line><text fill="#000" y="9" dy="0.71em">100</text></g><g class="tick" opacity="1" transform="translate(390.5,0)"><line stroke="#000" y2="6"></line><text fill="#000" y="9" dy="0.71em">10000</text></g><g class="tick" opacity="1" transform="translate(520.5,0)"><line stroke="#000" y2="6"></line><text fill="#000" y="9" dy="0.71em"></text></g></g><g class="axis axis--y" fill="none" font-size="10" font-family="sans-serif" text-anchor="end"><path class="domain" stroke="#000" d="M-6,310.5H0.5V0.5H-6"></path><g class="tick" opacity="1" transform="translate(0,310.5)"><line stroke="#000" x2="-6"></line><text fill="#000" x="-9" dy="0.32em">0</text></g><g class="tick" opacity="1" transform="translate(0,287.2616191904048)"><line stroke="#000" x2="-6"></line><text fill="#000" x="-9" dy="0.32em">50</text></g><g class="tick" opacity="1" transform="translate(0,264.0232383808096)"><line stroke="#000" x2="-6"></line><text fill="#000" x="-9" dy="0.32em">100</text></g><g class="tick" opacity="1" transform="translate(0,240.7848575712144)"><line stroke="#000" x2="-6"></line><text fill="#000" x="-9" dy="0.32em">150</text></g><g class="tick" opacity="1" transform="translate(0,217.5464767616192)"><line stroke="#000" x2="-6"></line><text fill="#000" x="-9" dy="0.32em">200</text></g><g class="tick" opacity="1" transform="translate(0,194.308095952024)"><line stroke="#000" x2="-6"></line><text fill="#000" x="-9" dy="0.32em">250</text></g><g class="tick" opacity="1" transform="translate(0,171.06971514242878)"><line stroke="#000" x2="-6"></line><text fill="#000" x="-9" dy="0.32em">300</text></g><g class="tick" opacity="1" transform="translate(0,147.8313343328336)"><line stroke="#000" x2="-6"></line><text fill="#000" x="-9" dy="0.32em">350</text></g><g class="tick" opacity="1" transform="translate(0,124.59295352323838)"><line stroke="#000" x2="-6"></line><text fill="#000" x="-9" dy="0.32em">400</text></g><g class="tick" opacity="1" transform="translate(0,101.3545727136432)"><line stroke="#000" x2="-6"></line><text fill="#000" x="-9" dy="0.32em">450</text></g><g class="tick" opacity="1" transform="translate(0,78.11619190404798)"><line stroke="#000" x2="-6"></line><text fill="#000" x="-9" dy="0.32em">500</text></g><g class="tick" opacity="1" transform="translate(0,54.87781109445277)"><line stroke="#000" x2="-6"></line><text fill="#000" x="-9" dy="0.32em">550</text></g><g class="tick" opacity="1" transform="translate(0,31.639430284857553)"><line stroke="#000" x2="-6"></line><text fill="#000" x="-9" dy="0.32em">600</text></g><g class="tick" opacity="1" transform="translate(0,8.401049475262369)"><line stroke="#000" x2="-6"></line><text fill="#000" x="-9" dy="0.32em">650</text></g></g></g></svg>