<svg xmlns="http://www.w3.org/2000/svg" width="280" height="160"><defs><style type="text/css"><![CDATA[ 
.bar rect {
  fill-opacity: 0;
  stroke:       black;
  stroke-width: 0.5;
}

.highlight rect {
  fill:       red;
  fill-opacity: 1;
}
.axis path,
.axis line {
  fill: none;
  stroke: #000;
  shape-rendering: crispEdges;
}
path {
    stroke: red;
    fill: none;
}

line {
    stroke: red;
}

path.marker {
    fill: red;
}
 ]]></style></defs><g transform="translate(50,10)"><g class="bar" transform="translate(0,118.93732970027249)"><rect x="1" width="11.5" height="1.0626702997275146"></rect></g><g class="bar" transform="translate(12.5,112.56130790190736)"><rect x="1" width="11.5" height="7.438692098092645"></rect></g><g class="bar" transform="translate(25,97.35694822888283)"><rect x="1" width="11.5" height="22.64305177111717"></rect></g><g class="bar" transform="translate(37.5,82.31607629427793)"><rect x="1" width="11.5" height="37.683923705722066"></rect></g><g class="bar" transform="translate(50,45.53133514986375)"><rect x="1" width="11.5" height="74.46866485013625"></rect></g><g class="bar" transform="translate(62.5,0)"><rect x="1" width="11.5" height="120"></rect></g><g class="bar" transform="translate(75,4.659400544959141)"><rect x="1" width="11.5" height="115.34059945504086"></rect></g><g class="bar" transform="translate(87.5,26.485013623978205)"><rect x="1" width="11.5" height="93.5149863760218"></rect></g><g class="bar" transform="translate(100,51.1716621253406)"><rect x="1" width="11.5" height="68.8283378746594"></rect></g><g class="bar" transform="translate(112.5,81.08991825613079)"><rect x="1" width="11.5" height="38.91008174386921"></rect></g><g class="bar" transform="translate(125,109.20980926430518)"><rect x="1" width="11.5" height="10.790190735694821"></rect></g><g class="bar" transform="translate(137.5,117.71117166212534)"><rect x="1" width="11.5" height="2.288828337874662"></rect></g><g class="bar" transform="translate(150,119.42779291553134)"><rect x="1" width="11.5" height="0.5722070844686584"></rect></g><g class="bar" transform="translate(162.5,120)"><rect x="1" width="11.5" height="0"></rect></g><g class="bar" transform="translate(175,120)"><rect x="1" width="11.5" height="0"></rect></g><g class="bar" transform="translate(187.5,120)"><rect x="1" width="11.5" height="0"></rect></g></g></svg>