<svg xmlns="http://www.w3.org/2000/svg" width="280" height="160"><defs><style type="text/css"><![CDATA[ 
.bar rect {
  fill-opacity: 0;
  stroke:       black;
  stroke-width: 0.5;
}

.highlight rect {
  fill:       red;
  fill-opacity: 1;
}
.axis path,
.axis line {
  fill: none;
  stroke: #000;
  shape-rendering: crispEdges;
}
path {
    stroke: red;
    fill: none;
}

line {
    stroke: red;
}

path.marker {
    fill: red;
}
 ]]></style></defs><g transform="translate(50,10)"><g class="bar" transform="translate(0,120)"><rect x="1" width="11.5" height="0"></rect></g><g class="bar" transform="translate(12.5,119.64285714285714)"><rect x="1" width="11.5" height="0.3571428571428612"></rect></g><g class="bar" transform="translate(25,92.85714285714286)"><rect x="1" width="11.5" height="27.14285714285714"></rect></g><g class="bar" transform="translate(37.5,76.78571428571428)"><rect x="1" width="11.5" height="43.21428571428572"></rect></g><g class="bar" transform="translate(50,92.5)"><rect x="1" width="11.5" height="27.5"></rect></g><g class="bar" transform="translate(62.5,63.57142857142857)"><rect x="1" width="11.5" height="56.42857142857143"></rect></g><g class="bar" transform="translate(75,36.071428571428584)"><rect x="1" width="11.5" height="83.92857142857142"></rect></g><g class="bar" transform="translate(87.5,31.07142857142857)"><rect x="1" width="11.5" height="88.92857142857143"></rect></g><g class="bar" transform="translate(100,0)"><rect x="1" width="11.5" height="120"></rect></g><g class="bar" transform="translate(112.5,12.857142857142847)"><rect x="1" width="11.5" height="107.14285714285715"></rect></g><g class="bar" transform="translate(125,71.42857142857143)"><rect x="1" width="11.5" height="48.57142857142857"></rect></g><g class="bar" transform="translate(137.5,104.64285714285714)"><rect x="1" width="11.5" height="15.357142857142861"></rect></g><g class="bar" transform="translate(150,114.28571428571429)"><rect x="1" width="11.5" height="5.714285714285708"></rect></g><g class="bar" transform="translate(162.5,119.64285714285714)"><rect x="1" width="11.5" height="0.3571428571428612"></rect></g><g class="bar" transform="translate(175,120)"><rect x="1" width="11.5" height="0"></rect></g><g class="bar" transform="translate(187.5,120)"><rect x="1" width="11.5" height="0"></rect></g></g></svg>