<svg xmlns="http://www.w3.org/2000/svg" width="600" height="350"><defs><style type="text/css"><![CDATA[ 
.bar rect {
  fill-opacity: 0;
  stroke:       black;
  stroke-width: 0.5;
}

.highlight rect {
  fill:       red;
  fill-opacity: 1;
}
.axis path,
.axis line {
  fill: none;
  stroke: #000;
  shape-rendering: crispEdges;
}
 ]]></style></defs><g transform="translate(50,10)"><g class="bar" transform="translate(0,310)"><rect x="1" width="11.999999999999996" height="0"></rect></g><g class="bar" transform="translate(12.999999999999996,310)"><rect x="1" width="11.999999999999996" height="0"></rect></g><g class="bar" transform="translate(25.999999999999993,310)"><rect x="1" width="11.999999999999996" height="0"></rect></g><g class="bar" transform="translate(39.00000000000001,310)"><rect x="1" width="11.999999999999996" height="0"></rect></g><g class="bar" transform="translate(52,310)"><rect x="1" width="11.999999999999996" height="0"></rect></g><g class="bar" transform="translate(65,310)"><rect x="1" width="11.999999999999996" height="0"></rect></g><g class="bar" transform="translate(78.00000000000001,310)"><rect x="1" width="11.999999999999996" height="0"></rect></g><g class="bar" transform="translate(91.00000000000001,310)"><rect x="1" width="11.999999999999996" height="0"></rect></g><g class="bar" transform="translate(104,310)"><rect x="1" width="11.999999999999996" height="0"></rect></g><g class="bar" transform="translate(117,310)"><rect x="1" width="11.999999999999996" height="0"></rect></g><g class="bar" transform="translate(130,308.99676375404533)"><rect x="1" width="11.999999999999996" height="1.0032362459546675"></rect></g><g class="bar" transform="translate(143,301.97411003236243)"><rect x="1" width="11.999999999999996" height="8.025889967637568"></rect></g><g class="bar" transform="translate(156.00000000000003,296.957928802589)"><rect x="1" width="11.999999999999996" height="13.042071197411019"></rect></g><g class="bar" transform="translate(169,227.73462783171522)"><rect x="1" width="11.999999999999996" height="82.26537216828478"></rect></g><g class="bar" transform="translate(182.00000000000003,153.49514563106797)"><rect x="1" width="11.999999999999996" height="156.50485436893203"></rect></g><g class="bar" transform="translate(195,83.26860841423948)"><rect x="1" width="11.999999999999996" height="226.73139158576052"></rect></g><g class="bar" transform="translate(208,0)"><rect x="1" width="11.999999999999996" height="310"></rect></g><g class="bar" transform="translate(221.00000000000003,22.071197411003254)"><rect x="1" width="11.999999999999996" height="287.92880258899675"></rect></g><g class="bar" transform="translate(234,103.33333333333334)"><rect x="1" width="11.999999999999996" height="206.66666666666666"></rect></g><g class="bar" transform="translate(247.00000000000003,137.44336569579286)"><rect x="1" width="11.999999999999996" height="172.55663430420714"></rect></g><g class="bar" transform="translate(260,150.48543689320388)"><rect x="1" width="11.999999999999996" height="159.51456310679612"></rect></g><g class="bar" transform="translate(273,131.42394822006472)"><rect x="1" width="11.999999999999996" height="178.57605177993528"></rect></g><g class="bar" transform="translate(286,161.5210355987055)"><rect x="1" width="11.999999999999996" height="148.4789644012945"></rect></g><g class="bar" transform="translate(299.00000000000006,173.5598705501618)"><rect x="1" width="11.999999999999996" height="136.4401294498382"></rect></g><g class="bar" transform="translate(312.00000000000006,197.63754045307442)"><rect x="1" width="11.999999999999996" height="112.36245954692558"></rect></g><g class="bar" transform="translate(325,233.75404530744336)"><rect x="1" width="11.999999999999996" height="76.24595469255664"></rect></g><g class="bar" transform="translate(338,260.84142394822004)"><rect x="1" width="11.999999999999996" height="49.15857605177996"></rect></g><g class="bar" transform="translate(351,261.84466019417476)"><rect x="1" width="11.999999999999996" height="48.155339805825236"></rect></g><g class="bar" transform="translate(364.00000000000006,279.90291262135923)"><rect x="1" width="11.999999999999996" height="30.097087378640765"></rect></g><g class="bar" transform="translate(377.00000000000006,291.94174757281553)"><rect x="1" width="11.999999999999996" height="18.05825242718447"></rect></g><g class="bar" transform="translate(390,307.9935275080906)"><rect x="1" width="11.999999999999996" height="2.006472491909392"></rect></g><g class="bar" transform="translate(403,308.99676375404533)"><rect x="1" width="11.999999999999996" height="1.0032362459546675"></rect></g><g class="bar" transform="translate(416,308.99676375404533)"><rect x="1" width="11.999999999999996" height="1.0032362459546675"></rect></g><g class="bar" transform="translate(429.00000000000006,310)"><rect x="1" width="11.999999999999996" height="0"></rect></g><g class="bar" transform="translate(442.00000000000006,310)"><rect x="1" width="11.999999999999996" height="0"></rect></g><g class="bar" transform="translate(455,310)"><rect x="1" width="11.999999999999996" height="0"></rect></g><g class="bar" transform="translate(468,310)"><rect x="1" width="11.999999999999996" height="0"></rect></g><g class="bar" transform="translate(481,310)"><rect x="1" width="11.999999999999996" height="0"></rect></g><g class="bar" transform="translate(494.00000000000006,310)"><rect x="1" width="11.999999999999996" height="0"></rect></g><g class="bar" transform="translate(507.00000000000006,310)"><rect x="1" width="11.999999999999996" height="0"></rect></g><g class="axis axis--x" transform="translate(0,310)" fill="none" font-size="10" font-family="sans-serif" text-anchor="middle"><path class="domain" stroke="#000" d="M0.5,6V0.5H520.5V6"></path><g class="tick" opacity="1" transform="translate(0,0)"><line stroke="#000" y2="6" x1="0.5" x2="0.5"></line><text fill="#000" y="9" x="0.5" dy="0.71em">0.01</text></g><g class="tick" opacity="1" transform="translate(130,0)"><line stroke="#000" y2="6" x1="0.5" x2="0.5"></line><text fill="#000" y="9" x="0.5" dy="0.71em">1</text></g><g class="tick" opacity="1" transform="translate(260,0)"><line stroke="#000" y2="6" x1="0.5" x2="0.5"></line><text fill="#000" y="9" x="0.5" dy="0.71em">100</text></g><g class="tick" opacity="1" transform="translate(390,0)"><line stroke="#000" y2="6" x1="0.5" x2="0.5"></line><text fill="#000" y="9" x="0.5" dy="0.71em">10000</text></g><g class="tick" opacity="1" transform="translate(520,0)"><line stroke="#000" y2="6" x1="0.5" x2="0.5"></line><text fill="#000" y="9" x="0.5" dy="0.71em"></text></g></g><g class="axis axis--y" fill="none" font-size="10" font-family="sans-serif" text-anchor="end"><path class="domain" stroke="#000" d="M-6,310.5H0.5V0.5H-6"></path><g class="tick" opacity="1" transform="translate(0,310)"><line stroke="#000" x2="-6" y1="0.5" y2="0.5"></line><text fill="#000" x="-9" y="0.5" dy="0.32em">0</text></g><g class="tick" opacity="1" transform="translate(0,289.93527508090614)"><line stroke="#000" x2="-6" y1="0.5" y2="0.5"></line><text fill="#000" x="-9" y="0.5" dy="0.32em">20</text></g><g class="tick" opacity="1" transform="translate(0,269.8705501618123)"><line stroke="#000" x2="-6" y1="0.5" y2="0.5"></line><text fill="#000" x="-9" y="0.5" dy="0.32em">40</text></g><g class="tick" opacity="1" transform="translate(0,249.80582524271844)"><line stroke="#000" x2="-6" y1="0.5" y2="0.5"></line><text fill="#000" x="-9" y="0.5" dy="0.32em">60</text></g><g class="tick" opacity="1" transform="translate(0,229.7411003236246)"><line stroke="#000" x2="-6" y1="0.5" y2="0.5"></line><text fill="#000" x="-9" y="0.5" dy="0.32em">80</text></g><g class="tick" opacity="1" transform="translate(0,209.67637540453075)"><line stroke="#000" x2="-6" y1="0.5" y2="0.5"></line><text fill="#000" x="-9" y="0.5" dy="0.32em">100</text></g><g class="tick" opacity="1" transform="translate(0,189.61165048543688)"><line stroke="#000" x2="-6" y1="0.5" y2="0.5"></line><text fill="#000" x="-9" y="0.5" dy="0.32em">120</text></g><g class="tick" opacity="1" transform="translate(0,169.54692556634305)"><line stroke="#000" x2="-6" y1="0.5" y2="0.5"></line><text fill="#000" x="-9" y="0.5" dy="0.32em">140</text></g><g class="tick" opacity="1" transform="translate(0,149.48220064724921)"><line stroke="#000" x2="-6" y1="0.5" y2="0.5"></line><text fill="#000" x="-9" y="0.5" dy="0.32em">160</text></g><g class="tick" opacity="1" transform="translate(0,129.41747572815535)"><line stroke="#000" x2="-6" y1="0.5" y2="0.5"></line><text fill="#000" x="-9" y="0.5" dy="0.32em">180</text></g><g class="tick" opacity="1" transform="translate(0,109.35275080906149)"><line stroke="#000" x2="-6" y1="0.5" y2="0.5"></line><text fill="#000" x="-9" y="0.5" dy="0.32em">200</text></g><g class="tick" opacity="1" transform="translate(0,89.28802588996766)"><line stroke="#000" x2="-6" y1="0.5" y2="0.5"></line><text fill="#000" x="-9" y="0.5" dy="0.32em">220</text></g><g class="tick" opacity="1" transform="translate(0,69.2233009708738)"><line stroke="#000" x2="-6" y1="0.5" y2="0.5"></line><text fill="#000" x="-9" y="0.5" dy="0.32em">240</text></g><g class="tick" opacity="1" transform="translate(0,49.15857605177996)"><line stroke="#000" x2="-6" y1="0.5" y2="0.5"></line><text fill="#000" x="-9" y="0.5" dy="0.32em">260</text></g><g class="tick" opacity="1" transform="translate(0,29.093851132686098)"><line stroke="#000" x2="-6" y1="0.5" y2="0.5"></line><text fill="#000" x="-9" y="0.5" dy="0.32em">280</text></g><g class="tick" opacity="1" transform="translate(0,9.029126213592235)"><line stroke="#000" x2="-6" y1="0.5" y2="0.5"></line><text fill="#000" x="-9" y="0.5" dy="0.32em">300</text></g></g></g></svg>