<svg xmlns="http://www.w3.org/2000/svg" width="600" height="350"><defs><style type="text/css"><![CDATA[ 
.bar rect {
  fill-opacity: 0;
  stroke:       black;
  stroke-width: 0.5;
}

.highlight rect {
  fill:       red;
  fill-opacity: 1;
}
.axis path,
.axis line {
  fill: none;
  stroke: #000;
  shape-rendering: crispEdges;
}
path {
    stroke: red;
    fill: none;
}

line {
    stroke: red;
}

path.marker {
    fill: red;
}
 ]]></style></defs><g transform="translate(50,10)"><g class="bar" transform="translate(0,310)"><rect x="1" width="11.999999999999996" height="0"></rect></g><g class="bar" transform="translate(12.999999999999996,310)"><rect x="1" width="11.999999999999996" height="0"></rect></g><g class="bar" transform="translate(25.999999999999993,310)"><rect x="1" width="11.999999999999996" height="0"></rect></g><g class="bar" transform="translate(39.00000000000001,310)"><rect x="1" width="11.999999999999996" height="0"></rect></g><g class="bar" transform="translate(52,307.76978417266184)"><rect x="1" width="11.999999999999996" height="2.2302158273381565"></rect></g><g class="bar" transform="translate(65,310)"><rect x="1" width="11.999999999999996" height="0"></rect></g><g class="bar" transform="translate(78.00000000000001,310)"><rect x="1" width="11.999999999999996" height="0"></rect></g><g class="bar" transform="translate(91.00000000000001,307.76978417266184)"><rect x="1" width="11.999999999999996" height="2.2302158273381565"></rect></g><g class="bar" transform="translate(104,310)"><rect x="1" width="11.999999999999996" height="0"></rect></g><g class="bar" transform="translate(117,305.53956834532374)"><rect x="1" width="11.999999999999996" height="4.460431654676256"></rect></g><g class="bar" transform="translate(130,294.3884892086331)"><rect x="1" width="11.999999999999996" height="15.611510791366925"></rect></g><g class="bar" transform="translate(143,269.85611510791364)"><rect x="1" width="11.999999999999996" height="40.14388489208636"></rect></g><g class="bar" transform="translate(156.00000000000003,258.705035971223)"><rect x="1" width="11.999999999999996" height="51.294964028776974"></rect></g><g class="bar" transform="translate(169,218.5611510791367)"><rect x="1" width="11.999999999999996" height="91.43884892086331"></rect></g><g class="bar" transform="translate(182.00000000000003,196.25899280575538)"><rect x="1" width="11.999999999999996" height="113.74100719424462"></rect></g><g class="bar" transform="translate(195,191.79856115107913)"><rect x="1" width="11.999999999999996" height="118.20143884892087"></rect></g><g class="bar" transform="translate(208,149.42446043165467)"><rect x="1" width="11.999999999999996" height="160.57553956834533"></rect></g><g class="bar" transform="translate(221.00000000000003,100.35971223021582)"><rect x="1" width="11.999999999999996" height="209.64028776978418"></rect></g><g class="bar" transform="translate(234,80.28776978417267)"><rect x="1" width="11.999999999999996" height="229.71223021582733"></rect></g><g class="bar" transform="translate(247.00000000000003,73.59712230215825)"><rect x="1" width="11.999999999999996" height="236.40287769784175"></rect></g><g class="bar" transform="translate(260,71.36690647482015)"><rect x="1" width="11.999999999999996" height="238.63309352517985"></rect></g><g class="bar" transform="translate(273,0)"><rect x="1" width="11.999999999999996" height="310"></rect></g><g class="bar" transform="translate(286,44.60431654676256)"><rect x="1" width="11.999999999999996" height="265.39568345323744"></rect></g><g class="bar" transform="translate(299.00000000000006,46.83453237410072)"><rect x="1" width="11.999999999999996" height="263.1654676258993"></rect></g><g class="bar" transform="translate(312.00000000000006,86.97841726618705)"><rect x="1" width="11.999999999999996" height="223.02158273381295"></rect></g><g class="bar" transform="translate(325,133.81294964028777)"><rect x="1" width="11.999999999999996" height="176.18705035971223"></rect></g><g class="bar" transform="translate(338,171.72661870503597)"><rect x="1" width="11.999999999999996" height="138.27338129496403"></rect></g><g class="bar" transform="translate(351,220.79136690647482)"><rect x="1" width="11.999999999999996" height="89.20863309352518"></rect></g><g class="bar" transform="translate(364.00000000000006,238.63309352517985)"><rect x="1" width="11.999999999999996" height="71.36690647482015"></rect></g><g class="bar" transform="translate(377.00000000000006,289.9280575539568)"><rect x="1" width="11.999999999999996" height="20.07194244604318"></rect></g><g class="bar" transform="translate(390,298.84892086330933)"><rect x="1" width="11.999999999999996" height="11.151079136690669"></rect></g><g class="bar" transform="translate(403,307.76978417266184)"><rect x="1" width="11.999999999999996" height="2.2302158273381565"></rect></g><g class="bar" transform="translate(416,310)"><rect x="1" width="11.999999999999996" height="0"></rect></g><g class="bar" transform="translate(429.00000000000006,305.53956834532374)"><rect x="1" width="11.999999999999996" height="4.460431654676256"></rect></g><g class="bar" transform="translate(442.00000000000006,310)"><rect x="1" width="11.999999999999996" height="0"></rect></g><g class="bar" transform="translate(455,310)"><rect x="1" width="11.999999999999996" height="0"></rect></g><g class="bar" transform="translate(468,310)"><rect x="1" width="11.999999999999996" height="0"></rect></g><g class="bar" transform="translate(481,310)"><rect x="1" width="11.999999999999996" height="0"></rect></g><g class="bar" transform="translate(494.00000000000006,310)"><rect x="1" width="11.999999999999996" height="0"></rect></g><g class="bar" transform="translate(507.00000000000006,310)"><rect x="1" width="11.999999999999996" height="0"></rect></g><g class="axis axis--x" transform="translate(0,310)" fill="none" font-size="10" font-family="sans-serif" text-anchor="middle"><path class="domain" stroke="#000" d="M0.5,6V0.5H520.5V6"></path><g class="tick" opacity="1" transform="translate(0.5,0)"><line stroke="#000" y2="6"></line><text fill="#000" y="9" dy="0.71em">0.01</text></g><g class="tick" opacity="1" transform="translate(130.5,0)"><line stroke="#000" y2="6"></line><text fill="#000" y="9" dy="0.71em">1</text></g><g class="tick" opacity="1" transform="translate(260.5,0)"><line stroke="#000" y2="6"></line><text fill="#000" y="9" dy="0.71em">100</text></g><g class="tick" opacity="1" transform="translate(390.5,0)"><line stroke="#000" y2="6"></line><text fill="#000" y="9" dy="0.71em">10000</text></g><g class="tick" opacity="1" transform="translate(520.5,0)"><line stroke="#000" y2="6"></line><text fill="#000" y="9" dy="0.71em"></text></g></g><g class="axis axis--y" fill="none" font-size="10" font-family="sans-serif" text-anchor="end"><path class="domain" stroke="#000" d="M-6,310.5H0.5V0.5H-6"></path><g class="tick" opacity="1" transform="translate(0,310.5)"><line stroke="#000" x2="-6"></line><text fill="#000" x="-9" dy="0.32em">0</text></g><g class="tick" opacity="1" transform="translate(0,288.1978417266187)"><line stroke="#000" x2="-6"></line><text fill="#000" x="-9" dy="0.32em">10</text></g><g class="tick" opacity="1" transform="translate(0,265.89568345323744)"><line stroke="#000" x2="-6"></line><text fill="#000" x="-9" dy="0.32em">20</text></g><g class="tick" opacity="1" transform="translate(0,243.5935251798561)"><line stroke="#000" x2="-6"></line><text fill="#000" x="-9" dy="0.32em">30</text></g><g class="tick" opacity="1" transform="translate(0,221.29136690647482)"><line stroke="#000" x2="-6"></line><text fill="#000" x="-9" dy="0.32em">40</text></g><g class="tick" opacity="1" transform="translate(0,198.98920863309354)"><line stroke="#000" x2="-6"></line><text fill="#000" x="-9" dy="0.32em">50</text></g><g class="tick" opacity="1" transform="translate(0,176.68705035971223)"><line stroke="#000" x2="-6"></line><text fill="#000" x="-9" dy="0.32em">60</text></g><g class="tick" opacity="1" transform="translate(0,154.38489208633095)"><line stroke="#000" x2="-6"></line><text fill="#000" x="-9" dy="0.32em">70</text></g><g class="tick" opacity="1" transform="translate(0,132.08273381294964)"><line stroke="#000" x2="-6"></line><text fill="#000" x="-9" dy="0.32em">80</text></g><g class="tick" opacity="1" transform="translate(0,109.78057553956836)"><line stroke="#000" x2="-6"></line><text fill="#000" x="-9" dy="0.32em">90</text></g><g class="tick" opacity="1" transform="translate(0,87.47841726618705)"><line stroke="#000" x2="-6"></line><text fill="#000" x="-9" dy="0.32em">100</text></g><g class="tick" opacity="1" transform="translate(0,65.17625899280577)"><line stroke="#000" x2="-6"></line><text fill="#000" x="-9" dy="0.32em">110</text></g><g class="tick" opacity="1" transform="translate(0,42.87410071942446)"><line stroke="#000" x2="-6"></line><text fill="#000" x="-9" dy="0.32em">120</text></g><g class="tick" opacity="1" transform="translate(0,20.57194244604318)"><line stroke="#000" x2="-6"></line><text fill="#000" x="-9" dy="0.32em">130</text></g></g></g></svg>