<svg xmlns="http://www.w3.org/2000/svg" width="600" height="350"><defs><style type="text/css"><![CDATA[ 
.bar rect {
  fill-opacity: 0;
  stroke:       black;
  stroke-width: 0.5;
}

.highlight rect {
  fill:       red;
  fill-opacity: 1;
}
.axis path,
.axis line {
  fill: none;
  stroke: #000;
  shape-rendering: crispEdges;
}
path {
    stroke: red;
    fill: none;
}

line {
    stroke: red;
}

path.marker {
    fill: red;
}
 ]]></style></defs><g transform="translate(50,10)"><g class="bar" transform="translate(0,310)"><rect x="1" width="11.999999999999996" height="0"></rect></g><g class="bar" transform="translate(12.999999999999996,310)"><rect x="1" width="11.999999999999996" height="0"></rect></g><g class="bar" transform="translate(25.999999999999993,310)"><rect x="1" width="11.999999999999996" height="0"></rect></g><g class="bar" transform="translate(39.00000000000001,310)"><rect x="1" width="11.999999999999996" height="0"></rect></g><g class="bar" transform="translate(52,310)"><rect x="1" width="11.999999999999996" height="0"></rect></g><g class="bar" transform="translate(65,304.2857142857143)"><rect x="1" width="11.999999999999996" height="5.714285714285722"></rect></g><g class="bar" transform="translate(78.00000000000001,305.7142857142857)"><rect x="1" width="11.999999999999996" height="4.285714285714278"></rect></g><g class="bar" transform="translate(91.00000000000001,301.42857142857144)"><rect x="1" width="11.999999999999996" height="8.571428571428555"></rect></g><g class="bar" transform="translate(104,300.7142857142857)"><rect x="1" width="11.999999999999996" height="9.285714285714278"></rect></g><g class="bar" transform="translate(117,287.85714285714283)"><rect x="1" width="11.999999999999996" height="22.142857142857167"></rect></g><g class="bar" transform="translate(130,271.42857142857144)"><rect x="1" width="11.999999999999996" height="38.571428571428555"></rect></g><g class="bar" transform="translate(143,267.8571428571429)"><rect x="1" width="11.999999999999996" height="42.14285714285711"></rect></g><g class="bar" transform="translate(156.00000000000003,232.14285714285714)"><rect x="1" width="11.999999999999996" height="77.85714285714286"></rect></g><g class="bar" transform="translate(169,189.28571428571428)"><rect x="1" width="11.999999999999996" height="120.71428571428572"></rect></g><g class="bar" transform="translate(182.00000000000003,155)"><rect x="1" width="11.999999999999996" height="155"></rect></g><g class="bar" transform="translate(195,54.28571428571428)"><rect x="1" width="11.999999999999996" height="255.71428571428572"></rect></g><g class="bar" transform="translate(208,69.28571428571428)"><rect x="1" width="11.999999999999996" height="240.71428571428572"></rect></g><g class="bar" transform="translate(221.00000000000003,19.285714285714278)"><rect x="1" width="11.999999999999996" height="290.7142857142857"></rect></g><g class="bar" transform="translate(234,22.14285714285711)"><rect x="1" width="11.999999999999996" height="287.8571428571429"></rect></g><g class="bar" transform="translate(247.00000000000003,8.571428571428555)"><rect x="1" width="11.999999999999996" height="301.42857142857144"></rect></g><g class="bar" transform="translate(260,0)"><rect x="1" width="11.999999999999996" height="310"></rect></g><g class="bar" transform="translate(273,57.14285714285714)"><rect x="1" width="11.999999999999996" height="252.85714285714286"></rect></g><g class="bar" transform="translate(286,114.28571428571428)"><rect x="1" width="11.999999999999996" height="195.71428571428572"></rect></g><g class="bar" transform="translate(299.00000000000006,160.7142857142857)"><rect x="1" width="11.999999999999996" height="149.2857142857143"></rect></g><g class="bar" transform="translate(312.00000000000006,230)"><rect x="1" width="11.999999999999996" height="80"></rect></g><g class="bar" transform="translate(325,249.28571428571428)"><rect x="1" width="11.999999999999996" height="60.71428571428572"></rect></g><g class="bar" transform="translate(338,279.2857142857143)"><rect x="1" width="11.999999999999996" height="30.714285714285722"></rect></g><g class="bar" transform="translate(351,290.7142857142857)"><rect x="1" width="11.999999999999996" height="19.285714285714278"></rect></g><g class="bar" transform="translate(364.00000000000006,305.7142857142857)"><rect x="1" width="11.999999999999996" height="4.285714285714278"></rect></g><g class="bar" transform="translate(377.00000000000006,305)"><rect x="1" width="11.999999999999996" height="5"></rect></g><g class="bar" transform="translate(390,305.7142857142857)"><rect x="1" width="11.999999999999996" height="4.285714285714278"></rect></g><g class="bar" transform="translate(403,307.14285714285717)"><rect x="1" width="11.999999999999996" height="2.857142857142833"></rect></g><g class="bar" transform="translate(416,310)"><rect x="1" width="11.999999999999996" height="0"></rect></g><g class="bar" transform="translate(429.00000000000006,310)"><rect x="1" width="11.999999999999996" height="0"></rect></g><g class="bar" transform="translate(442.00000000000006,310)"><rect x="1" width="11.999999999999996" height="0"></rect></g><g class="bar" transform="translate(455,310)"><rect x="1" width="11.999999999999996" height="0"></rect></g><g class="bar" transform="translate(468,310)"><rect x="1" width="11.999999999999996" height="0"></rect></g><g class="bar" transform="translate(481,310)"><rect x="1" width="11.999999999999996" height="0"></rect></g><g class="bar" transform="translate(494.00000000000006,310)"><rect x="1" width="11.999999999999996" height="0"></rect></g><g class="bar" transform="translate(507.00000000000006,310)"><rect x="1" width="11.999999999999996" height="0"></rect></g><g class="axis axis--x" transform="translate(0,310)" fill="none" font-size="10" font-family="sans-serif" text-anchor="middle"><path class="domain" stroke="#000" d="M0.5,6V0.5H520.5V6"></path><g class="tick" opacity="1" transform="translate(0.5,0)"><line stroke="#000" y2="6"></line><text fill="#000" y="9" dy="0.71em">0.01</text></g><g class="tick" opacity="1" transform="translate(130.5,0)"><line stroke="#000" y2="6"></line><text fill="#000" y="9" dy="0.71em">1</text></g><g class="tick" opacity="1" transform="translate(260.5,0)"><line stroke="#000" y2="6"></line><text fill="#000" y="9" dy="0.71em">100</text></g><g class="tick" opacity="1" transform="translate(390.5,0)"><line stroke="#000" y2="6"></line><text fill="#000" y="9" dy="0.71em">10000</text></g><g class="tick" opacity="1" transform="translate(520.5,0)"><line stroke="#000" y2="6"></line><text fill="#000" y="9" dy="0.71em"></text></g></g><g class="axis axis--y" fill="none" font-size="10" font-family="sans-serif" text-anchor="end"><path class="domain" stroke="#000" d="M-6,310.5H0.5V0.5H-6"></path><g class="tick" opacity="1" transform="translate(0,310.5)"><line stroke="#000" x2="-6"></line><text fill="#000" x="-9" dy="0.32em">0</text></g><g class="tick" opacity="1" transform="translate(0,274.7857142857143)"><line stroke="#000" x2="-6"></line><text fill="#000" x="-9" dy="0.32em">50</text></g><g class="tick" opacity="1" transform="translate(0,239.07142857142856)"><line stroke="#000" x2="-6"></line><text fill="#000" x="-9" dy="0.32em">100</text></g><g class="tick" opacity="1" transform="translate(0,203.35714285714286)"><line stroke="#000" x2="-6"></line><text fill="#000" x="-9" dy="0.32em">150</text></g><g class="tick" opacity="1" transform="translate(0,167.64285714285714)"><line stroke="#000" x2="-6"></line><text fill="#000" x="-9" dy="0.32em">200</text></g><g class="tick" opacity="1" transform="translate(0,131.92857142857144)"><line stroke="#000" x2="-6"></line><text fill="#000" x="-9" dy="0.32em">250</text></g><g class="tick" opacity="1" transform="translate(0,96.21428571428572)"><line stroke="#000" x2="-6"></line><text fill="#000" x="-9" dy="0.32em">300</text></g><g class="tick" opacity="1" transform="translate(0,60.50000000000003)"><line stroke="#000" x2="-6"></line><text fill="#000" x="-9" dy="0.32em">350</text></g><g class="tick" opacity="1" transform="translate(0,24.785714285714278)"><line stroke="#000" x2="-6"></line><text fill="#000" x="-9" dy="0.32em">400</text></g></g></g></svg>