<svg xmlns="http://www.w3.org/2000/svg" width="600" height="350"><defs><style type="text/css"><![CDATA[ 
.bar rect {
  fill-opacity: 0;
  stroke:       black;
  stroke-width: 0.5;
}

.highlight rect {
  fill:       red;
  fill-opacity: 1;
}
.axis path,
.axis line {
  fill: none;
  stroke: #000;
  shape-rendering: crispEdges;
}
path {
    stroke: red;
    fill: none;
}

line {
    stroke: red;
}

path.marker {
    fill: red;
}
 ]]></style></defs><g transform="translate(50,10)"><g class="bar" transform="translate(0,310)"><rect x="1" width="31.5" height="0"></rect></g><g class="bar" transform="translate(32.5,297.67045454545456)"><rect x="1" width="31.5" height="12.329545454545439"></rect></g><g class="bar" transform="translate(65,292.3863636363636)"><rect x="1" width="31.5" height="17.613636363636374"></rect></g><g class="bar" transform="translate(97.5,297.67045454545456)"><rect x="1" width="31.5" height="12.329545454545439"></rect></g><g class="bar" transform="translate(130,301.1931818181818)"><rect x="1" width="31.5" height="8.806818181818187"></rect></g><g class="bar" transform="translate(162.5,285.34090909090907)"><rect x="1" width="31.5" height="24.659090909090935"></rect></g><g class="bar" transform="translate(195,158.52272727272728)"><rect x="1" width="31.5" height="151.47727272727272"></rect></g><g class="bar" transform="translate(227.5,54.60227272727272)"><rect x="1" width="31.5" height="255.39772727272728"></rect></g><g class="bar" transform="translate(260,0)"><rect x="1" width="31.5" height="310"></rect></g><g class="bar" transform="translate(292.5,52.840909090909065)"><rect x="1" width="31.5" height="257.15909090909093"></rect></g><g class="bar" transform="translate(325,125.05681818181819)"><rect x="1" width="31.5" height="184.9431818181818"></rect></g><g class="bar" transform="translate(357.5,202.5568181818182)"><rect x="1" width="31.5" height="107.44318181818181"></rect></g><g class="bar" transform="translate(390,299.4318181818182)"><rect x="1" width="31.5" height="10.568181818181813"></rect></g><g class="bar" transform="translate(422.5,306.47727272727275)"><rect x="1" width="31.5" height="3.522727272727252"></rect></g><g class="bar" transform="translate(455,308.2386363636364)"><rect x="1" width="31.5" height="1.761363636363626"></rect></g><g class="bar" transform="translate(487.5,310)"><rect x="1" width="31.5" height="0"></rect></g><g class="axis axis--x" transform="translate(0,310)" fill="none" font-size="10" font-family="sans-serif" text-anchor="middle"><path class="domain" stroke="#000" d="M0.5,6V0.5H520.5V6"></path><g class="tick" opacity="1" transform="translate(0.5,0)"><line stroke="#000" y2="6"></line><text fill="#000" y="9" dy="0.71em">0.01</text></g><g class="tick" opacity="1" transform="translate(130.5,0)"><line stroke="#000" y2="6"></line><text fill="#000" y="9" dy="0.71em">1</text></g><g class="tick" opacity="1" transform="translate(260.5,0)"><line stroke="#000" y2="6"></line><text fill="#000" y="9" dy="0.71em">100</text></g><g class="tick" opacity="1" transform="translate(390.5,0)"><line stroke="#000" y2="6"></line><text fill="#000" y="9" dy="0.71em">10000</text></g><g class="tick" opacity="1" transform="translate(520.5,0)"><line stroke="#000" y2="6"></line><text fill="#000" y="9" dy="0.71em"></text></g></g><g class="axis axis--y" fill="none" font-size="10" font-family="sans-serif" text-anchor="end"><path class="domain" stroke="#000" d="M-6,310.5H0.5V0.5H-6"></path><g class="tick" opacity="1" transform="translate(0,310.5)"><line stroke="#000" x2="-6"></line><text fill="#000" x="-9" dy="0.32em">0</text></g><g class="tick" opacity="1" transform="translate(0,275.27272727272725)"><line stroke="#000" x2="-6"></line><text fill="#000" x="-9" dy="0.32em">20</text></g><g class="tick" opacity="1" transform="translate(0,240.04545454545456)"><line stroke="#000" x2="-6"></line><text fill="#000" x="-9" dy="0.32em">40</text></g><g class="tick" opacity="1" transform="translate(0,204.8181818181818)"><line stroke="#000" x2="-6"></line><text fill="#000" x="-9" dy="0.32em">60</text></g><g class="tick" opacity="1" transform="translate(0,169.5909090909091)"><line stroke="#000" x2="-6"></line><text fill="#000" x="-9" dy="0.32em">80</text></g><g class="tick" opacity="1" transform="translate(0,134.36363636363635)"><line stroke="#000" x2="-6"></line><text fill="#000" x="-9" dy="0.32em">100</text></g><g class="tick" opacity="1" transform="translate(0,99.13636363636365)"><line stroke="#000" x2="-6"></line><text fill="#000" x="-9" dy="0.32em">120</text></g><g class="tick" opacity="1" transform="translate(0,63.909090909090935)"><line stroke="#000" x2="-6"></line><text fill="#000" x="-9" dy="0.32em">140</text></g><g class="tick" opacity="1" transform="translate(0,28.681818181818187)"><line stroke="#000" x2="-6"></line><text fill="#000" x="-9" dy="0.32em">160</text></g></g></g></svg>