<svg xmlns="http://www.w3.org/2000/svg" width="600" height="350"><defs><style type="text/css"><![CDATA[ 
.bar rect {
  fill-opacity: 0;
  stroke:       black;
  stroke-width: 0.5;
}

.highlight rect {
  fill:       red;
  fill-opacity: 1;
}
.axis path,
.axis line {
  fill: none;
  stroke: #000;
  shape-rendering: crispEdges;
}
path {
    stroke: red;
    fill: none;
}

line {
    stroke: red;
}

path.marker {
    fill: red;
}
 ]]></style></defs><g transform="translate(50,10)"><g class="bar" transform="translate(0,310)"><rect x="1" width="11.999999999999996" height="0"></rect></g><g class="bar" transform="translate(12.999999999999996,310)"><rect x="1" width="11.999999999999996" height="0"></rect></g><g class="bar" transform="translate(25.999999999999993,310)"><rect x="1" width="11.999999999999996" height="0"></rect></g><g class="bar" transform="translate(39.00000000000001,310)"><rect x="1" width="11.999999999999996" height="0"></rect></g><g class="bar" transform="translate(52,310)"><rect x="1" width="11.999999999999996" height="0"></rect></g><g class="bar" transform="translate(65,310)"><rect x="1" width="11.999999999999996" height="0"></rect></g><g class="bar" transform="translate(78.00000000000001,310)"><rect x="1" width="11.999999999999996" height="0"></rect></g><g class="bar" transform="translate(91.00000000000001,310)"><rect x="1" width="11.999999999999996" height="0"></rect></g><g class="bar" transform="translate(104,310)"><rect x="1" width="11.999999999999996" height="0"></rect></g><g class="bar" transform="translate(117,310)"><rect x="1" width="11.999999999999996" height="0"></rect></g><g class="bar" transform="translate(130,310)"><rect x="1" width="11.999999999999996" height="0"></rect></g><g class="bar" transform="translate(143,307.04761904761904)"><rect x="1" width="11.999999999999996" height="2.952380952380963"></rect></g><g class="bar" transform="translate(156.00000000000003,298.1904761904762)"><rect x="1" width="11.999999999999996" height="11.809523809523796"></rect></g><g class="bar" transform="translate(169,292.2857142857143)"><rect x="1" width="11.999999999999996" height="17.714285714285722"></rect></g><g class="bar" transform="translate(182.00000000000003,265.7142857142857)"><rect x="1" width="11.999999999999996" height="44.28571428571428"></rect></g><g class="bar" transform="translate(195,206.66666666666669)"><rect x="1" width="11.999999999999996" height="103.33333333333331"></rect></g><g class="bar" transform="translate(208,144.66666666666666)"><rect x="1" width="11.999999999999996" height="165.33333333333334"></rect></g><g class="bar" transform="translate(221.00000000000003,79.7142857142857)"><rect x="1" width="11.999999999999996" height="230.2857142857143"></rect></g><g class="bar" transform="translate(234,70.85714285714283)"><rect x="1" width="11.999999999999996" height="239.14285714285717"></rect></g><g class="bar" transform="translate(247.00000000000003,0)"><rect x="1" width="11.999999999999996" height="310"></rect></g><g class="bar" transform="translate(260,29.52380952380952)"><rect x="1" width="11.999999999999996" height="280.4761904761905"></rect></g><g class="bar" transform="translate(273,73.80952380952382)"><rect x="1" width="11.999999999999996" height="236.19047619047618"></rect></g><g class="bar" transform="translate(286,112.1904761904762)"><rect x="1" width="11.999999999999996" height="197.8095238095238"></rect></g><g class="bar" transform="translate(299.00000000000006,138.76190476190476)"><rect x="1" width="11.999999999999996" height="171.23809523809524"></rect></g><g class="bar" transform="translate(312.00000000000006,168.28571428571428)"><rect x="1" width="11.999999999999996" height="141.71428571428572"></rect></g><g class="bar" transform="translate(325,180.0952380952381)"><rect x="1" width="11.999999999999996" height="129.9047619047619"></rect></g><g class="bar" transform="translate(338,209.61904761904762)"><rect x="1" width="11.999999999999996" height="100.38095238095238"></rect></g><g class="bar" transform="translate(351,209.61904761904762)"><rect x="1" width="11.999999999999996" height="100.38095238095238"></rect></g><g class="bar" transform="translate(364.00000000000006,230.28571428571428)"><rect x="1" width="11.999999999999996" height="79.71428571428572"></rect></g><g class="bar" transform="translate(377.00000000000006,242.0952380952381)"><rect x="1" width="11.999999999999996" height="67.9047619047619"></rect></g><g class="bar" transform="translate(390,277.5238095238095)"><rect x="1" width="11.999999999999996" height="32.47619047619048"></rect></g><g class="bar" transform="translate(403,289.3333333333333)"><rect x="1" width="11.999999999999996" height="20.666666666666686"></rect></g><g class="bar" transform="translate(416,310)"><rect x="1" width="11.999999999999996" height="0"></rect></g><g class="bar" transform="translate(429.00000000000006,307.04761904761904)"><rect x="1" width="11.999999999999996" height="2.952380952380963"></rect></g><g class="bar" transform="translate(442.00000000000006,310)"><rect x="1" width="11.999999999999996" height="0"></rect></g><g class="bar" transform="translate(455,310)"><rect x="1" width="11.999999999999996" height="0"></rect></g><g class="bar" transform="translate(468,310)"><rect x="1" width="11.999999999999996" height="0"></rect></g><g class="bar" transform="translate(481,310)"><rect x="1" width="11.999999999999996" height="0"></rect></g><g class="bar" transform="translate(494.00000000000006,310)"><rect x="1" width="11.999999999999996" height="0"></rect></g><g class="bar" transform="translate(507.00000000000006,310)"><rect x="1" width="11.999999999999996" height="0"></rect></g><g class="axis axis--x" transform="translate(0,310)" fill="none" font-size="10" font-family="sans-serif" text-anchor="middle"><path class="domain" stroke="#000" d="M0.5,6V0.5H520.5V6"></path><g class="tick" opacity="1" transform="translate(0.5,0)"><line stroke="#000" y2="6"></line><text fill="#000" y="9" dy="0.71em">0.01</text></g><g class="tick" opacity="1" transform="translate(130.5,0)"><line stroke="#000" y2="6"></line><text fill="#000" y="9" dy="0.71em">1</text></g><g class="tick" opacity="1" transform="translate(260.5,0)"><line stroke="#000" y2="6"></line><text fill="#000" y="9" dy="0.71em">100</text></g><g class="tick" opacity="1" transform="translate(390.5,0)"><line stroke="#000" y2="6"></line><text fill="#000" y="9" dy="0.71em">10000</text></g><g class="tick" opacity="1" transform="translate(520.5,0)"><line stroke="#000" y2="6"></line><text fill="#000" y="9" dy="0.71em"></text></g></g><g class="axis axis--y" fill="none" font-size="10" font-family="sans-serif" text-anchor="end"><path class="domain" stroke="#000" d="M-6,310.5H0.5V0.5H-6"></path><g class="tick" opacity="1" transform="translate(0,310.5)"><line stroke="#000" x2="-6"></line><text fill="#000" x="-9" dy="0.32em">0</text></g><g class="tick" opacity="1" transform="translate(0,280.9761904761905)"><line stroke="#000" x2="-6"></line><text fill="#000" x="-9" dy="0.32em">10</text></g><g class="tick" opacity="1" transform="translate(0,251.45238095238096)"><line stroke="#000" x2="-6"></line><text fill="#000" x="-9" dy="0.32em">20</text></g><g class="tick" opacity="1" transform="translate(0,221.92857142857144)"><line stroke="#000" x2="-6"></line><text fill="#000" x="-9" dy="0.32em">30</text></g><g class="tick" opacity="1" transform="translate(0,192.40476190476193)"><line stroke="#000" x2="-6"></line><text fill="#000" x="-9" dy="0.32em">40</text></g><g class="tick" opacity="1" transform="translate(0,162.88095238095238)"><line stroke="#000" x2="-6"></line><text fill="#000" x="-9" dy="0.32em">50</text></g><g class="tick" opacity="1" transform="translate(0,133.35714285714286)"><line stroke="#000" x2="-6"></line><text fill="#000" x="-9" dy="0.32em">60</text></g><g class="tick" opacity="1" transform="translate(0,103.83333333333334)"><line stroke="#000" x2="-6"></line><text fill="#000" x="-9" dy="0.32em">70</text></g><g class="tick" opacity="1" transform="translate(0,74.30952380952382)"><line stroke="#000" x2="-6"></line><text fill="#000" x="-9" dy="0.32em">80</text></g><g class="tick" opacity="1" transform="translate(0,44.78571428571428)"><line stroke="#000" x2="-6"></line><text fill="#000" x="-9" dy="0.32em">90</text></g><g class="tick" opacity="1" transform="translate(0,15.26190476190476)"><line stroke="#000" x2="-6"></line><text fill="#000" x="-9" dy="0.32em">100</text></g></g></g></svg>