<svg xmlns="http://www.w3.org/2000/svg" width="280" height="160"><defs><style type="text/css"><![CDATA[ 
.bar rect {
  fill-opacity: 0;
  stroke:       black;
  stroke-width: 0.5;
}

.highlight rect {
  fill:       red;
  fill-opacity: 1;
}
.axis path,
.axis line {
  fill: none;
  stroke: #000;
  shape-rendering: crispEdges;
}
path {
    stroke: red;
    fill: none;
}

line {
    stroke: red;
}

path.marker {
    fill: red;
}
 ]]></style></defs><g transform="translate(50,10)"><g class="bar" transform="translate(0,119.32139491046183)"><rect x="1" width="11.5" height="0.6786050895381663"></rect></g><g class="bar" transform="translate(12.5,117.28557964184732)"><rect x="1" width="11.5" height="2.7144203581526796"></rect></g><g class="bar" transform="translate(25,103.60037700282751)"><rect x="1" width="11.5" height="16.399622997172486"></rect></g><g class="bar" transform="translate(37.5,73.85485391140433)"><rect x="1" width="11.5" height="46.145146088595666"></rect></g><g class="bar" transform="translate(50,35.966069745523086)"><rect x="1" width="11.5" height="84.03393025447691"></rect></g><g class="bar" transform="translate(62.5,4.0716305372290265)"><rect x="1" width="11.5" height="115.92836946277097"></rect></g><g class="bar" transform="translate(75,0)"><rect x="1" width="11.5" height="120"></rect></g><g class="bar" transform="translate(87.5,15.494816211121588)"><rect x="1" width="11.5" height="104.50518378887841"></rect></g><g class="bar" transform="translate(100,42.52591894439209)"><rect x="1" width="11.5" height="77.47408105560791"></rect></g><g class="bar" transform="translate(112.5,80.30160226201696)"><rect x="1" width="11.5" height="39.69839773798304"></rect></g><g class="bar" transform="translate(125,101.45146088595664)"><rect x="1" width="11.5" height="18.548539114043365"></rect></g><g class="bar" transform="translate(137.5,114.79736098020736)"><rect x="1" width="11.5" height="5.202639019792642"></rect></g><g class="bar" transform="translate(150,119.54759660697455)"><rect x="1" width="11.5" height="0.45240339302544896"></rect></g><g class="bar" transform="translate(162.5,120)"><rect x="1" width="11.5" height="0"></rect></g><g class="bar" transform="translate(175,120)"><rect x="1" width="11.5" height="0"></rect></g><g class="bar" transform="translate(187.5,120)"><rect x="1" width="11.5" height="0"></rect></g></g></svg>