<svg xmlns="http://www.w3.org/2000/svg" width="280" height="160"><defs><style type="text/css"><![CDATA[ 
.bar rect {
  fill-opacity: 0;
  stroke:       black;
  stroke-width: 0.5;
}

.highlight rect {
  fill:       red;
  fill-opacity: 1;
}
.axis path,
.axis line {
  fill: none;
  stroke: #000;
  shape-rendering: crispEdges;
}
path {
    stroke: red;
    fill: none;
}

line {
    stroke: red;
}

path.marker {
    fill: red;
}
 ]]></style></defs><g transform="translate(50,10)"><g class="bar" transform="translate(0,120)"><rect x="1" width="11.5" height="0"></rect></g><g class="bar" transform="translate(12.5,119.67032967032966)"><rect x="1" width="11.5" height="0.3296703296703356"></rect></g><g class="bar" transform="translate(25,118.02197802197801)"><rect x="1" width="11.5" height="1.9780219780219852"></rect></g><g class="bar" transform="translate(37.5,98.24175824175825)"><rect x="1" width="11.5" height="21.758241758241752"></rect></g><g class="bar" transform="translate(50,67.25274725274726)"><rect x="1" width="11.5" height="52.747252747252745"></rect></g><g class="bar" transform="translate(62.5,18.461538461538467)"><rect x="1" width="11.5" height="101.53846153846153"></rect></g><g class="bar" transform="translate(75,24.06593406593406)"><rect x="1" width="11.5" height="95.93406593406594"></rect></g><g class="bar" transform="translate(87.5,38.57142857142857)"><rect x="1" width="11.5" height="81.42857142857143"></rect></g><g class="bar" transform="translate(100,10.879120879120876)"><rect x="1" width="11.5" height="109.12087912087912"></rect></g><g class="bar" transform="translate(112.5,0)"><rect x="1" width="11.5" height="120"></rect></g><g class="bar" transform="translate(125,50.1098901098901)"><rect x="1" width="11.5" height="69.8901098901099"></rect></g><g class="bar" transform="translate(137.5,104.17582417582418)"><rect x="1" width="11.5" height="15.824175824175825"></rect></g><g class="bar" transform="translate(150,118.02197802197801)"><rect x="1" width="11.5" height="1.9780219780219852"></rect></g><g class="bar" transform="translate(162.5,120)"><rect x="1" width="11.5" height="0"></rect></g><g class="bar" transform="translate(175,120)"><rect x="1" width="11.5" height="0"></rect></g><g class="bar" transform="translate(187.5,120)"><rect x="1" width="11.5" height="0"></rect></g></g></svg>