<svg xmlns="http://www.w3.org/2000/svg" width="280" height="160"><defs><style type="text/css"><![CDATA[ 
.bar rect {
  fill-opacity: 0;
  stroke:       black;
  stroke-width: 0.5;
}

.highlight rect {
  fill:       red;
  fill-opacity: 1;
}
.axis path,
.axis line {
  fill: none;
  stroke: #000;
  shape-rendering: crispEdges;
}
 ]]></style></defs><g transform="translate(50,10)"><g class="bar" transform="translate(0,120)"><rect x="1" width="11.5" height="0"></rect></g><g class="bar" transform="translate(12.5,120)"><rect x="1" width="11.5" height="0"></rect></g><g class="bar" transform="translate(25,115.71921749136939)"><rect x="1" width="11.5" height="4.280782508630608"></rect></g><g class="bar" transform="translate(37.5,111.16225546605294)"><rect x="1" width="11.5" height="8.83774453394706"></rect></g><g class="bar" transform="translate(50,89.48216340621404)"><rect x="1" width="11.5" height="30.517836593785958"></rect></g><g class="bar" transform="translate(62.5,48.19332566168009)"><rect x="1" width="11.5" height="71.80667433831991"></rect></g><g class="bar" transform="translate(75,19.19447640966628)"><rect x="1" width="11.5" height="100.80552359033372"></rect></g><g class="bar" transform="translate(87.5,0)"><rect x="1" width="11.5" height="120"></rect></g><g class="bar" transform="translate(100,8.699654775604145)"><rect x="1" width="11.5" height="111.30034522439585"></rect></g><g class="bar" transform="translate(112.5,58.826237054085155)"><rect x="1" width="11.5" height="61.173762945914845"></rect></g><g class="bar" transform="translate(125,97.49136939010356)"><rect x="1" width="11.5" height="22.508630609896443"></rect></g><g class="bar" transform="translate(137.5,115.1668584579977)"><rect x="1" width="11.5" height="4.833141542002295"></rect></g><g class="bar" transform="translate(150,119.17146144994246)"><rect x="1" width="11.5" height="0.8285385500575444"></rect></g><g class="bar" transform="translate(162.5,120)"><rect x="1" width="11.5" height="0"></rect></g><g class="bar" transform="translate(175,120)"><rect x="1" width="11.5" height="0"></rect></g><g class="bar" transform="translate(187.5,120)"><rect x="1" width="11.5" height="0"></rect></g></g></svg>