<svg xmlns="http://www.w3.org/2000/svg" width="280" height="160"><defs><style type="text/css"><![CDATA[ 
.bar rect {
  fill-opacity: 0;
  stroke:       black;
  stroke-width: 0.5;
}

.highlight rect {
  fill:       red;
  fill-opacity: 1;
}
.axis path,
.axis line {
  fill: none;
  stroke: #000;
  shape-rendering: crispEdges;
}
path {
    stroke: red;
    fill: none;
}

line {
    stroke: red;
}

path.marker {
    fill: red;
}
 ]]></style></defs><g transform="translate(50,10)"><g class="bar" transform="translate(0,120)"><rect x="1" width="11.5" height="0"></rect></g><g class="bar" transform="translate(12.5,118.25242718446601)"><rect x="1" width="11.5" height="1.7475728155339851"></rect></g><g class="bar" transform="translate(25,113.72168284789645)"><rect x="1" width="11.5" height="6.278317152103554"></rect></g><g class="bar" transform="translate(37.5,79.6116504854369)"><rect x="1" width="11.5" height="40.3883495145631"></rect></g><g class="bar" transform="translate(50,21.48867313915858)"><rect x="1" width="11.5" height="98.51132686084142"></rect></g><g class="bar" transform="translate(62.5,1.2944983818770197)"><rect x="1" width="11.5" height="118.70550161812298"></rect></g><g class="bar" transform="translate(75,0)"><rect x="1" width="11.5" height="120"></rect></g><g class="bar" transform="translate(87.5,35.33980582524272)"><rect x="1" width="11.5" height="84.66019417475728"></rect></g><g class="bar" transform="translate(100,68.47896440129449)"><rect x="1" width="11.5" height="51.52103559870551"></rect></g><g class="bar" transform="translate(112.5,92.88025889967638)"><rect x="1" width="11.5" height="27.119741100323623"></rect></g><g class="bar" transform="translate(125,108.3495145631068)"><rect x="1" width="11.5" height="11.650485436893206"></rect></g><g class="bar" transform="translate(137.5,117.66990291262135)"><rect x="1" width="11.5" height="2.330097087378647"></rect></g><g class="bar" transform="translate(150,119.93527508090615)"><rect x="1" width="11.5" height="0.06472491909384814"></rect></g><g class="bar" transform="translate(162.5,120)"><rect x="1" width="11.5" height="0"></rect></g><g class="bar" transform="translate(175,120)"><rect x="1" width="11.5" height="0"></rect></g><g class="bar" transform="translate(187.5,120)"><rect x="1" width="11.5" height="0"></rect></g></g></svg>