<svg xmlns="http://www.w3.org/2000/svg" width="280" height="160"><defs><style type="text/css"><![CDATA[ 
.bar rect {
  fill-opacity: 0;
  stroke:       black;
  stroke-width: 0.5;
}

.highlight rect {
  fill:       red;
  fill-opacity: 1;
}
.axis path,
.axis line {
  fill: none;
  stroke: #000;
  shape-rendering: crispEdges;
}
 ]]></style></defs><g transform="translate(50,10)"><g class="bar" transform="translate(0,114.07616361071932)"><rect x="1" width="11.5" height="5.92383638928068"></rect></g><g class="bar" transform="translate(12.5,95.79689703808181)"><rect x="1" width="11.5" height="24.20310296191819"></rect></g><g class="bar" transform="translate(25,74.97884344146685)"><rect x="1" width="11.5" height="45.02115655853315"></rect></g><g class="bar" transform="translate(37.5,53.22990126939351)"><rect x="1" width="11.5" height="66.77009873060649"></rect></g><g class="bar" transform="translate(50,36.13540197461212)"><rect x="1" width="11.5" height="83.86459802538788"></rect></g><g class="bar" transform="translate(62.5,5.669957686882938)"><rect x="1" width="11.5" height="114.33004231311706"></rect></g><g class="bar" transform="translate(75,0)"><rect x="1" width="11.5" height="120"></rect></g><g class="bar" transform="translate(87.5,14.386459802538795)"><rect x="1" width="11.5" height="105.6135401974612"></rect></g><g class="bar" transform="translate(100,40.620592383638936)"><rect x="1" width="11.5" height="79.37940761636106"></rect></g><g class="bar" transform="translate(112.5,84.2031029619182)"><rect x="1" width="11.5" height="35.796897038081795"></rect></g><g class="bar" transform="translate(125,110.26798307475318)"><rect x="1" width="11.5" height="9.732016925246825"></rect></g><g class="bar" transform="translate(137.5,117.96897038081805)"><rect x="1" width="11.5" height="2.0310296191819504"></rect></g><g class="bar" transform="translate(150,119.0691114245416)"><rect x="1" width="11.5" height="0.9308885754583969"></rect></g><g class="bar" transform="translate(162.5,120)"><rect x="1" width="11.5" height="0"></rect></g><g class="bar" transform="translate(175,120)"><rect x="1" width="11.5" height="0"></rect></g><g class="bar" transform="translate(187.5,120)"><rect x="1" width="11.5" height="0"></rect></g></g></svg>