<svg xmlns="http://www.w3.org/2000/svg" width="280" height="160"><defs><style type="text/css"><![CDATA[ 
.bar rect {
  fill-opacity: 0;
  stroke:       black;
  stroke-width: 0.5;
}

.highlight rect {
  fill:       red;
  fill-opacity: 1;
}
.axis path,
.axis line {
  fill: none;
  stroke: #000;
  shape-rendering: crispEdges;
}
path {
    stroke: red;
    fill: none;
}

line {
    stroke: red;
}

path.marker {
    fill: red;
}
 ]]></style></defs><g transform="translate(50,10)"><g class="bar" transform="translate(0,120)"><rect x="1" width="11.5" height="0"></rect></g><g class="bar" transform="translate(12.5,120)"><rect x="1" width="11.5" height="0"></rect></g><g class="bar" transform="translate(25,118.359375)"><rect x="1" width="11.5" height="1.640625"></rect></g><g class="bar" transform="translate(37.5,98.0859375)"><rect x="1" width="11.5" height="21.9140625"></rect></g><g class="bar" transform="translate(50,103.9453125)"><rect x="1" width="11.5" height="16.0546875"></rect></g><g class="bar" transform="translate(62.5,61.40625)"><rect x="1" width="11.5" height="58.59375"></rect></g><g class="bar" transform="translate(75,0)"><rect x="1" width="11.5" height="120"></rect></g><g class="bar" transform="translate(87.5,27.1875)"><rect x="1" width="11.5" height="92.8125"></rect></g><g class="bar" transform="translate(100,82.6171875)"><rect x="1" width="11.5" height="37.3828125"></rect></g><g class="bar" transform="translate(112.5,100.078125)"><rect x="1" width="11.5" height="19.921875"></rect></g><g class="bar" transform="translate(125,109.1015625)"><rect x="1" width="11.5" height="10.8984375"></rect></g><g class="bar" transform="translate(137.5,114.7265625)"><rect x="1" width="11.5" height="5.2734375"></rect></g><g class="bar" transform="translate(150,118.828125)"><rect x="1" width="11.5" height="1.171875"></rect></g><g class="bar" transform="translate(162.5,119.8828125)"><rect x="1" width="11.5" height="0.1171875"></rect></g><g class="bar" transform="translate(175,119.8828125)"><rect x="1" width="11.5" height="0.1171875"></rect></g><g class="bar" transform="translate(187.5,120)"><rect x="1" width="11.5" height="0"></rect></g></g></svg>