<svg xmlns="http://www.w3.org/2000/svg" width="280" height="160"><defs><style type="text/css"><![CDATA[ 
.bar rect {
  fill-opacity: 0;
  stroke:       black;
  stroke-width: 0.5;
}

.highlight rect {
  fill:       red;
  fill-opacity: 1;
}
.axis path,
.axis line {
  fill: none;
  stroke: #000;
  shape-rendering: crispEdges;
}
path {
    stroke: red;
    fill: none;
}

line {
    stroke: red;
}

path.marker {
    fill: red;
}
 ]]></style></defs><g transform="translate(50,10)"><g class="bar" transform="translate(0,120)"><rect x="1" width="11.5" height="0"></rect></g><g class="bar" transform="translate(12.5,120)"><rect x="1" width="11.5" height="0"></rect></g><g class="bar" transform="translate(25,120)"><rect x="1" width="11.5" height="0"></rect></g><g class="bar" transform="translate(37.5,120)"><rect x="1" width="11.5" height="0"></rect></g><g class="bar" transform="translate(50,120)"><rect x="1" width="11.5" height="0"></rect></g><g class="bar" transform="translate(62.5,119.82462550237486)"><rect x="1" width="11.5" height="0.17537449762514257"></rect></g><g class="bar" transform="translate(75,114.10303251735476)"><rect x="1" width="11.5" height="5.896967482645238"></rect></g><g class="bar" transform="translate(87.5,72.5392765801973)"><rect x="1" width="11.5" height="47.460723419802704"></rect></g><g class="bar" transform="translate(100,0)"><rect x="1" width="11.5" height="120"></rect></g><g class="bar" transform="translate(112.5,119.34234563390574)"><rect x="1" width="11.5" height="0.6576543660942633"></rect></g><g class="bar" transform="translate(125,120)"><rect x="1" width="11.5" height="0"></rect></g><g class="bar" transform="translate(137.5,120)"><rect x="1" width="11.5" height="0"></rect></g><g class="bar" transform="translate(150,120)"><rect x="1" width="11.5" height="0"></rect></g><g class="bar" transform="translate(162.5,120)"><rect x="1" width="11.5" height="0"></rect></g><g class="bar" transform="translate(175,120)"><rect x="1" width="11.5" height="0"></rect></g><g class="bar" transform="translate(187.5,120)"><rect x="1" width="11.5" height="0"></rect></g></g></svg>