<svg xmlns="http://www.w3.org/2000/svg" width="280" height="160"><defs><style type="text/css"><![CDATA[ 
.bar rect {
  fill-opacity: 0;
  stroke:       black;
  stroke-width: 0.5;
}

.highlight rect {
  fill:       red;
  fill-opacity: 1;
}
.axis path,
.axis line {
  fill: none;
  stroke: #000;
  shape-rendering: crispEdges;
}
 ]]></style></defs><g transform="translate(50,10)"><g class="bar" transform="translate(0,120)"><rect x="1" width="11.5" height="0"></rect></g><g class="bar" transform="translate(12.5,119.62709757613425)"><rect x="1" width="11.5" height="0.372902423865753"></rect></g><g class="bar" transform="translate(25,116.04723430702299)"><rect x="1" width="11.5" height="3.9527656929770103"></rect></g><g class="bar" transform="translate(37.5,77.11622125543815)"><rect x="1" width="11.5" height="42.88377874456185"></rect></g><g class="bar" transform="translate(50,4.698570540708516)"><rect x="1" width="11.5" height="115.30142945929148"></rect></g><g class="bar" transform="translate(62.5,0)"><rect x="1" width="11.5" height="120"></rect></g><g class="bar" transform="translate(75,17.750155376009943)"><rect x="1" width="11.5" height="102.24984462399006"></rect></g><g class="bar" transform="translate(87.5,42.28713486637662)"><rect x="1" width="11.5" height="77.71286513362338"></rect></g><g class="bar" transform="translate(100,77.78744561839653)"><rect x="1" width="11.5" height="42.21255438160347"></rect></g><g class="bar" transform="translate(112.5,101.65320074580485)"><rect x="1" width="11.5" height="18.346799254195147"></rect></g><g class="bar" transform="translate(125,109.11124922311996)"><rect x="1" width="11.5" height="10.888750776880045"></rect></g><g class="bar" transform="translate(137.5,117.01678060907396)"><rect x="1" width="11.5" height="2.9832193909260383"></rect></g><g class="bar" transform="translate(150,119.17961466749534)"><rect x="1" width="11.5" height="0.8203853325046566"></rect></g><g class="bar" transform="translate(162.5,119.92541951522685)"><rect x="1" width="11.5" height="0.0745804847731506"></rect></g><g class="bar" transform="translate(175,120)"><rect x="1" width="11.5" height="0"></rect></g><g class="bar" transform="translate(187.5,120)"><rect x="1" width="11.5" height="0"></rect></g></g></svg>