<svg xmlns="http://www.w3.org/2000/svg" width="600" height="350"><defs><style type="text/css"><![CDATA[ 
.bar rect {
  fill-opacity: 0;
  stroke:       black;
  stroke-width: 0.5;
}

.highlight rect {
  fill:       red;
  fill-opacity: 1;
}
.axis path,
.axis line {
  fill: none;
  stroke: #000;
  shape-rendering: crispEdges;
}
path {
    stroke: red;
    fill: none;
}

line {
    stroke: red;
}

path.marker {
    fill: red;
}
 ]]></style></defs><g transform="translate(50,10)"><g class="bar" transform="translate(0,291.1849710982659)"><rect x="1" width="11.999999999999996" height="18.81502890173408"></rect></g><g class="bar" transform="translate(12.999999999999996,296.1127167630058)"><rect x="1" width="11.999999999999996" height="13.887283236994222"></rect></g><g class="bar" transform="translate(25.999999999999993,294.3208092485549)"><rect x="1" width="11.999999999999996" height="15.679190751445105"></rect></g><g class="bar" transform="translate(39.00000000000001,284.91329479768785)"><rect x="1" width="11.999999999999996" height="25.086705202312146"></rect></g><g class="bar" transform="translate(52,276.4017341040462)"><rect x="1" width="11.999999999999996" height="33.59826589595377"></rect></g><g class="bar" transform="translate(65,258.9306358381503)"><rect x="1" width="11.999999999999996" height="51.069364161849705"></rect></g><g class="bar" transform="translate(78.00000000000001,222.64450867052022)"><rect x="1" width="11.999999999999996" height="87.35549132947978"></rect></g><g class="bar" transform="translate(91.00000000000001,213.23699421965318)"><rect x="1" width="11.999999999999996" height="96.76300578034682"></rect></g><g class="bar" transform="translate(104,165.30346820809248)"><rect x="1" width="11.999999999999996" height="144.69653179190752"></rect></g><g class="bar" transform="translate(117,121.40173410404623)"><rect x="1" width="11.999999999999996" height="188.59826589595377"></rect></g><g class="bar" transform="translate(130,106.17052023121386)"><rect x="1" width="11.999999999999996" height="203.82947976878614"></rect></g><g class="bar" transform="translate(143,66.74855491329481)"><rect x="1" width="11.999999999999996" height="243.2514450867052"></rect></g><g class="bar" transform="translate(156.00000000000003,40.76589595375725)"><rect x="1" width="11.999999999999996" height="269.23410404624275"></rect></g><g class="bar" transform="translate(169,25.53468208092488)"><rect x="1" width="11.999999999999996" height="284.4653179190751"></rect></g><g class="bar" transform="translate(182.00000000000003,0)"><rect x="1" width="11.999999999999996" height="310"></rect></g><g class="bar" transform="translate(195,16.57514450867052)"><rect x="1" width="11.999999999999996" height="293.4248554913295"></rect></g><g class="bar" transform="translate(208,19.263005780346816)"><rect x="1" width="11.999999999999996" height="290.7369942196532"></rect></g><g class="bar" transform="translate(221.00000000000003,70.78034682080923)"><rect x="1" width="11.999999999999996" height="239.21965317919077"></rect></g><g class="bar" transform="translate(234,91.83526011560693)"><rect x="1" width="11.999999999999996" height="218.16473988439307"></rect></g><g class="bar" transform="translate(247.00000000000003,130.3612716763006)"><rect x="1" width="11.999999999999996" height="179.6387283236994"></rect></g><g class="bar" transform="translate(260,160.82369942196533)"><rect x="1" width="11.999999999999996" height="149.17630057803467"></rect></g><g class="bar" transform="translate(273,198.0057803468208)"><rect x="1" width="11.999999999999996" height="111.99421965317919"></rect></g><g class="bar" transform="translate(286,220.85260115606934)"><rect x="1" width="11.999999999999996" height="89.14739884393066"></rect></g><g class="bar" transform="translate(299.00000000000006,250.8670520231214)"><rect x="1" width="11.999999999999996" height="59.1329479768786"></rect></g><g class="bar" transform="translate(312.00000000000006,261.6184971098266)"><rect x="1" width="11.999999999999996" height="48.38150289017341"></rect></g><g class="bar" transform="translate(325,257.1387283236994)"><rect x="1" width="11.999999999999996" height="52.86127167630059"></rect></g><g class="bar" transform="translate(338,264.7543352601156)"><rect x="1" width="11.999999999999996" height="45.245664739884376"></rect></g><g class="bar" transform="translate(351,301.4884393063584)"><rect x="1" width="11.999999999999996" height="8.511560693641627"></rect></g><g class="bar" transform="translate(364.00000000000006,302.38439306358384)"><rect x="1" width="11.999999999999996" height="7.615606936416157"></rect></g><g class="bar" transform="translate(377.00000000000006,307.76011560693644)"><rect x="1" width="11.999999999999996" height="2.239884393063562"></rect></g><g class="bar" transform="translate(390,308.65606936416185)"><rect x="1" width="11.999999999999996" height="1.3439306358381486"></rect></g><g class="bar" transform="translate(403,309.55202312138726)"><rect x="1" width="11.999999999999996" height="0.44797687861273516"></rect></g><g class="bar" transform="translate(416,310)"><rect x="1" width="11.999999999999996" height="0"></rect></g><g class="bar" transform="translate(429.00000000000006,310)"><rect x="1" width="11.999999999999996" height="0"></rect></g><g class="bar" transform="translate(442.00000000000006,310)"><rect x="1" width="11.999999999999996" height="0"></rect></g><g class="bar" transform="translate(455,310)"><rect x="1" width="11.999999999999996" height="0"></rect></g><g class="bar" transform="translate(468,310)"><rect x="1" width="11.999999999999996" height="0"></rect></g><g class="bar" transform="translate(481,310)"><rect x="1" width="11.999999999999996" height="0"></rect></g><g class="bar" transform="translate(494.00000000000006,310)"><rect x="1" width="11.999999999999996" height="0"></rect></g><g class="bar" transform="translate(507.00000000000006,310)"><rect x="1" width="11.999999999999996" height="0"></rect></g><g class="axis axis--x" transform="translate(0,310)" fill="none" font-size="10" font-family="sans-serif" text-anchor="middle"><path class="domain" stroke="#000" d="M0.5,6V0.5H520.5V6"></path><g class="tick" opacity="1" transform="translate(0.5,0)"><line stroke="#000" y2="6"></line><text fill="#000" y="9" dy="0.71em">0.01</text></g><g class="tick" opacity="1" transform="translate(130.5,0)"><line stroke="#000" y2="6"></line><text fill="#000" y="9" dy="0.71em">1</text></g><g class="tick" opacity="1" transform="translate(260.5,0)"><line stroke="#000" y2="6"></line><text fill="#000" y="9" dy="0.71em">100</text></g><g class="tick" opacity="1" transform="translate(390.5,0)"><line stroke="#000" y2="6"></line><text fill="#000" y="9" dy="0.71em">10000</text></g><g class="tick" opacity="1" transform="translate(520.5,0)"><line stroke="#000" y2="6"></line><text fill="#000" y="9" dy="0.71em"></text></g></g><g class="axis axis--y" fill="none" font-size="10" font-family="sans-serif" text-anchor="end"><path class="domain" stroke="#000" d="M-6,310.5H0.5V0.5H-6"></path><g class="tick" opacity="1" transform="translate(0,310.5)"><line stroke="#000" x2="-6"></line><text fill="#000" x="-9" dy="0.32em">0</text></g><g class="tick" opacity="1" transform="translate(0,288.10115606936415)"><line stroke="#000" x2="-6"></line><text fill="#000" x="-9" dy="0.32em">50</text></g><g class="tick" opacity="1" transform="translate(0,265.7023121387283)"><line stroke="#000" x2="-6"></line><text fill="#000" x="-9" dy="0.32em">100</text></g><g class="tick" opacity="1" transform="translate(0,243.30346820809248)"><line stroke="#000" x2="-6"></line><text fill="#000" x="-9" dy="0.32em">150</text></g><g class="tick" opacity="1" transform="translate(0,220.90462427745663)"><line stroke="#000" x2="-6"></line><text fill="#000" x="-9" dy="0.32em">200</text></g><g class="tick" opacity="1" transform="translate(0,198.5057803468208)"><line stroke="#000" x2="-6"></line><text fill="#000" x="-9" dy="0.32em">250</text></g><g class="tick" opacity="1" transform="translate(0,176.10693641618496)"><line stroke="#000" x2="-6"></line><text fill="#000" x="-9" dy="0.32em">300</text></g><g class="tick" opacity="1" transform="translate(0,153.70809248554912)"><line stroke="#000" x2="-6"></line><text fill="#000" x="-9" dy="0.32em">350</text></g><g class="tick" opacity="1" transform="translate(0,131.30924855491327)"><line stroke="#000" x2="-6"></line><text fill="#000" x="-9" dy="0.32em">400</text></g><g class="tick" opacity="1" transform="translate(0,108.91040462427745)"><line stroke="#000" x2="-6"></line><text fill="#000" x="-9" dy="0.32em">450</text></g><g class="tick" opacity="1" transform="translate(0,86.5115606936416)"><line stroke="#000" x2="-6"></line><text fill="#000" x="-9" dy="0.32em">500</text></g><g class="tick" opacity="1" transform="translate(0,64.11271676300578)"><line stroke="#000" x2="-6"></line><text fill="#000" x="-9" dy="0.32em">550</text></g><g class="tick" opacity="1" transform="translate(0,41.71387283236993)"><line stroke="#000" x2="-6"></line><text fill="#000" x="-9" dy="0.32em">600</text></g><g class="tick" opacity="1" transform="translate(0,19.31502890173408)"><line stroke="#000" x2="-6"></line><text fill="#000" x="-9" dy="0.32em">650</text></g></g></g></svg>