<svg xmlns="http://www.w3.org/2000/svg" width="280" height="160"><defs><style type="text/css"><![CDATA[ 
.bar rect {
  fill-opacity: 0;
  stroke:       black;
  stroke-width: 0.5;
}

.highlight rect {
  fill:       red;
  fill-opacity: 1;
}
.axis path,
.axis line {
  fill: none;
  stroke: #000;
  shape-rendering: crispEdges;
}
path {
    stroke: red;
    fill: none;
}

line {
    stroke: red;
}

path.marker {
    fill: red;
}
 ]]></style></defs><g transform="translate(50,10)"><g class="bar" transform="translate(0,120)"><rect x="1" width="11.5" height="0"></rect></g><g class="bar" transform="translate(12.5,120)"><rect x="1" width="11.5" height="0"></rect></g><g class="bar" transform="translate(25,119.74025974025975)"><rect x="1" width="11.5" height="0.25974025974025494"></rect></g><g class="bar" transform="translate(37.5,118.83116883116882)"><rect x="1" width="11.5" height="1.1688311688311757"></rect></g><g class="bar" transform="translate(50,113.63636363636364)"><rect x="1" width="11.5" height="6.36363636363636"></rect></g><g class="bar" transform="translate(62.5,87.4025974025974)"><rect x="1" width="11.5" height="32.597402597402606"></rect></g><g class="bar" transform="translate(75,42.85714285714285)"><rect x="1" width="11.5" height="77.14285714285715"></rect></g><g class="bar" transform="translate(87.5,0)"><rect x="1" width="11.5" height="120"></rect></g><g class="bar" transform="translate(100,9.220779220779221)"><rect x="1" width="11.5" height="110.77922077922078"></rect></g><g class="bar" transform="translate(112.5,59.48051948051948)"><rect x="1" width="11.5" height="60.51948051948052"></rect></g><g class="bar" transform="translate(125,97.27272727272728)"><rect x="1" width="11.5" height="22.72727272727272"></rect></g><g class="bar" transform="translate(137.5,116.23376623376623)"><rect x="1" width="11.5" height="3.7662337662337677"></rect></g><g class="bar" transform="translate(150,119.35064935064935)"><rect x="1" width="11.5" height="0.6493506493506516"></rect></g><g class="bar" transform="translate(162.5,119.87012987012987)"><rect x="1" width="11.5" height="0.12987012987012747"></rect></g><g class="bar" transform="translate(175,120)"><rect x="1" width="11.5" height="0"></rect></g><g class="bar" transform="translate(187.5,120)"><rect x="1" width="11.5" height="0"></rect></g></g></svg>