<svg xmlns="http://www.w3.org/2000/svg" width="600" height="350"><defs><style type="text/css"><![CDATA[ 
.bar rect {
  fill-opacity: 0;
  stroke:       black;
  stroke-width: 0.5;
}

.highlight rect {
  fill:       red;
  fill-opacity: 1;
}
.axis path,
.axis line {
  fill: none;
  stroke: #000;
  shape-rendering: crispEdges;
}
path {
    stroke: red;
    fill: none;
}

line {
    stroke: red;
}

path.marker {
    fill: red;
}
 ]]></style></defs><g transform="translate(50,10)"><g class="bar" transform="translate(0,310)"><rect x="1" width="11.999999999999996" height="0"></rect></g><g class="bar" transform="translate(12.999999999999996,310)"><rect x="1" width="11.999999999999996" height="0"></rect></g><g class="bar" transform="translate(25.999999999999993,310)"><rect x="1" width="11.999999999999996" height="0"></rect></g><g class="bar" transform="translate(39.00000000000001,310)"><rect x="1" width="11.999999999999996" height="0"></rect></g><g class="bar" transform="translate(52,310)"><rect x="1" width="11.999999999999996" height="0"></rect></g><g class="bar" transform="translate(65,310)"><rect x="1" width="11.999999999999996" height="0"></rect></g><g class="bar" transform="translate(78.00000000000001,309.23267326732673)"><rect x="1" width="11.999999999999996" height="0.7673267326732685"></rect></g><g class="bar" transform="translate(91.00000000000001,308.46534653465346)"><rect x="1" width="11.999999999999996" height="1.534653465346537"></rect></g><g class="bar" transform="translate(104,308.46534653465346)"><rect x="1" width="11.999999999999996" height="1.534653465346537"></rect></g><g class="bar" transform="translate(117,305.3960396039604)"><rect x="1" width="11.999999999999996" height="4.603960396039611"></rect></g><g class="bar" transform="translate(130,303.86138613861385)"><rect x="1" width="11.999999999999996" height="6.138613861386148"></rect></g><g class="bar" transform="translate(143,293.88613861386136)"><rect x="1" width="11.999999999999996" height="16.113861386138637"></rect></g><g class="bar" transform="translate(156.00000000000003,268.56435643564356)"><rect x="1" width="11.999999999999996" height="41.43564356435644"></rect></g><g class="bar" transform="translate(169,244.7772277227723)"><rect x="1" width="11.999999999999996" height="65.2227722772277"></rect></g><g class="bar" transform="translate(182.00000000000003,208.7128712871287)"><rect x="1" width="11.999999999999996" height="101.2871287128713"></rect></g><g class="bar" transform="translate(195,158.83663366336634)"><rect x="1" width="11.999999999999996" height="151.16336633663366"></rect></g><g class="bar" transform="translate(208,103.58910891089107)"><rect x="1" width="11.999999999999996" height="206.41089108910893"></rect></g><g class="bar" transform="translate(221.00000000000003,84.40594059405942)"><rect x="1" width="11.999999999999996" height="225.59405940594058"></rect></g><g class="bar" transform="translate(234,38.366336633663366)"><rect x="1" width="11.999999999999996" height="271.63366336633663"></rect></g><g class="bar" transform="translate(247.00000000000003,0)"><rect x="1" width="11.999999999999996" height="310"></rect></g><g class="bar" transform="translate(260,16.881188118811906)"><rect x="1" width="11.999999999999996" height="293.1188118811881"></rect></g><g class="bar" transform="translate(273,62.15346534653463)"><rect x="1" width="11.999999999999996" height="247.84653465346537"></rect></g><g class="bar" transform="translate(286,89.00990099009903)"><rect x="1" width="11.999999999999996" height="220.99009900990097"></rect></g><g class="bar" transform="translate(299.00000000000006,151.16336633663366)"><rect x="1" width="11.999999999999996" height="158.83663366336634"></rect></g><g class="bar" transform="translate(312.00000000000006,218.6881188118812)"><rect x="1" width="11.999999999999996" height="91.3118811881188"></rect></g><g class="bar" transform="translate(325,232.5)"><rect x="1" width="11.999999999999996" height="77.5"></rect></g><g class="bar" transform="translate(338,264.7277227722772)"><rect x="1" width="11.999999999999996" height="45.27227722772278"></rect></g><g class="bar" transform="translate(351,288.5148514851485)"><rect x="1" width="11.999999999999996" height="21.485148514851517"></rect></g><g class="bar" transform="translate(364.00000000000006,301.55940594059405)"><rect x="1" width="11.999999999999996" height="8.440594059405953"></rect></g><g class="bar" transform="translate(377.00000000000006,306.16336633663366)"><rect x="1" width="11.999999999999996" height="3.8366336633663423"></rect></g><g class="bar" transform="translate(390,307.6980198019802)"><rect x="1" width="11.999999999999996" height="2.3019801980198054"></rect></g><g class="bar" transform="translate(403,308.46534653465346)"><rect x="1" width="11.999999999999996" height="1.534653465346537"></rect></g><g class="bar" transform="translate(416,309.23267326732673)"><rect x="1" width="11.999999999999996" height="0.7673267326732685"></rect></g><g class="bar" transform="translate(429.00000000000006,310)"><rect x="1" width="11.999999999999996" height="0"></rect></g><g class="bar" transform="translate(442.00000000000006,310)"><rect x="1" width="11.999999999999996" height="0"></rect></g><g class="bar" transform="translate(455,310)"><rect x="1" width="11.999999999999996" height="0"></rect></g><g class="bar" transform="translate(468,310)"><rect x="1" width="11.999999999999996" height="0"></rect></g><g class="bar" transform="translate(481,310)"><rect x="1" width="11.999999999999996" height="0"></rect></g><g class="bar" transform="translate(494.00000000000006,310)"><rect x="1" width="11.999999999999996" height="0"></rect></g><g class="bar" transform="translate(507.00000000000006,310)"><rect x="1" width="11.999999999999996" height="0"></rect></g><g class="axis axis--x" transform="translate(0,310)" fill="none" font-size="10" font-family="sans-serif" text-anchor="middle"><path class="domain" stroke="#000" d="M0.5,6V0.5H520.5V6"></path><g class="tick" opacity="1" transform="translate(0.5,0)"><line stroke="#000" y2="6"></line><text fill="#000" y="9" dy="0.71em">0.01</text></g><g class="tick" opacity="1" transform="translate(130.5,0)"><line stroke="#000" y2="6"></line><text fill="#000" y="9" dy="0.71em">1</text></g><g class="tick" opacity="1" transform="translate(260.5,0)"><line stroke="#000" y2="6"></line><text fill="#000" y="9" dy="0.71em">100</text></g><g class="tick" opacity="1" transform="translate(390.5,0)"><line stroke="#000" y2="6"></line><text fill="#000" y="9" dy="0.71em">10000</text></g><g class="tick" opacity="1" transform="translate(520.5,0)"><line stroke="#000" y2="6"></line><text fill="#000" y="9" dy="0.71em"></text></g></g><g class="axis axis--y" fill="none" font-size="10" font-family="sans-serif" text-anchor="end"><path class="domain" stroke="#000" d="M-6,310.5H0.5V0.5H-6"></path><g class="tick" opacity="1" transform="translate(0,310.5)"><line stroke="#000" x2="-6"></line><text fill="#000" x="-9" dy="0.32em">0</text></g><g class="tick" opacity="1" transform="translate(0,272.13366336633663)"><line stroke="#000" x2="-6"></line><text fill="#000" x="-9" dy="0.32em">50</text></g><g class="tick" opacity="1" transform="translate(0,233.76732673267327)"><line stroke="#000" x2="-6"></line><text fill="#000" x="-9" dy="0.32em">100</text></g><g class="tick" opacity="1" transform="translate(0,195.4009900990099)"><line stroke="#000" x2="-6"></line><text fill="#000" x="-9" dy="0.32em">150</text></g><g class="tick" opacity="1" transform="translate(0,157.03465346534654)"><line stroke="#000" x2="-6"></line><text fill="#000" x="-9" dy="0.32em">200</text></g><g class="tick" opacity="1" transform="translate(0,118.66831683168317)"><line stroke="#000" x2="-6"></line><text fill="#000" x="-9" dy="0.32em">250</text></g><g class="tick" opacity="1" transform="translate(0,80.3019801980198)"><line stroke="#000" x2="-6"></line><text fill="#000" x="-9" dy="0.32em">300</text></g><g class="tick" opacity="1" transform="translate(0,41.93564356435644)"><line stroke="#000" x2="-6"></line><text fill="#000" x="-9" dy="0.32em">350</text></g><g class="tick" opacity="1" transform="translate(0,3.569306930693074)"><line stroke="#000" x2="-6"></line><text fill="#000" x="-9" dy="0.32em">400</text></g></g></g></svg>