<svg xmlns="http://www.w3.org/2000/svg" width="600" height="350"><defs><style type="text/css"><![CDATA[ 
.bar rect {
  fill-opacity: 0;
  stroke:       black;
  stroke-width: 0.5;
}

.highlight rect {
  fill:       red;
  fill-opacity: 1;
}
.axis path,
.axis line {
  fill: none;
  stroke: #000;
  shape-rendering: crispEdges;
}
path {
    stroke: red;
    fill: none;
}

line {
    stroke: red;
}

path.marker {
    fill: red;
}
 ]]></style></defs><g transform="translate(50,10)"><g class="bar" transform="translate(0,310)"><rect x="1" width="11.999999999999996" height="0"></rect></g><g class="bar" transform="translate(12.999999999999996,310)"><rect x="1" width="11.999999999999996" height="0"></rect></g><g class="bar" transform="translate(25.999999999999993,310)"><rect x="1" width="11.999999999999996" height="0"></rect></g><g class="bar" transform="translate(39.00000000000001,310)"><rect x="1" width="11.999999999999996" height="0"></rect></g><g class="bar" transform="translate(52,310)"><rect x="1" width="11.999999999999996" height="0"></rect></g><g class="bar" transform="translate(65,310)"><rect x="1" width="11.999999999999996" height="0"></rect></g><g class="bar" transform="translate(78.00000000000001,310)"><rect x="1" width="11.999999999999996" height="0"></rect></g><g class="bar" transform="translate(91.00000000000001,308.268156424581)"><rect x="1" width="11.999999999999996" height="1.7318435754190205"></rect></g><g class="bar" transform="translate(104,309.1340782122905)"><rect x="1" width="11.999999999999996" height="0.8659217877095102"></rect></g><g class="bar" transform="translate(117,308.268156424581)"><rect x="1" width="11.999999999999996" height="1.7318435754190205"></rect></g><g class="bar" transform="translate(130,289.2178770949721)"><rect x="1" width="11.999999999999996" height="20.782122905027904"></rect></g><g class="bar" transform="translate(143,259.77653631284915)"><rect x="1" width="11.999999999999996" height="50.223463687150854"></rect></g><g class="bar" transform="translate(156.00000000000003,180.11173184357543)"><rect x="1" width="11.999999999999996" height="129.88826815642457"></rect></g><g class="bar" transform="translate(169,155.8659217877095)"><rect x="1" width="11.999999999999996" height="154.1340782122905"></rect></g><g class="bar" transform="translate(182.00000000000003,41.564245810055866)"><rect x="1" width="11.999999999999996" height="268.43575418994413"></rect></g><g class="bar" transform="translate(195,29.441340782122893)"><rect x="1" width="11.999999999999996" height="280.5586592178771"></rect></g><g class="bar" transform="translate(208,0)"><rect x="1" width="11.999999999999996" height="310"></rect></g><g class="bar" transform="translate(221.00000000000003,19.91620111731845)"><rect x="1" width="11.999999999999996" height="290.08379888268155"></rect></g><g class="bar" transform="translate(234,64.94413407821227)"><rect x="1" width="11.999999999999996" height="245.05586592178773"></rect></g><g class="bar" transform="translate(247.00000000000003,104.77653631284917)"><rect x="1" width="11.999999999999996" height="205.22346368715083"></rect></g><g class="bar" transform="translate(260,163.659217877095)"><rect x="1" width="11.999999999999996" height="146.340782122905"></rect></g><g class="bar" transform="translate(273,173.18435754189946)"><rect x="1" width="11.999999999999996" height="136.81564245810054"></rect></g><g class="bar" transform="translate(286,227.73743016759775)"><rect x="1" width="11.999999999999996" height="82.26256983240225"></rect></g><g class="bar" transform="translate(299.00000000000006,258.0446927374302)"><rect x="1" width="11.999999999999996" height="51.95530726256982"></rect></g><g class="bar" transform="translate(312.00000000000006,269.30167597765364)"><rect x="1" width="11.999999999999996" height="40.698324022346355"></rect></g><g class="bar" transform="translate(325,288.3519553072626)"><rect x="1" width="11.999999999999996" height="21.648044692737415"></rect></g><g class="bar" transform="translate(338,297.877094972067)"><rect x="1" width="11.999999999999996" height="12.122905027932973"></rect></g><g class="bar" transform="translate(351,298.74301675977654)"><rect x="1" width="11.999999999999996" height="11.256983240223462"></rect></g><g class="bar" transform="translate(364.00000000000006,308.268156424581)"><rect x="1" width="11.999999999999996" height="1.7318435754190205"></rect></g><g class="bar" transform="translate(377.00000000000006,303.07262569832403)"><rect x="1" width="11.999999999999996" height="6.927374301675968"></rect></g><g class="bar" transform="translate(390,307.4022346368715)"><rect x="1" width="11.999999999999996" height="2.597765363128474"></rect></g><g class="bar" transform="translate(403,304.804469273743)"><rect x="1" width="11.999999999999996" height="5.1955307262570045"></rect></g><g class="bar" transform="translate(416,307.4022346368715)"><rect x="1" width="11.999999999999996" height="2.597765363128474"></rect></g><g class="bar" transform="translate(429.00000000000006,308.268156424581)"><rect x="1" width="11.999999999999996" height="1.7318435754190205"></rect></g><g class="bar" transform="translate(442.00000000000006,309.1340782122905)"><rect x="1" width="11.999999999999996" height="0.8659217877095102"></rect></g><g class="bar" transform="translate(455,310)"><rect x="1" width="11.999999999999996" height="0"></rect></g><g class="bar" transform="translate(468,309.1340782122905)"><rect x="1" width="11.999999999999996" height="0.8659217877095102"></rect></g><g class="bar" transform="translate(481,310)"><rect x="1" width="11.999999999999996" height="0"></rect></g><g class="bar" transform="translate(494.00000000000006,310)"><rect x="1" width="11.999999999999996" height="0"></rect></g><g class="bar" transform="translate(507.00000000000006,310)"><rect x="1" width="11.999999999999996" height="0"></rect></g><g class="axis axis--x" transform="translate(0,310)" fill="none" font-size="10" font-family="sans-serif" text-anchor="middle"><path class="domain" stroke="#000" d="M0.5,6V0.5H520.5V6"></path><g class="tick" opacity="1" transform="translate(0.5,0)"><line stroke="#000" y2="6"></line><text fill="#000" y="9" dy="0.71em">0.01</text></g><g class="tick" opacity="1" transform="translate(130.5,0)"><line stroke="#000" y2="6"></line><text fill="#000" y="9" dy="0.71em">1</text></g><g class="tick" opacity="1" transform="translate(260.5,0)"><line stroke="#000" y2="6"></line><text fill="#000" y="9" dy="0.71em">100</text></g><g class="tick" opacity="1" transform="translate(390.5,0)"><line stroke="#000" y2="6"></line><text fill="#000" y="9" dy="0.71em">10000</text></g><g class="tick" opacity="1" transform="translate(520.5,0)"><line stroke="#000" y2="6"></line><text fill="#000" y="9" dy="0.71em"></text></g></g><g class="axis axis--y" fill="none" font-size="10" font-family="sans-serif" text-anchor="end"><path class="domain" stroke="#000" d="M-6,310.5H0.5V0.5H-6"></path><g class="tick" opacity="1" transform="translate(0,310.5)"><line stroke="#000" x2="-6"></line><text fill="#000" x="-9" dy="0.32em">0</text></g><g class="tick" opacity="1" transform="translate(0,267.20391061452517)"><line stroke="#000" x2="-6"></line><text fill="#000" x="-9" dy="0.32em">50</text></g><g class="tick" opacity="1" transform="translate(0,223.90782122905028)"><line stroke="#000" x2="-6"></line><text fill="#000" x="-9" dy="0.32em">100</text></g><g class="tick" opacity="1" transform="translate(0,180.61173184357543)"><line stroke="#000" x2="-6"></line><text fill="#000" x="-9" dy="0.32em">150</text></g><g class="tick" opacity="1" transform="translate(0,137.31564245810057)"><line stroke="#000" x2="-6"></line><text fill="#000" x="-9" dy="0.32em">200</text></g><g class="tick" opacity="1" transform="translate(0,94.01955307262571)"><line stroke="#000" x2="-6"></line><text fill="#000" x="-9" dy="0.32em">250</text></g><g class="tick" opacity="1" transform="translate(0,50.723463687150854)"><line stroke="#000" x2="-6"></line><text fill="#000" x="-9" dy="0.32em">300</text></g><g class="tick" opacity="1" transform="translate(0,7.427374301675968)"><line stroke="#000" x2="-6"></line><text fill="#000" x="-9" dy="0.32em">350</text></g></g></g></svg>