<svg xmlns="http://www.w3.org/2000/svg" width="280" height="160"><defs><style type="text/css"><![CDATA[ 
.bar rect {
  fill-opacity: 0;
  stroke:       black;
  stroke-width: 0.5;
}

.highlight rect {
  fill:       red;
  fill-opacity: 1;
}
.axis path,
.axis line {
  fill: none;
  stroke: #000;
  shape-rendering: crispEdges;
}
path {
    stroke: red;
    fill: none;
}

line {
    stroke: red;
}

path.marker {
    fill: red;
}
 ]]></style></defs><g transform="translate(50,10)"><g class="bar" transform="translate(0,120)"><rect x="1" width="11.5" height="0"></rect></g><g class="bar" transform="translate(12.5,120)"><rect x="1" width="11.5" height="0"></rect></g><g class="bar" transform="translate(25,120)"><rect x="1" width="11.5" height="0"></rect></g><g class="bar" transform="translate(37.5,120)"><rect x="1" width="11.5" height="0"></rect></g><g class="bar" transform="translate(50,120)"><rect x="1" width="11.5" height="0"></rect></g><g class="bar" transform="translate(62.5,120)"><rect x="1" width="11.5" height="0"></rect></g><g class="bar" transform="translate(75,119.93504736129906)"><rect x="1" width="11.5" height="0.06495263870094448"></rect></g><g class="bar" transform="translate(87.5,0)"><rect x="1" width="11.5" height="120"></rect></g><g class="bar" transform="translate(100,84.47090663058187)"><rect x="1" width="11.5" height="35.529093369418135"></rect></g><g class="bar" transform="translate(112.5,110.3870094722598)"><rect x="1" width="11.5" height="9.612990527740195"></rect></g><g class="bar" transform="translate(125,116.03788903924222)"><rect x="1" width="11.5" height="3.9621109607577836"></rect></g><g class="bar" transform="translate(137.5,119.12313937753721)"><rect x="1" width="11.5" height="0.876860622462786"></rect></g><g class="bar" transform="translate(150,119.80514208389715)"><rect x="1" width="11.5" height="0.19485791610284764"></rect></g><g class="bar" transform="translate(162.5,120)"><rect x="1" width="11.5" height="0"></rect></g><g class="bar" transform="translate(175,120)"><rect x="1" width="11.5" height="0"></rect></g><g class="bar" transform="translate(187.5,120)"><rect x="1" width="11.5" height="0"></rect></g></g></svg>