<svg xmlns="http://www.w3.org/2000/svg" width="600" height="350"><defs><style type="text/css"><![CDATA[ 
.bar rect {
  fill-opacity: 0;
  stroke:       black;
  stroke-width: 0.5;
}

.highlight rect {
  fill:       red;
  fill-opacity: 1;
}
.axis path,
.axis line {
  fill: none;
  stroke: #000;
  shape-rendering: crispEdges;
}
 ]]></style></defs><g transform="translate(50,10)"><g class="bar" transform="translate(0,310)"><rect x="1" width="2.2500000000000027" height="0"></rect></g><g class="bar" transform="translate(3.2500000000000027,310)"><rect x="1" width="2.2500000000000027" height="0"></rect></g><g class="bar" transform="translate(6.500000000000005,310)"><rect x="1" width="2.2500000000000027" height="0"></rect></g><g class="bar" transform="translate(9.749999999999995,310)"><rect x="1" width="2.2500000000000027" height="0"></rect></g><g class="bar" transform="translate(12.999999999999996,310)"><rect x="1" width="2.2500000000000027" height="0"></rect></g><g class="bar" transform="translate(16.25,310)"><rect x="1" width="2.2500000000000027" height="0"></rect></g><g class="bar" transform="translate(19.500000000000004,310)"><rect x="1" width="2.2500000000000027" height="0"></rect></g><g class="bar" transform="translate(22.750000000000007,310)"><rect x="1" width="2.2500000000000027" height="0"></rect></g><g class="bar" transform="translate(25.999999999999993,310)"><rect x="1" width="2.2500000000000027" height="0"></rect></g><g class="bar" transform="translate(29.249999999999996,310)"><rect x="1" width="2.2500000000000027" height="0"></rect></g><g class="bar" transform="translate(32.5,310)"><rect x="1" width="2.2500000000000027" height="0"></rect></g><g class="bar" transform="translate(35.75,310)"><rect x="1" width="2.2500000000000027" height="0"></rect></g><g class="bar" transform="translate(39.00000000000001,310)"><rect x="1" width="2.2500000000000027" height="0"></rect></g><g class="bar" transform="translate(42.24999999999999,310)"><rect x="1" width="2.2500000000000027" height="0"></rect></g><g class="bar" transform="translate(45.500000000000014,310)"><rect x="1" width="2.2500000000000027" height="0"></rect></g><g class="bar" transform="translate(48.75,310)"><rect x="1" width="2.2500000000000027" height="0"></rect></g><g class="bar" transform="translate(52,310)"><rect x="1" width="2.2500000000000027" height="0"></rect></g><g class="bar" transform="translate(55.25000000000001,310)"><rect x="1" width="2.2500000000000027" height="0"></rect></g><g class="bar" transform="translate(58.49999999999999,310)"><rect x="1" width="2.2500000000000027" height="0"></rect></g><g class="bar" transform="translate(61.750000000000014,310)"><rect x="1" width="2.2500000000000027" height="0"></rect></g><g class="bar" transform="translate(65,310)"><rect x="1" width="2.2500000000000027" height="0"></rect></g><g class="bar" transform="translate(68.25,310)"><rect x="1" width="2.2500000000000027" height="0"></rect></g><g class="bar" transform="translate(71.5,310)"><rect x="1" width="2.2500000000000027" height="0"></rect></g><g class="bar" transform="translate(74.75000000000001,310)"><rect x="1" width="2.2500000000000027" height="0"></rect></g><g class="bar" transform="translate(78.00000000000001,310)"><rect x="1" width="2.2500000000000027" height="0"></rect></g><g class="bar" transform="translate(81.25,310)"><rect x="1" width="2.2500000000000027" height="0"></rect></g><g class="bar" transform="translate(84.5,310)"><rect x="1" width="2.2500000000000027" height="0"></rect></g><g class="bar" transform="translate(87.75,310)"><rect x="1" width="2.2500000000000027" height="0"></rect></g><g class="bar" transform="translate(91.00000000000001,310)"><rect x="1" width="2.2500000000000027" height="0"></rect></g><g class="bar" transform="translate(94.25000000000001,310)"><rect x="1" width="2.2500000000000027" height="0"></rect></g><g class="bar" transform="translate(97.5,310)"><rect x="1" width="2.2500000000000027" height="0"></rect></g><g class="bar" transform="translate(100.75,310)"><rect x="1" width="2.2500000000000027" height="0"></rect></g><g class="bar" transform="translate(104,310)"><rect x="1" width="2.2500000000000027" height="0"></rect></g><g class="bar" transform="translate(107.25000000000001,310)"><rect x="1" width="2.2500000000000027" height="0"></rect></g><g class="bar" transform="translate(110.50000000000001,310)"><rect x="1" width="2.2500000000000027" height="0"></rect></g><g class="bar" transform="translate(113.75,310)"><rect x="1" width="2.2500000000000027" height="0"></rect></g><g class="bar" transform="translate(117,310)"><rect x="1" width="2.2500000000000027" height="0"></rect></g><g class="bar" transform="translate(120.25,310)"><rect x="1" width="2.2500000000000027" height="0"></rect></g><g class="bar" transform="translate(123.50000000000001,310)"><rect x="1" width="2.2500000000000027" height="0"></rect></g><g class="bar" transform="translate(126.75000000000001,310)"><rect x="1" width="2.2500000000000027" height="0"></rect></g><g class="bar" transform="translate(130,310)"><rect x="1" width="2.2500000000000027" height="0"></rect></g><g class="bar" transform="translate(133.25000000000003,310)"><rect x="1" width="2.2500000000000027" height="0"></rect></g><g class="bar" transform="translate(136.5,310)"><rect x="1" width="2.2500000000000027" height="0"></rect></g><g class="bar" transform="translate(139.75,310)"><rect x="1" width="2.2500000000000027" height="0"></rect></g><g class="bar" transform="translate(143,310)"><rect x="1" width="2.2500000000000027" height="0"></rect></g><g class="bar" transform="translate(146.25,310)"><rect x="1" width="2.2500000000000027" height="0"></rect></g><g class="bar" transform="translate(149.50000000000003,310)"><rect x="1" width="2.2500000000000027" height="0"></rect></g><g class="bar" transform="translate(152.75,305.6296992481203)"><rect x="1" width="2.2500000000000027" height="4.370300751879711"></rect></g><g class="bar" transform="translate(156.00000000000003,310)"><rect x="1" width="2.2500000000000027" height="0"></rect></g><g class="bar" transform="translate(159.25,310)"><rect x="1" width="2.2500000000000027" height="0"></rect></g><g class="bar" transform="translate(162.5,310)"><rect x="1" width="2.2500000000000027" height="0"></rect></g><g class="bar" transform="translate(165.75000000000003,310)"><rect x="1" width="2.2500000000000027" height="0"></rect></g><g class="bar" transform="translate(169,310)"><rect x="1" width="2.2500000000000027" height="0"></rect></g><g class="bar" transform="translate(172.25000000000003,307.3778195488722)"><rect x="1" width="2.2500000000000027" height="2.6221804511278037"></rect></g><g class="bar" transform="translate(175.5,310)"><rect x="1" width="2.2500000000000027" height="0"></rect></g><g class="bar" transform="translate(178.75,310)"><rect x="1" width="2.2500000000000027" height="0"></rect></g><g class="bar" transform="translate(182.00000000000003,310)"><rect x="1" width="2.2500000000000027" height="0"></rect></g><g class="bar" transform="translate(185.25,310)"><rect x="1" width="2.2500000000000027" height="0"></rect></g><g class="bar" transform="translate(188.50000000000003,309.70864661654133)"><rect x="1" width="2.2500000000000027" height="0.2913533834586701"></rect></g><g class="bar" transform="translate(191.75,310)"><rect x="1" width="2.2500000000000027" height="0"></rect></g><g class="bar" transform="translate(195,309.70864661654133)"><rect x="1" width="2.2500000000000027" height="0.2913533834586701"></rect></g><g class="bar" transform="translate(198.25000000000003,309.70864661654133)"><rect x="1" width="2.2500000000000027" height="0.2913533834586701"></rect></g><g class="bar" transform="translate(201.5,308.54323308270676)"><rect x="1" width="2.2500000000000027" height="1.456766917293237"></rect></g><g class="bar" transform="translate(204.75000000000003,305.92105263157896)"><rect x="1" width="2.2500000000000027" height="4.078947368421041"></rect></g><g class="bar" transform="translate(208,304.4642857142857)"><rect x="1" width="2.2500000000000027" height="5.535714285714278"></rect></g><g class="bar" transform="translate(211.25,307.3778195488722)"><rect x="1" width="2.2500000000000027" height="2.6221804511278037"></rect></g><g class="bar" transform="translate(214.50000000000003,303.29887218045116)"><rect x="1" width="2.2500000000000027" height="6.701127819548844"></rect></g><g class="bar" transform="translate(217.75,297.4718045112782)"><rect x="1" width="2.2500000000000027" height="12.528195488721792"></rect></g><g class="bar" transform="translate(221.00000000000003,302.13345864661653)"><rect x="1" width="2.2500000000000027" height="7.866541353383468"></rect></g><g class="bar" transform="translate(224.25,300.093984962406)"><rect x="1" width="2.2500000000000027" height="9.906015037593988"></rect></g><g class="bar" transform="translate(227.5,293.39285714285717)"><rect x="1" width="2.2500000000000027" height="16.607142857142833"></rect></g><g class="bar" transform="translate(230.75000000000003,266.296992481203)"><rect x="1" width="2.2500000000000027" height="43.703007518796994"></rect></g><g class="bar" transform="translate(234,223.1766917293233)"><rect x="1" width="2.2500000000000027" height="86.8233082706767"></rect></g><g class="bar" transform="translate(237.25000000000003,187.04887218045113)"><rect x="1" width="2.2500000000000027" height="122.95112781954887"></rect></g><g class="bar" transform="translate(240.5,186.75751879699249)"><rect x="1" width="2.2500000000000027" height="123.24248120300751"></rect></g><g class="bar" transform="translate(243.75,245.0281954887218)"><rect x="1" width="2.2500000000000027" height="64.97180451127821"></rect></g><g class="bar" transform="translate(247.00000000000003,289.02255639097746)"><rect x="1" width="2.2500000000000027" height="20.977443609022544"></rect></g><g class="bar" transform="translate(250.25,286.69172932330827)"><rect x="1" width="2.2500000000000027" height="23.308270676691734"></rect></g><g class="bar" transform="translate(253.50000000000003,257.84774436090225)"><rect x="1" width="2.2500000000000027" height="52.152255639097746"></rect></g><g class="bar" transform="translate(256.75,189.96240601503757)"><rect x="1" width="2.2500000000000027" height="120.03759398496243"></rect></g><g class="bar" transform="translate(260,150.046992481203)"><rect x="1" width="2.2500000000000027" height="159.953007518797"></rect></g><g class="bar" transform="translate(263.25,221.13721804511277)"><rect x="1" width="2.2500000000000027" height="88.86278195488723"></rect></g><g class="bar" transform="translate(266.50000000000006,234.24812030075188)"><rect x="1" width="2.2500000000000027" height="75.75187969924812"></rect></g><g class="bar" transform="translate(269.75,140.4323308270677)"><rect x="1" width="2.2500000000000027" height="169.5676691729323"></rect></g><g class="bar" transform="translate(273,32.63157894736844)"><rect x="1" width="2.2500000000000027" height="277.36842105263156"></rect></g><g class="bar" transform="translate(276.25,0)"><rect x="1" width="2.2500000000000027" height="310"></rect></g><g class="bar" transform="translate(279.5,86.24060150375942)"><rect x="1" width="2.2500000000000027" height="223.75939849624058"></rect></g><g class="bar" transform="translate(282.75000000000006,225.50751879699249)"><rect x="1" width="2.2500000000000027" height="84.49248120300751"></rect></g><g class="bar" transform="translate(286,293.6842105263158)"><rect x="1" width="2.2500000000000027" height="16.31578947368422"></rect></g><g class="bar" transform="translate(289.25,301.55075187969925)"><rect x="1" width="2.2500000000000027" height="8.449248120300751"></rect></g><g class="bar" transform="translate(292.5,300.093984962406)"><rect x="1" width="2.2500000000000027" height="9.906015037593988"></rect></g><g class="bar" transform="translate(295.75,305.3383458646617)"><rect x="1" width="2.2500000000000027" height="4.661654135338324"></rect></g><g class="bar" transform="translate(299.00000000000006,305.92105263157896)"><rect x="1" width="2.2500000000000027" height="4.078947368421041"></rect></g><g class="bar" transform="translate(302.25,309.12593984962405)"><rect x="1" width="2.2500000000000027" height="0.8740601503759535"></rect></g><g class="bar" transform="translate(305.5,309.70864661654133)"><rect x="1" width="2.2500000000000027" height="0.2913533834586701"></rect></g><g class="bar" transform="translate(308.75,310)"><rect x="1" width="2.2500000000000027" height="0"></rect></g><g class="bar" transform="translate(312.00000000000006,310)"><rect x="1" width="2.2500000000000027" height="0"></rect></g><g class="bar" transform="translate(315.25000000000006,310)"><rect x="1" width="2.2500000000000027" height="0"></rect></g><g class="bar" transform="translate(318.5,310)"><rect x="1" width="2.2500000000000027" height="0"></rect></g><g class="bar" transform="translate(321.75,310)"><rect x="1" width="2.2500000000000027" height="0"></rect></g><g class="bar" transform="translate(325,310)"><rect x="1" width="2.2500000000000027" height="0"></rect></g><g class="bar" transform="translate(328.25000000000006,310)"><rect x="1" width="2.2500000000000027" height="0"></rect></g><g class="bar" transform="translate(331.50000000000006,310)"><rect x="1" width="2.2500000000000027" height="0"></rect></g><g class="bar" transform="translate(334.75,310)"><rect x="1" width="2.2500000000000027" height="0"></rect></g><g class="bar" transform="translate(338,310)"><rect x="1" width="2.2500000000000027" height="0"></rect></g><g class="bar" transform="translate(341.25,310)"><rect x="1" width="2.2500000000000027" height="0"></rect></g><g class="bar" transform="translate(344.50000000000006,310)"><rect x="1" width="2.2500000000000027" height="0"></rect></g><g class="bar" transform="translate(347.75000000000006,310)"><rect x="1" width="2.2500000000000027" height="0"></rect></g><g class="bar" transform="translate(351,310)"><rect x="1" width="2.2500000000000027" height="0"></rect></g><g class="bar" transform="translate(354.25,310)"><rect x="1" width="2.2500000000000027" height="0"></rect></g><g class="bar" transform="translate(357.5,310)"><rect x="1" width="2.2500000000000027" height="0"></rect></g><g class="bar" transform="translate(360.75000000000006,310)"><rect x="1" width="2.2500000000000027" height="0"></rect></g><g class="bar" transform="translate(364.00000000000006,310)"><rect x="1" width="2.2500000000000027" height="0"></rect></g><g class="bar" transform="translate(367.25,310)"><rect x="1" width="2.2500000000000027" height="0"></rect></g><g class="bar" transform="translate(370.5,310)"><rect x="1" width="2.2500000000000027" height="0"></rect></g><g class="bar" transform="translate(373.75,310)"><rect x="1" width="2.2500000000000027" height="0"></rect></g><g class="bar" transform="translate(377.00000000000006,310)"><rect x="1" width="2.2500000000000027" height="0"></rect></g><g class="bar" transform="translate(380.25000000000006,310)"><rect x="1" width="2.2500000000000027" height="0"></rect></g><g class="bar" transform="translate(383.5,310)"><rect x="1" width="2.2500000000000027" height="0"></rect></g><g class="bar" transform="translate(386.75,310)"><rect x="1" width="2.2500000000000027" height="0"></rect></g><g class="bar" transform="translate(390,310)"><rect x="1" width="2.2500000000000027" height="0"></rect></g><g class="bar" transform="translate(393.25000000000006,310)"><rect x="1" width="2.2500000000000027" height="0"></rect></g><g class="bar" transform="translate(396.50000000000006,310)"><rect x="1" width="2.2500000000000027" height="0"></rect></g><g class="bar" transform="translate(399.75,310)"><rect x="1" width="2.2500000000000027" height="0"></rect></g><g class="bar" transform="translate(403,310)"><rect x="1" width="2.2500000000000027" height="0"></rect></g><g class="bar" transform="translate(406.25,310)"><rect x="1" width="2.2500000000000027" height="0"></rect></g><g class="bar" transform="translate(409.50000000000006,310)"><rect x="1" width="2.2500000000000027" height="0"></rect></g><g class="bar" transform="translate(412.75000000000006,310)"><rect x="1" width="2.2500000000000027" height="0"></rect></g><g class="bar" transform="translate(416,310)"><rect x="1" width="2.2500000000000027" height="0"></rect></g><g class="bar" transform="translate(419.25,310)"><rect x="1" width="2.2500000000000027" height="0"></rect></g><g class="bar" transform="translate(422.5,310)"><rect x="1" width="2.2500000000000027" height="0"></rect></g><g class="bar" transform="translate(425.75000000000006,310)"><rect x="1" width="2.2500000000000027" height="0"></rect></g><g class="bar" transform="translate(429.00000000000006,310)"><rect x="1" width="2.2500000000000027" height="0"></rect></g><g class="bar" transform="translate(432.25,310)"><rect x="1" width="2.2500000000000027" height="0"></rect></g><g class="bar" transform="translate(435.5,310)"><rect x="1" width="2.2500000000000027" height="0"></rect></g><g class="bar" transform="translate(438.75,310)"><rect x="1" width="2.2500000000000027" height="0"></rect></g><g class="bar" transform="translate(442.00000000000006,310)"><rect x="1" width="2.2500000000000027" height="0"></rect></g><g class="bar" transform="translate(445.25000000000006,310)"><rect x="1" width="2.2500000000000027" height="0"></rect></g><g class="bar" transform="translate(448.5,310)"><rect x="1" width="2.2500000000000027" height="0"></rect></g><g class="bar" transform="translate(451.75,310)"><rect x="1" width="2.2500000000000027" height="0"></rect></g><g class="bar" transform="translate(455,310)"><rect x="1" width="2.2500000000000027" height="0"></rect></g><g class="bar" transform="translate(458.25000000000006,310)"><rect x="1" width="2.2500000000000027" height="0"></rect></g><g class="bar" transform="translate(461.50000000000006,310)"><rect x="1" width="2.2500000000000027" height="0"></rect></g><g class="bar" transform="translate(464.75,310)"><rect x="1" width="2.2500000000000027" height="0"></rect></g><g class="bar" transform="translate(468,310)"><rect x="1" width="2.2500000000000027" height="0"></rect></g><g class="bar" transform="translate(471.25,310)"><rect x="1" width="2.2500000000000027" height="0"></rect></g><g class="bar" transform="translate(474.50000000000006,310)"><rect x="1" width="2.2500000000000027" height="0"></rect></g><g class="bar" transform="translate(477.75000000000006,310)"><rect x="1" width="2.2500000000000027" height="0"></rect></g><g class="bar" transform="translate(481,310)"><rect x="1" width="2.2500000000000027" height="0"></rect></g><g class="bar" transform="translate(484.25,310)"><rect x="1" width="2.2500000000000027" height="0"></rect></g><g class="bar" transform="translate(487.5,310)"><rect x="1" width="2.2500000000000027" height="0"></rect></g><g class="bar" transform="translate(490.75000000000006,310)"><rect x="1" width="2.2500000000000027" height="0"></rect></g><g class="bar" transform="translate(494.00000000000006,310)"><rect x="1" width="2.2500000000000027" height="0"></rect></g><g class="bar" transform="translate(497.25,310)"><rect x="1" width="2.2500000000000027" height="0"></rect></g><g class="bar" transform="translate(500.5,310)"><rect x="1" width="2.2500000000000027" height="0"></rect></g><g class="bar" transform="translate(503.75,310)"><rect x="1" width="2.2500000000000027" height="0"></rect></g><g class="bar" transform="translate(507.00000000000006,310)"><rect x="1" width="2.2500000000000027" height="0"></rect></g><g class="bar" transform="translate(510.25000000000006,310)"><rect x="1" width="2.2500000000000027" height="0"></rect></g><g class="bar" transform="translate(513.5,310)"><rect x="1" width="2.2500000000000027" height="0"></rect></g><g class="bar" transform="translate(516.75,310)"><rect x="1" width="2.2500000000000027" height="0"></rect></g><g class="axis axis--x" transform="translate(0,310)" fill="none" font-size="10" font-family="sans-serif" text-anchor="middle"><path class="domain" stroke="#000" d="M0.5,6V0.5H520.5V6"></path><g class="tick" opacity="1" transform="translate(0,0)"><line stroke="#000" y2="6" x1="0.5" x2="0.5"></line><text fill="#000" y="9" x="0.5" dy="0.71em">0.01</text></g><g class="tick" opacity="1" transform="translate(130,0)"><line stroke="#000" y2="6" x1="0.5" x2="0.5"></line><text fill="#000" y="9" x="0.5" dy="0.71em">1</text></g><g class="tick" opacity="1" transform="translate(260,0)"><line stroke="#000" y2="6" x1="0.5" x2="0.5"></line><text fill="#000" y="9" x="0.5" dy="0.71em">100</text></g><g class="tick" opacity="1" transform="translate(390,0)"><line stroke="#000" y2="6" x1="0.5" x2="0.5"></line><text fill="#000" y="9" x="0.5" dy="0.71em">10000</text></g><g class="tick" opacity="1" transform="translate(520,0)"><line stroke="#000" y2="6" x1="0.5" x2="0.5"></line><text fill="#000" y="9" x="0.5" dy="0.71em"></text></g></g><g class="axis axis--y" fill="none" font-size="10" font-family="sans-serif" text-anchor="end"><path class="domain" stroke="#000" d="M-6,310.5H0.5V0.5H-6"></path><g class="tick" opacity="1" transform="translate(0,310)"><line stroke="#000" x2="-6" y1="0.5" y2="0.5"></line><text fill="#000" x="-9" y="0.5" dy="0.32em">0</text></g><g class="tick" opacity="1" transform="translate(0,280.8646616541353)"><line stroke="#000" x2="-6" y1="0.5" y2="0.5"></line><text fill="#000" x="-9" y="0.5" dy="0.32em">100</text></g><g class="tick" opacity="1" transform="translate(0,251.7293233082707)"><line stroke="#000" x2="-6" y1="0.5" y2="0.5"></line><text fill="#000" x="-9" y="0.5" dy="0.32em">200</text></g><g class="tick" opacity="1" transform="translate(0,222.593984962406)"><line stroke="#000" x2="-6" y1="0.5" y2="0.5"></line><text fill="#000" x="-9" y="0.5" dy="0.32em">300</text></g><g class="tick" opacity="1" transform="translate(0,193.45864661654136)"><line stroke="#000" x2="-6" y1="0.5" y2="0.5"></line><text fill="#000" x="-9" y="0.5" dy="0.32em">400</text></g><g class="tick" opacity="1" transform="translate(0,164.3233082706767)"><line stroke="#000" x2="-6" y1="0.5" y2="0.5"></line><text fill="#000" x="-9" y="0.5" dy="0.32em">500</text></g><g class="tick" opacity="1" transform="translate(0,135.18796992481202)"><line stroke="#000" x2="-6" y1="0.5" y2="0.5"></line><text fill="#000" x="-9" y="0.5" dy="0.32em">600</text></g><g class="tick" opacity="1" transform="translate(0,106.05263157894734)"><line stroke="#000" x2="-6" y1="0.5" y2="0.5"></line><text fill="#000" x="-9" y="0.5" dy="0.32em">700</text></g><g class="tick" opacity="1" transform="translate(0,76.91729323308272)"><line stroke="#000" x2="-6" y1="0.5" y2="0.5"></line><text fill="#000" x="-9" y="0.5" dy="0.32em">800</text></g><g class="tick" opacity="1" transform="translate(0,47.781954887218035)"><line stroke="#000" x2="-6" y1="0.5" y2="0.5"></line><text fill="#000" x="-9" y="0.5" dy="0.32em">900</text></g><g class="tick" opacity="1" transform="translate(0,18.64661654135341)"><line stroke="#000" x2="-6" y1="0.5" y2="0.5"></line><text fill="#000" x="-9" y="0.5" dy="0.32em">1,000</text></g></g></g></svg>