<svg xmlns="http://www.w3.org/2000/svg" width="280" height="160"><defs><style type="text/css"><![CDATA[ 
.bar rect {
  fill-opacity: 0;
  stroke:       black;
  stroke-width: 0.5;
}

.highlight rect {
  fill:       red;
  fill-opacity: 1;
}
.axis path,
.axis line {
  fill: none;
  stroke: #000;
  shape-rendering: crispEdges;
}
path {
    stroke: red;
    fill: none;
}

line {
    stroke: red;
}

path.marker {
    fill: red;
}
 ]]></style></defs><g transform="translate(50,10)"><g class="bar" transform="translate(0,119.32898415657036)"><rect x="1" width="11.5" height="0.6710158434296432"></rect></g><g class="bar" transform="translate(12.5,116.64492078285181)"><rect x="1" width="11.5" height="3.3550792171481874"></rect></g><g class="bar" transform="translate(25,108.70456663560111)"><rect x="1" width="11.5" height="11.295433364398889"></rect></g><g class="bar" transform="translate(37.5,80.8574091332712)"><rect x="1" width="11.5" height="39.142590866728796"></rect></g><g class="bar" transform="translate(50,39.70177073625349)"><rect x="1" width="11.5" height="80.2982292637465"></rect></g><g class="bar" transform="translate(62.5,11.966449207828518)"><rect x="1" width="11.5" height="108.03355079217148"></rect></g><g class="bar" transform="translate(75,0)"><rect x="1" width="11.5" height="120"></rect></g><g class="bar" transform="translate(87.5,19.34762348555452)"><rect x="1" width="11.5" height="100.65237651444548"></rect></g><g class="bar" transform="translate(100,43.61602982292638)"><rect x="1" width="11.5" height="76.38397017707362"></rect></g><g class="bar" transform="translate(112.5,75.71295433364399)"><rect x="1" width="11.5" height="44.28704566635601"></rect></g><g class="bar" transform="translate(125,98.41565703634669)"><rect x="1" width="11.5" height="21.584342963653313"></rect></g><g class="bar" transform="translate(137.5,115.41472506989749)"><rect x="1" width="11.5" height="4.585274930102514"></rect></g><g class="bar" transform="translate(150,119.66449207828518)"><rect x="1" width="11.5" height="0.3355079217148216"></rect></g><g class="bar" transform="translate(162.5,120)"><rect x="1" width="11.5" height="0"></rect></g><g class="bar" transform="translate(175,120)"><rect x="1" width="11.5" height="0"></rect></g><g class="bar" transform="translate(187.5,120)"><rect x="1" width="11.5" height="0"></rect></g></g></svg>