<svg xmlns="http://www.w3.org/2000/svg" width="600" height="350"><defs><style type="text/css"><![CDATA[ 
.bar rect {
  fill-opacity: 0;
  stroke:       black;
  stroke-width: 0.5;
}

.highlight rect {
  fill:       red;
  fill-opacity: 1;
}
.axis path,
.axis line {
  fill: none;
  stroke: #000;
  shape-rendering: crispEdges;
}
path {
    stroke: red;
    fill: none;
}

line {
    stroke: red;
}

path.marker {
    fill: red;
}
 ]]></style></defs><g transform="translate(50,10)"><g class="bar" transform="translate(0,310)"><rect x="1" width="11.999999999999996" height="0"></rect></g><g class="bar" transform="translate(12.999999999999996,309.2857142857143)"><rect x="1" width="11.999999999999996" height="0.7142857142857224"></rect></g><g class="bar" transform="translate(25.999999999999993,304.2857142857143)"><rect x="1" width="11.999999999999996" height="5.714285714285722"></rect></g><g class="bar" transform="translate(39.00000000000001,304.2857142857143)"><rect x="1" width="11.999999999999996" height="5.714285714285722"></rect></g><g class="bar" transform="translate(52,296.42857142857144)"><rect x="1" width="11.999999999999996" height="13.571428571428555"></rect></g><g class="bar" transform="translate(65,296.42857142857144)"><rect x="1" width="11.999999999999996" height="13.571428571428555"></rect></g><g class="bar" transform="translate(78.00000000000001,278.57142857142856)"><rect x="1" width="11.999999999999996" height="31.428571428571445"></rect></g><g class="bar" transform="translate(91.00000000000001,235.71428571428572)"><rect x="1" width="11.999999999999996" height="74.28571428571428"></rect></g><g class="bar" transform="translate(104,230.71428571428572)"><rect x="1" width="11.999999999999996" height="79.28571428571428"></rect></g><g class="bar" transform="translate(117,186.42857142857144)"><rect x="1" width="11.999999999999996" height="123.57142857142856"></rect></g><g class="bar" transform="translate(130,142.85714285714286)"><rect x="1" width="11.999999999999996" height="167.14285714285714"></rect></g><g class="bar" transform="translate(143,94.28571428571428)"><rect x="1" width="11.999999999999996" height="215.71428571428572"></rect></g><g class="bar" transform="translate(156.00000000000003,40)"><rect x="1" width="11.999999999999996" height="270"></rect></g><g class="bar" transform="translate(169,57.14285714285714)"><rect x="1" width="11.999999999999996" height="252.85714285714286"></rect></g><g class="bar" transform="translate(182.00000000000003,12.85714285714289)"><rect x="1" width="11.999999999999996" height="297.1428571428571"></rect></g><g class="bar" transform="translate(195,0)"><rect x="1" width="11.999999999999996" height="310"></rect></g><g class="bar" transform="translate(208,9.285714285714278)"><rect x="1" width="11.999999999999996" height="300.7142857142857"></rect></g><g class="bar" transform="translate(221.00000000000003,7.857142857142833)"><rect x="1" width="11.999999999999996" height="302.14285714285717"></rect></g><g class="bar" transform="translate(234,43.571428571428555)"><rect x="1" width="11.999999999999996" height="266.42857142857144"></rect></g><g class="bar" transform="translate(247.00000000000003,80)"><rect x="1" width="11.999999999999996" height="230"></rect></g><g class="bar" transform="translate(260,86.42857142857142)"><rect x="1" width="11.999999999999996" height="223.57142857142858"></rect></g><g class="bar" transform="translate(273,123.57142857142858)"><rect x="1" width="11.999999999999996" height="186.42857142857142"></rect></g><g class="bar" transform="translate(286,154.28571428571428)"><rect x="1" width="11.999999999999996" height="155.71428571428572"></rect></g><g class="bar" transform="translate(299.00000000000006,197.14285714285717)"><rect x="1" width="11.999999999999996" height="112.85714285714283"></rect></g><g class="bar" transform="translate(312.00000000000006,217.85714285714286)"><rect x="1" width="11.999999999999996" height="92.14285714285714"></rect></g><g class="bar" transform="translate(325,237.14285714285714)"><rect x="1" width="11.999999999999996" height="72.85714285714286"></rect></g><g class="bar" transform="translate(338,255)"><rect x="1" width="11.999999999999996" height="55"></rect></g><g class="bar" transform="translate(351,290.7142857142857)"><rect x="1" width="11.999999999999996" height="19.285714285714278"></rect></g><g class="bar" transform="translate(364.00000000000006,298.57142857142856)"><rect x="1" width="11.999999999999996" height="11.428571428571445"></rect></g><g class="bar" transform="translate(377.00000000000006,301.42857142857144)"><rect x="1" width="11.999999999999996" height="8.571428571428555"></rect></g><g class="bar" transform="translate(390,307.85714285714283)"><rect x="1" width="11.999999999999996" height="2.142857142857167"></rect></g><g class="bar" transform="translate(403,310)"><rect x="1" width="11.999999999999996" height="0"></rect></g><g class="bar" transform="translate(416,310)"><rect x="1" width="11.999999999999996" height="0"></rect></g><g class="bar" transform="translate(429.00000000000006,310)"><rect x="1" width="11.999999999999996" height="0"></rect></g><g class="bar" transform="translate(442.00000000000006,310)"><rect x="1" width="11.999999999999996" height="0"></rect></g><g class="bar" transform="translate(455,310)"><rect x="1" width="11.999999999999996" height="0"></rect></g><g class="bar" transform="translate(468,310)"><rect x="1" width="11.999999999999996" height="0"></rect></g><g class="bar" transform="translate(481,310)"><rect x="1" width="11.999999999999996" height="0"></rect></g><g class="bar" transform="translate(494.00000000000006,310)"><rect x="1" width="11.999999999999996" height="0"></rect></g><g class="bar" transform="translate(507.00000000000006,310)"><rect x="1" width="11.999999999999996" height="0"></rect></g><g class="axis axis--x" transform="translate(0,310)" fill="none" font-size="10" font-family="sans-serif" text-anchor="middle"><path class="domain" stroke="#000" d="M0.5,6V0.5H520.5V6"></path><g class="tick" opacity="1" transform="translate(0.5,0)"><line stroke="#000" y2="6"></line><text fill="#000" y="9" dy="0.71em">0.01</text></g><g class="tick" opacity="1" transform="translate(130.5,0)"><line stroke="#000" y2="6"></line><text fill="#000" y="9" dy="0.71em">1</text></g><g class="tick" opacity="1" transform="translate(260.5,0)"><line stroke="#000" y2="6"></line><text fill="#000" y="9" dy="0.71em">100</text></g><g class="tick" opacity="1" transform="translate(390.5,0)"><line stroke="#000" y2="6"></line><text fill="#000" y="9" dy="0.71em">10000</text></g><g class="tick" opacity="1" transform="translate(520.5,0)"><line stroke="#000" y2="6"></line><text fill="#000" y="9" dy="0.71em"></text></g></g><g class="axis axis--y" fill="none" font-size="10" font-family="sans-serif" text-anchor="end"><path class="domain" stroke="#000" d="M-6,310.5H0.5V0.5H-6"></path><g class="tick" opacity="1" transform="translate(0,310.5)"><line stroke="#000" x2="-6"></line><text fill="#000" x="-9" dy="0.32em">0</text></g><g class="tick" opacity="1" transform="translate(0,274.7857142857143)"><line stroke="#000" x2="-6"></line><text fill="#000" x="-9" dy="0.32em">50</text></g><g class="tick" opacity="1" transform="translate(0,239.07142857142856)"><line stroke="#000" x2="-6"></line><text fill="#000" x="-9" dy="0.32em">100</text></g><g class="tick" opacity="1" transform="translate(0,203.35714285714286)"><line stroke="#000" x2="-6"></line><text fill="#000" x="-9" dy="0.32em">150</text></g><g class="tick" opacity="1" transform="translate(0,167.64285714285714)"><line stroke="#000" x2="-6"></line><text fill="#000" x="-9" dy="0.32em">200</text></g><g class="tick" opacity="1" transform="translate(0,131.92857142857144)"><line stroke="#000" x2="-6"></line><text fill="#000" x="-9" dy="0.32em">250</text></g><g class="tick" opacity="1" transform="translate(0,96.21428571428572)"><line stroke="#000" x2="-6"></line><text fill="#000" x="-9" dy="0.32em">300</text></g><g class="tick" opacity="1" transform="translate(0,60.50000000000003)"><line stroke="#000" x2="-6"></line><text fill="#000" x="-9" dy="0.32em">350</text></g><g class="tick" opacity="1" transform="translate(0,24.785714285714278)"><line stroke="#000" x2="-6"></line><text fill="#000" x="-9" dy="0.32em">400</text></g></g></g></svg>