<svg xmlns="http://www.w3.org/2000/svg" width="280" height="160"><defs><style type="text/css"><![CDATA[ 
.bar rect {
  fill-opacity: 0;
  stroke:       black;
  stroke-width: 0.5;
}

.highlight rect {
  fill:       red;
  fill-opacity: 1;
}
.axis path,
.axis line {
  fill: none;
  stroke: #000;
  shape-rendering: crispEdges;
}
path {
    stroke: red;
    fill: none;
}

line {
    stroke: red;
}

path.marker {
    fill: red;
}
 ]]></style></defs><g transform="translate(50,10)"><g class="bar" transform="translate(0,100.91954022988506)"><rect x="1" width="11.5" height="19.080459770114942"></rect></g><g class="bar" transform="translate(12.5,108.50574712643677)"><rect x="1" width="11.5" height="11.494252873563227"></rect></g><g class="bar" transform="translate(25,110.11494252873564)"><rect x="1" width="11.5" height="9.88505747126436"></rect></g><g class="bar" transform="translate(37.5,111.49425287356321)"><rect x="1" width="11.5" height="8.505747126436788"></rect></g><g class="bar" transform="translate(50,109.19540229885058)"><rect x="1" width="11.5" height="10.804597701149419"></rect></g><g class="bar" transform="translate(62.5,78.39080459770115)"><rect x="1" width="11.5" height="41.60919540229885"></rect></g><g class="bar" transform="translate(75,11.954022988505741)"><rect x="1" width="11.5" height="108.04597701149426"></rect></g><g class="bar" transform="translate(87.5,0)"><rect x="1" width="11.5" height="120"></rect></g><g class="bar" transform="translate(100,34.02298850574712)"><rect x="1" width="11.5" height="85.97701149425288"></rect></g><g class="bar" transform="translate(112.5,74.71264367816092)"><rect x="1" width="11.5" height="45.287356321839084"></rect></g><g class="bar" transform="translate(125,95.28735632183908)"><rect x="1" width="11.5" height="24.712643678160916"></rect></g><g class="bar" transform="translate(137.5,116.7816091954023)"><rect x="1" width="11.5" height="3.2183908045977034"></rect></g><g class="bar" transform="translate(150,119.65517241379311)"><rect x="1" width="11.5" height="0.3448275862068897"></rect></g><g class="bar" transform="translate(162.5,119.88505747126437)"><rect x="1" width="11.5" height="0.11494252873562516"></rect></g><g class="bar" transform="translate(175,120)"><rect x="1" width="11.5" height="0"></rect></g><g class="bar" transform="translate(187.5,120)"><rect x="1" width="11.5" height="0"></rect></g></g></svg>