<svg xmlns="http://www.w3.org/2000/svg" width="280" height="160"><defs><style type="text/css"><![CDATA[ 
.bar rect {
  fill-opacity: 0;
  stroke:       black;
  stroke-width: 0.5;
}

.highlight rect {
  fill:       red;
  fill-opacity: 1;
}
.axis path,
.axis line {
  fill: none;
  stroke: #000;
  shape-rendering: crispEdges;
}
path {
    stroke: red;
    fill: none;
}

line {
    stroke: red;
}

path.marker {
    fill: red;
}
 ]]></style></defs><g transform="translate(50,10)"><g class="bar" transform="translate(0,119.4005994005994)"><rect x="1" width="11.5" height="0.599400599400596"></rect></g><g class="bar" transform="translate(12.5,112.56743256743256)"><rect x="1" width="11.5" height="7.4325674325674385"></rect></g><g class="bar" transform="translate(25,86.43356643356643)"><rect x="1" width="11.5" height="33.566433566433574"></rect></g><g class="bar" transform="translate(37.5,58.981018981018984)"><rect x="1" width="11.5" height="61.018981018981016"></rect></g><g class="bar" transform="translate(50,24.09590409590409)"><rect x="1" width="11.5" height="95.90409590409591"></rect></g><g class="bar" transform="translate(62.5,0)"><rect x="1" width="11.5" height="120"></rect></g><g class="bar" transform="translate(75,15.704295704295703)"><rect x="1" width="11.5" height="104.2957042957043"></rect></g><g class="bar" transform="translate(87.5,35.96403596403596)"><rect x="1" width="11.5" height="84.03596403596404"></rect></g><g class="bar" transform="translate(100,63.77622377622377)"><rect x="1" width="11.5" height="56.22377622377623"></rect></g><g class="bar" transform="translate(112.5,89.91008991008991)"><rect x="1" width="11.5" height="30.08991008991009"></rect></g><g class="bar" transform="translate(125,106.93306693306693)"><rect x="1" width="11.5" height="13.066933066933075"></rect></g><g class="bar" transform="translate(137.5,115.92407592407592)"><rect x="1" width="11.5" height="4.075924075924078"></rect></g><g class="bar" transform="translate(150,118.92107892107892)"><rect x="1" width="11.5" height="1.0789210789210841"></rect></g><g class="bar" transform="translate(162.5,119.64035964035963)"><rect x="1" width="11.5" height="0.3596403596403661"></rect></g><g class="bar" transform="translate(175,120)"><rect x="1" width="11.5" height="0"></rect></g><g class="bar" transform="translate(187.5,120)"><rect x="1" width="11.5" height="0"></rect></g></g></svg>