<svg xmlns="http://www.w3.org/2000/svg" width="600" height="350"><defs><style type="text/css"><![CDATA[ 
.bar rect {
  fill-opacity: 0;
  stroke:       black;
  stroke-width: 0.5;
}

.highlight rect {
  fill:       red;
  fill-opacity: 1;
}
.axis path,
.axis line {
  fill: none;
  stroke: #000;
  shape-rendering: crispEdges;
}
path {
    stroke: red;
    fill: none;
}

line {
    stroke: red;
}

path.marker {
    fill: red;
}
 ]]></style></defs><g transform="translate(50,10)"><g class="bar" transform="translate(0,308.5202863961814)"><rect x="1" width="11.999999999999996" height="1.4797136038185954"></rect></g><g class="bar" transform="translate(12.999999999999996,309.2601431980907)"><rect x="1" width="11.999999999999996" height="0.7398568019092977"></rect></g><g class="bar" transform="translate(25.999999999999993,307.78042959427205)"><rect x="1" width="11.999999999999996" height="2.21957040572795"></rect></g><g class="bar" transform="translate(39.00000000000001,298.90214797136036)"><rect x="1" width="11.999999999999996" height="11.097852028639636"></rect></g><g class="bar" transform="translate(52,275.96658711217185)"><rect x="1" width="11.999999999999996" height="34.03341288782815"></rect></g><g class="bar" transform="translate(65,239.71360381861575)"><rect x="1" width="11.999999999999996" height="70.28639618138425"></rect></g><g class="bar" transform="translate(78.00000000000001,226.39618138424822)"><rect x="1" width="11.999999999999996" height="83.60381861575178"></rect></g><g class="bar" transform="translate(91.00000000000001,204.9403341288783)"><rect x="1" width="11.999999999999996" height="105.0596658711217"></rect></g><g class="bar" transform="translate(104,160.54892601431982)"><rect x="1" width="11.999999999999996" height="149.45107398568018"></rect></g><g class="bar" transform="translate(117,134.65393794749403)"><rect x="1" width="11.999999999999996" height="175.34606205250597"></rect></g><g class="bar" transform="translate(130,73.98568019093076)"><rect x="1" width="11.999999999999996" height="236.01431980906924"></rect></g><g class="bar" transform="translate(143,75.46539379474939)"><rect x="1" width="11.999999999999996" height="234.5346062052506"></rect></g><g class="bar" transform="translate(156.00000000000003,62.88782816229116)"><rect x="1" width="11.999999999999996" height="247.11217183770884"></rect></g><g class="bar" transform="translate(169,5.178997613365141)"><rect x="1" width="11.999999999999996" height="304.82100238663486"></rect></g><g class="bar" transform="translate(182.00000000000003,0)"><rect x="1" width="11.999999999999996" height="310"></rect></g><g class="bar" transform="translate(195,33.29355608591885)"><rect x="1" width="11.999999999999996" height="276.70644391408115"></rect></g><g class="bar" transform="translate(208,78.42482100238664)"><rect x="1" width="11.999999999999996" height="231.57517899761336"></rect></g><g class="bar" transform="translate(221.00000000000003,54.00954653937947)"><rect x="1" width="11.999999999999996" height="255.99045346062053"></rect></g><g class="bar" transform="translate(234,105.79952267303102)"><rect x="1" width="11.999999999999996" height="204.20047732696898"></rect></g><g class="bar" transform="translate(247.00000000000003,116.15751789976133)"><rect x="1" width="11.999999999999996" height="193.84248210023867"></rect></g><g class="bar" transform="translate(260,157.58949880668257)"><rect x="1" width="11.999999999999996" height="152.41050119331743"></rect></g><g class="bar" transform="translate(273,164.98806682577566)"><rect x="1" width="11.999999999999996" height="145.01193317422434"></rect></g><g class="bar" transform="translate(286,210.11933174224345)"><rect x="1" width="11.999999999999996" height="99.88066825775655"></rect></g><g class="bar" transform="translate(299.00000000000006,232.31503579952266)"><rect x="1" width="11.999999999999996" height="77.68496420047734"></rect></g><g class="bar" transform="translate(312.00000000000006,252.29116945107398)"><rect x="1" width="11.999999999999996" height="57.70883054892602"></rect></g><g class="bar" transform="translate(325,261.16945107398567)"><rect x="1" width="11.999999999999996" height="48.83054892601433"></rect></g><g class="bar" transform="translate(338,283.36515513126494)"><rect x="1" width="11.999999999999996" height="26.63484486873506"></rect></g><g class="bar" transform="translate(351,296.68257756563247)"><rect x="1" width="11.999999999999996" height="13.31742243436753"></rect></g><g class="bar" transform="translate(364.00000000000006,299.6420047732697)"><rect x="1" width="11.999999999999996" height="10.357995226730282"></rect></g><g class="bar" transform="translate(377.00000000000006,303.3412887828162)"><rect x="1" width="11.999999999999996" height="6.658711217183793"></rect></g><g class="bar" transform="translate(390,304.82100238663486)"><rect x="1" width="11.999999999999996" height="5.178997613365141"></rect></g><g class="bar" transform="translate(403,308.5202863961814)"><rect x="1" width="11.999999999999996" height="1.4797136038185954"></rect></g><g class="bar" transform="translate(416,310)"><rect x="1" width="11.999999999999996" height="0"></rect></g><g class="bar" transform="translate(429.00000000000006,310)"><rect x="1" width="11.999999999999996" height="0"></rect></g><g class="bar" transform="translate(442.00000000000006,307.78042959427205)"><rect x="1" width="11.999999999999996" height="2.21957040572795"></rect></g><g class="bar" transform="translate(455,310)"><rect x="1" width="11.999999999999996" height="0"></rect></g><g class="bar" transform="translate(468,310)"><rect x="1" width="11.999999999999996" height="0"></rect></g><g class="bar" transform="translate(481,310)"><rect x="1" width="11.999999999999996" height="0"></rect></g><g class="bar" transform="translate(494.00000000000006,310)"><rect x="1" width="11.999999999999996" height="0"></rect></g><g class="bar" transform="translate(507.00000000000006,310)"><rect x="1" width="11.999999999999996" height="0"></rect></g><g class="axis axis--x" transform="translate(0,310)" fill="none" font-size="10" font-family="sans-serif" text-anchor="middle"><path class="domain" stroke="#000" d="M0.5,6V0.5H520.5V6"></path><g class="tick" opacity="1" transform="translate(0.5,0)"><line stroke="#000" y2="6"></line><text fill="#000" y="9" dy="0.71em">0.01</text></g><g class="tick" opacity="1" transform="translate(130.5,0)"><line stroke="#000" y2="6"></line><text fill="#000" y="9" dy="0.71em">1</text></g><g class="tick" opacity="1" transform="translate(260.5,0)"><line stroke="#000" y2="6"></line><text fill="#000" y="9" dy="0.71em">100</text></g><g class="tick" opacity="1" transform="translate(390.5,0)"><line stroke="#000" y2="6"></line><text fill="#000" y="9" dy="0.71em">10000</text></g><g class="tick" opacity="1" transform="translate(520.5,0)"><line stroke="#000" y2="6"></line><text fill="#000" y="9" dy="0.71em"></text></g></g><g class="axis axis--y" fill="none" font-size="10" font-family="sans-serif" text-anchor="end"><path class="domain" stroke="#000" d="M-6,310.5H0.5V0.5H-6"></path><g class="tick" opacity="1" transform="translate(0,310.5)"><line stroke="#000" x2="-6"></line><text fill="#000" x="-9" dy="0.32em">0</text></g><g class="tick" opacity="1" transform="translate(0,273.5071599045346)"><line stroke="#000" x2="-6"></line><text fill="#000" x="-9" dy="0.32em">50</text></g><g class="tick" opacity="1" transform="translate(0,236.5143198090692)"><line stroke="#000" x2="-6"></line><text fill="#000" x="-9" dy="0.32em">100</text></g><g class="tick" opacity="1" transform="translate(0,199.5214797136038)"><line stroke="#000" x2="-6"></line><text fill="#000" x="-9" dy="0.32em">150</text></g><g class="tick" opacity="1" transform="translate(0,162.52863961813844)"><line stroke="#000" x2="-6"></line><text fill="#000" x="-9" dy="0.32em">200</text></g><g class="tick" opacity="1" transform="translate(0,125.53579952267305)"><line stroke="#000" x2="-6"></line><text fill="#000" x="-9" dy="0.32em">250</text></g><g class="tick" opacity="1" transform="translate(0,88.54295942720765)"><line stroke="#000" x2="-6"></line><text fill="#000" x="-9" dy="0.32em">300</text></g><g class="tick" opacity="1" transform="translate(0,51.55011933174222)"><line stroke="#000" x2="-6"></line><text fill="#000" x="-9" dy="0.32em">350</text></g><g class="tick" opacity="1" transform="translate(0,14.557279236276884)"><line stroke="#000" x2="-6"></line><text fill="#000" x="-9" dy="0.32em">400</text></g></g></g></svg>