<svg xmlns="http://www.w3.org/2000/svg" width="600" height="350"><defs><style type="text/css"><![CDATA[ 
.bar rect {
  fill-opacity: 0;
  stroke:       black;
  stroke-width: 0.5;
}

.highlight rect {
  fill:       red;
  fill-opacity: 1;
}
.axis path,
.axis line {
  fill: none;
  stroke: #000;
  shape-rendering: crispEdges;
}
 ]]></style></defs><g transform="translate(50,10)"><g class="bar" transform="translate(0,310)"><rect x="1" width="11.999999999999996" height="0"></rect></g><g class="bar" transform="translate(12.999999999999996,310)"><rect x="1" width="11.999999999999996" height="0"></rect></g><g class="bar" transform="translate(25.999999999999993,302.35915492957747)"><rect x="1" width="11.999999999999996" height="7.640845070422529"></rect></g><g class="bar" transform="translate(39.00000000000001,292.53521126760563)"><rect x="1" width="11.999999999999996" height="17.464788732394368"></rect></g><g class="bar" transform="translate(52,281.61971830985914)"><rect x="1" width="11.999999999999996" height="28.380281690140862"></rect></g><g class="bar" transform="translate(65,259.7887323943662)"><rect x="1" width="11.999999999999996" height="50.21126760563379"></rect></g><g class="bar" transform="translate(78.00000000000001,224.85915492957747)"><rect x="1" width="11.999999999999996" height="85.14084507042253"></rect></g><g class="bar" transform="translate(91.00000000000001,155)"><rect x="1" width="11.999999999999996" height="155"></rect></g><g class="bar" transform="translate(104,102.6056338028169)"><rect x="1" width="11.999999999999996" height="207.3943661971831"></rect></g><g class="bar" transform="translate(117,65.49295774647888)"><rect x="1" width="11.999999999999996" height="244.50704225352112"></rect></g><g class="bar" transform="translate(130,55.66901408450704)"><rect x="1" width="11.999999999999996" height="254.33098591549296"></rect></g><g class="bar" transform="translate(143,22.922535211267586)"><rect x="1" width="11.999999999999996" height="287.0774647887324"></rect></g><g class="bar" transform="translate(156.00000000000003,12.007042253521092)"><rect x="1" width="11.999999999999996" height="297.9929577464789"></rect></g><g class="bar" transform="translate(169,36.02112676056339)"><rect x="1" width="11.999999999999996" height="273.9788732394366"></rect></g><g class="bar" transform="translate(182.00000000000003,27.288732394366207)"><rect x="1" width="11.999999999999996" height="282.7112676056338"></rect></g><g class="bar" transform="translate(195,17.464788732394368)"><rect x="1" width="11.999999999999996" height="292.53521126760563"></rect></g><g class="bar" transform="translate(208,21.830985915492988)"><rect x="1" width="11.999999999999996" height="288.169014084507"></rect></g><g class="bar" transform="translate(221.00000000000003,0)"><rect x="1" width="11.999999999999996" height="310"></rect></g><g class="bar" transform="translate(234,52.3943661971831)"><rect x="1" width="11.999999999999996" height="257.6056338028169"></rect></g><g class="bar" transform="translate(247.00000000000003,20.739436619718333)"><rect x="1" width="11.999999999999996" height="289.26056338028167"></rect></g><g class="bar" transform="translate(260,62.218309859154914)"><rect x="1" width="11.999999999999996" height="247.7816901408451"></rect></g><g class="bar" transform="translate(273,100.42253521126761)"><rect x="1" width="11.999999999999996" height="209.57746478873239"></rect></g><g class="bar" transform="translate(286,138.62676056338026)"><rect x="1" width="11.999999999999996" height="171.37323943661974"></rect></g><g class="bar" transform="translate(299.00000000000006,168.09859154929578)"><rect x="1" width="11.999999999999996" height="141.90140845070422"></rect></g><g class="bar" transform="translate(312.00000000000006,199.75352112676057)"><rect x="1" width="11.999999999999996" height="110.24647887323943"></rect></g><g class="bar" transform="translate(325,223.76760563380282)"><rect x="1" width="11.999999999999996" height="86.23239436619718"></rect></g><g class="bar" transform="translate(338,260.88028169014086)"><rect x="1" width="11.999999999999996" height="49.11971830985914"></rect></g><g class="bar" transform="translate(351,270.7042253521127)"><rect x="1" width="11.999999999999996" height="39.2957746478873"></rect></g><g class="bar" transform="translate(364.00000000000006,289.26056338028167)"><rect x="1" width="11.999999999999996" height="20.739436619718333"></rect></g><g class="bar" transform="translate(377.00000000000006,293.6267605633803)"><rect x="1" width="11.999999999999996" height="16.373239436619713"></rect></g><g class="bar" transform="translate(390,304.5422535211268)"><rect x="1" width="11.999999999999996" height="5.457746478873219"></rect></g><g class="bar" transform="translate(403,306.72535211267603)"><rect x="1" width="11.999999999999996" height="3.2746478873239653"></rect></g><g class="bar" transform="translate(416,310)"><rect x="1" width="11.999999999999996" height="0"></rect></g><g class="bar" transform="translate(429.00000000000006,308.90845070422534)"><rect x="1" width="11.999999999999996" height="1.091549295774655"></rect></g><g class="bar" transform="translate(442.00000000000006,310)"><rect x="1" width="11.999999999999996" height="0"></rect></g><g class="bar" transform="translate(455,310)"><rect x="1" width="11.999999999999996" height="0"></rect></g><g class="bar" transform="translate(468,310)"><rect x="1" width="11.999999999999996" height="0"></rect></g><g class="bar" transform="translate(481,310)"><rect x="1" width="11.999999999999996" height="0"></rect></g><g class="bar" transform="translate(494.00000000000006,310)"><rect x="1" width="11.999999999999996" height="0"></rect></g><g class="bar" transform="translate(507.00000000000006,310)"><rect x="1" width="11.999999999999996" height="0"></rect></g><g class="axis axis--x" transform="translate(0,310)" fill="none" font-size="10" font-family="sans-serif" text-anchor="middle"><path class="domain" stroke="#000" d="M0.5,6V0.5H520.5V6"></path><g class="tick" opacity="1" transform="translate(0,0)"><line stroke="#000" y2="6" x1="0.5" x2="0.5"></line><text fill="#000" y="9" x="0.5" dy="0.71em">0.01</text></g><g class="tick" opacity="1" transform="translate(130,0)"><line stroke="#000" y2="6" x1="0.5" x2="0.5"></line><text fill="#000" y="9" x="0.5" dy="0.71em">1</text></g><g class="tick" opacity="1" transform="translate(260,0)"><line stroke="#000" y2="6" x1="0.5" x2="0.5"></line><text fill="#000" y="9" x="0.5" dy="0.71em">100</text></g><g class="tick" opacity="1" transform="translate(390,0)"><line stroke="#000" y2="6" x1="0.5" x2="0.5"></line><text fill="#000" y="9" x="0.5" dy="0.71em">10000</text></g><g class="tick" opacity="1" transform="translate(520,0)"><line stroke="#000" y2="6" x1="0.5" x2="0.5"></line><text fill="#000" y="9" x="0.5" dy="0.71em"></text></g></g><g class="axis axis--y" fill="none" font-size="10" font-family="sans-serif" text-anchor="end"><path class="domain" stroke="#000" d="M-6,310.5H0.5V0.5H-6"></path><g class="tick" opacity="1" transform="translate(0,310)"><line stroke="#000" x2="-6" y1="0.5" y2="0.5"></line><text fill="#000" x="-9" y="0.5" dy="0.32em">0</text></g><g class="tick" opacity="1" transform="translate(0,288.169014084507)"><line stroke="#000" x2="-6" y1="0.5" y2="0.5"></line><text fill="#000" x="-9" y="0.5" dy="0.32em">20</text></g><g class="tick" opacity="1" transform="translate(0,266.3380281690141)"><line stroke="#000" x2="-6" y1="0.5" y2="0.5"></line><text fill="#000" x="-9" y="0.5" dy="0.32em">40</text></g><g class="tick" opacity="1" transform="translate(0,244.50704225352115)"><line stroke="#000" x2="-6" y1="0.5" y2="0.5"></line><text fill="#000" x="-9" y="0.5" dy="0.32em">60</text></g><g class="tick" opacity="1" transform="translate(0,222.67605633802816)"><line stroke="#000" x2="-6" y1="0.5" y2="0.5"></line><text fill="#000" x="-9" y="0.5" dy="0.32em">80</text></g><g class="tick" opacity="1" transform="translate(0,200.84507042253523)"><line stroke="#000" x2="-6" y1="0.5" y2="0.5"></line><text fill="#000" x="-9" y="0.5" dy="0.32em">100</text></g><g class="tick" opacity="1" transform="translate(0,179.01408450704227)"><line stroke="#000" x2="-6" y1="0.5" y2="0.5"></line><text fill="#000" x="-9" y="0.5" dy="0.32em">120</text></g><g class="tick" opacity="1" transform="translate(0,157.18309859154928)"><line stroke="#000" x2="-6" y1="0.5" y2="0.5"></line><text fill="#000" x="-9" y="0.5" dy="0.32em">140</text></g><g class="tick" opacity="1" transform="translate(0,135.35211267605632)"><line stroke="#000" x2="-6" y1="0.5" y2="0.5"></line><text fill="#000" x="-9" y="0.5" dy="0.32em">160</text></g><g class="tick" opacity="1" transform="translate(0,113.52112676056336)"><line stroke="#000" x2="-6" y1="0.5" y2="0.5"></line><text fill="#000" x="-9" y="0.5" dy="0.32em">180</text></g><g class="tick" opacity="1" transform="translate(0,91.69014084507043)"><line stroke="#000" x2="-6" y1="0.5" y2="0.5"></line><text fill="#000" x="-9" y="0.5" dy="0.32em">200</text></g><g class="tick" opacity="1" transform="translate(0,69.85915492957747)"><line stroke="#000" x2="-6" y1="0.5" y2="0.5"></line><text fill="#000" x="-9" y="0.5" dy="0.32em">220</text></g><g class="tick" opacity="1" transform="translate(0,48.02816901408454)"><line stroke="#000" x2="-6" y1="0.5" y2="0.5"></line><text fill="#000" x="-9" y="0.5" dy="0.32em">240</text></g><g class="tick" opacity="1" transform="translate(0,26.19718309859155)"><line stroke="#000" x2="-6" y1="0.5" y2="0.5"></line><text fill="#000" x="-9" y="0.5" dy="0.32em">260</text></g><g class="tick" opacity="1" transform="translate(0,4.3661971830985635)"><line stroke="#000" x2="-6" y1="0.5" y2="0.5"></line><text fill="#000" x="-9" y="0.5" dy="0.32em">280</text></g></g></g></svg>