<svg xmlns="http://www.w3.org/2000/svg" width="600" height="350"><defs><style type="text/css"><![CDATA[ 
.bar rect {
  fill-opacity: 0;
  stroke:       black;
  stroke-width: 0.5;
}

.highlight rect {
  fill:       red;
  fill-opacity: 1;
}
.axis path,
.axis line {
  fill: none;
  stroke: #000;
  shape-rendering: crispEdges;
}
 ]]></style></defs><g transform="translate(50,10)"><g class="bar" transform="translate(0,235.72916666666666)"><rect x="1" width="11.999999999999996" height="74.27083333333334"></rect></g><g class="bar" transform="translate(12.999999999999996,235.72916666666666)"><rect x="1" width="11.999999999999996" height="74.27083333333334"></rect></g><g class="bar" transform="translate(25.999999999999993,230.88541666666669)"><rect x="1" width="11.999999999999996" height="79.11458333333331"></rect></g><g class="bar" transform="translate(39.00000000000001,202.89930555555554)"><rect x="1" width="11.999999999999996" height="107.10069444444446"></rect></g><g class="bar" transform="translate(52,186.75347222222223)"><rect x="1" width="11.999999999999996" height="123.24652777777777"></rect></g><g class="bar" transform="translate(65,149.61805555555554)"><rect x="1" width="11.999999999999996" height="160.38194444444446"></rect></g><g class="bar" transform="translate(78.00000000000001,114.63541666666666)"><rect x="1" width="11.999999999999996" height="195.36458333333334"></rect></g><g class="bar" transform="translate(91.00000000000001,83.95833333333334)"><rect x="1" width="11.999999999999996" height="226.04166666666666"></rect></g><g class="bar" transform="translate(104,52.74305555555554)"><rect x="1" width="11.999999999999996" height="257.25694444444446"></rect></g><g class="bar" transform="translate(117,18.298611111111143)"><rect x="1" width="11.999999999999996" height="291.70138888888886"></rect></g><g class="bar" transform="translate(130,17.22222222222223)"><rect x="1" width="11.999999999999996" height="292.77777777777777"></rect></g><g class="bar" transform="translate(143,0)"><rect x="1" width="11.999999999999996" height="310"></rect></g><g class="bar" transform="translate(156.00000000000003,7.5347222222222285)"><rect x="1" width="11.999999999999996" height="302.46527777777777"></rect></g><g class="bar" transform="translate(169,29.600694444444457)"><rect x="1" width="11.999999999999996" height="280.39930555555554"></rect></g><g class="bar" transform="translate(182.00000000000003,41.97916666666663)"><rect x="1" width="11.999999999999996" height="268.02083333333337"></rect></g><g class="bar" transform="translate(195,80.19097222222223)"><rect x="1" width="11.999999999999996" height="229.80902777777777"></rect></g><g class="bar" transform="translate(208,77.5)"><rect x="1" width="11.999999999999996" height="232.5"></rect></g><g class="bar" transform="translate(221.00000000000003,121.63194444444446)"><rect x="1" width="11.999999999999996" height="188.36805555555554"></rect></g><g class="bar" transform="translate(234,137.77777777777777)"><rect x="1" width="11.999999999999996" height="172.22222222222223"></rect></g><g class="bar" transform="translate(247.00000000000003,141.00694444444446)"><rect x="1" width="11.999999999999996" height="168.99305555555554"></rect></g><g class="bar" transform="translate(260,169.53125)"><rect x="1" width="11.999999999999996" height="140.46875"></rect></g><g class="bar" transform="translate(273,197.51736111111111)"><rect x="1" width="11.999999999999996" height="112.48263888888889"></rect></g><g class="bar" transform="translate(286,201.82291666666669)"><rect x="1" width="11.999999999999996" height="108.17708333333331"></rect></g><g class="bar" transform="translate(299.00000000000006,233.03819444444446)"><rect x="1" width="11.999999999999996" height="76.96180555555554"></rect></g><g class="bar" transform="translate(312.00000000000006,258.87152777777777)"><rect x="1" width="11.999999999999996" height="51.12847222222223"></rect></g><g class="bar" transform="translate(325,269.6354166666667)"><rect x="1" width="11.999999999999996" height="40.364583333333314"></rect></g><g class="bar" transform="translate(338,290.08680555555554)"><rect x="1" width="11.999999999999996" height="19.913194444444457"></rect></g><g class="bar" transform="translate(351,293.31597222222223)"><rect x="1" width="11.999999999999996" height="16.68402777777777"></rect></g><g class="bar" transform="translate(364.00000000000006,299.77430555555554)"><rect x="1" width="11.999999999999996" height="10.225694444444457"></rect></g><g class="bar" transform="translate(377.00000000000006,303.5416666666667)"><rect x="1" width="11.999999999999996" height="6.458333333333314"></rect></g><g class="bar" transform="translate(390,306.7708333333333)"><rect x="1" width="11.999999999999996" height="3.2291666666666856"></rect></g><g class="bar" transform="translate(403,306.7708333333333)"><rect x="1" width="11.999999999999996" height="3.2291666666666856"></rect></g><g class="bar" transform="translate(416,310)"><rect x="1" width="11.999999999999996" height="0"></rect></g><g class="bar" transform="translate(429.00000000000006,310)"><rect x="1" width="11.999999999999996" height="0"></rect></g><g class="bar" transform="translate(442.00000000000006,310)"><rect x="1" width="11.999999999999996" height="0"></rect></g><g class="bar" transform="translate(455,310)"><rect x="1" width="11.999999999999996" height="0"></rect></g><g class="bar" transform="translate(468,310)"><rect x="1" width="11.999999999999996" height="0"></rect></g><g class="bar" transform="translate(481,310)"><rect x="1" width="11.999999999999996" height="0"></rect></g><g class="bar" transform="translate(494.00000000000006,310)"><rect x="1" width="11.999999999999996" height="0"></rect></g><g class="bar" transform="translate(507.00000000000006,310)"><rect x="1" width="11.999999999999996" height="0"></rect></g><g class="axis axis--x" transform="translate(0,310)" fill="none" font-size="10" font-family="sans-serif" text-anchor="middle"><path class="domain" stroke="#000" d="M0.5,6V0.5H520.5V6"></path><g class="tick" opacity="1" transform="translate(0,0)"><line stroke="#000" y2="6" x1="0.5" x2="0.5"></line><text fill="#000" y="9" x="0.5" dy="0.71em">0.01</text></g><g class="tick" opacity="1" transform="translate(130,0)"><line stroke="#000" y2="6" x1="0.5" x2="0.5"></line><text fill="#000" y="9" x="0.5" dy="0.71em">1</text></g><g class="tick" opacity="1" transform="translate(260,0)"><line stroke="#000" y2="6" x1="0.5" x2="0.5"></line><text fill="#000" y="9" x="0.5" dy="0.71em">100</text></g><g class="tick" opacity="1" transform="translate(390,0)"><line stroke="#000" y2="6" x1="0.5" x2="0.5"></line><text fill="#000" y="9" x="0.5" dy="0.71em">10000</text></g><g class="tick" opacity="1" transform="translate(520,0)"><line stroke="#000" y2="6" x1="0.5" x2="0.5"></line><text fill="#000" y="9" x="0.5" dy="0.71em"></text></g></g><g class="axis axis--y" fill="none" font-size="10" font-family="sans-serif" text-anchor="end"><path class="domain" stroke="#000" d="M-6,310.5H0.5V0.5H-6"></path><g class="tick" opacity="1" transform="translate(0,310)"><line stroke="#000" x2="-6" y1="0.5" y2="0.5"></line><text fill="#000" x="-9" y="0.5" dy="0.32em">0</text></g><g class="tick" opacity="1" transform="translate(0,283.09027777777777)"><line stroke="#000" x2="-6" y1="0.5" y2="0.5"></line><text fill="#000" x="-9" y="0.5" dy="0.32em">50</text></g><g class="tick" opacity="1" transform="translate(0,256.18055555555554)"><line stroke="#000" x2="-6" y1="0.5" y2="0.5"></line><text fill="#000" x="-9" y="0.5" dy="0.32em">100</text></g><g class="tick" opacity="1" transform="translate(0,229.27083333333331)"><line stroke="#000" x2="-6" y1="0.5" y2="0.5"></line><text fill="#000" x="-9" y="0.5" dy="0.32em">150</text></g><g class="tick" opacity="1" transform="translate(0,202.36111111111111)"><line stroke="#000" x2="-6" y1="0.5" y2="0.5"></line><text fill="#000" x="-9" y="0.5" dy="0.32em">200</text></g><g class="tick" opacity="1" transform="translate(0,175.45138888888889)"><line stroke="#000" x2="-6" y1="0.5" y2="0.5"></line><text fill="#000" x="-9" y="0.5" dy="0.32em">250</text></g><g class="tick" opacity="1" transform="translate(0,148.54166666666666)"><line stroke="#000" x2="-6" y1="0.5" y2="0.5"></line><text fill="#000" x="-9" y="0.5" dy="0.32em">300</text></g><g class="tick" opacity="1" transform="translate(0,121.63194444444446)"><line stroke="#000" x2="-6" y1="0.5" y2="0.5"></line><text fill="#000" x="-9" y="0.5" dy="0.32em">350</text></g><g class="tick" opacity="1" transform="translate(0,94.72222222222223)"><line stroke="#000" x2="-6" y1="0.5" y2="0.5"></line><text fill="#000" x="-9" y="0.5" dy="0.32em">400</text></g><g class="tick" opacity="1" transform="translate(0,67.8125)"><line stroke="#000" x2="-6" y1="0.5" y2="0.5"></line><text fill="#000" x="-9" y="0.5" dy="0.32em">450</text></g><g class="tick" opacity="1" transform="translate(0,40.90277777777777)"><line stroke="#000" x2="-6" y1="0.5" y2="0.5"></line><text fill="#000" x="-9" y="0.5" dy="0.32em">500</text></g><g class="tick" opacity="1" transform="translate(0,13.993055555555543)"><line stroke="#000" x2="-6" y1="0.5" y2="0.5"></line><text fill="#000" x="-9" y="0.5" dy="0.32em">550</text></g></g></g></svg>