<svg xmlns="http://www.w3.org/2000/svg" width="600" height="350"><defs><style type="text/css"><![CDATA[ 
.bar rect {
  fill-opacity: 0;
  stroke:       black;
  stroke-width: 0.5;
}

.highlight rect {
  fill:       red;
  fill-opacity: 1;
}
.axis path,
.axis line {
  fill: none;
  stroke: #000;
  shape-rendering: crispEdges;
}
path {
    stroke: red;
    fill: none;
}

line {
    stroke: red;
}

path.marker {
    fill: red;
}
 ]]></style></defs><g transform="translate(50,10)"><g class="bar" transform="translate(0,278.7155963302752)"><rect x="1" width="11.999999999999996" height="31.28440366972478"></rect></g><g class="bar" transform="translate(12.999999999999996,212.16513761467888)"><rect x="1" width="11.999999999999996" height="97.83486238532112"></rect></g><g class="bar" transform="translate(25.999999999999993,141.63302752293578)"><rect x="1" width="11.999999999999996" height="168.36697247706422"></rect></g><g class="bar" transform="translate(39.00000000000001,65.41284403669724)"><rect x="1" width="11.999999999999996" height="244.58715596330276"></rect></g><g class="bar" transform="translate(52,81.90825688073394)"><rect x="1" width="11.999999999999996" height="228.09174311926606"></rect></g><g class="bar" transform="translate(65,75.08256880733944)"><rect x="1" width="11.999999999999996" height="234.91743119266056"></rect></g><g class="bar" transform="translate(78.00000000000001,66.5504587155963)"><rect x="1" width="11.999999999999996" height="243.4495412844037"></rect></g><g class="bar" transform="translate(91.00000000000001,84.75229357798165)"><rect x="1" width="11.999999999999996" height="225.24770642201835"></rect></g><g class="bar" transform="translate(104,104.09174311926606)"><rect x="1" width="11.999999999999996" height="205.90825688073394"></rect></g><g class="bar" transform="translate(117,102.38532110091742)"><rect x="1" width="11.999999999999996" height="207.61467889908258"></rect></g><g class="bar" transform="translate(130,118.88073394495413)"><rect x="1" width="11.999999999999996" height="191.11926605504587"></rect></g><g class="bar" transform="translate(143,126.8440366972477)"><rect x="1" width="11.999999999999996" height="183.1559633027523"></rect></g><g class="bar" transform="translate(156.00000000000003,65.41284403669724)"><rect x="1" width="11.999999999999996" height="244.58715596330276"></rect></g><g class="bar" transform="translate(169,33.55963302752292)"><rect x="1" width="11.999999999999996" height="276.4403669724771"></rect></g><g class="bar" transform="translate(182.00000000000003,0)"><rect x="1" width="11.999999999999996" height="310"></rect></g><g class="bar" transform="translate(195,46.073394495412856)"><rect x="1" width="11.999999999999996" height="263.92660550458714"></rect></g><g class="bar" transform="translate(208,69.96330275229357)"><rect x="1" width="11.999999999999996" height="240.03669724770643"></rect></g><g class="bar" transform="translate(221.00000000000003,69.96330275229357)"><rect x="1" width="11.999999999999996" height="240.03669724770643"></rect></g><g class="bar" transform="translate(234,85.32110091743121)"><rect x="1" width="11.999999999999996" height="224.6788990825688"></rect></g><g class="bar" transform="translate(247.00000000000003,120.0183486238532)"><rect x="1" width="11.999999999999996" height="189.9816513761468"></rect></g><g class="bar" transform="translate(260,121.15596330275227)"><rect x="1" width="11.999999999999996" height="188.84403669724773"></rect></g><g class="bar" transform="translate(273,168.36697247706422)"><rect x="1" width="11.999999999999996" height="141.63302752293578"></rect></g><g class="bar" transform="translate(286,182.0183486238532)"><rect x="1" width="11.999999999999996" height="127.9816513761468"></rect></g><g class="bar" transform="translate(299.00000000000006,234.91743119266056)"><rect x="1" width="11.999999999999996" height="75.08256880733944"></rect></g><g class="bar" transform="translate(312.00000000000006,246.86238532110093)"><rect x="1" width="11.999999999999996" height="63.13761467889907"></rect></g><g class="bar" transform="translate(325,272.45871559633025)"><rect x="1" width="11.999999999999996" height="37.54128440366975"></rect></g><g class="bar" transform="translate(338,283.8348623853211)"><rect x="1" width="11.999999999999996" height="26.165137614678883"></rect></g><g class="bar" transform="translate(351,288.38532110091745)"><rect x="1" width="11.999999999999996" height="21.61467889908255"></rect></g><g class="bar" transform="translate(364.00000000000006,300.89908256880733)"><rect x="1" width="11.999999999999996" height="9.10091743119267"></rect></g><g class="bar" transform="translate(377.00000000000006,306.58715596330273)"><rect x="1" width="11.999999999999996" height="3.4128440366972654"></rect></g><g class="bar" transform="translate(390,307.1559633027523)"><rect x="1" width="11.999999999999996" height="2.8440366972477023"></rect></g><g class="bar" transform="translate(403,308.86238532110093)"><rect x="1" width="11.999999999999996" height="1.1376146788990695"></rect></g><g class="bar" transform="translate(416,310)"><rect x="1" width="11.999999999999996" height="0"></rect></g><g class="bar" transform="translate(429.00000000000006,310)"><rect x="1" width="11.999999999999996" height="0"></rect></g><g class="bar" transform="translate(442.00000000000006,309.43119266055044)"><rect x="1" width="11.999999999999996" height="0.5688073394495632"></rect></g><g class="bar" transform="translate(455,310)"><rect x="1" width="11.999999999999996" height="0"></rect></g><g class="bar" transform="translate(468,310)"><rect x="1" width="11.999999999999996" height="0"></rect></g><g class="bar" transform="translate(481,310)"><rect x="1" width="11.999999999999996" height="0"></rect></g><g class="bar" transform="translate(494.00000000000006,310)"><rect x="1" width="11.999999999999996" height="0"></rect></g><g class="bar" transform="translate(507.00000000000006,310)"><rect x="1" width="11.999999999999996" height="0"></rect></g><g class="axis axis--x" transform="translate(0,310)" fill="none" font-size="10" font-family="sans-serif" text-anchor="middle"><path class="domain" stroke="#000" d="M0.5,6V0.5H520.5V6"></path><g class="tick" opacity="1" transform="translate(0.5,0)"><line stroke="#000" y2="6"></line><text fill="#000" y="9" dy="0.71em">0.01</text></g><g class="tick" opacity="1" transform="translate(130.5,0)"><line stroke="#000" y2="6"></line><text fill="#000" y="9" dy="0.71em">1</text></g><g class="tick" opacity="1" transform="translate(260.5,0)"><line stroke="#000" y2="6"></line><text fill="#000" y="9" dy="0.71em">100</text></g><g class="tick" opacity="1" transform="translate(390.5,0)"><line stroke="#000" y2="6"></line><text fill="#000" y="9" dy="0.71em">10000</text></g><g class="tick" opacity="1" transform="translate(520.5,0)"><line stroke="#000" y2="6"></line><text fill="#000" y="9" dy="0.71em"></text></g></g><g class="axis axis--y" fill="none" font-size="10" font-family="sans-serif" text-anchor="end"><path class="domain" stroke="#000" d="M-6,310.5H0.5V0.5H-6"></path><g class="tick" opacity="1" transform="translate(0,310.5)"><line stroke="#000" x2="-6"></line><text fill="#000" x="-9" dy="0.32em">0</text></g><g class="tick" opacity="1" transform="translate(0,282.0596330275229)"><line stroke="#000" x2="-6"></line><text fill="#000" x="-9" dy="0.32em">50</text></g><g class="tick" opacity="1" transform="translate(0,253.61926605504587)"><line stroke="#000" x2="-6"></line><text fill="#000" x="-9" dy="0.32em">100</text></g><g class="tick" opacity="1" transform="translate(0,225.17889908256882)"><line stroke="#000" x2="-6"></line><text fill="#000" x="-9" dy="0.32em">150</text></g><g class="tick" opacity="1" transform="translate(0,196.73853211009174)"><line stroke="#000" x2="-6"></line><text fill="#000" x="-9" dy="0.32em">200</text></g><g class="tick" opacity="1" transform="translate(0,168.29816513761466)"><line stroke="#000" x2="-6"></line><text fill="#000" x="-9" dy="0.32em">250</text></g><g class="tick" opacity="1" transform="translate(0,139.8577981651376)"><line stroke="#000" x2="-6"></line><text fill="#000" x="-9" dy="0.32em">300</text></g><g class="tick" opacity="1" transform="translate(0,111.41743119266053)"><line stroke="#000" x2="-6"></line><text fill="#000" x="-9" dy="0.32em">350</text></g><g class="tick" opacity="1" transform="translate(0,82.97706422018348)"><line stroke="#000" x2="-6"></line><text fill="#000" x="-9" dy="0.32em">400</text></g><g class="tick" opacity="1" transform="translate(0,54.5366972477064)"><line stroke="#000" x2="-6"></line><text fill="#000" x="-9" dy="0.32em">450</text></g><g class="tick" opacity="1" transform="translate(0,26.09633027522932)"><line stroke="#000" x2="-6"></line><text fill="#000" x="-9" dy="0.32em">500</text></g></g></g></svg>