<svg xmlns="http://www.w3.org/2000/svg" width="600" height="350"><defs><style type="text/css"><![CDATA[ 
.bar rect {
  fill-opacity: 0;
  stroke:       black;
  stroke-width: 0.5;
}

.highlight rect {
  fill:       red;
  fill-opacity: 1;
}
.axis path,
.axis line {
  fill: none;
  stroke: #000;
  shape-rendering: crispEdges;
}
 ]]></style></defs><g transform="translate(50,10)"><g class="bar" transform="translate(0,310)"><rect x="1" width="11.999999999999996" height="0"></rect></g><g class="bar" transform="translate(12.999999999999996,310)"><rect x="1" width="11.999999999999996" height="0"></rect></g><g class="bar" transform="translate(25.999999999999993,310)"><rect x="1" width="11.999999999999996" height="0"></rect></g><g class="bar" transform="translate(39.00000000000001,310)"><rect x="1" width="11.999999999999996" height="0"></rect></g><g class="bar" transform="translate(52,310)"><rect x="1" width="11.999999999999996" height="0"></rect></g><g class="bar" transform="translate(65,307.1559633027523)"><rect x="1" width="11.999999999999996" height="2.8440366972477023"></rect></g><g class="bar" transform="translate(78.00000000000001,310)"><rect x="1" width="11.999999999999996" height="0"></rect></g><g class="bar" transform="translate(91.00000000000001,308.57798165137615)"><rect x="1" width="11.999999999999996" height="1.4220183486238511"></rect></g><g class="bar" transform="translate(104,301.4678899082569)"><rect x="1" width="11.999999999999996" height="8.532110091743107"></rect></g><g class="bar" transform="translate(117,294.35779816513764)"><rect x="1" width="11.999999999999996" height="15.642201834862362"></rect></g><g class="bar" transform="translate(130,291.51376146788994)"><rect x="1" width="11.999999999999996" height="18.486238532110065"></rect></g><g class="bar" transform="translate(143,258.8073394495413)"><rect x="1" width="11.999999999999996" height="51.1926605504587"></rect></g><g class="bar" transform="translate(156.00000000000003,200.5045871559633)"><rect x="1" width="11.999999999999996" height="109.49541284403671"></rect></g><g class="bar" transform="translate(169,177.75229357798165)"><rect x="1" width="11.999999999999996" height="132.24770642201835"></rect></g><g class="bar" transform="translate(182.00000000000003,108.07339449541286)"><rect x="1" width="11.999999999999996" height="201.92660550458714"></rect></g><g class="bar" transform="translate(195,91.00917431192661)"><rect x="1" width="11.999999999999996" height="218.9908256880734"></rect></g><g class="bar" transform="translate(208,63.990825688073386)"><rect x="1" width="11.999999999999996" height="246.0091743119266"></rect></g><g class="bar" transform="translate(221.00000000000003,0)"><rect x="1" width="11.999999999999996" height="310"></rect></g><g class="bar" transform="translate(234,59.72477064220183)"><rect x="1" width="11.999999999999996" height="250.27522935779817"></rect></g><g class="bar" transform="translate(247.00000000000003,76.78899082568807)"><rect x="1" width="11.999999999999996" height="233.21100917431193"></rect></g><g class="bar" transform="translate(260,93.85321100917429)"><rect x="1" width="11.999999999999996" height="216.1467889908257"></rect></g><g class="bar" transform="translate(273,99.54128440366972)"><rect x="1" width="11.999999999999996" height="210.45871559633028"></rect></g><g class="bar" transform="translate(286,135.09174311926608)"><rect x="1" width="11.999999999999996" height="174.90825688073392"></rect></g><g class="bar" transform="translate(299.00000000000006,160.6880733944954)"><rect x="1" width="11.999999999999996" height="149.3119266055046"></rect></g><g class="bar" transform="translate(312.00000000000006,211.88073394495413)"><rect x="1" width="11.999999999999996" height="98.11926605504587"></rect></g><g class="bar" transform="translate(325,251.69724770642202)"><rect x="1" width="11.999999999999996" height="58.30275229357798"></rect></g><g class="bar" transform="translate(338,267.3394495412844)"><rect x="1" width="11.999999999999996" height="42.66055045871559"></rect></g><g class="bar" transform="translate(351,288.6697247706422)"><rect x="1" width="11.999999999999996" height="21.330275229357824"></rect></g><g class="bar" transform="translate(364.00000000000006,287.2477064220183)"><rect x="1" width="11.999999999999996" height="22.752293577981675"></rect></g><g class="bar" transform="translate(377.00000000000006,304.3119266055046)"><rect x="1" width="11.999999999999996" height="5.6880733944954045"></rect></g><g class="bar" transform="translate(390,301.4678899082569)"><rect x="1" width="11.999999999999996" height="8.532110091743107"></rect></g><g class="bar" transform="translate(403,307.1559633027523)"><rect x="1" width="11.999999999999996" height="2.8440366972477023"></rect></g><g class="bar" transform="translate(416,310)"><rect x="1" width="11.999999999999996" height="0"></rect></g><g class="bar" transform="translate(429.00000000000006,304.3119266055046)"><rect x="1" width="11.999999999999996" height="5.6880733944954045"></rect></g><g class="bar" transform="translate(442.00000000000006,308.57798165137615)"><rect x="1" width="11.999999999999996" height="1.4220183486238511"></rect></g><g class="bar" transform="translate(455,308.57798165137615)"><rect x="1" width="11.999999999999996" height="1.4220183486238511"></rect></g><g class="bar" transform="translate(468,310)"><rect x="1" width="11.999999999999996" height="0"></rect></g><g class="bar" transform="translate(481,310)"><rect x="1" width="11.999999999999996" height="0"></rect></g><g class="bar" transform="translate(494.00000000000006,310)"><rect x="1" width="11.999999999999996" height="0"></rect></g><g class="bar" transform="translate(507.00000000000006,310)"><rect x="1" width="11.999999999999996" height="0"></rect></g><g class="axis axis--x" transform="translate(0,310)" fill="none" font-size="10" font-family="sans-serif" text-anchor="middle"><path class="domain" stroke="#000" d="M0.5,6V0.5H520.5V6"></path><g class="tick" opacity="1" transform="translate(0,0)"><line stroke="#000" y2="6" x1="0.5" x2="0.5"></line><text fill="#000" y="9" x="0.5" dy="0.71em">0.01</text></g><g class="tick" opacity="1" transform="translate(130,0)"><line stroke="#000" y2="6" x1="0.5" x2="0.5"></line><text fill="#000" y="9" x="0.5" dy="0.71em">1</text></g><g class="tick" opacity="1" transform="translate(260,0)"><line stroke="#000" y2="6" x1="0.5" x2="0.5"></line><text fill="#000" y="9" x="0.5" dy="0.71em">100</text></g><g class="tick" opacity="1" transform="translate(390,0)"><line stroke="#000" y2="6" x1="0.5" x2="0.5"></line><text fill="#000" y="9" x="0.5" dy="0.71em">10000</text></g><g class="tick" opacity="1" transform="translate(520,0)"><line stroke="#000" y2="6" x1="0.5" x2="0.5"></line><text fill="#000" y="9" x="0.5" dy="0.71em"></text></g></g><g class="axis axis--y" fill="none" font-size="10" font-family="sans-serif" text-anchor="end"><path class="domain" stroke="#000" d="M-6,310.5H0.5V0.5H-6"></path><g class="tick" opacity="1" transform="translate(0,310)"><line stroke="#000" x2="-6" y1="0.5" y2="0.5"></line><text fill="#000" x="-9" y="0.5" dy="0.32em">0</text></g><g class="tick" opacity="1" transform="translate(0,281.5596330275229)"><line stroke="#000" x2="-6" y1="0.5" y2="0.5"></line><text fill="#000" x="-9" y="0.5" dy="0.32em">20</text></g><g class="tick" opacity="1" transform="translate(0,253.11926605504587)"><line stroke="#000" x2="-6" y1="0.5" y2="0.5"></line><text fill="#000" x="-9" y="0.5" dy="0.32em">40</text></g><g class="tick" opacity="1" transform="translate(0,224.67889908256882)"><line stroke="#000" x2="-6" y1="0.5" y2="0.5"></line><text fill="#000" x="-9" y="0.5" dy="0.32em">60</text></g><g class="tick" opacity="1" transform="translate(0,196.23853211009174)"><line stroke="#000" x2="-6" y1="0.5" y2="0.5"></line><text fill="#000" x="-9" y="0.5" dy="0.32em">80</text></g><g class="tick" opacity="1" transform="translate(0,167.79816513761466)"><line stroke="#000" x2="-6" y1="0.5" y2="0.5"></line><text fill="#000" x="-9" y="0.5" dy="0.32em">100</text></g><g class="tick" opacity="1" transform="translate(0,139.3577981651376)"><line stroke="#000" x2="-6" y1="0.5" y2="0.5"></line><text fill="#000" x="-9" y="0.5" dy="0.32em">120</text></g><g class="tick" opacity="1" transform="translate(0,110.91743119266053)"><line stroke="#000" x2="-6" y1="0.5" y2="0.5"></line><text fill="#000" x="-9" y="0.5" dy="0.32em">140</text></g><g class="tick" opacity="1" transform="translate(0,82.47706422018348)"><line stroke="#000" x2="-6" y1="0.5" y2="0.5"></line><text fill="#000" x="-9" y="0.5" dy="0.32em">160</text></g><g class="tick" opacity="1" transform="translate(0,54.0366972477064)"><line stroke="#000" x2="-6" y1="0.5" y2="0.5"></line><text fill="#000" x="-9" y="0.5" dy="0.32em">180</text></g><g class="tick" opacity="1" transform="translate(0,25.59633027522932)"><line stroke="#000" x2="-6" y1="0.5" y2="0.5"></line><text fill="#000" x="-9" y="0.5" dy="0.32em">200</text></g></g></g></svg>