<svg xmlns="http://www.w3.org/2000/svg" width="600" height="350"><defs><style type="text/css"><![CDATA[ 
.bar rect {
  fill-opacity: 0;
  stroke:       black;
  stroke-width: 0.5;
}

.highlight rect {
  fill:       red;
  fill-opacity: 1;
}
.axis path,
.axis line {
  fill: none;
  stroke: #000;
  shape-rendering: crispEdges;
}
path {
    stroke: red;
    fill: none;
}

line {
    stroke: red;
}

path.marker {
    fill: red;
}
 ]]></style></defs><g transform="translate(50,10)"><g class="bar" transform="translate(0,310)"><rect x="1" width="11.999999999999996" height="0"></rect></g><g class="bar" transform="translate(12.999999999999996,310)"><rect x="1" width="11.999999999999996" height="0"></rect></g><g class="bar" transform="translate(25.999999999999993,310)"><rect x="1" width="11.999999999999996" height="0"></rect></g><g class="bar" transform="translate(39.00000000000001,310)"><rect x="1" width="11.999999999999996" height="0"></rect></g><g class="bar" transform="translate(52,310)"><rect x="1" width="11.999999999999996" height="0"></rect></g><g class="bar" transform="translate(65,310)"><rect x="1" width="11.999999999999996" height="0"></rect></g><g class="bar" transform="translate(78.00000000000001,310)"><rect x="1" width="11.999999999999996" height="0"></rect></g><g class="bar" transform="translate(91.00000000000001,310)"><rect x="1" width="11.999999999999996" height="0"></rect></g><g class="bar" transform="translate(104,310)"><rect x="1" width="11.999999999999996" height="0"></rect></g><g class="bar" transform="translate(117,310)"><rect x="1" width="11.999999999999996" height="0"></rect></g><g class="bar" transform="translate(130,310)"><rect x="1" width="11.999999999999996" height="0"></rect></g><g class="bar" transform="translate(143,310)"><rect x="1" width="11.999999999999996" height="0"></rect></g><g class="bar" transform="translate(156.00000000000003,301.71122994652404)"><rect x="1" width="11.999999999999996" height="8.288770053475957"></rect></g><g class="bar" transform="translate(169,275.18716577540107)"><rect x="1" width="11.999999999999996" height="34.81283422459893"></rect></g><g class="bar" transform="translate(182.00000000000003,220.4812834224599)"><rect x="1" width="11.999999999999996" height="89.51871657754009"></rect></g><g class="bar" transform="translate(195,106.09625668449198)"><rect x="1" width="11.999999999999996" height="203.90374331550802"></rect></g><g class="bar" transform="translate(208,0)"><rect x="1" width="11.999999999999996" height="310"></rect></g><g class="bar" transform="translate(221.00000000000003,54.70588235294119)"><rect x="1" width="11.999999999999996" height="255.2941176470588"></rect></g><g class="bar" transform="translate(234,31.49732620320856)"><rect x="1" width="11.999999999999996" height="278.50267379679144"></rect></g><g class="bar" transform="translate(247.00000000000003,1.6577540106952142)"><rect x="1" width="11.999999999999996" height="308.3422459893048"></rect></g><g class="bar" transform="translate(260,49.73262032085563)"><rect x="1" width="11.999999999999996" height="260.26737967914437"></rect></g><g class="bar" transform="translate(273,87.86096256684493)"><rect x="1" width="11.999999999999996" height="222.13903743315507"></rect></g><g class="bar" transform="translate(286,101.12299465240642)"><rect x="1" width="11.999999999999996" height="208.87700534759358"></rect></g><g class="bar" transform="translate(299.00000000000006,116.04278074866312)"><rect x="1" width="11.999999999999996" height="193.95721925133688"></rect></g><g class="bar" transform="translate(312.00000000000006,192.29946524064172)"><rect x="1" width="11.999999999999996" height="117.70053475935828"></rect></g><g class="bar" transform="translate(325,220.4812834224599)"><rect x="1" width="11.999999999999996" height="89.51871657754009"></rect></g><g class="bar" transform="translate(338,237.05882352941177)"><rect x="1" width="11.999999999999996" height="72.94117647058823"></rect></g><g class="bar" transform="translate(351,275.18716577540107)"><rect x="1" width="11.999999999999996" height="34.81283422459893"></rect></g><g class="bar" transform="translate(364.00000000000006,285.1336898395722)"><rect x="1" width="11.999999999999996" height="24.866310160427815"></rect></g><g class="bar" transform="translate(377.00000000000006,300.0534759358289)"><rect x="1" width="11.999999999999996" height="9.946524064171115"></rect></g><g class="bar" transform="translate(390,301.71122994652404)"><rect x="1" width="11.999999999999996" height="8.288770053475957"></rect></g><g class="bar" transform="translate(403,306.6844919786096)"><rect x="1" width="11.999999999999996" height="3.3155080213903716"></rect></g><g class="bar" transform="translate(416,306.6844919786096)"><rect x="1" width="11.999999999999996" height="3.3155080213903716"></rect></g><g class="bar" transform="translate(429.00000000000006,306.6844919786096)"><rect x="1" width="11.999999999999996" height="3.3155080213903716"></rect></g><g class="bar" transform="translate(442.00000000000006,310)"><rect x="1" width="11.999999999999996" height="0"></rect></g><g class="bar" transform="translate(455,308.3422459893048)"><rect x="1" width="11.999999999999996" height="1.6577540106952142"></rect></g><g class="bar" transform="translate(468,310)"><rect x="1" width="11.999999999999996" height="0"></rect></g><g class="bar" transform="translate(481,310)"><rect x="1" width="11.999999999999996" height="0"></rect></g><g class="bar" transform="translate(494.00000000000006,310)"><rect x="1" width="11.999999999999996" height="0"></rect></g><g class="bar" transform="translate(507.00000000000006,310)"><rect x="1" width="11.999999999999996" height="0"></rect></g><g class="axis axis--x" transform="translate(0,310)" fill="none" font-size="10" font-family="sans-serif" text-anchor="middle"><path class="domain" stroke="#000" d="M0.5,6V0.5H520.5V6"></path><g class="tick" opacity="1" transform="translate(0.5,0)"><line stroke="#000" y2="6"></line><text fill="#000" y="9" dy="0.71em">0.01</text></g><g class="tick" opacity="1" transform="translate(130.5,0)"><line stroke="#000" y2="6"></line><text fill="#000" y="9" dy="0.71em">1</text></g><g class="tick" opacity="1" transform="translate(260.5,0)"><line stroke="#000" y2="6"></line><text fill="#000" y="9" dy="0.71em">100</text></g><g class="tick" opacity="1" transform="translate(390.5,0)"><line stroke="#000" y2="6"></line><text fill="#000" y="9" dy="0.71em">10000</text></g><g class="tick" opacity="1" transform="translate(520.5,0)"><line stroke="#000" y2="6"></line><text fill="#000" y="9" dy="0.71em"></text></g></g><g class="axis axis--y" fill="none" font-size="10" font-family="sans-serif" text-anchor="end"><path class="domain" stroke="#000" d="M-6,310.5H0.5V0.5H-6"></path><g class="tick" opacity="1" transform="translate(0,310.5)"><line stroke="#000" x2="-6"></line><text fill="#000" x="-9" dy="0.32em">0</text></g><g class="tick" opacity="1" transform="translate(0,277.3449197860963)"><line stroke="#000" x2="-6"></line><text fill="#000" x="-9" dy="0.32em">20</text></g><g class="tick" opacity="1" transform="translate(0,244.1898395721925)"><line stroke="#000" x2="-6"></line><text fill="#000" x="-9" dy="0.32em">40</text></g><g class="tick" opacity="1" transform="translate(0,211.03475935828877)"><line stroke="#000" x2="-6"></line><text fill="#000" x="-9" dy="0.32em">60</text></g><g class="tick" opacity="1" transform="translate(0,177.87967914438502)"><line stroke="#000" x2="-6"></line><text fill="#000" x="-9" dy="0.32em">80</text></g><g class="tick" opacity="1" transform="translate(0,144.72459893048128)"><line stroke="#000" x2="-6"></line><text fill="#000" x="-9" dy="0.32em">100</text></g><g class="tick" opacity="1" transform="translate(0,111.56951871657753)"><line stroke="#000" x2="-6"></line><text fill="#000" x="-9" dy="0.32em">120</text></g><g class="tick" opacity="1" transform="translate(0,78.41443850267379)"><line stroke="#000" x2="-6"></line><text fill="#000" x="-9" dy="0.32em">140</text></g><g class="tick" opacity="1" transform="translate(0,45.259358288770045)"><line stroke="#000" x2="-6"></line><text fill="#000" x="-9" dy="0.32em">160</text></g><g class="tick" opacity="1" transform="translate(0,12.104278074866329)"><line stroke="#000" x2="-6"></line><text fill="#000" x="-9" dy="0.32em">180</text></g></g></g></svg>