<svg xmlns="http://www.w3.org/2000/svg" width="600" height="350"><defs><style type="text/css"><![CDATA[ 
.bar rect {
  fill-opacity: 0;
  stroke:       black;
  stroke-width: 0.5;
}

.highlight rect {
  fill:       red;
  fill-opacity: 1;
}
.axis path,
.axis line {
  fill: none;
  stroke: #000;
  shape-rendering: crispEdges;
}
 ]]></style></defs><g transform="translate(50,10)"><g class="bar" transform="translate(0,304.6826758147513)"><rect x="1" width="5.500000000000005" height="5.317324185248708"></rect></g><g class="bar" transform="translate(6.500000000000005,304.1509433962264)"><rect x="1" width="5.500000000000005" height="5.84905660377359"></rect></g><g class="bar" transform="translate(12.999999999999996,304.1509433962264)"><rect x="1" width="5.500000000000005" height="5.84905660377359"></rect></g><g class="bar" transform="translate(19.500000000000004,299.89708404802747)"><rect x="1" width="5.500000000000005" height="10.102915951972534"></rect></g><g class="bar" transform="translate(25.999999999999993,287.6672384219554)"><rect x="1" width="5.500000000000005" height="22.332761578044597"></rect></g><g class="bar" transform="translate(32.5,283.9451114922813)"><rect x="1" width="5.500000000000005" height="26.054888507718715"></rect></g><g class="bar" transform="translate(39.00000000000001,283.41337907375646)"><rect x="1" width="5.500000000000005" height="26.58662092624354"></rect></g><g class="bar" transform="translate(45.500000000000014,275.43739279588334)"><rect x="1" width="5.500000000000005" height="34.56260720411666"></rect></g><g class="bar" transform="translate(52,270.12006861063463)"><rect x="1" width="5.500000000000005" height="39.87993138936537"></rect></g><g class="bar" transform="translate(58.49999999999999,260.548885077187)"><rect x="1" width="5.500000000000005" height="49.45111492281302"></rect></g><g class="bar" transform="translate(65,258.95368782161233)"><rect x="1" width="5.500000000000005" height="51.046312178387666"></rect></g><g class="bar" transform="translate(71.5,235.02572898799315)"><rect x="1" width="5.500000000000005" height="74.97427101200685"></rect></g><g class="bar" transform="translate(78.00000000000001,229.70840480274444)"><rect x="1" width="5.500000000000005" height="80.29159519725556"></rect></g><g class="bar" transform="translate(84.5,206.31217838765008)"><rect x="1" width="5.500000000000005" height="103.68782161234992"></rect></g><g class="bar" transform="translate(91.00000000000001,180.2572898799314)"><rect x="1" width="5.500000000000005" height="129.7427101200686"></rect></g><g class="bar" transform="translate(97.5,170.15437392795883)"><rect x="1" width="5.500000000000005" height="139.84562607204117"></rect></g><g class="bar" transform="translate(104,146.22641509433961)"><rect x="1" width="5.500000000000005" height="163.77358490566039"></rect></g><g class="bar" transform="translate(110.50000000000001,132.93310463121784)"><rect x="1" width="5.500000000000005" height="177.06689536878216"></rect></g><g class="bar" transform="translate(117,120.70325900514581)"><rect x="1" width="5.500000000000005" height="189.2967409948542"></rect></g><g class="bar" transform="translate(123.50000000000001,89.86277873070324)"><rect x="1" width="5.500000000000005" height="220.13722126929676"></rect></g><g class="bar" transform="translate(130,77.63293310463123)"><rect x="1" width="5.500000000000005" height="232.36706689536877"></rect></g><g class="bar" transform="translate(136.5,69.12521440823329)"><rect x="1" width="5.500000000000005" height="240.8747855917667"></rect></g><g class="bar" transform="translate(143,56.363636363636346)"><rect x="1" width="5.500000000000005" height="253.63636363636365"></rect></g><g class="bar" transform="translate(149.50000000000003,37.753001715265896)"><rect x="1" width="5.500000000000005" height="272.2469982847341"></rect></g><g class="bar" transform="translate(156.00000000000003,24.99142367066895)"><rect x="1" width="5.500000000000005" height="285.00857632933105"></rect></g><g class="bar" transform="translate(162.5,36.15780445969125)"><rect x="1" width="5.500000000000005" height="273.84219554030875"></rect></g><g class="bar" transform="translate(169,7.975986277873062)"><rect x="1" width="5.500000000000005" height="302.02401372212694"></rect></g><g class="bar" transform="translate(175.5,0)"><rect x="1" width="5.500000000000005" height="310"></rect></g><g class="bar" transform="translate(182.00000000000003,35.094339622641485)"><rect x="1" width="5.500000000000005" height="274.9056603773585"></rect></g><g class="bar" transform="translate(188.50000000000003,9.571183533447652)"><rect x="1" width="5.500000000000005" height="300.42881646655235"></rect></g><g class="bar" transform="translate(195,28.713550600343012)"><rect x="1" width="5.500000000000005" height="281.286449399657"></rect></g><g class="bar" transform="translate(201.5,12.229845626072063)"><rect x="1" width="5.500000000000005" height="297.77015437392794"></rect></g><g class="bar" transform="translate(208,21.269296740994832)"><rect x="1" width="5.500000000000005" height="288.73070325900517"></rect></g><g class="bar" transform="translate(214.50000000000003,47.85591766723843)"><rect x="1" width="5.500000000000005" height="262.14408233276157"></rect></g><g class="bar" transform="translate(221.00000000000003,35.62607204116637)"><rect x="1" width="5.500000000000005" height="274.37392795883363"></rect></g><g class="bar" transform="translate(227.5,61.68096054888508)"><rect x="1" width="5.500000000000005" height="248.31903945111492"></rect></g><g class="bar" transform="translate(234,98.90222984562607)"><rect x="1" width="5.500000000000005" height="211.09777015437393"></rect></g><g class="bar" transform="translate(240.5,97.8387650085763)"><rect x="1" width="5.500000000000005" height="212.1612349914237"></rect></g><g class="bar" transform="translate(247.00000000000003,107.94168096054887)"><rect x="1" width="5.500000000000005" height="202.05831903945113"></rect></g><g class="bar" transform="translate(253.50000000000003,145.16295025728985)"><rect x="1" width="5.500000000000005" height="164.83704974271015"></rect></g><g class="bar" transform="translate(260,161.11492281303603)"><rect x="1" width="5.500000000000005" height="148.88507718696397"></rect></g><g class="bar" transform="translate(266.50000000000006,191.4236706689537)"><rect x="1" width="5.500000000000005" height="118.57632933104631"></rect></g><g class="bar" transform="translate(273,198.33619210977702)"><rect x="1" width="5.500000000000005" height="111.66380789022298"></rect></g><g class="bar" transform="translate(279.5,200.99485420240137)"><rect x="1" width="5.500000000000005" height="109.00514579759863"></rect></g><g class="bar" transform="translate(286,227.04974271012009)"><rect x="1" width="5.500000000000005" height="82.95025728987991"></rect></g><g class="bar" transform="translate(292.5,247.78730703259004)"><rect x="1" width="5.500000000000005" height="62.212692967409964"></rect></g><g class="bar" transform="translate(299.00000000000006,271.1835334476844)"><rect x="1" width="5.500000000000005" height="38.8164665523156"></rect></g><g class="bar" transform="translate(305.5,267.4614065180103)"><rect x="1" width="5.500000000000005" height="42.53859348198972"></rect></g><g class="bar" transform="translate(312.00000000000006,277.56432246998287)"><rect x="1" width="5.500000000000005" height="32.43567753001713"></rect></g><g class="bar" transform="translate(318.5,288.73070325900517)"><rect x="1" width="5.500000000000005" height="21.269296740994832"></rect></g><g class="bar" transform="translate(325,288.73070325900517)"><rect x="1" width="5.500000000000005" height="21.269296740994832"></rect></g><g class="bar" transform="translate(331.50000000000006,299.3653516295026)"><rect x="1" width="5.500000000000005" height="10.634648370497416"></rect></g><g class="bar" transform="translate(338,295.1114922813036)"><rect x="1" width="5.500000000000005" height="14.888507718696417"></rect></g><g class="bar" transform="translate(344.50000000000006,302.02401372212694)"><rect x="1" width="5.500000000000005" height="7.975986277873062"></rect></g><g class="bar" transform="translate(351,298.3018867924528)"><rect x="1" width="5.500000000000005" height="11.69811320754718"></rect></g><g class="bar" transform="translate(357.5,307.8730703259005)"><rect x="1" width="5.500000000000005" height="2.126929674099472"></rect></g><g class="bar" transform="translate(364.00000000000006,305.74614065180106)"><rect x="1" width="5.500000000000005" height="4.253859348198944"></rect></g><g class="bar" transform="translate(370.5,300.4288164665523)"><rect x="1" width="5.500000000000005" height="9.571183533447709"></rect></g><g class="bar" transform="translate(377.00000000000006,310)"><rect x="1" width="5.500000000000005" height="0"></rect></g><g class="bar" transform="translate(383.5,308.4048027444254)"><rect x="1" width="5.500000000000005" height="1.5951972555745897"></rect></g><g class="bar" transform="translate(390,308.93653516295024)"><rect x="1" width="5.500000000000005" height="1.0634648370497644"></rect></g><g class="bar" transform="translate(396.50000000000006,309.4682675814751)"><rect x="1" width="5.500000000000005" height="0.5317324185248822"></rect></g><g class="bar" transform="translate(403,310)"><rect x="1" width="5.500000000000005" height="0"></rect></g><g class="bar" transform="translate(409.50000000000006,310)"><rect x="1" width="5.500000000000005" height="0"></rect></g><g class="bar" transform="translate(416,310)"><rect x="1" width="5.500000000000005" height="0"></rect></g><g class="bar" transform="translate(422.5,310)"><rect x="1" width="5.500000000000005" height="0"></rect></g><g class="bar" transform="translate(429.00000000000006,310)"><rect x="1" width="5.500000000000005" height="0"></rect></g><g class="bar" transform="translate(435.5,310)"><rect x="1" width="5.500000000000005" height="0"></rect></g><g class="bar" transform="translate(442.00000000000006,310)"><rect x="1" width="5.500000000000005" height="0"></rect></g><g class="bar" transform="translate(448.5,310)"><rect x="1" width="5.500000000000005" height="0"></rect></g><g class="bar" transform="translate(455,310)"><rect x="1" width="5.500000000000005" height="0"></rect></g><g class="bar" transform="translate(461.50000000000006,310)"><rect x="1" width="5.500000000000005" height="0"></rect></g><g class="bar" transform="translate(468,310)"><rect x="1" width="5.500000000000005" height="0"></rect></g><g class="bar" transform="translate(474.50000000000006,310)"><rect x="1" width="5.500000000000005" height="0"></rect></g><g class="bar" transform="translate(481,310)"><rect x="1" width="5.500000000000005" height="0"></rect></g><g class="bar" transform="translate(487.5,310)"><rect x="1" width="5.500000000000005" height="0"></rect></g><g class="bar" transform="translate(494.00000000000006,310)"><rect x="1" width="5.500000000000005" height="0"></rect></g><g class="bar" transform="translate(500.5,310)"><rect x="1" width="5.500000000000005" height="0"></rect></g><g class="bar" transform="translate(507.00000000000006,310)"><rect x="1" width="5.500000000000005" height="0"></rect></g><g class="bar" transform="translate(513.5,310)"><rect x="1" width="5.500000000000005" height="0"></rect></g><g class="axis axis--x" transform="translate(0,310)" fill="none" font-size="10" font-family="sans-serif" text-anchor="middle"><path class="domain" stroke="#000" d="M0.5,6V0.5H520.5V6"></path><g class="tick" opacity="1" transform="translate(0,0)"><line stroke="#000" y2="6" x1="0.5" x2="0.5"></line><text fill="#000" y="9" x="0.5" dy="0.71em">0.01</text></g><g class="tick" opacity="1" transform="translate(130,0)"><line stroke="#000" y2="6" x1="0.5" x2="0.5"></line><text fill="#000" y="9" x="0.5" dy="0.71em">1</text></g><g class="tick" opacity="1" transform="translate(260,0)"><line stroke="#000" y2="6" x1="0.5" x2="0.5"></line><text fill="#000" y="9" x="0.5" dy="0.71em">100</text></g><g class="tick" opacity="1" transform="translate(390,0)"><line stroke="#000" y2="6" x1="0.5" x2="0.5"></line><text fill="#000" y="9" x="0.5" dy="0.71em">10000</text></g><g class="tick" opacity="1" transform="translate(520,0)"><line stroke="#000" y2="6" x1="0.5" x2="0.5"></line><text fill="#000" y="9" x="0.5" dy="0.71em"></text></g></g><g class="axis axis--y" fill="none" font-size="10" font-family="sans-serif" text-anchor="end"><path class="domain" stroke="#000" d="M-6,310.5H0.5V0.5H-6"></path><g class="tick" opacity="1" transform="translate(0,310)"><line stroke="#000" x2="-6" y1="0.5" y2="0.5"></line><text fill="#000" x="-9" y="0.5" dy="0.32em">0</text></g><g class="tick" opacity="1" transform="translate(0,283.41337907375646)"><line stroke="#000" x2="-6" y1="0.5" y2="0.5"></line><text fill="#000" x="-9" y="0.5" dy="0.32em">50</text></g><g class="tick" opacity="1" transform="translate(0,256.82675814751286)"><line stroke="#000" x2="-6" y1="0.5" y2="0.5"></line><text fill="#000" x="-9" y="0.5" dy="0.32em">100</text></g><g class="tick" opacity="1" transform="translate(0,230.2401372212693)"><line stroke="#000" x2="-6" y1="0.5" y2="0.5"></line><text fill="#000" x="-9" y="0.5" dy="0.32em">150</text></g><g class="tick" opacity="1" transform="translate(0,203.65351629502572)"><line stroke="#000" x2="-6" y1="0.5" y2="0.5"></line><text fill="#000" x="-9" y="0.5" dy="0.32em">200</text></g><g class="tick" opacity="1" transform="translate(0,177.06689536878216)"><line stroke="#000" x2="-6" y1="0.5" y2="0.5"></line><text fill="#000" x="-9" y="0.5" dy="0.32em">250</text></g><g class="tick" opacity="1" transform="translate(0,150.4802744425386)"><line stroke="#000" x2="-6" y1="0.5" y2="0.5"></line><text fill="#000" x="-9" y="0.5" dy="0.32em">300</text></g><g class="tick" opacity="1" transform="translate(0,123.89365351629502)"><line stroke="#000" x2="-6" y1="0.5" y2="0.5"></line><text fill="#000" x="-9" y="0.5" dy="0.32em">350</text></g><g class="tick" opacity="1" transform="translate(0,97.30703259005148)"><line stroke="#000" x2="-6" y1="0.5" y2="0.5"></line><text fill="#000" x="-9" y="0.5" dy="0.32em">400</text></g><g class="tick" opacity="1" transform="translate(0,70.72041166380788)"><line stroke="#000" x2="-6" y1="0.5" y2="0.5"></line><text fill="#000" x="-9" y="0.5" dy="0.32em">450</text></g><g class="tick" opacity="1" transform="translate(0,44.13379073756431)"><line stroke="#000" x2="-6" y1="0.5" y2="0.5"></line><text fill="#000" x="-9" y="0.5" dy="0.32em">500</text></g><g class="tick" opacity="1" transform="translate(0,17.54716981132077)"><line stroke="#000" x2="-6" y1="0.5" y2="0.5"></line><text fill="#000" x="-9" y="0.5" dy="0.32em">550</text></g></g></g></svg>