<svg xmlns="http://www.w3.org/2000/svg" width="600" height="350"><defs><style type="text/css"><![CDATA[ 
.bar rect {
  fill-opacity: 0;
  stroke:       black;
  stroke-width: 0.5;
}

.highlight rect {
  fill:       red;
  fill-opacity: 1;
}
.axis path,
.axis line {
  fill: none;
  stroke: #000;
  shape-rendering: crispEdges;
}
 ]]></style></defs><g transform="translate(50,10)"><g class="bar" transform="translate(0,310)"><rect x="1" width="11.999999999999996" height="0"></rect></g><g class="bar" transform="translate(12.999999999999996,310)"><rect x="1" width="11.999999999999996" height="0"></rect></g><g class="bar" transform="translate(25.999999999999993,310)"><rect x="1" width="11.999999999999996" height="0"></rect></g><g class="bar" transform="translate(39.00000000000001,310)"><rect x="1" width="11.999999999999996" height="0"></rect></g><g class="bar" transform="translate(52,310)"><rect x="1" width="11.999999999999996" height="0"></rect></g><g class="bar" transform="translate(65,310)"><rect x="1" width="11.999999999999996" height="0"></rect></g><g class="bar" transform="translate(78.00000000000001,308.77712031558184)"><rect x="1" width="11.999999999999996" height="1.2228796844181602"></rect></g><g class="bar" transform="translate(91.00000000000001,308.77712031558184)"><rect x="1" width="11.999999999999996" height="1.2228796844181602"></rect></g><g class="bar" transform="translate(104,306.3313609467456)"><rect x="1" width="11.999999999999996" height="3.6686390532544237"></rect></g><g class="bar" transform="translate(117,300.21696252465483)"><rect x="1" width="11.999999999999996" height="9.783037475345168"></rect></g><g class="bar" transform="translate(130,270.86785009861933)"><rect x="1" width="11.999999999999996" height="39.13214990138067"></rect></g><g class="bar" transform="translate(143,223.7869822485207)"><rect x="1" width="11.999999999999996" height="86.2130177514793"></rect></g><g class="bar" transform="translate(156.00000000000003,136.35108481262327)"><rect x="1" width="11.999999999999996" height="173.64891518737673"></rect></g><g class="bar" transform="translate(169,48.30374753451679)"><rect x="1" width="11.999999999999996" height="261.6962524654832"></rect></g><g class="bar" transform="translate(182.00000000000003,0)"><rect x="1" width="11.999999999999996" height="310"></rect></g><g class="bar" transform="translate(195,8.560157790927008)"><rect x="1" width="11.999999999999996" height="301.439842209073"></rect></g><g class="bar" transform="translate(208,29.960552268244612)"><rect x="1" width="11.999999999999996" height="280.0394477317554"></rect></g><g class="bar" transform="translate(221.00000000000003,61.75542406311638)"><rect x="1" width="11.999999999999996" height="248.24457593688362"></rect></g><g class="bar" transform="translate(234,64.20118343195264)"><rect x="1" width="11.999999999999996" height="245.79881656804736"></rect></g><g class="bar" transform="translate(247.00000000000003,77.04142011834321)"><rect x="1" width="11.999999999999996" height="232.9585798816568"></rect></g><g class="bar" transform="translate(260,100.27613412228797)"><rect x="1" width="11.999999999999996" height="209.72386587771203"></rect></g><g class="bar" transform="translate(273,134.51676528599606)"><rect x="1" width="11.999999999999996" height="175.48323471400394"></rect></g><g class="bar" transform="translate(286,169.9802761341223)"><rect x="1" width="11.999999999999996" height="140.0197238658777"></rect></g><g class="bar" transform="translate(299.00000000000006,198.71794871794873)"><rect x="1" width="11.999999999999996" height="111.28205128205127"></rect></g><g class="bar" transform="translate(312.00000000000006,239.07297830374753)"><rect x="1" width="11.999999999999996" height="70.92702169625247"></rect></g><g class="bar" transform="translate(325,247.0216962524655)"><rect x="1" width="11.999999999999996" height="62.97830374753451"></rect></g><g class="bar" transform="translate(338,269.0335305719921)"><rect x="1" width="11.999999999999996" height="40.96646942800788"></rect></g><g class="bar" transform="translate(351,289.8224852071006)"><rect x="1" width="11.999999999999996" height="20.177514792899387"></rect></g><g class="bar" transform="translate(364.00000000000006,302.66272189349115)"><rect x="1" width="11.999999999999996" height="7.3372781065088475"></rect></g><g class="bar" transform="translate(377.00000000000006,307.5542406311637)"><rect x="1" width="11.999999999999996" height="2.4457593688363204"></rect></g><g class="bar" transform="translate(390,306.9428007889546)"><rect x="1" width="11.999999999999996" height="3.057199211045372"></rect></g><g class="bar" transform="translate(403,308.1656804733728)"><rect x="1" width="11.999999999999996" height="1.8343195266272119"></rect></g><g class="bar" transform="translate(416,310)"><rect x="1" width="11.999999999999996" height="0"></rect></g><g class="bar" transform="translate(429.00000000000006,310)"><rect x="1" width="11.999999999999996" height="0"></rect></g><g class="bar" transform="translate(442.00000000000006,310)"><rect x="1" width="11.999999999999996" height="0"></rect></g><g class="bar" transform="translate(455,310)"><rect x="1" width="11.999999999999996" height="0"></rect></g><g class="bar" transform="translate(468,310)"><rect x="1" width="11.999999999999996" height="0"></rect></g><g class="bar" transform="translate(481,310)"><rect x="1" width="11.999999999999996" height="0"></rect></g><g class="bar" transform="translate(494.00000000000006,310)"><rect x="1" width="11.999999999999996" height="0"></rect></g><g class="bar" transform="translate(507.00000000000006,310)"><rect x="1" width="11.999999999999996" height="0"></rect></g><g class="axis axis--x" transform="translate(0,310)" fill="none" font-size="10" font-family="sans-serif" text-anchor="middle"><path class="domain" stroke="#000" d="M0.5,6V0.5H520.5V6"></path><g class="tick" opacity="1" transform="translate(0,0)"><line stroke="#000" y2="6" x1="0.5" x2="0.5"></line><text fill="#000" y="9" x="0.5" dy="0.71em">0.01</text></g><g class="tick" opacity="1" transform="translate(130,0)"><line stroke="#000" y2="6" x1="0.5" x2="0.5"></line><text fill="#000" y="9" x="0.5" dy="0.71em">1</text></g><g class="tick" opacity="1" transform="translate(260,0)"><line stroke="#000" y2="6" x1="0.5" x2="0.5"></line><text fill="#000" y="9" x="0.5" dy="0.71em">100</text></g><g class="tick" opacity="1" transform="translate(390,0)"><line stroke="#000" y2="6" x1="0.5" x2="0.5"></line><text fill="#000" y="9" x="0.5" dy="0.71em">10000</text></g><g class="tick" opacity="1" transform="translate(520,0)"><line stroke="#000" y2="6" x1="0.5" x2="0.5"></line><text fill="#000" y="9" x="0.5" dy="0.71em"></text></g></g><g class="axis axis--y" fill="none" font-size="10" font-family="sans-serif" text-anchor="end"><path class="domain" stroke="#000" d="M-6,310.5H0.5V0.5H-6"></path><g class="tick" opacity="1" transform="translate(0,310)"><line stroke="#000" x2="-6" y1="0.5" y2="0.5"></line><text fill="#000" x="-9" y="0.5" dy="0.32em">0</text></g><g class="tick" opacity="1" transform="translate(0,279.42800788954634)"><line stroke="#000" x2="-6" y1="0.5" y2="0.5"></line><text fill="#000" x="-9" y="0.5" dy="0.32em">50</text></g><g class="tick" opacity="1" transform="translate(0,248.8560157790927)"><line stroke="#000" x2="-6" y1="0.5" y2="0.5"></line><text fill="#000" x="-9" y="0.5" dy="0.32em">100</text></g><g class="tick" opacity="1" transform="translate(0,218.28402366863907)"><line stroke="#000" x2="-6" y1="0.5" y2="0.5"></line><text fill="#000" x="-9" y="0.5" dy="0.32em">150</text></g><g class="tick" opacity="1" transform="translate(0,187.7120315581854)"><line stroke="#000" x2="-6" y1="0.5" y2="0.5"></line><text fill="#000" x="-9" y="0.5" dy="0.32em">200</text></g><g class="tick" opacity="1" transform="translate(0,157.14003944773174)"><line stroke="#000" x2="-6" y1="0.5" y2="0.5"></line><text fill="#000" x="-9" y="0.5" dy="0.32em">250</text></g><g class="tick" opacity="1" transform="translate(0,126.5680473372781)"><line stroke="#000" x2="-6" y1="0.5" y2="0.5"></line><text fill="#000" x="-9" y="0.5" dy="0.32em">300</text></g><g class="tick" opacity="1" transform="translate(0,95.99605522682447)"><line stroke="#000" x2="-6" y1="0.5" y2="0.5"></line><text fill="#000" x="-9" y="0.5" dy="0.32em">350</text></g><g class="tick" opacity="1" transform="translate(0,65.4240631163708)"><line stroke="#000" x2="-6" y1="0.5" y2="0.5"></line><text fill="#000" x="-9" y="0.5" dy="0.32em">400</text></g><g class="tick" opacity="1" transform="translate(0,34.85207100591714)"><line stroke="#000" x2="-6" y1="0.5" y2="0.5"></line><text fill="#000" x="-9" y="0.5" dy="0.32em">450</text></g><g class="tick" opacity="1" transform="translate(0,4.280078895463475)"><line stroke="#000" x2="-6" y1="0.5" y2="0.5"></line><text fill="#000" x="-9" y="0.5" dy="0.32em">500</text></g></g></g></svg>