<svg xmlns="http://www.w3.org/2000/svg" width="600" height="350"><defs><style type="text/css"><![CDATA[ 
.bar rect {
  fill-opacity: 0;
  stroke:       black;
  stroke-width: 0.5;
}

.highlight rect {
  fill:       red;
  fill-opacity: 1;
}
.axis path,
.axis line {
  fill: none;
  stroke: #000;
  shape-rendering: crispEdges;
}
path {
    stroke: red;
    fill: none;
}

line {
    stroke: red;
}

path.marker {
    fill: red;
}
 ]]></style></defs><g transform="translate(50,10)"><g class="bar" transform="translate(0,310)"><rect x="1" width="11.999999999999996" height="0"></rect></g><g class="bar" transform="translate(12.999999999999996,307.95379537953795)"><rect x="1" width="11.999999999999996" height="2.046204620462049"></rect></g><g class="bar" transform="translate(25.999999999999993,304.8844884488449)"><rect x="1" width="11.999999999999996" height="5.115511551155123"></rect></g><g class="bar" transform="translate(39.00000000000001,302.8382838283828)"><rect x="1" width="11.999999999999996" height="7.161716171617172"></rect></g><g class="bar" transform="translate(52,297.7227722772277)"><rect x="1" width="11.999999999999996" height="12.277227722772295"></rect></g><g class="bar" transform="translate(65,287.4917491749175)"><rect x="1" width="11.999999999999996" height="22.508250825082484"></rect></g><g class="bar" transform="translate(78.00000000000001,282.3762376237624)"><rect x="1" width="11.999999999999996" height="27.623762376237607"></rect></g><g class="bar" transform="translate(91.00000000000001,261.9141914191419)"><rect x="1" width="11.999999999999996" height="48.0858085808581"></rect></g><g class="bar" transform="translate(104,244.52145214521454)"><rect x="1" width="11.999999999999996" height="65.47854785478546"></rect></g><g class="bar" transform="translate(117,246.56765676567656)"><rect x="1" width="11.999999999999996" height="63.43234323432344"></rect></g><g class="bar" transform="translate(130,214.85148514851485)"><rect x="1" width="11.999999999999996" height="95.14851485148515"></rect></g><g class="bar" transform="translate(143,192.34323432343234)"><rect x="1" width="11.999999999999996" height="117.65676567656766"></rect></g><g class="bar" transform="translate(156.00000000000003,167.78877887788778)"><rect x="1" width="11.999999999999996" height="142.21122112211222"></rect></g><g class="bar" transform="translate(169,143.23432343234325)"><rect x="1" width="11.999999999999996" height="166.76567656765675"></rect></g><g class="bar" transform="translate(182.00000000000003,84.9174917491749)"><rect x="1" width="11.999999999999996" height="225.0825082508251"></rect></g><g class="bar" transform="translate(195,78.77887788778878)"><rect x="1" width="11.999999999999996" height="231.22112211221122"></rect></g><g class="bar" transform="translate(208,45.016501650165026)"><rect x="1" width="11.999999999999996" height="264.983498349835"></rect></g><g class="bar" transform="translate(221.00000000000003,50.13201320132009)"><rect x="1" width="11.999999999999996" height="259.8679867986799"></rect></g><g class="bar" transform="translate(234,34.78547854785478)"><rect x="1" width="11.999999999999996" height="275.2145214521452"></rect></g><g class="bar" transform="translate(247.00000000000003,0)"><rect x="1" width="11.999999999999996" height="310"></rect></g><g class="bar" transform="translate(260,32.73927392739273)"><rect x="1" width="11.999999999999996" height="277.26072607260727"></rect></g><g class="bar" transform="translate(273,83.8943894389439)"><rect x="1" width="11.999999999999996" height="226.1056105610561"></rect></g><g class="bar" transform="translate(286,92.0792079207921)"><rect x="1" width="11.999999999999996" height="217.9207920792079"></rect></g><g class="bar" transform="translate(299.00000000000006,179.04290429042905)"><rect x="1" width="11.999999999999996" height="130.95709570957095"></rect></g><g class="bar" transform="translate(312.00000000000006,192.34323432343234)"><rect x="1" width="11.999999999999996" height="117.65676567656766"></rect></g><g class="bar" transform="translate(325,226.1056105610561)"><rect x="1" width="11.999999999999996" height="83.8943894389439"></rect></g><g class="bar" transform="translate(338,269.0759075907591)"><rect x="1" width="11.999999999999996" height="40.92409240924093"></rect></g><g class="bar" transform="translate(351,284.42244224422444)"><rect x="1" width="11.999999999999996" height="25.57755775577556"></rect></g><g class="bar" transform="translate(364.00000000000006,306.9306930693069)"><rect x="1" width="11.999999999999996" height="3.069306930693074"></rect></g><g class="bar" transform="translate(377.00000000000006,305.9075907590759)"><rect x="1" width="11.999999999999996" height="4.092409240924098"></rect></g><g class="bar" transform="translate(390,306.9306930693069)"><rect x="1" width="11.999999999999996" height="3.069306930693074"></rect></g><g class="bar" transform="translate(403,308.976897689769)"><rect x="1" width="11.999999999999996" height="1.0231023102310246"></rect></g><g class="bar" transform="translate(416,308.976897689769)"><rect x="1" width="11.999999999999996" height="1.0231023102310246"></rect></g><g class="bar" transform="translate(429.00000000000006,310)"><rect x="1" width="11.999999999999996" height="0"></rect></g><g class="bar" transform="translate(442.00000000000006,310)"><rect x="1" width="11.999999999999996" height="0"></rect></g><g class="bar" transform="translate(455,307.95379537953795)"><rect x="1" width="11.999999999999996" height="2.046204620462049"></rect></g><g class="bar" transform="translate(468,310)"><rect x="1" width="11.999999999999996" height="0"></rect></g><g class="bar" transform="translate(481,310)"><rect x="1" width="11.999999999999996" height="0"></rect></g><g class="bar" transform="translate(494.00000000000006,310)"><rect x="1" width="11.999999999999996" height="0"></rect></g><g class="bar" transform="translate(507.00000000000006,310)"><rect x="1" width="11.999999999999996" height="0"></rect></g><g class="axis axis--x" transform="translate(0,310)" fill="none" font-size="10" font-family="sans-serif" text-anchor="middle"><path class="domain" stroke="#000" d="M0.5,6V0.5H520.5V6"></path><g class="tick" opacity="1" transform="translate(0.5,0)"><line stroke="#000" y2="6"></line><text fill="#000" y="9" dy="0.71em">0.01</text></g><g class="tick" opacity="1" transform="translate(130.5,0)"><line stroke="#000" y2="6"></line><text fill="#000" y="9" dy="0.71em">1</text></g><g class="tick" opacity="1" transform="translate(260.5,0)"><line stroke="#000" y2="6"></line><text fill="#000" y="9" dy="0.71em">100</text></g><g class="tick" opacity="1" transform="translate(390.5,0)"><line stroke="#000" y2="6"></line><text fill="#000" y="9" dy="0.71em">10000</text></g><g class="tick" opacity="1" transform="translate(520.5,0)"><line stroke="#000" y2="6"></line><text fill="#000" y="9" dy="0.71em"></text></g></g><g class="axis axis--y" fill="none" font-size="10" font-family="sans-serif" text-anchor="end"><path class="domain" stroke="#000" d="M-6,310.5H0.5V0.5H-6"></path><g class="tick" opacity="1" transform="translate(0,310.5)"><line stroke="#000" x2="-6"></line><text fill="#000" x="-9" dy="0.32em">0</text></g><g class="tick" opacity="1" transform="translate(0,290.03795379537956)"><line stroke="#000" x2="-6"></line><text fill="#000" x="-9" dy="0.32em">20</text></g><g class="tick" opacity="1" transform="translate(0,269.5759075907591)"><line stroke="#000" x2="-6"></line><text fill="#000" x="-9" dy="0.32em">40</text></g><g class="tick" opacity="1" transform="translate(0,249.1138613861386)"><line stroke="#000" x2="-6"></line><text fill="#000" x="-9" dy="0.32em">60</text></g><g class="tick" opacity="1" transform="translate(0,228.65181518151815)"><line stroke="#000" x2="-6"></line><text fill="#000" x="-9" dy="0.32em">80</text></g><g class="tick" opacity="1" transform="translate(0,208.1897689768977)"><line stroke="#000" x2="-6"></line><text fill="#000" x="-9" dy="0.32em">100</text></g><g class="tick" opacity="1" transform="translate(0,187.72772277227722)"><line stroke="#000" x2="-6"></line><text fill="#000" x="-9" dy="0.32em">120</text></g><g class="tick" opacity="1" transform="translate(0,167.26567656765678)"><line stroke="#000" x2="-6"></line><text fill="#000" x="-9" dy="0.32em">140</text></g><g class="tick" opacity="1" transform="translate(0,146.80363036303632)"><line stroke="#000" x2="-6"></line><text fill="#000" x="-9" dy="0.32em">160</text></g><g class="tick" opacity="1" transform="translate(0,126.34158415841586)"><line stroke="#000" x2="-6"></line><text fill="#000" x="-9" dy="0.32em">180</text></g><g class="tick" opacity="1" transform="translate(0,105.87953795379539)"><line stroke="#000" x2="-6"></line><text fill="#000" x="-9" dy="0.32em">200</text></g><g class="tick" opacity="1" transform="translate(0,85.4174917491749)"><line stroke="#000" x2="-6"></line><text fill="#000" x="-9" dy="0.32em">220</text></g><g class="tick" opacity="1" transform="translate(0,64.95544554455444)"><line stroke="#000" x2="-6"></line><text fill="#000" x="-9" dy="0.32em">240</text></g><g class="tick" opacity="1" transform="translate(0,44.493399339934)"><line stroke="#000" x2="-6"></line><text fill="#000" x="-9" dy="0.32em">260</text></g><g class="tick" opacity="1" transform="translate(0,24.031353135313566)"><line stroke="#000" x2="-6"></line><text fill="#000" x="-9" dy="0.32em">280</text></g><g class="tick" opacity="1" transform="translate(0,3.569306930693074)"><line stroke="#000" x2="-6"></line><text fill="#000" x="-9" dy="0.32em">300</text></g></g></g></svg>