<svg xmlns="http://www.w3.org/2000/svg" width="600" height="350"><defs><style type="text/css"><![CDATA[ 
.bar rect {
  fill-opacity: 0;
  stroke:       black;
  stroke-width: 0.5;
}

.highlight rect {
  fill:       red;
  fill-opacity: 1;
}
.axis path,
.axis line {
  fill: none;
  stroke: #000;
  shape-rendering: crispEdges;
}
 ]]></style></defs><g transform="translate(50,10)"><g class="bar" transform="translate(0,243.26388888888889)"><rect x="1" width="31.5" height="66.73611111111111"></rect></g><g class="bar" transform="translate(32.5,238.95833333333334)"><rect x="1" width="31.5" height="71.04166666666666"></rect></g><g class="bar" transform="translate(65,182.98611111111111)"><rect x="1" width="31.5" height="127.01388888888889"></rect></g><g class="bar" transform="translate(97.5,219.58333333333331)"><rect x="1" width="31.5" height="90.41666666666669"></rect></g><g class="bar" transform="translate(130,191.59722222222223)"><rect x="1" width="31.5" height="118.40277777777777"></rect></g><g class="bar" transform="translate(162.5,21.52777777777777)"><rect x="1" width="31.5" height="288.47222222222223"></rect></g><g class="bar" transform="translate(195,0)"><rect x="1" width="31.5" height="310"></rect></g><g class="bar" transform="translate(227.5,94.72222222222223)"><rect x="1" width="31.5" height="215.27777777777777"></rect></g><g class="bar" transform="translate(260,131.31944444444446)"><rect x="1" width="31.5" height="178.68055555555554"></rect></g><g class="bar" transform="translate(292.5,180.83333333333331)"><rect x="1" width="31.5" height="129.16666666666669"></rect></g><g class="bar" transform="translate(325,221.73611111111111)"><rect x="1" width="31.5" height="88.26388888888889"></rect></g><g class="bar" transform="translate(357.5,260.4861111111111)"><rect x="1" width="31.5" height="49.513888888888914"></rect></g><g class="bar" transform="translate(390,286.31944444444446)"><rect x="1" width="31.5" height="23.680555555555543"></rect></g><g class="bar" transform="translate(422.5,290.625)"><rect x="1" width="31.5" height="19.375"></rect></g><g class="bar" transform="translate(455,310)"><rect x="1" width="31.5" height="0"></rect></g><g class="bar" transform="translate(487.5,310)"><rect x="1" width="31.5" height="0"></rect></g><g class="axis axis--x" transform="translate(0,310)" fill="none" font-size="10" font-family="sans-serif" text-anchor="middle"><path class="domain" stroke="#000" d="M0.5,6V0.5H520.5V6"></path><g class="tick" opacity="1" transform="translate(0,0)"><line stroke="#000" y2="6" x1="0.5" x2="0.5"></line><text fill="#000" y="9" x="0.5" dy="0.71em">0.01</text></g><g class="tick" opacity="1" transform="translate(130,0)"><line stroke="#000" y2="6" x1="0.5" x2="0.5"></line><text fill="#000" y="9" x="0.5" dy="0.71em">1</text></g><g class="tick" opacity="1" transform="translate(260,0)"><line stroke="#000" y2="6" x1="0.5" x2="0.5"></line><text fill="#000" y="9" x="0.5" dy="0.71em">100</text></g><g class="tick" opacity="1" transform="translate(390,0)"><line stroke="#000" y2="6" x1="0.5" x2="0.5"></line><text fill="#000" y="9" x="0.5" dy="0.71em">10000</text></g><g class="tick" opacity="1" transform="translate(520,0)"><line stroke="#000" y2="6" x1="0.5" x2="0.5"></line><text fill="#000" y="9" x="0.5" dy="0.71em"></text></g></g><g class="axis axis--y" fill="none" font-size="10" font-family="sans-serif" text-anchor="end"><path class="domain" stroke="#000" d="M-6,310.5H0.5V0.5H-6"></path><g class="tick" opacity="1" transform="translate(0,310)"><line stroke="#000" x2="-6" y1="0.5" y2="0.5"></line><text fill="#000" x="-9" y="0.5" dy="0.32em">0</text></g><g class="tick" opacity="1" transform="translate(0,266.94444444444446)"><line stroke="#000" x2="-6" y1="0.5" y2="0.5"></line><text fill="#000" x="-9" y="0.5" dy="0.32em">20</text></g><g class="tick" opacity="1" transform="translate(0,223.88888888888889)"><line stroke="#000" x2="-6" y1="0.5" y2="0.5"></line><text fill="#000" x="-9" y="0.5" dy="0.32em">40</text></g><g class="tick" opacity="1" transform="translate(0,180.83333333333331)"><line stroke="#000" x2="-6" y1="0.5" y2="0.5"></line><text fill="#000" x="-9" y="0.5" dy="0.32em">60</text></g><g class="tick" opacity="1" transform="translate(0,137.77777777777777)"><line stroke="#000" x2="-6" y1="0.5" y2="0.5"></line><text fill="#000" x="-9" y="0.5" dy="0.32em">80</text></g><g class="tick" opacity="1" transform="translate(0,94.72222222222223)"><line stroke="#000" x2="-6" y1="0.5" y2="0.5"></line><text fill="#000" x="-9" y="0.5" dy="0.32em">100</text></g><g class="tick" opacity="1" transform="translate(0,51.66666666666663)"><line stroke="#000" x2="-6" y1="0.5" y2="0.5"></line><text fill="#000" x="-9" y="0.5" dy="0.32em">120</text></g><g class="tick" opacity="1" transform="translate(0,8.611111111111143)"><line stroke="#000" x2="-6" y1="0.5" y2="0.5"></line><text fill="#000" x="-9" y="0.5" dy="0.32em">140</text></g></g></g></svg>