<svg xmlns="http://www.w3.org/2000/svg" width="600" height="350"><defs><style type="text/css"><![CDATA[ 
.bar rect {
  fill-opacity: 0;
  stroke:       black;
  stroke-width: 0.5;
}

.highlight rect {
  fill:       red;
  fill-opacity: 1;
}
.axis path,
.axis line {
  fill: none;
  stroke: #000;
  shape-rendering: crispEdges;
}
path {
    stroke: red;
    fill: none;
}

line {
    stroke: red;
}

path.marker {
    fill: red;
}
 ]]></style></defs><g transform="translate(50,10)"><g class="bar" transform="translate(0,310)"><rect x="1" width="11.999999999999996" height="0"></rect></g><g class="bar" transform="translate(12.999999999999996,307.88154897494303)"><rect x="1" width="11.999999999999996" height="2.11845102505697"></rect></g><g class="bar" transform="translate(25.999999999999993,305.7630979498861)"><rect x="1" width="11.999999999999996" height="4.236902050113883"></rect></g><g class="bar" transform="translate(39.00000000000001,302.9384965831435)"><rect x="1" width="11.999999999999996" height="7.06150341685651"></rect></g><g class="bar" transform="translate(52,290.9339407744875)"><rect x="1" width="11.999999999999996" height="19.066059225512504"></rect></g><g class="bar" transform="translate(65,273.28018223234625)"><rect x="1" width="11.999999999999996" height="36.71981776765375"></rect></g><g class="bar" transform="translate(78.00000000000001,265.5125284738041)"><rect x="1" width="11.999999999999996" height="44.48747152619592"></rect></g><g class="bar" transform="translate(91.00000000000001,235.14806378132118)"><rect x="1" width="11.999999999999996" height="74.85193621867882"></rect></g><g class="bar" transform="translate(104,202.66514806378132)"><rect x="1" width="11.999999999999996" height="107.33485193621868"></rect></g><g class="bar" transform="translate(117,154.64692482915717)"><rect x="1" width="11.999999999999996" height="155.35307517084283"></rect></g><g class="bar" transform="translate(130,122.16400911161733)"><rect x="1" width="11.999999999999996" height="187.83599088838267"></rect></g><g class="bar" transform="translate(143,101.68564920273349)"><rect x="1" width="11.999999999999996" height="208.3143507972665"></rect></g><g class="bar" transform="translate(156.00000000000003,71.32118451025056)"><rect x="1" width="11.999999999999996" height="238.67881548974944"></rect></g><g class="bar" transform="translate(169,27.539863325740328)"><rect x="1" width="11.999999999999996" height="282.4601366742597"></rect></g><g class="bar" transform="translate(182.00000000000003,23.302961275626444)"><rect x="1" width="11.999999999999996" height="286.69703872437356"></rect></g><g class="bar" transform="translate(195,39.54441913439638)"><rect x="1" width="11.999999999999996" height="270.4555808656036"></rect></g><g class="bar" transform="translate(208,0)"><rect x="1" width="11.999999999999996" height="310"></rect></g><g class="bar" transform="translate(221.00000000000003,38.132118451025065)"><rect x="1" width="11.999999999999996" height="271.86788154897494"></rect></g><g class="bar" transform="translate(234,81.20728929384964)"><rect x="1" width="11.999999999999996" height="228.79271070615036"></rect></g><g class="bar" transform="translate(247.00000000000003,86.85649202733487)"><rect x="1" width="11.999999999999996" height="223.14350797266513"></rect></g><g class="bar" transform="translate(260,124.98861047835993)"><rect x="1" width="11.999999999999996" height="185.01138952164007"></rect></g><g class="bar" transform="translate(273,175.83143507972665)"><rect x="1" width="11.999999999999996" height="134.16856492027335"></rect></g><g class="bar" transform="translate(286,191.36674259681092)"><rect x="1" width="11.999999999999996" height="118.63325740318908"></rect></g><g class="bar" transform="translate(299.00000000000006,214.66970387243737)"><rect x="1" width="11.999999999999996" height="95.33029612756263"></rect></g><g class="bar" transform="translate(312.00000000000006,237.26651480637815)"><rect x="1" width="11.999999999999996" height="72.73348519362185"></rect></g><g class="bar" transform="translate(325,259.8633257403189)"><rect x="1" width="11.999999999999996" height="50.136674259681115"></rect></g><g class="bar" transform="translate(338,280.34168564920276)"><rect x="1" width="11.999999999999996" height="29.65831435079724"></rect></g><g class="bar" transform="translate(351,285.2847380410023)"><rect x="1" width="11.999999999999996" height="24.7152619589977"></rect></g><g class="bar" transform="translate(364.00000000000006,299.40774487471526)"><rect x="1" width="11.999999999999996" height="10.592255125284737"></rect></g><g class="bar" transform="translate(377.00000000000006,301.52619589977223)"><rect x="1" width="11.999999999999996" height="8.473804100227767"></rect></g><g class="bar" transform="translate(390,307.17539863325743)"><rect x="1" width="11.999999999999996" height="2.82460136674257"></rect></g><g class="bar" transform="translate(403,308.5876993166287)"><rect x="1" width="11.999999999999996" height="1.4123006833713134"></rect></g><g class="bar" transform="translate(416,310)"><rect x="1" width="11.999999999999996" height="0"></rect></g><g class="bar" transform="translate(429.00000000000006,310)"><rect x="1" width="11.999999999999996" height="0"></rect></g><g class="bar" transform="translate(442.00000000000006,310)"><rect x="1" width="11.999999999999996" height="0"></rect></g><g class="bar" transform="translate(455,310)"><rect x="1" width="11.999999999999996" height="0"></rect></g><g class="bar" transform="translate(468,310)"><rect x="1" width="11.999999999999996" height="0"></rect></g><g class="bar" transform="translate(481,310)"><rect x="1" width="11.999999999999996" height="0"></rect></g><g class="bar" transform="translate(494.00000000000006,310)"><rect x="1" width="11.999999999999996" height="0"></rect></g><g class="bar" transform="translate(507.00000000000006,310)"><rect x="1" width="11.999999999999996" height="0"></rect></g><g class="axis axis--x" transform="translate(0,310)" fill="none" font-size="10" font-family="sans-serif" text-anchor="middle"><path class="domain" stroke="#000" d="M0.5,6V0.5H520.5V6"></path><g class="tick" opacity="1" transform="translate(0.5,0)"><line stroke="#000" y2="6"></line><text fill="#000" y="9" dy="0.71em">0.01</text></g><g class="tick" opacity="1" transform="translate(130.5,0)"><line stroke="#000" y2="6"></line><text fill="#000" y="9" dy="0.71em">1</text></g><g class="tick" opacity="1" transform="translate(260.5,0)"><line stroke="#000" y2="6"></line><text fill="#000" y="9" dy="0.71em">100</text></g><g class="tick" opacity="1" transform="translate(390.5,0)"><line stroke="#000" y2="6"></line><text fill="#000" y="9" dy="0.71em">10000</text></g><g class="tick" opacity="1" transform="translate(520.5,0)"><line stroke="#000" y2="6"></line><text fill="#000" y="9" dy="0.71em"></text></g></g><g class="axis axis--y" fill="none" font-size="10" font-family="sans-serif" text-anchor="end"><path class="domain" stroke="#000" d="M-6,310.5H0.5V0.5H-6"></path><g class="tick" opacity="1" transform="translate(0,310.5)"><line stroke="#000" x2="-6"></line><text fill="#000" x="-9" dy="0.32em">0</text></g><g class="tick" opacity="1" transform="translate(0,275.19248291571756)"><line stroke="#000" x2="-6"></line><text fill="#000" x="-9" dy="0.32em">50</text></g><g class="tick" opacity="1" transform="translate(0,239.88496583143507)"><line stroke="#000" x2="-6"></line><text fill="#000" x="-9" dy="0.32em">100</text></g><g class="tick" opacity="1" transform="translate(0,204.57744874715263)"><line stroke="#000" x2="-6"></line><text fill="#000" x="-9" dy="0.32em">150</text></g><g class="tick" opacity="1" transform="translate(0,169.26993166287016)"><line stroke="#000" x2="-6"></line><text fill="#000" x="-9" dy="0.32em">200</text></g><g class="tick" opacity="1" transform="translate(0,133.9624145785877)"><line stroke="#000" x2="-6"></line><text fill="#000" x="-9" dy="0.32em">250</text></g><g class="tick" opacity="1" transform="translate(0,98.65489749430523)"><line stroke="#000" x2="-6"></line><text fill="#000" x="-9" dy="0.32em">300</text></g><g class="tick" opacity="1" transform="translate(0,63.347380410022794)"><line stroke="#000" x2="-6"></line><text fill="#000" x="-9" dy="0.32em">350</text></g><g class="tick" opacity="1" transform="translate(0,28.039863325740328)"><line stroke="#000" x2="-6"></line><text fill="#000" x="-9" dy="0.32em">400</text></g></g></g></svg>