<svg xmlns="http://www.w3.org/2000/svg" width="600" height="350"><defs><style type="text/css"><![CDATA[ 
.bar rect {
  fill-opacity: 0;
  stroke:       black;
  stroke-width: 0.5;
}

.highlight rect {
  fill:       red;
  fill-opacity: 1;
}
.axis path,
.axis line {
  fill: none;
  stroke: #000;
  shape-rendering: crispEdges;
}
 ]]></style></defs><g transform="translate(50,10)"><g class="bar" transform="translate(0,310)"><rect x="1" width="11.999999999999996" height="0"></rect></g><g class="bar" transform="translate(12.999999999999996,310)"><rect x="1" width="11.999999999999996" height="0"></rect></g><g class="bar" transform="translate(25.999999999999993,307.76978417266184)"><rect x="1" width="11.999999999999996" height="2.2302158273381565"></rect></g><g class="bar" transform="translate(39.00000000000001,305.53956834532374)"><rect x="1" width="11.999999999999996" height="4.460431654676256"></rect></g><g class="bar" transform="translate(52,310)"><rect x="1" width="11.999999999999996" height="0"></rect></g><g class="bar" transform="translate(65,307.76978417266184)"><rect x="1" width="11.999999999999996" height="2.2302158273381565"></rect></g><g class="bar" transform="translate(78.00000000000001,307.76978417266184)"><rect x="1" width="11.999999999999996" height="2.2302158273381565"></rect></g><g class="bar" transform="translate(91.00000000000001,310)"><rect x="1" width="11.999999999999996" height="0"></rect></g><g class="bar" transform="translate(104,287.6978417266187)"><rect x="1" width="11.999999999999996" height="22.30215827338128"></rect></g><g class="bar" transform="translate(117,298.84892086330933)"><rect x="1" width="11.999999999999996" height="11.151079136690669"></rect></g><g class="bar" transform="translate(130,287.6978417266187)"><rect x="1" width="11.999999999999996" height="22.30215827338128"></rect></g><g class="bar" transform="translate(143,269.85611510791364)"><rect x="1" width="11.999999999999996" height="40.14388489208636"></rect></g><g class="bar" transform="translate(156.00000000000003,265.39568345323744)"><rect x="1" width="11.999999999999996" height="44.60431654676256"></rect></g><g class="bar" transform="translate(169,247.55395683453239)"><rect x="1" width="11.999999999999996" height="62.446043165467614"></rect></g><g class="bar" transform="translate(182.00000000000003,216.33093525179856)"><rect x="1" width="11.999999999999996" height="93.66906474820144"></rect></g><g class="bar" transform="translate(195,225.25179856115108)"><rect x="1" width="11.999999999999996" height="84.74820143884892"></rect></g><g class="bar" transform="translate(208,162.80575539568346)"><rect x="1" width="11.999999999999996" height="147.19424460431654"></rect></g><g class="bar" transform="translate(221.00000000000003,147.19424460431657)"><rect x="1" width="11.999999999999996" height="162.80575539568343"></rect></g><g class="bar" transform="translate(234,160.57553956834533)"><rect x="1" width="11.999999999999996" height="149.42446043165467"></rect></g><g class="bar" transform="translate(247.00000000000003,100.35971223021582)"><rect x="1" width="11.999999999999996" height="209.64028776978418"></rect></g><g class="bar" transform="translate(260,53.52517985611513)"><rect x="1" width="11.999999999999996" height="256.47482014388487"></rect></g><g class="bar" transform="translate(273,91.43884892086334)"><rect x="1" width="11.999999999999996" height="218.56115107913666"></rect></g><g class="bar" transform="translate(286,0)"><rect x="1" width="11.999999999999996" height="310"></rect></g><g class="bar" transform="translate(299.00000000000006,53.52517985611513)"><rect x="1" width="11.999999999999996" height="256.47482014388487"></rect></g><g class="bar" transform="translate(312.00000000000006,46.83453237410072)"><rect x="1" width="11.999999999999996" height="263.1654676258993"></rect></g><g class="bar" transform="translate(325,140.50359712230215)"><rect x="1" width="11.999999999999996" height="169.49640287769785"></rect></g><g class="bar" transform="translate(338,185.10791366906477)"><rect x="1" width="11.999999999999996" height="124.89208633093523"></rect></g><g class="bar" transform="translate(351,198.48920863309354)"><rect x="1" width="11.999999999999996" height="111.51079136690646"></rect></g><g class="bar" transform="translate(364.00000000000006,225.25179856115108)"><rect x="1" width="11.999999999999996" height="84.74820143884892"></rect></g><g class="bar" transform="translate(377.00000000000006,269.85611510791364)"><rect x="1" width="11.999999999999996" height="40.14388489208636"></rect></g><g class="bar" transform="translate(390,305.53956834532374)"><rect x="1" width="11.999999999999996" height="4.460431654676256"></rect></g><g class="bar" transform="translate(403,305.53956834532374)"><rect x="1" width="11.999999999999996" height="4.460431654676256"></rect></g><g class="bar" transform="translate(416,310)"><rect x="1" width="11.999999999999996" height="0"></rect></g><g class="bar" transform="translate(429.00000000000006,310)"><rect x="1" width="11.999999999999996" height="0"></rect></g><g class="bar" transform="translate(442.00000000000006,310)"><rect x="1" width="11.999999999999996" height="0"></rect></g><g class="bar" transform="translate(455,310)"><rect x="1" width="11.999999999999996" height="0"></rect></g><g class="bar" transform="translate(468,310)"><rect x="1" width="11.999999999999996" height="0"></rect></g><g class="bar" transform="translate(481,310)"><rect x="1" width="11.999999999999996" height="0"></rect></g><g class="bar" transform="translate(494.00000000000006,310)"><rect x="1" width="11.999999999999996" height="0"></rect></g><g class="bar" transform="translate(507.00000000000006,310)"><rect x="1" width="11.999999999999996" height="0"></rect></g><g class="axis axis--x" transform="translate(0,310)" fill="none" font-size="10" font-family="sans-serif" text-anchor="middle"><path class="domain" stroke="#000" d="M0.5,6V0.5H520.5V6"></path><g class="tick" opacity="1" transform="translate(0,0)"><line stroke="#000" y2="6" x1="0.5" x2="0.5"></line><text fill="#000" y="9" x="0.5" dy="0.71em">0.01</text></g><g class="tick" opacity="1" transform="translate(130,0)"><line stroke="#000" y2="6" x1="0.5" x2="0.5"></line><text fill="#000" y="9" x="0.5" dy="0.71em">1</text></g><g class="tick" opacity="1" transform="translate(260,0)"><line stroke="#000" y2="6" x1="0.5" x2="0.5"></line><text fill="#000" y="9" x="0.5" dy="0.71em">100</text></g><g class="tick" opacity="1" transform="translate(390,0)"><line stroke="#000" y2="6" x1="0.5" x2="0.5"></line><text fill="#000" y="9" x="0.5" dy="0.71em">10000</text></g><g class="tick" opacity="1" transform="translate(520,0)"><line stroke="#000" y2="6" x1="0.5" x2="0.5"></line><text fill="#000" y="9" x="0.5" dy="0.71em"></text></g></g><g class="axis axis--y" fill="none" font-size="10" font-family="sans-serif" text-anchor="end"><path class="domain" stroke="#000" d="M-6,310.5H0.5V0.5H-6"></path><g class="tick" opacity="1" transform="translate(0,310)"><line stroke="#000" x2="-6" y1="0.5" y2="0.5"></line><text fill="#000" x="-9" y="0.5" dy="0.32em">0</text></g><g class="tick" opacity="1" transform="translate(0,287.6978417266187)"><line stroke="#000" x2="-6" y1="0.5" y2="0.5"></line><text fill="#000" x="-9" y="0.5" dy="0.32em">10</text></g><g class="tick" opacity="1" transform="translate(0,265.39568345323744)"><line stroke="#000" x2="-6" y1="0.5" y2="0.5"></line><text fill="#000" x="-9" y="0.5" dy="0.32em">20</text></g><g class="tick" opacity="1" transform="translate(0,243.0935251798561)"><line stroke="#000" x2="-6" y1="0.5" y2="0.5"></line><text fill="#000" x="-9" y="0.5" dy="0.32em">30</text></g><g class="tick" opacity="1" transform="translate(0,220.79136690647482)"><line stroke="#000" x2="-6" y1="0.5" y2="0.5"></line><text fill="#000" x="-9" y="0.5" dy="0.32em">40</text></g><g class="tick" opacity="1" transform="translate(0,198.48920863309354)"><line stroke="#000" x2="-6" y1="0.5" y2="0.5"></line><text fill="#000" x="-9" y="0.5" dy="0.32em">50</text></g><g class="tick" opacity="1" transform="translate(0,176.18705035971223)"><line stroke="#000" x2="-6" y1="0.5" y2="0.5"></line><text fill="#000" x="-9" y="0.5" dy="0.32em">60</text></g><g class="tick" opacity="1" transform="translate(0,153.88489208633095)"><line stroke="#000" x2="-6" y1="0.5" y2="0.5"></line><text fill="#000" x="-9" y="0.5" dy="0.32em">70</text></g><g class="tick" opacity="1" transform="translate(0,131.58273381294964)"><line stroke="#000" x2="-6" y1="0.5" y2="0.5"></line><text fill="#000" x="-9" y="0.5" dy="0.32em">80</text></g><g class="tick" opacity="1" transform="translate(0,109.28057553956836)"><line stroke="#000" x2="-6" y1="0.5" y2="0.5"></line><text fill="#000" x="-9" y="0.5" dy="0.32em">90</text></g><g class="tick" opacity="1" transform="translate(0,86.97841726618705)"><line stroke="#000" x2="-6" y1="0.5" y2="0.5"></line><text fill="#000" x="-9" y="0.5" dy="0.32em">100</text></g><g class="tick" opacity="1" transform="translate(0,64.67625899280577)"><line stroke="#000" x2="-6" y1="0.5" y2="0.5"></line><text fill="#000" x="-9" y="0.5" dy="0.32em">110</text></g><g class="tick" opacity="1" transform="translate(0,42.37410071942446)"><line stroke="#000" x2="-6" y1="0.5" y2="0.5"></line><text fill="#000" x="-9" y="0.5" dy="0.32em">120</text></g><g class="tick" opacity="1" transform="translate(0,20.07194244604318)"><line stroke="#000" x2="-6" y1="0.5" y2="0.5"></line><text fill="#000" x="-9" y="0.5" dy="0.32em">130</text></g></g></g></svg>