<svg xmlns="http://www.w3.org/2000/svg" width="280" height="160"><defs><style type="text/css"><![CDATA[ 
.bar rect {
  fill-opacity: 0;
  stroke:       black;
  stroke-width: 0.5;
}

.highlight rect {
  fill:       red;
  fill-opacity: 1;
}
.axis path,
.axis line {
  fill: none;
  stroke: #000;
  shape-rendering: crispEdges;
}
path {
    stroke: red;
    fill: none;
}

line {
    stroke: red;
}

path.marker {
    fill: red;
}
 ]]></style></defs><g transform="translate(50,10)"><g class="bar" transform="translate(0,100.94003241491086)"><rect x="1" width="11.5" height="19.05996758508914"></rect></g><g class="bar" transform="translate(12.5,78.18476499189627)"><rect x="1" width="11.5" height="41.81523500810373"></rect></g><g class="bar" transform="translate(25,52.512155591572125)"><rect x="1" width="11.5" height="67.48784440842788"></rect></g><g class="bar" transform="translate(37.5,46.094003241491095)"><rect x="1" width="11.5" height="73.9059967585089"></rect></g><g class="bar" transform="translate(50,36.56401944894651)"><rect x="1" width="11.5" height="83.43598055105349"></rect></g><g class="bar" transform="translate(62.5,56.01296596434359)"><rect x="1" width="11.5" height="63.98703403565641"></rect></g><g class="bar" transform="translate(75,36.56401944894651)"><rect x="1" width="11.5" height="83.43598055105349"></rect></g><g class="bar" transform="translate(87.5,18.08752025931929)"><rect x="1" width="11.5" height="101.91247974068071"></rect></g><g class="bar" transform="translate(100,0)"><rect x="1" width="11.5" height="120"></rect></g><g class="bar" transform="translate(112.5,22.560777957860623)"><rect x="1" width="11.5" height="97.43922204213938"></rect></g><g class="bar" transform="translate(125,77.79578606158833)"><rect x="1" width="11.5" height="42.20421393841167"></rect></g><g class="bar" transform="translate(137.5,113.58184764991896)"><rect x="1" width="11.5" height="6.418152350081044"></rect></g><g class="bar" transform="translate(150,119.61102106969206)"><rect x="1" width="11.5" height="0.3889789303079425"></rect></g><g class="bar" transform="translate(162.5,120)"><rect x="1" width="11.5" height="0"></rect></g><g class="bar" transform="translate(175,120)"><rect x="1" width="11.5" height="0"></rect></g><g class="bar" transform="translate(187.5,120)"><rect x="1" width="11.5" height="0"></rect></g></g></svg>