<svg xmlns="http://www.w3.org/2000/svg" width="600" height="350"><defs><style type="text/css"><![CDATA[ 
.bar rect {
  fill-opacity: 0;
  stroke:       black;
  stroke-width: 0.5;
}

.highlight rect {
  fill:       red;
  fill-opacity: 1;
}
.axis path,
.axis line {
  fill: none;
  stroke: #000;
  shape-rendering: crispEdges;
}
path {
    stroke: red;
    fill: none;
}

line {
    stroke: red;
}

path.marker {
    fill: red;
}
 ]]></style></defs><g transform="translate(50,10)"><g class="bar" transform="translate(0,281.05058365758754)"><rect x="1" width="11.999999999999996" height="28.949416342412462"></rect></g><g class="bar" transform="translate(12.999999999999996,256.9260700389105)"><rect x="1" width="11.999999999999996" height="53.073929961089505"></rect></g><g class="bar" transform="translate(25.999999999999993,229.1828793774319)"><rect x="1" width="11.999999999999996" height="80.8171206225681"></rect></g><g class="bar" transform="translate(39.00000000000001,202.64591439688718)"><rect x="1" width="11.999999999999996" height="107.35408560311282"></rect></g><g class="bar" transform="translate(52,202.64591439688718)"><rect x="1" width="11.999999999999996" height="107.35408560311282"></rect></g><g class="bar" transform="translate(65,156.80933852140078)"><rect x="1" width="11.999999999999996" height="153.19066147859922"></rect></g><g class="bar" transform="translate(78.00000000000001,139.92217898832683)"><rect x="1" width="11.999999999999996" height="170.07782101167317"></rect></g><g class="bar" transform="translate(91.00000000000001,130.27237354085602)"><rect x="1" width="11.999999999999996" height="179.72762645914398"></rect></g><g class="bar" transform="translate(104,138.715953307393)"><rect x="1" width="11.999999999999996" height="171.284046692607"></rect></g><g class="bar" transform="translate(117,107.35408560311285)"><rect x="1" width="11.999999999999996" height="202.64591439688715"></rect></g><g class="bar" transform="translate(130,98.91050583657588)"><rect x="1" width="11.999999999999996" height="211.08949416342412"></rect></g><g class="bar" transform="translate(143,112.17898832684827)"><rect x="1" width="11.999999999999996" height="197.82101167315173"></rect></g><g class="bar" transform="translate(156.00000000000003,108.56031128404669)"><rect x="1" width="11.999999999999996" height="201.4396887159533"></rect></g><g class="bar" transform="translate(169,144.74708171206225)"><rect x="1" width="11.999999999999996" height="165.25291828793775"></rect></g><g class="bar" transform="translate(182.00000000000003,171.284046692607)"><rect x="1" width="11.999999999999996" height="138.715953307393"></rect></g><g class="bar" transform="translate(195,119.41634241245134)"><rect x="1" width="11.999999999999996" height="190.58365758754866"></rect></g><g class="bar" transform="translate(208,91.67315175097275)"><rect x="1" width="11.999999999999996" height="218.32684824902725"></rect></g><g class="bar" transform="translate(221.00000000000003,97.70428015564201)"><rect x="1" width="11.999999999999996" height="212.295719844358"></rect></g><g class="bar" transform="translate(234,57.898832684824896)"><rect x="1" width="11.999999999999996" height="252.1011673151751"></rect></g><g class="bar" transform="translate(247.00000000000003,33.774319066147825)"><rect x="1" width="11.999999999999996" height="276.2256809338522"></rect></g><g class="bar" transform="translate(260,0)"><rect x="1" width="11.999999999999996" height="310"></rect></g><g class="bar" transform="translate(273,32.56809338521401)"><rect x="1" width="11.999999999999996" height="277.431906614786"></rect></g><g class="bar" transform="translate(286,10.856031128404652)"><rect x="1" width="11.999999999999996" height="299.14396887159535"></rect></g><g class="bar" transform="translate(299.00000000000006,38.599221789883245)"><rect x="1" width="11.999999999999996" height="271.40077821011675"></rect></g><g class="bar" transform="translate(312.00000000000006,119.41634241245134)"><rect x="1" width="11.999999999999996" height="190.58365758754866"></rect></g><g class="bar" transform="translate(325,176.1089494163424)"><rect x="1" width="11.999999999999996" height="133.8910505836576"></rect></g><g class="bar" transform="translate(338,215.91439688715954)"><rect x="1" width="11.999999999999996" height="94.08560311284046"></rect></g><g class="bar" transform="translate(351,265.36964980544747)"><rect x="1" width="11.999999999999996" height="44.630350194552534"></rect></g><g class="bar" transform="translate(364.00000000000006,287.0817120622568)"><rect x="1" width="11.999999999999996" height="22.918287937743173"></rect></g><g class="bar" transform="translate(377.00000000000006,303.9688715953307)"><rect x="1" width="11.999999999999996" height="6.031128404669289"></rect></g><g class="bar" transform="translate(390,308.79377431906613)"><rect x="1" width="11.999999999999996" height="1.2062256809338692"></rect></g><g class="bar" transform="translate(403,308.79377431906613)"><rect x="1" width="11.999999999999996" height="1.2062256809338692"></rect></g><g class="bar" transform="translate(416,310)"><rect x="1" width="11.999999999999996" height="0"></rect></g><g class="bar" transform="translate(429.00000000000006,310)"><rect x="1" width="11.999999999999996" height="0"></rect></g><g class="bar" transform="translate(442.00000000000006,310)"><rect x="1" width="11.999999999999996" height="0"></rect></g><g class="bar" transform="translate(455,310)"><rect x="1" width="11.999999999999996" height="0"></rect></g><g class="bar" transform="translate(468,310)"><rect x="1" width="11.999999999999996" height="0"></rect></g><g class="bar" transform="translate(481,310)"><rect x="1" width="11.999999999999996" height="0"></rect></g><g class="bar" transform="translate(494.00000000000006,310)"><rect x="1" width="11.999999999999996" height="0"></rect></g><g class="bar" transform="translate(507.00000000000006,310)"><rect x="1" width="11.999999999999996" height="0"></rect></g><g class="axis axis--x" transform="translate(0,310)" fill="none" font-size="10" font-family="sans-serif" text-anchor="middle"><path class="domain" stroke="#000" d="M0.5,6V0.5H520.5V6"></path><g class="tick" opacity="1" transform="translate(0.5,0)"><line stroke="#000" y2="6"></line><text fill="#000" y="9" dy="0.71em">0.01</text></g><g class="tick" opacity="1" transform="translate(130.5,0)"><line stroke="#000" y2="6"></line><text fill="#000" y="9" dy="0.71em">1</text></g><g class="tick" opacity="1" transform="translate(260.5,0)"><line stroke="#000" y2="6"></line><text fill="#000" y="9" dy="0.71em">100</text></g><g class="tick" opacity="1" transform="translate(390.5,0)"><line stroke="#000" y2="6"></line><text fill="#000" y="9" dy="0.71em">10000</text></g><g class="tick" opacity="1" transform="translate(520.5,0)"><line stroke="#000" y2="6"></line><text fill="#000" y="9" dy="0.71em"></text></g></g><g class="axis axis--y" fill="none" font-size="10" font-family="sans-serif" text-anchor="end"><path class="domain" stroke="#000" d="M-6,310.5H0.5V0.5H-6"></path><g class="tick" opacity="1" transform="translate(0,310.5)"><line stroke="#000" x2="-6"></line><text fill="#000" x="-9" dy="0.32em">0</text></g><g class="tick" opacity="1" transform="translate(0,286.37548638132296)"><line stroke="#000" x2="-6"></line><text fill="#000" x="-9" dy="0.32em">20</text></g><g class="tick" opacity="1" transform="translate(0,262.2509727626459)"><line stroke="#000" x2="-6"></line><text fill="#000" x="-9" dy="0.32em">40</text></g><g class="tick" opacity="1" transform="translate(0,238.12645914396887)"><line stroke="#000" x2="-6"></line><text fill="#000" x="-9" dy="0.32em">60</text></g><g class="tick" opacity="1" transform="translate(0,214.00194552529183)"><line stroke="#000" x2="-6"></line><text fill="#000" x="-9" dy="0.32em">80</text></g><g class="tick" opacity="1" transform="translate(0,189.8774319066148)"><line stroke="#000" x2="-6"></line><text fill="#000" x="-9" dy="0.32em">100</text></g><g class="tick" opacity="1" transform="translate(0,165.75291828793775)"><line stroke="#000" x2="-6"></line><text fill="#000" x="-9" dy="0.32em">120</text></g><g class="tick" opacity="1" transform="translate(0,141.6284046692607)"><line stroke="#000" x2="-6"></line><text fill="#000" x="-9" dy="0.32em">140</text></g><g class="tick" opacity="1" transform="translate(0,117.50389105058366)"><line stroke="#000" x2="-6"></line><text fill="#000" x="-9" dy="0.32em">160</text></g><g class="tick" opacity="1" transform="translate(0,93.37937743190662)"><line stroke="#000" x2="-6"></line><text fill="#000" x="-9" dy="0.32em">180</text></g><g class="tick" opacity="1" transform="translate(0,69.25486381322958)"><line stroke="#000" x2="-6"></line><text fill="#000" x="-9" dy="0.32em">200</text></g><g class="tick" opacity="1" transform="translate(0,45.130350194552534)"><line stroke="#000" x2="-6"></line><text fill="#000" x="-9" dy="0.32em">220</text></g><g class="tick" opacity="1" transform="translate(0,21.00583657587549)"><line stroke="#000" x2="-6"></line><text fill="#000" x="-9" dy="0.32em">240</text></g></g></g></svg>