<svg xmlns="http://www.w3.org/2000/svg" width="600" height="350"><defs><style type="text/css"><![CDATA[ 
.bar rect {
  fill-opacity: 0;
  stroke:       black;
  stroke-width: 0.5;
}

.highlight rect {
  fill:       red;
  fill-opacity: 1;
}
.axis path,
.axis line {
  fill: none;
  stroke: #000;
  shape-rendering: crispEdges;
}
path {
    stroke: red;
    fill: none;
}

line {
    stroke: red;
}

path.marker {
    fill: red;
}
 ]]></style></defs><g transform="translate(50,10)"><g class="bar" transform="translate(0,310)"><rect x="1" width="11.999999999999996" height="0"></rect></g><g class="bar" transform="translate(12.999999999999996,310)"><rect x="1" width="11.999999999999996" height="0"></rect></g><g class="bar" transform="translate(25.999999999999993,310)"><rect x="1" width="11.999999999999996" height="0"></rect></g><g class="bar" transform="translate(39.00000000000001,310)"><rect x="1" width="11.999999999999996" height="0"></rect></g><g class="bar" transform="translate(52,310)"><rect x="1" width="11.999999999999996" height="0"></rect></g><g class="bar" transform="translate(65,310)"><rect x="1" width="11.999999999999996" height="0"></rect></g><g class="bar" transform="translate(78.00000000000001,310)"><rect x="1" width="11.999999999999996" height="0"></rect></g><g class="bar" transform="translate(91.00000000000001,310)"><rect x="1" width="11.999999999999996" height="0"></rect></g><g class="bar" transform="translate(104,310)"><rect x="1" width="11.999999999999996" height="0"></rect></g><g class="bar" transform="translate(117,310)"><rect x="1" width="11.999999999999996" height="0"></rect></g><g class="bar" transform="translate(130,306.70212765957444)"><rect x="1" width="11.999999999999996" height="3.297872340425556"></rect></g><g class="bar" transform="translate(143,310)"><rect x="1" width="11.999999999999996" height="0"></rect></g><g class="bar" transform="translate(156.00000000000003,310)"><rect x="1" width="11.999999999999996" height="0"></rect></g><g class="bar" transform="translate(169,303.40425531914894)"><rect x="1" width="11.999999999999996" height="6.595744680851055"></rect></g><g class="bar" transform="translate(182.00000000000003,306.70212765957444)"><rect x="1" width="11.999999999999996" height="3.297872340425556"></rect></g><g class="bar" transform="translate(195,293.51063829787233)"><rect x="1" width="11.999999999999996" height="16.489361702127667"></rect></g><g class="bar" transform="translate(208,283.6170212765957)"><rect x="1" width="11.999999999999996" height="26.38297872340428"></rect></g><g class="bar" transform="translate(221.00000000000003,237.44680851063828)"><rect x="1" width="11.999999999999996" height="72.55319148936172"></rect></g><g class="bar" transform="translate(234,211.06382978723406)"><rect x="1" width="11.999999999999996" height="98.93617021276594"></rect></g><g class="bar" transform="translate(247.00000000000003,141.8085106382979)"><rect x="1" width="11.999999999999996" height="168.1914893617021"></rect></g><g class="bar" transform="translate(260,19.787234042553166)"><rect x="1" width="11.999999999999996" height="290.21276595744683"></rect></g><g class="bar" transform="translate(273,0)"><rect x="1" width="11.999999999999996" height="310"></rect></g><g class="bar" transform="translate(286,9.893617021276611)"><rect x="1" width="11.999999999999996" height="300.1063829787234"></rect></g><g class="bar" transform="translate(299.00000000000006,42.872340425531945)"><rect x="1" width="11.999999999999996" height="267.12765957446805"></rect></g><g class="bar" transform="translate(312.00000000000006,49.468085106382944)"><rect x="1" width="11.999999999999996" height="260.53191489361706"></rect></g><g class="bar" transform="translate(325,178.08510638297872)"><rect x="1" width="11.999999999999996" height="131.91489361702128"></rect></g><g class="bar" transform="translate(338,174.7872340425532)"><rect x="1" width="11.999999999999996" height="135.2127659574468"></rect></g><g class="bar" transform="translate(351,237.44680851063828)"><rect x="1" width="11.999999999999996" height="72.55319148936172"></rect></g><g class="bar" transform="translate(364.00000000000006,230.85106382978722)"><rect x="1" width="11.999999999999996" height="79.14893617021278"></rect></g><g class="bar" transform="translate(377.00000000000006,263.82978723404256)"><rect x="1" width="11.999999999999996" height="46.170212765957444"></rect></g><g class="bar" transform="translate(390,283.6170212765957)"><rect x="1" width="11.999999999999996" height="26.38297872340428"></rect></g><g class="bar" transform="translate(403,293.51063829787233)"><rect x="1" width="11.999999999999996" height="16.489361702127667"></rect></g><g class="bar" transform="translate(416,300.1063829787234)"><rect x="1" width="11.999999999999996" height="9.893617021276611"></rect></g><g class="bar" transform="translate(429.00000000000006,306.70212765957444)"><rect x="1" width="11.999999999999996" height="3.297872340425556"></rect></g><g class="bar" transform="translate(442.00000000000006,306.70212765957444)"><rect x="1" width="11.999999999999996" height="3.297872340425556"></rect></g><g class="bar" transform="translate(455,310)"><rect x="1" width="11.999999999999996" height="0"></rect></g><g class="bar" transform="translate(468,310)"><rect x="1" width="11.999999999999996" height="0"></rect></g><g class="bar" transform="translate(481,310)"><rect x="1" width="11.999999999999996" height="0"></rect></g><g class="bar" transform="translate(494.00000000000006,310)"><rect x="1" width="11.999999999999996" height="0"></rect></g><g class="bar" transform="translate(507.00000000000006,310)"><rect x="1" width="11.999999999999996" height="0"></rect></g><g class="axis axis--x" transform="translate(0,310)" fill="none" font-size="10" font-family="sans-serif" text-anchor="middle"><path class="domain" stroke="#000" d="M0.5,6V0.5H520.5V6"></path><g class="tick" opacity="1" transform="translate(0.5,0)"><line stroke="#000" y2="6"></line><text fill="#000" y="9" dy="0.71em">0.01</text></g><g class="tick" opacity="1" transform="translate(130.5,0)"><line stroke="#000" y2="6"></line><text fill="#000" y="9" dy="0.71em">1</text></g><g class="tick" opacity="1" transform="translate(260.5,0)"><line stroke="#000" y2="6"></line><text fill="#000" y="9" dy="0.71em">100</text></g><g class="tick" opacity="1" transform="translate(390.5,0)"><line stroke="#000" y2="6"></line><text fill="#000" y="9" dy="0.71em">10000</text></g><g class="tick" opacity="1" transform="translate(520.5,0)"><line stroke="#000" y2="6"></line><text fill="#000" y="9" dy="0.71em"></text></g></g><g class="axis axis--y" fill="none" font-size="10" font-family="sans-serif" text-anchor="end"><path class="domain" stroke="#000" d="M-6,310.5H0.5V0.5H-6"></path><g class="tick" opacity="1" transform="translate(0,310.5)"><line stroke="#000" x2="-6"></line><text fill="#000" x="-9" dy="0.32em">0</text></g><g class="tick" opacity="1" transform="translate(0,277.52127659574467)"><line stroke="#000" x2="-6"></line><text fill="#000" x="-9" dy="0.32em">10</text></g><g class="tick" opacity="1" transform="translate(0,244.54255319148936)"><line stroke="#000" x2="-6"></line><text fill="#000" x="-9" dy="0.32em">20</text></g><g class="tick" opacity="1" transform="translate(0,211.56382978723406)"><line stroke="#000" x2="-6"></line><text fill="#000" x="-9" dy="0.32em">30</text></g><g class="tick" opacity="1" transform="translate(0,178.58510638297872)"><line stroke="#000" x2="-6"></line><text fill="#000" x="-9" dy="0.32em">40</text></g><g class="tick" opacity="1" transform="translate(0,145.60638297872342)"><line stroke="#000" x2="-6"></line><text fill="#000" x="-9" dy="0.32em">50</text></g><g class="tick" opacity="1" transform="translate(0,112.62765957446808)"><line stroke="#000" x2="-6"></line><text fill="#000" x="-9" dy="0.32em">60</text></g><g class="tick" opacity="1" transform="translate(0,79.64893617021278)"><line stroke="#000" x2="-6"></line><text fill="#000" x="-9" dy="0.32em">70</text></g><g class="tick" opacity="1" transform="translate(0,46.670212765957444)"><line stroke="#000" x2="-6"></line><text fill="#000" x="-9" dy="0.32em">80</text></g><g class="tick" opacity="1" transform="translate(0,13.69148936170211)"><line stroke="#000" x2="-6"></line><text fill="#000" x="-9" dy="0.32em">90</text></g></g></g></svg>