<svg xmlns="http://www.w3.org/2000/svg" width="600" height="350"><defs><style type="text/css"><![CDATA[ 
.bar rect {
  fill-opacity: 0;
  stroke:       black;
  stroke-width: 0.5;
}

.highlight rect {
  fill:       red;
  fill-opacity: 1;
}
.axis path,
.axis line {
  fill: none;
  stroke: #000;
  shape-rendering: crispEdges;
}
 ]]></style></defs><g transform="translate(50,10)"><g class="bar" transform="translate(0,219.55963302752292)"><rect x="1" width="11.999999999999996" height="90.44036697247708"></rect></g><g class="bar" transform="translate(12.999999999999996,193.01529051987768)"><rect x="1" width="11.999999999999996" height="116.98470948012232"></rect></g><g class="bar" transform="translate(25.999999999999993,221.07645259938838)"><rect x="1" width="11.999999999999996" height="88.92354740061162"></rect></g><g class="bar" transform="translate(39.00000000000001,201.5474006116208)"><rect x="1" width="11.999999999999996" height="108.45259938837921"></rect></g><g class="bar" transform="translate(52,182.39755351681958)"><rect x="1" width="11.999999999999996" height="127.60244648318042"></rect></g><g class="bar" transform="translate(65,131.20489296636086)"><rect x="1" width="11.999999999999996" height="178.79510703363914"></rect></g><g class="bar" transform="translate(78.00000000000001,83.42507645259937)"><rect x="1" width="11.999999999999996" height="226.57492354740063"></rect></g><g class="bar" transform="translate(91.00000000000001,21.23547400611625)"><rect x="1" width="11.999999999999996" height="288.76452599388375"></rect></g><g class="bar" transform="translate(104,0)"><rect x="1" width="11.999999999999996" height="310"></rect></g><g class="bar" transform="translate(117,51.95107033639147)"><rect x="1" width="11.999999999999996" height="258.04892966360853"></rect></g><g class="bar" transform="translate(130,83.61467889908255)"><rect x="1" width="11.999999999999996" height="226.38532110091745"></rect></g><g class="bar" transform="translate(143,134.42813455657492)"><rect x="1" width="11.999999999999996" height="175.57186544342508"></rect></g><g class="bar" transform="translate(156.00000000000003,167.98776758409787)"><rect x="1" width="11.999999999999996" height="142.01223241590213"></rect></g><g class="bar" transform="translate(169,191.30886850152905)"><rect x="1" width="11.999999999999996" height="118.69113149847095"></rect></g><g class="bar" transform="translate(182.00000000000003,191.30886850152905)"><rect x="1" width="11.999999999999996" height="118.69113149847095"></rect></g><g class="bar" transform="translate(195,188.8440366972477)"><rect x="1" width="11.999999999999996" height="121.1559633027523"></rect></g><g class="bar" transform="translate(208,199.4617737003058)"><rect x="1" width="11.999999999999996" height="110.5382262996942"></rect></g><g class="bar" transform="translate(221.00000000000003,192.44648318042815)"><rect x="1" width="11.999999999999996" height="117.55351681957185"></rect></g><g class="bar" transform="translate(234,182.9663608562691)"><rect x="1" width="11.999999999999996" height="127.03363914373091"></rect></g><g class="bar" transform="translate(247.00000000000003,197.3761467889908)"><rect x="1" width="11.999999999999996" height="112.62385321100919"></rect></g><g class="bar" transform="translate(260,219.93883792048928)"><rect x="1" width="11.999999999999996" height="90.06116207951072"></rect></g><g class="bar" transform="translate(273,244.39755351681958)"><rect x="1" width="11.999999999999996" height="65.60244648318042"></rect></g><g class="bar" transform="translate(286,266.96024464831805)"><rect x="1" width="11.999999999999996" height="43.03975535168195"></rect></g><g class="bar" transform="translate(299.00000000000006,274.9235474006116)"><rect x="1" width="11.999999999999996" height="35.0764525993884"></rect></g><g class="bar" transform="translate(312.00000000000006,282.8868501529052)"><rect x="1" width="11.999999999999996" height="27.113149847094803"></rect></g><g class="bar" transform="translate(325,298.434250764526)"><rect x="1" width="11.999999999999996" height="11.565749235474016"></rect></g><g class="bar" transform="translate(338,304.8807339449541)"><rect x="1" width="11.999999999999996" height="5.119266055045898"></rect></g><g class="bar" transform="translate(351,306.0183486238532)"><rect x="1" width="11.999999999999996" height="3.981651376146772"></rect></g><g class="bar" transform="translate(364.00000000000006,308.1039755351682)"><rect x="1" width="11.999999999999996" height="1.8960244648317826"></rect></g><g class="bar" transform="translate(377.00000000000006,309.0519877675841)"><rect x="1" width="11.999999999999996" height="0.9480122324159197"></rect></g><g class="bar" transform="translate(390,309.2415902140673)"><rect x="1" width="11.999999999999996" height="0.758409785932713"></rect></g><g class="bar" transform="translate(403,309.2415902140673)"><rect x="1" width="11.999999999999996" height="0.758409785932713"></rect></g><g class="bar" transform="translate(416,310)"><rect x="1" width="11.999999999999996" height="0"></rect></g><g class="bar" transform="translate(429.00000000000006,309.8103975535168)"><rect x="1" width="11.999999999999996" height="0.18960244648320668"></rect></g><g class="bar" transform="translate(442.00000000000006,310)"><rect x="1" width="11.999999999999996" height="0"></rect></g><g class="bar" transform="translate(455,310)"><rect x="1" width="11.999999999999996" height="0"></rect></g><g class="bar" transform="translate(468,310)"><rect x="1" width="11.999999999999996" height="0"></rect></g><g class="bar" transform="translate(481,310)"><rect x="1" width="11.999999999999996" height="0"></rect></g><g class="bar" transform="translate(494.00000000000006,310)"><rect x="1" width="11.999999999999996" height="0"></rect></g><g class="bar" transform="translate(507.00000000000006,310)"><rect x="1" width="11.999999999999996" height="0"></rect></g><g class="axis axis--x" transform="translate(0,310)" fill="none" font-size="10" font-family="sans-serif" text-anchor="middle"><path class="domain" stroke="#000" d="M0.5,6V0.5H520.5V6"></path><g class="tick" opacity="1" transform="translate(0,0)"><line stroke="#000" y2="6" x1="0.5" x2="0.5"></line><text fill="#000" y="9" x="0.5" dy="0.71em">0.01</text></g><g class="tick" opacity="1" transform="translate(130,0)"><line stroke="#000" y2="6" x1="0.5" x2="0.5"></line><text fill="#000" y="9" x="0.5" dy="0.71em">1</text></g><g class="tick" opacity="1" transform="translate(260,0)"><line stroke="#000" y2="6" x1="0.5" x2="0.5"></line><text fill="#000" y="9" x="0.5" dy="0.71em">100</text></g><g class="tick" opacity="1" transform="translate(390,0)"><line stroke="#000" y2="6" x1="0.5" x2="0.5"></line><text fill="#000" y="9" x="0.5" dy="0.71em">10000</text></g><g class="tick" opacity="1" transform="translate(520,0)"><line stroke="#000" y2="6" x1="0.5" x2="0.5"></line><text fill="#000" y="9" x="0.5" dy="0.71em"></text></g></g><g class="axis axis--y" fill="none" font-size="10" font-family="sans-serif" text-anchor="end"><path class="domain" stroke="#000" d="M-6,310.5H0.5V0.5H-6"></path><g class="tick" opacity="1" transform="translate(0,310)"><line stroke="#000" x2="-6" y1="0.5" y2="0.5"></line><text fill="#000" x="-9" y="0.5" dy="0.32em">0</text></g><g class="tick" opacity="1" transform="translate(0,272.0795107033639)"><line stroke="#000" x2="-6" y1="0.5" y2="0.5"></line><text fill="#000" x="-9" y="0.5" dy="0.32em">200</text></g><g class="tick" opacity="1" transform="translate(0,234.15902140672785)"><line stroke="#000" x2="-6" y1="0.5" y2="0.5"></line><text fill="#000" x="-9" y="0.5" dy="0.32em">400</text></g><g class="tick" opacity="1" transform="translate(0,196.23853211009174)"><line stroke="#000" x2="-6" y1="0.5" y2="0.5"></line><text fill="#000" x="-9" y="0.5" dy="0.32em">600</text></g><g class="tick" opacity="1" transform="translate(0,158.31804281345566)"><line stroke="#000" x2="-6" y1="0.5" y2="0.5"></line><text fill="#000" x="-9" y="0.5" dy="0.32em">800</text></g><g class="tick" opacity="1" transform="translate(0,120.39755351681958)"><line stroke="#000" x2="-6" y1="0.5" y2="0.5"></line><text fill="#000" x="-9" y="0.5" dy="0.32em">1,000</text></g><g class="tick" opacity="1" transform="translate(0,82.47706422018348)"><line stroke="#000" x2="-6" y1="0.5" y2="0.5"></line><text fill="#000" x="-9" y="0.5" dy="0.32em">1,200</text></g><g class="tick" opacity="1" transform="translate(0,44.55657492354737)"><line stroke="#000" x2="-6" y1="0.5" y2="0.5"></line><text fill="#000" x="-9" y="0.5" dy="0.32em">1,400</text></g><g class="tick" opacity="1" transform="translate(0,6.636085626911324)"><line stroke="#000" x2="-6" y1="0.5" y2="0.5"></line><text fill="#000" x="-9" y="0.5" dy="0.32em">1,600</text></g></g></g></svg>