<svg xmlns="http://www.w3.org/2000/svg" width="600" height="350"><defs><style type="text/css"><![CDATA[ 
.bar rect {
  fill-opacity: 0;
  stroke:       black;
  stroke-width: 0.5;
}

.highlight rect {
  fill:       red;
  fill-opacity: 1;
}
.axis path,
.axis line {
  fill: none;
  stroke: #000;
  shape-rendering: crispEdges;
}
path {
    stroke: red;
    fill: none;
}

line {
    stroke: red;
}

path.marker {
    fill: red;
}
 ]]></style></defs><g transform="translate(50,10)"><g class="bar" transform="translate(0,310)"><rect x="1" width="11.999999999999996" height="0"></rect></g><g class="bar" transform="translate(12.999999999999996,310)"><rect x="1" width="11.999999999999996" height="0"></rect></g><g class="bar" transform="translate(25.999999999999993,310)"><rect x="1" width="11.999999999999996" height="0"></rect></g><g class="bar" transform="translate(39.00000000000001,310)"><rect x="1" width="11.999999999999996" height="0"></rect></g><g class="bar" transform="translate(52,310)"><rect x="1" width="11.999999999999996" height="0"></rect></g><g class="bar" transform="translate(65,310)"><rect x="1" width="11.999999999999996" height="0"></rect></g><g class="bar" transform="translate(78.00000000000001,310)"><rect x="1" width="11.999999999999996" height="0"></rect></g><g class="bar" transform="translate(91.00000000000001,310)"><rect x="1" width="11.999999999999996" height="0"></rect></g><g class="bar" transform="translate(104,310)"><rect x="1" width="11.999999999999996" height="0"></rect></g><g class="bar" transform="translate(117,310)"><rect x="1" width="11.999999999999996" height="0"></rect></g><g class="bar" transform="translate(130,310)"><rect x="1" width="11.999999999999996" height="0"></rect></g><g class="bar" transform="translate(143,310)"><rect x="1" width="11.999999999999996" height="0"></rect></g><g class="bar" transform="translate(156.00000000000003,307.1296296296296)"><rect x="1" width="11.999999999999996" height="2.870370370370381"></rect></g><g class="bar" transform="translate(169,292.77777777777777)"><rect x="1" width="11.999999999999996" height="17.22222222222223"></rect></g><g class="bar" transform="translate(182.00000000000003,272.6851851851852)"><rect x="1" width="11.999999999999996" height="37.31481481481478"></rect></g><g class="bar" transform="translate(195,229.62962962962962)"><rect x="1" width="11.999999999999996" height="80.37037037037038"></rect></g><g class="bar" transform="translate(208,215.27777777777777)"><rect x="1" width="11.999999999999996" height="94.72222222222223"></rect></g><g class="bar" transform="translate(221.00000000000003,134.90740740740742)"><rect x="1" width="11.999999999999996" height="175.09259259259258"></rect></g><g class="bar" transform="translate(234,103.33333333333334)"><rect x="1" width="11.999999999999996" height="206.66666666666666"></rect></g><g class="bar" transform="translate(247.00000000000003,60.27777777777777)"><rect x="1" width="11.999999999999996" height="249.72222222222223"></rect></g><g class="bar" transform="translate(260,0)"><rect x="1" width="11.999999999999996" height="310"></rect></g><g class="bar" transform="translate(273,2.870370370370381)"><rect x="1" width="11.999999999999996" height="307.1296296296296"></rect></g><g class="bar" transform="translate(286,71.75925925925927)"><rect x="1" width="11.999999999999996" height="238.24074074074073"></rect></g><g class="bar" transform="translate(299.00000000000006,68.88888888888889)"><rect x="1" width="11.999999999999996" height="241.11111111111111"></rect></g><g class="bar" transform="translate(312.00000000000006,111.94444444444446)"><rect x="1" width="11.999999999999996" height="198.05555555555554"></rect></g><g class="bar" transform="translate(325,132.03703703703704)"><rect x="1" width="11.999999999999996" height="177.96296296296296"></rect></g><g class="bar" transform="translate(338,180.83333333333331)"><rect x="1" width="11.999999999999996" height="129.16666666666669"></rect></g><g class="bar" transform="translate(351,189.44444444444446)"><rect x="1" width="11.999999999999996" height="120.55555555555554"></rect></g><g class="bar" transform="translate(364.00000000000006,223.88888888888889)"><rect x="1" width="11.999999999999996" height="86.11111111111111"></rect></g><g class="bar" transform="translate(377.00000000000006,292.77777777777777)"><rect x="1" width="11.999999999999996" height="17.22222222222223"></rect></g><g class="bar" transform="translate(390,275.55555555555554)"><rect x="1" width="11.999999999999996" height="34.44444444444446"></rect></g><g class="bar" transform="translate(403,301.3888888888889)"><rect x="1" width="11.999999999999996" height="8.611111111111086"></rect></g><g class="bar" transform="translate(416,304.25925925925924)"><rect x="1" width="11.999999999999996" height="5.740740740740762"></rect></g><g class="bar" transform="translate(429.00000000000006,307.1296296296296)"><rect x="1" width="11.999999999999996" height="2.870370370370381"></rect></g><g class="bar" transform="translate(442.00000000000006,310)"><rect x="1" width="11.999999999999996" height="0"></rect></g><g class="bar" transform="translate(455,310)"><rect x="1" width="11.999999999999996" height="0"></rect></g><g class="bar" transform="translate(468,310)"><rect x="1" width="11.999999999999996" height="0"></rect></g><g class="bar" transform="translate(481,310)"><rect x="1" width="11.999999999999996" height="0"></rect></g><g class="bar" transform="translate(494.00000000000006,310)"><rect x="1" width="11.999999999999996" height="0"></rect></g><g class="bar" transform="translate(507.00000000000006,310)"><rect x="1" width="11.999999999999996" height="0"></rect></g><g class="axis axis--x" transform="translate(0,310)" fill="none" font-size="10" font-family="sans-serif" text-anchor="middle"><path class="domain" stroke="#000" d="M0.5,6V0.5H520.5V6"></path><g class="tick" opacity="1" transform="translate(0.5,0)"><line stroke="#000" y2="6"></line><text fill="#000" y="9" dy="0.71em">0.01</text></g><g class="tick" opacity="1" transform="translate(130.5,0)"><line stroke="#000" y2="6"></line><text fill="#000" y="9" dy="0.71em">1</text></g><g class="tick" opacity="1" transform="translate(260.5,0)"><line stroke="#000" y2="6"></line><text fill="#000" y="9" dy="0.71em">100</text></g><g class="tick" opacity="1" transform="translate(390.5,0)"><line stroke="#000" y2="6"></line><text fill="#000" y="9" dy="0.71em">10000</text></g><g class="tick" opacity="1" transform="translate(520.5,0)"><line stroke="#000" y2="6"></line><text fill="#000" y="9" dy="0.71em"></text></g></g><g class="axis axis--y" fill="none" font-size="10" font-family="sans-serif" text-anchor="end"><path class="domain" stroke="#000" d="M-6,310.5H0.5V0.5H-6"></path><g class="tick" opacity="1" transform="translate(0,310.5)"><line stroke="#000" x2="-6"></line><text fill="#000" x="-9" dy="0.32em">0</text></g><g class="tick" opacity="1" transform="translate(0,281.7962962962963)"><line stroke="#000" x2="-6"></line><text fill="#000" x="-9" dy="0.32em">10</text></g><g class="tick" opacity="1" transform="translate(0,253.0925925925926)"><line stroke="#000" x2="-6"></line><text fill="#000" x="-9" dy="0.32em">20</text></g><g class="tick" opacity="1" transform="translate(0,224.38888888888889)"><line stroke="#000" x2="-6"></line><text fill="#000" x="-9" dy="0.32em">30</text></g><g class="tick" opacity="1" transform="translate(0,195.6851851851852)"><line stroke="#000" x2="-6"></line><text fill="#000" x="-9" dy="0.32em">40</text></g><g class="tick" opacity="1" transform="translate(0,166.98148148148147)"><line stroke="#000" x2="-6"></line><text fill="#000" x="-9" dy="0.32em">50</text></g><g class="tick" opacity="1" transform="translate(0,138.27777777777777)"><line stroke="#000" x2="-6"></line><text fill="#000" x="-9" dy="0.32em">60</text></g><g class="tick" opacity="1" transform="translate(0,109.57407407407408)"><line stroke="#000" x2="-6"></line><text fill="#000" x="-9" dy="0.32em">70</text></g><g class="tick" opacity="1" transform="translate(0,80.87037037037038)"><line stroke="#000" x2="-6"></line><text fill="#000" x="-9" dy="0.32em">80</text></g><g class="tick" opacity="1" transform="translate(0,52.16666666666663)"><line stroke="#000" x2="-6"></line><text fill="#000" x="-9" dy="0.32em">90</text></g><g class="tick" opacity="1" transform="translate(0,23.462962962962933)"><line stroke="#000" x2="-6"></line><text fill="#000" x="-9" dy="0.32em">100</text></g></g></g></svg>