<svg xmlns="http://www.w3.org/2000/svg" width="600" height="350"><defs><style type="text/css"><![CDATA[ 
.bar rect {
  fill-opacity: 0;
  stroke:       black;
  stroke-width: 0.5;
}

.highlight rect {
  fill:       red;
  fill-opacity: 1;
}
.axis path,
.axis line {
  fill: none;
  stroke: #000;
  shape-rendering: crispEdges;
}
 ]]></style></defs><g transform="translate(50,10)"><g class="bar" transform="translate(0,310)"><rect x="1" width="5.500000000000005" height="0"></rect></g><g class="bar" transform="translate(6.500000000000005,310)"><rect x="1" width="5.500000000000005" height="0"></rect></g><g class="bar" transform="translate(12.999999999999996,310)"><rect x="1" width="5.500000000000005" height="0"></rect></g><g class="bar" transform="translate(19.500000000000004,310)"><rect x="1" width="5.500000000000005" height="0"></rect></g><g class="bar" transform="translate(25.999999999999993,310)"><rect x="1" width="5.500000000000005" height="0"></rect></g><g class="bar" transform="translate(32.5,310)"><rect x="1" width="5.500000000000005" height="0"></rect></g><g class="bar" transform="translate(39.00000000000001,310)"><rect x="1" width="5.500000000000005" height="0"></rect></g><g class="bar" transform="translate(45.500000000000014,310)"><rect x="1" width="5.500000000000005" height="0"></rect></g><g class="bar" transform="translate(52,310)"><rect x="1" width="5.500000000000005" height="0"></rect></g><g class="bar" transform="translate(58.49999999999999,310)"><rect x="1" width="5.500000000000005" height="0"></rect></g><g class="bar" transform="translate(65,308.3576158940397)"><rect x="1" width="5.500000000000005" height="1.642384105960275"></rect></g><g class="bar" transform="translate(71.5,310)"><rect x="1" width="5.500000000000005" height="0"></rect></g><g class="bar" transform="translate(78.00000000000001,310)"><rect x="1" width="5.500000000000005" height="0"></rect></g><g class="bar" transform="translate(84.5,309.58940397350995)"><rect x="1" width="5.500000000000005" height="0.41059602649005456"></rect></g><g class="bar" transform="translate(91.00000000000001,301.3774834437086)"><rect x="1" width="5.500000000000005" height="8.622516556291373"></rect></g><g class="bar" transform="translate(97.5,306.71523178807945)"><rect x="1" width="5.500000000000005" height="3.28476821192055"></rect></g><g class="bar" transform="translate(104,309.1788079470199)"><rect x="1" width="5.500000000000005" height="0.8211920529801091"></rect></g><g class="bar" transform="translate(110.50000000000001,307.12582781456956)"><rect x="1" width="5.500000000000005" height="2.8741721854304387"></rect></g><g class="bar" transform="translate(117,303.43046357615896)"><rect x="1" width="5.500000000000005" height="6.569536423841043"></rect></g><g class="bar" transform="translate(123.50000000000001,305.4834437086093)"><rect x="1" width="5.500000000000005" height="4.516556291390714"></rect></g><g class="bar" transform="translate(130,298.0927152317881)"><rect x="1" width="5.500000000000005" height="11.907284768211923"></rect></g><g class="bar" transform="translate(136.5,289.4701986754967)"><rect x="1" width="5.500000000000005" height="20.529801324503296"></rect></g><g class="bar" transform="translate(143,272.63576158940396)"><rect x="1" width="5.500000000000005" height="37.364238410596045"></rect></g><g class="bar" transform="translate(149.50000000000003,250.46357615894038)"><rect x="1" width="5.500000000000005" height="59.536423841059616"></rect></g><g class="bar" transform="translate(156.00000000000003,222.95364238410593)"><rect x="1" width="5.500000000000005" height="87.04635761589407"></rect></g><g class="bar" transform="translate(162.5,190.92715231788077)"><rect x="1" width="5.500000000000005" height="119.07284768211923"></rect></g><g class="bar" transform="translate(169,132.21192052980135)"><rect x="1" width="5.500000000000005" height="177.78807947019865"></rect></g><g class="bar" transform="translate(175.5,89.9205298013245)"><rect x="1" width="5.500000000000005" height="220.0794701986755"></rect></g><g class="bar" transform="translate(182.00000000000003,38.185430463576154)"><rect x="1" width="5.500000000000005" height="271.81456953642385"></rect></g><g class="bar" transform="translate(188.50000000000003,23.814569536423846)"><rect x="1" width="5.500000000000005" height="286.18543046357615"></rect></g><g class="bar" transform="translate(195,0)"><rect x="1" width="5.500000000000005" height="310"></rect></g><g class="bar" transform="translate(201.5,21.761589403973517)"><rect x="1" width="5.500000000000005" height="288.2384105960265"></rect></g><g class="bar" transform="translate(208,34.49006622516555)"><rect x="1" width="5.500000000000005" height="275.50993377483445"></rect></g><g class="bar" transform="translate(214.50000000000003,81.70860927152316)"><rect x="1" width="5.500000000000005" height="228.29139072847684"></rect></g><g class="bar" transform="translate(221.00000000000003,120.3046357615894)"><rect x="1" width="5.500000000000005" height="189.6953642384106"></rect></g><g class="bar" transform="translate(227.5,159.72185430463574)"><rect x="1" width="5.500000000000005" height="150.27814569536426"></rect></g><g class="bar" transform="translate(234,183.53642384105962)"><rect x="1" width="5.500000000000005" height="126.46357615894038"></rect></g><g class="bar" transform="translate(240.5,206.11920529801324)"><rect x="1" width="5.500000000000005" height="103.88079470198676"></rect></g><g class="bar" transform="translate(247.00000000000003,221.72185430463577)"><rect x="1" width="5.500000000000005" height="88.27814569536423"></rect></g><g class="bar" transform="translate(253.50000000000003,226.23841059602648)"><rect x="1" width="5.500000000000005" height="83.76158940397352"></rect></g><g class="bar" transform="translate(260,229.9337748344371)"><rect x="1" width="5.500000000000005" height="80.06622516556291"></rect></g><g class="bar" transform="translate(266.50000000000006,240.6092715231788)"><rect x="1" width="5.500000000000005" height="69.39072847682121"></rect></g><g class="bar" transform="translate(273,252.9271523178808)"><rect x="1" width="5.500000000000005" height="57.0728476821192"></rect></g><g class="bar" transform="translate(279.5,240.6092715231788)"><rect x="1" width="5.500000000000005" height="69.39072847682121"></rect></g><g class="bar" transform="translate(286,252.10596026490066)"><rect x="1" width="5.500000000000005" height="57.89403973509934"></rect></g><g class="bar" transform="translate(292.5,262.78145695364236)"><rect x="1" width="5.500000000000005" height="47.21854304635764"></rect></g><g class="bar" transform="translate(299.00000000000006,268.5298013245033)"><rect x="1" width="5.500000000000005" height="41.470198675496704"></rect></g><g class="bar" transform="translate(305.5,269.35099337748346)"><rect x="1" width="5.500000000000005" height="40.64900662251654"></rect></g><g class="bar" transform="translate(312.00000000000006,275.9205298013245)"><rect x="1" width="5.500000000000005" height="34.079470198675494"></rect></g><g class="bar" transform="translate(318.5,277.5629139072848)"><rect x="1" width="5.500000000000005" height="32.43708609271522"></rect></g><g class="bar" transform="translate(325,287.4172185430464)"><rect x="1" width="5.500000000000005" height="22.582781456953626"></rect></g><g class="bar" transform="translate(331.50000000000006,293.9867549668874)"><rect x="1" width="5.500000000000005" height="16.013245033112582"></rect></g><g class="bar" transform="translate(338,297.682119205298)"><rect x="1" width="5.500000000000005" height="12.317880794701978"></rect></g><g class="bar" transform="translate(344.50000000000006,297.682119205298)"><rect x="1" width="5.500000000000005" height="12.317880794701978"></rect></g><g class="bar" transform="translate(351,302.19867549668874)"><rect x="1" width="5.500000000000005" height="7.801324503311264"></rect></g><g class="bar" transform="translate(357.5,305.07284768211923)"><rect x="1" width="5.500000000000005" height="4.927152317880768"></rect></g><g class="bar" transform="translate(364.00000000000006,307.5364238410596)"><rect x="1" width="5.500000000000005" height="2.463576158940384"></rect></g><g class="bar" transform="translate(370.5,307.94701986754967)"><rect x="1" width="5.500000000000005" height="2.0529801324503296"></rect></g><g class="bar" transform="translate(377.00000000000006,309.58940397350995)"><rect x="1" width="5.500000000000005" height="0.41059602649005456"></rect></g><g class="bar" transform="translate(383.5,308.7682119205298)"><rect x="1" width="5.500000000000005" height="1.2317880794702205"></rect></g><g class="bar" transform="translate(390,310)"><rect x="1" width="5.500000000000005" height="0"></rect></g><g class="bar" transform="translate(396.50000000000006,309.58940397350995)"><rect x="1" width="5.500000000000005" height="0.41059602649005456"></rect></g><g class="bar" transform="translate(403,310)"><rect x="1" width="5.500000000000005" height="0"></rect></g><g class="bar" transform="translate(409.50000000000006,310)"><rect x="1" width="5.500000000000005" height="0"></rect></g><g class="bar" transform="translate(416,310)"><rect x="1" width="5.500000000000005" height="0"></rect></g><g class="bar" transform="translate(422.5,310)"><rect x="1" width="5.500000000000005" height="0"></rect></g><g class="bar" transform="translate(429.00000000000006,310)"><rect x="1" width="5.500000000000005" height="0"></rect></g><g class="bar" transform="translate(435.5,310)"><rect x="1" width="5.500000000000005" height="0"></rect></g><g class="bar" transform="translate(442.00000000000006,310)"><rect x="1" width="5.500000000000005" height="0"></rect></g><g class="bar" transform="translate(448.5,310)"><rect x="1" width="5.500000000000005" height="0"></rect></g><g class="bar" transform="translate(455,310)"><rect x="1" width="5.500000000000005" height="0"></rect></g><g class="bar" transform="translate(461.50000000000006,310)"><rect x="1" width="5.500000000000005" height="0"></rect></g><g class="bar" transform="translate(468,310)"><rect x="1" width="5.500000000000005" height="0"></rect></g><g class="bar" transform="translate(474.50000000000006,310)"><rect x="1" width="5.500000000000005" height="0"></rect></g><g class="bar" transform="translate(481,310)"><rect x="1" width="5.500000000000005" height="0"></rect></g><g class="bar" transform="translate(487.5,310)"><rect x="1" width="5.500000000000005" height="0"></rect></g><g class="bar" transform="translate(494.00000000000006,310)"><rect x="1" width="5.500000000000005" height="0"></rect></g><g class="bar" transform="translate(500.5,310)"><rect x="1" width="5.500000000000005" height="0"></rect></g><g class="bar" transform="translate(507.00000000000006,310)"><rect x="1" width="5.500000000000005" height="0"></rect></g><g class="bar" transform="translate(513.5,310)"><rect x="1" width="5.500000000000005" height="0"></rect></g><g class="axis axis--x" transform="translate(0,310)" fill="none" font-size="10" font-family="sans-serif" text-anchor="middle"><path class="domain" stroke="#000" d="M0.5,6V0.5H520.5V6"></path><g class="tick" opacity="1" transform="translate(0,0)"><line stroke="#000" y2="6" x1="0.5" x2="0.5"></line><text fill="#000" y="9" x="0.5" dy="0.71em">0.01</text></g><g class="tick" opacity="1" transform="translate(130,0)"><line stroke="#000" y2="6" x1="0.5" x2="0.5"></line><text fill="#000" y="9" x="0.5" dy="0.71em">1</text></g><g class="tick" opacity="1" transform="translate(260,0)"><line stroke="#000" y2="6" x1="0.5" x2="0.5"></line><text fill="#000" y="9" x="0.5" dy="0.71em">100</text></g><g class="tick" opacity="1" transform="translate(390,0)"><line stroke="#000" y2="6" x1="0.5" x2="0.5"></line><text fill="#000" y="9" x="0.5" dy="0.71em">10000</text></g><g class="tick" opacity="1" transform="translate(520,0)"><line stroke="#000" y2="6" x1="0.5" x2="0.5"></line><text fill="#000" y="9" x="0.5" dy="0.71em"></text></g></g><g class="axis axis--y" fill="none" font-size="10" font-family="sans-serif" text-anchor="end"><path class="domain" stroke="#000" d="M-6,310.5H0.5V0.5H-6"></path><g class="tick" opacity="1" transform="translate(0,310)"><line stroke="#000" x2="-6" y1="0.5" y2="0.5"></line><text fill="#000" x="-9" y="0.5" dy="0.32em">0</text></g><g class="tick" opacity="1" transform="translate(0,268.94039735099335)"><line stroke="#000" x2="-6" y1="0.5" y2="0.5"></line><text fill="#000" x="-9" y="0.5" dy="0.32em">100</text></g><g class="tick" opacity="1" transform="translate(0,227.88079470198676)"><line stroke="#000" x2="-6" y1="0.5" y2="0.5"></line><text fill="#000" x="-9" y="0.5" dy="0.32em">200</text></g><g class="tick" opacity="1" transform="translate(0,186.82119205298014)"><line stroke="#000" x2="-6" y1="0.5" y2="0.5"></line><text fill="#000" x="-9" y="0.5" dy="0.32em">300</text></g><g class="tick" opacity="1" transform="translate(0,145.7615894039735)"><line stroke="#000" x2="-6" y1="0.5" y2="0.5"></line><text fill="#000" x="-9" y="0.5" dy="0.32em">400</text></g><g class="tick" opacity="1" transform="translate(0,104.70198675496687)"><line stroke="#000" x2="-6" y1="0.5" y2="0.5"></line><text fill="#000" x="-9" y="0.5" dy="0.32em">500</text></g><g class="tick" opacity="1" transform="translate(0,63.642384105960275)"><line stroke="#000" x2="-6" y1="0.5" y2="0.5"></line><text fill="#000" x="-9" y="0.5" dy="0.32em">600</text></g><g class="tick" opacity="1" transform="translate(0,22.582781456953683)"><line stroke="#000" x2="-6" y1="0.5" y2="0.5"></line><text fill="#000" x="-9" y="0.5" dy="0.32em">700</text></g></g></g></svg>