<svg xmlns="http://www.w3.org/2000/svg" width="280" height="160"><defs><style type="text/css"><![CDATA[ 
.bar rect {
  fill-opacity: 0;
  stroke:       black;
  stroke-width: 0.5;
}

.highlight rect {
  fill:       red;
  fill-opacity: 1;
}
.axis path,
.axis line {
  fill: none;
  stroke: #000;
  shape-rendering: crispEdges;
}
 ]]></style></defs><g transform="translate(50,10)"><g class="bar" transform="translate(0,89.40867279894874)"><rect x="1" width="11.5" height="30.591327201051257"></rect></g><g class="bar" transform="translate(12.5,103.04862023653088)"><rect x="1" width="11.5" height="16.95137976346912"></rect></g><g class="bar" transform="translate(25,100.13140604467806)"><rect x="1" width="11.5" height="19.86859395532194"></rect></g><g class="bar" transform="translate(37.5,79.86859395532194)"><rect x="1" width="11.5" height="40.13140604467806"></rect></g><g class="bar" transform="translate(50,47.1484888304862)"><rect x="1" width="11.5" height="72.8515111695138"></rect></g><g class="bar" transform="translate(62.5,13.561103810775307)"><rect x="1" width="11.5" height="106.43889618922469"></rect></g><g class="bar" transform="translate(75,0)"><rect x="1" width="11.5" height="120"></rect></g><g class="bar" transform="translate(87.5,3.0749014454664945)"><rect x="1" width="11.5" height="116.9250985545335"></rect></g><g class="bar" transform="translate(100,40.21024967148489)"><rect x="1" width="11.5" height="79.78975032851511"></rect></g><g class="bar" transform="translate(112.5,81.91852825229961)"><rect x="1" width="11.5" height="38.08147174770039"></rect></g><g class="bar" transform="translate(125,108.3311432325887)"><rect x="1" width="11.5" height="11.668856767411299"></rect></g><g class="bar" transform="translate(137.5,117.16162943495401)"><rect x="1" width="11.5" height="2.8383705650459916"></rect></g><g class="bar" transform="translate(150,120)"><rect x="1" width="11.5" height="0"></rect></g><g class="bar" transform="translate(162.5,120)"><rect x="1" width="11.5" height="0"></rect></g><g class="bar" transform="translate(175,120)"><rect x="1" width="11.5" height="0"></rect></g><g class="bar" transform="translate(187.5,120)"><rect x="1" width="11.5" height="0"></rect></g></g></svg>