<svg xmlns="http://www.w3.org/2000/svg" width="280" height="160"><defs><style type="text/css"><![CDATA[ 
.bar rect {
  fill-opacity: 0;
  stroke:       black;
  stroke-width: 0.5;
}

.highlight rect {
  fill:       red;
  fill-opacity: 1;
}
.axis path,
.axis line {
  fill: none;
  stroke: #000;
  shape-rendering: crispEdges;
}
path {
    stroke: red;
    fill: none;
}

line {
    stroke: red;
}

path.marker {
    fill: red;
}
 ]]></style></defs><g transform="translate(50,10)"><g class="bar" transform="translate(0,120)"><rect x="1" width="11.5" height="0"></rect></g><g class="bar" transform="translate(12.5,119.90712074303406)"><rect x="1" width="11.5" height="0.09287925696594357"></rect></g><g class="bar" transform="translate(25,118.79256965944272)"><rect x="1" width="11.5" height="1.2074303405572806"></rect></g><g class="bar" transform="translate(37.5,114.05572755417957)"><rect x="1" width="11.5" height="5.944272445820431"></rect></g><g class="bar" transform="translate(50,94.45820433436532)"><rect x="1" width="11.5" height="25.54179566563468"></rect></g><g class="bar" transform="translate(62.5,64.17956656346749)"><rect x="1" width="11.5" height="55.82043343653251"></rect></g><g class="bar" transform="translate(75,15.78947368421052)"><rect x="1" width="11.5" height="104.21052631578948"></rect></g><g class="bar" transform="translate(87.5,0)"><rect x="1" width="11.5" height="120"></rect></g><g class="bar" transform="translate(100,3.6222910216718276)"><rect x="1" width="11.5" height="116.37770897832817"></rect></g><g class="bar" transform="translate(112.5,66.96594427244582)"><rect x="1" width="11.5" height="53.034055727554176"></rect></g><g class="bar" transform="translate(125,106.9969040247678)"><rect x="1" width="11.5" height="13.003095975232199"></rect></g><g class="bar" transform="translate(137.5,118.328173374613)"><rect x="1" width="11.5" height="1.6718266253869984"></rect></g><g class="bar" transform="translate(150,119.81424148606811)"><rect x="1" width="11.5" height="0.18575851393188714"></rect></g><g class="bar" transform="translate(162.5,120)"><rect x="1" width="11.5" height="0"></rect></g><g class="bar" transform="translate(175,120)"><rect x="1" width="11.5" height="0"></rect></g><g class="bar" transform="translate(187.5,120)"><rect x="1" width="11.5" height="0"></rect></g></g></svg>