<svg xmlns="http://www.w3.org/2000/svg" width="280" height="160"><defs><style type="text/css"><![CDATA[ 
.bar rect {
  fill-opacity: 0;
  stroke:       black;
  stroke-width: 0.5;
}

.highlight rect {
  fill:       red;
  fill-opacity: 1;
}
.axis path,
.axis line {
  fill: none;
  stroke: #000;
  shape-rendering: crispEdges;
}
path {
    stroke: red;
    fill: none;
}

line {
    stroke: red;
}

path.marker {
    fill: red;
}
 ]]></style></defs><g transform="translate(50,10)"><g class="bar" transform="translate(0,107.88877445932029)"><rect x="1" width="11.5" height="12.111225540679712"></rect></g><g class="bar" transform="translate(12.5,94.54170957775489)"><rect x="1" width="11.5" height="25.458290422245113"></rect></g><g class="bar" transform="translate(25,54.50051493305871)"><rect x="1" width="11.5" height="65.49948506694129"></rect></g><g class="bar" transform="translate(37.5,37.198764160659124)"><rect x="1" width="11.5" height="82.80123583934088"></rect></g><g class="bar" transform="translate(50,10.751802265705464)"><rect x="1" width="11.5" height="109.24819773429454"></rect></g><g class="bar" transform="translate(62.5,6.179196704428421)"><rect x="1" width="11.5" height="113.82080329557158"></rect></g><g class="bar" transform="translate(75,0)"><rect x="1" width="11.5" height="120"></rect></g><g class="bar" transform="translate(87.5,13.84140061791966)"><rect x="1" width="11.5" height="106.15859938208034"></rect></g><g class="bar" transform="translate(100,26.44696189495366)"><rect x="1" width="11.5" height="93.55303810504634"></rect></g><g class="bar" transform="translate(112.5,75.13903192584965)"><rect x="1" width="11.5" height="44.86096807415035"></rect></g><g class="bar" transform="translate(125,99.6086508753862)"><rect x="1" width="11.5" height="20.391349124613797"></rect></g><g class="bar" transform="translate(137.5,115.55097837281153)"><rect x="1" width="11.5" height="4.449021627188472"></rect></g><g class="bar" transform="translate(150,119.13491246138003)"><rect x="1" width="11.5" height="0.8650875386199743"></rect></g><g class="bar" transform="translate(162.5,120)"><rect x="1" width="11.5" height="0"></rect></g><g class="bar" transform="translate(175,120)"><rect x="1" width="11.5" height="0"></rect></g><g class="bar" transform="translate(187.5,120)"><rect x="1" width="11.5" height="0"></rect></g></g></svg>