<svg xmlns="http://www.w3.org/2000/svg" width="600" height="350"><defs><style type="text/css"><![CDATA[ 
.bar rect {
  fill-opacity: 0;
  stroke:       black;
  stroke-width: 0.5;
}

.highlight rect {
  fill:       red;
  fill-opacity: 1;
}
.axis path,
.axis line {
  fill: none;
  stroke: #000;
  shape-rendering: crispEdges;
}
path {
    stroke: red;
    fill: none;
}

line {
    stroke: red;
}

path.marker {
    fill: red;
}
 ]]></style></defs><g transform="translate(50,10)"><g class="bar" transform="translate(0,288.2456140350877)"><rect x="1" width="11.999999999999996" height="21.754385964912274"></rect></g><g class="bar" transform="translate(12.999999999999996,271.9298245614035)"><rect x="1" width="11.999999999999996" height="38.07017543859649"></rect></g><g class="bar" transform="translate(25.999999999999993,268.0451127819549)"><rect x="1" width="11.999999999999996" height="41.95488721804509"></rect></g><g class="bar" transform="translate(39.00000000000001,255.6140350877193)"><rect x="1" width="11.999999999999996" height="54.38596491228071"></rect></g><g class="bar" transform="translate(52,229.97493734335842)"><rect x="1" width="11.999999999999996" height="80.02506265664158"></rect></g><g class="bar" transform="translate(65,149.9498746867168)"><rect x="1" width="11.999999999999996" height="160.0501253132832"></rect></g><g class="bar" transform="translate(78.00000000000001,143.734335839599)"><rect x="1" width="11.999999999999996" height="166.265664160401"></rect></g><g class="bar" transform="translate(91.00000000000001,129.74937343358397)"><rect x="1" width="11.999999999999996" height="180.25062656641603"></rect></g><g class="bar" transform="translate(104,114.21052631578948)"><rect x="1" width="11.999999999999996" height="195.78947368421052"></rect></g><g class="bar" transform="translate(117,80.02506265664161)"><rect x="1" width="11.999999999999996" height="229.9749373433584"></rect></g><g class="bar" transform="translate(130,66.04010025062658)"><rect x="1" width="11.999999999999996" height="243.95989974937342"></rect></g><g class="bar" transform="translate(143,28.74686716791979)"><rect x="1" width="11.999999999999996" height="281.2531328320802"></rect></g><g class="bar" transform="translate(156.00000000000003,10.877192982456165)"><rect x="1" width="11.999999999999996" height="299.12280701754383"></rect></g><g class="bar" transform="translate(169,31.85463659147871)"><rect x="1" width="11.999999999999996" height="278.1453634085213"></rect></g><g class="bar" transform="translate(182.00000000000003,10.100250626566435)"><rect x="1" width="11.999999999999996" height="299.89974937343356"></rect></g><g class="bar" transform="translate(195,10.877192982456165)"><rect x="1" width="11.999999999999996" height="299.12280701754383"></rect></g><g class="bar" transform="translate(208,0)"><rect x="1" width="11.999999999999996" height="310"></rect></g><g class="bar" transform="translate(221.00000000000003,10.877192982456165)"><rect x="1" width="11.999999999999996" height="299.12280701754383"></rect></g><g class="bar" transform="translate(234,49.72431077694233)"><rect x="1" width="11.999999999999996" height="260.27568922305767"></rect></g><g class="bar" transform="translate(247.00000000000003,56.716791979949875)"><rect x="1" width="11.999999999999996" height="253.28320802005013"></rect></g><g class="bar" transform="translate(260,53.60902255639098)"><rect x="1" width="11.999999999999996" height="256.390977443609"></rect></g><g class="bar" transform="translate(273,80.02506265664161)"><rect x="1" width="11.999999999999996" height="229.9749373433584"></rect></g><g class="bar" transform="translate(286,125.08771929824562)"><rect x="1" width="11.999999999999996" height="184.91228070175438"></rect></g><g class="bar" transform="translate(299.00000000000006,195.78947368421052)"><rect x="1" width="11.999999999999996" height="114.21052631578948"></rect></g><g class="bar" transform="translate(312.00000000000006,225.31328320802004)"><rect x="1" width="11.999999999999996" height="84.68671679197996"></rect></g><g class="bar" transform="translate(325,241.62907268170426)"><rect x="1" width="11.999999999999996" height="68.37092731829574"></rect></g><g class="bar" transform="translate(338,261.8295739348371)"><rect x="1" width="11.999999999999996" height="48.17042606516293"></rect></g><g class="bar" transform="translate(351,290.5764411027569)"><rect x="1" width="11.999999999999996" height="19.423558897243083"></rect></g><g class="bar" transform="translate(364.00000000000006,301.453634085213)"><rect x="1" width="11.999999999999996" height="8.546365914786975"></rect></g><g class="bar" transform="translate(377.00000000000006,298.34586466165416)"><rect x="1" width="11.999999999999996" height="11.654135338345839"></rect></g><g class="bar" transform="translate(390,306.1152882205514)"><rect x="1" width="11.999999999999996" height="3.884711779448594"></rect></g><g class="bar" transform="translate(403,308.44611528822054)"><rect x="1" width="11.999999999999996" height="1.5538847117794603"></rect></g><g class="bar" transform="translate(416,310)"><rect x="1" width="11.999999999999996" height="0"></rect></g><g class="bar" transform="translate(429.00000000000006,310)"><rect x="1" width="11.999999999999996" height="0"></rect></g><g class="bar" transform="translate(442.00000000000006,310)"><rect x="1" width="11.999999999999996" height="0"></rect></g><g class="bar" transform="translate(455,310)"><rect x="1" width="11.999999999999996" height="0"></rect></g><g class="bar" transform="translate(468,310)"><rect x="1" width="11.999999999999996" height="0"></rect></g><g class="bar" transform="translate(481,310)"><rect x="1" width="11.999999999999996" height="0"></rect></g><g class="bar" transform="translate(494.00000000000006,310)"><rect x="1" width="11.999999999999996" height="0"></rect></g><g class="bar" transform="translate(507.00000000000006,310)"><rect x="1" width="11.999999999999996" height="0"></rect></g><g class="axis axis--x" transform="translate(0,310)" fill="none" font-size="10" font-family="sans-serif" text-anchor="middle"><path class="domain" stroke="#000" d="M0.5,6V0.5H520.5V6"></path><g class="tick" opacity="1" transform="translate(0.5,0)"><line stroke="#000" y2="6"></line><text fill="#000" y="9" dy="0.71em">0.01</text></g><g class="tick" opacity="1" transform="translate(130.5,0)"><line stroke="#000" y2="6"></line><text fill="#000" y="9" dy="0.71em">1</text></g><g class="tick" opacity="1" transform="translate(260.5,0)"><line stroke="#000" y2="6"></line><text fill="#000" y="9" dy="0.71em">100</text></g><g class="tick" opacity="1" transform="translate(390.5,0)"><line stroke="#000" y2="6"></line><text fill="#000" y="9" dy="0.71em">10000</text></g><g class="tick" opacity="1" transform="translate(520.5,0)"><line stroke="#000" y2="6"></line><text fill="#000" y="9" dy="0.71em"></text></g></g><g class="axis axis--y" fill="none" font-size="10" font-family="sans-serif" text-anchor="end"><path class="domain" stroke="#000" d="M-6,310.5H0.5V0.5H-6"></path><g class="tick" opacity="1" transform="translate(0,310.5)"><line stroke="#000" x2="-6"></line><text fill="#000" x="-9" dy="0.32em">0</text></g><g class="tick" opacity="1" transform="translate(0,271.6528822055138)"><line stroke="#000" x2="-6"></line><text fill="#000" x="-9" dy="0.32em">50</text></g><g class="tick" opacity="1" transform="translate(0,232.80576441102755)"><line stroke="#000" x2="-6"></line><text fill="#000" x="-9" dy="0.32em">100</text></g><g class="tick" opacity="1" transform="translate(0,193.95864661654136)"><line stroke="#000" x2="-6"></line><text fill="#000" x="-9" dy="0.32em">150</text></g><g class="tick" opacity="1" transform="translate(0,155.11152882205513)"><line stroke="#000" x2="-6"></line><text fill="#000" x="-9" dy="0.32em">200</text></g><g class="tick" opacity="1" transform="translate(0,116.26441102756894)"><line stroke="#000" x2="-6"></line><text fill="#000" x="-9" dy="0.32em">250</text></g><g class="tick" opacity="1" transform="translate(0,77.41729323308272)"><line stroke="#000" x2="-6"></line><text fill="#000" x="-9" dy="0.32em">300</text></g><g class="tick" opacity="1" transform="translate(0,38.57017543859649)"><line stroke="#000" x2="-6"></line><text fill="#000" x="-9" dy="0.32em">350</text></g></g></g></svg>