<svg xmlns="http://www.w3.org/2000/svg" width="600" height="350"><defs><style type="text/css"><![CDATA[ 
.bar rect {
  fill-opacity: 0;
  stroke:       black;
  stroke-width: 0.5;
}

.highlight rect {
  fill:       red;
  fill-opacity: 1;
}
.axis path,
.axis line {
  fill: none;
  stroke: #000;
  shape-rendering: crispEdges;
}
 ]]></style></defs><g transform="translate(50,10)"><g class="bar" transform="translate(0,310)"><rect x="1" width="11.999999999999996" height="0"></rect></g><g class="bar" transform="translate(12.999999999999996,310)"><rect x="1" width="11.999999999999996" height="0"></rect></g><g class="bar" transform="translate(25.999999999999993,310)"><rect x="1" width="11.999999999999996" height="0"></rect></g><g class="bar" transform="translate(39.00000000000001,310)"><rect x="1" width="11.999999999999996" height="0"></rect></g><g class="bar" transform="translate(52,310)"><rect x="1" width="11.999999999999996" height="0"></rect></g><g class="bar" transform="translate(65,308.2967032967033)"><rect x="1" width="11.999999999999996" height="1.7032967032967008"></rect></g><g class="bar" transform="translate(78.00000000000001,301.4835164835165)"><rect x="1" width="11.999999999999996" height="8.516483516483504"></rect></g><g class="bar" transform="translate(91.00000000000001,304.03846153846155)"><rect x="1" width="11.999999999999996" height="5.961538461538453"></rect></g><g class="bar" transform="translate(104,295.52197802197804)"><rect x="1" width="11.999999999999996" height="14.478021978021957"></rect></g><g class="bar" transform="translate(117,264.8626373626374)"><rect x="1" width="11.999999999999996" height="45.13736263736263"></rect></g><g class="bar" transform="translate(130,253.7912087912088)"><rect x="1" width="11.999999999999996" height="56.20879120879121"></rect></g><g class="bar" transform="translate(143,216.31868131868134)"><rect x="1" width="11.999999999999996" height="93.68131868131866"></rect></g><g class="bar" transform="translate(156.00000000000003,190.76923076923077)"><rect x="1" width="11.999999999999996" height="119.23076923076923"></rect></g><g class="bar" transform="translate(169,160.1098901098901)"><rect x="1" width="11.999999999999996" height="149.8901098901099"></rect></g><g class="bar" transform="translate(182.00000000000003,123.489010989011)"><rect x="1" width="11.999999999999996" height="186.510989010989"></rect></g><g class="bar" transform="translate(195,76.64835164835165)"><rect x="1" width="11.999999999999996" height="233.35164835164835"></rect></g><g class="bar" transform="translate(208,24.69780219780222)"><rect x="1" width="11.999999999999996" height="285.3021978021978"></rect></g><g class="bar" transform="translate(221.00000000000003,21.29120879120876)"><rect x="1" width="11.999999999999996" height="288.70879120879124"></rect></g><g class="bar" transform="translate(234,12.774725274725256)"><rect x="1" width="11.999999999999996" height="297.22527472527474"></rect></g><g class="bar" transform="translate(247.00000000000003,0)"><rect x="1" width="11.999999999999996" height="310"></rect></g><g class="bar" transform="translate(260,2.554945054945051)"><rect x="1" width="11.999999999999996" height="307.44505494505495"></rect></g><g class="bar" transform="translate(273,75.7967032967033)"><rect x="1" width="11.999999999999996" height="234.2032967032967"></rect></g><g class="bar" transform="translate(286,58.76373626373626)"><rect x="1" width="11.999999999999996" height="251.23626373626374"></rect></g><g class="bar" transform="translate(299.00000000000006,145.63186813186812)"><rect x="1" width="11.999999999999996" height="164.36813186813188"></rect></g><g class="bar" transform="translate(312.00000000000006,200.13736263736263)"><rect x="1" width="11.999999999999996" height="109.86263736263737"></rect></g><g class="bar" transform="translate(325,221.42857142857144)"><rect x="1" width="11.999999999999996" height="88.57142857142856"></rect></g><g class="bar" transform="translate(338,263.15934065934067)"><rect x="1" width="11.999999999999996" height="46.84065934065933"></rect></g><g class="bar" transform="translate(351,284.45054945054943)"><rect x="1" width="11.999999999999996" height="25.54945054945057"></rect></g><g class="bar" transform="translate(364.00000000000006,298.0769230769231)"><rect x="1" width="11.999999999999996" height="11.923076923076906"></rect></g><g class="bar" transform="translate(377.00000000000006,308.2967032967033)"><rect x="1" width="11.999999999999996" height="1.7032967032967008"></rect></g><g class="bar" transform="translate(390,307.44505494505495)"><rect x="1" width="11.999999999999996" height="2.554945054945051"></rect></g><g class="bar" transform="translate(403,306.5934065934066)"><rect x="1" width="11.999999999999996" height="3.4065934065934016"></rect></g><g class="bar" transform="translate(416,310)"><rect x="1" width="11.999999999999996" height="0"></rect></g><g class="bar" transform="translate(429.00000000000006,310)"><rect x="1" width="11.999999999999996" height="0"></rect></g><g class="bar" transform="translate(442.00000000000006,310)"><rect x="1" width="11.999999999999996" height="0"></rect></g><g class="bar" transform="translate(455,310)"><rect x="1" width="11.999999999999996" height="0"></rect></g><g class="bar" transform="translate(468,310)"><rect x="1" width="11.999999999999996" height="0"></rect></g><g class="bar" transform="translate(481,310)"><rect x="1" width="11.999999999999996" height="0"></rect></g><g class="bar" transform="translate(494.00000000000006,310)"><rect x="1" width="11.999999999999996" height="0"></rect></g><g class="bar" transform="translate(507.00000000000006,310)"><rect x="1" width="11.999999999999996" height="0"></rect></g><g class="axis axis--x" transform="translate(0,310)" fill="none" font-size="10" font-family="sans-serif" text-anchor="middle"><path class="domain" stroke="#000" d="M0.5,6V0.5H520.5V6"></path><g class="tick" opacity="1" transform="translate(0,0)"><line stroke="#000" y2="6" x1="0.5" x2="0.5"></line><text fill="#000" y="9" x="0.5" dy="0.71em">0.01</text></g><g class="tick" opacity="1" transform="translate(130,0)"><line stroke="#000" y2="6" x1="0.5" x2="0.5"></line><text fill="#000" y="9" x="0.5" dy="0.71em">1</text></g><g class="tick" opacity="1" transform="translate(260,0)"><line stroke="#000" y2="6" x1="0.5" x2="0.5"></line><text fill="#000" y="9" x="0.5" dy="0.71em">100</text></g><g class="tick" opacity="1" transform="translate(390,0)"><line stroke="#000" y2="6" x1="0.5" x2="0.5"></line><text fill="#000" y="9" x="0.5" dy="0.71em">10000</text></g><g class="tick" opacity="1" transform="translate(520,0)"><line stroke="#000" y2="6" x1="0.5" x2="0.5"></line><text fill="#000" y="9" x="0.5" dy="0.71em"></text></g></g><g class="axis axis--y" fill="none" font-size="10" font-family="sans-serif" text-anchor="end"><path class="domain" stroke="#000" d="M-6,310.5H0.5V0.5H-6"></path><g class="tick" opacity="1" transform="translate(0,310)"><line stroke="#000" x2="-6" y1="0.5" y2="0.5"></line><text fill="#000" x="-9" y="0.5" dy="0.32em">0</text></g><g class="tick" opacity="1" transform="translate(0,267.4175824175824)"><line stroke="#000" x2="-6" y1="0.5" y2="0.5"></line><text fill="#000" x="-9" y="0.5" dy="0.32em">50</text></g><g class="tick" opacity="1" transform="translate(0,224.83516483516485)"><line stroke="#000" x2="-6" y1="0.5" y2="0.5"></line><text fill="#000" x="-9" y="0.5" dy="0.32em">100</text></g><g class="tick" opacity="1" transform="translate(0,182.25274725274727)"><line stroke="#000" x2="-6" y1="0.5" y2="0.5"></line><text fill="#000" x="-9" y="0.5" dy="0.32em">150</text></g><g class="tick" opacity="1" transform="translate(0,139.67032967032966)"><line stroke="#000" x2="-6" y1="0.5" y2="0.5"></line><text fill="#000" x="-9" y="0.5" dy="0.32em">200</text></g><g class="tick" opacity="1" transform="translate(0,97.08791208791209)"><line stroke="#000" x2="-6" y1="0.5" y2="0.5"></line><text fill="#000" x="-9" y="0.5" dy="0.32em">250</text></g><g class="tick" opacity="1" transform="translate(0,54.50549450549451)"><line stroke="#000" x2="-6" y1="0.5" y2="0.5"></line><text fill="#000" x="-9" y="0.5" dy="0.32em">300</text></g><g class="tick" opacity="1" transform="translate(0,11.923076923076906)"><line stroke="#000" x2="-6" y1="0.5" y2="0.5"></line><text fill="#000" x="-9" y="0.5" dy="0.32em">350</text></g></g></g></svg>