<svg xmlns="http://www.w3.org/2000/svg" width="600" height="350"><defs><style type="text/css"><![CDATA[ 
.bar rect {
  fill-opacity: 0;
  stroke:       black;
  stroke-width: 0.5;
}

.highlight rect {
  fill:       red;
  fill-opacity: 1;
}
.axis path,
.axis line {
  fill: none;
  stroke: #000;
  shape-rendering: crispEdges;
}
path {
    stroke: red;
    fill: none;
}

line {
    stroke: red;
}

path.marker {
    fill: red;
}
 ]]></style></defs><g transform="translate(50,10)"><g class="bar" transform="translate(0,310)"><rect x="1" width="11.999999999999996" height="0"></rect></g><g class="bar" transform="translate(12.999999999999996,310)"><rect x="1" width="11.999999999999996" height="0"></rect></g><g class="bar" transform="translate(25.999999999999993,310)"><rect x="1" width="11.999999999999996" height="0"></rect></g><g class="bar" transform="translate(39.00000000000001,310)"><rect x="1" width="11.999999999999996" height="0"></rect></g><g class="bar" transform="translate(52,307.10280373831773)"><rect x="1" width="11.999999999999996" height="2.897196261682268"></rect></g><g class="bar" transform="translate(65,310)"><rect x="1" width="11.999999999999996" height="0"></rect></g><g class="bar" transform="translate(78.00000000000001,252.05607476635515)"><rect x="1" width="11.999999999999996" height="57.94392523364485"></rect></g><g class="bar" transform="translate(91.00000000000001,304.2056074766355)"><rect x="1" width="11.999999999999996" height="5.794392523364479"></rect></g><g class="bar" transform="translate(104,307.10280373831773)"><rect x="1" width="11.999999999999996" height="2.897196261682268"></rect></g><g class="bar" transform="translate(117,307.10280373831773)"><rect x="1" width="11.999999999999996" height="2.897196261682268"></rect></g><g class="bar" transform="translate(130,301.30841121495325)"><rect x="1" width="11.999999999999996" height="8.691588785046747"></rect></g><g class="bar" transform="translate(143,304.2056074766355)"><rect x="1" width="11.999999999999996" height="5.794392523364479"></rect></g><g class="bar" transform="translate(156.00000000000003,292.61682242990656)"><rect x="1" width="11.999999999999996" height="17.383177570093437"></rect></g><g class="bar" transform="translate(169,260.74766355140184)"><rect x="1" width="11.999999999999996" height="49.25233644859816"></rect></g><g class="bar" transform="translate(182.00000000000003,188.3177570093458)"><rect x="1" width="11.999999999999996" height="121.6822429906542"></rect></g><g class="bar" transform="translate(195,173.83177570093457)"><rect x="1" width="11.999999999999996" height="136.16822429906543"></rect></g><g class="bar" transform="translate(208,75.32710280373831)"><rect x="1" width="11.999999999999996" height="234.6728971962617"></rect></g><g class="bar" transform="translate(221.00000000000003,66.6355140186916)"><rect x="1" width="11.999999999999996" height="243.3644859813084"></rect></g><g class="bar" transform="translate(234,60.841121495327116)"><rect x="1" width="11.999999999999996" height="249.15887850467288"></rect></g><g class="bar" transform="translate(247.00000000000003,60.841121495327116)"><rect x="1" width="11.999999999999996" height="249.15887850467288"></rect></g><g class="bar" transform="translate(260,49.25233644859816)"><rect x="1" width="11.999999999999996" height="260.74766355140184"></rect></g><g class="bar" transform="translate(273,0)"><rect x="1" width="11.999999999999996" height="310"></rect></g><g class="bar" transform="translate(286,43.45794392523362)"><rect x="1" width="11.999999999999996" height="266.5420560747664"></rect></g><g class="bar" transform="translate(299.00000000000006,86.9158878504673)"><rect x="1" width="11.999999999999996" height="223.0841121495327"></rect></g><g class="bar" transform="translate(312.00000000000006,78.22429906542058)"><rect x="1" width="11.999999999999996" height="231.77570093457942"></rect></g><g class="bar" transform="translate(325,69.53271028037383)"><rect x="1" width="11.999999999999996" height="240.46728971962617"></rect></g><g class="bar" transform="translate(338,26.074766355140184)"><rect x="1" width="11.999999999999996" height="283.9252336448598"></rect></g><g class="bar" transform="translate(351,182.52336448598132)"><rect x="1" width="11.999999999999996" height="127.47663551401868"></rect></g><g class="bar" transform="translate(364.00000000000006,223.0841121495327)"><rect x="1" width="11.999999999999996" height="86.9158878504673"></rect></g><g class="bar" transform="translate(377.00000000000006,263.6448598130841)"><rect x="1" width="11.999999999999996" height="46.35514018691589"></rect></g><g class="bar" transform="translate(390,292.61682242990656)"><rect x="1" width="11.999999999999996" height="17.383177570093437"></rect></g><g class="bar" transform="translate(403,310)"><rect x="1" width="11.999999999999996" height="0"></rect></g><g class="bar" transform="translate(416,307.10280373831773)"><rect x="1" width="11.999999999999996" height="2.897196261682268"></rect></g><g class="bar" transform="translate(429.00000000000006,310)"><rect x="1" width="11.999999999999996" height="0"></rect></g><g class="bar" transform="translate(442.00000000000006,310)"><rect x="1" width="11.999999999999996" height="0"></rect></g><g class="bar" transform="translate(455,310)"><rect x="1" width="11.999999999999996" height="0"></rect></g><g class="bar" transform="translate(468,310)"><rect x="1" width="11.999999999999996" height="0"></rect></g><g class="bar" transform="translate(481,310)"><rect x="1" width="11.999999999999996" height="0"></rect></g><g class="bar" transform="translate(494.00000000000006,310)"><rect x="1" width="11.999999999999996" height="0"></rect></g><g class="bar" transform="translate(507.00000000000006,310)"><rect x="1" width="11.999999999999996" height="0"></rect></g><g class="axis axis--x" transform="translate(0,310)" fill="none" font-size="10" font-family="sans-serif" text-anchor="middle"><path class="domain" stroke="#000" d="M0.5,6V0.5H520.5V6"></path><g class="tick" opacity="1" transform="translate(0.5,0)"><line stroke="#000" y2="6"></line><text fill="#000" y="9" dy="0.71em">0.01</text></g><g class="tick" opacity="1" transform="translate(130.5,0)"><line stroke="#000" y2="6"></line><text fill="#000" y="9" dy="0.71em">1</text></g><g class="tick" opacity="1" transform="translate(260.5,0)"><line stroke="#000" y2="6"></line><text fill="#000" y="9" dy="0.71em">100</text></g><g class="tick" opacity="1" transform="translate(390.5,0)"><line stroke="#000" y2="6"></line><text fill="#000" y="9" dy="0.71em">10000</text></g><g class="tick" opacity="1" transform="translate(520.5,0)"><line stroke="#000" y2="6"></line><text fill="#000" y="9" dy="0.71em"></text></g></g><g class="axis axis--y" fill="none" font-size="10" font-family="sans-serif" text-anchor="end"><path class="domain" stroke="#000" d="M-6,310.5H0.5V0.5H-6"></path><g class="tick" opacity="1" transform="translate(0,310.5)"><line stroke="#000" x2="-6"></line><text fill="#000" x="-9" dy="0.32em">0</text></g><g class="tick" opacity="1" transform="translate(0,281.52803738317755)"><line stroke="#000" x2="-6"></line><text fill="#000" x="-9" dy="0.32em">10</text></g><g class="tick" opacity="1" transform="translate(0,252.55607476635515)"><line stroke="#000" x2="-6"></line><text fill="#000" x="-9" dy="0.32em">20</text></g><g class="tick" opacity="1" transform="translate(0,223.5841121495327)"><line stroke="#000" x2="-6"></line><text fill="#000" x="-9" dy="0.32em">30</text></g><g class="tick" opacity="1" transform="translate(0,194.6121495327103)"><line stroke="#000" x2="-6"></line><text fill="#000" x="-9" dy="0.32em">40</text></g><g class="tick" opacity="1" transform="translate(0,165.64018691588785)"><line stroke="#000" x2="-6"></line><text fill="#000" x="-9" dy="0.32em">50</text></g><g class="tick" opacity="1" transform="translate(0,136.66822429906543)"><line stroke="#000" x2="-6"></line><text fill="#000" x="-9" dy="0.32em">60</text></g><g class="tick" opacity="1" transform="translate(0,107.696261682243)"><line stroke="#000" x2="-6"></line><text fill="#000" x="-9" dy="0.32em">70</text></g><g class="tick" opacity="1" transform="translate(0,78.72429906542058)"><line stroke="#000" x2="-6"></line><text fill="#000" x="-9" dy="0.32em">80</text></g><g class="tick" opacity="1" transform="translate(0,49.75233644859816)"><line stroke="#000" x2="-6"></line><text fill="#000" x="-9" dy="0.32em">90</text></g><g class="tick" opacity="1" transform="translate(0,20.780373831775705)"><line stroke="#000" x2="-6"></line><text fill="#000" x="-9" dy="0.32em">100</text></g></g></g></svg>