<svg xmlns="http://www.w3.org/2000/svg" width="600" height="350"><defs><style type="text/css"><![CDATA[ 
.bar rect {
  fill-opacity: 0;
  stroke:       black;
  stroke-width: 0.5;
}

.highlight rect {
  fill:       red;
  fill-opacity: 1;
}
.axis path,
.axis line {
  fill: none;
  stroke: #000;
  shape-rendering: crispEdges;
}
path {
    stroke: red;
    fill: none;
}

line {
    stroke: red;
}

path.marker {
    fill: red;
}
 ]]></style></defs><g transform="translate(50,10)"><g class="bar" transform="translate(0,310)"><rect x="1" width="11.999999999999996" height="0"></rect></g><g class="bar" transform="translate(12.999999999999996,310)"><rect x="1" width="11.999999999999996" height="0"></rect></g><g class="bar" transform="translate(25.999999999999993,310)"><rect x="1" width="11.999999999999996" height="0"></rect></g><g class="bar" transform="translate(39.00000000000001,310)"><rect x="1" width="11.999999999999996" height="0"></rect></g><g class="bar" transform="translate(52,310)"><rect x="1" width="11.999999999999996" height="0"></rect></g><g class="bar" transform="translate(65,310)"><rect x="1" width="11.999999999999996" height="0"></rect></g><g class="bar" transform="translate(78.00000000000001,310)"><rect x="1" width="11.999999999999996" height="0"></rect></g><g class="bar" transform="translate(91.00000000000001,310)"><rect x="1" width="11.999999999999996" height="0"></rect></g><g class="bar" transform="translate(104,310)"><rect x="1" width="11.999999999999996" height="0"></rect></g><g class="bar" transform="translate(117,310)"><rect x="1" width="11.999999999999996" height="0"></rect></g><g class="bar" transform="translate(130,310)"><rect x="1" width="11.999999999999996" height="0"></rect></g><g class="bar" transform="translate(143,310)"><rect x="1" width="11.999999999999996" height="0"></rect></g><g class="bar" transform="translate(156.00000000000003,306.0759493670886)"><rect x="1" width="11.999999999999996" height="3.924050632911417"></rect></g><g class="bar" transform="translate(169,298.2278481012658)"><rect x="1" width="11.999999999999996" height="11.772151898734194"></rect></g><g class="bar" transform="translate(182.00000000000003,306.0759493670886)"><rect x="1" width="11.999999999999996" height="3.924050632911417"></rect></g><g class="bar" transform="translate(195,282.53164556962025)"><rect x="1" width="11.999999999999996" height="27.468354430379748"></rect></g><g class="bar" transform="translate(208,211.8987341772152)"><rect x="1" width="11.999999999999996" height="98.1012658227848"></rect></g><g class="bar" transform="translate(221.00000000000003,137.34177215189874)"><rect x="1" width="11.999999999999996" height="172.65822784810126"></rect></g><g class="bar" transform="translate(234,70.63291139240505)"><rect x="1" width="11.999999999999996" height="239.36708860759495"></rect></g><g class="bar" transform="translate(247.00000000000003,66.70886075949369)"><rect x="1" width="11.999999999999996" height="243.2911392405063"></rect></g><g class="bar" transform="translate(260,0)"><rect x="1" width="11.999999999999996" height="310"></rect></g><g class="bar" transform="translate(273,74.55696202531644)"><rect x="1" width="11.999999999999996" height="235.44303797468356"></rect></g><g class="bar" transform="translate(286,43.1645569620253)"><rect x="1" width="11.999999999999996" height="266.8354430379747"></rect></g><g class="bar" transform="translate(299.00000000000006,31.392405063291108)"><rect x="1" width="11.999999999999996" height="278.6075949367089"></rect></g><g class="bar" transform="translate(312.00000000000006,82.40506329113924)"><rect x="1" width="11.999999999999996" height="227.59493670886076"></rect></g><g class="bar" transform="translate(325,82.40506329113924)"><rect x="1" width="11.999999999999996" height="227.59493670886076"></rect></g><g class="bar" transform="translate(338,117.72151898734177)"><rect x="1" width="11.999999999999996" height="192.27848101265823"></rect></g><g class="bar" transform="translate(351,153.0379746835443)"><rect x="1" width="11.999999999999996" height="156.9620253164557"></rect></g><g class="bar" transform="translate(364.00000000000006,211.8987341772152)"><rect x="1" width="11.999999999999996" height="98.1012658227848"></rect></g><g class="bar" transform="translate(377.00000000000006,258.9873417721519)"><rect x="1" width="11.999999999999996" height="51.01265822784808"></rect></g><g class="bar" transform="translate(390,282.53164556962025)"><rect x="1" width="11.999999999999996" height="27.468354430379748"></rect></g><g class="bar" transform="translate(403,282.53164556962025)"><rect x="1" width="11.999999999999996" height="27.468354430379748"></rect></g><g class="bar" transform="translate(416,302.1518987341772)"><rect x="1" width="11.999999999999996" height="7.848101265822777"></rect></g><g class="bar" transform="translate(429.00000000000006,306.0759493670886)"><rect x="1" width="11.999999999999996" height="3.924050632911417"></rect></g><g class="bar" transform="translate(442.00000000000006,310)"><rect x="1" width="11.999999999999996" height="0"></rect></g><g class="bar" transform="translate(455,310)"><rect x="1" width="11.999999999999996" height="0"></rect></g><g class="bar" transform="translate(468,310)"><rect x="1" width="11.999999999999996" height="0"></rect></g><g class="bar" transform="translate(481,310)"><rect x="1" width="11.999999999999996" height="0"></rect></g><g class="bar" transform="translate(494.00000000000006,310)"><rect x="1" width="11.999999999999996" height="0"></rect></g><g class="bar" transform="translate(507.00000000000006,310)"><rect x="1" width="11.999999999999996" height="0"></rect></g><g class="axis axis--x" transform="translate(0,310)" fill="none" font-size="10" font-family="sans-serif" text-anchor="middle"><path class="domain" stroke="#000" d="M0.5,6V0.5H520.5V6"></path><g class="tick" opacity="1" transform="translate(0.5,0)"><line stroke="#000" y2="6"></line><text fill="#000" y="9" dy="0.71em">0.01</text></g><g class="tick" opacity="1" transform="translate(130.5,0)"><line stroke="#000" y2="6"></line><text fill="#000" y="9" dy="0.71em">1</text></g><g class="tick" opacity="1" transform="translate(260.5,0)"><line stroke="#000" y2="6"></line><text fill="#000" y="9" dy="0.71em">100</text></g><g class="tick" opacity="1" transform="translate(390.5,0)"><line stroke="#000" y2="6"></line><text fill="#000" y="9" dy="0.71em">10000</text></g><g class="tick" opacity="1" transform="translate(520.5,0)"><line stroke="#000" y2="6"></line><text fill="#000" y="9" dy="0.71em"></text></g></g><g class="axis axis--y" fill="none" font-size="10" font-family="sans-serif" text-anchor="end"><path class="domain" stroke="#000" d="M-6,310.5H0.5V0.5H-6"></path><g class="tick" opacity="1" transform="translate(0,310.5)"><line stroke="#000" x2="-6"></line><text fill="#000" x="-9" dy="0.32em">0</text></g><g class="tick" opacity="1" transform="translate(0,271.25949367088606)"><line stroke="#000" x2="-6"></line><text fill="#000" x="-9" dy="0.32em">10</text></g><g class="tick" opacity="1" transform="translate(0,232.01898734177215)"><line stroke="#000" x2="-6"></line><text fill="#000" x="-9" dy="0.32em">20</text></g><g class="tick" opacity="1" transform="translate(0,192.77848101265823)"><line stroke="#000" x2="-6"></line><text fill="#000" x="-9" dy="0.32em">30</text></g><g class="tick" opacity="1" transform="translate(0,153.5379746835443)"><line stroke="#000" x2="-6"></line><text fill="#000" x="-9" dy="0.32em">40</text></g><g class="tick" opacity="1" transform="translate(0,114.29746835443038)"><line stroke="#000" x2="-6"></line><text fill="#000" x="-9" dy="0.32em">50</text></g><g class="tick" opacity="1" transform="translate(0,75.05696202531644)"><line stroke="#000" x2="-6"></line><text fill="#000" x="-9" dy="0.32em">60</text></g><g class="tick" opacity="1" transform="translate(0,35.816455696202524)"><line stroke="#000" x2="-6"></line><text fill="#000" x="-9" dy="0.32em">70</text></g></g></g></svg>