<svg xmlns="http://www.w3.org/2000/svg" width="600" height="350"><defs><style type="text/css"><![CDATA[ 
.bar rect {
  fill-opacity: 0;
  stroke:       black;
  stroke-width: 0.5;
}

.highlight rect {
  fill:       red;
  fill-opacity: 1;
}
.axis path,
.axis line {
  fill: none;
  stroke: #000;
  shape-rendering: crispEdges;
}
path {
    stroke: red;
    fill: none;
}

line {
    stroke: red;
}

path.marker {
    fill: red;
}
 ]]></style></defs><g transform="translate(50,10)"><g class="bar" transform="translate(0,307.84722222222223)"><rect x="1" width="11.999999999999996" height="2.1527777777777715"></rect></g><g class="bar" transform="translate(12.999999999999996,308.9236111111111)"><rect x="1" width="11.999999999999996" height="1.0763888888889142"></rect></g><g class="bar" transform="translate(25.999999999999993,298.15972222222223)"><rect x="1" width="11.999999999999996" height="11.840277777777771"></rect></g><g class="bar" transform="translate(39.00000000000001,297.0833333333333)"><rect x="1" width="11.999999999999996" height="12.916666666666686"></rect></g><g class="bar" transform="translate(52,294.93055555555554)"><rect x="1" width="11.999999999999996" height="15.069444444444457"></rect></g><g class="bar" transform="translate(65,290.625)"><rect x="1" width="11.999999999999996" height="19.375"></rect></g><g class="bar" transform="translate(78.00000000000001,282.0138888888889)"><rect x="1" width="11.999999999999996" height="27.986111111111086"></rect></g><g class="bar" transform="translate(91.00000000000001,238.95833333333334)"><rect x="1" width="11.999999999999996" height="71.04166666666666"></rect></g><g class="bar" transform="translate(104,204.51388888888889)"><rect x="1" width="11.999999999999996" height="105.48611111111111"></rect></g><g class="bar" transform="translate(117,96.875)"><rect x="1" width="11.999999999999996" height="213.125"></rect></g><g class="bar" transform="translate(130,75.34722222222223)"><rect x="1" width="11.999999999999996" height="234.65277777777777"></rect></g><g class="bar" transform="translate(143,16.14583333333337)"><rect x="1" width="11.999999999999996" height="293.85416666666663"></rect></g><g class="bar" transform="translate(156.00000000000003,0)"><rect x="1" width="11.999999999999996" height="310"></rect></g><g class="bar" transform="translate(169,2.1527777777777715)"><rect x="1" width="11.999999999999996" height="307.84722222222223"></rect></g><g class="bar" transform="translate(182.00000000000003,6.458333333333371)"><rect x="1" width="11.999999999999996" height="303.54166666666663"></rect></g><g class="bar" transform="translate(195,8.611111111111143)"><rect x="1" width="11.999999999999996" height="301.38888888888886"></rect></g><g class="bar" transform="translate(208,25.83333333333337)"><rect x="1" width="11.999999999999996" height="284.16666666666663"></rect></g><g class="bar" transform="translate(221.00000000000003,45.20833333333337)"><rect x="1" width="11.999999999999996" height="264.79166666666663"></rect></g><g class="bar" transform="translate(234,62.43055555555554)"><rect x="1" width="11.999999999999996" height="247.56944444444446"></rect></g><g class="bar" transform="translate(247.00000000000003,10.763888888888857)"><rect x="1" width="11.999999999999996" height="299.23611111111114"></rect></g><g class="bar" transform="translate(260,127.01388888888889)"><rect x="1" width="11.999999999999996" height="182.98611111111111"></rect></g><g class="bar" transform="translate(273,151.77083333333334)"><rect x="1" width="11.999999999999996" height="158.22916666666666"></rect></g><g class="bar" transform="translate(286,198.05555555555554)"><rect x="1" width="11.999999999999996" height="111.94444444444446"></rect></g><g class="bar" transform="translate(299.00000000000006,234.65277777777777)"><rect x="1" width="11.999999999999996" height="75.34722222222223"></rect></g><g class="bar" transform="translate(312.00000000000006,257.25694444444446)"><rect x="1" width="11.999999999999996" height="52.74305555555554"></rect></g><g class="bar" transform="translate(325,271.25)"><rect x="1" width="11.999999999999996" height="38.75"></rect></g><g class="bar" transform="translate(338,274.4791666666667)"><rect x="1" width="11.999999999999996" height="35.520833333333314"></rect></g><g class="bar" transform="translate(351,286.31944444444446)"><rect x="1" width="11.999999999999996" height="23.680555555555543"></rect></g><g class="bar" transform="translate(364.00000000000006,291.7013888888889)"><rect x="1" width="11.999999999999996" height="18.298611111111086"></rect></g><g class="bar" transform="translate(377.00000000000006,292.77777777777777)"><rect x="1" width="11.999999999999996" height="17.22222222222223"></rect></g><g class="bar" transform="translate(390,305.69444444444446)"><rect x="1" width="11.999999999999996" height="4.305555555555543"></rect></g><g class="bar" transform="translate(403,303.5416666666667)"><rect x="1" width="11.999999999999996" height="6.458333333333314"></rect></g><g class="bar" transform="translate(416,307.84722222222223)"><rect x="1" width="11.999999999999996" height="2.1527777777777715"></rect></g><g class="bar" transform="translate(429.00000000000006,310)"><rect x="1" width="11.999999999999996" height="0"></rect></g><g class="bar" transform="translate(442.00000000000006,307.84722222222223)"><rect x="1" width="11.999999999999996" height="2.1527777777777715"></rect></g><g class="bar" transform="translate(455,310)"><rect x="1" width="11.999999999999996" height="0"></rect></g><g class="bar" transform="translate(468,310)"><rect x="1" width="11.999999999999996" height="0"></rect></g><g class="bar" transform="translate(481,310)"><rect x="1" width="11.999999999999996" height="0"></rect></g><g class="bar" transform="translate(494.00000000000006,310)"><rect x="1" width="11.999999999999996" height="0"></rect></g><g class="bar" transform="translate(507.00000000000006,310)"><rect x="1" width="11.999999999999996" height="0"></rect></g><g class="axis axis--x" transform="translate(0,310)" fill="none" font-size="10" font-family="sans-serif" text-anchor="middle"><path class="domain" stroke="#000" d="M0.5,6V0.5H520.5V6"></path><g class="tick" opacity="1" transform="translate(0.5,0)"><line stroke="#000" y2="6"></line><text fill="#000" y="9" dy="0.71em">0.01</text></g><g class="tick" opacity="1" transform="translate(130.5,0)"><line stroke="#000" y2="6"></line><text fill="#000" y="9" dy="0.71em">1</text></g><g class="tick" opacity="1" transform="translate(260.5,0)"><line stroke="#000" y2="6"></line><text fill="#000" y="9" dy="0.71em">100</text></g><g class="tick" opacity="1" transform="translate(390.5,0)"><line stroke="#000" y2="6"></line><text fill="#000" y="9" dy="0.71em">10000</text></g><g class="tick" opacity="1" transform="translate(520.5,0)"><line stroke="#000" y2="6"></line><text fill="#000" y="9" dy="0.71em"></text></g></g><g class="axis axis--y" fill="none" font-size="10" font-family="sans-serif" text-anchor="end"><path class="domain" stroke="#000" d="M-6,310.5H0.5V0.5H-6"></path><g class="tick" opacity="1" transform="translate(0,310.5)"><line stroke="#000" x2="-6"></line><text fill="#000" x="-9" dy="0.32em">0</text></g><g class="tick" opacity="1" transform="translate(0,288.97222222222223)"><line stroke="#000" x2="-6"></line><text fill="#000" x="-9" dy="0.32em">20</text></g><g class="tick" opacity="1" transform="translate(0,267.44444444444446)"><line stroke="#000" x2="-6"></line><text fill="#000" x="-9" dy="0.32em">40</text></g><g class="tick" opacity="1" transform="translate(0,245.91666666666666)"><line stroke="#000" x2="-6"></line><text fill="#000" x="-9" dy="0.32em">60</text></g><g class="tick" opacity="1" transform="translate(0,224.38888888888889)"><line stroke="#000" x2="-6"></line><text fill="#000" x="-9" dy="0.32em">80</text></g><g class="tick" opacity="1" transform="translate(0,202.86111111111111)"><line stroke="#000" x2="-6"></line><text fill="#000" x="-9" dy="0.32em">100</text></g><g class="tick" opacity="1" transform="translate(0,181.33333333333331)"><line stroke="#000" x2="-6"></line><text fill="#000" x="-9" dy="0.32em">120</text></g><g class="tick" opacity="1" transform="translate(0,159.80555555555557)"><line stroke="#000" x2="-6"></line><text fill="#000" x="-9" dy="0.32em">140</text></g><g class="tick" opacity="1" transform="translate(0,138.27777777777777)"><line stroke="#000" x2="-6"></line><text fill="#000" x="-9" dy="0.32em">160</text></g><g class="tick" opacity="1" transform="translate(0,116.75)"><line stroke="#000" x2="-6"></line><text fill="#000" x="-9" dy="0.32em">180</text></g><g class="tick" opacity="1" transform="translate(0,95.22222222222223)"><line stroke="#000" x2="-6"></line><text fill="#000" x="-9" dy="0.32em">200</text></g><g class="tick" opacity="1" transform="translate(0,73.69444444444446)"><line stroke="#000" x2="-6"></line><text fill="#000" x="-9" dy="0.32em">220</text></g><g class="tick" opacity="1" transform="translate(0,52.16666666666663)"><line stroke="#000" x2="-6"></line><text fill="#000" x="-9" dy="0.32em">240</text></g><g class="tick" opacity="1" transform="translate(0,30.638888888888857)"><line stroke="#000" x2="-6"></line><text fill="#000" x="-9" dy="0.32em">260</text></g><g class="tick" opacity="1" transform="translate(0,9.111111111111143)"><line stroke="#000" x2="-6"></line><text fill="#000" x="-9" dy="0.32em">280</text></g></g></g></svg>