<svg xmlns="http://www.w3.org/2000/svg" width="280" height="160"><defs><style type="text/css"><![CDATA[ 
.bar rect {
  fill-opacity: 0;
  stroke:       black;
  stroke-width: 0.5;
}

.highlight rect {
  fill:       red;
  fill-opacity: 1;
}
.axis path,
.axis line {
  fill: none;
  stroke: #000;
  shape-rendering: crispEdges;
}
path {
    stroke: red;
    fill: none;
}

line {
    stroke: red;
}

path.marker {
    fill: red;
}
 ]]></style></defs><g transform="translate(50,10)"><g class="bar" transform="translate(0,100.24886877828054)"><rect x="1" width="11.5" height="19.75113122171946"></rect></g><g class="bar" transform="translate(12.5,79.27601809954751)"><rect x="1" width="11.5" height="40.723981900452486"></rect></g><g class="bar" transform="translate(25,55.113122171945705)"><rect x="1" width="11.5" height="64.8868778280543"></rect></g><g class="bar" transform="translate(37.5,48.800904977375566)"><rect x="1" width="11.5" height="71.19909502262443"></rect></g><g class="bar" transform="translate(50,38.552036199095014)"><rect x="1" width="11.5" height="81.44796380090499"></rect></g><g class="bar" transform="translate(62.5,21.92307692307692)"><rect x="1" width="11.5" height="98.07692307692308"></rect></g><g class="bar" transform="translate(75,1.0859728506787292)"><rect x="1" width="11.5" height="118.91402714932127"></rect></g><g class="bar" transform="translate(87.5,0)"><rect x="1" width="11.5" height="120"></rect></g><g class="bar" transform="translate(100,43.57466063348417)"><rect x="1" width="11.5" height="76.42533936651583"></rect></g><g class="bar" transform="translate(112.5,86.94570135746606)"><rect x="1" width="11.5" height="33.05429864253394"></rect></g><g class="bar" transform="translate(125,108.2579185520362)"><rect x="1" width="11.5" height="11.742081447963798"></rect></g><g class="bar" transform="translate(137.5,118.57466063348416)"><rect x="1" width="11.5" height="1.4253393665158427"></rect></g><g class="bar" transform="translate(150,120)"><rect x="1" width="11.5" height="0"></rect></g><g class="bar" transform="translate(162.5,120)"><rect x="1" width="11.5" height="0"></rect></g><g class="bar" transform="translate(175,120)"><rect x="1" width="11.5" height="0"></rect></g><g class="bar" transform="translate(187.5,120)"><rect x="1" width="11.5" height="0"></rect></g></g></svg>