<svg xmlns="http://www.w3.org/2000/svg" width="600" height="350"><defs><style type="text/css"><![CDATA[ 
.bar rect {
  fill-opacity: 0;
  stroke:       black;
  stroke-width: 0.5;
}

.highlight rect {
  fill:       red;
  fill-opacity: 1;
}
.axis path,
.axis line {
  fill: none;
  stroke: #000;
  shape-rendering: crispEdges;
}
path {
    stroke: red;
    fill: none;
}

line {
    stroke: red;
}

path.marker {
    fill: red;
}
 ]]></style></defs><g transform="translate(50,10)"><g class="bar" transform="translate(0,279.48818897637796)"><rect x="1" width="11.999999999999996" height="30.511811023622045"></rect></g><g class="bar" transform="translate(12.999999999999996,254.26509186351706)"><rect x="1" width="11.999999999999996" height="55.73490813648294"></rect></g><g class="bar" transform="translate(25.999999999999993,238.3989501312336)"><rect x="1" width="11.999999999999996" height="71.60104986876641"></rect></g><g class="bar" transform="translate(39.00000000000001,211.95538057742783)"><rect x="1" width="11.999999999999996" height="98.04461942257217"></rect></g><g class="bar" transform="translate(52,203.41207349081367)"><rect x="1" width="11.999999999999996" height="106.58792650918633"></rect></g><g class="bar" transform="translate(65,149.71128608923885)"><rect x="1" width="11.999999999999996" height="160.28871391076115"></rect></g><g class="bar" transform="translate(78.00000000000001,151.74540682414695)"><rect x="1" width="11.999999999999996" height="158.25459317585305"></rect></g><g class="bar" transform="translate(91.00000000000001,152.55905511811025)"><rect x="1" width="11.999999999999996" height="157.44094488188975"></rect></g><g class="bar" transform="translate(104,144.01574803149606)"><rect x="1" width="11.999999999999996" height="165.98425196850394"></rect></g><g class="bar" transform="translate(117,136.28608923884514)"><rect x="1" width="11.999999999999996" height="173.71391076115486"></rect></g><g class="bar" transform="translate(130,125.30183727034122)"><rect x="1" width="11.999999999999996" height="184.69816272965878"></rect></g><g class="bar" transform="translate(143,104.14698162729658)"><rect x="1" width="11.999999999999996" height="205.85301837270342"></rect></g><g class="bar" transform="translate(156.00000000000003,100.48556430446195)"><rect x="1" width="11.999999999999996" height="209.51443569553805"></rect></g><g class="bar" transform="translate(169,94.79002624671915)"><rect x="1" width="11.999999999999996" height="215.20997375328085"></rect></g><g class="bar" transform="translate(182.00000000000003,49.22572178477691)"><rect x="1" width="11.999999999999996" height="260.7742782152231"></rect></g><g class="bar" transform="translate(195,53.700787401574814)"><rect x="1" width="11.999999999999996" height="256.2992125984252"></rect></g><g class="bar" transform="translate(208,10.1706036745407)"><rect x="1" width="11.999999999999996" height="299.8293963254593"></rect></g><g class="bar" transform="translate(221.00000000000003,0)"><rect x="1" width="11.999999999999996" height="310"></rect></g><g class="bar" transform="translate(234,17.493438320209975)"><rect x="1" width="11.999999999999996" height="292.50656167979"></rect></g><g class="bar" transform="translate(247.00000000000003,36.61417322834649)"><rect x="1" width="11.999999999999996" height="273.3858267716535"></rect></g><g class="bar" transform="translate(260,91.94225721784775)"><rect x="1" width="11.999999999999996" height="218.05774278215225"></rect></g><g class="bar" transform="translate(273,133.43832020997377)"><rect x="1" width="11.999999999999996" height="176.56167979002623"></rect></g><g class="bar" transform="translate(286,185.51181102362204)"><rect x="1" width="11.999999999999996" height="124.48818897637796"></rect></g><g class="bar" transform="translate(299.00000000000006,224.16010498687666)"><rect x="1" width="11.999999999999996" height="85.83989501312334"></rect></g><g class="bar" transform="translate(312.00000000000006,258.74015748031496)"><rect x="1" width="11.999999999999996" height="51.25984251968504"></rect></g><g class="bar" transform="translate(325,274.6062992125984)"><rect x="1" width="11.999999999999996" height="35.3937007874016"></rect></g><g class="bar" transform="translate(338,285.18372703412075)"><rect x="1" width="11.999999999999996" height="24.81627296587925"></rect></g><g class="bar" transform="translate(351,296.5748031496063)"><rect x="1" width="11.999999999999996" height="13.425196850393718"></rect></g><g class="bar" transform="translate(364.00000000000006,305.93175853018374)"><rect x="1" width="11.999999999999996" height="4.0682414698162574"></rect></g><g class="bar" transform="translate(377.00000000000006,308.7795275590551)"><rect x="1" width="11.999999999999996" height="1.2204724409448886"></rect></g><g class="bar" transform="translate(390,310)"><rect x="1" width="11.999999999999996" height="0"></rect></g><g class="bar" transform="translate(403,310)"><rect x="1" width="11.999999999999996" height="0"></rect></g><g class="bar" transform="translate(416,310)"><rect x="1" width="11.999999999999996" height="0"></rect></g><g class="bar" transform="translate(429.00000000000006,310)"><rect x="1" width="11.999999999999996" height="0"></rect></g><g class="bar" transform="translate(442.00000000000006,310)"><rect x="1" width="11.999999999999996" height="0"></rect></g><g class="bar" transform="translate(455,310)"><rect x="1" width="11.999999999999996" height="0"></rect></g><g class="bar" transform="translate(468,310)"><rect x="1" width="11.999999999999996" height="0"></rect></g><g class="bar" transform="translate(481,310)"><rect x="1" width="11.999999999999996" height="0"></rect></g><g class="bar" transform="translate(494.00000000000006,310)"><rect x="1" width="11.999999999999996" height="0"></rect></g><g class="bar" transform="translate(507.00000000000006,310)"><rect x="1" width="11.999999999999996" height="0"></rect></g><g class="axis axis--x" transform="translate(0,310)" fill="none" font-size="10" font-family="sans-serif" text-anchor="middle"><path class="domain" stroke="#000" d="M0.5,6V0.5H520.5V6"></path><g class="tick" opacity="1" transform="translate(0.5,0)"><line stroke="#000" y2="6"></line><text fill="#000" y="9" dy="0.71em">0.01</text></g><g class="tick" opacity="1" transform="translate(130.5,0)"><line stroke="#000" y2="6"></line><text fill="#000" y="9" dy="0.71em">1</text></g><g class="tick" opacity="1" transform="translate(260.5,0)"><line stroke="#000" y2="6"></line><text fill="#000" y="9" dy="0.71em">100</text></g><g class="tick" opacity="1" transform="translate(390.5,0)"><line stroke="#000" y2="6"></line><text fill="#000" y="9" dy="0.71em">10000</text></g><g class="tick" opacity="1" transform="translate(520.5,0)"><line stroke="#000" y2="6"></line><text fill="#000" y="9" dy="0.71em"></text></g></g><g class="axis axis--y" fill="none" font-size="10" font-family="sans-serif" text-anchor="end"><path class="domain" stroke="#000" d="M-6,310.5H0.5V0.5H-6"></path><g class="tick" opacity="1" transform="translate(0,310.5)"><line stroke="#000" x2="-6"></line><text fill="#000" x="-9" dy="0.32em">0</text></g><g class="tick" opacity="1" transform="translate(0,269.81758530183725)"><line stroke="#000" x2="-6"></line><text fill="#000" x="-9" dy="0.32em">100</text></g><g class="tick" opacity="1" transform="translate(0,229.13517060367454)"><line stroke="#000" x2="-6"></line><text fill="#000" x="-9" dy="0.32em">200</text></g><g class="tick" opacity="1" transform="translate(0,188.45275590551182)"><line stroke="#000" x2="-6"></line><text fill="#000" x="-9" dy="0.32em">300</text></g><g class="tick" opacity="1" transform="translate(0,147.77034120734908)"><line stroke="#000" x2="-6"></line><text fill="#000" x="-9" dy="0.32em">400</text></g><g class="tick" opacity="1" transform="translate(0,107.08792650918633)"><line stroke="#000" x2="-6"></line><text fill="#000" x="-9" dy="0.32em">500</text></g><g class="tick" opacity="1" transform="translate(0,66.40551181102362)"><line stroke="#000" x2="-6"></line><text fill="#000" x="-9" dy="0.32em">600</text></g><g class="tick" opacity="1" transform="translate(0,25.7230971128609)"><line stroke="#000" x2="-6"></line><text fill="#000" x="-9" dy="0.32em">700</text></g></g></g></svg>