<svg xmlns="http://www.w3.org/2000/svg" width="600" height="350"><defs><style type="text/css"><![CDATA[ 
.bar rect {
  fill-opacity: 0;
  stroke:       black;
  stroke-width: 0.5;
}

.highlight rect {
  fill:       red;
  fill-opacity: 1;
}
.axis path,
.axis line {
  fill: none;
  stroke: #000;
  shape-rendering: crispEdges;
}
path {
    stroke: red;
    fill: none;
}

line {
    stroke: red;
}

path.marker {
    fill: red;
}
 ]]></style></defs><g transform="translate(50,10)"><g class="bar" transform="translate(0,306.7708333333333)"><rect x="1" width="11.999999999999996" height="3.2291666666666856"></rect></g><g class="bar" transform="translate(12.999999999999996,303.900462962963)"><rect x="1" width="11.999999999999996" height="6.09953703703701"></rect></g><g class="bar" transform="translate(25.999999999999993,299.5949074074074)"><rect x="1" width="11.999999999999996" height="10.40509259259261"></rect></g><g class="bar" transform="translate(39.00000000000001,284.52546296296293)"><rect x="1" width="11.999999999999996" height="25.474537037037067"></rect></g><g class="bar" transform="translate(52,260.12731481481484)"><rect x="1" width="11.999999999999996" height="49.87268518518516"></rect></g><g class="bar" transform="translate(65,233.2175925925926)"><rect x="1" width="11.999999999999996" height="76.78240740740739"></rect></g><g class="bar" transform="translate(78.00000000000001,182.26851851851853)"><rect x="1" width="11.999999999999996" height="127.73148148148147"></rect></g><g class="bar" transform="translate(91.00000000000001,132.75462962962962)"><rect x="1" width="11.999999999999996" height="177.24537037037038"></rect></g><g class="bar" transform="translate(104,82.52314814814815)"><rect x="1" width="11.999999999999996" height="227.47685185185185"></rect></g><g class="bar" transform="translate(117,45.56712962962962)"><rect x="1" width="11.999999999999996" height="264.4328703703704"></rect></g><g class="bar" transform="translate(130,26.550925925925924)"><rect x="1" width="11.999999999999996" height="283.4490740740741"></rect></g><g class="bar" transform="translate(143,23.680555555555543)"><rect x="1" width="11.999999999999996" height="286.31944444444446"></rect></g><g class="bar" transform="translate(156.00000000000003,0)"><rect x="1" width="11.999999999999996" height="310"></rect></g><g class="bar" transform="translate(169,6.0995370370370665)"><rect x="1" width="11.999999999999996" height="303.90046296296293"></rect></g><g class="bar" transform="translate(182.00000000000003,18.657407407407447)"><rect x="1" width="11.999999999999996" height="291.34259259259255"></rect></g><g class="bar" transform="translate(195,38.75)"><rect x="1" width="11.999999999999996" height="271.25"></rect></g><g class="bar" transform="translate(208,50.949074074074076)"><rect x="1" width="11.999999999999996" height="259.0509259259259"></rect></g><g class="bar" transform="translate(221.00000000000003,84.31712962962962)"><rect x="1" width="11.999999999999996" height="225.68287037037038"></rect></g><g class="bar" transform="translate(234,126.2962962962963)"><rect x="1" width="11.999999999999996" height="183.7037037037037"></rect></g><g class="bar" transform="translate(247.00000000000003,141.72453703703704)"><rect x="1" width="11.999999999999996" height="168.27546296296296"></rect></g><g class="bar" transform="translate(260,171.14583333333331)"><rect x="1" width="11.999999999999996" height="138.85416666666669"></rect></g><g class="bar" transform="translate(273,211.6898148148148)"><rect x="1" width="11.999999999999996" height="98.31018518518519"></rect></g><g class="bar" transform="translate(286,219.94212962962962)"><rect x="1" width="11.999999999999996" height="90.05787037037038"></rect></g><g class="bar" transform="translate(299.00000000000006,242.9050925925926)"><rect x="1" width="11.999999999999996" height="67.09490740740739"></rect></g><g class="bar" transform="translate(312.00000000000006,252.2337962962963)"><rect x="1" width="11.999999999999996" height="57.766203703703695"></rect></g><g class="bar" transform="translate(325,280.9375)"><rect x="1" width="11.999999999999996" height="29.0625"></rect></g><g class="bar" transform="translate(338,291.3425925925926)"><rect x="1" width="11.999999999999996" height="18.65740740740739"></rect></g><g class="bar" transform="translate(351,302.46527777777777)"><rect x="1" width="11.999999999999996" height="7.5347222222222285"></rect></g><g class="bar" transform="translate(364.00000000000006,304.61805555555554)"><rect x="1" width="11.999999999999996" height="5.381944444444457"></rect></g><g class="bar" transform="translate(377.00000000000006,307.4884259259259)"><rect x="1" width="11.999999999999996" height="2.511574074074076"></rect></g><g class="bar" transform="translate(390,307.84722222222223)"><rect x="1" width="11.999999999999996" height="2.1527777777777715"></rect></g><g class="bar" transform="translate(403,310)"><rect x="1" width="11.999999999999996" height="0"></rect></g><g class="bar" transform="translate(416,310)"><rect x="1" width="11.999999999999996" height="0"></rect></g><g class="bar" transform="translate(429.00000000000006,310)"><rect x="1" width="11.999999999999996" height="0"></rect></g><g class="bar" transform="translate(442.00000000000006,310)"><rect x="1" width="11.999999999999996" height="0"></rect></g><g class="bar" transform="translate(455,310)"><rect x="1" width="11.999999999999996" height="0"></rect></g><g class="bar" transform="translate(468,310)"><rect x="1" width="11.999999999999996" height="0"></rect></g><g class="bar" transform="translate(481,310)"><rect x="1" width="11.999999999999996" height="0"></rect></g><g class="bar" transform="translate(494.00000000000006,310)"><rect x="1" width="11.999999999999996" height="0"></rect></g><g class="bar" transform="translate(507.00000000000006,310)"><rect x="1" width="11.999999999999996" height="0"></rect></g><g class="axis axis--x" transform="translate(0,310)" fill="none" font-size="10" font-family="sans-serif" text-anchor="middle"><path class="domain" stroke="#000" d="M0.5,6V0.5H520.5V6"></path><g class="tick" opacity="1" transform="translate(0.5,0)"><line stroke="#000" y2="6"></line><text fill="#000" y="9" dy="0.71em">0.01</text></g><g class="tick" opacity="1" transform="translate(130.5,0)"><line stroke="#000" y2="6"></line><text fill="#000" y="9" dy="0.71em">1</text></g><g class="tick" opacity="1" transform="translate(260.5,0)"><line stroke="#000" y2="6"></line><text fill="#000" y="9" dy="0.71em">100</text></g><g class="tick" opacity="1" transform="translate(390.5,0)"><line stroke="#000" y2="6"></line><text fill="#000" y="9" dy="0.71em">10000</text></g><g class="tick" opacity="1" transform="translate(520.5,0)"><line stroke="#000" y2="6"></line><text fill="#000" y="9" dy="0.71em"></text></g></g><g class="axis axis--y" fill="none" font-size="10" font-family="sans-serif" text-anchor="end"><path class="domain" stroke="#000" d="M-6,310.5H0.5V0.5H-6"></path><g class="tick" opacity="1" transform="translate(0,310.5)"><line stroke="#000" x2="-6"></line><text fill="#000" x="-9" dy="0.32em">0</text></g><g class="tick" opacity="1" transform="translate(0,274.6203703703704)"><line stroke="#000" x2="-6"></line><text fill="#000" x="-9" dy="0.32em">100</text></g><g class="tick" opacity="1" transform="translate(0,238.74074074074073)"><line stroke="#000" x2="-6"></line><text fill="#000" x="-9" dy="0.32em">200</text></g><g class="tick" opacity="1" transform="translate(0,202.86111111111111)"><line stroke="#000" x2="-6"></line><text fill="#000" x="-9" dy="0.32em">300</text></g><g class="tick" opacity="1" transform="translate(0,166.98148148148147)"><line stroke="#000" x2="-6"></line><text fill="#000" x="-9" dy="0.32em">400</text></g><g class="tick" opacity="1" transform="translate(0,131.10185185185185)"><line stroke="#000" x2="-6"></line><text fill="#000" x="-9" dy="0.32em">500</text></g><g class="tick" opacity="1" transform="translate(0,95.22222222222223)"><line stroke="#000" x2="-6"></line><text fill="#000" x="-9" dy="0.32em">600</text></g><g class="tick" opacity="1" transform="translate(0,59.34259259259258)"><line stroke="#000" x2="-6"></line><text fill="#000" x="-9" dy="0.32em">700</text></g><g class="tick" opacity="1" transform="translate(0,23.462962962962933)"><line stroke="#000" x2="-6"></line><text fill="#000" x="-9" dy="0.32em">800</text></g></g></g></svg>