<svg xmlns="http://www.w3.org/2000/svg" width="600" height="350"><defs><style type="text/css"><![CDATA[ 
.bar rect {
  fill-opacity: 0;
  stroke:       black;
  stroke-width: 0.5;
}

.highlight rect {
  fill:       red;
  fill-opacity: 1;
}
.axis path,
.axis line {
  fill: none;
  stroke: #000;
  shape-rendering: crispEdges;
}
path {
    stroke: red;
    fill: none;
}

line {
    stroke: red;
}

path.marker {
    fill: red;
}
 ]]></style></defs><g transform="translate(50,10)"><g class="bar" transform="translate(0,310)"><rect x="1" width="11.999999999999996" height="0"></rect></g><g class="bar" transform="translate(12.999999999999996,310)"><rect x="1" width="11.999999999999996" height="0"></rect></g><g class="bar" transform="translate(25.999999999999993,310)"><rect x="1" width="11.999999999999996" height="0"></rect></g><g class="bar" transform="translate(39.00000000000001,310)"><rect x="1" width="11.999999999999996" height="0"></rect></g><g class="bar" transform="translate(52,310)"><rect x="1" width="11.999999999999996" height="0"></rect></g><g class="bar" transform="translate(65,310)"><rect x="1" width="11.999999999999996" height="0"></rect></g><g class="bar" transform="translate(78.00000000000001,310)"><rect x="1" width="11.999999999999996" height="0"></rect></g><g class="bar" transform="translate(91.00000000000001,310)"><rect x="1" width="11.999999999999996" height="0"></rect></g><g class="bar" transform="translate(104,310)"><rect x="1" width="11.999999999999996" height="0"></rect></g><g class="bar" transform="translate(117,308.9122807017544)"><rect x="1" width="11.999999999999996" height="1.087719298245588"></rect></g><g class="bar" transform="translate(130,302.3859649122807)"><rect x="1" width="11.999999999999996" height="7.614035087719287"></rect></g><g class="bar" transform="translate(143,289.3333333333333)"><rect x="1" width="11.999999999999996" height="20.666666666666686"></rect></g><g class="bar" transform="translate(156.00000000000003,289.3333333333333)"><rect x="1" width="11.999999999999996" height="20.666666666666686"></rect></g><g class="bar" transform="translate(169,270.8421052631579)"><rect x="1" width="11.999999999999996" height="39.15789473684208"></rect></g><g class="bar" transform="translate(182.00000000000003,214.28070175438597)"><rect x="1" width="11.999999999999996" height="95.71929824561403"></rect></g><g class="bar" transform="translate(195,145.75438596491227)"><rect x="1" width="11.999999999999996" height="164.24561403508773"></rect></g><g class="bar" transform="translate(208,62)"><rect x="1" width="11.999999999999996" height="248"></rect></g><g class="bar" transform="translate(221.00000000000003,39.15789473684208)"><rect x="1" width="11.999999999999996" height="270.8421052631579"></rect></g><g class="bar" transform="translate(234,40.245614035087726)"><rect x="1" width="11.999999999999996" height="269.7543859649123"></rect></g><g class="bar" transform="translate(247.00000000000003,0)"><rect x="1" width="11.999999999999996" height="310"></rect></g><g class="bar" transform="translate(260,53.29824561403507)"><rect x="1" width="11.999999999999996" height="256.70175438596493"></rect></g><g class="bar" transform="translate(273,94.63157894736841)"><rect x="1" width="11.999999999999996" height="215.3684210526316"></rect></g><g class="bar" transform="translate(286,91.36842105263159)"><rect x="1" width="11.999999999999996" height="218.6315789473684"></rect></g><g class="bar" transform="translate(299.00000000000006,137.05263157894737)"><rect x="1" width="11.999999999999996" height="172.94736842105263"></rect></g><g class="bar" transform="translate(312.00000000000006,159.89473684210526)"><rect x="1" width="11.999999999999996" height="150.10526315789474"></rect></g><g class="bar" transform="translate(325,201.2280701754386)"><rect x="1" width="11.999999999999996" height="108.7719298245614"></rect></g><g class="bar" transform="translate(338,226.24561403508773)"><rect x="1" width="11.999999999999996" height="83.75438596491227"></rect></g><g class="bar" transform="translate(351,258.8771929824561)"><rect x="1" width="11.999999999999996" height="51.12280701754389"></rect></g><g class="bar" transform="translate(364.00000000000006,290.42105263157896)"><rect x="1" width="11.999999999999996" height="19.57894736842104"></rect></g><g class="bar" transform="translate(377.00000000000006,305.64912280701753)"><rect x="1" width="11.999999999999996" height="4.350877192982466"></rect></g><g class="bar" transform="translate(390,308.9122807017544)"><rect x="1" width="11.999999999999996" height="1.087719298245588"></rect></g><g class="bar" transform="translate(403,308.9122807017544)"><rect x="1" width="11.999999999999996" height="1.087719298245588"></rect></g><g class="bar" transform="translate(416,310)"><rect x="1" width="11.999999999999996" height="0"></rect></g><g class="bar" transform="translate(429.00000000000006,308.9122807017544)"><rect x="1" width="11.999999999999996" height="1.087719298245588"></rect></g><g class="bar" transform="translate(442.00000000000006,310)"><rect x="1" width="11.999999999999996" height="0"></rect></g><g class="bar" transform="translate(455,310)"><rect x="1" width="11.999999999999996" height="0"></rect></g><g class="bar" transform="translate(468,310)"><rect x="1" width="11.999999999999996" height="0"></rect></g><g class="bar" transform="translate(481,310)"><rect x="1" width="11.999999999999996" height="0"></rect></g><g class="bar" transform="translate(494.00000000000006,310)"><rect x="1" width="11.999999999999996" height="0"></rect></g><g class="bar" transform="translate(507.00000000000006,310)"><rect x="1" width="11.999999999999996" height="0"></rect></g><g class="axis axis--x" transform="translate(0,310)" fill="none" font-size="10" font-family="sans-serif" text-anchor="middle"><path class="domain" stroke="#000" d="M0.5,6V0.5H520.5V6"></path><g class="tick" opacity="1" transform="translate(0.5,0)"><line stroke="#000" y2="6"></line><text fill="#000" y="9" dy="0.71em">0.01</text></g><g class="tick" opacity="1" transform="translate(130.5,0)"><line stroke="#000" y2="6"></line><text fill="#000" y="9" dy="0.71em">1</text></g><g class="tick" opacity="1" transform="translate(260.5,0)"><line stroke="#000" y2="6"></line><text fill="#000" y="9" dy="0.71em">100</text></g><g class="tick" opacity="1" transform="translate(390.5,0)"><line stroke="#000" y2="6"></line><text fill="#000" y="9" dy="0.71em">10000</text></g><g class="tick" opacity="1" transform="translate(520.5,0)"><line stroke="#000" y2="6"></line><text fill="#000" y="9" dy="0.71em"></text></g></g><g class="axis axis--y" fill="none" font-size="10" font-family="sans-serif" text-anchor="end"><path class="domain" stroke="#000" d="M-6,310.5H0.5V0.5H-6"></path><g class="tick" opacity="1" transform="translate(0,310.5)"><line stroke="#000" x2="-6"></line><text fill="#000" x="-9" dy="0.32em">0</text></g><g class="tick" opacity="1" transform="translate(0,288.7456140350877)"><line stroke="#000" x2="-6"></line><text fill="#000" x="-9" dy="0.32em">20</text></g><g class="tick" opacity="1" transform="translate(0,266.99122807017545)"><line stroke="#000" x2="-6"></line><text fill="#000" x="-9" dy="0.32em">40</text></g><g class="tick" opacity="1" transform="translate(0,245.23684210526318)"><line stroke="#000" x2="-6"></line><text fill="#000" x="-9" dy="0.32em">60</text></g><g class="tick" opacity="1" transform="translate(0,223.48245614035088)"><line stroke="#000" x2="-6"></line><text fill="#000" x="-9" dy="0.32em">80</text></g><g class="tick" opacity="1" transform="translate(0,201.7280701754386)"><line stroke="#000" x2="-6"></line><text fill="#000" x="-9" dy="0.32em">100</text></g><g class="tick" opacity="1" transform="translate(0,179.97368421052633)"><line stroke="#000" x2="-6"></line><text fill="#000" x="-9" dy="0.32em">120</text></g><g class="tick" opacity="1" transform="translate(0,158.21929824561406)"><line stroke="#000" x2="-6"></line><text fill="#000" x="-9" dy="0.32em">140</text></g><g class="tick" opacity="1" transform="translate(0,136.46491228070175)"><line stroke="#000" x2="-6"></line><text fill="#000" x="-9" dy="0.32em">160</text></g><g class="tick" opacity="1" transform="translate(0,114.71052631578948)"><line stroke="#000" x2="-6"></line><text fill="#000" x="-9" dy="0.32em">180</text></g><g class="tick" opacity="1" transform="translate(0,92.9561403508772)"><line stroke="#000" x2="-6"></line><text fill="#000" x="-9" dy="0.32em">200</text></g><g class="tick" opacity="1" transform="translate(0,71.20175438596493)"><line stroke="#000" x2="-6"></line><text fill="#000" x="-9" dy="0.32em">220</text></g><g class="tick" opacity="1" transform="translate(0,49.44736842105266)"><line stroke="#000" x2="-6"></line><text fill="#000" x="-9" dy="0.32em">240</text></g><g class="tick" opacity="1" transform="translate(0,27.692982456140385)"><line stroke="#000" x2="-6"></line><text fill="#000" x="-9" dy="0.32em">260</text></g><g class="tick" opacity="1" transform="translate(0,5.938596491228111)"><line stroke="#000" x2="-6"></line><text fill="#000" x="-9" dy="0.32em">280</text></g></g></g></svg>