<svg xmlns="http://www.w3.org/2000/svg" width="280" height="160"><defs><style type="text/css"><![CDATA[ 
.bar rect {
  fill-opacity: 0;
  stroke:       black;
  stroke-width: 0.5;
}

.highlight rect {
  fill:       red;
  fill-opacity: 1;
}
.axis path,
.axis line {
  fill: none;
  stroke: #000;
  shape-rendering: crispEdges;
}
path {
    stroke: red;
    fill: none;
}

line {
    stroke: red;
}

path.marker {
    fill: red;
}
 ]]></style></defs><g transform="translate(50,10)"><g class="bar" transform="translate(0,120)"><rect x="1" width="11.5" height="0"></rect></g><g class="bar" transform="translate(12.5,120)"><rect x="1" width="11.5" height="0"></rect></g><g class="bar" transform="translate(25,120)"><rect x="1" width="11.5" height="0"></rect></g><g class="bar" transform="translate(37.5,119.26977687626776)"><rect x="1" width="11.5" height="0.7302231237322445"></rect></g><g class="bar" transform="translate(50,111.72413793103448)"><rect x="1" width="11.5" height="8.275862068965523"></rect></g><g class="bar" transform="translate(62.5,85.43610547667342)"><rect x="1" width="11.5" height="34.56389452332658"></rect></g><g class="bar" transform="translate(75,55.49695740365112)"><rect x="1" width="11.5" height="64.50304259634888"></rect></g><g class="bar" transform="translate(87.5,35.78093306288032)"><rect x="1" width="11.5" height="84.21906693711968"></rect></g><g class="bar" transform="translate(100,11.196754563894515)"><rect x="1" width="11.5" height="108.80324543610548"></rect></g><g class="bar" transform="translate(112.5,0)"><rect x="1" width="11.5" height="120"></rect></g><g class="bar" transform="translate(125,64.74645030425964)"><rect x="1" width="11.5" height="55.25354969574036"></rect></g><g class="bar" transform="translate(137.5,110.50709939148074)"><rect x="1" width="11.5" height="9.492900608519264"></rect></g><g class="bar" transform="translate(150,119.5131845841785)"><rect x="1" width="11.5" height="0.48681541582149634"></rect></g><g class="bar" transform="translate(162.5,120)"><rect x="1" width="11.5" height="0"></rect></g><g class="bar" transform="translate(175,120)"><rect x="1" width="11.5" height="0"></rect></g><g class="bar" transform="translate(187.5,120)"><rect x="1" width="11.5" height="0"></rect></g></g></svg>