<svg xmlns="http://www.w3.org/2000/svg" width="600" height="350"><defs><style type="text/css"><![CDATA[ 
.bar rect {
  fill-opacity: 0;
  stroke:       black;
  stroke-width: 0.5;
}

.highlight rect {
  fill:       red;
  fill-opacity: 1;
}
.axis path,
.axis line {
  fill: none;
  stroke: #000;
  shape-rendering: crispEdges;
}
 ]]></style></defs><g transform="translate(50,10)"><g class="bar" transform="translate(0,310)"><rect x="1" width="5.500000000000005" height="0"></rect></g><g class="bar" transform="translate(6.500000000000005,310)"><rect x="1" width="5.500000000000005" height="0"></rect></g><g class="bar" transform="translate(12.999999999999996,310)"><rect x="1" width="5.500000000000005" height="0"></rect></g><g class="bar" transform="translate(19.500000000000004,310)"><rect x="1" width="5.500000000000005" height="0"></rect></g><g class="bar" transform="translate(25.999999999999993,310)"><rect x="1" width="5.500000000000005" height="0"></rect></g><g class="bar" transform="translate(32.5,310)"><rect x="1" width="5.500000000000005" height="0"></rect></g><g class="bar" transform="translate(39.00000000000001,310)"><rect x="1" width="5.500000000000005" height="0"></rect></g><g class="bar" transform="translate(45.500000000000014,310)"><rect x="1" width="5.500000000000005" height="0"></rect></g><g class="bar" transform="translate(52,310)"><rect x="1" width="5.500000000000005" height="0"></rect></g><g class="bar" transform="translate(58.49999999999999,310)"><rect x="1" width="5.500000000000005" height="0"></rect></g><g class="bar" transform="translate(65,310)"><rect x="1" width="5.500000000000005" height="0"></rect></g><g class="bar" transform="translate(71.5,310)"><rect x="1" width="5.500000000000005" height="0"></rect></g><g class="bar" transform="translate(78.00000000000001,310)"><rect x="1" width="5.500000000000005" height="0"></rect></g><g class="bar" transform="translate(84.5,310)"><rect x="1" width="5.500000000000005" height="0"></rect></g><g class="bar" transform="translate(91.00000000000001,310)"><rect x="1" width="5.500000000000005" height="0"></rect></g><g class="bar" transform="translate(97.5,310)"><rect x="1" width="5.500000000000005" height="0"></rect></g><g class="bar" transform="translate(104,310)"><rect x="1" width="5.500000000000005" height="0"></rect></g><g class="bar" transform="translate(110.50000000000001,310)"><rect x="1" width="5.500000000000005" height="0"></rect></g><g class="bar" transform="translate(117,310)"><rect x="1" width="5.500000000000005" height="0"></rect></g><g class="bar" transform="translate(123.50000000000001,310)"><rect x="1" width="5.500000000000005" height="0"></rect></g><g class="bar" transform="translate(130,308.81226053639847)"><rect x="1" width="5.500000000000005" height="1.187739463601531"></rect></g><g class="bar" transform="translate(136.5,310)"><rect x="1" width="5.500000000000005" height="0"></rect></g><g class="bar" transform="translate(143,310)"><rect x="1" width="5.500000000000005" height="0"></rect></g><g class="bar" transform="translate(149.50000000000003,308.81226053639847)"><rect x="1" width="5.500000000000005" height="1.187739463601531"></rect></g><g class="bar" transform="translate(156.00000000000003,300.49808429118775)"><rect x="1" width="5.500000000000005" height="9.501915708812248"></rect></g><g class="bar" transform="translate(162.5,301.6858237547893)"><rect x="1" width="5.500000000000005" height="8.314176245210717"></rect></g><g class="bar" transform="translate(169,282.68199233716473)"><rect x="1" width="5.500000000000005" height="27.31800766283527"></rect></g><g class="bar" transform="translate(175.5,256.55172413793105)"><rect x="1" width="5.500000000000005" height="53.448275862068954"></rect></g><g class="bar" transform="translate(182.00000000000003,248.2375478927203)"><rect x="1" width="5.500000000000005" height="61.7624521072797"></rect></g><g class="bar" transform="translate(188.50000000000003,199.54022988505747)"><rect x="1" width="5.500000000000005" height="110.45977011494253"></rect></g><g class="bar" transform="translate(195,159.15708812260536)"><rect x="1" width="5.500000000000005" height="150.84291187739464"></rect></g><g class="bar" transform="translate(201.5,114.02298850574712)"><rect x="1" width="5.500000000000005" height="195.97701149425288"></rect></g><g class="bar" transform="translate(208,66.51340996168582)"><rect x="1" width="5.500000000000005" height="243.48659003831418"></rect></g><g class="bar" transform="translate(214.50000000000003,22.56704980842909)"><rect x="1" width="5.500000000000005" height="287.4329501915709"></rect></g><g class="bar" transform="translate(221.00000000000003,0)"><rect x="1" width="5.500000000000005" height="310"></rect></g><g class="bar" transform="translate(227.5,3.563218390804593)"><rect x="1" width="5.500000000000005" height="306.4367816091954"></rect></g><g class="bar" transform="translate(234,73.63984674329501)"><rect x="1" width="5.500000000000005" height="236.360153256705"></rect></g><g class="bar" transform="translate(240.5,40.38314176245211)"><rect x="1" width="5.500000000000005" height="269.6168582375479"></rect></g><g class="bar" transform="translate(247.00000000000003,59.38697318007661)"><rect x="1" width="5.500000000000005" height="250.6130268199234"></rect></g><g class="bar" transform="translate(253.50000000000003,54.63601532567051)"><rect x="1" width="5.500000000000005" height="255.3639846743295"></rect></g><g class="bar" transform="translate(260,68.88888888888889)"><rect x="1" width="5.500000000000005" height="241.11111111111111"></rect></g><g class="bar" transform="translate(266.50000000000006,85.51724137931035)"><rect x="1" width="5.500000000000005" height="224.48275862068965"></rect></g><g class="bar" transform="translate(273,117.58620689655172)"><rect x="1" width="5.500000000000005" height="192.41379310344828"></rect></g><g class="bar" transform="translate(279.5,167.4712643678161)"><rect x="1" width="5.500000000000005" height="142.5287356321839"></rect></g><g class="bar" transform="translate(286,162.72030651340995)"><rect x="1" width="5.500000000000005" height="147.27969348659005"></rect></g><g class="bar" transform="translate(292.5,185.28735632183907)"><rect x="1" width="5.500000000000005" height="124.71264367816093"></rect></g><g class="bar" transform="translate(299.00000000000006,197.16475095785438)"><rect x="1" width="5.500000000000005" height="112.83524904214562"></rect></g><g class="bar" transform="translate(305.5,236.36015325670496)"><rect x="1" width="5.500000000000005" height="73.63984674329504"></rect></g><g class="bar" transform="translate(312.00000000000006,239.92337164750958)"><rect x="1" width="5.500000000000005" height="70.07662835249042"></rect></g><g class="bar" transform="translate(318.5,255.36398467432952)"><rect x="1" width="5.500000000000005" height="54.636015325670485"></rect></g><g class="bar" transform="translate(325,269.6168582375479)"><rect x="1" width="5.500000000000005" height="40.38314176245211"></rect></g><g class="bar" transform="translate(331.50000000000006,274.367816091954)"><rect x="1" width="5.500000000000005" height="35.63218390804599"></rect></g><g class="bar" transform="translate(338,286.2452107279694)"><rect x="1" width="5.500000000000005" height="23.75478927203062"></rect></g><g class="bar" transform="translate(344.50000000000006,285.0574712643678)"><rect x="1" width="5.500000000000005" height="24.94252873563221"></rect></g><g class="bar" transform="translate(351,286.2452107279694)"><rect x="1" width="5.500000000000005" height="23.75478927203062"></rect></g><g class="bar" transform="translate(357.5,293.37164750957857)"><rect x="1" width="5.500000000000005" height="16.628352490421435"></rect></g><g class="bar" transform="translate(364.00000000000006,301.6858237547893)"><rect x="1" width="5.500000000000005" height="8.314176245210717"></rect></g><g class="bar" transform="translate(370.5,300.49808429118775)"><rect x="1" width="5.500000000000005" height="9.501915708812248"></rect></g><g class="bar" transform="translate(377.00000000000006,301.6858237547893)"><rect x="1" width="5.500000000000005" height="8.314176245210717"></rect></g><g class="bar" transform="translate(383.5,306.4367816091954)"><rect x="1" width="5.500000000000005" height="3.563218390804593"></rect></g><g class="bar" transform="translate(390,307.62452107279694)"><rect x="1" width="5.500000000000005" height="2.375478927203062"></rect></g><g class="bar" transform="translate(396.50000000000006,307.62452107279694)"><rect x="1" width="5.500000000000005" height="2.375478927203062"></rect></g><g class="bar" transform="translate(403,310)"><rect x="1" width="5.500000000000005" height="0"></rect></g><g class="bar" transform="translate(409.50000000000006,308.81226053639847)"><rect x="1" width="5.500000000000005" height="1.187739463601531"></rect></g><g class="bar" transform="translate(416,308.81226053639847)"><rect x="1" width="5.500000000000005" height="1.187739463601531"></rect></g><g class="bar" transform="translate(422.5,310)"><rect x="1" width="5.500000000000005" height="0"></rect></g><g class="bar" transform="translate(429.00000000000006,310)"><rect x="1" width="5.500000000000005" height="0"></rect></g><g class="bar" transform="translate(435.5,308.81226053639847)"><rect x="1" width="5.500000000000005" height="1.187739463601531"></rect></g><g class="bar" transform="translate(442.00000000000006,310)"><rect x="1" width="5.500000000000005" height="0"></rect></g><g class="bar" transform="translate(448.5,310)"><rect x="1" width="5.500000000000005" height="0"></rect></g><g class="bar" transform="translate(455,310)"><rect x="1" width="5.500000000000005" height="0"></rect></g><g class="bar" transform="translate(461.50000000000006,310)"><rect x="1" width="5.500000000000005" height="0"></rect></g><g class="bar" transform="translate(468,310)"><rect x="1" width="5.500000000000005" height="0"></rect></g><g class="bar" transform="translate(474.50000000000006,310)"><rect x="1" width="5.500000000000005" height="0"></rect></g><g class="bar" transform="translate(481,310)"><rect x="1" width="5.500000000000005" height="0"></rect></g><g class="bar" transform="translate(487.5,310)"><rect x="1" width="5.500000000000005" height="0"></rect></g><g class="bar" transform="translate(494.00000000000006,310)"><rect x="1" width="5.500000000000005" height="0"></rect></g><g class="bar" transform="translate(500.5,310)"><rect x="1" width="5.500000000000005" height="0"></rect></g><g class="bar" transform="translate(507.00000000000006,310)"><rect x="1" width="5.500000000000005" height="0"></rect></g><g class="bar" transform="translate(513.5,310)"><rect x="1" width="5.500000000000005" height="0"></rect></g><g class="axis axis--x" transform="translate(0,310)" fill="none" font-size="10" font-family="sans-serif" text-anchor="middle"><path class="domain" stroke="#000" d="M0.5,6V0.5H520.5V6"></path><g class="tick" opacity="1" transform="translate(0,0)"><line stroke="#000" y2="6" x1="0.5" x2="0.5"></line><text fill="#000" y="9" x="0.5" dy="0.71em">0.01</text></g><g class="tick" opacity="1" transform="translate(130,0)"><line stroke="#000" y2="6" x1="0.5" x2="0.5"></line><text fill="#000" y="9" x="0.5" dy="0.71em">1</text></g><g class="tick" opacity="1" transform="translate(260,0)"><line stroke="#000" y2="6" x1="0.5" x2="0.5"></line><text fill="#000" y="9" x="0.5" dy="0.71em">100</text></g><g class="tick" opacity="1" transform="translate(390,0)"><line stroke="#000" y2="6" x1="0.5" x2="0.5"></line><text fill="#000" y="9" x="0.5" dy="0.71em">10000</text></g><g class="tick" opacity="1" transform="translate(520,0)"><line stroke="#000" y2="6" x1="0.5" x2="0.5"></line><text fill="#000" y="9" x="0.5" dy="0.71em"></text></g></g><g class="axis axis--y" fill="none" font-size="10" font-family="sans-serif" text-anchor="end"><path class="domain" stroke="#000" d="M-6,310.5H0.5V0.5H-6"></path><g class="tick" opacity="1" transform="translate(0,310)"><line stroke="#000" x2="-6" y1="0.5" y2="0.5"></line><text fill="#000" x="-9" y="0.5" dy="0.32em">0</text></g><g class="tick" opacity="1" transform="translate(0,286.2452107279694)"><line stroke="#000" x2="-6" y1="0.5" y2="0.5"></line><text fill="#000" x="-9" y="0.5" dy="0.32em">20</text></g><g class="tick" opacity="1" transform="translate(0,262.4904214559387)"><line stroke="#000" x2="-6" y1="0.5" y2="0.5"></line><text fill="#000" x="-9" y="0.5" dy="0.32em">40</text></g><g class="tick" opacity="1" transform="translate(0,238.73563218390805)"><line stroke="#000" x2="-6" y1="0.5" y2="0.5"></line><text fill="#000" x="-9" y="0.5" dy="0.32em">60</text></g><g class="tick" opacity="1" transform="translate(0,214.9808429118774)"><line stroke="#000" x2="-6" y1="0.5" y2="0.5"></line><text fill="#000" x="-9" y="0.5" dy="0.32em">80</text></g><g class="tick" opacity="1" transform="translate(0,191.22605363984673)"><line stroke="#000" x2="-6" y1="0.5" y2="0.5"></line><text fill="#000" x="-9" y="0.5" dy="0.32em">100</text></g><g class="tick" opacity="1" transform="translate(0,167.4712643678161)"><line stroke="#000" x2="-6" y1="0.5" y2="0.5"></line><text fill="#000" x="-9" y="0.5" dy="0.32em">120</text></g><g class="tick" opacity="1" transform="translate(0,143.71647509578546)"><line stroke="#000" x2="-6" y1="0.5" y2="0.5"></line><text fill="#000" x="-9" y="0.5" dy="0.32em">140</text></g><g class="tick" opacity="1" transform="translate(0,119.9616858237548)"><line stroke="#000" x2="-6" y1="0.5" y2="0.5"></line><text fill="#000" x="-9" y="0.5" dy="0.32em">160</text></g><g class="tick" opacity="1" transform="translate(0,96.20689655172413)"><line stroke="#000" x2="-6" y1="0.5" y2="0.5"></line><text fill="#000" x="-9" y="0.5" dy="0.32em">180</text></g><g class="tick" opacity="1" transform="translate(0,72.45210727969348)"><line stroke="#000" x2="-6" y1="0.5" y2="0.5"></line><text fill="#000" x="-9" y="0.5" dy="0.32em">200</text></g><g class="tick" opacity="1" transform="translate(0,48.69731800766283)"><line stroke="#000" x2="-6" y1="0.5" y2="0.5"></line><text fill="#000" x="-9" y="0.5" dy="0.32em">220</text></g><g class="tick" opacity="1" transform="translate(0,24.94252873563221)"><line stroke="#000" x2="-6" y1="0.5" y2="0.5"></line><text fill="#000" x="-9" y="0.5" dy="0.32em">240</text></g><g class="tick" opacity="1" transform="translate(0,1.187739463601531)"><line stroke="#000" x2="-6" y1="0.5" y2="0.5"></line><text fill="#000" x="-9" y="0.5" dy="0.32em">260</text></g></g></g></svg>