<svg xmlns="http://www.w3.org/2000/svg" width="600" height="350"><defs><style type="text/css"><![CDATA[ 
.bar rect {
  fill-opacity: 0;
  stroke:       black;
  stroke-width: 0.5;
}

.highlight rect {
  fill:       red;
  fill-opacity: 1;
}
.axis path,
.axis line {
  fill: none;
  stroke: #000;
  shape-rendering: crispEdges;
}
 ]]></style></defs><g transform="translate(50,10)"><g class="bar" transform="translate(0,203.10344827586206)"><rect x="1" width="11.999999999999996" height="106.89655172413794"></rect></g><g class="bar" transform="translate(12.999999999999996,155)"><rect x="1" width="11.999999999999996" height="155"></rect></g><g class="bar" transform="translate(25.999999999999993,98.87931034482759)"><rect x="1" width="11.999999999999996" height="211.1206896551724"></rect></g><g class="bar" transform="translate(39.00000000000001,25.387931034482733)"><rect x="1" width="11.999999999999996" height="284.61206896551727"></rect></g><g class="bar" transform="translate(52,52.11206896551727)"><rect x="1" width="11.999999999999996" height="257.88793103448273"></rect></g><g class="bar" transform="translate(65,2.6724137931034306)"><rect x="1" width="11.999999999999996" height="307.32758620689657"></rect></g><g class="bar" transform="translate(78.00000000000001,18.706896551724128)"><rect x="1" width="11.999999999999996" height="291.2931034482759"></rect></g><g class="bar" transform="translate(91.00000000000001,8.017241379310349)"><rect x="1" width="11.999999999999996" height="301.98275862068965"></rect></g><g class="bar" transform="translate(104,30.73275862068965)"><rect x="1" width="11.999999999999996" height="279.26724137931035"></rect></g><g class="bar" transform="translate(117,24.051724137931046)"><rect x="1" width="11.999999999999996" height="285.94827586206895"></rect></g><g class="bar" transform="translate(130,0)"><rect x="1" width="11.999999999999996" height="310"></rect></g><g class="bar" transform="translate(143,22.715517241379303)"><rect x="1" width="11.999999999999996" height="287.2844827586207"></rect></g><g class="bar" transform="translate(156.00000000000003,86.85344827586206)"><rect x="1" width="11.999999999999996" height="223.14655172413794"></rect></g><g class="bar" transform="translate(169,48.103448275862036)"><rect x="1" width="11.999999999999996" height="261.89655172413796"></rect></g><g class="bar" transform="translate(182.00000000000003,66.81034482758622)"><rect x="1" width="11.999999999999996" height="243.18965517241378"></rect></g><g class="bar" transform="translate(195,106.89655172413794)"><rect x="1" width="11.999999999999996" height="203.10344827586206"></rect></g><g class="bar" transform="translate(208,132.2844827586207)"><rect x="1" width="11.999999999999996" height="177.7155172413793"></rect></g><g class="bar" transform="translate(221.00000000000003,169.69827586206898)"><rect x="1" width="11.999999999999996" height="140.30172413793102"></rect></g><g class="bar" transform="translate(234,183.06034482758622)"><rect x="1" width="11.999999999999996" height="126.93965517241378"></rect></g><g class="bar" transform="translate(247.00000000000003,199.0948275862069)"><rect x="1" width="11.999999999999996" height="110.90517241379311"></rect></g><g class="bar" transform="translate(260,235.17241379310343)"><rect x="1" width="11.999999999999996" height="74.82758620689657"></rect></g><g class="bar" transform="translate(273,245.86206896551724)"><rect x="1" width="11.999999999999996" height="64.13793103448276"></rect></g><g class="bar" transform="translate(286,257.88793103448273)"><rect x="1" width="11.999999999999996" height="52.11206896551727"></rect></g><g class="bar" transform="translate(299.00000000000006,256.55172413793105)"><rect x="1" width="11.999999999999996" height="53.448275862068954"></rect></g><g class="bar" transform="translate(312.00000000000006,264.5689655172414)"><rect x="1" width="11.999999999999996" height="45.431034482758605"></rect></g><g class="bar" transform="translate(325,283.2758620689655)"><rect x="1" width="11.999999999999996" height="26.724137931034477"></rect></g><g class="bar" transform="translate(338,281.9396551724138)"><rect x="1" width="11.999999999999996" height="28.06034482758622"></rect></g><g class="bar" transform="translate(351,269.91379310344826)"><rect x="1" width="11.999999999999996" height="40.086206896551744"></rect></g><g class="bar" transform="translate(364.00000000000006,285.94827586206895)"><rect x="1" width="11.999999999999996" height="24.051724137931046"></rect></g><g class="bar" transform="translate(377.00000000000006,291.2931034482759)"><rect x="1" width="11.999999999999996" height="18.706896551724128"></rect></g><g class="bar" transform="translate(390,293.9655172413793)"><rect x="1" width="11.999999999999996" height="16.034482758620697"></rect></g><g class="bar" transform="translate(403,301.98275862068965)"><rect x="1" width="11.999999999999996" height="8.017241379310349"></rect></g><g class="bar" transform="translate(416,300.6465517241379)"><rect x="1" width="11.999999999999996" height="9.353448275862092"></rect></g><g class="bar" transform="translate(429.00000000000006,308.66379310344826)"><rect x="1" width="11.999999999999996" height="1.3362068965517437"></rect></g><g class="bar" transform="translate(442.00000000000006,310)"><rect x="1" width="11.999999999999996" height="0"></rect></g><g class="bar" transform="translate(455,310)"><rect x="1" width="11.999999999999996" height="0"></rect></g><g class="bar" transform="translate(468,310)"><rect x="1" width="11.999999999999996" height="0"></rect></g><g class="bar" transform="translate(481,310)"><rect x="1" width="11.999999999999996" height="0"></rect></g><g class="bar" transform="translate(494.00000000000006,310)"><rect x="1" width="11.999999999999996" height="0"></rect></g><g class="bar" transform="translate(507.00000000000006,310)"><rect x="1" width="11.999999999999996" height="0"></rect></g><g class="axis axis--x" transform="translate(0,310)" fill="none" font-size="10" font-family="sans-serif" text-anchor="middle"><path class="domain" stroke="#000" d="M0.5,6V0.5H520.5V6"></path><g class="tick" opacity="1" transform="translate(0,0)"><line stroke="#000" y2="6" x1="0.5" x2="0.5"></line><text fill="#000" y="9" x="0.5" dy="0.71em">0.01</text></g><g class="tick" opacity="1" transform="translate(130,0)"><line stroke="#000" y2="6" x1="0.5" x2="0.5"></line><text fill="#000" y="9" x="0.5" dy="0.71em">1</text></g><g class="tick" opacity="1" transform="translate(260,0)"><line stroke="#000" y2="6" x1="0.5" x2="0.5"></line><text fill="#000" y="9" x="0.5" dy="0.71em">100</text></g><g class="tick" opacity="1" transform="translate(390,0)"><line stroke="#000" y2="6" x1="0.5" x2="0.5"></line><text fill="#000" y="9" x="0.5" dy="0.71em">10000</text></g><g class="tick" opacity="1" transform="translate(520,0)"><line stroke="#000" y2="6" x1="0.5" x2="0.5"></line><text fill="#000" y="9" x="0.5" dy="0.71em"></text></g></g><g class="axis axis--y" fill="none" font-size="10" font-family="sans-serif" text-anchor="end"><path class="domain" stroke="#000" d="M-6,310.5H0.5V0.5H-6"></path><g class="tick" opacity="1" transform="translate(0,310)"><line stroke="#000" x2="-6" y1="0.5" y2="0.5"></line><text fill="#000" x="-9" y="0.5" dy="0.32em">0</text></g><g class="tick" opacity="1" transform="translate(0,283.2758620689655)"><line stroke="#000" x2="-6" y1="0.5" y2="0.5"></line><text fill="#000" x="-9" y="0.5" dy="0.32em">20</text></g><g class="tick" opacity="1" transform="translate(0,256.55172413793105)"><line stroke="#000" x2="-6" y1="0.5" y2="0.5"></line><text fill="#000" x="-9" y="0.5" dy="0.32em">40</text></g><g class="tick" opacity="1" transform="translate(0,229.82758620689654)"><line stroke="#000" x2="-6" y1="0.5" y2="0.5"></line><text fill="#000" x="-9" y="0.5" dy="0.32em">60</text></g><g class="tick" opacity="1" transform="translate(0,203.10344827586206)"><line stroke="#000" x2="-6" y1="0.5" y2="0.5"></line><text fill="#000" x="-9" y="0.5" dy="0.32em">80</text></g><g class="tick" opacity="1" transform="translate(0,176.3793103448276)"><line stroke="#000" x2="-6" y1="0.5" y2="0.5"></line><text fill="#000" x="-9" y="0.5" dy="0.32em">100</text></g><g class="tick" opacity="1" transform="translate(0,149.65517241379308)"><line stroke="#000" x2="-6" y1="0.5" y2="0.5"></line><text fill="#000" x="-9" y="0.5" dy="0.32em">120</text></g><g class="tick" opacity="1" transform="translate(0,122.93103448275863)"><line stroke="#000" x2="-6" y1="0.5" y2="0.5"></line><text fill="#000" x="-9" y="0.5" dy="0.32em">140</text></g><g class="tick" opacity="1" transform="translate(0,96.20689655172413)"><line stroke="#000" x2="-6" y1="0.5" y2="0.5"></line><text fill="#000" x="-9" y="0.5" dy="0.32em">160</text></g><g class="tick" opacity="1" transform="translate(0,69.48275862068965)"><line stroke="#000" x2="-6" y1="0.5" y2="0.5"></line><text fill="#000" x="-9" y="0.5" dy="0.32em">180</text></g><g class="tick" opacity="1" transform="translate(0,42.758620689655174)"><line stroke="#000" x2="-6" y1="0.5" y2="0.5"></line><text fill="#000" x="-9" y="0.5" dy="0.32em">200</text></g><g class="tick" opacity="1" transform="translate(0,16.034482758620697)"><line stroke="#000" x2="-6" y1="0.5" y2="0.5"></line><text fill="#000" x="-9" y="0.5" dy="0.32em">220</text></g></g></g></svg>