<svg xmlns="http://www.w3.org/2000/svg" width="280" height="160"><defs><style type="text/css"><![CDATA[ 
.bar rect {
  fill-opacity: 0;
  stroke:       black;
  stroke-width: 0.5;
}

.highlight rect {
  fill:       red;
  fill-opacity: 1;
}
.axis path,
.axis line {
  fill: none;
  stroke: #000;
  shape-rendering: crispEdges;
}
path {
    stroke: red;
    fill: none;
}

line {
    stroke: red;
}

path.marker {
    fill: red;
}
 ]]></style></defs><g transform="translate(50,10)"><g class="bar" transform="translate(0,114.39655172413794)"><rect x="1" width="11.5" height="5.603448275862064"></rect></g><g class="bar" transform="translate(12.5,95.86206896551724)"><rect x="1" width="11.5" height="24.13793103448276"></rect></g><g class="bar" transform="translate(25,52.327586206896555)"><rect x="1" width="11.5" height="67.67241379310344"></rect></g><g class="bar" transform="translate(37.5,11.034482758620683)"><rect x="1" width="11.5" height="108.96551724137932"></rect></g><g class="bar" transform="translate(50,0)"><rect x="1" width="11.5" height="120"></rect></g><g class="bar" transform="translate(62.5,0.2586206896551744)"><rect x="1" width="11.5" height="119.74137931034483"></rect></g><g class="bar" transform="translate(75,13.620689655172413)"><rect x="1" width="11.5" height="106.37931034482759"></rect></g><g class="bar" transform="translate(87.5,40.689655172413794)"><rect x="1" width="11.5" height="79.3103448275862"></rect></g><g class="bar" transform="translate(100,68.9655172413793)"><rect x="1" width="11.5" height="51.0344827586207"></rect></g><g class="bar" transform="translate(112.5,99.22413793103448)"><rect x="1" width="11.5" height="20.775862068965523"></rect></g><g class="bar" transform="translate(125,111.12068965517241)"><rect x="1" width="11.5" height="8.879310344827587"></rect></g><g class="bar" transform="translate(137.5,117.58620689655173)"><rect x="1" width="11.5" height="2.4137931034482705"></rect></g><g class="bar" transform="translate(150,119.39655172413794)"><rect x="1" width="11.5" height="0.6034482758620641"></rect></g><g class="bar" transform="translate(162.5,119.56896551724138)"><rect x="1" width="11.5" height="0.4310344827586192"></rect></g><g class="bar" transform="translate(175,120)"><rect x="1" width="11.5" height="0"></rect></g><g class="bar" transform="translate(187.5,120)"><rect x="1" width="11.5" height="0"></rect></g></g></svg>