<svg xmlns="http://www.w3.org/2000/svg" width="600" height="350"><defs><style type="text/css"><![CDATA[ 
.bar rect {
  fill-opacity: 0;
  stroke:       black;
  stroke-width: 0.5;
}

.highlight rect {
  fill:       red;
  fill-opacity: 1;
}
.axis path,
.axis line {
  fill: none;
  stroke: #000;
  shape-rendering: crispEdges;
}
path {
    stroke: red;
    fill: none;
}

line {
    stroke: red;
}

path.marker {
    fill: red;
}
 ]]></style></defs><g transform="translate(50,10)"><g class="bar" transform="translate(0,308.69198312236284)"><rect x="1" width="11.999999999999996" height="1.308016877637158"></rect></g><g class="bar" transform="translate(12.999999999999996,308.0379746835443)"><rect x="1" width="11.999999999999996" height="1.9620253164557084"></rect></g><g class="bar" transform="translate(25.999999999999993,270.75949367088606)"><rect x="1" width="11.999999999999996" height="39.24050632911394"></rect></g><g class="bar" transform="translate(39.00000000000001,291.0337552742616)"><rect x="1" width="11.999999999999996" height="18.96624472573842"></rect></g><g class="bar" transform="translate(52,293.64978902953584)"><rect x="1" width="11.999999999999996" height="16.35021097046416"></rect></g><g class="bar" transform="translate(65,263.56540084388183)"><rect x="1" width="11.999999999999996" height="46.43459915611817"></rect></g><g class="bar" transform="translate(78.00000000000001,264.21940928270044)"><rect x="1" width="11.999999999999996" height="45.78059071729956"></rect></g><g class="bar" transform="translate(91.00000000000001,226.28691983122366)"><rect x="1" width="11.999999999999996" height="83.71308016877634"></rect></g><g class="bar" transform="translate(104,180.50632911392404)"><rect x="1" width="11.999999999999996" height="129.49367088607596"></rect></g><g class="bar" transform="translate(117,146.49789029535864)"><rect x="1" width="11.999999999999996" height="163.50210970464136"></rect></g><g class="bar" transform="translate(130,117.06751054852322)"><rect x="1" width="11.999999999999996" height="192.93248945147678"></rect></g><g class="bar" transform="translate(143,128.1856540084388)"><rect x="1" width="11.999999999999996" height="181.8143459915612"></rect></g><g class="bar" transform="translate(156.00000000000003,88.94514767932492)"><rect x="1" width="11.999999999999996" height="221.05485232067508"></rect></g><g class="bar" transform="translate(169,87.63713080168776)"><rect x="1" width="11.999999999999996" height="222.36286919831224"></rect></g><g class="bar" transform="translate(182.00000000000003,54.93670886075947)"><rect x="1" width="11.999999999999996" height="255.06329113924053"></rect></g><g class="bar" transform="translate(195,30.084388185654007)"><rect x="1" width="11.999999999999996" height="279.915611814346"></rect></g><g class="bar" transform="translate(208,45.12658227848101)"><rect x="1" width="11.999999999999996" height="264.873417721519"></rect></g><g class="bar" transform="translate(221.00000000000003,24.85232067510549)"><rect x="1" width="11.999999999999996" height="285.1476793248945"></rect></g><g class="bar" transform="translate(234,3.92405063291136)"><rect x="1" width="11.999999999999996" height="306.07594936708864"></rect></g><g class="bar" transform="translate(247.00000000000003,0)"><rect x="1" width="11.999999999999996" height="310"></rect></g><g class="bar" transform="translate(260,38.58649789029539)"><rect x="1" width="11.999999999999996" height="271.4135021097046"></rect></g><g class="bar" transform="translate(273,66.05485232067508)"><rect x="1" width="11.999999999999996" height="243.94514767932492"></rect></g><g class="bar" transform="translate(286,97.44725738396625)"><rect x="1" width="11.999999999999996" height="212.55274261603375"></rect></g><g class="bar" transform="translate(299.00000000000006,151.7299578059072)"><rect x="1" width="11.999999999999996" height="158.2700421940928"></rect></g><g class="bar" transform="translate(312.00000000000006,200.126582278481)"><rect x="1" width="11.999999999999996" height="109.87341772151899"></rect></g><g class="bar" transform="translate(325,243.2911392405063)"><rect x="1" width="11.999999999999996" height="66.70886075949369"></rect></g><g class="bar" transform="translate(338,281.8776371308017)"><rect x="1" width="11.999999999999996" height="28.122362869198298"></rect></g><g class="bar" transform="translate(351,292.34177215189874)"><rect x="1" width="11.999999999999996" height="17.658227848101262"></rect></g><g class="bar" transform="translate(364.00000000000006,302.8059071729958)"><rect x="1" width="11.999999999999996" height="7.194092827004226"></rect></g><g class="bar" transform="translate(377.00000000000006,307.38396624472574)"><rect x="1" width="11.999999999999996" height="2.616033755274259"></rect></g><g class="bar" transform="translate(390,308.0379746835443)"><rect x="1" width="11.999999999999996" height="1.9620253164557084"></rect></g><g class="bar" transform="translate(403,310)"><rect x="1" width="11.999999999999996" height="0"></rect></g><g class="bar" transform="translate(416,310)"><rect x="1" width="11.999999999999996" height="0"></rect></g><g class="bar" transform="translate(429.00000000000006,310)"><rect x="1" width="11.999999999999996" height="0"></rect></g><g class="bar" transform="translate(442.00000000000006,310)"><rect x="1" width="11.999999999999996" height="0"></rect></g><g class="bar" transform="translate(455,310)"><rect x="1" width="11.999999999999996" height="0"></rect></g><g class="bar" transform="translate(468,310)"><rect x="1" width="11.999999999999996" height="0"></rect></g><g class="bar" transform="translate(481,310)"><rect x="1" width="11.999999999999996" height="0"></rect></g><g class="bar" transform="translate(494.00000000000006,310)"><rect x="1" width="11.999999999999996" height="0"></rect></g><g class="bar" transform="translate(507.00000000000006,310)"><rect x="1" width="11.999999999999996" height="0"></rect></g><g class="axis axis--x" transform="translate(0,310)" fill="none" font-size="10" font-family="sans-serif" text-anchor="middle"><path class="domain" stroke="#000" d="M0.5,6V0.5H520.5V6"></path><g class="tick" opacity="1" transform="translate(0.5,0)"><line stroke="#000" y2="6"></line><text fill="#000" y="9" dy="0.71em">0.01</text></g><g class="tick" opacity="1" transform="translate(130.5,0)"><line stroke="#000" y2="6"></line><text fill="#000" y="9" dy="0.71em">1</text></g><g class="tick" opacity="1" transform="translate(260.5,0)"><line stroke="#000" y2="6"></line><text fill="#000" y="9" dy="0.71em">100</text></g><g class="tick" opacity="1" transform="translate(390.5,0)"><line stroke="#000" y2="6"></line><text fill="#000" y="9" dy="0.71em">10000</text></g><g class="tick" opacity="1" transform="translate(520.5,0)"><line stroke="#000" y2="6"></line><text fill="#000" y="9" dy="0.71em"></text></g></g><g class="axis axis--y" fill="none" font-size="10" font-family="sans-serif" text-anchor="end"><path class="domain" stroke="#000" d="M-6,310.5H0.5V0.5H-6"></path><g class="tick" opacity="1" transform="translate(0,310.5)"><line stroke="#000" x2="-6"></line><text fill="#000" x="-9" dy="0.32em">0</text></g><g class="tick" opacity="1" transform="translate(0,277.79957805907173)"><line stroke="#000" x2="-6"></line><text fill="#000" x="-9" dy="0.32em">50</text></g><g class="tick" opacity="1" transform="translate(0,245.09915611814347)"><line stroke="#000" x2="-6"></line><text fill="#000" x="-9" dy="0.32em">100</text></g><g class="tick" opacity="1" transform="translate(0,212.3987341772152)"><line stroke="#000" x2="-6"></line><text fill="#000" x="-9" dy="0.32em">150</text></g><g class="tick" opacity="1" transform="translate(0,179.6983122362869)"><line stroke="#000" x2="-6"></line><text fill="#000" x="-9" dy="0.32em">200</text></g><g class="tick" opacity="1" transform="translate(0,146.99789029535864)"><line stroke="#000" x2="-6"></line><text fill="#000" x="-9" dy="0.32em">250</text></g><g class="tick" opacity="1" transform="translate(0,114.29746835443038)"><line stroke="#000" x2="-6"></line><text fill="#000" x="-9" dy="0.32em">300</text></g><g class="tick" opacity="1" transform="translate(0,81.59704641350211)"><line stroke="#000" x2="-6"></line><text fill="#000" x="-9" dy="0.32em">350</text></g><g class="tick" opacity="1" transform="translate(0,48.89662447257382)"><line stroke="#000" x2="-6"></line><text fill="#000" x="-9" dy="0.32em">400</text></g><g class="tick" opacity="1" transform="translate(0,16.19620253164561)"><line stroke="#000" x2="-6"></line><text fill="#000" x="-9" dy="0.32em">450</text></g></g></g></svg>