<svg xmlns="http://www.w3.org/2000/svg" width="280" height="160"><defs><style type="text/css"><![CDATA[ 
.bar rect {
  fill-opacity: 0;
  stroke:       black;
  stroke-width: 0.5;
}

.highlight rect {
  fill:       red;
  fill-opacity: 1;
}
.axis path,
.axis line {
  fill: none;
  stroke: #000;
  shape-rendering: crispEdges;
}
path {
    stroke: red;
    fill: none;
}

line {
    stroke: red;
}

path.marker {
    fill: red;
}
 ]]></style></defs><g transform="translate(50,10)"><g class="bar" transform="translate(0,119.1644908616188)"><rect x="1" width="11.5" height="0.8355091383811981"></rect></g><g class="bar" transform="translate(12.5,108.40731070496084)"><rect x="1" width="11.5" height="11.592689295039165"></rect></g><g class="bar" transform="translate(25,99.73890339425587)"><rect x="1" width="11.5" height="20.26109660574413"></rect></g><g class="bar" transform="translate(37.5,65.37859007832898)"><rect x="1" width="11.5" height="54.62140992167102"></rect></g><g class="bar" transform="translate(50,43.864229765013064)"><rect x="1" width="11.5" height="76.13577023498694"></rect></g><g class="bar" transform="translate(62.5,24.75195822454309)"><rect x="1" width="11.5" height="95.24804177545691"></rect></g><g class="bar" transform="translate(75,9.08616187989557)"><rect x="1" width="11.5" height="110.91383812010443"></rect></g><g class="bar" transform="translate(87.5,0)"><rect x="1" width="11.5" height="120"></rect></g><g class="bar" transform="translate(100,19.63446475195822)"><rect x="1" width="11.5" height="100.36553524804178"></rect></g><g class="bar" transform="translate(112.5,61.30548302872062)"><rect x="1" width="11.5" height="58.69451697127938"></rect></g><g class="bar" transform="translate(125,102.97650130548303)"><rect x="1" width="11.5" height="17.023498694516974"></rect></g><g class="bar" transform="translate(137.5,117.49347258485639)"><rect x="1" width="11.5" height="2.5065274151436086"></rect></g><g class="bar" transform="translate(150,119.68668407310705)"><rect x="1" width="11.5" height="0.3133159268929546"></rect></g><g class="bar" transform="translate(162.5,120)"><rect x="1" width="11.5" height="0"></rect></g><g class="bar" transform="translate(175,120)"><rect x="1" width="11.5" height="0"></rect></g><g class="bar" transform="translate(187.5,120)"><rect x="1" width="11.5" height="0"></rect></g></g></svg>