<svg xmlns="http://www.w3.org/2000/svg" width="280" height="160"><defs><style type="text/css"><![CDATA[ 
.bar rect {
  fill-opacity: 0;
  stroke:       black;
  stroke-width: 0.5;
}

.highlight rect {
  fill:       red;
  fill-opacity: 1;
}
.axis path,
.axis line {
  fill: none;
  stroke: #000;
  shape-rendering: crispEdges;
}
path {
    stroke: red;
    fill: none;
}

line {
    stroke: red;
}

path.marker {
    fill: red;
}
 ]]></style></defs><g transform="translate(50,10)"><g class="bar" transform="translate(0,104.39969411164924)"><rect x="1" width="11.5" height="15.60030588835076"></rect></g><g class="bar" transform="translate(12.5,98.06780525108336)"><rect x="1" width="11.5" height="21.932194748916643"></rect></g><g class="bar" transform="translate(25,97.27249553912822)"><rect x="1" width="11.5" height="22.727504460871785"></rect></g><g class="bar" transform="translate(37.5,72.70966097374458)"><rect x="1" width="11.5" height="47.290339026255424"></rect></g><g class="bar" transform="translate(50,9.849604894213613)"><rect x="1" width="11.5" height="110.15039510578639"></rect></g><g class="bar" transform="translate(62.5,0)"><rect x="1" width="11.5" height="120"></rect></g><g class="bar" transform="translate(75,37.777211317868975)"><rect x="1" width="11.5" height="82.22278868213102"></rect></g><g class="bar" transform="translate(87.5,63.44124394595973)"><rect x="1" width="11.5" height="56.55875605404027"></rect></g><g class="bar" transform="translate(100,88.7687993882233)"><rect x="1" width="11.5" height="31.2312006117767"></rect></g><g class="bar" transform="translate(112.5,108.52918684680091)"><rect x="1" width="11.5" height="11.470813153199089"></rect></g><g class="bar" transform="translate(125,116.02345144022432)"><rect x="1" width="11.5" height="3.9765485597756793"></rect></g><g class="bar" transform="translate(137.5,118.99056844251848)"><rect x="1" width="11.5" height="1.0094315574815198"></rect></g><g class="bar" transform="translate(150,119.90823349477441)"><rect x="1" width="11.5" height="0.09176650522559271"></rect></g><g class="bar" transform="translate(162.5,119.96941116492481)"><rect x="1" width="11.5" height="0.030588835075192833"></rect></g><g class="bar" transform="translate(175,120)"><rect x="1" width="11.5" height="0"></rect></g><g class="bar" transform="translate(187.5,120)"><rect x="1" width="11.5" height="0"></rect></g></g></svg>