<svg xmlns="http://www.w3.org/2000/svg" width="280" height="160"><defs><style type="text/css"><![CDATA[ 
.bar rect {
  fill-opacity: 0;
  stroke:       black;
  stroke-width: 0.5;
}

.highlight rect {
  fill:       red;
  fill-opacity: 1;
}
.axis path,
.axis line {
  fill: none;
  stroke: #000;
  shape-rendering: crispEdges;
}
 ]]></style></defs><g transform="translate(50,10)"><g class="bar" transform="translate(0,120)"><rect x="1" width="11.5" height="0"></rect></g><g class="bar" transform="translate(12.5,120)"><rect x="1" width="11.5" height="0"></rect></g><g class="bar" transform="translate(25,120)"><rect x="1" width="11.5" height="0"></rect></g><g class="bar" transform="translate(37.5,119.7702616464582)"><rect x="1" width="11.5" height="0.22973835354180494"></rect></g><g class="bar" transform="translate(50,111.65283982131461)"><rect x="1" width="11.5" height="8.347160178685385"></rect></g><g class="bar" transform="translate(62.5,54.3714103382259)"><rect x="1" width="11.5" height="65.6285896617741"></rect></g><g class="bar" transform="translate(75,0)"><rect x="1" width="11.5" height="120"></rect></g><g class="bar" transform="translate(87.5,13.095086151882583)"><rect x="1" width="11.5" height="106.90491384811742"></rect></g><g class="bar" transform="translate(100,33.46522016592215)"><rect x="1" width="11.5" height="86.53477983407785"></rect></g><g class="bar" transform="translate(112.5,77.42182514358647)"><rect x="1" width="11.5" height="42.578174856413526"></rect></g><g class="bar" transform="translate(125,106.52201659221443)"><rect x="1" width="11.5" height="13.477983407785572"></rect></g><g class="bar" transform="translate(137.5,118.468410976388)"><rect x="1" width="11.5" height="1.5315890236119998"></rect></g><g class="bar" transform="translate(150,119.9234205488194)"><rect x="1" width="11.5" height="0.07657945118060638"></rect></g><g class="bar" transform="translate(162.5,120)"><rect x="1" width="11.5" height="0"></rect></g><g class="bar" transform="translate(175,120)"><rect x="1" width="11.5" height="0"></rect></g><g class="bar" transform="translate(187.5,120)"><rect x="1" width="11.5" height="0"></rect></g></g></svg>