<svg xmlns="http://www.w3.org/2000/svg" width="600" height="350"><defs><style type="text/css"><![CDATA[ 
.bar rect {
  fill-opacity: 0;
  stroke:       black;
  stroke-width: 0.5;
}

.highlight rect {
  fill:       red;
  fill-opacity: 1;
}
.axis path,
.axis line {
  fill: none;
  stroke: #000;
  shape-rendering: crispEdges;
}
 ]]></style></defs><g transform="translate(50,10)"><g class="bar" transform="translate(0,310)"><rect x="1" width="11.999999999999996" height="0"></rect></g><g class="bar" transform="translate(12.999999999999996,310)"><rect x="1" width="11.999999999999996" height="0"></rect></g><g class="bar" transform="translate(25.999999999999993,308.37270341207346)"><rect x="1" width="11.999999999999996" height="1.627296587926537"></rect></g><g class="bar" transform="translate(39.00000000000001,310)"><rect x="1" width="11.999999999999996" height="0"></rect></g><g class="bar" transform="translate(52,309.18635170603676)"><rect x="1" width="11.999999999999996" height="0.8136482939632401"></rect></g><g class="bar" transform="translate(65,267.6902887139108)"><rect x="1" width="11.999999999999996" height="42.309711286089225"></rect></g><g class="bar" transform="translate(78.00000000000001,310)"><rect x="1" width="11.999999999999996" height="0"></rect></g><g class="bar" transform="translate(91.00000000000001,262.8083989501312)"><rect x="1" width="11.999999999999996" height="47.19160104986878"></rect></g><g class="bar" transform="translate(104,306.745406824147)"><rect x="1" width="11.999999999999996" height="3.2545931758530173"></rect></g><g class="bar" transform="translate(117,304.3044619422572)"><rect x="1" width="11.999999999999996" height="5.6955380577427945"></rect></g><g class="bar" transform="translate(130,273.38582677165357)"><rect x="1" width="11.999999999999996" height="36.61417322834643"></rect></g><g class="bar" transform="translate(143,253.85826771653544)"><rect x="1" width="11.999999999999996" height="56.14173228346456"></rect></g><g class="bar" transform="translate(156.00000000000003,213.17585301837272)"><rect x="1" width="11.999999999999996" height="96.82414698162728"></rect></g><g class="bar" transform="translate(169,181.44356955380576)"><rect x="1" width="11.999999999999996" height="128.55643044619424"></rect></g><g class="bar" transform="translate(182.00000000000003,144.82939632545933)"><rect x="1" width="11.999999999999996" height="165.17060367454067"></rect></g><g class="bar" transform="translate(195,60.20997375328085)"><rect x="1" width="11.999999999999996" height="249.79002624671915"></rect></g><g class="bar" transform="translate(208,73.22834645669292)"><rect x="1" width="11.999999999999996" height="236.77165354330708"></rect></g><g class="bar" transform="translate(221.00000000000003,34.98687664041995)"><rect x="1" width="11.999999999999996" height="275.01312335958005"></rect></g><g class="bar" transform="translate(234,41.496062992125985)"><rect x="1" width="11.999999999999996" height="268.503937007874"></rect></g><g class="bar" transform="translate(247.00000000000003,0)"><rect x="1" width="11.999999999999996" height="310"></rect></g><g class="bar" transform="translate(260,83.80577427821524)"><rect x="1" width="11.999999999999996" height="226.19422572178476"></rect></g><g class="bar" transform="translate(273,75.66929133858267)"><rect x="1" width="11.999999999999996" height="234.33070866141733"></rect></g><g class="bar" transform="translate(286,117.16535433070865)"><rect x="1" width="11.999999999999996" height="192.83464566929135"></rect></g><g class="bar" transform="translate(299.00000000000006,189.5800524934383)"><rect x="1" width="11.999999999999996" height="120.4199475065617"></rect></g><g class="bar" transform="translate(312.00000000000006,229.4488188976378)"><rect x="1" width="11.999999999999996" height="80.5511811023622"></rect></g><g class="bar" transform="translate(325,247.3490813648294)"><rect x="1" width="11.999999999999996" height="62.6509186351706"></rect></g><g class="bar" transform="translate(338,270.9448818897638)"><rect x="1" width="11.999999999999996" height="39.05511811023621"></rect></g><g class="bar" transform="translate(351,293.7270341207349)"><rect x="1" width="11.999999999999996" height="16.272965879265087"></rect></g><g class="bar" transform="translate(364.00000000000006,299.4225721784777)"><rect x="1" width="11.999999999999996" height="10.577427821522292"></rect></g><g class="bar" transform="translate(377.00000000000006,306.745406824147)"><rect x="1" width="11.999999999999996" height="3.2545931758530173"></rect></g><g class="bar" transform="translate(390,307.5590551181102)"><rect x="1" width="11.999999999999996" height="2.440944881889777"></rect></g><g class="bar" transform="translate(403,309.18635170603676)"><rect x="1" width="11.999999999999996" height="0.8136482939632401"></rect></g><g class="bar" transform="translate(416,310)"><rect x="1" width="11.999999999999996" height="0"></rect></g><g class="bar" transform="translate(429.00000000000006,310)"><rect x="1" width="11.999999999999996" height="0"></rect></g><g class="bar" transform="translate(442.00000000000006,309.18635170603676)"><rect x="1" width="11.999999999999996" height="0.8136482939632401"></rect></g><g class="bar" transform="translate(455,309.18635170603676)"><rect x="1" width="11.999999999999996" height="0.8136482939632401"></rect></g><g class="bar" transform="translate(468,310)"><rect x="1" width="11.999999999999996" height="0"></rect></g><g class="bar" transform="translate(481,310)"><rect x="1" width="11.999999999999996" height="0"></rect></g><g class="bar" transform="translate(494.00000000000006,310)"><rect x="1" width="11.999999999999996" height="0"></rect></g><g class="bar" transform="translate(507.00000000000006,310)"><rect x="1" width="11.999999999999996" height="0"></rect></g><g class="axis axis--x" transform="translate(0,310)" fill="none" font-size="10" font-family="sans-serif" text-anchor="middle"><path class="domain" stroke="#000" d="M0.5,6V0.5H520.5V6"></path><g class="tick" opacity="1" transform="translate(0,0)"><line stroke="#000" y2="6" x1="0.5" x2="0.5"></line><text fill="#000" y="9" x="0.5" dy="0.71em">0.01</text></g><g class="tick" opacity="1" transform="translate(130,0)"><line stroke="#000" y2="6" x1="0.5" x2="0.5"></line><text fill="#000" y="9" x="0.5" dy="0.71em">1</text></g><g class="tick" opacity="1" transform="translate(260,0)"><line stroke="#000" y2="6" x1="0.5" x2="0.5"></line><text fill="#000" y="9" x="0.5" dy="0.71em">100</text></g><g class="tick" opacity="1" transform="translate(390,0)"><line stroke="#000" y2="6" x1="0.5" x2="0.5"></line><text fill="#000" y="9" x="0.5" dy="0.71em">10000</text></g><g class="tick" opacity="1" transform="translate(520,0)"><line stroke="#000" y2="6" x1="0.5" x2="0.5"></line><text fill="#000" y="9" x="0.5" dy="0.71em"></text></g></g><g class="axis axis--y" fill="none" font-size="10" font-family="sans-serif" text-anchor="end"><path class="domain" stroke="#000" d="M-6,310.5H0.5V0.5H-6"></path><g class="tick" opacity="1" transform="translate(0,310)"><line stroke="#000" x2="-6" y1="0.5" y2="0.5"></line><text fill="#000" x="-9" y="0.5" dy="0.32em">0</text></g><g class="tick" opacity="1" transform="translate(0,269.31758530183725)"><line stroke="#000" x2="-6" y1="0.5" y2="0.5"></line><text fill="#000" x="-9" y="0.5" dy="0.32em">50</text></g><g class="tick" opacity="1" transform="translate(0,228.63517060367454)"><line stroke="#000" x2="-6" y1="0.5" y2="0.5"></line><text fill="#000" x="-9" y="0.5" dy="0.32em">100</text></g><g class="tick" opacity="1" transform="translate(0,187.95275590551182)"><line stroke="#000" x2="-6" y1="0.5" y2="0.5"></line><text fill="#000" x="-9" y="0.5" dy="0.32em">150</text></g><g class="tick" opacity="1" transform="translate(0,147.27034120734908)"><line stroke="#000" x2="-6" y1="0.5" y2="0.5"></line><text fill="#000" x="-9" y="0.5" dy="0.32em">200</text></g><g class="tick" opacity="1" transform="translate(0,106.58792650918633)"><line stroke="#000" x2="-6" y1="0.5" y2="0.5"></line><text fill="#000" x="-9" y="0.5" dy="0.32em">250</text></g><g class="tick" opacity="1" transform="translate(0,65.90551181102362)"><line stroke="#000" x2="-6" y1="0.5" y2="0.5"></line><text fill="#000" x="-9" y="0.5" dy="0.32em">300</text></g><g class="tick" opacity="1" transform="translate(0,25.2230971128609)"><line stroke="#000" x2="-6" y1="0.5" y2="0.5"></line><text fill="#000" x="-9" y="0.5" dy="0.32em">350</text></g></g></g></svg>