<svg xmlns="http://www.w3.org/2000/svg" width="600" height="350"><defs><style type="text/css"><![CDATA[ 
.bar rect {
  fill-opacity: 0;
  stroke:       black;
  stroke-width: 0.5;
}

.highlight rect {
  fill:       red;
  fill-opacity: 1;
}
.axis path,
.axis line {
  fill: none;
  stroke: #000;
  shape-rendering: crispEdges;
}
path {
    stroke: red;
    fill: none;
}

line {
    stroke: red;
}

path.marker {
    fill: red;
}
 ]]></style></defs><g transform="translate(50,10)"><g class="bar" transform="translate(0,310)"><rect x="1" width="11.999999999999996" height="0"></rect></g><g class="bar" transform="translate(12.999999999999996,310)"><rect x="1" width="11.999999999999996" height="0"></rect></g><g class="bar" transform="translate(25.999999999999993,310)"><rect x="1" width="11.999999999999996" height="0"></rect></g><g class="bar" transform="translate(39.00000000000001,310)"><rect x="1" width="11.999999999999996" height="0"></rect></g><g class="bar" transform="translate(52,308.7890625)"><rect x="1" width="11.999999999999996" height="1.2109375"></rect></g><g class="bar" transform="translate(65,308.7890625)"><rect x="1" width="11.999999999999996" height="1.2109375"></rect></g><g class="bar" transform="translate(78.00000000000001,306.3671875)"><rect x="1" width="11.999999999999996" height="3.6328125"></rect></g><g class="bar" transform="translate(91.00000000000001,298.49609375)"><rect x="1" width="11.999999999999996" height="11.50390625"></rect></g><g class="bar" transform="translate(104,285.17578125)"><rect x="1" width="11.999999999999996" height="24.82421875"></rect></g><g class="bar" transform="translate(117,248.84765625)"><rect x="1" width="11.999999999999996" height="61.15234375"></rect></g><g class="bar" transform="translate(130,176.19140625)"><rect x="1" width="11.999999999999996" height="133.80859375"></rect></g><g class="bar" transform="translate(143,138.65234375)"><rect x="1" width="11.999999999999996" height="171.34765625"></rect></g><g class="bar" transform="translate(156.00000000000003,55.09765625)"><rect x="1" width="11.999999999999996" height="254.90234375"></rect></g><g class="bar" transform="translate(169,29.66796875)"><rect x="1" width="11.999999999999996" height="280.33203125"></rect></g><g class="bar" transform="translate(182.00000000000003,22.40234375)"><rect x="1" width="11.999999999999996" height="287.59765625"></rect></g><g class="bar" transform="translate(195,0)"><rect x="1" width="11.999999999999996" height="310"></rect></g><g class="bar" transform="translate(208,20.5859375)"><rect x="1" width="11.999999999999996" height="289.4140625"></rect></g><g class="bar" transform="translate(221.00000000000003,26.640625)"><rect x="1" width="11.999999999999996" height="283.359375"></rect></g><g class="bar" transform="translate(234,10.8984375)"><rect x="1" width="11.999999999999996" height="299.1015625"></rect></g><g class="bar" transform="translate(247.00000000000003,83.5546875)"><rect x="1" width="11.999999999999996" height="226.4453125"></rect></g><g class="bar" transform="translate(260,144.1015625)"><rect x="1" width="11.999999999999996" height="165.8984375"></rect></g><g class="bar" transform="translate(273,148.9453125)"><rect x="1" width="11.999999999999996" height="161.0546875"></rect></g><g class="bar" transform="translate(286,199.19921875)"><rect x="1" width="11.999999999999996" height="110.80078125"></rect></g><g class="bar" transform="translate(299.00000000000006,220.390625)"><rect x="1" width="11.999999999999996" height="89.609375"></rect></g><g class="bar" transform="translate(312.00000000000006,242.79296875)"><rect x="1" width="11.999999999999996" height="67.20703125"></rect></g><g class="bar" transform="translate(325,271.25)"><rect x="1" width="11.999999999999996" height="38.75"></rect></g><g class="bar" transform="translate(338,281.54296875)"><rect x="1" width="11.999999999999996" height="28.45703125"></rect></g><g class="bar" transform="translate(351,285.78125)"><rect x="1" width="11.999999999999996" height="24.21875"></rect></g><g class="bar" transform="translate(364.00000000000006,296.6796875)"><rect x="1" width="11.999999999999996" height="13.3203125"></rect></g><g class="bar" transform="translate(377.00000000000006,300.91796875)"><rect x="1" width="11.999999999999996" height="9.08203125"></rect></g><g class="bar" transform="translate(390,309.39453125)"><rect x="1" width="11.999999999999996" height="0.60546875"></rect></g><g class="bar" transform="translate(403,310)"><rect x="1" width="11.999999999999996" height="0"></rect></g><g class="bar" transform="translate(416,308.7890625)"><rect x="1" width="11.999999999999996" height="1.2109375"></rect></g><g class="bar" transform="translate(429.00000000000006,310)"><rect x="1" width="11.999999999999996" height="0"></rect></g><g class="bar" transform="translate(442.00000000000006,310)"><rect x="1" width="11.999999999999996" height="0"></rect></g><g class="bar" transform="translate(455,310)"><rect x="1" width="11.999999999999996" height="0"></rect></g><g class="bar" transform="translate(468,310)"><rect x="1" width="11.999999999999996" height="0"></rect></g><g class="bar" transform="translate(481,310)"><rect x="1" width="11.999999999999996" height="0"></rect></g><g class="bar" transform="translate(494.00000000000006,310)"><rect x="1" width="11.999999999999996" height="0"></rect></g><g class="bar" transform="translate(507.00000000000006,310)"><rect x="1" width="11.999999999999996" height="0"></rect></g><g class="axis axis--x" transform="translate(0,310)" fill="none" font-size="10" font-family="sans-serif" text-anchor="middle"><path class="domain" stroke="#000" d="M0.5,6V0.5H520.5V6"></path><g class="tick" opacity="1" transform="translate(0.5,0)"><line stroke="#000" y2="6"></line><text fill="#000" y="9" dy="0.71em">0.01</text></g><g class="tick" opacity="1" transform="translate(130.5,0)"><line stroke="#000" y2="6"></line><text fill="#000" y="9" dy="0.71em">1</text></g><g class="tick" opacity="1" transform="translate(260.5,0)"><line stroke="#000" y2="6"></line><text fill="#000" y="9" dy="0.71em">100</text></g><g class="tick" opacity="1" transform="translate(390.5,0)"><line stroke="#000" y2="6"></line><text fill="#000" y="9" dy="0.71em">10000</text></g><g class="tick" opacity="1" transform="translate(520.5,0)"><line stroke="#000" y2="6"></line><text fill="#000" y="9" dy="0.71em"></text></g></g><g class="axis axis--y" fill="none" font-size="10" font-family="sans-serif" text-anchor="end"><path class="domain" stroke="#000" d="M-6,310.5H0.5V0.5H-6"></path><g class="tick" opacity="1" transform="translate(0,310.5)"><line stroke="#000" x2="-6"></line><text fill="#000" x="-9" dy="0.32em">0</text></g><g class="tick" opacity="1" transform="translate(0,280.2265625)"><line stroke="#000" x2="-6"></line><text fill="#000" x="-9" dy="0.32em">50</text></g><g class="tick" opacity="1" transform="translate(0,249.953125)"><line stroke="#000" x2="-6"></line><text fill="#000" x="-9" dy="0.32em">100</text></g><g class="tick" opacity="1" transform="translate(0,219.6796875)"><line stroke="#000" x2="-6"></line><text fill="#000" x="-9" dy="0.32em">150</text></g><g class="tick" opacity="1" transform="translate(0,189.40625)"><line stroke="#000" x2="-6"></line><text fill="#000" x="-9" dy="0.32em">200</text></g><g class="tick" opacity="1" transform="translate(0,159.1328125)"><line stroke="#000" x2="-6"></line><text fill="#000" x="-9" dy="0.32em">250</text></g><g class="tick" opacity="1" transform="translate(0,128.859375)"><line stroke="#000" x2="-6"></line><text fill="#000" x="-9" dy="0.32em">300</text></g><g class="tick" opacity="1" transform="translate(0,98.5859375)"><line stroke="#000" x2="-6"></line><text fill="#000" x="-9" dy="0.32em">350</text></g><g class="tick" opacity="1" transform="translate(0,68.3125)"><line stroke="#000" x2="-6"></line><text fill="#000" x="-9" dy="0.32em">400</text></g><g class="tick" opacity="1" transform="translate(0,38.0390625)"><line stroke="#000" x2="-6"></line><text fill="#000" x="-9" dy="0.32em">450</text></g><g class="tick" opacity="1" transform="translate(0,7.765625)"><line stroke="#000" x2="-6"></line><text fill="#000" x="-9" dy="0.32em">500</text></g></g></g></svg>