<svg xmlns="http://www.w3.org/2000/svg" width="280" height="160"><defs><style type="text/css"><![CDATA[ 
.bar rect {
  fill-opacity: 0;
  stroke:       black;
  stroke-width: 0.5;
}

.highlight rect {
  fill:       red;
  fill-opacity: 1;
}
.axis path,
.axis line {
  fill: none;
  stroke: #000;
  shape-rendering: crispEdges;
}
path {
    stroke: red;
    fill: none;
}

line {
    stroke: red;
}

path.marker {
    fill: red;
}
 ]]></style></defs><g transform="translate(50,10)"><g class="bar" transform="translate(0,120)"><rect x="1" width="11.5" height="0"></rect></g><g class="bar" transform="translate(12.5,119.80440097799512)"><rect x="1" width="11.5" height="0.19559902200488466"></rect></g><g class="bar" transform="translate(25,118.33740831295843)"><rect x="1" width="11.5" height="1.6625916870415693"></rect></g><g class="bar" transform="translate(37.5,105.13447432762837)"><rect x="1" width="11.5" height="14.865525672371632"></rect></g><g class="bar" transform="translate(50,51.63814180929096)"><rect x="1" width="11.5" height="68.36185819070904"></rect></g><g class="bar" transform="translate(62.5,6.16136919315403)"><rect x="1" width="11.5" height="113.83863080684597"></rect></g><g class="bar" transform="translate(75,0)"><rect x="1" width="11.5" height="120"></rect></g><g class="bar" transform="translate(87.5,12.51833740831296)"><rect x="1" width="11.5" height="107.48166259168704"></rect></g><g class="bar" transform="translate(100,56.723716381418086)"><rect x="1" width="11.5" height="63.276283618581914"></rect></g><g class="bar" transform="translate(112.5,87.23716381418093)"><rect x="1" width="11.5" height="32.76283618581907"></rect></g><g class="bar" transform="translate(125,106.89486552567237)"><rect x="1" width="11.5" height="13.105134474327627"></rect></g><g class="bar" transform="translate(137.5,114.71882640586797)"><rect x="1" width="11.5" height="5.281173594132028"></rect></g><g class="bar" transform="translate(150,119.80440097799512)"><rect x="1" width="11.5" height="0.19559902200488466"></rect></g><g class="bar" transform="translate(162.5,119.90220048899755)"><rect x="1" width="11.5" height="0.09779951100244944"></rect></g><g class="bar" transform="translate(175,120)"><rect x="1" width="11.5" height="0"></rect></g><g class="bar" transform="translate(187.5,120)"><rect x="1" width="11.5" height="0"></rect></g></g></svg>