<svg xmlns="http://www.w3.org/2000/svg" width="600" height="350"><defs><style type="text/css"><![CDATA[ 
.bar rect {
  fill-opacity: 0;
  stroke:       black;
  stroke-width: 0.5;
}

.highlight rect {
  fill:       red;
  fill-opacity: 1;
}
.axis path,
.axis line {
  fill: none;
  stroke: #000;
  shape-rendering: crispEdges;
}
path {
    stroke: red;
    fill: none;
}

line {
    stroke: red;
}

path.marker {
    fill: red;
}
 ]]></style></defs><g transform="translate(50,10)"><g class="bar" transform="translate(0,300.27196652719664)"><rect x="1" width="11.999999999999996" height="9.72803347280336"></rect></g><g class="bar" transform="translate(12.999999999999996,300.27196652719664)"><rect x="1" width="11.999999999999996" height="9.72803347280336"></rect></g><g class="bar" transform="translate(25.999999999999993,287.30125523012555)"><rect x="1" width="11.999999999999996" height="22.698744769874452"></rect></g><g class="bar" transform="translate(39.00000000000001,275.6276150627615)"><rect x="1" width="11.999999999999996" height="34.37238493723851"></rect></g><g class="bar" transform="translate(52,221.79916317991632)"><rect x="1" width="11.999999999999996" height="88.20083682008368"></rect></g><g class="bar" transform="translate(65,128.4100418410042)"><rect x="1" width="11.999999999999996" height="181.5899581589958"></rect></g><g class="bar" transform="translate(78.00000000000001,27.23849372384933)"><rect x="1" width="11.999999999999996" height="282.76150627615067"></rect></g><g class="bar" transform="translate(91.00000000000001,47.9916317991632)"><rect x="1" width="11.999999999999996" height="262.0083682008368"></rect></g><g class="bar" transform="translate(104,20.753138075313814)"><rect x="1" width="11.999999999999996" height="289.2468619246862"></rect></g><g class="bar" transform="translate(117,51.882845188284534)"><rect x="1" width="11.999999999999996" height="258.11715481171547"></rect></g><g class="bar" transform="translate(130,18.80753138075312)"><rect x="1" width="11.999999999999996" height="291.1924686192469"></rect></g><g class="bar" transform="translate(143,0)"><rect x="1" width="11.999999999999996" height="310"></rect></g><g class="bar" transform="translate(156.00000000000003,51.23430962343099)"><rect x="1" width="11.999999999999996" height="258.765690376569"></rect></g><g class="bar" transform="translate(169,47.9916317991632)"><rect x="1" width="11.999999999999996" height="262.0083682008368"></rect></g><g class="bar" transform="translate(182.00000000000003,65.5020920502092)"><rect x="1" width="11.999999999999996" height="244.4979079497908"></rect></g><g class="bar" transform="translate(195,74.58158995815899)"><rect x="1" width="11.999999999999996" height="235.418410041841"></rect></g><g class="bar" transform="translate(208,118.03347280334731)"><rect x="1" width="11.999999999999996" height="191.9665271966527"></rect></g><g class="bar" transform="translate(221.00000000000003,119.97907949790795)"><rect x="1" width="11.999999999999996" height="190.02092050209205"></rect></g><g class="bar" transform="translate(234,153.0543933054393)"><rect x="1" width="11.999999999999996" height="156.9456066945607"></rect></g><g class="bar" transform="translate(247.00000000000003,178.9958158995816)"><rect x="1" width="11.999999999999996" height="131.0041841004184"></rect></g><g class="bar" transform="translate(260,210.1255230125523)"><rect x="1" width="11.999999999999996" height="99.87447698744771"></rect></g><g class="bar" transform="translate(273,233.47280334728032)"><rect x="1" width="11.999999999999996" height="76.52719665271968"></rect></g><g class="bar" transform="translate(286,252.2803347280335)"><rect x="1" width="11.999999999999996" height="57.719665271966505"></rect></g><g class="bar" transform="translate(299.00000000000006,269.1422594142259)"><rect x="1" width="11.999999999999996" height="40.85774058577408"></rect></g><g class="bar" transform="translate(312.00000000000006,289.89539748953973)"><rect x="1" width="11.999999999999996" height="20.104602510460268"></rect></g><g class="bar" transform="translate(325,297.02928870292885)"><rect x="1" width="11.999999999999996" height="12.970711297071148"></rect></g><g class="bar" transform="translate(338,289.89539748953973)"><rect x="1" width="11.999999999999996" height="20.104602510460268"></rect></g><g class="bar" transform="translate(351,275.6276150627615)"><rect x="1" width="11.999999999999996" height="34.37238493723851"></rect></g><g class="bar" transform="translate(364.00000000000006,279.5188284518828)"><rect x="1" width="11.999999999999996" height="30.481171548117175"></rect></g><g class="bar" transform="translate(377.00000000000006,283.41004184100416)"><rect x="1" width="11.999999999999996" height="26.58995815899584"></rect></g><g class="bar" transform="translate(390,309.35146443514645)"><rect x="1" width="11.999999999999996" height="0.648535564853546"></rect></g><g class="bar" transform="translate(403,310)"><rect x="1" width="11.999999999999996" height="0"></rect></g><g class="bar" transform="translate(416,310)"><rect x="1" width="11.999999999999996" height="0"></rect></g><g class="bar" transform="translate(429.00000000000006,310)"><rect x="1" width="11.999999999999996" height="0"></rect></g><g class="bar" transform="translate(442.00000000000006,310)"><rect x="1" width="11.999999999999996" height="0"></rect></g><g class="bar" transform="translate(455,310)"><rect x="1" width="11.999999999999996" height="0"></rect></g><g class="bar" transform="translate(468,310)"><rect x="1" width="11.999999999999996" height="0"></rect></g><g class="bar" transform="translate(481,310)"><rect x="1" width="11.999999999999996" height="0"></rect></g><g class="bar" transform="translate(494.00000000000006,310)"><rect x="1" width="11.999999999999996" height="0"></rect></g><g class="bar" transform="translate(507.00000000000006,310)"><rect x="1" width="11.999999999999996" height="0"></rect></g><g class="axis axis--x" transform="translate(0,310)" fill="none" font-size="10" font-family="sans-serif" text-anchor="middle"><path class="domain" stroke="#000" d="M0.5,6V0.5H520.5V6"></path><g class="tick" opacity="1" transform="translate(0.5,0)"><line stroke="#000" y2="6"></line><text fill="#000" y="9" dy="0.71em">0.01</text></g><g class="tick" opacity="1" transform="translate(130.5,0)"><line stroke="#000" y2="6"></line><text fill="#000" y="9" dy="0.71em">1</text></g><g class="tick" opacity="1" transform="translate(260.5,0)"><line stroke="#000" y2="6"></line><text fill="#000" y="9" dy="0.71em">100</text></g><g class="tick" opacity="1" transform="translate(390.5,0)"><line stroke="#000" y2="6"></line><text fill="#000" y="9" dy="0.71em">10000</text></g><g class="tick" opacity="1" transform="translate(520.5,0)"><line stroke="#000" y2="6"></line><text fill="#000" y="9" dy="0.71em"></text></g></g><g class="axis axis--y" fill="none" font-size="10" font-family="sans-serif" text-anchor="end"><path class="domain" stroke="#000" d="M-6,310.5H0.5V0.5H-6"></path><g class="tick" opacity="1" transform="translate(0,310.5)"><line stroke="#000" x2="-6"></line><text fill="#000" x="-9" dy="0.32em">0</text></g><g class="tick" opacity="1" transform="translate(0,278.0732217573222)"><line stroke="#000" x2="-6"></line><text fill="#000" x="-9" dy="0.32em">50</text></g><g class="tick" opacity="1" transform="translate(0,245.64644351464437)"><line stroke="#000" x2="-6"></line><text fill="#000" x="-9" dy="0.32em">100</text></g><g class="tick" opacity="1" transform="translate(0,213.21966527196653)"><line stroke="#000" x2="-6"></line><text fill="#000" x="-9" dy="0.32em">150</text></g><g class="tick" opacity="1" transform="translate(0,180.79288702928872)"><line stroke="#000" x2="-6"></line><text fill="#000" x="-9" dy="0.32em">200</text></g><g class="tick" opacity="1" transform="translate(0,148.36610878661088)"><line stroke="#000" x2="-6"></line><text fill="#000" x="-9" dy="0.32em">250</text></g><g class="tick" opacity="1" transform="translate(0,115.93933054393307)"><line stroke="#000" x2="-6"></line><text fill="#000" x="-9" dy="0.32em">300</text></g><g class="tick" opacity="1" transform="translate(0,83.51255230125523)"><line stroke="#000" x2="-6"></line><text fill="#000" x="-9" dy="0.32em">350</text></g><g class="tick" opacity="1" transform="translate(0,51.08577405857744)"><line stroke="#000" x2="-6"></line><text fill="#000" x="-9" dy="0.32em">400</text></g><g class="tick" opacity="1" transform="translate(0,18.658995815899573)"><line stroke="#000" x2="-6"></line><text fill="#000" x="-9" dy="0.32em">450</text></g></g></g></svg>