<svg xmlns="http://www.w3.org/2000/svg" width="280" height="160"><defs><style type="text/css"><![CDATA[ 
.bar rect {
  fill-opacity: 0;
  stroke:       black;
  stroke-width: 0.5;
}

.highlight rect {
  fill:       red;
  fill-opacity: 1;
}
.axis path,
.axis line {
  fill: none;
  stroke: #000;
  shape-rendering: crispEdges;
}
 ]]></style></defs><g transform="translate(50,10)"><g class="bar" transform="translate(0,120)"><rect x="1" width="11.5" height="0"></rect></g><g class="bar" transform="translate(12.5,120)"><rect x="1" width="11.5" height="0"></rect></g><g class="bar" transform="translate(25,120)"><rect x="1" width="11.5" height="0"></rect></g><g class="bar" transform="translate(37.5,114.83870967741936)"><rect x="1" width="11.5" height="5.161290322580641"></rect></g><g class="bar" transform="translate(50,97.14285714285714)"><rect x="1" width="11.5" height="22.85714285714286"></rect></g><g class="bar" transform="translate(62.5,70.04608294930875)"><rect x="1" width="11.5" height="49.953917050691246"></rect></g><g class="bar" transform="translate(75,18.064516129032256)"><rect x="1" width="11.5" height="101.93548387096774"></rect></g><g class="bar" transform="translate(87.5,0)"><rect x="1" width="11.5" height="120"></rect></g><g class="bar" transform="translate(100,18.433179723502306)"><rect x="1" width="11.5" height="101.5668202764977"></rect></g><g class="bar" transform="translate(112.5,65.6221198156682)"><rect x="1" width="11.5" height="54.3778801843318"></rect></g><g class="bar" transform="translate(125,101.5668202764977)"><rect x="1" width="11.5" height="18.433179723502306"></rect></g><g class="bar" transform="translate(137.5,115.39170506912443)"><rect x="1" width="11.5" height="4.608294930875573"></rect></g><g class="bar" transform="translate(150,119.26267281105991)"><rect x="1" width="11.5" height="0.7373271889400854"></rect></g><g class="bar" transform="translate(162.5,119.07834101382488)"><rect x="1" width="11.5" height="0.9216589861751174"></rect></g><g class="bar" transform="translate(175,120)"><rect x="1" width="11.5" height="0"></rect></g><g class="bar" transform="translate(187.5,120)"><rect x="1" width="11.5" height="0"></rect></g></g></svg>