<svg xmlns="http://www.w3.org/2000/svg" width="600" height="350"><defs><style type="text/css"><![CDATA[ 
.bar rect {
  fill-opacity: 0;
  stroke:       black;
  stroke-width: 0.5;
}

.highlight rect {
  fill:       red;
  fill-opacity: 1;
}
.axis path,
.axis line {
  fill: none;
  stroke: #000;
  shape-rendering: crispEdges;
}
 ]]></style></defs><g transform="translate(50,10)"><g class="bar" transform="translate(0,310)"><rect x="1" width="11.999999999999996" height="0"></rect></g><g class="bar" transform="translate(12.999999999999996,310)"><rect x="1" width="11.999999999999996" height="0"></rect></g><g class="bar" transform="translate(25.999999999999993,310)"><rect x="1" width="11.999999999999996" height="0"></rect></g><g class="bar" transform="translate(39.00000000000001,310)"><rect x="1" width="11.999999999999996" height="0"></rect></g><g class="bar" transform="translate(52,310)"><rect x="1" width="11.999999999999996" height="0"></rect></g><g class="bar" transform="translate(65,310)"><rect x="1" width="11.999999999999996" height="0"></rect></g><g class="bar" transform="translate(78.00000000000001,310)"><rect x="1" width="11.999999999999996" height="0"></rect></g><g class="bar" transform="translate(91.00000000000001,310)"><rect x="1" width="11.999999999999996" height="0"></rect></g><g class="bar" transform="translate(104,303.1617647058824)"><rect x="1" width="11.999999999999996" height="6.838235294117624"></rect></g><g class="bar" transform="translate(117,284.9264705882353)"><rect x="1" width="11.999999999999996" height="25.073529411764696"></rect></g><g class="bar" transform="translate(130,272.3897058823529)"><rect x="1" width="11.999999999999996" height="37.61029411764707"></rect></g><g class="bar" transform="translate(143,255.2941176470588)"><rect x="1" width="11.999999999999996" height="54.70588235294119"></rect></g><g class="bar" transform="translate(156.00000000000003,210.84558823529414)"><rect x="1" width="11.999999999999996" height="99.15441176470586"></rect></g><g class="bar" transform="translate(169,201.7279411764706)"><rect x="1" width="11.999999999999996" height="108.27205882352939"></rect></g><g class="bar" transform="translate(182.00000000000003,159.55882352941177)"><rect x="1" width="11.999999999999996" height="150.44117647058823"></rect></g><g class="bar" transform="translate(195,82.05882352941174)"><rect x="1" width="11.999999999999996" height="227.94117647058826"></rect></g><g class="bar" transform="translate(208,37.61029411764707)"><rect x="1" width="11.999999999999996" height="272.3897058823529"></rect></g><g class="bar" transform="translate(221.00000000000003,29.632352941176464)"><rect x="1" width="11.999999999999996" height="280.36764705882354"></rect></g><g class="bar" transform="translate(234,0)"><rect x="1" width="11.999999999999996" height="310"></rect></g><g class="bar" transform="translate(247.00000000000003,28.492647058823536)"><rect x="1" width="11.999999999999996" height="281.50735294117646"></rect></g><g class="bar" transform="translate(260,56.98529411764707)"><rect x="1" width="11.999999999999996" height="253.01470588235293"></rect></g><g class="bar" transform="translate(273,51.28676470588232)"><rect x="1" width="11.999999999999996" height="258.7132352941177"></rect></g><g class="bar" transform="translate(286,77.5)"><rect x="1" width="11.999999999999996" height="232.5"></rect></g><g class="bar" transform="translate(299.00000000000006,180.0735294117647)"><rect x="1" width="11.999999999999996" height="129.9264705882353"></rect></g><g class="bar" transform="translate(312.00000000000006,219.96323529411762)"><rect x="1" width="11.999999999999996" height="90.03676470588238"></rect></g><g class="bar" transform="translate(325,241.61764705882354)"><rect x="1" width="11.999999999999996" height="68.38235294117646"></rect></g><g class="bar" transform="translate(338,275.80882352941177)"><rect x="1" width="11.999999999999996" height="34.19117647058823"></rect></g><g class="bar" transform="translate(351,289.4852941176471)"><rect x="1" width="11.999999999999996" height="20.514705882352928"></rect></g><g class="bar" transform="translate(364.00000000000006,297.4632352941176)"><rect x="1" width="11.999999999999996" height="12.536764705882376"></rect></g><g class="bar" transform="translate(377.00000000000006,303.1617647058824)"><rect x="1" width="11.999999999999996" height="6.838235294117624"></rect></g><g class="bar" transform="translate(390,308.8602941176471)"><rect x="1" width="11.999999999999996" height="1.1397058823529278"></rect></g><g class="bar" transform="translate(403,308.8602941176471)"><rect x="1" width="11.999999999999996" height="1.1397058823529278"></rect></g><g class="bar" transform="translate(416,307.72058823529414)"><rect x="1" width="11.999999999999996" height="2.2794117647058556"></rect></g><g class="bar" transform="translate(429.00000000000006,305.44117647058823)"><rect x="1" width="11.999999999999996" height="4.558823529411768"></rect></g><g class="bar" transform="translate(442.00000000000006,308.8602941176471)"><rect x="1" width="11.999999999999996" height="1.1397058823529278"></rect></g><g class="bar" transform="translate(455,310)"><rect x="1" width="11.999999999999996" height="0"></rect></g><g class="bar" transform="translate(468,310)"><rect x="1" width="11.999999999999996" height="0"></rect></g><g class="bar" transform="translate(481,310)"><rect x="1" width="11.999999999999996" height="0"></rect></g><g class="bar" transform="translate(494.00000000000006,310)"><rect x="1" width="11.999999999999996" height="0"></rect></g><g class="bar" transform="translate(507.00000000000006,310)"><rect x="1" width="11.999999999999996" height="0"></rect></g><g class="axis axis--x" transform="translate(0,310)" fill="none" font-size="10" font-family="sans-serif" text-anchor="middle"><path class="domain" stroke="#000" d="M0.5,6V0.5H520.5V6"></path><g class="tick" opacity="1" transform="translate(0,0)"><line stroke="#000" y2="6" x1="0.5" x2="0.5"></line><text fill="#000" y="9" x="0.5" dy="0.71em">0.01</text></g><g class="tick" opacity="1" transform="translate(130,0)"><line stroke="#000" y2="6" x1="0.5" x2="0.5"></line><text fill="#000" y="9" x="0.5" dy="0.71em">1</text></g><g class="tick" opacity="1" transform="translate(260,0)"><line stroke="#000" y2="6" x1="0.5" x2="0.5"></line><text fill="#000" y="9" x="0.5" dy="0.71em">100</text></g><g class="tick" opacity="1" transform="translate(390,0)"><line stroke="#000" y2="6" x1="0.5" x2="0.5"></line><text fill="#000" y="9" x="0.5" dy="0.71em">10000</text></g><g class="tick" opacity="1" transform="translate(520,0)"><line stroke="#000" y2="6" x1="0.5" x2="0.5"></line><text fill="#000" y="9" x="0.5" dy="0.71em"></text></g></g><g class="axis axis--y" fill="none" font-size="10" font-family="sans-serif" text-anchor="end"><path class="domain" stroke="#000" d="M-6,310.5H0.5V0.5H-6"></path><g class="tick" opacity="1" transform="translate(0,310)"><line stroke="#000" x2="-6" y1="0.5" y2="0.5"></line><text fill="#000" x="-9" y="0.5" dy="0.32em">0</text></g><g class="tick" opacity="1" transform="translate(0,287.20588235294116)"><line stroke="#000" x2="-6" y1="0.5" y2="0.5"></line><text fill="#000" x="-9" y="0.5" dy="0.32em">20</text></g><g class="tick" opacity="1" transform="translate(0,264.4117647058823)"><line stroke="#000" x2="-6" y1="0.5" y2="0.5"></line><text fill="#000" x="-9" y="0.5" dy="0.32em">40</text></g><g class="tick" opacity="1" transform="translate(0,241.61764705882354)"><line stroke="#000" x2="-6" y1="0.5" y2="0.5"></line><text fill="#000" x="-9" y="0.5" dy="0.32em">60</text></g><g class="tick" opacity="1" transform="translate(0,218.8235294117647)"><line stroke="#000" x2="-6" y1="0.5" y2="0.5"></line><text fill="#000" x="-9" y="0.5" dy="0.32em">80</text></g><g class="tick" opacity="1" transform="translate(0,196.02941176470586)"><line stroke="#000" x2="-6" y1="0.5" y2="0.5"></line><text fill="#000" x="-9" y="0.5" dy="0.32em">100</text></g><g class="tick" opacity="1" transform="translate(0,173.23529411764707)"><line stroke="#000" x2="-6" y1="0.5" y2="0.5"></line><text fill="#000" x="-9" y="0.5" dy="0.32em">120</text></g><g class="tick" opacity="1" transform="translate(0,150.44117647058826)"><line stroke="#000" x2="-6" y1="0.5" y2="0.5"></line><text fill="#000" x="-9" y="0.5" dy="0.32em">140</text></g><g class="tick" opacity="1" transform="translate(0,127.64705882352939)"><line stroke="#000" x2="-6" y1="0.5" y2="0.5"></line><text fill="#000" x="-9" y="0.5" dy="0.32em">160</text></g><g class="tick" opacity="1" transform="translate(0,104.85294117647061)"><line stroke="#000" x2="-6" y1="0.5" y2="0.5"></line><text fill="#000" x="-9" y="0.5" dy="0.32em">180</text></g><g class="tick" opacity="1" transform="translate(0,82.05882352941174)"><line stroke="#000" x2="-6" y1="0.5" y2="0.5"></line><text fill="#000" x="-9" y="0.5" dy="0.32em">200</text></g><g class="tick" opacity="1" transform="translate(0,59.26470588235293)"><line stroke="#000" x2="-6" y1="0.5" y2="0.5"></line><text fill="#000" x="-9" y="0.5" dy="0.32em">220</text></g><g class="tick" opacity="1" transform="translate(0,36.470588235294144)"><line stroke="#000" x2="-6" y1="0.5" y2="0.5"></line><text fill="#000" x="-9" y="0.5" dy="0.32em">240</text></g><g class="tick" opacity="1" transform="translate(0,13.676470588235304)"><line stroke="#000" x2="-6" y1="0.5" y2="0.5"></line><text fill="#000" x="-9" y="0.5" dy="0.32em">260</text></g></g></g></svg>