<svg xmlns="http://www.w3.org/2000/svg" width="280" height="160"><defs><style type="text/css"><![CDATA[ 
.bar rect {
  fill-opacity: 0;
  stroke:       black;
  stroke-width: 0.5;
}

.highlight rect {
  fill:       red;
  fill-opacity: 1;
}
.axis path,
.axis line {
  fill: none;
  stroke: #000;
  shape-rendering: crispEdges;
}
path {
    stroke: red;
    fill: none;
}

line {
    stroke: red;
}

path.marker {
    fill: red;
}
 ]]></style></defs><g transform="translate(50,10)"><g class="bar" transform="translate(0,118.98840885142255)"><rect x="1" width="11.5" height="1.0115911485774518"></rect></g><g class="bar" transform="translate(12.5,112.41306638566913)"><rect x="1" width="11.5" height="7.586933614330874"></rect></g><g class="bar" transform="translate(25,88.38777660695469)"><rect x="1" width="11.5" height="31.612223393045312"></rect></g><g class="bar" transform="translate(37.5,52.85563751317176)"><rect x="1" width="11.5" height="67.14436248682824"></rect></g><g class="bar" transform="translate(50,15.932560590094837)"><rect x="1" width="11.5" height="104.06743940990516"></rect></g><g class="bar" transform="translate(62.5,0)"><rect x="1" width="11.5" height="120"></rect></g><g class="bar" transform="translate(75,4.172813487881982)"><rect x="1" width="11.5" height="115.82718651211802"></rect></g><g class="bar" transform="translate(87.5,25.79557428872498)"><rect x="1" width="11.5" height="94.20442571127502"></rect></g><g class="bar" transform="translate(100,61.83350895679663)"><rect x="1" width="11.5" height="58.16649104320337"></rect></g><g class="bar" transform="translate(112.5,88.51422550052686)"><rect x="1" width="11.5" height="31.485774499473138"></rect></g><g class="bar" transform="translate(125,104.44678609062171)"><rect x="1" width="11.5" height="15.553213909378286"></rect></g><g class="bar" transform="translate(137.5,112.66596417281349)"><rect x="1" width="11.5" height="7.334035827186511"></rect></g><g class="bar" transform="translate(150,118.48261327713382)"><rect x="1" width="11.5" height="1.5173867228661777"></rect></g><g class="bar" transform="translate(162.5,120)"><rect x="1" width="11.5" height="0"></rect></g><g class="bar" transform="translate(175,120)"><rect x="1" width="11.5" height="0"></rect></g><g class="bar" transform="translate(187.5,120)"><rect x="1" width="11.5" height="0"></rect></g></g></svg>