<svg xmlns="http://www.w3.org/2000/svg" width="600" height="350"><defs><style type="text/css"><![CDATA[ 
.bar rect {
  fill-opacity: 0;
  stroke:       black;
  stroke-width: 0.5;
}

.highlight rect {
  fill:       red;
  fill-opacity: 1;
}
.axis path,
.axis line {
  fill: none;
  stroke: #000;
  shape-rendering: crispEdges;
}
path {
    stroke: red;
    fill: none;
}

line {
    stroke: red;
}

path.marker {
    fill: red;
}
 ]]></style></defs><g transform="translate(50,10)"><g class="bar" transform="translate(0,309.2211055276382)"><rect x="1" width="11.999999999999996" height="0.7788944723617988"></rect></g><g class="bar" transform="translate(12.999999999999996,305.32663316582915)"><rect x="1" width="11.999999999999996" height="4.673366834170849"></rect></g><g class="bar" transform="translate(25.999999999999993,302.2110552763819)"><rect x="1" width="11.999999999999996" height="7.788944723618101"></rect></g><g class="bar" transform="translate(39.00000000000001,297.53768844221105)"><rect x="1" width="11.999999999999996" height="12.46231155778895"></rect></g><g class="bar" transform="translate(52,282.7386934673367)"><rect x="1" width="11.999999999999996" height="27.261306532663298"></rect></g><g class="bar" transform="translate(65,263.26633165829145)"><rect x="1" width="11.999999999999996" height="46.73366834170855"></rect></g><g class="bar" transform="translate(78.00000000000001,228.21608040201005)"><rect x="1" width="11.999999999999996" height="81.78391959798995"></rect></g><g class="bar" transform="translate(91.00000000000001,179.9246231155779)"><rect x="1" width="11.999999999999996" height="130.0753768844221"></rect></g><g class="bar" transform="translate(104,151.88442211055275)"><rect x="1" width="11.999999999999996" height="158.11557788944725"></rect></g><g class="bar" transform="translate(117,118.39195979899498)"><rect x="1" width="11.999999999999996" height="191.60804020100502"></rect></g><g class="bar" transform="translate(130,72.43718592964822)"><rect x="1" width="11.999999999999996" height="237.56281407035178"></rect></g><g class="bar" transform="translate(143,36.60804020100505)"><rect x="1" width="11.999999999999996" height="273.39195979899495"></rect></g><g class="bar" transform="translate(156.00000000000003,49.8492462311558)"><rect x="1" width="11.999999999999996" height="260.1507537688442"></rect></g><g class="bar" transform="translate(169,0)"><rect x="1" width="11.999999999999996" height="310"></rect></g><g class="bar" transform="translate(182.00000000000003,10.904522613065353)"><rect x="1" width="11.999999999999996" height="299.09547738693465"></rect></g><g class="bar" transform="translate(195,12.46231155778895)"><rect x="1" width="11.999999999999996" height="297.53768844221105"></rect></g><g class="bar" transform="translate(208,42.0603015075377)"><rect x="1" width="11.999999999999996" height="267.9396984924623"></rect></g><g class="bar" transform="translate(221.00000000000003,30.37688442211055)"><rect x="1" width="11.999999999999996" height="279.62311557788945"></rect></g><g class="bar" transform="translate(234,77.8894472361809)"><rect x="1" width="11.999999999999996" height="232.1105527638191"></rect></g><g class="bar" transform="translate(247.00000000000003,93.46733668341707)"><rect x="1" width="11.999999999999996" height="216.53266331658293"></rect></g><g class="bar" transform="translate(260,125.40201005025128)"><rect x="1" width="11.999999999999996" height="184.59798994974872"></rect></g><g class="bar" transform="translate(273,183.04020100502512)"><rect x="1" width="11.999999999999996" height="126.95979899497488"></rect></g><g class="bar" transform="translate(286,217.31155778894473)"><rect x="1" width="11.999999999999996" height="92.68844221105527"></rect></g><g class="bar" transform="translate(299.00000000000006,226.65829145728645)"><rect x="1" width="11.999999999999996" height="83.34170854271355"></rect></g><g class="bar" transform="translate(312.00000000000006,245.35175879396985)"><rect x="1" width="11.999999999999996" height="64.64824120603015"></rect></g><g class="bar" transform="translate(325,260.1507537688442)"><rect x="1" width="11.999999999999996" height="49.8492462311558"></rect></g><g class="bar" transform="translate(338,273.391959798995)"><rect x="1" width="11.999999999999996" height="36.608040201005"></rect></g><g class="bar" transform="translate(351,289.74874371859295)"><rect x="1" width="11.999999999999996" height="20.251256281407052"></rect></g><g class="bar" transform="translate(364.00000000000006,288.19095477386935)"><rect x="1" width="11.999999999999996" height="21.80904522613065"></rect></g><g class="bar" transform="translate(377.00000000000006,297.53768844221105)"><rect x="1" width="11.999999999999996" height="12.46231155778895"></rect></g><g class="bar" transform="translate(390,302.9899497487437)"><rect x="1" width="11.999999999999996" height="7.0100502512563025"></rect></g><g class="bar" transform="translate(403,309.2211055276382)"><rect x="1" width="11.999999999999996" height="0.7788944723617988"></rect></g><g class="bar" transform="translate(416,308.4422110552764)"><rect x="1" width="11.999999999999996" height="1.5577889447235975"></rect></g><g class="bar" transform="translate(429.00000000000006,310)"><rect x="1" width="11.999999999999996" height="0"></rect></g><g class="bar" transform="translate(442.00000000000006,310)"><rect x="1" width="11.999999999999996" height="0"></rect></g><g class="bar" transform="translate(455,310)"><rect x="1" width="11.999999999999996" height="0"></rect></g><g class="bar" transform="translate(468,310)"><rect x="1" width="11.999999999999996" height="0"></rect></g><g class="bar" transform="translate(481,310)"><rect x="1" width="11.999999999999996" height="0"></rect></g><g class="bar" transform="translate(494.00000000000006,310)"><rect x="1" width="11.999999999999996" height="0"></rect></g><g class="bar" transform="translate(507.00000000000006,310)"><rect x="1" width="11.999999999999996" height="0"></rect></g><g class="axis axis--x" transform="translate(0,310)" fill="none" font-size="10" font-family="sans-serif" text-anchor="middle"><path class="domain" stroke="#000" d="M0.5,6V0.5H520.5V6"></path><g class="tick" opacity="1" transform="translate(0.5,0)"><line stroke="#000" y2="6"></line><text fill="#000" y="9" dy="0.71em">0.01</text></g><g class="tick" opacity="1" transform="translate(130.5,0)"><line stroke="#000" y2="6"></line><text fill="#000" y="9" dy="0.71em">1</text></g><g class="tick" opacity="1" transform="translate(260.5,0)"><line stroke="#000" y2="6"></line><text fill="#000" y="9" dy="0.71em">100</text></g><g class="tick" opacity="1" transform="translate(390.5,0)"><line stroke="#000" y2="6"></line><text fill="#000" y="9" dy="0.71em">10000</text></g><g class="tick" opacity="1" transform="translate(520.5,0)"><line stroke="#000" y2="6"></line><text fill="#000" y="9" dy="0.71em"></text></g></g><g class="axis axis--y" fill="none" font-size="10" font-family="sans-serif" text-anchor="end"><path class="domain" stroke="#000" d="M-6,310.5H0.5V0.5H-6"></path><g class="tick" opacity="1" transform="translate(0,310.5)"><line stroke="#000" x2="-6"></line><text fill="#000" x="-9" dy="0.32em">0</text></g><g class="tick" opacity="1" transform="translate(0,271.55527638190955)"><line stroke="#000" x2="-6"></line><text fill="#000" x="-9" dy="0.32em">50</text></g><g class="tick" opacity="1" transform="translate(0,232.6105527638191)"><line stroke="#000" x2="-6"></line><text fill="#000" x="-9" dy="0.32em">100</text></g><g class="tick" opacity="1" transform="translate(0,193.66582914572865)"><line stroke="#000" x2="-6"></line><text fill="#000" x="-9" dy="0.32em">150</text></g><g class="tick" opacity="1" transform="translate(0,154.7211055276382)"><line stroke="#000" x2="-6"></line><text fill="#000" x="-9" dy="0.32em">200</text></g><g class="tick" opacity="1" transform="translate(0,115.77638190954772)"><line stroke="#000" x2="-6"></line><text fill="#000" x="-9" dy="0.32em">250</text></g><g class="tick" opacity="1" transform="translate(0,76.83165829145727)"><line stroke="#000" x2="-6"></line><text fill="#000" x="-9" dy="0.32em">300</text></g><g class="tick" opacity="1" transform="translate(0,37.88693467336685)"><line stroke="#000" x2="-6"></line><text fill="#000" x="-9" dy="0.32em">350</text></g></g></g></svg>