<svg xmlns="http://www.w3.org/2000/svg" width="600" height="350"><defs><style type="text/css"><![CDATA[ 
.bar rect {
  fill-opacity: 0;
  stroke:       black;
  stroke-width: 0.5;
}

.highlight rect {
  fill:       red;
  fill-opacity: 1;
}
.axis path,
.axis line {
  fill: none;
  stroke: #000;
  shape-rendering: crispEdges;
}
path {
    stroke: red;
    fill: none;
}

line {
    stroke: red;
}

path.marker {
    fill: red;
}
 ]]></style></defs><g transform="translate(50,10)"><g class="bar" transform="translate(0,297.4566473988439)"><rect x="1" width="11.999999999999996" height="12.543352601156073"></rect></g><g class="bar" transform="translate(12.999999999999996,288.4971098265896)"><rect x="1" width="11.999999999999996" height="21.50289017341038"></rect></g><g class="bar" transform="translate(25.999999999999993,289.09441233140655)"><rect x="1" width="11.999999999999996" height="20.905587668593455"></rect></g><g class="bar" transform="translate(39.00000000000001,243.10211946050094)"><rect x="1" width="11.999999999999996" height="66.89788053949906"></rect></g><g class="bar" transform="translate(52,250.26974951830442)"><rect x="1" width="11.999999999999996" height="59.73025048169558"></rect></g><g class="bar" transform="translate(65,209.65317919075144)"><rect x="1" width="11.999999999999996" height="100.34682080924856"></rect></g><g class="bar" transform="translate(78.00000000000001,192.33140655105973)"><rect x="1" width="11.999999999999996" height="117.66859344894027"></rect></g><g class="bar" transform="translate(91.00000000000001,174.41233140655106)"><rect x="1" width="11.999999999999996" height="135.58766859344894"></rect></g><g class="bar" transform="translate(104,140.96339113680156)"><rect x="1" width="11.999999999999996" height="169.03660886319844"></rect></g><g class="bar" transform="translate(117,112.89017341040463)"><rect x="1" width="11.999999999999996" height="197.10982658959537"></rect></g><g class="bar" transform="translate(130,83.62235067437379)"><rect x="1" width="11.999999999999996" height="226.3776493256262"></rect></g><g class="bar" transform="translate(143,84.21965317919077)"><rect x="1" width="11.999999999999996" height="225.78034682080923"></rect></g><g class="bar" transform="translate(156.00000000000003,53.15992292870908)"><rect x="1" width="11.999999999999996" height="256.8400770712909"></rect></g><g class="bar" transform="translate(169,29.267822736030837)"><rect x="1" width="11.999999999999996" height="280.73217726396916"></rect></g><g class="bar" transform="translate(182.00000000000003,10.75144508670519)"><rect x="1" width="11.999999999999996" height="299.2485549132948"></rect></g><g class="bar" transform="translate(195,11.946050096339093)"><rect x="1" width="11.999999999999996" height="298.0539499036609"></rect></g><g class="bar" transform="translate(208,2.389210019267807)"><rect x="1" width="11.999999999999996" height="307.6107899807322"></rect></g><g class="bar" transform="translate(221.00000000000003,0)"><rect x="1" width="11.999999999999996" height="310"></rect></g><g class="bar" transform="translate(234,12.543352601156073)"><rect x="1" width="11.999999999999996" height="297.4566473988439"></rect></g><g class="bar" transform="translate(247.00000000000003,27.475915221579953)"><rect x="1" width="11.999999999999996" height="282.52408477842005"></rect></g><g class="bar" transform="translate(260,64.50867052023122)"><rect x="1" width="11.999999999999996" height="245.49132947976878"></rect></g><g class="bar" transform="translate(273,116.47398843930634)"><rect x="1" width="11.999999999999996" height="193.52601156069366"></rect></g><g class="bar" transform="translate(286,159.47976878612718)"><rect x="1" width="11.999999999999996" height="150.52023121387282"></rect></g><g class="bar" transform="translate(299.00000000000006,200.6936416184971)"><rect x="1" width="11.999999999999996" height="109.30635838150289"></rect></g><g class="bar" transform="translate(312.00000000000006,203.6801541425819)"><rect x="1" width="11.999999999999996" height="106.3198458574181"></rect></g><g class="bar" transform="translate(325,244.89402697495183)"><rect x="1" width="11.999999999999996" height="65.10597302504817"></rect></g><g class="bar" transform="translate(338,268.78612716763007)"><rect x="1" width="11.999999999999996" height="41.21387283236993"></rect></g><g class="bar" transform="translate(351,290.88631984585743)"><rect x="1" width="11.999999999999996" height="19.11368015414257"></rect></g><g class="bar" transform="translate(364.00000000000006,304.6242774566474)"><rect x="1" width="11.999999999999996" height="5.375722543352595"></rect></g><g class="bar" transform="translate(377.00000000000006,305.8188824662813)"><rect x="1" width="11.999999999999996" height="4.181117533718691"></rect></g><g class="bar" transform="translate(390,310)"><rect x="1" width="11.999999999999996" height="0"></rect></g><g class="bar" transform="translate(403,310)"><rect x="1" width="11.999999999999996" height="0"></rect></g><g class="bar" transform="translate(416,310)"><rect x="1" width="11.999999999999996" height="0"></rect></g><g class="bar" transform="translate(429.00000000000006,310)"><rect x="1" width="11.999999999999996" height="0"></rect></g><g class="bar" transform="translate(442.00000000000006,310)"><rect x="1" width="11.999999999999996" height="0"></rect></g><g class="bar" transform="translate(455,310)"><rect x="1" width="11.999999999999996" height="0"></rect></g><g class="bar" transform="translate(468,310)"><rect x="1" width="11.999999999999996" height="0"></rect></g><g class="bar" transform="translate(481,310)"><rect x="1" width="11.999999999999996" height="0"></rect></g><g class="bar" transform="translate(494.00000000000006,310)"><rect x="1" width="11.999999999999996" height="0"></rect></g><g class="bar" transform="translate(507.00000000000006,310)"><rect x="1" width="11.999999999999996" height="0"></rect></g><g class="axis axis--x" transform="translate(0,310)" fill="none" font-size="10" font-family="sans-serif" text-anchor="middle"><path class="domain" stroke="#000" d="M0.5,6V0.5H520.5V6"></path><g class="tick" opacity="1" transform="translate(0.5,0)"><line stroke="#000" y2="6"></line><text fill="#000" y="9" dy="0.71em">0.01</text></g><g class="tick" opacity="1" transform="translate(130.5,0)"><line stroke="#000" y2="6"></line><text fill="#000" y="9" dy="0.71em">1</text></g><g class="tick" opacity="1" transform="translate(260.5,0)"><line stroke="#000" y2="6"></line><text fill="#000" y="9" dy="0.71em">100</text></g><g class="tick" opacity="1" transform="translate(390.5,0)"><line stroke="#000" y2="6"></line><text fill="#000" y="9" dy="0.71em">10000</text></g><g class="tick" opacity="1" transform="translate(520.5,0)"><line stroke="#000" y2="6"></line><text fill="#000" y="9" dy="0.71em"></text></g></g><g class="axis axis--y" fill="none" font-size="10" font-family="sans-serif" text-anchor="end"><path class="domain" stroke="#000" d="M-6,310.5H0.5V0.5H-6"></path><g class="tick" opacity="1" transform="translate(0,310.5)"><line stroke="#000" x2="-6"></line><text fill="#000" x="-9" dy="0.32em">0</text></g><g class="tick" opacity="1" transform="translate(0,280.63487475915224)"><line stroke="#000" x2="-6"></line><text fill="#000" x="-9" dy="0.32em">50</text></g><g class="tick" opacity="1" transform="translate(0,250.76974951830442)"><line stroke="#000" x2="-6"></line><text fill="#000" x="-9" dy="0.32em">100</text></g><g class="tick" opacity="1" transform="translate(0,220.90462427745663)"><line stroke="#000" x2="-6"></line><text fill="#000" x="-9" dy="0.32em">150</text></g><g class="tick" opacity="1" transform="translate(0,191.03949903660885)"><line stroke="#000" x2="-6"></line><text fill="#000" x="-9" dy="0.32em">200</text></g><g class="tick" opacity="1" transform="translate(0,161.17437379576108)"><line stroke="#000" x2="-6"></line><text fill="#000" x="-9" dy="0.32em">250</text></g><g class="tick" opacity="1" transform="translate(0,131.30924855491327)"><line stroke="#000" x2="-6"></line><text fill="#000" x="-9" dy="0.32em">300</text></g><g class="tick" opacity="1" transform="translate(0,101.44412331406551)"><line stroke="#000" x2="-6"></line><text fill="#000" x="-9" dy="0.32em">350</text></g><g class="tick" opacity="1" transform="translate(0,71.57899807321772)"><line stroke="#000" x2="-6"></line><text fill="#000" x="-9" dy="0.32em">400</text></g><g class="tick" opacity="1" transform="translate(0,41.71387283236993)"><line stroke="#000" x2="-6"></line><text fill="#000" x="-9" dy="0.32em">450</text></g><g class="tick" opacity="1" transform="translate(0,11.84874759152217)"><line stroke="#000" x2="-6"></line><text fill="#000" x="-9" dy="0.32em">500</text></g></g></g></svg>