<svg xmlns="http://www.w3.org/2000/svg" width="600" height="350"><defs><style type="text/css"><![CDATA[ 
.bar rect {
  fill-opacity: 0;
  stroke:       black;
  stroke-width: 0.5;
}

.highlight rect {
  fill:       red;
  fill-opacity: 1;
}
.axis path,
.axis line {
  fill: none;
  stroke: #000;
  shape-rendering: crispEdges;
}
path {
    stroke: red;
    fill: none;
}

line {
    stroke: red;
}

path.marker {
    fill: red;
}
 ]]></style></defs><g transform="translate(50,10)"><g class="bar" transform="translate(0,310)"><rect x="1" width="11.999999999999996" height="0"></rect></g><g class="bar" transform="translate(12.999999999999996,310)"><rect x="1" width="11.999999999999996" height="0"></rect></g><g class="bar" transform="translate(25.999999999999993,310)"><rect x="1" width="11.999999999999996" height="0"></rect></g><g class="bar" transform="translate(39.00000000000001,310)"><rect x="1" width="11.999999999999996" height="0"></rect></g><g class="bar" transform="translate(52,310)"><rect x="1" width="11.999999999999996" height="0"></rect></g><g class="bar" transform="translate(65,310)"><rect x="1" width="11.999999999999996" height="0"></rect></g><g class="bar" transform="translate(78.00000000000001,310)"><rect x="1" width="11.999999999999996" height="0"></rect></g><g class="bar" transform="translate(91.00000000000001,310)"><rect x="1" width="11.999999999999996" height="0"></rect></g><g class="bar" transform="translate(104,310)"><rect x="1" width="11.999999999999996" height="0"></rect></g><g class="bar" transform="translate(117,310)"><rect x="1" width="11.999999999999996" height="0"></rect></g><g class="bar" transform="translate(130,310)"><rect x="1" width="11.999999999999996" height="0"></rect></g><g class="bar" transform="translate(143,310)"><rect x="1" width="11.999999999999996" height="0"></rect></g><g class="bar" transform="translate(156.00000000000003,310)"><rect x="1" width="11.999999999999996" height="0"></rect></g><g class="bar" transform="translate(169,307.39495798319325)"><rect x="1" width="11.999999999999996" height="2.605042016806749"></rect></g><g class="bar" transform="translate(182.00000000000003,302.1848739495798)"><rect x="1" width="11.999999999999996" height="7.81512605042019"></rect></g><g class="bar" transform="translate(195,296.97478991596637)"><rect x="1" width="11.999999999999996" height="13.025210084033631"></rect></g><g class="bar" transform="translate(208,278.73949579831935)"><rect x="1" width="11.999999999999996" height="31.260504201680646"></rect></g><g class="bar" transform="translate(221.00000000000003,263.109243697479)"><rect x="1" width="11.999999999999996" height="46.89075630252103"></rect></g><g class="bar" transform="translate(234,158.9075630252101)"><rect x="1" width="11.999999999999996" height="151.0924369747899"></rect></g><g class="bar" transform="translate(247.00000000000003,119.83193277310923)"><rect x="1" width="11.999999999999996" height="190.16806722689077"></rect></g><g class="bar" transform="translate(260,109.41176470588235)"><rect x="1" width="11.999999999999996" height="200.58823529411765"></rect></g><g class="bar" transform="translate(273,0)"><rect x="1" width="11.999999999999996" height="310"></rect></g><g class="bar" transform="translate(286,75.54621848739495)"><rect x="1" width="11.999999999999996" height="234.45378151260505"></rect></g><g class="bar" transform="translate(299.00000000000006,65.12605042016807)"><rect x="1" width="11.999999999999996" height="244.87394957983193"></rect></g><g class="bar" transform="translate(312.00000000000006,106.80672268907563)"><rect x="1" width="11.999999999999996" height="203.19327731092437"></rect></g><g class="bar" transform="translate(325,106.80672268907563)"><rect x="1" width="11.999999999999996" height="203.19327731092437"></rect></g><g class="bar" transform="translate(338,226.6386554621849)"><rect x="1" width="11.999999999999996" height="83.36134453781511"></rect></g><g class="bar" transform="translate(351,255.2941176470588)"><rect x="1" width="11.999999999999996" height="54.70588235294119"></rect></g><g class="bar" transform="translate(364.00000000000006,278.73949579831935)"><rect x="1" width="11.999999999999996" height="31.260504201680646"></rect></g><g class="bar" transform="translate(377.00000000000006,278.73949579831935)"><rect x="1" width="11.999999999999996" height="31.260504201680646"></rect></g><g class="bar" transform="translate(390,291.7647058823529)"><rect x="1" width="11.999999999999996" height="18.235294117647072"></rect></g><g class="bar" transform="translate(403,302.1848739495798)"><rect x="1" width="11.999999999999996" height="7.81512605042019"></rect></g><g class="bar" transform="translate(416,299.5798319327731)"><rect x="1" width="11.999999999999996" height="10.420168067226882"></rect></g><g class="bar" transform="translate(429.00000000000006,302.1848739495798)"><rect x="1" width="11.999999999999996" height="7.81512605042019"></rect></g><g class="bar" transform="translate(442.00000000000006,310)"><rect x="1" width="11.999999999999996" height="0"></rect></g><g class="bar" transform="translate(455,310)"><rect x="1" width="11.999999999999996" height="0"></rect></g><g class="bar" transform="translate(468,310)"><rect x="1" width="11.999999999999996" height="0"></rect></g><g class="bar" transform="translate(481,310)"><rect x="1" width="11.999999999999996" height="0"></rect></g><g class="bar" transform="translate(494.00000000000006,310)"><rect x="1" width="11.999999999999996" height="0"></rect></g><g class="bar" transform="translate(507.00000000000006,310)"><rect x="1" width="11.999999999999996" height="0"></rect></g><g class="axis axis--x" transform="translate(0,310)" fill="none" font-size="10" font-family="sans-serif" text-anchor="middle"><path class="domain" stroke="#000" d="M0.5,6V0.5H520.5V6"></path><g class="tick" opacity="1" transform="translate(0.5,0)"><line stroke="#000" y2="6"></line><text fill="#000" y="9" dy="0.71em">0.01</text></g><g class="tick" opacity="1" transform="translate(130.5,0)"><line stroke="#000" y2="6"></line><text fill="#000" y="9" dy="0.71em">1</text></g><g class="tick" opacity="1" transform="translate(260.5,0)"><line stroke="#000" y2="6"></line><text fill="#000" y="9" dy="0.71em">100</text></g><g class="tick" opacity="1" transform="translate(390.5,0)"><line stroke="#000" y2="6"></line><text fill="#000" y="9" dy="0.71em">10000</text></g><g class="tick" opacity="1" transform="translate(520.5,0)"><line stroke="#000" y2="6"></line><text fill="#000" y="9" dy="0.71em"></text></g></g><g class="axis axis--y" fill="none" font-size="10" font-family="sans-serif" text-anchor="end"><path class="domain" stroke="#000" d="M-6,310.5H0.5V0.5H-6"></path><g class="tick" opacity="1" transform="translate(0,310.5)"><line stroke="#000" x2="-6"></line><text fill="#000" x="-9" dy="0.32em">0</text></g><g class="tick" opacity="1" transform="translate(0,284.4495798319328)"><line stroke="#000" x2="-6"></line><text fill="#000" x="-9" dy="0.32em">10</text></g><g class="tick" opacity="1" transform="translate(0,258.39915966386553)"><line stroke="#000" x2="-6"></line><text fill="#000" x="-9" dy="0.32em">20</text></g><g class="tick" opacity="1" transform="translate(0,232.34873949579833)"><line stroke="#000" x2="-6"></line><text fill="#000" x="-9" dy="0.32em">30</text></g><g class="tick" opacity="1" transform="translate(0,206.29831932773106)"><line stroke="#000" x2="-6"></line><text fill="#000" x="-9" dy="0.32em">40</text></g><g class="tick" opacity="1" transform="translate(0,180.24789915966386)"><line stroke="#000" x2="-6"></line><text fill="#000" x="-9" dy="0.32em">50</text></g><g class="tick" opacity="1" transform="translate(0,154.19747899159665)"><line stroke="#000" x2="-6"></line><text fill="#000" x="-9" dy="0.32em">60</text></g><g class="tick" opacity="1" transform="translate(0,128.1470588235294)"><line stroke="#000" x2="-6"></line><text fill="#000" x="-9" dy="0.32em">70</text></g><g class="tick" opacity="1" transform="translate(0,102.09663865546216)"><line stroke="#000" x2="-6"></line><text fill="#000" x="-9" dy="0.32em">80</text></g><g class="tick" opacity="1" transform="translate(0,76.04621848739495)"><line stroke="#000" x2="-6"></line><text fill="#000" x="-9" dy="0.32em">90</text></g><g class="tick" opacity="1" transform="translate(0,49.99579831932772)"><line stroke="#000" x2="-6"></line><text fill="#000" x="-9" dy="0.32em">100</text></g><g class="tick" opacity="1" transform="translate(0,23.945378151260513)"><line stroke="#000" x2="-6"></line><text fill="#000" x="-9" dy="0.32em">110</text></g></g></g></svg>