<svg xmlns="http://www.w3.org/2000/svg" width="280" height="160"><defs><style type="text/css"><![CDATA[ 
.bar rect {
  fill-opacity: 0;
  stroke:       black;
  stroke-width: 0.5;
}

.highlight rect {
  fill:       red;
  fill-opacity: 1;
}
.axis path,
.axis line {
  fill: none;
  stroke: #000;
  shape-rendering: crispEdges;
}
 ]]></style></defs><g transform="translate(50,10)"><g class="bar" transform="translate(0,119.64250248262165)"><rect x="1" width="11.5" height="0.35749751737834856"></rect></g><g class="bar" transform="translate(12.5,114.63753723932473)"><rect x="1" width="11.5" height="5.362462760675271"></rect></g><g class="bar" transform="translate(25,98.07348560079444)"><rect x="1" width="11.5" height="21.92651439920556"></rect></g><g class="bar" transform="translate(37.5,64.5878848063555)"><rect x="1" width="11.5" height="55.412115193644496"></rect></g><g class="bar" transform="translate(50,34.319761668321746)"><rect x="1" width="11.5" height="85.68023833167825"></rect></g><g class="bar" transform="translate(62.5,0)"><rect x="1" width="11.5" height="120"></rect></g><g class="bar" transform="translate(75,0.9533267130089342)"><rect x="1" width="11.5" height="119.04667328699107"></rect></g><g class="bar" transform="translate(87.5,21.68818272095332)"><rect x="1" width="11.5" height="98.31181727904668"></rect></g><g class="bar" transform="translate(100,58.62959285004965)"><rect x="1" width="11.5" height="61.37040714995035"></rect></g><g class="bar" transform="translate(112.5,82.22442899702085)"><rect x="1" width="11.5" height="37.77557100297915"></rect></g><g class="bar" transform="translate(125,104.0317775571003)"><rect x="1" width="11.5" height="15.968222442899702"></rect></g><g class="bar" transform="translate(137.5,114.04170804369414)"><rect x="1" width="11.5" height="5.958291956305857"></rect></g><g class="bar" transform="translate(150,119.2850049652433)"><rect x="1" width="11.5" height="0.7149950347566971"></rect></g><g class="bar" transform="translate(162.5,119.88083416087389)"><rect x="1" width="11.5" height="0.11916583912611145"></rect></g><g class="bar" transform="translate(175,120)"><rect x="1" width="11.5" height="0"></rect></g><g class="bar" transform="translate(187.5,120)"><rect x="1" width="11.5" height="0"></rect></g></g></svg>