<svg xmlns="http://www.w3.org/2000/svg" width="280" height="160"><defs><style type="text/css"><![CDATA[ 
.bar rect {
  fill-opacity: 0;
  stroke:       black;
  stroke-width: 0.5;
}

.highlight rect {
  fill:       red;
  fill-opacity: 1;
}
.axis path,
.axis line {
  fill: none;
  stroke: #000;
  shape-rendering: crispEdges;
}
path {
    stroke: red;
    fill: none;
}

line {
    stroke: red;
}

path.marker {
    fill: red;
}
 ]]></style></defs><g transform="translate(50,10)"><g class="bar" transform="translate(0,120)"><rect x="1" width="11.5" height="0"></rect></g><g class="bar" transform="translate(12.5,120)"><rect x="1" width="11.5" height="0"></rect></g><g class="bar" transform="translate(25,114.58167330677291)"><rect x="1" width="11.5" height="5.418326693227087"></rect></g><g class="bar" transform="translate(37.5,102.47011952191235)"><rect x="1" width="11.5" height="17.529880478087648"></rect></g><g class="bar" transform="translate(50,105.65737051792829)"><rect x="1" width="11.5" height="14.342629482071715"></rect></g><g class="bar" transform="translate(62.5,71.87250996015936)"><rect x="1" width="11.5" height="48.12749003984064"></rect></g><g class="bar" transform="translate(75,0)"><rect x="1" width="11.5" height="120"></rect></g><g class="bar" transform="translate(87.5,19.442231075697208)"><rect x="1" width="11.5" height="100.55776892430279"></rect></g><g class="bar" transform="translate(100,74.26294820717132)"><rect x="1" width="11.5" height="45.73705179282868"></rect></g><g class="bar" transform="translate(112.5,99.44223107569721)"><rect x="1" width="11.5" height="20.557768924302792"></rect></g><g class="bar" transform="translate(125,109.16334661354581)"><rect x="1" width="11.5" height="10.836653386454188"></rect></g><g class="bar" transform="translate(137.5,113.14741035856574)"><rect x="1" width="11.5" height="6.852589641434264"></rect></g><g class="bar" transform="translate(150,118.56573705179282)"><rect x="1" width="11.5" height="1.4342629482071771"></rect></g><g class="bar" transform="translate(162.5,119.36254980079681)"><rect x="1" width="11.5" height="0.6374501992031867"></rect></g><g class="bar" transform="translate(175,119.8406374501992)"><rect x="1" width="11.5" height="0.15936254980080378"></rect></g><g class="bar" transform="translate(187.5,120)"><rect x="1" width="11.5" height="0"></rect></g></g></svg>