<svg xmlns="http://www.w3.org/2000/svg" width="600" height="350"><defs><style type="text/css"><![CDATA[ 
.bar rect {
  fill-opacity: 0;
  stroke:       black;
  stroke-width: 0.5;
}

.highlight rect {
  fill:       red;
  fill-opacity: 1;
}
.axis path,
.axis line {
  fill: none;
  stroke: #000;
  shape-rendering: crispEdges;
}
path {
    stroke: red;
    fill: none;
}

line {
    stroke: red;
}

path.marker {
    fill: red;
}
 ]]></style></defs><g transform="translate(50,10)"><g class="bar" transform="translate(0,310)"><rect x="1" width="11.999999999999996" height="0"></rect></g><g class="bar" transform="translate(12.999999999999996,310)"><rect x="1" width="11.999999999999996" height="0"></rect></g><g class="bar" transform="translate(25.999999999999993,310)"><rect x="1" width="11.999999999999996" height="0"></rect></g><g class="bar" transform="translate(39.00000000000001,310)"><rect x="1" width="11.999999999999996" height="0"></rect></g><g class="bar" transform="translate(52,310)"><rect x="1" width="11.999999999999996" height="0"></rect></g><g class="bar" transform="translate(65,310)"><rect x="1" width="11.999999999999996" height="0"></rect></g><g class="bar" transform="translate(78.00000000000001,310)"><rect x="1" width="11.999999999999996" height="0"></rect></g><g class="bar" transform="translate(91.00000000000001,264.3558282208589)"><rect x="1" width="11.999999999999996" height="45.64417177914112"></rect></g><g class="bar" transform="translate(104,270.06134969325154)"><rect x="1" width="11.999999999999996" height="39.93865030674846"></rect></g><g class="bar" transform="translate(117,258.6503067484663)"><rect x="1" width="11.999999999999996" height="51.34969325153372"></rect></g><g class="bar" transform="translate(130,264.3558282208589)"><rect x="1" width="11.999999999999996" height="45.64417177914112"></rect></g><g class="bar" transform="translate(143,285.2760736196319)"><rect x="1" width="11.999999999999996" height="24.723926380368084"></rect></g><g class="bar" transform="translate(156.00000000000003,266.25766871165644)"><rect x="1" width="11.999999999999996" height="43.742331288343564"></rect></g><g class="bar" transform="translate(169,214.9079754601227)"><rect x="1" width="11.999999999999996" height="95.09202453987729"></rect></g><g class="bar" transform="translate(182.00000000000003,146.44171779141107)"><rect x="1" width="11.999999999999996" height="163.55828220858893"></rect></g><g class="bar" transform="translate(195,57.05521472392638)"><rect x="1" width="11.999999999999996" height="252.94478527607362"></rect></g><g class="bar" transform="translate(208,0)"><rect x="1" width="11.999999999999996" height="310"></rect></g><g class="bar" transform="translate(221.00000000000003,18.067484662576703)"><rect x="1" width="11.999999999999996" height="291.9325153374233"></rect></g><g class="bar" transform="translate(234,51.34969325153378)"><rect x="1" width="11.999999999999996" height="258.6503067484662"></rect></g><g class="bar" transform="translate(247.00000000000003,107.45398773006136)"><rect x="1" width="11.999999999999996" height="202.54601226993864"></rect></g><g class="bar" transform="translate(260,161.6564417177914)"><rect x="1" width="11.999999999999996" height="148.3435582822086"></rect></g><g class="bar" transform="translate(273,221.5644171779141)"><rect x="1" width="11.999999999999996" height="88.4355828220859"></rect></g><g class="bar" transform="translate(286,248.19018404907976)"><rect x="1" width="11.999999999999996" height="61.80981595092024"></rect></g><g class="bar" transform="translate(299.00000000000006,246.2883435582822)"><rect x="1" width="11.999999999999996" height="63.71165644171779"></rect></g><g class="bar" transform="translate(312.00000000000006,276.7177914110429)"><rect x="1" width="11.999999999999996" height="33.282208588957076"></rect></g><g class="bar" transform="translate(325,280.52147239263803)"><rect x="1" width="11.999999999999996" height="29.47852760736197"></rect></g><g class="bar" transform="translate(338,282.4233128834356)"><rect x="1" width="11.999999999999996" height="27.576687116564415"></rect></g><g class="bar" transform="translate(351,292.8834355828221)"><rect x="1" width="11.999999999999996" height="17.116564417177926"></rect></g><g class="bar" transform="translate(364.00000000000006,292.8834355828221)"><rect x="1" width="11.999999999999996" height="17.116564417177926"></rect></g><g class="bar" transform="translate(377.00000000000006,295.7361963190184)"><rect x="1" width="11.999999999999996" height="14.263803680981596"></rect></g><g class="bar" transform="translate(390,305.2453987730061)"><rect x="1" width="11.999999999999996" height="4.754601226993884"></rect></g><g class="bar" transform="translate(403,306.1963190184049)"><rect x="1" width="11.999999999999996" height="3.8036809815951074"></rect></g><g class="bar" transform="translate(416,309.0490797546012)"><rect x="1" width="11.999999999999996" height="0.9509202453987768"></rect></g><g class="bar" transform="translate(429.00000000000006,307.14723926380367)"><rect x="1" width="11.999999999999996" height="2.8527607361963305"></rect></g><g class="bar" transform="translate(442.00000000000006,310)"><rect x="1" width="11.999999999999996" height="0"></rect></g><g class="bar" transform="translate(455,309.0490797546012)"><rect x="1" width="11.999999999999996" height="0.9509202453987768"></rect></g><g class="bar" transform="translate(468,310)"><rect x="1" width="11.999999999999996" height="0"></rect></g><g class="bar" transform="translate(481,310)"><rect x="1" width="11.999999999999996" height="0"></rect></g><g class="bar" transform="translate(494.00000000000006,310)"><rect x="1" width="11.999999999999996" height="0"></rect></g><g class="bar" transform="translate(507.00000000000006,310)"><rect x="1" width="11.999999999999996" height="0"></rect></g><g class="axis axis--x" transform="translate(0,310)" fill="none" font-size="10" font-family="sans-serif" text-anchor="middle"><path class="domain" stroke="#000" d="M0.5,6V0.5H520.5V6"></path><g class="tick" opacity="1" transform="translate(0.5,0)"><line stroke="#000" y2="6"></line><text fill="#000" y="9" dy="0.71em">0.01</text></g><g class="tick" opacity="1" transform="translate(130.5,0)"><line stroke="#000" y2="6"></line><text fill="#000" y="9" dy="0.71em">1</text></g><g class="tick" opacity="1" transform="translate(260.5,0)"><line stroke="#000" y2="6"></line><text fill="#000" y="9" dy="0.71em">100</text></g><g class="tick" opacity="1" transform="translate(390.5,0)"><line stroke="#000" y2="6"></line><text fill="#000" y="9" dy="0.71em">10000</text></g><g class="tick" opacity="1" transform="translate(520.5,0)"><line stroke="#000" y2="6"></line><text fill="#000" y="9" dy="0.71em"></text></g></g><g class="axis axis--y" fill="none" font-size="10" font-family="sans-serif" text-anchor="end"><path class="domain" stroke="#000" d="M-6,310.5H0.5V0.5H-6"></path><g class="tick" opacity="1" transform="translate(0,310.5)"><line stroke="#000" x2="-6"></line><text fill="#000" x="-9" dy="0.32em">0</text></g><g class="tick" opacity="1" transform="translate(0,262.9539877300613)"><line stroke="#000" x2="-6"></line><text fill="#000" x="-9" dy="0.32em">50</text></g><g class="tick" opacity="1" transform="translate(0,215.4079754601227)"><line stroke="#000" x2="-6"></line><text fill="#000" x="-9" dy="0.32em">100</text></g><g class="tick" opacity="1" transform="translate(0,167.86196319018404)"><line stroke="#000" x2="-6"></line><text fill="#000" x="-9" dy="0.32em">150</text></g><g class="tick" opacity="1" transform="translate(0,120.3159509202454)"><line stroke="#000" x2="-6"></line><text fill="#000" x="-9" dy="0.32em">200</text></g><g class="tick" opacity="1" transform="translate(0,72.76993865030676)"><line stroke="#000" x2="-6"></line><text fill="#000" x="-9" dy="0.32em">250</text></g><g class="tick" opacity="1" transform="translate(0,25.223926380368084)"><line stroke="#000" x2="-6"></line><text fill="#000" x="-9" dy="0.32em">300</text></g></g></g></svg>