<svg xmlns="http://www.w3.org/2000/svg" width="600" height="350"><defs><style type="text/css"><![CDATA[ 
.bar rect {
  fill-opacity: 0;
  stroke:       black;
  stroke-width: 0.5;
}

.highlight rect {
  fill:       red;
  fill-opacity: 1;
}
.axis path,
.axis line {
  fill: none;
  stroke: #000;
  shape-rendering: crispEdges;
}
 ]]></style></defs><g transform="translate(50,10)"><g class="bar" transform="translate(0,310)"><rect x="1" width="11.999999999999996" height="0"></rect></g><g class="bar" transform="translate(12.999999999999996,309.2889908256881)"><rect x="1" width="11.999999999999996" height="0.7110091743119256"></rect></g><g class="bar" transform="translate(25.999999999999993,304.3119266055046)"><rect x="1" width="11.999999999999996" height="5.6880733944954045"></rect></g><g class="bar" transform="translate(39.00000000000001,304.3119266055046)"><rect x="1" width="11.999999999999996" height="5.6880733944954045"></rect></g><g class="bar" transform="translate(52,296.4908256880734)"><rect x="1" width="11.999999999999996" height="13.509174311926586"></rect></g><g class="bar" transform="translate(65,296.4908256880734)"><rect x="1" width="11.999999999999996" height="13.509174311926586"></rect></g><g class="bar" transform="translate(78.00000000000001,278.7155963302752)"><rect x="1" width="11.999999999999996" height="31.28440366972478"></rect></g><g class="bar" transform="translate(91.00000000000001,236.05504587155963)"><rect x="1" width="11.999999999999996" height="73.94495412844037"></rect></g><g class="bar" transform="translate(104,231.07798165137615)"><rect x="1" width="11.999999999999996" height="78.92201834862385"></rect></g><g class="bar" transform="translate(117,186.9954128440367)"><rect x="1" width="11.999999999999996" height="123.00458715596329"></rect></g><g class="bar" transform="translate(130,140.06880733944953)"><rect x="1" width="11.999999999999996" height="169.93119266055047"></rect></g><g class="bar" transform="translate(143,94.56422018348624)"><rect x="1" width="11.999999999999996" height="215.43577981651376"></rect></g><g class="bar" transform="translate(156.00000000000003,39.10550458715596)"><rect x="1" width="11.999999999999996" height="270.89449541284404"></rect></g><g class="bar" transform="translate(169,57.591743119266084)"><rect x="1" width="11.999999999999996" height="252.40825688073392"></rect></g><g class="bar" transform="translate(182.00000000000003,11.376146788990809)"><rect x="1" width="11.999999999999996" height="298.6238532110092"></rect></g><g class="bar" transform="translate(195,0)"><rect x="1" width="11.999999999999996" height="310"></rect></g><g class="bar" transform="translate(208,9.954128440366958)"><rect x="1" width="11.999999999999996" height="300.04587155963304"></rect></g><g class="bar" transform="translate(221.00000000000003,7.110091743119256)"><rect x="1" width="11.999999999999996" height="302.88990825688074"></rect></g><g class="bar" transform="translate(234,38.39449541284404)"><rect x="1" width="11.999999999999996" height="271.60550458715596"></rect></g><g class="bar" transform="translate(247.00000000000003,76.07798165137615)"><rect x="1" width="11.999999999999996" height="233.92201834862385"></rect></g><g class="bar" transform="translate(260,84.61009174311926)"><rect x="1" width="11.999999999999996" height="225.38990825688074"></rect></g><g class="bar" transform="translate(273,118.73853211009174)"><rect x="1" width="11.999999999999996" height="191.26146788990826"></rect></g><g class="bar" transform="translate(286,151.44495412844037)"><rect x="1" width="11.999999999999996" height="158.55504587155963"></rect></g><g class="bar" transform="translate(299.00000000000006,196.23853211009174)"><rect x="1" width="11.999999999999996" height="113.76146788990826"></rect></g><g class="bar" transform="translate(312.00000000000006,218.27981651376146)"><rect x="1" width="11.999999999999996" height="91.72018348623854"></rect></g><g class="bar" transform="translate(325,236.05504587155963)"><rect x="1" width="11.999999999999996" height="73.94495412844037"></rect></g><g class="bar" transform="translate(338,255.25229357798165)"><rect x="1" width="11.999999999999996" height="54.747706422018354"></rect></g><g class="bar" transform="translate(351,290.802752293578)"><rect x="1" width="11.999999999999996" height="19.19724770642199"></rect></g><g class="bar" transform="translate(364.00000000000006,298.6238532110092)"><rect x="1" width="11.999999999999996" height="11.376146788990809"></rect></g><g class="bar" transform="translate(377.00000000000006,301.4678899082569)"><rect x="1" width="11.999999999999996" height="8.532110091743107"></rect></g><g class="bar" transform="translate(390,307.8669724770642)"><rect x="1" width="11.999999999999996" height="2.1330275229357767"></rect></g><g class="bar" transform="translate(403,310)"><rect x="1" width="11.999999999999996" height="0"></rect></g><g class="bar" transform="translate(416,310)"><rect x="1" width="11.999999999999996" height="0"></rect></g><g class="bar" transform="translate(429.00000000000006,310)"><rect x="1" width="11.999999999999996" height="0"></rect></g><g class="bar" transform="translate(442.00000000000006,310)"><rect x="1" width="11.999999999999996" height="0"></rect></g><g class="bar" transform="translate(455,310)"><rect x="1" width="11.999999999999996" height="0"></rect></g><g class="bar" transform="translate(468,310)"><rect x="1" width="11.999999999999996" height="0"></rect></g><g class="bar" transform="translate(481,310)"><rect x="1" width="11.999999999999996" height="0"></rect></g><g class="bar" transform="translate(494.00000000000006,310)"><rect x="1" width="11.999999999999996" height="0"></rect></g><g class="bar" transform="translate(507.00000000000006,310)"><rect x="1" width="11.999999999999996" height="0"></rect></g><g class="axis axis--x" transform="translate(0,310)" fill="none" font-size="10" font-family="sans-serif" text-anchor="middle"><path class="domain" stroke="#000" d="M0.5,6V0.5H520.5V6"></path><g class="tick" opacity="1" transform="translate(0,0)"><line stroke="#000" y2="6" x1="0.5" x2="0.5"></line><text fill="#000" y="9" x="0.5" dy="0.71em">0.01</text></g><g class="tick" opacity="1" transform="translate(130,0)"><line stroke="#000" y2="6" x1="0.5" x2="0.5"></line><text fill="#000" y="9" x="0.5" dy="0.71em">1</text></g><g class="tick" opacity="1" transform="translate(260,0)"><line stroke="#000" y2="6" x1="0.5" x2="0.5"></line><text fill="#000" y="9" x="0.5" dy="0.71em">100</text></g><g class="tick" opacity="1" transform="translate(390,0)"><line stroke="#000" y2="6" x1="0.5" x2="0.5"></line><text fill="#000" y="9" x="0.5" dy="0.71em">10000</text></g><g class="tick" opacity="1" transform="translate(520,0)"><line stroke="#000" y2="6" x1="0.5" x2="0.5"></line><text fill="#000" y="9" x="0.5" dy="0.71em"></text></g></g><g class="axis axis--y" fill="none" font-size="10" font-family="sans-serif" text-anchor="end"><path class="domain" stroke="#000" d="M-6,310.5H0.5V0.5H-6"></path><g class="tick" opacity="1" transform="translate(0,310)"><line stroke="#000" x2="-6" y1="0.5" y2="0.5"></line><text fill="#000" x="-9" y="0.5" dy="0.32em">0</text></g><g class="tick" opacity="1" transform="translate(0,274.44954128440367)"><line stroke="#000" x2="-6" y1="0.5" y2="0.5"></line><text fill="#000" x="-9" y="0.5" dy="0.32em">50</text></g><g class="tick" opacity="1" transform="translate(0,238.89908256880733)"><line stroke="#000" x2="-6" y1="0.5" y2="0.5"></line><text fill="#000" x="-9" y="0.5" dy="0.32em">100</text></g><g class="tick" opacity="1" transform="translate(0,203.348623853211)"><line stroke="#000" x2="-6" y1="0.5" y2="0.5"></line><text fill="#000" x="-9" y="0.5" dy="0.32em">150</text></g><g class="tick" opacity="1" transform="translate(0,167.79816513761466)"><line stroke="#000" x2="-6" y1="0.5" y2="0.5"></line><text fill="#000" x="-9" y="0.5" dy="0.32em">200</text></g><g class="tick" opacity="1" transform="translate(0,132.24770642201835)"><line stroke="#000" x2="-6" y1="0.5" y2="0.5"></line><text fill="#000" x="-9" y="0.5" dy="0.32em">250</text></g><g class="tick" opacity="1" transform="translate(0,96.69724770642202)"><line stroke="#000" x2="-6" y1="0.5" y2="0.5"></line><text fill="#000" x="-9" y="0.5" dy="0.32em">300</text></g><g class="tick" opacity="1" transform="translate(0,61.14678899082571)"><line stroke="#000" x2="-6" y1="0.5" y2="0.5"></line><text fill="#000" x="-9" y="0.5" dy="0.32em">350</text></g><g class="tick" opacity="1" transform="translate(0,25.59633027522932)"><line stroke="#000" x2="-6" y1="0.5" y2="0.5"></line><text fill="#000" x="-9" y="0.5" dy="0.32em">400</text></g></g></g></svg>