<svg xmlns="http://www.w3.org/2000/svg" width="600" height="350"><defs><style type="text/css"><![CDATA[ 
.bar rect {
  fill-opacity: 0;
  stroke:       black;
  stroke-width: 0.5;
}

.highlight rect {
  fill:       red;
  fill-opacity: 1;
}
.axis path,
.axis line {
  fill: none;
  stroke: #000;
  shape-rendering: crispEdges;
}
path {
    stroke: red;
    fill: none;
}

line {
    stroke: red;
}

path.marker {
    fill: red;
}
 ]]></style></defs><g transform="translate(50,10)"><g class="bar" transform="translate(0,73.40619307832421)"><rect x="1" width="11.999999999999996" height="236.5938069216758"></rect></g><g class="bar" transform="translate(12.999999999999996,72.2768670309654)"><rect x="1" width="11.999999999999996" height="237.7231329690346"></rect></g><g class="bar" transform="translate(25.999999999999993,90.34608378870675)"><rect x="1" width="11.999999999999996" height="219.65391621129325"></rect></g><g class="bar" transform="translate(39.00000000000001,63.806921675774134)"><rect x="1" width="11.999999999999996" height="246.19307832422587"></rect></g><g class="bar" transform="translate(52,79.61748633879779)"><rect x="1" width="11.999999999999996" height="230.3825136612022"></rect></g><g class="bar" transform="translate(65,55.90163934426229)"><rect x="1" width="11.999999999999996" height="254.0983606557377"></rect></g><g class="bar" transform="translate(78.00000000000001,59.854280510018214)"><rect x="1" width="11.999999999999996" height="250.1457194899818"></rect></g><g class="bar" transform="translate(91.00000000000001,50.81967213114751)"><rect x="1" width="11.999999999999996" height="259.1803278688525"></rect></g><g class="bar" transform="translate(104,82.44080145719491)"><rect x="1" width="11.999999999999996" height="227.5591985428051"></rect></g><g class="bar" transform="translate(117,55.90163934426229)"><rect x="1" width="11.999999999999996" height="254.0983606557377"></rect></g><g class="bar" transform="translate(130,61.54826958105647)"><rect x="1" width="11.999999999999996" height="248.45173041894353"></rect></g><g class="bar" transform="translate(143,50.81967213114751)"><rect x="1" width="11.999999999999996" height="259.1803278688525"></rect></g><g class="bar" transform="translate(156.00000000000003,29.362477231329706)"><rect x="1" width="11.999999999999996" height="280.6375227686703"></rect></g><g class="bar" transform="translate(169,18.633879781420774)"><rect x="1" width="11.999999999999996" height="291.3661202185792"></rect></g><g class="bar" transform="translate(182.00000000000003,29.92714025500908)"><rect x="1" width="11.999999999999996" height="280.0728597449909"></rect></g><g class="bar" transform="translate(195,31.056466302367937)"><rect x="1" width="11.999999999999996" height="278.94353369763206"></rect></g><g class="bar" transform="translate(208,0)"><rect x="1" width="11.999999999999996" height="310"></rect></g><g class="bar" transform="translate(221.00000000000003,32.185792349726796)"><rect x="1" width="11.999999999999996" height="277.8142076502732"></rect></g><g class="bar" transform="translate(234,92.60473588342438)"><rect x="1" width="11.999999999999996" height="217.39526411657562"></rect></g><g class="bar" transform="translate(247.00000000000003,82.44080145719491)"><rect x="1" width="11.999999999999996" height="227.5591985428051"></rect></g><g class="bar" transform="translate(260,120.83788706739529)"><rect x="1" width="11.999999999999996" height="189.1621129326047"></rect></g><g class="bar" transform="translate(273,143.42440801457195)"><rect x="1" width="11.999999999999996" height="166.57559198542805"></rect></g><g class="bar" transform="translate(286,140.03642987249546)"><rect x="1" width="11.999999999999996" height="169.96357012750454"></rect></g><g class="bar" transform="translate(299.00000000000006,185.77413479052825)"><rect x="1" width="11.999999999999996" height="124.22586520947175"></rect></g><g class="bar" transform="translate(312.00000000000006,230.38251366120218)"><rect x="1" width="11.999999999999996" height="79.61748633879782"></rect></g><g class="bar" transform="translate(325,265.39162112932604)"><rect x="1" width="11.999999999999996" height="44.60837887067396"></rect></g><g class="bar" transform="translate(338,288.54280510018214)"><rect x="1" width="11.999999999999996" height="21.457194899817864"></rect></g><g class="bar" transform="translate(351,297.0127504553734)"><rect x="1" width="11.999999999999996" height="12.987249544626593"></rect></g><g class="bar" transform="translate(364.00000000000006,302.6593806921676)"><rect x="1" width="11.999999999999996" height="7.340619307832412"></rect></g><g class="bar" transform="translate(377.00000000000006,309.43533697632057)"><rect x="1" width="11.999999999999996" height="0.5646630236794294"></rect></g><g class="bar" transform="translate(390,307.1766848816029)"><rect x="1" width="11.999999999999996" height="2.8233151183970904"></rect></g><g class="bar" transform="translate(403,308.87067395264114)"><rect x="1" width="11.999999999999996" height="1.1293260473588589"></rect></g><g class="bar" transform="translate(416,310)"><rect x="1" width="11.999999999999996" height="0"></rect></g><g class="bar" transform="translate(429.00000000000006,310)"><rect x="1" width="11.999999999999996" height="0"></rect></g><g class="bar" transform="translate(442.00000000000006,310)"><rect x="1" width="11.999999999999996" height="0"></rect></g><g class="bar" transform="translate(455,310)"><rect x="1" width="11.999999999999996" height="0"></rect></g><g class="bar" transform="translate(468,310)"><rect x="1" width="11.999999999999996" height="0"></rect></g><g class="bar" transform="translate(481,310)"><rect x="1" width="11.999999999999996" height="0"></rect></g><g class="bar" transform="translate(494.00000000000006,310)"><rect x="1" width="11.999999999999996" height="0"></rect></g><g class="bar" transform="translate(507.00000000000006,310)"><rect x="1" width="11.999999999999996" height="0"></rect></g><g class="axis axis--x" transform="translate(0,310)" fill="none" font-size="10" font-family="sans-serif" text-anchor="middle"><path class="domain" stroke="#000" d="M0.5,6V0.5H520.5V6"></path><g class="tick" opacity="1" transform="translate(0.5,0)"><line stroke="#000" y2="6"></line><text fill="#000" y="9" dy="0.71em">0.01</text></g><g class="tick" opacity="1" transform="translate(130.5,0)"><line stroke="#000" y2="6"></line><text fill="#000" y="9" dy="0.71em">1</text></g><g class="tick" opacity="1" transform="translate(260.5,0)"><line stroke="#000" y2="6"></line><text fill="#000" y="9" dy="0.71em">100</text></g><g class="tick" opacity="1" transform="translate(390.5,0)"><line stroke="#000" y2="6"></line><text fill="#000" y="9" dy="0.71em">10000</text></g><g class="tick" opacity="1" transform="translate(520.5,0)"><line stroke="#000" y2="6"></line><text fill="#000" y="9" dy="0.71em"></text></g></g><g class="axis axis--y" fill="none" font-size="10" font-family="sans-serif" text-anchor="end"><path class="domain" stroke="#000" d="M-6,310.5H0.5V0.5H-6"></path><g class="tick" opacity="1" transform="translate(0,310.5)"><line stroke="#000" x2="-6"></line><text fill="#000" x="-9" dy="0.32em">0</text></g><g class="tick" opacity="1" transform="translate(0,282.26684881602915)"><line stroke="#000" x2="-6"></line><text fill="#000" x="-9" dy="0.32em">50</text></g><g class="tick" opacity="1" transform="translate(0,254.0336976320583)"><line stroke="#000" x2="-6"></line><text fill="#000" x="-9" dy="0.32em">100</text></g><g class="tick" opacity="1" transform="translate(0,225.8005464480874)"><line stroke="#000" x2="-6"></line><text fill="#000" x="-9" dy="0.32em">150</text></g><g class="tick" opacity="1" transform="translate(0,197.56739526411658)"><line stroke="#000" x2="-6"></line><text fill="#000" x="-9" dy="0.32em">200</text></g><g class="tick" opacity="1" transform="translate(0,169.33424408014574)"><line stroke="#000" x2="-6"></line><text fill="#000" x="-9" dy="0.32em">250</text></g><g class="tick" opacity="1" transform="translate(0,141.10109289617483)"><line stroke="#000" x2="-6"></line><text fill="#000" x="-9" dy="0.32em">300</text></g><g class="tick" opacity="1" transform="translate(0,112.86794171220401)"><line stroke="#000" x2="-6"></line><text fill="#000" x="-9" dy="0.32em">350</text></g><g class="tick" opacity="1" transform="translate(0,84.63479052823317)"><line stroke="#000" x2="-6"></line><text fill="#000" x="-9" dy="0.32em">400</text></g><g class="tick" opacity="1" transform="translate(0,56.40163934426229)"><line stroke="#000" x2="-6"></line><text fill="#000" x="-9" dy="0.32em">450</text></g><g class="tick" opacity="1" transform="translate(0,28.168488160291474)"><line stroke="#000" x2="-6"></line><text fill="#000" x="-9" dy="0.32em">500</text></g></g></g></svg>