<svg xmlns="http://www.w3.org/2000/svg" width="600" height="350"><defs><style type="text/css"><![CDATA[ 
.bar rect {
  fill-opacity: 0;
  stroke:       black;
  stroke-width: 0.5;
}

.highlight rect {
  fill:       red;
  fill-opacity: 1;
}
.axis path,
.axis line {
  fill: none;
  stroke: #000;
  shape-rendering: crispEdges;
}
path {
    stroke: red;
    fill: none;
}

line {
    stroke: red;
}

path.marker {
    fill: red;
}
 ]]></style></defs><g transform="translate(50,10)"><g class="bar" transform="translate(0,310)"><rect x="1" width="11.999999999999996" height="0"></rect></g><g class="bar" transform="translate(12.999999999999996,303.04487179487177)"><rect x="1" width="11.999999999999996" height="6.955128205128233"></rect></g><g class="bar" transform="translate(25.999999999999993,303.04487179487177)"><rect x="1" width="11.999999999999996" height="6.955128205128233"></rect></g><g class="bar" transform="translate(39.00000000000001,296.0897435897436)"><rect x="1" width="11.999999999999996" height="13.910256410256409"></rect></g><g class="bar" transform="translate(52,272.2435897435897)"><rect x="1" width="11.999999999999996" height="37.75641025641028"></rect></g><g class="bar" transform="translate(65,248.3974358974359)"><rect x="1" width="11.999999999999996" height="61.60256410256409"></rect></g><g class="bar" transform="translate(78.00000000000001,196.73076923076923)"><rect x="1" width="11.999999999999996" height="113.26923076923077"></rect></g><g class="bar" transform="translate(91.00000000000001,177.85256410256412)"><rect x="1" width="11.999999999999996" height="132.14743589743588"></rect></g><g class="bar" transform="translate(104,118.23717948717947)"><rect x="1" width="11.999999999999996" height="191.76282051282053"></rect></g><g class="bar" transform="translate(117,78.49358974358975)"><rect x="1" width="11.999999999999996" height="231.50641025641025"></rect></g><g class="bar" transform="translate(130,53.65384615384619)"><rect x="1" width="11.999999999999996" height="256.3461538461538"></rect></g><g class="bar" transform="translate(143,64.58333333333334)"><rect x="1" width="11.999999999999996" height="245.41666666666666"></rect></g><g class="bar" transform="translate(156.00000000000003,59.61538461538461)"><rect x="1" width="11.999999999999996" height="250.3846153846154"></rect></g><g class="bar" transform="translate(169,71.53846153846152)"><rect x="1" width="11.999999999999996" height="238.46153846153848"></rect></g><g class="bar" transform="translate(182.00000000000003,13.910256410256409)"><rect x="1" width="11.999999999999996" height="296.0897435897436"></rect></g><g class="bar" transform="translate(195,0)"><rect x="1" width="11.999999999999996" height="310"></rect></g><g class="bar" transform="translate(208,9.93589743589746)"><rect x="1" width="11.999999999999996" height="300.06410256410254"></rect></g><g class="bar" transform="translate(221.00000000000003,30.801282051282044)"><rect x="1" width="11.999999999999996" height="279.19871794871796"></rect></g><g class="bar" transform="translate(234,23.84615384615381)"><rect x="1" width="11.999999999999996" height="286.1538461538462"></rect></g><g class="bar" transform="translate(247.00000000000003,66.57051282051282)"><rect x="1" width="11.999999999999996" height="243.42948717948718"></rect></g><g class="bar" transform="translate(260,33.78205128205127)"><rect x="1" width="11.999999999999996" height="276.21794871794873"></rect></g><g class="bar" transform="translate(273,85.44871794871796)"><rect x="1" width="11.999999999999996" height="224.55128205128204"></rect></g><g class="bar" transform="translate(286,120.22435897435895)"><rect x="1" width="11.999999999999996" height="189.77564102564105"></rect></g><g class="bar" transform="translate(299.00000000000006,163.9423076923077)"><rect x="1" width="11.999999999999996" height="146.0576923076923"></rect></g><g class="bar" transform="translate(312.00000000000006,203.68589743589743)"><rect x="1" width="11.999999999999996" height="106.31410256410257"></rect></g><g class="bar" transform="translate(325,229.51923076923077)"><rect x="1" width="11.999999999999996" height="80.48076923076923"></rect></g><g class="bar" transform="translate(338,254.35897435897436)"><rect x="1" width="11.999999999999996" height="55.641025641025635"></rect></g><g class="bar" transform="translate(351,266.28205128205127)"><rect x="1" width="11.999999999999996" height="43.71794871794873"></rect></g><g class="bar" transform="translate(364.00000000000006,293.10897435897436)"><rect x="1" width="11.999999999999996" height="16.891025641025635"></rect></g><g class="bar" transform="translate(377.00000000000006,297.0833333333333)"><rect x="1" width="11.999999999999996" height="12.916666666666686"></rect></g><g class="bar" transform="translate(390,306.02564102564105)"><rect x="1" width="11.999999999999996" height="3.9743589743589496"></rect></g><g class="bar" transform="translate(403,307.0192307692308)"><rect x="1" width="11.999999999999996" height="2.9807692307692264"></rect></g><g class="bar" transform="translate(416,310)"><rect x="1" width="11.999999999999996" height="0"></rect></g><g class="bar" transform="translate(429.00000000000006,310)"><rect x="1" width="11.999999999999996" height="0"></rect></g><g class="bar" transform="translate(442.00000000000006,310)"><rect x="1" width="11.999999999999996" height="0"></rect></g><g class="bar" transform="translate(455,310)"><rect x="1" width="11.999999999999996" height="0"></rect></g><g class="bar" transform="translate(468,310)"><rect x="1" width="11.999999999999996" height="0"></rect></g><g class="bar" transform="translate(481,310)"><rect x="1" width="11.999999999999996" height="0"></rect></g><g class="bar" transform="translate(494.00000000000006,310)"><rect x="1" width="11.999999999999996" height="0"></rect></g><g class="bar" transform="translate(507.00000000000006,310)"><rect x="1" width="11.999999999999996" height="0"></rect></g><g class="axis axis--x" transform="translate(0,310)" fill="none" font-size="10" font-family="sans-serif" text-anchor="middle"><path class="domain" stroke="#000" d="M0.5,6V0.5H520.5V6"></path><g class="tick" opacity="1" transform="translate(0.5,0)"><line stroke="#000" y2="6"></line><text fill="#000" y="9" dy="0.71em">0.01</text></g><g class="tick" opacity="1" transform="translate(130.5,0)"><line stroke="#000" y2="6"></line><text fill="#000" y="9" dy="0.71em">1</text></g><g class="tick" opacity="1" transform="translate(260.5,0)"><line stroke="#000" y2="6"></line><text fill="#000" y="9" dy="0.71em">100</text></g><g class="tick" opacity="1" transform="translate(390.5,0)"><line stroke="#000" y2="6"></line><text fill="#000" y="9" dy="0.71em">10000</text></g><g class="tick" opacity="1" transform="translate(520.5,0)"><line stroke="#000" y2="6"></line><text fill="#000" y="9" dy="0.71em"></text></g></g><g class="axis axis--y" fill="none" font-size="10" font-family="sans-serif" text-anchor="end"><path class="domain" stroke="#000" d="M-6,310.5H0.5V0.5H-6"></path><g class="tick" opacity="1" transform="translate(0,310.5)"><line stroke="#000" x2="-6"></line><text fill="#000" x="-9" dy="0.32em">0</text></g><g class="tick" opacity="1" transform="translate(0,290.62820512820514)"><line stroke="#000" x2="-6"></line><text fill="#000" x="-9" dy="0.32em">20</text></g><g class="tick" opacity="1" transform="translate(0,270.7564102564103)"><line stroke="#000" x2="-6"></line><text fill="#000" x="-9" dy="0.32em">40</text></g><g class="tick" opacity="1" transform="translate(0,250.8846153846154)"><line stroke="#000" x2="-6"></line><text fill="#000" x="-9" dy="0.32em">60</text></g><g class="tick" opacity="1" transform="translate(0,231.01282051282053)"><line stroke="#000" x2="-6"></line><text fill="#000" x="-9" dy="0.32em">80</text></g><g class="tick" opacity="1" transform="translate(0,211.14102564102564)"><line stroke="#000" x2="-6"></line><text fill="#000" x="-9" dy="0.32em">100</text></g><g class="tick" opacity="1" transform="translate(0,191.26923076923077)"><line stroke="#000" x2="-6"></line><text fill="#000" x="-9" dy="0.32em">120</text></g><g class="tick" opacity="1" transform="translate(0,171.39743589743588)"><line stroke="#000" x2="-6"></line><text fill="#000" x="-9" dy="0.32em">140</text></g><g class="tick" opacity="1" transform="translate(0,151.52564102564105)"><line stroke="#000" x2="-6"></line><text fill="#000" x="-9" dy="0.32em">160</text></g><g class="tick" opacity="1" transform="translate(0,131.65384615384616)"><line stroke="#000" x2="-6"></line><text fill="#000" x="-9" dy="0.32em">180</text></g><g class="tick" opacity="1" transform="translate(0,111.78205128205127)"><line stroke="#000" x2="-6"></line><text fill="#000" x="-9" dy="0.32em">200</text></g><g class="tick" opacity="1" transform="translate(0,91.91025641025641)"><line stroke="#000" x2="-6"></line><text fill="#000" x="-9" dy="0.32em">220</text></g><g class="tick" opacity="1" transform="translate(0,72.03846153846152)"><line stroke="#000" x2="-6"></line><text fill="#000" x="-9" dy="0.32em">240</text></g><g class="tick" opacity="1" transform="translate(0,52.16666666666663)"><line stroke="#000" x2="-6"></line><text fill="#000" x="-9" dy="0.32em">260</text></g><g class="tick" opacity="1" transform="translate(0,32.29487179487177)"><line stroke="#000" x2="-6"></line><text fill="#000" x="-9" dy="0.32em">280</text></g><g class="tick" opacity="1" transform="translate(0,12.423076923076906)"><line stroke="#000" x2="-6"></line><text fill="#000" x="-9" dy="0.32em">300</text></g></g></g></svg>