<svg xmlns="http://www.w3.org/2000/svg" width="600" height="350"><defs><style type="text/css"><![CDATA[ 
.bar rect {
  fill-opacity: 0;
  stroke:       black;
  stroke-width: 0.5;
}

.highlight rect {
  fill:       red;
  fill-opacity: 1;
}
.axis path,
.axis line {
  fill: none;
  stroke: #000;
  shape-rendering: crispEdges;
}
path {
    stroke: red;
    fill: none;
}

line {
    stroke: red;
}

path.marker {
    fill: red;
}
 ]]></style></defs><g transform="translate(50,10)"><g class="bar" transform="translate(0,310)"><rect x="1" width="11.999999999999996" height="0"></rect></g><g class="bar" transform="translate(12.999999999999996,309.2857142857143)"><rect x="1" width="11.999999999999996" height="0.7142857142857224"></rect></g><g class="bar" transform="translate(25.999999999999993,307.85714285714283)"><rect x="1" width="11.999999999999996" height="2.142857142857167"></rect></g><g class="bar" transform="translate(39.00000000000001,303.57142857142856)"><rect x="1" width="11.999999999999996" height="6.428571428571445"></rect></g><g class="bar" transform="translate(52,290.7142857142857)"><rect x="1" width="11.999999999999996" height="19.285714285714278"></rect></g><g class="bar" transform="translate(65,280)"><rect x="1" width="11.999999999999996" height="30"></rect></g><g class="bar" transform="translate(78.00000000000001,247.14285714285714)"><rect x="1" width="11.999999999999996" height="62.85714285714286"></rect></g><g class="bar" transform="translate(91.00000000000001,220)"><rect x="1" width="11.999999999999996" height="90"></rect></g><g class="bar" transform="translate(104,195)"><rect x="1" width="11.999999999999996" height="115"></rect></g><g class="bar" transform="translate(117,172.14285714285714)"><rect x="1" width="11.999999999999996" height="137.85714285714286"></rect></g><g class="bar" transform="translate(130,123.57142857142858)"><rect x="1" width="11.999999999999996" height="186.42857142857142"></rect></g><g class="bar" transform="translate(143,106.42857142857144)"><rect x="1" width="11.999999999999996" height="203.57142857142856"></rect></g><g class="bar" transform="translate(156.00000000000003,45.71428571428572)"><rect x="1" width="11.999999999999996" height="264.2857142857143"></rect></g><g class="bar" transform="translate(169,40)"><rect x="1" width="11.999999999999996" height="270"></rect></g><g class="bar" transform="translate(182.00000000000003,52.14285714285717)"><rect x="1" width="11.999999999999996" height="257.85714285714283"></rect></g><g class="bar" transform="translate(195,0)"><rect x="1" width="11.999999999999996" height="310"></rect></g><g class="bar" transform="translate(208,47.85714285714289)"><rect x="1" width="11.999999999999996" height="262.1428571428571"></rect></g><g class="bar" transform="translate(221.00000000000003,76.42857142857142)"><rect x="1" width="11.999999999999996" height="233.57142857142858"></rect></g><g class="bar" transform="translate(234,82.14285714285714)"><rect x="1" width="11.999999999999996" height="227.85714285714286"></rect></g><g class="bar" transform="translate(247.00000000000003,94.99999999999997)"><rect x="1" width="11.999999999999996" height="215.00000000000003"></rect></g><g class="bar" transform="translate(260,136.42857142857144)"><rect x="1" width="11.999999999999996" height="173.57142857142856"></rect></g><g class="bar" transform="translate(273,178.57142857142858)"><rect x="1" width="11.999999999999996" height="131.42857142857142"></rect></g><g class="bar" transform="translate(286,192.85714285714286)"><rect x="1" width="11.999999999999996" height="117.14285714285714"></rect></g><g class="bar" transform="translate(299.00000000000006,226.42857142857144)"><rect x="1" width="11.999999999999996" height="83.57142857142856"></rect></g><g class="bar" transform="translate(312.00000000000006,251.42857142857144)"><rect x="1" width="11.999999999999996" height="58.571428571428555"></rect></g><g class="bar" transform="translate(325,265)"><rect x="1" width="11.999999999999996" height="45"></rect></g><g class="bar" transform="translate(338,277.14285714285717)"><rect x="1" width="11.999999999999996" height="32.85714285714283"></rect></g><g class="bar" transform="translate(351,287.85714285714283)"><rect x="1" width="11.999999999999996" height="22.142857142857167"></rect></g><g class="bar" transform="translate(364.00000000000006,295)"><rect x="1" width="11.999999999999996" height="15"></rect></g><g class="bar" transform="translate(377.00000000000006,302.85714285714283)"><rect x="1" width="11.999999999999996" height="7.142857142857167"></rect></g><g class="bar" transform="translate(390,305.7142857142857)"><rect x="1" width="11.999999999999996" height="4.285714285714278"></rect></g><g class="bar" transform="translate(403,309.2857142857143)"><rect x="1" width="11.999999999999996" height="0.7142857142857224"></rect></g><g class="bar" transform="translate(416,309.2857142857143)"><rect x="1" width="11.999999999999996" height="0.7142857142857224"></rect></g><g class="bar" transform="translate(429.00000000000006,310)"><rect x="1" width="11.999999999999996" height="0"></rect></g><g class="bar" transform="translate(442.00000000000006,309.2857142857143)"><rect x="1" width="11.999999999999996" height="0.7142857142857224"></rect></g><g class="bar" transform="translate(455,310)"><rect x="1" width="11.999999999999996" height="0"></rect></g><g class="bar" transform="translate(468,310)"><rect x="1" width="11.999999999999996" height="0"></rect></g><g class="bar" transform="translate(481,310)"><rect x="1" width="11.999999999999996" height="0"></rect></g><g class="bar" transform="translate(494.00000000000006,310)"><rect x="1" width="11.999999999999996" height="0"></rect></g><g class="bar" transform="translate(507.00000000000006,310)"><rect x="1" width="11.999999999999996" height="0"></rect></g><g class="axis axis--x" transform="translate(0,310)" fill="none" font-size="10" font-family="sans-serif" text-anchor="middle"><path class="domain" stroke="#000" d="M0.5,6V0.5H520.5V6"></path><g class="tick" opacity="1" transform="translate(0.5,0)"><line stroke="#000" y2="6"></line><text fill="#000" y="9" dy="0.71em">0.01</text></g><g class="tick" opacity="1" transform="translate(130.5,0)"><line stroke="#000" y2="6"></line><text fill="#000" y="9" dy="0.71em">1</text></g><g class="tick" opacity="1" transform="translate(260.5,0)"><line stroke="#000" y2="6"></line><text fill="#000" y="9" dy="0.71em">100</text></g><g class="tick" opacity="1" transform="translate(390.5,0)"><line stroke="#000" y2="6"></line><text fill="#000" y="9" dy="0.71em">10000</text></g><g class="tick" opacity="1" transform="translate(520.5,0)"><line stroke="#000" y2="6"></line><text fill="#000" y="9" dy="0.71em"></text></g></g><g class="axis axis--y" fill="none" font-size="10" font-family="sans-serif" text-anchor="end"><path class="domain" stroke="#000" d="M-6,310.5H0.5V0.5H-6"></path><g class="tick" opacity="1" transform="translate(0,310.5)"><line stroke="#000" x2="-6"></line><text fill="#000" x="-9" dy="0.32em">0</text></g><g class="tick" opacity="1" transform="translate(0,274.7857142857143)"><line stroke="#000" x2="-6"></line><text fill="#000" x="-9" dy="0.32em">50</text></g><g class="tick" opacity="1" transform="translate(0,239.07142857142856)"><line stroke="#000" x2="-6"></line><text fill="#000" x="-9" dy="0.32em">100</text></g><g class="tick" opacity="1" transform="translate(0,203.35714285714286)"><line stroke="#000" x2="-6"></line><text fill="#000" x="-9" dy="0.32em">150</text></g><g class="tick" opacity="1" transform="translate(0,167.64285714285714)"><line stroke="#000" x2="-6"></line><text fill="#000" x="-9" dy="0.32em">200</text></g><g class="tick" opacity="1" transform="translate(0,131.92857142857144)"><line stroke="#000" x2="-6"></line><text fill="#000" x="-9" dy="0.32em">250</text></g><g class="tick" opacity="1" transform="translate(0,96.21428571428572)"><line stroke="#000" x2="-6"></line><text fill="#000" x="-9" dy="0.32em">300</text></g><g class="tick" opacity="1" transform="translate(0,60.50000000000003)"><line stroke="#000" x2="-6"></line><text fill="#000" x="-9" dy="0.32em">350</text></g><g class="tick" opacity="1" transform="translate(0,24.785714285714278)"><line stroke="#000" x2="-6"></line><text fill="#000" x="-9" dy="0.32em">400</text></g></g></g></svg>