<svg xmlns="http://www.w3.org/2000/svg" width="600" height="350"><defs><style type="text/css"><![CDATA[ 
.bar rect {
  fill-opacity: 0;
  stroke:       black;
  stroke-width: 0.5;
}

.highlight rect {
  fill:       red;
  fill-opacity: 1;
}
.axis path,
.axis line {
  fill: none;
  stroke: #000;
  shape-rendering: crispEdges;
}
 ]]></style></defs><g transform="translate(50,10)"><g class="bar" transform="translate(0,310)"><rect x="1" width="11.999999999999996" height="0"></rect></g><g class="bar" transform="translate(12.999999999999996,308.724279835391)"><rect x="1" width="11.999999999999996" height="1.2757201646090266"></rect></g><g class="bar" transform="translate(25.999999999999993,302.34567901234567)"><rect x="1" width="11.999999999999996" height="7.65432098765433"></rect></g><g class="bar" transform="translate(39.00000000000001,297.24279835390945)"><rect x="1" width="11.999999999999996" height="12.75720164609055"></rect></g><g class="bar" transform="translate(52,289.5884773662551)"><rect x="1" width="11.999999999999996" height="20.41152263374488"></rect></g><g class="bar" transform="translate(65,257.69547325102883)"><rect x="1" width="11.999999999999996" height="52.30452674897117"></rect></g><g class="bar" transform="translate(78.00000000000001,266.6255144032922)"><rect x="1" width="11.999999999999996" height="43.374485596707814"></rect></g><g class="bar" transform="translate(91.00000000000001,230.9053497942387)"><rect x="1" width="11.999999999999996" height="79.0946502057613"></rect></g><g class="bar" transform="translate(104,207.9423868312757)"><rect x="1" width="11.999999999999996" height="102.05761316872429"></rect></g><g class="bar" transform="translate(117,201.56378600823047)"><rect x="1" width="11.999999999999996" height="108.43621399176953"></rect></g><g class="bar" transform="translate(130,153.0864197530864)"><rect x="1" width="11.999999999999996" height="156.9135802469136"></rect></g><g class="bar" transform="translate(143,110.98765432098767)"><rect x="1" width="11.999999999999996" height="199.01234567901233"></rect></g><g class="bar" transform="translate(156.00000000000003,70.16460905349794)"><rect x="1" width="11.999999999999996" height="239.83539094650206"></rect></g><g class="bar" transform="translate(169,57.40740740740742)"><rect x="1" width="11.999999999999996" height="252.59259259259258"></rect></g><g class="bar" transform="translate(182.00000000000003,0)"><rect x="1" width="11.999999999999996" height="310"></rect></g><g class="bar" transform="translate(195,16.584362139917687)"><rect x="1" width="11.999999999999996" height="293.4156378600823"></rect></g><g class="bar" transform="translate(208,12.75720164609055)"><rect x="1" width="11.999999999999996" height="297.24279835390945"></rect></g><g class="bar" transform="translate(221.00000000000003,40.823045267489704)"><rect x="1" width="11.999999999999996" height="269.1769547325103"></rect></g><g class="bar" transform="translate(234,58.683127572016474)"><rect x="1" width="11.999999999999996" height="251.31687242798353"></rect></g><g class="bar" transform="translate(247.00000000000003,77.81893004115224)"><rect x="1" width="11.999999999999996" height="232.18106995884776"></rect></g><g class="bar" transform="translate(260,67.61316872427983)"><rect x="1" width="11.999999999999996" height="242.38683127572017"></rect></g><g class="bar" transform="translate(273,82.92181069958849)"><rect x="1" width="11.999999999999996" height="227.0781893004115"></rect></g><g class="bar" transform="translate(286,153.0864197530864)"><rect x="1" width="11.999999999999996" height="156.9135802469136"></rect></g><g class="bar" transform="translate(299.00000000000006,202.8395061728395)"><rect x="1" width="11.999999999999996" height="107.16049382716051"></rect></g><g class="bar" transform="translate(312.00000000000006,196.46090534979425)"><rect x="1" width="11.999999999999996" height="113.53909465020575"></rect></g><g class="bar" transform="translate(325,255.1440329218107)"><rect x="1" width="11.999999999999996" height="54.85596707818931"></rect></g><g class="bar" transform="translate(338,256.41975308641975)"><rect x="1" width="11.999999999999996" height="53.580246913580254"></rect></g><g class="bar" transform="translate(351,273.00411522633743)"><rect x="1" width="11.999999999999996" height="36.99588477366257"></rect></g><g class="bar" transform="translate(364.00000000000006,293.4156378600823)"><rect x="1" width="11.999999999999996" height="16.584362139917687"></rect></g><g class="bar" transform="translate(377.00000000000006,294.69135802469134)"><rect x="1" width="11.999999999999996" height="15.30864197530866"></rect></g><g class="bar" transform="translate(390,302.34567901234567)"><rect x="1" width="11.999999999999996" height="7.65432098765433"></rect></g><g class="bar" transform="translate(403,303.62139917695475)"><rect x="1" width="11.999999999999996" height="6.378600823045247"></rect></g><g class="bar" transform="translate(416,307.4485596707819)"><rect x="1" width="11.999999999999996" height="2.55144032921811"></rect></g><g class="bar" transform="translate(429.00000000000006,307.4485596707819)"><rect x="1" width="11.999999999999996" height="2.55144032921811"></rect></g><g class="bar" transform="translate(442.00000000000006,310)"><rect x="1" width="11.999999999999996" height="0"></rect></g><g class="bar" transform="translate(455,310)"><rect x="1" width="11.999999999999996" height="0"></rect></g><g class="bar" transform="translate(468,310)"><rect x="1" width="11.999999999999996" height="0"></rect></g><g class="bar" transform="translate(481,310)"><rect x="1" width="11.999999999999996" height="0"></rect></g><g class="bar" transform="translate(494.00000000000006,310)"><rect x="1" width="11.999999999999996" height="0"></rect></g><g class="bar" transform="translate(507.00000000000006,310)"><rect x="1" width="11.999999999999996" height="0"></rect></g><g class="axis axis--x" transform="translate(0,310)" fill="none" font-size="10" font-family="sans-serif" text-anchor="middle"><path class="domain" stroke="#000" d="M0.5,6V0.5H520.5V6"></path><g class="tick" opacity="1" transform="translate(0,0)"><line stroke="#000" y2="6" x1="0.5" x2="0.5"></line><text fill="#000" y="9" x="0.5" dy="0.71em">0.01</text></g><g class="tick" opacity="1" transform="translate(130,0)"><line stroke="#000" y2="6" x1="0.5" x2="0.5"></line><text fill="#000" y="9" x="0.5" dy="0.71em">1</text></g><g class="tick" opacity="1" transform="translate(260,0)"><line stroke="#000" y2="6" x1="0.5" x2="0.5"></line><text fill="#000" y="9" x="0.5" dy="0.71em">100</text></g><g class="tick" opacity="1" transform="translate(390,0)"><line stroke="#000" y2="6" x1="0.5" x2="0.5"></line><text fill="#000" y="9" x="0.5" dy="0.71em">10000</text></g><g class="tick" opacity="1" transform="translate(520,0)"><line stroke="#000" y2="6" x1="0.5" x2="0.5"></line><text fill="#000" y="9" x="0.5" dy="0.71em"></text></g></g><g class="axis axis--y" fill="none" font-size="10" font-family="sans-serif" text-anchor="end"><path class="domain" stroke="#000" d="M-6,310.5H0.5V0.5H-6"></path><g class="tick" opacity="1" transform="translate(0,310)"><line stroke="#000" x2="-6" y1="0.5" y2="0.5"></line><text fill="#000" x="-9" y="0.5" dy="0.32em">0</text></g><g class="tick" opacity="1" transform="translate(0,284.48559670781896)"><line stroke="#000" x2="-6" y1="0.5" y2="0.5"></line><text fill="#000" x="-9" y="0.5" dy="0.32em">20</text></g><g class="tick" opacity="1" transform="translate(0,258.97119341563786)"><line stroke="#000" x2="-6" y1="0.5" y2="0.5"></line><text fill="#000" x="-9" y="0.5" dy="0.32em">40</text></g><g class="tick" opacity="1" transform="translate(0,233.4567901234568)"><line stroke="#000" x2="-6" y1="0.5" y2="0.5"></line><text fill="#000" x="-9" y="0.5" dy="0.32em">60</text></g><g class="tick" opacity="1" transform="translate(0,207.9423868312757)"><line stroke="#000" x2="-6" y1="0.5" y2="0.5"></line><text fill="#000" x="-9" y="0.5" dy="0.32em">80</text></g><g class="tick" opacity="1" transform="translate(0,182.42798353909464)"><line stroke="#000" x2="-6" y1="0.5" y2="0.5"></line><text fill="#000" x="-9" y="0.5" dy="0.32em">100</text></g><g class="tick" opacity="1" transform="translate(0,156.9135802469136)"><line stroke="#000" x2="-6" y1="0.5" y2="0.5"></line><text fill="#000" x="-9" y="0.5" dy="0.32em">120</text></g><g class="tick" opacity="1" transform="translate(0,131.3991769547325)"><line stroke="#000" x2="-6" y1="0.5" y2="0.5"></line><text fill="#000" x="-9" y="0.5" dy="0.32em">140</text></g><g class="tick" opacity="1" transform="translate(0,105.88477366255145)"><line stroke="#000" x2="-6" y1="0.5" y2="0.5"></line><text fill="#000" x="-9" y="0.5" dy="0.32em">160</text></g><g class="tick" opacity="1" transform="translate(0,80.37037037037038)"><line stroke="#000" x2="-6" y1="0.5" y2="0.5"></line><text fill="#000" x="-9" y="0.5" dy="0.32em">180</text></g><g class="tick" opacity="1" transform="translate(0,54.85596707818928)"><line stroke="#000" x2="-6" y1="0.5" y2="0.5"></line><text fill="#000" x="-9" y="0.5" dy="0.32em">200</text></g><g class="tick" opacity="1" transform="translate(0,29.341563786008237)"><line stroke="#000" x2="-6" y1="0.5" y2="0.5"></line><text fill="#000" x="-9" y="0.5" dy="0.32em">220</text></g><g class="tick" opacity="1" transform="translate(0,3.8271604938271935)"><line stroke="#000" x2="-6" y1="0.5" y2="0.5"></line><text fill="#000" x="-9" y="0.5" dy="0.32em">240</text></g></g></g></svg>