<svg xmlns="http://www.w3.org/2000/svg" width="280" height="160"><defs><style type="text/css"><![CDATA[ 
.bar rect {
  fill-opacity: 0;
  stroke:       black;
  stroke-width: 0.5;
}

.highlight rect {
  fill:       red;
  fill-opacity: 1;
}
.axis path,
.axis line {
  fill: none;
  stroke: #000;
  shape-rendering: crispEdges;
}
 ]]></style></defs><g transform="translate(50,10)"><g class="bar" transform="translate(0,120)"><rect x="1" width="11.5" height="0"></rect></g><g class="bar" transform="translate(12.5,120)"><rect x="1" width="11.5" height="0"></rect></g><g class="bar" transform="translate(25,120)"><rect x="1" width="11.5" height="0"></rect></g><g class="bar" transform="translate(37.5,120)"><rect x="1" width="11.5" height="0"></rect></g><g class="bar" transform="translate(50,119.71014492753623)"><rect x="1" width="11.5" height="0.28985507246376585"></rect></g><g class="bar" transform="translate(62.5,114.20289855072464)"><rect x="1" width="11.5" height="5.79710144927536"></rect></g><g class="bar" transform="translate(75,97.97101449275362)"><rect x="1" width="11.5" height="22.028985507246375"></rect></g><g class="bar" transform="translate(87.5,80)"><rect x="1" width="11.5" height="40"></rect></g><g class="bar" transform="translate(100,45.507246376811594)"><rect x="1" width="11.5" height="74.4927536231884"></rect></g><g class="bar" transform="translate(112.5,0)"><rect x="1" width="11.5" height="120"></rect></g><g class="bar" transform="translate(125,41.15942028985506)"><rect x="1" width="11.5" height="78.84057971014494"></rect></g><g class="bar" transform="translate(137.5,108.69565217391305)"><rect x="1" width="11.5" height="11.304347826086953"></rect></g><g class="bar" transform="translate(150,119.1304347826087)"><rect x="1" width="11.5" height="0.8695652173912976"></rect></g><g class="bar" transform="translate(162.5,120)"><rect x="1" width="11.5" height="0"></rect></g><g class="bar" transform="translate(175,120)"><rect x="1" width="11.5" height="0"></rect></g><g class="bar" transform="translate(187.5,120)"><rect x="1" width="11.5" height="0"></rect></g></g></svg>