<svg xmlns="http://www.w3.org/2000/svg" width="600" height="350"><defs><style type="text/css"><![CDATA[ 
.bar rect {
  fill-opacity: 0;
  stroke:       black;
  stroke-width: 0.5;
}

.highlight rect {
  fill:       red;
  fill-opacity: 1;
}
.axis path,
.axis line {
  fill: none;
  stroke: #000;
  shape-rendering: crispEdges;
}
 ]]></style></defs><g transform="translate(50,10)"><g class="bar" transform="translate(0,310)"><rect x="1" width="11.999999999999996" height="0"></rect></g><g class="bar" transform="translate(12.999999999999996,310)"><rect x="1" width="11.999999999999996" height="0"></rect></g><g class="bar" transform="translate(25.999999999999993,310)"><rect x="1" width="11.999999999999996" height="0"></rect></g><g class="bar" transform="translate(39.00000000000001,310)"><rect x="1" width="11.999999999999996" height="0"></rect></g><g class="bar" transform="translate(52,310)"><rect x="1" width="11.999999999999996" height="0"></rect></g><g class="bar" transform="translate(65,310)"><rect x="1" width="11.999999999999996" height="0"></rect></g><g class="bar" transform="translate(78.00000000000001,310)"><rect x="1" width="11.999999999999996" height="0"></rect></g><g class="bar" transform="translate(91.00000000000001,310)"><rect x="1" width="11.999999999999996" height="0"></rect></g><g class="bar" transform="translate(104,310)"><rect x="1" width="11.999999999999996" height="0"></rect></g><g class="bar" transform="translate(117,310)"><rect x="1" width="11.999999999999996" height="0"></rect></g><g class="bar" transform="translate(130,310)"><rect x="1" width="11.999999999999996" height="0"></rect></g><g class="bar" transform="translate(143,308.22857142857146)"><rect x="1" width="11.999999999999996" height="1.7714285714285438"></rect></g><g class="bar" transform="translate(156.00000000000003,308.22857142857146)"><rect x="1" width="11.999999999999996" height="1.7714285714285438"></rect></g><g class="bar" transform="translate(169,299.37142857142857)"><rect x="1" width="11.999999999999996" height="10.628571428571433"></rect></g><g class="bar" transform="translate(182.00000000000003,286.9714285714286)"><rect x="1" width="11.999999999999996" height="23.02857142857141"></rect></g><g class="bar" transform="translate(195,267.48571428571427)"><rect x="1" width="11.999999999999996" height="42.514285714285734"></rect></g><g class="bar" transform="translate(208,255.0857142857143)"><rect x="1" width="11.999999999999996" height="54.91428571428571"></rect></g><g class="bar" transform="translate(221.00000000000003,232.05714285714285)"><rect x="1" width="11.999999999999996" height="77.94285714285715"></rect></g><g class="bar" transform="translate(234,217.8857142857143)"><rect x="1" width="11.999999999999996" height="92.1142857142857"></rect></g><g class="bar" transform="translate(247.00000000000003,198.4)"><rect x="1" width="11.999999999999996" height="111.6"></rect></g><g class="bar" transform="translate(260,145.25714285714284)"><rect x="1" width="11.999999999999996" height="164.74285714285716"></rect></g><g class="bar" transform="translate(273,134.62857142857143)"><rect x="1" width="11.999999999999996" height="175.37142857142857"></rect></g><g class="bar" transform="translate(286,46.05714285714288)"><rect x="1" width="11.999999999999996" height="263.9428571428571"></rect></g><g class="bar" transform="translate(299.00000000000006,0)"><rect x="1" width="11.999999999999996" height="310"></rect></g><g class="bar" transform="translate(312.00000000000006,35.428571428571445)"><rect x="1" width="11.999999999999996" height="274.57142857142856"></rect></g><g class="bar" transform="translate(325,46.05714285714288)"><rect x="1" width="11.999999999999996" height="263.9428571428571"></rect></g><g class="bar" transform="translate(338,152.34285714285716)"><rect x="1" width="11.999999999999996" height="157.65714285714284"></rect></g><g class="bar" transform="translate(351,217.8857142857143)"><rect x="1" width="11.999999999999996" height="92.1142857142857"></rect></g><g class="bar" transform="translate(364.00000000000006,286.9714285714286)"><rect x="1" width="11.999999999999996" height="23.02857142857141"></rect></g><g class="bar" transform="translate(377.00000000000006,295.8285714285714)"><rect x="1" width="11.999999999999996" height="14.171428571428578"></rect></g><g class="bar" transform="translate(390,306.45714285714286)"><rect x="1" width="11.999999999999996" height="3.5428571428571445"></rect></g><g class="bar" transform="translate(403,308.22857142857146)"><rect x="1" width="11.999999999999996" height="1.7714285714285438"></rect></g><g class="bar" transform="translate(416,310)"><rect x="1" width="11.999999999999996" height="0"></rect></g><g class="bar" transform="translate(429.00000000000006,310)"><rect x="1" width="11.999999999999996" height="0"></rect></g><g class="bar" transform="translate(442.00000000000006,310)"><rect x="1" width="11.999999999999996" height="0"></rect></g><g class="bar" transform="translate(455,310)"><rect x="1" width="11.999999999999996" height="0"></rect></g><g class="bar" transform="translate(468,310)"><rect x="1" width="11.999999999999996" height="0"></rect></g><g class="bar" transform="translate(481,310)"><rect x="1" width="11.999999999999996" height="0"></rect></g><g class="bar" transform="translate(494.00000000000006,310)"><rect x="1" width="11.999999999999996" height="0"></rect></g><g class="bar" transform="translate(507.00000000000006,310)"><rect x="1" width="11.999999999999996" height="0"></rect></g><g class="axis axis--x" transform="translate(0,310)" fill="none" font-size="10" font-family="sans-serif" text-anchor="middle"><path class="domain" stroke="#000" d="M0.5,6V0.5H520.5V6"></path><g class="tick" opacity="1" transform="translate(0,0)"><line stroke="#000" y2="6" x1="0.5" x2="0.5"></line><text fill="#000" y="9" x="0.5" dy="0.71em">0.01</text></g><g class="tick" opacity="1" transform="translate(130,0)"><line stroke="#000" y2="6" x1="0.5" x2="0.5"></line><text fill="#000" y="9" x="0.5" dy="0.71em">1</text></g><g class="tick" opacity="1" transform="translate(260,0)"><line stroke="#000" y2="6" x1="0.5" x2="0.5"></line><text fill="#000" y="9" x="0.5" dy="0.71em">100</text></g><g class="tick" opacity="1" transform="translate(390,0)"><line stroke="#000" y2="6" x1="0.5" x2="0.5"></line><text fill="#000" y="9" x="0.5" dy="0.71em">10000</text></g><g class="tick" opacity="1" transform="translate(520,0)"><line stroke="#000" y2="6" x1="0.5" x2="0.5"></line><text fill="#000" y="9" x="0.5" dy="0.71em"></text></g></g><g class="axis axis--y" fill="none" font-size="10" font-family="sans-serif" text-anchor="end"><path class="domain" stroke="#000" d="M-6,310.5H0.5V0.5H-6"></path><g class="tick" opacity="1" transform="translate(0,310)"><line stroke="#000" x2="-6" y1="0.5" y2="0.5"></line><text fill="#000" x="-9" y="0.5" dy="0.32em">0</text></g><g class="tick" opacity="1" transform="translate(0,274.57142857142856)"><line stroke="#000" x2="-6" y1="0.5" y2="0.5"></line><text fill="#000" x="-9" y="0.5" dy="0.32em">20</text></g><g class="tick" opacity="1" transform="translate(0,239.14285714285714)"><line stroke="#000" x2="-6" y1="0.5" y2="0.5"></line><text fill="#000" x="-9" y="0.5" dy="0.32em">40</text></g><g class="tick" opacity="1" transform="translate(0,203.71428571428572)"><line stroke="#000" x2="-6" y1="0.5" y2="0.5"></line><text fill="#000" x="-9" y="0.5" dy="0.32em">60</text></g><g class="tick" opacity="1" transform="translate(0,168.28571428571428)"><line stroke="#000" x2="-6" y1="0.5" y2="0.5"></line><text fill="#000" x="-9" y="0.5" dy="0.32em">80</text></g><g class="tick" opacity="1" transform="translate(0,132.85714285714286)"><line stroke="#000" x2="-6" y1="0.5" y2="0.5"></line><text fill="#000" x="-9" y="0.5" dy="0.32em">100</text></g><g class="tick" opacity="1" transform="translate(0,97.42857142857142)"><line stroke="#000" x2="-6" y1="0.5" y2="0.5"></line><text fill="#000" x="-9" y="0.5" dy="0.32em">120</text></g><g class="tick" opacity="1" transform="translate(0,62)"><line stroke="#000" x2="-6" y1="0.5" y2="0.5"></line><text fill="#000" x="-9" y="0.5" dy="0.32em">140</text></g><g class="tick" opacity="1" transform="translate(0,26.571428571428555)"><line stroke="#000" x2="-6" y1="0.5" y2="0.5"></line><text fill="#000" x="-9" y="0.5" dy="0.32em">160</text></g></g></g></svg>