<svg xmlns="http://www.w3.org/2000/svg" width="600" height="350"><defs><style type="text/css"><![CDATA[ 
.bar rect {
  fill-opacity: 0;
  stroke:       black;
  stroke-width: 0.5;
}

.highlight rect {
  fill:       red;
  fill-opacity: 1;
}
.axis path,
.axis line {
  fill: none;
  stroke: #000;
  shape-rendering: crispEdges;
}
path {
    stroke: red;
    fill: none;
}

line {
    stroke: red;
}

path.marker {
    fill: red;
}
 ]]></style></defs><g transform="translate(50,10)"><g class="bar" transform="translate(0,308.109756097561)"><rect x="1" width="11.999999999999996" height="1.8902439024390105"></rect></g><g class="bar" transform="translate(12.999999999999996,304.3292682926829)"><rect x="1" width="11.999999999999996" height="5.670731707317088"></rect></g><g class="bar" transform="translate(25.999999999999993,304.3292682926829)"><rect x="1" width="11.999999999999996" height="5.670731707317088"></rect></g><g class="bar" transform="translate(39.00000000000001,296.7682926829268)"><rect x="1" width="11.999999999999996" height="13.231707317073187"></rect></g><g class="bar" transform="translate(52,292.9878048780488)"><rect x="1" width="11.999999999999996" height="17.01219512195121"></rect></g><g class="bar" transform="translate(65,287.3170731707317)"><rect x="1" width="11.999999999999996" height="22.682926829268297"></rect></g><g class="bar" transform="translate(78.00000000000001,285.4268292682927)"><rect x="1" width="11.999999999999996" height="24.573170731707307"></rect></g><g class="bar" transform="translate(91.00000000000001,251.40243902439025)"><rect x="1" width="11.999999999999996" height="58.59756097560975"></rect></g><g class="bar" transform="translate(104,224.9390243902439)"><rect x="1" width="11.999999999999996" height="85.0609756097561"></rect></g><g class="bar" transform="translate(117,247.6219512195122)"><rect x="1" width="11.999999999999996" height="62.3780487804878"></rect></g><g class="bar" transform="translate(130,223.0487804878049)"><rect x="1" width="11.999999999999996" height="86.95121951219511"></rect></g><g class="bar" transform="translate(143,151.21951219512195)"><rect x="1" width="11.999999999999996" height="158.78048780487805"></rect></g><g class="bar" transform="translate(156.00000000000003,120.97560975609755)"><rect x="1" width="11.999999999999996" height="189.02439024390245"></rect></g><g class="bar" transform="translate(169,79.39024390243904)"><rect x="1" width="11.999999999999996" height="230.60975609756096"></rect></g><g class="bar" transform="translate(182.00000000000003,54.81707317073173)"><rect x="1" width="11.999999999999996" height="255.18292682926827"></rect></g><g class="bar" transform="translate(195,0)"><rect x="1" width="11.999999999999996" height="310"></rect></g><g class="bar" transform="translate(208,54.81707317073173)"><rect x="1" width="11.999999999999996" height="255.18292682926827"></rect></g><g class="bar" transform="translate(221.00000000000003,24.573170731707307)"><rect x="1" width="11.999999999999996" height="285.4268292682927"></rect></g><g class="bar" transform="translate(234,52.92682926829269)"><rect x="1" width="11.999999999999996" height="257.0731707317073"></rect></g><g class="bar" transform="translate(247.00000000000003,109.6341463414634)"><rect x="1" width="11.999999999999996" height="200.3658536585366"></rect></g><g class="bar" transform="translate(260,56.70731707317074)"><rect x="1" width="11.999999999999996" height="253.29268292682926"></rect></g><g class="bar" transform="translate(273,20.79268292682923)"><rect x="1" width="11.999999999999996" height="289.20731707317077"></rect></g><g class="bar" transform="translate(286,92.6219512195122)"><rect x="1" width="11.999999999999996" height="217.3780487804878"></rect></g><g class="bar" transform="translate(299.00000000000006,177.6829268292683)"><rect x="1" width="11.999999999999996" height="132.3170731707317"></rect></g><g class="bar" transform="translate(312.00000000000006,172.0121951219512)"><rect x="1" width="11.999999999999996" height="137.9878048780488"></rect></g><g class="bar" transform="translate(325,224.9390243902439)"><rect x="1" width="11.999999999999996" height="85.0609756097561"></rect></g><g class="bar" transform="translate(338,241.9512195121951)"><rect x="1" width="11.999999999999996" height="68.04878048780489"></rect></g><g class="bar" transform="translate(351,270.3048780487805)"><rect x="1" width="11.999999999999996" height="39.695121951219505"></rect></g><g class="bar" transform="translate(364.00000000000006,283.5365853658537)"><rect x="1" width="11.999999999999996" height="26.463414634146318"></rect></g><g class="bar" transform="translate(377.00000000000006,294.8780487804878)"><rect x="1" width="11.999999999999996" height="15.121951219512198"></rect></g><g class="bar" transform="translate(390,300.5487804878049)"><rect x="1" width="11.999999999999996" height="9.45121951219511"></rect></g><g class="bar" transform="translate(403,302.4390243902439)"><rect x="1" width="11.999999999999996" height="7.560975609756099"></rect></g><g class="bar" transform="translate(416,310)"><rect x="1" width="11.999999999999996" height="0"></rect></g><g class="bar" transform="translate(429.00000000000006,304.3292682926829)"><rect x="1" width="11.999999999999996" height="5.670731707317088"></rect></g><g class="bar" transform="translate(442.00000000000006,308.109756097561)"><rect x="1" width="11.999999999999996" height="1.8902439024390105"></rect></g><g class="bar" transform="translate(455,308.109756097561)"><rect x="1" width="11.999999999999996" height="1.8902439024390105"></rect></g><g class="bar" transform="translate(468,310)"><rect x="1" width="11.999999999999996" height="0"></rect></g><g class="bar" transform="translate(481,310)"><rect x="1" width="11.999999999999996" height="0"></rect></g><g class="bar" transform="translate(494.00000000000006,310)"><rect x="1" width="11.999999999999996" height="0"></rect></g><g class="bar" transform="translate(507.00000000000006,310)"><rect x="1" width="11.999999999999996" height="0"></rect></g><g class="axis axis--x" transform="translate(0,310)" fill="none" font-size="10" font-family="sans-serif" text-anchor="middle"><path class="domain" stroke="#000" d="M0.5,6V0.5H520.5V6"></path><g class="tick" opacity="1" transform="translate(0.5,0)"><line stroke="#000" y2="6"></line><text fill="#000" y="9" dy="0.71em">0.01</text></g><g class="tick" opacity="1" transform="translate(130.5,0)"><line stroke="#000" y2="6"></line><text fill="#000" y="9" dy="0.71em">1</text></g><g class="tick" opacity="1" transform="translate(260.5,0)"><line stroke="#000" y2="6"></line><text fill="#000" y="9" dy="0.71em">100</text></g><g class="tick" opacity="1" transform="translate(390.5,0)"><line stroke="#000" y2="6"></line><text fill="#000" y="9" dy="0.71em">10000</text></g><g class="tick" opacity="1" transform="translate(520.5,0)"><line stroke="#000" y2="6"></line><text fill="#000" y="9" dy="0.71em"></text></g></g><g class="axis axis--y" fill="none" font-size="10" font-family="sans-serif" text-anchor="end"><path class="domain" stroke="#000" d="M-6,310.5H0.5V0.5H-6"></path><g class="tick" opacity="1" transform="translate(0,310.5)"><line stroke="#000" x2="-6"></line><text fill="#000" x="-9" dy="0.32em">0</text></g><g class="tick" opacity="1" transform="translate(0,272.6951219512195)"><line stroke="#000" x2="-6"></line><text fill="#000" x="-9" dy="0.32em">20</text></g><g class="tick" opacity="1" transform="translate(0,234.890243902439)"><line stroke="#000" x2="-6"></line><text fill="#000" x="-9" dy="0.32em">40</text></g><g class="tick" opacity="1" transform="translate(0,197.08536585365854)"><line stroke="#000" x2="-6"></line><text fill="#000" x="-9" dy="0.32em">60</text></g><g class="tick" opacity="1" transform="translate(0,159.28048780487805)"><line stroke="#000" x2="-6"></line><text fill="#000" x="-9" dy="0.32em">80</text></g><g class="tick" opacity="1" transform="translate(0,121.47560975609755)"><line stroke="#000" x2="-6"></line><text fill="#000" x="-9" dy="0.32em">100</text></g><g class="tick" opacity="1" transform="translate(0,83.67073170731709)"><line stroke="#000" x2="-6"></line><text fill="#000" x="-9" dy="0.32em">120</text></g><g class="tick" opacity="1" transform="translate(0,45.865853658536594)"><line stroke="#000" x2="-6"></line><text fill="#000" x="-9" dy="0.32em">140</text></g><g class="tick" opacity="1" transform="translate(0,8.060975609756099)"><line stroke="#000" x2="-6"></line><text fill="#000" x="-9" dy="0.32em">160</text></g></g></g></svg>