<svg xmlns="http://www.w3.org/2000/svg" width="280" height="160"><defs><style type="text/css"><![CDATA[ 
.bar rect {
  fill-opacity: 0;
  stroke:       black;
  stroke-width: 0.5;
}

.highlight rect {
  fill:       red;
  fill-opacity: 1;
}
.axis path,
.axis line {
  fill: none;
  stroke: #000;
  shape-rendering: crispEdges;
}
path {
    stroke: red;
    fill: none;
}

line {
    stroke: red;
}

path.marker {
    fill: red;
}
 ]]></style></defs><g transform="translate(50,10)"><g class="bar" transform="translate(0,118.72340425531915)"><rect x="1" width="11.5" height="1.2765957446808471"></rect></g><g class="bar" transform="translate(12.5,113.93617021276596)"><rect x="1" width="11.5" height="6.063829787234042"></rect></g><g class="bar" transform="translate(25,106.91489361702128)"><rect x="1" width="11.5" height="13.085106382978722"></rect></g><g class="bar" transform="translate(37.5,90.31914893617021)"><rect x="1" width="11.5" height="29.68085106382979"></rect></g><g class="bar" transform="translate(50,63.829787234042556)"><rect x="1" width="11.5" height="56.170212765957444"></rect></g><g class="bar" transform="translate(62.5,20.744680851063833)"><rect x="1" width="11.5" height="99.25531914893617"></rect></g><g class="bar" transform="translate(75,0)"><rect x="1" width="11.5" height="120"></rect></g><g class="bar" transform="translate(87.5,19.148936170212764)"><rect x="1" width="11.5" height="100.85106382978724"></rect></g><g class="bar" transform="translate(100,7.9787234042553195)"><rect x="1" width="11.5" height="112.02127659574468"></rect></g><g class="bar" transform="translate(112.5,58.08510638297872)"><rect x="1" width="11.5" height="61.91489361702128"></rect></g><g class="bar" transform="translate(125,89.36170212765958)"><rect x="1" width="11.5" height="30.638297872340416"></rect></g><g class="bar" transform="translate(137.5,111.06382978723404)"><rect x="1" width="11.5" height="8.936170212765958"></rect></g><g class="bar" transform="translate(150,117.12765957446808)"><rect x="1" width="11.5" height="2.8723404255319167"></rect></g><g class="bar" transform="translate(162.5,118.72340425531915)"><rect x="1" width="11.5" height="1.2765957446808471"></rect></g><g class="bar" transform="translate(175,119.68085106382979)"><rect x="1" width="11.5" height="0.31914893617020823"></rect></g><g class="bar" transform="translate(187.5,120)"><rect x="1" width="11.5" height="0"></rect></g></g></svg>