<svg xmlns="http://www.w3.org/2000/svg" width="280" height="160"><defs><style type="text/css"><![CDATA[ 
.bar rect {
  fill-opacity: 0;
  stroke:       black;
  stroke-width: 0.5;
}

.highlight rect {
  fill:       red;
  fill-opacity: 1;
}
.axis path,
.axis line {
  fill: none;
  stroke: #000;
  shape-rendering: crispEdges;
}
 ]]></style></defs><g transform="translate(50,10)"><g class="bar" transform="translate(0,120)"><rect x="1" width="11.5" height="0"></rect></g><g class="bar" transform="translate(12.5,120)"><rect x="1" width="11.5" height="0"></rect></g><g class="bar" transform="translate(25,119.95317986734295)"><rect x="1" width="11.5" height="0.04682013265704654"></rect></g><g class="bar" transform="translate(37.5,118.96995708154506)"><rect x="1" width="11.5" height="1.0300429184549387"></rect></g><g class="bar" transform="translate(50,113.7261022239563)"><rect x="1" width="11.5" height="6.273897776043697"></rect></g><g class="bar" transform="translate(62.5,65.59500585251658)"><rect x="1" width="11.5" height="54.40499414748342"></rect></g><g class="bar" transform="translate(75,0)"><rect x="1" width="11.5" height="120"></rect></g><g class="bar" transform="translate(87.5,42.74678111587983)"><rect x="1" width="11.5" height="77.25321888412017"></rect></g><g class="bar" transform="translate(100,84.32305891533359)"><rect x="1" width="11.5" height="35.67694108466641"></rect></g><g class="bar" transform="translate(112.5,97.24541552867733)"><rect x="1" width="11.5" height="22.754584471322673"></rect></g><g class="bar" transform="translate(125,112.32149824424502)"><rect x="1" width="11.5" height="7.678501755754979"></rect></g><g class="bar" transform="translate(137.5,118.54857588763169)"><rect x="1" width="11.5" height="1.451424112368315"></rect></g><g class="bar" transform="translate(150,119.90635973468592)"><rect x="1" width="11.5" height="0.09364026531407887"></rect></g><g class="bar" transform="translate(162.5,120)"><rect x="1" width="11.5" height="0"></rect></g><g class="bar" transform="translate(175,120)"><rect x="1" width="11.5" height="0"></rect></g><g class="bar" transform="translate(187.5,120)"><rect x="1" width="11.5" height="0"></rect></g></g></svg>