<svg xmlns="http://www.w3.org/2000/svg" width="280" height="160"><defs><style type="text/css"><![CDATA[ 
.bar rect {
  fill-opacity: 0;
  stroke:       black;
  stroke-width: 0.5;
}

.highlight rect {
  fill:       red;
  fill-opacity: 1;
}
.axis path,
.axis line {
  fill: none;
  stroke: #000;
  shape-rendering: crispEdges;
}
path {
    stroke: red;
    fill: none;
}

line {
    stroke: red;
}

path.marker {
    fill: red;
}
 ]]></style></defs><g transform="translate(50,10)"><g class="bar" transform="translate(0,120)"><rect x="1" width="11.5" height="0"></rect></g><g class="bar" transform="translate(12.5,120)"><rect x="1" width="11.5" height="0"></rect></g><g class="bar" transform="translate(25,119.02571041948579)"><rect x="1" width="11.5" height="0.9742895805142098"></rect></g><g class="bar" transform="translate(37.5,97.18538565629228)"><rect x="1" width="11.5" height="22.814614343707717"></rect></g><g class="bar" transform="translate(50,41.326116373477674)"><rect x="1" width="11.5" height="78.67388362652233"></rect></g><g class="bar" transform="translate(62.5,0.6495263870094732)"><rect x="1" width="11.5" height="119.35047361299053"></rect></g><g class="bar" transform="translate(75,0)"><rect x="1" width="11.5" height="120"></rect></g><g class="bar" transform="translate(87.5,23.62652232746956)"><rect x="1" width="11.5" height="96.37347767253044"></rect></g><g class="bar" transform="translate(100,57.158322056833555)"><rect x="1" width="11.5" height="62.841677943166445"></rect></g><g class="bar" transform="translate(112.5,90.44654939106901)"><rect x="1" width="11.5" height="29.553450608930987"></rect></g><g class="bar" transform="translate(125,108.06495263870094)"><rect x="1" width="11.5" height="11.935047361299056"></rect></g><g class="bar" transform="translate(137.5,115.29093369418132)"><rect x="1" width="11.5" height="4.709066305818681"></rect></g><g class="bar" transform="translate(150,119.91880920162382)"><rect x="1" width="11.5" height="0.08119079837618415"></rect></g><g class="bar" transform="translate(162.5,120)"><rect x="1" width="11.5" height="0"></rect></g><g class="bar" transform="translate(175,120)"><rect x="1" width="11.5" height="0"></rect></g><g class="bar" transform="translate(187.5,120)"><rect x="1" width="11.5" height="0"></rect></g></g></svg>