<svg xmlns="http://www.w3.org/2000/svg" width="600" height="350"><defs><style type="text/css"><![CDATA[ 
.bar rect {
  fill-opacity: 0;
  stroke:       black;
  stroke-width: 0.5;
}

.highlight rect {
  fill:       red;
  fill-opacity: 1;
}
.axis path,
.axis line {
  fill: none;
  stroke: #000;
  shape-rendering: crispEdges;
}
path {
    stroke: red;
    fill: none;
}

line {
    stroke: red;
}

path.marker {
    fill: red;
}
 ]]></style></defs><g transform="translate(50,10)"><g class="bar" transform="translate(0,310)"><rect x="1" width="11.999999999999996" height="0"></rect></g><g class="bar" transform="translate(12.999999999999996,310)"><rect x="1" width="11.999999999999996" height="0"></rect></g><g class="bar" transform="translate(25.999999999999993,310)"><rect x="1" width="11.999999999999996" height="0"></rect></g><g class="bar" transform="translate(39.00000000000001,310)"><rect x="1" width="11.999999999999996" height="0"></rect></g><g class="bar" transform="translate(52,310)"><rect x="1" width="11.999999999999996" height="0"></rect></g><g class="bar" transform="translate(65,309.49263502454994)"><rect x="1" width="11.999999999999996" height="0.5073649754500593"></rect></g><g class="bar" transform="translate(78.00000000000001,306.95581014729953)"><rect x="1" width="11.999999999999996" height="3.0441898527004696"></rect></g><g class="bar" transform="translate(91.00000000000001,301.3747954173486)"><rect x="1" width="11.999999999999996" height="8.625204582651406"></rect></g><g class="bar" transform="translate(104,266.36661211129297)"><rect x="1" width="11.999999999999996" height="43.633387888707034"></rect></g><g class="bar" transform="translate(117,217.15220949263502)"><rect x="1" width="11.999999999999996" height="92.84779050736498"></rect></g><g class="bar" transform="translate(130,151.19476268412438)"><rect x="1" width="11.999999999999996" height="158.80523731587562"></rect></g><g class="bar" transform="translate(143,91.83306055646483)"><rect x="1" width="11.999999999999996" height="218.16693944353517"></rect></g><g class="bar" transform="translate(156.00000000000003,40.081833060556505)"><rect x="1" width="11.999999999999996" height="269.9181669394435"></rect></g><g class="bar" transform="translate(169,29.427168576104748)"><rect x="1" width="11.999999999999996" height="280.57283142389525"></rect></g><g class="bar" transform="translate(182.00000000000003,0)"><rect x="1" width="11.999999999999996" height="310"></rect></g><g class="bar" transform="translate(195,8.117839607201347)"><rect x="1" width="11.999999999999996" height="301.88216039279865"></rect></g><g class="bar" transform="translate(208,11.162029459901817)"><rect x="1" width="11.999999999999996" height="298.8379705400982"></rect></g><g class="bar" transform="translate(221.00000000000003,20.80196399345334)"><rect x="1" width="11.999999999999996" height="289.19803600654666"></rect></g><g class="bar" transform="translate(234,61.391162029459906)"><rect x="1" width="11.999999999999996" height="248.6088379705401"></rect></g><g class="bar" transform="translate(247.00000000000003,96.39934533551553)"><rect x="1" width="11.999999999999996" height="213.60065466448447"></rect></g><g class="bar" transform="translate(260,132.92962356792142)"><rect x="1" width="11.999999999999996" height="177.07037643207858"></rect></g><g class="bar" transform="translate(273,153.7315875613748)"><rect x="1" width="11.999999999999996" height="156.2684124386252"></rect></g><g class="bar" transform="translate(286,200.91653027823241)"><rect x="1" width="11.999999999999996" height="109.08346972176759"></rect></g><g class="bar" transform="translate(299.00000000000006,231.8657937806874)"><rect x="1" width="11.999999999999996" height="78.1342062193126"></rect></g><g class="bar" transform="translate(312.00000000000006,253.17512274959086)"><rect x="1" width="11.999999999999996" height="56.824877250409145"></rect></g><g class="bar" transform="translate(325,271.94762684124385)"><rect x="1" width="11.999999999999996" height="38.052373158756154"></rect></g><g class="bar" transform="translate(338,285.139116202946)"><rect x="1" width="11.999999999999996" height="24.860883797053987"></rect></g><g class="bar" transform="translate(351,285.139116202946)"><rect x="1" width="11.999999999999996" height="24.860883797053987"></rect></g><g class="bar" transform="translate(364.00000000000006,298.3306055646481)"><rect x="1" width="11.999999999999996" height="11.669394435351876"></rect></g><g class="bar" transform="translate(377.00000000000006,305.43371522094924)"><rect x="1" width="11.999999999999996" height="4.566284779050761"></rect></g><g class="bar" transform="translate(390,310)"><rect x="1" width="11.999999999999996" height="0"></rect></g><g class="bar" transform="translate(403,310)"><rect x="1" width="11.999999999999996" height="0"></rect></g><g class="bar" transform="translate(416,309.49263502454994)"><rect x="1" width="11.999999999999996" height="0.5073649754500593"></rect></g><g class="bar" transform="translate(429.00000000000006,310)"><rect x="1" width="11.999999999999996" height="0"></rect></g><g class="bar" transform="translate(442.00000000000006,310)"><rect x="1" width="11.999999999999996" height="0"></rect></g><g class="bar" transform="translate(455,310)"><rect x="1" width="11.999999999999996" height="0"></rect></g><g class="bar" transform="translate(468,310)"><rect x="1" width="11.999999999999996" height="0"></rect></g><g class="bar" transform="translate(481,310)"><rect x="1" width="11.999999999999996" height="0"></rect></g><g class="bar" transform="translate(494.00000000000006,310)"><rect x="1" width="11.999999999999996" height="0"></rect></g><g class="bar" transform="translate(507.00000000000006,310)"><rect x="1" width="11.999999999999996" height="0"></rect></g><g class="axis axis--x" transform="translate(0,310)" fill="none" font-size="10" font-family="sans-serif" text-anchor="middle"><path class="domain" stroke="#000" d="M0.5,6V0.5H520.5V6"></path><g class="tick" opacity="1" transform="translate(0.5,0)"><line stroke="#000" y2="6"></line><text fill="#000" y="9" dy="0.71em">0.01</text></g><g class="tick" opacity="1" transform="translate(130.5,0)"><line stroke="#000" y2="6"></line><text fill="#000" y="9" dy="0.71em">1</text></g><g class="tick" opacity="1" transform="translate(260.5,0)"><line stroke="#000" y2="6"></line><text fill="#000" y="9" dy="0.71em">100</text></g><g class="tick" opacity="1" transform="translate(390.5,0)"><line stroke="#000" y2="6"></line><text fill="#000" y="9" dy="0.71em">10000</text></g><g class="tick" opacity="1" transform="translate(520.5,0)"><line stroke="#000" y2="6"></line><text fill="#000" y="9" dy="0.71em"></text></g></g><g class="axis axis--y" fill="none" font-size="10" font-family="sans-serif" text-anchor="end"><path class="domain" stroke="#000" d="M-6,310.5H0.5V0.5H-6"></path><g class="tick" opacity="1" transform="translate(0,310.5)"><line stroke="#000" x2="-6"></line><text fill="#000" x="-9" dy="0.32em">0</text></g><g class="tick" opacity="1" transform="translate(0,285.1317512274959)"><line stroke="#000" x2="-6"></line><text fill="#000" x="-9" dy="0.32em">50</text></g><g class="tick" opacity="1" transform="translate(0,259.7635024549918)"><line stroke="#000" x2="-6"></line><text fill="#000" x="-9" dy="0.32em">100</text></g><g class="tick" opacity="1" transform="translate(0,234.39525368248772)"><line stroke="#000" x2="-6"></line><text fill="#000" x="-9" dy="0.32em">150</text></g><g class="tick" opacity="1" transform="translate(0,209.02700490998365)"><line stroke="#000" x2="-6"></line><text fill="#000" x="-9" dy="0.32em">200</text></g><g class="tick" opacity="1" transform="translate(0,183.65875613747954)"><line stroke="#000" x2="-6"></line><text fill="#000" x="-9" dy="0.32em">250</text></g><g class="tick" opacity="1" transform="translate(0,158.29050736497544)"><line stroke="#000" x2="-6"></line><text fill="#000" x="-9" dy="0.32em">300</text></g><g class="tick" opacity="1" transform="translate(0,132.92225859247137)"><line stroke="#000" x2="-6"></line><text fill="#000" x="-9" dy="0.32em">350</text></g><g class="tick" opacity="1" transform="translate(0,107.55400981996726)"><line stroke="#000" x2="-6"></line><text fill="#000" x="-9" dy="0.32em">400</text></g><g class="tick" opacity="1" transform="translate(0,82.18576104746316)"><line stroke="#000" x2="-6"></line><text fill="#000" x="-9" dy="0.32em">450</text></g><g class="tick" opacity="1" transform="translate(0,56.817512274959086)"><line stroke="#000" x2="-6"></line><text fill="#000" x="-9" dy="0.32em">500</text></g><g class="tick" opacity="1" transform="translate(0,31.449263502454983)"><line stroke="#000" x2="-6"></line><text fill="#000" x="-9" dy="0.32em">550</text></g><g class="tick" opacity="1" transform="translate(0,6.08101472995088)"><line stroke="#000" x2="-6"></line><text fill="#000" x="-9" dy="0.32em">600</text></g></g></g></svg>