<svg xmlns="http://www.w3.org/2000/svg" width="280" height="160"><defs><style type="text/css"><![CDATA[ 
.bar rect {
  fill-opacity: 0;
  stroke:       black;
  stroke-width: 0.5;
}

.highlight rect {
  fill:       red;
  fill-opacity: 1;
}
.axis path,
.axis line {
  fill: none;
  stroke: #000;
  shape-rendering: crispEdges;
}
 ]]></style></defs><g transform="translate(50,10)"><g class="bar" transform="translate(0,114.79041916167665)"><rect x="1" width="11.5" height="5.2095808383233475"></rect></g><g class="bar" transform="translate(12.5,99.52095808383234)"><rect x="1" width="11.5" height="20.47904191616766"></rect></g><g class="bar" transform="translate(25,76.07784431137725)"><rect x="1" width="11.5" height="43.92215568862275"></rect></g><g class="bar" transform="translate(37.5,55.8682634730539)"><rect x="1" width="11.5" height="64.1317365269461"></rect></g><g class="bar" transform="translate(50,37.9940119760479)"><rect x="1" width="11.5" height="82.0059880239521"></rect></g><g class="bar" transform="translate(62.5,5.658682634730539)"><rect x="1" width="11.5" height="114.34131736526946"></rect></g><g class="bar" transform="translate(75,0)"><rect x="1" width="11.5" height="120"></rect></g><g class="bar" transform="translate(87.5,3.8622754491018014)"><rect x="1" width="11.5" height="116.1377245508982"></rect></g><g class="bar" transform="translate(100,21.556886227544908)"><rect x="1" width="11.5" height="98.44311377245509"></rect></g><g class="bar" transform="translate(112.5,79.8502994011976)"><rect x="1" width="11.5" height="40.1497005988024"></rect></g><g class="bar" transform="translate(125,111.01796407185628)"><rect x="1" width="11.5" height="8.982035928143716"></rect></g><g class="bar" transform="translate(137.5,118.02395209580838)"><rect x="1" width="11.5" height="1.976047904191617"></rect></g><g class="bar" transform="translate(150,119.64071856287426)"><rect x="1" width="11.5" height="0.3592814371257447"></rect></g><g class="bar" transform="translate(162.5,119.73053892215569)"><rect x="1" width="11.5" height="0.26946107784431206"></rect></g><g class="bar" transform="translate(175,120)"><rect x="1" width="11.5" height="0"></rect></g><g class="bar" transform="translate(187.5,120)"><rect x="1" width="11.5" height="0"></rect></g></g></svg>