<svg xmlns="http://www.w3.org/2000/svg" width="600" height="350"><defs><style type="text/css"><![CDATA[ 
.bar rect {
  fill-opacity: 0;
  stroke:       black;
  stroke-width: 0.5;
}

.highlight rect {
  fill:       red;
  fill-opacity: 1;
}
.axis path,
.axis line {
  fill: none;
  stroke: #000;
  shape-rendering: crispEdges;
}
path {
    stroke: red;
    fill: none;
}

line {
    stroke: red;
}

path.marker {
    fill: red;
}
 ]]></style></defs><g transform="translate(50,10)"><g class="bar" transform="translate(0,273.8581730769231)"><rect x="1" width="11.999999999999996" height="36.141826923076906"></rect></g><g class="bar" transform="translate(12.999999999999996,254.48317307692307)"><rect x="1" width="11.999999999999996" height="55.516826923076934"></rect></g><g class="bar" transform="translate(25.999999999999993,251.12980769230768)"><rect x="1" width="11.999999999999996" height="58.87019230769232"></rect></g><g class="bar" transform="translate(39.00000000000001,205.6730769230769)"><rect x="1" width="11.999999999999996" height="104.3269230769231"></rect></g><g class="bar" transform="translate(52,179.9639423076923)"><rect x="1" width="11.999999999999996" height="130.0360576923077"></rect></g><g class="bar" transform="translate(65,172.8846153846154)"><rect x="1" width="11.999999999999996" height="137.1153846153846"></rect></g><g class="bar" transform="translate(78.00000000000001,142.7043269230769)"><rect x="1" width="11.999999999999996" height="167.2956730769231"></rect></g><g class="bar" transform="translate(91.00000000000001,119.60336538461539)"><rect x="1" width="11.999999999999996" height="190.3966346153846"></rect></g><g class="bar" transform="translate(104,92.03125)"><rect x="1" width="11.999999999999996" height="217.96875"></rect></g><g class="bar" transform="translate(117,77.5)"><rect x="1" width="11.999999999999996" height="232.5"></rect></g><g class="bar" transform="translate(130,64.08653846153848)"><rect x="1" width="11.999999999999996" height="245.91346153846152"></rect></g><g class="bar" transform="translate(143,24.96394230769232)"><rect x="1" width="11.999999999999996" height="285.0360576923077"></rect></g><g class="bar" transform="translate(156.00000000000003,42.84855769230768)"><rect x="1" width="11.999999999999996" height="267.1514423076923"></rect></g><g class="bar" transform="translate(169,9.314903846153811)"><rect x="1" width="11.999999999999996" height="300.6850961538462"></rect></g><g class="bar" transform="translate(182.00000000000003,8.569711538461547)"><rect x="1" width="11.999999999999996" height="301.43028846153845"></rect></g><g class="bar" transform="translate(195,0)"><rect x="1" width="11.999999999999996" height="310"></rect></g><g class="bar" transform="translate(208,9.6875)"><rect x="1" width="11.999999999999996" height="300.3125"></rect></g><g class="bar" transform="translate(221.00000000000003,40.985576923076906)"><rect x="1" width="11.999999999999996" height="269.0144230769231"></rect></g><g class="bar" transform="translate(234,74.14663461538461)"><rect x="1" width="11.999999999999996" height="235.8533653846154"></rect></g><g class="bar" transform="translate(247.00000000000003,83.08894230769229)"><rect x="1" width="11.999999999999996" height="226.9110576923077"></rect></g><g class="bar" transform="translate(260,121.09375)"><rect x="1" width="11.999999999999996" height="188.90625"></rect></g><g class="bar" transform="translate(273,183.31730769230768)"><rect x="1" width="11.999999999999996" height="126.68269230769232"></rect></g><g class="bar" transform="translate(286,207.90865384615387)"><rect x="1" width="11.999999999999996" height="102.09134615384613"></rect></g><g class="bar" transform="translate(299.00000000000006,221.3221153846154)"><rect x="1" width="11.999999999999996" height="88.67788461538461"></rect></g><g class="bar" transform="translate(312.00000000000006,246.28605769230768)"><rect x="1" width="11.999999999999996" height="63.71394230769232"></rect></g><g class="bar" transform="translate(325,276.8389423076923)"><rect x="1" width="11.999999999999996" height="33.16105769230768"></rect></g><g class="bar" transform="translate(338,285.0360576923077)"><rect x="1" width="11.999999999999996" height="24.96394230769232"></rect></g><g class="bar" transform="translate(351,300.68509615384613)"><rect x="1" width="11.999999999999996" height="9.314903846153868"></rect></g><g class="bar" transform="translate(364.00000000000006,308.1370192307692)"><rect x="1" width="11.999999999999996" height="1.8629807692307736"></rect></g><g class="bar" transform="translate(377.00000000000006,308.1370192307692)"><rect x="1" width="11.999999999999996" height="1.8629807692307736"></rect></g><g class="bar" transform="translate(390,310)"><rect x="1" width="11.999999999999996" height="0"></rect></g><g class="bar" transform="translate(403,310)"><rect x="1" width="11.999999999999996" height="0"></rect></g><g class="bar" transform="translate(416,310)"><rect x="1" width="11.999999999999996" height="0"></rect></g><g class="bar" transform="translate(429.00000000000006,310)"><rect x="1" width="11.999999999999996" height="0"></rect></g><g class="bar" transform="translate(442.00000000000006,310)"><rect x="1" width="11.999999999999996" height="0"></rect></g><g class="bar" transform="translate(455,310)"><rect x="1" width="11.999999999999996" height="0"></rect></g><g class="bar" transform="translate(468,310)"><rect x="1" width="11.999999999999996" height="0"></rect></g><g class="bar" transform="translate(481,310)"><rect x="1" width="11.999999999999996" height="0"></rect></g><g class="bar" transform="translate(494.00000000000006,310)"><rect x="1" width="11.999999999999996" height="0"></rect></g><g class="bar" transform="translate(507.00000000000006,310)"><rect x="1" width="11.999999999999996" height="0"></rect></g><g class="axis axis--x" transform="translate(0,310)" fill="none" font-size="10" font-family="sans-serif" text-anchor="middle"><path class="domain" stroke="#000" d="M0.5,6V0.5H520.5V6"></path><g class="tick" opacity="1" transform="translate(0.5,0)"><line stroke="#000" y2="6"></line><text fill="#000" y="9" dy="0.71em">0.01</text></g><g class="tick" opacity="1" transform="translate(130.5,0)"><line stroke="#000" y2="6"></line><text fill="#000" y="9" dy="0.71em">1</text></g><g class="tick" opacity="1" transform="translate(260.5,0)"><line stroke="#000" y2="6"></line><text fill="#000" y="9" dy="0.71em">100</text></g><g class="tick" opacity="1" transform="translate(390.5,0)"><line stroke="#000" y2="6"></line><text fill="#000" y="9" dy="0.71em">10000</text></g><g class="tick" opacity="1" transform="translate(520.5,0)"><line stroke="#000" y2="6"></line><text fill="#000" y="9" dy="0.71em"></text></g></g><g class="axis axis--y" fill="none" font-size="10" font-family="sans-serif" text-anchor="end"><path class="domain" stroke="#000" d="M-6,310.5H0.5V0.5H-6"></path><g class="tick" opacity="1" transform="translate(0,310.5)"><line stroke="#000" x2="-6"></line><text fill="#000" x="-9" dy="0.32em">0</text></g><g class="tick" opacity="1" transform="translate(0,273.24038461538464)"><line stroke="#000" x2="-6"></line><text fill="#000" x="-9" dy="0.32em">100</text></g><g class="tick" opacity="1" transform="translate(0,235.98076923076923)"><line stroke="#000" x2="-6"></line><text fill="#000" x="-9" dy="0.32em">200</text></g><g class="tick" opacity="1" transform="translate(0,198.72115384615387)"><line stroke="#000" x2="-6"></line><text fill="#000" x="-9" dy="0.32em">300</text></g><g class="tick" opacity="1" transform="translate(0,161.46153846153845)"><line stroke="#000" x2="-6"></line><text fill="#000" x="-9" dy="0.32em">400</text></g><g class="tick" opacity="1" transform="translate(0,124.2019230769231)"><line stroke="#000" x2="-6"></line><text fill="#000" x="-9" dy="0.32em">500</text></g><g class="tick" opacity="1" transform="translate(0,86.94230769230771)"><line stroke="#000" x2="-6"></line><text fill="#000" x="-9" dy="0.32em">600</text></g><g class="tick" opacity="1" transform="translate(0,49.68269230769232)"><line stroke="#000" x2="-6"></line><text fill="#000" x="-9" dy="0.32em">700</text></g><g class="tick" opacity="1" transform="translate(0,12.423076923076906)"><line stroke="#000" x2="-6"></line><text fill="#000" x="-9" dy="0.32em">800</text></g></g></g></svg>