<svg xmlns="http://www.w3.org/2000/svg" width="600" height="350"><defs><style type="text/css"><![CDATA[ 
.bar rect {
  fill-opacity: 0;
  stroke:       black;
  stroke-width: 0.5;
}

.highlight rect {
  fill:       red;
  fill-opacity: 1;
}
.axis path,
.axis line {
  fill: none;
  stroke: #000;
  shape-rendering: crispEdges;
}
path {
    stroke: red;
    fill: none;
}

line {
    stroke: red;
}

path.marker {
    fill: red;
}
 ]]></style></defs><g transform="translate(50,10)"><g class="bar" transform="translate(0,310)"><rect x="1" width="11.999999999999996" height="0"></rect></g><g class="bar" transform="translate(12.999999999999996,310)"><rect x="1" width="11.999999999999996" height="0"></rect></g><g class="bar" transform="translate(25.999999999999993,310)"><rect x="1" width="11.999999999999996" height="0"></rect></g><g class="bar" transform="translate(39.00000000000001,310)"><rect x="1" width="11.999999999999996" height="0"></rect></g><g class="bar" transform="translate(52,310)"><rect x="1" width="11.999999999999996" height="0"></rect></g><g class="bar" transform="translate(65,310)"><rect x="1" width="11.999999999999996" height="0"></rect></g><g class="bar" transform="translate(78.00000000000001,310)"><rect x="1" width="11.999999999999996" height="0"></rect></g><g class="bar" transform="translate(91.00000000000001,310)"><rect x="1" width="11.999999999999996" height="0"></rect></g><g class="bar" transform="translate(104,310)"><rect x="1" width="11.999999999999996" height="0"></rect></g><g class="bar" transform="translate(117,310)"><rect x="1" width="11.999999999999996" height="0"></rect></g><g class="bar" transform="translate(130,310)"><rect x="1" width="11.999999999999996" height="0"></rect></g><g class="bar" transform="translate(143,310)"><rect x="1" width="11.999999999999996" height="0"></rect></g><g class="bar" transform="translate(156.00000000000003,308.2584269662921)"><rect x="1" width="11.999999999999996" height="1.7415730337078799"></rect></g><g class="bar" transform="translate(169,304.7752808988764)"><rect x="1" width="11.999999999999996" height="5.224719101123583"></rect></g><g class="bar" transform="translate(182.00000000000003,287.35955056179773)"><rect x="1" width="11.999999999999996" height="22.640449438202268"></rect></g><g class="bar" transform="translate(195,268.2022471910112)"><rect x="1" width="11.999999999999996" height="41.797752808988776"></rect></g><g class="bar" transform="translate(208,226.40449438202248)"><rect x="1" width="11.999999999999996" height="83.59550561797752"></rect></g><g class="bar" transform="translate(221.00000000000003,168.93258426966293)"><rect x="1" width="11.999999999999996" height="141.06741573033707"></rect></g><g class="bar" transform="translate(234,125.3932584269663)"><rect x="1" width="11.999999999999996" height="184.6067415730337"></rect></g><g class="bar" transform="translate(247.00000000000003,71.40449438202248)"><rect x="1" width="11.999999999999996" height="238.59550561797752"></rect></g><g class="bar" transform="translate(260,55.73033707865167)"><rect x="1" width="11.999999999999996" height="254.26966292134833"></rect></g><g class="bar" transform="translate(273,0)"><rect x="1" width="11.999999999999996" height="310"></rect></g><g class="bar" transform="translate(286,80.11235955056179)"><rect x="1" width="11.999999999999996" height="229.8876404494382"></rect></g><g class="bar" transform="translate(299.00000000000006,83.59550561797752)"><rect x="1" width="11.999999999999996" height="226.40449438202248"></rect></g><g class="bar" transform="translate(312.00000000000006,151.51685393258427)"><rect x="1" width="11.999999999999996" height="158.48314606741573"></rect></g><g class="bar" transform="translate(325,156.74157303370788)"><rect x="1" width="11.999999999999996" height="153.25842696629212"></rect></g><g class="bar" transform="translate(338,217.69662921348316)"><rect x="1" width="11.999999999999996" height="92.30337078651684"></rect></g><g class="bar" transform="translate(351,208.98876404494382)"><rect x="1" width="11.999999999999996" height="101.01123595505618"></rect></g><g class="bar" transform="translate(364.00000000000006,262.97752808988764)"><rect x="1" width="11.999999999999996" height="47.02247191011236"></rect></g><g class="bar" transform="translate(377.00000000000006,280.39325842696627)"><rect x="1" width="11.999999999999996" height="29.60674157303373"></rect></g><g class="bar" transform="translate(390,301.29213483146066)"><rect x="1" width="11.999999999999996" height="8.707865168539342"></rect></g><g class="bar" transform="translate(403,308.2584269662921)"><rect x="1" width="11.999999999999996" height="1.7415730337078799"></rect></g><g class="bar" transform="translate(416,310)"><rect x="1" width="11.999999999999996" height="0"></rect></g><g class="bar" transform="translate(429.00000000000006,310)"><rect x="1" width="11.999999999999996" height="0"></rect></g><g class="bar" transform="translate(442.00000000000006,310)"><rect x="1" width="11.999999999999996" height="0"></rect></g><g class="bar" transform="translate(455,310)"><rect x="1" width="11.999999999999996" height="0"></rect></g><g class="bar" transform="translate(468,310)"><rect x="1" width="11.999999999999996" height="0"></rect></g><g class="bar" transform="translate(481,310)"><rect x="1" width="11.999999999999996" height="0"></rect></g><g class="bar" transform="translate(494.00000000000006,310)"><rect x="1" width="11.999999999999996" height="0"></rect></g><g class="bar" transform="translate(507.00000000000006,310)"><rect x="1" width="11.999999999999996" height="0"></rect></g><g class="axis axis--x" transform="translate(0,310)" fill="none" font-size="10" font-family="sans-serif" text-anchor="middle"><path class="domain" stroke="#000" d="M0.5,6V0.5H520.5V6"></path><g class="tick" opacity="1" transform="translate(0.5,0)"><line stroke="#000" y2="6"></line><text fill="#000" y="9" dy="0.71em">0.01</text></g><g class="tick" opacity="1" transform="translate(130.5,0)"><line stroke="#000" y2="6"></line><text fill="#000" y="9" dy="0.71em">1</text></g><g class="tick" opacity="1" transform="translate(260.5,0)"><line stroke="#000" y2="6"></line><text fill="#000" y="9" dy="0.71em">100</text></g><g class="tick" opacity="1" transform="translate(390.5,0)"><line stroke="#000" y2="6"></line><text fill="#000" y="9" dy="0.71em">10000</text></g><g class="tick" opacity="1" transform="translate(520.5,0)"><line stroke="#000" y2="6"></line><text fill="#000" y="9" dy="0.71em"></text></g></g><g class="axis axis--y" fill="none" font-size="10" font-family="sans-serif" text-anchor="end"><path class="domain" stroke="#000" d="M-6,310.5H0.5V0.5H-6"></path><g class="tick" opacity="1" transform="translate(0,310.5)"><line stroke="#000" x2="-6"></line><text fill="#000" x="-9" dy="0.32em">0</text></g><g class="tick" opacity="1" transform="translate(0,275.6685393258427)"><line stroke="#000" x2="-6"></line><text fill="#000" x="-9" dy="0.32em">20</text></g><g class="tick" opacity="1" transform="translate(0,240.83707865168537)"><line stroke="#000" x2="-6"></line><text fill="#000" x="-9" dy="0.32em">40</text></g><g class="tick" opacity="1" transform="translate(0,206.0056179775281)"><line stroke="#000" x2="-6"></line><text fill="#000" x="-9" dy="0.32em">60</text></g><g class="tick" opacity="1" transform="translate(0,171.17415730337078)"><line stroke="#000" x2="-6"></line><text fill="#000" x="-9" dy="0.32em">80</text></g><g class="tick" opacity="1" transform="translate(0,136.34269662921346)"><line stroke="#000" x2="-6"></line><text fill="#000" x="-9" dy="0.32em">100</text></g><g class="tick" opacity="1" transform="translate(0,101.51123595505618)"><line stroke="#000" x2="-6"></line><text fill="#000" x="-9" dy="0.32em">120</text></g><g class="tick" opacity="1" transform="translate(0,66.67977528089887)"><line stroke="#000" x2="-6"></line><text fill="#000" x="-9" dy="0.32em">140</text></g><g class="tick" opacity="1" transform="translate(0,31.848314606741553)"><line stroke="#000" x2="-6"></line><text fill="#000" x="-9" dy="0.32em">160</text></g></g></g></svg>