<svg xmlns="http://www.w3.org/2000/svg" width="280" height="160"><defs><style type="text/css"><![CDATA[ 
.bar rect {
  fill-opacity: 0;
  stroke:       black;
  stroke-width: 0.5;
}

.highlight rect {
  fill:       red;
  fill-opacity: 1;
}
.axis path,
.axis line {
  fill: none;
  stroke: #000;
  shape-rendering: crispEdges;
}
path {
    stroke: red;
    fill: none;
}

line {
    stroke: red;
}

path.marker {
    fill: red;
}
 ]]></style></defs><g transform="translate(50,10)"><g class="bar" transform="translate(0,120)"><rect x="1" width="11.5" height="0"></rect></g><g class="bar" transform="translate(12.5,120)"><rect x="1" width="11.5" height="0"></rect></g><g class="bar" transform="translate(25,120)"><rect x="1" width="11.5" height="0"></rect></g><g class="bar" transform="translate(37.5,120)"><rect x="1" width="11.5" height="0"></rect></g><g class="bar" transform="translate(50,120)"><rect x="1" width="11.5" height="0"></rect></g><g class="bar" transform="translate(62.5,114.86146095717883)"><rect x="1" width="11.5" height="5.138539042821165"></rect></g><g class="bar" transform="translate(75,87.95969773299748)"><rect x="1" width="11.5" height="32.04030226700252"></rect></g><g class="bar" transform="translate(87.5,32.342569269521405)"><rect x="1" width="11.5" height="87.6574307304786"></rect></g><g class="bar" transform="translate(100,0)"><rect x="1" width="11.5" height="120"></rect></g><g class="bar" transform="translate(112.5,35.365239294710335)"><rect x="1" width="11.5" height="84.63476070528966"></rect></g><g class="bar" transform="translate(125,68.6146095717884)"><rect x="1" width="11.5" height="51.38539042821159"></rect></g><g class="bar" transform="translate(137.5,97.93450881612091)"><rect x="1" width="11.5" height="22.06549118387909"></rect></g><g class="bar" transform="translate(150,118.18639798488665)"><rect x="1" width="11.5" height="1.8136020151133465"></rect></g><g class="bar" transform="translate(162.5,120)"><rect x="1" width="11.5" height="0"></rect></g><g class="bar" transform="translate(175,120)"><rect x="1" width="11.5" height="0"></rect></g><g class="bar" transform="translate(187.5,120)"><rect x="1" width="11.5" height="0"></rect></g></g></svg>