<svg xmlns="http://www.w3.org/2000/svg" width="600" height="350"><defs><style type="text/css"><![CDATA[ 
.bar rect {
  fill-opacity: 0;
  stroke:       black;
  stroke-width: 0.5;
}

.highlight rect {
  fill:       red;
  fill-opacity: 1;
}
.axis path,
.axis line {
  fill: none;
  stroke: #000;
  shape-rendering: crispEdges;
}
 ]]></style></defs><g transform="translate(50,10)"><g class="bar" transform="translate(0,298.48571428571427)"><rect x="1" width="11.999999999999996" height="11.514285714285734"></rect></g><g class="bar" transform="translate(12.999999999999996,298.48571428571427)"><rect x="1" width="11.999999999999996" height="11.514285714285734"></rect></g><g class="bar" transform="translate(25.999999999999993,298.48571428571427)"><rect x="1" width="11.999999999999996" height="11.514285714285734"></rect></g><g class="bar" transform="translate(39.00000000000001,298.48571428571427)"><rect x="1" width="11.999999999999996" height="11.514285714285734"></rect></g><g class="bar" transform="translate(52,297.6)"><rect x="1" width="11.999999999999996" height="12.399999999999977"></rect></g><g class="bar" transform="translate(65,282.54285714285714)"><rect x="1" width="11.999999999999996" height="27.457142857142856"></rect></g><g class="bar" transform="translate(78.00000000000001,259.51428571428573)"><rect x="1" width="11.999999999999996" height="50.485714285714266"></rect></g><g class="bar" transform="translate(91.00000000000001,227.62857142857143)"><rect x="1" width="11.999999999999996" height="82.37142857142857"></rect></g><g class="bar" transform="translate(104,190.42857142857142)"><rect x="1" width="11.999999999999996" height="119.57142857142858"></rect></g><g class="bar" transform="translate(117,125.77142857142857)"><rect x="1" width="11.999999999999996" height="184.22857142857143"></rect></g><g class="bar" transform="translate(130,89.45714285714286)"><rect x="1" width="11.999999999999996" height="220.54285714285714"></rect></g><g class="bar" transform="translate(143,38.08571428571429)"><rect x="1" width="11.999999999999996" height="271.9142857142857"></rect></g><g class="bar" transform="translate(156.00000000000003,20.371428571428567)"><rect x="1" width="11.999999999999996" height="289.62857142857143"></rect></g><g class="bar" transform="translate(169,40.74285714285713)"><rect x="1" width="11.999999999999996" height="269.25714285714287"></rect></g><g class="bar" transform="translate(182.00000000000003,0)"><rect x="1" width="11.999999999999996" height="310"></rect></g><g class="bar" transform="translate(195,14.171428571428578)"><rect x="1" width="11.999999999999996" height="295.8285714285714"></rect></g><g class="bar" transform="translate(208,11.514285714285734)"><rect x="1" width="11.999999999999996" height="298.48571428571427"></rect></g><g class="bar" transform="translate(221.00000000000003,43.39999999999998)"><rect x="1" width="11.999999999999996" height="266.6"></rect></g><g class="bar" transform="translate(234,79.7142857142857)"><rect x="1" width="11.999999999999996" height="230.2857142857143"></rect></g><g class="bar" transform="translate(247.00000000000003,108.94285714285715)"><rect x="1" width="11.999999999999996" height="201.05714285714285"></rect></g><g class="bar" transform="translate(260,162.0857142857143)"><rect x="1" width="11.999999999999996" height="147.9142857142857"></rect></g><g class="bar" transform="translate(273,167.4)"><rect x="1" width="11.999999999999996" height="142.6"></rect></g><g class="bar" transform="translate(286,199.28571428571428)"><rect x="1" width="11.999999999999996" height="110.71428571428572"></rect></g><g class="bar" transform="translate(299.00000000000006,226.74285714285713)"><rect x="1" width="11.999999999999996" height="83.25714285714287"></rect></g><g class="bar" transform="translate(312.00000000000006,241.8)"><rect x="1" width="11.999999999999996" height="68.19999999999999"></rect></g><g class="bar" transform="translate(325,246.22857142857143)"><rect x="1" width="11.999999999999996" height="63.77142857142857"></rect></g><g class="bar" transform="translate(338,281.65714285714284)"><rect x="1" width="11.999999999999996" height="28.342857142857156"></rect></g><g class="bar" transform="translate(351,255.97142857142856)"><rect x="1" width="11.999999999999996" height="54.02857142857144"></rect></g><g class="bar" transform="translate(364.00000000000006,286.0857142857143)"><rect x="1" width="11.999999999999996" height="23.91428571428571"></rect></g><g class="bar" transform="translate(377.00000000000006,302.0285714285714)"><rect x="1" width="11.999999999999996" height="7.971428571428589"></rect></g><g class="bar" transform="translate(390,304.6857142857143)"><rect x="1" width="11.999999999999996" height="5.314285714285688"></rect></g><g class="bar" transform="translate(403,307.34285714285716)"><rect x="1" width="11.999999999999996" height="2.657142857142844"></rect></g><g class="bar" transform="translate(416,309.1142857142857)"><rect x="1" width="11.999999999999996" height="0.8857142857143003"></rect></g><g class="bar" transform="translate(429.00000000000006,309.1142857142857)"><rect x="1" width="11.999999999999996" height="0.8857142857143003"></rect></g><g class="bar" transform="translate(442.00000000000006,310)"><rect x="1" width="11.999999999999996" height="0"></rect></g><g class="bar" transform="translate(455,310)"><rect x="1" width="11.999999999999996" height="0"></rect></g><g class="bar" transform="translate(468,310)"><rect x="1" width="11.999999999999996" height="0"></rect></g><g class="bar" transform="translate(481,310)"><rect x="1" width="11.999999999999996" height="0"></rect></g><g class="bar" transform="translate(494.00000000000006,310)"><rect x="1" width="11.999999999999996" height="0"></rect></g><g class="bar" transform="translate(507.00000000000006,310)"><rect x="1" width="11.999999999999996" height="0"></rect></g><g class="axis axis--x" transform="translate(0,310)" fill="none" font-size="10" font-family="sans-serif" text-anchor="middle"><path class="domain" stroke="#000" d="M0.5,6V0.5H520.5V6"></path><g class="tick" opacity="1" transform="translate(0,0)"><line stroke="#000" y2="6" x1="0.5" x2="0.5"></line><text fill="#000" y="9" x="0.5" dy="0.71em">0.01</text></g><g class="tick" opacity="1" transform="translate(130,0)"><line stroke="#000" y2="6" x1="0.5" x2="0.5"></line><text fill="#000" y="9" x="0.5" dy="0.71em">1</text></g><g class="tick" opacity="1" transform="translate(260,0)"><line stroke="#000" y2="6" x1="0.5" x2="0.5"></line><text fill="#000" y="9" x="0.5" dy="0.71em">100</text></g><g class="tick" opacity="1" transform="translate(390,0)"><line stroke="#000" y2="6" x1="0.5" x2="0.5"></line><text fill="#000" y="9" x="0.5" dy="0.71em">10000</text></g><g class="tick" opacity="1" transform="translate(520,0)"><line stroke="#000" y2="6" x1="0.5" x2="0.5"></line><text fill="#000" y="9" x="0.5" dy="0.71em"></text></g></g><g class="axis axis--y" fill="none" font-size="10" font-family="sans-serif" text-anchor="end"><path class="domain" stroke="#000" d="M-6,310.5H0.5V0.5H-6"></path><g class="tick" opacity="1" transform="translate(0,310)"><line stroke="#000" x2="-6" y1="0.5" y2="0.5"></line><text fill="#000" x="-9" y="0.5" dy="0.32em">0</text></g><g class="tick" opacity="1" transform="translate(0,265.7142857142857)"><line stroke="#000" x2="-6" y1="0.5" y2="0.5"></line><text fill="#000" x="-9" y="0.5" dy="0.32em">50</text></g><g class="tick" opacity="1" transform="translate(0,221.42857142857144)"><line stroke="#000" x2="-6" y1="0.5" y2="0.5"></line><text fill="#000" x="-9" y="0.5" dy="0.32em">100</text></g><g class="tick" opacity="1" transform="translate(0,177.14285714285714)"><line stroke="#000" x2="-6" y1="0.5" y2="0.5"></line><text fill="#000" x="-9" y="0.5" dy="0.32em">150</text></g><g class="tick" opacity="1" transform="translate(0,132.85714285714286)"><line stroke="#000" x2="-6" y1="0.5" y2="0.5"></line><text fill="#000" x="-9" y="0.5" dy="0.32em">200</text></g><g class="tick" opacity="1" transform="translate(0,88.57142857142856)"><line stroke="#000" x2="-6" y1="0.5" y2="0.5"></line><text fill="#000" x="-9" y="0.5" dy="0.32em">250</text></g><g class="tick" opacity="1" transform="translate(0,44.28571428571428)"><line stroke="#000" x2="-6" y1="0.5" y2="0.5"></line><text fill="#000" x="-9" y="0.5" dy="0.32em">300</text></g><g class="tick" opacity="1" transform="translate(0,0)"><line stroke="#000" x2="-6" y1="0.5" y2="0.5"></line><text fill="#000" x="-9" y="0.5" dy="0.32em">350</text></g></g></g></svg>