<svg xmlns="http://www.w3.org/2000/svg" width="600" height="350"><defs><style type="text/css"><![CDATA[ 
.bar rect {
  fill-opacity: 0;
  stroke:       black;
  stroke-width: 0.5;
}

.highlight rect {
  fill:       red;
  fill-opacity: 1;
}
.axis path,
.axis line {
  fill: none;
  stroke: #000;
  shape-rendering: crispEdges;
}
path {
    stroke: red;
    fill: none;
}

line {
    stroke: red;
}

path.marker {
    fill: red;
}
 ]]></style></defs><g transform="translate(50,10)"><g class="bar" transform="translate(0,310)"><rect x="1" width="11.999999999999996" height="0"></rect></g><g class="bar" transform="translate(12.999999999999996,310)"><rect x="1" width="11.999999999999996" height="0"></rect></g><g class="bar" transform="translate(25.999999999999993,308.8212927756654)"><rect x="1" width="11.999999999999996" height="1.1787072243345733"></rect></g><g class="bar" transform="translate(39.00000000000001,302.9277566539924)"><rect x="1" width="11.999999999999996" height="7.07224334600761"></rect></g><g class="bar" transform="translate(52,300.5703422053232)"><rect x="1" width="11.999999999999996" height="9.429657794676814"></rect></g><g class="bar" transform="translate(65,280.532319391635)"><rect x="1" width="11.999999999999996" height="29.467680608365015"></rect></g><g class="bar" transform="translate(78.00000000000001,264.03041825095056)"><rect x="1" width="11.999999999999996" height="45.96958174904944"></rect></g><g class="bar" transform="translate(91.00000000000001,258.1368821292776)"><rect x="1" width="11.999999999999996" height="51.86311787072242"></rect></g><g class="bar" transform="translate(104,236.92015209125475)"><rect x="1" width="11.999999999999996" height="73.07984790874525"></rect></g><g class="bar" transform="translate(117,203.91634980988596)"><rect x="1" width="11.999999999999996" height="106.08365019011404"></rect></g><g class="bar" transform="translate(130,198.02281368821292)"><rect x="1" width="11.999999999999996" height="111.97718631178708"></rect></g><g class="bar" transform="translate(143,130.8365019011407)"><rect x="1" width="11.999999999999996" height="179.1634980988593"></rect></g><g class="bar" transform="translate(156.00000000000003,89.58174904942967)"><rect x="1" width="11.999999999999996" height="220.41825095057033"></rect></g><g class="bar" transform="translate(169,31.82509505703422)"><rect x="1" width="11.999999999999996" height="278.1749049429658"></rect></g><g class="bar" transform="translate(182.00000000000003,40.0760456273764)"><rect x="1" width="11.999999999999996" height="269.9239543726236"></rect></g><g class="bar" transform="translate(195,34.18250950570342)"><rect x="1" width="11.999999999999996" height="275.8174904942966"></rect></g><g class="bar" transform="translate(208,0)"><rect x="1" width="11.999999999999996" height="310"></rect></g><g class="bar" transform="translate(221.00000000000003,69.54372623574145)"><rect x="1" width="11.999999999999996" height="240.45627376425855"></rect></g><g class="bar" transform="translate(234,83.68821292775664)"><rect x="1" width="11.999999999999996" height="226.31178707224336"></rect></g><g class="bar" transform="translate(247.00000000000003,68.36501901140684)"><rect x="1" width="11.999999999999996" height="241.63498098859316"></rect></g><g class="bar" transform="translate(260,80.15209125475286)"><rect x="1" width="11.999999999999996" height="229.84790874524714"></rect></g><g class="bar" transform="translate(273,75.43726235741443)"><rect x="1" width="11.999999999999996" height="234.56273764258557"></rect></g><g class="bar" transform="translate(286,169.7338403041825)"><rect x="1" width="11.999999999999996" height="140.2661596958175"></rect></g><g class="bar" transform="translate(299.00000000000006,206.27376425855516)"><rect x="1" width="11.999999999999996" height="103.72623574144484"></rect></g><g class="bar" transform="translate(312.00000000000006,223.95437262357416)"><rect x="1" width="11.999999999999996" height="86.04562737642584"></rect></g><g class="bar" transform="translate(325,231.02661596958174)"><rect x="1" width="11.999999999999996" height="78.97338403041826"></rect></g><g class="bar" transform="translate(338,261.67300380228136)"><rect x="1" width="11.999999999999996" height="48.32699619771864"></rect></g><g class="bar" transform="translate(351,284.06844106463876)"><rect x="1" width="11.999999999999996" height="25.931558935361238"></rect></g><g class="bar" transform="translate(364.00000000000006,282.8897338403042)"><rect x="1" width="11.999999999999996" height="27.11026615969581"></rect></g><g class="bar" transform="translate(377.00000000000006,297.0342205323194)"><rect x="1" width="11.999999999999996" height="12.96577946768059"></rect></g><g class="bar" transform="translate(390,301.7490494296578)"><rect x="1" width="11.999999999999996" height="8.250950570342184"></rect></g><g class="bar" transform="translate(403,307.6425855513308)"><rect x="1" width="11.999999999999996" height="2.3574144486692035"></rect></g><g class="bar" transform="translate(416,307.6425855513308)"><rect x="1" width="11.999999999999996" height="2.3574144486692035"></rect></g><g class="bar" transform="translate(429.00000000000006,308.8212927756654)"><rect x="1" width="11.999999999999996" height="1.1787072243345733"></rect></g><g class="bar" transform="translate(442.00000000000006,308.8212927756654)"><rect x="1" width="11.999999999999996" height="1.1787072243345733"></rect></g><g class="bar" transform="translate(455,310)"><rect x="1" width="11.999999999999996" height="0"></rect></g><g class="bar" transform="translate(468,310)"><rect x="1" width="11.999999999999996" height="0"></rect></g><g class="bar" transform="translate(481,310)"><rect x="1" width="11.999999999999996" height="0"></rect></g><g class="bar" transform="translate(494.00000000000006,310)"><rect x="1" width="11.999999999999996" height="0"></rect></g><g class="bar" transform="translate(507.00000000000006,310)"><rect x="1" width="11.999999999999996" height="0"></rect></g><g class="axis axis--x" transform="translate(0,310)" fill="none" font-size="10" font-family="sans-serif" text-anchor="middle"><path class="domain" stroke="#000" d="M0.5,6V0.5H520.5V6"></path><g class="tick" opacity="1" transform="translate(0.5,0)"><line stroke="#000" y2="6"></line><text fill="#000" y="9" dy="0.71em">0.01</text></g><g class="tick" opacity="1" transform="translate(130.5,0)"><line stroke="#000" y2="6"></line><text fill="#000" y="9" dy="0.71em">1</text></g><g class="tick" opacity="1" transform="translate(260.5,0)"><line stroke="#000" y2="6"></line><text fill="#000" y="9" dy="0.71em">100</text></g><g class="tick" opacity="1" transform="translate(390.5,0)"><line stroke="#000" y2="6"></line><text fill="#000" y="9" dy="0.71em">10000</text></g><g class="tick" opacity="1" transform="translate(520.5,0)"><line stroke="#000" y2="6"></line><text fill="#000" y="9" dy="0.71em"></text></g></g><g class="axis axis--y" fill="none" font-size="10" font-family="sans-serif" text-anchor="end"><path class="domain" stroke="#000" d="M-6,310.5H0.5V0.5H-6"></path><g class="tick" opacity="1" transform="translate(0,310.5)"><line stroke="#000" x2="-6"></line><text fill="#000" x="-9" dy="0.32em">0</text></g><g class="tick" opacity="1" transform="translate(0,286.92585551330797)"><line stroke="#000" x2="-6"></line><text fill="#000" x="-9" dy="0.32em">20</text></g><g class="tick" opacity="1" transform="translate(0,263.351711026616)"><line stroke="#000" x2="-6"></line><text fill="#000" x="-9" dy="0.32em">40</text></g><g class="tick" opacity="1" transform="translate(0,239.77756653992395)"><line stroke="#000" x2="-6"></line><text fill="#000" x="-9" dy="0.32em">60</text></g><g class="tick" opacity="1" transform="translate(0,216.20342205323195)"><line stroke="#000" x2="-6"></line><text fill="#000" x="-9" dy="0.32em">80</text></g><g class="tick" opacity="1" transform="translate(0,192.62927756653994)"><line stroke="#000" x2="-6"></line><text fill="#000" x="-9" dy="0.32em">100</text></g><g class="tick" opacity="1" transform="translate(0,169.0551330798479)"><line stroke="#000" x2="-6"></line><text fill="#000" x="-9" dy="0.32em">120</text></g><g class="tick" opacity="1" transform="translate(0,145.4809885931559)"><line stroke="#000" x2="-6"></line><text fill="#000" x="-9" dy="0.32em">140</text></g><g class="tick" opacity="1" transform="translate(0,121.9068441064639)"><line stroke="#000" x2="-6"></line><text fill="#000" x="-9" dy="0.32em">160</text></g><g class="tick" opacity="1" transform="translate(0,98.33269961977189)"><line stroke="#000" x2="-6"></line><text fill="#000" x="-9" dy="0.32em">180</text></g><g class="tick" opacity="1" transform="translate(0,74.75855513307985)"><line stroke="#000" x2="-6"></line><text fill="#000" x="-9" dy="0.32em">200</text></g><g class="tick" opacity="1" transform="translate(0,51.184410646387846)"><line stroke="#000" x2="-6"></line><text fill="#000" x="-9" dy="0.32em">220</text></g><g class="tick" opacity="1" transform="translate(0,27.61026615969581)"><line stroke="#000" x2="-6"></line><text fill="#000" x="-9" dy="0.32em">240</text></g><g class="tick" opacity="1" transform="translate(0,4.036121673003777)"><line stroke="#000" x2="-6"></line><text fill="#000" x="-9" dy="0.32em">260</text></g></g></g></svg>