<svg xmlns="http://www.w3.org/2000/svg" width="600" height="350"><defs><style type="text/css"><![CDATA[ 
.bar rect {
  fill-opacity: 0;
  stroke:       black;
  stroke-width: 0.5;
}

.highlight rect {
  fill:       red;
  fill-opacity: 1;
}
.axis path,
.axis line {
  fill: none;
  stroke: #000;
  shape-rendering: crispEdges;
}
 ]]></style></defs><g transform="translate(50,10)"><g class="bar" transform="translate(0,310)"><rect x="1" width="11.999999999999996" height="0"></rect></g><g class="bar" transform="translate(12.999999999999996,310)"><rect x="1" width="11.999999999999996" height="0"></rect></g><g class="bar" transform="translate(25.999999999999993,310)"><rect x="1" width="11.999999999999996" height="0"></rect></g><g class="bar" transform="translate(39.00000000000001,310)"><rect x="1" width="11.999999999999996" height="0"></rect></g><g class="bar" transform="translate(52,310)"><rect x="1" width="11.999999999999996" height="0"></rect></g><g class="bar" transform="translate(65,310)"><rect x="1" width="11.999999999999996" height="0"></rect></g><g class="bar" transform="translate(78.00000000000001,310)"><rect x="1" width="11.999999999999996" height="0"></rect></g><g class="bar" transform="translate(91.00000000000001,310)"><rect x="1" width="11.999999999999996" height="0"></rect></g><g class="bar" transform="translate(104,310)"><rect x="1" width="11.999999999999996" height="0"></rect></g><g class="bar" transform="translate(117,309.3634496919918)"><rect x="1" width="11.999999999999996" height="0.6365503080082249"></rect></g><g class="bar" transform="translate(130,307.45379876796716)"><rect x="1" width="11.999999999999996" height="2.5462012320328427"></rect></g><g class="bar" transform="translate(143,297.90554414784395)"><rect x="1" width="11.999999999999996" height="12.094455852156045"></rect></g><g class="bar" transform="translate(156.00000000000003,273.7166324435318)"><rect x="1" width="11.999999999999996" height="36.28336755646819"></rect></g><g class="bar" transform="translate(169,225.3388090349076)"><rect x="1" width="11.999999999999996" height="84.6611909650924"></rect></g><g class="bar" transform="translate(182.00000000000003,125.40041067761805)"><rect x="1" width="11.999999999999996" height="184.59958932238195"></rect></g><g class="bar" transform="translate(195,49.014373716632406)"><rect x="1" width="11.999999999999996" height="260.9856262833676"></rect></g><g class="bar" transform="translate(208,2.5462012320328427)"><rect x="1" width="11.999999999999996" height="307.45379876796716"></rect></g><g class="bar" transform="translate(221.00000000000003,0)"><rect x="1" width="11.999999999999996" height="310"></rect></g><g class="bar" transform="translate(234,54.10677618069815)"><rect x="1" width="11.999999999999996" height="255.89322381930185"></rect></g><g class="bar" transform="translate(247.00000000000003,47.10472279260779)"><rect x="1" width="11.999999999999996" height="262.8952772073922"></rect></g><g class="bar" transform="translate(260,59.19917864476386)"><rect x="1" width="11.999999999999996" height="250.80082135523614"></rect></g><g class="bar" transform="translate(273,84.6611909650924)"><rect x="1" width="11.999999999999996" height="225.3388090349076"></rect></g><g class="bar" transform="translate(286,119.67145790554414)"><rect x="1" width="11.999999999999996" height="190.32854209445586"></rect></g><g class="bar" transform="translate(299.00000000000006,175.0513347022587)"><rect x="1" width="11.999999999999996" height="134.9486652977413"></rect></g><g class="bar" transform="translate(312.00000000000006,234.2505133470226)"><rect x="1" width="11.999999999999996" height="75.7494866529774"></rect></g><g class="bar" transform="translate(325,265.44147843942505)"><rect x="1" width="11.999999999999996" height="44.558521560574945"></rect></g><g class="bar" transform="translate(338,277.5359342915811)"><rect x="1" width="11.999999999999996" height="32.4640657084189"></rect></g><g class="bar" transform="translate(351,283.264887063655)"><rect x="1" width="11.999999999999996" height="26.73511293634499"></rect></g><g class="bar" transform="translate(364.00000000000006,302.99794661190964)"><rect x="1" width="11.999999999999996" height="7.00205338809036"></rect></g><g class="bar" transform="translate(377.00000000000006,306.81724845995893)"><rect x="1" width="11.999999999999996" height="3.1827515400410675"></rect></g><g class="bar" transform="translate(390,307.45379876796716)"><rect x="1" width="11.999999999999996" height="2.5462012320328427"></rect></g><g class="bar" transform="translate(403,310)"><rect x="1" width="11.999999999999996" height="0"></rect></g><g class="bar" transform="translate(416,310)"><rect x="1" width="11.999999999999996" height="0"></rect></g><g class="bar" transform="translate(429.00000000000006,309.3634496919918)"><rect x="1" width="11.999999999999996" height="0.6365503080082249"></rect></g><g class="bar" transform="translate(442.00000000000006,310)"><rect x="1" width="11.999999999999996" height="0"></rect></g><g class="bar" transform="translate(455,310)"><rect x="1" width="11.999999999999996" height="0"></rect></g><g class="bar" transform="translate(468,310)"><rect x="1" width="11.999999999999996" height="0"></rect></g><g class="bar" transform="translate(481,310)"><rect x="1" width="11.999999999999996" height="0"></rect></g><g class="bar" transform="translate(494.00000000000006,310)"><rect x="1" width="11.999999999999996" height="0"></rect></g><g class="bar" transform="translate(507.00000000000006,310)"><rect x="1" width="11.999999999999996" height="0"></rect></g><g class="axis axis--x" transform="translate(0,310)" fill="none" font-size="10" font-family="sans-serif" text-anchor="middle"><path class="domain" stroke="#000" d="M0.5,6V0.5H520.5V6"></path><g class="tick" opacity="1" transform="translate(0,0)"><line stroke="#000" y2="6" x1="0.5" x2="0.5"></line><text fill="#000" y="9" x="0.5" dy="0.71em">0.01</text></g><g class="tick" opacity="1" transform="translate(130,0)"><line stroke="#000" y2="6" x1="0.5" x2="0.5"></line><text fill="#000" y="9" x="0.5" dy="0.71em">1</text></g><g class="tick" opacity="1" transform="translate(260,0)"><line stroke="#000" y2="6" x1="0.5" x2="0.5"></line><text fill="#000" y="9" x="0.5" dy="0.71em">100</text></g><g class="tick" opacity="1" transform="translate(390,0)"><line stroke="#000" y2="6" x1="0.5" x2="0.5"></line><text fill="#000" y="9" x="0.5" dy="0.71em">10000</text></g><g class="tick" opacity="1" transform="translate(520,0)"><line stroke="#000" y2="6" x1="0.5" x2="0.5"></line><text fill="#000" y="9" x="0.5" dy="0.71em"></text></g></g><g class="axis axis--y" fill="none" font-size="10" font-family="sans-serif" text-anchor="end"><path class="domain" stroke="#000" d="M-6,310.5H0.5V0.5H-6"></path><g class="tick" opacity="1" transform="translate(0,310)"><line stroke="#000" x2="-6" y1="0.5" y2="0.5"></line><text fill="#000" x="-9" y="0.5" dy="0.32em">0</text></g><g class="tick" opacity="1" transform="translate(0,278.1724845995893)"><line stroke="#000" x2="-6" y1="0.5" y2="0.5"></line><text fill="#000" x="-9" y="0.5" dy="0.32em">50</text></g><g class="tick" opacity="1" transform="translate(0,246.34496919917865)"><line stroke="#000" x2="-6" y1="0.5" y2="0.5"></line><text fill="#000" x="-9" y="0.5" dy="0.32em">100</text></g><g class="tick" opacity="1" transform="translate(0,214.51745379876797)"><line stroke="#000" x2="-6" y1="0.5" y2="0.5"></line><text fill="#000" x="-9" y="0.5" dy="0.32em">150</text></g><g class="tick" opacity="1" transform="translate(0,182.6899383983573)"><line stroke="#000" x2="-6" y1="0.5" y2="0.5"></line><text fill="#000" x="-9" y="0.5" dy="0.32em">200</text></g><g class="tick" opacity="1" transform="translate(0,150.86242299794662)"><line stroke="#000" x2="-6" y1="0.5" y2="0.5"></line><text fill="#000" x="-9" y="0.5" dy="0.32em">250</text></g><g class="tick" opacity="1" transform="translate(0,119.03490759753592)"><line stroke="#000" x2="-6" y1="0.5" y2="0.5"></line><text fill="#000" x="-9" y="0.5" dy="0.32em">300</text></g><g class="tick" opacity="1" transform="translate(0,87.20739219712524)"><line stroke="#000" x2="-6" y1="0.5" y2="0.5"></line><text fill="#000" x="-9" y="0.5" dy="0.32em">350</text></g><g class="tick" opacity="1" transform="translate(0,55.3798767967146)"><line stroke="#000" x2="-6" y1="0.5" y2="0.5"></line><text fill="#000" x="-9" y="0.5" dy="0.32em">400</text></g><g class="tick" opacity="1" transform="translate(0,23.552361396303866)"><line stroke="#000" x2="-6" y1="0.5" y2="0.5"></line><text fill="#000" x="-9" y="0.5" dy="0.32em">450</text></g></g></g></svg>