<svg xmlns="http://www.w3.org/2000/svg" width="600" height="350"><defs><style type="text/css"><![CDATA[ 
.bar rect {
  fill-opacity: 0;
  stroke:       black;
  stroke-width: 0.5;
}

.highlight rect {
  fill:       red;
  fill-opacity: 1;
}
.axis path,
.axis line {
  fill: none;
  stroke: #000;
  shape-rendering: crispEdges;
}
 ]]></style></defs><g transform="translate(50,10)"><g class="bar" transform="translate(0,240)"><rect x="1" width="11.999999999999996" height="70"></rect></g><g class="bar" transform="translate(12.999999999999996,185.2173913043478)"><rect x="1" width="11.999999999999996" height="124.78260869565219"></rect></g><g class="bar" transform="translate(25.999999999999993,186.52173913043478)"><rect x="1" width="11.999999999999996" height="123.47826086956522"></rect></g><g class="bar" transform="translate(39.00000000000001,145.21739130434784)"><rect x="1" width="11.999999999999996" height="164.78260869565216"></rect></g><g class="bar" transform="translate(52,139.1304347826087)"><rect x="1" width="11.999999999999996" height="170.8695652173913"></rect></g><g class="bar" transform="translate(65,138.2608695652174)"><rect x="1" width="11.999999999999996" height="171.7391304347826"></rect></g><g class="bar" transform="translate(78.00000000000001,110.43478260869566)"><rect x="1" width="11.999999999999996" height="199.56521739130434"></rect></g><g class="bar" transform="translate(91.00000000000001,95.21739130434781)"><rect x="1" width="11.999999999999996" height="214.7826086956522"></rect></g><g class="bar" transform="translate(104,92.6086956521739)"><rect x="1" width="11.999999999999996" height="217.3913043478261"></rect></g><g class="bar" transform="translate(117,42.17391304347825)"><rect x="1" width="11.999999999999996" height="267.82608695652175"></rect></g><g class="bar" transform="translate(130,52.17391304347825)"><rect x="1" width="11.999999999999996" height="257.82608695652175"></rect></g><g class="bar" transform="translate(143,58.260869565217405)"><rect x="1" width="11.999999999999996" height="251.7391304347826"></rect></g><g class="bar" transform="translate(156.00000000000003,21.30434782608694)"><rect x="1" width="11.999999999999996" height="288.69565217391306"></rect></g><g class="bar" transform="translate(169,10.434782608695627)"><rect x="1" width="11.999999999999996" height="299.5652173913044"></rect></g><g class="bar" transform="translate(182.00000000000003,0)"><rect x="1" width="11.999999999999996" height="310"></rect></g><g class="bar" transform="translate(195,19.565217391304373)"><rect x="1" width="11.999999999999996" height="290.4347826086956"></rect></g><g class="bar" transform="translate(208,30.434782608695684)"><rect x="1" width="11.999999999999996" height="279.5652173913043"></rect></g><g class="bar" transform="translate(221.00000000000003,20.434782608695627)"><rect x="1" width="11.999999999999996" height="289.5652173913044"></rect></g><g class="bar" transform="translate(234,34.3478260869565)"><rect x="1" width="11.999999999999996" height="275.6521739130435"></rect></g><g class="bar" transform="translate(247.00000000000003,57.82608695652175)"><rect x="1" width="11.999999999999996" height="252.17391304347825"></rect></g><g class="bar" transform="translate(260,77.3913043478261)"><rect x="1" width="11.999999999999996" height="232.6086956521739"></rect></g><g class="bar" transform="translate(273,100.43478260869563)"><rect x="1" width="11.999999999999996" height="209.56521739130437"></rect></g><g class="bar" transform="translate(286,135.65217391304347)"><rect x="1" width="11.999999999999996" height="174.34782608695653"></rect></g><g class="bar" transform="translate(299.00000000000006,176.95652173913044)"><rect x="1" width="11.999999999999996" height="133.04347826086956"></rect></g><g class="bar" transform="translate(312.00000000000006,246.95652173913044)"><rect x="1" width="11.999999999999996" height="63.04347826086956"></rect></g><g class="bar" transform="translate(325,280)"><rect x="1" width="11.999999999999996" height="30"></rect></g><g class="bar" transform="translate(338,291.30434782608694)"><rect x="1" width="11.999999999999996" height="18.69565217391306"></rect></g><g class="bar" transform="translate(351,304.7826086956522)"><rect x="1" width="11.999999999999996" height="5.217391304347814"></rect></g><g class="bar" transform="translate(364.00000000000006,308.2608695652174)"><rect x="1" width="11.999999999999996" height="1.7391304347826235"></rect></g><g class="bar" transform="translate(377.00000000000006,307.39130434782606)"><rect x="1" width="11.999999999999996" height="2.6086956521739353"></rect></g><g class="bar" transform="translate(390,309.5652173913044)"><rect x="1" width="11.999999999999996" height="0.43478260869562746"></rect></g><g class="bar" transform="translate(403,309.5652173913044)"><rect x="1" width="11.999999999999996" height="0.43478260869562746"></rect></g><g class="bar" transform="translate(416,310)"><rect x="1" width="11.999999999999996" height="0"></rect></g><g class="bar" transform="translate(429.00000000000006,310)"><rect x="1" width="11.999999999999996" height="0"></rect></g><g class="bar" transform="translate(442.00000000000006,310)"><rect x="1" width="11.999999999999996" height="0"></rect></g><g class="bar" transform="translate(455,310)"><rect x="1" width="11.999999999999996" height="0"></rect></g><g class="bar" transform="translate(468,310)"><rect x="1" width="11.999999999999996" height="0"></rect></g><g class="bar" transform="translate(481,310)"><rect x="1" width="11.999999999999996" height="0"></rect></g><g class="bar" transform="translate(494.00000000000006,310)"><rect x="1" width="11.999999999999996" height="0"></rect></g><g class="bar" transform="translate(507.00000000000006,310)"><rect x="1" width="11.999999999999996" height="0"></rect></g><g class="axis axis--x" transform="translate(0,310)" fill="none" font-size="10" font-family="sans-serif" text-anchor="middle"><path class="domain" stroke="#000" d="M0.5,6V0.5H520.5V6"></path><g class="tick" opacity="1" transform="translate(0,0)"><line stroke="#000" y2="6" x1="0.5" x2="0.5"></line><text fill="#000" y="9" x="0.5" dy="0.71em">0.01</text></g><g class="tick" opacity="1" transform="translate(130,0)"><line stroke="#000" y2="6" x1="0.5" x2="0.5"></line><text fill="#000" y="9" x="0.5" dy="0.71em">1</text></g><g class="tick" opacity="1" transform="translate(260,0)"><line stroke="#000" y2="6" x1="0.5" x2="0.5"></line><text fill="#000" y="9" x="0.5" dy="0.71em">100</text></g><g class="tick" opacity="1" transform="translate(390,0)"><line stroke="#000" y2="6" x1="0.5" x2="0.5"></line><text fill="#000" y="9" x="0.5" dy="0.71em">10000</text></g><g class="tick" opacity="1" transform="translate(520,0)"><line stroke="#000" y2="6" x1="0.5" x2="0.5"></line><text fill="#000" y="9" x="0.5" dy="0.71em"></text></g></g><g class="axis axis--y" fill="none" font-size="10" font-family="sans-serif" text-anchor="end"><path class="domain" stroke="#000" d="M-6,310.5H0.5V0.5H-6"></path><g class="tick" opacity="1" transform="translate(0,310)"><line stroke="#000" x2="-6" y1="0.5" y2="0.5"></line><text fill="#000" x="-9" y="0.5" dy="0.32em">0</text></g><g class="tick" opacity="1" transform="translate(0,266.52173913043475)"><line stroke="#000" x2="-6" y1="0.5" y2="0.5"></line><text fill="#000" x="-9" y="0.5" dy="0.32em">100</text></g><g class="tick" opacity="1" transform="translate(0,223.04347826086956)"><line stroke="#000" x2="-6" y1="0.5" y2="0.5"></line><text fill="#000" x="-9" y="0.5" dy="0.32em">200</text></g><g class="tick" opacity="1" transform="translate(0,179.56521739130434)"><line stroke="#000" x2="-6" y1="0.5" y2="0.5"></line><text fill="#000" x="-9" y="0.5" dy="0.32em">300</text></g><g class="tick" opacity="1" transform="translate(0,136.08695652173913)"><line stroke="#000" x2="-6" y1="0.5" y2="0.5"></line><text fill="#000" x="-9" y="0.5" dy="0.32em">400</text></g><g class="tick" opacity="1" transform="translate(0,92.6086956521739)"><line stroke="#000" x2="-6" y1="0.5" y2="0.5"></line><text fill="#000" x="-9" y="0.5" dy="0.32em">500</text></g><g class="tick" opacity="1" transform="translate(0,49.13043478260869)"><line stroke="#000" x2="-6" y1="0.5" y2="0.5"></line><text fill="#000" x="-9" y="0.5" dy="0.32em">600</text></g><g class="tick" opacity="1" transform="translate(0,5.652173913043498)"><line stroke="#000" x2="-6" y1="0.5" y2="0.5"></line><text fill="#000" x="-9" y="0.5" dy="0.32em">700</text></g></g></g></svg>