<svg xmlns="http://www.w3.org/2000/svg" width="600" height="350"><defs><style type="text/css"><![CDATA[ 
.bar rect {
  fill-opacity: 0;
  stroke:       black;
  stroke-width: 0.5;
}

.highlight rect {
  fill:       red;
  fill-opacity: 1;
}
.axis path,
.axis line {
  fill: none;
  stroke: #000;
  shape-rendering: crispEdges;
}
 ]]></style></defs><g transform="translate(50,10)"><g class="bar" transform="translate(0,310)"><rect x="1" width="11.999999999999996" height="0"></rect></g><g class="bar" transform="translate(12.999999999999996,302.28855721393035)"><rect x="1" width="11.999999999999996" height="7.711442786069654"></rect></g><g class="bar" transform="translate(25.999999999999993,296.1194029850746)"><rect x="1" width="11.999999999999996" height="13.8805970149254"></rect></g><g class="bar" transform="translate(39.00000000000001,268.35820895522386)"><rect x="1" width="11.999999999999996" height="41.64179104477614"></rect></g><g class="bar" transform="translate(52,283.78109452736317)"><rect x="1" width="11.999999999999996" height="26.218905472636834"></rect></g><g class="bar" transform="translate(65,282.23880597014926)"><rect x="1" width="11.999999999999996" height="27.761194029850742"></rect></g><g class="bar" transform="translate(78.00000000000001,242.13930348258708)"><rect x="1" width="11.999999999999996" height="67.86069651741292"></rect></g><g class="bar" transform="translate(91.00000000000001,248.30845771144277)"><rect x="1" width="11.999999999999996" height="61.69154228855723"></rect></g><g class="bar" transform="translate(104,228.25870646766168)"><rect x="1" width="11.999999999999996" height="81.74129353233832"></rect></g><g class="bar" transform="translate(117,217.46268656716418)"><rect x="1" width="11.999999999999996" height="92.53731343283582"></rect></g><g class="bar" transform="translate(130,169.65174129353235)"><rect x="1" width="11.999999999999996" height="140.34825870646765"></rect></g><g class="bar" transform="translate(143,171.19402985074626)"><rect x="1" width="11.999999999999996" height="138.80597014925374"></rect></g><g class="bar" transform="translate(156.00000000000003,128.0099502487562)"><rect x="1" width="11.999999999999996" height="181.9900497512438"></rect></g><g class="bar" transform="translate(169,107.96019900497512)"><rect x="1" width="11.999999999999996" height="202.03980099502488"></rect></g><g class="bar" transform="translate(182.00000000000003,111.044776119403)"><rect x="1" width="11.999999999999996" height="198.955223880597"></rect></g><g class="bar" transform="translate(195,44.72636815920396)"><rect x="1" width="11.999999999999996" height="265.27363184079604"></rect></g><g class="bar" transform="translate(208,63.23383084577114)"><rect x="1" width="11.999999999999996" height="246.76616915422886"></rect></g><g class="bar" transform="translate(221.00000000000003,33.93034825870643)"><rect x="1" width="11.999999999999996" height="276.06965174129357"></rect></g><g class="bar" transform="translate(234,0)"><rect x="1" width="11.999999999999996" height="310"></rect></g><g class="bar" transform="translate(247.00000000000003,30.845771144278615)"><rect x="1" width="11.999999999999996" height="279.1542288557214"></rect></g><g class="bar" transform="translate(260,80.19900497512438)"><rect x="1" width="11.999999999999996" height="229.80099502487562"></rect></g><g class="bar" transform="translate(273,63.23383084577114)"><rect x="1" width="11.999999999999996" height="246.76616915422886"></rect></g><g class="bar" transform="translate(286,86.3681592039801)"><rect x="1" width="11.999999999999996" height="223.6318407960199"></rect></g><g class="bar" transform="translate(299.00000000000006,103.33333333333334)"><rect x="1" width="11.999999999999996" height="206.66666666666666"></rect></g><g class="bar" transform="translate(312.00000000000006,155.77114427860695)"><rect x="1" width="11.999999999999996" height="154.22885572139305"></rect></g><g class="bar" transform="translate(325,195.87064676616916)"><rect x="1" width="11.999999999999996" height="114.12935323383084"></rect></g><g class="bar" transform="translate(338,205.12437810945272)"><rect x="1" width="11.999999999999996" height="104.87562189054728"></rect></g><g class="bar" transform="translate(351,240.59701492537312)"><rect x="1" width="11.999999999999996" height="69.40298507462688"></rect></g><g class="bar" transform="translate(364.00000000000006,240.59701492537312)"><rect x="1" width="11.999999999999996" height="69.40298507462688"></rect></g><g class="bar" transform="translate(377.00000000000006,288.40796019900495)"><rect x="1" width="11.999999999999996" height="21.592039800995053"></rect></g><g class="bar" transform="translate(390,306.9154228855721)"><rect x="1" width="11.999999999999996" height="3.084577114427873"></rect></g><g class="bar" transform="translate(403,310)"><rect x="1" width="11.999999999999996" height="0"></rect></g><g class="bar" transform="translate(416,310)"><rect x="1" width="11.999999999999996" height="0"></rect></g><g class="bar" transform="translate(429.00000000000006,310)"><rect x="1" width="11.999999999999996" height="0"></rect></g><g class="bar" transform="translate(442.00000000000006,310)"><rect x="1" width="11.999999999999996" height="0"></rect></g><g class="bar" transform="translate(455,310)"><rect x="1" width="11.999999999999996" height="0"></rect></g><g class="bar" transform="translate(468,310)"><rect x="1" width="11.999999999999996" height="0"></rect></g><g class="bar" transform="translate(481,310)"><rect x="1" width="11.999999999999996" height="0"></rect></g><g class="bar" transform="translate(494.00000000000006,310)"><rect x="1" width="11.999999999999996" height="0"></rect></g><g class="bar" transform="translate(507.00000000000006,310)"><rect x="1" width="11.999999999999996" height="0"></rect></g><g class="axis axis--x" transform="translate(0,310)" fill="none" font-size="10" font-family="sans-serif" text-anchor="middle"><path class="domain" stroke="#000" d="M0.5,6V0.5H520.5V6"></path><g class="tick" opacity="1" transform="translate(0,0)"><line stroke="#000" y2="6" x1="0.5" x2="0.5"></line><text fill="#000" y="9" x="0.5" dy="0.71em">0.01</text></g><g class="tick" opacity="1" transform="translate(130,0)"><line stroke="#000" y2="6" x1="0.5" x2="0.5"></line><text fill="#000" y="9" x="0.5" dy="0.71em">1</text></g><g class="tick" opacity="1" transform="translate(260,0)"><line stroke="#000" y2="6" x1="0.5" x2="0.5"></line><text fill="#000" y="9" x="0.5" dy="0.71em">100</text></g><g class="tick" opacity="1" transform="translate(390,0)"><line stroke="#000" y2="6" x1="0.5" x2="0.5"></line><text fill="#000" y="9" x="0.5" dy="0.71em">10000</text></g><g class="tick" opacity="1" transform="translate(520,0)"><line stroke="#000" y2="6" x1="0.5" x2="0.5"></line><text fill="#000" y="9" x="0.5" dy="0.71em"></text></g></g><g class="axis axis--y" fill="none" font-size="10" font-family="sans-serif" text-anchor="end"><path class="domain" stroke="#000" d="M-6,310.5H0.5V0.5H-6"></path><g class="tick" opacity="1" transform="translate(0,310)"><line stroke="#000" x2="-6" y1="0.5" y2="0.5"></line><text fill="#000" x="-9" y="0.5" dy="0.32em">0</text></g><g class="tick" opacity="1" transform="translate(0,279.1542288557214)"><line stroke="#000" x2="-6" y1="0.5" y2="0.5"></line><text fill="#000" x="-9" y="0.5" dy="0.32em">20</text></g><g class="tick" opacity="1" transform="translate(0,248.30845771144277)"><line stroke="#000" x2="-6" y1="0.5" y2="0.5"></line><text fill="#000" x="-9" y="0.5" dy="0.32em">40</text></g><g class="tick" opacity="1" transform="translate(0,217.46268656716418)"><line stroke="#000" x2="-6" y1="0.5" y2="0.5"></line><text fill="#000" x="-9" y="0.5" dy="0.32em">60</text></g><g class="tick" opacity="1" transform="translate(0,186.61691542288557)"><line stroke="#000" x2="-6" y1="0.5" y2="0.5"></line><text fill="#000" x="-9" y="0.5" dy="0.32em">80</text></g><g class="tick" opacity="1" transform="translate(0,155.77114427860695)"><line stroke="#000" x2="-6" y1="0.5" y2="0.5"></line><text fill="#000" x="-9" y="0.5" dy="0.32em">100</text></g><g class="tick" opacity="1" transform="translate(0,124.92537313432837)"><line stroke="#000" x2="-6" y1="0.5" y2="0.5"></line><text fill="#000" x="-9" y="0.5" dy="0.32em">120</text></g><g class="tick" opacity="1" transform="translate(0,94.07960199004972)"><line stroke="#000" x2="-6" y1="0.5" y2="0.5"></line><text fill="#000" x="-9" y="0.5" dy="0.32em">140</text></g><g class="tick" opacity="1" transform="translate(0,63.23383084577114)"><line stroke="#000" x2="-6" y1="0.5" y2="0.5"></line><text fill="#000" x="-9" y="0.5" dy="0.32em">160</text></g><g class="tick" opacity="1" transform="translate(0,32.38805970149252)"><line stroke="#000" x2="-6" y1="0.5" y2="0.5"></line><text fill="#000" x="-9" y="0.5" dy="0.32em">180</text></g><g class="tick" opacity="1" transform="translate(0,1.542288557213908)"><line stroke="#000" x2="-6" y1="0.5" y2="0.5"></line><text fill="#000" x="-9" y="0.5" dy="0.32em">200</text></g></g></g></svg>