<svg xmlns="http://www.w3.org/2000/svg" width="600" height="350"><defs><style type="text/css"><![CDATA[ 
.bar rect {
  fill-opacity: 0;
  stroke:       black;
  stroke-width: 0.5;
}

.highlight rect {
  fill:       red;
  fill-opacity: 1;
}
.axis path,
.axis line {
  fill: none;
  stroke: #000;
  shape-rendering: crispEdges;
}
path {
    stroke: red;
    fill: none;
}

line {
    stroke: red;
}

path.marker {
    fill: red;
}
 ]]></style></defs><g transform="translate(50,10)"><g class="bar" transform="translate(0,310)"><rect x="1" width="5.500000000000005" height="0"></rect></g><g class="bar" transform="translate(6.500000000000005,310)"><rect x="1" width="5.500000000000005" height="0"></rect></g><g class="bar" transform="translate(12.999999999999996,310)"><rect x="1" width="5.500000000000005" height="0"></rect></g><g class="bar" transform="translate(19.500000000000004,310)"><rect x="1" width="5.500000000000005" height="0"></rect></g><g class="bar" transform="translate(25.999999999999993,310)"><rect x="1" width="5.500000000000005" height="0"></rect></g><g class="bar" transform="translate(32.5,310)"><rect x="1" width="5.500000000000005" height="0"></rect></g><g class="bar" transform="translate(39.00000000000001,310)"><rect x="1" width="5.500000000000005" height="0"></rect></g><g class="bar" transform="translate(45.500000000000014,310)"><rect x="1" width="5.500000000000005" height="0"></rect></g><g class="bar" transform="translate(52,310)"><rect x="1" width="5.500000000000005" height="0"></rect></g><g class="bar" transform="translate(58.49999999999999,310)"><rect x="1" width="5.500000000000005" height="0"></rect></g><g class="bar" transform="translate(65,310)"><rect x="1" width="5.500000000000005" height="0"></rect></g><g class="bar" transform="translate(71.5,310)"><rect x="1" width="5.500000000000005" height="0"></rect></g><g class="bar" transform="translate(78.00000000000001,310)"><rect x="1" width="5.500000000000005" height="0"></rect></g><g class="bar" transform="translate(84.5,308.8602941176471)"><rect x="1" width="5.500000000000005" height="1.1397058823529278"></rect></g><g class="bar" transform="translate(91.00000000000001,300.88235294117646)"><rect x="1" width="5.500000000000005" height="9.117647058823536"></rect></g><g class="bar" transform="translate(97.5,306.58088235294116)"><rect x="1" width="5.500000000000005" height="3.4191176470588402"></rect></g><g class="bar" transform="translate(104,307.72058823529414)"><rect x="1" width="5.500000000000005" height="2.2794117647058556"></rect></g><g class="bar" transform="translate(110.50000000000001,307.72058823529414)"><rect x="1" width="5.500000000000005" height="2.2794117647058556"></rect></g><g class="bar" transform="translate(117,304.3014705882353)"><rect x="1" width="5.500000000000005" height="5.698529411764696"></rect></g><g class="bar" transform="translate(123.50000000000001,300.88235294117646)"><rect x="1" width="5.500000000000005" height="9.117647058823536"></rect></g><g class="bar" transform="translate(130,300.88235294117646)"><rect x="1" width="5.500000000000005" height="9.117647058823536"></rect></g><g class="bar" transform="translate(136.5,294.04411764705884)"><rect x="1" width="5.500000000000005" height="15.95588235294116"></rect></g><g class="bar" transform="translate(143,300.88235294117646)"><rect x="1" width="5.500000000000005" height="9.117647058823536"></rect></g><g class="bar" transform="translate(149.50000000000003,297.4632352941176)"><rect x="1" width="5.500000000000005" height="12.536764705882376"></rect></g><g class="bar" transform="translate(156.00000000000003,298.6029411764706)"><rect x="1" width="5.500000000000005" height="11.397058823529392"></rect></g><g class="bar" transform="translate(162.5,288.34558823529414)"><rect x="1" width="5.500000000000005" height="21.654411764705856"></rect></g><g class="bar" transform="translate(169,275.80882352941177)"><rect x="1" width="5.500000000000005" height="34.19117647058823"></rect></g><g class="bar" transform="translate(175.5,264.4117647058823)"><rect x="1" width="5.500000000000005" height="45.58823529411768"></rect></g><g class="bar" transform="translate(182.00000000000003,241.61764705882354)"><rect x="1" width="5.500000000000005" height="68.38235294117646"></rect></g><g class="bar" transform="translate(188.50000000000003,232.5)"><rect x="1" width="5.500000000000005" height="77.5"></rect></g><g class="bar" transform="translate(195,200.58823529411762)"><rect x="1" width="5.500000000000005" height="109.41176470588238"></rect></g><g class="bar" transform="translate(201.5,190.33088235294116)"><rect x="1" width="5.500000000000005" height="119.66911764705884"></rect></g><g class="bar" transform="translate(208,149.30147058823528)"><rect x="1" width="5.500000000000005" height="160.69852941176472"></rect></g><g class="bar" transform="translate(214.50000000000003,153.86029411764707)"><rect x="1" width="5.500000000000005" height="156.13970588235293"></rect></g><g class="bar" transform="translate(221.00000000000003,124.22794117647061)"><rect x="1" width="5.500000000000005" height="185.7720588235294"></rect></g><g class="bar" transform="translate(227.5,63.823529411764724)"><rect x="1" width="5.500000000000005" height="246.17647058823528"></rect></g><g class="bar" transform="translate(234,115.11029411764707)"><rect x="1" width="5.500000000000005" height="194.88970588235293"></rect></g><g class="bar" transform="translate(240.5,34.19117647058823)"><rect x="1" width="5.500000000000005" height="275.80882352941177"></rect></g><g class="bar" transform="translate(247.00000000000003,29.632352941176464)"><rect x="1" width="5.500000000000005" height="280.36764705882354"></rect></g><g class="bar" transform="translate(253.50000000000003,53.56617647058823)"><rect x="1" width="5.500000000000005" height="256.43382352941177"></rect></g><g class="bar" transform="translate(260,17.095588235294144)"><rect x="1" width="5.500000000000005" height="292.90441176470586"></rect></g><g class="bar" transform="translate(266.50000000000006,0)"><rect x="1" width="5.500000000000005" height="310"></rect></g><g class="bar" transform="translate(273,35.33088235294122)"><rect x="1" width="5.500000000000005" height="274.6691176470588"></rect></g><g class="bar" transform="translate(279.5,22.794117647058783)"><rect x="1" width="5.500000000000005" height="287.2058823529412"></rect></g><g class="bar" transform="translate(286,36.470588235294144)"><rect x="1" width="5.500000000000005" height="273.52941176470586"></rect></g><g class="bar" transform="translate(292.5,44.448529411764696)"><rect x="1" width="5.500000000000005" height="265.5514705882353"></rect></g><g class="bar" transform="translate(299.00000000000006,123.08823529411765)"><rect x="1" width="5.500000000000005" height="186.91176470588235"></rect></g><g class="bar" transform="translate(305.5,153.86029411764707)"><rect x="1" width="5.500000000000005" height="156.13970588235293"></rect></g><g class="bar" transform="translate(312.00000000000006,202.86764705882354)"><rect x="1" width="5.500000000000005" height="107.13235294117646"></rect></g><g class="bar" transform="translate(318.5,225.66176470588238)"><rect x="1" width="5.500000000000005" height="84.33823529411762"></rect></g><g class="bar" transform="translate(325,259.8529411764706)"><rect x="1" width="5.500000000000005" height="50.14705882352939"></rect></g><g class="bar" transform="translate(331.50000000000006,281.50735294117646)"><rect x="1" width="5.500000000000005" height="28.492647058823536"></rect></g><g class="bar" transform="translate(338,280.36764705882354)"><rect x="1" width="5.500000000000005" height="29.632352941176464"></rect></g><g class="bar" transform="translate(344.50000000000006,286.06617647058823)"><rect x="1" width="5.500000000000005" height="23.933823529411768"></rect></g><g class="bar" transform="translate(351,297.4632352941176)"><rect x="1" width="5.500000000000005" height="12.536764705882376"></rect></g><g class="bar" transform="translate(357.5,302.0220588235294)"><rect x="1" width="5.500000000000005" height="7.977941176470608"></rect></g><g class="bar" transform="translate(364.00000000000006,305.44117647058823)"><rect x="1" width="5.500000000000005" height="4.558823529411768"></rect></g><g class="bar" transform="translate(370.5,306.58088235294116)"><rect x="1" width="5.500000000000005" height="3.4191176470588402"></rect></g><g class="bar" transform="translate(377.00000000000006,307.72058823529414)"><rect x="1" width="5.500000000000005" height="2.2794117647058556"></rect></g><g class="bar" transform="translate(383.5,310)"><rect x="1" width="5.500000000000005" height="0"></rect></g><g class="bar" transform="translate(390,305.44117647058823)"><rect x="1" width="5.500000000000005" height="4.558823529411768"></rect></g><g class="bar" transform="translate(396.50000000000006,310)"><rect x="1" width="5.500000000000005" height="0"></rect></g><g class="bar" transform="translate(403,310)"><rect x="1" width="5.500000000000005" height="0"></rect></g><g class="bar" transform="translate(409.50000000000006,310)"><rect x="1" width="5.500000000000005" height="0"></rect></g><g class="bar" transform="translate(416,310)"><rect x="1" width="5.500000000000005" height="0"></rect></g><g class="bar" transform="translate(422.5,310)"><rect x="1" width="5.500000000000005" height="0"></rect></g><g class="bar" transform="translate(429.00000000000006,310)"><rect x="1" width="5.500000000000005" height="0"></rect></g><g class="bar" transform="translate(435.5,310)"><rect x="1" width="5.500000000000005" height="0"></rect></g><g class="bar" transform="translate(442.00000000000006,310)"><rect x="1" width="5.500000000000005" height="0"></rect></g><g class="bar" transform="translate(448.5,310)"><rect x="1" width="5.500000000000005" height="0"></rect></g><g class="bar" transform="translate(455,310)"><rect x="1" width="5.500000000000005" height="0"></rect></g><g class="bar" transform="translate(461.50000000000006,310)"><rect x="1" width="5.500000000000005" height="0"></rect></g><g class="bar" transform="translate(468,310)"><rect x="1" width="5.500000000000005" height="0"></rect></g><g class="bar" transform="translate(474.50000000000006,310)"><rect x="1" width="5.500000000000005" height="0"></rect></g><g class="bar" transform="translate(481,310)"><rect x="1" width="5.500000000000005" height="0"></rect></g><g class="bar" transform="translate(487.5,310)"><rect x="1" width="5.500000000000005" height="0"></rect></g><g class="bar" transform="translate(494.00000000000006,310)"><rect x="1" width="5.500000000000005" height="0"></rect></g><g class="bar" transform="translate(500.5,310)"><rect x="1" width="5.500000000000005" height="0"></rect></g><g class="bar" transform="translate(507.00000000000006,310)"><rect x="1" width="5.500000000000005" height="0"></rect></g><g class="bar" transform="translate(513.5,310)"><rect x="1" width="5.500000000000005" height="0"></rect></g><g class="axis axis--x" transform="translate(0,310)" fill="none" font-size="10" font-family="sans-serif" text-anchor="middle"><path class="domain" stroke="#000" d="M0.5,6V0.5H520.5V6"></path><g class="tick" opacity="1" transform="translate(0.5,0)"><line stroke="#000" y2="6"></line><text fill="#000" y="9" dy="0.71em">0.01</text></g><g class="tick" opacity="1" transform="translate(130.5,0)"><line stroke="#000" y2="6"></line><text fill="#000" y="9" dy="0.71em">1</text></g><g class="tick" opacity="1" transform="translate(260.5,0)"><line stroke="#000" y2="6"></line><text fill="#000" y="9" dy="0.71em">100</text></g><g class="tick" opacity="1" transform="translate(390.5,0)"><line stroke="#000" y2="6"></line><text fill="#000" y="9" dy="0.71em">10000</text></g><g class="tick" opacity="1" transform="translate(520.5,0)"><line stroke="#000" y2="6"></line><text fill="#000" y="9" dy="0.71em"></text></g></g><g class="axis axis--y" fill="none" font-size="10" font-family="sans-serif" text-anchor="end"><path class="domain" stroke="#000" d="M-6,310.5H0.5V0.5H-6"></path><g class="tick" opacity="1" transform="translate(0,310.5)"><line stroke="#000" x2="-6"></line><text fill="#000" x="-9" dy="0.32em">0</text></g><g class="tick" opacity="1" transform="translate(0,287.70588235294116)"><line stroke="#000" x2="-6"></line><text fill="#000" x="-9" dy="0.32em">20</text></g><g class="tick" opacity="1" transform="translate(0,264.9117647058823)"><line stroke="#000" x2="-6"></line><text fill="#000" x="-9" dy="0.32em">40</text></g><g class="tick" opacity="1" transform="translate(0,242.11764705882354)"><line stroke="#000" x2="-6"></line><text fill="#000" x="-9" dy="0.32em">60</text></g><g class="tick" opacity="1" transform="translate(0,219.3235294117647)"><line stroke="#000" x2="-6"></line><text fill="#000" x="-9" dy="0.32em">80</text></g><g class="tick" opacity="1" transform="translate(0,196.52941176470586)"><line stroke="#000" x2="-6"></line><text fill="#000" x="-9" dy="0.32em">100</text></g><g class="tick" opacity="1" transform="translate(0,173.73529411764707)"><line stroke="#000" x2="-6"></line><text fill="#000" x="-9" dy="0.32em">120</text></g><g class="tick" opacity="1" transform="translate(0,150.94117647058826)"><line stroke="#000" x2="-6"></line><text fill="#000" x="-9" dy="0.32em">140</text></g><g class="tick" opacity="1" transform="translate(0,128.1470588235294)"><line stroke="#000" x2="-6"></line><text fill="#000" x="-9" dy="0.32em">160</text></g><g class="tick" opacity="1" transform="translate(0,105.35294117647061)"><line stroke="#000" x2="-6"></line><text fill="#000" x="-9" dy="0.32em">180</text></g><g class="tick" opacity="1" transform="translate(0,82.55882352941174)"><line stroke="#000" x2="-6"></line><text fill="#000" x="-9" dy="0.32em">200</text></g><g class="tick" opacity="1" transform="translate(0,59.76470588235293)"><line stroke="#000" x2="-6"></line><text fill="#000" x="-9" dy="0.32em">220</text></g><g class="tick" opacity="1" transform="translate(0,36.970588235294144)"><line stroke="#000" x2="-6"></line><text fill="#000" x="-9" dy="0.32em">240</text></g><g class="tick" opacity="1" transform="translate(0,14.176470588235304)"><line stroke="#000" x2="-6"></line><text fill="#000" x="-9" dy="0.32em">260</text></g></g></g></svg>