<svg xmlns="http://www.w3.org/2000/svg" width="600" height="350"><defs><style type="text/css"><![CDATA[ 
.bar rect {
  fill-opacity: 0;
  stroke:       black;
  stroke-width: 0.5;
}

.highlight rect {
  fill:       red;
  fill-opacity: 1;
}
.axis path,
.axis line {
  fill: none;
  stroke: #000;
  shape-rendering: crispEdges;
}
 ]]></style></defs><g transform="translate(50,10)"><g class="bar" transform="translate(0,310)"><rect x="1" width="11.999999999999996" height="0"></rect></g><g class="bar" transform="translate(12.999999999999996,310)"><rect x="1" width="11.999999999999996" height="0"></rect></g><g class="bar" transform="translate(25.999999999999993,310)"><rect x="1" width="11.999999999999996" height="0"></rect></g><g class="bar" transform="translate(39.00000000000001,310)"><rect x="1" width="11.999999999999996" height="0"></rect></g><g class="bar" transform="translate(52,310)"><rect x="1" width="11.999999999999996" height="0"></rect></g><g class="bar" transform="translate(65,310)"><rect x="1" width="11.999999999999996" height="0"></rect></g><g class="bar" transform="translate(78.00000000000001,280.33003300330034)"><rect x="1" width="11.999999999999996" height="29.669966996699657"></rect></g><g class="bar" transform="translate(91.00000000000001,305.9075907590759)"><rect x="1" width="11.999999999999996" height="4.092409240924098"></rect></g><g class="bar" transform="translate(104,308.976897689769)"><rect x="1" width="11.999999999999996" height="1.0231023102310246"></rect></g><g class="bar" transform="translate(117,304.8844884488449)"><rect x="1" width="11.999999999999996" height="5.115511551155123"></rect></g><g class="bar" transform="translate(130,277.26072607260727)"><rect x="1" width="11.999999999999996" height="32.73927392739273"></rect></g><g class="bar" transform="translate(143,282.3762376237624)"><rect x="1" width="11.999999999999996" height="27.623762376237607"></rect></g><g class="bar" transform="translate(156.00000000000003,283.3993399339934)"><rect x="1" width="11.999999999999996" height="26.600660066006583"></rect></g><g class="bar" transform="translate(169,235.31353135313532)"><rect x="1" width="11.999999999999996" height="74.68646864686468"></rect></g><g class="bar" transform="translate(182.00000000000003,214.85148514851485)"><rect x="1" width="11.999999999999996" height="95.14851485148515"></rect></g><g class="bar" transform="translate(195,99.24092409240924)"><rect x="1" width="11.999999999999996" height="210.75907590759076"></rect></g><g class="bar" transform="translate(208,30.69306930693068)"><rect x="1" width="11.999999999999996" height="279.3069306930693"></rect></g><g class="bar" transform="translate(221.00000000000003,0)"><rect x="1" width="11.999999999999996" height="310"></rect></g><g class="bar" transform="translate(234,21.48514851485146)"><rect x="1" width="11.999999999999996" height="288.51485148514854"></rect></g><g class="bar" transform="translate(247.00000000000003,48.0858085808581)"><rect x="1" width="11.999999999999996" height="261.9141914191419"></rect></g><g class="bar" transform="translate(260,111.51815181518151)"><rect x="1" width="11.999999999999996" height="198.4818481848185"></rect></g><g class="bar" transform="translate(273,189.27392739273927)"><rect x="1" width="11.999999999999996" height="120.72607260726073"></rect></g><g class="bar" transform="translate(286,227.12871287128712)"><rect x="1" width="11.999999999999996" height="82.87128712871288"></rect></g><g class="bar" transform="translate(299.00000000000006,251.68316831683168)"><rect x="1" width="11.999999999999996" height="58.31683168316832"></rect></g><g class="bar" transform="translate(312.00000000000006,269.0759075907591)"><rect x="1" width="11.999999999999996" height="40.92409240924093"></rect></g><g class="bar" transform="translate(325,274.1914191419142)"><rect x="1" width="11.999999999999996" height="35.808580858085804"></rect></g><g class="bar" transform="translate(338,286.4686468646865)"><rect x="1" width="11.999999999999996" height="23.53135313531351"></rect></g><g class="bar" transform="translate(351,283.3993399339934)"><rect x="1" width="11.999999999999996" height="26.600660066006583"></rect></g><g class="bar" transform="translate(364.00000000000006,296.6996699669967)"><rect x="1" width="11.999999999999996" height="13.30033003300332"></rect></g><g class="bar" transform="translate(377.00000000000006,295.67656765676566)"><rect x="1" width="11.999999999999996" height="14.323432343234344"></rect></g><g class="bar" transform="translate(390,304.8844884488449)"><rect x="1" width="11.999999999999996" height="5.115511551155123"></rect></g><g class="bar" transform="translate(403,305.9075907590759)"><rect x="1" width="11.999999999999996" height="4.092409240924098"></rect></g><g class="bar" transform="translate(416,305.9075907590759)"><rect x="1" width="11.999999999999996" height="4.092409240924098"></rect></g><g class="bar" transform="translate(429.00000000000006,310)"><rect x="1" width="11.999999999999996" height="0"></rect></g><g class="bar" transform="translate(442.00000000000006,308.976897689769)"><rect x="1" width="11.999999999999996" height="1.0231023102310246"></rect></g><g class="bar" transform="translate(455,308.976897689769)"><rect x="1" width="11.999999999999996" height="1.0231023102310246"></rect></g><g class="bar" transform="translate(468,310)"><rect x="1" width="11.999999999999996" height="0"></rect></g><g class="bar" transform="translate(481,310)"><rect x="1" width="11.999999999999996" height="0"></rect></g><g class="bar" transform="translate(494.00000000000006,310)"><rect x="1" width="11.999999999999996" height="0"></rect></g><g class="bar" transform="translate(507.00000000000006,310)"><rect x="1" width="11.999999999999996" height="0"></rect></g><g class="axis axis--x" transform="translate(0,310)" fill="none" font-size="10" font-family="sans-serif" text-anchor="middle"><path class="domain" stroke="#000" d="M0.5,6V0.5H520.5V6"></path><g class="tick" opacity="1" transform="translate(0,0)"><line stroke="#000" y2="6" x1="0.5" x2="0.5"></line><text fill="#000" y="9" x="0.5" dy="0.71em">0.01</text></g><g class="tick" opacity="1" transform="translate(130,0)"><line stroke="#000" y2="6" x1="0.5" x2="0.5"></line><text fill="#000" y="9" x="0.5" dy="0.71em">1</text></g><g class="tick" opacity="1" transform="translate(260,0)"><line stroke="#000" y2="6" x1="0.5" x2="0.5"></line><text fill="#000" y="9" x="0.5" dy="0.71em">100</text></g><g class="tick" opacity="1" transform="translate(390,0)"><line stroke="#000" y2="6" x1="0.5" x2="0.5"></line><text fill="#000" y="9" x="0.5" dy="0.71em">10000</text></g><g class="tick" opacity="1" transform="translate(520,0)"><line stroke="#000" y2="6" x1="0.5" x2="0.5"></line><text fill="#000" y="9" x="0.5" dy="0.71em"></text></g></g><g class="axis axis--y" fill="none" font-size="10" font-family="sans-serif" text-anchor="end"><path class="domain" stroke="#000" d="M-6,310.5H0.5V0.5H-6"></path><g class="tick" opacity="1" transform="translate(0,310)"><line stroke="#000" x2="-6" y1="0.5" y2="0.5"></line><text fill="#000" x="-9" y="0.5" dy="0.32em">0</text></g><g class="tick" opacity="1" transform="translate(0,289.53795379537956)"><line stroke="#000" x2="-6" y1="0.5" y2="0.5"></line><text fill="#000" x="-9" y="0.5" dy="0.32em">20</text></g><g class="tick" opacity="1" transform="translate(0,269.0759075907591)"><line stroke="#000" x2="-6" y1="0.5" y2="0.5"></line><text fill="#000" x="-9" y="0.5" dy="0.32em">40</text></g><g class="tick" opacity="1" transform="translate(0,248.6138613861386)"><line stroke="#000" x2="-6" y1="0.5" y2="0.5"></line><text fill="#000" x="-9" y="0.5" dy="0.32em">60</text></g><g class="tick" opacity="1" transform="translate(0,228.15181518151815)"><line stroke="#000" x2="-6" y1="0.5" y2="0.5"></line><text fill="#000" x="-9" y="0.5" dy="0.32em">80</text></g><g class="tick" opacity="1" transform="translate(0,207.6897689768977)"><line stroke="#000" x2="-6" y1="0.5" y2="0.5"></line><text fill="#000" x="-9" y="0.5" dy="0.32em">100</text></g><g class="tick" opacity="1" transform="translate(0,187.22772277227722)"><line stroke="#000" x2="-6" y1="0.5" y2="0.5"></line><text fill="#000" x="-9" y="0.5" dy="0.32em">120</text></g><g class="tick" opacity="1" transform="translate(0,166.76567656765678)"><line stroke="#000" x2="-6" y1="0.5" y2="0.5"></line><text fill="#000" x="-9" y="0.5" dy="0.32em">140</text></g><g class="tick" opacity="1" transform="translate(0,146.30363036303632)"><line stroke="#000" x2="-6" y1="0.5" y2="0.5"></line><text fill="#000" x="-9" y="0.5" dy="0.32em">160</text></g><g class="tick" opacity="1" transform="translate(0,125.84158415841586)"><line stroke="#000" x2="-6" y1="0.5" y2="0.5"></line><text fill="#000" x="-9" y="0.5" dy="0.32em">180</text></g><g class="tick" opacity="1" transform="translate(0,105.37953795379539)"><line stroke="#000" x2="-6" y1="0.5" y2="0.5"></line><text fill="#000" x="-9" y="0.5" dy="0.32em">200</text></g><g class="tick" opacity="1" transform="translate(0,84.9174917491749)"><line stroke="#000" x2="-6" y1="0.5" y2="0.5"></line><text fill="#000" x="-9" y="0.5" dy="0.32em">220</text></g><g class="tick" opacity="1" transform="translate(0,64.45544554455444)"><line stroke="#000" x2="-6" y1="0.5" y2="0.5"></line><text fill="#000" x="-9" y="0.5" dy="0.32em">240</text></g><g class="tick" opacity="1" transform="translate(0,43.993399339934)"><line stroke="#000" x2="-6" y1="0.5" y2="0.5"></line><text fill="#000" x="-9" y="0.5" dy="0.32em">260</text></g><g class="tick" opacity="1" transform="translate(0,23.531353135313566)"><line stroke="#000" x2="-6" y1="0.5" y2="0.5"></line><text fill="#000" x="-9" y="0.5" dy="0.32em">280</text></g><g class="tick" opacity="1" transform="translate(0,3.069306930693074)"><line stroke="#000" x2="-6" y1="0.5" y2="0.5"></line><text fill="#000" x="-9" y="0.5" dy="0.32em">300</text></g></g></g></svg>