<svg xmlns="http://www.w3.org/2000/svg" width="600" height="350"><defs><style type="text/css"><![CDATA[ 
.bar rect {
  fill-opacity: 0;
  stroke:       black;
  stroke-width: 0.5;
}

.highlight rect {
  fill:       red;
  fill-opacity: 1;
}
.axis path,
.axis line {
  fill: none;
  stroke: #000;
  shape-rendering: crispEdges;
}
 ]]></style></defs><g transform="translate(50,10)"><g class="bar" transform="translate(0,310)"><rect x="1" width="11.999999999999996" height="0"></rect></g><g class="bar" transform="translate(12.999999999999996,310)"><rect x="1" width="11.999999999999996" height="0"></rect></g><g class="bar" transform="translate(25.999999999999993,310)"><rect x="1" width="11.999999999999996" height="0"></rect></g><g class="bar" transform="translate(39.00000000000001,310)"><rect x="1" width="11.999999999999996" height="0"></rect></g><g class="bar" transform="translate(52,309.4248608534323)"><rect x="1" width="11.999999999999996" height="0.5751391465677216"></rect></g><g class="bar" transform="translate(65,308.84972170686456)"><rect x="1" width="11.999999999999996" height="1.1502782931354432"></rect></g><g class="bar" transform="translate(78.00000000000001,302.5231910946197)"><rect x="1" width="11.999999999999996" height="7.476808905380324"></rect></g><g class="bar" transform="translate(91.00000000000001,297.9220779220779)"><rect x="1" width="11.999999999999996" height="12.077922077922096"></rect></g><g class="bar" transform="translate(104,291.0204081632653)"><rect x="1" width="11.999999999999996" height="18.9795918367347"></rect></g><g class="bar" transform="translate(117,278.9424860853432)"><rect x="1" width="11.999999999999996" height="31.057513914656795"></rect></g><g class="bar" transform="translate(130,262.2634508348794)"><rect x="1" width="11.999999999999996" height="47.73654916512061"></rect></g><g class="bar" transform="translate(143,222.00371057513914)"><rect x="1" width="11.999999999999996" height="87.99628942486086"></rect></g><g class="bar" transform="translate(156.00000000000003,190.94619666048237)"><rect x="1" width="11.999999999999996" height="119.05380333951763"></rect></g><g class="bar" transform="translate(169,146.08534322820037)"><rect x="1" width="11.999999999999996" height="163.91465677179963"></rect></g><g class="bar" transform="translate(182.00000000000003,79.3692022263451)"><rect x="1" width="11.999999999999996" height="230.6307977736549"></rect></g><g class="bar" transform="translate(195,64.41558441558439)"><rect x="1" width="11.999999999999996" height="245.5844155844156"></rect></g><g class="bar" transform="translate(208,37.384044526901675)"><rect x="1" width="11.999999999999996" height="272.6159554730983"></rect></g><g class="bar" transform="translate(221.00000000000003,12.077922077922096)"><rect x="1" width="11.999999999999996" height="297.9220779220779"></rect></g><g class="bar" transform="translate(234,2.3005565862708863)"><rect x="1" width="11.999999999999996" height="307.6994434137291"></rect></g><g class="bar" transform="translate(247.00000000000003,15.528756957328369)"><rect x="1" width="11.999999999999996" height="294.47124304267163"></rect></g><g class="bar" transform="translate(260,0)"><rect x="1" width="11.999999999999996" height="310"></rect></g><g class="bar" transform="translate(273,40.83487940630795)"><rect x="1" width="11.999999999999996" height="269.16512059369205"></rect></g><g class="bar" transform="translate(286,92.02226345083486)"><rect x="1" width="11.999999999999996" height="217.97773654916514"></rect></g><g class="bar" transform="translate(299.00000000000006,159.31354359925788)"><rect x="1" width="11.999999999999996" height="150.68645640074212"></rect></g><g class="bar" transform="translate(312.00000000000006,228.33024118738405)"><rect x="1" width="11.999999999999996" height="81.66975881261595"></rect></g><g class="bar" transform="translate(325,268.0148423005566)"><rect x="1" width="11.999999999999996" height="41.98515769944339"></rect></g><g class="bar" transform="translate(338,286.4192949907236)"><rect x="1" width="11.999999999999996" height="23.580705009276414"></rect></g><g class="bar" transform="translate(351,294.47124304267163)"><rect x="1" width="11.999999999999996" height="15.528756957328369"></rect></g><g class="bar" transform="translate(364.00000000000006,307.1243042671614)"><rect x="1" width="11.999999999999996" height="2.875695732838608"></rect></g><g class="bar" transform="translate(377.00000000000006,308.84972170686456)"><rect x="1" width="11.999999999999996" height="1.1502782931354432"></rect></g><g class="bar" transform="translate(390,307.6994434137291)"><rect x="1" width="11.999999999999996" height="2.3005565862708863"></rect></g><g class="bar" transform="translate(403,309.4248608534323)"><rect x="1" width="11.999999999999996" height="0.5751391465677216"></rect></g><g class="bar" transform="translate(416,310)"><rect x="1" width="11.999999999999996" height="0"></rect></g><g class="bar" transform="translate(429.00000000000006,310)"><rect x="1" width="11.999999999999996" height="0"></rect></g><g class="bar" transform="translate(442.00000000000006,310)"><rect x="1" width="11.999999999999996" height="0"></rect></g><g class="bar" transform="translate(455,310)"><rect x="1" width="11.999999999999996" height="0"></rect></g><g class="bar" transform="translate(468,310)"><rect x="1" width="11.999999999999996" height="0"></rect></g><g class="bar" transform="translate(481,310)"><rect x="1" width="11.999999999999996" height="0"></rect></g><g class="bar" transform="translate(494.00000000000006,310)"><rect x="1" width="11.999999999999996" height="0"></rect></g><g class="bar" transform="translate(507.00000000000006,310)"><rect x="1" width="11.999999999999996" height="0"></rect></g><g class="axis axis--x" transform="translate(0,310)" fill="none" font-size="10" font-family="sans-serif" text-anchor="middle"><path class="domain" stroke="#000" d="M0.5,6V0.5H520.5V6"></path><g class="tick" opacity="1" transform="translate(0,0)"><line stroke="#000" y2="6" x1="0.5" x2="0.5"></line><text fill="#000" y="9" x="0.5" dy="0.71em">0.01</text></g><g class="tick" opacity="1" transform="translate(130,0)"><line stroke="#000" y2="6" x1="0.5" x2="0.5"></line><text fill="#000" y="9" x="0.5" dy="0.71em">1</text></g><g class="tick" opacity="1" transform="translate(260,0)"><line stroke="#000" y2="6" x1="0.5" x2="0.5"></line><text fill="#000" y="9" x="0.5" dy="0.71em">100</text></g><g class="tick" opacity="1" transform="translate(390,0)"><line stroke="#000" y2="6" x1="0.5" x2="0.5"></line><text fill="#000" y="9" x="0.5" dy="0.71em">10000</text></g><g class="tick" opacity="1" transform="translate(520,0)"><line stroke="#000" y2="6" x1="0.5" x2="0.5"></line><text fill="#000" y="9" x="0.5" dy="0.71em"></text></g></g><g class="axis axis--y" fill="none" font-size="10" font-family="sans-serif" text-anchor="end"><path class="domain" stroke="#000" d="M-6,310.5H0.5V0.5H-6"></path><g class="tick" opacity="1" transform="translate(0,310)"><line stroke="#000" x2="-6" y1="0.5" y2="0.5"></line><text fill="#000" x="-9" y="0.5" dy="0.32em">0</text></g><g class="tick" opacity="1" transform="translate(0,281.2430426716141)"><line stroke="#000" x2="-6" y1="0.5" y2="0.5"></line><text fill="#000" x="-9" y="0.5" dy="0.32em">50</text></g><g class="tick" opacity="1" transform="translate(0,252.4860853432282)"><line stroke="#000" x2="-6" y1="0.5" y2="0.5"></line><text fill="#000" x="-9" y="0.5" dy="0.32em">100</text></g><g class="tick" opacity="1" transform="translate(0,223.72912801484227)"><line stroke="#000" x2="-6" y1="0.5" y2="0.5"></line><text fill="#000" x="-9" y="0.5" dy="0.32em">150</text></g><g class="tick" opacity="1" transform="translate(0,194.97217068645642)"><line stroke="#000" x2="-6" y1="0.5" y2="0.5"></line><text fill="#000" x="-9" y="0.5" dy="0.32em">200</text></g><g class="tick" opacity="1" transform="translate(0,166.2152133580705)"><line stroke="#000" x2="-6" y1="0.5" y2="0.5"></line><text fill="#000" x="-9" y="0.5" dy="0.32em">250</text></g><g class="tick" opacity="1" transform="translate(0,137.45825602968458)"><line stroke="#000" x2="-6" y1="0.5" y2="0.5"></line><text fill="#000" x="-9" y="0.5" dy="0.32em">300</text></g><g class="tick" opacity="1" transform="translate(0,108.7012987012987)"><line stroke="#000" x2="-6" y1="0.5" y2="0.5"></line><text fill="#000" x="-9" y="0.5" dy="0.32em">350</text></g><g class="tick" opacity="1" transform="translate(0,79.94434137291282)"><line stroke="#000" x2="-6" y1="0.5" y2="0.5"></line><text fill="#000" x="-9" y="0.5" dy="0.32em">400</text></g><g class="tick" opacity="1" transform="translate(0,51.18738404452688)"><line stroke="#000" x2="-6" y1="0.5" y2="0.5"></line><text fill="#000" x="-9" y="0.5" dy="0.32em">450</text></g><g class="tick" opacity="1" transform="translate(0,22.430426716141028)"><line stroke="#000" x2="-6" y1="0.5" y2="0.5"></line><text fill="#000" x="-9" y="0.5" dy="0.32em">500</text></g></g></g></svg>