<svg xmlns="http://www.w3.org/2000/svg" width="600" height="350"><defs><style type="text/css"><![CDATA[ 
.bar rect {
  fill-opacity: 0;
  stroke:       black;
  stroke-width: 0.5;
}

.highlight rect {
  fill:       red;
  fill-opacity: 1;
}
.axis path,
.axis line {
  fill: none;
  stroke: #000;
  shape-rendering: crispEdges;
}
path {
    stroke: red;
    fill: none;
}

line {
    stroke: red;
}

path.marker {
    fill: red;
}
 ]]></style></defs><g transform="translate(50,10)"><g class="bar" transform="translate(0,310)"><rect x="1" width="11.999999999999996" height="0"></rect></g><g class="bar" transform="translate(12.999999999999996,310)"><rect x="1" width="11.999999999999996" height="0"></rect></g><g class="bar" transform="translate(25.999999999999993,310)"><rect x="1" width="11.999999999999996" height="0"></rect></g><g class="bar" transform="translate(39.00000000000001,310)"><rect x="1" width="11.999999999999996" height="0"></rect></g><g class="bar" transform="translate(52,310)"><rect x="1" width="11.999999999999996" height="0"></rect></g><g class="bar" transform="translate(65,307.4273858921162)"><rect x="1" width="11.999999999999996" height="2.572614107883794"></rect></g><g class="bar" transform="translate(78.00000000000001,307.4273858921162)"><rect x="1" width="11.999999999999996" height="2.572614107883794"></rect></g><g class="bar" transform="translate(91.00000000000001,297.1369294605809)"><rect x="1" width="11.999999999999996" height="12.863070539419084"></rect></g><g class="bar" transform="translate(104,295.850622406639)"><rect x="1" width="11.999999999999996" height="14.14937759336101"></rect></g><g class="bar" transform="translate(117,280.4149377593361)"><rect x="1" width="11.999999999999996" height="29.585062240663888"></rect></g><g class="bar" transform="translate(130,268.19502074688796)"><rect x="1" width="11.999999999999996" height="41.80497925311204"></rect></g><g class="bar" transform="translate(143,238.60995850622407)"><rect x="1" width="11.999999999999996" height="71.39004149377593"></rect></g><g class="bar" transform="translate(156.00000000000003,204.52282157676348)"><rect x="1" width="11.999999999999996" height="105.47717842323652"></rect></g><g class="bar" transform="translate(169,162.71784232365147)"><rect x="1" width="11.999999999999996" height="147.28215767634853"></rect></g><g class="bar" transform="translate(182.00000000000003,111.90871369294607)"><rect x="1" width="11.999999999999996" height="198.09128630705393"></rect></g><g class="bar" transform="translate(195,66.88796680497924)"><rect x="1" width="11.999999999999996" height="243.11203319502076"></rect></g><g class="bar" transform="translate(208,54.66804979253112)"><rect x="1" width="11.999999999999996" height="255.33195020746888"></rect></g><g class="bar" transform="translate(221.00000000000003,23.153526970954317)"><rect x="1" width="11.999999999999996" height="286.8464730290457"></rect></g><g class="bar" transform="translate(234,9.647302904564299)"><rect x="1" width="11.999999999999996" height="300.3526970954357"></rect></g><g class="bar" transform="translate(247.00000000000003,0)"><rect x="1" width="11.999999999999996" height="310"></rect></g><g class="bar" transform="translate(260,11.576763485477159)"><rect x="1" width="11.999999999999996" height="298.42323651452284"></rect></g><g class="bar" transform="translate(273,32.15767634854768)"><rect x="1" width="11.999999999999996" height="277.8423236514523"></rect></g><g class="bar" transform="translate(286,119.6265560165975)"><rect x="1" width="11.999999999999996" height="190.3734439834025"></rect></g><g class="bar" transform="translate(299.00000000000006,165.93360995850622)"><rect x="1" width="11.999999999999996" height="144.06639004149378"></rect></g><g class="bar" transform="translate(312.00000000000006,236.03734439834022)"><rect x="1" width="11.999999999999996" height="73.96265560165978"></rect></g><g class="bar" transform="translate(325,264.9792531120332)"><rect x="1" width="11.999999999999996" height="45.02074688796682"></rect></g><g class="bar" transform="translate(338,281.701244813278)"><rect x="1" width="11.999999999999996" height="28.29875518672202"></rect></g><g class="bar" transform="translate(351,296.49377593361)"><rect x="1" width="11.999999999999996" height="13.506224066390018"></rect></g><g class="bar" transform="translate(364.00000000000006,304.85477178423236)"><rect x="1" width="11.999999999999996" height="5.145228215767645"></rect></g><g class="bar" transform="translate(377.00000000000006,307.4273858921162)"><rect x="1" width="11.999999999999996" height="2.572614107883794"></rect></g><g class="bar" transform="translate(390,308.7136929460581)"><rect x="1" width="11.999999999999996" height="1.2863070539419255"></rect></g><g class="bar" transform="translate(403,308.07053941908714)"><rect x="1" width="11.999999999999996" height="1.9294605809128598"></rect></g><g class="bar" transform="translate(416,310)"><rect x="1" width="11.999999999999996" height="0"></rect></g><g class="bar" transform="translate(429.00000000000006,310)"><rect x="1" width="11.999999999999996" height="0"></rect></g><g class="bar" transform="translate(442.00000000000006,309.35684647302907)"><rect x="1" width="11.999999999999996" height="0.6431535269709343"></rect></g><g class="bar" transform="translate(455,310)"><rect x="1" width="11.999999999999996" height="0"></rect></g><g class="bar" transform="translate(468,310)"><rect x="1" width="11.999999999999996" height="0"></rect></g><g class="bar" transform="translate(481,310)"><rect x="1" width="11.999999999999996" height="0"></rect></g><g class="bar" transform="translate(494.00000000000006,310)"><rect x="1" width="11.999999999999996" height="0"></rect></g><g class="bar" transform="translate(507.00000000000006,310)"><rect x="1" width="11.999999999999996" height="0"></rect></g><g class="axis axis--x" transform="translate(0,310)" fill="none" font-size="10" font-family="sans-serif" text-anchor="middle"><path class="domain" stroke="#000" d="M0.5,6V0.5H520.5V6"></path><g class="tick" opacity="1" transform="translate(0.5,0)"><line stroke="#000" y2="6"></line><text fill="#000" y="9" dy="0.71em">0.01</text></g><g class="tick" opacity="1" transform="translate(130.5,0)"><line stroke="#000" y2="6"></line><text fill="#000" y="9" dy="0.71em">1</text></g><g class="tick" opacity="1" transform="translate(260.5,0)"><line stroke="#000" y2="6"></line><text fill="#000" y="9" dy="0.71em">100</text></g><g class="tick" opacity="1" transform="translate(390.5,0)"><line stroke="#000" y2="6"></line><text fill="#000" y="9" dy="0.71em">10000</text></g><g class="tick" opacity="1" transform="translate(520.5,0)"><line stroke="#000" y2="6"></line><text fill="#000" y="9" dy="0.71em"></text></g></g><g class="axis axis--y" fill="none" font-size="10" font-family="sans-serif" text-anchor="end"><path class="domain" stroke="#000" d="M-6,310.5H0.5V0.5H-6"></path><g class="tick" opacity="1" transform="translate(0,310.5)"><line stroke="#000" x2="-6"></line><text fill="#000" x="-9" dy="0.32em">0</text></g><g class="tick" opacity="1" transform="translate(0,278.34232365145226)"><line stroke="#000" x2="-6"></line><text fill="#000" x="-9" dy="0.32em">50</text></g><g class="tick" opacity="1" transform="translate(0,246.18464730290458)"><line stroke="#000" x2="-6"></line><text fill="#000" x="-9" dy="0.32em">100</text></g><g class="tick" opacity="1" transform="translate(0,214.02697095435684)"><line stroke="#000" x2="-6"></line><text fill="#000" x="-9" dy="0.32em">150</text></g><g class="tick" opacity="1" transform="translate(0,181.86929460580913)"><line stroke="#000" x2="-6"></line><text fill="#000" x="-9" dy="0.32em">200</text></g><g class="tick" opacity="1" transform="translate(0,149.7116182572614)"><line stroke="#000" x2="-6"></line><text fill="#000" x="-9" dy="0.32em">250</text></g><g class="tick" opacity="1" transform="translate(0,117.55394190871368)"><line stroke="#000" x2="-6"></line><text fill="#000" x="-9" dy="0.32em">300</text></g><g class="tick" opacity="1" transform="translate(0,85.39626556016597)"><line stroke="#000" x2="-6"></line><text fill="#000" x="-9" dy="0.32em">350</text></g><g class="tick" opacity="1" transform="translate(0,53.23858921161826)"><line stroke="#000" x2="-6"></line><text fill="#000" x="-9" dy="0.32em">400</text></g><g class="tick" opacity="1" transform="translate(0,21.080912863070523)"><line stroke="#000" x2="-6"></line><text fill="#000" x="-9" dy="0.32em">450</text></g></g></g></svg>