<svg xmlns="http://www.w3.org/2000/svg" width="280" height="160"><defs><style type="text/css"><![CDATA[ 
.bar rect {
  fill-opacity: 0;
  stroke:       black;
  stroke-width: 0.5;
}

.highlight rect {
  fill:       red;
  fill-opacity: 1;
}
.axis path,
.axis line {
  fill: none;
  stroke: #000;
  shape-rendering: crispEdges;
}
path {
    stroke: red;
    fill: none;
}

line {
    stroke: red;
}

path.marker {
    fill: red;
}
 ]]></style></defs><g transform="translate(50,10)"><g class="bar" transform="translate(0,120)"><rect x="1" width="11.5" height="0"></rect></g><g class="bar" transform="translate(12.5,120)"><rect x="1" width="11.5" height="0"></rect></g><g class="bar" transform="translate(25,118.23223570190642)"><rect x="1" width="11.5" height="1.7677642980935815"></rect></g><g class="bar" transform="translate(37.5,111.78509532062392)"><rect x="1" width="11.5" height="8.214904679376076"></rect></g><g class="bar" transform="translate(50,93.48353552859619)"><rect x="1" width="11.5" height="26.516464471403808"></rect></g><g class="bar" transform="translate(62.5,55.32062391681109)"><rect x="1" width="11.5" height="64.67937608318891"></rect></g><g class="bar" transform="translate(75,14.350086655112648)"><rect x="1" width="11.5" height="105.64991334488735"></rect></g><g class="bar" transform="translate(87.5,0)"><rect x="1" width="11.5" height="120"></rect></g><g class="bar" transform="translate(100,11.854419410745237)"><rect x="1" width="11.5" height="108.14558058925476"></rect></g><g class="bar" transform="translate(112.5,68.94280762564992)"><rect x="1" width="11.5" height="51.05719237435008"></rect></g><g class="bar" transform="translate(125,107.00173310225303)"><rect x="1" width="11.5" height="12.998266897746973"></rect></g><g class="bar" transform="translate(137.5,117.71230502599653)"><rect x="1" width="11.5" height="2.2876949740034718"></rect></g><g class="bar" transform="translate(150,119.48006932409012)"><rect x="1" width="11.5" height="0.5199306759098761"></rect></g><g class="bar" transform="translate(162.5,119.89601386481803)"><rect x="1" width="11.5" height="0.10398613518196953"></rect></g><g class="bar" transform="translate(175,120)"><rect x="1" width="11.5" height="0"></rect></g><g class="bar" transform="translate(187.5,120)"><rect x="1" width="11.5" height="0"></rect></g></g></svg>