<svg xmlns="http://www.w3.org/2000/svg" width="280" height="160"><defs><style type="text/css"><![CDATA[ 
.bar rect {
  fill-opacity: 0;
  stroke:       black;
  stroke-width: 0.5;
}

.highlight rect {
  fill:       red;
  fill-opacity: 1;
}
.axis path,
.axis line {
  fill: none;
  stroke: #000;
  shape-rendering: crispEdges;
}
path {
    stroke: red;
    fill: none;
}

line {
    stroke: red;
}

path.marker {
    fill: red;
}
 ]]></style></defs><g transform="translate(50,10)"><g class="bar" transform="translate(0,119.88826815642459)"><rect x="1" width="11.5" height="0.11173184357541288"></rect></g><g class="bar" transform="translate(12.5,118.88268156424581)"><rect x="1" width="11.5" height="1.1173184357541857"></rect></g><g class="bar" transform="translate(25,115.3072625698324)"><rect x="1" width="11.5" height="4.692737430167597"></rect></g><g class="bar" transform="translate(37.5,106.36871508379889)"><rect x="1" width="11.5" height="13.63128491620111"></rect></g><g class="bar" transform="translate(50,87.15083798882682)"><rect x="1" width="11.5" height="32.84916201117318"></rect></g><g class="bar" transform="translate(62.5,56.20111731843575)"><rect x="1" width="11.5" height="63.79888268156425"></rect></g><g class="bar" transform="translate(75,16.201117318435763)"><rect x="1" width="11.5" height="103.79888268156424"></rect></g><g class="bar" transform="translate(87.5,0)"><rect x="1" width="11.5" height="120"></rect></g><g class="bar" transform="translate(100,16.201117318435763)"><rect x="1" width="11.5" height="103.79888268156424"></rect></g><g class="bar" transform="translate(112.5,72.4022346368715)"><rect x="1" width="11.5" height="47.5977653631285"></rect></g><g class="bar" transform="translate(125,106.4804469273743)"><rect x="1" width="11.5" height="13.519553072625698"></rect></g><g class="bar" transform="translate(137.5,116.87150837988827)"><rect x="1" width="11.5" height="3.128491620111731"></rect></g><g class="bar" transform="translate(150,118.99441340782123)"><rect x="1" width="11.5" height="1.0055865921787728"></rect></g><g class="bar" transform="translate(162.5,119.88826815642459)"><rect x="1" width="11.5" height="0.11173184357541288"></rect></g><g class="bar" transform="translate(175,120)"><rect x="1" width="11.5" height="0"></rect></g><g class="bar" transform="translate(187.5,120)"><rect x="1" width="11.5" height="0"></rect></g></g></svg>