<svg xmlns="http://www.w3.org/2000/svg" width="280" height="160"><defs><style type="text/css"><![CDATA[ 
.bar rect {
  fill-opacity: 0;
  stroke:       black;
  stroke-width: 0.5;
}

.highlight rect {
  fill:       red;
  fill-opacity: 1;
}
.axis path,
.axis line {
  fill: none;
  stroke: #000;
  shape-rendering: crispEdges;
}
path {
    stroke: red;
    fill: none;
}

line {
    stroke: red;
}

path.marker {
    fill: red;
}
 ]]></style></defs><g transform="translate(50,10)"><g class="bar" transform="translate(0,118.86685552407933)"><rect x="1" width="11.5" height="1.1331444759206732"></rect></g><g class="bar" transform="translate(12.5,113.20113314447592)"><rect x="1" width="11.5" height="6.798866855524082"></rect></g><g class="bar" transform="translate(25,110.25495750708215)"><rect x="1" width="11.5" height="9.745042492917847"></rect></g><g class="bar" transform="translate(37.5,102.77620396600567)"><rect x="1" width="11.5" height="17.223796033994333"></rect></g><g class="bar" transform="translate(50,89.74504249291785)"><rect x="1" width="11.5" height="30.254957507082153"></rect></g><g class="bar" transform="translate(62.5,64.24929178470255)"><rect x="1" width="11.5" height="55.75070821529745"></rect></g><g class="bar" transform="translate(75,33.65439093484419)"><rect x="1" width="11.5" height="86.34560906515581"></rect></g><g class="bar" transform="translate(87.5,0)"><rect x="1" width="11.5" height="120"></rect></g><g class="bar" transform="translate(100,8.271954674220964)"><rect x="1" width="11.5" height="111.72804532577904"></rect></g><g class="bar" transform="translate(112.5,54.39093484419263)"><rect x="1" width="11.5" height="65.60906515580737"></rect></g><g class="bar" transform="translate(125,101.98300283286119)"><rect x="1" width="11.5" height="18.01699716713881"></rect></g><g class="bar" transform="translate(137.5,117.96033994334277)"><rect x="1" width="11.5" height="2.039660056657226"></rect></g><g class="bar" transform="translate(150,119.3201133144476)"><rect x="1" width="11.5" height="0.679886685552404"></rect></g><g class="bar" transform="translate(162.5,120)"><rect x="1" width="11.5" height="0"></rect></g><g class="bar" transform="translate(175,120)"><rect x="1" width="11.5" height="0"></rect></g><g class="bar" transform="translate(187.5,120)"><rect x="1" width="11.5" height="0"></rect></g></g></svg>