<svg xmlns="http://www.w3.org/2000/svg" width="280" height="160"><defs><style type="text/css"><![CDATA[ 
.bar rect {
  fill-opacity: 0;
  stroke:       black;
  stroke-width: 0.5;
}

.highlight rect {
  fill:       red;
  fill-opacity: 1;
}
.axis path,
.axis line {
  fill: none;
  stroke: #000;
  shape-rendering: crispEdges;
}
 ]]></style></defs><g transform="translate(50,10)"><g class="bar" transform="translate(0,57.09364908503767)"><rect x="1" width="11.5" height="62.90635091496233"></rect></g><g class="bar" transform="translate(12.5,20.602798708288475)"><rect x="1" width="11.5" height="99.39720129171153"></rect></g><g class="bar" transform="translate(25,22.475780409041988)"><rect x="1" width="11.5" height="97.52421959095801"></rect></g><g class="bar" transform="translate(37.5,21.442411194833156)"><rect x="1" width="11.5" height="98.55758880516684"></rect></g><g class="bar" transform="translate(50,9.817007534983858)"><rect x="1" width="11.5" height="110.18299246501614"></rect></g><g class="bar" transform="translate(62.5,0)"><rect x="1" width="11.5" height="120"></rect></g><g class="bar" transform="translate(75,18.213132400430567)"><rect x="1" width="11.5" height="101.78686759956943"></rect></g><g class="bar" transform="translate(87.5,48.31001076426264)"><rect x="1" width="11.5" height="71.68998923573736"></rect></g><g class="bar" transform="translate(100,79.2465016146394)"><rect x="1" width="11.5" height="40.7534983853606"></rect></g><g class="bar" transform="translate(112.5,99.97847147470398)"><rect x="1" width="11.5" height="20.02152852529602"></rect></g><g class="bar" transform="translate(125,105.46824542518837)"><rect x="1" width="11.5" height="14.531754574811629"></rect></g><g class="bar" transform="translate(137.5,117.54574811625403)"><rect x="1" width="11.5" height="2.454251883745968"></rect></g><g class="bar" transform="translate(150,119.8708288482239)"><rect x="1" width="11.5" height="0.12917115177610583"></rect></g><g class="bar" transform="translate(162.5,120)"><rect x="1" width="11.5" height="0"></rect></g><g class="bar" transform="translate(175,120)"><rect x="1" width="11.5" height="0"></rect></g><g class="bar" transform="translate(187.5,120)"><rect x="1" width="11.5" height="0"></rect></g></g></svg>