<svg xmlns="http://www.w3.org/2000/svg" width="280" height="160"><defs><style type="text/css"><![CDATA[ 
.bar rect {
  fill-opacity: 0;
  stroke:       black;
  stroke-width: 0.5;
}

.highlight rect {
  fill:       red;
  fill-opacity: 1;
}
.axis path,
.axis line {
  fill: none;
  stroke: #000;
  shape-rendering: crispEdges;
}
 ]]></style></defs><g transform="translate(50,10)"><g class="bar" transform="translate(0,120)"><rect x="1" width="11.5" height="0"></rect></g><g class="bar" transform="translate(12.5,120)"><rect x="1" width="11.5" height="0"></rect></g><g class="bar" transform="translate(25,119.84595635430038)"><rect x="1" width="11.5" height="0.15404364569961615"></rect></g><g class="bar" transform="translate(37.5,119.07573812580232)"><rect x="1" width="11.5" height="0.9242618741976827"></rect></g><g class="bar" transform="translate(50,113.83825417201541)"><rect x="1" width="11.5" height="6.161745827984589"></rect></g><g class="bar" transform="translate(62.5,94.27471116816432)"><rect x="1" width="11.5" height="25.725288831835684"></rect></g><g class="bar" transform="translate(75,46.98331193838254)"><rect x="1" width="11.5" height="73.01668806161746"></rect></g><g class="bar" transform="translate(87.5,1.5404364569961473)"><rect x="1" width="11.5" height="118.45956354300385"></rect></g><g class="bar" transform="translate(100,0)"><rect x="1" width="11.5" height="120"></rect></g><g class="bar" transform="translate(112.5,49.60205391527599)"><rect x="1" width="11.5" height="70.39794608472401"></rect></g><g class="bar" transform="translate(125,95.35301668806162)"><rect x="1" width="11.5" height="24.646983311938385"></rect></g><g class="bar" transform="translate(137.5,114.60847240051348)"><rect x="1" width="11.5" height="5.391527599486523"></rect></g><g class="bar" transform="translate(150,119.38382541720154)"><rect x="1" width="11.5" height="0.6161745827984646"></rect></g><g class="bar" transform="translate(162.5,119.84595635430038)"><rect x="1" width="11.5" height="0.15404364569961615"></rect></g><g class="bar" transform="translate(175,120)"><rect x="1" width="11.5" height="0"></rect></g><g class="bar" transform="translate(187.5,120)"><rect x="1" width="11.5" height="0"></rect></g></g></svg>