<svg xmlns="http://www.w3.org/2000/svg" width="600" height="350"><defs><style type="text/css"><![CDATA[ 
.bar rect {
  fill-opacity: 0;
  stroke:       black;
  stroke-width: 0.5;
}

.highlight rect {
  fill:       red;
  fill-opacity: 1;
}
.axis path,
.axis line {
  fill: none;
  stroke: #000;
  shape-rendering: crispEdges;
}
 ]]></style></defs><g transform="translate(50,10)"><g class="bar" transform="translate(0,310)"><rect x="1" width="11.999999999999996" height="0"></rect></g><g class="bar" transform="translate(12.999999999999996,310)"><rect x="1" width="11.999999999999996" height="0"></rect></g><g class="bar" transform="translate(25.999999999999993,310)"><rect x="1" width="11.999999999999996" height="0"></rect></g><g class="bar" transform="translate(39.00000000000001,310)"><rect x="1" width="11.999999999999996" height="0"></rect></g><g class="bar" transform="translate(52,310)"><rect x="1" width="11.999999999999996" height="0"></rect></g><g class="bar" transform="translate(65,310)"><rect x="1" width="11.999999999999996" height="0"></rect></g><g class="bar" transform="translate(78.00000000000001,310)"><rect x="1" width="11.999999999999996" height="0"></rect></g><g class="bar" transform="translate(91.00000000000001,309.0882352941176)"><rect x="1" width="11.999999999999996" height="0.9117647058823763"></rect></g><g class="bar" transform="translate(104,308.1764705882353)"><rect x="1" width="11.999999999999996" height="1.8235294117646959"></rect></g><g class="bar" transform="translate(117,306.3529411764706)"><rect x="1" width="11.999999999999996" height="3.6470588235293917"></rect></g><g class="bar" transform="translate(130,300.88235294117646)"><rect x="1" width="11.999999999999996" height="9.117647058823536"></rect></g><g class="bar" transform="translate(143,295.4117647058824)"><rect x="1" width="11.999999999999996" height="14.588235294117624"></rect></g><g class="bar" transform="translate(156.00000000000003,275.3529411764706)"><rect x="1" width="11.999999999999996" height="34.64705882352939"></rect></g><g class="bar" transform="translate(169,267.1470588235294)"><rect x="1" width="11.999999999999996" height="42.85294117647061"></rect></g><g class="bar" transform="translate(182.00000000000003,222.47058823529412)"><rect x="1" width="11.999999999999996" height="87.52941176470588"></rect></g><g class="bar" transform="translate(195,185.08823529411762)"><rect x="1" width="11.999999999999996" height="124.91176470588238"></rect></g><g class="bar" transform="translate(208,120.35294117647058)"><rect x="1" width="11.999999999999996" height="189.64705882352942"></rect></g><g class="bar" transform="translate(221.00000000000003,63.823529411764724)"><rect x="1" width="11.999999999999996" height="246.17647058823528"></rect></g><g class="bar" transform="translate(234,39.20588235294116)"><rect x="1" width="11.999999999999996" height="270.79411764705884"></rect></g><g class="bar" transform="translate(247.00000000000003,8.20588235294116)"><rect x="1" width="11.999999999999996" height="301.79411764705884"></rect></g><g class="bar" transform="translate(260,0)"><rect x="1" width="11.999999999999996" height="310"></rect></g><g class="bar" transform="translate(273,26.441176470588232)"><rect x="1" width="11.999999999999996" height="283.55882352941177"></rect></g><g class="bar" transform="translate(286,82.05882352941174)"><rect x="1" width="11.999999999999996" height="227.94117647058826"></rect></g><g class="bar" transform="translate(299.00000000000006,149.52941176470586)"><rect x="1" width="11.999999999999996" height="160.47058823529414"></rect></g><g class="bar" transform="translate(312.00000000000006,165.02941176470588)"><rect x="1" width="11.999999999999996" height="144.97058823529412"></rect></g><g class="bar" transform="translate(325,227.94117647058823)"><rect x="1" width="11.999999999999996" height="82.05882352941177"></rect></g><g class="bar" transform="translate(338,266.2352941176471)"><rect x="1" width="11.999999999999996" height="43.76470588235293"></rect></g><g class="bar" transform="translate(351,281.7352941176471)"><rect x="1" width="11.999999999999996" height="28.264705882352928"></rect></g><g class="bar" transform="translate(364.00000000000006,289.94117647058823)"><rect x="1" width="11.999999999999996" height="20.058823529411768"></rect></g><g class="bar" transform="translate(377.00000000000006,306.3529411764706)"><rect x="1" width="11.999999999999996" height="3.6470588235293917"></rect></g><g class="bar" transform="translate(390,308.1764705882353)"><rect x="1" width="11.999999999999996" height="1.8235294117646959"></rect></g><g class="bar" transform="translate(403,309.0882352941176)"><rect x="1" width="11.999999999999996" height="0.9117647058823763"></rect></g><g class="bar" transform="translate(416,309.0882352941176)"><rect x="1" width="11.999999999999996" height="0.9117647058823763"></rect></g><g class="bar" transform="translate(429.00000000000006,309.0882352941176)"><rect x="1" width="11.999999999999996" height="0.9117647058823763"></rect></g><g class="bar" transform="translate(442.00000000000006,310)"><rect x="1" width="11.999999999999996" height="0"></rect></g><g class="bar" transform="translate(455,310)"><rect x="1" width="11.999999999999996" height="0"></rect></g><g class="bar" transform="translate(468,310)"><rect x="1" width="11.999999999999996" height="0"></rect></g><g class="bar" transform="translate(481,310)"><rect x="1" width="11.999999999999996" height="0"></rect></g><g class="bar" transform="translate(494.00000000000006,310)"><rect x="1" width="11.999999999999996" height="0"></rect></g><g class="bar" transform="translate(507.00000000000006,310)"><rect x="1" width="11.999999999999996" height="0"></rect></g><g class="axis axis--x" transform="translate(0,310)" fill="none" font-size="10" font-family="sans-serif" text-anchor="middle"><path class="domain" stroke="#000" d="M0.5,6V0.5H520.5V6"></path><g class="tick" opacity="1" transform="translate(0,0)"><line stroke="#000" y2="6" x1="0.5" x2="0.5"></line><text fill="#000" y="9" x="0.5" dy="0.71em">0.01</text></g><g class="tick" opacity="1" transform="translate(130,0)"><line stroke="#000" y2="6" x1="0.5" x2="0.5"></line><text fill="#000" y="9" x="0.5" dy="0.71em">1</text></g><g class="tick" opacity="1" transform="translate(260,0)"><line stroke="#000" y2="6" x1="0.5" x2="0.5"></line><text fill="#000" y="9" x="0.5" dy="0.71em">100</text></g><g class="tick" opacity="1" transform="translate(390,0)"><line stroke="#000" y2="6" x1="0.5" x2="0.5"></line><text fill="#000" y="9" x="0.5" dy="0.71em">10000</text></g><g class="tick" opacity="1" transform="translate(520,0)"><line stroke="#000" y2="6" x1="0.5" x2="0.5"></line><text fill="#000" y="9" x="0.5" dy="0.71em"></text></g></g><g class="axis axis--y" fill="none" font-size="10" font-family="sans-serif" text-anchor="end"><path class="domain" stroke="#000" d="M-6,310.5H0.5V0.5H-6"></path><g class="tick" opacity="1" transform="translate(0,310)"><line stroke="#000" x2="-6" y1="0.5" y2="0.5"></line><text fill="#000" x="-9" y="0.5" dy="0.32em">0</text></g><g class="tick" opacity="1" transform="translate(0,264.4117647058823)"><line stroke="#000" x2="-6" y1="0.5" y2="0.5"></line><text fill="#000" x="-9" y="0.5" dy="0.32em">50</text></g><g class="tick" opacity="1" transform="translate(0,218.8235294117647)"><line stroke="#000" x2="-6" y1="0.5" y2="0.5"></line><text fill="#000" x="-9" y="0.5" dy="0.32em">100</text></g><g class="tick" opacity="1" transform="translate(0,173.23529411764707)"><line stroke="#000" x2="-6" y1="0.5" y2="0.5"></line><text fill="#000" x="-9" y="0.5" dy="0.32em">150</text></g><g class="tick" opacity="1" transform="translate(0,127.64705882352939)"><line stroke="#000" x2="-6" y1="0.5" y2="0.5"></line><text fill="#000" x="-9" y="0.5" dy="0.32em">200</text></g><g class="tick" opacity="1" transform="translate(0,82.05882352941174)"><line stroke="#000" x2="-6" y1="0.5" y2="0.5"></line><text fill="#000" x="-9" y="0.5" dy="0.32em">250</text></g><g class="tick" opacity="1" transform="translate(0,36.470588235294144)"><line stroke="#000" x2="-6" y1="0.5" y2="0.5"></line><text fill="#000" x="-9" y="0.5" dy="0.32em">300</text></g></g></g></svg>