<svg xmlns="http://www.w3.org/2000/svg" width="600" height="350"><defs><style type="text/css"><![CDATA[ 
.bar rect {
  fill-opacity: 0;
  stroke:       black;
  stroke-width: 0.5;
}

.highlight rect {
  fill:       red;
  fill-opacity: 1;
}
.axis path,
.axis line {
  fill: none;
  stroke: #000;
  shape-rendering: crispEdges;
}
path {
    stroke: red;
    fill: none;
}

line {
    stroke: red;
}

path.marker {
    fill: red;
}
 ]]></style></defs><g transform="translate(50,10)"><g class="bar" transform="translate(0,310)"><rect x="1" width="11.999999999999996" height="0"></rect></g><g class="bar" transform="translate(12.999999999999996,310)"><rect x="1" width="11.999999999999996" height="0"></rect></g><g class="bar" transform="translate(25.999999999999993,310)"><rect x="1" width="11.999999999999996" height="0"></rect></g><g class="bar" transform="translate(39.00000000000001,310)"><rect x="1" width="11.999999999999996" height="0"></rect></g><g class="bar" transform="translate(52,310)"><rect x="1" width="11.999999999999996" height="0"></rect></g><g class="bar" transform="translate(65,310)"><rect x="1" width="11.999999999999996" height="0"></rect></g><g class="bar" transform="translate(78.00000000000001,310)"><rect x="1" width="11.999999999999996" height="0"></rect></g><g class="bar" transform="translate(91.00000000000001,310)"><rect x="1" width="11.999999999999996" height="0"></rect></g><g class="bar" transform="translate(104,310)"><rect x="1" width="11.999999999999996" height="0"></rect></g><g class="bar" transform="translate(117,310)"><rect x="1" width="11.999999999999996" height="0"></rect></g><g class="bar" transform="translate(130,310)"><rect x="1" width="11.999999999999996" height="0"></rect></g><g class="bar" transform="translate(143,310)"><rect x="1" width="11.999999999999996" height="0"></rect></g><g class="bar" transform="translate(156.00000000000003,307.8169014084507)"><rect x="1" width="11.999999999999996" height="2.18309859154931"></rect></g><g class="bar" transform="translate(169,307.8169014084507)"><rect x="1" width="11.999999999999996" height="2.18309859154931"></rect></g><g class="bar" transform="translate(182.00000000000003,268.5211267605634)"><rect x="1" width="11.999999999999996" height="41.47887323943661"></rect></g><g class="bar" transform="translate(195,248.8732394366197)"><rect x="1" width="11.999999999999996" height="61.12676056338029"></rect></g><g class="bar" transform="translate(208,159.3661971830986)"><rect x="1" width="11.999999999999996" height="150.6338028169014"></rect></g><g class="bar" transform="translate(221.00000000000003,139.7183098591549)"><rect x="1" width="11.999999999999996" height="170.2816901408451"></rect></g><g class="bar" transform="translate(234,74.22535211267606)"><rect x="1" width="11.999999999999996" height="235.77464788732394"></rect></g><g class="bar" transform="translate(247.00000000000003,52.3943661971831)"><rect x="1" width="11.999999999999996" height="257.6056338028169"></rect></g><g class="bar" transform="translate(260,0)"><rect x="1" width="11.999999999999996" height="310"></rect></g><g class="bar" transform="translate(273,45.84507042253523)"><rect x="1" width="11.999999999999996" height="264.15492957746477"></rect></g><g class="bar" transform="translate(286,50.21126760563379)"><rect x="1" width="11.999999999999996" height="259.7887323943662"></rect></g><g class="bar" transform="translate(299.00000000000006,48.02816901408454)"><rect x="1" width="11.999999999999996" height="261.97183098591546"></rect></g><g class="bar" transform="translate(312.00000000000006,146.26760563380282)"><rect x="1" width="11.999999999999996" height="163.73239436619718"></rect></g><g class="bar" transform="translate(325,200.84507042253523)"><rect x="1" width="11.999999999999996" height="109.15492957746477"></rect></g><g class="bar" transform="translate(338,181.19718309859155)"><rect x="1" width="11.999999999999996" height="128.80281690140845"></rect></g><g class="bar" transform="translate(351,216.1267605633803)"><rect x="1" width="11.999999999999996" height="93.87323943661971"></rect></g><g class="bar" transform="translate(364.00000000000006,251.05633802816902)"><rect x="1" width="11.999999999999996" height="58.94366197183098"></rect></g><g class="bar" transform="translate(377.00000000000006,285.98591549295776)"><rect x="1" width="11.999999999999996" height="24.01408450704224"></rect></g><g class="bar" transform="translate(390,301.2676056338028)"><rect x="1" width="11.999999999999996" height="8.732394366197184"></rect></g><g class="bar" transform="translate(403,303.4507042253521)"><rect x="1" width="11.999999999999996" height="6.549295774647874"></rect></g><g class="bar" transform="translate(416,307.8169014084507)"><rect x="1" width="11.999999999999996" height="2.18309859154931"></rect></g><g class="bar" transform="translate(429.00000000000006,305.6338028169014)"><rect x="1" width="11.999999999999996" height="4.36619718309862"></rect></g><g class="bar" transform="translate(442.00000000000006,310)"><rect x="1" width="11.999999999999996" height="0"></rect></g><g class="bar" transform="translate(455,310)"><rect x="1" width="11.999999999999996" height="0"></rect></g><g class="bar" transform="translate(468,310)"><rect x="1" width="11.999999999999996" height="0"></rect></g><g class="bar" transform="translate(481,310)"><rect x="1" width="11.999999999999996" height="0"></rect></g><g class="bar" transform="translate(494.00000000000006,310)"><rect x="1" width="11.999999999999996" height="0"></rect></g><g class="bar" transform="translate(507.00000000000006,310)"><rect x="1" width="11.999999999999996" height="0"></rect></g><g class="axis axis--x" transform="translate(0,310)" fill="none" font-size="10" font-family="sans-serif" text-anchor="middle"><path class="domain" stroke="#000" d="M0.5,6V0.5H520.5V6"></path><g class="tick" opacity="1" transform="translate(0.5,0)"><line stroke="#000" y2="6"></line><text fill="#000" y="9" dy="0.71em">0.01</text></g><g class="tick" opacity="1" transform="translate(130.5,0)"><line stroke="#000" y2="6"></line><text fill="#000" y="9" dy="0.71em">1</text></g><g class="tick" opacity="1" transform="translate(260.5,0)"><line stroke="#000" y2="6"></line><text fill="#000" y="9" dy="0.71em">100</text></g><g class="tick" opacity="1" transform="translate(390.5,0)"><line stroke="#000" y2="6"></line><text fill="#000" y="9" dy="0.71em">10000</text></g><g class="tick" opacity="1" transform="translate(520.5,0)"><line stroke="#000" y2="6"></line><text fill="#000" y="9" dy="0.71em"></text></g></g><g class="axis axis--y" fill="none" font-size="10" font-family="sans-serif" text-anchor="end"><path class="domain" stroke="#000" d="M-6,310.5H0.5V0.5H-6"></path><g class="tick" opacity="1" transform="translate(0,310.5)"><line stroke="#000" x2="-6"></line><text fill="#000" x="-9" dy="0.32em">0</text></g><g class="tick" opacity="1" transform="translate(0,266.8380281690141)"><line stroke="#000" x2="-6"></line><text fill="#000" x="-9" dy="0.32em">20</text></g><g class="tick" opacity="1" transform="translate(0,223.17605633802816)"><line stroke="#000" x2="-6"></line><text fill="#000" x="-9" dy="0.32em">40</text></g><g class="tick" opacity="1" transform="translate(0,179.51408450704227)"><line stroke="#000" x2="-6"></line><text fill="#000" x="-9" dy="0.32em">60</text></g><g class="tick" opacity="1" transform="translate(0,135.85211267605632)"><line stroke="#000" x2="-6"></line><text fill="#000" x="-9" dy="0.32em">80</text></g><g class="tick" opacity="1" transform="translate(0,92.19014084507043)"><line stroke="#000" x2="-6"></line><text fill="#000" x="-9" dy="0.32em">100</text></g><g class="tick" opacity="1" transform="translate(0,48.52816901408454)"><line stroke="#000" x2="-6"></line><text fill="#000" x="-9" dy="0.32em">120</text></g><g class="tick" opacity="1" transform="translate(0,4.8661971830985635)"><line stroke="#000" x2="-6"></line><text fill="#000" x="-9" dy="0.32em">140</text></g></g></g></svg>