<svg xmlns="http://www.w3.org/2000/svg" width="280" height="160"><defs><style type="text/css"><![CDATA[ 
.bar rect {
  fill-opacity: 0;
  stroke:       black;
  stroke-width: 0.5;
}

.highlight rect {
  fill:       red;
  fill-opacity: 1;
}
.axis path,
.axis line {
  fill: none;
  stroke: #000;
  shape-rendering: crispEdges;
}
path {
    stroke: red;
    fill: none;
}

line {
    stroke: red;
}

path.marker {
    fill: red;
}
 ]]></style></defs><g transform="translate(50,10)"><g class="bar" transform="translate(0,119.36024371667936)"><rect x="1" width="11.5" height="0.6397562833206365"></rect></g><g class="bar" transform="translate(12.5,118.26351865955826)"><rect x="1" width="11.5" height="1.7364813404417418"></rect></g><g class="bar" transform="translate(25,104.73724295506474)"><rect x="1" width="11.5" height="15.262757044935256"></rect></g><g class="bar" transform="translate(37.5,78.23305407463823)"><rect x="1" width="11.5" height="41.76694592536177"></rect></g><g class="bar" transform="translate(50,64.43259710586443)"><rect x="1" width="11.5" height="55.56740289413557"></rect></g><g class="bar" transform="translate(62.5,20.929169840060922)"><rect x="1" width="11.5" height="99.07083015993908"></rect></g><g class="bar" transform="translate(75,0)"><rect x="1" width="11.5" height="120"></rect></g><g class="bar" transform="translate(87.5,49.078446306169084)"><rect x="1" width="11.5" height="70.92155369383092"></rect></g><g class="bar" transform="translate(100,94.04417364813403)"><rect x="1" width="11.5" height="25.955826351865966"></rect></g><g class="bar" transform="translate(112.5,107.29626808834729)"><rect x="1" width="11.5" height="12.70373191165271"></rect></g><g class="bar" transform="translate(125,113.14546839299315)"><rect x="1" width="11.5" height="6.854531607006848"></rect></g><g class="bar" transform="translate(137.5,116.52703731911653)"><rect x="1" width="11.5" height="3.4729626808834695"></rect></g><g class="bar" transform="translate(150,118.81188118811882)"><rect x="1" width="11.5" height="1.188118811881182"></rect></g><g class="bar" transform="translate(162.5,119.72581873571973)"><rect x="1" width="11.5" height="0.2741812642802728"></rect></g><g class="bar" transform="translate(175,119.90860624523991)"><rect x="1" width="11.5" height="0.09139375476009093"></rect></g><g class="bar" transform="translate(187.5,120)"><rect x="1" width="11.5" height="0"></rect></g></g></svg>