<svg xmlns="http://www.w3.org/2000/svg" width="600" height="350"><defs><style type="text/css"><![CDATA[ 
.bar rect {
  fill-opacity: 0;
  stroke:       black;
  stroke-width: 0.5;
}

.highlight rect {
  fill:       red;
  fill-opacity: 1;
}
.axis path,
.axis line {
  fill: none;
  stroke: #000;
  shape-rendering: crispEdges;
}
path {
    stroke: red;
    fill: none;
}

line {
    stroke: red;
}

path.marker {
    fill: red;
}
 ]]></style></defs><g transform="translate(50,10)"><g class="bar" transform="translate(0,309.4183864915572)"><rect x="1" width="11.999999999999996" height="0.5816135084427856"></rect></g><g class="bar" transform="translate(12.999999999999996,308.83677298311443)"><rect x="1" width="11.999999999999996" height="1.1632270168855712"></rect></g><g class="bar" transform="translate(25.999999999999993,307.09193245778613)"><rect x="1" width="11.999999999999996" height="2.908067542213871"></rect></g><g class="bar" transform="translate(39.00000000000001,308.25515947467164)"><rect x="1" width="11.999999999999996" height="1.7448405253283568"></rect></g><g class="bar" transform="translate(52,301.27579737335833)"><rect x="1" width="11.999999999999996" height="8.72420262664167"></rect></g><g class="bar" transform="translate(65,272.7767354596623)"><rect x="1" width="11.999999999999996" height="37.22326454033771"></rect></g><g class="bar" transform="translate(78.00000000000001,279.1744840525328)"><rect x="1" width="11.999999999999996" height="30.82551594746718"></rect></g><g class="bar" transform="translate(91.00000000000001,237.2983114446529)"><rect x="1" width="11.999999999999996" height="72.70168855534709"></rect></g><g class="bar" transform="translate(104,214.03377110694183)"><rect x="1" width="11.999999999999996" height="95.96622889305817"></rect></g><g class="bar" transform="translate(117,183.78986866791746)"><rect x="1" width="11.999999999999996" height="126.21013133208254"></rect></g><g class="bar" transform="translate(130,186.11632270168855)"><rect x="1" width="11.999999999999996" height="123.88367729831145"></rect></g><g class="bar" transform="translate(143,173.32082551594746)"><rect x="1" width="11.999999999999996" height="136.67917448405254"></rect></g><g class="bar" transform="translate(156.00000000000003,128.53658536585368)"><rect x="1" width="11.999999999999996" height="181.46341463414632"></rect></g><g class="bar" transform="translate(169,76.77298311444653)"><rect x="1" width="11.999999999999996" height="233.22701688555347"></rect></g><g class="bar" transform="translate(182.00000000000003,1.1632270168855712)"><rect x="1" width="11.999999999999996" height="308.83677298311443"></rect></g><g class="bar" transform="translate(195,2.908067542213871)"><rect x="1" width="11.999999999999996" height="307.09193245778613"></rect></g><g class="bar" transform="translate(208,0)"><rect x="1" width="11.999999999999996" height="310"></rect></g><g class="bar" transform="translate(221.00000000000003,43.62101313320824)"><rect x="1" width="11.999999999999996" height="266.37898686679176"></rect></g><g class="bar" transform="translate(234,109.9249530956848)"><rect x="1" width="11.999999999999996" height="200.0750469043152"></rect></g><g class="bar" transform="translate(247.00000000000003,178.55534709193245)"><rect x="1" width="11.999999999999996" height="131.44465290806755"></rect></g><g class="bar" transform="translate(260,229.73733583489684)"><rect x="1" width="11.999999999999996" height="80.26266416510316"></rect></g><g class="bar" transform="translate(273,247.76735459662288)"><rect x="1" width="11.999999999999996" height="62.23264540337712"></rect></g><g class="bar" transform="translate(286,263.47091932457784)"><rect x="1" width="11.999999999999996" height="46.529080675422165"></rect></g><g class="bar" transform="translate(299.00000000000006,278.59287054409003)"><rect x="1" width="11.999999999999996" height="31.407129455909967"></rect></g><g class="bar" transform="translate(312.00000000000006,284.40900562851783)"><rect x="1" width="11.999999999999996" height="25.590994371482168"></rect></g><g class="bar" transform="translate(325,290.80675422138836)"><rect x="1" width="11.999999999999996" height="19.19324577861164"></rect></g><g class="bar" transform="translate(338,292.5515947467167)"><rect x="1" width="11.999999999999996" height="17.448405253283283"></rect></g><g class="bar" transform="translate(351,298.94934333958724)"><rect x="1" width="11.999999999999996" height="11.050656660412756"></rect></g><g class="bar" transform="translate(364.00000000000006,296.62288930581616)"><rect x="1" width="11.999999999999996" height="13.377110694183841"></rect></g><g class="bar" transform="translate(377.00000000000006,305.3470919324578)"><rect x="1" width="11.999999999999996" height="4.652908067542228"></rect></g><g class="bar" transform="translate(390,304.765478424015)"><rect x="1" width="11.999999999999996" height="5.234521575985013"></rect></g><g class="bar" transform="translate(403,308.25515947467164)"><rect x="1" width="11.999999999999996" height="1.7448405253283568"></rect></g><g class="bar" transform="translate(416,308.25515947467164)"><rect x="1" width="11.999999999999996" height="1.7448405253283568"></rect></g><g class="bar" transform="translate(429.00000000000006,310)"><rect x="1" width="11.999999999999996" height="0"></rect></g><g class="bar" transform="translate(442.00000000000006,309.4183864915572)"><rect x="1" width="11.999999999999996" height="0.5816135084427856"></rect></g><g class="bar" transform="translate(455,309.4183864915572)"><rect x="1" width="11.999999999999996" height="0.5816135084427856"></rect></g><g class="bar" transform="translate(468,310)"><rect x="1" width="11.999999999999996" height="0"></rect></g><g class="bar" transform="translate(481,310)"><rect x="1" width="11.999999999999996" height="0"></rect></g><g class="bar" transform="translate(494.00000000000006,310)"><rect x="1" width="11.999999999999996" height="0"></rect></g><g class="bar" transform="translate(507.00000000000006,310)"><rect x="1" width="11.999999999999996" height="0"></rect></g><g class="axis axis--x" transform="translate(0,310)" fill="none" font-size="10" font-family="sans-serif" text-anchor="middle"><path class="domain" stroke="#000" d="M0.5,6V0.5H520.5V6"></path><g class="tick" opacity="1" transform="translate(0.5,0)"><line stroke="#000" y2="6"></line><text fill="#000" y="9" dy="0.71em">0.01</text></g><g class="tick" opacity="1" transform="translate(130.5,0)"><line stroke="#000" y2="6"></line><text fill="#000" y="9" dy="0.71em">1</text></g><g class="tick" opacity="1" transform="translate(260.5,0)"><line stroke="#000" y2="6"></line><text fill="#000" y="9" dy="0.71em">100</text></g><g class="tick" opacity="1" transform="translate(390.5,0)"><line stroke="#000" y2="6"></line><text fill="#000" y="9" dy="0.71em">10000</text></g><g class="tick" opacity="1" transform="translate(520.5,0)"><line stroke="#000" y2="6"></line><text fill="#000" y="9" dy="0.71em"></text></g></g><g class="axis axis--y" fill="none" font-size="10" font-family="sans-serif" text-anchor="end"><path class="domain" stroke="#000" d="M-6,310.5H0.5V0.5H-6"></path><g class="tick" opacity="1" transform="translate(0,310.5)"><line stroke="#000" x2="-6"></line><text fill="#000" x="-9" dy="0.32em">0</text></g><g class="tick" opacity="1" transform="translate(0,281.4193245778612)"><line stroke="#000" x2="-6"></line><text fill="#000" x="-9" dy="0.32em">50</text></g><g class="tick" opacity="1" transform="translate(0,252.33864915572232)"><line stroke="#000" x2="-6"></line><text fill="#000" x="-9" dy="0.32em">100</text></g><g class="tick" opacity="1" transform="translate(0,223.25797373358347)"><line stroke="#000" x2="-6"></line><text fill="#000" x="-9" dy="0.32em">150</text></g><g class="tick" opacity="1" transform="translate(0,194.17729831144464)"><line stroke="#000" x2="-6"></line><text fill="#000" x="-9" dy="0.32em">200</text></g><g class="tick" opacity="1" transform="translate(0,165.09662288930582)"><line stroke="#000" x2="-6"></line><text fill="#000" x="-9" dy="0.32em">250</text></g><g class="tick" opacity="1" transform="translate(0,136.01594746716697)"><line stroke="#000" x2="-6"></line><text fill="#000" x="-9" dy="0.32em">300</text></g><g class="tick" opacity="1" transform="translate(0,106.93527204502814)"><line stroke="#000" x2="-6"></line><text fill="#000" x="-9" dy="0.32em">350</text></g><g class="tick" opacity="1" transform="translate(0,77.85459662288932)"><line stroke="#000" x2="-6"></line><text fill="#000" x="-9" dy="0.32em">400</text></g><g class="tick" opacity="1" transform="translate(0,48.773921200750465)"><line stroke="#000" x2="-6"></line><text fill="#000" x="-9" dy="0.32em">450</text></g><g class="tick" opacity="1" transform="translate(0,19.69324577861164)"><line stroke="#000" x2="-6"></line><text fill="#000" x="-9" dy="0.32em">500</text></g></g></g></svg>