<svg xmlns="http://www.w3.org/2000/svg" width="280" height="160"><defs><style type="text/css"><![CDATA[ 
.bar rect {
  fill-opacity: 0;
  stroke:       black;
  stroke-width: 0.5;
}

.highlight rect {
  fill:       red;
  fill-opacity: 1;
}
.axis path,
.axis line {
  fill: none;
  stroke: #000;
  shape-rendering: crispEdges;
}
 ]]></style></defs><g transform="translate(50,10)"><g class="bar" transform="translate(0,120)"><rect x="1" width="11.5" height="0"></rect></g><g class="bar" transform="translate(12.5,120)"><rect x="1" width="11.5" height="0"></rect></g><g class="bar" transform="translate(25,120)"><rect x="1" width="11.5" height="0"></rect></g><g class="bar" transform="translate(37.5,119.2)"><rect x="1" width="11.5" height="0.7999999999999972"></rect></g><g class="bar" transform="translate(50,111.33333333333333)"><rect x="1" width="11.5" height="8.666666666666671"></rect></g><g class="bar" transform="translate(62.5,46.33333333333333)"><rect x="1" width="11.5" height="73.66666666666667"></rect></g><g class="bar" transform="translate(75,0)"><rect x="1" width="11.5" height="120"></rect></g><g class="bar" transform="translate(87.5,7.333333333333329)"><rect x="1" width="11.5" height="112.66666666666667"></rect></g><g class="bar" transform="translate(100,40)"><rect x="1" width="11.5" height="80"></rect></g><g class="bar" transform="translate(112.5,86.53333333333333)"><rect x="1" width="11.5" height="33.46666666666667"></rect></g><g class="bar" transform="translate(125,110.86666666666666)"><rect x="1" width="11.5" height="9.13333333333334"></rect></g><g class="bar" transform="translate(137.5,118.2)"><rect x="1" width="11.5" height="1.7999999999999972"></rect></g><g class="bar" transform="translate(150,119.93333333333334)"><rect x="1" width="11.5" height="0.06666666666666288"></rect></g><g class="bar" transform="translate(162.5,120)"><rect x="1" width="11.5" height="0"></rect></g><g class="bar" transform="translate(175,120)"><rect x="1" width="11.5" height="0"></rect></g><g class="bar" transform="translate(187.5,120)"><rect x="1" width="11.5" height="0"></rect></g></g></svg>