<svg xmlns="http://www.w3.org/2000/svg" width="600" height="350"><defs><style type="text/css"><![CDATA[ 
.bar rect {
  fill-opacity: 0;
  stroke:       black;
  stroke-width: 0.5;
}

.highlight rect {
  fill:       red;
  fill-opacity: 1;
}
.axis path,
.axis line {
  fill: none;
  stroke: #000;
  shape-rendering: crispEdges;
}
path {
    stroke: red;
    fill: none;
}

line {
    stroke: red;
}

path.marker {
    fill: red;
}
 ]]></style></defs><g transform="translate(50,10)"><g class="bar" transform="translate(0,308.08641975308643)"><rect x="1" width="5.500000000000005" height="1.9135802469135683"></rect></g><g class="bar" transform="translate(6.500000000000005,309.2345679012346)"><rect x="1" width="5.500000000000005" height="0.765432098765416"></rect></g><g class="bar" transform="translate(12.999999999999996,308.85185185185185)"><rect x="1" width="5.500000000000005" height="1.1481481481481524"></rect></g><g class="bar" transform="translate(19.500000000000004,308.08641975308643)"><rect x="1" width="5.500000000000005" height="1.9135802469135683"></rect></g><g class="bar" transform="translate(25.999999999999993,308.85185185185185)"><rect x="1" width="5.500000000000005" height="1.1481481481481524"></rect></g><g class="bar" transform="translate(32.5,308.4691358024691)"><rect x="1" width="5.500000000000005" height="1.5308641975308888"></rect></g><g class="bar" transform="translate(39.00000000000001,306.55555555555554)"><rect x="1" width="5.500000000000005" height="3.444444444444457"></rect></g><g class="bar" transform="translate(45.500000000000014,305.7901234567901)"><rect x="1" width="5.500000000000005" height="4.209876543209873"></rect></g><g class="bar" transform="translate(52,306.9382716049383)"><rect x="1" width="5.500000000000005" height="3.0617283950617207"></rect></g><g class="bar" transform="translate(58.49999999999999,305.0246913580247)"><rect x="1" width="5.500000000000005" height="4.975308641975289"></rect></g><g class="bar" transform="translate(65,303.4938271604938)"><rect x="1" width="5.500000000000005" height="6.506172839506178"></rect></g><g class="bar" transform="translate(71.5,301.962962962963)"><rect x="1" width="5.500000000000005" height="8.03703703703701"></rect></g><g class="bar" transform="translate(78.00000000000001,298.9012345679012)"><rect x="1" width="5.500000000000005" height="11.098765432098787"></rect></g><g class="bar" transform="translate(84.5,290.48148148148147)"><rect x="1" width="5.500000000000005" height="19.518518518518533"></rect></g><g class="bar" transform="translate(91.00000000000001,287.03703703703707)"><rect x="1" width="5.500000000000005" height="22.962962962962933"></rect></g><g class="bar" transform="translate(97.5,278.61728395061726)"><rect x="1" width="5.500000000000005" height="31.382716049382736"></rect></g><g class="bar" transform="translate(104,262.9259259259259)"><rect x="1" width="5.500000000000005" height="47.074074074074076"></rect></g><g class="bar" transform="translate(110.50000000000001,255.65432098765433)"><rect x="1" width="5.500000000000005" height="54.34567901234567"></rect></g><g class="bar" transform="translate(117,227.33333333333331)"><rect x="1" width="5.500000000000005" height="82.66666666666669"></rect></g><g class="bar" transform="translate(123.50000000000001,203.98765432098764)"><rect x="1" width="5.500000000000005" height="106.01234567901236"></rect></g><g class="bar" transform="translate(130,171.07407407407408)"><rect x="1" width="5.500000000000005" height="138.92592592592592"></rect></g><g class="bar" transform="translate(136.5,107.54320987654319)"><rect x="1" width="5.500000000000005" height="202.4567901234568"></rect></g><g class="bar" transform="translate(143,92.61728395061726)"><rect x="1" width="5.500000000000005" height="217.38271604938274"></rect></g><g class="bar" transform="translate(149.50000000000003,21.4320987654321)"><rect x="1" width="5.500000000000005" height="288.5679012345679"></rect></g><g class="bar" transform="translate(156.00000000000003,19.518518518518533)"><rect x="1" width="5.500000000000005" height="290.48148148148147"></rect></g><g class="bar" transform="translate(162.5,4.209876543209873)"><rect x="1" width="5.500000000000005" height="305.7901234567901"></rect></g><g class="bar" transform="translate(169,10.333333333333314)"><rect x="1" width="5.500000000000005" height="299.6666666666667"></rect></g><g class="bar" transform="translate(175.5,0.765432098765416)"><rect x="1" width="5.500000000000005" height="309.2345679012346"></rect></g><g class="bar" transform="translate(182.00000000000003,0)"><rect x="1" width="5.500000000000005" height="310"></rect></g><g class="bar" transform="translate(188.50000000000003,66.97530864197529)"><rect x="1" width="5.500000000000005" height="243.0246913580247"></rect></g><g class="bar" transform="translate(195,88.79012345679013)"><rect x="1" width="5.500000000000005" height="221.20987654320987"></rect></g><g class="bar" transform="translate(201.5,90.32098765432102)"><rect x="1" width="5.500000000000005" height="219.67901234567898"></rect></g><g class="bar" transform="translate(208,124.76543209876542)"><rect x="1" width="5.500000000000005" height="185.23456790123458"></rect></g><g class="bar" transform="translate(214.50000000000003,146.19753086419755)"><rect x="1" width="5.500000000000005" height="163.80246913580245"></rect></g><g class="bar" transform="translate(221.00000000000003,175.28395061728395)"><rect x="1" width="5.500000000000005" height="134.71604938271605"></rect></g><g class="bar" transform="translate(227.5,165.33333333333334)"><rect x="1" width="5.500000000000005" height="144.66666666666666"></rect></g><g class="bar" transform="translate(234,192.50617283950618)"><rect x="1" width="5.500000000000005" height="117.49382716049382"></rect></g><g class="bar" transform="translate(240.5,200.1604938271605)"><rect x="1" width="5.500000000000005" height="109.83950617283949"></rect></g><g class="bar" transform="translate(247.00000000000003,204.7530864197531)"><rect x="1" width="5.500000000000005" height="105.24691358024691"></rect></g><g class="bar" transform="translate(253.50000000000003,222.35802469135803)"><rect x="1" width="5.500000000000005" height="87.64197530864197"></rect></g><g class="bar" transform="translate(260,220.82716049382717)"><rect x="1" width="5.500000000000005" height="89.17283950617283"></rect></g><g class="bar" transform="translate(266.50000000000006,231.1604938271605)"><rect x="1" width="5.500000000000005" height="78.83950617283949"></rect></g><g class="bar" transform="translate(273,242.64197530864197)"><rect x="1" width="5.500000000000005" height="67.35802469135803"></rect></g><g class="bar" transform="translate(279.5,245.320987654321)"><rect x="1" width="5.500000000000005" height="64.67901234567901"></rect></g><g class="bar" transform="translate(286,267.9012345679012)"><rect x="1" width="5.500000000000005" height="42.09876543209879"></rect></g><g class="bar" transform="translate(292.5,267.9012345679012)"><rect x="1" width="5.500000000000005" height="42.09876543209879"></rect></g><g class="bar" transform="translate(299.00000000000006,277.46913580246917)"><rect x="1" width="5.500000000000005" height="32.53086419753083"></rect></g><g class="bar" transform="translate(305.5,281.679012345679)"><rect x="1" width="5.500000000000005" height="28.320987654321016"></rect></g><g class="bar" transform="translate(312.00000000000006,287.41975308641975)"><rect x="1" width="5.500000000000005" height="22.580246913580254"></rect></g><g class="bar" transform="translate(318.5,292.39506172839504)"><rect x="1" width="5.500000000000005" height="17.604938271604965"></rect></g><g class="bar" transform="translate(325,291.6296296296296)"><rect x="1" width="5.500000000000005" height="18.37037037037038"></rect></g><g class="bar" transform="translate(331.50000000000006,298.9012345679012)"><rect x="1" width="5.500000000000005" height="11.098765432098787"></rect></g><g class="bar" transform="translate(338,300.81481481481484)"><rect x="1" width="5.500000000000005" height="9.185185185185162"></rect></g><g class="bar" transform="translate(344.50000000000006,294.69135802469134)"><rect x="1" width="5.500000000000005" height="15.30864197530866"></rect></g><g class="bar" transform="translate(351,303.4938271604938)"><rect x="1" width="5.500000000000005" height="6.506172839506178"></rect></g><g class="bar" transform="translate(357.5,301.962962962963)"><rect x="1" width="5.500000000000005" height="8.03703703703701"></rect></g><g class="bar" transform="translate(364.00000000000006,306.55555555555554)"><rect x="1" width="5.500000000000005" height="3.444444444444457"></rect></g><g class="bar" transform="translate(370.5,306.17283950617286)"><rect x="1" width="5.500000000000005" height="3.8271604938271366"></rect></g><g class="bar" transform="translate(377.00000000000006,309.61728395061726)"><rect x="1" width="5.500000000000005" height="0.3827160493827364"></rect></g><g class="bar" transform="translate(383.5,309.2345679012346)"><rect x="1" width="5.500000000000005" height="0.765432098765416"></rect></g><g class="bar" transform="translate(390,310)"><rect x="1" width="5.500000000000005" height="0"></rect></g><g class="bar" transform="translate(396.50000000000006,310)"><rect x="1" width="5.500000000000005" height="0"></rect></g><g class="bar" transform="translate(403,310)"><rect x="1" width="5.500000000000005" height="0"></rect></g><g class="bar" transform="translate(409.50000000000006,309.61728395061726)"><rect x="1" width="5.500000000000005" height="0.3827160493827364"></rect></g><g class="bar" transform="translate(416,310)"><rect x="1" width="5.500000000000005" height="0"></rect></g><g class="bar" transform="translate(422.5,310)"><rect x="1" width="5.500000000000005" height="0"></rect></g><g class="bar" transform="translate(429.00000000000006,310)"><rect x="1" width="5.500000000000005" height="0"></rect></g><g class="bar" transform="translate(435.5,310)"><rect x="1" width="5.500000000000005" height="0"></rect></g><g class="bar" transform="translate(442.00000000000006,310)"><rect x="1" width="5.500000000000005" height="0"></rect></g><g class="bar" transform="translate(448.5,310)"><rect x="1" width="5.500000000000005" height="0"></rect></g><g class="bar" transform="translate(455,310)"><rect x="1" width="5.500000000000005" height="0"></rect></g><g class="bar" transform="translate(461.50000000000006,310)"><rect x="1" width="5.500000000000005" height="0"></rect></g><g class="bar" transform="translate(468,310)"><rect x="1" width="5.500000000000005" height="0"></rect></g><g class="bar" transform="translate(474.50000000000006,310)"><rect x="1" width="5.500000000000005" height="0"></rect></g><g class="bar" transform="translate(481,310)"><rect x="1" width="5.500000000000005" height="0"></rect></g><g class="bar" transform="translate(487.5,310)"><rect x="1" width="5.500000000000005" height="0"></rect></g><g class="bar" transform="translate(494.00000000000006,310)"><rect x="1" width="5.500000000000005" height="0"></rect></g><g class="bar" transform="translate(500.5,310)"><rect x="1" width="5.500000000000005" height="0"></rect></g><g class="bar" transform="translate(507.00000000000006,310)"><rect x="1" width="5.500000000000005" height="0"></rect></g><g class="bar" transform="translate(513.5,310)"><rect x="1" width="5.500000000000005" height="0"></rect></g><g class="axis axis--x" transform="translate(0,310)" fill="none" font-size="10" font-family="sans-serif" text-anchor="middle"><path class="domain" stroke="#000" d="M0.5,6V0.5H520.5V6"></path><g class="tick" opacity="1" transform="translate(0.5,0)"><line stroke="#000" y2="6"></line><text fill="#000" y="9" dy="0.71em">0.01</text></g><g class="tick" opacity="1" transform="translate(130.5,0)"><line stroke="#000" y2="6"></line><text fill="#000" y="9" dy="0.71em">1</text></g><g class="tick" opacity="1" transform="translate(260.5,0)"><line stroke="#000" y2="6"></line><text fill="#000" y="9" dy="0.71em">100</text></g><g class="tick" opacity="1" transform="translate(390.5,0)"><line stroke="#000" y2="6"></line><text fill="#000" y="9" dy="0.71em">10000</text></g><g class="tick" opacity="1" transform="translate(520.5,0)"><line stroke="#000" y2="6"></line><text fill="#000" y="9" dy="0.71em"></text></g></g><g class="axis axis--y" fill="none" font-size="10" font-family="sans-serif" text-anchor="end"><path class="domain" stroke="#000" d="M-6,310.5H0.5V0.5H-6"></path><g class="tick" opacity="1" transform="translate(0,310.5)"><line stroke="#000" x2="-6"></line><text fill="#000" x="-9" dy="0.32em">0</text></g><g class="tick" opacity="1" transform="translate(0,272.2283950617284)"><line stroke="#000" x2="-6"></line><text fill="#000" x="-9" dy="0.32em">100</text></g><g class="tick" opacity="1" transform="translate(0,233.9567901234568)"><line stroke="#000" x2="-6"></line><text fill="#000" x="-9" dy="0.32em">200</text></g><g class="tick" opacity="1" transform="translate(0,195.6851851851852)"><line stroke="#000" x2="-6"></line><text fill="#000" x="-9" dy="0.32em">300</text></g><g class="tick" opacity="1" transform="translate(0,157.4135802469136)"><line stroke="#000" x2="-6"></line><text fill="#000" x="-9" dy="0.32em">400</text></g><g class="tick" opacity="1" transform="translate(0,119.14197530864197)"><line stroke="#000" x2="-6"></line><text fill="#000" x="-9" dy="0.32em">500</text></g><g class="tick" opacity="1" transform="translate(0,80.87037037037038)"><line stroke="#000" x2="-6"></line><text fill="#000" x="-9" dy="0.32em">600</text></g><g class="tick" opacity="1" transform="translate(0,42.59876543209879)"><line stroke="#000" x2="-6"></line><text fill="#000" x="-9" dy="0.32em">700</text></g><g class="tick" opacity="1" transform="translate(0,4.3271604938271935)"><line stroke="#000" x2="-6"></line><text fill="#000" x="-9" dy="0.32em">800</text></g></g></g></svg>