<svg xmlns="http://www.w3.org/2000/svg" width="280" height="160"><defs><style type="text/css"><![CDATA[ 
.bar rect {
  fill-opacity: 0;
  stroke:       black;
  stroke-width: 0.5;
}

.highlight rect {
  fill:       red;
  fill-opacity: 1;
}
.axis path,
.axis line {
  fill: none;
  stroke: #000;
  shape-rendering: crispEdges;
}
path {
    stroke: red;
    fill: none;
}

line {
    stroke: red;
}

path.marker {
    fill: red;
}
 ]]></style></defs><g transform="translate(50,10)"><g class="bar" transform="translate(0,116)"><rect x="1" width="11.5" height="4"></rect></g><g class="bar" transform="translate(12.5,119.9)"><rect x="1" width="11.5" height="0.09999999999999432"></rect></g><g class="bar" transform="translate(25,115.7)"><rect x="1" width="11.5" height="4.299999999999997"></rect></g><g class="bar" transform="translate(37.5,115.1)"><rect x="1" width="11.5" height="4.900000000000006"></rect></g><g class="bar" transform="translate(50,107.1)"><rect x="1" width="11.5" height="12.900000000000006"></rect></g><g class="bar" transform="translate(62.5,76.5)"><rect x="1" width="11.5" height="43.5"></rect></g><g class="bar" transform="translate(75,20.200000000000003)"><rect x="1" width="11.5" height="99.8"></rect></g><g class="bar" transform="translate(87.5,0)"><rect x="1" width="11.5" height="120"></rect></g><g class="bar" transform="translate(100,41)"><rect x="1" width="11.5" height="79"></rect></g><g class="bar" transform="translate(112.5,95.7)"><rect x="1" width="11.5" height="24.299999999999997"></rect></g><g class="bar" transform="translate(125,112.5)"><rect x="1" width="11.5" height="7.5"></rect></g><g class="bar" transform="translate(137.5,117.8)"><rect x="1" width="11.5" height="2.200000000000003"></rect></g><g class="bar" transform="translate(150,118.8)"><rect x="1" width="11.5" height="1.2000000000000028"></rect></g><g class="bar" transform="translate(162.5,119.7)"><rect x="1" width="11.5" height="0.29999999999999716"></rect></g><g class="bar" transform="translate(175,120)"><rect x="1" width="11.5" height="0"></rect></g><g class="bar" transform="translate(187.5,120)"><rect x="1" width="11.5" height="0"></rect></g></g></svg>