<svg xmlns="http://www.w3.org/2000/svg" width="280" height="160"><defs><style type="text/css"><![CDATA[ 
.bar rect {
  fill-opacity: 0;
  stroke:       black;
  stroke-width: 0.5;
}

.highlight rect {
  fill:       red;
  fill-opacity: 1;
}
.axis path,
.axis line {
  fill: none;
  stroke: #000;
  shape-rendering: crispEdges;
}
path {
    stroke: red;
    fill: none;
}

line {
    stroke: red;
}

path.marker {
    fill: red;
}
 ]]></style></defs><g transform="translate(50,10)"><g class="bar" transform="translate(0,120)"><rect x="1" width="11.5" height="0"></rect></g><g class="bar" transform="translate(12.5,120)"><rect x="1" width="11.5" height="0"></rect></g><g class="bar" transform="translate(25,120)"><rect x="1" width="11.5" height="0"></rect></g><g class="bar" transform="translate(37.5,119.93216506500848)"><rect x="1" width="11.5" height="0.06783493499152371"></rect></g><g class="bar" transform="translate(50,118.3719615602035)"><rect x="1" width="11.5" height="1.628038439796498"></rect></g><g class="bar" transform="translate(62.5,113.14867156585642)"><rect x="1" width="11.5" height="6.851328434143582"></rect></g><g class="bar" transform="translate(75,85.26851328434144)"><rect x="1" width="11.5" height="34.73148671565856"></rect></g><g class="bar" transform="translate(87.5,0)"><rect x="1" width="11.5" height="120"></rect></g><g class="bar" transform="translate(100,44.906726964386664)"><rect x="1" width="11.5" height="75.09327303561334"></rect></g><g class="bar" transform="translate(112.5,97.75014132278123)"><rect x="1" width="11.5" height="22.249858677218768"></rect></g><g class="bar" transform="translate(125,114.43753533069531)"><rect x="1" width="11.5" height="5.562464669304688"></rect></g><g class="bar" transform="translate(137.5,116.94742792538158)"><rect x="1" width="11.5" height="3.052572074618425"></rect></g><g class="bar" transform="translate(150,119.38948558507632)"><rect x="1" width="11.5" height="0.610514414923685"></rect></g><g class="bar" transform="translate(162.5,120)"><rect x="1" width="11.5" height="0"></rect></g><g class="bar" transform="translate(175,120)"><rect x="1" width="11.5" height="0"></rect></g><g class="bar" transform="translate(187.5,120)"><rect x="1" width="11.5" height="0"></rect></g></g></svg>