<svg xmlns="http://www.w3.org/2000/svg" width="600" height="350"><defs><style type="text/css"><![CDATA[ 
.bar rect {
  fill-opacity: 0;
  stroke:       black;
  stroke-width: 0.5;
}

.highlight rect {
  fill:       red;
  fill-opacity: 1;
}
.axis path,
.axis line {
  fill: none;
  stroke: #000;
  shape-rendering: crispEdges;
}
path {
    stroke: red;
    fill: none;
}

line {
    stroke: red;
}

path.marker {
    fill: red;
}
 ]]></style></defs><g transform="translate(50,10)"><g class="bar" transform="translate(0,310)"><rect x="1" width="5.500000000000005" height="0"></rect></g><g class="bar" transform="translate(6.500000000000005,310)"><rect x="1" width="5.500000000000005" height="0"></rect></g><g class="bar" transform="translate(12.999999999999996,310)"><rect x="1" width="5.500000000000005" height="0"></rect></g><g class="bar" transform="translate(19.500000000000004,310)"><rect x="1" width="5.500000000000005" height="0"></rect></g><g class="bar" transform="translate(25.999999999999993,310)"><rect x="1" width="5.500000000000005" height="0"></rect></g><g class="bar" transform="translate(32.5,310)"><rect x="1" width="5.500000000000005" height="0"></rect></g><g class="bar" transform="translate(39.00000000000001,310)"><rect x="1" width="5.500000000000005" height="0"></rect></g><g class="bar" transform="translate(45.500000000000014,310)"><rect x="1" width="5.500000000000005" height="0"></rect></g><g class="bar" transform="translate(52,310)"><rect x="1" width="5.500000000000005" height="0"></rect></g><g class="bar" transform="translate(58.49999999999999,310)"><rect x="1" width="5.500000000000005" height="0"></rect></g><g class="bar" transform="translate(65,310)"><rect x="1" width="5.500000000000005" height="0"></rect></g><g class="bar" transform="translate(71.5,310)"><rect x="1" width="5.500000000000005" height="0"></rect></g><g class="bar" transform="translate(78.00000000000001,310)"><rect x="1" width="5.500000000000005" height="0"></rect></g><g class="bar" transform="translate(84.5,310)"><rect x="1" width="5.500000000000005" height="0"></rect></g><g class="bar" transform="translate(91.00000000000001,310)"><rect x="1" width="5.500000000000005" height="0"></rect></g><g class="bar" transform="translate(97.5,310)"><rect x="1" width="5.500000000000005" height="0"></rect></g><g class="bar" transform="translate(104,310)"><rect x="1" width="5.500000000000005" height="0"></rect></g><g class="bar" transform="translate(110.50000000000001,309.26190476190476)"><rect x="1" width="5.500000000000005" height="0.7380952380952408"></rect></g><g class="bar" transform="translate(117,310)"><rect x="1" width="5.500000000000005" height="0"></rect></g><g class="bar" transform="translate(123.50000000000001,310)"><rect x="1" width="5.500000000000005" height="0"></rect></g><g class="bar" transform="translate(130,307.04761904761904)"><rect x="1" width="5.500000000000005" height="2.952380952380963"></rect></g><g class="bar" transform="translate(136.5,307.7857142857143)"><rect x="1" width="5.500000000000005" height="2.2142857142857224"></rect></g><g class="bar" transform="translate(143,306.3095238095238)"><rect x="1" width="5.500000000000005" height="3.690476190476204"></rect></g><g class="bar" transform="translate(149.50000000000003,309.26190476190476)"><rect x="1" width="5.500000000000005" height="0.7380952380952408"></rect></g><g class="bar" transform="translate(156.00000000000003,301.8809523809524)"><rect x="1" width="5.500000000000005" height="8.119047619047592"></rect></g><g class="bar" transform="translate(162.5,304.0952380952381)"><rect x="1" width="5.500000000000005" height="5.904761904761926"></rect></g><g class="bar" transform="translate(169,297.45238095238096)"><rect x="1" width="5.500000000000005" height="12.547619047619037"></rect></g><g class="bar" transform="translate(175.5,293.76190476190476)"><rect x="1" width="5.500000000000005" height="16.23809523809524"></rect></g><g class="bar" transform="translate(182.00000000000003,294.5)"><rect x="1" width="5.500000000000005" height="15.5"></rect></g><g class="bar" transform="translate(188.50000000000003,285.64285714285717)"><rect x="1" width="5.500000000000005" height="24.357142857142833"></rect></g><g class="bar" transform="translate(195,287.1190476190476)"><rect x="1" width="5.500000000000005" height="22.880952380952408"></rect></g><g class="bar" transform="translate(201.5,254.64285714285714)"><rect x="1" width="5.500000000000005" height="55.35714285714286"></rect></g><g class="bar" transform="translate(208,250.95238095238096)"><rect x="1" width="5.500000000000005" height="59.04761904761904"></rect></g><g class="bar" transform="translate(214.50000000000003,209.61904761904762)"><rect x="1" width="5.500000000000005" height="100.38095238095238"></rect></g><g class="bar" transform="translate(221.00000000000003,169.76190476190476)"><rect x="1" width="5.500000000000005" height="140.23809523809524"></rect></g><g class="bar" transform="translate(227.5,122.52380952380955)"><rect x="1" width="5.500000000000005" height="187.47619047619045"></rect></g><g class="bar" transform="translate(234,76.02380952380952)"><rect x="1" width="5.500000000000005" height="233.97619047619048"></rect></g><g class="bar" transform="translate(240.5,8.119047619047649)"><rect x="1" width="5.500000000000005" height="301.88095238095235"></rect></g><g class="bar" transform="translate(247.00000000000003,0)"><rect x="1" width="5.500000000000005" height="310"></rect></g><g class="bar" transform="translate(253.50000000000003,37.64285714285717)"><rect x="1" width="5.500000000000005" height="272.35714285714283"></rect></g><g class="bar" transform="translate(260,49.45238095238096)"><rect x="1" width="5.500000000000005" height="260.54761904761904"></rect></g><g class="bar" transform="translate(266.50000000000006,127.69047619047618)"><rect x="1" width="5.500000000000005" height="182.30952380952382"></rect></g><g class="bar" transform="translate(273,162.38095238095238)"><rect x="1" width="5.500000000000005" height="147.61904761904762"></rect></g><g class="bar" transform="translate(279.5,183.04761904761904)"><rect x="1" width="5.500000000000005" height="126.95238095238096"></rect></g><g class="bar" transform="translate(286,210.35714285714283)"><rect x="1" width="5.500000000000005" height="99.64285714285717"></rect></g><g class="bar" transform="translate(292.5,231.76190476190476)"><rect x="1" width="5.500000000000005" height="78.23809523809524"></rect></g><g class="bar" transform="translate(299.00000000000006,250.21428571428572)"><rect x="1" width="5.500000000000005" height="59.78571428571428"></rect></g><g class="bar" transform="translate(305.5,269.4047619047619)"><rect x="1" width="5.500000000000005" height="40.595238095238074"></rect></g><g class="bar" transform="translate(312.00000000000006,279)"><rect x="1" width="5.500000000000005" height="31"></rect></g><g class="bar" transform="translate(318.5,277.5238095238095)"><rect x="1" width="5.500000000000005" height="32.47619047619048"></rect></g><g class="bar" transform="translate(325,289.3333333333333)"><rect x="1" width="5.500000000000005" height="20.666666666666686"></rect></g><g class="bar" transform="translate(331.50000000000006,296.7142857142857)"><rect x="1" width="5.500000000000005" height="13.285714285714278"></rect></g><g class="bar" transform="translate(338,296.7142857142857)"><rect x="1" width="5.500000000000005" height="13.285714285714278"></rect></g><g class="bar" transform="translate(344.50000000000006,304.0952380952381)"><rect x="1" width="5.500000000000005" height="5.904761904761926"></rect></g><g class="bar" transform="translate(351,302.6190476190476)"><rect x="1" width="5.500000000000005" height="7.380952380952408"></rect></g><g class="bar" transform="translate(357.5,300.4047619047619)"><rect x="1" width="5.500000000000005" height="9.595238095238074"></rect></g><g class="bar" transform="translate(364.00000000000006,301.14285714285717)"><rect x="1" width="5.500000000000005" height="8.857142857142833"></rect></g><g class="bar" transform="translate(370.5,304.8333333333333)"><rect x="1" width="5.500000000000005" height="5.166666666666686"></rect></g><g class="bar" transform="translate(377.00000000000006,301.8809523809524)"><rect x="1" width="5.500000000000005" height="8.119047619047592"></rect></g><g class="bar" transform="translate(383.5,308.5238095238095)"><rect x="1" width="5.500000000000005" height="1.4761904761904816"></rect></g><g class="bar" transform="translate(390,307.04761904761904)"><rect x="1" width="5.500000000000005" height="2.952380952380963"></rect></g><g class="bar" transform="translate(396.50000000000006,308.5238095238095)"><rect x="1" width="5.500000000000005" height="1.4761904761904816"></rect></g><g class="bar" transform="translate(403,309.26190476190476)"><rect x="1" width="5.500000000000005" height="0.7380952380952408"></rect></g><g class="bar" transform="translate(409.50000000000006,309.26190476190476)"><rect x="1" width="5.500000000000005" height="0.7380952380952408"></rect></g><g class="bar" transform="translate(416,309.26190476190476)"><rect x="1" width="5.500000000000005" height="0.7380952380952408"></rect></g><g class="bar" transform="translate(422.5,310)"><rect x="1" width="5.500000000000005" height="0"></rect></g><g class="bar" transform="translate(429.00000000000006,310)"><rect x="1" width="5.500000000000005" height="0"></rect></g><g class="bar" transform="translate(435.5,310)"><rect x="1" width="5.500000000000005" height="0"></rect></g><g class="bar" transform="translate(442.00000000000006,310)"><rect x="1" width="5.500000000000005" height="0"></rect></g><g class="bar" transform="translate(448.5,310)"><rect x="1" width="5.500000000000005" height="0"></rect></g><g class="bar" transform="translate(455,310)"><rect x="1" width="5.500000000000005" height="0"></rect></g><g class="bar" transform="translate(461.50000000000006,310)"><rect x="1" width="5.500000000000005" height="0"></rect></g><g class="bar" transform="translate(468,310)"><rect x="1" width="5.500000000000005" height="0"></rect></g><g class="bar" transform="translate(474.50000000000006,310)"><rect x="1" width="5.500000000000005" height="0"></rect></g><g class="bar" transform="translate(481,310)"><rect x="1" width="5.500000000000005" height="0"></rect></g><g class="bar" transform="translate(487.5,310)"><rect x="1" width="5.500000000000005" height="0"></rect></g><g class="bar" transform="translate(494.00000000000006,310)"><rect x="1" width="5.500000000000005" height="0"></rect></g><g class="bar" transform="translate(500.5,310)"><rect x="1" width="5.500000000000005" height="0"></rect></g><g class="bar" transform="translate(507.00000000000006,310)"><rect x="1" width="5.500000000000005" height="0"></rect></g><g class="bar" transform="translate(513.5,310)"><rect x="1" width="5.500000000000005" height="0"></rect></g><g class="axis axis--x" transform="translate(0,310)" fill="none" font-size="10" font-family="sans-serif" text-anchor="middle"><path class="domain" stroke="#000" d="M0.5,6V0.5H520.5V6"></path><g class="tick" opacity="1" transform="translate(0.5,0)"><line stroke="#000" y2="6"></line><text fill="#000" y="9" dy="0.71em">0.01</text></g><g class="tick" opacity="1" transform="translate(130.5,0)"><line stroke="#000" y2="6"></line><text fill="#000" y="9" dy="0.71em">1</text></g><g class="tick" opacity="1" transform="translate(260.5,0)"><line stroke="#000" y2="6"></line><text fill="#000" y="9" dy="0.71em">100</text></g><g class="tick" opacity="1" transform="translate(390.5,0)"><line stroke="#000" y2="6"></line><text fill="#000" y="9" dy="0.71em">10000</text></g><g class="tick" opacity="1" transform="translate(520.5,0)"><line stroke="#000" y2="6"></line><text fill="#000" y="9" dy="0.71em"></text></g></g><g class="axis axis--y" fill="none" font-size="10" font-family="sans-serif" text-anchor="end"><path class="domain" stroke="#000" d="M-6,310.5H0.5V0.5H-6"></path><g class="tick" opacity="1" transform="translate(0,310.5)"><line stroke="#000" x2="-6"></line><text fill="#000" x="-9" dy="0.32em">0</text></g><g class="tick" opacity="1" transform="translate(0,273.5952380952381)"><line stroke="#000" x2="-6"></line><text fill="#000" x="-9" dy="0.32em">50</text></g><g class="tick" opacity="1" transform="translate(0,236.6904761904762)"><line stroke="#000" x2="-6"></line><text fill="#000" x="-9" dy="0.32em">100</text></g><g class="tick" opacity="1" transform="translate(0,199.78571428571428)"><line stroke="#000" x2="-6"></line><text fill="#000" x="-9" dy="0.32em">150</text></g><g class="tick" opacity="1" transform="translate(0,162.88095238095238)"><line stroke="#000" x2="-6"></line><text fill="#000" x="-9" dy="0.32em">200</text></g><g class="tick" opacity="1" transform="translate(0,125.97619047619048)"><line stroke="#000" x2="-6"></line><text fill="#000" x="-9" dy="0.32em">250</text></g><g class="tick" opacity="1" transform="translate(0,89.07142857142856)"><line stroke="#000" x2="-6"></line><text fill="#000" x="-9" dy="0.32em">300</text></g><g class="tick" opacity="1" transform="translate(0,52.16666666666663)"><line stroke="#000" x2="-6"></line><text fill="#000" x="-9" dy="0.32em">350</text></g><g class="tick" opacity="1" transform="translate(0,15.26190476190476)"><line stroke="#000" x2="-6"></line><text fill="#000" x="-9" dy="0.32em">400</text></g></g></g></svg>