<svg xmlns="http://www.w3.org/2000/svg" width="600" height="350"><defs><style type="text/css"><![CDATA[ 
.bar rect {
  fill-opacity: 0;
  stroke:       black;
  stroke-width: 0.5;
}

.highlight rect {
  fill:       red;
  fill-opacity: 1;
}
.axis path,
.axis line {
  fill: none;
  stroke: #000;
  shape-rendering: crispEdges;
}
 ]]></style></defs><g transform="translate(50,10)"><g class="bar" transform="translate(0,310)"><rect x="1" width="5.500000000000005" height="0"></rect></g><g class="bar" transform="translate(6.500000000000005,310)"><rect x="1" width="5.500000000000005" height="0"></rect></g><g class="bar" transform="translate(12.999999999999996,310)"><rect x="1" width="5.500000000000005" height="0"></rect></g><g class="bar" transform="translate(19.500000000000004,310)"><rect x="1" width="5.500000000000005" height="0"></rect></g><g class="bar" transform="translate(25.999999999999993,310)"><rect x="1" width="5.500000000000005" height="0"></rect></g><g class="bar" transform="translate(32.5,310)"><rect x="1" width="5.500000000000005" height="0"></rect></g><g class="bar" transform="translate(39.00000000000001,310)"><rect x="1" width="5.500000000000005" height="0"></rect></g><g class="bar" transform="translate(45.500000000000014,310)"><rect x="1" width="5.500000000000005" height="0"></rect></g><g class="bar" transform="translate(52,310)"><rect x="1" width="5.500000000000005" height="0"></rect></g><g class="bar" transform="translate(58.49999999999999,310)"><rect x="1" width="5.500000000000005" height="0"></rect></g><g class="bar" transform="translate(65,310)"><rect x="1" width="5.500000000000005" height="0"></rect></g><g class="bar" transform="translate(71.5,310)"><rect x="1" width="5.500000000000005" height="0"></rect></g><g class="bar" transform="translate(78.00000000000001,310)"><rect x="1" width="5.500000000000005" height="0"></rect></g><g class="bar" transform="translate(84.5,310)"><rect x="1" width="5.500000000000005" height="0"></rect></g><g class="bar" transform="translate(91.00000000000001,310)"><rect x="1" width="5.500000000000005" height="0"></rect></g><g class="bar" transform="translate(97.5,310)"><rect x="1" width="5.500000000000005" height="0"></rect></g><g class="bar" transform="translate(104,308.886894075404)"><rect x="1" width="5.500000000000005" height="1.1131059245960273"></rect></g><g class="bar" transform="translate(110.50000000000001,308.33034111310593)"><rect x="1" width="5.500000000000005" height="1.6696588868940694"></rect></g><g class="bar" transform="translate(117,307.7737881508079)"><rect x="1" width="5.500000000000005" height="2.2262118491921115"></rect></g><g class="bar" transform="translate(123.50000000000001,302.20825852782764)"><rect x="1" width="5.500000000000005" height="7.791741472172362"></rect></g><g class="bar" transform="translate(130,297.7558348294435)"><rect x="1" width="5.500000000000005" height="12.244165170556528"></rect></g><g class="bar" transform="translate(136.5,291.07719928186714)"><rect x="1" width="5.500000000000005" height="18.922800718132862"></rect></g><g class="bar" transform="translate(143,282.17235188509875)"><rect x="1" width="5.500000000000005" height="27.82764811490125"></rect></g><g class="bar" transform="translate(149.50000000000003,267.7019748653501)"><rect x="1" width="5.500000000000005" height="42.29802513464989"></rect></g><g class="bar" transform="translate(156.00000000000003,236.53500897666066)"><rect x="1" width="5.500000000000005" height="73.46499102333934"></rect></g><g class="bar" transform="translate(162.5,198.13285457809695)"><rect x="1" width="5.500000000000005" height="111.86714542190305"></rect></g><g class="bar" transform="translate(169,140.80789946140035)"><rect x="1" width="5.500000000000005" height="169.19210053859965"></rect></g><g class="bar" transform="translate(175.5,101.8491921005386)"><rect x="1" width="5.500000000000005" height="208.1508078994614"></rect></g><g class="bar" transform="translate(182.00000000000003,57.88150807899464)"><rect x="1" width="5.500000000000005" height="252.11849192100536"></rect></g><g class="bar" transform="translate(188.50000000000003,10.574506283662515)"><rect x="1" width="5.500000000000005" height="299.4254937163375"></rect></g><g class="bar" transform="translate(195,0)"><rect x="1" width="5.500000000000005" height="310"></rect></g><g class="bar" transform="translate(201.5,10.574506283662515)"><rect x="1" width="5.500000000000005" height="299.4254937163375"></rect></g><g class="bar" transform="translate(208,23.375224416517085)"><rect x="1" width="5.500000000000005" height="286.6247755834829"></rect></g><g class="bar" transform="translate(214.50000000000003,69.56912028725316)"><rect x="1" width="5.500000000000005" height="240.43087971274684"></rect></g><g class="bar" transform="translate(221.00000000000003,78.47396768402155)"><rect x="1" width="5.500000000000005" height="231.52603231597845"></rect></g><g class="bar" transform="translate(227.5,131.34649910233392)"><rect x="1" width="5.500000000000005" height="178.65350089766608"></rect></g><g class="bar" transform="translate(234,166.96588868940754)"><rect x="1" width="5.500000000000005" height="143.03411131059246"></rect></g><g class="bar" transform="translate(240.5,192.5673249551167)"><rect x="1" width="5.500000000000005" height="117.4326750448833"></rect></g><g class="bar" transform="translate(247.00000000000003,200.91561938958708)"><rect x="1" width="5.500000000000005" height="109.08438061041292"></rect></g><g class="bar" transform="translate(253.50000000000003,207.59425493716338)"><rect x="1" width="5.500000000000005" height="102.40574506283662"></rect></g><g class="bar" transform="translate(260,215.38599640933572)"><rect x="1" width="5.500000000000005" height="94.61400359066428"></rect></g><g class="bar" transform="translate(266.50000000000006,235.97845601436268)"><rect x="1" width="5.500000000000005" height="74.02154398563732"></rect></g><g class="bar" transform="translate(273,236.53500897666066)"><rect x="1" width="5.500000000000005" height="73.46499102333934"></rect></g><g class="bar" transform="translate(279.5,241.54398563734293)"><rect x="1" width="5.500000000000005" height="68.45601436265707"></rect></g><g class="bar" transform="translate(286,248.77917414721725)"><rect x="1" width="5.500000000000005" height="61.22082585278275"></rect></g><g class="bar" transform="translate(292.5,248.2226211849192)"><rect x="1" width="5.500000000000005" height="61.777378815080795"></rect></g><g class="bar" transform="translate(299.00000000000006,255.45780969479353)"><rect x="1" width="5.500000000000005" height="54.542190305206475"></rect></g><g class="bar" transform="translate(305.5,259.3536804308797)"><rect x="1" width="5.500000000000005" height="50.646319569120294"></rect></g><g class="bar" transform="translate(312.00000000000006,262.69299820466784)"><rect x="1" width="5.500000000000005" height="47.307001795332155"></rect></g><g class="bar" transform="translate(318.5,267.7019748653501)"><rect x="1" width="5.500000000000005" height="42.29802513464989"></rect></g><g class="bar" transform="translate(325,273.82405745062835)"><rect x="1" width="5.500000000000005" height="36.175942549371655"></rect></g><g class="bar" transform="translate(331.50000000000006,267.14542190305207)"><rect x="1" width="5.500000000000005" height="42.85457809694793"></rect></g><g class="bar" transform="translate(338,287.737881508079)"><rect x="1" width="5.500000000000005" height="22.262118491921"></rect></g><g class="bar" transform="translate(344.50000000000006,301.6517055655296)"><rect x="1" width="5.500000000000005" height="8.348294434470404"></rect></g><g class="bar" transform="translate(351,298.8689407540395)"><rect x="1" width="5.500000000000005" height="11.1310592459605"></rect></g><g class="bar" transform="translate(357.5,303.8779174147217)"><rect x="1" width="5.500000000000005" height="6.122082585278292"></rect></g><g class="bar" transform="translate(364.00000000000006,306.66068222621186)"><rect x="1" width="5.500000000000005" height="3.3393177737881388"></rect></g><g class="bar" transform="translate(370.5,307.21723518850985)"><rect x="1" width="5.500000000000005" height="2.7827648114901535"></rect></g><g class="bar" transform="translate(377.00000000000006,308.33034111310593)"><rect x="1" width="5.500000000000005" height="1.6696588868940694"></rect></g><g class="bar" transform="translate(383.5,310)"><rect x="1" width="5.500000000000005" height="0"></rect></g><g class="bar" transform="translate(390,308.886894075404)"><rect x="1" width="5.500000000000005" height="1.1131059245960273"></rect></g><g class="bar" transform="translate(396.50000000000006,309.44344703770196)"><rect x="1" width="5.500000000000005" height="0.5565529622980421"></rect></g><g class="bar" transform="translate(403,310)"><rect x="1" width="5.500000000000005" height="0"></rect></g><g class="bar" transform="translate(409.50000000000006,310)"><rect x="1" width="5.500000000000005" height="0"></rect></g><g class="bar" transform="translate(416,310)"><rect x="1" width="5.500000000000005" height="0"></rect></g><g class="bar" transform="translate(422.5,310)"><rect x="1" width="5.500000000000005" height="0"></rect></g><g class="bar" transform="translate(429.00000000000006,310)"><rect x="1" width="5.500000000000005" height="0"></rect></g><g class="bar" transform="translate(435.5,310)"><rect x="1" width="5.500000000000005" height="0"></rect></g><g class="bar" transform="translate(442.00000000000006,310)"><rect x="1" width="5.500000000000005" height="0"></rect></g><g class="bar" transform="translate(448.5,310)"><rect x="1" width="5.500000000000005" height="0"></rect></g><g class="bar" transform="translate(455,310)"><rect x="1" width="5.500000000000005" height="0"></rect></g><g class="bar" transform="translate(461.50000000000006,310)"><rect x="1" width="5.500000000000005" height="0"></rect></g><g class="bar" transform="translate(468,310)"><rect x="1" width="5.500000000000005" height="0"></rect></g><g class="bar" transform="translate(474.50000000000006,310)"><rect x="1" width="5.500000000000005" height="0"></rect></g><g class="bar" transform="translate(481,310)"><rect x="1" width="5.500000000000005" height="0"></rect></g><g class="bar" transform="translate(487.5,310)"><rect x="1" width="5.500000000000005" height="0"></rect></g><g class="bar" transform="translate(494.00000000000006,310)"><rect x="1" width="5.500000000000005" height="0"></rect></g><g class="bar" transform="translate(500.5,310)"><rect x="1" width="5.500000000000005" height="0"></rect></g><g class="bar" transform="translate(507.00000000000006,310)"><rect x="1" width="5.500000000000005" height="0"></rect></g><g class="bar" transform="translate(513.5,310)"><rect x="1" width="5.500000000000005" height="0"></rect></g><g class="axis axis--x" transform="translate(0,310)" fill="none" font-size="10" font-family="sans-serif" text-anchor="middle"><path class="domain" stroke="#000" d="M0.5,6V0.5H520.5V6"></path><g class="tick" opacity="1" transform="translate(0,0)"><line stroke="#000" y2="6" x1="0.5" x2="0.5"></line><text fill="#000" y="9" x="0.5" dy="0.71em">0.01</text></g><g class="tick" opacity="1" transform="translate(130,0)"><line stroke="#000" y2="6" x1="0.5" x2="0.5"></line><text fill="#000" y="9" x="0.5" dy="0.71em">1</text></g><g class="tick" opacity="1" transform="translate(260,0)"><line stroke="#000" y2="6" x1="0.5" x2="0.5"></line><text fill="#000" y="9" x="0.5" dy="0.71em">100</text></g><g class="tick" opacity="1" transform="translate(390,0)"><line stroke="#000" y2="6" x1="0.5" x2="0.5"></line><text fill="#000" y="9" x="0.5" dy="0.71em">10000</text></g><g class="tick" opacity="1" transform="translate(520,0)"><line stroke="#000" y2="6" x1="0.5" x2="0.5"></line><text fill="#000" y="9" x="0.5" dy="0.71em"></text></g></g><g class="axis axis--y" fill="none" font-size="10" font-family="sans-serif" text-anchor="end"><path class="domain" stroke="#000" d="M-6,310.5H0.5V0.5H-6"></path><g class="tick" opacity="1" transform="translate(0,310)"><line stroke="#000" x2="-6" y1="0.5" y2="0.5"></line><text fill="#000" x="-9" y="0.5" dy="0.32em">0</text></g><g class="tick" opacity="1" transform="translate(0,282.17235188509875)"><line stroke="#000" x2="-6" y1="0.5" y2="0.5"></line><text fill="#000" x="-9" y="0.5" dy="0.32em">50</text></g><g class="tick" opacity="1" transform="translate(0,254.3447037701975)"><line stroke="#000" x2="-6" y1="0.5" y2="0.5"></line><text fill="#000" x="-9" y="0.5" dy="0.32em">100</text></g><g class="tick" opacity="1" transform="translate(0,226.51705565529625)"><line stroke="#000" x2="-6" y1="0.5" y2="0.5"></line><text fill="#000" x="-9" y="0.5" dy="0.32em">150</text></g><g class="tick" opacity="1" transform="translate(0,198.68940754039497)"><line stroke="#000" x2="-6" y1="0.5" y2="0.5"></line><text fill="#000" x="-9" y="0.5" dy="0.32em">200</text></g><g class="tick" opacity="1" transform="translate(0,170.86175942549372)"><line stroke="#000" x2="-6" y1="0.5" y2="0.5"></line><text fill="#000" x="-9" y="0.5" dy="0.32em">250</text></g><g class="tick" opacity="1" transform="translate(0,143.03411131059246)"><line stroke="#000" x2="-6" y1="0.5" y2="0.5"></line><text fill="#000" x="-9" y="0.5" dy="0.32em">300</text></g><g class="tick" opacity="1" transform="translate(0,115.20646319569121)"><line stroke="#000" x2="-6" y1="0.5" y2="0.5"></line><text fill="#000" x="-9" y="0.5" dy="0.32em">350</text></g><g class="tick" opacity="1" transform="translate(0,87.37881508078993)"><line stroke="#000" x2="-6" y1="0.5" y2="0.5"></line><text fill="#000" x="-9" y="0.5" dy="0.32em">400</text></g><g class="tick" opacity="1" transform="translate(0,59.55116696588868)"><line stroke="#000" x2="-6" y1="0.5" y2="0.5"></line><text fill="#000" x="-9" y="0.5" dy="0.32em">450</text></g><g class="tick" opacity="1" transform="translate(0,31.723518850987432)"><line stroke="#000" x2="-6" y1="0.5" y2="0.5"></line><text fill="#000" x="-9" y="0.5" dy="0.32em">500</text></g><g class="tick" opacity="1" transform="translate(0,3.895870736086181)"><line stroke="#000" x2="-6" y1="0.5" y2="0.5"></line><text fill="#000" x="-9" y="0.5" dy="0.32em">550</text></g></g></g></svg>