<svg xmlns="http://www.w3.org/2000/svg" width="280" height="160"><defs><style type="text/css"><![CDATA[ 
.bar rect {
  fill-opacity: 0;
  stroke:       black;
  stroke-width: 0.5;
}

.highlight rect {
  fill:       red;
  fill-opacity: 1;
}
.axis path,
.axis line {
  fill: none;
  stroke: #000;
  shape-rendering: crispEdges;
}
 ]]></style></defs><g transform="translate(50,10)"><g class="bar" transform="translate(0,118.6046511627907)"><rect x="1" width="11.5" height="1.3953488372092977"></rect></g><g class="bar" transform="translate(12.5,118.04651162790698)"><rect x="1" width="11.5" height="1.9534883720930196"></rect></g><g class="bar" transform="translate(25,108)"><rect x="1" width="11.5" height="12"></rect></g><g class="bar" transform="translate(37.5,70.88372093023256)"><rect x="1" width="11.5" height="49.116279069767444"></rect></g><g class="bar" transform="translate(50,23.441860465116278)"><rect x="1" width="11.5" height="96.55813953488372"></rect></g><g class="bar" transform="translate(62.5,0.27906976744186807)"><rect x="1" width="11.5" height="119.72093023255813"></rect></g><g class="bar" transform="translate(75,2.2325581395348877)"><rect x="1" width="11.5" height="117.76744186046511"></rect></g><g class="bar" transform="translate(87.5,0)"><rect x="1" width="11.5" height="120"></rect></g><g class="bar" transform="translate(100,27.627906976744185)"><rect x="1" width="11.5" height="92.37209302325581"></rect></g><g class="bar" transform="translate(112.5,55.25581395348837)"><rect x="1" width="11.5" height="64.74418604651163"></rect></g><g class="bar" transform="translate(125,88.74418604651163)"><rect x="1" width="11.5" height="31.25581395348837"></rect></g><g class="bar" transform="translate(137.5,102.4186046511628)"><rect x="1" width="11.5" height="17.581395348837205"></rect></g><g class="bar" transform="translate(150,115.53488372093024)"><rect x="1" width="11.5" height="4.465116279069761"></rect></g><g class="bar" transform="translate(162.5,120)"><rect x="1" width="11.5" height="0"></rect></g><g class="bar" transform="translate(175,120)"><rect x="1" width="11.5" height="0"></rect></g><g class="bar" transform="translate(187.5,120)"><rect x="1" width="11.5" height="0"></rect></g></g></svg>