<svg xmlns="http://www.w3.org/2000/svg" width="280" height="160"><defs><style type="text/css"><![CDATA[ 
.bar rect {
  fill-opacity: 0;
  stroke:       black;
  stroke-width: 0.5;
}

.highlight rect {
  fill:       red;
  fill-opacity: 1;
}
.axis path,
.axis line {
  fill: none;
  stroke: #000;
  shape-rendering: crispEdges;
}
 ]]></style></defs><g transform="translate(50,10)"><g class="bar" transform="translate(0,106.79245283018868)"><rect x="1" width="11.5" height="13.20754716981132"></rect></g><g class="bar" transform="translate(12.5,107.16981132075472)"><rect x="1" width="11.5" height="12.830188679245282"></rect></g><g class="bar" transform="translate(25,92.64150943396226)"><rect x="1" width="11.5" height="27.358490566037744"></rect></g><g class="bar" transform="translate(37.5,67.9245283018868)"><rect x="1" width="11.5" height="52.075471698113205"></rect></g><g class="bar" transform="translate(50,36.0377358490566)"><rect x="1" width="11.5" height="83.9622641509434"></rect></g><g class="bar" transform="translate(62.5,10.56603773584905)"><rect x="1" width="11.5" height="109.43396226415095"></rect></g><g class="bar" transform="translate(75,5.283018867924525)"><rect x="1" width="11.5" height="114.71698113207547"></rect></g><g class="bar" transform="translate(87.5,0)"><rect x="1" width="11.5" height="120"></rect></g><g class="bar" transform="translate(100,20.943396226415103)"><rect x="1" width="11.5" height="99.0566037735849"></rect></g><g class="bar" transform="translate(112.5,61.132075471698116)"><rect x="1" width="11.5" height="58.867924528301884"></rect></g><g class="bar" transform="translate(125,83.77358490566039)"><rect x="1" width="11.5" height="36.226415094339615"></rect></g><g class="bar" transform="translate(137.5,111.32075471698113)"><rect x="1" width="11.5" height="8.679245283018872"></rect></g><g class="bar" transform="translate(150,118.86792452830188)"><rect x="1" width="11.5" height="1.1320754716981156"></rect></g><g class="bar" transform="translate(162.5,119.81132075471699)"><rect x="1" width="11.5" height="0.18867924528301216"></rect></g><g class="bar" transform="translate(175,120)"><rect x="1" width="11.5" height="0"></rect></g><g class="bar" transform="translate(187.5,120)"><rect x="1" width="11.5" height="0"></rect></g></g></svg>