<svg xmlns="http://www.w3.org/2000/svg" width="600" height="350"><defs><style type="text/css"><![CDATA[ 
.bar rect {
  fill-opacity: 0;
  stroke:       black;
  stroke-width: 0.5;
}

.highlight rect {
  fill:       red;
  fill-opacity: 1;
}
.axis path,
.axis line {
  fill: none;
  stroke: #000;
  shape-rendering: crispEdges;
}
 ]]></style></defs><g transform="translate(50,10)"><g class="bar" transform="translate(0,303.05970149253733)"><rect x="1" width="11.999999999999996" height="6.940298507462671"></rect></g><g class="bar" transform="translate(12.999999999999996,264.8880597014925)"><rect x="1" width="11.999999999999996" height="45.11194029850748"></rect></g><g class="bar" transform="translate(25.999999999999993,264.8880597014925)"><rect x="1" width="11.999999999999996" height="45.11194029850748"></rect></g><g class="bar" transform="translate(39.00000000000001,279.92537313432837)"><rect x="1" width="11.999999999999996" height="30.074626865671632"></rect></g><g class="bar" transform="translate(52,277.6119402985075)"><rect x="1" width="11.999999999999996" height="32.38805970149252"></rect></g><g class="bar" transform="translate(65,257.94776119402985)"><rect x="1" width="11.999999999999996" height="52.05223880597015"></rect></g><g class="bar" transform="translate(78.00000000000001,230.1865671641791)"><rect x="1" width="11.999999999999996" height="79.81343283582089"></rect></g><g class="bar" transform="translate(91.00000000000001,232.5)"><rect x="1" width="11.999999999999996" height="77.5"></rect></g><g class="bar" transform="translate(104,198.95522388059703)"><rect x="1" width="11.999999999999996" height="111.04477611940297"></rect></g><g class="bar" transform="translate(117,143.43283582089552)"><rect x="1" width="11.999999999999996" height="166.56716417910448"></rect></g><g class="bar" transform="translate(130,120.29850746268656)"><rect x="1" width="11.999999999999996" height="189.70149253731344"></rect></g><g class="bar" transform="translate(143,93.69402985074629)"><rect x="1" width="11.999999999999996" height="216.3059701492537"></rect></g><g class="bar" transform="translate(156.00000000000003,78.65671641791045)"><rect x="1" width="11.999999999999996" height="231.34328358208955"></rect></g><g class="bar" transform="translate(169,46.26865671641792)"><rect x="1" width="11.999999999999996" height="263.7313432835821"></rect></g><g class="bar" transform="translate(182.00000000000003,25.44776119402985)"><rect x="1" width="11.999999999999996" height="284.55223880597015"></rect></g><g class="bar" transform="translate(195,54.36567164179104)"><rect x="1" width="11.999999999999996" height="255.63432835820896"></rect></g><g class="bar" transform="translate(208,0)"><rect x="1" width="11.999999999999996" height="310"></rect></g><g class="bar" transform="translate(221.00000000000003,11.567164179104452)"><rect x="1" width="11.999999999999996" height="298.43283582089555"></rect></g><g class="bar" transform="translate(234,26.604477611940297)"><rect x="1" width="11.999999999999996" height="283.3955223880597"></rect></g><g class="bar" transform="translate(247.00000000000003,18.507462686567123)"><rect x="1" width="11.999999999999996" height="291.4925373134329"></rect></g><g class="bar" transform="translate(260,47.42537313432837)"><rect x="1" width="11.999999999999996" height="262.57462686567163"></rect></g><g class="bar" transform="translate(273,72.87313432835819)"><rect x="1" width="11.999999999999996" height="237.1268656716418"></rect></g><g class="bar" transform="translate(286,113.35820895522386)"><rect x="1" width="11.999999999999996" height="196.64179104477614"></rect></g><g class="bar" transform="translate(299.00000000000006,170.03731343283582)"><rect x="1" width="11.999999999999996" height="139.96268656716418"></rect></g><g class="bar" transform="translate(312.00000000000006,178.13432835820896)"><rect x="1" width="11.999999999999996" height="131.86567164179104"></rect></g><g class="bar" transform="translate(325,195.48507462686567)"><rect x="1" width="11.999999999999996" height="114.51492537313433"></rect></g><g class="bar" transform="translate(338,249.8507462686567)"><rect x="1" width="11.999999999999996" height="60.14925373134329"></rect></g><g class="bar" transform="translate(351,239.44029850746267)"><rect x="1" width="11.999999999999996" height="70.55970149253733"></rect></g><g class="bar" transform="translate(364.00000000000006,285.7089552238806)"><rect x="1" width="11.999999999999996" height="24.291044776119406"></rect></g><g class="bar" transform="translate(377.00000000000006,304.2164179104478)"><rect x="1" width="11.999999999999996" height="5.783582089552226"></rect></g><g class="bar" transform="translate(390,305.3731343283582)"><rect x="1" width="11.999999999999996" height="4.626865671641781"></rect></g><g class="bar" transform="translate(403,307.6865671641791)"><rect x="1" width="11.999999999999996" height="2.3134328358208904"></rect></g><g class="bar" transform="translate(416,308.84328358208955)"><rect x="1" width="11.999999999999996" height="1.1567164179104452"></rect></g><g class="bar" transform="translate(429.00000000000006,310)"><rect x="1" width="11.999999999999996" height="0"></rect></g><g class="bar" transform="translate(442.00000000000006,310)"><rect x="1" width="11.999999999999996" height="0"></rect></g><g class="bar" transform="translate(455,310)"><rect x="1" width="11.999999999999996" height="0"></rect></g><g class="bar" transform="translate(468,310)"><rect x="1" width="11.999999999999996" height="0"></rect></g><g class="bar" transform="translate(481,310)"><rect x="1" width="11.999999999999996" height="0"></rect></g><g class="bar" transform="translate(494.00000000000006,310)"><rect x="1" width="11.999999999999996" height="0"></rect></g><g class="bar" transform="translate(507.00000000000006,310)"><rect x="1" width="11.999999999999996" height="0"></rect></g><g class="axis axis--x" transform="translate(0,310)" fill="none" font-size="10" font-family="sans-serif" text-anchor="middle"><path class="domain" stroke="#000" d="M0.5,6V0.5H520.5V6"></path><g class="tick" opacity="1" transform="translate(0,0)"><line stroke="#000" y2="6" x1="0.5" x2="0.5"></line><text fill="#000" y="9" x="0.5" dy="0.71em">0.01</text></g><g class="tick" opacity="1" transform="translate(130,0)"><line stroke="#000" y2="6" x1="0.5" x2="0.5"></line><text fill="#000" y="9" x="0.5" dy="0.71em">1</text></g><g class="tick" opacity="1" transform="translate(260,0)"><line stroke="#000" y2="6" x1="0.5" x2="0.5"></line><text fill="#000" y="9" x="0.5" dy="0.71em">100</text></g><g class="tick" opacity="1" transform="translate(390,0)"><line stroke="#000" y2="6" x1="0.5" x2="0.5"></line><text fill="#000" y="9" x="0.5" dy="0.71em">10000</text></g><g class="tick" opacity="1" transform="translate(520,0)"><line stroke="#000" y2="6" x1="0.5" x2="0.5"></line><text fill="#000" y="9" x="0.5" dy="0.71em"></text></g></g><g class="axis axis--y" fill="none" font-size="10" font-family="sans-serif" text-anchor="end"><path class="domain" stroke="#000" d="M-6,310.5H0.5V0.5H-6"></path><g class="tick" opacity="1" transform="translate(0,310)"><line stroke="#000" x2="-6" y1="0.5" y2="0.5"></line><text fill="#000" x="-9" y="0.5" dy="0.32em">0</text></g><g class="tick" opacity="1" transform="translate(0,286.86567164179104)"><line stroke="#000" x2="-6" y1="0.5" y2="0.5"></line><text fill="#000" x="-9" y="0.5" dy="0.32em">20</text></g><g class="tick" opacity="1" transform="translate(0,263.7313432835821)"><line stroke="#000" x2="-6" y1="0.5" y2="0.5"></line><text fill="#000" x="-9" y="0.5" dy="0.32em">40</text></g><g class="tick" opacity="1" transform="translate(0,240.59701492537312)"><line stroke="#000" x2="-6" y1="0.5" y2="0.5"></line><text fill="#000" x="-9" y="0.5" dy="0.32em">60</text></g><g class="tick" opacity="1" transform="translate(0,217.46268656716418)"><line stroke="#000" x2="-6" y1="0.5" y2="0.5"></line><text fill="#000" x="-9" y="0.5" dy="0.32em">80</text></g><g class="tick" opacity="1" transform="translate(0,194.32835820895522)"><line stroke="#000" x2="-6" y1="0.5" y2="0.5"></line><text fill="#000" x="-9" y="0.5" dy="0.32em">100</text></g><g class="tick" opacity="1" transform="translate(0,171.19402985074626)"><line stroke="#000" x2="-6" y1="0.5" y2="0.5"></line><text fill="#000" x="-9" y="0.5" dy="0.32em">120</text></g><g class="tick" opacity="1" transform="translate(0,148.05970149253733)"><line stroke="#000" x2="-6" y1="0.5" y2="0.5"></line><text fill="#000" x="-9" y="0.5" dy="0.32em">140</text></g><g class="tick" opacity="1" transform="translate(0,124.92537313432837)"><line stroke="#000" x2="-6" y1="0.5" y2="0.5"></line><text fill="#000" x="-9" y="0.5" dy="0.32em">160</text></g><g class="tick" opacity="1" transform="translate(0,101.79104477611938)"><line stroke="#000" x2="-6" y1="0.5" y2="0.5"></line><text fill="#000" x="-9" y="0.5" dy="0.32em">180</text></g><g class="tick" opacity="1" transform="translate(0,78.65671641791045)"><line stroke="#000" x2="-6" y1="0.5" y2="0.5"></line><text fill="#000" x="-9" y="0.5" dy="0.32em">200</text></g><g class="tick" opacity="1" transform="translate(0,55.522388059701484)"><line stroke="#000" x2="-6" y1="0.5" y2="0.5"></line><text fill="#000" x="-9" y="0.5" dy="0.32em">220</text></g><g class="tick" opacity="1" transform="translate(0,32.38805970149252)"><line stroke="#000" x2="-6" y1="0.5" y2="0.5"></line><text fill="#000" x="-9" y="0.5" dy="0.32em">240</text></g><g class="tick" opacity="1" transform="translate(0,9.253731343283562)"><line stroke="#000" x2="-6" y1="0.5" y2="0.5"></line><text fill="#000" x="-9" y="0.5" dy="0.32em">260</text></g></g></g></svg>