<svg xmlns="http://www.w3.org/2000/svg" width="600" height="350"><defs><style type="text/css"><![CDATA[ 
.bar rect {
  fill-opacity: 0;
  stroke:       black;
  stroke-width: 0.5;
}

.highlight rect {
  fill:       red;
  fill-opacity: 1;
}
.axis path,
.axis line {
  fill: none;
  stroke: #000;
  shape-rendering: crispEdges;
}
path {
    stroke: red;
    fill: none;
}

line {
    stroke: red;
}

path.marker {
    fill: red;
}
 ]]></style></defs><g transform="translate(50,10)"><g class="bar" transform="translate(0,205.4394299287411)"><rect x="1" width="11.999999999999996" height="104.5605700712589"></rect></g><g class="bar" transform="translate(12.999999999999996,200.28503562945366)"><rect x="1" width="11.999999999999996" height="109.71496437054634"></rect></g><g class="bar" transform="translate(25.999999999999993,199.91686460807603)"><rect x="1" width="11.999999999999996" height="110.08313539192397"></rect></g><g class="bar" transform="translate(39.00000000000001,233.78859857482186)"><rect x="1" width="11.999999999999996" height="76.21140142517814"></rect></g><g class="bar" transform="translate(52,234.89311163895485)"><rect x="1" width="11.999999999999996" height="75.10688836104515"></rect></g><g class="bar" transform="translate(65,261.7695961995249)"><rect x="1" width="11.999999999999996" height="48.230403800475074"></rect></g><g class="bar" transform="translate(78.00000000000001,258.82422802850357)"><rect x="1" width="11.999999999999996" height="51.17577197149643"></rect></g><g class="bar" transform="translate(91.00000000000001,235.9976247030879)"><rect x="1" width="11.999999999999996" height="74.0023752969121"></rect></g><g class="bar" transform="translate(104,197.3396674584323)"><rect x="1" width="11.999999999999996" height="112.6603325415677"></rect></g><g class="bar" transform="translate(117,138.80047505938245)"><rect x="1" width="11.999999999999996" height="171.19952494061755"></rect></g><g class="bar" transform="translate(130,53.38479809976246)"><rect x="1" width="11.999999999999996" height="256.61520190023754"></rect></g><g class="bar" transform="translate(143,39.76247030878858)"><rect x="1" width="11.999999999999996" height="270.2375296912114"></rect></g><g class="bar" transform="translate(156.00000000000003,0)"><rect x="1" width="11.999999999999996" height="310"></rect></g><g class="bar" transform="translate(169,74.0023752969121)"><rect x="1" width="11.999999999999996" height="235.9976247030879"></rect></g><g class="bar" transform="translate(182.00000000000003,114.13301662707838)"><rect x="1" width="11.999999999999996" height="195.86698337292162"></rect></g><g class="bar" transform="translate(195,138.80047505938245)"><rect x="1" width="11.999999999999996" height="171.19952494061755"></rect></g><g class="bar" transform="translate(208,170.46318289786223)"><rect x="1" width="11.999999999999996" height="139.53681710213777"></rect></g><g class="bar" transform="translate(221.00000000000003,189.2399049881235)"><rect x="1" width="11.999999999999996" height="120.7600950118765"></rect></g><g class="bar" transform="translate(234,208.38479809976246)"><rect x="1" width="11.999999999999996" height="101.61520190023754"></rect></g><g class="bar" transform="translate(247.00000000000003,218.6935866983373)"><rect x="1" width="11.999999999999996" height="91.3064133016627"></rect></g><g class="bar" transform="translate(260,229.3705463182898)"><rect x="1" width="11.999999999999996" height="80.6294536817102"></rect></g><g class="bar" transform="translate(273,243.36104513064134)"><rect x="1" width="11.999999999999996" height="66.63895486935866"></rect></g><g class="bar" transform="translate(286,252.56532066508314)"><rect x="1" width="11.999999999999996" height="57.434679334916865"></rect></g><g class="bar" transform="translate(299.00000000000006,278.70546318289786)"><rect x="1" width="11.999999999999996" height="31.29453681710214"></rect></g><g class="bar" transform="translate(312.00000000000006,252.56532066508314)"><rect x="1" width="11.999999999999996" height="57.434679334916865"></rect></g><g class="bar" transform="translate(325,284.96437054631826)"><rect x="1" width="11.999999999999996" height="25.035629453681736"></rect></g><g class="bar" transform="translate(338,278.33729216152017)"><rect x="1" width="11.999999999999996" height="31.662707838479832"></rect></g><g class="bar" transform="translate(351,291.2232779097387)"><rect x="1" width="11.999999999999996" height="18.776722090261273"></rect></g><g class="bar" transform="translate(364.00000000000006,301.16389548693587)"><rect x="1" width="11.999999999999996" height="8.836104513064129"></rect></g><g class="bar" transform="translate(377.00000000000006,307.4228028503563)"><rect x="1" width="11.999999999999996" height="2.577197149643723"></rect></g><g class="bar" transform="translate(390,308.5273159144893)"><rect x="1" width="11.999999999999996" height="1.472684085510707"></rect></g><g class="bar" transform="translate(403,310)"><rect x="1" width="11.999999999999996" height="0"></rect></g><g class="bar" transform="translate(416,310)"><rect x="1" width="11.999999999999996" height="0"></rect></g><g class="bar" transform="translate(429.00000000000006,310)"><rect x="1" width="11.999999999999996" height="0"></rect></g><g class="bar" transform="translate(442.00000000000006,310)"><rect x="1" width="11.999999999999996" height="0"></rect></g><g class="bar" transform="translate(455,310)"><rect x="1" width="11.999999999999996" height="0"></rect></g><g class="bar" transform="translate(468,310)"><rect x="1" width="11.999999999999996" height="0"></rect></g><g class="bar" transform="translate(481,310)"><rect x="1" width="11.999999999999996" height="0"></rect></g><g class="bar" transform="translate(494.00000000000006,310)"><rect x="1" width="11.999999999999996" height="0"></rect></g><g class="bar" transform="translate(507.00000000000006,310)"><rect x="1" width="11.999999999999996" height="0"></rect></g><g class="axis axis--x" transform="translate(0,310)" fill="none" font-size="10" font-family="sans-serif" text-anchor="middle"><path class="domain" stroke="#000" d="M0.5,6V0.5H520.5V6"></path><g class="tick" opacity="1" transform="translate(0.5,0)"><line stroke="#000" y2="6"></line><text fill="#000" y="9" dy="0.71em">0.01</text></g><g class="tick" opacity="1" transform="translate(130.5,0)"><line stroke="#000" y2="6"></line><text fill="#000" y="9" dy="0.71em">1</text></g><g class="tick" opacity="1" transform="translate(260.5,0)"><line stroke="#000" y2="6"></line><text fill="#000" y="9" dy="0.71em">100</text></g><g class="tick" opacity="1" transform="translate(390.5,0)"><line stroke="#000" y2="6"></line><text fill="#000" y="9" dy="0.71em">10000</text></g><g class="tick" opacity="1" transform="translate(520.5,0)"><line stroke="#000" y2="6"></line><text fill="#000" y="9" dy="0.71em"></text></g></g><g class="axis axis--y" fill="none" font-size="10" font-family="sans-serif" text-anchor="end"><path class="domain" stroke="#000" d="M-6,310.5H0.5V0.5H-6"></path><g class="tick" opacity="1" transform="translate(0,310.5)"><line stroke="#000" x2="-6"></line><text fill="#000" x="-9" dy="0.32em">0</text></g><g class="tick" opacity="1" transform="translate(0,273.6828978622328)"><line stroke="#000" x2="-6"></line><text fill="#000" x="-9" dy="0.32em">100</text></g><g class="tick" opacity="1" transform="translate(0,236.86579572446556)"><line stroke="#000" x2="-6"></line><text fill="#000" x="-9" dy="0.32em">200</text></g><g class="tick" opacity="1" transform="translate(0,200.04869358669833)"><line stroke="#000" x2="-6"></line><text fill="#000" x="-9" dy="0.32em">300</text></g><g class="tick" opacity="1" transform="translate(0,163.2315914489311)"><line stroke="#000" x2="-6"></line><text fill="#000" x="-9" dy="0.32em">400</text></g><g class="tick" opacity="1" transform="translate(0,126.41448931116389)"><line stroke="#000" x2="-6"></line><text fill="#000" x="-9" dy="0.32em">500</text></g><g class="tick" opacity="1" transform="translate(0,89.59738717339667)"><line stroke="#000" x2="-6"></line><text fill="#000" x="-9" dy="0.32em">600</text></g><g class="tick" opacity="1" transform="translate(0,52.78028503562945)"><line stroke="#000" x2="-6"></line><text fill="#000" x="-9" dy="0.32em">700</text></g><g class="tick" opacity="1" transform="translate(0,15.963182897862225)"><line stroke="#000" x2="-6"></line><text fill="#000" x="-9" dy="0.32em">800</text></g></g></g></svg>