<svg xmlns="http://www.w3.org/2000/svg" width="600" height="350"><defs><style type="text/css"><![CDATA[ 
.bar rect {
  fill-opacity: 0;
  stroke:       black;
  stroke-width: 0.5;
}

.highlight rect {
  fill:       red;
  fill-opacity: 1;
}
.axis path,
.axis line {
  fill: none;
  stroke: #000;
  shape-rendering: crispEdges;
}
 ]]></style></defs><g transform="translate(50,10)"><g class="bar" transform="translate(0,309.369918699187)"><rect x="1" width="11.999999999999996" height="0.6300813008130035"></rect></g><g class="bar" transform="translate(12.999999999999996,308.739837398374)"><rect x="1" width="11.999999999999996" height="1.260162601626007"></rect></g><g class="bar" transform="translate(25.999999999999993,308.109756097561)"><rect x="1" width="11.999999999999996" height="1.8902439024390105"></rect></g><g class="bar" transform="translate(39.00000000000001,286.6869918699187)"><rect x="1" width="11.999999999999996" height="23.3130081300813"></rect></g><g class="bar" transform="translate(52,301.1788617886179)"><rect x="1" width="11.999999999999996" height="8.821138211382106"></rect></g><g class="bar" transform="translate(65,296.7682926829268)"><rect x="1" width="11.999999999999996" height="13.231707317073187"></rect></g><g class="bar" transform="translate(78.00000000000001,296.1382113821138)"><rect x="1" width="11.999999999999996" height="13.86178861788619"></rect></g><g class="bar" transform="translate(91.00000000000001,286.0569105691057)"><rect x="1" width="11.999999999999996" height="23.943089430894304"></rect></g><g class="bar" transform="translate(104,275.3455284552846)"><rect x="1" width="11.999999999999996" height="34.65447154471542"></rect></g><g class="bar" transform="translate(117,259.5934959349594)"><rect x="1" width="11.999999999999996" height="50.40650406504062"></rect></g><g class="bar" transform="translate(130,255.1829268292683)"><rect x="1" width="11.999999999999996" height="54.8170731707317"></rect></g><g class="bar" transform="translate(143,240.0609756097561)"><rect x="1" width="11.999999999999996" height="69.9390243902439"></rect></g><g class="bar" transform="translate(156.00000000000003,228.71951219512195)"><rect x="1" width="11.999999999999996" height="81.28048780487805"></rect></g><g class="bar" transform="translate(169,190.28455284552845)"><rect x="1" width="11.999999999999996" height="119.71544715447155"></rect></g><g class="bar" transform="translate(182.00000000000003,169.4918699186992)"><rect x="1" width="11.999999999999996" height="140.5081300813008"></rect></g><g class="bar" transform="translate(195,130.4268292682927)"><rect x="1" width="11.999999999999996" height="179.5731707317073"></rect></g><g class="bar" transform="translate(208,80.02032520325204)"><rect x="1" width="11.999999999999996" height="229.97967479674796"></rect></g><g class="bar" transform="translate(221.00000000000003,71.82926829268291)"><rect x="1" width="11.999999999999996" height="238.1707317073171"></rect></g><g class="bar" transform="translate(234,38.4349593495935)"><rect x="1" width="11.999999999999996" height="271.5650406504065"></rect></g><g class="bar" transform="translate(247.00000000000003,0)"><rect x="1" width="11.999999999999996" height="310"></rect></g><g class="bar" transform="translate(260,41.585365853658516)"><rect x="1" width="11.999999999999996" height="268.4146341463415"></rect></g><g class="bar" transform="translate(273,81.28048780487805)"><rect x="1" width="11.999999999999996" height="228.71951219512195"></rect></g><g class="bar" transform="translate(286,137.3577235772358)"><rect x="1" width="11.999999999999996" height="172.6422764227642"></rect></g><g class="bar" transform="translate(299.00000000000006,174.53252032520325)"><rect x="1" width="11.999999999999996" height="135.46747967479675"></rect></g><g class="bar" transform="translate(312.00000000000006,187.7642276422764)"><rect x="1" width="11.999999999999996" height="122.23577235772359"></rect></g><g class="bar" transform="translate(325,242.5813008130081)"><rect x="1" width="11.999999999999996" height="67.41869918699189"></rect></g><g class="bar" transform="translate(338,275.3455284552846)"><rect x="1" width="11.999999999999996" height="34.65447154471542"></rect></g><g class="bar" transform="translate(351,297.3983739837398)"><rect x="1" width="11.999999999999996" height="12.601626016260184"></rect></g><g class="bar" transform="translate(364.00000000000006,303.6991869918699)"><rect x="1" width="11.999999999999996" height="6.300813008130092"></rect></g><g class="bar" transform="translate(377.00000000000006,307.479674796748)"><rect x="1" width="11.999999999999996" height="2.520325203252014"></rect></g><g class="bar" transform="translate(390,308.109756097561)"><rect x="1" width="11.999999999999996" height="1.8902439024390105"></rect></g><g class="bar" transform="translate(403,309.369918699187)"><rect x="1" width="11.999999999999996" height="0.6300813008130035"></rect></g><g class="bar" transform="translate(416,310)"><rect x="1" width="11.999999999999996" height="0"></rect></g><g class="bar" transform="translate(429.00000000000006,310)"><rect x="1" width="11.999999999999996" height="0"></rect></g><g class="bar" transform="translate(442.00000000000006,310)"><rect x="1" width="11.999999999999996" height="0"></rect></g><g class="bar" transform="translate(455,310)"><rect x="1" width="11.999999999999996" height="0"></rect></g><g class="bar" transform="translate(468,310)"><rect x="1" width="11.999999999999996" height="0"></rect></g><g class="bar" transform="translate(481,310)"><rect x="1" width="11.999999999999996" height="0"></rect></g><g class="bar" transform="translate(494.00000000000006,310)"><rect x="1" width="11.999999999999996" height="0"></rect></g><g class="bar" transform="translate(507.00000000000006,310)"><rect x="1" width="11.999999999999996" height="0"></rect></g><g class="axis axis--x" transform="translate(0,310)" fill="none" font-size="10" font-family="sans-serif" text-anchor="middle"><path class="domain" stroke="#000" d="M0.5,6V0.5H520.5V6"></path><g class="tick" opacity="1" transform="translate(0,0)"><line stroke="#000" y2="6" x1="0.5" x2="0.5"></line><text fill="#000" y="9" x="0.5" dy="0.71em">0.01</text></g><g class="tick" opacity="1" transform="translate(130,0)"><line stroke="#000" y2="6" x1="0.5" x2="0.5"></line><text fill="#000" y="9" x="0.5" dy="0.71em">1</text></g><g class="tick" opacity="1" transform="translate(260,0)"><line stroke="#000" y2="6" x1="0.5" x2="0.5"></line><text fill="#000" y="9" x="0.5" dy="0.71em">100</text></g><g class="tick" opacity="1" transform="translate(390,0)"><line stroke="#000" y2="6" x1="0.5" x2="0.5"></line><text fill="#000" y="9" x="0.5" dy="0.71em">10000</text></g><g class="tick" opacity="1" transform="translate(520,0)"><line stroke="#000" y2="6" x1="0.5" x2="0.5"></line><text fill="#000" y="9" x="0.5" dy="0.71em"></text></g></g><g class="axis axis--y" fill="none" font-size="10" font-family="sans-serif" text-anchor="end"><path class="domain" stroke="#000" d="M-6,310.5H0.5V0.5H-6"></path><g class="tick" opacity="1" transform="translate(0,310)"><line stroke="#000" x2="-6" y1="0.5" y2="0.5"></line><text fill="#000" x="-9" y="0.5" dy="0.32em">0</text></g><g class="tick" opacity="1" transform="translate(0,278.4959349593496)"><line stroke="#000" x2="-6" y1="0.5" y2="0.5"></line><text fill="#000" x="-9" y="0.5" dy="0.32em">50</text></g><g class="tick" opacity="1" transform="translate(0,246.9918699186992)"><line stroke="#000" x2="-6" y1="0.5" y2="0.5"></line><text fill="#000" x="-9" y="0.5" dy="0.32em">100</text></g><g class="tick" opacity="1" transform="translate(0,215.4878048780488)"><line stroke="#000" x2="-6" y1="0.5" y2="0.5"></line><text fill="#000" x="-9" y="0.5" dy="0.32em">150</text></g><g class="tick" opacity="1" transform="translate(0,183.9837398373984)"><line stroke="#000" x2="-6" y1="0.5" y2="0.5"></line><text fill="#000" x="-9" y="0.5" dy="0.32em">200</text></g><g class="tick" opacity="1" transform="translate(0,152.47967479674796)"><line stroke="#000" x2="-6" y1="0.5" y2="0.5"></line><text fill="#000" x="-9" y="0.5" dy="0.32em">250</text></g><g class="tick" opacity="1" transform="translate(0,120.97560975609755)"><line stroke="#000" x2="-6" y1="0.5" y2="0.5"></line><text fill="#000" x="-9" y="0.5" dy="0.32em">300</text></g><g class="tick" opacity="1" transform="translate(0,89.47154471544715)"><line stroke="#000" x2="-6" y1="0.5" y2="0.5"></line><text fill="#000" x="-9" y="0.5" dy="0.32em">350</text></g><g class="tick" opacity="1" transform="translate(0,57.96747967479675)"><line stroke="#000" x2="-6" y1="0.5" y2="0.5"></line><text fill="#000" x="-9" y="0.5" dy="0.32em">400</text></g><g class="tick" opacity="1" transform="translate(0,26.463414634146318)"><line stroke="#000" x2="-6" y1="0.5" y2="0.5"></line><text fill="#000" x="-9" y="0.5" dy="0.32em">450</text></g></g></g></svg>