<svg xmlns="http://www.w3.org/2000/svg" width="280" height="160"><defs><style type="text/css"><![CDATA[ 
.bar rect {
  fill-opacity: 0;
  stroke:       black;
  stroke-width: 0.5;
}

.highlight rect {
  fill:       red;
  fill-opacity: 1;
}
.axis path,
.axis line {
  fill: none;
  stroke: #000;
  shape-rendering: crispEdges;
}
 ]]></style></defs><g transform="translate(50,10)"><g class="bar" transform="translate(0,119.95213402473075)"><rect x="1" width="11.5" height="0.04786597526924652"></rect></g><g class="bar" transform="translate(12.5,117.5109692859992)"><rect x="1" width="11.5" height="2.489030714000805"></rect></g><g class="bar" transform="translate(25,110.9533306741125)"><rect x="1" width="11.5" height="9.046669325887507"></rect></g><g class="bar" transform="translate(37.5,87.4990027921819)"><rect x="1" width="11.5" height="32.5009972078181"></rect></g><g class="bar" transform="translate(50,4.834463502193856)"><rect x="1" width="11.5" height="115.16553649780614"></rect></g><g class="bar" transform="translate(62.5,0)"><rect x="1" width="11.5" height="120"></rect></g><g class="bar" transform="translate(75,70.84164339848425)"><rect x="1" width="11.5" height="49.15835660151575"></rect></g><g class="bar" transform="translate(87.5,61.22058236936578)"><rect x="1" width="11.5" height="58.77941763063422"></rect></g><g class="bar" transform="translate(100,70.93737534902274)"><rect x="1" width="11.5" height="49.062624650977256"></rect></g><g class="bar" transform="translate(112.5,100.3749501396091)"><rect x="1" width="11.5" height="19.625049860390902"></rect></g><g class="bar" transform="translate(125,115.78779417630633)"><rect x="1" width="11.5" height="4.212205823693665"></rect></g><g class="bar" transform="translate(137.5,118.42042281611488)"><rect x="1" width="11.5" height="1.579577183885121"></rect></g><g class="bar" transform="translate(150,119.76067012365377)"><rect x="1" width="11.5" height="0.2393298763462326"></rect></g><g class="bar" transform="translate(162.5,119.9042680494615)"><rect x="1" width="11.5" height="0.09573195053849304"></rect></g><g class="bar" transform="translate(175,120)"><rect x="1" width="11.5" height="0"></rect></g><g class="bar" transform="translate(187.5,120)"><rect x="1" width="11.5" height="0"></rect></g></g></svg>