<svg xmlns="http://www.w3.org/2000/svg" width="280" height="160"><defs><style type="text/css"><![CDATA[ 
.bar rect {
  fill-opacity: 0;
  stroke:       black;
  stroke-width: 0.5;
}

.highlight rect {
  fill:       red;
  fill-opacity: 1;
}
.axis path,
.axis line {
  fill: none;
  stroke: #000;
  shape-rendering: crispEdges;
}
path {
    stroke: red;
    fill: none;
}

line {
    stroke: red;
}

path.marker {
    fill: red;
}
 ]]></style></defs><g transform="translate(50,10)"><g class="bar" transform="translate(0,120)"><rect x="1" width="11.5" height="0"></rect></g><g class="bar" transform="translate(12.5,120)"><rect x="1" width="11.5" height="0"></rect></g><g class="bar" transform="translate(25,120)"><rect x="1" width="11.5" height="0"></rect></g><g class="bar" transform="translate(37.5,116.26229508196721)"><rect x="1" width="11.5" height="3.73770491803279"></rect></g><g class="bar" transform="translate(50,109.9672131147541)"><rect x="1" width="11.5" height="10.032786885245898"></rect></g><g class="bar" transform="translate(62.5,88.32786885245902)"><rect x="1" width="11.5" height="31.67213114754098"></rect></g><g class="bar" transform="translate(75,38.55737704918033)"><rect x="1" width="11.5" height="81.44262295081967"></rect></g><g class="bar" transform="translate(87.5,0)"><rect x="1" width="11.5" height="120"></rect></g><g class="bar" transform="translate(100,10.229508196721312)"><rect x="1" width="11.5" height="109.77049180327869"></rect></g><g class="bar" transform="translate(112.5,68.26229508196721)"><rect x="1" width="11.5" height="51.73770491803279"></rect></g><g class="bar" transform="translate(125,99.14754098360656)"><rect x="1" width="11.5" height="20.85245901639344"></rect></g><g class="bar" transform="translate(137.5,114.29508196721312)"><rect x="1" width="11.5" height="5.704918032786878"></rect></g><g class="bar" transform="translate(150,116.85245901639344)"><rect x="1" width="11.5" height="3.147540983606561"></rect></g><g class="bar" transform="translate(162.5,119.60655737704919)"><rect x="1" width="11.5" height="0.3934426229508148"></rect></g><g class="bar" transform="translate(175,120)"><rect x="1" width="11.5" height="0"></rect></g><g class="bar" transform="translate(187.5,120)"><rect x="1" width="11.5" height="0"></rect></g></g></svg>