<svg xmlns="http://www.w3.org/2000/svg" width="600" height="350"><defs><style type="text/css"><![CDATA[ 
.bar rect {
  fill-opacity: 0;
  stroke:       black;
  stroke-width: 0.5;
}

.highlight rect {
  fill:       red;
  fill-opacity: 1;
}
.axis path,
.axis line {
  fill: none;
  stroke: #000;
  shape-rendering: crispEdges;
}
path {
    stroke: red;
    fill: none;
}

line {
    stroke: red;
}

path.marker {
    fill: red;
}
 ]]></style></defs><g transform="translate(50,10)"><g class="bar" transform="translate(0,305.72217111315547)"><rect x="1" width="11.999999999999996" height="4.2778288868445316"></rect></g><g class="bar" transform="translate(12.999999999999996,302.87028518859245)"><rect x="1" width="11.999999999999996" height="7.129714811407553"></rect></g><g class="bar" transform="translate(25.999999999999993,301.44434222631094)"><rect x="1" width="11.999999999999996" height="8.555657773689063"></rect></g><g class="bar" transform="translate(39.00000000000001,291.46274149034036)"><rect x="1" width="11.999999999999996" height="18.537258509659637"></rect></g><g class="bar" transform="translate(52,263.7994480220791)"><rect x="1" width="11.999999999999996" height="46.200551977920895"></rect></g><g class="bar" transform="translate(65,200.48758049678014)"><rect x="1" width="11.999999999999996" height="109.51241950321986"></rect></g><g class="bar" transform="translate(78.00000000000001,102.38270469181234)"><rect x="1" width="11.999999999999996" height="207.61729530818766"></rect></g><g class="bar" transform="translate(91.00000000000001,29.37442502299905)"><rect x="1" width="11.999999999999996" height="280.62557497700095"></rect></g><g class="bar" transform="translate(104,0)"><rect x="1" width="11.999999999999996" height="310"></rect></g><g class="bar" transform="translate(117,21.10395584176632)"><rect x="1" width="11.999999999999996" height="288.8960441582337"></rect></g><g class="bar" transform="translate(130,41.922723091076364)"><rect x="1" width="11.999999999999996" height="268.07727690892364"></rect></g><g class="bar" transform="translate(143,78.7120515179393)"><rect x="1" width="11.999999999999996" height="231.2879484820607"></rect></g><g class="bar" transform="translate(156.00000000000003,101.81232750689972)"><rect x="1" width="11.999999999999996" height="208.18767249310028"></rect></g><g class="bar" transform="translate(169,126.33854645814168)"><rect x="1" width="11.999999999999996" height="183.66145354185832"></rect></g><g class="bar" transform="translate(182.00000000000003,127.47930082796688)"><rect x="1" width="11.999999999999996" height="182.52069917203312"></rect></g><g class="bar" transform="translate(195,165.6945722171113)"><rect x="1" width="11.999999999999996" height="144.3054277828887"></rect></g><g class="bar" transform="translate(208,171.96872125114996)"><rect x="1" width="11.999999999999996" height="138.03127874885004"></rect></g><g class="bar" transform="translate(221.00000000000003,189.93560257589695)"><rect x="1" width="11.999999999999996" height="120.06439742410305"></rect></g><g class="bar" transform="translate(234,209.0432382704692)"><rect x="1" width="11.999999999999996" height="100.9567617295308"></rect></g><g class="bar" transform="translate(247.00000000000003,228.1508739650414)"><rect x="1" width="11.999999999999996" height="81.8491260349586"></rect></g><g class="bar" transform="translate(260,234.99540018399264)"><rect x="1" width="11.999999999999996" height="75.00459981600736"></rect></g><g class="bar" transform="translate(273,257.5252989880405)"><rect x="1" width="11.999999999999996" height="52.474701011959496"></rect></g><g class="bar" transform="translate(286,263.5142594296228)"><rect x="1" width="11.999999999999996" height="46.485740570377175"></rect></g><g class="bar" transform="translate(299.00000000000006,286.04415823367066)"><rect x="1" width="11.999999999999996" height="23.955841766329343"></rect></g><g class="bar" transform="translate(312.00000000000006,293.4590616375345)"><rect x="1" width="11.999999999999996" height="16.54093836246551"></rect></g><g class="bar" transform="translate(325,300.58877644894204)"><rect x="1" width="11.999999999999996" height="9.411223551057958"></rect></g><g class="bar" transform="translate(338,302.58509659613617)"><rect x="1" width="11.999999999999996" height="7.414903403863832"></rect></g><g class="bar" transform="translate(351,305.15179392824285)"><rect x="1" width="11.999999999999996" height="4.848206071757147"></rect></g><g class="bar" transform="translate(364.00000000000006,306.8629254829807)"><rect x="1" width="11.999999999999996" height="3.1370745170193004"></rect></g><g class="bar" transform="translate(377.00000000000006,308.0036798528059)"><rect x="1" width="11.999999999999996" height="1.996320147194126"></rect></g><g class="bar" transform="translate(390,309.1444342226311)"><rect x="1" width="11.999999999999996" height="0.8555657773688949"></rect></g><g class="bar" transform="translate(403,309.7148114075437)"><rect x="1" width="11.999999999999996" height="0.28518859245627937"></rect></g><g class="bar" transform="translate(416,308.0036798528059)"><rect x="1" width="11.999999999999996" height="1.996320147194126"></rect></g><g class="bar" transform="translate(429.00000000000006,309.4296228150874)"><rect x="1" width="11.999999999999996" height="0.5703771849126156"></rect></g><g class="bar" transform="translate(442.00000000000006,309.7148114075437)"><rect x="1" width="11.999999999999996" height="0.28518859245627937"></rect></g><g class="bar" transform="translate(455,310)"><rect x="1" width="11.999999999999996" height="0"></rect></g><g class="bar" transform="translate(468,310)"><rect x="1" width="11.999999999999996" height="0"></rect></g><g class="bar" transform="translate(481,310)"><rect x="1" width="11.999999999999996" height="0"></rect></g><g class="bar" transform="translate(494.00000000000006,310)"><rect x="1" width="11.999999999999996" height="0"></rect></g><g class="bar" transform="translate(507.00000000000006,310)"><rect x="1" width="11.999999999999996" height="0"></rect></g><g class="axis axis--x" transform="translate(0,310)" fill="none" font-size="10" font-family="sans-serif" text-anchor="middle"><path class="domain" stroke="#000" d="M0.5,6V0.5H520.5V6"></path><g class="tick" opacity="1" transform="translate(0.5,0)"><line stroke="#000" y2="6"></line><text fill="#000" y="9" dy="0.71em">0.01</text></g><g class="tick" opacity="1" transform="translate(130.5,0)"><line stroke="#000" y2="6"></line><text fill="#000" y="9" dy="0.71em">1</text></g><g class="tick" opacity="1" transform="translate(260.5,0)"><line stroke="#000" y2="6"></line><text fill="#000" y="9" dy="0.71em">100</text></g><g class="tick" opacity="1" transform="translate(390.5,0)"><line stroke="#000" y2="6"></line><text fill="#000" y="9" dy="0.71em">10000</text></g><g class="tick" opacity="1" transform="translate(520.5,0)"><line stroke="#000" y2="6"></line><text fill="#000" y="9" dy="0.71em"></text></g></g><g class="axis axis--y" fill="none" font-size="10" font-family="sans-serif" text-anchor="end"><path class="domain" stroke="#000" d="M-6,310.5H0.5V0.5H-6"></path><g class="tick" opacity="1" transform="translate(0,310.5)"><line stroke="#000" x2="-6"></line><text fill="#000" x="-9" dy="0.32em">0</text></g><g class="tick" opacity="1" transform="translate(0,281.98114075436985)"><line stroke="#000" x2="-6"></line><text fill="#000" x="-9" dy="0.32em">100</text></g><g class="tick" opacity="1" transform="translate(0,253.46228150873964)"><line stroke="#000" x2="-6"></line><text fill="#000" x="-9" dy="0.32em">200</text></g><g class="tick" opacity="1" transform="translate(0,224.94342226310948)"><line stroke="#000" x2="-6"></line><text fill="#000" x="-9" dy="0.32em">300</text></g><g class="tick" opacity="1" transform="translate(0,196.4245630174793)"><line stroke="#000" x2="-6"></line><text fill="#000" x="-9" dy="0.32em">400</text></g><g class="tick" opacity="1" transform="translate(0,167.90570377184912)"><line stroke="#000" x2="-6"></line><text fill="#000" x="-9" dy="0.32em">500</text></g><g class="tick" opacity="1" transform="translate(0,139.38684452621897)"><line stroke="#000" x2="-6"></line><text fill="#000" x="-9" dy="0.32em">600</text></g><g class="tick" opacity="1" transform="translate(0,110.86798528058875)"><line stroke="#000" x2="-6"></line><text fill="#000" x="-9" dy="0.32em">700</text></g><g class="tick" opacity="1" transform="translate(0,82.3491260349586)"><line stroke="#000" x2="-6"></line><text fill="#000" x="-9" dy="0.32em">800</text></g><g class="tick" opacity="1" transform="translate(0,53.83026678932839)"><line stroke="#000" x2="-6"></line><text fill="#000" x="-9" dy="0.32em">900</text></g><g class="tick" opacity="1" transform="translate(0,25.311407543698238)"><line stroke="#000" x2="-6"></line><text fill="#000" x="-9" dy="0.32em">1,000</text></g></g></g></svg>