<svg xmlns="http://www.w3.org/2000/svg" width="600" height="350"><defs><style type="text/css"><![CDATA[ 
.bar rect {
  fill-opacity: 0;
  stroke:       black;
  stroke-width: 0.5;
}

.highlight rect {
  fill:       red;
  fill-opacity: 1;
}
.axis path,
.axis line {
  fill: none;
  stroke: #000;
  shape-rendering: crispEdges;
}
path {
    stroke: red;
    fill: none;
}

line {
    stroke: red;
}

path.marker {
    fill: red;
}
 ]]></style></defs><g transform="translate(50,10)"><g class="bar" transform="translate(0,310)"><rect x="1" width="11.999999999999996" height="0"></rect></g><g class="bar" transform="translate(12.999999999999996,310)"><rect x="1" width="11.999999999999996" height="0"></rect></g><g class="bar" transform="translate(25.999999999999993,310)"><rect x="1" width="11.999999999999996" height="0"></rect></g><g class="bar" transform="translate(39.00000000000001,310)"><rect x="1" width="11.999999999999996" height="0"></rect></g><g class="bar" transform="translate(52,310)"><rect x="1" width="11.999999999999996" height="0"></rect></g><g class="bar" transform="translate(65,310)"><rect x="1" width="11.999999999999996" height="0"></rect></g><g class="bar" transform="translate(78.00000000000001,310)"><rect x="1" width="11.999999999999996" height="0"></rect></g><g class="bar" transform="translate(91.00000000000001,310)"><rect x="1" width="11.999999999999996" height="0"></rect></g><g class="bar" transform="translate(104,310)"><rect x="1" width="11.999999999999996" height="0"></rect></g><g class="bar" transform="translate(117,310)"><rect x="1" width="11.999999999999996" height="0"></rect></g><g class="bar" transform="translate(130,306.26506024096386)"><rect x="1" width="11.999999999999996" height="3.7349397590361377"></rect></g><g class="bar" transform="translate(143,306.26506024096386)"><rect x="1" width="11.999999999999996" height="3.7349397590361377"></rect></g><g class="bar" transform="translate(156.00000000000003,306.26506024096386)"><rect x="1" width="11.999999999999996" height="3.7349397590361377"></rect></g><g class="bar" transform="translate(169,306.26506024096386)"><rect x="1" width="11.999999999999996" height="3.7349397590361377"></rect></g><g class="bar" transform="translate(182.00000000000003,302.5301204819277)"><rect x="1" width="11.999999999999996" height="7.4698795180722755"></rect></g><g class="bar" transform="translate(195,291.32530120481925)"><rect x="1" width="11.999999999999996" height="18.674698795180745"></rect></g><g class="bar" transform="translate(208,261.4457831325301)"><rect x="1" width="11.999999999999996" height="48.554216867469904"></rect></g><g class="bar" transform="translate(221.00000000000003,239.03614457831327)"><rect x="1" width="11.999999999999996" height="70.96385542168673"></rect></g><g class="bar" transform="translate(234,201.6867469879518)"><rect x="1" width="11.999999999999996" height="108.3132530120482"></rect></g><g class="bar" transform="translate(247.00000000000003,216.6265060240964)"><rect x="1" width="11.999999999999996" height="93.37349397590361"></rect></g><g class="bar" transform="translate(260,85.90361445783134)"><rect x="1" width="11.999999999999996" height="224.09638554216866"></rect></g><g class="bar" transform="translate(273,108.3132530120482)"><rect x="1" width="11.999999999999996" height="201.6867469879518"></rect></g><g class="bar" transform="translate(286,70.96385542168673)"><rect x="1" width="11.999999999999996" height="239.03614457831327"></rect></g><g class="bar" transform="translate(299.00000000000006,82.16867469879517)"><rect x="1" width="11.999999999999996" height="227.83132530120483"></rect></g><g class="bar" transform="translate(312.00000000000006,0)"><rect x="1" width="11.999999999999996" height="310"></rect></g><g class="bar" transform="translate(325,59.75903614457829)"><rect x="1" width="11.999999999999996" height="250.2409638554217"></rect></g><g class="bar" transform="translate(338,100.84337349397592)"><rect x="1" width="11.999999999999996" height="209.15662650602408"></rect></g><g class="bar" transform="translate(351,108.3132530120482)"><rect x="1" width="11.999999999999996" height="201.6867469879518"></rect></g><g class="bar" transform="translate(364.00000000000006,183.0120481927711)"><rect x="1" width="11.999999999999996" height="126.98795180722891"></rect></g><g class="bar" transform="translate(377.00000000000006,186.74698795180723)"><rect x="1" width="11.999999999999996" height="123.25301204819277"></rect></g><g class="bar" transform="translate(390,298.7951807228916)"><rect x="1" width="11.999999999999996" height="11.204819277108413"></rect></g><g class="bar" transform="translate(403,298.7951807228916)"><rect x="1" width="11.999999999999996" height="11.204819277108413"></rect></g><g class="bar" transform="translate(416,310)"><rect x="1" width="11.999999999999996" height="0"></rect></g><g class="bar" transform="translate(429.00000000000006,310)"><rect x="1" width="11.999999999999996" height="0"></rect></g><g class="bar" transform="translate(442.00000000000006,310)"><rect x="1" width="11.999999999999996" height="0"></rect></g><g class="bar" transform="translate(455,310)"><rect x="1" width="11.999999999999996" height="0"></rect></g><g class="bar" transform="translate(468,310)"><rect x="1" width="11.999999999999996" height="0"></rect></g><g class="bar" transform="translate(481,310)"><rect x="1" width="11.999999999999996" height="0"></rect></g><g class="bar" transform="translate(494.00000000000006,310)"><rect x="1" width="11.999999999999996" height="0"></rect></g><g class="bar" transform="translate(507.00000000000006,310)"><rect x="1" width="11.999999999999996" height="0"></rect></g><g class="axis axis--x" transform="translate(0,310)" fill="none" font-size="10" font-family="sans-serif" text-anchor="middle"><path class="domain" stroke="#000" d="M0.5,6V0.5H520.5V6"></path><g class="tick" opacity="1" transform="translate(0.5,0)"><line stroke="#000" y2="6"></line><text fill="#000" y="9" dy="0.71em">0.01</text></g><g class="tick" opacity="1" transform="translate(130.5,0)"><line stroke="#000" y2="6"></line><text fill="#000" y="9" dy="0.71em">1</text></g><g class="tick" opacity="1" transform="translate(260.5,0)"><line stroke="#000" y2="6"></line><text fill="#000" y="9" dy="0.71em">100</text></g><g class="tick" opacity="1" transform="translate(390.5,0)"><line stroke="#000" y2="6"></line><text fill="#000" y="9" dy="0.71em">10000</text></g><g class="tick" opacity="1" transform="translate(520.5,0)"><line stroke="#000" y2="6"></line><text fill="#000" y="9" dy="0.71em"></text></g></g><g class="axis axis--y" fill="none" font-size="10" font-family="sans-serif" text-anchor="end"><path class="domain" stroke="#000" d="M-6,310.5H0.5V0.5H-6"></path><g class="tick" opacity="1" transform="translate(0,310.5)"><line stroke="#000" x2="-6"></line><text fill="#000" x="-9" dy="0.32em">0</text></g><g class="tick" opacity="1" transform="translate(0,273.15060240963857)"><line stroke="#000" x2="-6"></line><text fill="#000" x="-9" dy="0.32em">10</text></g><g class="tick" opacity="1" transform="translate(0,235.8012048192771)"><line stroke="#000" x2="-6"></line><text fill="#000" x="-9" dy="0.32em">20</text></g><g class="tick" opacity="1" transform="translate(0,198.45180722891567)"><line stroke="#000" x2="-6"></line><text fill="#000" x="-9" dy="0.32em">30</text></g><g class="tick" opacity="1" transform="translate(0,161.1024096385542)"><line stroke="#000" x2="-6"></line><text fill="#000" x="-9" dy="0.32em">40</text></g><g class="tick" opacity="1" transform="translate(0,123.75301204819274)"><line stroke="#000" x2="-6"></line><text fill="#000" x="-9" dy="0.32em">50</text></g><g class="tick" opacity="1" transform="translate(0,86.40361445783134)"><line stroke="#000" x2="-6"></line><text fill="#000" x="-9" dy="0.32em">60</text></g><g class="tick" opacity="1" transform="translate(0,49.05421686746985)"><line stroke="#000" x2="-6"></line><text fill="#000" x="-9" dy="0.32em">70</text></g><g class="tick" opacity="1" transform="translate(0,11.704819277108413)"><line stroke="#000" x2="-6"></line><text fill="#000" x="-9" dy="0.32em">80</text></g></g></g></svg>