<svg xmlns="http://www.w3.org/2000/svg" width="600" height="350"><defs><style type="text/css"><![CDATA[ 
.bar rect {
  fill-opacity: 0;
  stroke:       black;
  stroke-width: 0.5;
}

.highlight rect {
  fill:       red;
  fill-opacity: 1;
}
.axis path,
.axis line {
  fill: none;
  stroke: #000;
  shape-rendering: crispEdges;
}
 ]]></style></defs><g transform="translate(50,10)"><g class="bar" transform="translate(0,304.2164179104478)"><rect x="1" width="11.999999999999996" height="5.783582089552226"></rect></g><g class="bar" transform="translate(12.999999999999996,310)"><rect x="1" width="11.999999999999996" height="0"></rect></g><g class="bar" transform="translate(25.999999999999993,293.8059701492537)"><rect x="1" width="11.999999999999996" height="16.19402985074629"></rect></g><g class="bar" transform="translate(39.00000000000001,285.7089552238806)"><rect x="1" width="11.999999999999996" height="24.291044776119406"></rect></g><g class="bar" transform="translate(52,276.45522388059703)"><rect x="1" width="11.999999999999996" height="33.54477611940297"></rect></g><g class="bar" transform="translate(65,260.26119402985074)"><rect x="1" width="11.999999999999996" height="49.73880597014926"></rect></g><g class="bar" transform="translate(78.00000000000001,252.16417910447763)"><rect x="1" width="11.999999999999996" height="57.835820895522374"></rect></g><g class="bar" transform="translate(91.00000000000001,237.12686567164178)"><rect x="1" width="11.999999999999996" height="72.87313432835822"></rect></g><g class="bar" transform="translate(104,226.71641791044777)"><rect x="1" width="11.999999999999996" height="83.28358208955223"></rect></g><g class="bar" transform="translate(117,212.83582089552237)"><rect x="1" width="11.999999999999996" height="97.16417910447763"></rect></g><g class="bar" transform="translate(130,181.6044776119403)"><rect x="1" width="11.999999999999996" height="128.3955223880597"></rect></g><g class="bar" transform="translate(143,165.41044776119404)"><rect x="1" width="11.999999999999996" height="144.58955223880596"></rect></g><g class="bar" transform="translate(156.00000000000003,119.14179104477614)"><rect x="1" width="11.999999999999996" height="190.85820895522386"></rect></g><g class="bar" transform="translate(169,96.00746268656715)"><rect x="1" width="11.999999999999996" height="213.99253731343285"></rect></g><g class="bar" transform="translate(182.00000000000003,82.12686567164181)"><rect x="1" width="11.999999999999996" height="227.8731343283582"></rect></g><g class="bar" transform="translate(195,75.18656716417911)"><rect x="1" width="11.999999999999996" height="234.8134328358209"></rect></g><g class="bar" transform="translate(208,72.87313432835819)"><rect x="1" width="11.999999999999996" height="237.1268656716418"></rect></g><g class="bar" transform="translate(221.00000000000003,71.71641791044777)"><rect x="1" width="11.999999999999996" height="238.28358208955223"></rect></g><g class="bar" transform="translate(234,34.70149253731341)"><rect x="1" width="11.999999999999996" height="275.2985074626866"></rect></g><g class="bar" transform="translate(247.00000000000003,0)"><rect x="1" width="11.999999999999996" height="310"></rect></g><g class="bar" transform="translate(260,0)"><rect x="1" width="11.999999999999996" height="310"></rect></g><g class="bar" transform="translate(273,53.208955223880594)"><rect x="1" width="11.999999999999996" height="256.7910447761194"></rect></g><g class="bar" transform="translate(286,76.34328358208955)"><rect x="1" width="11.999999999999996" height="233.65671641791045"></rect></g><g class="bar" transform="translate(299.00000000000006,148.05970149253733)"><rect x="1" width="11.999999999999996" height="161.94029850746267"></rect></g><g class="bar" transform="translate(312.00000000000006,185.07462686567163)"><rect x="1" width="11.999999999999996" height="124.92537313432837"></rect></g><g class="bar" transform="translate(325,212.83582089552237)"><rect x="1" width="11.999999999999996" height="97.16417910447763"></rect></g><g class="bar" transform="translate(338,268.35820895522386)"><rect x="1" width="11.999999999999996" height="41.64179104477614"></rect></g><g class="bar" transform="translate(351,283.3955223880597)"><rect x="1" width="11.999999999999996" height="26.604477611940297"></rect></g><g class="bar" transform="translate(364.00000000000006,304.2164179104478)"><rect x="1" width="11.999999999999996" height="5.783582089552226"></rect></g><g class="bar" transform="translate(377.00000000000006,305.3731343283582)"><rect x="1" width="11.999999999999996" height="4.626865671641781"></rect></g><g class="bar" transform="translate(390,306.52985074626866)"><rect x="1" width="11.999999999999996" height="3.4701492537313356"></rect></g><g class="bar" transform="translate(403,308.84328358208955)"><rect x="1" width="11.999999999999996" height="1.1567164179104452"></rect></g><g class="bar" transform="translate(416,308.84328358208955)"><rect x="1" width="11.999999999999996" height="1.1567164179104452"></rect></g><g class="bar" transform="translate(429.00000000000006,310)"><rect x="1" width="11.999999999999996" height="0"></rect></g><g class="bar" transform="translate(442.00000000000006,310)"><rect x="1" width="11.999999999999996" height="0"></rect></g><g class="bar" transform="translate(455,307.6865671641791)"><rect x="1" width="11.999999999999996" height="2.3134328358208904"></rect></g><g class="bar" transform="translate(468,310)"><rect x="1" width="11.999999999999996" height="0"></rect></g><g class="bar" transform="translate(481,310)"><rect x="1" width="11.999999999999996" height="0"></rect></g><g class="bar" transform="translate(494.00000000000006,310)"><rect x="1" width="11.999999999999996" height="0"></rect></g><g class="bar" transform="translate(507.00000000000006,310)"><rect x="1" width="11.999999999999996" height="0"></rect></g><g class="axis axis--x" transform="translate(0,310)" fill="none" font-size="10" font-family="sans-serif" text-anchor="middle"><path class="domain" stroke="#000" d="M0.5,6V0.5H520.5V6"></path><g class="tick" opacity="1" transform="translate(0,0)"><line stroke="#000" y2="6" x1="0.5" x2="0.5"></line><text fill="#000" y="9" x="0.5" dy="0.71em">0.01</text></g><g class="tick" opacity="1" transform="translate(130,0)"><line stroke="#000" y2="6" x1="0.5" x2="0.5"></line><text fill="#000" y="9" x="0.5" dy="0.71em">1</text></g><g class="tick" opacity="1" transform="translate(260,0)"><line stroke="#000" y2="6" x1="0.5" x2="0.5"></line><text fill="#000" y="9" x="0.5" dy="0.71em">100</text></g><g class="tick" opacity="1" transform="translate(390,0)"><line stroke="#000" y2="6" x1="0.5" x2="0.5"></line><text fill="#000" y="9" x="0.5" dy="0.71em">10000</text></g><g class="tick" opacity="1" transform="translate(520,0)"><line stroke="#000" y2="6" x1="0.5" x2="0.5"></line><text fill="#000" y="9" x="0.5" dy="0.71em"></text></g></g><g class="axis axis--y" fill="none" font-size="10" font-family="sans-serif" text-anchor="end"><path class="domain" stroke="#000" d="M-6,310.5H0.5V0.5H-6"></path><g class="tick" opacity="1" transform="translate(0,310)"><line stroke="#000" x2="-6" y1="0.5" y2="0.5"></line><text fill="#000" x="-9" y="0.5" dy="0.32em">0</text></g><g class="tick" opacity="1" transform="translate(0,286.86567164179104)"><line stroke="#000" x2="-6" y1="0.5" y2="0.5"></line><text fill="#000" x="-9" y="0.5" dy="0.32em">20</text></g><g class="tick" opacity="1" transform="translate(0,263.7313432835821)"><line stroke="#000" x2="-6" y1="0.5" y2="0.5"></line><text fill="#000" x="-9" y="0.5" dy="0.32em">40</text></g><g class="tick" opacity="1" transform="translate(0,240.59701492537312)"><line stroke="#000" x2="-6" y1="0.5" y2="0.5"></line><text fill="#000" x="-9" y="0.5" dy="0.32em">60</text></g><g class="tick" opacity="1" transform="translate(0,217.46268656716418)"><line stroke="#000" x2="-6" y1="0.5" y2="0.5"></line><text fill="#000" x="-9" y="0.5" dy="0.32em">80</text></g><g class="tick" opacity="1" transform="translate(0,194.32835820895522)"><line stroke="#000" x2="-6" y1="0.5" y2="0.5"></line><text fill="#000" x="-9" y="0.5" dy="0.32em">100</text></g><g class="tick" opacity="1" transform="translate(0,171.19402985074626)"><line stroke="#000" x2="-6" y1="0.5" y2="0.5"></line><text fill="#000" x="-9" y="0.5" dy="0.32em">120</text></g><g class="tick" opacity="1" transform="translate(0,148.05970149253733)"><line stroke="#000" x2="-6" y1="0.5" y2="0.5"></line><text fill="#000" x="-9" y="0.5" dy="0.32em">140</text></g><g class="tick" opacity="1" transform="translate(0,124.92537313432837)"><line stroke="#000" x2="-6" y1="0.5" y2="0.5"></line><text fill="#000" x="-9" y="0.5" dy="0.32em">160</text></g><g class="tick" opacity="1" transform="translate(0,101.79104477611938)"><line stroke="#000" x2="-6" y1="0.5" y2="0.5"></line><text fill="#000" x="-9" y="0.5" dy="0.32em">180</text></g><g class="tick" opacity="1" transform="translate(0,78.65671641791045)"><line stroke="#000" x2="-6" y1="0.5" y2="0.5"></line><text fill="#000" x="-9" y="0.5" dy="0.32em">200</text></g><g class="tick" opacity="1" transform="translate(0,55.522388059701484)"><line stroke="#000" x2="-6" y1="0.5" y2="0.5"></line><text fill="#000" x="-9" y="0.5" dy="0.32em">220</text></g><g class="tick" opacity="1" transform="translate(0,32.38805970149252)"><line stroke="#000" x2="-6" y1="0.5" y2="0.5"></line><text fill="#000" x="-9" y="0.5" dy="0.32em">240</text></g><g class="tick" opacity="1" transform="translate(0,9.253731343283562)"><line stroke="#000" x2="-6" y1="0.5" y2="0.5"></line><text fill="#000" x="-9" y="0.5" dy="0.32em">260</text></g></g></g></svg>