<svg xmlns="http://www.w3.org/2000/svg" width="600" height="350"><defs><style type="text/css"><![CDATA[ 
.bar rect {
  fill-opacity: 0;
  stroke:       black;
  stroke-width: 0.5;
}

.highlight rect {
  fill:       red;
  fill-opacity: 1;
}
.axis path,
.axis line {
  fill: none;
  stroke: #000;
  shape-rendering: crispEdges;
}
path {
    stroke: red;
    fill: none;
}

line {
    stroke: red;
}

path.marker {
    fill: red;
}
 ]]></style></defs><g transform="translate(50,10)"><g class="bar" transform="translate(0,310)"><rect x="1" width="11.999999999999996" height="0"></rect></g><g class="bar" transform="translate(12.999999999999996,310)"><rect x="1" width="11.999999999999996" height="0"></rect></g><g class="bar" transform="translate(25.999999999999993,310)"><rect x="1" width="11.999999999999996" height="0"></rect></g><g class="bar" transform="translate(39.00000000000001,310)"><rect x="1" width="11.999999999999996" height="0"></rect></g><g class="bar" transform="translate(52,310)"><rect x="1" width="11.999999999999996" height="0"></rect></g><g class="bar" transform="translate(65,310)"><rect x="1" width="11.999999999999996" height="0"></rect></g><g class="bar" transform="translate(78.00000000000001,310)"><rect x="1" width="11.999999999999996" height="0"></rect></g><g class="bar" transform="translate(91.00000000000001,310)"><rect x="1" width="11.999999999999996" height="0"></rect></g><g class="bar" transform="translate(104,305.03205128205127)"><rect x="1" width="11.999999999999996" height="4.96794871794873"></rect></g><g class="bar" transform="translate(117,304.03846153846155)"><rect x="1" width="11.999999999999996" height="5.961538461538453"></rect></g><g class="bar" transform="translate(130,282.1794871794872)"><rect x="1" width="11.999999999999996" height="27.820512820512818"></rect></g><g class="bar" transform="translate(143,282.1794871794872)"><rect x="1" width="11.999999999999996" height="27.820512820512818"></rect></g><g class="bar" transform="translate(156.00000000000003,268.2692307692308)"><rect x="1" width="11.999999999999996" height="41.730769230769226"></rect></g><g class="bar" transform="translate(169,245.41666666666666)"><rect x="1" width="11.999999999999996" height="64.58333333333334"></rect></g><g class="bar" transform="translate(182.00000000000003,207.6602564102564)"><rect x="1" width="11.999999999999996" height="102.33974358974359"></rect></g><g class="bar" transform="translate(195,127.17948717948718)"><rect x="1" width="11.999999999999996" height="182.82051282051282"></rect></g><g class="bar" transform="translate(208,137.1153846153846)"><rect x="1" width="11.999999999999996" height="172.8846153846154"></rect></g><g class="bar" transform="translate(221.00000000000003,74.51923076923077)"><rect x="1" width="11.999999999999996" height="235.48076923076923"></rect></g><g class="bar" transform="translate(234,86.44230769230771)"><rect x="1" width="11.999999999999996" height="223.5576923076923"></rect></g><g class="bar" transform="translate(247.00000000000003,78.49358974358975)"><rect x="1" width="11.999999999999996" height="231.50641025641025"></rect></g><g class="bar" transform="translate(260,0)"><rect x="1" width="11.999999999999996" height="310"></rect></g><g class="bar" transform="translate(273,85.44871794871796)"><rect x="1" width="11.999999999999996" height="224.55128205128204"></rect></g><g class="bar" transform="translate(286,94.39102564102566)"><rect x="1" width="11.999999999999996" height="215.60897435897434"></rect></g><g class="bar" transform="translate(299.00000000000006,121.21794871794873)"><rect x="1" width="11.999999999999996" height="188.78205128205127"></rect></g><g class="bar" transform="translate(312.00000000000006,198.71794871794873)"><rect x="1" width="11.999999999999996" height="111.28205128205127"></rect></g><g class="bar" transform="translate(325,247.40384615384616)"><rect x="1" width="11.999999999999996" height="62.59615384615384"></rect></g><g class="bar" transform="translate(338,265.28846153846155)"><rect x="1" width="11.999999999999996" height="44.71153846153845"></rect></g><g class="bar" transform="translate(351,297.0833333333333)"><rect x="1" width="11.999999999999996" height="12.916666666666686"></rect></g><g class="bar" transform="translate(364.00000000000006,293.10897435897436)"><rect x="1" width="11.999999999999996" height="16.891025641025635"></rect></g><g class="bar" transform="translate(377.00000000000006,299.0705128205128)"><rect x="1" width="11.999999999999996" height="10.929487179487182"></rect></g><g class="bar" transform="translate(390,307.0192307692308)"><rect x="1" width="11.999999999999996" height="2.9807692307692264"></rect></g><g class="bar" transform="translate(403,310)"><rect x="1" width="11.999999999999996" height="0"></rect></g><g class="bar" transform="translate(416,308.0128205128205)"><rect x="1" width="11.999999999999996" height="1.9871794871795032"></rect></g><g class="bar" transform="translate(429.00000000000006,310)"><rect x="1" width="11.999999999999996" height="0"></rect></g><g class="bar" transform="translate(442.00000000000006,308.0128205128205)"><rect x="1" width="11.999999999999996" height="1.9871794871795032"></rect></g><g class="bar" transform="translate(455,310)"><rect x="1" width="11.999999999999996" height="0"></rect></g><g class="bar" transform="translate(468,310)"><rect x="1" width="11.999999999999996" height="0"></rect></g><g class="bar" transform="translate(481,310)"><rect x="1" width="11.999999999999996" height="0"></rect></g><g class="bar" transform="translate(494.00000000000006,310)"><rect x="1" width="11.999999999999996" height="0"></rect></g><g class="bar" transform="translate(507.00000000000006,310)"><rect x="1" width="11.999999999999996" height="0"></rect></g><g class="axis axis--x" transform="translate(0,310)" fill="none" font-size="10" font-family="sans-serif" text-anchor="middle"><path class="domain" stroke="#000" d="M0.5,6V0.5H520.5V6"></path><g class="tick" opacity="1" transform="translate(0.5,0)"><line stroke="#000" y2="6"></line><text fill="#000" y="9" dy="0.71em">0.01</text></g><g class="tick" opacity="1" transform="translate(130.5,0)"><line stroke="#000" y2="6"></line><text fill="#000" y="9" dy="0.71em">1</text></g><g class="tick" opacity="1" transform="translate(260.5,0)"><line stroke="#000" y2="6"></line><text fill="#000" y="9" dy="0.71em">100</text></g><g class="tick" opacity="1" transform="translate(390.5,0)"><line stroke="#000" y2="6"></line><text fill="#000" y="9" dy="0.71em">10000</text></g><g class="tick" opacity="1" transform="translate(520.5,0)"><line stroke="#000" y2="6"></line><text fill="#000" y="9" dy="0.71em"></text></g></g><g class="axis axis--y" fill="none" font-size="10" font-family="sans-serif" text-anchor="end"><path class="domain" stroke="#000" d="M-6,310.5H0.5V0.5H-6"></path><g class="tick" opacity="1" transform="translate(0,310.5)"><line stroke="#000" x2="-6"></line><text fill="#000" x="-9" dy="0.32em">0</text></g><g class="tick" opacity="1" transform="translate(0,290.62820512820514)"><line stroke="#000" x2="-6"></line><text fill="#000" x="-9" dy="0.32em">20</text></g><g class="tick" opacity="1" transform="translate(0,270.7564102564103)"><line stroke="#000" x2="-6"></line><text fill="#000" x="-9" dy="0.32em">40</text></g><g class="tick" opacity="1" transform="translate(0,250.8846153846154)"><line stroke="#000" x2="-6"></line><text fill="#000" x="-9" dy="0.32em">60</text></g><g class="tick" opacity="1" transform="translate(0,231.01282051282053)"><line stroke="#000" x2="-6"></line><text fill="#000" x="-9" dy="0.32em">80</text></g><g class="tick" opacity="1" transform="translate(0,211.14102564102564)"><line stroke="#000" x2="-6"></line><text fill="#000" x="-9" dy="0.32em">100</text></g><g class="tick" opacity="1" transform="translate(0,191.26923076923077)"><line stroke="#000" x2="-6"></line><text fill="#000" x="-9" dy="0.32em">120</text></g><g class="tick" opacity="1" transform="translate(0,171.39743589743588)"><line stroke="#000" x2="-6"></line><text fill="#000" x="-9" dy="0.32em">140</text></g><g class="tick" opacity="1" transform="translate(0,151.52564102564105)"><line stroke="#000" x2="-6"></line><text fill="#000" x="-9" dy="0.32em">160</text></g><g class="tick" opacity="1" transform="translate(0,131.65384615384616)"><line stroke="#000" x2="-6"></line><text fill="#000" x="-9" dy="0.32em">180</text></g><g class="tick" opacity="1" transform="translate(0,111.78205128205127)"><line stroke="#000" x2="-6"></line><text fill="#000" x="-9" dy="0.32em">200</text></g><g class="tick" opacity="1" transform="translate(0,91.91025641025641)"><line stroke="#000" x2="-6"></line><text fill="#000" x="-9" dy="0.32em">220</text></g><g class="tick" opacity="1" transform="translate(0,72.03846153846152)"><line stroke="#000" x2="-6"></line><text fill="#000" x="-9" dy="0.32em">240</text></g><g class="tick" opacity="1" transform="translate(0,52.16666666666663)"><line stroke="#000" x2="-6"></line><text fill="#000" x="-9" dy="0.32em">260</text></g><g class="tick" opacity="1" transform="translate(0,32.29487179487177)"><line stroke="#000" x2="-6"></line><text fill="#000" x="-9" dy="0.32em">280</text></g><g class="tick" opacity="1" transform="translate(0,12.423076923076906)"><line stroke="#000" x2="-6"></line><text fill="#000" x="-9" dy="0.32em">300</text></g></g></g></svg>