<svg xmlns="http://www.w3.org/2000/svg" width="280" height="160"><defs><style type="text/css"><![CDATA[ 
.bar rect {
  fill-opacity: 0;
  stroke:       black;
  stroke-width: 0.5;
}

.highlight rect {
  fill:       red;
  fill-opacity: 1;
}
.axis path,
.axis line {
  fill: none;
  stroke: #000;
  shape-rendering: crispEdges;
}
path {
    stroke: red;
    fill: none;
}

line {
    stroke: red;
}

path.marker {
    fill: red;
}
 ]]></style></defs><g transform="translate(50,10)"><g class="bar" transform="translate(0,116.60910518053375)"><rect x="1" width="11.5" height="3.3908948194662543"></rect></g><g class="bar" transform="translate(12.5,107.37833594976452)"><rect x="1" width="11.5" height="12.62166405023548"></rect></g><g class="bar" transform="translate(25,81.56985871271586)"><rect x="1" width="11.5" height="38.430141287284144"></rect></g><g class="bar" transform="translate(37.5,62.16640502354788)"><rect x="1" width="11.5" height="57.83359497645212"></rect></g><g class="bar" transform="translate(50,32.77864992150707)"><rect x="1" width="11.5" height="87.22135007849293"></rect></g><g class="bar" transform="translate(62.5,4.144427001569852)"><rect x="1" width="11.5" height="115.85557299843015"></rect></g><g class="bar" transform="translate(75,0)"><rect x="1" width="11.5" height="120"></rect></g><g class="bar" transform="translate(87.5,12.244897959183675)"><rect x="1" width="11.5" height="107.75510204081633"></rect></g><g class="bar" transform="translate(100,23.171114599686035)"><rect x="1" width="11.5" height="96.82888540031396"></rect></g><g class="bar" transform="translate(112.5,67.62951334379906)"><rect x="1" width="11.5" height="52.37048665620094"></rect></g><g class="bar" transform="translate(125,84.3956043956044)"><rect x="1" width="11.5" height="35.604395604395606"></rect></g><g class="bar" transform="translate(137.5,111.71114599686028)"><rect x="1" width="11.5" height="8.288854003139718"></rect></g><g class="bar" transform="translate(150,119.05808477237049)"><rect x="1" width="11.5" height="0.941915227629508"></rect></g><g class="bar" transform="translate(162.5,119.8116169544741)"><rect x="1" width="11.5" height="0.1883830455258959"></rect></g><g class="bar" transform="translate(175,120)"><rect x="1" width="11.5" height="0"></rect></g><g class="bar" transform="translate(187.5,120)"><rect x="1" width="11.5" height="0"></rect></g></g></svg>