<svg xmlns="http://www.w3.org/2000/svg" width="600" height="350"><defs><style type="text/css"><![CDATA[ 
.bar rect {
  fill-opacity: 0;
  stroke:       black;
  stroke-width: 0.5;
}

.highlight rect {
  fill:       red;
  fill-opacity: 1;
}
.axis path,
.axis line {
  fill: none;
  stroke: #000;
  shape-rendering: crispEdges;
}
 ]]></style></defs><g transform="translate(50,10)"><g class="bar" transform="translate(0,165.39106145251398)"><rect x="1" width="11.999999999999996" height="144.60893854748602"></rect></g><g class="bar" transform="translate(12.999999999999996,65.81005586592178)"><rect x="1" width="11.999999999999996" height="244.18994413407822"></rect></g><g class="bar" transform="translate(25.999999999999993,81.39664804469274)"><rect x="1" width="11.999999999999996" height="228.60335195530726"></rect></g><g class="bar" transform="translate(39.00000000000001,63.21229050279331)"><rect x="1" width="11.999999999999996" height="246.7877094972067"></rect></g><g class="bar" transform="translate(52,64.94413407821227)"><rect x="1" width="11.999999999999996" height="245.05586592178773"></rect></g><g class="bar" transform="translate(65,36.36871508379892)"><rect x="1" width="11.999999999999996" height="273.6312849162011"></rect></g><g class="bar" transform="translate(78.00000000000001,76.20111731843573)"><rect x="1" width="11.999999999999996" height="233.79888268156427"></rect></g><g class="bar" transform="translate(91.00000000000001,32.039106145251424)"><rect x="1" width="11.999999999999996" height="277.9608938547486"></rect></g><g class="bar" transform="translate(104,64.07821229050279)"><rect x="1" width="11.999999999999996" height="245.9217877094972"></rect></g><g class="bar" transform="translate(117,31.173184357541913)"><rect x="1" width="11.999999999999996" height="278.8268156424581"></rect></g><g class="bar" transform="translate(130,68.40782122905026)"><rect x="1" width="11.999999999999996" height="241.59217877094974"></rect></g><g class="bar" transform="translate(143,51.089385474860364)"><rect x="1" width="11.999999999999996" height="258.91061452513964"></rect></g><g class="bar" transform="translate(156.00000000000003,72.73743016759775)"><rect x="1" width="11.999999999999996" height="237.26256983240225"></rect></g><g class="bar" transform="translate(169,103.04469273743015)"><rect x="1" width="11.999999999999996" height="206.95530726256985"></rect></g><g class="bar" transform="translate(182.00000000000003,0)"><rect x="1" width="11.999999999999996" height="310"></rect></g><g class="bar" transform="translate(195,71.87150837988824)"><rect x="1" width="11.999999999999996" height="238.12849162011176"></rect></g><g class="bar" transform="translate(208,28.57541899441344)"><rect x="1" width="11.999999999999996" height="281.42458100558656"></rect></g><g class="bar" transform="translate(221.00000000000003,74.46927374301677)"><rect x="1" width="11.999999999999996" height="235.53072625698323"></rect></g><g class="bar" transform="translate(234,112.56983240223465)"><rect x="1" width="11.999999999999996" height="197.43016759776535"></rect></g><g class="bar" transform="translate(247.00000000000003,105.64245810055866)"><rect x="1" width="11.999999999999996" height="204.35754189944134"></rect></g><g class="bar" transform="translate(260,104.77653631284917)"><rect x="1" width="11.999999999999996" height="205.22346368715083"></rect></g><g class="bar" transform="translate(273,151.53631284916202)"><rect x="1" width="11.999999999999996" height="158.46368715083798"></rect></g><g class="bar" transform="translate(286,174.91620111731845)"><rect x="1" width="11.999999999999996" height="135.08379888268155"></rect></g><g class="bar" transform="translate(299.00000000000006,200.89385474860336)"><rect x="1" width="11.999999999999996" height="109.10614525139664"></rect></g><g class="bar" transform="translate(312.00000000000006,195.69832402234636)"><rect x="1" width="11.999999999999996" height="114.30167597765364"></rect></g><g class="bar" transform="translate(325,216.48044692737432)"><rect x="1" width="11.999999999999996" height="93.51955307262568"></rect></g><g class="bar" transform="translate(338,232.93296089385476)"><rect x="1" width="11.999999999999996" height="77.06703910614524"></rect></g><g class="bar" transform="translate(351,268.43575418994413)"><rect x="1" width="11.999999999999996" height="41.564245810055866"></rect></g><g class="bar" transform="translate(364.00000000000006,289.2178770949721)"><rect x="1" width="11.999999999999996" height="20.782122905027904"></rect></g><g class="bar" transform="translate(377.00000000000006,304.804469273743)"><rect x="1" width="11.999999999999996" height="5.1955307262570045"></rect></g><g class="bar" transform="translate(390,307.4022346368715)"><rect x="1" width="11.999999999999996" height="2.597765363128474"></rect></g><g class="bar" transform="translate(403,310)"><rect x="1" width="11.999999999999996" height="0"></rect></g><g class="bar" transform="translate(416,310)"><rect x="1" width="11.999999999999996" height="0"></rect></g><g class="bar" transform="translate(429.00000000000006,310)"><rect x="1" width="11.999999999999996" height="0"></rect></g><g class="bar" transform="translate(442.00000000000006,310)"><rect x="1" width="11.999999999999996" height="0"></rect></g><g class="bar" transform="translate(455,310)"><rect x="1" width="11.999999999999996" height="0"></rect></g><g class="bar" transform="translate(468,310)"><rect x="1" width="11.999999999999996" height="0"></rect></g><g class="bar" transform="translate(481,310)"><rect x="1" width="11.999999999999996" height="0"></rect></g><g class="bar" transform="translate(494.00000000000006,310)"><rect x="1" width="11.999999999999996" height="0"></rect></g><g class="bar" transform="translate(507.00000000000006,310)"><rect x="1" width="11.999999999999996" height="0"></rect></g><g class="axis axis--x" transform="translate(0,310)" fill="none" font-size="10" font-family="sans-serif" text-anchor="middle"><path class="domain" stroke="#000" d="M0.5,6V0.5H520.5V6"></path><g class="tick" opacity="1" transform="translate(0,0)"><line stroke="#000" y2="6" x1="0.5" x2="0.5"></line><text fill="#000" y="9" x="0.5" dy="0.71em">0.01</text></g><g class="tick" opacity="1" transform="translate(130,0)"><line stroke="#000" y2="6" x1="0.5" x2="0.5"></line><text fill="#000" y="9" x="0.5" dy="0.71em">1</text></g><g class="tick" opacity="1" transform="translate(260,0)"><line stroke="#000" y2="6" x1="0.5" x2="0.5"></line><text fill="#000" y="9" x="0.5" dy="0.71em">100</text></g><g class="tick" opacity="1" transform="translate(390,0)"><line stroke="#000" y2="6" x1="0.5" x2="0.5"></line><text fill="#000" y="9" x="0.5" dy="0.71em">10000</text></g><g class="tick" opacity="1" transform="translate(520,0)"><line stroke="#000" y2="6" x1="0.5" x2="0.5"></line><text fill="#000" y="9" x="0.5" dy="0.71em"></text></g></g><g class="axis axis--y" fill="none" font-size="10" font-family="sans-serif" text-anchor="end"><path class="domain" stroke="#000" d="M-6,310.5H0.5V0.5H-6"></path><g class="tick" opacity="1" transform="translate(0,310)"><line stroke="#000" x2="-6" y1="0.5" y2="0.5"></line><text fill="#000" x="-9" y="0.5" dy="0.32em">0</text></g><g class="tick" opacity="1" transform="translate(0,266.70391061452517)"><line stroke="#000" x2="-6" y1="0.5" y2="0.5"></line><text fill="#000" x="-9" y="0.5" dy="0.32em">50</text></g><g class="tick" opacity="1" transform="translate(0,223.40782122905028)"><line stroke="#000" x2="-6" y1="0.5" y2="0.5"></line><text fill="#000" x="-9" y="0.5" dy="0.32em">100</text></g><g class="tick" opacity="1" transform="translate(0,180.11173184357543)"><line stroke="#000" x2="-6" y1="0.5" y2="0.5"></line><text fill="#000" x="-9" y="0.5" dy="0.32em">150</text></g><g class="tick" opacity="1" transform="translate(0,136.81564245810057)"><line stroke="#000" x2="-6" y1="0.5" y2="0.5"></line><text fill="#000" x="-9" y="0.5" dy="0.32em">200</text></g><g class="tick" opacity="1" transform="translate(0,93.51955307262571)"><line stroke="#000" x2="-6" y1="0.5" y2="0.5"></line><text fill="#000" x="-9" y="0.5" dy="0.32em">250</text></g><g class="tick" opacity="1" transform="translate(0,50.223463687150854)"><line stroke="#000" x2="-6" y1="0.5" y2="0.5"></line><text fill="#000" x="-9" y="0.5" dy="0.32em">300</text></g><g class="tick" opacity="1" transform="translate(0,6.927374301675968)"><line stroke="#000" x2="-6" y1="0.5" y2="0.5"></line><text fill="#000" x="-9" y="0.5" dy="0.32em">350</text></g></g></g></svg>