<svg xmlns="http://www.w3.org/2000/svg" width="600" height="350"><defs><style type="text/css"><![CDATA[ 
.bar rect {
  fill-opacity: 0;
  stroke:       black;
  stroke-width: 0.5;
}

.highlight rect {
  fill:       red;
  fill-opacity: 1;
}
.axis path,
.axis line {
  fill: none;
  stroke: #000;
  shape-rendering: crispEdges;
}
 ]]></style></defs><g transform="translate(50,10)"><g class="bar" transform="translate(0,256.6448801742919)"><rect x="1" width="11.999999999999996" height="53.35511982570807"></rect></g><g class="bar" transform="translate(12.999999999999996,274.20479302832246)"><rect x="1" width="11.999999999999996" height="35.795206971677544"></rect></g><g class="bar" transform="translate(25.999999999999993,294.46623093681916)"><rect x="1" width="11.999999999999996" height="15.533769063180841"></rect></g><g class="bar" transform="translate(39.00000000000001,287.7124183006536)"><rect x="1" width="11.999999999999996" height="22.28758169934639"></rect></g><g class="bar" transform="translate(52,272.17864923747277)"><rect x="1" width="11.999999999999996" height="37.82135076252723"></rect></g><g class="bar" transform="translate(65,276.9063180827887)"><rect x="1" width="11.999999999999996" height="33.09368191721131"></rect></g><g class="bar" transform="translate(78.00000000000001,274.20479302832246)"><rect x="1" width="11.999999999999996" height="35.795206971677544"></rect></g><g class="bar" transform="translate(91.00000000000001,255.2941176470588)"><rect x="1" width="11.999999999999996" height="54.70588235294119"></rect></g><g class="bar" transform="translate(104,249.2156862745098)"><rect x="1" width="11.999999999999996" height="60.78431372549019"></rect></g><g class="bar" transform="translate(117,249.2156862745098)"><rect x="1" width="11.999999999999996" height="60.78431372549019"></rect></g><g class="bar" transform="translate(130,218.8235294117647)"><rect x="1" width="11.999999999999996" height="91.1764705882353"></rect></g><g class="bar" transform="translate(143,199.91285403050108)"><rect x="1" width="11.999999999999996" height="110.08714596949892"></rect></g><g class="bar" transform="translate(156.00000000000003,126.2962962962963)"><rect x="1" width="11.999999999999996" height="183.7037037037037"></rect></g><g class="bar" transform="translate(169,84.42265795206973)"><rect x="1" width="11.999999999999996" height="225.57734204793027"></rect></g><g class="bar" transform="translate(182.00000000000003,24.313725490196077)"><rect x="1" width="11.999999999999996" height="285.6862745098039"></rect></g><g class="bar" transform="translate(195,0)"><rect x="1" width="11.999999999999996" height="310"></rect></g><g class="bar" transform="translate(208,6.078431372549005)"><rect x="1" width="11.999999999999996" height="303.921568627451"></rect></g><g class="bar" transform="translate(221.00000000000003,9.45533769063178)"><rect x="1" width="11.999999999999996" height="300.5446623093682"></rect></g><g class="bar" transform="translate(234,5.403050108932462)"><rect x="1" width="11.999999999999996" height="304.59694989106754"></rect></g><g class="bar" transform="translate(247.00000000000003,35.795206971677544)"><rect x="1" width="11.999999999999996" height="274.20479302832246"></rect></g><g class="bar" transform="translate(260,131.69934640522877)"><rect x="1" width="11.999999999999996" height="178.30065359477123"></rect></g><g class="bar" transform="translate(273,161.4161220043573)"><rect x="1" width="11.999999999999996" height="148.5838779956427"></rect></g><g class="bar" transform="translate(286,192.48366013071896)"><rect x="1" width="11.999999999999996" height="117.51633986928104"></rect></g><g class="bar" transform="translate(299.00000000000006,223.5511982570806)"><rect x="1" width="11.999999999999996" height="86.44880174291939"></rect></g><g class="bar" transform="translate(312.00000000000006,244.48801742919392)"><rect x="1" width="11.999999999999996" height="65.51198257080608"></rect></g><g class="bar" transform="translate(325,237.05882352941177)"><rect x="1" width="11.999999999999996" height="72.94117647058823"></rect></g><g class="bar" transform="translate(338,243.13725490196077)"><rect x="1" width="11.999999999999996" height="66.86274509803923"></rect></g><g class="bar" transform="translate(351,292.4400871459695)"><rect x="1" width="11.999999999999996" height="17.559912854030472"></rect></g><g class="bar" transform="translate(364.00000000000006,300.54466230936816)"><rect x="1" width="11.999999999999996" height="9.455337690631836"></rect></g><g class="bar" transform="translate(377.00000000000006,304.59694989106754)"><rect x="1" width="11.999999999999996" height="5.403050108932462"></rect></g><g class="bar" transform="translate(390,310)"><rect x="1" width="11.999999999999996" height="0"></rect></g><g class="bar" transform="translate(403,310)"><rect x="1" width="11.999999999999996" height="0"></rect></g><g class="bar" transform="translate(416,309.32461873638346)"><rect x="1" width="11.999999999999996" height="0.6753812636165435"></rect></g><g class="bar" transform="translate(429.00000000000006,309.32461873638346)"><rect x="1" width="11.999999999999996" height="0.6753812636165435"></rect></g><g class="bar" transform="translate(442.00000000000006,310)"><rect x="1" width="11.999999999999996" height="0"></rect></g><g class="bar" transform="translate(455,310)"><rect x="1" width="11.999999999999996" height="0"></rect></g><g class="bar" transform="translate(468,310)"><rect x="1" width="11.999999999999996" height="0"></rect></g><g class="bar" transform="translate(481,310)"><rect x="1" width="11.999999999999996" height="0"></rect></g><g class="bar" transform="translate(494.00000000000006,310)"><rect x="1" width="11.999999999999996" height="0"></rect></g><g class="bar" transform="translate(507.00000000000006,310)"><rect x="1" width="11.999999999999996" height="0"></rect></g><g class="axis axis--x" transform="translate(0,310)" fill="none" font-size="10" font-family="sans-serif" text-anchor="middle"><path class="domain" stroke="#000" d="M0.5,6V0.5H520.5V6"></path><g class="tick" opacity="1" transform="translate(0,0)"><line stroke="#000" y2="6" x1="0.5" x2="0.5"></line><text fill="#000" y="9" x="0.5" dy="0.71em">0.01</text></g><g class="tick" opacity="1" transform="translate(130,0)"><line stroke="#000" y2="6" x1="0.5" x2="0.5"></line><text fill="#000" y="9" x="0.5" dy="0.71em">1</text></g><g class="tick" opacity="1" transform="translate(260,0)"><line stroke="#000" y2="6" x1="0.5" x2="0.5"></line><text fill="#000" y="9" x="0.5" dy="0.71em">100</text></g><g class="tick" opacity="1" transform="translate(390,0)"><line stroke="#000" y2="6" x1="0.5" x2="0.5"></line><text fill="#000" y="9" x="0.5" dy="0.71em">10000</text></g><g class="tick" opacity="1" transform="translate(520,0)"><line stroke="#000" y2="6" x1="0.5" x2="0.5"></line><text fill="#000" y="9" x="0.5" dy="0.71em"></text></g></g><g class="axis axis--y" fill="none" font-size="10" font-family="sans-serif" text-anchor="end"><path class="domain" stroke="#000" d="M-6,310.5H0.5V0.5H-6"></path><g class="tick" opacity="1" transform="translate(0,310)"><line stroke="#000" x2="-6" y1="0.5" y2="0.5"></line><text fill="#000" x="-9" y="0.5" dy="0.32em">0</text></g><g class="tick" opacity="1" transform="translate(0,276.23093681917214)"><line stroke="#000" x2="-6" y1="0.5" y2="0.5"></line><text fill="#000" x="-9" y="0.5" dy="0.32em">50</text></g><g class="tick" opacity="1" transform="translate(0,242.46187363834423)"><line stroke="#000" x2="-6" y1="0.5" y2="0.5"></line><text fill="#000" x="-9" y="0.5" dy="0.32em">100</text></g><g class="tick" opacity="1" transform="translate(0,208.69281045751634)"><line stroke="#000" x2="-6" y1="0.5" y2="0.5"></line><text fill="#000" x="-9" y="0.5" dy="0.32em">150</text></g><g class="tick" opacity="1" transform="translate(0,174.92374727668846)"><line stroke="#000" x2="-6" y1="0.5" y2="0.5"></line><text fill="#000" x="-9" y="0.5" dy="0.32em">200</text></g><g class="tick" opacity="1" transform="translate(0,141.15468409586057)"><line stroke="#000" x2="-6" y1="0.5" y2="0.5"></line><text fill="#000" x="-9" y="0.5" dy="0.32em">250</text></g><g class="tick" opacity="1" transform="translate(0,107.38562091503269)"><line stroke="#000" x2="-6" y1="0.5" y2="0.5"></line><text fill="#000" x="-9" y="0.5" dy="0.32em">300</text></g><g class="tick" opacity="1" transform="translate(0,73.61655773420478)"><line stroke="#000" x2="-6" y1="0.5" y2="0.5"></line><text fill="#000" x="-9" y="0.5" dy="0.32em">350</text></g><g class="tick" opacity="1" transform="translate(0,39.84749455337692)"><line stroke="#000" x2="-6" y1="0.5" y2="0.5"></line><text fill="#000" x="-9" y="0.5" dy="0.32em">400</text></g><g class="tick" opacity="1" transform="translate(0,6.078431372549005)"><line stroke="#000" x2="-6" y1="0.5" y2="0.5"></line><text fill="#000" x="-9" y="0.5" dy="0.32em">450</text></g></g></g></svg>