<svg xmlns="http://www.w3.org/2000/svg" width="600" height="350"><defs><style type="text/css"><![CDATA[ 
.bar rect {
  fill-opacity: 0;
  stroke:       black;
  stroke-width: 0.5;
}

.highlight rect {
  fill:       red;
  fill-opacity: 1;
}
.axis path,
.axis line {
  fill: none;
  stroke: #000;
  shape-rendering: crispEdges;
}
 ]]></style></defs><g transform="translate(50,10)"><g class="bar" transform="translate(0,310)"><rect x="1" width="11.999999999999996" height="0"></rect></g><g class="bar" transform="translate(12.999999999999996,310)"><rect x="1" width="11.999999999999996" height="0"></rect></g><g class="bar" transform="translate(25.999999999999993,310)"><rect x="1" width="11.999999999999996" height="0"></rect></g><g class="bar" transform="translate(39.00000000000001,310)"><rect x="1" width="11.999999999999996" height="0"></rect></g><g class="bar" transform="translate(52,309.3333333333333)"><rect x="1" width="11.999999999999996" height="0.6666666666666856"></rect></g><g class="bar" transform="translate(65,306)"><rect x="1" width="11.999999999999996" height="4"></rect></g><g class="bar" transform="translate(78.00000000000001,305.3333333333333)"><rect x="1" width="11.999999999999996" height="4.666666666666686"></rect></g><g class="bar" transform="translate(91.00000000000001,301.3333333333333)"><rect x="1" width="11.999999999999996" height="8.666666666666686"></rect></g><g class="bar" transform="translate(104,288)"><rect x="1" width="11.999999999999996" height="22"></rect></g><g class="bar" transform="translate(117,282)"><rect x="1" width="11.999999999999996" height="28"></rect></g><g class="bar" transform="translate(130,258.6666666666667)"><rect x="1" width="11.999999999999996" height="51.333333333333314"></rect></g><g class="bar" transform="translate(143,198.66666666666669)"><rect x="1" width="11.999999999999996" height="111.33333333333331"></rect></g><g class="bar" transform="translate(156.00000000000003,108.66666666666669)"><rect x="1" width="11.999999999999996" height="201.33333333333331"></rect></g><g class="bar" transform="translate(169,15.333333333333314)"><rect x="1" width="11.999999999999996" height="294.6666666666667"></rect></g><g class="bar" transform="translate(182.00000000000003,0)"><rect x="1" width="11.999999999999996" height="310"></rect></g><g class="bar" transform="translate(195,64.66666666666666)"><rect x="1" width="11.999999999999996" height="245.33333333333334"></rect></g><g class="bar" transform="translate(208,125.33333333333334)"><rect x="1" width="11.999999999999996" height="184.66666666666666"></rect></g><g class="bar" transform="translate(221.00000000000003,124)"><rect x="1" width="11.999999999999996" height="186"></rect></g><g class="bar" transform="translate(234,152.66666666666666)"><rect x="1" width="11.999999999999996" height="157.33333333333334"></rect></g><g class="bar" transform="translate(247.00000000000003,147.33333333333331)"><rect x="1" width="11.999999999999996" height="162.66666666666669"></rect></g><g class="bar" transform="translate(260,144)"><rect x="1" width="11.999999999999996" height="166"></rect></g><g class="bar" transform="translate(273,189.33333333333334)"><rect x="1" width="11.999999999999996" height="120.66666666666666"></rect></g><g class="bar" transform="translate(286,184.66666666666669)"><rect x="1" width="11.999999999999996" height="125.33333333333331"></rect></g><g class="bar" transform="translate(299.00000000000006,229.33333333333334)"><rect x="1" width="11.999999999999996" height="80.66666666666666"></rect></g><g class="bar" transform="translate(312.00000000000006,254.66666666666666)"><rect x="1" width="11.999999999999996" height="55.33333333333334"></rect></g><g class="bar" transform="translate(325,265.3333333333333)"><rect x="1" width="11.999999999999996" height="44.666666666666686"></rect></g><g class="bar" transform="translate(338,288.6666666666667)"><rect x="1" width="11.999999999999996" height="21.333333333333314"></rect></g><g class="bar" transform="translate(351,293.3333333333333)"><rect x="1" width="11.999999999999996" height="16.666666666666686"></rect></g><g class="bar" transform="translate(364.00000000000006,288.6666666666667)"><rect x="1" width="11.999999999999996" height="21.333333333333314"></rect></g><g class="bar" transform="translate(377.00000000000006,299.3333333333333)"><rect x="1" width="11.999999999999996" height="10.666666666666686"></rect></g><g class="bar" transform="translate(390,306.6666666666667)"><rect x="1" width="11.999999999999996" height="3.3333333333333144"></rect></g><g class="bar" transform="translate(403,308)"><rect x="1" width="11.999999999999996" height="2"></rect></g><g class="bar" transform="translate(416,308.6666666666667)"><rect x="1" width="11.999999999999996" height="1.3333333333333144"></rect></g><g class="bar" transform="translate(429.00000000000006,310)"><rect x="1" width="11.999999999999996" height="0"></rect></g><g class="bar" transform="translate(442.00000000000006,310)"><rect x="1" width="11.999999999999996" height="0"></rect></g><g class="bar" transform="translate(455,310)"><rect x="1" width="11.999999999999996" height="0"></rect></g><g class="bar" transform="translate(468,310)"><rect x="1" width="11.999999999999996" height="0"></rect></g><g class="bar" transform="translate(481,310)"><rect x="1" width="11.999999999999996" height="0"></rect></g><g class="bar" transform="translate(494.00000000000006,310)"><rect x="1" width="11.999999999999996" height="0"></rect></g><g class="bar" transform="translate(507.00000000000006,310)"><rect x="1" width="11.999999999999996" height="0"></rect></g><g class="axis axis--x" transform="translate(0,310)" fill="none" font-size="10" font-family="sans-serif" text-anchor="middle"><path class="domain" stroke="#000" d="M0.5,6V0.5H520.5V6"></path><g class="tick" opacity="1" transform="translate(0,0)"><line stroke="#000" y2="6" x1="0.5" x2="0.5"></line><text fill="#000" y="9" x="0.5" dy="0.71em">0.01</text></g><g class="tick" opacity="1" transform="translate(130,0)"><line stroke="#000" y2="6" x1="0.5" x2="0.5"></line><text fill="#000" y="9" x="0.5" dy="0.71em">1</text></g><g class="tick" opacity="1" transform="translate(260,0)"><line stroke="#000" y2="6" x1="0.5" x2="0.5"></line><text fill="#000" y="9" x="0.5" dy="0.71em">100</text></g><g class="tick" opacity="1" transform="translate(390,0)"><line stroke="#000" y2="6" x1="0.5" x2="0.5"></line><text fill="#000" y="9" x="0.5" dy="0.71em">10000</text></g><g class="tick" opacity="1" transform="translate(520,0)"><line stroke="#000" y2="6" x1="0.5" x2="0.5"></line><text fill="#000" y="9" x="0.5" dy="0.71em"></text></g></g><g class="axis axis--y" fill="none" font-size="10" font-family="sans-serif" text-anchor="end"><path class="domain" stroke="#000" d="M-6,310.5H0.5V0.5H-6"></path><g class="tick" opacity="1" transform="translate(0,310)"><line stroke="#000" x2="-6" y1="0.5" y2="0.5"></line><text fill="#000" x="-9" y="0.5" dy="0.32em">0</text></g><g class="tick" opacity="1" transform="translate(0,276.6666666666667)"><line stroke="#000" x2="-6" y1="0.5" y2="0.5"></line><text fill="#000" x="-9" y="0.5" dy="0.32em">50</text></g><g class="tick" opacity="1" transform="translate(0,243.33333333333331)"><line stroke="#000" x2="-6" y1="0.5" y2="0.5"></line><text fill="#000" x="-9" y="0.5" dy="0.32em">100</text></g><g class="tick" opacity="1" transform="translate(0,210)"><line stroke="#000" x2="-6" y1="0.5" y2="0.5"></line><text fill="#000" x="-9" y="0.5" dy="0.32em">150</text></g><g class="tick" opacity="1" transform="translate(0,176.66666666666666)"><line stroke="#000" x2="-6" y1="0.5" y2="0.5"></line><text fill="#000" x="-9" y="0.5" dy="0.32em">200</text></g><g class="tick" opacity="1" transform="translate(0,143.33333333333334)"><line stroke="#000" x2="-6" y1="0.5" y2="0.5"></line><text fill="#000" x="-9" y="0.5" dy="0.32em">250</text></g><g class="tick" opacity="1" transform="translate(0,110)"><line stroke="#000" x2="-6" y1="0.5" y2="0.5"></line><text fill="#000" x="-9" y="0.5" dy="0.32em">300</text></g><g class="tick" opacity="1" transform="translate(0,76.66666666666666)"><line stroke="#000" x2="-6" y1="0.5" y2="0.5"></line><text fill="#000" x="-9" y="0.5" dy="0.32em">350</text></g><g class="tick" opacity="1" transform="translate(0,43.333333333333314)"><line stroke="#000" x2="-6" y1="0.5" y2="0.5"></line><text fill="#000" x="-9" y="0.5" dy="0.32em">400</text></g><g class="tick" opacity="1" transform="translate(0,10)"><line stroke="#000" x2="-6" y1="0.5" y2="0.5"></line><text fill="#000" x="-9" y="0.5" dy="0.32em">450</text></g></g></g></svg>