<svg xmlns="http://www.w3.org/2000/svg" width="280" height="160"><defs><style type="text/css"><![CDATA[ 
.bar rect {
  fill-opacity: 0;
  stroke:       black;
  stroke-width: 0.5;
}

.highlight rect {
  fill:       red;
  fill-opacity: 1;
}
.axis path,
.axis line {
  fill: none;
  stroke: #000;
  shape-rendering: crispEdges;
}
path {
    stroke: red;
    fill: none;
}

line {
    stroke: red;
}

path.marker {
    fill: red;
}
 ]]></style></defs><g transform="translate(50,10)"><g class="bar" transform="translate(0,116.27714581178904)"><rect x="1" width="11.5" height="3.7228541882109596"></rect></g><g class="bar" transform="translate(12.5,95.92554291623578)"><rect x="1" width="11.5" height="24.074457083764216"></rect></g><g class="bar" transform="translate(25,36.60806618407446)"><rect x="1" width="11.5" height="83.39193381592554"></rect></g><g class="bar" transform="translate(37.5,0)"><rect x="1" width="11.5" height="120"></rect></g><g class="bar" transform="translate(50,44.508790072388834)"><rect x="1" width="11.5" height="75.49120992761117"></rect></g><g class="bar" transform="translate(62.5,65.97724922440537)"><rect x="1" width="11.5" height="54.02275077559463"></rect></g><g class="bar" transform="translate(75,72.18200620475699)"><rect x="1" width="11.5" height="47.81799379524301"></rect></g><g class="bar" transform="translate(87.5,79.58634953464323)"><rect x="1" width="11.5" height="40.41365046535677"></rect></g><g class="bar" transform="translate(100,88.89348500517063)"><rect x="1" width="11.5" height="31.106514994829368"></rect></g><g class="bar" transform="translate(112.5,102.70941054808686)"><rect x="1" width="11.5" height="17.290589451913135"></rect></g><g class="bar" transform="translate(125,113.75387797311272)"><rect x="1" width="11.5" height="6.246122026887278"></rect></g><g class="bar" transform="translate(137.5,118.55222337125129)"><rect x="1" width="11.5" height="1.4477766287487128"></rect></g><g class="bar" transform="translate(150,119.71044467425025)"><rect x="1" width="11.5" height="0.2895553257497454"></rect></g><g class="bar" transform="translate(162.5,120)"><rect x="1" width="11.5" height="0"></rect></g><g class="bar" transform="translate(175,120)"><rect x="1" width="11.5" height="0"></rect></g><g class="bar" transform="translate(187.5,120)"><rect x="1" width="11.5" height="0"></rect></g></g></svg>