<svg xmlns="http://www.w3.org/2000/svg" width="600" height="350"><defs><style type="text/css"><![CDATA[ 
.bar rect {
  fill-opacity: 0;
  stroke:       black;
  stroke-width: 0.5;
}

.highlight rect {
  fill:       red;
  fill-opacity: 1;
}
.axis path,
.axis line {
  fill: none;
  stroke: #000;
  shape-rendering: crispEdges;
}
path {
    stroke: red;
    fill: none;
}

line {
    stroke: red;
}

path.marker {
    fill: red;
}
 ]]></style></defs><g transform="translate(50,10)"><g class="bar" transform="translate(0,310)"><rect x="1" width="11.999999999999996" height="0"></rect></g><g class="bar" transform="translate(12.999999999999996,310)"><rect x="1" width="11.999999999999996" height="0"></rect></g><g class="bar" transform="translate(25.999999999999993,310)"><rect x="1" width="11.999999999999996" height="0"></rect></g><g class="bar" transform="translate(39.00000000000001,310)"><rect x="1" width="11.999999999999996" height="0"></rect></g><g class="bar" transform="translate(52,310)"><rect x="1" width="11.999999999999996" height="0"></rect></g><g class="bar" transform="translate(65,310)"><rect x="1" width="11.999999999999996" height="0"></rect></g><g class="bar" transform="translate(78.00000000000001,310)"><rect x="1" width="11.999999999999996" height="0"></rect></g><g class="bar" transform="translate(91.00000000000001,310)"><rect x="1" width="11.999999999999996" height="0"></rect></g><g class="bar" transform="translate(104,310)"><rect x="1" width="11.999999999999996" height="0"></rect></g><g class="bar" transform="translate(117,308.69198312236284)"><rect x="1" width="11.999999999999996" height="1.308016877637158"></rect></g><g class="bar" transform="translate(130,308.0379746835443)"><rect x="1" width="11.999999999999996" height="1.9620253164557084"></rect></g><g class="bar" transform="translate(143,301.4978902953587)"><rect x="1" width="11.999999999999996" height="8.502109704641327"></rect></g><g class="bar" transform="translate(156.00000000000003,271.4135021097046)"><rect x="1" width="11.999999999999996" height="38.58649789029539"></rect></g><g class="bar" transform="translate(169,231.51898734177215)"><rect x="1" width="11.999999999999996" height="78.48101265822785"></rect></g><g class="bar" transform="translate(182.00000000000003,119.0295358649789)"><rect x="1" width="11.999999999999996" height="190.9704641350211"></rect></g><g class="bar" transform="translate(195,43.1645569620253)"><rect x="1" width="11.999999999999996" height="266.8354430379747"></rect></g><g class="bar" transform="translate(208,18.312236286919813)"><rect x="1" width="11.999999999999996" height="291.6877637130802"></rect></g><g class="bar" transform="translate(221.00000000000003,0)"><rect x="1" width="11.999999999999996" height="310"></rect></g><g class="bar" transform="translate(234,32.046413502109715)"><rect x="1" width="11.999999999999996" height="277.9535864978903"></rect></g><g class="bar" transform="translate(247.00000000000003,23.54430379746833)"><rect x="1" width="11.999999999999996" height="286.45569620253167"></rect></g><g class="bar" transform="translate(260,74.55696202531644)"><rect x="1" width="11.999999999999996" height="235.44303797468356"></rect></g><g class="bar" transform="translate(273,78.48101265822785)"><rect x="1" width="11.999999999999996" height="231.51898734177215"></rect></g><g class="bar" transform="translate(286,127.53164556962025)"><rect x="1" width="11.999999999999996" height="182.46835443037975"></rect></g><g class="bar" transform="translate(299.00000000000006,183.77637130801688)"><rect x="1" width="11.999999999999996" height="126.22362869198312"></rect></g><g class="bar" transform="translate(312.00000000000006,221.70886075949366)"><rect x="1" width="11.999999999999996" height="88.29113924050634"></rect></g><g class="bar" transform="translate(325,255.71729957805906)"><rect x="1" width="11.999999999999996" height="54.282700421940945"></rect></g><g class="bar" transform="translate(338,279.915611814346)"><rect x="1" width="11.999999999999996" height="30.084388185654007"></rect></g><g class="bar" transform="translate(351,285.1476793248945)"><rect x="1" width="11.999999999999996" height="24.85232067510549"></rect></g><g class="bar" transform="translate(364.00000000000006,302.1518987341772)"><rect x="1" width="11.999999999999996" height="7.848101265822777"></rect></g><g class="bar" transform="translate(377.00000000000006,306.7299578059072)"><rect x="1" width="11.999999999999996" height="3.2700421940928095"></rect></g><g class="bar" transform="translate(390,307.38396624472574)"><rect x="1" width="11.999999999999996" height="2.616033755274259"></rect></g><g class="bar" transform="translate(403,310)"><rect x="1" width="11.999999999999996" height="0"></rect></g><g class="bar" transform="translate(416,309.34599156118145)"><rect x="1" width="11.999999999999996" height="0.6540084388185505"></rect></g><g class="bar" transform="translate(429.00000000000006,310)"><rect x="1" width="11.999999999999996" height="0"></rect></g><g class="bar" transform="translate(442.00000000000006,310)"><rect x="1" width="11.999999999999996" height="0"></rect></g><g class="bar" transform="translate(455,310)"><rect x="1" width="11.999999999999996" height="0"></rect></g><g class="bar" transform="translate(468,310)"><rect x="1" width="11.999999999999996" height="0"></rect></g><g class="bar" transform="translate(481,310)"><rect x="1" width="11.999999999999996" height="0"></rect></g><g class="bar" transform="translate(494.00000000000006,310)"><rect x="1" width="11.999999999999996" height="0"></rect></g><g class="bar" transform="translate(507.00000000000006,310)"><rect x="1" width="11.999999999999996" height="0"></rect></g><g class="axis axis--x" transform="translate(0,310)" fill="none" font-size="10" font-family="sans-serif" text-anchor="middle"><path class="domain" stroke="#000" d="M0.5,6V0.5H520.5V6"></path><g class="tick" opacity="1" transform="translate(0.5,0)"><line stroke="#000" y2="6"></line><text fill="#000" y="9" dy="0.71em">0.01</text></g><g class="tick" opacity="1" transform="translate(130.5,0)"><line stroke="#000" y2="6"></line><text fill="#000" y="9" dy="0.71em">1</text></g><g class="tick" opacity="1" transform="translate(260.5,0)"><line stroke="#000" y2="6"></line><text fill="#000" y="9" dy="0.71em">100</text></g><g class="tick" opacity="1" transform="translate(390.5,0)"><line stroke="#000" y2="6"></line><text fill="#000" y="9" dy="0.71em">10000</text></g><g class="tick" opacity="1" transform="translate(520.5,0)"><line stroke="#000" y2="6"></line><text fill="#000" y="9" dy="0.71em"></text></g></g><g class="axis axis--y" fill="none" font-size="10" font-family="sans-serif" text-anchor="end"><path class="domain" stroke="#000" d="M-6,310.5H0.5V0.5H-6"></path><g class="tick" opacity="1" transform="translate(0,310.5)"><line stroke="#000" x2="-6"></line><text fill="#000" x="-9" dy="0.32em">0</text></g><g class="tick" opacity="1" transform="translate(0,277.79957805907173)"><line stroke="#000" x2="-6"></line><text fill="#000" x="-9" dy="0.32em">50</text></g><g class="tick" opacity="1" transform="translate(0,245.09915611814347)"><line stroke="#000" x2="-6"></line><text fill="#000" x="-9" dy="0.32em">100</text></g><g class="tick" opacity="1" transform="translate(0,212.3987341772152)"><line stroke="#000" x2="-6"></line><text fill="#000" x="-9" dy="0.32em">150</text></g><g class="tick" opacity="1" transform="translate(0,179.6983122362869)"><line stroke="#000" x2="-6"></line><text fill="#000" x="-9" dy="0.32em">200</text></g><g class="tick" opacity="1" transform="translate(0,146.99789029535864)"><line stroke="#000" x2="-6"></line><text fill="#000" x="-9" dy="0.32em">250</text></g><g class="tick" opacity="1" transform="translate(0,114.29746835443038)"><line stroke="#000" x2="-6"></line><text fill="#000" x="-9" dy="0.32em">300</text></g><g class="tick" opacity="1" transform="translate(0,81.59704641350211)"><line stroke="#000" x2="-6"></line><text fill="#000" x="-9" dy="0.32em">350</text></g><g class="tick" opacity="1" transform="translate(0,48.89662447257382)"><line stroke="#000" x2="-6"></line><text fill="#000" x="-9" dy="0.32em">400</text></g><g class="tick" opacity="1" transform="translate(0,16.19620253164561)"><line stroke="#000" x2="-6"></line><text fill="#000" x="-9" dy="0.32em">450</text></g></g></g></svg>