<svg xmlns="http://www.w3.org/2000/svg" width="280" height="160"><defs><style type="text/css"><![CDATA[ 
.bar rect {
  fill-opacity: 0;
  stroke:       black;
  stroke-width: 0.5;
}

.highlight rect {
  fill:       red;
  fill-opacity: 1;
}
.axis path,
.axis line {
  fill: none;
  stroke: #000;
  shape-rendering: crispEdges;
}
path {
    stroke: red;
    fill: none;
}

line {
    stroke: red;
}

path.marker {
    fill: red;
}
 ]]></style></defs><g transform="translate(50,10)"><g class="bar" transform="translate(0,39.24932975871313)"><rect x="1" width="11.5" height="80.75067024128687"></rect></g><g class="bar" transform="translate(12.5,110.67024128686327)"><rect x="1" width="11.5" height="9.329758713136727"></rect></g><g class="bar" transform="translate(25,116.46112600536193)"><rect x="1" width="11.5" height="3.5388739946380667"></rect></g><g class="bar" transform="translate(37.5,116.13941018766756)"><rect x="1" width="11.5" height="3.860589812332435"></rect></g><g class="bar" transform="translate(50,102.62734584450402)"><rect x="1" width="11.5" height="17.37265415549598"></rect></g><g class="bar" transform="translate(62.5,67.5603217158177)"><rect x="1" width="11.5" height="52.43967828418231"></rect></g><g class="bar" transform="translate(75,37.96246648793566)"><rect x="1" width="11.5" height="82.03753351206434"></rect></g><g class="bar" transform="translate(87.5,18.98123324396782)"><rect x="1" width="11.5" height="101.01876675603218"></rect></g><g class="bar" transform="translate(100,0)"><rect x="1" width="11.5" height="120"></rect></g><g class="bar" transform="translate(112.5,11.58176943699732)"><rect x="1" width="11.5" height="108.41823056300268"></rect></g><g class="bar" transform="translate(125,74.63806970509384)"><rect x="1" width="11.5" height="45.36193029490616"></rect></g><g class="bar" transform="translate(137.5,104.87935656836461)"><rect x="1" width="11.5" height="15.120643431635386"></rect></g><g class="bar" transform="translate(150,115.17426273458445)"><rect x="1" width="11.5" height="4.825737265415555"></rect></g><g class="bar" transform="translate(162.5,120)"><rect x="1" width="11.5" height="0"></rect></g><g class="bar" transform="translate(175,120)"><rect x="1" width="11.5" height="0"></rect></g><g class="bar" transform="translate(187.5,120)"><rect x="1" width="11.5" height="0"></rect></g></g></svg>