<svg xmlns="http://www.w3.org/2000/svg" width="600" height="350"><defs><style type="text/css"><![CDATA[ 
.bar rect {
  fill-opacity: 0;
  stroke:       black;
  stroke-width: 0.5;
}

.highlight rect {
  fill:       red;
  fill-opacity: 1;
}
.axis path,
.axis line {
  fill: none;
  stroke: #000;
  shape-rendering: crispEdges;
}
 ]]></style></defs><g transform="translate(50,10)"><g class="bar" transform="translate(0,310)"><rect x="1" width="11.999999999999996" height="0"></rect></g><g class="bar" transform="translate(12.999999999999996,310)"><rect x="1" width="11.999999999999996" height="0"></rect></g><g class="bar" transform="translate(25.999999999999993,310)"><rect x="1" width="11.999999999999996" height="0"></rect></g><g class="bar" transform="translate(39.00000000000001,310)"><rect x="1" width="11.999999999999996" height="0"></rect></g><g class="bar" transform="translate(52,310)"><rect x="1" width="11.999999999999996" height="0"></rect></g><g class="bar" transform="translate(65,310)"><rect x="1" width="11.999999999999996" height="0"></rect></g><g class="bar" transform="translate(78.00000000000001,308.7890625)"><rect x="1" width="11.999999999999996" height="1.2109375"></rect></g><g class="bar" transform="translate(91.00000000000001,306.3671875)"><rect x="1" width="11.999999999999996" height="3.6328125"></rect></g><g class="bar" transform="translate(104,305.15625)"><rect x="1" width="11.999999999999996" height="4.84375"></rect></g><g class="bar" transform="translate(117,288.203125)"><rect x="1" width="11.999999999999996" height="21.796875"></rect></g><g class="bar" transform="translate(130,285.78125)"><rect x="1" width="11.999999999999996" height="24.21875"></rect></g><g class="bar" transform="translate(143,273.671875)"><rect x="1" width="11.999999999999996" height="36.328125"></rect></g><g class="bar" transform="translate(156.00000000000003,224.0234375)"><rect x="1" width="11.999999999999996" height="85.9765625"></rect></g><g class="bar" transform="translate(169,168.3203125)"><rect x="1" width="11.999999999999996" height="141.6796875"></rect></g><g class="bar" transform="translate(182.00000000000003,72.65625)"><rect x="1" width="11.999999999999996" height="237.34375"></rect></g><g class="bar" transform="translate(195,60.546875)"><rect x="1" width="11.999999999999996" height="249.453125"></rect></g><g class="bar" transform="translate(208,3.6328125)"><rect x="1" width="11.999999999999996" height="306.3671875"></rect></g><g class="bar" transform="translate(221.00000000000003,6.0546875)"><rect x="1" width="11.999999999999996" height="303.9453125"></rect></g><g class="bar" transform="translate(234,6.0546875)"><rect x="1" width="11.999999999999996" height="303.9453125"></rect></g><g class="bar" transform="translate(247.00000000000003,0)"><rect x="1" width="11.999999999999996" height="310"></rect></g><g class="bar" transform="translate(260,10.8984375)"><rect x="1" width="11.999999999999996" height="299.1015625"></rect></g><g class="bar" transform="translate(273,64.1796875)"><rect x="1" width="11.999999999999996" height="245.8203125"></rect></g><g class="bar" transform="translate(286,77.5)"><rect x="1" width="11.999999999999996" height="232.5"></rect></g><g class="bar" transform="translate(299.00000000000006,117.4609375)"><rect x="1" width="11.999999999999996" height="192.5390625"></rect></g><g class="bar" transform="translate(312.00000000000006,152.578125)"><rect x="1" width="11.999999999999996" height="157.421875"></rect></g><g class="bar" transform="translate(325,182.8515625)"><rect x="1" width="11.999999999999996" height="127.1484375"></rect></g><g class="bar" transform="translate(338,217.96875)"><rect x="1" width="11.999999999999996" height="92.03125"></rect></g><g class="bar" transform="translate(351,256.71875)"><rect x="1" width="11.999999999999996" height="53.28125"></rect></g><g class="bar" transform="translate(364.00000000000006,286.9921875)"><rect x="1" width="11.999999999999996" height="23.0078125"></rect></g><g class="bar" transform="translate(377.00000000000006,305.15625)"><rect x="1" width="11.999999999999996" height="4.84375"></rect></g><g class="bar" transform="translate(390,308.7890625)"><rect x="1" width="11.999999999999996" height="1.2109375"></rect></g><g class="bar" transform="translate(403,308.7890625)"><rect x="1" width="11.999999999999996" height="1.2109375"></rect></g><g class="bar" transform="translate(416,310)"><rect x="1" width="11.999999999999996" height="0"></rect></g><g class="bar" transform="translate(429.00000000000006,308.7890625)"><rect x="1" width="11.999999999999996" height="1.2109375"></rect></g><g class="bar" transform="translate(442.00000000000006,310)"><rect x="1" width="11.999999999999996" height="0"></rect></g><g class="bar" transform="translate(455,310)"><rect x="1" width="11.999999999999996" height="0"></rect></g><g class="bar" transform="translate(468,310)"><rect x="1" width="11.999999999999996" height="0"></rect></g><g class="bar" transform="translate(481,310)"><rect x="1" width="11.999999999999996" height="0"></rect></g><g class="bar" transform="translate(494.00000000000006,310)"><rect x="1" width="11.999999999999996" height="0"></rect></g><g class="bar" transform="translate(507.00000000000006,310)"><rect x="1" width="11.999999999999996" height="0"></rect></g><g class="axis axis--x" transform="translate(0,310)" fill="none" font-size="10" font-family="sans-serif" text-anchor="middle"><path class="domain" stroke="#000" d="M0.5,6V0.5H520.5V6"></path><g class="tick" opacity="1" transform="translate(0,0)"><line stroke="#000" y2="6" x1="0.5" x2="0.5"></line><text fill="#000" y="9" x="0.5" dy="0.71em">0.01</text></g><g class="tick" opacity="1" transform="translate(130,0)"><line stroke="#000" y2="6" x1="0.5" x2="0.5"></line><text fill="#000" y="9" x="0.5" dy="0.71em">1</text></g><g class="tick" opacity="1" transform="translate(260,0)"><line stroke="#000" y2="6" x1="0.5" x2="0.5"></line><text fill="#000" y="9" x="0.5" dy="0.71em">100</text></g><g class="tick" opacity="1" transform="translate(390,0)"><line stroke="#000" y2="6" x1="0.5" x2="0.5"></line><text fill="#000" y="9" x="0.5" dy="0.71em">10000</text></g><g class="tick" opacity="1" transform="translate(520,0)"><line stroke="#000" y2="6" x1="0.5" x2="0.5"></line><text fill="#000" y="9" x="0.5" dy="0.71em"></text></g></g><g class="axis axis--y" fill="none" font-size="10" font-family="sans-serif" text-anchor="end"><path class="domain" stroke="#000" d="M-6,310.5H0.5V0.5H-6"></path><g class="tick" opacity="1" transform="translate(0,310)"><line stroke="#000" x2="-6" y1="0.5" y2="0.5"></line><text fill="#000" x="-9" y="0.5" dy="0.32em">0</text></g><g class="tick" opacity="1" transform="translate(0,285.78125)"><line stroke="#000" x2="-6" y1="0.5" y2="0.5"></line><text fill="#000" x="-9" y="0.5" dy="0.32em">20</text></g><g class="tick" opacity="1" transform="translate(0,261.5625)"><line stroke="#000" x2="-6" y1="0.5" y2="0.5"></line><text fill="#000" x="-9" y="0.5" dy="0.32em">40</text></g><g class="tick" opacity="1" transform="translate(0,237.34375)"><line stroke="#000" x2="-6" y1="0.5" y2="0.5"></line><text fill="#000" x="-9" y="0.5" dy="0.32em">60</text></g><g class="tick" opacity="1" transform="translate(0,213.125)"><line stroke="#000" x2="-6" y1="0.5" y2="0.5"></line><text fill="#000" x="-9" y="0.5" dy="0.32em">80</text></g><g class="tick" opacity="1" transform="translate(0,188.90625)"><line stroke="#000" x2="-6" y1="0.5" y2="0.5"></line><text fill="#000" x="-9" y="0.5" dy="0.32em">100</text></g><g class="tick" opacity="1" transform="translate(0,164.6875)"><line stroke="#000" x2="-6" y1="0.5" y2="0.5"></line><text fill="#000" x="-9" y="0.5" dy="0.32em">120</text></g><g class="tick" opacity="1" transform="translate(0,140.46875)"><line stroke="#000" x2="-6" y1="0.5" y2="0.5"></line><text fill="#000" x="-9" y="0.5" dy="0.32em">140</text></g><g class="tick" opacity="1" transform="translate(0,116.25)"><line stroke="#000" x2="-6" y1="0.5" y2="0.5"></line><text fill="#000" x="-9" y="0.5" dy="0.32em">160</text></g><g class="tick" opacity="1" transform="translate(0,92.03125)"><line stroke="#000" x2="-6" y1="0.5" y2="0.5"></line><text fill="#000" x="-9" y="0.5" dy="0.32em">180</text></g><g class="tick" opacity="1" transform="translate(0,67.8125)"><line stroke="#000" x2="-6" y1="0.5" y2="0.5"></line><text fill="#000" x="-9" y="0.5" dy="0.32em">200</text></g><g class="tick" opacity="1" transform="translate(0,43.59375)"><line stroke="#000" x2="-6" y1="0.5" y2="0.5"></line><text fill="#000" x="-9" y="0.5" dy="0.32em">220</text></g><g class="tick" opacity="1" transform="translate(0,19.375)"><line stroke="#000" x2="-6" y1="0.5" y2="0.5"></line><text fill="#000" x="-9" y="0.5" dy="0.32em">240</text></g></g></g></svg>