<svg xmlns="http://www.w3.org/2000/svg" width="280" height="160"><defs><style type="text/css"><![CDATA[ 
.bar rect {
  fill-opacity: 0;
  stroke:       black;
  stroke-width: 0.5;
}

.highlight rect {
  fill:       red;
  fill-opacity: 1;
}
.axis path,
.axis line {
  fill: none;
  stroke: #000;
  shape-rendering: crispEdges;
}
path {
    stroke: red;
    fill: none;
}

line {
    stroke: red;
}

path.marker {
    fill: red;
}
 ]]></style></defs><g transform="translate(50,10)"><g class="bar" transform="translate(0,119.83978638184246)"><rect x="1" width="11.5" height="0.16021361815754176"></rect></g><g class="bar" transform="translate(12.5,118.23765020026703)"><rect x="1" width="11.5" height="1.7623497997329736"></rect></g><g class="bar" transform="translate(25,96.87583444592791)"><rect x="1" width="11.5" height="23.124165554072093"></rect></g><g class="bar" transform="translate(37.5,21.201602136181577)"><rect x="1" width="11.5" height="98.79839786381842"></rect></g><g class="bar" transform="translate(50,0)"><rect x="1" width="11.5" height="120"></rect></g><g class="bar" transform="translate(62.5,2.136181575433909)"><rect x="1" width="11.5" height="117.86381842456609"></rect></g><g class="bar" transform="translate(75,12.550066755674237)"><rect x="1" width="11.5" height="107.44993324432576"></rect></g><g class="bar" transform="translate(87.5,45.287049399198935)"><rect x="1" width="11.5" height="74.71295060080107"></rect></g><g class="bar" transform="translate(100,78.23765020026703)"><rect x="1" width="11.5" height="41.762349799732974"></rect></g><g class="bar" transform="translate(112.5,102.26969292389853)"><rect x="1" width="11.5" height="17.730307076101468"></rect></g><g class="bar" transform="translate(125,113.05740987983978)"><rect x="1" width="11.5" height="6.942590120160219"></rect></g><g class="bar" transform="translate(137.5,117.06275033377837)"><rect x="1" width="11.5" height="2.937249666221632"></rect></g><g class="bar" transform="translate(150,119.83978638184246)"><rect x="1" width="11.5" height="0.16021361815754176"></rect></g><g class="bar" transform="translate(162.5,120)"><rect x="1" width="11.5" height="0"></rect></g><g class="bar" transform="translate(175,120)"><rect x="1" width="11.5" height="0"></rect></g><g class="bar" transform="translate(187.5,120)"><rect x="1" width="11.5" height="0"></rect></g></g></svg>