<svg xmlns="http://www.w3.org/2000/svg" width="600" height="350"><defs><style type="text/css"><![CDATA[ 
.bar rect {
  fill-opacity: 0;
  stroke:       black;
  stroke-width: 0.5;
}

.highlight rect {
  fill:       red;
  fill-opacity: 1;
}
.axis path,
.axis line {
  fill: none;
  stroke: #000;
  shape-rendering: crispEdges;
}
path {
    stroke: red;
    fill: none;
}

line {
    stroke: red;
}

path.marker {
    fill: red;
}
 ]]></style></defs><g transform="translate(50,10)"><g class="bar" transform="translate(0,310)"><rect x="1" width="11.999999999999996" height="0"></rect></g><g class="bar" transform="translate(12.999999999999996,310)"><rect x="1" width="11.999999999999996" height="0"></rect></g><g class="bar" transform="translate(25.999999999999993,310)"><rect x="1" width="11.999999999999996" height="0"></rect></g><g class="bar" transform="translate(39.00000000000001,310)"><rect x="1" width="11.999999999999996" height="0"></rect></g><g class="bar" transform="translate(52,310)"><rect x="1" width="11.999999999999996" height="0"></rect></g><g class="bar" transform="translate(65,310)"><rect x="1" width="11.999999999999996" height="0"></rect></g><g class="bar" transform="translate(78.00000000000001,310)"><rect x="1" width="11.999999999999996" height="0"></rect></g><g class="bar" transform="translate(91.00000000000001,310)"><rect x="1" width="11.999999999999996" height="0"></rect></g><g class="bar" transform="translate(104,307.72893772893775)"><rect x="1" width="11.999999999999996" height="2.271062271062249"></rect></g><g class="bar" transform="translate(117,307.72893772893775)"><rect x="1" width="11.999999999999996" height="2.271062271062249"></rect></g><g class="bar" transform="translate(130,305.45787545787545)"><rect x="1" width="11.999999999999996" height="4.542124542124554"></rect></g><g class="bar" transform="translate(143,295.23809523809524)"><rect x="1" width="11.999999999999996" height="14.76190476190476"></rect></g><g class="bar" transform="translate(156.00000000000003,286.15384615384613)"><rect x="1" width="11.999999999999996" height="23.846153846153868"></rect></g><g class="bar" transform="translate(169,275.9340659340659)"><rect x="1" width="11.999999999999996" height="34.06593406593407"></rect></g><g class="bar" transform="translate(182.00000000000003,249.8168498168498)"><rect x="1" width="11.999999999999996" height="60.18315018315019"></rect></g><g class="bar" transform="translate(195,170.32967032967034)"><rect x="1" width="11.999999999999996" height="139.67032967032966"></rect></g><g class="bar" transform="translate(208,85.16483516483518)"><rect x="1" width="11.999999999999996" height="224.83516483516482"></rect></g><g class="bar" transform="translate(221.00000000000003,40.879120879120876)"><rect x="1" width="11.999999999999996" height="269.1208791208791"></rect></g><g class="bar" transform="translate(234,48.82783882783883)"><rect x="1" width="11.999999999999996" height="261.17216117216117"></rect></g><g class="bar" transform="translate(247.00000000000003,0)"><rect x="1" width="11.999999999999996" height="310"></rect></g><g class="bar" transform="translate(260,56.77655677655679)"><rect x="1" width="11.999999999999996" height="253.2234432234432"></rect></g><g class="bar" transform="translate(273,64.72527472527474)"><rect x="1" width="11.999999999999996" height="245.27472527472526"></rect></g><g class="bar" transform="translate(286,110.14652014652015)"><rect x="1" width="11.999999999999996" height="199.85347985347985"></rect></g><g class="bar" transform="translate(299.00000000000006,123.77289377289378)"><rect x="1" width="11.999999999999996" height="186.22710622710622"></rect></g><g class="bar" transform="translate(312.00000000000006,156.7032967032967)"><rect x="1" width="11.999999999999996" height="153.2967032967033"></rect></g><g class="bar" transform="translate(325,202.12454212454213)"><rect x="1" width="11.999999999999996" height="107.87545787545787"></rect></g><g class="bar" transform="translate(338,223.6996336996337)"><rect x="1" width="11.999999999999996" height="86.3003663003663"></rect></g><g class="bar" transform="translate(351,264.57875457875457)"><rect x="1" width="11.999999999999996" height="45.42124542124543"></rect></g><g class="bar" transform="translate(364.00000000000006,280.4761904761905)"><rect x="1" width="11.999999999999996" height="29.52380952380952"></rect></g><g class="bar" transform="translate(377.00000000000006,305.45787545787545)"><rect x="1" width="11.999999999999996" height="4.542124542124554"></rect></g><g class="bar" transform="translate(390,308.86446886446885)"><rect x="1" width="11.999999999999996" height="1.1355311355311528"></rect></g><g class="bar" transform="translate(403,308.86446886446885)"><rect x="1" width="11.999999999999996" height="1.1355311355311528"></rect></g><g class="bar" transform="translate(416,310)"><rect x="1" width="11.999999999999996" height="0"></rect></g><g class="bar" transform="translate(429.00000000000006,308.86446886446885)"><rect x="1" width="11.999999999999996" height="1.1355311355311528"></rect></g><g class="bar" transform="translate(442.00000000000006,310)"><rect x="1" width="11.999999999999996" height="0"></rect></g><g class="bar" transform="translate(455,310)"><rect x="1" width="11.999999999999996" height="0"></rect></g><g class="bar" transform="translate(468,310)"><rect x="1" width="11.999999999999996" height="0"></rect></g><g class="bar" transform="translate(481,310)"><rect x="1" width="11.999999999999996" height="0"></rect></g><g class="bar" transform="translate(494.00000000000006,310)"><rect x="1" width="11.999999999999996" height="0"></rect></g><g class="bar" transform="translate(507.00000000000006,310)"><rect x="1" width="11.999999999999996" height="0"></rect></g><g class="axis axis--x" transform="translate(0,310)" fill="none" font-size="10" font-family="sans-serif" text-anchor="middle"><path class="domain" stroke="#000" d="M0.5,6V0.5H520.5V6"></path><g class="tick" opacity="1" transform="translate(0.5,0)"><line stroke="#000" y2="6"></line><text fill="#000" y="9" dy="0.71em">0.01</text></g><g class="tick" opacity="1" transform="translate(130.5,0)"><line stroke="#000" y2="6"></line><text fill="#000" y="9" dy="0.71em">1</text></g><g class="tick" opacity="1" transform="translate(260.5,0)"><line stroke="#000" y2="6"></line><text fill="#000" y="9" dy="0.71em">100</text></g><g class="tick" opacity="1" transform="translate(390.5,0)"><line stroke="#000" y2="6"></line><text fill="#000" y="9" dy="0.71em">10000</text></g><g class="tick" opacity="1" transform="translate(520.5,0)"><line stroke="#000" y2="6"></line><text fill="#000" y="9" dy="0.71em"></text></g></g><g class="axis axis--y" fill="none" font-size="10" font-family="sans-serif" text-anchor="end"><path class="domain" stroke="#000" d="M-6,310.5H0.5V0.5H-6"></path><g class="tick" opacity="1" transform="translate(0,310.5)"><line stroke="#000" x2="-6"></line><text fill="#000" x="-9" dy="0.32em">0</text></g><g class="tick" opacity="1" transform="translate(0,287.7893772893773)"><line stroke="#000" x2="-6"></line><text fill="#000" x="-9" dy="0.32em">20</text></g><g class="tick" opacity="1" transform="translate(0,265.07875457875457)"><line stroke="#000" x2="-6"></line><text fill="#000" x="-9" dy="0.32em">40</text></g><g class="tick" opacity="1" transform="translate(0,242.36813186813185)"><line stroke="#000" x2="-6"></line><text fill="#000" x="-9" dy="0.32em">60</text></g><g class="tick" opacity="1" transform="translate(0,219.65750915750914)"><line stroke="#000" x2="-6"></line><text fill="#000" x="-9" dy="0.32em">80</text></g><g class="tick" opacity="1" transform="translate(0,196.94688644688645)"><line stroke="#000" x2="-6"></line><text fill="#000" x="-9" dy="0.32em">100</text></g><g class="tick" opacity="1" transform="translate(0,174.23626373626374)"><line stroke="#000" x2="-6"></line><text fill="#000" x="-9" dy="0.32em">120</text></g><g class="tick" opacity="1" transform="translate(0,151.52564102564105)"><line stroke="#000" x2="-6"></line><text fill="#000" x="-9" dy="0.32em">140</text></g><g class="tick" opacity="1" transform="translate(0,128.8150183150183)"><line stroke="#000" x2="-6"></line><text fill="#000" x="-9" dy="0.32em">160</text></g><g class="tick" opacity="1" transform="translate(0,106.10439560439562)"><line stroke="#000" x2="-6"></line><text fill="#000" x="-9" dy="0.32em">180</text></g><g class="tick" opacity="1" transform="translate(0,83.3937728937729)"><line stroke="#000" x2="-6"></line><text fill="#000" x="-9" dy="0.32em">200</text></g><g class="tick" opacity="1" transform="translate(0,60.68315018315019)"><line stroke="#000" x2="-6"></line><text fill="#000" x="-9" dy="0.32em">220</text></g><g class="tick" opacity="1" transform="translate(0,37.972527472527474)"><line stroke="#000" x2="-6"></line><text fill="#000" x="-9" dy="0.32em">240</text></g><g class="tick" opacity="1" transform="translate(0,15.26190476190476)"><line stroke="#000" x2="-6"></line><text fill="#000" x="-9" dy="0.32em">260</text></g></g></g></svg>