<svg xmlns="http://www.w3.org/2000/svg" width="600" height="350"><defs><style type="text/css"><![CDATA[ 
.bar rect {
  fill-opacity: 0;
  stroke:       black;
  stroke-width: 0.5;
}

.highlight rect {
  fill:       red;
  fill-opacity: 1;
}
.axis path,
.axis line {
  fill: none;
  stroke: #000;
  shape-rendering: crispEdges;
}
 ]]></style></defs><g transform="translate(50,10)"><g class="bar" transform="translate(0,291.18932038834953)"><rect x="1" width="11.999999999999996" height="18.81067961165047"></rect></g><g class="bar" transform="translate(12.999999999999996,304.7330097087379)"><rect x="1" width="11.999999999999996" height="5.266990291262118"></rect></g><g class="bar" transform="translate(25.999999999999993,303.9805825242718)"><rect x="1" width="11.999999999999996" height="6.019417475728176"></rect></g><g class="bar" transform="translate(39.00000000000001,291.18932038834953)"><rect x="1" width="11.999999999999996" height="18.81067961165047"></rect></g><g class="bar" transform="translate(52,270.873786407767)"><rect x="1" width="11.999999999999996" height="39.126213592233"></rect></g><g class="bar" transform="translate(65,212.93689320388347)"><rect x="1" width="11.999999999999996" height="97.06310679611653"></rect></g><g class="bar" transform="translate(78.00000000000001,173.81067961165047)"><rect x="1" width="11.999999999999996" height="136.18932038834953"></rect></g><g class="bar" transform="translate(91.00000000000001,93.30097087378641)"><rect x="1" width="11.999999999999996" height="216.6990291262136"></rect></g><g class="bar" transform="translate(104,66.96601941747574)"><rect x="1" width="11.999999999999996" height="243.03398058252426"></rect></g><g class="bar" transform="translate(117,48.155339805825236)"><rect x="1" width="11.999999999999996" height="261.84466019417476"></rect></g><g class="bar" transform="translate(130,0)"><rect x="1" width="11.999999999999996" height="310"></rect></g><g class="bar" transform="translate(143,10.533980582524293)"><rect x="1" width="11.999999999999996" height="299.4660194174757"></rect></g><g class="bar" transform="translate(156.00000000000003,27.087378640776706)"><rect x="1" width="11.999999999999996" height="282.9126213592233"></rect></g><g class="bar" transform="translate(169,44.393203883495175)"><rect x="1" width="11.999999999999996" height="265.6067961165048"></rect></g><g class="bar" transform="translate(182.00000000000003,66.2135922330097)"><rect x="1" width="11.999999999999996" height="243.7864077669903"></rect></g><g class="bar" transform="translate(195,69.97572815533982)"><rect x="1" width="11.999999999999996" height="240.02427184466018"></rect></g><g class="bar" transform="translate(208,57.9368932038835)"><rect x="1" width="11.999999999999996" height="252.0631067961165"></rect></g><g class="bar" transform="translate(221.00000000000003,53.42233009708741)"><rect x="1" width="11.999999999999996" height="256.5776699029126"></rect></g><g class="bar" transform="translate(234,86.52912621359224)"><rect x="1" width="11.999999999999996" height="223.47087378640776"></rect></g><g class="bar" transform="translate(247.00000000000003,118.13106796116506)"><rect x="1" width="11.999999999999996" height="191.86893203883494"></rect></g><g class="bar" transform="translate(260,142.20873786407768)"><rect x="1" width="11.999999999999996" height="167.79126213592232"></rect></g><g class="bar" transform="translate(273,171.5533980582524)"><rect x="1" width="11.999999999999996" height="138.4466019417476"></rect></g><g class="bar" transform="translate(286,169.29611650485435)"><rect x="1" width="11.999999999999996" height="140.70388349514565"></rect></g><g class="bar" transform="translate(299.00000000000006,191.86893203883494)"><rect x="1" width="11.999999999999996" height="118.13106796116506"></rect></g><g class="bar" transform="translate(312.00000000000006,200.89805825242718)"><rect x="1" width="11.999999999999996" height="109.10194174757282"></rect></g><g class="bar" transform="translate(325,239.27184466019418)"><rect x="1" width="11.999999999999996" height="70.72815533980582"></rect></g><g class="bar" transform="translate(338,273.13106796116506)"><rect x="1" width="11.999999999999996" height="36.86893203883494"></rect></g><g class="bar" transform="translate(351,291.94174757281553)"><rect x="1" width="11.999999999999996" height="18.05825242718447"></rect></g><g class="bar" transform="translate(364.00000000000006,294.1990291262136)"><rect x="1" width="11.999999999999996" height="15.800970873786412"></rect></g><g class="bar" transform="translate(377.00000000000006,302.4757281553398)"><rect x="1" width="11.999999999999996" height="7.524271844660177"></rect></g><g class="bar" transform="translate(390,307.74271844660194)"><rect x="1" width="11.999999999999996" height="2.257281553398059"></rect></g><g class="bar" transform="translate(403,306.99029126213594)"><rect x="1" width="11.999999999999996" height="3.0097087378640595"></rect></g><g class="bar" transform="translate(416,309.247572815534)"><rect x="1" width="11.999999999999996" height="0.7524271844660007"></rect></g><g class="bar" transform="translate(429.00000000000006,310)"><rect x="1" width="11.999999999999996" height="0"></rect></g><g class="bar" transform="translate(442.00000000000006,310)"><rect x="1" width="11.999999999999996" height="0"></rect></g><g class="bar" transform="translate(455,310)"><rect x="1" width="11.999999999999996" height="0"></rect></g><g class="bar" transform="translate(468,310)"><rect x="1" width="11.999999999999996" height="0"></rect></g><g class="bar" transform="translate(481,310)"><rect x="1" width="11.999999999999996" height="0"></rect></g><g class="bar" transform="translate(494.00000000000006,310)"><rect x="1" width="11.999999999999996" height="0"></rect></g><g class="bar" transform="translate(507.00000000000006,310)"><rect x="1" width="11.999999999999996" height="0"></rect></g><g class="axis axis--x" transform="translate(0,310)" fill="none" font-size="10" font-family="sans-serif" text-anchor="middle"><path class="domain" stroke="#000" d="M0.5,6V0.5H520.5V6"></path><g class="tick" opacity="1" transform="translate(0,0)"><line stroke="#000" y2="6" x1="0.5" x2="0.5"></line><text fill="#000" y="9" x="0.5" dy="0.71em">0.01</text></g><g class="tick" opacity="1" transform="translate(130,0)"><line stroke="#000" y2="6" x1="0.5" x2="0.5"></line><text fill="#000" y="9" x="0.5" dy="0.71em">1</text></g><g class="tick" opacity="1" transform="translate(260,0)"><line stroke="#000" y2="6" x1="0.5" x2="0.5"></line><text fill="#000" y="9" x="0.5" dy="0.71em">100</text></g><g class="tick" opacity="1" transform="translate(390,0)"><line stroke="#000" y2="6" x1="0.5" x2="0.5"></line><text fill="#000" y="9" x="0.5" dy="0.71em">10000</text></g><g class="tick" opacity="1" transform="translate(520,0)"><line stroke="#000" y2="6" x1="0.5" x2="0.5"></line><text fill="#000" y="9" x="0.5" dy="0.71em"></text></g></g><g class="axis axis--y" fill="none" font-size="10" font-family="sans-serif" text-anchor="end"><path class="domain" stroke="#000" d="M-6,310.5H0.5V0.5H-6"></path><g class="tick" opacity="1" transform="translate(0,310)"><line stroke="#000" x2="-6" y1="0.5" y2="0.5"></line><text fill="#000" x="-9" y="0.5" dy="0.32em">0</text></g><g class="tick" opacity="1" transform="translate(0,272.37864077669906)"><line stroke="#000" x2="-6" y1="0.5" y2="0.5"></line><text fill="#000" x="-9" y="0.5" dy="0.32em">50</text></g><g class="tick" opacity="1" transform="translate(0,234.75728155339806)"><line stroke="#000" x2="-6" y1="0.5" y2="0.5"></line><text fill="#000" x="-9" y="0.5" dy="0.32em">100</text></g><g class="tick" opacity="1" transform="translate(0,197.1359223300971)"><line stroke="#000" x2="-6" y1="0.5" y2="0.5"></line><text fill="#000" x="-9" y="0.5" dy="0.32em">150</text></g><g class="tick" opacity="1" transform="translate(0,159.51456310679612)"><line stroke="#000" x2="-6" y1="0.5" y2="0.5"></line><text fill="#000" x="-9" y="0.5" dy="0.32em">200</text></g><g class="tick" opacity="1" transform="translate(0,121.89320388349515)"><line stroke="#000" x2="-6" y1="0.5" y2="0.5"></line><text fill="#000" x="-9" y="0.5" dy="0.32em">250</text></g><g class="tick" opacity="1" transform="translate(0,84.27184466019418)"><line stroke="#000" x2="-6" y1="0.5" y2="0.5"></line><text fill="#000" x="-9" y="0.5" dy="0.32em">300</text></g><g class="tick" opacity="1" transform="translate(0,46.650485436893234)"><line stroke="#000" x2="-6" y1="0.5" y2="0.5"></line><text fill="#000" x="-9" y="0.5" dy="0.32em">350</text></g><g class="tick" opacity="1" transform="translate(0,9.029126213592235)"><line stroke="#000" x2="-6" y1="0.5" y2="0.5"></line><text fill="#000" x="-9" y="0.5" dy="0.32em">400</text></g></g></g></svg>