<svg xmlns="http://www.w3.org/2000/svg" width="600" height="350"><defs><style type="text/css"><![CDATA[ 
.bar rect {
  fill-opacity: 0;
  stroke:       black;
  stroke-width: 0.5;
}

.highlight rect {
  fill:       red;
  fill-opacity: 1;
}
.axis path,
.axis line {
  fill: none;
  stroke: #000;
  shape-rendering: crispEdges;
}
 ]]></style></defs><g transform="translate(50,10)"><g class="bar" transform="translate(0,299.9676375404531)"><rect x="1" width="5.500000000000005" height="10.032362459546903"></rect></g><g class="bar" transform="translate(6.500000000000005,298.46278317152104)"><rect x="1" width="5.500000000000005" height="11.537216828478961"></rect></g><g class="bar" transform="translate(12.999999999999996,295.9546925566343)"><rect x="1" width="5.500000000000005" height="14.045307443365687"></rect></g><g class="bar" transform="translate(19.500000000000004,291.4401294498382)"><rect x="1" width="5.500000000000005" height="18.559870550161804"></rect></g><g class="bar" transform="translate(25.999999999999993,293.69741100323625)"><rect x="1" width="5.500000000000005" height="16.302588996763745"></rect></g><g class="bar" transform="translate(32.5,287.17637540453075)"><rect x="1" width="5.500000000000005" height="22.823624595469255"></rect></g><g class="bar" transform="translate(39.00000000000001,287.17637540453075)"><rect x="1" width="5.500000000000005" height="22.823624595469255"></rect></g><g class="bar" transform="translate(45.500000000000014,289.4336569579288)"><rect x="1" width="5.500000000000005" height="20.566343042071196"></rect></g><g class="bar" transform="translate(52,287.4271844660194)"><rect x="1" width="5.500000000000005" height="22.572815533980588"></rect></g><g class="bar" transform="translate(58.49999999999999,285.9223300970874)"><rect x="1" width="5.500000000000005" height="24.07766990291259"></rect></g><g class="bar" transform="translate(65,283.6650485436893)"><rect x="1" width="5.500000000000005" height="26.334951456310705"></rect></g><g class="bar" transform="translate(71.5,274.3851132686084)"><rect x="1" width="5.500000000000005" height="35.61488673139161"></rect></g><g class="bar" transform="translate(78.00000000000001,263.85113268608416)"><rect x="1" width="5.500000000000005" height="46.148867313915844"></rect></g><g class="bar" transform="translate(84.5,264.3527508090615)"><rect x="1" width="5.500000000000005" height="45.64724919093851"></rect></g><g class="bar" transform="translate(91.00000000000001,254.0695792880259)"><rect x="1" width="5.500000000000005" height="55.93042071197411"></rect></g><g class="bar" transform="translate(97.5,259.0857605177994)"><rect x="1" width="5.500000000000005" height="50.91423948220063"></rect></g><g class="bar" transform="translate(104,253.8187702265372)"><rect x="1" width="5.500000000000005" height="56.1812297734628"></rect></g><g class="bar" transform="translate(110.50000000000001,247.29773462783172)"><rect x="1" width="5.500000000000005" height="62.702265372168284"></rect></g><g class="bar" transform="translate(117,252.56472491909386)"><rect x="1" width="5.500000000000005" height="57.43527508090614"></rect></g><g class="bar" transform="translate(123.50000000000001,246.04368932038835)"><rect x="1" width="5.500000000000005" height="63.95631067961165"></rect></g><g class="bar" transform="translate(130,233.00161812297733)"><rect x="1" width="5.500000000000005" height="76.99838187702267"></rect></g><g class="bar" transform="translate(136.5,197.63754045307442)"><rect x="1" width="5.500000000000005" height="112.36245954692558"></rect></g><g class="bar" transform="translate(143,178.82686084142395)"><rect x="1" width="5.500000000000005" height="131.17313915857605"></rect></g><g class="bar" transform="translate(149.50000000000003,147.47572815533982)"><rect x="1" width="5.500000000000005" height="162.52427184466018"></rect></g><g class="bar" transform="translate(156.00000000000003,108.60032362459549)"><rect x="1" width="5.500000000000005" height="201.3996763754045"></rect></g><g class="bar" transform="translate(162.5,74.49029126213591)"><rect x="1" width="5.500000000000005" height="235.5097087378641"></rect></g><g class="bar" transform="translate(169,31.601941747572823)"><rect x="1" width="5.500000000000005" height="278.3980582524272"></rect></g><g class="bar" transform="translate(175.5,8.276699029126235)"><rect x="1" width="5.500000000000005" height="301.72330097087377"></rect></g><g class="bar" transform="translate(182.00000000000003,0)"><rect x="1" width="5.500000000000005" height="310"></rect></g><g class="bar" transform="translate(188.50000000000003,39.37702265372167)"><rect x="1" width="5.500000000000005" height="270.62297734627833"></rect></g><g class="bar" transform="translate(195,91.79611650485435)"><rect x="1" width="5.500000000000005" height="218.20388349514565"></rect></g><g class="bar" transform="translate(201.5,109.35275080906149)"><rect x="1" width="5.500000000000005" height="200.6472491909385"></rect></g><g class="bar" transform="translate(208,153.2443365695793)"><rect x="1" width="5.500000000000005" height="156.7556634304207"></rect></g><g class="bar" transform="translate(214.50000000000003,187.85598705501616)"><rect x="1" width="5.500000000000005" height="122.14401294498384"></rect></g><g class="bar" transform="translate(221.00000000000003,210.42880258899677)"><rect x="1" width="5.500000000000005" height="99.57119741100323"></rect></g><g class="bar" transform="translate(227.5,225.47734627831716)"><rect x="1" width="5.500000000000005" height="84.52265372168284"></rect></g><g class="bar" transform="translate(234,243.28478964401296)"><rect x="1" width="5.500000000000005" height="66.71521035598704"></rect></g><g class="bar" transform="translate(240.5,253.56796116504853)"><rect x="1" width="5.500000000000005" height="56.43203883495147"></rect></g><g class="bar" transform="translate(247.00000000000003,253.31715210355986)"><rect x="1" width="5.500000000000005" height="56.68284789644014"></rect></g><g class="bar" transform="translate(253.50000000000003,259.8381877022654)"><rect x="1" width="5.500000000000005" height="50.16181229773463"></rect></g><g class="bar" transform="translate(260,264.3527508090615)"><rect x="1" width="5.500000000000005" height="45.64724919093851"></rect></g><g class="bar" transform="translate(266.50000000000006,259.8381877022654)"><rect x="1" width="5.500000000000005" height="50.16181229773463"></rect></g><g class="bar" transform="translate(273,268.61650485436894)"><rect x="1" width="5.500000000000005" height="41.38349514563106"></rect></g><g class="bar" transform="translate(279.5,267.86407766990294)"><rect x="1" width="5.500000000000005" height="42.13592233009706"></rect></g><g class="bar" transform="translate(286,276.64239482200645)"><rect x="1" width="5.500000000000005" height="33.35760517799355"></rect></g><g class="bar" transform="translate(292.5,273.13106796116506)"><rect x="1" width="5.500000000000005" height="36.86893203883494"></rect></g><g class="bar" transform="translate(299.00000000000006,279.90291262135923)"><rect x="1" width="5.500000000000005" height="30.097087378640765"></rect></g><g class="bar" transform="translate(305.5,287.4271844660194)"><rect x="1" width="5.500000000000005" height="22.572815533980588"></rect></g><g class="bar" transform="translate(312.00000000000006,288.4304207119741)"><rect x="1" width="5.500000000000005" height="21.56957928802592"></rect></g><g class="bar" transform="translate(318.5,290.6877022653722)"><rect x="1" width="5.500000000000005" height="19.312297734627805"></rect></g><g class="bar" transform="translate(325,296.205501618123)"><rect x="1" width="5.500000000000005" height="13.79449838187702"></rect></g><g class="bar" transform="translate(331.50000000000006,297.4595469255663)"><rect x="1" width="5.500000000000005" height="12.540453074433685"></rect></g><g class="bar" transform="translate(338,301.4724919093851)"><rect x="1" width="5.500000000000005" height="8.527508090614901"></rect></g><g class="bar" transform="translate(344.50000000000006,302.97734627831716)"><rect x="1" width="5.500000000000005" height="7.022653721682843"></rect></g><g class="bar" transform="translate(351,308.49514563106794)"><rect x="1" width="5.500000000000005" height="1.5048543689320582"></rect></g><g class="bar" transform="translate(357.5,306.7394822006473)"><rect x="1" width="5.500000000000005" height="3.2605177993527263"></rect></g><g class="bar" transform="translate(364.00000000000006,307.9935275080906)"><rect x="1" width="5.500000000000005" height="2.006472491909392"></rect></g><g class="bar" transform="translate(370.5,309.247572815534)"><rect x="1" width="5.500000000000005" height="0.7524271844660007"></rect></g><g class="bar" transform="translate(377.00000000000006,309.74919093851133)"><rect x="1" width="5.500000000000005" height="0.2508090614886669"></rect></g><g class="bar" transform="translate(383.5,309.74919093851133)"><rect x="1" width="5.500000000000005" height="0.2508090614886669"></rect></g><g class="bar" transform="translate(390,309.74919093851133)"><rect x="1" width="5.500000000000005" height="0.2508090614886669"></rect></g><g class="bar" transform="translate(396.50000000000006,310)"><rect x="1" width="5.500000000000005" height="0"></rect></g><g class="bar" transform="translate(403,310)"><rect x="1" width="5.500000000000005" height="0"></rect></g><g class="bar" transform="translate(409.50000000000006,310)"><rect x="1" width="5.500000000000005" height="0"></rect></g><g class="bar" transform="translate(416,310)"><rect x="1" width="5.500000000000005" height="0"></rect></g><g class="bar" transform="translate(422.5,310)"><rect x="1" width="5.500000000000005" height="0"></rect></g><g class="bar" transform="translate(429.00000000000006,310)"><rect x="1" width="5.500000000000005" height="0"></rect></g><g class="bar" transform="translate(435.5,310)"><rect x="1" width="5.500000000000005" height="0"></rect></g><g class="bar" transform="translate(442.00000000000006,310)"><rect x="1" width="5.500000000000005" height="0"></rect></g><g class="bar" transform="translate(448.5,310)"><rect x="1" width="5.500000000000005" height="0"></rect></g><g class="bar" transform="translate(455,310)"><rect x="1" width="5.500000000000005" height="0"></rect></g><g class="bar" transform="translate(461.50000000000006,310)"><rect x="1" width="5.500000000000005" height="0"></rect></g><g class="bar" transform="translate(468,310)"><rect x="1" width="5.500000000000005" height="0"></rect></g><g class="bar" transform="translate(474.50000000000006,310)"><rect x="1" width="5.500000000000005" height="0"></rect></g><g class="bar" transform="translate(481,310)"><rect x="1" width="5.500000000000005" height="0"></rect></g><g class="bar" transform="translate(487.5,310)"><rect x="1" width="5.500000000000005" height="0"></rect></g><g class="bar" transform="translate(494.00000000000006,310)"><rect x="1" width="5.500000000000005" height="0"></rect></g><g class="bar" transform="translate(500.5,310)"><rect x="1" width="5.500000000000005" height="0"></rect></g><g class="bar" transform="translate(507.00000000000006,310)"><rect x="1" width="5.500000000000005" height="0"></rect></g><g class="bar" transform="translate(513.5,310)"><rect x="1" width="5.500000000000005" height="0"></rect></g><g class="axis axis--x" transform="translate(0,310)" fill="none" font-size="10" font-family="sans-serif" text-anchor="middle"><path class="domain" stroke="#000" d="M0.5,6V0.5H520.5V6"></path><g class="tick" opacity="1" transform="translate(0,0)"><line stroke="#000" y2="6" x1="0.5" x2="0.5"></line><text fill="#000" y="9" x="0.5" dy="0.71em">0.01</text></g><g class="tick" opacity="1" transform="translate(130,0)"><line stroke="#000" y2="6" x1="0.5" x2="0.5"></line><text fill="#000" y="9" x="0.5" dy="0.71em">1</text></g><g class="tick" opacity="1" transform="translate(260,0)"><line stroke="#000" y2="6" x1="0.5" x2="0.5"></line><text fill="#000" y="9" x="0.5" dy="0.71em">100</text></g><g class="tick" opacity="1" transform="translate(390,0)"><line stroke="#000" y2="6" x1="0.5" x2="0.5"></line><text fill="#000" y="9" x="0.5" dy="0.71em">10000</text></g><g class="tick" opacity="1" transform="translate(520,0)"><line stroke="#000" y2="6" x1="0.5" x2="0.5"></line><text fill="#000" y="9" x="0.5" dy="0.71em"></text></g></g><g class="axis axis--y" fill="none" font-size="10" font-family="sans-serif" text-anchor="end"><path class="domain" stroke="#000" d="M-6,310.5H0.5V0.5H-6"></path><g class="tick" opacity="1" transform="translate(0,310)"><line stroke="#000" x2="-6" y1="0.5" y2="0.5"></line><text fill="#000" x="-9" y="0.5" dy="0.32em">0</text></g><g class="tick" opacity="1" transform="translate(0,284.9190938511327)"><line stroke="#000" x2="-6" y1="0.5" y2="0.5"></line><text fill="#000" x="-9" y="0.5" dy="0.32em">100</text></g><g class="tick" opacity="1" transform="translate(0,259.8381877022654)"><line stroke="#000" x2="-6" y1="0.5" y2="0.5"></line><text fill="#000" x="-9" y="0.5" dy="0.32em">200</text></g><g class="tick" opacity="1" transform="translate(0,234.75728155339806)"><line stroke="#000" x2="-6" y1="0.5" y2="0.5"></line><text fill="#000" x="-9" y="0.5" dy="0.32em">300</text></g><g class="tick" opacity="1" transform="translate(0,209.67637540453075)"><line stroke="#000" x2="-6" y1="0.5" y2="0.5"></line><text fill="#000" x="-9" y="0.5" dy="0.32em">400</text></g><g class="tick" opacity="1" transform="translate(0,184.59546925566343)"><line stroke="#000" x2="-6" y1="0.5" y2="0.5"></line><text fill="#000" x="-9" y="0.5" dy="0.32em">500</text></g><g class="tick" opacity="1" transform="translate(0,159.51456310679612)"><line stroke="#000" x2="-6" y1="0.5" y2="0.5"></line><text fill="#000" x="-9" y="0.5" dy="0.32em">600</text></g><g class="tick" opacity="1" transform="translate(0,134.43365695792878)"><line stroke="#000" x2="-6" y1="0.5" y2="0.5"></line><text fill="#000" x="-9" y="0.5" dy="0.32em">700</text></g><g class="tick" opacity="1" transform="translate(0,109.35275080906149)"><line stroke="#000" x2="-6" y1="0.5" y2="0.5"></line><text fill="#000" x="-9" y="0.5" dy="0.32em">800</text></g><g class="tick" opacity="1" transform="translate(0,84.27184466019418)"><line stroke="#000" x2="-6" y1="0.5" y2="0.5"></line><text fill="#000" x="-9" y="0.5" dy="0.32em">900</text></g><g class="tick" opacity="1" transform="translate(0,59.190938511326834)"><line stroke="#000" x2="-6" y1="0.5" y2="0.5"></line><text fill="#000" x="-9" y="0.5" dy="0.32em">1,000</text></g><g class="tick" opacity="1" transform="translate(0,34.11003236245955)"><line stroke="#000" x2="-6" y1="0.5" y2="0.5"></line><text fill="#000" x="-9" y="0.5" dy="0.32em">1,100</text></g><g class="tick" opacity="1" transform="translate(0,9.029126213592235)"><line stroke="#000" x2="-6" y1="0.5" y2="0.5"></line><text fill="#000" x="-9" y="0.5" dy="0.32em">1,200</text></g></g></g></svg>