<svg xmlns="http://www.w3.org/2000/svg" width="600" height="350"><defs><style type="text/css"><![CDATA[ 
.bar rect {
  fill-opacity: 0;
  stroke:       black;
  stroke-width: 0.5;
}

.highlight rect {
  fill:       red;
  fill-opacity: 1;
}
.axis path,
.axis line {
  fill: none;
  stroke: #000;
  shape-rendering: crispEdges;
}
path {
    stroke: red;
    fill: none;
}

line {
    stroke: red;
}

path.marker {
    fill: red;
}
 ]]></style></defs><g transform="translate(50,10)"><g class="bar" transform="translate(0,310)"><rect x="1" width="11.999999999999996" height="0"></rect></g><g class="bar" transform="translate(12.999999999999996,310)"><rect x="1" width="11.999999999999996" height="0"></rect></g><g class="bar" transform="translate(25.999999999999993,310)"><rect x="1" width="11.999999999999996" height="0"></rect></g><g class="bar" transform="translate(39.00000000000001,310)"><rect x="1" width="11.999999999999996" height="0"></rect></g><g class="bar" transform="translate(52,310)"><rect x="1" width="11.999999999999996" height="0"></rect></g><g class="bar" transform="translate(65,310)"><rect x="1" width="11.999999999999996" height="0"></rect></g><g class="bar" transform="translate(78.00000000000001,310)"><rect x="1" width="11.999999999999996" height="0"></rect></g><g class="bar" transform="translate(91.00000000000001,308.187134502924)"><rect x="1" width="11.999999999999996" height="1.812865497076018"></rect></g><g class="bar" transform="translate(104,298.51851851851853)"><rect x="1" width="11.999999999999996" height="11.481481481481467"></rect></g><g class="bar" transform="translate(117,297.9142300194932)"><rect x="1" width="11.999999999999996" height="12.085769980506825"></rect></g><g class="bar" transform="translate(130,274.3469785575049)"><rect x="1" width="11.999999999999996" height="35.65302144249512"></rect></g><g class="bar" transform="translate(143,259.8440545808967)"><rect x="1" width="11.999999999999996" height="50.15594541910332"></rect></g><g class="bar" transform="translate(156.00000000000003,228.42105263157896)"><rect x="1" width="11.999999999999996" height="81.57894736842104"></rect></g><g class="bar" transform="translate(169,190.35087719298247)"><rect x="1" width="11.999999999999996" height="119.64912280701753"></rect></g><g class="bar" transform="translate(182.00000000000003,142.6120857699805)"><rect x="1" width="11.999999999999996" height="167.3879142300195"></rect></g><g class="bar" transform="translate(195,90.64327485380116)"><rect x="1" width="11.999999999999996" height="219.35672514619884"></rect></g><g class="bar" transform="translate(208,58.61598440545811)"><rect x="1" width="11.999999999999996" height="251.3840155945419"></rect></g><g class="bar" transform="translate(221.00000000000003,36.86159844054583)"><rect x="1" width="11.999999999999996" height="273.13840155945417"></rect></g><g class="bar" transform="translate(234,0)"><rect x="1" width="11.999999999999996" height="310"></rect></g><g class="bar" transform="translate(247.00000000000003,10.877192982456165)"><rect x="1" width="11.999999999999996" height="299.12280701754383"></rect></g><g class="bar" transform="translate(260,51.364522417154035)"><rect x="1" width="11.999999999999996" height="258.63547758284597"></rect></g><g class="bar" transform="translate(273,82.1832358674464)"><rect x="1" width="11.999999999999996" height="227.8167641325536"></rect></g><g class="bar" transform="translate(286,137.17348927875244)"><rect x="1" width="11.999999999999996" height="172.82651072124756"></rect></g><g class="bar" transform="translate(299.00000000000006,213.91812865497076)"><rect x="1" width="11.999999999999996" height="96.08187134502924"></rect></g><g class="bar" transform="translate(312.00000000000006,241.71539961013644)"><rect x="1" width="11.999999999999996" height="68.28460038986356"></rect></g><g class="bar" transform="translate(325,275.55555555555554)"><rect x="1" width="11.999999999999996" height="34.44444444444446"></rect></g><g class="bar" transform="translate(338,280.9941520467836)"><rect x="1" width="11.999999999999996" height="29.005847953216403"></rect></g><g class="bar" transform="translate(351,294.8927875243665)"><rect x="1" width="11.999999999999996" height="15.107212475633503"></rect></g><g class="bar" transform="translate(364.00000000000006,306.37426900584796)"><rect x="1" width="11.999999999999996" height="3.625730994152036"></rect></g><g class="bar" transform="translate(377.00000000000006,304.56140350877195)"><rect x="1" width="11.999999999999996" height="5.438596491228054"></rect></g><g class="bar" transform="translate(390,306.9785575048733)"><rect x="1" width="11.999999999999996" height="3.021442495126678"></rect></g><g class="bar" transform="translate(403,308.79142300194934)"><rect x="1" width="11.999999999999996" height="1.2085769980506598"></rect></g><g class="bar" transform="translate(416,310)"><rect x="1" width="11.999999999999996" height="0"></rect></g><g class="bar" transform="translate(429.00000000000006,310)"><rect x="1" width="11.999999999999996" height="0"></rect></g><g class="bar" transform="translate(442.00000000000006,309.39571150097464)"><rect x="1" width="11.999999999999996" height="0.6042884990253583"></rect></g><g class="bar" transform="translate(455,310)"><rect x="1" width="11.999999999999996" height="0"></rect></g><g class="bar" transform="translate(468,310)"><rect x="1" width="11.999999999999996" height="0"></rect></g><g class="bar" transform="translate(481,310)"><rect x="1" width="11.999999999999996" height="0"></rect></g><g class="bar" transform="translate(494.00000000000006,310)"><rect x="1" width="11.999999999999996" height="0"></rect></g><g class="bar" transform="translate(507.00000000000006,310)"><rect x="1" width="11.999999999999996" height="0"></rect></g><g class="axis axis--x" transform="translate(0,310)" fill="none" font-size="10" font-family="sans-serif" text-anchor="middle"><path class="domain" stroke="#000" d="M0.5,6V0.5H520.5V6"></path><g class="tick" opacity="1" transform="translate(0.5,0)"><line stroke="#000" y2="6"></line><text fill="#000" y="9" dy="0.71em">0.01</text></g><g class="tick" opacity="1" transform="translate(130.5,0)"><line stroke="#000" y2="6"></line><text fill="#000" y="9" dy="0.71em">1</text></g><g class="tick" opacity="1" transform="translate(260.5,0)"><line stroke="#000" y2="6"></line><text fill="#000" y="9" dy="0.71em">100</text></g><g class="tick" opacity="1" transform="translate(390.5,0)"><line stroke="#000" y2="6"></line><text fill="#000" y="9" dy="0.71em">10000</text></g><g class="tick" opacity="1" transform="translate(520.5,0)"><line stroke="#000" y2="6"></line><text fill="#000" y="9" dy="0.71em"></text></g></g><g class="axis axis--y" fill="none" font-size="10" font-family="sans-serif" text-anchor="end"><path class="domain" stroke="#000" d="M-6,310.5H0.5V0.5H-6"></path><g class="tick" opacity="1" transform="translate(0,310.5)"><line stroke="#000" x2="-6"></line><text fill="#000" x="-9" dy="0.32em">0</text></g><g class="tick" opacity="1" transform="translate(0,280.28557504873294)"><line stroke="#000" x2="-6"></line><text fill="#000" x="-9" dy="0.32em">50</text></g><g class="tick" opacity="1" transform="translate(0,250.07115009746587)"><line stroke="#000" x2="-6"></line><text fill="#000" x="-9" dy="0.32em">100</text></g><g class="tick" opacity="1" transform="translate(0,219.85672514619884)"><line stroke="#000" x2="-6"></line><text fill="#000" x="-9" dy="0.32em">150</text></g><g class="tick" opacity="1" transform="translate(0,189.64230019493178)"><line stroke="#000" x2="-6"></line><text fill="#000" x="-9" dy="0.32em">200</text></g><g class="tick" opacity="1" transform="translate(0,159.42787524366472)"><line stroke="#000" x2="-6"></line><text fill="#000" x="-9" dy="0.32em">250</text></g><g class="tick" opacity="1" transform="translate(0,129.21345029239768)"><line stroke="#000" x2="-6"></line><text fill="#000" x="-9" dy="0.32em">300</text></g><g class="tick" opacity="1" transform="translate(0,98.99902534113062)"><line stroke="#000" x2="-6"></line><text fill="#000" x="-9" dy="0.32em">350</text></g><g class="tick" opacity="1" transform="translate(0,68.78460038986356)"><line stroke="#000" x2="-6"></line><text fill="#000" x="-9" dy="0.32em">400</text></g><g class="tick" opacity="1" transform="translate(0,38.57017543859649)"><line stroke="#000" x2="-6"></line><text fill="#000" x="-9" dy="0.32em">450</text></g><g class="tick" opacity="1" transform="translate(0,8.35575048732943)"><line stroke="#000" x2="-6"></line><text fill="#000" x="-9" dy="0.32em">500</text></g></g></g></svg>