<svg xmlns="http://www.w3.org/2000/svg" width="280" height="160"><defs><style type="text/css"><![CDATA[ 
.bar rect {
  fill-opacity: 0;
  stroke:       black;
  stroke-width: 0.5;
}

.highlight rect {
  fill:       red;
  fill-opacity: 1;
}
.axis path,
.axis line {
  fill: none;
  stroke: #000;
  shape-rendering: crispEdges;
}
 ]]></style></defs><g transform="translate(50,10)"><g class="bar" transform="translate(0,120)"><rect x="1" width="11.5" height="0"></rect></g><g class="bar" transform="translate(12.5,118.7012987012987)"><rect x="1" width="11.5" height="1.2987012987013031"></rect></g><g class="bar" transform="translate(25,110.12987012987013)"><rect x="1" width="11.5" height="9.870129870129873"></rect></g><g class="bar" transform="translate(37.5,97.92207792207793)"><rect x="1" width="11.5" height="22.077922077922068"></rect></g><g class="bar" transform="translate(50,65.71428571428572)"><rect x="1" width="11.5" height="54.28571428571428"></rect></g><g class="bar" transform="translate(62.5,30.64935064935065)"><rect x="1" width="11.5" height="89.35064935064935"></rect></g><g class="bar" transform="translate(75,7.79220779220779)"><rect x="1" width="11.5" height="112.20779220779221"></rect></g><g class="bar" transform="translate(87.5,8.051948051948045)"><rect x="1" width="11.5" height="111.94805194805195"></rect></g><g class="bar" transform="translate(100,0)"><rect x="1" width="11.5" height="120"></rect></g><g class="bar" transform="translate(112.5,20.519480519480524)"><rect x="1" width="11.5" height="99.48051948051948"></rect></g><g class="bar" transform="translate(125,63.896103896103895)"><rect x="1" width="11.5" height="56.103896103896105"></rect></g><g class="bar" transform="translate(137.5,105.1948051948052)"><rect x="1" width="11.5" height="14.805194805194802"></rect></g><g class="bar" transform="translate(150,119.22077922077922)"><rect x="1" width="11.5" height="0.779220779220779"></rect></g><g class="bar" transform="translate(162.5,120)"><rect x="1" width="11.5" height="0"></rect></g><g class="bar" transform="translate(175,120)"><rect x="1" width="11.5" height="0"></rect></g><g class="bar" transform="translate(187.5,120)"><rect x="1" width="11.5" height="0"></rect></g></g></svg>