<svg xmlns="http://www.w3.org/2000/svg" width="600" height="350"><defs><style type="text/css"><![CDATA[ 
.bar rect {
  fill-opacity: 0;
  stroke:       black;
  stroke-width: 0.5;
}

.highlight rect {
  fill:       red;
  fill-opacity: 1;
}
.axis path,
.axis line {
  fill: none;
  stroke: #000;
  shape-rendering: crispEdges;
}
 ]]></style></defs><g transform="translate(50,10)"><g class="bar" transform="translate(0,310)"><rect x="1" width="11.999999999999996" height="0"></rect></g><g class="bar" transform="translate(12.999999999999996,310)"><rect x="1" width="11.999999999999996" height="0"></rect></g><g class="bar" transform="translate(25.999999999999993,310)"><rect x="1" width="11.999999999999996" height="0"></rect></g><g class="bar" transform="translate(39.00000000000001,308.51674641148327)"><rect x="1" width="11.999999999999996" height="1.4832535885167317"></rect></g><g class="bar" transform="translate(52,304.066985645933)"><rect x="1" width="11.999999999999996" height="5.933014354066984"></rect></g><g class="bar" transform="translate(65,289.23444976076553)"><rect x="1" width="11.999999999999996" height="20.76555023923447"></rect></g><g class="bar" transform="translate(78.00000000000001,292.20095693779905)"><rect x="1" width="11.999999999999996" height="17.79904306220095"></rect></g><g class="bar" transform="translate(91.00000000000001,265.5023923444976)"><rect x="1" width="11.999999999999996" height="44.49760765550241"></rect></g><g class="bar" transform="translate(104,262.53588516746413)"><rect x="1" width="11.999999999999996" height="47.46411483253587"></rect></g><g class="bar" transform="translate(117,258.0861244019139)"><rect x="1" width="11.999999999999996" height="51.91387559808612"></rect></g><g class="bar" transform="translate(130,223.9712918660287)"><rect x="1" width="11.999999999999996" height="86.02870813397129"></rect></g><g class="bar" transform="translate(143,166.1244019138756)"><rect x="1" width="11.999999999999996" height="143.8755980861244"></rect></g><g class="bar" transform="translate(156.00000000000003,145.35885167464116)"><rect x="1" width="11.999999999999996" height="164.64114832535884"></rect></g><g class="bar" transform="translate(169,108.2775119617225)"><rect x="1" width="11.999999999999996" height="201.7224880382775"></rect></g><g class="bar" transform="translate(182.00000000000003,86.02870813397129)"><rect x="1" width="11.999999999999996" height="223.9712918660287"></rect></g><g class="bar" transform="translate(195,87.51196172248805)"><rect x="1" width="11.999999999999996" height="222.48803827751195"></rect></g><g class="bar" transform="translate(208,13.3492822966507)"><rect x="1" width="11.999999999999996" height="296.6507177033493"></rect></g><g class="bar" transform="translate(221.00000000000003,41.531100478468886)"><rect x="1" width="11.999999999999996" height="268.4688995215311"></rect></g><g class="bar" transform="translate(234,68.22966507177034)"><rect x="1" width="11.999999999999996" height="241.77033492822966"></rect></g><g class="bar" transform="translate(247.00000000000003,59.330143540669866)"><rect x="1" width="11.999999999999996" height="250.66985645933013"></rect></g><g class="bar" transform="translate(260,0)"><rect x="1" width="11.999999999999996" height="310"></rect></g><g class="bar" transform="translate(273,56.363636363636346)"><rect x="1" width="11.999999999999996" height="253.63636363636365"></rect></g><g class="bar" transform="translate(286,77.12918660287079)"><rect x="1" width="11.999999999999996" height="232.8708133971292"></rect></g><g class="bar" transform="translate(299.00000000000006,87.51196172248805)"><rect x="1" width="11.999999999999996" height="222.48803827751195"></rect></g><g class="bar" transform="translate(312.00000000000006,75.64593301435409)"><rect x="1" width="11.999999999999996" height="234.35406698564591"></rect></g><g class="bar" transform="translate(325,130.52631578947367)"><rect x="1" width="11.999999999999996" height="179.47368421052633"></rect></g><g class="bar" transform="translate(338,191.33971291866027)"><rect x="1" width="11.999999999999996" height="118.66028708133973"></rect></g><g class="bar" transform="translate(351,244.73684210526318)"><rect x="1" width="11.999999999999996" height="65.26315789473682"></rect></g><g class="bar" transform="translate(364.00000000000006,275.88516746411483)"><rect x="1" width="11.999999999999996" height="34.11483253588517"></rect></g><g class="bar" transform="translate(377.00000000000006,302.5837320574163)"><rect x="1" width="11.999999999999996" height="7.4162679425837155"></rect></g><g class="bar" transform="translate(390,305.55023923444975)"><rect x="1" width="11.999999999999996" height="4.449760765550252"></rect></g><g class="bar" transform="translate(403,310)"><rect x="1" width="11.999999999999996" height="0"></rect></g><g class="bar" transform="translate(416,310)"><rect x="1" width="11.999999999999996" height="0"></rect></g><g class="bar" transform="translate(429.00000000000006,310)"><rect x="1" width="11.999999999999996" height="0"></rect></g><g class="bar" transform="translate(442.00000000000006,310)"><rect x="1" width="11.999999999999996" height="0"></rect></g><g class="bar" transform="translate(455,310)"><rect x="1" width="11.999999999999996" height="0"></rect></g><g class="bar" transform="translate(468,310)"><rect x="1" width="11.999999999999996" height="0"></rect></g><g class="bar" transform="translate(481,310)"><rect x="1" width="11.999999999999996" height="0"></rect></g><g class="bar" transform="translate(494.00000000000006,310)"><rect x="1" width="11.999999999999996" height="0"></rect></g><g class="bar" transform="translate(507.00000000000006,310)"><rect x="1" width="11.999999999999996" height="0"></rect></g><g class="axis axis--x" transform="translate(0,310)" fill="none" font-size="10" font-family="sans-serif" text-anchor="middle"><path class="domain" stroke="#000" d="M0.5,6V0.5H520.5V6"></path><g class="tick" opacity="1" transform="translate(0,0)"><line stroke="#000" y2="6" x1="0.5" x2="0.5"></line><text fill="#000" y="9" x="0.5" dy="0.71em">0.01</text></g><g class="tick" opacity="1" transform="translate(130,0)"><line stroke="#000" y2="6" x1="0.5" x2="0.5"></line><text fill="#000" y="9" x="0.5" dy="0.71em">1</text></g><g class="tick" opacity="1" transform="translate(260,0)"><line stroke="#000" y2="6" x1="0.5" x2="0.5"></line><text fill="#000" y="9" x="0.5" dy="0.71em">100</text></g><g class="tick" opacity="1" transform="translate(390,0)"><line stroke="#000" y2="6" x1="0.5" x2="0.5"></line><text fill="#000" y="9" x="0.5" dy="0.71em">10000</text></g><g class="tick" opacity="1" transform="translate(520,0)"><line stroke="#000" y2="6" x1="0.5" x2="0.5"></line><text fill="#000" y="9" x="0.5" dy="0.71em"></text></g></g><g class="axis axis--y" fill="none" font-size="10" font-family="sans-serif" text-anchor="end"><path class="domain" stroke="#000" d="M-6,310.5H0.5V0.5H-6"></path><g class="tick" opacity="1" transform="translate(0,310)"><line stroke="#000" x2="-6" y1="0.5" y2="0.5"></line><text fill="#000" x="-9" y="0.5" dy="0.32em">0</text></g><g class="tick" opacity="1" transform="translate(0,280.3349282296651)"><line stroke="#000" x2="-6" y1="0.5" y2="0.5"></line><text fill="#000" x="-9" y="0.5" dy="0.32em">20</text></g><g class="tick" opacity="1" transform="translate(0,250.66985645933013)"><line stroke="#000" x2="-6" y1="0.5" y2="0.5"></line><text fill="#000" x="-9" y="0.5" dy="0.32em">40</text></g><g class="tick" opacity="1" transform="translate(0,221.00478468899522)"><line stroke="#000" x2="-6" y1="0.5" y2="0.5"></line><text fill="#000" x="-9" y="0.5" dy="0.32em">60</text></g><g class="tick" opacity="1" transform="translate(0,191.33971291866027)"><line stroke="#000" x2="-6" y1="0.5" y2="0.5"></line><text fill="#000" x="-9" y="0.5" dy="0.32em">80</text></g><g class="tick" opacity="1" transform="translate(0,161.67464114832535)"><line stroke="#000" x2="-6" y1="0.5" y2="0.5"></line><text fill="#000" x="-9" y="0.5" dy="0.32em">100</text></g><g class="tick" opacity="1" transform="translate(0,132.00956937799043)"><line stroke="#000" x2="-6" y1="0.5" y2="0.5"></line><text fill="#000" x="-9" y="0.5" dy="0.32em">120</text></g><g class="tick" opacity="1" transform="translate(0,102.34449760765548)"><line stroke="#000" x2="-6" y1="0.5" y2="0.5"></line><text fill="#000" x="-9" y="0.5" dy="0.32em">140</text></g><g class="tick" opacity="1" transform="translate(0,72.67942583732057)"><line stroke="#000" x2="-6" y1="0.5" y2="0.5"></line><text fill="#000" x="-9" y="0.5" dy="0.32em">160</text></g><g class="tick" opacity="1" transform="translate(0,43.01435406698562)"><line stroke="#000" x2="-6" y1="0.5" y2="0.5"></line><text fill="#000" x="-9" y="0.5" dy="0.32em">180</text></g><g class="tick" opacity="1" transform="translate(0,13.3492822966507)"><line stroke="#000" x2="-6" y1="0.5" y2="0.5"></line><text fill="#000" x="-9" y="0.5" dy="0.32em">200</text></g></g></g></svg>