<svg xmlns="http://www.w3.org/2000/svg" width="280" height="160"><defs><style type="text/css"><![CDATA[ 
.bar rect {
  fill-opacity: 0;
  stroke:       black;
  stroke-width: 0.5;
}

.highlight rect {
  fill:       red;
  fill-opacity: 1;
}
.axis path,
.axis line {
  fill: none;
  stroke: #000;
  shape-rendering: crispEdges;
}
path {
    stroke: red;
    fill: none;
}

line {
    stroke: red;
}

path.marker {
    fill: red;
}
 ]]></style></defs><g transform="translate(50,10)"><g class="bar" transform="translate(0,103.13142857142857)"><rect x="1" width="11.5" height="16.86857142857143"></rect></g><g class="bar" transform="translate(12.5,75.15428571428572)"><rect x="1" width="11.5" height="44.84571428571428"></rect></g><g class="bar" transform="translate(25,50.19428571428571)"><rect x="1" width="11.5" height="69.80571428571429"></rect></g><g class="bar" transform="translate(37.5,22.902857142857144)"><rect x="1" width="11.5" height="97.09714285714286"></rect></g><g class="bar" transform="translate(50,3.5657142857142787)"><rect x="1" width="11.5" height="116.43428571428572"></rect></g><g class="bar" transform="translate(62.5,0)"><rect x="1" width="11.5" height="120"></rect></g><g class="bar" transform="translate(75,20.022857142857134)"><rect x="1" width="11.5" height="99.97714285714287"></rect></g><g class="bar" transform="translate(87.5,24.822857142857146)"><rect x="1" width="11.5" height="95.17714285714285"></rect></g><g class="bar" transform="translate(100,36.480000000000004)"><rect x="1" width="11.5" height="83.52"></rect></g><g class="bar" transform="translate(112.5,63.77142857142857)"><rect x="1" width="11.5" height="56.22857142857143"></rect></g><g class="bar" transform="translate(125,98.88)"><rect x="1" width="11.5" height="21.120000000000005"></rect></g><g class="bar" transform="translate(137.5,113.82857142857142)"><rect x="1" width="11.5" height="6.171428571428578"></rect></g><g class="bar" transform="translate(150,119.17714285714285)"><rect x="1" width="11.5" height="0.8228571428571456"></rect></g><g class="bar" transform="translate(162.5,120)"><rect x="1" width="11.5" height="0"></rect></g><g class="bar" transform="translate(175,120)"><rect x="1" width="11.5" height="0"></rect></g><g class="bar" transform="translate(187.5,120)"><rect x="1" width="11.5" height="0"></rect></g></g></svg>