<svg xmlns="http://www.w3.org/2000/svg" width="280" height="160"><defs><style type="text/css"><![CDATA[ 
.bar rect {
  fill-opacity: 0;
  stroke:       black;
  stroke-width: 0.5;
}

.highlight rect {
  fill:       red;
  fill-opacity: 1;
}
.axis path,
.axis line {
  fill: none;
  stroke: #000;
  shape-rendering: crispEdges;
}
path {
    stroke: red;
    fill: none;
}

line {
    stroke: red;
}

path.marker {
    fill: red;
}
 ]]></style></defs><g transform="translate(50,10)"><g class="bar" transform="translate(0,120)"><rect x="1" width="11.5" height="0"></rect></g><g class="bar" transform="translate(12.5,119.23664122137404)"><rect x="1" width="11.5" height="0.7633587786259568"></rect></g><g class="bar" transform="translate(25,118.47328244274809)"><rect x="1" width="11.5" height="1.5267175572519136"></rect></g><g class="bar" transform="translate(37.5,110.07633587786259)"><rect x="1" width="11.5" height="9.92366412213741"></rect></g><g class="bar" transform="translate(50,96.18320610687023)"><rect x="1" width="11.5" height="23.81679389312977"></rect></g><g class="bar" transform="translate(62.5,71.90839694656489)"><rect x="1" width="11.5" height="48.09160305343511"></rect></g><g class="bar" transform="translate(75,36.335877862595424)"><rect x="1" width="11.5" height="83.66412213740458"></rect></g><g class="bar" transform="translate(87.5,0)"><rect x="1" width="11.5" height="120"></rect></g><g class="bar" transform="translate(100,10.534351145038158)"><rect x="1" width="11.5" height="109.46564885496184"></rect></g><g class="bar" transform="translate(112.5,57.86259541984733)"><rect x="1" width="11.5" height="62.13740458015267"></rect></g><g class="bar" transform="translate(125,91.45038167938931)"><rect x="1" width="11.5" height="28.54961832061069"></rect></g><g class="bar" transform="translate(137.5,115.41984732824427)"><rect x="1" width="11.5" height="4.580152671755727"></rect></g><g class="bar" transform="translate(150,119.69465648854961)"><rect x="1" width="11.5" height="0.3053435114503884"></rect></g><g class="bar" transform="translate(162.5,119.69465648854961)"><rect x="1" width="11.5" height="0.3053435114503884"></rect></g><g class="bar" transform="translate(175,120)"><rect x="1" width="11.5" height="0"></rect></g><g class="bar" transform="translate(187.5,120)"><rect x="1" width="11.5" height="0"></rect></g></g></svg>