<svg xmlns="http://www.w3.org/2000/svg" width="600" height="350"><defs><style type="text/css"><![CDATA[ 
.bar rect {
  fill-opacity: 0;
  stroke:       black;
  stroke-width: 0.5;
}

.highlight rect {
  fill:       red;
  fill-opacity: 1;
}
.axis path,
.axis line {
  fill: none;
  stroke: #000;
  shape-rendering: crispEdges;
}
path {
    stroke: red;
    fill: none;
}

line {
    stroke: red;
}

path.marker {
    fill: red;
}
 ]]></style></defs><g transform="translate(50,10)"><g class="bar" transform="translate(0,306.6120218579235)"><rect x="1" width="11.999999999999996" height="3.38797814207652"></rect></g><g class="bar" transform="translate(12.999999999999996,295.3187613843352)"><rect x="1" width="11.999999999999996" height="14.681238615664824"></rect></g><g class="bar" transform="translate(25.999999999999993,295.88342440801455)"><rect x="1" width="11.999999999999996" height="14.116575591985452"></rect></g><g class="bar" transform="translate(39.00000000000001,286.8488160291439)"><rect x="1" width="11.999999999999996" height="23.151183970856096"></rect></g><g class="bar" transform="translate(52,274.9908925318761)"><rect x="1" width="11.999999999999996" height="35.00910746812389"></rect></g><g class="bar" transform="translate(65,259.74499089253186)"><rect x="1" width="11.999999999999996" height="50.25500910746814"></rect></g><g class="bar" transform="translate(78.00000000000001,238.28779599271402)"><rect x="1" width="11.999999999999996" height="71.71220400728598"></rect></g><g class="bar" transform="translate(91.00000000000001,190.29143897996357)"><rect x="1" width="11.999999999999996" height="119.70856102003643"></rect></g><g class="bar" transform="translate(104,125.35519125683061)"><rect x="1" width="11.999999999999996" height="184.6448087431694"></rect></g><g class="bar" transform="translate(117,68.88888888888889)"><rect x="1" width="11.999999999999996" height="241.11111111111111"></rect></g><g class="bar" transform="translate(130,49.69034608378871)"><rect x="1" width="11.999999999999996" height="260.3096539162113"></rect></g><g class="bar" transform="translate(143,60.983606557377044)"><rect x="1" width="11.999999999999996" height="249.01639344262296"></rect></g><g class="bar" transform="translate(156.00000000000003,6.77595628415304)"><rect x="1" width="11.999999999999996" height="303.22404371584696"></rect></g><g class="bar" transform="translate(169,18.633879781420774)"><rect x="1" width="11.999999999999996" height="291.3661202185792"></rect></g><g class="bar" transform="translate(182.00000000000003,0)"><rect x="1" width="11.999999999999996" height="310"></rect></g><g class="bar" transform="translate(195,10.163934426229503)"><rect x="1" width="11.999999999999996" height="299.8360655737705"></rect></g><g class="bar" transform="translate(208,2.258652094717661)"><rect x="1" width="11.999999999999996" height="307.74134790528234"></rect></g><g class="bar" transform="translate(221.00000000000003,52.5136612021858)"><rect x="1" width="11.999999999999996" height="257.4863387978142"></rect></g><g class="bar" transform="translate(234,69.45355191256832)"><rect x="1" width="11.999999999999996" height="240.54644808743168"></rect></g><g class="bar" transform="translate(247.00000000000003,94.86338797814207)"><rect x="1" width="11.999999999999996" height="215.13661202185793"></rect></g><g class="bar" transform="translate(260,113.49726775956282)"><rect x="1" width="11.999999999999996" height="196.50273224043718"></rect></g><g class="bar" transform="translate(273,160.36429872495447)"><rect x="1" width="11.999999999999996" height="149.63570127504553"></rect></g><g class="bar" transform="translate(286,159.79963570127504)"><rect x="1" width="11.999999999999996" height="150.20036429872496"></rect></g><g class="bar" transform="translate(299.00000000000006,210.05464480874315)"><rect x="1" width="11.999999999999996" height="99.94535519125685"></rect></g><g class="bar" transform="translate(312.00000000000006,224.73588342440803)"><rect x="1" width="11.999999999999996" height="85.26411657559197"></rect></g><g class="bar" transform="translate(325,263.1329690346084)"><rect x="1" width="11.999999999999996" height="46.86703096539162"></rect></g><g class="bar" transform="translate(338,276.120218579235)"><rect x="1" width="11.999999999999996" height="33.87978142076503"></rect></g><g class="bar" transform="translate(351,297.57741347905284)"><rect x="1" width="11.999999999999996" height="12.422586520947164"></rect></g><g class="bar" transform="translate(364.00000000000006,300.9653916211293)"><rect x="1" width="11.999999999999996" height="9.0346083788707"></rect></g><g class="bar" transform="translate(377.00000000000006,303.7887067395264)"><rect x="1" width="11.999999999999996" height="6.21129326047361"></rect></g><g class="bar" transform="translate(390,307.1766848816029)"><rect x="1" width="11.999999999999996" height="2.8233151183970904"></rect></g><g class="bar" transform="translate(403,310)"><rect x="1" width="11.999999999999996" height="0"></rect></g><g class="bar" transform="translate(416,310)"><rect x="1" width="11.999999999999996" height="0"></rect></g><g class="bar" transform="translate(429.00000000000006,310)"><rect x="1" width="11.999999999999996" height="0"></rect></g><g class="bar" transform="translate(442.00000000000006,310)"><rect x="1" width="11.999999999999996" height="0"></rect></g><g class="bar" transform="translate(455,310)"><rect x="1" width="11.999999999999996" height="0"></rect></g><g class="bar" transform="translate(468,310)"><rect x="1" width="11.999999999999996" height="0"></rect></g><g class="bar" transform="translate(481,310)"><rect x="1" width="11.999999999999996" height="0"></rect></g><g class="bar" transform="translate(494.00000000000006,310)"><rect x="1" width="11.999999999999996" height="0"></rect></g><g class="bar" transform="translate(507.00000000000006,310)"><rect x="1" width="11.999999999999996" height="0"></rect></g><g class="axis axis--x" transform="translate(0,310)" fill="none" font-size="10" font-family="sans-serif" text-anchor="middle"><path class="domain" stroke="#000" d="M0.5,6V0.5H520.5V6"></path><g class="tick" opacity="1" transform="translate(0.5,0)"><line stroke="#000" y2="6"></line><text fill="#000" y="9" dy="0.71em">0.01</text></g><g class="tick" opacity="1" transform="translate(130.5,0)"><line stroke="#000" y2="6"></line><text fill="#000" y="9" dy="0.71em">1</text></g><g class="tick" opacity="1" transform="translate(260.5,0)"><line stroke="#000" y2="6"></line><text fill="#000" y="9" dy="0.71em">100</text></g><g class="tick" opacity="1" transform="translate(390.5,0)"><line stroke="#000" y2="6"></line><text fill="#000" y="9" dy="0.71em">10000</text></g><g class="tick" opacity="1" transform="translate(520.5,0)"><line stroke="#000" y2="6"></line><text fill="#000" y="9" dy="0.71em"></text></g></g><g class="axis axis--y" fill="none" font-size="10" font-family="sans-serif" text-anchor="end"><path class="domain" stroke="#000" d="M-6,310.5H0.5V0.5H-6"></path><g class="tick" opacity="1" transform="translate(0,310.5)"><line stroke="#000" x2="-6"></line><text fill="#000" x="-9" dy="0.32em">0</text></g><g class="tick" opacity="1" transform="translate(0,282.26684881602915)"><line stroke="#000" x2="-6"></line><text fill="#000" x="-9" dy="0.32em">50</text></g><g class="tick" opacity="1" transform="translate(0,254.0336976320583)"><line stroke="#000" x2="-6"></line><text fill="#000" x="-9" dy="0.32em">100</text></g><g class="tick" opacity="1" transform="translate(0,225.8005464480874)"><line stroke="#000" x2="-6"></line><text fill="#000" x="-9" dy="0.32em">150</text></g><g class="tick" opacity="1" transform="translate(0,197.56739526411658)"><line stroke="#000" x2="-6"></line><text fill="#000" x="-9" dy="0.32em">200</text></g><g class="tick" opacity="1" transform="translate(0,169.33424408014574)"><line stroke="#000" x2="-6"></line><text fill="#000" x="-9" dy="0.32em">250</text></g><g class="tick" opacity="1" transform="translate(0,141.10109289617483)"><line stroke="#000" x2="-6"></line><text fill="#000" x="-9" dy="0.32em">300</text></g><g class="tick" opacity="1" transform="translate(0,112.86794171220401)"><line stroke="#000" x2="-6"></line><text fill="#000" x="-9" dy="0.32em">350</text></g><g class="tick" opacity="1" transform="translate(0,84.63479052823317)"><line stroke="#000" x2="-6"></line><text fill="#000" x="-9" dy="0.32em">400</text></g><g class="tick" opacity="1" transform="translate(0,56.40163934426229)"><line stroke="#000" x2="-6"></line><text fill="#000" x="-9" dy="0.32em">450</text></g><g class="tick" opacity="1" transform="translate(0,28.168488160291474)"><line stroke="#000" x2="-6"></line><text fill="#000" x="-9" dy="0.32em">500</text></g></g></g></svg>