<svg xmlns="http://www.w3.org/2000/svg" width="600" height="350"><defs><style type="text/css"><![CDATA[ 
.bar rect {
  fill-opacity: 0;
  stroke:       black;
  stroke-width: 0.5;
}

.highlight rect {
  fill:       red;
  fill-opacity: 1;
}
.axis path,
.axis line {
  fill: none;
  stroke: #000;
  shape-rendering: crispEdges;
}
 ]]></style></defs><g transform="translate(50,10)"><g class="bar" transform="translate(0,310)"><rect x="1" width="31.5" height="0"></rect></g><g class="bar" transform="translate(32.5,308.2584269662921)"><rect x="1" width="31.5" height="1.7415730337078799"></rect></g><g class="bar" transform="translate(65,285.6179775280899)"><rect x="1" width="31.5" height="24.38202247191009"></rect></g><g class="bar" transform="translate(97.5,212.47191011235955)"><rect x="1" width="31.5" height="97.52808988764045"></rect></g><g class="bar" transform="translate(130,64.43820224719099)"><rect x="1" width="31.5" height="245.561797752809"></rect></g><g class="bar" transform="translate(162.5,0)"><rect x="1" width="31.5" height="310"></rect></g><g class="bar" transform="translate(195,47.02247191011236)"><rect x="1" width="31.5" height="262.97752808988764"></rect></g><g class="bar" transform="translate(227.5,64.43820224719099)"><rect x="1" width="31.5" height="245.561797752809"></rect></g><g class="bar" transform="translate(260,130.6179775280899)"><rect x="1" width="31.5" height="179.3820224719101"></rect></g><g class="bar" transform="translate(292.5,182.86516853932585)"><rect x="1" width="31.5" height="127.13483146067415"></rect></g><g class="bar" transform="translate(325,231.62921348314606)"><rect x="1" width="31.5" height="78.37078651685394"></rect></g><g class="bar" transform="translate(357.5,249.04494382022472)"><rect x="1" width="31.5" height="60.95505617977528"></rect></g><g class="bar" transform="translate(390,262.97752808988764)"><rect x="1" width="31.5" height="47.02247191011236"></rect></g><g class="bar" transform="translate(422.5,303.03370786516854)"><rect x="1" width="31.5" height="6.966292134831463"></rect></g><g class="bar" transform="translate(455,310)"><rect x="1" width="31.5" height="0"></rect></g><g class="bar" transform="translate(487.5,310)"><rect x="1" width="31.5" height="0"></rect></g><g class="axis axis--x" transform="translate(0,310)" fill="none" font-size="10" font-family="sans-serif" text-anchor="middle"><path class="domain" stroke="#000" d="M0.5,6V0.5H520.5V6"></path><g class="tick" opacity="1" transform="translate(0,0)"><line stroke="#000" y2="6" x1="0.5" x2="0.5"></line><text fill="#000" y="9" x="0.5" dy="0.71em">0.01</text></g><g class="tick" opacity="1" transform="translate(130,0)"><line stroke="#000" y2="6" x1="0.5" x2="0.5"></line><text fill="#000" y="9" x="0.5" dy="0.71em">1</text></g><g class="tick" opacity="1" transform="translate(260,0)"><line stroke="#000" y2="6" x1="0.5" x2="0.5"></line><text fill="#000" y="9" x="0.5" dy="0.71em">100</text></g><g class="tick" opacity="1" transform="translate(390,0)"><line stroke="#000" y2="6" x1="0.5" x2="0.5"></line><text fill="#000" y="9" x="0.5" dy="0.71em">10000</text></g><g class="tick" opacity="1" transform="translate(520,0)"><line stroke="#000" y2="6" x1="0.5" x2="0.5"></line><text fill="#000" y="9" x="0.5" dy="0.71em"></text></g></g><g class="axis axis--y" fill="none" font-size="10" font-family="sans-serif" text-anchor="end"><path class="domain" stroke="#000" d="M-6,310.5H0.5V0.5H-6"></path><g class="tick" opacity="1" transform="translate(0,310)"><line stroke="#000" x2="-6" y1="0.5" y2="0.5"></line><text fill="#000" x="-9" y="0.5" dy="0.32em">0</text></g><g class="tick" opacity="1" transform="translate(0,275.1685393258427)"><line stroke="#000" x2="-6" y1="0.5" y2="0.5"></line><text fill="#000" x="-9" y="0.5" dy="0.32em">20</text></g><g class="tick" opacity="1" transform="translate(0,240.33707865168537)"><line stroke="#000" x2="-6" y1="0.5" y2="0.5"></line><text fill="#000" x="-9" y="0.5" dy="0.32em">40</text></g><g class="tick" opacity="1" transform="translate(0,205.5056179775281)"><line stroke="#000" x2="-6" y1="0.5" y2="0.5"></line><text fill="#000" x="-9" y="0.5" dy="0.32em">60</text></g><g class="tick" opacity="1" transform="translate(0,170.67415730337078)"><line stroke="#000" x2="-6" y1="0.5" y2="0.5"></line><text fill="#000" x="-9" y="0.5" dy="0.32em">80</text></g><g class="tick" opacity="1" transform="translate(0,135.84269662921346)"><line stroke="#000" x2="-6" y1="0.5" y2="0.5"></line><text fill="#000" x="-9" y="0.5" dy="0.32em">100</text></g><g class="tick" opacity="1" transform="translate(0,101.01123595505618)"><line stroke="#000" x2="-6" y1="0.5" y2="0.5"></line><text fill="#000" x="-9" y="0.5" dy="0.32em">120</text></g><g class="tick" opacity="1" transform="translate(0,66.17977528089887)"><line stroke="#000" x2="-6" y1="0.5" y2="0.5"></line><text fill="#000" x="-9" y="0.5" dy="0.32em">140</text></g><g class="tick" opacity="1" transform="translate(0,31.348314606741553)"><line stroke="#000" x2="-6" y1="0.5" y2="0.5"></line><text fill="#000" x="-9" y="0.5" dy="0.32em">160</text></g></g></g></svg>