<svg xmlns="http://www.w3.org/2000/svg" width="280" height="160"><defs><style type="text/css"><![CDATA[ 
.bar rect {
  fill-opacity: 0;
  stroke:       black;
  stroke-width: 0.5;
}

.highlight rect {
  fill:       red;
  fill-opacity: 1;
}
.axis path,
.axis line {
  fill: none;
  stroke: #000;
  shape-rendering: crispEdges;
}
path {
    stroke: red;
    fill: none;
}

line {
    stroke: red;
}

path.marker {
    fill: red;
}
 ]]></style></defs><g transform="translate(50,10)"><g class="bar" transform="translate(0,92.16568047337279)"><rect x="1" width="11.5" height="27.834319526627212"></rect></g><g class="bar" transform="translate(12.5,68.02366863905326)"><rect x="1" width="11.5" height="51.976331360946745"></rect></g><g class="bar" transform="translate(25,38.62721893491124)"><rect x="1" width="11.5" height="81.37278106508876"></rect></g><g class="bar" transform="translate(37.5,10.792899408284015)"><rect x="1" width="11.5" height="109.20710059171599"></rect></g><g class="bar" transform="translate(50,0)"><rect x="1" width="11.5" height="120"></rect></g><g class="bar" transform="translate(62.5,17.6094674556213)"><rect x="1" width="11.5" height="102.3905325443787"></rect></g><g class="bar" transform="translate(75,13.633136094674555)"><rect x="1" width="11.5" height="106.36686390532545"></rect></g><g class="bar" transform="translate(87.5,25.846153846153854)"><rect x="1" width="11.5" height="94.15384615384615"></rect></g><g class="bar" transform="translate(100,48)"><rect x="1" width="11.5" height="72"></rect></g><g class="bar" transform="translate(112.5,78.53254437869822)"><rect x="1" width="11.5" height="41.46745562130178"></rect></g><g class="bar" transform="translate(125,99.26627218934911)"><rect x="1" width="11.5" height="20.73372781065089"></rect></g><g class="bar" transform="translate(137.5,112.33136094674556)"><rect x="1" width="11.5" height="7.668639053254438"></rect></g><g class="bar" transform="translate(150,119.00591715976331)"><rect x="1" width="11.5" height="0.9940828402366861"></rect></g><g class="bar" transform="translate(162.5,119.85798816568047)"><rect x="1" width="11.5" height="0.14201183431953268"></rect></g><g class="bar" transform="translate(175,120)"><rect x="1" width="11.5" height="0"></rect></g><g class="bar" transform="translate(187.5,120)"><rect x="1" width="11.5" height="0"></rect></g></g></svg>