<svg xmlns="http://www.w3.org/2000/svg" width="600" height="350"><defs><style type="text/css"><![CDATA[ 
.bar rect {
  fill-opacity: 0;
  stroke:       black;
  stroke-width: 0.5;
}

.highlight rect {
  fill:       red;
  fill-opacity: 1;
}
.axis path,
.axis line {
  fill: none;
  stroke: #000;
  shape-rendering: crispEdges;
}
path {
    stroke: red;
    fill: none;
}

line {
    stroke: red;
}

path.marker {
    fill: red;
}
 ]]></style></defs><g transform="translate(50,10)"><g class="bar" transform="translate(0,284.1666666666667)"><rect x="1" width="11.999999999999996" height="25.833333333333314"></rect></g><g class="bar" transform="translate(12.999999999999996,265.1807228915663)"><rect x="1" width="11.999999999999996" height="44.81927710843371"></rect></g><g class="bar" transform="translate(25.999999999999993,254.90963855421688)"><rect x="1" width="11.999999999999996" height="55.09036144578312"></rect></g><g class="bar" transform="translate(39.00000000000001,236.8574297188755)"><rect x="1" width="11.999999999999996" height="73.1425702811245"></rect></g><g class="bar" transform="translate(52,205.73293172690762)"><rect x="1" width="11.999999999999996" height="104.26706827309238"></rect></g><g class="bar" transform="translate(65,171.49598393574297)"><rect x="1" width="11.999999999999996" height="138.50401606425703"></rect></g><g class="bar" transform="translate(78.00000000000001,131.65662650602408)"><rect x="1" width="11.999999999999996" height="178.34337349397592"></rect></g><g class="bar" transform="translate(91.00000000000001,112.04819277108436)"><rect x="1" width="11.999999999999996" height="197.95180722891564"></rect></g><g class="bar" transform="translate(104,73.45381526104416)"><rect x="1" width="11.999999999999996" height="236.54618473895584"></rect></g><g class="bar" transform="translate(117,70.65261044176705)"><rect x="1" width="11.999999999999996" height="239.34738955823295"></rect></g><g class="bar" transform="translate(130,31.12449799196787)"><rect x="1" width="11.999999999999996" height="278.87550200803213"></rect></g><g class="bar" transform="translate(143,15.873493975903614)"><rect x="1" width="11.999999999999996" height="294.1265060240964"></rect></g><g class="bar" transform="translate(156.00000000000003,12.449799196787183)"><rect x="1" width="11.999999999999996" height="297.5502008032128"></rect></g><g class="bar" transform="translate(169,0)"><rect x="1" width="11.999999999999996" height="310"></rect></g><g class="bar" transform="translate(182.00000000000003,9.648594377510051)"><rect x="1" width="11.999999999999996" height="300.35140562248995"></rect></g><g class="bar" transform="translate(195,6.847389558232976)"><rect x="1" width="11.999999999999996" height="303.152610441767"></rect></g><g class="bar" transform="translate(208,44.50803212851406)"><rect x="1" width="11.999999999999996" height="265.49196787148594"></rect></g><g class="bar" transform="translate(221.00000000000003,54.46787148594376)"><rect x="1" width="11.999999999999996" height="255.53212851405624"></rect></g><g class="bar" transform="translate(234,110.18072289156626)"><rect x="1" width="11.999999999999996" height="199.81927710843374"></rect></g><g class="bar" transform="translate(247.00000000000003,150.95381526104416)"><rect x="1" width="11.999999999999996" height="159.04618473895584"></rect></g><g class="bar" transform="translate(260,172.74096385542168)"><rect x="1" width="11.999999999999996" height="137.25903614457832"></rect></g><g class="bar" transform="translate(273,199.19678714859438)"><rect x="1" width="11.999999999999996" height="110.80321285140562"></rect></g><g class="bar" transform="translate(286,229.38755020080322)"><rect x="1" width="11.999999999999996" height="80.61244979919678"></rect></g><g class="bar" transform="translate(299.00000000000006,250.55220883534136)"><rect x="1" width="11.999999999999996" height="59.44779116465864"></rect></g><g class="bar" transform="translate(312.00000000000006,266.425702811245)"><rect x="1" width="11.999999999999996" height="43.574297188755"></rect></g><g class="bar" transform="translate(325,281.9879518072289)"><rect x="1" width="11.999999999999996" height="28.01204819277109"></rect></g><g class="bar" transform="translate(338,292.8815261044177)"><rect x="1" width="11.999999999999996" height="17.118473895582326"></rect></g><g class="bar" transform="translate(351,301.285140562249)"><rect x="1" width="11.999999999999996" height="8.714859437750988"></rect></g><g class="bar" transform="translate(364.00000000000006,306.26506024096386)"><rect x="1" width="11.999999999999996" height="3.7349397590361377"></rect></g><g class="bar" transform="translate(377.00000000000006,309.06626506024094)"><rect x="1" width="11.999999999999996" height="0.9337349397590629"></rect></g><g class="bar" transform="translate(390,309.6887550200803)"><rect x="1" width="11.999999999999996" height="0.31124497991970657"></rect></g><g class="bar" transform="translate(403,310)"><rect x="1" width="11.999999999999996" height="0"></rect></g><g class="bar" transform="translate(416,310)"><rect x="1" width="11.999999999999996" height="0"></rect></g><g class="bar" transform="translate(429.00000000000006,310)"><rect x="1" width="11.999999999999996" height="0"></rect></g><g class="bar" transform="translate(442.00000000000006,310)"><rect x="1" width="11.999999999999996" height="0"></rect></g><g class="bar" transform="translate(455,310)"><rect x="1" width="11.999999999999996" height="0"></rect></g><g class="bar" transform="translate(468,310)"><rect x="1" width="11.999999999999996" height="0"></rect></g><g class="bar" transform="translate(481,310)"><rect x="1" width="11.999999999999996" height="0"></rect></g><g class="bar" transform="translate(494.00000000000006,310)"><rect x="1" width="11.999999999999996" height="0"></rect></g><g class="bar" transform="translate(507.00000000000006,310)"><rect x="1" width="11.999999999999996" height="0"></rect></g><g class="axis axis--x" transform="translate(0,310)" fill="none" font-size="10" font-family="sans-serif" text-anchor="middle"><path class="domain" stroke="#000" d="M0.5,6V0.5H520.5V6"></path><g class="tick" opacity="1" transform="translate(0.5,0)"><line stroke="#000" y2="6"></line><text fill="#000" y="9" dy="0.71em">0.01</text></g><g class="tick" opacity="1" transform="translate(130.5,0)"><line stroke="#000" y2="6"></line><text fill="#000" y="9" dy="0.71em">1</text></g><g class="tick" opacity="1" transform="translate(260.5,0)"><line stroke="#000" y2="6"></line><text fill="#000" y="9" dy="0.71em">100</text></g><g class="tick" opacity="1" transform="translate(390.5,0)"><line stroke="#000" y2="6"></line><text fill="#000" y="9" dy="0.71em">10000</text></g><g class="tick" opacity="1" transform="translate(520.5,0)"><line stroke="#000" y2="6"></line><text fill="#000" y="9" dy="0.71em"></text></g></g><g class="axis axis--y" fill="none" font-size="10" font-family="sans-serif" text-anchor="end"><path class="domain" stroke="#000" d="M-6,310.5H0.5V0.5H-6"></path><g class="tick" opacity="1" transform="translate(0,310.5)"><line stroke="#000" x2="-6"></line><text fill="#000" x="-9" dy="0.32em">0</text></g><g class="tick" opacity="1" transform="translate(0,279.37550200803213)"><line stroke="#000" x2="-6"></line><text fill="#000" x="-9" dy="0.32em">100</text></g><g class="tick" opacity="1" transform="translate(0,248.25100401606426)"><line stroke="#000" x2="-6"></line><text fill="#000" x="-9" dy="0.32em">200</text></g><g class="tick" opacity="1" transform="translate(0,217.1265060240964)"><line stroke="#000" x2="-6"></line><text fill="#000" x="-9" dy="0.32em">300</text></g><g class="tick" opacity="1" transform="translate(0,186.00200803212851)"><line stroke="#000" x2="-6"></line><text fill="#000" x="-9" dy="0.32em">400</text></g><g class="tick" opacity="1" transform="translate(0,154.87751004016064)"><line stroke="#000" x2="-6"></line><text fill="#000" x="-9" dy="0.32em">500</text></g><g class="tick" opacity="1" transform="translate(0,123.75301204819274)"><line stroke="#000" x2="-6"></line><text fill="#000" x="-9" dy="0.32em">600</text></g><g class="tick" opacity="1" transform="translate(0,92.6285140562249)"><line stroke="#000" x2="-6"></line><text fill="#000" x="-9" dy="0.32em">700</text></g><g class="tick" opacity="1" transform="translate(0,61.50401606425703)"><line stroke="#000" x2="-6"></line><text fill="#000" x="-9" dy="0.32em">800</text></g><g class="tick" opacity="1" transform="translate(0,30.37951807228916)"><line stroke="#000" x2="-6"></line><text fill="#000" x="-9" dy="0.32em">900</text></g></g></g></svg>