<svg xmlns="http://www.w3.org/2000/svg" width="280" height="160"><defs><style type="text/css"><![CDATA[ 
.bar rect {
  fill-opacity: 0;
  stroke:       black;
  stroke-width: 0.5;
}

.highlight rect {
  fill:       red;
  fill-opacity: 1;
}
.axis path,
.axis line {
  fill: none;
  stroke: #000;
  shape-rendering: crispEdges;
}
path {
    stroke: red;
    fill: none;
}

line {
    stroke: red;
}

path.marker {
    fill: red;
}
 ]]></style></defs><g transform="translate(50,10)"><g class="bar" transform="translate(0,105.03667481662592)"><rect x="1" width="11.5" height="14.963325183374081"></rect></g><g class="bar" transform="translate(12.5,87.33496332518337)"><rect x="1" width="11.5" height="32.66503667481663"></rect></g><g class="bar" transform="translate(25,54.71882640586797)"><rect x="1" width="11.5" height="65.28117359413203"></rect></g><g class="bar" transform="translate(37.5,29.63325183374083)"><rect x="1" width="11.5" height="90.36674816625917"></rect></g><g class="bar" transform="translate(50,7.334963325183381)"><rect x="1" width="11.5" height="112.66503667481662"></rect></g><g class="bar" transform="translate(62.5,0)"><rect x="1" width="11.5" height="120"></rect></g><g class="bar" transform="translate(75,8.850855745721276)"><rect x="1" width="11.5" height="111.14914425427872"></rect></g><g class="bar" transform="translate(87.5,45.28117359413203)"><rect x="1" width="11.5" height="74.71882640586797"></rect></g><g class="bar" transform="translate(100,73.98533007334963)"><rect x="1" width="11.5" height="46.01466992665037"></rect></g><g class="bar" transform="translate(112.5,98.19070904645477)"><rect x="1" width="11.5" height="21.80929095354523"></rect></g><g class="bar" transform="translate(125,112.1760391198044)"><rect x="1" width="11.5" height="7.8239608801955995"></rect></g><g class="bar" transform="translate(137.5,118.63080684596576)"><rect x="1" width="11.5" height="1.3691931540342352"></rect></g><g class="bar" transform="translate(150,119.95110024449878)"><rect x="1" width="11.5" height="0.04889975550122472"></rect></g><g class="bar" transform="translate(162.5,120)"><rect x="1" width="11.5" height="0"></rect></g><g class="bar" transform="translate(175,120)"><rect x="1" width="11.5" height="0"></rect></g><g class="bar" transform="translate(187.5,120)"><rect x="1" width="11.5" height="0"></rect></g></g></svg>