<svg xmlns="http://www.w3.org/2000/svg" width="280" height="160"><defs><style type="text/css"><![CDATA[ 
.bar rect {
  fill-opacity: 0;
  stroke:       black;
  stroke-width: 0.5;
}

.highlight rect {
  fill:       red;
  fill-opacity: 1;
}
.axis path,
.axis line {
  fill: none;
  stroke: #000;
  shape-rendering: crispEdges;
}
 ]]></style></defs><g transform="translate(50,10)"><g class="bar" transform="translate(0,120)"><rect x="1" width="11.5" height="0"></rect></g><g class="bar" transform="translate(12.5,120)"><rect x="1" width="11.5" height="0"></rect></g><g class="bar" transform="translate(25,119.54545454545455)"><rect x="1" width="11.5" height="0.45454545454545325"></rect></g><g class="bar" transform="translate(37.5,116.36363636363636)"><rect x="1" width="11.5" height="3.6363636363636402"></rect></g><g class="bar" transform="translate(50,104.9090909090909)"><rect x="1" width="11.5" height="15.090909090909093"></rect></g><g class="bar" transform="translate(62.5,79.0909090909091)"><rect x="1" width="11.5" height="40.90909090909091"></rect></g><g class="bar" transform="translate(75,41.45454545454545)"><rect x="1" width="11.5" height="78.54545454545455"></rect></g><g class="bar" transform="translate(87.5,0)"><rect x="1" width="11.5" height="120"></rect></g><g class="bar" transform="translate(100,8.63636363636364)"><rect x="1" width="11.5" height="111.36363636363636"></rect></g><g class="bar" transform="translate(112.5,73.54545454545453)"><rect x="1" width="11.5" height="46.45454545454547"></rect></g><g class="bar" transform="translate(125,107.81818181818181)"><rect x="1" width="11.5" height="12.181818181818187"></rect></g><g class="bar" transform="translate(137.5,118.18181818181819)"><rect x="1" width="11.5" height="1.818181818181813"></rect></g><g class="bar" transform="translate(150,119.27272727272727)"><rect x="1" width="11.5" height="0.7272727272727337"></rect></g><g class="bar" transform="translate(162.5,120)"><rect x="1" width="11.5" height="0"></rect></g><g class="bar" transform="translate(175,120)"><rect x="1" width="11.5" height="0"></rect></g><g class="bar" transform="translate(187.5,120)"><rect x="1" width="11.5" height="0"></rect></g></g></svg>