<svg xmlns="http://www.w3.org/2000/svg" width="600" height="350"><defs><style type="text/css"><![CDATA[ 
.bar rect {
  fill-opacity: 0;
  stroke:       black;
  stroke-width: 0.5;
}

.highlight rect {
  fill:       red;
  fill-opacity: 1;
}
.axis path,
.axis line {
  fill: none;
  stroke: #000;
  shape-rendering: crispEdges;
}
 ]]></style></defs><g transform="translate(50,10)"><g class="bar" transform="translate(0,310)"><rect x="1" width="11.999999999999996" height="0"></rect></g><g class="bar" transform="translate(12.999999999999996,310)"><rect x="1" width="11.999999999999996" height="0"></rect></g><g class="bar" transform="translate(25.999999999999993,310)"><rect x="1" width="11.999999999999996" height="0"></rect></g><g class="bar" transform="translate(39.00000000000001,310)"><rect x="1" width="11.999999999999996" height="0"></rect></g><g class="bar" transform="translate(52,310)"><rect x="1" width="11.999999999999996" height="0"></rect></g><g class="bar" transform="translate(65,309.44642857142856)"><rect x="1" width="11.999999999999996" height="0.5535714285714448"></rect></g><g class="bar" transform="translate(78.00000000000001,308.89285714285717)"><rect x="1" width="11.999999999999996" height="1.1071428571428328"></rect></g><g class="bar" transform="translate(91.00000000000001,306.125)"><rect x="1" width="11.999999999999996" height="3.875"></rect></g><g class="bar" transform="translate(104,304.4642857142857)"><rect x="1" width="11.999999999999996" height="5.535714285714278"></rect></g><g class="bar" transform="translate(117,296.1607142857143)"><rect x="1" width="11.999999999999996" height="13.839285714285722"></rect></g><g class="bar" transform="translate(130,293.94642857142856)"><rect x="1" width="11.999999999999996" height="16.053571428571445"></rect></g><g class="bar" transform="translate(143,257.4107142857143)"><rect x="1" width="11.999999999999996" height="52.58928571428572"></rect></g><g class="bar" transform="translate(156.00000000000003,255.75)"><rect x="1" width="11.999999999999996" height="54.25"></rect></g><g class="bar" transform="translate(169,220.875)"><rect x="1" width="11.999999999999996" height="89.125"></rect></g><g class="bar" transform="translate(182.00000000000003,181.01785714285714)"><rect x="1" width="11.999999999999996" height="128.98214285714286"></rect></g><g class="bar" transform="translate(195,162.19642857142856)"><rect x="1" width="11.999999999999996" height="147.80357142857144"></rect></g><g class="bar" transform="translate(208,93.55357142857144)"><rect x="1" width="11.999999999999996" height="216.44642857142856"></rect></g><g class="bar" transform="translate(221.00000000000003,48.16071428571428)"><rect x="1" width="11.999999999999996" height="261.8392857142857"></rect></g><g class="bar" transform="translate(234,37.08928571428572)"><rect x="1" width="11.999999999999996" height="272.9107142857143"></rect></g><g class="bar" transform="translate(247.00000000000003,0)"><rect x="1" width="11.999999999999996" height="310"></rect></g><g class="bar" transform="translate(260,1.1071428571428328)"><rect x="1" width="11.999999999999996" height="308.89285714285717"></rect></g><g class="bar" transform="translate(273,50.928571428571445)"><rect x="1" width="11.999999999999996" height="259.07142857142856"></rect></g><g class="bar" transform="translate(286,104.625)"><rect x="1" width="11.999999999999996" height="205.375"></rect></g><g class="bar" transform="translate(299.00000000000006,192.64285714285717)"><rect x="1" width="11.999999999999996" height="117.35714285714283"></rect></g><g class="bar" transform="translate(312.00000000000006,239.69642857142856)"><rect x="1" width="11.999999999999996" height="70.30357142857144"></rect></g><g class="bar" transform="translate(325,264.60714285714283)"><rect x="1" width="11.999999999999996" height="45.39285714285717"></rect></g><g class="bar" transform="translate(338,288.9642857142857)"><rect x="1" width="11.999999999999996" height="21.035714285714278"></rect></g><g class="bar" transform="translate(351,296.1607142857143)"><rect x="1" width="11.999999999999996" height="13.839285714285722"></rect></g><g class="bar" transform="translate(364.00000000000006,306.67857142857144)"><rect x="1" width="11.999999999999996" height="3.321428571428555"></rect></g><g class="bar" transform="translate(377.00000000000006,308.3392857142857)"><rect x="1" width="11.999999999999996" height="1.6607142857142776"></rect></g><g class="bar" transform="translate(390,306.125)"><rect x="1" width="11.999999999999996" height="3.875"></rect></g><g class="bar" transform="translate(403,309.44642857142856)"><rect x="1" width="11.999999999999996" height="0.5535714285714448"></rect></g><g class="bar" transform="translate(416,310)"><rect x="1" width="11.999999999999996" height="0"></rect></g><g class="bar" transform="translate(429.00000000000006,310)"><rect x="1" width="11.999999999999996" height="0"></rect></g><g class="bar" transform="translate(442.00000000000006,310)"><rect x="1" width="11.999999999999996" height="0"></rect></g><g class="bar" transform="translate(455,310)"><rect x="1" width="11.999999999999996" height="0"></rect></g><g class="bar" transform="translate(468,310)"><rect x="1" width="11.999999999999996" height="0"></rect></g><g class="bar" transform="translate(481,310)"><rect x="1" width="11.999999999999996" height="0"></rect></g><g class="bar" transform="translate(494.00000000000006,310)"><rect x="1" width="11.999999999999996" height="0"></rect></g><g class="bar" transform="translate(507.00000000000006,310)"><rect x="1" width="11.999999999999996" height="0"></rect></g><g class="axis axis--x" transform="translate(0,310)" fill="none" font-size="10" font-family="sans-serif" text-anchor="middle"><path class="domain" stroke="#000" d="M0.5,6V0.5H520.5V6"></path><g class="tick" opacity="1" transform="translate(0,0)"><line stroke="#000" y2="6" x1="0.5" x2="0.5"></line><text fill="#000" y="9" x="0.5" dy="0.71em">0.01</text></g><g class="tick" opacity="1" transform="translate(130,0)"><line stroke="#000" y2="6" x1="0.5" x2="0.5"></line><text fill="#000" y="9" x="0.5" dy="0.71em">1</text></g><g class="tick" opacity="1" transform="translate(260,0)"><line stroke="#000" y2="6" x1="0.5" x2="0.5"></line><text fill="#000" y="9" x="0.5" dy="0.71em">100</text></g><g class="tick" opacity="1" transform="translate(390,0)"><line stroke="#000" y2="6" x1="0.5" x2="0.5"></line><text fill="#000" y="9" x="0.5" dy="0.71em">10000</text></g><g class="tick" opacity="1" transform="translate(520,0)"><line stroke="#000" y2="6" x1="0.5" x2="0.5"></line><text fill="#000" y="9" x="0.5" dy="0.71em"></text></g></g><g class="axis axis--y" fill="none" font-size="10" font-family="sans-serif" text-anchor="end"><path class="domain" stroke="#000" d="M-6,310.5H0.5V0.5H-6"></path><g class="tick" opacity="1" transform="translate(0,310)"><line stroke="#000" x2="-6" y1="0.5" y2="0.5"></line><text fill="#000" x="-9" y="0.5" dy="0.32em">0</text></g><g class="tick" opacity="1" transform="translate(0,282.32142857142856)"><line stroke="#000" x2="-6" y1="0.5" y2="0.5"></line><text fill="#000" x="-9" y="0.5" dy="0.32em">50</text></g><g class="tick" opacity="1" transform="translate(0,254.64285714285714)"><line stroke="#000" x2="-6" y1="0.5" y2="0.5"></line><text fill="#000" x="-9" y="0.5" dy="0.32em">100</text></g><g class="tick" opacity="1" transform="translate(0,226.96428571428572)"><line stroke="#000" x2="-6" y1="0.5" y2="0.5"></line><text fill="#000" x="-9" y="0.5" dy="0.32em">150</text></g><g class="tick" opacity="1" transform="translate(0,199.28571428571428)"><line stroke="#000" x2="-6" y1="0.5" y2="0.5"></line><text fill="#000" x="-9" y="0.5" dy="0.32em">200</text></g><g class="tick" opacity="1" transform="translate(0,171.60714285714286)"><line stroke="#000" x2="-6" y1="0.5" y2="0.5"></line><text fill="#000" x="-9" y="0.5" dy="0.32em">250</text></g><g class="tick" opacity="1" transform="translate(0,143.92857142857144)"><line stroke="#000" x2="-6" y1="0.5" y2="0.5"></line><text fill="#000" x="-9" y="0.5" dy="0.32em">300</text></g><g class="tick" opacity="1" transform="translate(0,116.25)"><line stroke="#000" x2="-6" y1="0.5" y2="0.5"></line><text fill="#000" x="-9" y="0.5" dy="0.32em">350</text></g><g class="tick" opacity="1" transform="translate(0,88.57142857142856)"><line stroke="#000" x2="-6" y1="0.5" y2="0.5"></line><text fill="#000" x="-9" y="0.5" dy="0.32em">400</text></g><g class="tick" opacity="1" transform="translate(0,60.89285714285714)"><line stroke="#000" x2="-6" y1="0.5" y2="0.5"></line><text fill="#000" x="-9" y="0.5" dy="0.32em">450</text></g><g class="tick" opacity="1" transform="translate(0,33.21428571428572)"><line stroke="#000" x2="-6" y1="0.5" y2="0.5"></line><text fill="#000" x="-9" y="0.5" dy="0.32em">500</text></g><g class="tick" opacity="1" transform="translate(0,5.535714285714278)"><line stroke="#000" x2="-6" y1="0.5" y2="0.5"></line><text fill="#000" x="-9" y="0.5" dy="0.32em">550</text></g></g></g></svg>