<svg xmlns="http://www.w3.org/2000/svg" width="280" height="160"><defs><style type="text/css"><![CDATA[ 
.bar rect {
  fill-opacity: 0;
  stroke:       black;
  stroke-width: 0.5;
}

.highlight rect {
  fill:       red;
  fill-opacity: 1;
}
.axis path,
.axis line {
  fill: none;
  stroke: #000;
  shape-rendering: crispEdges;
}
 ]]></style></defs><g transform="translate(50,10)"><g class="bar" transform="translate(0,104.90459363957598)"><rect x="1" width="11.5" height="15.095406360424022"></rect></g><g class="bar" transform="translate(12.5,93.28621908127208)"><rect x="1" width="11.5" height="26.71378091872792"></rect></g><g class="bar" transform="translate(25,77.08833922261485)"><rect x="1" width="11.5" height="42.91166077738515"></rect></g><g class="bar" transform="translate(37.5,55.54770318021201)"><rect x="1" width="11.5" height="64.45229681978799"></rect></g><g class="bar" transform="translate(50,21.964664310954063)"><rect x="1" width="11.5" height="98.03533568904594"></rect></g><g class="bar" transform="translate(62.5,6.5300353356890355)"><rect x="1" width="11.5" height="113.46996466431096"></rect></g><g class="bar" transform="translate(75,0)"><rect x="1" width="11.5" height="120"></rect></g><g class="bar" transform="translate(87.5,17.130742049469973)"><rect x="1" width="11.5" height="102.86925795053003"></rect></g><g class="bar" transform="translate(100,40.79151943462898)"><rect x="1" width="11.5" height="79.20848056537102"></rect></g><g class="bar" transform="translate(112.5,78.78445229681978)"><rect x="1" width="11.5" height="41.21554770318022"></rect></g><g class="bar" transform="translate(125,107.44876325088339)"><rect x="1" width="11.5" height="12.551236749116612"></rect></g><g class="bar" transform="translate(137.5,118.7279151943463)"><rect x="1" width="11.5" height="1.272084805653705"></rect></g><g class="bar" transform="translate(150,119.49116607773851)"><rect x="1" width="11.5" height="0.5088339222614877"></rect></g><g class="bar" transform="translate(162.5,120)"><rect x="1" width="11.5" height="0"></rect></g><g class="bar" transform="translate(175,120)"><rect x="1" width="11.5" height="0"></rect></g><g class="bar" transform="translate(187.5,120)"><rect x="1" width="11.5" height="0"></rect></g></g></svg>