<svg xmlns="http://www.w3.org/2000/svg" width="600" height="350"><defs><style type="text/css"><![CDATA[ 
.bar rect {
  fill-opacity: 0;
  stroke:       black;
  stroke-width: 0.5;
}

.highlight rect {
  fill:       red;
  fill-opacity: 1;
}
.axis path,
.axis line {
  fill: none;
  stroke: #000;
  shape-rendering: crispEdges;
}
 ]]></style></defs><g transform="translate(50,10)"><g class="bar" transform="translate(0,271.57894736842104)"><rect x="1" width="11.999999999999996" height="38.42105263157896"></rect></g><g class="bar" transform="translate(12.999999999999996,272.63157894736844)"><rect x="1" width="11.999999999999996" height="37.36842105263156"></rect></g><g class="bar" transform="translate(25.999999999999993,263.6842105263158)"><rect x="1" width="11.999999999999996" height="46.31578947368422"></rect></g><g class="bar" transform="translate(39.00000000000001,242.63157894736844)"><rect x="1" width="11.999999999999996" height="67.36842105263156"></rect></g><g class="bar" transform="translate(52,240)"><rect x="1" width="11.999999999999996" height="70"></rect></g><g class="bar" transform="translate(65,215.78947368421052)"><rect x="1" width="11.999999999999996" height="94.21052631578948"></rect></g><g class="bar" transform="translate(78.00000000000001,202.10526315789474)"><rect x="1" width="11.999999999999996" height="107.89473684210526"></rect></g><g class="bar" transform="translate(91.00000000000001,181.57894736842104)"><rect x="1" width="11.999999999999996" height="128.42105263157896"></rect></g><g class="bar" transform="translate(104,156.31578947368422)"><rect x="1" width="11.999999999999996" height="153.68421052631578"></rect></g><g class="bar" transform="translate(117,127.89473684210526)"><rect x="1" width="11.999999999999996" height="182.10526315789474"></rect></g><g class="bar" transform="translate(130,87.89473684210526)"><rect x="1" width="11.999999999999996" height="222.10526315789474"></rect></g><g class="bar" transform="translate(143,69.47368421052633)"><rect x="1" width="11.999999999999996" height="240.52631578947367"></rect></g><g class="bar" transform="translate(156.00000000000003,32.10526315789474)"><rect x="1" width="11.999999999999996" height="277.89473684210526"></rect></g><g class="bar" transform="translate(169,34.21052631578948)"><rect x="1" width="11.999999999999996" height="275.7894736842105"></rect></g><g class="bar" transform="translate(182.00000000000003,13.68421052631578)"><rect x="1" width="11.999999999999996" height="296.3157894736842"></rect></g><g class="bar" transform="translate(195,12.631578947368439)"><rect x="1" width="11.999999999999996" height="297.36842105263156"></rect></g><g class="bar" transform="translate(208,0)"><rect x="1" width="11.999999999999996" height="310"></rect></g><g class="bar" transform="translate(221.00000000000003,38.9473684210526)"><rect x="1" width="11.999999999999996" height="271.0526315789474"></rect></g><g class="bar" transform="translate(234,38.9473684210526)"><rect x="1" width="11.999999999999996" height="271.0526315789474"></rect></g><g class="bar" transform="translate(247.00000000000003,76.31578947368422)"><rect x="1" width="11.999999999999996" height="233.68421052631578"></rect></g><g class="bar" transform="translate(260,86.31578947368419)"><rect x="1" width="11.999999999999996" height="223.6842105263158"></rect></g><g class="bar" transform="translate(273,114.73684210526318)"><rect x="1" width="11.999999999999996" height="195.26315789473682"></rect></g><g class="bar" transform="translate(286,175.26315789473685)"><rect x="1" width="11.999999999999996" height="134.73684210526315"></rect></g><g class="bar" transform="translate(299.00000000000006,211.57894736842104)"><rect x="1" width="11.999999999999996" height="98.42105263157896"></rect></g><g class="bar" transform="translate(312.00000000000006,214.73684210526315)"><rect x="1" width="11.999999999999996" height="95.26315789473685"></rect></g><g class="bar" transform="translate(325,265.7894736842105)"><rect x="1" width="11.999999999999996" height="44.21052631578948"></rect></g><g class="bar" transform="translate(338,283.1578947368421)"><rect x="1" width="11.999999999999996" height="26.84210526315792"></rect></g><g class="bar" transform="translate(351,301.05263157894734)"><rect x="1" width="11.999999999999996" height="8.947368421052659"></rect></g><g class="bar" transform="translate(364.00000000000006,304.7368421052632)"><rect x="1" width="11.999999999999996" height="5.263157894736821"></rect></g><g class="bar" transform="translate(377.00000000000006,309.4736842105263)"><rect x="1" width="11.999999999999996" height="0.5263157894736992"></rect></g><g class="bar" transform="translate(390,308.94736842105266)"><rect x="1" width="11.999999999999996" height="1.0526315789473415"></rect></g><g class="bar" transform="translate(403,309.4736842105263)"><rect x="1" width="11.999999999999996" height="0.5263157894736992"></rect></g><g class="bar" transform="translate(416,308.42105263157896)"><rect x="1" width="11.999999999999996" height="1.5789473684210407"></rect></g><g class="bar" transform="translate(429.00000000000006,310)"><rect x="1" width="11.999999999999996" height="0"></rect></g><g class="bar" transform="translate(442.00000000000006,310)"><rect x="1" width="11.999999999999996" height="0"></rect></g><g class="bar" transform="translate(455,310)"><rect x="1" width="11.999999999999996" height="0"></rect></g><g class="bar" transform="translate(468,310)"><rect x="1" width="11.999999999999996" height="0"></rect></g><g class="bar" transform="translate(481,310)"><rect x="1" width="11.999999999999996" height="0"></rect></g><g class="bar" transform="translate(494.00000000000006,310)"><rect x="1" width="11.999999999999996" height="0"></rect></g><g class="bar" transform="translate(507.00000000000006,310)"><rect x="1" width="11.999999999999996" height="0"></rect></g><g class="axis axis--x" transform="translate(0,310)" fill="none" font-size="10" font-family="sans-serif" text-anchor="middle"><path class="domain" stroke="#000" d="M0.5,6V0.5H520.5V6"></path><g class="tick" opacity="1" transform="translate(0,0)"><line stroke="#000" y2="6" x1="0.5" x2="0.5"></line><text fill="#000" y="9" x="0.5" dy="0.71em">0.01</text></g><g class="tick" opacity="1" transform="translate(130,0)"><line stroke="#000" y2="6" x1="0.5" x2="0.5"></line><text fill="#000" y="9" x="0.5" dy="0.71em">1</text></g><g class="tick" opacity="1" transform="translate(260,0)"><line stroke="#000" y2="6" x1="0.5" x2="0.5"></line><text fill="#000" y="9" x="0.5" dy="0.71em">100</text></g><g class="tick" opacity="1" transform="translate(390,0)"><line stroke="#000" y2="6" x1="0.5" x2="0.5"></line><text fill="#000" y="9" x="0.5" dy="0.71em">10000</text></g><g class="tick" opacity="1" transform="translate(520,0)"><line stroke="#000" y2="6" x1="0.5" x2="0.5"></line><text fill="#000" y="9" x="0.5" dy="0.71em"></text></g></g><g class="axis axis--y" fill="none" font-size="10" font-family="sans-serif" text-anchor="end"><path class="domain" stroke="#000" d="M-6,310.5H0.5V0.5H-6"></path><g class="tick" opacity="1" transform="translate(0,310)"><line stroke="#000" x2="-6" y1="0.5" y2="0.5"></line><text fill="#000" x="-9" y="0.5" dy="0.32em">0</text></g><g class="tick" opacity="1" transform="translate(0,283.6842105263158)"><line stroke="#000" x2="-6" y1="0.5" y2="0.5"></line><text fill="#000" x="-9" y="0.5" dy="0.32em">50</text></g><g class="tick" opacity="1" transform="translate(0,257.36842105263156)"><line stroke="#000" x2="-6" y1="0.5" y2="0.5"></line><text fill="#000" x="-9" y="0.5" dy="0.32em">100</text></g><g class="tick" opacity="1" transform="translate(0,231.05263157894737)"><line stroke="#000" x2="-6" y1="0.5" y2="0.5"></line><text fill="#000" x="-9" y="0.5" dy="0.32em">150</text></g><g class="tick" opacity="1" transform="translate(0,204.73684210526318)"><line stroke="#000" x2="-6" y1="0.5" y2="0.5"></line><text fill="#000" x="-9" y="0.5" dy="0.32em">200</text></g><g class="tick" opacity="1" transform="translate(0,178.42105263157893)"><line stroke="#000" x2="-6" y1="0.5" y2="0.5"></line><text fill="#000" x="-9" y="0.5" dy="0.32em">250</text></g><g class="tick" opacity="1" transform="translate(0,152.10526315789474)"><line stroke="#000" x2="-6" y1="0.5" y2="0.5"></line><text fill="#000" x="-9" y="0.5" dy="0.32em">300</text></g><g class="tick" opacity="1" transform="translate(0,125.78947368421055)"><line stroke="#000" x2="-6" y1="0.5" y2="0.5"></line><text fill="#000" x="-9" y="0.5" dy="0.32em">350</text></g><g class="tick" opacity="1" transform="translate(0,99.47368421052633)"><line stroke="#000" x2="-6" y1="0.5" y2="0.5"></line><text fill="#000" x="-9" y="0.5" dy="0.32em">400</text></g><g class="tick" opacity="1" transform="translate(0,73.15789473684211)"><line stroke="#000" x2="-6" y1="0.5" y2="0.5"></line><text fill="#000" x="-9" y="0.5" dy="0.32em">450</text></g><g class="tick" opacity="1" transform="translate(0,46.84210526315786)"><line stroke="#000" x2="-6" y1="0.5" y2="0.5"></line><text fill="#000" x="-9" y="0.5" dy="0.32em">500</text></g><g class="tick" opacity="1" transform="translate(0,20.5263157894737)"><line stroke="#000" x2="-6" y1="0.5" y2="0.5"></line><text fill="#000" x="-9" y="0.5" dy="0.32em">550</text></g></g></g></svg>