<svg xmlns="http://www.w3.org/2000/svg" width="280" height="160"><defs><style type="text/css"><![CDATA[ 
.bar rect {
  fill-opacity: 0;
  stroke:       black;
  stroke-width: 0.5;
}

.highlight rect {
  fill:       red;
  fill-opacity: 1;
}
.axis path,
.axis line {
  fill: none;
  stroke: #000;
  shape-rendering: crispEdges;
}
path {
    stroke: red;
    fill: none;
}

line {
    stroke: red;
}

path.marker {
    fill: red;
}
 ]]></style></defs><g transform="translate(50,10)"><g class="bar" transform="translate(0,120)"><rect x="1" width="11.5" height="0"></rect></g><g class="bar" transform="translate(12.5,119.73823621065752)"><rect x="1" width="11.5" height="0.26176378934248135"></rect></g><g class="bar" transform="translate(25,118.27983795574946)"><rect x="1" width="11.5" height="1.720162044250543"></rect></g><g class="bar" transform="translate(37.5,118.91555001558118)"><rect x="1" width="11.5" height="1.084449984418825"></rect></g><g class="bar" transform="translate(50,102.94795886569025)"><rect x="1" width="11.5" height="17.052041134309746"></rect></g><g class="bar" transform="translate(62.5,20.118416952321596)"><rect x="1" width="11.5" height="99.8815830476784"></rect></g><g class="bar" transform="translate(75,0)"><rect x="1" width="11.5" height="120"></rect></g><g class="bar" transform="translate(87.5,67.83421626674976)"><rect x="1" width="11.5" height="52.16578373325024"></rect></g><g class="bar" transform="translate(100,97.71268307884077)"><rect x="1" width="11.5" height="22.28731692115923"></rect></g><g class="bar" transform="translate(112.5,103.17232782798379)"><rect x="1" width="11.5" height="16.827672172016207"></rect></g><g class="bar" transform="translate(125,112.07229666562792)"><rect x="1" width="11.5" height="7.927703334372083"></rect></g><g class="bar" transform="translate(137.5,118.76597070738548)"><rect x="1" width="11.5" height="1.2340292926145224"></rect></g><g class="bar" transform="translate(150,120)"><rect x="1" width="11.5" height="0"></rect></g><g class="bar" transform="translate(162.5,120)"><rect x="1" width="11.5" height="0"></rect></g><g class="bar" transform="translate(175,120)"><rect x="1" width="11.5" height="0"></rect></g><g class="bar" transform="translate(187.5,120)"><rect x="1" width="11.5" height="0"></rect></g></g></svg>