<svg xmlns="http://www.w3.org/2000/svg" width="600" height="350"><defs><style type="text/css"><![CDATA[ 
.bar rect {
  fill-opacity: 0;
  stroke:       black;
  stroke-width: 0.5;
}

.highlight rect {
  fill:       red;
  fill-opacity: 1;
}
.axis path,
.axis line {
  fill: none;
  stroke: #000;
  shape-rendering: crispEdges;
}
path {
    stroke: red;
    fill: none;
}

line {
    stroke: red;
}

path.marker {
    fill: red;
}
 ]]></style></defs><g transform="translate(50,10)"><g class="bar" transform="translate(0,310)"><rect x="1" width="5.500000000000005" height="0"></rect></g><g class="bar" transform="translate(6.500000000000005,310)"><rect x="1" width="5.500000000000005" height="0"></rect></g><g class="bar" transform="translate(12.999999999999996,310)"><rect x="1" width="5.500000000000005" height="0"></rect></g><g class="bar" transform="translate(19.500000000000004,310)"><rect x="1" width="5.500000000000005" height="0"></rect></g><g class="bar" transform="translate(25.999999999999993,310)"><rect x="1" width="5.500000000000005" height="0"></rect></g><g class="bar" transform="translate(32.5,310)"><rect x="1" width="5.500000000000005" height="0"></rect></g><g class="bar" transform="translate(39.00000000000001,310)"><rect x="1" width="5.500000000000005" height="0"></rect></g><g class="bar" transform="translate(45.500000000000014,310)"><rect x="1" width="5.500000000000005" height="0"></rect></g><g class="bar" transform="translate(52,310)"><rect x="1" width="5.500000000000005" height="0"></rect></g><g class="bar" transform="translate(58.49999999999999,310)"><rect x="1" width="5.500000000000005" height="0"></rect></g><g class="bar" transform="translate(65,310)"><rect x="1" width="5.500000000000005" height="0"></rect></g><g class="bar" transform="translate(71.5,310)"><rect x="1" width="5.500000000000005" height="0"></rect></g><g class="bar" transform="translate(78.00000000000001,309.0402476780186)"><rect x="1" width="5.500000000000005" height="0.9597523219813979"></rect></g><g class="bar" transform="translate(84.5,310)"><rect x="1" width="5.500000000000005" height="0"></rect></g><g class="bar" transform="translate(91.00000000000001,310)"><rect x="1" width="5.500000000000005" height="0"></rect></g><g class="bar" transform="translate(97.5,309.0402476780186)"><rect x="1" width="5.500000000000005" height="0.9597523219813979"></rect></g><g class="bar" transform="translate(104,309.0402476780186)"><rect x="1" width="5.500000000000005" height="0.9597523219813979"></rect></g><g class="bar" transform="translate(110.50000000000001,307.12074303405575)"><rect x="1" width="5.500000000000005" height="2.8792569659442506"></rect></g><g class="bar" transform="translate(117,308.08049535603715)"><rect x="1" width="5.500000000000005" height="1.9195046439628527"></rect></g><g class="bar" transform="translate(123.50000000000001,305.2012383900929)"><rect x="1" width="5.500000000000005" height="4.798761609907103"></rect></g><g class="bar" transform="translate(130,298.4829721362229)"><rect x="1" width="5.500000000000005" height="11.517027863777116"></rect></g><g class="bar" transform="translate(136.5,297.5232198142415)"><rect x="1" width="5.500000000000005" height="12.476780185758514"></rect></g><g class="bar" transform="translate(143,289.8452012383901)"><rect x="1" width="5.500000000000005" height="20.154798761609925"></rect></g><g class="bar" transform="translate(149.50000000000003,265.8513931888545)"><rect x="1" width="5.500000000000005" height="44.1486068111455"></rect></g><g class="bar" transform="translate(156.00000000000003,246.656346749226)"><rect x="1" width="5.500000000000005" height="63.343653250774"></rect></g><g class="bar" transform="translate(162.5,212.10526315789474)"><rect x="1" width="5.500000000000005" height="97.89473684210526"></rect></g><g class="bar" transform="translate(169,181.39318885448915)"><rect x="1" width="5.500000000000005" height="128.60681114551085"></rect></g><g class="bar" transform="translate(175.5,138.20433436532508)"><rect x="1" width="5.500000000000005" height="171.79566563467492"></rect></g><g class="bar" transform="translate(182.00000000000003,93.09597523219816)"><rect x="1" width="5.500000000000005" height="216.90402476780184"></rect></g><g class="bar" transform="translate(188.50000000000003,90.21671826625388)"><rect x="1" width="5.500000000000005" height="219.78328173374612"></rect></g><g class="bar" transform="translate(195,71.9814241486068)"><rect x="1" width="5.500000000000005" height="238.0185758513932"></rect></g><g class="bar" transform="translate(201.5,45.10835913312695)"><rect x="1" width="5.500000000000005" height="264.89164086687305"></rect></g><g class="bar" transform="translate(208,0)"><rect x="1" width="5.500000000000005" height="310"></rect></g><g class="bar" transform="translate(214.50000000000003,36.470588235294144)"><rect x="1" width="5.500000000000005" height="273.52941176470586"></rect></g><g class="bar" transform="translate(221.00000000000003,64.3034055727554)"><rect x="1" width="5.500000000000005" height="245.6965944272446"></rect></g><g class="bar" transform="translate(227.5,47.02786377708975)"><rect x="1" width="5.500000000000005" height="262.97213622291025"></rect></g><g class="bar" transform="translate(234,51.82662538699691)"><rect x="1" width="5.500000000000005" height="258.1733746130031"></rect></g><g class="bar" transform="translate(240.5,73.90092879256966)"><rect x="1" width="5.500000000000005" height="236.09907120743034"></rect></g><g class="bar" transform="translate(247.00000000000003,69.10216718266255)"><rect x="1" width="5.500000000000005" height="240.89783281733745"></rect></g><g class="bar" transform="translate(253.50000000000003,71.02167182662538)"><rect x="1" width="5.500000000000005" height="238.97832817337462"></rect></g><g class="bar" transform="translate(260,84.45820433436535)"><rect x="1" width="5.500000000000005" height="225.54179566563465"></rect></g><g class="bar" transform="translate(266.50000000000006,107.4922600619195)"><rect x="1" width="5.500000000000005" height="202.5077399380805"></rect></g><g class="bar" transform="translate(273,143.96284829721364)"><rect x="1" width="5.500000000000005" height="166.03715170278636"></rect></g><g class="bar" transform="translate(279.5,117.08978328173376)"><rect x="1" width="5.500000000000005" height="192.91021671826624"></rect></g><g class="bar" transform="translate(286,149.72136222910217)"><rect x="1" width="5.500000000000005" height="160.27863777089783"></rect></g><g class="bar" transform="translate(292.5,166.0371517027864)"><rect x="1" width="5.500000000000005" height="143.9628482972136"></rect></g><g class="bar" transform="translate(299.00000000000006,191.95046439628481)"><rect x="1" width="5.500000000000005" height="118.04953560371519"></rect></g><g class="bar" transform="translate(305.5,219.78328173374615)"><rect x="1" width="5.500000000000005" height="90.21671826625385"></rect></g><g class="bar" transform="translate(312.00000000000006,242.81733746130033)"><rect x="1" width="5.500000000000005" height="67.18266253869967"></rect></g><g class="bar" transform="translate(318.5,256.25386996904024)"><rect x="1" width="5.500000000000005" height="53.74613003095976"></rect></g><g class="bar" transform="translate(325,259.1331269349845)"><rect x="1" width="5.500000000000005" height="50.86687306501551"></rect></g><g class="bar" transform="translate(331.50000000000006,273.52941176470586)"><rect x="1" width="5.500000000000005" height="36.470588235294144"></rect></g><g class="bar" transform="translate(338,287.9256965944272)"><rect x="1" width="5.500000000000005" height="22.074303405572778"></rect></g><g class="bar" transform="translate(344.50000000000006,290.80495356037153)"><rect x="1" width="5.500000000000005" height="19.19504643962847"></rect></g><g class="bar" transform="translate(351,291.7647058823529)"><rect x="1" width="5.500000000000005" height="18.235294117647072"></rect></g><g class="bar" transform="translate(357.5,300.40247678018574)"><rect x="1" width="5.500000000000005" height="9.597523219814263"></rect></g><g class="bar" transform="translate(364.00000000000006,297.5232198142415)"><rect x="1" width="5.500000000000005" height="12.476780185758514"></rect></g><g class="bar" transform="translate(370.5,307.12074303405575)"><rect x="1" width="5.500000000000005" height="2.8792569659442506"></rect></g><g class="bar" transform="translate(377.00000000000006,308.08049535603715)"><rect x="1" width="5.500000000000005" height="1.9195046439628527"></rect></g><g class="bar" transform="translate(383.5,308.08049535603715)"><rect x="1" width="5.500000000000005" height="1.9195046439628527"></rect></g><g class="bar" transform="translate(390,309.0402476780186)"><rect x="1" width="5.500000000000005" height="0.9597523219813979"></rect></g><g class="bar" transform="translate(396.50000000000006,309.0402476780186)"><rect x="1" width="5.500000000000005" height="0.9597523219813979"></rect></g><g class="bar" transform="translate(403,310)"><rect x="1" width="5.500000000000005" height="0"></rect></g><g class="bar" transform="translate(409.50000000000006,310)"><rect x="1" width="5.500000000000005" height="0"></rect></g><g class="bar" transform="translate(416,310)"><rect x="1" width="5.500000000000005" height="0"></rect></g><g class="bar" transform="translate(422.5,309.0402476780186)"><rect x="1" width="5.500000000000005" height="0.9597523219813979"></rect></g><g class="bar" transform="translate(429.00000000000006,310)"><rect x="1" width="5.500000000000005" height="0"></rect></g><g class="bar" transform="translate(435.5,310)"><rect x="1" width="5.500000000000005" height="0"></rect></g><g class="bar" transform="translate(442.00000000000006,310)"><rect x="1" width="5.500000000000005" height="0"></rect></g><g class="bar" transform="translate(448.5,310)"><rect x="1" width="5.500000000000005" height="0"></rect></g><g class="bar" transform="translate(455,310)"><rect x="1" width="5.500000000000005" height="0"></rect></g><g class="bar" transform="translate(461.50000000000006,310)"><rect x="1" width="5.500000000000005" height="0"></rect></g><g class="bar" transform="translate(468,310)"><rect x="1" width="5.500000000000005" height="0"></rect></g><g class="bar" transform="translate(474.50000000000006,310)"><rect x="1" width="5.500000000000005" height="0"></rect></g><g class="bar" transform="translate(481,310)"><rect x="1" width="5.500000000000005" height="0"></rect></g><g class="bar" transform="translate(487.5,310)"><rect x="1" width="5.500000000000005" height="0"></rect></g><g class="bar" transform="translate(494.00000000000006,310)"><rect x="1" width="5.500000000000005" height="0"></rect></g><g class="bar" transform="translate(500.5,310)"><rect x="1" width="5.500000000000005" height="0"></rect></g><g class="bar" transform="translate(507.00000000000006,310)"><rect x="1" width="5.500000000000005" height="0"></rect></g><g class="bar" transform="translate(513.5,310)"><rect x="1" width="5.500000000000005" height="0"></rect></g><g class="axis axis--x" transform="translate(0,310)" fill="none" font-size="10" font-family="sans-serif" text-anchor="middle"><path class="domain" stroke="#000" d="M0.5,6V0.5H520.5V6"></path><g class="tick" opacity="1" transform="translate(0.5,0)"><line stroke="#000" y2="6"></line><text fill="#000" y="9" dy="0.71em">0.01</text></g><g class="tick" opacity="1" transform="translate(130.5,0)"><line stroke="#000" y2="6"></line><text fill="#000" y="9" dy="0.71em">1</text></g><g class="tick" opacity="1" transform="translate(260.5,0)"><line stroke="#000" y2="6"></line><text fill="#000" y="9" dy="0.71em">100</text></g><g class="tick" opacity="1" transform="translate(390.5,0)"><line stroke="#000" y2="6"></line><text fill="#000" y="9" dy="0.71em">10000</text></g><g class="tick" opacity="1" transform="translate(520.5,0)"><line stroke="#000" y2="6"></line><text fill="#000" y="9" dy="0.71em"></text></g></g><g class="axis axis--y" fill="none" font-size="10" font-family="sans-serif" text-anchor="end"><path class="domain" stroke="#000" d="M-6,310.5H0.5V0.5H-6"></path><g class="tick" opacity="1" transform="translate(0,310.5)"><line stroke="#000" x2="-6"></line><text fill="#000" x="-9" dy="0.32em">0</text></g><g class="tick" opacity="1" transform="translate(0,262.5123839009288)"><line stroke="#000" x2="-6"></line><text fill="#000" x="-9" dy="0.32em">50</text></g><g class="tick" opacity="1" transform="translate(0,214.5247678018576)"><line stroke="#000" x2="-6"></line><text fill="#000" x="-9" dy="0.32em">100</text></g><g class="tick" opacity="1" transform="translate(0,166.5371517027864)"><line stroke="#000" x2="-6"></line><text fill="#000" x="-9" dy="0.32em">150</text></g><g class="tick" opacity="1" transform="translate(0,118.54953560371516)"><line stroke="#000" x2="-6"></line><text fill="#000" x="-9" dy="0.32em">200</text></g><g class="tick" opacity="1" transform="translate(0,70.56191950464395)"><line stroke="#000" x2="-6"></line><text fill="#000" x="-9" dy="0.32em">250</text></g><g class="tick" opacity="1" transform="translate(0,22.574303405572778)"><line stroke="#000" x2="-6"></line><text fill="#000" x="-9" dy="0.32em">300</text></g></g></g></svg>