<svg xmlns="http://www.w3.org/2000/svg" width="600" height="350"><defs><style type="text/css"><![CDATA[ 
.bar rect {
  fill-opacity: 0;
  stroke:       black;
  stroke-width: 0.5;
}

.highlight rect {
  fill:       red;
  fill-opacity: 1;
}
.axis path,
.axis line {
  fill: none;
  stroke: #000;
  shape-rendering: crispEdges;
}
path {
    stroke: red;
    fill: none;
}

line {
    stroke: red;
}

path.marker {
    fill: red;
}
 ]]></style></defs><g transform="translate(50,10)"><g class="bar" transform="translate(0,265.2091254752852)"><rect x="1" width="11.999999999999996" height="44.79087452471481"></rect></g><g class="bar" transform="translate(12.999999999999996,276.99619771863115)"><rect x="1" width="11.999999999999996" height="33.00380228136885"></rect></g><g class="bar" transform="translate(25.999999999999993,306.4638783269962)"><rect x="1" width="11.999999999999996" height="3.5361216730037768"></rect></g><g class="bar" transform="translate(39.00000000000001,294.6768060836502)"><rect x="1" width="11.999999999999996" height="15.323193916349794"></rect></g><g class="bar" transform="translate(52,284.06844106463876)"><rect x="1" width="11.999999999999996" height="25.931558935361238"></rect></g><g class="bar" transform="translate(65,264.03041825095056)"><rect x="1" width="11.999999999999996" height="45.96958174904944"></rect></g><g class="bar" transform="translate(78.00000000000001,269.9239543726236)"><rect x="1" width="11.999999999999996" height="40.0760456273764"></rect></g><g class="bar" transform="translate(91.00000000000001,206.27376425855516)"><rect x="1" width="11.999999999999996" height="103.72623574144484"></rect></g><g class="bar" transform="translate(104,168.5551330798479)"><rect x="1" width="11.999999999999996" height="141.4448669201521"></rect></g><g class="bar" transform="translate(117,169.7338403041825)"><rect x="1" width="11.999999999999996" height="140.2661596958175"></rect></g><g class="bar" transform="translate(130,149.6958174904943)"><rect x="1" width="11.999999999999996" height="160.3041825095057"></rect></g><g class="bar" transform="translate(143,94.29657794676808)"><rect x="1" width="11.999999999999996" height="215.70342205323192"></rect></g><g class="bar" transform="translate(156.00000000000003,87.22433460076044)"><rect x="1" width="11.999999999999996" height="222.77566539923956"></rect></g><g class="bar" transform="translate(169,30.646387832699588)"><rect x="1" width="11.999999999999996" height="279.3536121673004"></rect></g><g class="bar" transform="translate(182.00000000000003,0)"><rect x="1" width="11.999999999999996" height="310"></rect></g><g class="bar" transform="translate(195,4.714828897338407)"><rect x="1" width="11.999999999999996" height="305.2851711026616"></rect></g><g class="bar" transform="translate(208,3.5361216730037768)"><rect x="1" width="11.999999999999996" height="306.4638783269962"></rect></g><g class="bar" transform="translate(221.00000000000003,22.395437262357405)"><rect x="1" width="11.999999999999996" height="287.6045627376426"></rect></g><g class="bar" transform="translate(234,5.893536121673037)"><rect x="1" width="11.999999999999996" height="304.10646387832696"></rect></g><g class="bar" transform="translate(247.00000000000003,29.467680608365015)"><rect x="1" width="11.999999999999996" height="280.532319391635"></rect></g><g class="bar" transform="translate(260,23.574144486692035)"><rect x="1" width="11.999999999999996" height="286.42585551330797"></rect></g><g class="bar" transform="translate(273,94.29657794676808)"><rect x="1" width="11.999999999999996" height="215.70342205323192"></rect></g><g class="bar" transform="translate(286,104.90494296577947)"><rect x="1" width="11.999999999999996" height="205.09505703422053"></rect></g><g class="bar" transform="translate(299.00000000000006,126.1216730038023)"><rect x="1" width="11.999999999999996" height="183.8783269961977"></rect></g><g class="bar" transform="translate(312.00000000000006,208.6311787072243)"><rect x="1" width="11.999999999999996" height="101.36882129277569"></rect></g><g class="bar" transform="translate(325,182.69961977186313)"><rect x="1" width="11.999999999999996" height="127.30038022813687"></rect></g><g class="bar" transform="translate(338,223.95437262357416)"><rect x="1" width="11.999999999999996" height="86.04562737642584"></rect></g><g class="bar" transform="translate(351,264.03041825095056)"><rect x="1" width="11.999999999999996" height="45.96958174904944"></rect></g><g class="bar" transform="translate(364.00000000000006,288.78326996197717)"><rect x="1" width="11.999999999999996" height="21.21673003802283"></rect></g><g class="bar" transform="translate(377.00000000000006,297.0342205323194)"><rect x="1" width="11.999999999999996" height="12.96577946768059"></rect></g><g class="bar" transform="translate(390,305.2851711026616)"><rect x="1" width="11.999999999999996" height="4.714828897338407"></rect></g><g class="bar" transform="translate(403,310)"><rect x="1" width="11.999999999999996" height="0"></rect></g><g class="bar" transform="translate(416,310)"><rect x="1" width="11.999999999999996" height="0"></rect></g><g class="bar" transform="translate(429.00000000000006,308.8212927756654)"><rect x="1" width="11.999999999999996" height="1.1787072243345733"></rect></g><g class="bar" transform="translate(442.00000000000006,310)"><rect x="1" width="11.999999999999996" height="0"></rect></g><g class="bar" transform="translate(455,310)"><rect x="1" width="11.999999999999996" height="0"></rect></g><g class="bar" transform="translate(468,310)"><rect x="1" width="11.999999999999996" height="0"></rect></g><g class="bar" transform="translate(481,310)"><rect x="1" width="11.999999999999996" height="0"></rect></g><g class="bar" transform="translate(494.00000000000006,310)"><rect x="1" width="11.999999999999996" height="0"></rect></g><g class="bar" transform="translate(507.00000000000006,310)"><rect x="1" width="11.999999999999996" height="0"></rect></g><g class="axis axis--x" transform="translate(0,310)" fill="none" font-size="10" font-family="sans-serif" text-anchor="middle"><path class="domain" stroke="#000" d="M0.5,6V0.5H520.5V6"></path><g class="tick" opacity="1" transform="translate(0.5,0)"><line stroke="#000" y2="6"></line><text fill="#000" y="9" dy="0.71em">0.01</text></g><g class="tick" opacity="1" transform="translate(130.5,0)"><line stroke="#000" y2="6"></line><text fill="#000" y="9" dy="0.71em">1</text></g><g class="tick" opacity="1" transform="translate(260.5,0)"><line stroke="#000" y2="6"></line><text fill="#000" y="9" dy="0.71em">100</text></g><g class="tick" opacity="1" transform="translate(390.5,0)"><line stroke="#000" y2="6"></line><text fill="#000" y="9" dy="0.71em">10000</text></g><g class="tick" opacity="1" transform="translate(520.5,0)"><line stroke="#000" y2="6"></line><text fill="#000" y="9" dy="0.71em"></text></g></g><g class="axis axis--y" fill="none" font-size="10" font-family="sans-serif" text-anchor="end"><path class="domain" stroke="#000" d="M-6,310.5H0.5V0.5H-6"></path><g class="tick" opacity="1" transform="translate(0,310.5)"><line stroke="#000" x2="-6"></line><text fill="#000" x="-9" dy="0.32em">0</text></g><g class="tick" opacity="1" transform="translate(0,286.92585551330797)"><line stroke="#000" x2="-6"></line><text fill="#000" x="-9" dy="0.32em">20</text></g><g class="tick" opacity="1" transform="translate(0,263.351711026616)"><line stroke="#000" x2="-6"></line><text fill="#000" x="-9" dy="0.32em">40</text></g><g class="tick" opacity="1" transform="translate(0,239.77756653992395)"><line stroke="#000" x2="-6"></line><text fill="#000" x="-9" dy="0.32em">60</text></g><g class="tick" opacity="1" transform="translate(0,216.20342205323195)"><line stroke="#000" x2="-6"></line><text fill="#000" x="-9" dy="0.32em">80</text></g><g class="tick" opacity="1" transform="translate(0,192.62927756653994)"><line stroke="#000" x2="-6"></line><text fill="#000" x="-9" dy="0.32em">100</text></g><g class="tick" opacity="1" transform="translate(0,169.0551330798479)"><line stroke="#000" x2="-6"></line><text fill="#000" x="-9" dy="0.32em">120</text></g><g class="tick" opacity="1" transform="translate(0,145.4809885931559)"><line stroke="#000" x2="-6"></line><text fill="#000" x="-9" dy="0.32em">140</text></g><g class="tick" opacity="1" transform="translate(0,121.9068441064639)"><line stroke="#000" x2="-6"></line><text fill="#000" x="-9" dy="0.32em">160</text></g><g class="tick" opacity="1" transform="translate(0,98.33269961977189)"><line stroke="#000" x2="-6"></line><text fill="#000" x="-9" dy="0.32em">180</text></g><g class="tick" opacity="1" transform="translate(0,74.75855513307985)"><line stroke="#000" x2="-6"></line><text fill="#000" x="-9" dy="0.32em">200</text></g><g class="tick" opacity="1" transform="translate(0,51.184410646387846)"><line stroke="#000" x2="-6"></line><text fill="#000" x="-9" dy="0.32em">220</text></g><g class="tick" opacity="1" transform="translate(0,27.61026615969581)"><line stroke="#000" x2="-6"></line><text fill="#000" x="-9" dy="0.32em">240</text></g><g class="tick" opacity="1" transform="translate(0,4.036121673003777)"><line stroke="#000" x2="-6"></line><text fill="#000" x="-9" dy="0.32em">260</text></g></g></g></svg>