<svg xmlns="http://www.w3.org/2000/svg" width="600" height="350"><defs><style type="text/css"><![CDATA[ 
.bar rect {
  fill-opacity: 0;
  stroke:       black;
  stroke-width: 0.5;
}

.highlight rect {
  fill:       red;
  fill-opacity: 1;
}
.axis path,
.axis line {
  fill: none;
  stroke: #000;
  shape-rendering: crispEdges;
}
path {
    stroke: red;
    fill: none;
}

line {
    stroke: red;
}

path.marker {
    fill: red;
}
 ]]></style></defs><g transform="translate(50,10)"><g class="bar" transform="translate(0,310)"><rect x="1" width="11.999999999999996" height="0"></rect></g><g class="bar" transform="translate(12.999999999999996,310)"><rect x="1" width="11.999999999999996" height="0"></rect></g><g class="bar" transform="translate(25.999999999999993,310)"><rect x="1" width="11.999999999999996" height="0"></rect></g><g class="bar" transform="translate(39.00000000000001,310)"><rect x="1" width="11.999999999999996" height="0"></rect></g><g class="bar" transform="translate(52,310)"><rect x="1" width="11.999999999999996" height="0"></rect></g><g class="bar" transform="translate(65,308.3106267029973)"><rect x="1" width="11.999999999999996" height="1.6893732970027031"></rect></g><g class="bar" transform="translate(78.00000000000001,289.7275204359673)"><rect x="1" width="11.999999999999996" height="20.27247956403272"></rect></g><g class="bar" transform="translate(91.00000000000001,296.4850136239782)"><rect x="1" width="11.999999999999996" height="13.514986376021795"></rect></g><g class="bar" transform="translate(104,291.41689373297004)"><rect x="1" width="11.999999999999996" height="18.58310626702996"></rect></g><g class="bar" transform="translate(117,282.9700272479564)"><rect x="1" width="11.999999999999996" height="27.02997275204359"></rect></g><g class="bar" transform="translate(130,255.94005449591282)"><rect x="1" width="11.999999999999996" height="54.05994550408718"></rect></g><g class="bar" transform="translate(143,233.9782016348774)"><rect x="1" width="11.999999999999996" height="76.0217983651226"></rect></g><g class="bar" transform="translate(156.00000000000003,189.2098092643052)"><rect x="1" width="11.999999999999996" height="120.79019073569481"></rect></g><g class="bar" transform="translate(169,152.8882833787466)"><rect x="1" width="11.999999999999996" height="157.1117166212534"></rect></g><g class="bar" transform="translate(182.00000000000003,96.29427792915533)"><rect x="1" width="11.999999999999996" height="213.70572207084467"></rect></g><g class="bar" transform="translate(195,73.48773841961852)"><rect x="1" width="11.999999999999996" height="236.51226158038148"></rect></g><g class="bar" transform="translate(208,68.41961852861036)"><rect x="1" width="11.999999999999996" height="241.58038147138964"></rect></g><g class="bar" transform="translate(221.00000000000003,34.63215258855587)"><rect x="1" width="11.999999999999996" height="275.36784741144413"></rect></g><g class="bar" transform="translate(234,8.44686648501363)"><rect x="1" width="11.999999999999996" height="301.55313351498637"></rect></g><g class="bar" transform="translate(247.00000000000003,8.44686648501363)"><rect x="1" width="11.999999999999996" height="301.55313351498637"></rect></g><g class="bar" transform="translate(260,0)"><rect x="1" width="11.999999999999996" height="310"></rect></g><g class="bar" transform="translate(273,70.10899182561309)"><rect x="1" width="11.999999999999996" height="239.8910081743869"></rect></g><g class="bar" transform="translate(286,87.84741144414167)"><rect x="1" width="11.999999999999996" height="222.15258855585833"></rect></g><g class="bar" transform="translate(299.00000000000006,140.21798365122618)"><rect x="1" width="11.999999999999996" height="169.78201634877382"></rect></g><g class="bar" transform="translate(312.00000000000006,201.88010899182564)"><rect x="1" width="11.999999999999996" height="108.11989100817436"></rect></g><g class="bar" transform="translate(325,227.22070844686647)"><rect x="1" width="11.999999999999996" height="82.77929155313353"></rect></g><g class="bar" transform="translate(338,265.2316076294278)"><rect x="1" width="11.999999999999996" height="44.7683923705722"></rect></g><g class="bar" transform="translate(351,287.1934604904632)"><rect x="1" width="11.999999999999996" height="22.806539509536776"></rect></g><g class="bar" transform="translate(364.00000000000006,299.0190735694823)"><rect x="1" width="11.999999999999996" height="10.980926430517684"></rect></g><g class="bar" transform="translate(377.00000000000006,304.0871934604905)"><rect x="1" width="11.999999999999996" height="5.912806539509518"></rect></g><g class="bar" transform="translate(390,306.62125340599454)"><rect x="1" width="11.999999999999996" height="3.378746594005463"></rect></g><g class="bar" transform="translate(403,308.3106267029973)"><rect x="1" width="11.999999999999996" height="1.6893732970027031"></rect></g><g class="bar" transform="translate(416,309.15531335149865)"><rect x="1" width="11.999999999999996" height="0.8446866485013516"></rect></g><g class="bar" transform="translate(429.00000000000006,310)"><rect x="1" width="11.999999999999996" height="0"></rect></g><g class="bar" transform="translate(442.00000000000006,310)"><rect x="1" width="11.999999999999996" height="0"></rect></g><g class="bar" transform="translate(455,310)"><rect x="1" width="11.999999999999996" height="0"></rect></g><g class="bar" transform="translate(468,310)"><rect x="1" width="11.999999999999996" height="0"></rect></g><g class="bar" transform="translate(481,310)"><rect x="1" width="11.999999999999996" height="0"></rect></g><g class="bar" transform="translate(494.00000000000006,310)"><rect x="1" width="11.999999999999996" height="0"></rect></g><g class="bar" transform="translate(507.00000000000006,310)"><rect x="1" width="11.999999999999996" height="0"></rect></g><g class="axis axis--x" transform="translate(0,310)" fill="none" font-size="10" font-family="sans-serif" text-anchor="middle"><path class="domain" stroke="#000" d="M0.5,6V0.5H520.5V6"></path><g class="tick" opacity="1" transform="translate(0.5,0)"><line stroke="#000" y2="6"></line><text fill="#000" y="9" dy="0.71em">0.01</text></g><g class="tick" opacity="1" transform="translate(130.5,0)"><line stroke="#000" y2="6"></line><text fill="#000" y="9" dy="0.71em">1</text></g><g class="tick" opacity="1" transform="translate(260.5,0)"><line stroke="#000" y2="6"></line><text fill="#000" y="9" dy="0.71em">100</text></g><g class="tick" opacity="1" transform="translate(390.5,0)"><line stroke="#000" y2="6"></line><text fill="#000" y="9" dy="0.71em">10000</text></g><g class="tick" opacity="1" transform="translate(520.5,0)"><line stroke="#000" y2="6"></line><text fill="#000" y="9" dy="0.71em"></text></g></g><g class="axis axis--y" fill="none" font-size="10" font-family="sans-serif" text-anchor="end"><path class="domain" stroke="#000" d="M-6,310.5H0.5V0.5H-6"></path><g class="tick" opacity="1" transform="translate(0,310.5)"><line stroke="#000" x2="-6"></line><text fill="#000" x="-9" dy="0.32em">0</text></g><g class="tick" opacity="1" transform="translate(0,268.26566757493185)"><line stroke="#000" x2="-6"></line><text fill="#000" x="-9" dy="0.32em">50</text></g><g class="tick" opacity="1" transform="translate(0,226.03133514986376)"><line stroke="#000" x2="-6"></line><text fill="#000" x="-9" dy="0.32em">100</text></g><g class="tick" opacity="1" transform="translate(0,183.79700272479565)"><line stroke="#000" x2="-6"></line><text fill="#000" x="-9" dy="0.32em">150</text></g><g class="tick" opacity="1" transform="translate(0,141.5626702997275)"><line stroke="#000" x2="-6"></line><text fill="#000" x="-9" dy="0.32em">200</text></g><g class="tick" opacity="1" transform="translate(0,99.32833787465941)"><line stroke="#000" x2="-6"></line><text fill="#000" x="-9" dy="0.32em">250</text></g><g class="tick" opacity="1" transform="translate(0,57.09400544959129)"><line stroke="#000" x2="-6"></line><text fill="#000" x="-9" dy="0.32em">300</text></g><g class="tick" opacity="1" transform="translate(0,14.859673024523147)"><line stroke="#000" x2="-6"></line><text fill="#000" x="-9" dy="0.32em">350</text></g></g></g></svg>