<svg xmlns="http://www.w3.org/2000/svg" width="280" height="160"><defs><style type="text/css"><![CDATA[ 
.bar rect {
  fill-opacity: 0;
  stroke:       black;
  stroke-width: 0.5;
}

.highlight rect {
  fill:       red;
  fill-opacity: 1;
}
.axis path,
.axis line {
  fill: none;
  stroke: #000;
  shape-rendering: crispEdges;
}
path {
    stroke: red;
    fill: none;
}

line {
    stroke: red;
}

path.marker {
    fill: red;
}
 ]]></style></defs><g transform="translate(50,10)"><g class="bar" transform="translate(0,112.25806451612902)"><rect x="1" width="11.5" height="7.741935483870975"></rect></g><g class="bar" transform="translate(12.5,100.48043925875086)"><rect x="1" width="11.5" height="19.519560741249137"></rect></g><g class="bar" transform="translate(25,77.33699382292382)"><rect x="1" width="11.5" height="42.663006177076184"></rect></g><g class="bar" transform="translate(37.5,48.263555250514756)"><rect x="1" width="11.5" height="71.73644474948524"></rect></g><g class="bar" transform="translate(50,23.71997254632808)"><rect x="1" width="11.5" height="96.28002745367192"></rect></g><g class="bar" transform="translate(62.5,0)"><rect x="1" width="11.5" height="120"></rect></g><g class="bar" transform="translate(75,3.0473575840768774)"><rect x="1" width="11.5" height="116.95264241592312"></rect></g><g class="bar" transform="translate(87.5,17.70761839396019)"><rect x="1" width="11.5" height="102.29238160603981"></rect></g><g class="bar" transform="translate(100,36.321207961564866)"><rect x="1" width="11.5" height="83.67879203843513"></rect></g><g class="bar" transform="translate(112.5,77.83115991763898)"><rect x="1" width="11.5" height="42.168840082361015"></rect></g><g class="bar" transform="translate(125,105.66918325326012)"><rect x="1" width="11.5" height="14.330816746739885"></rect></g><g class="bar" transform="translate(137.5,117.85861358956761)"><rect x="1" width="11.5" height="2.141386410432389"></rect></g><g class="bar" transform="translate(150,119.91763898421414)"><rect x="1" width="11.5" height="0.08236101578586386"></rect></g><g class="bar" transform="translate(162.5,120)"><rect x="1" width="11.5" height="0"></rect></g><g class="bar" transform="translate(175,120)"><rect x="1" width="11.5" height="0"></rect></g><g class="bar" transform="translate(187.5,120)"><rect x="1" width="11.5" height="0"></rect></g></g></svg>