<svg xmlns="http://www.w3.org/2000/svg" width="280" height="160"><defs><style type="text/css"><![CDATA[ 
.bar rect {
  fill-opacity: 0;
  stroke:       black;
  stroke-width: 0.5;
}

.highlight rect {
  fill:       red;
  fill-opacity: 1;
}
.axis path,
.axis line {
  fill: none;
  stroke: #000;
  shape-rendering: crispEdges;
}
 ]]></style></defs><g transform="translate(50,10)"><g class="bar" transform="translate(0,120)"><rect x="1" width="11.5" height="0"></rect></g><g class="bar" transform="translate(12.5,119.33884297520662)"><rect x="1" width="11.5" height="0.6611570247933827"></rect></g><g class="bar" transform="translate(25,117.68595041322314)"><rect x="1" width="11.5" height="2.3140495867768607"></rect></g><g class="bar" transform="translate(37.5,108.7603305785124)"><rect x="1" width="11.5" height="11.239669421487605"></rect></g><g class="bar" transform="translate(50,103.80165289256198)"><rect x="1" width="11.5" height="16.198347107438025"></rect></g><g class="bar" transform="translate(62.5,76.03305785123968)"><rect x="1" width="11.5" height="43.966942148760324"></rect></g><g class="bar" transform="translate(75,44.95867768595042)"><rect x="1" width="11.5" height="75.04132231404958"></rect></g><g class="bar" transform="translate(87.5,4.297520661157023)"><rect x="1" width="11.5" height="115.70247933884298"></rect></g><g class="bar" transform="translate(100,0)"><rect x="1" width="11.5" height="120"></rect></g><g class="bar" transform="translate(112.5,3.305785123966942)"><rect x="1" width="11.5" height="116.69421487603306"></rect></g><g class="bar" transform="translate(125,67.76859504132231)"><rect x="1" width="11.5" height="52.231404958677686"></rect></g><g class="bar" transform="translate(137.5,108.7603305785124)"><rect x="1" width="11.5" height="11.239669421487605"></rect></g><g class="bar" transform="translate(150,116.03305785123968)"><rect x="1" width="11.5" height="3.9669421487603245"></rect></g><g class="bar" transform="translate(162.5,119.6694214876033)"><rect x="1" width="11.5" height="0.33057851239669844"></rect></g><g class="bar" transform="translate(175,120)"><rect x="1" width="11.5" height="0"></rect></g><g class="bar" transform="translate(187.5,120)"><rect x="1" width="11.5" height="0"></rect></g></g></svg>