<svg xmlns="http://www.w3.org/2000/svg" width="600" height="350"><defs><style type="text/css"><![CDATA[ 
.bar rect {
  fill-opacity: 0;
  stroke:       black;
  stroke-width: 0.5;
}

.highlight rect {
  fill:       red;
  fill-opacity: 1;
}
.axis path,
.axis line {
  fill: none;
  stroke: #000;
  shape-rendering: crispEdges;
}
 ]]></style></defs><g transform="translate(50,10)"><g class="bar" transform="translate(0,310)"><rect x="1" width="11.999999999999996" height="0"></rect></g><g class="bar" transform="translate(12.999999999999996,310)"><rect x="1" width="11.999999999999996" height="0"></rect></g><g class="bar" transform="translate(25.999999999999993,310)"><rect x="1" width="11.999999999999996" height="0"></rect></g><g class="bar" transform="translate(39.00000000000001,310)"><rect x="1" width="11.999999999999996" height="0"></rect></g><g class="bar" transform="translate(52,306.6666666666667)"><rect x="1" width="11.999999999999996" height="3.3333333333333144"></rect></g><g class="bar" transform="translate(65,306.6666666666667)"><rect x="1" width="11.999999999999996" height="3.3333333333333144"></rect></g><g class="bar" transform="translate(78.00000000000001,303.3333333333333)"><rect x="1" width="11.999999999999996" height="6.666666666666686"></rect></g><g class="bar" transform="translate(91.00000000000001,303.3333333333333)"><rect x="1" width="11.999999999999996" height="6.666666666666686"></rect></g><g class="bar" transform="translate(104,303.3333333333333)"><rect x="1" width="11.999999999999996" height="6.666666666666686"></rect></g><g class="bar" transform="translate(117,265)"><rect x="1" width="11.999999999999996" height="45"></rect></g><g class="bar" transform="translate(130,283.3333333333333)"><rect x="1" width="11.999999999999996" height="26.666666666666686"></rect></g><g class="bar" transform="translate(143,271.6666666666667)"><rect x="1" width="11.999999999999996" height="38.333333333333314"></rect></g><g class="bar" transform="translate(156.00000000000003,268.3333333333333)"><rect x="1" width="11.999999999999996" height="41.666666666666686"></rect></g><g class="bar" transform="translate(169,211.66666666666669)"><rect x="1" width="11.999999999999996" height="98.33333333333331"></rect></g><g class="bar" transform="translate(182.00000000000003,211.66666666666669)"><rect x="1" width="11.999999999999996" height="98.33333333333331"></rect></g><g class="bar" transform="translate(195,170)"><rect x="1" width="11.999999999999996" height="140"></rect></g><g class="bar" transform="translate(208,151.66666666666666)"><rect x="1" width="11.999999999999996" height="158.33333333333334"></rect></g><g class="bar" transform="translate(221.00000000000003,94.99999999999997)"><rect x="1" width="11.999999999999996" height="215.00000000000003"></rect></g><g class="bar" transform="translate(234,110)"><rect x="1" width="11.999999999999996" height="200"></rect></g><g class="bar" transform="translate(247.00000000000003,61.666666666666686)"><rect x="1" width="11.999999999999996" height="248.33333333333331"></rect></g><g class="bar" transform="translate(260,51.66666666666663)"><rect x="1" width="11.999999999999996" height="258.33333333333337"></rect></g><g class="bar" transform="translate(273,81.66666666666666)"><rect x="1" width="11.999999999999996" height="228.33333333333334"></rect></g><g class="bar" transform="translate(286,0)"><rect x="1" width="11.999999999999996" height="310"></rect></g><g class="bar" transform="translate(299.00000000000006,85)"><rect x="1" width="11.999999999999996" height="225"></rect></g><g class="bar" transform="translate(312.00000000000006,138.33333333333334)"><rect x="1" width="11.999999999999996" height="171.66666666666666"></rect></g><g class="bar" transform="translate(325,168.33333333333334)"><rect x="1" width="11.999999999999996" height="141.66666666666666"></rect></g><g class="bar" transform="translate(338,221.66666666666666)"><rect x="1" width="11.999999999999996" height="88.33333333333334"></rect></g><g class="bar" transform="translate(351,253.33333333333331)"><rect x="1" width="11.999999999999996" height="56.666666666666686"></rect></g><g class="bar" transform="translate(364.00000000000006,290)"><rect x="1" width="11.999999999999996" height="20"></rect></g><g class="bar" transform="translate(377.00000000000006,296.6666666666667)"><rect x="1" width="11.999999999999996" height="13.333333333333314"></rect></g><g class="bar" transform="translate(390,306.6666666666667)"><rect x="1" width="11.999999999999996" height="3.3333333333333144"></rect></g><g class="bar" transform="translate(403,296.6666666666667)"><rect x="1" width="11.999999999999996" height="13.333333333333314"></rect></g><g class="bar" transform="translate(416,305)"><rect x="1" width="11.999999999999996" height="5"></rect></g><g class="bar" transform="translate(429.00000000000006,310)"><rect x="1" width="11.999999999999996" height="0"></rect></g><g class="bar" transform="translate(442.00000000000006,310)"><rect x="1" width="11.999999999999996" height="0"></rect></g><g class="bar" transform="translate(455,310)"><rect x="1" width="11.999999999999996" height="0"></rect></g><g class="bar" transform="translate(468,310)"><rect x="1" width="11.999999999999996" height="0"></rect></g><g class="bar" transform="translate(481,310)"><rect x="1" width="11.999999999999996" height="0"></rect></g><g class="bar" transform="translate(494.00000000000006,310)"><rect x="1" width="11.999999999999996" height="0"></rect></g><g class="bar" transform="translate(507.00000000000006,310)"><rect x="1" width="11.999999999999996" height="0"></rect></g><g class="axis axis--x" transform="translate(0,310)" fill="none" font-size="10" font-family="sans-serif" text-anchor="middle"><path class="domain" stroke="#000" d="M0.5,6V0.5H520.5V6"></path><g class="tick" opacity="1" transform="translate(0,0)"><line stroke="#000" y2="6" x1="0.5" x2="0.5"></line><text fill="#000" y="9" x="0.5" dy="0.71em">0.01</text></g><g class="tick" opacity="1" transform="translate(130,0)"><line stroke="#000" y2="6" x1="0.5" x2="0.5"></line><text fill="#000" y="9" x="0.5" dy="0.71em">1</text></g><g class="tick" opacity="1" transform="translate(260,0)"><line stroke="#000" y2="6" x1="0.5" x2="0.5"></line><text fill="#000" y="9" x="0.5" dy="0.71em">100</text></g><g class="tick" opacity="1" transform="translate(390,0)"><line stroke="#000" y2="6" x1="0.5" x2="0.5"></line><text fill="#000" y="9" x="0.5" dy="0.71em">10000</text></g><g class="tick" opacity="1" transform="translate(520,0)"><line stroke="#000" y2="6" x1="0.5" x2="0.5"></line><text fill="#000" y="9" x="0.5" dy="0.71em"></text></g></g><g class="axis axis--y" fill="none" font-size="10" font-family="sans-serif" text-anchor="end"><path class="domain" stroke="#000" d="M-6,310.5H0.5V0.5H-6"></path><g class="tick" opacity="1" transform="translate(0,310)"><line stroke="#000" x2="-6" y1="0.5" y2="0.5"></line><text fill="#000" x="-9" y="0.5" dy="0.32em">0</text></g><g class="tick" opacity="1" transform="translate(0,276.6666666666667)"><line stroke="#000" x2="-6" y1="0.5" y2="0.5"></line><text fill="#000" x="-9" y="0.5" dy="0.32em">20</text></g><g class="tick" opacity="1" transform="translate(0,243.33333333333331)"><line stroke="#000" x2="-6" y1="0.5" y2="0.5"></line><text fill="#000" x="-9" y="0.5" dy="0.32em">40</text></g><g class="tick" opacity="1" transform="translate(0,210)"><line stroke="#000" x2="-6" y1="0.5" y2="0.5"></line><text fill="#000" x="-9" y="0.5" dy="0.32em">60</text></g><g class="tick" opacity="1" transform="translate(0,176.66666666666666)"><line stroke="#000" x2="-6" y1="0.5" y2="0.5"></line><text fill="#000" x="-9" y="0.5" dy="0.32em">80</text></g><g class="tick" opacity="1" transform="translate(0,143.33333333333334)"><line stroke="#000" x2="-6" y1="0.5" y2="0.5"></line><text fill="#000" x="-9" y="0.5" dy="0.32em">100</text></g><g class="tick" opacity="1" transform="translate(0,110)"><line stroke="#000" x2="-6" y1="0.5" y2="0.5"></line><text fill="#000" x="-9" y="0.5" dy="0.32em">120</text></g><g class="tick" opacity="1" transform="translate(0,76.66666666666666)"><line stroke="#000" x2="-6" y1="0.5" y2="0.5"></line><text fill="#000" x="-9" y="0.5" dy="0.32em">140</text></g><g class="tick" opacity="1" transform="translate(0,43.333333333333314)"><line stroke="#000" x2="-6" y1="0.5" y2="0.5"></line><text fill="#000" x="-9" y="0.5" dy="0.32em">160</text></g><g class="tick" opacity="1" transform="translate(0,10)"><line stroke="#000" x2="-6" y1="0.5" y2="0.5"></line><text fill="#000" x="-9" y="0.5" dy="0.32em">180</text></g></g></g></svg>