<svg xmlns="http://www.w3.org/2000/svg" width="600" height="350"><defs><style type="text/css"><![CDATA[ 
.bar rect {
  fill-opacity: 0;
  stroke:       black;
  stroke-width: 0.5;
}

.highlight rect {
  fill:       red;
  fill-opacity: 1;
}
.axis path,
.axis line {
  fill: none;
  stroke: #000;
  shape-rendering: crispEdges;
}
path {
    stroke: red;
    fill: none;
}

line {
    stroke: red;
}

path.marker {
    fill: red;
}
 ]]></style></defs><g transform="translate(50,10)"><g class="bar" transform="translate(0,310)"><rect x="1" width="11.999999999999996" height="0"></rect></g><g class="bar" transform="translate(12.999999999999996,310)"><rect x="1" width="11.999999999999996" height="0"></rect></g><g class="bar" transform="translate(25.999999999999993,310)"><rect x="1" width="11.999999999999996" height="0"></rect></g><g class="bar" transform="translate(39.00000000000001,310)"><rect x="1" width="11.999999999999996" height="0"></rect></g><g class="bar" transform="translate(52,308.7866927592955)"><rect x="1" width="11.999999999999996" height="1.2133072407045233"></rect></g><g class="bar" transform="translate(65,304.54011741682973)"><rect x="1" width="11.999999999999996" height="5.45988258317027"></rect></g><g class="bar" transform="translate(78.00000000000001,303.9334637964775)"><rect x="1" width="11.999999999999996" height="6.066536203522503"></rect></g><g class="bar" transform="translate(91.00000000000001,298.4735812133072)"><rect x="1" width="11.999999999999996" height="11.526418786692773"></rect></g><g class="bar" transform="translate(104,290.58708414872797)"><rect x="1" width="11.999999999999996" height="19.412915851272032"></rect></g><g class="bar" transform="translate(117,268.74755381604695)"><rect x="1" width="11.999999999999996" height="41.252446183953055"></rect></g><g class="bar" transform="translate(130,251.1545988258317)"><rect x="1" width="11.999999999999996" height="58.8454011741683"></rect></g><g class="bar" transform="translate(143,206.86888454011742)"><rect x="1" width="11.999999999999996" height="103.13111545988258"></rect></g><g class="bar" transform="translate(156.00000000000003,182.6027397260274)"><rect x="1" width="11.999999999999996" height="127.39726027397259"></rect></g><g class="bar" transform="translate(169,164.4031311154599)"><rect x="1" width="11.999999999999996" height="145.5968688845401"></rect></g><g class="bar" transform="translate(182.00000000000003,134.07045009784736)"><rect x="1" width="11.999999999999996" height="175.92954990215264"></rect></g><g class="bar" transform="translate(195,94.63796477495106)"><rect x="1" width="11.999999999999996" height="215.36203522504894"></rect></g><g class="bar" transform="translate(208,61.87866927592955)"><rect x="1" width="11.999999999999996" height="248.12133072407045"></rect></g><g class="bar" transform="translate(221.00000000000003,18.8062622309198)"><rect x="1" width="11.999999999999996" height="291.1937377690802"></rect></g><g class="bar" transform="translate(234,41.85909980430529)"><rect x="1" width="11.999999999999996" height="268.1409001956947"></rect></g><g class="bar" transform="translate(247.00000000000003,0)"><rect x="1" width="11.999999999999996" height="310"></rect></g><g class="bar" transform="translate(260,26.692759295499002)"><rect x="1" width="11.999999999999996" height="283.307240704501"></rect></g><g class="bar" transform="translate(273,89.78473581213308)"><rect x="1" width="11.999999999999996" height="220.21526418786692"></rect></g><g class="bar" transform="translate(286,135.28375733855188)"><rect x="1" width="11.999999999999996" height="174.71624266144812"></rect></g><g class="bar" transform="translate(299.00000000000006,196.55577299412917)"><rect x="1" width="11.999999999999996" height="113.44422700587083"></rect></g><g class="bar" transform="translate(312.00000000000006,246.3013698630137)"><rect x="1" width="11.999999999999996" height="63.69863013698631"></rect></g><g class="bar" transform="translate(325,267.5342465753425)"><rect x="1" width="11.999999999999996" height="42.46575342465752"></rect></g><g class="bar" transform="translate(338,282.7005870841487)"><rect x="1" width="11.999999999999996" height="27.299412915851292"></rect></g><g class="bar" transform="translate(351,296.65362035225047)"><rect x="1" width="11.999999999999996" height="13.34637964774953"></rect></g><g class="bar" transform="translate(364.00000000000006,302.720156555773)"><rect x="1" width="11.999999999999996" height="7.279843444227026"></rect></g><g class="bar" transform="translate(377.00000000000006,306.3600782778865)"><rect x="1" width="11.999999999999996" height="3.639921722113513"></rect></g><g class="bar" transform="translate(390,308.18003913894324)"><rect x="1" width="11.999999999999996" height="1.8199608610567566"></rect></g><g class="bar" transform="translate(403,308.18003913894324)"><rect x="1" width="11.999999999999996" height="1.8199608610567566"></rect></g><g class="bar" transform="translate(416,308.7866927592955)"><rect x="1" width="11.999999999999996" height="1.2133072407045233"></rect></g><g class="bar" transform="translate(429.00000000000006,310)"><rect x="1" width="11.999999999999996" height="0"></rect></g><g class="bar" transform="translate(442.00000000000006,310)"><rect x="1" width="11.999999999999996" height="0"></rect></g><g class="bar" transform="translate(455,310)"><rect x="1" width="11.999999999999996" height="0"></rect></g><g class="bar" transform="translate(468,310)"><rect x="1" width="11.999999999999996" height="0"></rect></g><g class="bar" transform="translate(481,310)"><rect x="1" width="11.999999999999996" height="0"></rect></g><g class="bar" transform="translate(494.00000000000006,310)"><rect x="1" width="11.999999999999996" height="0"></rect></g><g class="bar" transform="translate(507.00000000000006,310)"><rect x="1" width="11.999999999999996" height="0"></rect></g><g class="axis axis--x" transform="translate(0,310)" fill="none" font-size="10" font-family="sans-serif" text-anchor="middle"><path class="domain" stroke="#000" d="M0.5,6V0.5H520.5V6"></path><g class="tick" opacity="1" transform="translate(0.5,0)"><line stroke="#000" y2="6"></line><text fill="#000" y="9" dy="0.71em">0.01</text></g><g class="tick" opacity="1" transform="translate(130.5,0)"><line stroke="#000" y2="6"></line><text fill="#000" y="9" dy="0.71em">1</text></g><g class="tick" opacity="1" transform="translate(260.5,0)"><line stroke="#000" y2="6"></line><text fill="#000" y="9" dy="0.71em">100</text></g><g class="tick" opacity="1" transform="translate(390.5,0)"><line stroke="#000" y2="6"></line><text fill="#000" y="9" dy="0.71em">10000</text></g><g class="tick" opacity="1" transform="translate(520.5,0)"><line stroke="#000" y2="6"></line><text fill="#000" y="9" dy="0.71em"></text></g></g><g class="axis axis--y" fill="none" font-size="10" font-family="sans-serif" text-anchor="end"><path class="domain" stroke="#000" d="M-6,310.5H0.5V0.5H-6"></path><g class="tick" opacity="1" transform="translate(0,310.5)"><line stroke="#000" x2="-6"></line><text fill="#000" x="-9" dy="0.32em">0</text></g><g class="tick" opacity="1" transform="translate(0,280.1673189823875)"><line stroke="#000" x2="-6"></line><text fill="#000" x="-9" dy="0.32em">50</text></g><g class="tick" opacity="1" transform="translate(0,249.83463796477497)"><line stroke="#000" x2="-6"></line><text fill="#000" x="-9" dy="0.32em">100</text></g><g class="tick" opacity="1" transform="translate(0,219.50195694716243)"><line stroke="#000" x2="-6"></line><text fill="#000" x="-9" dy="0.32em">150</text></g><g class="tick" opacity="1" transform="translate(0,189.1692759295499)"><line stroke="#000" x2="-6"></line><text fill="#000" x="-9" dy="0.32em">200</text></g><g class="tick" opacity="1" transform="translate(0,158.8365949119374)"><line stroke="#000" x2="-6"></line><text fill="#000" x="-9" dy="0.32em">250</text></g><g class="tick" opacity="1" transform="translate(0,128.50391389432485)"><line stroke="#000" x2="-6"></line><text fill="#000" x="-9" dy="0.32em">300</text></g><g class="tick" opacity="1" transform="translate(0,98.17123287671234)"><line stroke="#000" x2="-6"></line><text fill="#000" x="-9" dy="0.32em">350</text></g><g class="tick" opacity="1" transform="translate(0,67.83855185909982)"><line stroke="#000" x2="-6"></line><text fill="#000" x="-9" dy="0.32em">400</text></g><g class="tick" opacity="1" transform="translate(0,37.50587084148731)"><line stroke="#000" x2="-6"></line><text fill="#000" x="-9" dy="0.32em">450</text></g><g class="tick" opacity="1" transform="translate(0,7.173189823874793)"><line stroke="#000" x2="-6"></line><text fill="#000" x="-9" dy="0.32em">500</text></g></g></g></svg>