<svg xmlns="http://www.w3.org/2000/svg" width="600" height="350"><defs><style type="text/css"><![CDATA[ 
.bar rect {
  fill-opacity: 0;
  stroke:       black;
  stroke-width: 0.5;
}

.highlight rect {
  fill:       red;
  fill-opacity: 1;
}
.axis path,
.axis line {
  fill: none;
  stroke: #000;
  shape-rendering: crispEdges;
}
 ]]></style></defs><g transform="translate(50,10)"><g class="bar" transform="translate(0,310)"><rect x="1" width="5.500000000000005" height="0"></rect></g><g class="bar" transform="translate(6.500000000000005,310)"><rect x="1" width="5.500000000000005" height="0"></rect></g><g class="bar" transform="translate(12.999999999999996,310)"><rect x="1" width="5.500000000000005" height="0"></rect></g><g class="bar" transform="translate(19.500000000000004,310)"><rect x="1" width="5.500000000000005" height="0"></rect></g><g class="bar" transform="translate(25.999999999999993,310)"><rect x="1" width="5.500000000000005" height="0"></rect></g><g class="bar" transform="translate(32.5,310)"><rect x="1" width="5.500000000000005" height="0"></rect></g><g class="bar" transform="translate(39.00000000000001,310)"><rect x="1" width="5.500000000000005" height="0"></rect></g><g class="bar" transform="translate(45.500000000000014,310)"><rect x="1" width="5.500000000000005" height="0"></rect></g><g class="bar" transform="translate(52,310)"><rect x="1" width="5.500000000000005" height="0"></rect></g><g class="bar" transform="translate(58.49999999999999,310)"><rect x="1" width="5.500000000000005" height="0"></rect></g><g class="bar" transform="translate(65,310)"><rect x="1" width="5.500000000000005" height="0"></rect></g><g class="bar" transform="translate(71.5,310)"><rect x="1" width="5.500000000000005" height="0"></rect></g><g class="bar" transform="translate(78.00000000000001,310)"><rect x="1" width="5.500000000000005" height="0"></rect></g><g class="bar" transform="translate(84.5,310)"><rect x="1" width="5.500000000000005" height="0"></rect></g><g class="bar" transform="translate(91.00000000000001,310)"><rect x="1" width="5.500000000000005" height="0"></rect></g><g class="bar" transform="translate(97.5,310)"><rect x="1" width="5.500000000000005" height="0"></rect></g><g class="bar" transform="translate(104,310)"><rect x="1" width="5.500000000000005" height="0"></rect></g><g class="bar" transform="translate(110.50000000000001,310)"><rect x="1" width="5.500000000000005" height="0"></rect></g><g class="bar" transform="translate(117,310)"><rect x="1" width="5.500000000000005" height="0"></rect></g><g class="bar" transform="translate(123.50000000000001,310)"><rect x="1" width="5.500000000000005" height="0"></rect></g><g class="bar" transform="translate(130,310)"><rect x="1" width="5.500000000000005" height="0"></rect></g><g class="bar" transform="translate(136.5,308.8768115942029)"><rect x="1" width="5.500000000000005" height="1.1231884057971229"></rect></g><g class="bar" transform="translate(143,306.6304347826087)"><rect x="1" width="5.500000000000005" height="3.3695652173913118"></rect></g><g class="bar" transform="translate(149.50000000000003,305.5072463768116)"><rect x="1" width="5.500000000000005" height="4.492753623188378"></rect></g><g class="bar" transform="translate(156.00000000000003,306.6304347826087)"><rect x="1" width="5.500000000000005" height="3.3695652173913118"></rect></g><g class="bar" transform="translate(162.5,299.89130434782606)"><rect x="1" width="5.500000000000005" height="10.108695652173935"></rect></g><g class="bar" transform="translate(169,284.1666666666667)"><rect x="1" width="5.500000000000005" height="25.833333333333314"></rect></g><g class="bar" transform="translate(175.5,262.82608695652175)"><rect x="1" width="5.500000000000005" height="47.17391304347825"></rect></g><g class="bar" transform="translate(182.00000000000003,231.37681159420288)"><rect x="1" width="5.500000000000005" height="78.62318840579712"></rect></g><g class="bar" transform="translate(188.50000000000003,183.07971014492756)"><rect x="1" width="5.500000000000005" height="126.92028985507244"></rect></g><g class="bar" transform="translate(195,140.3985507246377)"><rect x="1" width="5.500000000000005" height="169.6014492753623"></rect></g><g class="bar" transform="translate(201.5,105.57971014492753)"><rect x="1" width="5.500000000000005" height="204.42028985507247"></rect></g><g class="bar" transform="translate(208,89.8550724637681)"><rect x="1" width="5.500000000000005" height="220.1449275362319"></rect></g><g class="bar" transform="translate(214.50000000000003,46.050724637681185)"><rect x="1" width="5.500000000000005" height="263.9492753623188"></rect></g><g class="bar" transform="translate(221.00000000000003,14.601449275362313)"><rect x="1" width="5.500000000000005" height="295.3985507246377"></rect></g><g class="bar" transform="translate(227.5,0)"><rect x="1" width="5.500000000000005" height="310"></rect></g><g class="bar" transform="translate(234,21.340579710144937)"><rect x="1" width="5.500000000000005" height="288.65942028985506"></rect></g><g class="bar" transform="translate(240.5,42.681159420289816)"><rect x="1" width="5.500000000000005" height="267.3188405797102"></rect></g><g class="bar" transform="translate(247.00000000000003,52.78985507246375)"><rect x="1" width="5.500000000000005" height="257.21014492753625"></rect></g><g class="bar" transform="translate(253.50000000000003,67.39130434782606)"><rect x="1" width="5.500000000000005" height="242.60869565217394"></rect></g><g class="bar" transform="translate(260,87.60869565217394)"><rect x="1" width="5.500000000000005" height="222.39130434782606"></rect></g><g class="bar" transform="translate(266.50000000000006,122.42753623188406)"><rect x="1" width="5.500000000000005" height="187.57246376811594"></rect></g><g class="bar" transform="translate(273,117.93478260869566)"><rect x="1" width="5.500000000000005" height="192.06521739130434"></rect></g><g class="bar" transform="translate(279.5,123.55072463768116)"><rect x="1" width="5.500000000000005" height="186.44927536231884"></rect></g><g class="bar" transform="translate(286,169.6014492753623)"><rect x="1" width="5.500000000000005" height="140.3985507246377"></rect></g><g class="bar" transform="translate(292.5,159.4927536231884)"><rect x="1" width="5.500000000000005" height="150.5072463768116"></rect></g><g class="bar" transform="translate(299.00000000000006,203.29710144927537)"><rect x="1" width="5.500000000000005" height="106.70289855072463"></rect></g><g class="bar" transform="translate(305.5,229.1304347826087)"><rect x="1" width="5.500000000000005" height="80.86956521739131"></rect></g><g class="bar" transform="translate(312.00000000000006,241.4855072463768)"><rect x="1" width="5.500000000000005" height="68.51449275362319"></rect></g><g class="bar" transform="translate(318.5,266.19565217391306)"><rect x="1" width="5.500000000000005" height="43.80434782608694"></rect></g><g class="bar" transform="translate(325,258.3333333333333)"><rect x="1" width="5.500000000000005" height="51.666666666666686"></rect></g><g class="bar" transform="translate(331.50000000000006,274.05797101449275)"><rect x="1" width="5.500000000000005" height="35.94202898550725"></rect></g><g class="bar" transform="translate(338,279.67391304347825)"><rect x="1" width="5.500000000000005" height="30.32608695652175"></rect></g><g class="bar" transform="translate(344.50000000000006,286.4130434782609)"><rect x="1" width="5.500000000000005" height="23.586956521739125"></rect></g><g class="bar" transform="translate(351,293.1521739130435)"><rect x="1" width="5.500000000000005" height="16.847826086956502"></rect></g><g class="bar" transform="translate(357.5,298.768115942029)"><rect x="1" width="5.500000000000005" height="11.231884057971001"></rect></g><g class="bar" transform="translate(364.00000000000006,298.768115942029)"><rect x="1" width="5.500000000000005" height="11.231884057971001"></rect></g><g class="bar" transform="translate(370.5,304.3840579710145)"><rect x="1" width="5.500000000000005" height="5.615942028985501"></rect></g><g class="bar" transform="translate(377.00000000000006,302.1376811594203)"><rect x="1" width="5.500000000000005" height="7.8623188405796895"></rect></g><g class="bar" transform="translate(383.5,308.8768115942029)"><rect x="1" width="5.500000000000005" height="1.1231884057971229"></rect></g><g class="bar" transform="translate(390,307.7536231884058)"><rect x="1" width="5.500000000000005" height="2.246376811594189"></rect></g><g class="bar" transform="translate(396.50000000000006,307.7536231884058)"><rect x="1" width="5.500000000000005" height="2.246376811594189"></rect></g><g class="bar" transform="translate(403,310)"><rect x="1" width="5.500000000000005" height="0"></rect></g><g class="bar" transform="translate(409.50000000000006,307.7536231884058)"><rect x="1" width="5.500000000000005" height="2.246376811594189"></rect></g><g class="bar" transform="translate(416,310)"><rect x="1" width="5.500000000000005" height="0"></rect></g><g class="bar" transform="translate(422.5,310)"><rect x="1" width="5.500000000000005" height="0"></rect></g><g class="bar" transform="translate(429.00000000000006,310)"><rect x="1" width="5.500000000000005" height="0"></rect></g><g class="bar" transform="translate(435.5,308.8768115942029)"><rect x="1" width="5.500000000000005" height="1.1231884057971229"></rect></g><g class="bar" transform="translate(442.00000000000006,310)"><rect x="1" width="5.500000000000005" height="0"></rect></g><g class="bar" transform="translate(448.5,310)"><rect x="1" width="5.500000000000005" height="0"></rect></g><g class="bar" transform="translate(455,310)"><rect x="1" width="5.500000000000005" height="0"></rect></g><g class="bar" transform="translate(461.50000000000006,310)"><rect x="1" width="5.500000000000005" height="0"></rect></g><g class="bar" transform="translate(468,310)"><rect x="1" width="5.500000000000005" height="0"></rect></g><g class="bar" transform="translate(474.50000000000006,310)"><rect x="1" width="5.500000000000005" height="0"></rect></g><g class="bar" transform="translate(481,310)"><rect x="1" width="5.500000000000005" height="0"></rect></g><g class="bar" transform="translate(487.5,310)"><rect x="1" width="5.500000000000005" height="0"></rect></g><g class="bar" transform="translate(494.00000000000006,310)"><rect x="1" width="5.500000000000005" height="0"></rect></g><g class="bar" transform="translate(500.5,310)"><rect x="1" width="5.500000000000005" height="0"></rect></g><g class="bar" transform="translate(507.00000000000006,310)"><rect x="1" width="5.500000000000005" height="0"></rect></g><g class="bar" transform="translate(513.5,310)"><rect x="1" width="5.500000000000005" height="0"></rect></g><g class="axis axis--x" transform="translate(0,310)" fill="none" font-size="10" font-family="sans-serif" text-anchor="middle"><path class="domain" stroke="#000" d="M0.5,6V0.5H520.5V6"></path><g class="tick" opacity="1" transform="translate(0,0)"><line stroke="#000" y2="6" x1="0.5" x2="0.5"></line><text fill="#000" y="9" x="0.5" dy="0.71em">0.01</text></g><g class="tick" opacity="1" transform="translate(130,0)"><line stroke="#000" y2="6" x1="0.5" x2="0.5"></line><text fill="#000" y="9" x="0.5" dy="0.71em">1</text></g><g class="tick" opacity="1" transform="translate(260,0)"><line stroke="#000" y2="6" x1="0.5" x2="0.5"></line><text fill="#000" y="9" x="0.5" dy="0.71em">100</text></g><g class="tick" opacity="1" transform="translate(390,0)"><line stroke="#000" y2="6" x1="0.5" x2="0.5"></line><text fill="#000" y="9" x="0.5" dy="0.71em">10000</text></g><g class="tick" opacity="1" transform="translate(520,0)"><line stroke="#000" y2="6" x1="0.5" x2="0.5"></line><text fill="#000" y="9" x="0.5" dy="0.71em"></text></g></g><g class="axis axis--y" fill="none" font-size="10" font-family="sans-serif" text-anchor="end"><path class="domain" stroke="#000" d="M-6,310.5H0.5V0.5H-6"></path><g class="tick" opacity="1" transform="translate(0,310)"><line stroke="#000" x2="-6" y1="0.5" y2="0.5"></line><text fill="#000" x="-9" y="0.5" dy="0.32em">0</text></g><g class="tick" opacity="1" transform="translate(0,287.536231884058)"><line stroke="#000" x2="-6" y1="0.5" y2="0.5"></line><text fill="#000" x="-9" y="0.5" dy="0.32em">20</text></g><g class="tick" opacity="1" transform="translate(0,265.07246376811594)"><line stroke="#000" x2="-6" y1="0.5" y2="0.5"></line><text fill="#000" x="-9" y="0.5" dy="0.32em">40</text></g><g class="tick" opacity="1" transform="translate(0,242.60869565217394)"><line stroke="#000" x2="-6" y1="0.5" y2="0.5"></line><text fill="#000" x="-9" y="0.5" dy="0.32em">60</text></g><g class="tick" opacity="1" transform="translate(0,220.14492753623188)"><line stroke="#000" x2="-6" y1="0.5" y2="0.5"></line><text fill="#000" x="-9" y="0.5" dy="0.32em">80</text></g><g class="tick" opacity="1" transform="translate(0,197.68115942028987)"><line stroke="#000" x2="-6" y1="0.5" y2="0.5"></line><text fill="#000" x="-9" y="0.5" dy="0.32em">100</text></g><g class="tick" opacity="1" transform="translate(0,175.21739130434784)"><line stroke="#000" x2="-6" y1="0.5" y2="0.5"></line><text fill="#000" x="-9" y="0.5" dy="0.32em">120</text></g><g class="tick" opacity="1" transform="translate(0,152.75362318840578)"><line stroke="#000" x2="-6" y1="0.5" y2="0.5"></line><text fill="#000" x="-9" y="0.5" dy="0.32em">140</text></g><g class="tick" opacity="1" transform="translate(0,130.28985507246375)"><line stroke="#000" x2="-6" y1="0.5" y2="0.5"></line><text fill="#000" x="-9" y="0.5" dy="0.32em">160</text></g><g class="tick" opacity="1" transform="translate(0,107.82608695652175)"><line stroke="#000" x2="-6" y1="0.5" y2="0.5"></line><text fill="#000" x="-9" y="0.5" dy="0.32em">180</text></g><g class="tick" opacity="1" transform="translate(0,85.36231884057972)"><line stroke="#000" x2="-6" y1="0.5" y2="0.5"></line><text fill="#000" x="-9" y="0.5" dy="0.32em">200</text></g><g class="tick" opacity="1" transform="translate(0,62.89855072463769)"><line stroke="#000" x2="-6" y1="0.5" y2="0.5"></line><text fill="#000" x="-9" y="0.5" dy="0.32em">220</text></g><g class="tick" opacity="1" transform="translate(0,40.434782608695684)"><line stroke="#000" x2="-6" y1="0.5" y2="0.5"></line><text fill="#000" x="-9" y="0.5" dy="0.32em">240</text></g><g class="tick" opacity="1" transform="translate(0,17.971014492753625)"><line stroke="#000" x2="-6" y1="0.5" y2="0.5"></line><text fill="#000" x="-9" y="0.5" dy="0.32em">260</text></g></g></g></svg>