<svg xmlns="http://www.w3.org/2000/svg" width="600" height="350"><defs><style type="text/css"><![CDATA[ 
.bar rect {
  fill-opacity: 0;
  stroke:       black;
  stroke-width: 0.5;
}

.highlight rect {
  fill:       red;
  fill-opacity: 1;
}
.axis path,
.axis line {
  fill: none;
  stroke: #000;
  shape-rendering: crispEdges;
}
 ]]></style></defs><g transform="translate(50,10)"><g class="bar" transform="translate(0,310)"><rect x="1" width="11.999999999999996" height="0"></rect></g><g class="bar" transform="translate(12.999999999999996,309.4083969465649)"><rect x="1" width="11.999999999999996" height="0.591603053435108"></rect></g><g class="bar" transform="translate(25.999999999999993,286.3358778625954)"><rect x="1" width="11.999999999999996" height="23.664122137404604"></rect></g><g class="bar" transform="translate(39.00000000000001,310)"><rect x="1" width="11.999999999999996" height="0"></rect></g><g class="bar" transform="translate(52,310)"><rect x="1" width="11.999999999999996" height="0"></rect></g><g class="bar" transform="translate(65,309.4083969465649)"><rect x="1" width="11.999999999999996" height="0.591603053435108"></rect></g><g class="bar" transform="translate(78.00000000000001,288.1106870229008)"><rect x="1" width="11.999999999999996" height="21.889312977099223"></rect></g><g class="bar" transform="translate(91.00000000000001,304.08396946564886)"><rect x="1" width="11.999999999999996" height="5.916030534351137"></rect></g><g class="bar" transform="translate(104,296.98473282442745)"><rect x="1" width="11.999999999999996" height="13.015267175572546"></rect></g><g class="bar" transform="translate(117,296.98473282442745)"><rect x="1" width="11.999999999999996" height="13.015267175572546"></rect></g><g class="bar" transform="translate(130,291.0687022900763)"><rect x="1" width="11.999999999999996" height="18.931297709923683"></rect></g><g class="bar" transform="translate(143,278.64503816793894)"><rect x="1" width="11.999999999999996" height="31.354961832061065"></rect></g><g class="bar" transform="translate(156.00000000000003,253.79770992366412)"><rect x="1" width="11.999999999999996" height="56.202290076335885"></rect></g><g class="bar" transform="translate(169,218.89312977099237)"><rect x="1" width="11.999999999999996" height="91.10687022900763"></rect></g><g class="bar" transform="translate(182.00000000000003,173.93129770992365)"><rect x="1" width="11.999999999999996" height="136.06870229007635"></rect></g><g class="bar" transform="translate(195,120.68702290076337)"><rect x="1" width="11.999999999999996" height="189.31297709923663"></rect></g><g class="bar" transform="translate(208,59.16030534351145)"><rect x="1" width="11.999999999999996" height="250.83969465648855"></rect></g><g class="bar" transform="translate(221.00000000000003,34.90458015267177)"><rect x="1" width="11.999999999999996" height="275.09541984732823"></rect></g><g class="bar" transform="translate(234,0)"><rect x="1" width="11.999999999999996" height="310"></rect></g><g class="bar" transform="translate(247.00000000000003,34.90458015267177)"><rect x="1" width="11.999999999999996" height="275.09541984732823"></rect></g><g class="bar" transform="translate(260,75.72519083969465)"><rect x="1" width="11.999999999999996" height="234.27480916030535"></rect></g><g class="bar" transform="translate(273,137.25190839694656)"><rect x="1" width="11.999999999999996" height="172.74809160305344"></rect></g><g class="bar" transform="translate(286,205.28625954198475)"><rect x="1" width="11.999999999999996" height="104.71374045801525"></rect></g><g class="bar" transform="translate(299.00000000000006,246.10687022900763)"><rect x="1" width="11.999999999999996" height="63.893129770992374"></rect></g><g class="bar" transform="translate(312.00000000000006,274.5038167938931)"><rect x="1" width="11.999999999999996" height="35.49618320610688"></rect></g><g class="bar" transform="translate(325,279.23664122137404)"><rect x="1" width="11.999999999999996" height="30.763358778625957"></rect></g><g class="bar" transform="translate(338,301.12595419847327)"><rect x="1" width="11.999999999999996" height="8.874045801526734"></rect></g><g class="bar" transform="translate(351,301.12595419847327)"><rect x="1" width="11.999999999999996" height="8.874045801526734"></rect></g><g class="bar" transform="translate(364.00000000000006,306.4503816793893)"><rect x="1" width="11.999999999999996" height="3.549618320610705"></rect></g><g class="bar" transform="translate(377.00000000000006,304.67557251908397)"><rect x="1" width="11.999999999999996" height="5.324427480916029"></rect></g><g class="bar" transform="translate(390,305.8587786259542)"><rect x="1" width="11.999999999999996" height="4.141221374045813"></rect></g><g class="bar" transform="translate(403,308.8167938931298)"><rect x="1" width="11.999999999999996" height="1.183206106870216"></rect></g><g class="bar" transform="translate(416,308.2251908396947)"><rect x="1" width="11.999999999999996" height="1.774809160305324"></rect></g><g class="bar" transform="translate(429.00000000000006,308.8167938931298)"><rect x="1" width="11.999999999999996" height="1.183206106870216"></rect></g><g class="bar" transform="translate(442.00000000000006,309.4083969465649)"><rect x="1" width="11.999999999999996" height="0.591603053435108"></rect></g><g class="bar" transform="translate(455,310)"><rect x="1" width="11.999999999999996" height="0"></rect></g><g class="bar" transform="translate(468,310)"><rect x="1" width="11.999999999999996" height="0"></rect></g><g class="bar" transform="translate(481,310)"><rect x="1" width="11.999999999999996" height="0"></rect></g><g class="bar" transform="translate(494.00000000000006,310)"><rect x="1" width="11.999999999999996" height="0"></rect></g><g class="bar" transform="translate(507.00000000000006,310)"><rect x="1" width="11.999999999999996" height="0"></rect></g><g class="axis axis--x" transform="translate(0,310)" fill="none" font-size="10" font-family="sans-serif" text-anchor="middle"><path class="domain" stroke="#000" d="M0.5,6V0.5H520.5V6"></path><g class="tick" opacity="1" transform="translate(0,0)"><line stroke="#000" y2="6" x1="0.5" x2="0.5"></line><text fill="#000" y="9" x="0.5" dy="0.71em">0.01</text></g><g class="tick" opacity="1" transform="translate(130,0)"><line stroke="#000" y2="6" x1="0.5" x2="0.5"></line><text fill="#000" y="9" x="0.5" dy="0.71em">1</text></g><g class="tick" opacity="1" transform="translate(260,0)"><line stroke="#000" y2="6" x1="0.5" x2="0.5"></line><text fill="#000" y="9" x="0.5" dy="0.71em">100</text></g><g class="tick" opacity="1" transform="translate(390,0)"><line stroke="#000" y2="6" x1="0.5" x2="0.5"></line><text fill="#000" y="9" x="0.5" dy="0.71em">10000</text></g><g class="tick" opacity="1" transform="translate(520,0)"><line stroke="#000" y2="6" x1="0.5" x2="0.5"></line><text fill="#000" y="9" x="0.5" dy="0.71em"></text></g></g><g class="axis axis--y" fill="none" font-size="10" font-family="sans-serif" text-anchor="end"><path class="domain" stroke="#000" d="M-6,310.5H0.5V0.5H-6"></path><g class="tick" opacity="1" transform="translate(0,310)"><line stroke="#000" x2="-6" y1="0.5" y2="0.5"></line><text fill="#000" x="-9" y="0.5" dy="0.32em">0</text></g><g class="tick" opacity="1" transform="translate(0,280.41984732824426)"><line stroke="#000" x2="-6" y1="0.5" y2="0.5"></line><text fill="#000" x="-9" y="0.5" dy="0.32em">50</text></g><g class="tick" opacity="1" transform="translate(0,250.83969465648855)"><line stroke="#000" x2="-6" y1="0.5" y2="0.5"></line><text fill="#000" x="-9" y="0.5" dy="0.32em">100</text></g><g class="tick" opacity="1" transform="translate(0,221.25954198473283)"><line stroke="#000" x2="-6" y1="0.5" y2="0.5"></line><text fill="#000" x="-9" y="0.5" dy="0.32em">150</text></g><g class="tick" opacity="1" transform="translate(0,191.6793893129771)"><line stroke="#000" x2="-6" y1="0.5" y2="0.5"></line><text fill="#000" x="-9" y="0.5" dy="0.32em">200</text></g><g class="tick" opacity="1" transform="translate(0,162.09923664122138)"><line stroke="#000" x2="-6" y1="0.5" y2="0.5"></line><text fill="#000" x="-9" y="0.5" dy="0.32em">250</text></g><g class="tick" opacity="1" transform="translate(0,132.51908396946567)"><line stroke="#000" x2="-6" y1="0.5" y2="0.5"></line><text fill="#000" x="-9" y="0.5" dy="0.32em">300</text></g><g class="tick" opacity="1" transform="translate(0,102.93893129770993)"><line stroke="#000" x2="-6" y1="0.5" y2="0.5"></line><text fill="#000" x="-9" y="0.5" dy="0.32em">350</text></g><g class="tick" opacity="1" transform="translate(0,73.35877862595419)"><line stroke="#000" x2="-6" y1="0.5" y2="0.5"></line><text fill="#000" x="-9" y="0.5" dy="0.32em">400</text></g><g class="tick" opacity="1" transform="translate(0,43.778625954198446)"><line stroke="#000" x2="-6" y1="0.5" y2="0.5"></line><text fill="#000" x="-9" y="0.5" dy="0.32em">450</text></g><g class="tick" opacity="1" transform="translate(0,14.198473282442762)"><line stroke="#000" x2="-6" y1="0.5" y2="0.5"></line><text fill="#000" x="-9" y="0.5" dy="0.32em">500</text></g></g></g></svg>