<svg xmlns="http://www.w3.org/2000/svg" width="600" height="350"><defs><style type="text/css"><![CDATA[ 
.bar rect {
  fill-opacity: 0;
  stroke:       black;
  stroke-width: 0.5;
}

.highlight rect {
  fill:       red;
  fill-opacity: 1;
}
.axis path,
.axis line {
  fill: none;
  stroke: #000;
  shape-rendering: crispEdges;
}
 ]]></style></defs><g transform="translate(50,10)"><g class="bar" transform="translate(0,310)"><rect x="1" width="5.500000000000005" height="0"></rect></g><g class="bar" transform="translate(6.500000000000005,310)"><rect x="1" width="5.500000000000005" height="0"></rect></g><g class="bar" transform="translate(12.999999999999996,310)"><rect x="1" width="5.500000000000005" height="0"></rect></g><g class="bar" transform="translate(19.500000000000004,310)"><rect x="1" width="5.500000000000005" height="0"></rect></g><g class="bar" transform="translate(25.999999999999993,310)"><rect x="1" width="5.500000000000005" height="0"></rect></g><g class="bar" transform="translate(32.5,310)"><rect x="1" width="5.500000000000005" height="0"></rect></g><g class="bar" transform="translate(39.00000000000001,310)"><rect x="1" width="5.500000000000005" height="0"></rect></g><g class="bar" transform="translate(45.500000000000014,310)"><rect x="1" width="5.500000000000005" height="0"></rect></g><g class="bar" transform="translate(52,308.76329787234044)"><rect x="1" width="5.500000000000005" height="1.2367021276595551"></rect></g><g class="bar" transform="translate(58.49999999999999,307.93882978723406)"><rect x="1" width="5.500000000000005" height="2.061170212765944"></rect></g><g class="bar" transform="translate(65,305.4654255319149)"><rect x="1" width="5.500000000000005" height="4.534574468085111"></rect></g><g class="bar" transform="translate(71.5,303.40425531914894)"><rect x="1" width="5.500000000000005" height="6.595744680851055"></rect></g><g class="bar" transform="translate(78.00000000000001,306.70212765957444)"><rect x="1" width="5.500000000000005" height="3.297872340425556"></rect></g><g class="bar" transform="translate(84.5,306.70212765957444)"><rect x="1" width="5.500000000000005" height="3.297872340425556"></rect></g><g class="bar" transform="translate(91.00000000000001,308.76329787234044)"><rect x="1" width="5.500000000000005" height="1.2367021276595551"></rect></g><g class="bar" transform="translate(97.5,309.58776595744683)"><rect x="1" width="5.500000000000005" height="0.4122340425531661"></rect></g><g class="bar" transform="translate(104,308.3510638297872)"><rect x="1" width="5.500000000000005" height="1.648936170212778"></rect></g><g class="bar" transform="translate(110.50000000000001,307.11436170212767)"><rect x="1" width="5.500000000000005" height="2.885638297872333"></rect></g><g class="bar" transform="translate(117,308.3510638297872)"><rect x="1" width="5.500000000000005" height="1.648936170212778"></rect></g><g class="bar" transform="translate(123.50000000000001,303.8164893617021)"><rect x="1" width="5.500000000000005" height="6.183510638297889"></rect></g><g class="bar" transform="translate(130,296.8085106382979)"><rect x="1" width="5.500000000000005" height="13.19148936170211"></rect></g><g class="bar" transform="translate(136.5,293.92287234042556)"><rect x="1" width="5.500000000000005" height="16.077127659574444"></rect></g><g class="bar" transform="translate(143,279.08244680851067)"><rect x="1" width="5.500000000000005" height="30.917553191489333"></rect></g><g class="bar" transform="translate(149.50000000000003,262.593085106383)"><rect x="1" width="5.500000000000005" height="47.406914893617"></rect></g><g class="bar" transform="translate(156.00000000000003,222.6063829787234)"><rect x="1" width="5.500000000000005" height="87.39361702127661"></rect></g><g class="bar" transform="translate(162.5,192.9255319148936)"><rect x="1" width="5.500000000000005" height="117.07446808510639"></rect></g><g class="bar" transform="translate(169,124.90691489361703)"><rect x="1" width="5.500000000000005" height="185.09308510638297"></rect></g><g class="bar" transform="translate(175.5,71.31648936170211)"><rect x="1" width="5.500000000000005" height="238.6835106382979"></rect></g><g class="bar" transform="translate(182.00000000000003,41.22340425531917)"><rect x="1" width="5.500000000000005" height="268.77659574468083"></rect></g><g class="bar" transform="translate(188.50000000000003,7.8324468085106105)"><rect x="1" width="5.500000000000005" height="302.1675531914894"></rect></g><g class="bar" transform="translate(195,0)"><rect x="1" width="5.500000000000005" height="310"></rect></g><g class="bar" transform="translate(201.5,17.313829787234056)"><rect x="1" width="5.500000000000005" height="292.68617021276594"></rect></g><g class="bar" transform="translate(208,37.10106382978722)"><rect x="1" width="5.500000000000005" height="272.8989361702128"></rect></g><g class="bar" transform="translate(214.50000000000003,79.97340425531914)"><rect x="1" width="5.500000000000005" height="230.02659574468086"></rect></g><g class="bar" transform="translate(221.00000000000003,101.8218085106383)"><rect x="1" width="5.500000000000005" height="208.1781914893617"></rect></g><g class="bar" transform="translate(227.5,150.87765957446808)"><rect x="1" width="5.500000000000005" height="159.12234042553192"></rect></g><g class="bar" transform="translate(234,170.25265957446808)"><rect x="1" width="5.500000000000005" height="139.74734042553192"></rect></g><g class="bar" transform="translate(240.5,191.27659574468083)"><rect x="1" width="5.500000000000005" height="118.72340425531917"></rect></g><g class="bar" transform="translate(247.00000000000003,225.49202127659572)"><rect x="1" width="5.500000000000005" height="84.50797872340428"></rect></g><g class="bar" transform="translate(253.50000000000003,232.9122340425532)"><rect x="1" width="5.500000000000005" height="77.0877659574468"></rect></g><g class="bar" transform="translate(260,249.81382978723406)"><rect x="1" width="5.500000000000005" height="60.186170212765944"></rect></g><g class="bar" transform="translate(266.50000000000006,260.9441489361702)"><rect x="1" width="5.500000000000005" height="49.05585106382978"></rect></g><g class="bar" transform="translate(273,260.9441489361702)"><rect x="1" width="5.500000000000005" height="49.05585106382978"></rect></g><g class="bar" transform="translate(279.5,270.8377659574468)"><rect x="1" width="5.500000000000005" height="39.16223404255322"></rect></g><g class="bar" transform="translate(286,265.47872340425533)"><rect x="1" width="5.500000000000005" height="44.521276595744666"></rect></g><g class="bar" transform="translate(292.5,266.3031914893617)"><rect x="1" width="5.500000000000005" height="43.69680851063828"></rect></g><g class="bar" transform="translate(299.00000000000006,261.7686170212766)"><rect x="1" width="5.500000000000005" height="48.23138297872339"></rect></g><g class="bar" transform="translate(305.5,265.47872340425533)"><rect x="1" width="5.500000000000005" height="44.521276595744666"></rect></g><g class="bar" transform="translate(312.00000000000006,286.5026595744681)"><rect x="1" width="5.500000000000005" height="23.49734042553189"></rect></g><g class="bar" transform="translate(318.5,283.6170212765957)"><rect x="1" width="5.500000000000005" height="26.38297872340428"></rect></g><g class="bar" transform="translate(325,279.906914893617)"><rect x="1" width="5.500000000000005" height="30.093085106383"></rect></g><g class="bar" transform="translate(331.50000000000006,291.4494680851064)"><rect x="1" width="5.500000000000005" height="18.55053191489361"></rect></g><g class="bar" transform="translate(338,293.09840425531917)"><rect x="1" width="5.500000000000005" height="16.901595744680833"></rect></g><g class="bar" transform="translate(344.50000000000006,295.1595744680851)"><rect x="1" width="5.500000000000005" height="14.840425531914889"></rect></g><g class="bar" transform="translate(351,303.8164893617021)"><rect x="1" width="5.500000000000005" height="6.183510638297889"></rect></g><g class="bar" transform="translate(357.5,302.57978723404256)"><rect x="1" width="5.500000000000005" height="7.420212765957444"></rect></g><g class="bar" transform="translate(364.00000000000006,306.70212765957444)"><rect x="1" width="5.500000000000005" height="3.297872340425556"></rect></g><g class="bar" transform="translate(370.5,308.3510638297872)"><rect x="1" width="5.500000000000005" height="1.648936170212778"></rect></g><g class="bar" transform="translate(377.00000000000006,308.76329787234044)"><rect x="1" width="5.500000000000005" height="1.2367021276595551"></rect></g><g class="bar" transform="translate(383.5,309.58776595744683)"><rect x="1" width="5.500000000000005" height="0.4122340425531661"></rect></g><g class="bar" transform="translate(390,310)"><rect x="1" width="5.500000000000005" height="0"></rect></g><g class="bar" transform="translate(396.50000000000006,310)"><rect x="1" width="5.500000000000005" height="0"></rect></g><g class="bar" transform="translate(403,310)"><rect x="1" width="5.500000000000005" height="0"></rect></g><g class="bar" transform="translate(409.50000000000006,310)"><rect x="1" width="5.500000000000005" height="0"></rect></g><g class="bar" transform="translate(416,310)"><rect x="1" width="5.500000000000005" height="0"></rect></g><g class="bar" transform="translate(422.5,310)"><rect x="1" width="5.500000000000005" height="0"></rect></g><g class="bar" transform="translate(429.00000000000006,310)"><rect x="1" width="5.500000000000005" height="0"></rect></g><g class="bar" transform="translate(435.5,310)"><rect x="1" width="5.500000000000005" height="0"></rect></g><g class="bar" transform="translate(442.00000000000006,310)"><rect x="1" width="5.500000000000005" height="0"></rect></g><g class="bar" transform="translate(448.5,310)"><rect x="1" width="5.500000000000005" height="0"></rect></g><g class="bar" transform="translate(455,310)"><rect x="1" width="5.500000000000005" height="0"></rect></g><g class="bar" transform="translate(461.50000000000006,310)"><rect x="1" width="5.500000000000005" height="0"></rect></g><g class="bar" transform="translate(468,310)"><rect x="1" width="5.500000000000005" height="0"></rect></g><g class="bar" transform="translate(474.50000000000006,310)"><rect x="1" width="5.500000000000005" height="0"></rect></g><g class="bar" transform="translate(481,310)"><rect x="1" width="5.500000000000005" height="0"></rect></g><g class="bar" transform="translate(487.5,310)"><rect x="1" width="5.500000000000005" height="0"></rect></g><g class="bar" transform="translate(494.00000000000006,310)"><rect x="1" width="5.500000000000005" height="0"></rect></g><g class="bar" transform="translate(500.5,310)"><rect x="1" width="5.500000000000005" height="0"></rect></g><g class="bar" transform="translate(507.00000000000006,310)"><rect x="1" width="5.500000000000005" height="0"></rect></g><g class="bar" transform="translate(513.5,310)"><rect x="1" width="5.500000000000005" height="0"></rect></g><g class="axis axis--x" transform="translate(0,310)" fill="none" font-size="10" font-family="sans-serif" text-anchor="middle"><path class="domain" stroke="#000" d="M0.5,6V0.5H520.5V6"></path><g class="tick" opacity="1" transform="translate(0,0)"><line stroke="#000" y2="6" x1="0.5" x2="0.5"></line><text fill="#000" y="9" x="0.5" dy="0.71em">0.01</text></g><g class="tick" opacity="1" transform="translate(130,0)"><line stroke="#000" y2="6" x1="0.5" x2="0.5"></line><text fill="#000" y="9" x="0.5" dy="0.71em">1</text></g><g class="tick" opacity="1" transform="translate(260,0)"><line stroke="#000" y2="6" x1="0.5" x2="0.5"></line><text fill="#000" y="9" x="0.5" dy="0.71em">100</text></g><g class="tick" opacity="1" transform="translate(390,0)"><line stroke="#000" y2="6" x1="0.5" x2="0.5"></line><text fill="#000" y="9" x="0.5" dy="0.71em">10000</text></g><g class="tick" opacity="1" transform="translate(520,0)"><line stroke="#000" y2="6" x1="0.5" x2="0.5"></line><text fill="#000" y="9" x="0.5" dy="0.71em"></text></g></g><g class="axis axis--y" fill="none" font-size="10" font-family="sans-serif" text-anchor="end"><path class="domain" stroke="#000" d="M-6,310.5H0.5V0.5H-6"></path><g class="tick" opacity="1" transform="translate(0,310)"><line stroke="#000" x2="-6" y1="0.5" y2="0.5"></line><text fill="#000" x="-9" y="0.5" dy="0.32em">0</text></g><g class="tick" opacity="1" transform="translate(0,268.77659574468083)"><line stroke="#000" x2="-6" y1="0.5" y2="0.5"></line><text fill="#000" x="-9" y="0.5" dy="0.32em">100</text></g><g class="tick" opacity="1" transform="translate(0,227.55319148936172)"><line stroke="#000" x2="-6" y1="0.5" y2="0.5"></line><text fill="#000" x="-9" y="0.5" dy="0.32em">200</text></g><g class="tick" opacity="1" transform="translate(0,186.32978723404256)"><line stroke="#000" x2="-6" y1="0.5" y2="0.5"></line><text fill="#000" x="-9" y="0.5" dy="0.32em">300</text></g><g class="tick" opacity="1" transform="translate(0,145.10638297872342)"><line stroke="#000" x2="-6" y1="0.5" y2="0.5"></line><text fill="#000" x="-9" y="0.5" dy="0.32em">400</text></g><g class="tick" opacity="1" transform="translate(0,103.88297872340425)"><line stroke="#000" x2="-6" y1="0.5" y2="0.5"></line><text fill="#000" x="-9" y="0.5" dy="0.32em">500</text></g><g class="tick" opacity="1" transform="translate(0,62.65957446808511)"><line stroke="#000" x2="-6" y1="0.5" y2="0.5"></line><text fill="#000" x="-9" y="0.5" dy="0.32em">600</text></g><g class="tick" opacity="1" transform="translate(0,21.436170212765944)"><line stroke="#000" x2="-6" y1="0.5" y2="0.5"></line><text fill="#000" x="-9" y="0.5" dy="0.32em">700</text></g></g></g></svg>