<svg xmlns="http://www.w3.org/2000/svg" width="280" height="160"><defs><style type="text/css"><![CDATA[ 
.bar rect {
  fill-opacity: 0;
  stroke:       black;
  stroke-width: 0.5;
}

.highlight rect {
  fill:       red;
  fill-opacity: 1;
}
.axis path,
.axis line {
  fill: none;
  stroke: #000;
  shape-rendering: crispEdges;
}
 ]]></style></defs><g transform="translate(50,10)"><g class="bar" transform="translate(0,120)"><rect x="1" width="11.5" height="0"></rect></g><g class="bar" transform="translate(12.5,120)"><rect x="1" width="11.5" height="0"></rect></g><g class="bar" transform="translate(25,119.39698492462311)"><rect x="1" width="11.5" height="0.6030150753768879"></rect></g><g class="bar" transform="translate(37.5,117.8894472361809)"><rect x="1" width="11.5" height="2.1105527638191006"></rect></g><g class="bar" transform="translate(50,109.44723618090453)"><rect x="1" width="11.5" height="10.552763819095475"></rect></g><g class="bar" transform="translate(62.5,88.94472361809045)"><rect x="1" width="11.5" height="31.05527638190955"></rect></g><g class="bar" transform="translate(75,69.3467336683417)"><rect x="1" width="11.5" height="50.6532663316583"></rect></g><g class="bar" transform="translate(87.5,44.02010050251256)"><rect x="1" width="11.5" height="75.97989949748744"></rect></g><g class="bar" transform="translate(100,0)"><rect x="1" width="11.5" height="120"></rect></g><g class="bar" transform="translate(112.5,37.688442211055275)"><rect x="1" width="11.5" height="82.31155778894473"></rect></g><g class="bar" transform="translate(125,72.36180904522612)"><rect x="1" width="11.5" height="47.638190954773876"></rect></g><g class="bar" transform="translate(137.5,103.41708542713567)"><rect x="1" width="11.5" height="16.582914572864325"></rect></g><g class="bar" transform="translate(150,116.98492462311557)"><rect x="1" width="11.5" height="3.0150753768844254"></rect></g><g class="bar" transform="translate(162.5,120)"><rect x="1" width="11.5" height="0"></rect></g><g class="bar" transform="translate(175,120)"><rect x="1" width="11.5" height="0"></rect></g><g class="bar" transform="translate(187.5,120)"><rect x="1" width="11.5" height="0"></rect></g></g></svg>