<svg xmlns="http://www.w3.org/2000/svg" width="600" height="350"><defs><style type="text/css"><![CDATA[ 
.bar rect {
  fill-opacity: 0;
  stroke:       black;
  stroke-width: 0.5;
}

.highlight rect {
  fill:       red;
  fill-opacity: 1;
}
.axis path,
.axis line {
  fill: none;
  stroke: #000;
  shape-rendering: crispEdges;
}
 ]]></style></defs><g transform="translate(50,10)"><g class="bar" transform="translate(0,310)"><rect x="1" width="11.999999999999996" height="0"></rect></g><g class="bar" transform="translate(12.999999999999996,310)"><rect x="1" width="11.999999999999996" height="0"></rect></g><g class="bar" transform="translate(25.999999999999993,310)"><rect x="1" width="11.999999999999996" height="0"></rect></g><g class="bar" transform="translate(39.00000000000001,310)"><rect x="1" width="11.999999999999996" height="0"></rect></g><g class="bar" transform="translate(52,310)"><rect x="1" width="11.999999999999996" height="0"></rect></g><g class="bar" transform="translate(65,308.4183673469388)"><rect x="1" width="11.999999999999996" height="1.581632653061206"></rect></g><g class="bar" transform="translate(78.00000000000001,310)"><rect x="1" width="11.999999999999996" height="0"></rect></g><g class="bar" transform="translate(91.00000000000001,308.4183673469388)"><rect x="1" width="11.999999999999996" height="1.581632653061206"></rect></g><g class="bar" transform="translate(104,306.83673469387753)"><rect x="1" width="11.999999999999996" height="3.1632653061224687"></rect></g><g class="bar" transform="translate(117,302.09183673469386)"><rect x="1" width="11.999999999999996" height="7.908163265306143"></rect></g><g class="bar" transform="translate(130,302.09183673469386)"><rect x="1" width="11.999999999999996" height="7.908163265306143"></rect></g><g class="bar" transform="translate(143,284.6938775510204)"><rect x="1" width="11.999999999999996" height="25.30612244897958"></rect></g><g class="bar" transform="translate(156.00000000000003,260.96938775510205)"><rect x="1" width="11.999999999999996" height="49.03061224489795"></rect></g><g class="bar" transform="translate(169,243.57142857142856)"><rect x="1" width="11.999999999999996" height="66.42857142857144"></rect></g><g class="bar" transform="translate(182.00000000000003,240.40816326530614)"><rect x="1" width="11.999999999999996" height="69.59183673469386"></rect></g><g class="bar" transform="translate(195,210.35714285714283)"><rect x="1" width="11.999999999999996" height="99.64285714285717"></rect></g><g class="bar" transform="translate(208,208.77551020408163)"><rect x="1" width="11.999999999999996" height="101.22448979591837"></rect></g><g class="bar" transform="translate(221.00000000000003,175.56122448979593)"><rect x="1" width="11.999999999999996" height="134.43877551020407"></rect></g><g class="bar" transform="translate(234,169.23469387755102)"><rect x="1" width="11.999999999999996" height="140.76530612244898"></rect></g><g class="bar" transform="translate(247.00000000000003,121.7857142857143)"><rect x="1" width="11.999999999999996" height="188.2142857142857"></rect></g><g class="bar" transform="translate(260,123.36734693877551)"><rect x="1" width="11.999999999999996" height="186.6326530612245"></rect></g><g class="bar" transform="translate(273,0)"><rect x="1" width="11.999999999999996" height="310"></rect></g><g class="bar" transform="translate(286,69.59183673469389)"><rect x="1" width="11.999999999999996" height="240.40816326530611"></rect></g><g class="bar" transform="translate(299.00000000000006,132.85714285714286)"><rect x="1" width="11.999999999999996" height="177.14285714285714"></rect></g><g class="bar" transform="translate(312.00000000000006,162.90816326530611)"><rect x="1" width="11.999999999999996" height="147.09183673469389"></rect></g><g class="bar" transform="translate(325,199.28571428571428)"><rect x="1" width="11.999999999999996" height="110.71428571428572"></rect></g><g class="bar" transform="translate(338,200.8673469387755)"><rect x="1" width="11.999999999999996" height="109.13265306122449"></rect></g><g class="bar" transform="translate(351,254.64285714285714)"><rect x="1" width="11.999999999999996" height="55.35714285714286"></rect></g><g class="bar" transform="translate(364.00000000000006,265.7142857142857)"><rect x="1" width="11.999999999999996" height="44.28571428571428"></rect></g><g class="bar" transform="translate(377.00000000000006,292.6020408163265)"><rect x="1" width="11.999999999999996" height="17.397959183673493"></rect></g><g class="bar" transform="translate(390,306.83673469387753)"><rect x="1" width="11.999999999999996" height="3.1632653061224687"></rect></g><g class="bar" transform="translate(403,300.51020408163265)"><rect x="1" width="11.999999999999996" height="9.48979591836735"></rect></g><g class="bar" transform="translate(416,306.83673469387753)"><rect x="1" width="11.999999999999996" height="3.1632653061224687"></rect></g><g class="bar" transform="translate(429.00000000000006,310)"><rect x="1" width="11.999999999999996" height="0"></rect></g><g class="bar" transform="translate(442.00000000000006,310)"><rect x="1" width="11.999999999999996" height="0"></rect></g><g class="bar" transform="translate(455,310)"><rect x="1" width="11.999999999999996" height="0"></rect></g><g class="bar" transform="translate(468,310)"><rect x="1" width="11.999999999999996" height="0"></rect></g><g class="bar" transform="translate(481,310)"><rect x="1" width="11.999999999999996" height="0"></rect></g><g class="bar" transform="translate(494.00000000000006,310)"><rect x="1" width="11.999999999999996" height="0"></rect></g><g class="bar" transform="translate(507.00000000000006,310)"><rect x="1" width="11.999999999999996" height="0"></rect></g><g class="axis axis--x" transform="translate(0,310)" fill="none" font-size="10" font-family="sans-serif" text-anchor="middle"><path class="domain" stroke="#000" d="M0.5,6V0.5H520.5V6"></path><g class="tick" opacity="1" transform="translate(0,0)"><line stroke="#000" y2="6" x1="0.5" x2="0.5"></line><text fill="#000" y="9" x="0.5" dy="0.71em">0.01</text></g><g class="tick" opacity="1" transform="translate(130,0)"><line stroke="#000" y2="6" x1="0.5" x2="0.5"></line><text fill="#000" y="9" x="0.5" dy="0.71em">1</text></g><g class="tick" opacity="1" transform="translate(260,0)"><line stroke="#000" y2="6" x1="0.5" x2="0.5"></line><text fill="#000" y="9" x="0.5" dy="0.71em">100</text></g><g class="tick" opacity="1" transform="translate(390,0)"><line stroke="#000" y2="6" x1="0.5" x2="0.5"></line><text fill="#000" y="9" x="0.5" dy="0.71em">10000</text></g><g class="tick" opacity="1" transform="translate(520,0)"><line stroke="#000" y2="6" x1="0.5" x2="0.5"></line><text fill="#000" y="9" x="0.5" dy="0.71em"></text></g></g><g class="axis axis--y" fill="none" font-size="10" font-family="sans-serif" text-anchor="end"><path class="domain" stroke="#000" d="M-6,310.5H0.5V0.5H-6"></path><g class="tick" opacity="1" transform="translate(0,310)"><line stroke="#000" x2="-6" y1="0.5" y2="0.5"></line><text fill="#000" x="-9" y="0.5" dy="0.32em">0</text></g><g class="tick" opacity="1" transform="translate(0,278.3673469387755)"><line stroke="#000" x2="-6" y1="0.5" y2="0.5"></line><text fill="#000" x="-9" y="0.5" dy="0.32em">20</text></g><g class="tick" opacity="1" transform="translate(0,246.73469387755102)"><line stroke="#000" x2="-6" y1="0.5" y2="0.5"></line><text fill="#000" x="-9" y="0.5" dy="0.32em">40</text></g><g class="tick" opacity="1" transform="translate(0,215.1020408163265)"><line stroke="#000" x2="-6" y1="0.5" y2="0.5"></line><text fill="#000" x="-9" y="0.5" dy="0.32em">60</text></g><g class="tick" opacity="1" transform="translate(0,183.46938775510205)"><line stroke="#000" x2="-6" y1="0.5" y2="0.5"></line><text fill="#000" x="-9" y="0.5" dy="0.32em">80</text></g><g class="tick" opacity="1" transform="translate(0,151.83673469387756)"><line stroke="#000" x2="-6" y1="0.5" y2="0.5"></line><text fill="#000" x="-9" y="0.5" dy="0.32em">100</text></g><g class="tick" opacity="1" transform="translate(0,120.20408163265304)"><line stroke="#000" x2="-6" y1="0.5" y2="0.5"></line><text fill="#000" x="-9" y="0.5" dy="0.32em">120</text></g><g class="tick" opacity="1" transform="translate(0,88.57142857142856)"><line stroke="#000" x2="-6" y1="0.5" y2="0.5"></line><text fill="#000" x="-9" y="0.5" dy="0.32em">140</text></g><g class="tick" opacity="1" transform="translate(0,56.93877551020407)"><line stroke="#000" x2="-6" y1="0.5" y2="0.5"></line><text fill="#000" x="-9" y="0.5" dy="0.32em">160</text></g><g class="tick" opacity="1" transform="translate(0,25.30612244897958)"><line stroke="#000" x2="-6" y1="0.5" y2="0.5"></line><text fill="#000" x="-9" y="0.5" dy="0.32em">180</text></g></g></g></svg>