<svg xmlns="http://www.w3.org/2000/svg" width="600" height="350"><defs><style type="text/css"><![CDATA[ 
.bar rect {
  fill-opacity: 0;
  stroke:       black;
  stroke-width: 0.5;
}

.highlight rect {
  fill:       red;
  fill-opacity: 1;
}
.axis path,
.axis line {
  fill: none;
  stroke: #000;
  shape-rendering: crispEdges;
}
path {
    stroke: red;
    fill: none;
}

line {
    stroke: red;
}

path.marker {
    fill: red;
}
 ]]></style></defs><g transform="translate(50,10)"><g class="bar" transform="translate(0,310)"><rect x="1" width="11.999999999999996" height="0"></rect></g><g class="bar" transform="translate(12.999999999999996,310)"><rect x="1" width="11.999999999999996" height="0"></rect></g><g class="bar" transform="translate(25.999999999999993,310)"><rect x="1" width="11.999999999999996" height="0"></rect></g><g class="bar" transform="translate(39.00000000000001,310)"><rect x="1" width="11.999999999999996" height="0"></rect></g><g class="bar" transform="translate(52,310)"><rect x="1" width="11.999999999999996" height="0"></rect></g><g class="bar" transform="translate(65,310)"><rect x="1" width="11.999999999999996" height="0"></rect></g><g class="bar" transform="translate(78.00000000000001,310)"><rect x="1" width="11.999999999999996" height="0"></rect></g><g class="bar" transform="translate(91.00000000000001,310)"><rect x="1" width="11.999999999999996" height="0"></rect></g><g class="bar" transform="translate(104,310)"><rect x="1" width="11.999999999999996" height="0"></rect></g><g class="bar" transform="translate(117,310)"><rect x="1" width="11.999999999999996" height="0"></rect></g><g class="bar" transform="translate(130,308.83458646616543)"><rect x="1" width="11.999999999999996" height="1.1654135338345668"></rect></g><g class="bar" transform="translate(143,305.3383458646617)"><rect x="1" width="11.999999999999996" height="4.661654135338324"></rect></g><g class="bar" transform="translate(156.00000000000003,300.6766917293233)"><rect x="1" width="11.999999999999996" height="9.323308270676705"></rect></g><g class="bar" transform="translate(169,273.8721804511278)"><rect x="1" width="11.999999999999996" height="36.127819548872196"></rect></g><g class="bar" transform="translate(182.00000000000003,238.90977443609023)"><rect x="1" width="11.999999999999996" height="71.09022556390977"></rect></g><g class="bar" transform="translate(195,172.48120300751881)"><rect x="1" width="11.999999999999996" height="137.51879699248119"></rect></g><g class="bar" transform="translate(208,118.87218045112783)"><rect x="1" width="11.999999999999996" height="191.12781954887217"></rect></g><g class="bar" transform="translate(221.00000000000003,85.07518796992483)"><rect x="1" width="11.999999999999996" height="224.92481203007517"></rect></g><g class="bar" transform="translate(234,57.10526315789474)"><rect x="1" width="11.999999999999996" height="252.89473684210526"></rect></g><g class="bar" transform="translate(247.00000000000003,26.80451127819549)"><rect x="1" width="11.999999999999996" height="283.1954887218045"></rect></g><g class="bar" transform="translate(260,0)"><rect x="1" width="11.999999999999996" height="310"></rect></g><g class="bar" transform="translate(273,8.157894736842081)"><rect x="1" width="11.999999999999996" height="301.8421052631579"></rect></g><g class="bar" transform="translate(286,78.08270676691728)"><rect x="1" width="11.999999999999996" height="231.91729323308272"></rect></g><g class="bar" transform="translate(299.00000000000006,104.8872180451128)"><rect x="1" width="11.999999999999996" height="205.1127819548872"></rect></g><g class="bar" transform="translate(312.00000000000006,159.66165413533835)"><rect x="1" width="11.999999999999996" height="150.33834586466165"></rect></g><g class="bar" transform="translate(325,240.0751879699248)"><rect x="1" width="11.999999999999996" height="69.9248120300752"></rect></g><g class="bar" transform="translate(338,257.5563909774436)"><rect x="1" width="11.999999999999996" height="52.443609022556416"></rect></g><g class="bar" transform="translate(351,249.3984962406015)"><rect x="1" width="11.999999999999996" height="60.6015037593985"></rect></g><g class="bar" transform="translate(364.00000000000006,279.69924812030075)"><rect x="1" width="11.999999999999996" height="30.30075187969925"></rect></g><g class="bar" transform="translate(377.00000000000006,305.3383458646617)"><rect x="1" width="11.999999999999996" height="4.661654135338324"></rect></g><g class="bar" transform="translate(390,303.0075187969925)"><rect x="1" width="11.999999999999996" height="6.9924812030075145"></rect></g><g class="bar" transform="translate(403,308.83458646616543)"><rect x="1" width="11.999999999999996" height="1.1654135338345668"></rect></g><g class="bar" transform="translate(416,308.83458646616543)"><rect x="1" width="11.999999999999996" height="1.1654135338345668"></rect></g><g class="bar" transform="translate(429.00000000000006,310)"><rect x="1" width="11.999999999999996" height="0"></rect></g><g class="bar" transform="translate(442.00000000000006,310)"><rect x="1" width="11.999999999999996" height="0"></rect></g><g class="bar" transform="translate(455,310)"><rect x="1" width="11.999999999999996" height="0"></rect></g><g class="bar" transform="translate(468,310)"><rect x="1" width="11.999999999999996" height="0"></rect></g><g class="bar" transform="translate(481,310)"><rect x="1" width="11.999999999999996" height="0"></rect></g><g class="bar" transform="translate(494.00000000000006,310)"><rect x="1" width="11.999999999999996" height="0"></rect></g><g class="bar" transform="translate(507.00000000000006,310)"><rect x="1" width="11.999999999999996" height="0"></rect></g><g class="axis axis--x" transform="translate(0,310)" fill="none" font-size="10" font-family="sans-serif" text-anchor="middle"><path class="domain" stroke="#000" d="M0.5,6V0.5H520.5V6"></path><g class="tick" opacity="1" transform="translate(0.5,0)"><line stroke="#000" y2="6"></line><text fill="#000" y="9" dy="0.71em">0.01</text></g><g class="tick" opacity="1" transform="translate(130.5,0)"><line stroke="#000" y2="6"></line><text fill="#000" y="9" dy="0.71em">1</text></g><g class="tick" opacity="1" transform="translate(260.5,0)"><line stroke="#000" y2="6"></line><text fill="#000" y="9" dy="0.71em">100</text></g><g class="tick" opacity="1" transform="translate(390.5,0)"><line stroke="#000" y2="6"></line><text fill="#000" y="9" dy="0.71em">10000</text></g><g class="tick" opacity="1" transform="translate(520.5,0)"><line stroke="#000" y2="6"></line><text fill="#000" y="9" dy="0.71em"></text></g></g><g class="axis axis--y" fill="none" font-size="10" font-family="sans-serif" text-anchor="end"><path class="domain" stroke="#000" d="M-6,310.5H0.5V0.5H-6"></path><g class="tick" opacity="1" transform="translate(0,310.5)"><line stroke="#000" x2="-6"></line><text fill="#000" x="-9" dy="0.32em">0</text></g><g class="tick" opacity="1" transform="translate(0,287.19172932330827)"><line stroke="#000" x2="-6"></line><text fill="#000" x="-9" dy="0.32em">20</text></g><g class="tick" opacity="1" transform="translate(0,263.88345864661653)"><line stroke="#000" x2="-6"></line><text fill="#000" x="-9" dy="0.32em">40</text></g><g class="tick" opacity="1" transform="translate(0,240.5751879699248)"><line stroke="#000" x2="-6"></line><text fill="#000" x="-9" dy="0.32em">60</text></g><g class="tick" opacity="1" transform="translate(0,217.2669172932331)"><line stroke="#000" x2="-6"></line><text fill="#000" x="-9" dy="0.32em">80</text></g><g class="tick" opacity="1" transform="translate(0,193.95864661654136)"><line stroke="#000" x2="-6"></line><text fill="#000" x="-9" dy="0.32em">100</text></g><g class="tick" opacity="1" transform="translate(0,170.65037593984962)"><line stroke="#000" x2="-6"></line><text fill="#000" x="-9" dy="0.32em">120</text></g><g class="tick" opacity="1" transform="translate(0,147.3421052631579)"><line stroke="#000" x2="-6"></line><text fill="#000" x="-9" dy="0.32em">140</text></g><g class="tick" opacity="1" transform="translate(0,124.03383458646618)"><line stroke="#000" x2="-6"></line><text fill="#000" x="-9" dy="0.32em">160</text></g><g class="tick" opacity="1" transform="translate(0,100.72556390977445)"><line stroke="#000" x2="-6"></line><text fill="#000" x="-9" dy="0.32em">180</text></g><g class="tick" opacity="1" transform="translate(0,77.41729323308272)"><line stroke="#000" x2="-6"></line><text fill="#000" x="-9" dy="0.32em">200</text></g><g class="tick" opacity="1" transform="translate(0,54.10902255639098)"><line stroke="#000" x2="-6"></line><text fill="#000" x="-9" dy="0.32em">220</text></g><g class="tick" opacity="1" transform="translate(0,30.80075187969925)"><line stroke="#000" x2="-6"></line><text fill="#000" x="-9" dy="0.32em">240</text></g><g class="tick" opacity="1" transform="translate(0,7.4924812030075145)"><line stroke="#000" x2="-6"></line><text fill="#000" x="-9" dy="0.32em">260</text></g></g></g></svg>