<svg xmlns="http://www.w3.org/2000/svg" width="280" height="160"><defs><style type="text/css"><![CDATA[ 
.bar rect {
  fill-opacity: 0;
  stroke:       black;
  stroke-width: 0.5;
}

.highlight rect {
  fill:       red;
  fill-opacity: 1;
}
.axis path,
.axis line {
  fill: none;
  stroke: #000;
  shape-rendering: crispEdges;
}
 ]]></style></defs><g transform="translate(50,10)"><g class="bar" transform="translate(0,120)"><rect x="1" width="11.5" height="0"></rect></g><g class="bar" transform="translate(12.5,119.91268493815183)"><rect x="1" width="11.5" height="0.08731506184817306"></rect></g><g class="bar" transform="translate(25,119.7380548144555)"><rect x="1" width="11.5" height="0.26194518554450497"></rect></g><g class="bar" transform="translate(37.5,115.02304147465438)"><rect x="1" width="11.5" height="4.976958525345623"></rect></g><g class="bar" transform="translate(50,73.43196701430998)"><rect x="1" width="11.5" height="46.568032985690024"></rect></g><g class="bar" transform="translate(62.5,0)"><rect x="1" width="11.5" height="120"></rect></g><g class="bar" transform="translate(75,41.882124666504964)"><rect x="1" width="11.5" height="78.11787533349504"></rect></g><g class="bar" transform="translate(87.5,86.47101625030318)"><rect x="1" width="11.5" height="33.52898374969682"></rect></g><g class="bar" transform="translate(100,100.76158137278681)"><rect x="1" width="11.5" height="19.238418627213193"></rect></g><g class="bar" transform="translate(112.5,106.2915352898375)"><rect x="1" width="11.5" height="13.708464710162502"></rect></g><g class="bar" transform="translate(125,113.21853019645889)"><rect x="1" width="11.5" height="6.781469803541114"></rect></g><g class="bar" transform="translate(137.5,119.30147950521464)"><rect x="1" width="11.5" height="0.698520494785356"></rect></g><g class="bar" transform="translate(150,119.97089497938394)"><rect x="1" width="11.5" height="0.029105020616057686"></rect></g><g class="bar" transform="translate(162.5,120)"><rect x="1" width="11.5" height="0"></rect></g><g class="bar" transform="translate(175,120)"><rect x="1" width="11.5" height="0"></rect></g><g class="bar" transform="translate(187.5,120)"><rect x="1" width="11.5" height="0"></rect></g></g></svg>