<svg xmlns="http://www.w3.org/2000/svg" width="600" height="350"><defs><style type="text/css"><![CDATA[ 
.bar rect {
  fill-opacity: 0;
  stroke:       black;
  stroke-width: 0.5;
}

.highlight rect {
  fill:       red;
  fill-opacity: 1;
}
.axis path,
.axis line {
  fill: none;
  stroke: #000;
  shape-rendering: crispEdges;
}
path {
    stroke: red;
    fill: none;
}

line {
    stroke: red;
}

path.marker {
    fill: red;
}
 ]]></style></defs><g transform="translate(50,10)"><g class="bar" transform="translate(0,310)"><rect x="1" width="5.500000000000005" height="0"></rect></g><g class="bar" transform="translate(6.500000000000005,310)"><rect x="1" width="5.500000000000005" height="0"></rect></g><g class="bar" transform="translate(12.999999999999996,310)"><rect x="1" width="5.500000000000005" height="0"></rect></g><g class="bar" transform="translate(19.500000000000004,310)"><rect x="1" width="5.500000000000005" height="0"></rect></g><g class="bar" transform="translate(25.999999999999993,310)"><rect x="1" width="5.500000000000005" height="0"></rect></g><g class="bar" transform="translate(32.5,310)"><rect x="1" width="5.500000000000005" height="0"></rect></g><g class="bar" transform="translate(39.00000000000001,310)"><rect x="1" width="5.500000000000005" height="0"></rect></g><g class="bar" transform="translate(45.500000000000014,310)"><rect x="1" width="5.500000000000005" height="0"></rect></g><g class="bar" transform="translate(52,310)"><rect x="1" width="5.500000000000005" height="0"></rect></g><g class="bar" transform="translate(58.49999999999999,310)"><rect x="1" width="5.500000000000005" height="0"></rect></g><g class="bar" transform="translate(65,310)"><rect x="1" width="5.500000000000005" height="0"></rect></g><g class="bar" transform="translate(71.5,310)"><rect x="1" width="5.500000000000005" height="0"></rect></g><g class="bar" transform="translate(78.00000000000001,310)"><rect x="1" width="5.500000000000005" height="0"></rect></g><g class="bar" transform="translate(84.5,310)"><rect x="1" width="5.500000000000005" height="0"></rect></g><g class="bar" transform="translate(91.00000000000001,310)"><rect x="1" width="5.500000000000005" height="0"></rect></g><g class="bar" transform="translate(97.5,310)"><rect x="1" width="5.500000000000005" height="0"></rect></g><g class="bar" transform="translate(104,310)"><rect x="1" width="5.500000000000005" height="0"></rect></g><g class="bar" transform="translate(110.50000000000001,310)"><rect x="1" width="5.500000000000005" height="0"></rect></g><g class="bar" transform="translate(117,310)"><rect x="1" width="5.500000000000005" height="0"></rect></g><g class="bar" transform="translate(123.50000000000001,310)"><rect x="1" width="5.500000000000005" height="0"></rect></g><g class="bar" transform="translate(130,310)"><rect x="1" width="5.500000000000005" height="0"></rect></g><g class="bar" transform="translate(136.5,310)"><rect x="1" width="5.500000000000005" height="0"></rect></g><g class="bar" transform="translate(143,310)"><rect x="1" width="5.500000000000005" height="0"></rect></g><g class="bar" transform="translate(149.50000000000003,310)"><rect x="1" width="5.500000000000005" height="0"></rect></g><g class="bar" transform="translate(156.00000000000003,310)"><rect x="1" width="5.500000000000005" height="0"></rect></g><g class="bar" transform="translate(162.5,310)"><rect x="1" width="5.500000000000005" height="0"></rect></g><g class="bar" transform="translate(169,310)"><rect x="1" width="5.500000000000005" height="0"></rect></g><g class="bar" transform="translate(175.5,310)"><rect x="1" width="5.500000000000005" height="0"></rect></g><g class="bar" transform="translate(182.00000000000003,310)"><rect x="1" width="5.500000000000005" height="0"></rect></g><g class="bar" transform="translate(188.50000000000003,310)"><rect x="1" width="5.500000000000005" height="0"></rect></g><g class="bar" transform="translate(195,310)"><rect x="1" width="5.500000000000005" height="0"></rect></g><g class="bar" transform="translate(201.5,310)"><rect x="1" width="5.500000000000005" height="0"></rect></g><g class="bar" transform="translate(208,310)"><rect x="1" width="5.500000000000005" height="0"></rect></g><g class="bar" transform="translate(214.50000000000003,281.02803738317755)"><rect x="1" width="5.500000000000005" height="28.971962616822452"></rect></g><g class="bar" transform="translate(221.00000000000003,17.383177570093437)"><rect x="1" width="5.500000000000005" height="292.61682242990656"></rect></g><g class="bar" transform="translate(227.5,13.037383177570064)"><rect x="1" width="5.500000000000005" height="296.96261682242994"></rect></g><g class="bar" transform="translate(234,1.4485981308411056)"><rect x="1" width="5.500000000000005" height="308.5514018691589"></rect></g><g class="bar" transform="translate(240.5,0)"><rect x="1" width="5.500000000000005" height="310"></rect></g><g class="bar" transform="translate(247.00000000000003,39.11214953271025)"><rect x="1" width="5.500000000000005" height="270.88785046728975"></rect></g><g class="bar" transform="translate(253.50000000000003,11.588785046728958)"><rect x="1" width="5.500000000000005" height="298.41121495327104"></rect></g><g class="bar" transform="translate(260,34.76635514018693)"><rect x="1" width="5.500000000000005" height="275.23364485981307"></rect></g><g class="bar" transform="translate(266.50000000000006,94.15887850467288)"><rect x="1" width="5.500000000000005" height="215.84112149532712"></rect></g><g class="bar" transform="translate(273,101.40186915887853)"><rect x="1" width="5.500000000000005" height="208.59813084112147"></rect></g><g class="bar" transform="translate(279.5,155)"><rect x="1" width="5.500000000000005" height="155"></rect></g><g class="bar" transform="translate(286,172.38317757009347)"><rect x="1" width="5.500000000000005" height="137.61682242990653"></rect></g><g class="bar" transform="translate(292.5,189.76635514018693)"><rect x="1" width="5.500000000000005" height="120.23364485981307"></rect></g><g class="bar" transform="translate(299.00000000000006,230.32710280373834)"><rect x="1" width="5.500000000000005" height="79.67289719626166"></rect></g><g class="bar" transform="translate(305.5,221.6355140186916)"><rect x="1" width="5.500000000000005" height="88.3644859813084"></rect></g><g class="bar" transform="translate(312.00000000000006,240.46728971962617)"><rect x="1" width="5.500000000000005" height="69.53271028037383"></rect></g><g class="bar" transform="translate(318.5,230.32710280373834)"><rect x="1" width="5.500000000000005" height="79.67289719626166"></rect></g><g class="bar" transform="translate(325,246.26168224299067)"><rect x="1" width="5.500000000000005" height="63.73831775700933"></rect></g><g class="bar" transform="translate(331.50000000000006,244.81308411214954)"><rect x="1" width="5.500000000000005" height="65.18691588785046"></rect></g><g class="bar" transform="translate(338,256.4018691588785)"><rect x="1" width="5.500000000000005" height="53.598130841121474"></rect></g><g class="bar" transform="translate(344.50000000000006,272.33644859813086)"><rect x="1" width="5.500000000000005" height="37.66355140186914"></rect></g><g class="bar" transform="translate(351,281.02803738317755)"><rect x="1" width="5.500000000000005" height="28.971962616822452"></rect></g><g class="bar" transform="translate(357.5,295.5140186915888)"><rect x="1" width="5.500000000000005" height="14.485981308411226"></rect></g><g class="bar" transform="translate(364.00000000000006,298.41121495327104)"><rect x="1" width="5.500000000000005" height="11.588785046728958"></rect></g><g class="bar" transform="translate(370.5,301.30841121495325)"><rect x="1" width="5.500000000000005" height="8.691588785046747"></rect></g><g class="bar" transform="translate(377.00000000000006,299.85981308411215)"><rect x="1" width="5.500000000000005" height="10.140186915887853"></rect></g><g class="bar" transform="translate(383.5,304.2056074766355)"><rect x="1" width="5.500000000000005" height="5.794392523364479"></rect></g><g class="bar" transform="translate(390,305.6542056074766)"><rect x="1" width="5.500000000000005" height="4.3457943925233735"></rect></g><g class="bar" transform="translate(396.50000000000006,307.10280373831773)"><rect x="1" width="5.500000000000005" height="2.897196261682268"></rect></g><g class="bar" transform="translate(403,307.10280373831773)"><rect x="1" width="5.500000000000005" height="2.897196261682268"></rect></g><g class="bar" transform="translate(409.50000000000006,310)"><rect x="1" width="5.500000000000005" height="0"></rect></g><g class="bar" transform="translate(416,307.10280373831773)"><rect x="1" width="5.500000000000005" height="2.897196261682268"></rect></g><g class="bar" transform="translate(422.5,310)"><rect x="1" width="5.500000000000005" height="0"></rect></g><g class="bar" transform="translate(429.00000000000006,310)"><rect x="1" width="5.500000000000005" height="0"></rect></g><g class="bar" transform="translate(435.5,310)"><rect x="1" width="5.500000000000005" height="0"></rect></g><g class="bar" transform="translate(442.00000000000006,310)"><rect x="1" width="5.500000000000005" height="0"></rect></g><g class="bar" transform="translate(448.5,310)"><rect x="1" width="5.500000000000005" height="0"></rect></g><g class="bar" transform="translate(455,310)"><rect x="1" width="5.500000000000005" height="0"></rect></g><g class="bar" transform="translate(461.50000000000006,310)"><rect x="1" width="5.500000000000005" height="0"></rect></g><g class="bar" transform="translate(468,310)"><rect x="1" width="5.500000000000005" height="0"></rect></g><g class="bar" transform="translate(474.50000000000006,310)"><rect x="1" width="5.500000000000005" height="0"></rect></g><g class="bar" transform="translate(481,310)"><rect x="1" width="5.500000000000005" height="0"></rect></g><g class="bar" transform="translate(487.5,310)"><rect x="1" width="5.500000000000005" height="0"></rect></g><g class="bar" transform="translate(494.00000000000006,310)"><rect x="1" width="5.500000000000005" height="0"></rect></g><g class="bar" transform="translate(500.5,310)"><rect x="1" width="5.500000000000005" height="0"></rect></g><g class="bar" transform="translate(507.00000000000006,310)"><rect x="1" width="5.500000000000005" height="0"></rect></g><g class="bar" transform="translate(513.5,310)"><rect x="1" width="5.500000000000005" height="0"></rect></g><g class="axis axis--x" transform="translate(0,310)" fill="none" font-size="10" font-family="sans-serif" text-anchor="middle"><path class="domain" stroke="#000" d="M0.5,6V0.5H520.5V6"></path><g class="tick" opacity="1" transform="translate(0.5,0)"><line stroke="#000" y2="6"></line><text fill="#000" y="9" dy="0.71em">0.01</text></g><g class="tick" opacity="1" transform="translate(130.5,0)"><line stroke="#000" y2="6"></line><text fill="#000" y="9" dy="0.71em">1</text></g><g class="tick" opacity="1" transform="translate(260.5,0)"><line stroke="#000" y2="6"></line><text fill="#000" y="9" dy="0.71em">100</text></g><g class="tick" opacity="1" transform="translate(390.5,0)"><line stroke="#000" y2="6"></line><text fill="#000" y="9" dy="0.71em">10000</text></g><g class="tick" opacity="1" transform="translate(520.5,0)"><line stroke="#000" y2="6"></line><text fill="#000" y="9" dy="0.71em"></text></g></g><g class="axis axis--y" fill="none" font-size="10" font-family="sans-serif" text-anchor="end"><path class="domain" stroke="#000" d="M-6,310.5H0.5V0.5H-6"></path><g class="tick" opacity="1" transform="translate(0,310.5)"><line stroke="#000" x2="-6"></line><text fill="#000" x="-9" dy="0.32em">0</text></g><g class="tick" opacity="1" transform="translate(0,281.52803738317755)"><line stroke="#000" x2="-6"></line><text fill="#000" x="-9" dy="0.32em">20</text></g><g class="tick" opacity="1" transform="translate(0,252.55607476635515)"><line stroke="#000" x2="-6"></line><text fill="#000" x="-9" dy="0.32em">40</text></g><g class="tick" opacity="1" transform="translate(0,223.5841121495327)"><line stroke="#000" x2="-6"></line><text fill="#000" x="-9" dy="0.32em">60</text></g><g class="tick" opacity="1" transform="translate(0,194.6121495327103)"><line stroke="#000" x2="-6"></line><text fill="#000" x="-9" dy="0.32em">80</text></g><g class="tick" opacity="1" transform="translate(0,165.64018691588785)"><line stroke="#000" x2="-6"></line><text fill="#000" x="-9" dy="0.32em">100</text></g><g class="tick" opacity="1" transform="translate(0,136.66822429906543)"><line stroke="#000" x2="-6"></line><text fill="#000" x="-9" dy="0.32em">120</text></g><g class="tick" opacity="1" transform="translate(0,107.696261682243)"><line stroke="#000" x2="-6"></line><text fill="#000" x="-9" dy="0.32em">140</text></g><g class="tick" opacity="1" transform="translate(0,78.72429906542058)"><line stroke="#000" x2="-6"></line><text fill="#000" x="-9" dy="0.32em">160</text></g><g class="tick" opacity="1" transform="translate(0,49.75233644859816)"><line stroke="#000" x2="-6"></line><text fill="#000" x="-9" dy="0.32em">180</text></g><g class="tick" opacity="1" transform="translate(0,20.780373831775705)"><line stroke="#000" x2="-6"></line><text fill="#000" x="-9" dy="0.32em">200</text></g></g></g></svg>