<svg xmlns="http://www.w3.org/2000/svg" width="280" height="160"><defs><style type="text/css"><![CDATA[ 
.bar rect {
  fill-opacity: 0;
  stroke:       black;
  stroke-width: 0.5;
}

.highlight rect {
  fill:       red;
  fill-opacity: 1;
}
.axis path,
.axis line {
  fill: none;
  stroke: #000;
  shape-rendering: crispEdges;
}
 ]]></style></defs><g transform="translate(50,10)"><g class="bar" transform="translate(0,119.1864406779661)"><rect x="1" width="11.5" height="0.8135593220338961"></rect></g><g class="bar" transform="translate(12.5,109.01694915254237)"><rect x="1" width="11.5" height="10.983050847457633"></rect></g><g class="bar" transform="translate(25,82.57627118644068)"><rect x="1" width="11.5" height="37.42372881355932"></rect></g><g class="bar" transform="translate(37.5,55.728813559322035)"><rect x="1" width="11.5" height="64.27118644067797"></rect></g><g class="bar" transform="translate(50,26.305084745762713)"><rect x="1" width="11.5" height="93.69491525423729"></rect></g><g class="bar" transform="translate(62.5,3.932203389830505)"><rect x="1" width="11.5" height="116.0677966101695"></rect></g><g class="bar" transform="translate(75,0)"><rect x="1" width="11.5" height="120"></rect></g><g class="bar" transform="translate(87.5,22.372881355932194)"><rect x="1" width="11.5" height="97.6271186440678"></rect></g><g class="bar" transform="translate(100,51.11864406779661)"><rect x="1" width="11.5" height="68.88135593220339"></rect></g><g class="bar" transform="translate(112.5,76.20338983050848)"><rect x="1" width="11.5" height="43.796610169491515"></rect></g><g class="bar" transform="translate(125,100.74576271186442)"><rect x="1" width="11.5" height="19.254237288135585"></rect></g><g class="bar" transform="translate(137.5,111.86440677966101)"><rect x="1" width="11.5" height="8.13559322033899"></rect></g><g class="bar" transform="translate(150,118.77966101694915)"><rect x="1" width="11.5" height="1.2203389830508513"></rect></g><g class="bar" transform="translate(162.5,120)"><rect x="1" width="11.5" height="0"></rect></g><g class="bar" transform="translate(175,120)"><rect x="1" width="11.5" height="0"></rect></g><g class="bar" transform="translate(187.5,120)"><rect x="1" width="11.5" height="0"></rect></g></g></svg>