<svg xmlns="http://www.w3.org/2000/svg" width="600" height="350"><defs><style type="text/css"><![CDATA[ 
.bar rect {
  fill-opacity: 0;
  stroke:       black;
  stroke-width: 0.5;
}

.highlight rect {
  fill:       red;
  fill-opacity: 1;
}
.axis path,
.axis line {
  fill: none;
  stroke: #000;
  shape-rendering: crispEdges;
}
path {
    stroke: red;
    fill: none;
}

line {
    stroke: red;
}

path.marker {
    fill: red;
}
 ]]></style></defs><g transform="translate(50,10)"><g class="bar" transform="translate(0,276.77348066298345)"><rect x="1" width="11.999999999999996" height="33.226519337016555"></rect></g><g class="bar" transform="translate(12.999999999999996,257.5911602209945)"><rect x="1" width="11.999999999999996" height="52.40883977900552"></rect></g><g class="bar" transform="translate(25.999999999999993,222.65193370165747)"><rect x="1" width="11.999999999999996" height="87.34806629834253"></rect></g><g class="bar" transform="translate(39.00000000000001,149.69060773480663)"><rect x="1" width="11.999999999999996" height="160.30939226519337"></rect></g><g class="bar" transform="translate(52,112.69613259668509)"><rect x="1" width="11.999999999999996" height="197.3038674033149"></rect></g><g class="bar" transform="translate(65,94.88397790055251)"><rect x="1" width="11.999999999999996" height="215.1160220994475"></rect></g><g class="bar" transform="translate(78.00000000000001,81.86740331491711)"><rect x="1" width="11.999999999999996" height="228.1325966850829"></rect></g><g class="bar" transform="translate(91.00000000000001,51.38121546961327)"><rect x="1" width="11.999999999999996" height="258.61878453038673"></rect></g><g class="bar" transform="translate(104,32.88397790055245)"><rect x="1" width="11.999999999999996" height="277.11602209944755"></rect></g><g class="bar" transform="translate(117,28.430939226519342)"><rect x="1" width="11.999999999999996" height="281.56906077348066"></rect></g><g class="bar" transform="translate(130,16.441988950276254)"><rect x="1" width="11.999999999999996" height="293.55801104972375"></rect></g><g class="bar" transform="translate(143,0)"><rect x="1" width="11.999999999999996" height="310"></rect></g><g class="bar" transform="translate(156.00000000000003,13.01657458563534)"><rect x="1" width="11.999999999999996" height="296.98342541436466"></rect></g><g class="bar" transform="translate(169,5.823204419889521)"><rect x="1" width="11.999999999999996" height="304.1767955801105"></rect></g><g class="bar" transform="translate(182.00000000000003,17.81215469613261)"><rect x="1" width="11.999999999999996" height="292.1878453038674"></rect></g><g class="bar" transform="translate(195,54.46408839779005)"><rect x="1" width="11.999999999999996" height="255.53591160220995"></rect></g><g class="bar" transform="translate(208,94.1988950276243)"><rect x="1" width="11.999999999999996" height="215.8011049723757"></rect></g><g class="bar" transform="translate(221.00000000000003,94.5414364640884)"><rect x="1" width="11.999999999999996" height="215.4585635359116"></rect></g><g class="bar" transform="translate(234,135.3038674033149)"><rect x="1" width="11.999999999999996" height="174.6961325966851"></rect></g><g class="bar" transform="translate(247.00000000000003,149.00552486187846)"><rect x="1" width="11.999999999999996" height="160.99447513812154"></rect></g><g class="bar" transform="translate(260,167.84530386740332)"><rect x="1" width="11.999999999999996" height="142.15469613259668"></rect></g><g class="bar" transform="translate(273,210.32044198895028)"><rect x="1" width="11.999999999999996" height="99.67955801104972"></rect></g><g class="bar" transform="translate(286,212.3756906077348)"><rect x="1" width="11.999999999999996" height="97.62430939226519"></rect></g><g class="bar" transform="translate(299.00000000000006,239.77900552486187)"><rect x="1" width="11.999999999999996" height="70.22099447513813"></rect></g><g class="bar" transform="translate(312.00000000000006,265.4696132596685)"><rect x="1" width="11.999999999999996" height="44.530386740331494"></rect></g><g class="bar" transform="translate(325,290.47513812154693)"><rect x="1" width="11.999999999999996" height="19.524861878453066"></rect></g><g class="bar" transform="translate(338,296.64088397790056)"><rect x="1" width="11.999999999999996" height="13.359116022099442"></rect></g><g class="bar" transform="translate(351,301.0939226519337)"><rect x="1" width="11.999999999999996" height="8.906077348066276"></rect></g><g class="bar" transform="translate(364.00000000000006,305.54696132596683)"><rect x="1" width="11.999999999999996" height="4.4530386740331664"></rect></g><g class="bar" transform="translate(377.00000000000006,308.28729281767954)"><rect x="1" width="11.999999999999996" height="1.7127071823204574"></rect></g><g class="bar" transform="translate(390,308.97237569060775)"><rect x="1" width="11.999999999999996" height="1.0276243093922517"></rect></g><g class="bar" transform="translate(403,308.62983425414365)"><rect x="1" width="11.999999999999996" height="1.3701657458563545"></rect></g><g class="bar" transform="translate(416,309.6574585635359)"><rect x="1" width="11.999999999999996" height="0.34254143646410284"></rect></g><g class="bar" transform="translate(429.00000000000006,310)"><rect x="1" width="11.999999999999996" height="0"></rect></g><g class="bar" transform="translate(442.00000000000006,310)"><rect x="1" width="11.999999999999996" height="0"></rect></g><g class="bar" transform="translate(455,310)"><rect x="1" width="11.999999999999996" height="0"></rect></g><g class="bar" transform="translate(468,310)"><rect x="1" width="11.999999999999996" height="0"></rect></g><g class="bar" transform="translate(481,310)"><rect x="1" width="11.999999999999996" height="0"></rect></g><g class="bar" transform="translate(494.00000000000006,310)"><rect x="1" width="11.999999999999996" height="0"></rect></g><g class="bar" transform="translate(507.00000000000006,310)"><rect x="1" width="11.999999999999996" height="0"></rect></g><g class="axis axis--x" transform="translate(0,310)" fill="none" font-size="10" font-family="sans-serif" text-anchor="middle"><path class="domain" stroke="#000" d="M0.5,6V0.5H520.5V6"></path><g class="tick" opacity="1" transform="translate(0.5,0)"><line stroke="#000" y2="6"></line><text fill="#000" y="9" dy="0.71em">0.01</text></g><g class="tick" opacity="1" transform="translate(130.5,0)"><line stroke="#000" y2="6"></line><text fill="#000" y="9" dy="0.71em">1</text></g><g class="tick" opacity="1" transform="translate(260.5,0)"><line stroke="#000" y2="6"></line><text fill="#000" y="9" dy="0.71em">100</text></g><g class="tick" opacity="1" transform="translate(390.5,0)"><line stroke="#000" y2="6"></line><text fill="#000" y="9" dy="0.71em">10000</text></g><g class="tick" opacity="1" transform="translate(520.5,0)"><line stroke="#000" y2="6"></line><text fill="#000" y="9" dy="0.71em"></text></g></g><g class="axis axis--y" fill="none" font-size="10" font-family="sans-serif" text-anchor="end"><path class="domain" stroke="#000" d="M-6,310.5H0.5V0.5H-6"></path><g class="tick" opacity="1" transform="translate(0,310.5)"><line stroke="#000" x2="-6"></line><text fill="#000" x="-9" dy="0.32em">0</text></g><g class="tick" opacity="1" transform="translate(0,276.2458563535912)"><line stroke="#000" x2="-6"></line><text fill="#000" x="-9" dy="0.32em">100</text></g><g class="tick" opacity="1" transform="translate(0,241.99171270718233)"><line stroke="#000" x2="-6"></line><text fill="#000" x="-9" dy="0.32em">200</text></g><g class="tick" opacity="1" transform="translate(0,207.73756906077347)"><line stroke="#000" x2="-6"></line><text fill="#000" x="-9" dy="0.32em">300</text></g><g class="tick" opacity="1" transform="translate(0,173.48342541436466)"><line stroke="#000" x2="-6"></line><text fill="#000" x="-9" dy="0.32em">400</text></g><g class="tick" opacity="1" transform="translate(0,139.2292817679558)"><line stroke="#000" x2="-6"></line><text fill="#000" x="-9" dy="0.32em">500</text></g><g class="tick" opacity="1" transform="translate(0,104.97513812154696)"><line stroke="#000" x2="-6"></line><text fill="#000" x="-9" dy="0.32em">600</text></g><g class="tick" opacity="1" transform="translate(0,70.72099447513813)"><line stroke="#000" x2="-6"></line><text fill="#000" x="-9" dy="0.32em">700</text></g><g class="tick" opacity="1" transform="translate(0,36.46685082872932)"><line stroke="#000" x2="-6"></line><text fill="#000" x="-9" dy="0.32em">800</text></g><g class="tick" opacity="1" transform="translate(0,2.2127071823204574)"><line stroke="#000" x2="-6"></line><text fill="#000" x="-9" dy="0.32em">900</text></g></g></g></svg>