<svg xmlns="http://www.w3.org/2000/svg" width="280" height="160"><defs><style type="text/css"><![CDATA[ 
.bar rect {
  fill-opacity: 0;
  stroke:       black;
  stroke-width: 0.5;
}

.highlight rect {
  fill:       red;
  fill-opacity: 1;
}
.axis path,
.axis line {
  fill: none;
  stroke: #000;
  shape-rendering: crispEdges;
}
path {
    stroke: red;
    fill: none;
}

line {
    stroke: red;
}

path.marker {
    fill: red;
}
 ]]></style></defs><g transform="translate(50,10)"><g class="bar" transform="translate(0,119.20529801324503)"><rect x="1" width="11.5" height="0.7947019867549727"></rect></g><g class="bar" transform="translate(12.5,112.8476821192053)"><rect x="1" width="11.5" height="7.152317880794698"></rect></g><g class="bar" transform="translate(25,88.34437086092714)"><rect x="1" width="11.5" height="31.655629139072857"></rect></g><g class="bar" transform="translate(37.5,45.96026490066225)"><rect x="1" width="11.5" height="74.03973509933775"></rect></g><g class="bar" transform="translate(50,26.490066225165563)"><rect x="1" width="11.5" height="93.50993377483444"></rect></g><g class="bar" transform="translate(62.5,21.986754966887418)"><rect x="1" width="11.5" height="98.01324503311258"></rect></g><g class="bar" transform="translate(75,0)"><rect x="1" width="11.5" height="120"></rect></g><g class="bar" transform="translate(87.5,13.642384105960275)"><rect x="1" width="11.5" height="106.35761589403972"></rect></g><g class="bar" transform="translate(100,25.033112582781456)"><rect x="1" width="11.5" height="94.96688741721854"></rect></g><g class="bar" transform="translate(112.5,56.29139072847681)"><rect x="1" width="11.5" height="63.70860927152319"></rect></g><g class="bar" transform="translate(125,96.68874172185431)"><rect x="1" width="11.5" height="23.311258278145687"></rect></g><g class="bar" transform="translate(137.5,114.03973509933775)"><rect x="1" width="11.5" height="5.960264900662253"></rect></g><g class="bar" transform="translate(150,119.60264900662251)"><rect x="1" width="11.5" height="0.39735099337748636"></rect></g><g class="bar" transform="translate(162.5,120)"><rect x="1" width="11.5" height="0"></rect></g><g class="bar" transform="translate(175,120)"><rect x="1" width="11.5" height="0"></rect></g><g class="bar" transform="translate(187.5,120)"><rect x="1" width="11.5" height="0"></rect></g></g></svg>