<svg xmlns="http://www.w3.org/2000/svg" width="600" height="350"><defs><style type="text/css"><![CDATA[ 
.bar rect {
  fill-opacity: 0;
  stroke:       black;
  stroke-width: 0.5;
}

.highlight rect {
  fill:       red;
  fill-opacity: 1;
}
.axis path,
.axis line {
  fill: none;
  stroke: #000;
  shape-rendering: crispEdges;
}
path {
    stroke: red;
    fill: none;
}

line {
    stroke: red;
}

path.marker {
    fill: red;
}
 ]]></style></defs><g transform="translate(50,10)"><g class="bar" transform="translate(0,310)"><rect x="1" width="11.999999999999996" height="0"></rect></g><g class="bar" transform="translate(12.999999999999996,306.745406824147)"><rect x="1" width="11.999999999999996" height="3.2545931758530173"></rect></g><g class="bar" transform="translate(25.999999999999993,308.37270341207346)"><rect x="1" width="11.999999999999996" height="1.627296587926537"></rect></g><g class="bar" transform="translate(39.00000000000001,292.9133858267717)"><rect x="1" width="11.999999999999996" height="17.086614173228327"></rect></g><g class="bar" transform="translate(52,283.1496062992126)"><rect x="1" width="11.999999999999996" height="26.85039370078738"></rect></g><g class="bar" transform="translate(65,251.41732283464566)"><rect x="1" width="11.999999999999996" height="58.58267716535434"></rect></g><g class="bar" transform="translate(78.00000000000001,231.0761154855643)"><rect x="1" width="11.999999999999996" height="78.92388451443571"></rect></g><g class="bar" transform="translate(91.00000000000001,186.32545931758528)"><rect x="1" width="11.999999999999996" height="123.67454068241472"></rect></g><g class="bar" transform="translate(104,135.06561679790025)"><rect x="1" width="11.999999999999996" height="174.93438320209975"></rect></g><g class="bar" transform="translate(117,96.82414698162731)"><rect x="1" width="11.999999999999996" height="213.1758530183727"></rect></g><g class="bar" transform="translate(130,90.31496062992127)"><rect x="1" width="11.999999999999996" height="219.68503937007873"></rect></g><g class="bar" transform="translate(143,70.78740157480317)"><rect x="1" width="11.999999999999996" height="239.21259842519683"></rect></g><g class="bar" transform="translate(156.00000000000003,75.66929133858267)"><rect x="1" width="11.999999999999996" height="234.33070866141733"></rect></g><g class="bar" transform="translate(169,74.04199475065616)"><rect x="1" width="11.999999999999996" height="235.95800524934384"></rect></g><g class="bar" transform="translate(182.00000000000003,62.6509186351706)"><rect x="1" width="11.999999999999996" height="247.3490813648294"></rect></g><g class="bar" transform="translate(195,0)"><rect x="1" width="11.999999999999996" height="310"></rect></g><g class="bar" transform="translate(208,18.713910761154864)"><rect x="1" width="11.999999999999996" height="291.28608923884514"></rect></g><g class="bar" transform="translate(221.00000000000003,34.98687664041995)"><rect x="1" width="11.999999999999996" height="275.01312335958005"></rect></g><g class="bar" transform="translate(234,39.86876640419945)"><rect x="1" width="11.999999999999996" height="270.13123359580055"></rect></g><g class="bar" transform="translate(247.00000000000003,65.90551181102362)"><rect x="1" width="11.999999999999996" height="244.09448818897638"></rect></g><g class="bar" transform="translate(260,69.97375328083987)"><rect x="1" width="11.999999999999996" height="240.02624671916013"></rect></g><g class="bar" transform="translate(273,70.78740157480317)"><rect x="1" width="11.999999999999996" height="239.21259842519683"></rect></g><g class="bar" transform="translate(286,119.60629921259843)"><rect x="1" width="11.999999999999996" height="190.39370078740157"></rect></g><g class="bar" transform="translate(299.00000000000006,136.69291338582676)"><rect x="1" width="11.999999999999996" height="173.30708661417324"></rect></g><g class="bar" transform="translate(312.00000000000006,178.18897637795274)"><rect x="1" width="11.999999999999996" height="131.81102362204726"></rect></g><g class="bar" transform="translate(325,228.63517060367454)"><rect x="1" width="11.999999999999996" height="81.36482939632546"></rect></g><g class="bar" transform="translate(338,260.36745406824144)"><rect x="1" width="11.999999999999996" height="49.63254593175856"></rect></g><g class="bar" transform="translate(351,277.4540682414698)"><rect x="1" width="11.999999999999996" height="32.54593175853017"></rect></g><g class="bar" transform="translate(364.00000000000006,296.98162729658793)"><rect x="1" width="11.999999999999996" height="13.01837270341207"></rect></g><g class="bar" transform="translate(377.00000000000006,306.745406824147)"><rect x="1" width="11.999999999999996" height="3.2545931758530173"></rect></g><g class="bar" transform="translate(390,307.5590551181102)"><rect x="1" width="11.999999999999996" height="2.440944881889777"></rect></g><g class="bar" transform="translate(403,310)"><rect x="1" width="11.999999999999996" height="0"></rect></g><g class="bar" transform="translate(416,310)"><rect x="1" width="11.999999999999996" height="0"></rect></g><g class="bar" transform="translate(429.00000000000006,310)"><rect x="1" width="11.999999999999996" height="0"></rect></g><g class="bar" transform="translate(442.00000000000006,310)"><rect x="1" width="11.999999999999996" height="0"></rect></g><g class="bar" transform="translate(455,310)"><rect x="1" width="11.999999999999996" height="0"></rect></g><g class="bar" transform="translate(468,310)"><rect x="1" width="11.999999999999996" height="0"></rect></g><g class="bar" transform="translate(481,310)"><rect x="1" width="11.999999999999996" height="0"></rect></g><g class="bar" transform="translate(494.00000000000006,310)"><rect x="1" width="11.999999999999996" height="0"></rect></g><g class="bar" transform="translate(507.00000000000006,310)"><rect x="1" width="11.999999999999996" height="0"></rect></g><g class="axis axis--x" transform="translate(0,310)" fill="none" font-size="10" font-family="sans-serif" text-anchor="middle"><path class="domain" stroke="#000" d="M0.5,6V0.5H520.5V6"></path><g class="tick" opacity="1" transform="translate(0.5,0)"><line stroke="#000" y2="6"></line><text fill="#000" y="9" dy="0.71em">0.01</text></g><g class="tick" opacity="1" transform="translate(130.5,0)"><line stroke="#000" y2="6"></line><text fill="#000" y="9" dy="0.71em">1</text></g><g class="tick" opacity="1" transform="translate(260.5,0)"><line stroke="#000" y2="6"></line><text fill="#000" y="9" dy="0.71em">100</text></g><g class="tick" opacity="1" transform="translate(390.5,0)"><line stroke="#000" y2="6"></line><text fill="#000" y="9" dy="0.71em">10000</text></g><g class="tick" opacity="1" transform="translate(520.5,0)"><line stroke="#000" y2="6"></line><text fill="#000" y="9" dy="0.71em"></text></g></g><g class="axis axis--y" fill="none" font-size="10" font-family="sans-serif" text-anchor="end"><path class="domain" stroke="#000" d="M-6,310.5H0.5V0.5H-6"></path><g class="tick" opacity="1" transform="translate(0,310.5)"><line stroke="#000" x2="-6"></line><text fill="#000" x="-9" dy="0.32em">0</text></g><g class="tick" opacity="1" transform="translate(0,269.81758530183725)"><line stroke="#000" x2="-6"></line><text fill="#000" x="-9" dy="0.32em">50</text></g><g class="tick" opacity="1" transform="translate(0,229.13517060367454)"><line stroke="#000" x2="-6"></line><text fill="#000" x="-9" dy="0.32em">100</text></g><g class="tick" opacity="1" transform="translate(0,188.45275590551182)"><line stroke="#000" x2="-6"></line><text fill="#000" x="-9" dy="0.32em">150</text></g><g class="tick" opacity="1" transform="translate(0,147.77034120734908)"><line stroke="#000" x2="-6"></line><text fill="#000" x="-9" dy="0.32em">200</text></g><g class="tick" opacity="1" transform="translate(0,107.08792650918633)"><line stroke="#000" x2="-6"></line><text fill="#000" x="-9" dy="0.32em">250</text></g><g class="tick" opacity="1" transform="translate(0,66.40551181102362)"><line stroke="#000" x2="-6"></line><text fill="#000" x="-9" dy="0.32em">300</text></g><g class="tick" opacity="1" transform="translate(0,25.7230971128609)"><line stroke="#000" x2="-6"></line><text fill="#000" x="-9" dy="0.32em">350</text></g></g></g></svg>