<svg xmlns="http://www.w3.org/2000/svg" width="600" height="350"><defs><style type="text/css"><![CDATA[ 
.bar rect {
  fill-opacity: 0;
  stroke:       black;
  stroke-width: 0.5;
}

.highlight rect {
  fill:       red;
  fill-opacity: 1;
}
.axis path,
.axis line {
  fill: none;
  stroke: #000;
  shape-rendering: crispEdges;
}
path {
    stroke: red;
    fill: none;
}

line {
    stroke: red;
}

path.marker {
    fill: red;
}
 ]]></style></defs><g transform="translate(50,10)"><g class="bar" transform="translate(0,310)"><rect x="1" width="11.999999999999996" height="0"></rect></g><g class="bar" transform="translate(12.999999999999996,310)"><rect x="1" width="11.999999999999996" height="0"></rect></g><g class="bar" transform="translate(25.999999999999993,310)"><rect x="1" width="11.999999999999996" height="0"></rect></g><g class="bar" transform="translate(39.00000000000001,310)"><rect x="1" width="11.999999999999996" height="0"></rect></g><g class="bar" transform="translate(52,310)"><rect x="1" width="11.999999999999996" height="0"></rect></g><g class="bar" transform="translate(65,310)"><rect x="1" width="11.999999999999996" height="0"></rect></g><g class="bar" transform="translate(78.00000000000001,307.9738562091503)"><rect x="1" width="11.999999999999996" height="2.0261437908496873"></rect></g><g class="bar" transform="translate(91.00000000000001,303.921568627451)"><rect x="1" width="11.999999999999996" height="6.078431372549005"></rect></g><g class="bar" transform="translate(104,305.9477124183006)"><rect x="1" width="11.999999999999996" height="4.052287581699375"></rect></g><g class="bar" transform="translate(117,297.843137254902)"><rect x="1" width="11.999999999999996" height="12.15686274509801"></rect></g><g class="bar" transform="translate(130,297.843137254902)"><rect x="1" width="11.999999999999996" height="12.15686274509801"></rect></g><g class="bar" transform="translate(143,273.52941176470586)"><rect x="1" width="11.999999999999996" height="36.470588235294144"></rect></g><g class="bar" transform="translate(156.00000000000003,194.50980392156862)"><rect x="1" width="11.999999999999996" height="115.49019607843138"></rect></g><g class="bar" transform="translate(169,243.13725490196077)"><rect x="1" width="11.999999999999996" height="66.86274509803923"></rect></g><g class="bar" transform="translate(182.00000000000003,222.87581699346407)"><rect x="1" width="11.999999999999996" height="87.12418300653593"></rect></g><g class="bar" transform="translate(195,180.32679738562092)"><rect x="1" width="11.999999999999996" height="129.67320261437908"></rect></g><g class="bar" transform="translate(208,119.5424836601307)"><rect x="1" width="11.999999999999996" height="190.4575163398693"></rect></g><g class="bar" transform="translate(221.00000000000003,105.359477124183)"><rect x="1" width="11.999999999999996" height="204.640522875817"></rect></g><g class="bar" transform="translate(234,87.12418300653596)"><rect x="1" width="11.999999999999996" height="222.87581699346404"></rect></g><g class="bar" transform="translate(247.00000000000003,42.54901960784315)"><rect x="1" width="11.999999999999996" height="267.45098039215685"></rect></g><g class="bar" transform="translate(260,20.261437908496703)"><rect x="1" width="11.999999999999996" height="289.7385620915033"></rect></g><g class="bar" transform="translate(273,0)"><rect x="1" width="11.999999999999996" height="310"></rect></g><g class="bar" transform="translate(286,14.183006535947698)"><rect x="1" width="11.999999999999996" height="295.8169934640523"></rect></g><g class="bar" transform="translate(299.00000000000006,30.392156862745082)"><rect x="1" width="11.999999999999996" height="279.6078431372549"></rect></g><g class="bar" transform="translate(312.00000000000006,72.94117647058826)"><rect x="1" width="11.999999999999996" height="237.05882352941174"></rect></g><g class="bar" transform="translate(325,97.25490196078431)"><rect x="1" width="11.999999999999996" height="212.7450980392157"></rect></g><g class="bar" transform="translate(338,172.22222222222223)"><rect x="1" width="11.999999999999996" height="137.77777777777777"></rect></g><g class="bar" transform="translate(351,235.03267973856208)"><rect x="1" width="11.999999999999996" height="74.96732026143792"></rect></g><g class="bar" transform="translate(364.00000000000006,275.55555555555554)"><rect x="1" width="11.999999999999996" height="34.44444444444446"></rect></g><g class="bar" transform="translate(377.00000000000006,289.73856209150324)"><rect x="1" width="11.999999999999996" height="20.26143790849676"></rect></g><g class="bar" transform="translate(390,291.7647058823529)"><rect x="1" width="11.999999999999996" height="18.235294117647072"></rect></g><g class="bar" transform="translate(403,310)"><rect x="1" width="11.999999999999996" height="0"></rect></g><g class="bar" transform="translate(416,310)"><rect x="1" width="11.999999999999996" height="0"></rect></g><g class="bar" transform="translate(429.00000000000006,310)"><rect x="1" width="11.999999999999996" height="0"></rect></g><g class="bar" transform="translate(442.00000000000006,307.9738562091503)"><rect x="1" width="11.999999999999996" height="2.0261437908496873"></rect></g><g class="bar" transform="translate(455,310)"><rect x="1" width="11.999999999999996" height="0"></rect></g><g class="bar" transform="translate(468,310)"><rect x="1" width="11.999999999999996" height="0"></rect></g><g class="bar" transform="translate(481,310)"><rect x="1" width="11.999999999999996" height="0"></rect></g><g class="bar" transform="translate(494.00000000000006,310)"><rect x="1" width="11.999999999999996" height="0"></rect></g><g class="bar" transform="translate(507.00000000000006,310)"><rect x="1" width="11.999999999999996" height="0"></rect></g><g class="axis axis--x" transform="translate(0,310)" fill="none" font-size="10" font-family="sans-serif" text-anchor="middle"><path class="domain" stroke="#000" d="M0.5,6V0.5H520.5V6"></path><g class="tick" opacity="1" transform="translate(0.5,0)"><line stroke="#000" y2="6"></line><text fill="#000" y="9" dy="0.71em">0.01</text></g><g class="tick" opacity="1" transform="translate(130.5,0)"><line stroke="#000" y2="6"></line><text fill="#000" y="9" dy="0.71em">1</text></g><g class="tick" opacity="1" transform="translate(260.5,0)"><line stroke="#000" y2="6"></line><text fill="#000" y="9" dy="0.71em">100</text></g><g class="tick" opacity="1" transform="translate(390.5,0)"><line stroke="#000" y2="6"></line><text fill="#000" y="9" dy="0.71em">10000</text></g><g class="tick" opacity="1" transform="translate(520.5,0)"><line stroke="#000" y2="6"></line><text fill="#000" y="9" dy="0.71em"></text></g></g><g class="axis axis--y" fill="none" font-size="10" font-family="sans-serif" text-anchor="end"><path class="domain" stroke="#000" d="M-6,310.5H0.5V0.5H-6"></path><g class="tick" opacity="1" transform="translate(0,310.5)"><line stroke="#000" x2="-6"></line><text fill="#000" x="-9" dy="0.32em">0</text></g><g class="tick" opacity="1" transform="translate(0,269.97712418300654)"><line stroke="#000" x2="-6"></line><text fill="#000" x="-9" dy="0.32em">20</text></g><g class="tick" opacity="1" transform="translate(0,229.45424836601308)"><line stroke="#000" x2="-6"></line><text fill="#000" x="-9" dy="0.32em">40</text></g><g class="tick" opacity="1" transform="translate(0,188.9313725490196)"><line stroke="#000" x2="-6"></line><text fill="#000" x="-9" dy="0.32em">60</text></g><g class="tick" opacity="1" transform="translate(0,148.40849673202612)"><line stroke="#000" x2="-6"></line><text fill="#000" x="-9" dy="0.32em">80</text></g><g class="tick" opacity="1" transform="translate(0,107.88562091503269)"><line stroke="#000" x2="-6"></line><text fill="#000" x="-9" dy="0.32em">100</text></g><g class="tick" opacity="1" transform="translate(0,67.36274509803923)"><line stroke="#000" x2="-6"></line><text fill="#000" x="-9" dy="0.32em">120</text></g><g class="tick" opacity="1" transform="translate(0,26.839869281045765)"><line stroke="#000" x2="-6"></line><text fill="#000" x="-9" dy="0.32em">140</text></g></g></g></svg>