<svg xmlns="http://www.w3.org/2000/svg" width="280" height="160"><defs><style type="text/css"><![CDATA[ 
.bar rect {
  fill-opacity: 0;
  stroke:       black;
  stroke-width: 0.5;
}

.highlight rect {
  fill:       red;
  fill-opacity: 1;
}
.axis path,
.axis line {
  fill: none;
  stroke: #000;
  shape-rendering: crispEdges;
}
 ]]></style></defs><g transform="translate(50,10)"><g class="bar" transform="translate(0,111.73887240356083)"><rect x="1" width="11.5" height="8.261127596439167"></rect></g><g class="bar" transform="translate(12.5,99.48961424332344)"><rect x="1" width="11.5" height="20.510385756676556"></rect></g><g class="bar" transform="translate(25,82.82492581602374)"><rect x="1" width="11.5" height="37.175074183976264"></rect></g><g class="bar" transform="translate(37.5,64.59347181008903)"><rect x="1" width="11.5" height="55.40652818991097"></rect></g><g class="bar" transform="translate(50,48.28486646884272)"><rect x="1" width="11.5" height="71.71513353115728"></rect></g><g class="bar" transform="translate(62.5,25.709198813056375)"><rect x="1" width="11.5" height="94.29080118694363"></rect></g><g class="bar" transform="translate(75,3.0623145400593472)"><rect x="1" width="11.5" height="116.93768545994065"></rect></g><g class="bar" transform="translate(87.5,0)"><rect x="1" width="11.5" height="120"></rect></g><g class="bar" transform="translate(100,33.970326409495556)"><rect x="1" width="11.5" height="86.02967359050444"></rect></g><g class="bar" transform="translate(112.5,78.26706231454006)"><rect x="1" width="11.5" height="41.732937685459945"></rect></g><g class="bar" transform="translate(125,108.39169139465875)"><rect x="1" width="11.5" height="11.60830860534125"></rect></g><g class="bar" transform="translate(137.5,119.07418397626112)"><rect x="1" width="11.5" height="0.9258160237388751"></rect></g><g class="bar" transform="translate(150,120)"><rect x="1" width="11.5" height="0"></rect></g><g class="bar" transform="translate(162.5,120)"><rect x="1" width="11.5" height="0"></rect></g><g class="bar" transform="translate(175,120)"><rect x="1" width="11.5" height="0"></rect></g><g class="bar" transform="translate(187.5,120)"><rect x="1" width="11.5" height="0"></rect></g></g></svg>