<svg xmlns="http://www.w3.org/2000/svg" width="600" height="350"><defs><style type="text/css"><![CDATA[ 
.bar rect {
  fill-opacity: 0;
  stroke:       black;
  stroke-width: 0.5;
}

.highlight rect {
  fill:       red;
  fill-opacity: 1;
}
.axis path,
.axis line {
  fill: none;
  stroke: #000;
  shape-rendering: crispEdges;
}
 ]]></style></defs><g transform="translate(50,10)"><g class="bar" transform="translate(0,296.5945945945946)"><rect x="1" width="11.999999999999996" height="13.405405405405418"></rect></g><g class="bar" transform="translate(12.999999999999996,286.9594594594595)"><rect x="1" width="11.999999999999996" height="23.04054054054052"></rect></g><g class="bar" transform="translate(25.999999999999993,286.9594594594595)"><rect x="1" width="11.999999999999996" height="23.04054054054052"></rect></g><g class="bar" transform="translate(39.00000000000001,271.4594594594595)"><rect x="1" width="11.999999999999996" height="38.54054054054052"></rect></g><g class="bar" transform="translate(52,238.78378378378378)"><rect x="1" width="11.999999999999996" height="71.21621621621622"></rect></g><g class="bar" transform="translate(65,243.39189189189187)"><rect x="1" width="11.999999999999996" height="66.60810810810813"></rect></g><g class="bar" transform="translate(78.00000000000001,217.4189189189189)"><rect x="1" width="11.999999999999996" height="92.5810810810811"></rect></g><g class="bar" transform="translate(91.00000000000001,197.72972972972974)"><rect x="1" width="11.999999999999996" height="112.27027027027026"></rect></g><g class="bar" transform="translate(104,177.2027027027027)"><rect x="1" width="11.999999999999996" height="132.7972972972973"></rect></g><g class="bar" transform="translate(117,169.66216216216216)"><rect x="1" width="11.999999999999996" height="140.33783783783784"></rect></g><g class="bar" transform="translate(130,153.74324324324326)"><rect x="1" width="11.999999999999996" height="156.25675675675674"></rect></g><g class="bar" transform="translate(143,135.7297297297297)"><rect x="1" width="11.999999999999996" height="174.2702702702703"></rect></g><g class="bar" transform="translate(156.00000000000003,122.32432432432432)"><rect x="1" width="11.999999999999996" height="187.67567567567568"></rect></g><g class="bar" transform="translate(169,87.55405405405406)"><rect x="1" width="11.999999999999996" height="222.44594594594594"></rect></g><g class="bar" transform="translate(182.00000000000003,74.14864864864865)"><rect x="1" width="11.999999999999996" height="235.85135135135135"></rect></g><g class="bar" transform="translate(195,50.27027027027026)"><rect x="1" width="11.999999999999996" height="259.72972972972974"></rect></g><g class="bar" transform="translate(208,38.95945945945948)"><rect x="1" width="11.999999999999996" height="271.0405405405405"></rect></g><g class="bar" transform="translate(221.00000000000003,0)"><rect x="1" width="11.999999999999996" height="310"></rect></g><g class="bar" transform="translate(234,31.418918918918905)"><rect x="1" width="11.999999999999996" height="278.5810810810811"></rect></g><g class="bar" transform="translate(247.00000000000003,35.60810810810813)"><rect x="1" width="11.999999999999996" height="274.3918918918919"></rect></g><g class="bar" transform="translate(260,79.17567567567565)"><rect x="1" width="11.999999999999996" height="230.82432432432435"></rect></g><g class="bar" transform="translate(273,114.78378378378378)"><rect x="1" width="11.999999999999996" height="195.21621621621622"></rect></g><g class="bar" transform="translate(286,165.05405405405406)"><rect x="1" width="11.999999999999996" height="144.94594594594594"></rect></g><g class="bar" transform="translate(299.00000000000006,201.9189189189189)"><rect x="1" width="11.999999999999996" height="108.0810810810811"></rect></g><g class="bar" transform="translate(312.00000000000006,237.52702702702703)"><rect x="1" width="11.999999999999996" height="72.47297297297297"></rect></g><g class="bar" transform="translate(325,268.52702702702703)"><rect x="1" width="11.999999999999996" height="41.47297297297297"></rect></g><g class="bar" transform="translate(338,289.47297297297297)"><rect x="1" width="11.999999999999996" height="20.52702702702703"></rect></g><g class="bar" transform="translate(351,301.2027027027027)"><rect x="1" width="11.999999999999996" height="8.797297297297291"></rect></g><g class="bar" transform="translate(364.00000000000006,308.3243243243243)"><rect x="1" width="11.999999999999996" height="1.6756756756756772"></rect></g><g class="bar" transform="translate(377.00000000000006,308.7432432432432)"><rect x="1" width="11.999999999999996" height="1.2567567567567721"></rect></g><g class="bar" transform="translate(390,310)"><rect x="1" width="11.999999999999996" height="0"></rect></g><g class="bar" transform="translate(403,310)"><rect x="1" width="11.999999999999996" height="0"></rect></g><g class="bar" transform="translate(416,310)"><rect x="1" width="11.999999999999996" height="0"></rect></g><g class="bar" transform="translate(429.00000000000006,310)"><rect x="1" width="11.999999999999996" height="0"></rect></g><g class="bar" transform="translate(442.00000000000006,310)"><rect x="1" width="11.999999999999996" height="0"></rect></g><g class="bar" transform="translate(455,310)"><rect x="1" width="11.999999999999996" height="0"></rect></g><g class="bar" transform="translate(468,310)"><rect x="1" width="11.999999999999996" height="0"></rect></g><g class="bar" transform="translate(481,310)"><rect x="1" width="11.999999999999996" height="0"></rect></g><g class="bar" transform="translate(494.00000000000006,310)"><rect x="1" width="11.999999999999996" height="0"></rect></g><g class="bar" transform="translate(507.00000000000006,310)"><rect x="1" width="11.999999999999996" height="0"></rect></g><g class="axis axis--x" transform="translate(0,310)" fill="none" font-size="10" font-family="sans-serif" text-anchor="middle"><path class="domain" stroke="#000" d="M0.5,6V0.5H520.5V6"></path><g class="tick" opacity="1" transform="translate(0,0)"><line stroke="#000" y2="6" x1="0.5" x2="0.5"></line><text fill="#000" y="9" x="0.5" dy="0.71em">0.01</text></g><g class="tick" opacity="1" transform="translate(130,0)"><line stroke="#000" y2="6" x1="0.5" x2="0.5"></line><text fill="#000" y="9" x="0.5" dy="0.71em">1</text></g><g class="tick" opacity="1" transform="translate(260,0)"><line stroke="#000" y2="6" x1="0.5" x2="0.5"></line><text fill="#000" y="9" x="0.5" dy="0.71em">100</text></g><g class="tick" opacity="1" transform="translate(390,0)"><line stroke="#000" y2="6" x1="0.5" x2="0.5"></line><text fill="#000" y="9" x="0.5" dy="0.71em">10000</text></g><g class="tick" opacity="1" transform="translate(520,0)"><line stroke="#000" y2="6" x1="0.5" x2="0.5"></line><text fill="#000" y="9" x="0.5" dy="0.71em"></text></g></g><g class="axis axis--y" fill="none" font-size="10" font-family="sans-serif" text-anchor="end"><path class="domain" stroke="#000" d="M-6,310.5H0.5V0.5H-6"></path><g class="tick" opacity="1" transform="translate(0,310)"><line stroke="#000" x2="-6" y1="0.5" y2="0.5"></line><text fill="#000" x="-9" y="0.5" dy="0.32em">0</text></g><g class="tick" opacity="1" transform="translate(0,268.1081081081081)"><line stroke="#000" x2="-6" y1="0.5" y2="0.5"></line><text fill="#000" x="-9" y="0.5" dy="0.32em">100</text></g><g class="tick" opacity="1" transform="translate(0,226.2162162162162)"><line stroke="#000" x2="-6" y1="0.5" y2="0.5"></line><text fill="#000" x="-9" y="0.5" dy="0.32em">200</text></g><g class="tick" opacity="1" transform="translate(0,184.32432432432432)"><line stroke="#000" x2="-6" y1="0.5" y2="0.5"></line><text fill="#000" x="-9" y="0.5" dy="0.32em">300</text></g><g class="tick" opacity="1" transform="translate(0,142.43243243243242)"><line stroke="#000" x2="-6" y1="0.5" y2="0.5"></line><text fill="#000" x="-9" y="0.5" dy="0.32em">400</text></g><g class="tick" opacity="1" transform="translate(0,100.54054054054055)"><line stroke="#000" x2="-6" y1="0.5" y2="0.5"></line><text fill="#000" x="-9" y="0.5" dy="0.32em">500</text></g><g class="tick" opacity="1" transform="translate(0,58.648648648648646)"><line stroke="#000" x2="-6" y1="0.5" y2="0.5"></line><text fill="#000" x="-9" y="0.5" dy="0.32em">600</text></g><g class="tick" opacity="1" transform="translate(0,16.756756756756772)"><line stroke="#000" x2="-6" y1="0.5" y2="0.5"></line><text fill="#000" x="-9" y="0.5" dy="0.32em">700</text></g></g></g></svg>