<svg xmlns="http://www.w3.org/2000/svg" width="280" height="160"><defs><style type="text/css"><![CDATA[ 
.bar rect {
  fill-opacity: 0;
  stroke:       black;
  stroke-width: 0.5;
}

.highlight rect {
  fill:       red;
  fill-opacity: 1;
}
.axis path,
.axis line {
  fill: none;
  stroke: #000;
  shape-rendering: crispEdges;
}
 ]]></style></defs><g transform="translate(50,10)"><g class="bar" transform="translate(0,120)"><rect x="1" width="11.5" height="0"></rect></g><g class="bar" transform="translate(12.5,120)"><rect x="1" width="11.5" height="0"></rect></g><g class="bar" transform="translate(25,119.10690121786197)"><rect x="1" width="11.5" height="0.8930987821380256"></rect></g><g class="bar" transform="translate(37.5,96.86062246278755)"><rect x="1" width="11.5" height="23.139377537212454"></rect></g><g class="bar" transform="translate(50,41.40730717185386)"><rect x="1" width="11.5" height="78.59269282814614"></rect></g><g class="bar" transform="translate(62.5,0.4871447902571049)"><rect x="1" width="11.5" height="119.5128552097429"></rect></g><g class="bar" transform="translate(75,0)"><rect x="1" width="11.5" height="120"></rect></g><g class="bar" transform="translate(87.5,23.788903924221913)"><rect x="1" width="11.5" height="96.21109607577809"></rect></g><g class="bar" transform="translate(100,57.40189445196211)"><rect x="1" width="11.5" height="62.59810554803789"></rect></g><g class="bar" transform="translate(112.5,90.36535859269283)"><rect x="1" width="11.5" height="29.63464140730717"></rect></g><g class="bar" transform="translate(125,108.06495263870094)"><rect x="1" width="11.5" height="11.935047361299056"></rect></g><g class="bar" transform="translate(137.5,115.29093369418132)"><rect x="1" width="11.5" height="4.709066305818681"></rect></g><g class="bar" transform="translate(150,119.91880920162382)"><rect x="1" width="11.5" height="0.08119079837618415"></rect></g><g class="bar" transform="translate(162.5,120)"><rect x="1" width="11.5" height="0"></rect></g><g class="bar" transform="translate(175,120)"><rect x="1" width="11.5" height="0"></rect></g><g class="bar" transform="translate(187.5,120)"><rect x="1" width="11.5" height="0"></rect></g></g></svg>