<svg xmlns="http://www.w3.org/2000/svg" width="600" height="350"><defs><style type="text/css"><![CDATA[ 
.bar rect {
  fill-opacity: 0;
  stroke:       black;
  stroke-width: 0.5;
}

.highlight rect {
  fill:       red;
  fill-opacity: 1;
}
.axis path,
.axis line {
  fill: none;
  stroke: #000;
  shape-rendering: crispEdges;
}
 ]]></style></defs><g transform="translate(50,10)"><g class="bar" transform="translate(0,310)"><rect x="1" width="11.999999999999996" height="0"></rect></g><g class="bar" transform="translate(12.999999999999996,310)"><rect x="1" width="11.999999999999996" height="0"></rect></g><g class="bar" transform="translate(25.999999999999993,310)"><rect x="1" width="11.999999999999996" height="0"></rect></g><g class="bar" transform="translate(39.00000000000001,310)"><rect x="1" width="11.999999999999996" height="0"></rect></g><g class="bar" transform="translate(52,310)"><rect x="1" width="11.999999999999996" height="0"></rect></g><g class="bar" transform="translate(65,309.4934640522876)"><rect x="1" width="11.999999999999996" height="0.5065359477123934"></rect></g><g class="bar" transform="translate(78.00000000000001,306.96078431372547)"><rect x="1" width="11.999999999999996" height="3.039215686274531"></rect></g><g class="bar" transform="translate(91.00000000000001,301.3888888888889)"><rect x="1" width="11.999999999999996" height="8.611111111111086"></rect></g><g class="bar" transform="translate(104,266.94444444444446)"><rect x="1" width="11.999999999999996" height="43.05555555555554"></rect></g><g class="bar" transform="translate(117,215.27777777777777)"><rect x="1" width="11.999999999999996" height="94.72222222222223"></rect></g><g class="bar" transform="translate(130,151.45424836601308)"><rect x="1" width="11.999999999999996" height="158.54575163398692"></rect></g><g class="bar" transform="translate(143,91.6830065359477)"><rect x="1" width="11.999999999999996" height="218.3169934640523"></rect></g><g class="bar" transform="translate(156.00000000000003,41.535947712418306)"><rect x="1" width="11.999999999999996" height="268.4640522875817"></rect></g><g class="bar" transform="translate(169,29.37908496732024)"><rect x="1" width="11.999999999999996" height="280.62091503267976"></rect></g><g class="bar" transform="translate(182.00000000000003,0)"><rect x="1" width="11.999999999999996" height="310"></rect></g><g class="bar" transform="translate(195,9.62418300653593)"><rect x="1" width="11.999999999999996" height="300.37581699346407"></rect></g><g class="bar" transform="translate(208,12.66339869281046)"><rect x="1" width="11.999999999999996" height="297.33660130718954"></rect></g><g class="bar" transform="translate(221.00000000000003,20.261437908496703)"><rect x="1" width="11.999999999999996" height="289.7385620915033"></rect></g><g class="bar" transform="translate(234,61.79738562091501)"><rect x="1" width="11.999999999999996" height="248.202614379085"></rect></g><g class="bar" transform="translate(247.00000000000003,96.74836601307189)"><rect x="1" width="11.999999999999996" height="213.2516339869281"></rect></g><g class="bar" transform="translate(260,133.72549019607843)"><rect x="1" width="11.999999999999996" height="176.27450980392157"></rect></g><g class="bar" transform="translate(273,154.49346405228758)"><rect x="1" width="11.999999999999996" height="155.50653594771242"></rect></g><g class="bar" transform="translate(286,200.58823529411762)"><rect x="1" width="11.999999999999996" height="109.41176470588238"></rect></g><g class="bar" transform="translate(299.00000000000006,233.00653594771242)"><rect x="1" width="11.999999999999996" height="76.99346405228758"></rect></g><g class="bar" transform="translate(312.00000000000006,252.76143790849673)"><rect x="1" width="11.999999999999996" height="57.23856209150327"></rect></g><g class="bar" transform="translate(325,272.0098039215686)"><rect x="1" width="11.999999999999996" height="37.99019607843138"></rect></g><g class="bar" transform="translate(338,285.17973856209153)"><rect x="1" width="11.999999999999996" height="24.82026143790847"></rect></g><g class="bar" transform="translate(351,285.17973856209153)"><rect x="1" width="11.999999999999996" height="24.82026143790847"></rect></g><g class="bar" transform="translate(364.00000000000006,298.3496732026144)"><rect x="1" width="11.999999999999996" height="11.650326797385617"></rect></g><g class="bar" transform="translate(377.00000000000006,305.44117647058823)"><rect x="1" width="11.999999999999996" height="4.558823529411768"></rect></g><g class="bar" transform="translate(390,310)"><rect x="1" width="11.999999999999996" height="0"></rect></g><g class="bar" transform="translate(403,310)"><rect x="1" width="11.999999999999996" height="0"></rect></g><g class="bar" transform="translate(416,309.4934640522876)"><rect x="1" width="11.999999999999996" height="0.5065359477123934"></rect></g><g class="bar" transform="translate(429.00000000000006,310)"><rect x="1" width="11.999999999999996" height="0"></rect></g><g class="bar" transform="translate(442.00000000000006,310)"><rect x="1" width="11.999999999999996" height="0"></rect></g><g class="bar" transform="translate(455,310)"><rect x="1" width="11.999999999999996" height="0"></rect></g><g class="bar" transform="translate(468,310)"><rect x="1" width="11.999999999999996" height="0"></rect></g><g class="bar" transform="translate(481,310)"><rect x="1" width="11.999999999999996" height="0"></rect></g><g class="bar" transform="translate(494.00000000000006,310)"><rect x="1" width="11.999999999999996" height="0"></rect></g><g class="bar" transform="translate(507.00000000000006,310)"><rect x="1" width="11.999999999999996" height="0"></rect></g><g class="axis axis--x" transform="translate(0,310)" fill="none" font-size="10" font-family="sans-serif" text-anchor="middle"><path class="domain" stroke="#000" d="M0.5,6V0.5H520.5V6"></path><g class="tick" opacity="1" transform="translate(0,0)"><line stroke="#000" y2="6" x1="0.5" x2="0.5"></line><text fill="#000" y="9" x="0.5" dy="0.71em">0.01</text></g><g class="tick" opacity="1" transform="translate(130,0)"><line stroke="#000" y2="6" x1="0.5" x2="0.5"></line><text fill="#000" y="9" x="0.5" dy="0.71em">1</text></g><g class="tick" opacity="1" transform="translate(260,0)"><line stroke="#000" y2="6" x1="0.5" x2="0.5"></line><text fill="#000" y="9" x="0.5" dy="0.71em">100</text></g><g class="tick" opacity="1" transform="translate(390,0)"><line stroke="#000" y2="6" x1="0.5" x2="0.5"></line><text fill="#000" y="9" x="0.5" dy="0.71em">10000</text></g><g class="tick" opacity="1" transform="translate(520,0)"><line stroke="#000" y2="6" x1="0.5" x2="0.5"></line><text fill="#000" y="9" x="0.5" dy="0.71em"></text></g></g><g class="axis axis--y" fill="none" font-size="10" font-family="sans-serif" text-anchor="end"><path class="domain" stroke="#000" d="M-6,310.5H0.5V0.5H-6"></path><g class="tick" opacity="1" transform="translate(0,310)"><line stroke="#000" x2="-6" y1="0.5" y2="0.5"></line><text fill="#000" x="-9" y="0.5" dy="0.32em">0</text></g><g class="tick" opacity="1" transform="translate(0,284.6732026143791)"><line stroke="#000" x2="-6" y1="0.5" y2="0.5"></line><text fill="#000" x="-9" y="0.5" dy="0.32em">50</text></g><g class="tick" opacity="1" transform="translate(0,259.34640522875816)"><line stroke="#000" x2="-6" y1="0.5" y2="0.5"></line><text fill="#000" x="-9" y="0.5" dy="0.32em">100</text></g><g class="tick" opacity="1" transform="translate(0,234.01960784313724)"><line stroke="#000" x2="-6" y1="0.5" y2="0.5"></line><text fill="#000" x="-9" y="0.5" dy="0.32em">150</text></g><g class="tick" opacity="1" transform="translate(0,208.69281045751634)"><line stroke="#000" x2="-6" y1="0.5" y2="0.5"></line><text fill="#000" x="-9" y="0.5" dy="0.32em">200</text></g><g class="tick" opacity="1" transform="translate(0,183.36601307189542)"><line stroke="#000" x2="-6" y1="0.5" y2="0.5"></line><text fill="#000" x="-9" y="0.5" dy="0.32em">250</text></g><g class="tick" opacity="1" transform="translate(0,158.0392156862745)"><line stroke="#000" x2="-6" y1="0.5" y2="0.5"></line><text fill="#000" x="-9" y="0.5" dy="0.32em">300</text></g><g class="tick" opacity="1" transform="translate(0,132.7124183006536)"><line stroke="#000" x2="-6" y1="0.5" y2="0.5"></line><text fill="#000" x="-9" y="0.5" dy="0.32em">350</text></g><g class="tick" opacity="1" transform="translate(0,107.38562091503269)"><line stroke="#000" x2="-6" y1="0.5" y2="0.5"></line><text fill="#000" x="-9" y="0.5" dy="0.32em">400</text></g><g class="tick" opacity="1" transform="translate(0,82.05882352941174)"><line stroke="#000" x2="-6" y1="0.5" y2="0.5"></line><text fill="#000" x="-9" y="0.5" dy="0.32em">450</text></g><g class="tick" opacity="1" transform="translate(0,56.73202614379085)"><line stroke="#000" x2="-6" y1="0.5" y2="0.5"></line><text fill="#000" x="-9" y="0.5" dy="0.32em">500</text></g><g class="tick" opacity="1" transform="translate(0,31.405228758169926)"><line stroke="#000" x2="-6" y1="0.5" y2="0.5"></line><text fill="#000" x="-9" y="0.5" dy="0.32em">550</text></g><g class="tick" opacity="1" transform="translate(0,6.078431372549005)"><line stroke="#000" x2="-6" y1="0.5" y2="0.5"></line><text fill="#000" x="-9" y="0.5" dy="0.32em">600</text></g></g></g></svg>