<svg xmlns="http://www.w3.org/2000/svg" width="600" height="350"><defs><style type="text/css"><![CDATA[ 
.bar rect {
  fill-opacity: 0;
  stroke:       black;
  stroke-width: 0.5;
}

.highlight rect {
  fill:       red;
  fill-opacity: 1;
}
.axis path,
.axis line {
  fill: none;
  stroke: #000;
  shape-rendering: crispEdges;
}
path {
    stroke: red;
    fill: none;
}

line {
    stroke: red;
}

path.marker {
    fill: red;
}
 ]]></style></defs><g transform="translate(50,10)"><g class="bar" transform="translate(0,310)"><rect x="1" width="5.500000000000005" height="0"></rect></g><g class="bar" transform="translate(6.500000000000005,310)"><rect x="1" width="5.500000000000005" height="0"></rect></g><g class="bar" transform="translate(12.999999999999996,310)"><rect x="1" width="5.500000000000005" height="0"></rect></g><g class="bar" transform="translate(19.500000000000004,310)"><rect x="1" width="5.500000000000005" height="0"></rect></g><g class="bar" transform="translate(25.999999999999993,310)"><rect x="1" width="5.500000000000005" height="0"></rect></g><g class="bar" transform="translate(32.5,310)"><rect x="1" width="5.500000000000005" height="0"></rect></g><g class="bar" transform="translate(39.00000000000001,310)"><rect x="1" width="5.500000000000005" height="0"></rect></g><g class="bar" transform="translate(45.500000000000014,310)"><rect x="1" width="5.500000000000005" height="0"></rect></g><g class="bar" transform="translate(52,310)"><rect x="1" width="5.500000000000005" height="0"></rect></g><g class="bar" transform="translate(58.49999999999999,310)"><rect x="1" width="5.500000000000005" height="0"></rect></g><g class="bar" transform="translate(65,310)"><rect x="1" width="5.500000000000005" height="0"></rect></g><g class="bar" transform="translate(71.5,308.8242730720607)"><rect x="1" width="5.500000000000005" height="1.1757269279393086"></rect></g><g class="bar" transform="translate(78.00000000000001,306.0809102402023)"><rect x="1" width="5.500000000000005" height="3.919089759797714"></rect></g><g class="bar" transform="translate(84.5,306.0809102402023)"><rect x="1" width="5.500000000000005" height="3.919089759797714"></rect></g><g class="bar" transform="translate(91.00000000000001,305.2970922882427)"><rect x="1" width="5.500000000000005" height="4.702907711757291"></rect></g><g class="bar" transform="translate(97.5,308.8242730720607)"><rect x="1" width="5.500000000000005" height="1.1757269279393086"></rect></g><g class="bar" transform="translate(104,308.8242730720607)"><rect x="1" width="5.500000000000005" height="1.1757269279393086"></rect></g><g class="bar" transform="translate(110.50000000000001,307.6485461441214)"><rect x="1" width="5.500000000000005" height="2.351453855878617"></rect></g><g class="bar" transform="translate(117,301.7699115044248)"><rect x="1" width="5.500000000000005" height="8.230088495575217"></rect></g><g class="bar" transform="translate(123.50000000000001,302.1618204804046)"><rect x="1" width="5.500000000000005" height="7.838179519595428"></rect></g><g class="bar" transform="translate(130,292.36409608091026)"><rect x="1" width="5.500000000000005" height="17.635903919089742"></rect></g><g class="bar" transform="translate(136.5,279.82300884955754)"><rect x="1" width="5.500000000000005" height="30.17699115044246"></rect></g><g class="bar" transform="translate(143,265.7142857142857)"><rect x="1" width="5.500000000000005" height="44.28571428571428"></rect></g><g class="bar" transform="translate(149.50000000000003,235.14538558786347)"><rect x="1" width="5.500000000000005" height="74.85461441213653"></rect></g><g class="bar" transform="translate(156.00000000000003,192.81921618204802)"><rect x="1" width="5.500000000000005" height="117.18078381795198"></rect></g><g class="bar" transform="translate(162.5,144.61441213653603)"><rect x="1" width="5.500000000000005" height="165.38558786346397"></rect></g><g class="bar" transform="translate(169,86.6118836915297)"><rect x="1" width="5.500000000000005" height="223.3881163084703"></rect></g><g class="bar" transform="translate(175.5,51.731984829329974)"><rect x="1" width="5.500000000000005" height="258.26801517067"></rect></g><g class="bar" transform="translate(182.00000000000003,0)"><rect x="1" width="5.500000000000005" height="310"></rect></g><g class="bar" transform="translate(188.50000000000003,6.270543615676388)"><rect x="1" width="5.500000000000005" height="303.7294563843236"></rect></g><g class="bar" transform="translate(195,1.1757269279393086)"><rect x="1" width="5.500000000000005" height="308.8242730720607"></rect></g><g class="bar" transform="translate(201.5,15.676359039190913)"><rect x="1" width="5.500000000000005" height="294.3236409608091"></rect></g><g class="bar" transform="translate(208,52.12389380530976)"><rect x="1" width="5.500000000000005" height="257.87610619469024"></rect></g><g class="bar" transform="translate(214.50000000000003,103.07206068268016)"><rect x="1" width="5.500000000000005" height="206.92793931731984"></rect></g><g class="bar" transform="translate(221.00000000000003,134.42477876106196)"><rect x="1" width="5.500000000000005" height="175.57522123893804"></rect></g><g class="bar" transform="translate(227.5,151.27686472819218)"><rect x="1" width="5.500000000000005" height="158.72313527180782"></rect></g><g class="bar" transform="translate(234,198.30594184576483)"><rect x="1" width="5.500000000000005" height="111.69405815423517"></rect></g><g class="bar" transform="translate(240.5,212.41466498103665)"><rect x="1" width="5.500000000000005" height="97.58533501896335"></rect></g><g class="bar" transform="translate(247.00000000000003,234.75347661188368)"><rect x="1" width="5.500000000000005" height="75.24652338811632"></rect></g><g class="bar" transform="translate(253.50000000000003,228.8748419721871)"><rect x="1" width="5.500000000000005" height="81.12515802781289"></rect></g><g class="bar" transform="translate(260,251.9974715549937)"><rect x="1" width="5.500000000000005" height="58.002528445006305"></rect></g><g class="bar" transform="translate(266.50000000000006,239.0644753476612)"><rect x="1" width="5.500000000000005" height="70.93552465233881"></rect></g><g class="bar" transform="translate(273,249.2541087231353)"><rect x="1" width="5.500000000000005" height="60.74589127686471"></rect></g><g class="bar" transform="translate(279.5,255.13274336283186)"><rect x="1" width="5.500000000000005" height="54.86725663716814"></rect></g><g class="bar" transform="translate(286,261.01137800252843)"><rect x="1" width="5.500000000000005" height="48.98862199747157"></rect></g><g class="bar" transform="translate(292.5,268.4576485461441)"><rect x="1" width="5.500000000000005" height="41.54235145385587"></rect></g><g class="bar" transform="translate(299.00000000000006,270.41719342604296)"><rect x="1" width="5.500000000000005" height="39.58280657395704"></rect></g><g class="bar" transform="translate(305.5,272.37673830594184)"><rect x="1" width="5.500000000000005" height="37.62326169405816"></rect></g><g class="bar" transform="translate(312.00000000000006,278.64728192161823)"><rect x="1" width="5.500000000000005" height="31.35271807838177"></rect></g><g class="bar" transform="translate(318.5,280.99873577749685)"><rect x="1" width="5.500000000000005" height="29.001264222503153"></rect></g><g class="bar" transform="translate(325,284.91782553729456)"><rect x="1" width="5.500000000000005" height="25.08217446270544"></rect></g><g class="bar" transform="translate(331.50000000000006,293.1479140328698)"><rect x="1" width="5.500000000000005" height="16.852085967130222"></rect></g><g class="bar" transform="translate(338,289.22882427307206)"><rect x="1" width="5.500000000000005" height="20.771175726927936"></rect></g><g class="bar" transform="translate(344.50000000000006,300.9860935524652)"><rect x="1" width="5.500000000000005" height="9.013906447534794"></rect></g><g class="bar" transform="translate(351,303.3375474083439)"><rect x="1" width="5.500000000000005" height="6.66245259165612"></rect></g><g class="bar" transform="translate(357.5,306.8647281921618)"><rect x="1" width="5.500000000000005" height="3.135271807838194"></rect></g><g class="bar" transform="translate(364.00000000000006,307.2566371681416)"><rect x="1" width="5.500000000000005" height="2.7433628318584056"></rect></g><g class="bar" transform="translate(370.5,308.0404551201011)"><rect x="1" width="5.500000000000005" height="1.9595448798988855"></rect></g><g class="bar" transform="translate(377.00000000000006,309.6080910240202)"><rect x="1" width="5.500000000000005" height="0.39190897597978847"></rect></g><g class="bar" transform="translate(383.5,309.6080910240202)"><rect x="1" width="5.500000000000005" height="0.39190897597978847"></rect></g><g class="bar" transform="translate(390,309.6080910240202)"><rect x="1" width="5.500000000000005" height="0.39190897597978847"></rect></g><g class="bar" transform="translate(396.50000000000006,309.6080910240202)"><rect x="1" width="5.500000000000005" height="0.39190897597978847"></rect></g><g class="bar" transform="translate(403,310)"><rect x="1" width="5.500000000000005" height="0"></rect></g><g class="bar" transform="translate(409.50000000000006,310)"><rect x="1" width="5.500000000000005" height="0"></rect></g><g class="bar" transform="translate(416,310)"><rect x="1" width="5.500000000000005" height="0"></rect></g><g class="bar" transform="translate(422.5,310)"><rect x="1" width="5.500000000000005" height="0"></rect></g><g class="bar" transform="translate(429.00000000000006,310)"><rect x="1" width="5.500000000000005" height="0"></rect></g><g class="bar" transform="translate(435.5,310)"><rect x="1" width="5.500000000000005" height="0"></rect></g><g class="bar" transform="translate(442.00000000000006,310)"><rect x="1" width="5.500000000000005" height="0"></rect></g><g class="bar" transform="translate(448.5,310)"><rect x="1" width="5.500000000000005" height="0"></rect></g><g class="bar" transform="translate(455,310)"><rect x="1" width="5.500000000000005" height="0"></rect></g><g class="bar" transform="translate(461.50000000000006,310)"><rect x="1" width="5.500000000000005" height="0"></rect></g><g class="bar" transform="translate(468,310)"><rect x="1" width="5.500000000000005" height="0"></rect></g><g class="bar" transform="translate(474.50000000000006,310)"><rect x="1" width="5.500000000000005" height="0"></rect></g><g class="bar" transform="translate(481,310)"><rect x="1" width="5.500000000000005" height="0"></rect></g><g class="bar" transform="translate(487.5,310)"><rect x="1" width="5.500000000000005" height="0"></rect></g><g class="bar" transform="translate(494.00000000000006,310)"><rect x="1" width="5.500000000000005" height="0"></rect></g><g class="bar" transform="translate(500.5,310)"><rect x="1" width="5.500000000000005" height="0"></rect></g><g class="bar" transform="translate(507.00000000000006,310)"><rect x="1" width="5.500000000000005" height="0"></rect></g><g class="bar" transform="translate(513.5,310)"><rect x="1" width="5.500000000000005" height="0"></rect></g><g class="axis axis--x" transform="translate(0,310)" fill="none" font-size="10" font-family="sans-serif" text-anchor="middle"><path class="domain" stroke="#000" d="M0.5,6V0.5H520.5V6"></path><g class="tick" opacity="1" transform="translate(0.5,0)"><line stroke="#000" y2="6"></line><text fill="#000" y="9" dy="0.71em">0.01</text></g><g class="tick" opacity="1" transform="translate(130.5,0)"><line stroke="#000" y2="6"></line><text fill="#000" y="9" dy="0.71em">1</text></g><g class="tick" opacity="1" transform="translate(260.5,0)"><line stroke="#000" y2="6"></line><text fill="#000" y="9" dy="0.71em">100</text></g><g class="tick" opacity="1" transform="translate(390.5,0)"><line stroke="#000" y2="6"></line><text fill="#000" y="9" dy="0.71em">10000</text></g><g class="tick" opacity="1" transform="translate(520.5,0)"><line stroke="#000" y2="6"></line><text fill="#000" y="9" dy="0.71em"></text></g></g><g class="axis axis--y" fill="none" font-size="10" font-family="sans-serif" text-anchor="end"><path class="domain" stroke="#000" d="M-6,310.5H0.5V0.5H-6"></path><g class="tick" opacity="1" transform="translate(0,310.5)"><line stroke="#000" x2="-6"></line><text fill="#000" x="-9" dy="0.32em">0</text></g><g class="tick" opacity="1" transform="translate(0,271.30910240202275)"><line stroke="#000" x2="-6"></line><text fill="#000" x="-9" dy="0.32em">100</text></g><g class="tick" opacity="1" transform="translate(0,232.11820480404552)"><line stroke="#000" x2="-6"></line><text fill="#000" x="-9" dy="0.32em">200</text></g><g class="tick" opacity="1" transform="translate(0,192.9273072060683)"><line stroke="#000" x2="-6"></line><text fill="#000" x="-9" dy="0.32em">300</text></g><g class="tick" opacity="1" transform="translate(0,153.73640960809104)"><line stroke="#000" x2="-6"></line><text fill="#000" x="-9" dy="0.32em">400</text></g><g class="tick" opacity="1" transform="translate(0,114.54551201011378)"><line stroke="#000" x2="-6"></line><text fill="#000" x="-9" dy="0.32em">500</text></g><g class="tick" opacity="1" transform="translate(0,75.35461441213656)"><line stroke="#000" x2="-6"></line><text fill="#000" x="-9" dy="0.32em">600</text></g><g class="tick" opacity="1" transform="translate(0,36.16371681415927)"><line stroke="#000" x2="-6"></line><text fill="#000" x="-9" dy="0.32em">700</text></g></g></g></svg>