<svg xmlns="http://www.w3.org/2000/svg" width="280" height="160"><defs><style type="text/css"><![CDATA[ 
.bar rect {
  fill-opacity: 0;
  stroke:       black;
  stroke-width: 0.5;
}

.highlight rect {
  fill:       red;
  fill-opacity: 1;
}
.axis path,
.axis line {
  fill: none;
  stroke: #000;
  shape-rendering: crispEdges;
}
 ]]></style></defs><g transform="translate(50,10)"><g class="bar" transform="translate(0,120)"><rect x="1" width="11.5" height="0"></rect></g><g class="bar" transform="translate(12.5,117.90849673202614)"><rect x="1" width="11.5" height="2.091503267973863"></rect></g><g class="bar" transform="translate(25,115.29411764705883)"><rect x="1" width="11.5" height="4.705882352941174"></rect></g><g class="bar" transform="translate(37.5,106.40522875816994)"><rect x="1" width="11.5" height="13.59477124183006"></rect></g><g class="bar" transform="translate(50,79.47712418300654)"><rect x="1" width="11.5" height="40.52287581699346"></rect></g><g class="bar" transform="translate(62.5,27.189542483660134)"><rect x="1" width="11.5" height="92.81045751633987"></rect></g><g class="bar" transform="translate(75,5.751633986928098)"><rect x="1" width="11.5" height="114.2483660130719"></rect></g><g class="bar" transform="translate(87.5,0)"><rect x="1" width="11.5" height="120"></rect></g><g class="bar" transform="translate(100,4.967320261437905)"><rect x="1" width="11.5" height="115.0326797385621"></rect></g><g class="bar" transform="translate(112.5,42.614379084967325)"><rect x="1" width="11.5" height="77.38562091503267"></rect></g><g class="bar" transform="translate(125,78.16993464052288)"><rect x="1" width="11.5" height="41.83006535947712"></rect></g><g class="bar" transform="translate(137.5,106.66666666666667)"><rect x="1" width="11.5" height="13.333333333333329"></rect></g><g class="bar" transform="translate(150,118.69281045751634)"><rect x="1" width="11.5" height="1.3071895424836555"></rect></g><g class="bar" transform="translate(162.5,119.47712418300654)"><rect x="1" width="11.5" height="0.5228758169934622"></rect></g><g class="bar" transform="translate(175,120)"><rect x="1" width="11.5" height="0"></rect></g><g class="bar" transform="translate(187.5,120)"><rect x="1" width="11.5" height="0"></rect></g></g></svg>