<svg xmlns="http://www.w3.org/2000/svg" width="600" height="350"><defs><style type="text/css"><![CDATA[ 
.bar rect {
  fill-opacity: 0;
  stroke:       black;
  stroke-width: 0.5;
}

.highlight rect {
  fill:       red;
  fill-opacity: 1;
}
.axis path,
.axis line {
  fill: none;
  stroke: #000;
  shape-rendering: crispEdges;
}
 ]]></style></defs><g transform="translate(50,10)"><g class="bar" transform="translate(0,310)"><rect x="1" width="11.999999999999996" height="0"></rect></g><g class="bar" transform="translate(12.999999999999996,310)"><rect x="1" width="11.999999999999996" height="0"></rect></g><g class="bar" transform="translate(25.999999999999993,303.3476394849785)"><rect x="1" width="11.999999999999996" height="6.652360515021485"></rect></g><g class="bar" transform="translate(39.00000000000001,304.6781115879828)"><rect x="1" width="11.999999999999996" height="5.321888412017188"></rect></g><g class="bar" transform="translate(52,282.0600858369099)"><rect x="1" width="11.999999999999996" height="27.939914163090123"></rect></g><g class="bar" transform="translate(65,274.07725321888415)"><rect x="1" width="11.999999999999996" height="35.92274678111585"></rect></g><g class="bar" transform="translate(78.00000000000001,212.8755364806867)"><rect x="1" width="11.999999999999996" height="97.12446351931331"></rect></g><g class="bar" transform="translate(91.00000000000001,180.9442060085837)"><rect x="1" width="11.999999999999996" height="129.0557939914163"></rect></g><g class="bar" transform="translate(104,137.03862660944208)"><rect x="1" width="11.999999999999996" height="172.96137339055792"></rect></g><g class="bar" transform="translate(117,110.42918454935622)"><rect x="1" width="11.999999999999996" height="199.57081545064378"></rect></g><g class="bar" transform="translate(130,49.22746781115882)"><rect x="1" width="11.999999999999996" height="260.7725321888412"></rect></g><g class="bar" transform="translate(143,0)"><rect x="1" width="11.999999999999996" height="310"></rect></g><g class="bar" transform="translate(156.00000000000003,14.63519313304721)"><rect x="1" width="11.999999999999996" height="295.3648068669528"></rect></g><g class="bar" transform="translate(169,17.296137339055804)"><rect x="1" width="11.999999999999996" height="292.7038626609442"></rect></g><g class="bar" transform="translate(182.00000000000003,42.57510729613733)"><rect x="1" width="11.999999999999996" height="267.42489270386267"></rect></g><g class="bar" transform="translate(195,45.236051502145926)"><rect x="1" width="11.999999999999996" height="264.7639484978541"></rect></g><g class="bar" transform="translate(208,3.991416309012891)"><rect x="1" width="11.999999999999996" height="306.0085836909871"></rect></g><g class="bar" transform="translate(221.00000000000003,70.51502145922748)"><rect x="1" width="11.999999999999996" height="239.48497854077252"></rect></g><g class="bar" transform="translate(234,109.09871244635193)"><rect x="1" width="11.999999999999996" height="200.90128755364807"></rect></g><g class="bar" transform="translate(247.00000000000003,147.6824034334764)"><rect x="1" width="11.999999999999996" height="162.3175965665236"></rect></g><g class="bar" transform="translate(260,172.96137339055795)"><rect x="1" width="11.999999999999996" height="137.03862660944205"></rect></g><g class="bar" transform="translate(273,200.90128755364805)"><rect x="1" width="11.999999999999996" height="109.09871244635195"></rect></g><g class="bar" transform="translate(286,210.21459227467813)"><rect x="1" width="11.999999999999996" height="99.78540772532187"></rect></g><g class="bar" transform="translate(299.00000000000006,234.16309012875536)"><rect x="1" width="11.999999999999996" height="75.83690987124464"></rect></g><g class="bar" transform="translate(312.00000000000006,231.50214592274676)"><rect x="1" width="11.999999999999996" height="78.49785407725324"></rect></g><g class="bar" transform="translate(325,260.7725321888412)"><rect x="1" width="11.999999999999996" height="49.22746781115882"></rect></g><g class="bar" transform="translate(338,274.07725321888415)"><rect x="1" width="11.999999999999996" height="35.92274678111585"></rect></g><g class="bar" transform="translate(351,287.381974248927)"><rect x="1" width="11.999999999999996" height="22.61802575107299"></rect></g><g class="bar" transform="translate(364.00000000000006,296.6952789699571)"><rect x="1" width="11.999999999999996" height="13.304721030042913"></rect></g><g class="bar" transform="translate(377.00000000000006,296.6952789699571)"><rect x="1" width="11.999999999999996" height="13.304721030042913"></rect></g><g class="bar" transform="translate(390,306.0085836909871)"><rect x="1" width="11.999999999999996" height="3.991416309012891"></rect></g><g class="bar" transform="translate(403,306.0085836909871)"><rect x="1" width="11.999999999999996" height="3.991416309012891"></rect></g><g class="bar" transform="translate(416,304.6781115879828)"><rect x="1" width="11.999999999999996" height="5.321888412017188"></rect></g><g class="bar" transform="translate(429.00000000000006,308.6695278969957)"><rect x="1" width="11.999999999999996" height="1.330472103004297"></rect></g><g class="bar" transform="translate(442.00000000000006,308.6695278969957)"><rect x="1" width="11.999999999999996" height="1.330472103004297"></rect></g><g class="bar" transform="translate(455,307.3390557939914)"><rect x="1" width="11.999999999999996" height="2.660944206008594"></rect></g><g class="bar" transform="translate(468,310)"><rect x="1" width="11.999999999999996" height="0"></rect></g><g class="bar" transform="translate(481,310)"><rect x="1" width="11.999999999999996" height="0"></rect></g><g class="bar" transform="translate(494.00000000000006,310)"><rect x="1" width="11.999999999999996" height="0"></rect></g><g class="bar" transform="translate(507.00000000000006,310)"><rect x="1" width="11.999999999999996" height="0"></rect></g><g class="axis axis--x" transform="translate(0,310)" fill="none" font-size="10" font-family="sans-serif" text-anchor="middle"><path class="domain" stroke="#000" d="M0.5,6V0.5H520.5V6"></path><g class="tick" opacity="1" transform="translate(0,0)"><line stroke="#000" y2="6" x1="0.5" x2="0.5"></line><text fill="#000" y="9" x="0.5" dy="0.71em">0.01</text></g><g class="tick" opacity="1" transform="translate(130,0)"><line stroke="#000" y2="6" x1="0.5" x2="0.5"></line><text fill="#000" y="9" x="0.5" dy="0.71em">1</text></g><g class="tick" opacity="1" transform="translate(260,0)"><line stroke="#000" y2="6" x1="0.5" x2="0.5"></line><text fill="#000" y="9" x="0.5" dy="0.71em">100</text></g><g class="tick" opacity="1" transform="translate(390,0)"><line stroke="#000" y2="6" x1="0.5" x2="0.5"></line><text fill="#000" y="9" x="0.5" dy="0.71em">10000</text></g><g class="tick" opacity="1" transform="translate(520,0)"><line stroke="#000" y2="6" x1="0.5" x2="0.5"></line><text fill="#000" y="9" x="0.5" dy="0.71em"></text></g></g><g class="axis axis--y" fill="none" font-size="10" font-family="sans-serif" text-anchor="end"><path class="domain" stroke="#000" d="M-6,310.5H0.5V0.5H-6"></path><g class="tick" opacity="1" transform="translate(0,310)"><line stroke="#000" x2="-6" y1="0.5" y2="0.5"></line><text fill="#000" x="-9" y="0.5" dy="0.32em">0</text></g><g class="tick" opacity="1" transform="translate(0,283.3905579399142)"><line stroke="#000" x2="-6" y1="0.5" y2="0.5"></line><text fill="#000" x="-9" y="0.5" dy="0.32em">20</text></g><g class="tick" opacity="1" transform="translate(0,256.78111587982835)"><line stroke="#000" x2="-6" y1="0.5" y2="0.5"></line><text fill="#000" x="-9" y="0.5" dy="0.32em">40</text></g><g class="tick" opacity="1" transform="translate(0,230.1716738197425)"><line stroke="#000" x2="-6" y1="0.5" y2="0.5"></line><text fill="#000" x="-9" y="0.5" dy="0.32em">60</text></g><g class="tick" opacity="1" transform="translate(0,203.56223175965664)"><line stroke="#000" x2="-6" y1="0.5" y2="0.5"></line><text fill="#000" x="-9" y="0.5" dy="0.32em">80</text></g><g class="tick" opacity="1" transform="translate(0,176.95278969957081)"><line stroke="#000" x2="-6" y1="0.5" y2="0.5"></line><text fill="#000" x="-9" y="0.5" dy="0.32em">100</text></g><g class="tick" opacity="1" transform="translate(0,150.343347639485)"><line stroke="#000" x2="-6" y1="0.5" y2="0.5"></line><text fill="#000" x="-9" y="0.5" dy="0.32em">120</text></g><g class="tick" opacity="1" transform="translate(0,123.73390557939913)"><line stroke="#000" x2="-6" y1="0.5" y2="0.5"></line><text fill="#000" x="-9" y="0.5" dy="0.32em">140</text></g><g class="tick" opacity="1" transform="translate(0,97.12446351931331)"><line stroke="#000" x2="-6" y1="0.5" y2="0.5"></line><text fill="#000" x="-9" y="0.5" dy="0.32em">160</text></g><g class="tick" opacity="1" transform="translate(0,70.51502145922748)"><line stroke="#000" x2="-6" y1="0.5" y2="0.5"></line><text fill="#000" x="-9" y="0.5" dy="0.32em">180</text></g><g class="tick" opacity="1" transform="translate(0,43.90557939914163)"><line stroke="#000" x2="-6" y1="0.5" y2="0.5"></line><text fill="#000" x="-9" y="0.5" dy="0.32em">200</text></g><g class="tick" opacity="1" transform="translate(0,17.296137339055804)"><line stroke="#000" x2="-6" y1="0.5" y2="0.5"></line><text fill="#000" x="-9" y="0.5" dy="0.32em">220</text></g></g></g></svg>