<svg xmlns="http://www.w3.org/2000/svg" width="280" height="160"><defs><style type="text/css"><![CDATA[ 
.bar rect {
  fill-opacity: 0;
  stroke:       black;
  stroke-width: 0.5;
}

.highlight rect {
  fill:       red;
  fill-opacity: 1;
}
.axis path,
.axis line {
  fill: none;
  stroke: #000;
  shape-rendering: crispEdges;
}
 ]]></style></defs><g transform="translate(50,10)"><g class="bar" transform="translate(0,120)"><rect x="1" width="11.5" height="0"></rect></g><g class="bar" transform="translate(12.5,120)"><rect x="1" width="11.5" height="0"></rect></g><g class="bar" transform="translate(25,120)"><rect x="1" width="11.5" height="0"></rect></g><g class="bar" transform="translate(37.5,120)"><rect x="1" width="11.5" height="0"></rect></g><g class="bar" transform="translate(50,120)"><rect x="1" width="11.5" height="0"></rect></g><g class="bar" transform="translate(62.5,120)"><rect x="1" width="11.5" height="0"></rect></g><g class="bar" transform="translate(75,71.85483870967742)"><rect x="1" width="11.5" height="48.14516129032258"></rect></g><g class="bar" transform="translate(87.5,0)"><rect x="1" width="11.5" height="120"></rect></g><g class="bar" transform="translate(100,42.338709677419345)"><rect x="1" width="11.5" height="77.66129032258065"></rect></g><g class="bar" transform="translate(112.5,85.76612903225806)"><rect x="1" width="11.5" height="34.233870967741936"></rect></g><g class="bar" transform="translate(125,99.43548387096774)"><rect x="1" width="11.5" height="20.564516129032256"></rect></g><g class="bar" transform="translate(137.5,116.61290322580645)"><rect x="1" width="11.5" height="3.3870967741935516"></rect></g><g class="bar" transform="translate(150,118.54838709677419)"><rect x="1" width="11.5" height="1.4516129032258078"></rect></g><g class="bar" transform="translate(162.5,119.87903225806451)"><rect x="1" width="11.5" height="0.12096774193548754"></rect></g><g class="bar" transform="translate(175,120)"><rect x="1" width="11.5" height="0"></rect></g><g class="bar" transform="translate(187.5,120)"><rect x="1" width="11.5" height="0"></rect></g></g></svg>