<svg xmlns="http://www.w3.org/2000/svg" width="280" height="160"><defs><style type="text/css"><![CDATA[ 
.bar rect {
  fill-opacity: 0;
  stroke:       black;
  stroke-width: 0.5;
}

.highlight rect {
  fill:       red;
  fill-opacity: 1;
}
.axis path,
.axis line {
  fill: none;
  stroke: #000;
  shape-rendering: crispEdges;
}
path {
    stroke: red;
    fill: none;
}

line {
    stroke: red;
}

path.marker {
    fill: red;
}
 ]]></style></defs><g transform="translate(50,10)"><g class="bar" transform="translate(0,118.90466531440163)"><rect x="1" width="11.5" height="1.0953346855983739"></rect></g><g class="bar" transform="translate(12.5,115.74036511156187)"><rect x="1" width="11.5" height="4.2596348884381285"></rect></g><g class="bar" transform="translate(25,93.10344827586206)"><rect x="1" width="11.5" height="26.896551724137936"></rect></g><g class="bar" transform="translate(37.5,64.13793103448276)"><rect x="1" width="11.5" height="55.86206896551724"></rect></g><g class="bar" transform="translate(50,30.182555780933072)"><rect x="1" width="11.5" height="89.81744421906693"></rect></g><g class="bar" transform="translate(62.5,0)"><rect x="1" width="11.5" height="120"></rect></g><g class="bar" transform="translate(75,2.1906693711967478)"><rect x="1" width="11.5" height="117.80933062880325"></rect></g><g class="bar" transform="translate(87.5,15.699797160243406)"><rect x="1" width="11.5" height="104.3002028397566"></rect></g><g class="bar" transform="translate(100,53.30628803245436)"><rect x="1" width="11.5" height="66.69371196754564"></rect></g><g class="bar" transform="translate(112.5,81.05476673427992)"><rect x="1" width="11.5" height="38.94523326572008"></rect></g><g class="bar" transform="translate(125,105.51724137931035)"><rect x="1" width="11.5" height="14.482758620689651"></rect></g><g class="bar" transform="translate(137.5,113.79310344827586)"><rect x="1" width="11.5" height="6.206896551724142"></rect></g><g class="bar" transform="translate(150,118.78296146044624)"><rect x="1" width="11.5" height="1.217038539553755"></rect></g><g class="bar" transform="translate(162.5,120)"><rect x="1" width="11.5" height="0"></rect></g><g class="bar" transform="translate(175,120)"><rect x="1" width="11.5" height="0"></rect></g><g class="bar" transform="translate(187.5,120)"><rect x="1" width="11.5" height="0"></rect></g></g></svg>