<svg xmlns="http://www.w3.org/2000/svg" width="280" height="160"><defs><style type="text/css"><![CDATA[ 
.bar rect {
  fill-opacity: 0;
  stroke:       black;
  stroke-width: 0.5;
}

.highlight rect {
  fill:       red;
  fill-opacity: 1;
}
.axis path,
.axis line {
  fill: none;
  stroke: #000;
  shape-rendering: crispEdges;
}
 ]]></style></defs><g transform="translate(50,10)"><g class="bar" transform="translate(0,120)"><rect x="1" width="11.5" height="0"></rect></g><g class="bar" transform="translate(12.5,120)"><rect x="1" width="11.5" height="0"></rect></g><g class="bar" transform="translate(25,120)"><rect x="1" width="11.5" height="0"></rect></g><g class="bar" transform="translate(37.5,118.13664596273291)"><rect x="1" width="11.5" height="1.8633540372670865"></rect></g><g class="bar" transform="translate(50,105.46583850931677)"><rect x="1" width="11.5" height="14.534161490683232"></rect></g><g class="bar" transform="translate(62.5,85.527950310559)"><rect x="1" width="11.5" height="34.47204968944099"></rect></g><g class="bar" transform="translate(75,33.913043478260875)"><rect x="1" width="11.5" height="86.08695652173913"></rect></g><g class="bar" transform="translate(87.5,9.503105590062106)"><rect x="1" width="11.5" height="110.4968944099379"></rect></g><g class="bar" transform="translate(100,0)"><rect x="1" width="11.5" height="120"></rect></g><g class="bar" transform="translate(112.5,43.22981366459628)"><rect x="1" width="11.5" height="76.77018633540372"></rect></g><g class="bar" transform="translate(125,98.94409937888199)"><rect x="1" width="11.5" height="21.055900621118013"></rect></g><g class="bar" transform="translate(137.5,113.47826086956522)"><rect x="1" width="11.5" height="6.521739130434781"></rect></g><g class="bar" transform="translate(150,119.44099378881988)"><rect x="1" width="11.5" height="0.5590062111801188"></rect></g><g class="bar" transform="translate(162.5,119.25465838509317)"><rect x="1" width="11.5" height="0.7453416149068346"></rect></g><g class="bar" transform="translate(175,120)"><rect x="1" width="11.5" height="0"></rect></g><g class="bar" transform="translate(187.5,120)"><rect x="1" width="11.5" height="0"></rect></g></g></svg>