<svg xmlns="http://www.w3.org/2000/svg" width="600" height="350"><defs><style type="text/css"><![CDATA[ 
.bar rect {
  fill-opacity: 0;
  stroke:       black;
  stroke-width: 0.5;
}

.highlight rect {
  fill:       red;
  fill-opacity: 1;
}
.axis path,
.axis line {
  fill: none;
  stroke: #000;
  shape-rendering: crispEdges;
}
path {
    stroke: red;
    fill: none;
}

line {
    stroke: red;
}

path.marker {
    fill: red;
}
 ]]></style></defs><g transform="translate(50,10)"><g class="bar" transform="translate(0,301.16389548693587)"><rect x="1" width="11.999999999999996" height="8.836104513064129"></rect></g><g class="bar" transform="translate(12.999999999999996,303.3729216152019)"><rect x="1" width="11.999999999999996" height="6.6270783847980965"></rect></g><g class="bar" transform="translate(25.999999999999993,295.2731591448931)"><rect x="1" width="11.999999999999996" height="14.7268408551069"></rect></g><g class="bar" transform="translate(39.00000000000001,291.59144893111636)"><rect x="1" width="11.999999999999996" height="18.40855106888364"></rect></g><g class="bar" transform="translate(52,287.1733966745843)"><rect x="1" width="11.999999999999996" height="22.826603325415704"></rect></g><g class="bar" transform="translate(65,260.6650831353919)"><rect x="1" width="11.999999999999996" height="49.33491686460809"></rect></g><g class="bar" transform="translate(78.00000000000001,243.729216152019)"><rect x="1" width="11.999999999999996" height="66.270783847981"></rect></g><g class="bar" transform="translate(91.00000000000001,231.21140142517814)"><rect x="1" width="11.999999999999996" height="78.78859857482186"></rect></g><g class="bar" transform="translate(104,209.85748218527317)"><rect x="1" width="11.999999999999996" height="100.14251781472683"></rect></g><g class="bar" transform="translate(117,154.63182897862234)"><rect x="1" width="11.999999999999996" height="155.36817102137766"></rect></g><g class="bar" transform="translate(130,114.86935866983373)"><rect x="1" width="11.999999999999996" height="195.13064133016627"></rect></g><g class="bar" transform="translate(143,94.25178147268409)"><rect x="1" width="11.999999999999996" height="215.7482185273159"></rect></g><g class="bar" transform="translate(156.00000000000003,77.31591448931118)"><rect x="1" width="11.999999999999996" height="232.68408551068882"></rect></g><g class="bar" transform="translate(169,32.39904988123516)"><rect x="1" width="11.999999999999996" height="277.60095011876484"></rect></g><g class="bar" transform="translate(182.00000000000003,0)"><rect x="1" width="11.999999999999996" height="310"></rect></g><g class="bar" transform="translate(195,14.7268408551069)"><rect x="1" width="11.999999999999996" height="295.2731591448931"></rect></g><g class="bar" transform="translate(208,2.209026128266032)"><rect x="1" width="11.999999999999996" height="307.79097387173397"></rect></g><g class="bar" transform="translate(221.00000000000003,16.19952494061755)"><rect x="1" width="11.999999999999996" height="293.80047505938245"></rect></g><g class="bar" transform="translate(234,22.826603325415704)"><rect x="1" width="11.999999999999996" height="287.1733966745843"></rect></g><g class="bar" transform="translate(247.00000000000003,78.05225653206648)"><rect x="1" width="11.999999999999996" height="231.94774346793352"></rect></g><g class="bar" transform="translate(260,76.57957244655583)"><rect x="1" width="11.999999999999996" height="233.42042755344417"></rect></g><g class="bar" transform="translate(273,122.9691211401425)"><rect x="1" width="11.999999999999996" height="187.0308788598575"></rect></g><g class="bar" transform="translate(286,177.458432304038)"><rect x="1" width="11.999999999999996" height="132.541567695962"></rect></g><g class="bar" transform="translate(299.00000000000006,187.76722090261285)"><rect x="1" width="11.999999999999996" height="122.23277909738715"></rect></g><g class="bar" transform="translate(312.00000000000006,222.375296912114)"><rect x="1" width="11.999999999999996" height="87.62470308788599"></rect></g><g class="bar" transform="translate(325,251.82897862232778)"><rect x="1" width="11.999999999999996" height="58.17102137767222"></rect></g><g class="bar" transform="translate(338,265.81947743467936)"><rect x="1" width="11.999999999999996" height="44.18052256532064"></rect></g><g class="bar" transform="translate(351,287.1733966745843)"><rect x="1" width="11.999999999999996" height="22.826603325415704"></rect></g><g class="bar" transform="translate(364.00000000000006,291.59144893111636)"><rect x="1" width="11.999999999999996" height="18.40855106888364"></rect></g><g class="bar" transform="translate(377.00000000000006,301.16389548693587)"><rect x="1" width="11.999999999999996" height="8.836104513064129"></rect></g><g class="bar" transform="translate(390,307.79097387173397)"><rect x="1" width="11.999999999999996" height="2.209026128266032"></rect></g><g class="bar" transform="translate(403,309.2636579572447)"><rect x="1" width="11.999999999999996" height="0.7363420427553251"></rect></g><g class="bar" transform="translate(416,310)"><rect x="1" width="11.999999999999996" height="0"></rect></g><g class="bar" transform="translate(429.00000000000006,310)"><rect x="1" width="11.999999999999996" height="0"></rect></g><g class="bar" transform="translate(442.00000000000006,310)"><rect x="1" width="11.999999999999996" height="0"></rect></g><g class="bar" transform="translate(455,310)"><rect x="1" width="11.999999999999996" height="0"></rect></g><g class="bar" transform="translate(468,310)"><rect x="1" width="11.999999999999996" height="0"></rect></g><g class="bar" transform="translate(481,310)"><rect x="1" width="11.999999999999996" height="0"></rect></g><g class="bar" transform="translate(494.00000000000006,310)"><rect x="1" width="11.999999999999996" height="0"></rect></g><g class="bar" transform="translate(507.00000000000006,310)"><rect x="1" width="11.999999999999996" height="0"></rect></g><g class="axis axis--x" transform="translate(0,310)" fill="none" font-size="10" font-family="sans-serif" text-anchor="middle"><path class="domain" stroke="#000" d="M0.5,6V0.5H520.5V6"></path><g class="tick" opacity="1" transform="translate(0.5,0)"><line stroke="#000" y2="6"></line><text fill="#000" y="9" dy="0.71em">0.01</text></g><g class="tick" opacity="1" transform="translate(130.5,0)"><line stroke="#000" y2="6"></line><text fill="#000" y="9" dy="0.71em">1</text></g><g class="tick" opacity="1" transform="translate(260.5,0)"><line stroke="#000" y2="6"></line><text fill="#000" y="9" dy="0.71em">100</text></g><g class="tick" opacity="1" transform="translate(390.5,0)"><line stroke="#000" y2="6"></line><text fill="#000" y="9" dy="0.71em">10000</text></g><g class="tick" opacity="1" transform="translate(520.5,0)"><line stroke="#000" y2="6"></line><text fill="#000" y="9" dy="0.71em"></text></g></g><g class="axis axis--y" fill="none" font-size="10" font-family="sans-serif" text-anchor="end"><path class="domain" stroke="#000" d="M-6,310.5H0.5V0.5H-6"></path><g class="tick" opacity="1" transform="translate(0,310.5)"><line stroke="#000" x2="-6"></line><text fill="#000" x="-9" dy="0.32em">0</text></g><g class="tick" opacity="1" transform="translate(0,273.6828978622328)"><line stroke="#000" x2="-6"></line><text fill="#000" x="-9" dy="0.32em">50</text></g><g class="tick" opacity="1" transform="translate(0,236.86579572446556)"><line stroke="#000" x2="-6"></line><text fill="#000" x="-9" dy="0.32em">100</text></g><g class="tick" opacity="1" transform="translate(0,200.04869358669833)"><line stroke="#000" x2="-6"></line><text fill="#000" x="-9" dy="0.32em">150</text></g><g class="tick" opacity="1" transform="translate(0,163.2315914489311)"><line stroke="#000" x2="-6"></line><text fill="#000" x="-9" dy="0.32em">200</text></g><g class="tick" opacity="1" transform="translate(0,126.41448931116389)"><line stroke="#000" x2="-6"></line><text fill="#000" x="-9" dy="0.32em">250</text></g><g class="tick" opacity="1" transform="translate(0,89.59738717339667)"><line stroke="#000" x2="-6"></line><text fill="#000" x="-9" dy="0.32em">300</text></g><g class="tick" opacity="1" transform="translate(0,52.78028503562945)"><line stroke="#000" x2="-6"></line><text fill="#000" x="-9" dy="0.32em">350</text></g><g class="tick" opacity="1" transform="translate(0,15.963182897862225)"><line stroke="#000" x2="-6"></line><text fill="#000" x="-9" dy="0.32em">400</text></g></g></g></svg>