<svg xmlns="http://www.w3.org/2000/svg" width="280" height="160"><defs><style type="text/css"><![CDATA[ 
.bar rect {
  fill-opacity: 0;
  stroke:       black;
  stroke-width: 0.5;
}

.highlight rect {
  fill:       red;
  fill-opacity: 1;
}
.axis path,
.axis line {
  fill: none;
  stroke: #000;
  shape-rendering: crispEdges;
}
path {
    stroke: red;
    fill: none;
}

line {
    stroke: red;
}

path.marker {
    fill: red;
}
 ]]></style></defs><g transform="translate(50,10)"><g class="bar" transform="translate(0,116.52173913043478)"><rect x="1" width="11.5" height="3.4782608695652186"></rect></g><g class="bar" transform="translate(12.5,112.23188405797102)"><rect x="1" width="11.5" height="7.7681159420289845"></rect></g><g class="bar" transform="translate(25,96.1159420289855)"><rect x="1" width="11.5" height="23.8840579710145"></rect></g><g class="bar" transform="translate(37.5,73.04347826086956)"><rect x="1" width="11.5" height="46.95652173913044"></rect></g><g class="bar" transform="translate(50,38.72463768115942)"><rect x="1" width="11.5" height="81.27536231884058"></rect></g><g class="bar" transform="translate(62.5,7.420289855072454)"><rect x="1" width="11.5" height="112.57971014492755"></rect></g><g class="bar" transform="translate(75,0)"><rect x="1" width="11.5" height="120"></rect></g><g class="bar" transform="translate(87.5,17.043478260869563)"><rect x="1" width="11.5" height="102.95652173913044"></rect></g><g class="bar" transform="translate(100,43.59420289855073)"><rect x="1" width="11.5" height="76.40579710144927"></rect></g><g class="bar" transform="translate(112.5,76.28985507246377)"><rect x="1" width="11.5" height="43.710144927536234"></rect></g><g class="bar" transform="translate(125,101.56521739130434)"><rect x="1" width="11.5" height="18.434782608695656"></rect></g><g class="bar" transform="translate(137.5,114.43478260869566)"><rect x="1" width="11.5" height="5.565217391304344"></rect></g><g class="bar" transform="translate(150,119.53623188405797)"><rect x="1" width="11.5" height="0.46376811594203105"></rect></g><g class="bar" transform="translate(162.5,120)"><rect x="1" width="11.5" height="0"></rect></g><g class="bar" transform="translate(175,120)"><rect x="1" width="11.5" height="0"></rect></g><g class="bar" transform="translate(187.5,120)"><rect x="1" width="11.5" height="0"></rect></g></g></svg>