<svg xmlns="http://www.w3.org/2000/svg" width="280" height="160"><defs><style type="text/css"><![CDATA[ 
.bar rect {
  fill-opacity: 0;
  stroke:       black;
  stroke-width: 0.5;
}

.highlight rect {
  fill:       red;
  fill-opacity: 1;
}
.axis path,
.axis line {
  fill: none;
  stroke: #000;
  shape-rendering: crispEdges;
}
 ]]></style></defs><g transform="translate(50,10)"><g class="bar" transform="translate(0,120)"><rect x="1" width="11.5" height="0"></rect></g><g class="bar" transform="translate(12.5,120)"><rect x="1" width="11.5" height="0"></rect></g><g class="bar" transform="translate(25,120)"><rect x="1" width="11.5" height="0"></rect></g><g class="bar" transform="translate(37.5,117.65395894428153)"><rect x="1" width="11.5" height="2.346041055718473"></rect></g><g class="bar" transform="translate(50,88.32844574780059)"><rect x="1" width="11.5" height="31.671554252199414"></rect></g><g class="bar" transform="translate(62.5,13.37243401759531)"><rect x="1" width="11.5" height="106.62756598240469"></rect></g><g class="bar" transform="translate(75,0)"><rect x="1" width="11.5" height="120"></rect></g><g class="bar" transform="translate(87.5,22.991202346041064)"><rect x="1" width="11.5" height="97.00879765395894"></rect></g><g class="bar" transform="translate(100,56.539589442815256)"><rect x="1" width="11.5" height="63.460410557184744"></rect></g><g class="bar" transform="translate(112.5,86.9208211143695)"><rect x="1" width="11.5" height="33.0791788856305"></rect></g><g class="bar" transform="translate(125,107.33137829912023)"><rect x="1" width="11.5" height="12.668621700879768"></rect></g><g class="bar" transform="translate(137.5,116.48093841642229)"><rect x="1" width="11.5" height="3.5190615835777095"></rect></g><g class="bar" transform="translate(150,119.64809384164222)"><rect x="1" width="11.5" height="0.35190615835777805"></rect></g><g class="bar" transform="translate(162.5,119.29618768328446)"><rect x="1" width="11.5" height="0.7038123167155419"></rect></g><g class="bar" transform="translate(175,120)"><rect x="1" width="11.5" height="0"></rect></g><g class="bar" transform="translate(187.5,120)"><rect x="1" width="11.5" height="0"></rect></g></g></svg>