<svg xmlns="http://www.w3.org/2000/svg" width="600" height="350"><defs><style type="text/css"><![CDATA[ 
.bar rect {
  fill-opacity: 0;
  stroke:       black;
  stroke-width: 0.5;
}

.highlight rect {
  fill:       red;
  fill-opacity: 1;
}
.axis path,
.axis line {
  fill: none;
  stroke: #000;
  shape-rendering: crispEdges;
}
path {
    stroke: red;
    fill: none;
}

line {
    stroke: red;
}

path.marker {
    fill: red;
}
 ]]></style></defs><g transform="translate(50,10)"><g class="bar" transform="translate(0,306.2079510703364)"><rect x="1" width="11.999999999999996" height="3.792048929663622"></rect></g><g class="bar" transform="translate(12.999999999999996,295.7798165137615)"><rect x="1" width="11.999999999999996" height="14.220183486238511"></rect></g><g class="bar" transform="translate(25.999999999999993,300.519877675841)"><rect x="1" width="11.999999999999996" height="9.480122324159026"></rect></g><g class="bar" transform="translate(39.00000000000001,285.35168195718654)"><rect x="1" width="11.999999999999996" height="24.648318042813457"></rect></g><g class="bar" transform="translate(52,273.97553516819573)"><rect x="1" width="11.999999999999996" height="36.024464831804266"></rect></g><g class="bar" transform="translate(65,266.3914373088685)"><rect x="1" width="11.999999999999996" height="43.60856269113151"></rect></g><g class="bar" transform="translate(78.00000000000001,259.75535168195717)"><rect x="1" width="11.999999999999996" height="50.244648318042834"></rect></g><g class="bar" transform="translate(91.00000000000001,243.63914373088684)"><rect x="1" width="11.999999999999996" height="66.36085626911316"></rect></g><g class="bar" transform="translate(104,221.83486238532112)"><rect x="1" width="11.999999999999996" height="88.16513761467888"></rect></g><g class="bar" transform="translate(117,179.1743119266055)"><rect x="1" width="11.999999999999996" height="130.8256880733945"></rect></g><g class="bar" transform="translate(130,166.85015290519877)"><rect x="1" width="11.999999999999996" height="143.14984709480123"></rect></g><g class="bar" transform="translate(143,133.6697247706422)"><rect x="1" width="11.999999999999996" height="176.3302752293578"></rect></g><g class="bar" transform="translate(156.00000000000003,102.38532110091742)"><rect x="1" width="11.999999999999996" height="207.61467889908258"></rect></g><g class="bar" transform="translate(169,71.10091743119264)"><rect x="1" width="11.999999999999996" height="238.89908256880736"></rect></g><g class="bar" transform="translate(182.00000000000003,50.244648318042834)"><rect x="1" width="11.999999999999996" height="259.75535168195717"></rect></g><g class="bar" transform="translate(195,18.012232415902133)"><rect x="1" width="11.999999999999996" height="291.98776758409787"></rect></g><g class="bar" transform="translate(208,24.648318042813457)"><rect x="1" width="11.999999999999996" height="285.35168195718654"></rect></g><g class="bar" transform="translate(221.00000000000003,0)"><rect x="1" width="11.999999999999996" height="310"></rect></g><g class="bar" transform="translate(234,31.28440366972478)"><rect x="1" width="11.999999999999996" height="278.7155963302752"></rect></g><g class="bar" transform="translate(247.00000000000003,18.960244648318053)"><rect x="1" width="11.999999999999996" height="291.03975535168195"></rect></g><g class="bar" transform="translate(260,57.82874617737005)"><rect x="1" width="11.999999999999996" height="252.17125382262995"></rect></g><g class="bar" transform="translate(273,95.74923547400613)"><rect x="1" width="11.999999999999996" height="214.25076452599387"></rect></g><g class="bar" transform="translate(286,96.69724770642202)"><rect x="1" width="11.999999999999996" height="213.30275229357798"></rect></g><g class="bar" transform="translate(299.00000000000006,182.0183486238532)"><rect x="1" width="11.999999999999996" height="127.9816513761468"></rect></g><g class="bar" transform="translate(312.00000000000006,231.31498470948014)"><rect x="1" width="11.999999999999996" height="78.68501529051986"></rect></g><g class="bar" transform="translate(325,256.91131498470946)"><rect x="1" width="11.999999999999996" height="53.08868501529054"></rect></g><g class="bar" transform="translate(338,263.5474006116208)"><rect x="1" width="11.999999999999996" height="46.45259938837921"></rect></g><g class="bar" transform="translate(351,273.97553516819573)"><rect x="1" width="11.999999999999996" height="36.024464831804266"></rect></g><g class="bar" transform="translate(364.00000000000006,297.67584097859327)"><rect x="1" width="11.999999999999996" height="12.324159021406729"></rect></g><g class="bar" transform="translate(377.00000000000006,286.29969418960246)"><rect x="1" width="11.999999999999996" height="23.700305810397538"></rect></g><g class="bar" transform="translate(390,308.1039755351682)"><rect x="1" width="11.999999999999996" height="1.8960244648317826"></rect></g><g class="bar" transform="translate(403,308.1039755351682)"><rect x="1" width="11.999999999999996" height="1.8960244648317826"></rect></g><g class="bar" transform="translate(416,310)"><rect x="1" width="11.999999999999996" height="0"></rect></g><g class="bar" transform="translate(429.00000000000006,310)"><rect x="1" width="11.999999999999996" height="0"></rect></g><g class="bar" transform="translate(442.00000000000006,310)"><rect x="1" width="11.999999999999996" height="0"></rect></g><g class="bar" transform="translate(455,310)"><rect x="1" width="11.999999999999996" height="0"></rect></g><g class="bar" transform="translate(468,310)"><rect x="1" width="11.999999999999996" height="0"></rect></g><g class="bar" transform="translate(481,310)"><rect x="1" width="11.999999999999996" height="0"></rect></g><g class="bar" transform="translate(494.00000000000006,310)"><rect x="1" width="11.999999999999996" height="0"></rect></g><g class="bar" transform="translate(507.00000000000006,310)"><rect x="1" width="11.999999999999996" height="0"></rect></g><g class="axis axis--x" transform="translate(0,310)" fill="none" font-size="10" font-family="sans-serif" text-anchor="middle"><path class="domain" stroke="#000" d="M0.5,6V0.5H520.5V6"></path><g class="tick" opacity="1" transform="translate(0.5,0)"><line stroke="#000" y2="6"></line><text fill="#000" y="9" dy="0.71em">0.01</text></g><g class="tick" opacity="1" transform="translate(130.5,0)"><line stroke="#000" y2="6"></line><text fill="#000" y="9" dy="0.71em">1</text></g><g class="tick" opacity="1" transform="translate(260.5,0)"><line stroke="#000" y2="6"></line><text fill="#000" y="9" dy="0.71em">100</text></g><g class="tick" opacity="1" transform="translate(390.5,0)"><line stroke="#000" y2="6"></line><text fill="#000" y="9" dy="0.71em">10000</text></g><g class="tick" opacity="1" transform="translate(520.5,0)"><line stroke="#000" y2="6"></line><text fill="#000" y="9" dy="0.71em"></text></g></g><g class="axis axis--y" fill="none" font-size="10" font-family="sans-serif" text-anchor="end"><path class="domain" stroke="#000" d="M-6,310.5H0.5V0.5H-6"></path><g class="tick" opacity="1" transform="translate(0,310.5)"><line stroke="#000" x2="-6"></line><text fill="#000" x="-9" dy="0.32em">0</text></g><g class="tick" opacity="1" transform="translate(0,263.0993883792049)"><line stroke="#000" x2="-6"></line><text fill="#000" x="-9" dy="0.32em">50</text></g><g class="tick" opacity="1" transform="translate(0,215.6987767584098)"><line stroke="#000" x2="-6"></line><text fill="#000" x="-9" dy="0.32em">100</text></g><g class="tick" opacity="1" transform="translate(0,168.29816513761466)"><line stroke="#000" x2="-6"></line><text fill="#000" x="-9" dy="0.32em">150</text></g><g class="tick" opacity="1" transform="translate(0,120.89755351681958)"><line stroke="#000" x2="-6"></line><text fill="#000" x="-9" dy="0.32em">200</text></g><g class="tick" opacity="1" transform="translate(0,73.49694189602445)"><line stroke="#000" x2="-6"></line><text fill="#000" x="-9" dy="0.32em">250</text></g><g class="tick" opacity="1" transform="translate(0,26.09633027522932)"><line stroke="#000" x2="-6"></line><text fill="#000" x="-9" dy="0.32em">300</text></g></g></g></svg>