<svg xmlns="http://www.w3.org/2000/svg" width="600" height="350"><defs><style type="text/css"><![CDATA[ 
.bar rect {
  fill-opacity: 0;
  stroke:       black;
  stroke-width: 0.5;
}

.highlight rect {
  fill:       red;
  fill-opacity: 1;
}
.axis path,
.axis line {
  fill: none;
  stroke: #000;
  shape-rendering: crispEdges;
}
path {
    stroke: red;
    fill: none;
}

line {
    stroke: red;
}

path.marker {
    fill: red;
}
 ]]></style></defs><g transform="translate(50,10)"><g class="bar" transform="translate(0,310)"><rect x="1" width="5.500000000000005" height="0"></rect></g><g class="bar" transform="translate(6.500000000000005,310)"><rect x="1" width="5.500000000000005" height="0"></rect></g><g class="bar" transform="translate(12.999999999999996,310)"><rect x="1" width="5.500000000000005" height="0"></rect></g><g class="bar" transform="translate(19.500000000000004,310)"><rect x="1" width="5.500000000000005" height="0"></rect></g><g class="bar" transform="translate(25.999999999999993,310)"><rect x="1" width="5.500000000000005" height="0"></rect></g><g class="bar" transform="translate(32.5,310)"><rect x="1" width="5.500000000000005" height="0"></rect></g><g class="bar" transform="translate(39.00000000000001,310)"><rect x="1" width="5.500000000000005" height="0"></rect></g><g class="bar" transform="translate(45.500000000000014,310)"><rect x="1" width="5.500000000000005" height="0"></rect></g><g class="bar" transform="translate(52,310)"><rect x="1" width="5.500000000000005" height="0"></rect></g><g class="bar" transform="translate(58.49999999999999,310)"><rect x="1" width="5.500000000000005" height="0"></rect></g><g class="bar" transform="translate(65,310)"><rect x="1" width="5.500000000000005" height="0"></rect></g><g class="bar" transform="translate(71.5,310)"><rect x="1" width="5.500000000000005" height="0"></rect></g><g class="bar" transform="translate(78.00000000000001,310)"><rect x="1" width="5.500000000000005" height="0"></rect></g><g class="bar" transform="translate(84.5,310)"><rect x="1" width="5.500000000000005" height="0"></rect></g><g class="bar" transform="translate(91.00000000000001,310)"><rect x="1" width="5.500000000000005" height="0"></rect></g><g class="bar" transform="translate(97.5,309.2030848329049)"><rect x="1" width="5.500000000000005" height="0.7969151670951078"></rect></g><g class="bar" transform="translate(104,309.2030848329049)"><rect x="1" width="5.500000000000005" height="0.7969151670951078"></rect></g><g class="bar" transform="translate(110.50000000000001,308.4061696658098)"><rect x="1" width="5.500000000000005" height="1.5938303341902156"></rect></g><g class="bar" transform="translate(117,310)"><rect x="1" width="5.500000000000005" height="0"></rect></g><g class="bar" transform="translate(123.50000000000001,303.6246786632391)"><rect x="1" width="5.500000000000005" height="6.375321336760919"></rect></g><g class="bar" transform="translate(130,307.6092544987147)"><rect x="1" width="5.500000000000005" height="2.3907455012853234"></rect></g><g class="bar" transform="translate(136.5,302.827763496144)"><rect x="1" width="5.500000000000005" height="7.172236503856027"></rect></g><g class="bar" transform="translate(143,296.45244215938305)"><rect x="1" width="5.500000000000005" height="13.547557840616946"></rect></g><g class="bar" transform="translate(149.50000000000003,286.09254498714654)"><rect x="1" width="5.500000000000005" height="23.90745501285346"></rect></g><g class="bar" transform="translate(156.00000000000003,253.41902313624678)"><rect x="1" width="5.500000000000005" height="56.58097686375322"></rect></g><g class="bar" transform="translate(162.5,208.7917737789203)"><rect x="1" width="5.500000000000005" height="101.20822622107971"></rect></g><g class="bar" transform="translate(169,180.10282776349615)"><rect x="1" width="5.500000000000005" height="129.89717223650385"></rect></g><g class="bar" transform="translate(175.5,130.69408740359896)"><rect x="1" width="5.500000000000005" height="179.30591259640104"></rect></g><g class="bar" transform="translate(182.00000000000003,86.0668380462725)"><rect x="1" width="5.500000000000005" height="223.9331619537275"></rect></g><g class="bar" transform="translate(188.50000000000003,63.75321336760928)"><rect x="1" width="5.500000000000005" height="246.24678663239072"></rect></g><g class="bar" transform="translate(195,53.39331619537279)"><rect x="1" width="5.500000000000005" height="256.6066838046272"></rect></g><g class="bar" transform="translate(201.5,11.156812339331623)"><rect x="1" width="5.500000000000005" height="298.8431876606684"></rect></g><g class="bar" transform="translate(208,27.892030848329057)"><rect x="1" width="5.500000000000005" height="282.10796915167094"></rect></g><g class="bar" transform="translate(214.50000000000003,23.110539845758353)"><rect x="1" width="5.500000000000005" height="286.88946015424165"></rect></g><g class="bar" transform="translate(221.00000000000003,0)"><rect x="1" width="5.500000000000005" height="310"></rect></g><g class="bar" transform="translate(227.5,7.969151670951192)"><rect x="1" width="5.500000000000005" height="302.0308483290488"></rect></g><g class="bar" transform="translate(234,28.688946015424165)"><rect x="1" width="5.500000000000005" height="281.31105398457584"></rect></g><g class="bar" transform="translate(240.5,29.485861182519272)"><rect x="1" width="5.500000000000005" height="280.5141388174807"></rect></g><g class="bar" transform="translate(247.00000000000003,53.39331619537279)"><rect x="1" width="5.500000000000005" height="256.6066838046272"></rect></g><g class="bar" transform="translate(253.50000000000003,83.67609254498714)"><rect x="1" width="5.500000000000005" height="226.32390745501286"></rect></g><g class="bar" transform="translate(260,93.23907455012852)"><rect x="1" width="5.500000000000005" height="216.76092544987148"></rect></g><g class="bar" transform="translate(266.50000000000006,89.25449871465295)"><rect x="1" width="5.500000000000005" height="220.74550128534705"></rect></g><g class="bar" transform="translate(273,98.81748071979436)"><rect x="1" width="5.500000000000005" height="211.18251928020564"></rect></g><g class="bar" transform="translate(279.5,137.866323907455)"><rect x="1" width="5.500000000000005" height="172.133676092545"></rect></g><g class="bar" transform="translate(286,174.52442159383034)"><rect x="1" width="5.500000000000005" height="135.47557840616966"></rect></g><g class="bar" transform="translate(292.5,190.46272493573264)"><rect x="1" width="5.500000000000005" height="119.53727506426736"></rect></g><g class="bar" transform="translate(299.00000000000006,194.44730077120823)"><rect x="1" width="5.500000000000005" height="115.55269922879177"></rect></g><g class="bar" transform="translate(305.5,234.29305912596402)"><rect x="1" width="5.500000000000005" height="75.70694087403598"></rect></g><g class="bar" transform="translate(312.00000000000006,260.5912596401028)"><rect x="1" width="5.500000000000005" height="49.408740359897195"></rect></g><g class="bar" transform="translate(318.5,270.1542416452442)"><rect x="1" width="5.500000000000005" height="39.84575835475579"></rect></g><g class="bar" transform="translate(325,268.560411311054)"><rect x="1" width="5.500000000000005" height="41.439588688946"></rect></g><g class="bar" transform="translate(331.50000000000006,288.48329048843186)"><rect x="1" width="5.500000000000005" height="21.516709511568138"></rect></g><g class="bar" transform="translate(338,286.88946015424165)"><rect x="1" width="5.500000000000005" height="23.110539845758353"></rect></g><g class="bar" transform="translate(344.50000000000006,298.04627249357327)"><rect x="1" width="5.500000000000005" height="11.95372750642673"></rect></g><g class="bar" transform="translate(351,298.8431876606684)"><rect x="1" width="5.500000000000005" height="11.156812339331623"></rect></g><g class="bar" transform="translate(357.5,303.6246786632391)"><rect x="1" width="5.500000000000005" height="6.375321336760919"></rect></g><g class="bar" transform="translate(364.00000000000006,308.4061696658098)"><rect x="1" width="5.500000000000005" height="1.5938303341902156"></rect></g><g class="bar" transform="translate(370.5,298.04627249357327)"><rect x="1" width="5.500000000000005" height="11.95372750642673"></rect></g><g class="bar" transform="translate(377.00000000000006,308.4061696658098)"><rect x="1" width="5.500000000000005" height="1.5938303341902156"></rect></g><g class="bar" transform="translate(383.5,310)"><rect x="1" width="5.500000000000005" height="0"></rect></g><g class="bar" transform="translate(390,310)"><rect x="1" width="5.500000000000005" height="0"></rect></g><g class="bar" transform="translate(396.50000000000006,310)"><rect x="1" width="5.500000000000005" height="0"></rect></g><g class="bar" transform="translate(403,310)"><rect x="1" width="5.500000000000005" height="0"></rect></g><g class="bar" transform="translate(409.50000000000006,310)"><rect x="1" width="5.500000000000005" height="0"></rect></g><g class="bar" transform="translate(416,309.2030848329049)"><rect x="1" width="5.500000000000005" height="0.7969151670951078"></rect></g><g class="bar" transform="translate(422.5,310)"><rect x="1" width="5.500000000000005" height="0"></rect></g><g class="bar" transform="translate(429.00000000000006,310)"><rect x="1" width="5.500000000000005" height="0"></rect></g><g class="bar" transform="translate(435.5,310)"><rect x="1" width="5.500000000000005" height="0"></rect></g><g class="bar" transform="translate(442.00000000000006,310)"><rect x="1" width="5.500000000000005" height="0"></rect></g><g class="bar" transform="translate(448.5,310)"><rect x="1" width="5.500000000000005" height="0"></rect></g><g class="bar" transform="translate(455,310)"><rect x="1" width="5.500000000000005" height="0"></rect></g><g class="bar" transform="translate(461.50000000000006,310)"><rect x="1" width="5.500000000000005" height="0"></rect></g><g class="bar" transform="translate(468,310)"><rect x="1" width="5.500000000000005" height="0"></rect></g><g class="bar" transform="translate(474.50000000000006,310)"><rect x="1" width="5.500000000000005" height="0"></rect></g><g class="bar" transform="translate(481,310)"><rect x="1" width="5.500000000000005" height="0"></rect></g><g class="bar" transform="translate(487.5,310)"><rect x="1" width="5.500000000000005" height="0"></rect></g><g class="bar" transform="translate(494.00000000000006,310)"><rect x="1" width="5.500000000000005" height="0"></rect></g><g class="bar" transform="translate(500.5,310)"><rect x="1" width="5.500000000000005" height="0"></rect></g><g class="bar" transform="translate(507.00000000000006,310)"><rect x="1" width="5.500000000000005" height="0"></rect></g><g class="bar" transform="translate(513.5,310)"><rect x="1" width="5.500000000000005" height="0"></rect></g><g class="axis axis--x" transform="translate(0,310)" fill="none" font-size="10" font-family="sans-serif" text-anchor="middle"><path class="domain" stroke="#000" d="M0.5,6V0.5H520.5V6"></path><g class="tick" opacity="1" transform="translate(0.5,0)"><line stroke="#000" y2="6"></line><text fill="#000" y="9" dy="0.71em">0.01</text></g><g class="tick" opacity="1" transform="translate(130.5,0)"><line stroke="#000" y2="6"></line><text fill="#000" y="9" dy="0.71em">1</text></g><g class="tick" opacity="1" transform="translate(260.5,0)"><line stroke="#000" y2="6"></line><text fill="#000" y="9" dy="0.71em">100</text></g><g class="tick" opacity="1" transform="translate(390.5,0)"><line stroke="#000" y2="6"></line><text fill="#000" y="9" dy="0.71em">10000</text></g><g class="tick" opacity="1" transform="translate(520.5,0)"><line stroke="#000" y2="6"></line><text fill="#000" y="9" dy="0.71em"></text></g></g><g class="axis axis--y" fill="none" font-size="10" font-family="sans-serif" text-anchor="end"><path class="domain" stroke="#000" d="M-6,310.5H0.5V0.5H-6"></path><g class="tick" opacity="1" transform="translate(0,310.5)"><line stroke="#000" x2="-6"></line><text fill="#000" x="-9" dy="0.32em">0</text></g><g class="tick" opacity="1" transform="translate(0,270.6542416452442)"><line stroke="#000" x2="-6"></line><text fill="#000" x="-9" dy="0.32em">50</text></g><g class="tick" opacity="1" transform="translate(0,230.80848329048843)"><line stroke="#000" x2="-6"></line><text fill="#000" x="-9" dy="0.32em">100</text></g><g class="tick" opacity="1" transform="translate(0,190.96272493573264)"><line stroke="#000" x2="-6"></line><text fill="#000" x="-9" dy="0.32em">150</text></g><g class="tick" opacity="1" transform="translate(0,151.11696658097688)"><line stroke="#000" x2="-6"></line><text fill="#000" x="-9" dy="0.32em">200</text></g><g class="tick" opacity="1" transform="translate(0,111.27120822622106)"><line stroke="#000" x2="-6"></line><text fill="#000" x="-9" dy="0.32em">250</text></g><g class="tick" opacity="1" transform="translate(0,71.4254498714653)"><line stroke="#000" x2="-6"></line><text fill="#000" x="-9" dy="0.32em">300</text></g><g class="tick" opacity="1" transform="translate(0,31.579691516709488)"><line stroke="#000" x2="-6"></line><text fill="#000" x="-9" dy="0.32em">350</text></g></g></g></svg>