<svg xmlns="http://www.w3.org/2000/svg" width="600" height="350"><defs><style type="text/css"><![CDATA[ 
.bar rect {
  fill-opacity: 0;
  stroke:       black;
  stroke-width: 0.5;
}

.highlight rect {
  fill:       red;
  fill-opacity: 1;
}
.axis path,
.axis line {
  fill: none;
  stroke: #000;
  shape-rendering: crispEdges;
}
 ]]></style></defs><g transform="translate(50,10)"><g class="bar" transform="translate(0,310)"><rect x="1" width="11.999999999999996" height="0"></rect></g><g class="bar" transform="translate(12.999999999999996,310)"><rect x="1" width="11.999999999999996" height="0"></rect></g><g class="bar" transform="translate(25.999999999999993,310)"><rect x="1" width="11.999999999999996" height="0"></rect></g><g class="bar" transform="translate(39.00000000000001,310)"><rect x="1" width="11.999999999999996" height="0"></rect></g><g class="bar" transform="translate(52,310)"><rect x="1" width="11.999999999999996" height="0"></rect></g><g class="bar" transform="translate(65,310)"><rect x="1" width="11.999999999999996" height="0"></rect></g><g class="bar" transform="translate(78.00000000000001,310)"><rect x="1" width="11.999999999999996" height="0"></rect></g><g class="bar" transform="translate(91.00000000000001,310)"><rect x="1" width="11.999999999999996" height="0"></rect></g><g class="bar" transform="translate(104,310)"><rect x="1" width="11.999999999999996" height="0"></rect></g><g class="bar" transform="translate(117,310)"><rect x="1" width="11.999999999999996" height="0"></rect></g><g class="bar" transform="translate(130,310)"><rect x="1" width="11.999999999999996" height="0"></rect></g><g class="bar" transform="translate(143,310)"><rect x="1" width="11.999999999999996" height="0"></rect></g><g class="bar" transform="translate(156.00000000000003,308.268156424581)"><rect x="1" width="11.999999999999996" height="1.7318435754190205"></rect></g><g class="bar" transform="translate(169,304.804469273743)"><rect x="1" width="11.999999999999996" height="5.1955307262570045"></rect></g><g class="bar" transform="translate(182.00000000000003,287.4860335195531)"><rect x="1" width="11.999999999999996" height="22.513966480446925"></rect></g><g class="bar" transform="translate(195,268.43575418994413)"><rect x="1" width="11.999999999999996" height="41.564245810055866"></rect></g><g class="bar" transform="translate(208,226.87150837988827)"><rect x="1" width="11.999999999999996" height="83.12849162011173"></rect></g><g class="bar" transform="translate(221.00000000000003,169.72067039106145)"><rect x="1" width="11.999999999999996" height="140.27932960893855"></rect></g><g class="bar" transform="translate(234,126.42458100558659)"><rect x="1" width="11.999999999999996" height="183.5754189944134"></rect></g><g class="bar" transform="translate(247.00000000000003,71.00558659217879)"><rect x="1" width="11.999999999999996" height="238.9944134078212"></rect></g><g class="bar" transform="translate(260,57.150837988826794)"><rect x="1" width="11.999999999999996" height="252.8491620111732"></rect></g><g class="bar" transform="translate(273,0)"><rect x="1" width="11.999999999999996" height="310"></rect></g><g class="bar" transform="translate(286,81.39664804469274)"><rect x="1" width="11.999999999999996" height="228.60335195530726"></rect></g><g class="bar" transform="translate(299.00000000000006,84.86033519553072)"><rect x="1" width="11.999999999999996" height="225.13966480446928"></rect></g><g class="bar" transform="translate(312.00000000000006,150.6703910614525)"><rect x="1" width="11.999999999999996" height="159.3296089385475"></rect></g><g class="bar" transform="translate(325,157.5977653631285)"><rect x="1" width="11.999999999999996" height="152.4022346368715"></rect></g><g class="bar" transform="translate(338,218.21229050279328)"><rect x="1" width="11.999999999999996" height="91.78770949720672"></rect></g><g class="bar" transform="translate(351,209.55307262569832)"><rect x="1" width="11.999999999999996" height="100.44692737430168"></rect></g><g class="bar" transform="translate(364.00000000000006,263.24022346368713)"><rect x="1" width="11.999999999999996" height="46.75977653631287"></rect></g><g class="bar" transform="translate(377.00000000000006,280.5586592178771)"><rect x="1" width="11.999999999999996" height="29.441340782122893"></rect></g><g class="bar" transform="translate(390,301.340782122905)"><rect x="1" width="11.999999999999996" height="8.659217877094989"></rect></g><g class="bar" transform="translate(403,308.268156424581)"><rect x="1" width="11.999999999999996" height="1.7318435754190205"></rect></g><g class="bar" transform="translate(416,310)"><rect x="1" width="11.999999999999996" height="0"></rect></g><g class="bar" transform="translate(429.00000000000006,310)"><rect x="1" width="11.999999999999996" height="0"></rect></g><g class="bar" transform="translate(442.00000000000006,310)"><rect x="1" width="11.999999999999996" height="0"></rect></g><g class="bar" transform="translate(455,310)"><rect x="1" width="11.999999999999996" height="0"></rect></g><g class="bar" transform="translate(468,310)"><rect x="1" width="11.999999999999996" height="0"></rect></g><g class="bar" transform="translate(481,310)"><rect x="1" width="11.999999999999996" height="0"></rect></g><g class="bar" transform="translate(494.00000000000006,310)"><rect x="1" width="11.999999999999996" height="0"></rect></g><g class="bar" transform="translate(507.00000000000006,310)"><rect x="1" width="11.999999999999996" height="0"></rect></g><g class="axis axis--x" transform="translate(0,310)" fill="none" font-size="10" font-family="sans-serif" text-anchor="middle"><path class="domain" stroke="#000" d="M0.5,6V0.5H520.5V6"></path><g class="tick" opacity="1" transform="translate(0,0)"><line stroke="#000" y2="6" x1="0.5" x2="0.5"></line><text fill="#000" y="9" x="0.5" dy="0.71em">0.01</text></g><g class="tick" opacity="1" transform="translate(130,0)"><line stroke="#000" y2="6" x1="0.5" x2="0.5"></line><text fill="#000" y="9" x="0.5" dy="0.71em">1</text></g><g class="tick" opacity="1" transform="translate(260,0)"><line stroke="#000" y2="6" x1="0.5" x2="0.5"></line><text fill="#000" y="9" x="0.5" dy="0.71em">100</text></g><g class="tick" opacity="1" transform="translate(390,0)"><line stroke="#000" y2="6" x1="0.5" x2="0.5"></line><text fill="#000" y="9" x="0.5" dy="0.71em">10000</text></g><g class="tick" opacity="1" transform="translate(520,0)"><line stroke="#000" y2="6" x1="0.5" x2="0.5"></line><text fill="#000" y="9" x="0.5" dy="0.71em"></text></g></g><g class="axis axis--y" fill="none" font-size="10" font-family="sans-serif" text-anchor="end"><path class="domain" stroke="#000" d="M-6,310.5H0.5V0.5H-6"></path><g class="tick" opacity="1" transform="translate(0,310)"><line stroke="#000" x2="-6" y1="0.5" y2="0.5"></line><text fill="#000" x="-9" y="0.5" dy="0.32em">0</text></g><g class="tick" opacity="1" transform="translate(0,275.3631284916201)"><line stroke="#000" x2="-6" y1="0.5" y2="0.5"></line><text fill="#000" x="-9" y="0.5" dy="0.32em">20</text></g><g class="tick" opacity="1" transform="translate(0,240.72625698324023)"><line stroke="#000" x2="-6" y1="0.5" y2="0.5"></line><text fill="#000" x="-9" y="0.5" dy="0.32em">40</text></g><g class="tick" opacity="1" transform="translate(0,206.08938547486034)"><line stroke="#000" x2="-6" y1="0.5" y2="0.5"></line><text fill="#000" x="-9" y="0.5" dy="0.32em">60</text></g><g class="tick" opacity="1" transform="translate(0,171.45251396648047)"><line stroke="#000" x2="-6" y1="0.5" y2="0.5"></line><text fill="#000" x="-9" y="0.5" dy="0.32em">80</text></g><g class="tick" opacity="1" transform="translate(0,136.81564245810057)"><line stroke="#000" x2="-6" y1="0.5" y2="0.5"></line><text fill="#000" x="-9" y="0.5" dy="0.32em">100</text></g><g class="tick" opacity="1" transform="translate(0,102.17877094972067)"><line stroke="#000" x2="-6" y1="0.5" y2="0.5"></line><text fill="#000" x="-9" y="0.5" dy="0.32em">120</text></g><g class="tick" opacity="1" transform="translate(0,67.5418994413408)"><line stroke="#000" x2="-6" y1="0.5" y2="0.5"></line><text fill="#000" x="-9" y="0.5" dy="0.32em">140</text></g><g class="tick" opacity="1" transform="translate(0,32.905027932960934)"><line stroke="#000" x2="-6" y1="0.5" y2="0.5"></line><text fill="#000" x="-9" y="0.5" dy="0.32em">160</text></g></g></g></svg>