<svg xmlns="http://www.w3.org/2000/svg" width="600" height="350"><defs><style type="text/css"><![CDATA[ 
.bar rect {
  fill-opacity: 0;
  stroke:       black;
  stroke-width: 0.5;
}

.highlight rect {
  fill:       red;
  fill-opacity: 1;
}
.axis path,
.axis line {
  fill: none;
  stroke: #000;
  shape-rendering: crispEdges;
}
 ]]></style></defs><g transform="translate(50,10)"><g class="bar" transform="translate(0,310)"><rect x="1" width="31.5" height="0"></rect></g><g class="bar" transform="translate(32.5,310)"><rect x="1" width="31.5" height="0"></rect></g><g class="bar" transform="translate(65,310)"><rect x="1" width="31.5" height="0"></rect></g><g class="bar" transform="translate(97.5,290.8810572687225)"><rect x="1" width="31.5" height="19.118942731277514"></rect></g><g class="bar" transform="translate(130,232.15859030837004)"><rect x="1" width="31.5" height="77.84140969162996"></rect></g><g class="bar" transform="translate(162.5,65.55066079295153)"><rect x="1" width="31.5" height="244.44933920704847"></rect></g><g class="bar" transform="translate(195,0)"><rect x="1" width="31.5" height="310"></rect></g><g class="bar" transform="translate(227.5,107.88546255506608)"><rect x="1" width="31.5" height="202.11453744493392"></rect></g><g class="bar" transform="translate(260,122.90748898678413)"><rect x="1" width="31.5" height="187.09251101321587"></rect></g><g class="bar" transform="translate(292.5,105.15418502202641)"><rect x="1" width="31.5" height="204.8458149779736"></rect></g><g class="bar" transform="translate(325,158.41409691629954)"><rect x="1" width="31.5" height="151.58590308370046"></rect></g><g class="bar" transform="translate(357.5,208.94273127753303)"><rect x="1" width="31.5" height="101.05726872246697"></rect></g><g class="bar" transform="translate(390,292.2466960352423)"><rect x="1" width="31.5" height="17.75330396475772"></rect></g><g class="bar" transform="translate(422.5,308.63436123348015)"><rect x="1" width="31.5" height="1.3656387665198508"></rect></g><g class="bar" transform="translate(455,310)"><rect x="1" width="31.5" height="0"></rect></g><g class="bar" transform="translate(487.5,310)"><rect x="1" width="31.5" height="0"></rect></g><g class="axis axis--x" transform="translate(0,310)" fill="none" font-size="10" font-family="sans-serif" text-anchor="middle"><path class="domain" stroke="#000" d="M0.5,6V0.5H520.5V6"></path><g class="tick" opacity="1" transform="translate(0,0)"><line stroke="#000" y2="6" x1="0.5" x2="0.5"></line><text fill="#000" y="9" x="0.5" dy="0.71em">0.01</text></g><g class="tick" opacity="1" transform="translate(130,0)"><line stroke="#000" y2="6" x1="0.5" x2="0.5"></line><text fill="#000" y="9" x="0.5" dy="0.71em">1</text></g><g class="tick" opacity="1" transform="translate(260,0)"><line stroke="#000" y2="6" x1="0.5" x2="0.5"></line><text fill="#000" y="9" x="0.5" dy="0.71em">100</text></g><g class="tick" opacity="1" transform="translate(390,0)"><line stroke="#000" y2="6" x1="0.5" x2="0.5"></line><text fill="#000" y="9" x="0.5" dy="0.71em">10000</text></g><g class="tick" opacity="1" transform="translate(520,0)"><line stroke="#000" y2="6" x1="0.5" x2="0.5"></line><text fill="#000" y="9" x="0.5" dy="0.71em"></text></g></g><g class="axis axis--y" fill="none" font-size="10" font-family="sans-serif" text-anchor="end"><path class="domain" stroke="#000" d="M-6,310.5H0.5V0.5H-6"></path><g class="tick" opacity="1" transform="translate(0,310)"><line stroke="#000" x2="-6" y1="0.5" y2="0.5"></line><text fill="#000" x="-9" y="0.5" dy="0.32em">0</text></g><g class="tick" opacity="1" transform="translate(0,282.68722466960355)"><line stroke="#000" x2="-6" y1="0.5" y2="0.5"></line><text fill="#000" x="-9" y="0.5" dy="0.32em">20</text></g><g class="tick" opacity="1" transform="translate(0,255.37444933920705)"><line stroke="#000" x2="-6" y1="0.5" y2="0.5"></line><text fill="#000" x="-9" y="0.5" dy="0.32em">40</text></g><g class="tick" opacity="1" transform="translate(0,228.06167400881057)"><line stroke="#000" x2="-6" y1="0.5" y2="0.5"></line><text fill="#000" x="-9" y="0.5" dy="0.32em">60</text></g><g class="tick" opacity="1" transform="translate(0,200.7488986784141)"><line stroke="#000" x2="-6" y1="0.5" y2="0.5"></line><text fill="#000" x="-9" y="0.5" dy="0.32em">80</text></g><g class="tick" opacity="1" transform="translate(0,173.43612334801762)"><line stroke="#000" x2="-6" y1="0.5" y2="0.5"></line><text fill="#000" x="-9" y="0.5" dy="0.32em">100</text></g><g class="tick" opacity="1" transform="translate(0,146.12334801762114)"><line stroke="#000" x2="-6" y1="0.5" y2="0.5"></line><text fill="#000" x="-9" y="0.5" dy="0.32em">120</text></g><g class="tick" opacity="1" transform="translate(0,118.81057268722466)"><line stroke="#000" x2="-6" y1="0.5" y2="0.5"></line><text fill="#000" x="-9" y="0.5" dy="0.32em">140</text></g><g class="tick" opacity="1" transform="translate(0,91.49779735682819)"><line stroke="#000" x2="-6" y1="0.5" y2="0.5"></line><text fill="#000" x="-9" y="0.5" dy="0.32em">160</text></g><g class="tick" opacity="1" transform="translate(0,64.18502202643174)"><line stroke="#000" x2="-6" y1="0.5" y2="0.5"></line><text fill="#000" x="-9" y="0.5" dy="0.32em">180</text></g><g class="tick" opacity="1" transform="translate(0,36.87224669603523)"><line stroke="#000" x2="-6" y1="0.5" y2="0.5"></line><text fill="#000" x="-9" y="0.5" dy="0.32em">200</text></g><g class="tick" opacity="1" transform="translate(0,9.559471365638785)"><line stroke="#000" x2="-6" y1="0.5" y2="0.5"></line><text fill="#000" x="-9" y="0.5" dy="0.32em">220</text></g></g></g></svg>