<svg xmlns="http://www.w3.org/2000/svg" width="600" height="350"><defs><style type="text/css"><![CDATA[ 
.bar rect {
  fill-opacity: 0;
  stroke:       black;
  stroke-width: 0.5;
}

.highlight rect {
  fill:       red;
  fill-opacity: 1;
}
.axis path,
.axis line {
  fill: none;
  stroke: #000;
  shape-rendering: crispEdges;
}
 ]]></style></defs><g transform="translate(50,10)"><g class="bar" transform="translate(0,310)"><rect x="1" width="11.999999999999996" height="0"></rect></g><g class="bar" transform="translate(12.999999999999996,310)"><rect x="1" width="11.999999999999996" height="0"></rect></g><g class="bar" transform="translate(25.999999999999993,310)"><rect x="1" width="11.999999999999996" height="0"></rect></g><g class="bar" transform="translate(39.00000000000001,310)"><rect x="1" width="11.999999999999996" height="0"></rect></g><g class="bar" transform="translate(52,310)"><rect x="1" width="11.999999999999996" height="0"></rect></g><g class="bar" transform="translate(65,310)"><rect x="1" width="11.999999999999996" height="0"></rect></g><g class="bar" transform="translate(78.00000000000001,310)"><rect x="1" width="11.999999999999996" height="0"></rect></g><g class="bar" transform="translate(91.00000000000001,310)"><rect x="1" width="11.999999999999996" height="0"></rect></g><g class="bar" transform="translate(104,310)"><rect x="1" width="11.999999999999996" height="0"></rect></g><g class="bar" transform="translate(117,303.1111111111111)"><rect x="1" width="11.999999999999996" height="6.888888888888914"></rect></g><g class="bar" transform="translate(130,308.031746031746)"><rect x="1" width="11.999999999999996" height="1.9682539682539755"></rect></g><g class="bar" transform="translate(143,306.06349206349205)"><rect x="1" width="11.999999999999996" height="3.936507936507951"></rect></g><g class="bar" transform="translate(156.00000000000003,287.36507936507934)"><rect x="1" width="11.999999999999996" height="22.63492063492066"></rect></g><g class="bar" transform="translate(169,277.5238095238095)"><rect x="1" width="11.999999999999996" height="32.47619047619048"></rect></g><g class="bar" transform="translate(182.00000000000003,270.63492063492066)"><rect x="1" width="11.999999999999996" height="39.36507936507934"></rect></g><g class="bar" transform="translate(195,228.3174603174603)"><rect x="1" width="11.999999999999996" height="81.6825396825397"></rect></g><g class="bar" transform="translate(208,187.96825396825398)"><rect x="1" width="11.999999999999996" height="122.03174603174602"></rect></g><g class="bar" transform="translate(221.00000000000003,145.65079365079364)"><rect x="1" width="11.999999999999996" height="164.34920634920636"></rect></g><g class="bar" transform="translate(234,126.95238095238093)"><rect x="1" width="11.999999999999996" height="183.04761904761907"></rect></g><g class="bar" transform="translate(247.00000000000003,27.555555555555543)"><rect x="1" width="11.999999999999996" height="282.44444444444446"></rect></g><g class="bar" transform="translate(260,5.904761904761926)"><rect x="1" width="11.999999999999996" height="304.0952380952381"></rect></g><g class="bar" transform="translate(273,0)"><rect x="1" width="11.999999999999996" height="310"></rect></g><g class="bar" transform="translate(286,8.857142857142833)"><rect x="1" width="11.999999999999996" height="301.14285714285717"></rect></g><g class="bar" transform="translate(299.00000000000006,71.84126984126982)"><rect x="1" width="11.999999999999996" height="238.15873015873018"></rect></g><g class="bar" transform="translate(312.00000000000006,102.34920634920636)"><rect x="1" width="11.999999999999996" height="207.65079365079364"></rect></g><g class="bar" transform="translate(325,175.17460317460316)"><rect x="1" width="11.999999999999996" height="134.82539682539684"></rect></g><g class="bar" transform="translate(338,234.22222222222223)"><rect x="1" width="11.999999999999996" height="75.77777777777777"></rect></g><g class="bar" transform="translate(351,290.3174603174603)"><rect x="1" width="11.999999999999996" height="19.682539682539698"></rect></g><g class="bar" transform="translate(364.00000000000006,302.12698412698415)"><rect x="1" width="11.999999999999996" height="7.873015873015845"></rect></g><g class="bar" transform="translate(377.00000000000006,305.07936507936506)"><rect x="1" width="11.999999999999996" height="4.920634920634939"></rect></g><g class="bar" transform="translate(390,309.015873015873)"><rect x="1" width="11.999999999999996" height="0.9841269841269877"></rect></g><g class="bar" transform="translate(403,310)"><rect x="1" width="11.999999999999996" height="0"></rect></g><g class="bar" transform="translate(416,310)"><rect x="1" width="11.999999999999996" height="0"></rect></g><g class="bar" transform="translate(429.00000000000006,310)"><rect x="1" width="11.999999999999996" height="0"></rect></g><g class="bar" transform="translate(442.00000000000006,310)"><rect x="1" width="11.999999999999996" height="0"></rect></g><g class="bar" transform="translate(455,310)"><rect x="1" width="11.999999999999996" height="0"></rect></g><g class="bar" transform="translate(468,310)"><rect x="1" width="11.999999999999996" height="0"></rect></g><g class="bar" transform="translate(481,310)"><rect x="1" width="11.999999999999996" height="0"></rect></g><g class="bar" transform="translate(494.00000000000006,310)"><rect x="1" width="11.999999999999996" height="0"></rect></g><g class="bar" transform="translate(507.00000000000006,310)"><rect x="1" width="11.999999999999996" height="0"></rect></g><g class="axis axis--x" transform="translate(0,310)" fill="none" font-size="10" font-family="sans-serif" text-anchor="middle"><path class="domain" stroke="#000" d="M0.5,6V0.5H520.5V6"></path><g class="tick" opacity="1" transform="translate(0,0)"><line stroke="#000" y2="6" x1="0.5" x2="0.5"></line><text fill="#000" y="9" x="0.5" dy="0.71em">0.01</text></g><g class="tick" opacity="1" transform="translate(130,0)"><line stroke="#000" y2="6" x1="0.5" x2="0.5"></line><text fill="#000" y="9" x="0.5" dy="0.71em">1</text></g><g class="tick" opacity="1" transform="translate(260,0)"><line stroke="#000" y2="6" x1="0.5" x2="0.5"></line><text fill="#000" y="9" x="0.5" dy="0.71em">100</text></g><g class="tick" opacity="1" transform="translate(390,0)"><line stroke="#000" y2="6" x1="0.5" x2="0.5"></line><text fill="#000" y="9" x="0.5" dy="0.71em">10000</text></g><g class="tick" opacity="1" transform="translate(520,0)"><line stroke="#000" y2="6" x1="0.5" x2="0.5"></line><text fill="#000" y="9" x="0.5" dy="0.71em"></text></g></g><g class="axis axis--y" fill="none" font-size="10" font-family="sans-serif" text-anchor="end"><path class="domain" stroke="#000" d="M-6,310.5H0.5V0.5H-6"></path><g class="tick" opacity="1" transform="translate(0,310)"><line stroke="#000" x2="-6" y1="0.5" y2="0.5"></line><text fill="#000" x="-9" y="0.5" dy="0.32em">0</text></g><g class="tick" opacity="1" transform="translate(0,290.3174603174603)"><line stroke="#000" x2="-6" y1="0.5" y2="0.5"></line><text fill="#000" x="-9" y="0.5" dy="0.32em">20</text></g><g class="tick" opacity="1" transform="translate(0,270.63492063492066)"><line stroke="#000" x2="-6" y1="0.5" y2="0.5"></line><text fill="#000" x="-9" y="0.5" dy="0.32em">40</text></g><g class="tick" opacity="1" transform="translate(0,250.95238095238096)"><line stroke="#000" x2="-6" y1="0.5" y2="0.5"></line><text fill="#000" x="-9" y="0.5" dy="0.32em">60</text></g><g class="tick" opacity="1" transform="translate(0,231.26984126984127)"><line stroke="#000" x2="-6" y1="0.5" y2="0.5"></line><text fill="#000" x="-9" y="0.5" dy="0.32em">80</text></g><g class="tick" opacity="1" transform="translate(0,211.5873015873016)"><line stroke="#000" x2="-6" y1="0.5" y2="0.5"></line><text fill="#000" x="-9" y="0.5" dy="0.32em">100</text></g><g class="tick" opacity="1" transform="translate(0,191.90476190476193)"><line stroke="#000" x2="-6" y1="0.5" y2="0.5"></line><text fill="#000" x="-9" y="0.5" dy="0.32em">120</text></g><g class="tick" opacity="1" transform="translate(0,172.22222222222223)"><line stroke="#000" x2="-6" y1="0.5" y2="0.5"></line><text fill="#000" x="-9" y="0.5" dy="0.32em">140</text></g><g class="tick" opacity="1" transform="translate(0,152.53968253968256)"><line stroke="#000" x2="-6" y1="0.5" y2="0.5"></line><text fill="#000" x="-9" y="0.5" dy="0.32em">160</text></g><g class="tick" opacity="1" transform="translate(0,132.85714285714286)"><line stroke="#000" x2="-6" y1="0.5" y2="0.5"></line><text fill="#000" x="-9" y="0.5" dy="0.32em">180</text></g><g class="tick" opacity="1" transform="translate(0,113.17460317460319)"><line stroke="#000" x2="-6" y1="0.5" y2="0.5"></line><text fill="#000" x="-9" y="0.5" dy="0.32em">200</text></g><g class="tick" opacity="1" transform="translate(0,93.4920634920635)"><line stroke="#000" x2="-6" y1="0.5" y2="0.5"></line><text fill="#000" x="-9" y="0.5" dy="0.32em">220</text></g><g class="tick" opacity="1" transform="translate(0,73.80952380952382)"><line stroke="#000" x2="-6" y1="0.5" y2="0.5"></line><text fill="#000" x="-9" y="0.5" dy="0.32em">240</text></g><g class="tick" opacity="1" transform="translate(0,54.126984126984155)"><line stroke="#000" x2="-6" y1="0.5" y2="0.5"></line><text fill="#000" x="-9" y="0.5" dy="0.32em">260</text></g><g class="tick" opacity="1" transform="translate(0,34.44444444444446)"><line stroke="#000" x2="-6" y1="0.5" y2="0.5"></line><text fill="#000" x="-9" y="0.5" dy="0.32em">280</text></g><g class="tick" opacity="1" transform="translate(0,14.76190476190476)"><line stroke="#000" x2="-6" y1="0.5" y2="0.5"></line><text fill="#000" x="-9" y="0.5" dy="0.32em">300</text></g></g></g></svg>