<svg xmlns="http://www.w3.org/2000/svg" width="600" height="350"><defs><style type="text/css"><![CDATA[ 
.bar rect {
  fill-opacity: 0;
  stroke:       black;
  stroke-width: 0.5;
}

.highlight rect {
  fill:       red;
  fill-opacity: 1;
}
.axis path,
.axis line {
  fill: none;
  stroke: #000;
  shape-rendering: crispEdges;
}
path {
    stroke: red;
    fill: none;
}

line {
    stroke: red;
}

path.marker {
    fill: red;
}
 ]]></style></defs><g transform="translate(50,10)"><g class="bar" transform="translate(0,256.6393442622951)"><rect x="1" width="11.999999999999996" height="53.36065573770492"></rect></g><g class="bar" transform="translate(12.999999999999996,253.59016393442622)"><rect x="1" width="11.999999999999996" height="56.409836065573785"></rect></g><g class="bar" transform="translate(25.999999999999993,245.45901639344262)"><rect x="1" width="11.999999999999996" height="64.54098360655738"></rect></g><g class="bar" transform="translate(39.00000000000001,221.57377049180326)"><rect x="1" width="11.999999999999996" height="88.42622950819674"></rect></g><g class="bar" transform="translate(52,189.04918032786884)"><rect x="1" width="11.999999999999996" height="120.95081967213116"></rect></g><g class="bar" transform="translate(65,194.1311475409836)"><rect x="1" width="11.999999999999996" height="115.86885245901641"></rect></g><g class="bar" transform="translate(78.00000000000001,184.47540983606558)"><rect x="1" width="11.999999999999996" height="125.52459016393442"></rect></g><g class="bar" transform="translate(91.00000000000001,175.8360655737705)"><rect x="1" width="11.999999999999996" height="134.1639344262295"></rect></g><g class="bar" transform="translate(104,111.80327868852459)"><rect x="1" width="11.999999999999996" height="198.19672131147541"></rect></g><g class="bar" transform="translate(117,108.75409836065572)"><rect x="1" width="11.999999999999996" height="201.24590163934428"></rect></g><g class="bar" transform="translate(130,49.29508196721309)"><rect x="1" width="11.999999999999996" height="260.7049180327869"></rect></g><g class="bar" transform="translate(143,0)"><rect x="1" width="11.999999999999996" height="310"></rect></g><g class="bar" transform="translate(156.00000000000003,16.770491803278674)"><rect x="1" width="11.999999999999996" height="293.2295081967213"></rect></g><g class="bar" transform="translate(169,46.245901639344254)"><rect x="1" width="11.999999999999996" height="263.75409836065575"></rect></g><g class="bar" transform="translate(182.00000000000003,26.42622950819674)"><rect x="1" width="11.999999999999996" height="283.57377049180326"></rect></g><g class="bar" transform="translate(195,4.065573770491767)"><rect x="1" width="11.999999999999996" height="305.93442622950823"></rect></g><g class="bar" transform="translate(208,4.573770491803316)"><rect x="1" width="11.999999999999996" height="305.4262295081967"></rect></g><g class="bar" transform="translate(221.00000000000003,10.672131147540995)"><rect x="1" width="11.999999999999996" height="299.327868852459"></rect></g><g class="bar" transform="translate(234,23.885245901639337)"><rect x="1" width="11.999999999999996" height="286.11475409836066"></rect></g><g class="bar" transform="translate(247.00000000000003,53.86885245901635)"><rect x="1" width="11.999999999999996" height="256.13114754098365"></rect></g><g class="bar" transform="translate(260,90.45901639344262)"><rect x="1" width="11.999999999999996" height="219.54098360655738"></rect></g><g class="bar" transform="translate(273,130.60655737704917)"><rect x="1" width="11.999999999999996" height="179.39344262295083"></rect></g><g class="bar" transform="translate(286,175.32786885245903)"><rect x="1" width="11.999999999999996" height="134.67213114754097"></rect></g><g class="bar" transform="translate(299.00000000000006,205.81967213114754)"><rect x="1" width="11.999999999999996" height="104.18032786885246"></rect></g><g class="bar" transform="translate(312.00000000000006,227.1639344262295)"><rect x="1" width="11.999999999999996" height="82.8360655737705"></rect></g><g class="bar" transform="translate(325,259.6885245901639)"><rect x="1" width="11.999999999999996" height="50.31147540983608"></rect></g><g class="bar" transform="translate(338,287.1311475409836)"><rect x="1" width="11.999999999999996" height="22.86885245901641"></rect></g><g class="bar" transform="translate(351,297.2950819672131)"><rect x="1" width="11.999999999999996" height="12.704918032786907"></rect></g><g class="bar" transform="translate(364.00000000000006,305.9344262295082)"><rect x="1" width="11.999999999999996" height="4.065573770491824"></rect></g><g class="bar" transform="translate(377.00000000000006,307.4590163934426)"><rect x="1" width="11.999999999999996" height="2.540983606557404"></rect></g><g class="bar" transform="translate(390,306.95081967213116)"><rect x="1" width="11.999999999999996" height="3.0491803278688394"></rect></g><g class="bar" transform="translate(403,310)"><rect x="1" width="11.999999999999996" height="0"></rect></g><g class="bar" transform="translate(416,310)"><rect x="1" width="11.999999999999996" height="0"></rect></g><g class="bar" transform="translate(429.00000000000006,310)"><rect x="1" width="11.999999999999996" height="0"></rect></g><g class="bar" transform="translate(442.00000000000006,310)"><rect x="1" width="11.999999999999996" height="0"></rect></g><g class="bar" transform="translate(455,310)"><rect x="1" width="11.999999999999996" height="0"></rect></g><g class="bar" transform="translate(468,310)"><rect x="1" width="11.999999999999996" height="0"></rect></g><g class="bar" transform="translate(481,310)"><rect x="1" width="11.999999999999996" height="0"></rect></g><g class="bar" transform="translate(494.00000000000006,310)"><rect x="1" width="11.999999999999996" height="0"></rect></g><g class="bar" transform="translate(507.00000000000006,310)"><rect x="1" width="11.999999999999996" height="0"></rect></g><g class="axis axis--x" transform="translate(0,310)" fill="none" font-size="10" font-family="sans-serif" text-anchor="middle"><path class="domain" stroke="#000" d="M0.5,6V0.5H520.5V6"></path><g class="tick" opacity="1" transform="translate(0.5,0)"><line stroke="#000" y2="6"></line><text fill="#000" y="9" dy="0.71em">0.01</text></g><g class="tick" opacity="1" transform="translate(130.5,0)"><line stroke="#000" y2="6"></line><text fill="#000" y="9" dy="0.71em">1</text></g><g class="tick" opacity="1" transform="translate(260.5,0)"><line stroke="#000" y2="6"></line><text fill="#000" y="9" dy="0.71em">100</text></g><g class="tick" opacity="1" transform="translate(390.5,0)"><line stroke="#000" y2="6"></line><text fill="#000" y="9" dy="0.71em">10000</text></g><g class="tick" opacity="1" transform="translate(520.5,0)"><line stroke="#000" y2="6"></line><text fill="#000" y="9" dy="0.71em"></text></g></g><g class="axis axis--y" fill="none" font-size="10" font-family="sans-serif" text-anchor="end"><path class="domain" stroke="#000" d="M-6,310.5H0.5V0.5H-6"></path><g class="tick" opacity="1" transform="translate(0,310.5)"><line stroke="#000" x2="-6"></line><text fill="#000" x="-9" dy="0.32em">0</text></g><g class="tick" opacity="1" transform="translate(0,285.09016393442624)"><line stroke="#000" x2="-6"></line><text fill="#000" x="-9" dy="0.32em">50</text></g><g class="tick" opacity="1" transform="translate(0,259.6803278688525)"><line stroke="#000" x2="-6"></line><text fill="#000" x="-9" dy="0.32em">100</text></g><g class="tick" opacity="1" transform="translate(0,234.27049180327867)"><line stroke="#000" x2="-6"></line><text fill="#000" x="-9" dy="0.32em">150</text></g><g class="tick" opacity="1" transform="translate(0,208.86065573770492)"><line stroke="#000" x2="-6"></line><text fill="#000" x="-9" dy="0.32em">200</text></g><g class="tick" opacity="1" transform="translate(0,183.45081967213116)"><line stroke="#000" x2="-6"></line><text fill="#000" x="-9" dy="0.32em">250</text></g><g class="tick" opacity="1" transform="translate(0,158.04098360655738)"><line stroke="#000" x2="-6"></line><text fill="#000" x="-9" dy="0.32em">300</text></g><g class="tick" opacity="1" transform="translate(0,132.63114754098362)"><line stroke="#000" x2="-6"></line><text fill="#000" x="-9" dy="0.32em">350</text></g><g class="tick" opacity="1" transform="translate(0,107.22131147540986)"><line stroke="#000" x2="-6"></line><text fill="#000" x="-9" dy="0.32em">400</text></g><g class="tick" opacity="1" transform="translate(0,81.81147540983605)"><line stroke="#000" x2="-6"></line><text fill="#000" x="-9" dy="0.32em">450</text></g><g class="tick" opacity="1" transform="translate(0,56.40163934426229)"><line stroke="#000" x2="-6"></line><text fill="#000" x="-9" dy="0.32em">500</text></g><g class="tick" opacity="1" transform="translate(0,30.991803278688508)"><line stroke="#000" x2="-6"></line><text fill="#000" x="-9" dy="0.32em">550</text></g><g class="tick" opacity="1" transform="translate(0,5.581967213114751)"><line stroke="#000" x2="-6"></line><text fill="#000" x="-9" dy="0.32em">600</text></g></g></g></svg>