<svg xmlns="http://www.w3.org/2000/svg" width="280" height="160"><defs><style type="text/css"><![CDATA[ 
.bar rect {
  fill-opacity: 0;
  stroke:       black;
  stroke-width: 0.5;
}

.highlight rect {
  fill:       red;
  fill-opacity: 1;
}
.axis path,
.axis line {
  fill: none;
  stroke: #000;
  shape-rendering: crispEdges;
}
path {
    stroke: red;
    fill: none;
}

line {
    stroke: red;
}

path.marker {
    fill: red;
}
 ]]></style></defs><g transform="translate(50,10)"><g class="bar" transform="translate(0,98.26834104428289)"><rect x="1" width="11.5" height="21.73165895571711"></rect></g><g class="bar" transform="translate(12.5,81.85062789160608)"><rect x="1" width="11.5" height="38.14937210839392"></rect></g><g class="bar" transform="translate(25,72.72967614011897)"><rect x="1" width="11.5" height="47.27032385988103"></rect></g><g class="bar" transform="translate(37.5,46.318572372769324)"><rect x="1" width="11.5" height="73.68142762723068"></rect></g><g class="bar" transform="translate(50,7.217448777263712)"><rect x="1" width="11.5" height="112.78255122273629"></rect></g><g class="bar" transform="translate(62.5,12.531394580304024)"><rect x="1" width="11.5" height="107.46860541969598"></rect></g><g class="bar" transform="translate(75,0)"><rect x="1" width="11.5" height="120"></rect></g><g class="bar" transform="translate(87.5,13.245208195637815)"><rect x="1" width="11.5" height="106.75479180436218"></rect></g><g class="bar" transform="translate(100,46.08063450099141)"><rect x="1" width="11.5" height="73.91936549900859"></rect></g><g class="bar" transform="translate(112.5,81.4540647719762)"><rect x="1" width="11.5" height="38.545935228023794"></rect></g><g class="bar" transform="translate(125,107.94448116325182)"><rect x="1" width="11.5" height="12.055518836748178"></rect></g><g class="bar" transform="translate(137.5,117.62062128222075)"><rect x="1" width="11.5" height="2.3793787177792467"></rect></g><g class="bar" transform="translate(150,119.52412425644415)"><rect x="1" width="11.5" height="0.4758757435558465"></rect></g><g class="bar" transform="translate(162.5,120)"><rect x="1" width="11.5" height="0"></rect></g><g class="bar" transform="translate(175,120)"><rect x="1" width="11.5" height="0"></rect></g><g class="bar" transform="translate(187.5,120)"><rect x="1" width="11.5" height="0"></rect></g></g></svg>