<svg xmlns="http://www.w3.org/2000/svg" width="280" height="160"><defs><style type="text/css"><![CDATA[ 
.bar rect {
  fill-opacity: 0;
  stroke:       black;
  stroke-width: 0.5;
}

.highlight rect {
  fill:       red;
  fill-opacity: 1;
}
.axis path,
.axis line {
  fill: none;
  stroke: #000;
  shape-rendering: crispEdges;
}
 ]]></style></defs><g transform="translate(50,10)"><g class="bar" transform="translate(0,103.54066985645933)"><rect x="1" width="11.5" height="16.45933014354067"></rect></g><g class="bar" transform="translate(12.5,108.13397129186603)"><rect x="1" width="11.5" height="11.866028708133967"></rect></g><g class="bar" transform="translate(25,97.99043062200957)"><rect x="1" width="11.5" height="22.00956937799043"></rect></g><g class="bar" transform="translate(37.5,82.87081339712918)"><rect x="1" width="11.5" height="37.12918660287082"></rect></g><g class="bar" transform="translate(50,56.74641148325359)"><rect x="1" width="11.5" height="63.25358851674641"></rect></g><g class="bar" transform="translate(62.5,41.72248803827752)"><rect x="1" width="11.5" height="78.27751196172248"></rect></g><g class="bar" transform="translate(75,20.287081339712927)"><rect x="1" width="11.5" height="99.71291866028707"></rect></g><g class="bar" transform="translate(87.5,0)"><rect x="1" width="11.5" height="120"></rect></g><g class="bar" transform="translate(100,8.516746411483254)"><rect x="1" width="11.5" height="111.48325358851675"></rect></g><g class="bar" transform="translate(112.5,60.95693779904306)"><rect x="1" width="11.5" height="59.04306220095694"></rect></g><g class="bar" transform="translate(125,108.03827751196172)"><rect x="1" width="11.5" height="11.961722488038276"></rect></g><g class="bar" transform="translate(137.5,117.99043062200957)"><rect x="1" width="11.5" height="2.009569377990431"></rect></g><g class="bar" transform="translate(150,119.61722488038278)"><rect x="1" width="11.5" height="0.38277511961722155"></rect></g><g class="bar" transform="translate(162.5,120)"><rect x="1" width="11.5" height="0"></rect></g><g class="bar" transform="translate(175,120)"><rect x="1" width="11.5" height="0"></rect></g><g class="bar" transform="translate(187.5,120)"><rect x="1" width="11.5" height="0"></rect></g></g></svg>