<svg xmlns="http://www.w3.org/2000/svg" width="280" height="160"><defs><style type="text/css"><![CDATA[ 
.bar rect {
  fill-opacity: 0;
  stroke:       black;
  stroke-width: 0.5;
}

.highlight rect {
  fill:       red;
  fill-opacity: 1;
}
.axis path,
.axis line {
  fill: none;
  stroke: #000;
  shape-rendering: crispEdges;
}
path {
    stroke: red;
    fill: none;
}

line {
    stroke: red;
}

path.marker {
    fill: red;
}
 ]]></style></defs><g transform="translate(50,10)"><g class="bar" transform="translate(0,120)"><rect x="1" width="11.5" height="0"></rect></g><g class="bar" transform="translate(12.5,119.80077476480353)"><rect x="1" width="11.5" height="0.19922523519646518"></rect></g><g class="bar" transform="translate(25,119.13669064748201)"><rect x="1" width="11.5" height="0.8633093525179873"></rect></g><g class="bar" transform="translate(37.5,119.07028223574986)"><rect x="1" width="11.5" height="0.9297177642501424"></rect></g><g class="bar" transform="translate(50,109.3082457111234)"><rect x="1" width="11.5" height="10.691754288876595"></rect></g><g class="bar" transform="translate(62.5,56.24792473713337)"><rect x="1" width="11.5" height="63.75207526286663"></rect></g><g class="bar" transform="translate(75,0)"><rect x="1" width="11.5" height="120"></rect></g><g class="bar" transform="translate(87.5,16.53569452130604)"><rect x="1" width="11.5" height="103.46430547869396"></rect></g><g class="bar" transform="translate(100,55.7830658550083)"><rect x="1" width="11.5" height="64.2169341449917"></rect></g><g class="bar" transform="translate(112.5,91.51079136690647)"><rect x="1" width="11.5" height="28.489208633093526"></rect></g><g class="bar" transform="translate(125,108.44493635860542)"><rect x="1" width="11.5" height="11.555063641394582"></rect></g><g class="bar" transform="translate(137.5,117.4764803541782)"><rect x="1" width="11.5" height="2.523519645821807"></rect></g><g class="bar" transform="translate(150,120)"><rect x="1" width="11.5" height="0"></rect></g><g class="bar" transform="translate(162.5,120)"><rect x="1" width="11.5" height="0"></rect></g><g class="bar" transform="translate(175,120)"><rect x="1" width="11.5" height="0"></rect></g><g class="bar" transform="translate(187.5,120)"><rect x="1" width="11.5" height="0"></rect></g></g></svg>