<svg xmlns="http://www.w3.org/2000/svg" width="600" height="350"><defs><style type="text/css"><![CDATA[ 
.bar rect {
  fill-opacity: 0;
  stroke:       black;
  stroke-width: 0.5;
}

.highlight rect {
  fill:       red;
  fill-opacity: 1;
}
.axis path,
.axis line {
  fill: none;
  stroke: #000;
  shape-rendering: crispEdges;
}
 ]]></style></defs><g transform="translate(50,10)"><g class="bar" transform="translate(0,310)"><rect x="1" width="5.500000000000005" height="0"></rect></g><g class="bar" transform="translate(6.500000000000005,310)"><rect x="1" width="5.500000000000005" height="0"></rect></g><g class="bar" transform="translate(12.999999999999996,310)"><rect x="1" width="5.500000000000005" height="0"></rect></g><g class="bar" transform="translate(19.500000000000004,310)"><rect x="1" width="5.500000000000005" height="0"></rect></g><g class="bar" transform="translate(25.999999999999993,310)"><rect x="1" width="5.500000000000005" height="0"></rect></g><g class="bar" transform="translate(32.5,310)"><rect x="1" width="5.500000000000005" height="0"></rect></g><g class="bar" transform="translate(39.00000000000001,310)"><rect x="1" width="5.500000000000005" height="0"></rect></g><g class="bar" transform="translate(45.500000000000014,310)"><rect x="1" width="5.500000000000005" height="0"></rect></g><g class="bar" transform="translate(52,310)"><rect x="1" width="5.500000000000005" height="0"></rect></g><g class="bar" transform="translate(58.49999999999999,310)"><rect x="1" width="5.500000000000005" height="0"></rect></g><g class="bar" transform="translate(65,310)"><rect x="1" width="5.500000000000005" height="0"></rect></g><g class="bar" transform="translate(71.5,310)"><rect x="1" width="5.500000000000005" height="0"></rect></g><g class="bar" transform="translate(78.00000000000001,310)"><rect x="1" width="5.500000000000005" height="0"></rect></g><g class="bar" transform="translate(84.5,310)"><rect x="1" width="5.500000000000005" height="0"></rect></g><g class="bar" transform="translate(91.00000000000001,299.927797833935)"><rect x="1" width="5.500000000000005" height="10.072202166064983"></rect></g><g class="bar" transform="translate(97.5,306.6425992779783)"><rect x="1" width="5.500000000000005" height="3.35740072202168"></rect></g><g class="bar" transform="translate(104,307.7617328519856)"><rect x="1" width="5.500000000000005" height="2.2382671480144154"></rect></g><g class="bar" transform="translate(110.50000000000001,307.7617328519856)"><rect x="1" width="5.500000000000005" height="2.2382671480144154"></rect></g><g class="bar" transform="translate(117,307.7617328519856)"><rect x="1" width="5.500000000000005" height="2.2382671480144154"></rect></g><g class="bar" transform="translate(123.50000000000001,303.2851985559567)"><rect x="1" width="5.500000000000005" height="6.714801444043303"></rect></g><g class="bar" transform="translate(130,298.8086642599278)"><rect x="1" width="5.500000000000005" height="11.19133574007219"></rect></g><g class="bar" transform="translate(136.5,294.3321299638989)"><rect x="1" width="5.500000000000005" height="15.667870036101078"></rect></g><g class="bar" transform="translate(143,299.927797833935)"><rect x="1" width="5.500000000000005" height="10.072202166064983"></rect></g><g class="bar" transform="translate(149.50000000000003,295.45126353790613)"><rect x="1" width="5.500000000000005" height="14.54873646209387"></rect></g><g class="bar" transform="translate(156.00000000000003,298.8086642599278)"><rect x="1" width="5.500000000000005" height="11.19133574007219"></rect></g><g class="bar" transform="translate(162.5,290.97472924187724)"><rect x="1" width="5.500000000000005" height="19.02527075812276"></rect></g><g class="bar" transform="translate(169,276.42599277978337)"><rect x="1" width="5.500000000000005" height="33.57400722021663"></rect></g><g class="bar" transform="translate(175.5,269.71119133574007)"><rect x="1" width="5.500000000000005" height="40.28880866425993"></rect></g><g class="bar" transform="translate(182.00000000000003,237.2563176895307)"><rect x="1" width="5.500000000000005" height="72.7436823104693"></rect></g><g class="bar" transform="translate(188.50000000000003,230.54151624548737)"><rect x="1" width="5.500000000000005" height="79.45848375451263"></rect></g><g class="bar" transform="translate(195,201.44404332129966)"><rect x="1" width="5.500000000000005" height="108.55595667870034"></rect></g><g class="bar" transform="translate(201.5,198.08664259927798)"><rect x="1" width="5.500000000000005" height="111.91335740072202"></rect></g><g class="bar" transform="translate(208,151.08303249097474)"><rect x="1" width="5.500000000000005" height="158.91696750902526"></rect></g><g class="bar" transform="translate(214.50000000000003,157.79783393501805)"><rect x="1" width="5.500000000000005" height="152.20216606498195"></rect></g><g class="bar" transform="translate(221.00000000000003,135.41516245487364)"><rect x="1" width="5.500000000000005" height="174.58483754512636"></rect></g><g class="bar" transform="translate(227.5,61.552346570397134)"><rect x="1" width="5.500000000000005" height="248.44765342960287"></rect></g><g class="bar" transform="translate(234,117.50902527075812)"><rect x="1" width="5.500000000000005" height="192.49097472924188"></rect></g><g class="bar" transform="translate(240.5,47.003610108303235)"><rect x="1" width="5.500000000000005" height="262.99638989169677"></rect></g><g class="bar" transform="translate(247.00000000000003,27.978339350180477)"><rect x="1" width="5.500000000000005" height="282.0216606498195"></rect></g><g class="bar" transform="translate(253.50000000000003,61.552346570397134)"><rect x="1" width="5.500000000000005" height="248.44765342960287"></rect></g><g class="bar" transform="translate(260,24.620938628158854)"><rect x="1" width="5.500000000000005" height="285.37906137184115"></rect></g><g class="bar" transform="translate(266.50000000000006,0)"><rect x="1" width="5.500000000000005" height="310"></rect></g><g class="bar" transform="translate(273,36.93140794223825)"><rect x="1" width="5.500000000000005" height="273.06859205776175"></rect></g><g class="bar" transform="translate(279.5,20.144404332129966)"><rect x="1" width="5.500000000000005" height="289.85559566787003"></rect></g><g class="bar" transform="translate(286,43.64620938628161)"><rect x="1" width="5.500000000000005" height="266.3537906137184"></rect></g><g class="bar" transform="translate(292.5,53.718411552346595)"><rect x="1" width="5.500000000000005" height="256.2815884476534"></rect></g><g class="bar" transform="translate(299.00000000000006,128.70036101083033)"><rect x="1" width="5.500000000000005" height="181.29963898916967"></rect></g><g class="bar" transform="translate(305.5,155.55956678700363)"><rect x="1" width="5.500000000000005" height="154.44043321299637"></rect></g><g class="bar" transform="translate(312.00000000000006,209.27797833935017)"><rect x="1" width="5.500000000000005" height="100.72202166064983"></rect></g><g class="bar" transform="translate(318.5,224.94584837545125)"><rect x="1" width="5.500000000000005" height="85.05415162454875"></rect></g><g class="bar" transform="translate(325,259.6389891696751)"><rect x="1" width="5.500000000000005" height="50.361010830324915"></rect></g><g class="bar" transform="translate(331.50000000000006,283.14079422382673)"><rect x="1" width="5.500000000000005" height="26.85920577617327"></rect></g><g class="bar" transform="translate(338,280.90252707581226)"><rect x="1" width="5.500000000000005" height="29.09747292418774"></rect></g><g class="bar" transform="translate(344.50000000000006,287.6173285198556)"><rect x="1" width="5.500000000000005" height="22.38267148014438"></rect></g><g class="bar" transform="translate(351,295.45126353790613)"><rect x="1" width="5.500000000000005" height="14.54873646209387"></rect></g><g class="bar" transform="translate(357.5,302.16606498194943)"><rect x="1" width="5.500000000000005" height="7.833935018050568"></rect></g><g class="bar" transform="translate(364.00000000000006,305.5234657039711)"><rect x="1" width="5.500000000000005" height="4.476534296028888"></rect></g><g class="bar" transform="translate(370.5,306.6425992779783)"><rect x="1" width="5.500000000000005" height="3.35740072202168"></rect></g><g class="bar" transform="translate(377.00000000000006,306.6425992779783)"><rect x="1" width="5.500000000000005" height="3.35740072202168"></rect></g><g class="bar" transform="translate(383.5,310)"><rect x="1" width="5.500000000000005" height="0"></rect></g><g class="bar" transform="translate(390,306.6425992779783)"><rect x="1" width="5.500000000000005" height="3.35740072202168"></rect></g><g class="bar" transform="translate(396.50000000000006,310)"><rect x="1" width="5.500000000000005" height="0"></rect></g><g class="bar" transform="translate(403,310)"><rect x="1" width="5.500000000000005" height="0"></rect></g><g class="bar" transform="translate(409.50000000000006,310)"><rect x="1" width="5.500000000000005" height="0"></rect></g><g class="bar" transform="translate(416,310)"><rect x="1" width="5.500000000000005" height="0"></rect></g><g class="bar" transform="translate(422.5,310)"><rect x="1" width="5.500000000000005" height="0"></rect></g><g class="bar" transform="translate(429.00000000000006,310)"><rect x="1" width="5.500000000000005" height="0"></rect></g><g class="bar" transform="translate(435.5,310)"><rect x="1" width="5.500000000000005" height="0"></rect></g><g class="bar" transform="translate(442.00000000000006,310)"><rect x="1" width="5.500000000000005" height="0"></rect></g><g class="bar" transform="translate(448.5,310)"><rect x="1" width="5.500000000000005" height="0"></rect></g><g class="bar" transform="translate(455,310)"><rect x="1" width="5.500000000000005" height="0"></rect></g><g class="bar" transform="translate(461.50000000000006,310)"><rect x="1" width="5.500000000000005" height="0"></rect></g><g class="bar" transform="translate(468,310)"><rect x="1" width="5.500000000000005" height="0"></rect></g><g class="bar" transform="translate(474.50000000000006,310)"><rect x="1" width="5.500000000000005" height="0"></rect></g><g class="bar" transform="translate(481,310)"><rect x="1" width="5.500000000000005" height="0"></rect></g><g class="bar" transform="translate(487.5,310)"><rect x="1" width="5.500000000000005" height="0"></rect></g><g class="bar" transform="translate(494.00000000000006,310)"><rect x="1" width="5.500000000000005" height="0"></rect></g><g class="bar" transform="translate(500.5,310)"><rect x="1" width="5.500000000000005" height="0"></rect></g><g class="bar" transform="translate(507.00000000000006,310)"><rect x="1" width="5.500000000000005" height="0"></rect></g><g class="bar" transform="translate(513.5,310)"><rect x="1" width="5.500000000000005" height="0"></rect></g><g class="axis axis--x" transform="translate(0,310)" fill="none" font-size="10" font-family="sans-serif" text-anchor="middle"><path class="domain" stroke="#000" d="M0.5,6V0.5H520.5V6"></path><g class="tick" opacity="1" transform="translate(0,0)"><line stroke="#000" y2="6" x1="0.5" x2="0.5"></line><text fill="#000" y="9" x="0.5" dy="0.71em">0.01</text></g><g class="tick" opacity="1" transform="translate(130,0)"><line stroke="#000" y2="6" x1="0.5" x2="0.5"></line><text fill="#000" y="9" x="0.5" dy="0.71em">1</text></g><g class="tick" opacity="1" transform="translate(260,0)"><line stroke="#000" y2="6" x1="0.5" x2="0.5"></line><text fill="#000" y="9" x="0.5" dy="0.71em">100</text></g><g class="tick" opacity="1" transform="translate(390,0)"><line stroke="#000" y2="6" x1="0.5" x2="0.5"></line><text fill="#000" y="9" x="0.5" dy="0.71em">10000</text></g><g class="tick" opacity="1" transform="translate(520,0)"><line stroke="#000" y2="6" x1="0.5" x2="0.5"></line><text fill="#000" y="9" x="0.5" dy="0.71em"></text></g></g><g class="axis axis--y" fill="none" font-size="10" font-family="sans-serif" text-anchor="end"><path class="domain" stroke="#000" d="M-6,310.5H0.5V0.5H-6"></path><g class="tick" opacity="1" transform="translate(0,310)"><line stroke="#000" x2="-6" y1="0.5" y2="0.5"></line><text fill="#000" x="-9" y="0.5" dy="0.32em">0</text></g><g class="tick" opacity="1" transform="translate(0,287.6173285198556)"><line stroke="#000" x2="-6" y1="0.5" y2="0.5"></line><text fill="#000" x="-9" y="0.5" dy="0.32em">20</text></g><g class="tick" opacity="1" transform="translate(0,265.2346570397112)"><line stroke="#000" x2="-6" y1="0.5" y2="0.5"></line><text fill="#000" x="-9" y="0.5" dy="0.32em">40</text></g><g class="tick" opacity="1" transform="translate(0,242.8519855595668)"><line stroke="#000" x2="-6" y1="0.5" y2="0.5"></line><text fill="#000" x="-9" y="0.5" dy="0.32em">60</text></g><g class="tick" opacity="1" transform="translate(0,220.4693140794224)"><line stroke="#000" x2="-6" y1="0.5" y2="0.5"></line><text fill="#000" x="-9" y="0.5" dy="0.32em">80</text></g><g class="tick" opacity="1" transform="translate(0,198.08664259927798)"><line stroke="#000" x2="-6" y1="0.5" y2="0.5"></line><text fill="#000" x="-9" y="0.5" dy="0.32em">100</text></g><g class="tick" opacity="1" transform="translate(0,175.70397111913357)"><line stroke="#000" x2="-6" y1="0.5" y2="0.5"></line><text fill="#000" x="-9" y="0.5" dy="0.32em">120</text></g><g class="tick" opacity="1" transform="translate(0,153.3212996389892)"><line stroke="#000" x2="-6" y1="0.5" y2="0.5"></line><text fill="#000" x="-9" y="0.5" dy="0.32em">140</text></g><g class="tick" opacity="1" transform="translate(0,130.93862815884478)"><line stroke="#000" x2="-6" y1="0.5" y2="0.5"></line><text fill="#000" x="-9" y="0.5" dy="0.32em">160</text></g><g class="tick" opacity="1" transform="translate(0,108.55595667870037)"><line stroke="#000" x2="-6" y1="0.5" y2="0.5"></line><text fill="#000" x="-9" y="0.5" dy="0.32em">180</text></g><g class="tick" opacity="1" transform="translate(0,86.17328519855593)"><line stroke="#000" x2="-6" y1="0.5" y2="0.5"></line><text fill="#000" x="-9" y="0.5" dy="0.32em">200</text></g><g class="tick" opacity="1" transform="translate(0,63.79061371841158)"><line stroke="#000" x2="-6" y1="0.5" y2="0.5"></line><text fill="#000" x="-9" y="0.5" dy="0.32em">220</text></g><g class="tick" opacity="1" transform="translate(0,41.40794223826714)"><line stroke="#000" x2="-6" y1="0.5" y2="0.5"></line><text fill="#000" x="-9" y="0.5" dy="0.32em">240</text></g><g class="tick" opacity="1" transform="translate(0,19.02527075812276)"><line stroke="#000" x2="-6" y1="0.5" y2="0.5"></line><text fill="#000" x="-9" y="0.5" dy="0.32em">260</text></g></g></g></svg>