<svg xmlns="http://www.w3.org/2000/svg" width="600" height="350"><defs><style type="text/css"><![CDATA[ 
.bar rect {
  fill-opacity: 0;
  stroke:       black;
  stroke-width: 0.5;
}

.highlight rect {
  fill:       red;
  fill-opacity: 1;
}
.axis path,
.axis line {
  fill: none;
  stroke: #000;
  shape-rendering: crispEdges;
}
path {
    stroke: red;
    fill: none;
}

line {
    stroke: red;
}

path.marker {
    fill: red;
}
 ]]></style></defs><g transform="translate(50,10)"><g class="bar" transform="translate(0,310)"><rect x="1" width="5.500000000000005" height="0"></rect></g><g class="bar" transform="translate(6.500000000000005,310)"><rect x="1" width="5.500000000000005" height="0"></rect></g><g class="bar" transform="translate(12.999999999999996,310)"><rect x="1" width="5.500000000000005" height="0"></rect></g><g class="bar" transform="translate(19.500000000000004,309.5163806552262)"><rect x="1" width="5.500000000000005" height="0.48361934477378554"></rect></g><g class="bar" transform="translate(25.999999999999993,310)"><rect x="1" width="5.500000000000005" height="0"></rect></g><g class="bar" transform="translate(32.5,310)"><rect x="1" width="5.500000000000005" height="0"></rect></g><g class="bar" transform="translate(39.00000000000001,310)"><rect x="1" width="5.500000000000005" height="0"></rect></g><g class="bar" transform="translate(45.500000000000014,309.5163806552262)"><rect x="1" width="5.500000000000005" height="0.48361934477378554"></rect></g><g class="bar" transform="translate(52,306.61466458658344)"><rect x="1" width="5.500000000000005" height="3.3853354134165556"></rect></g><g class="bar" transform="translate(58.49999999999999,305.1638065522621)"><rect x="1" width="5.500000000000005" height="4.836193447737912"></rect></g><g class="bar" transform="translate(65,305.1638065522621)"><rect x="1" width="5.500000000000005" height="4.836193447737912"></rect></g><g class="bar" transform="translate(71.5,303.22932917316695)"><rect x="1" width="5.500000000000005" height="6.770670826833054"></rect></g><g class="bar" transform="translate(78.00000000000001,288.2371294851794)"><rect x="1" width="5.500000000000005" height="21.762870514820577"></rect></g><g class="bar" transform="translate(84.5,300.3276131045242)"><rect x="1" width="5.500000000000005" height="9.672386895475825"></rect></g><g class="bar" transform="translate(91.00000000000001,295.97503900156005)"><rect x="1" width="5.500000000000005" height="14.024960998439951"></rect></g><g class="bar" transform="translate(97.5,297.42589703588146)"><rect x="1" width="5.500000000000005" height="12.574102964118538"></rect></g><g class="bar" transform="translate(104,290.65522620904835)"><rect x="1" width="5.500000000000005" height="19.34477379095165"></rect></g><g class="bar" transform="translate(110.50000000000001,272.7613104524181)"><rect x="1" width="5.500000000000005" height="37.238689547581885"></rect></g><g class="bar" transform="translate(117,283.4009360374415)"><rect x="1" width="5.500000000000005" height="26.59906396255849"></rect></g><g class="bar" transform="translate(123.50000000000001,261.1544461778471)"><rect x="1" width="5.500000000000005" height="48.84555382215291"></rect></g><g class="bar" transform="translate(130,234.07176287051482)"><rect x="1" width="5.500000000000005" height="75.92823712948518"></rect></g><g class="bar" transform="translate(136.5,203.603744149766)"><rect x="1" width="5.500000000000005" height="106.39625585023401"></rect></g><g class="bar" transform="translate(143,188.12792511700468)"><rect x="1" width="5.500000000000005" height="121.87207488299532"></rect></g><g class="bar" transform="translate(149.50000000000003,125.25741029641188)"><rect x="1" width="5.500000000000005" height="184.74258970358812"></rect></g><g class="bar" transform="translate(156.00000000000003,101.07644305772232)"><rect x="1" width="5.500000000000005" height="208.92355694227768"></rect></g><g class="bar" transform="translate(162.5,46.427457098283924)"><rect x="1" width="5.500000000000005" height="263.5725429017161"></rect></g><g class="bar" transform="translate(169,11.123244929797181)"><rect x="1" width="5.500000000000005" height="298.8767550702028"></rect></g><g class="bar" transform="translate(175.5,0)"><rect x="1" width="5.500000000000005" height="310"></rect></g><g class="bar" transform="translate(182.00000000000003,0.9672386895475711)"><rect x="1" width="5.500000000000005" height="309.03276131045243"></rect></g><g class="bar" transform="translate(188.50000000000003,32.40249609984397)"><rect x="1" width="5.500000000000005" height="277.597503900156"></rect></g><g class="bar" transform="translate(195,73.02652106084244)"><rect x="1" width="5.500000000000005" height="236.97347893915756"></rect></g><g class="bar" transform="translate(201.5,115.10140405616224)"><rect x="1" width="5.500000000000005" height="194.89859594383776"></rect></g><g class="bar" transform="translate(208,135.89703588143527)"><rect x="1" width="5.500000000000005" height="174.10296411856473"></rect></g><g class="bar" transform="translate(214.50000000000003,160.5616224648986)"><rect x="1" width="5.500000000000005" height="149.4383775351014"></rect></g><g class="bar" transform="translate(221.00000000000003,174.10296411856476)"><rect x="1" width="5.500000000000005" height="135.89703588143524"></rect></g><g class="bar" transform="translate(227.5,197.8003120124805)"><rect x="1" width="5.500000000000005" height="112.1996879875195"></rect></g><g class="bar" transform="translate(234,191.51326053042123)"><rect x="1" width="5.500000000000005" height="118.48673946957877"></rect></g><g class="bar" transform="translate(240.5,179.42277691107645)"><rect x="1" width="5.500000000000005" height="130.57722308892355"></rect></g><g class="bar" transform="translate(247.00000000000003,188.61154446177846)"><rect x="1" width="5.500000000000005" height="121.38845553822154"></rect></g><g class="bar" transform="translate(253.50000000000003,185.22620904836194)"><rect x="1" width="5.500000000000005" height="124.77379095163806"></rect></g><g class="bar" transform="translate(260,198.76755070202807)"><rect x="1" width="5.500000000000005" height="111.23244929797193"></rect></g><g class="bar" transform="translate(266.50000000000006,199.73478939157567)"><rect x="1" width="5.500000000000005" height="110.26521060842433"></rect></g><g class="bar" transform="translate(273,205.53822152886116)"><rect x="1" width="5.500000000000005" height="104.46177847113884"></rect></g><g class="bar" transform="translate(279.5,218.5959438377535)"><rect x="1" width="5.500000000000005" height="91.40405616224649"></rect></g><g class="bar" transform="translate(286,232.62090483619346)"><rect x="1" width="5.500000000000005" height="77.37909516380654"></rect></g><g class="bar" transform="translate(292.5,251.4820592823713)"><rect x="1" width="5.500000000000005" height="58.517940717628704"></rect></g><g class="bar" transform="translate(299.00000000000006,261.1544461778471)"><rect x="1" width="5.500000000000005" height="48.84555382215291"></rect></g><g class="bar" transform="translate(305.5,264.05616224648986)"><rect x="1" width="5.500000000000005" height="45.94383775351014"></rect></g><g class="bar" transform="translate(312.00000000000006,283.4009360374415)"><rect x="1" width="5.500000000000005" height="26.59906396255849"></rect></g><g class="bar" transform="translate(318.5,286.3026521060842)"><rect x="1" width="5.500000000000005" height="23.697347893915776"></rect></g><g class="bar" transform="translate(325,292.1060842433697)"><rect x="1" width="5.500000000000005" height="17.893915756630292"></rect></g><g class="bar" transform="translate(331.50000000000006,295.97503900156005)"><rect x="1" width="5.500000000000005" height="14.024960998439951"></rect></g><g class="bar" transform="translate(338,305.1638065522621)"><rect x="1" width="5.500000000000005" height="4.836193447737912"></rect></g><g class="bar" transform="translate(344.50000000000006,304.6801872074883)"><rect x="1" width="5.500000000000005" height="5.319812792511698"></rect></g><g class="bar" transform="translate(351,303.71294851794073)"><rect x="1" width="5.500000000000005" height="6.287051482059269"></rect></g><g class="bar" transform="translate(357.5,305.1638065522621)"><rect x="1" width="5.500000000000005" height="4.836193447737912"></rect></g><g class="bar" transform="translate(364.00000000000006,307.5819032761311)"><rect x="1" width="5.500000000000005" height="2.4180967238689277"></rect></g><g class="bar" transform="translate(370.5,307.5819032761311)"><rect x="1" width="5.500000000000005" height="2.4180967238689277"></rect></g><g class="bar" transform="translate(377.00000000000006,308.54914196567864)"><rect x="1" width="5.500000000000005" height="1.4508580343213566"></rect></g><g class="bar" transform="translate(383.5,307.09828393135723)"><rect x="1" width="5.500000000000005" height="2.90171606864277"></rect></g><g class="bar" transform="translate(390,309.03276131045243)"><rect x="1" width="5.500000000000005" height="0.9672386895475711"></rect></g><g class="bar" transform="translate(396.50000000000006,309.5163806552262)"><rect x="1" width="5.500000000000005" height="0.48361934477378554"></rect></g><g class="bar" transform="translate(403,310)"><rect x="1" width="5.500000000000005" height="0"></rect></g><g class="bar" transform="translate(409.50000000000006,310)"><rect x="1" width="5.500000000000005" height="0"></rect></g><g class="bar" transform="translate(416,310)"><rect x="1" width="5.500000000000005" height="0"></rect></g><g class="bar" transform="translate(422.5,309.03276131045243)"><rect x="1" width="5.500000000000005" height="0.9672386895475711"></rect></g><g class="bar" transform="translate(429.00000000000006,310)"><rect x="1" width="5.500000000000005" height="0"></rect></g><g class="bar" transform="translate(435.5,310)"><rect x="1" width="5.500000000000005" height="0"></rect></g><g class="bar" transform="translate(442.00000000000006,310)"><rect x="1" width="5.500000000000005" height="0"></rect></g><g class="bar" transform="translate(448.5,310)"><rect x="1" width="5.500000000000005" height="0"></rect></g><g class="bar" transform="translate(455,310)"><rect x="1" width="5.500000000000005" height="0"></rect></g><g class="bar" transform="translate(461.50000000000006,310)"><rect x="1" width="5.500000000000005" height="0"></rect></g><g class="bar" transform="translate(468,310)"><rect x="1" width="5.500000000000005" height="0"></rect></g><g class="bar" transform="translate(474.50000000000006,310)"><rect x="1" width="5.500000000000005" height="0"></rect></g><g class="bar" transform="translate(481,310)"><rect x="1" width="5.500000000000005" height="0"></rect></g><g class="bar" transform="translate(487.5,310)"><rect x="1" width="5.500000000000005" height="0"></rect></g><g class="bar" transform="translate(494.00000000000006,310)"><rect x="1" width="5.500000000000005" height="0"></rect></g><g class="bar" transform="translate(500.5,310)"><rect x="1" width="5.500000000000005" height="0"></rect></g><g class="bar" transform="translate(507.00000000000006,310)"><rect x="1" width="5.500000000000005" height="0"></rect></g><g class="bar" transform="translate(513.5,310)"><rect x="1" width="5.500000000000005" height="0"></rect></g><g class="axis axis--x" transform="translate(0,310)" fill="none" font-size="10" font-family="sans-serif" text-anchor="middle"><path class="domain" stroke="#000" d="M0.5,6V0.5H520.5V6"></path><g class="tick" opacity="1" transform="translate(0.5,0)"><line stroke="#000" y2="6"></line><text fill="#000" y="9" dy="0.71em">0.01</text></g><g class="tick" opacity="1" transform="translate(130.5,0)"><line stroke="#000" y2="6"></line><text fill="#000" y="9" dy="0.71em">1</text></g><g class="tick" opacity="1" transform="translate(260.5,0)"><line stroke="#000" y2="6"></line><text fill="#000" y="9" dy="0.71em">100</text></g><g class="tick" opacity="1" transform="translate(390.5,0)"><line stroke="#000" y2="6"></line><text fill="#000" y="9" dy="0.71em">10000</text></g><g class="tick" opacity="1" transform="translate(520.5,0)"><line stroke="#000" y2="6"></line><text fill="#000" y="9" dy="0.71em"></text></g></g><g class="axis axis--y" fill="none" font-size="10" font-family="sans-serif" text-anchor="end"><path class="domain" stroke="#000" d="M-6,310.5H0.5V0.5H-6"></path><g class="tick" opacity="1" transform="translate(0,310.5)"><line stroke="#000" x2="-6"></line><text fill="#000" x="-9" dy="0.32em">0</text></g><g class="tick" opacity="1" transform="translate(0,286.31903276131044)"><line stroke="#000" x2="-6"></line><text fill="#000" x="-9" dy="0.32em">50</text></g><g class="tick" opacity="1" transform="translate(0,262.1380655226209)"><line stroke="#000" x2="-6"></line><text fill="#000" x="-9" dy="0.32em">100</text></g><g class="tick" opacity="1" transform="translate(0,237.95709828393137)"><line stroke="#000" x2="-6"></line><text fill="#000" x="-9" dy="0.32em">150</text></g><g class="tick" opacity="1" transform="translate(0,213.7761310452418)"><line stroke="#000" x2="-6"></line><text fill="#000" x="-9" dy="0.32em">200</text></g><g class="tick" opacity="1" transform="translate(0,189.59516380655225)"><line stroke="#000" x2="-6"></line><text fill="#000" x="-9" dy="0.32em">250</text></g><g class="tick" opacity="1" transform="translate(0,165.41419656786272)"><line stroke="#000" x2="-6"></line><text fill="#000" x="-9" dy="0.32em">300</text></g><g class="tick" opacity="1" transform="translate(0,141.23322932917318)"><line stroke="#000" x2="-6"></line><text fill="#000" x="-9" dy="0.32em">350</text></g><g class="tick" opacity="1" transform="translate(0,117.05226209048362)"><line stroke="#000" x2="-6"></line><text fill="#000" x="-9" dy="0.32em">400</text></g><g class="tick" opacity="1" transform="translate(0,92.87129485179409)"><line stroke="#000" x2="-6"></line><text fill="#000" x="-9" dy="0.32em">450</text></g><g class="tick" opacity="1" transform="translate(0,68.69032761310453)"><line stroke="#000" x2="-6"></line><text fill="#000" x="-9" dy="0.32em">500</text></g><g class="tick" opacity="1" transform="translate(0,44.50936037441494)"><line stroke="#000" x2="-6"></line><text fill="#000" x="-9" dy="0.32em">550</text></g><g class="tick" opacity="1" transform="translate(0,20.328393135725435)"><line stroke="#000" x2="-6"></line><text fill="#000" x="-9" dy="0.32em">600</text></g></g></g></svg>