<svg xmlns="http://www.w3.org/2000/svg" width="600" height="350"><defs><style type="text/css"><![CDATA[ 
.bar rect {
  fill-opacity: 0;
  stroke:       black;
  stroke-width: 0.5;
}

.highlight rect {
  fill:       red;
  fill-opacity: 1;
}
.axis path,
.axis line {
  fill: none;
  stroke: #000;
  shape-rendering: crispEdges;
}
 ]]></style></defs><g transform="translate(50,10)"><g class="bar" transform="translate(0,258.2330097087379)"><rect x="1" width="11.999999999999996" height="51.76699029126212"></rect></g><g class="bar" transform="translate(12.999999999999996,263.0485436893204)"><rect x="1" width="11.999999999999996" height="46.95145631067959"></rect></g><g class="bar" transform="translate(25.999999999999993,266.6601941747573)"><rect x="1" width="11.999999999999996" height="43.339805825242706"></rect></g><g class="bar" transform="translate(39.00000000000001,271.4757281553398)"><rect x="1" width="11.999999999999996" height="38.52427184466018"></rect></g><g class="bar" transform="translate(52,284.11650485436894)"><rect x="1" width="11.999999999999996" height="25.88349514563106"></rect></g><g class="bar" transform="translate(65,269.66990291262135)"><rect x="1" width="11.999999999999996" height="40.33009708737865"></rect></g><g class="bar" transform="translate(78.00000000000001,269.66990291262135)"><rect x="1" width="11.999999999999996" height="40.33009708737865"></rect></g><g class="bar" transform="translate(91.00000000000001,243.7864077669903)"><rect x="1" width="11.999999999999996" height="66.2135922330097"></rect></g><g class="bar" transform="translate(104,251.0097087378641)"><rect x="1" width="11.999999999999996" height="58.99029126213591"></rect></g><g class="bar" transform="translate(117,226.93203883495147)"><rect x="1" width="11.999999999999996" height="83.06796116504853"></rect></g><g class="bar" transform="translate(130,182.38834951456312)"><rect x="1" width="11.999999999999996" height="127.61165048543688"></rect></g><g class="bar" transform="translate(143,158.9126213592233)"><rect x="1" width="11.999999999999996" height="151.0873786407767"></rect></g><g class="bar" transform="translate(156.00000000000003,134.23300970873785)"><rect x="1" width="11.999999999999996" height="175.76699029126215"></rect></g><g class="bar" transform="translate(169,83.06796116504856)"><rect x="1" width="11.999999999999996" height="226.93203883495144"></rect></g><g class="bar" transform="translate(182.00000000000003,60.19417475728156)"><rect x="1" width="11.999999999999996" height="249.80582524271844"></rect></g><g class="bar" transform="translate(195,24.67961165048547)"><rect x="1" width="11.999999999999996" height="285.32038834951453"></rect></g><g class="bar" transform="translate(208,18.660194174757294)"><rect x="1" width="11.999999999999996" height="291.3398058252427"></rect></g><g class="bar" transform="translate(221.00000000000003,0)"><rect x="1" width="11.999999999999996" height="310"></rect></g><g class="bar" transform="translate(234,37.922330097087354)"><rect x="1" width="11.999999999999996" height="272.07766990291265"></rect></g><g class="bar" transform="translate(247.00000000000003,52.36893203883494)"><rect x="1" width="11.999999999999996" height="257.63106796116506"></rect></g><g class="bar" transform="translate(260,77.04854368932041)"><rect x="1" width="11.999999999999996" height="232.9514563106796"></rect></g><g class="bar" transform="translate(273,99.32038834951456)"><rect x="1" width="11.999999999999996" height="210.67961165048544"></rect></g><g class="bar" transform="translate(286,171.5533980582524)"><rect x="1" width="11.999999999999996" height="138.4466019417476"></rect></g><g class="bar" transform="translate(299.00000000000006,188.40776699029126)"><rect x="1" width="11.999999999999996" height="121.59223300970874"></rect></g><g class="bar" transform="translate(312.00000000000006,224.52427184466018)"><rect x="1" width="11.999999999999996" height="85.47572815533982"></rect></g><g class="bar" transform="translate(325,240.7766990291262)"><rect x="1" width="11.999999999999996" height="69.2233009708738"></rect></g><g class="bar" transform="translate(338,283.5145631067961)"><rect x="1" width="11.999999999999996" height="26.485436893203882"></rect></g><g class="bar" transform="translate(351,298.56310679611653)"><rect x="1" width="11.999999999999996" height="11.436893203883471"></rect></g><g class="bar" transform="translate(364.00000000000006,302.1747572815534)"><rect x="1" width="11.999999999999996" height="7.825242718446589"></rect></g><g class="bar" transform="translate(377.00000000000006,308.19417475728153)"><rect x="1" width="11.999999999999996" height="1.8058252427184698"></rect></g><g class="bar" transform="translate(390,307.59223300970876)"><rect x="1" width="11.999999999999996" height="2.407766990291236"></rect></g><g class="bar" transform="translate(403,310)"><rect x="1" width="11.999999999999996" height="0"></rect></g><g class="bar" transform="translate(416,308.79611650485435)"><rect x="1" width="11.999999999999996" height="1.2038834951456465"></rect></g><g class="bar" transform="translate(429.00000000000006,310)"><rect x="1" width="11.999999999999996" height="0"></rect></g><g class="bar" transform="translate(442.00000000000006,310)"><rect x="1" width="11.999999999999996" height="0"></rect></g><g class="bar" transform="translate(455,310)"><rect x="1" width="11.999999999999996" height="0"></rect></g><g class="bar" transform="translate(468,310)"><rect x="1" width="11.999999999999996" height="0"></rect></g><g class="bar" transform="translate(481,310)"><rect x="1" width="11.999999999999996" height="0"></rect></g><g class="bar" transform="translate(494.00000000000006,310)"><rect x="1" width="11.999999999999996" height="0"></rect></g><g class="bar" transform="translate(507.00000000000006,310)"><rect x="1" width="11.999999999999996" height="0"></rect></g><g class="axis axis--x" transform="translate(0,310)" fill="none" font-size="10" font-family="sans-serif" text-anchor="middle"><path class="domain" stroke="#000" d="M0.5,6V0.5H520.5V6"></path><g class="tick" opacity="1" transform="translate(0,0)"><line stroke="#000" y2="6" x1="0.5" x2="0.5"></line><text fill="#000" y="9" x="0.5" dy="0.71em">0.01</text></g><g class="tick" opacity="1" transform="translate(130,0)"><line stroke="#000" y2="6" x1="0.5" x2="0.5"></line><text fill="#000" y="9" x="0.5" dy="0.71em">1</text></g><g class="tick" opacity="1" transform="translate(260,0)"><line stroke="#000" y2="6" x1="0.5" x2="0.5"></line><text fill="#000" y="9" x="0.5" dy="0.71em">100</text></g><g class="tick" opacity="1" transform="translate(390,0)"><line stroke="#000" y2="6" x1="0.5" x2="0.5"></line><text fill="#000" y="9" x="0.5" dy="0.71em">10000</text></g><g class="tick" opacity="1" transform="translate(520,0)"><line stroke="#000" y2="6" x1="0.5" x2="0.5"></line><text fill="#000" y="9" x="0.5" dy="0.71em"></text></g></g><g class="axis axis--y" fill="none" font-size="10" font-family="sans-serif" text-anchor="end"><path class="domain" stroke="#000" d="M-6,310.5H0.5V0.5H-6"></path><g class="tick" opacity="1" transform="translate(0,310)"><line stroke="#000" x2="-6" y1="0.5" y2="0.5"></line><text fill="#000" x="-9" y="0.5" dy="0.32em">0</text></g><g class="tick" opacity="1" transform="translate(0,279.90291262135923)"><line stroke="#000" x2="-6" y1="0.5" y2="0.5"></line><text fill="#000" x="-9" y="0.5" dy="0.32em">50</text></g><g class="tick" opacity="1" transform="translate(0,249.80582524271844)"><line stroke="#000" x2="-6" y1="0.5" y2="0.5"></line><text fill="#000" x="-9" y="0.5" dy="0.32em">100</text></g><g class="tick" opacity="1" transform="translate(0,219.70873786407768)"><line stroke="#000" x2="-6" y1="0.5" y2="0.5"></line><text fill="#000" x="-9" y="0.5" dy="0.32em">150</text></g><g class="tick" opacity="1" transform="translate(0,189.61165048543688)"><line stroke="#000" x2="-6" y1="0.5" y2="0.5"></line><text fill="#000" x="-9" y="0.5" dy="0.32em">200</text></g><g class="tick" opacity="1" transform="translate(0,159.51456310679612)"><line stroke="#000" x2="-6" y1="0.5" y2="0.5"></line><text fill="#000" x="-9" y="0.5" dy="0.32em">250</text></g><g class="tick" opacity="1" transform="translate(0,129.41747572815535)"><line stroke="#000" x2="-6" y1="0.5" y2="0.5"></line><text fill="#000" x="-9" y="0.5" dy="0.32em">300</text></g><g class="tick" opacity="1" transform="translate(0,99.32038834951456)"><line stroke="#000" x2="-6" y1="0.5" y2="0.5"></line><text fill="#000" x="-9" y="0.5" dy="0.32em">350</text></g><g class="tick" opacity="1" transform="translate(0,69.2233009708738)"><line stroke="#000" x2="-6" y1="0.5" y2="0.5"></line><text fill="#000" x="-9" y="0.5" dy="0.32em">400</text></g><g class="tick" opacity="1" transform="translate(0,39.126213592233)"><line stroke="#000" x2="-6" y1="0.5" y2="0.5"></line><text fill="#000" x="-9" y="0.5" dy="0.32em">450</text></g><g class="tick" opacity="1" transform="translate(0,9.029126213592235)"><line stroke="#000" x2="-6" y1="0.5" y2="0.5"></line><text fill="#000" x="-9" y="0.5" dy="0.32em">500</text></g></g></g></svg>