<svg xmlns="http://www.w3.org/2000/svg" width="600" height="350"><defs><style type="text/css"><![CDATA[ 
.bar rect {
  fill-opacity: 0;
  stroke:       black;
  stroke-width: 0.5;
}

.highlight rect {
  fill:       red;
  fill-opacity: 1;
}
.axis path,
.axis line {
  fill: none;
  stroke: #000;
  shape-rendering: crispEdges;
}
path {
    stroke: red;
    fill: none;
}

line {
    stroke: red;
}

path.marker {
    fill: red;
}
 ]]></style></defs><g transform="translate(50,10)"><g class="bar" transform="translate(0,310)"><rect x="1" width="11.999999999999996" height="0"></rect></g><g class="bar" transform="translate(12.999999999999996,310)"><rect x="1" width="11.999999999999996" height="0"></rect></g><g class="bar" transform="translate(25.999999999999993,310)"><rect x="1" width="11.999999999999996" height="0"></rect></g><g class="bar" transform="translate(39.00000000000001,310)"><rect x="1" width="11.999999999999996" height="0"></rect></g><g class="bar" transform="translate(52,310)"><rect x="1" width="11.999999999999996" height="0"></rect></g><g class="bar" transform="translate(65,310)"><rect x="1" width="11.999999999999996" height="0"></rect></g><g class="bar" transform="translate(78.00000000000001,310)"><rect x="1" width="11.999999999999996" height="0"></rect></g><g class="bar" transform="translate(91.00000000000001,310)"><rect x="1" width="11.999999999999996" height="0"></rect></g><g class="bar" transform="translate(104,310)"><rect x="1" width="11.999999999999996" height="0"></rect></g><g class="bar" transform="translate(117,310)"><rect x="1" width="11.999999999999996" height="0"></rect></g><g class="bar" transform="translate(130,310)"><rect x="1" width="11.999999999999996" height="0"></rect></g><g class="bar" transform="translate(143,310)"><rect x="1" width="11.999999999999996" height="0"></rect></g><g class="bar" transform="translate(156.00000000000003,310)"><rect x="1" width="11.999999999999996" height="0"></rect></g><g class="bar" transform="translate(169,310)"><rect x="1" width="11.999999999999996" height="0"></rect></g><g class="bar" transform="translate(182.00000000000003,310)"><rect x="1" width="11.999999999999996" height="0"></rect></g><g class="bar" transform="translate(195,310)"><rect x="1" width="11.999999999999996" height="0"></rect></g><g class="bar" transform="translate(208,308.4020618556701)"><rect x="1" width="11.999999999999996" height="1.5979381443298735"></rect></g><g class="bar" transform="translate(221.00000000000003,0)"><rect x="1" width="11.999999999999996" height="310"></rect></g><g class="bar" transform="translate(234,214.9226804123711)"><rect x="1" width="11.999999999999996" height="95.07731958762889"></rect></g><g class="bar" transform="translate(247.00000000000003,135.0257731958763)"><rect x="1" width="11.999999999999996" height="174.9742268041237"></rect></g><g class="bar" transform="translate(260,150.20618556701032)"><rect x="1" width="11.999999999999996" height="159.79381443298968"></rect></g><g class="bar" transform="translate(273,162.98969072164948)"><rect x="1" width="11.999999999999996" height="147.01030927835052"></rect></g><g class="bar" transform="translate(286,173.37628865979383)"><rect x="1" width="11.999999999999996" height="136.62371134020617"></rect></g><g class="bar" transform="translate(299.00000000000006,186.95876288659792)"><rect x="1" width="11.999999999999996" height="123.04123711340208"></rect></g><g class="bar" transform="translate(312.00000000000006,215.7216494845361)"><rect x="1" width="11.999999999999996" height="94.2783505154639"></rect></g><g class="bar" transform="translate(325,243.68556701030928)"><rect x="1" width="11.999999999999996" height="66.31443298969072"></rect></g><g class="bar" transform="translate(338,276.44329896907215)"><rect x="1" width="11.999999999999996" height="33.556701030927854"></rect></g><g class="bar" transform="translate(351,290.82474226804123)"><rect x="1" width="11.999999999999996" height="19.175257731958766"></rect></g><g class="bar" transform="translate(364.00000000000006,293.2216494845361)"><rect x="1" width="11.999999999999996" height="16.7783505154639"></rect></g><g class="bar" transform="translate(377.00000000000006,303.6082474226804)"><rect x="1" width="11.999999999999996" height="6.3917525773196076"></rect></g><g class="bar" transform="translate(390,305.2061855670103)"><rect x="1" width="11.999999999999996" height="4.793814432989677"></rect></g><g class="bar" transform="translate(403,308.4020618556701)"><rect x="1" width="11.999999999999996" height="1.5979381443298735"></rect></g><g class="bar" transform="translate(416,308.4020618556701)"><rect x="1" width="11.999999999999996" height="1.5979381443298735"></rect></g><g class="bar" transform="translate(429.00000000000006,309.20103092783506)"><rect x="1" width="11.999999999999996" height="0.7989690721649367"></rect></g><g class="bar" transform="translate(442.00000000000006,310)"><rect x="1" width="11.999999999999996" height="0"></rect></g><g class="bar" transform="translate(455,310)"><rect x="1" width="11.999999999999996" height="0"></rect></g><g class="bar" transform="translate(468,310)"><rect x="1" width="11.999999999999996" height="0"></rect></g><g class="bar" transform="translate(481,310)"><rect x="1" width="11.999999999999996" height="0"></rect></g><g class="bar" transform="translate(494.00000000000006,310)"><rect x="1" width="11.999999999999996" height="0"></rect></g><g class="bar" transform="translate(507.00000000000006,310)"><rect x="1" width="11.999999999999996" height="0"></rect></g><g class="axis axis--x" transform="translate(0,310)" fill="none" font-size="10" font-family="sans-serif" text-anchor="middle"><path class="domain" stroke="#000" d="M0.5,6V0.5H520.5V6"></path><g class="tick" opacity="1" transform="translate(0.5,0)"><line stroke="#000" y2="6"></line><text fill="#000" y="9" dy="0.71em">0.01</text></g><g class="tick" opacity="1" transform="translate(130.5,0)"><line stroke="#000" y2="6"></line><text fill="#000" y="9" dy="0.71em">1</text></g><g class="tick" opacity="1" transform="translate(260.5,0)"><line stroke="#000" y2="6"></line><text fill="#000" y="9" dy="0.71em">100</text></g><g class="tick" opacity="1" transform="translate(390.5,0)"><line stroke="#000" y2="6"></line><text fill="#000" y="9" dy="0.71em">10000</text></g><g class="tick" opacity="1" transform="translate(520.5,0)"><line stroke="#000" y2="6"></line><text fill="#000" y="9" dy="0.71em"></text></g></g><g class="axis axis--y" fill="none" font-size="10" font-family="sans-serif" text-anchor="end"><path class="domain" stroke="#000" d="M-6,310.5H0.5V0.5H-6"></path><g class="tick" opacity="1" transform="translate(0,310.5)"><line stroke="#000" x2="-6"></line><text fill="#000" x="-9" dy="0.32em">0</text></g><g class="tick" opacity="1" transform="translate(0,270.5515463917526)"><line stroke="#000" x2="-6"></line><text fill="#000" x="-9" dy="0.32em">50</text></g><g class="tick" opacity="1" transform="translate(0,230.60309278350516)"><line stroke="#000" x2="-6"></line><text fill="#000" x="-9" dy="0.32em">100</text></g><g class="tick" opacity="1" transform="translate(0,190.65463917525773)"><line stroke="#000" x2="-6"></line><text fill="#000" x="-9" dy="0.32em">150</text></g><g class="tick" opacity="1" transform="translate(0,150.70618556701032)"><line stroke="#000" x2="-6"></line><text fill="#000" x="-9" dy="0.32em">200</text></g><g class="tick" opacity="1" transform="translate(0,110.75773195876286)"><line stroke="#000" x2="-6"></line><text fill="#000" x="-9" dy="0.32em">250</text></g><g class="tick" opacity="1" transform="translate(0,70.80927835051546)"><line stroke="#000" x2="-6"></line><text fill="#000" x="-9" dy="0.32em">300</text></g><g class="tick" opacity="1" transform="translate(0,30.86082474226805)"><line stroke="#000" x2="-6"></line><text fill="#000" x="-9" dy="0.32em">350</text></g></g></g></svg>