<svg xmlns="http://www.w3.org/2000/svg" width="280" height="160"><defs><style type="text/css"><![CDATA[ 
.bar rect {
  fill-opacity: 0;
  stroke:       black;
  stroke-width: 0.5;
}

.highlight rect {
  fill:       red;
  fill-opacity: 1;
}
.axis path,
.axis line {
  fill: none;
  stroke: #000;
  shape-rendering: crispEdges;
}
path {
    stroke: red;
    fill: none;
}

line {
    stroke: red;
}

path.marker {
    fill: red;
}
 ]]></style></defs><g transform="translate(50,10)"><g class="bar" transform="translate(0,120)"><rect x="1" width="11.5" height="0"></rect></g><g class="bar" transform="translate(12.5,120)"><rect x="1" width="11.5" height="0"></rect></g><g class="bar" transform="translate(25,120)"><rect x="1" width="11.5" height="0"></rect></g><g class="bar" transform="translate(37.5,120)"><rect x="1" width="11.5" height="0"></rect></g><g class="bar" transform="translate(50,120)"><rect x="1" width="11.5" height="0"></rect></g><g class="bar" transform="translate(62.5,120)"><rect x="1" width="11.5" height="0"></rect></g><g class="bar" transform="translate(75,63.15789473684211)"><rect x="1" width="11.5" height="56.84210526315789"></rect></g><g class="bar" transform="translate(87.5,0)"><rect x="1" width="11.5" height="120"></rect></g><g class="bar" transform="translate(100,3.4008097165991984)"><rect x="1" width="11.5" height="116.5991902834008"></rect></g><g class="bar" transform="translate(112.5,35.70850202429149)"><rect x="1" width="11.5" height="84.29149797570851"></rect></g><g class="bar" transform="translate(125,86.47773279352226)"><rect x="1" width="11.5" height="33.522267206477736"></rect></g><g class="bar" transform="translate(137.5,110.2834008097166)"><rect x="1" width="11.5" height="9.716599190283404"></rect></g><g class="bar" transform="translate(150,117.81376518218623)"><rect x="1" width="11.5" height="2.1862348178137694"></rect></g><g class="bar" transform="translate(162.5,119.51417004048584)"><rect x="1" width="11.5" height="0.4858299595141631"></rect></g><g class="bar" transform="translate(175,120)"><rect x="1" width="11.5" height="0"></rect></g><g class="bar" transform="translate(187.5,120)"><rect x="1" width="11.5" height="0"></rect></g></g></svg>