<svg xmlns="http://www.w3.org/2000/svg" width="600" height="350"><defs><style type="text/css"><![CDATA[ 
.bar rect {
  fill-opacity: 0;
  stroke:       black;
  stroke-width: 0.5;
}

.highlight rect {
  fill:       red;
  fill-opacity: 1;
}
.axis path,
.axis line {
  fill: none;
  stroke: #000;
  shape-rendering: crispEdges;
}
path {
    stroke: red;
    fill: none;
}

line {
    stroke: red;
}

path.marker {
    fill: red;
}
 ]]></style></defs><g transform="translate(50,10)"><g class="bar" transform="translate(0,309.1448275862069)"><rect x="1" width="5.500000000000005" height="0.8551724137931274"></rect></g><g class="bar" transform="translate(6.500000000000005,310)"><rect x="1" width="5.500000000000005" height="0"></rect></g><g class="bar" transform="translate(12.999999999999996,309.57241379310346)"><rect x="1" width="5.500000000000005" height="0.42758620689653526"></rect></g><g class="bar" transform="translate(19.500000000000004,307.86206896551727)"><rect x="1" width="5.500000000000005" height="2.137931034482733"></rect></g><g class="bar" transform="translate(25.999999999999993,306.5793103448276)"><rect x="1" width="5.500000000000005" height="3.4206896551723958"></rect></g><g class="bar" transform="translate(32.5,307.00689655172414)"><rect x="1" width="5.500000000000005" height="2.9931034482758605"></rect></g><g class="bar" transform="translate(39.00000000000001,307.4344827586207)"><rect x="1" width="5.500000000000005" height="2.5655172413793252"></rect></g><g class="bar" transform="translate(45.500000000000014,307.4344827586207)"><rect x="1" width="5.500000000000005" height="2.5655172413793252"></rect></g><g class="bar" transform="translate(52,308.71724137931034)"><rect x="1" width="5.500000000000005" height="1.2827586206896626"></rect></g><g class="bar" transform="translate(58.49999999999999,301.0206896551724)"><rect x="1" width="5.500000000000005" height="8.979310344827582"></rect></g><g class="bar" transform="translate(65,306.5793103448276)"><rect x="1" width="5.500000000000005" height="3.4206896551723958"></rect></g><g class="bar" transform="translate(71.5,306.151724137931)"><rect x="1" width="5.500000000000005" height="3.848275862068988"></rect></g><g class="bar" transform="translate(78.00000000000001,301.0206896551724)"><rect x="1" width="5.500000000000005" height="8.979310344827582"></rect></g><g class="bar" transform="translate(84.5,286.9103448275862)"><rect x="1" width="5.500000000000005" height="23.089655172413813"></rect></g><g class="bar" transform="translate(91.00000000000001,284.3448275862069)"><rect x="1" width="5.500000000000005" height="25.655172413793082"></rect></g><g class="bar" transform="translate(97.5,266.3862068965517)"><rect x="1" width="5.500000000000005" height="43.6137931034483"></rect></g><g class="bar" transform="translate(104,236.88275862068966)"><rect x="1" width="5.500000000000005" height="73.11724137931034"></rect></g><g class="bar" transform="translate(110.50000000000001,192.84137931034485)"><rect x="1" width="5.500000000000005" height="117.15862068965515"></rect></g><g class="bar" transform="translate(117,154.7862068965517)"><rect x="1" width="5.500000000000005" height="155.2137931034483"></rect></g><g class="bar" transform="translate(123.50000000000001,102.19310344827585)"><rect x="1" width="5.500000000000005" height="207.80689655172415"></rect></g><g class="bar" transform="translate(130,62.85517241379313)"><rect x="1" width="5.500000000000005" height="247.14482758620687"></rect></g><g class="bar" transform="translate(136.5,25.65517241379314)"><rect x="1" width="5.500000000000005" height="284.34482758620686"></rect></g><g class="bar" transform="translate(143,0)"><rect x="1" width="5.500000000000005" height="310"></rect></g><g class="bar" transform="translate(149.50000000000003,1.2827586206896626)"><rect x="1" width="5.500000000000005" height="308.71724137931034"></rect></g><g class="bar" transform="translate(156.00000000000003,34.63448275862072)"><rect x="1" width="5.500000000000005" height="275.3655172413793"></rect></g><g class="bar" transform="translate(162.5,55.586206896551744)"><rect x="1" width="5.500000000000005" height="254.41379310344826"></rect></g><g class="bar" transform="translate(169,101.76551724137931)"><rect x="1" width="5.500000000000005" height="208.2344827586207"></rect></g><g class="bar" transform="translate(175.5,113.31034482758619)"><rect x="1" width="5.500000000000005" height="196.6896551724138"></rect></g><g class="bar" transform="translate(182.00000000000003,137.68275862068964)"><rect x="1" width="5.500000000000005" height="172.31724137931036"></rect></g><g class="bar" transform="translate(188.50000000000003,167.18620689655174)"><rect x="1" width="5.500000000000005" height="142.81379310344826"></rect></g><g class="bar" transform="translate(195,182.15172413793104)"><rect x="1" width="5.500000000000005" height="127.84827586206896"></rect></g><g class="bar" transform="translate(201.5,193.26896551724138)"><rect x="1" width="5.500000000000005" height="116.73103448275862"></rect></g><g class="bar" transform="translate(208,215.9310344827586)"><rect x="1" width="5.500000000000005" height="94.0689655172414"></rect></g><g class="bar" transform="translate(214.50000000000003,216.35862068965517)"><rect x="1" width="5.500000000000005" height="93.64137931034483"></rect></g><g class="bar" transform="translate(221.00000000000003,230.04137931034484)"><rect x="1" width="5.500000000000005" height="79.95862068965516"></rect></g><g class="bar" transform="translate(227.5,227.90344827586205)"><rect x="1" width="5.500000000000005" height="82.09655172413795"></rect></g><g class="bar" transform="translate(234,238.59310344827588)"><rect x="1" width="5.500000000000005" height="71.40689655172412"></rect></g><g class="bar" transform="translate(240.5,245.00689655172414)"><rect x="1" width="5.500000000000005" height="64.99310344827586"></rect></g><g class="bar" transform="translate(247.00000000000003,246.71724137931034)"><rect x="1" width="5.500000000000005" height="63.28275862068966"></rect></g><g class="bar" transform="translate(253.50000000000003,251.42068965517242)"><rect x="1" width="5.500000000000005" height="58.579310344827576"></rect></g><g class="bar" transform="translate(260,257.4068965517241)"><rect x="1" width="5.500000000000005" height="52.59310344827588"></rect></g><g class="bar" transform="translate(266.50000000000006,265.1034482758621)"><rect x="1" width="5.500000000000005" height="44.89655172413791"></rect></g><g class="bar" transform="translate(273,271.0896551724138)"><rect x="1" width="5.500000000000005" height="38.91034482758619"></rect></g><g class="bar" transform="translate(279.5,266.8137931034483)"><rect x="1" width="5.500000000000005" height="43.18620689655171"></rect></g><g class="bar" transform="translate(286,264.6758620689655)"><rect x="1" width="5.500000000000005" height="45.3241379310345"></rect></g><g class="bar" transform="translate(292.5,275.7931034482759)"><rect x="1" width="5.500000000000005" height="34.20689655172413"></rect></g><g class="bar" transform="translate(299.00000000000006,273.22758620689655)"><rect x="1" width="5.500000000000005" height="36.77241379310345"></rect></g><g class="bar" transform="translate(305.5,281.7793103448276)"><rect x="1" width="5.500000000000005" height="28.220689655172407"></rect></g><g class="bar" transform="translate(312.00000000000006,286.9103448275862)"><rect x="1" width="5.500000000000005" height="23.089655172413813"></rect></g><g class="bar" transform="translate(318.5,296.31724137931036)"><rect x="1" width="5.500000000000005" height="13.68275862068964"></rect></g><g class="bar" transform="translate(325,299.3103448275862)"><rect x="1" width="5.500000000000005" height="10.68965517241378"></rect></g><g class="bar" transform="translate(331.50000000000006,300.1655172413793)"><rect x="1" width="5.500000000000005" height="9.834482758620709"></rect></g><g class="bar" transform="translate(338,300.1655172413793)"><rect x="1" width="5.500000000000005" height="9.834482758620709"></rect></g><g class="bar" transform="translate(344.50000000000006,303.58620689655174)"><rect x="1" width="5.500000000000005" height="6.413793103448256"></rect></g><g class="bar" transform="translate(351,305.7241379310345)"><rect x="1" width="5.500000000000005" height="4.275862068965523"></rect></g><g class="bar" transform="translate(357.5,304.4413793103448)"><rect x="1" width="5.500000000000005" height="5.558620689655186"></rect></g><g class="bar" transform="translate(364.00000000000006,307.4344827586207)"><rect x="1" width="5.500000000000005" height="2.5655172413793252"></rect></g><g class="bar" transform="translate(370.5,304.8689655172414)"><rect x="1" width="5.500000000000005" height="5.131034482758594"></rect></g><g class="bar" transform="translate(377.00000000000006,309.1448275862069)"><rect x="1" width="5.500000000000005" height="0.8551724137931274"></rect></g><g class="bar" transform="translate(383.5,307.86206896551727)"><rect x="1" width="5.500000000000005" height="2.137931034482733"></rect></g><g class="bar" transform="translate(390,309.1448275862069)"><rect x="1" width="5.500000000000005" height="0.8551724137931274"></rect></g><g class="bar" transform="translate(396.50000000000006,307.86206896551727)"><rect x="1" width="5.500000000000005" height="2.137931034482733"></rect></g><g class="bar" transform="translate(403,308.2896551724138)"><rect x="1" width="5.500000000000005" height="1.7103448275861979"></rect></g><g class="bar" transform="translate(409.50000000000006,308.71724137931034)"><rect x="1" width="5.500000000000005" height="1.2827586206896626"></rect></g><g class="bar" transform="translate(416,309.1448275862069)"><rect x="1" width="5.500000000000005" height="0.8551724137931274"></rect></g><g class="bar" transform="translate(422.5,310)"><rect x="1" width="5.500000000000005" height="0"></rect></g><g class="bar" transform="translate(429.00000000000006,310)"><rect x="1" width="5.500000000000005" height="0"></rect></g><g class="bar" transform="translate(435.5,310)"><rect x="1" width="5.500000000000005" height="0"></rect></g><g class="bar" transform="translate(442.00000000000006,310)"><rect x="1" width="5.500000000000005" height="0"></rect></g><g class="bar" transform="translate(448.5,310)"><rect x="1" width="5.500000000000005" height="0"></rect></g><g class="bar" transform="translate(455,310)"><rect x="1" width="5.500000000000005" height="0"></rect></g><g class="bar" transform="translate(461.50000000000006,310)"><rect x="1" width="5.500000000000005" height="0"></rect></g><g class="bar" transform="translate(468,310)"><rect x="1" width="5.500000000000005" height="0"></rect></g><g class="bar" transform="translate(474.50000000000006,310)"><rect x="1" width="5.500000000000005" height="0"></rect></g><g class="bar" transform="translate(481,310)"><rect x="1" width="5.500000000000005" height="0"></rect></g><g class="bar" transform="translate(487.5,310)"><rect x="1" width="5.500000000000005" height="0"></rect></g><g class="bar" transform="translate(494.00000000000006,310)"><rect x="1" width="5.500000000000005" height="0"></rect></g><g class="bar" transform="translate(500.5,310)"><rect x="1" width="5.500000000000005" height="0"></rect></g><g class="bar" transform="translate(507.00000000000006,310)"><rect x="1" width="5.500000000000005" height="0"></rect></g><g class="bar" transform="translate(513.5,310)"><rect x="1" width="5.500000000000005" height="0"></rect></g><g class="axis axis--x" transform="translate(0,310)" fill="none" font-size="10" font-family="sans-serif" text-anchor="middle"><path class="domain" stroke="#000" d="M0.5,6V0.5H520.5V6"></path><g class="tick" opacity="1" transform="translate(0.5,0)"><line stroke="#000" y2="6"></line><text fill="#000" y="9" dy="0.71em">0.01</text></g><g class="tick" opacity="1" transform="translate(130.5,0)"><line stroke="#000" y2="6"></line><text fill="#000" y="9" dy="0.71em">1</text></g><g class="tick" opacity="1" transform="translate(260.5,0)"><line stroke="#000" y2="6"></line><text fill="#000" y="9" dy="0.71em">100</text></g><g class="tick" opacity="1" transform="translate(390.5,0)"><line stroke="#000" y2="6"></line><text fill="#000" y="9" dy="0.71em">10000</text></g><g class="tick" opacity="1" transform="translate(520.5,0)"><line stroke="#000" y2="6"></line><text fill="#000" y="9" dy="0.71em"></text></g></g><g class="axis axis--y" fill="none" font-size="10" font-family="sans-serif" text-anchor="end"><path class="domain" stroke="#000" d="M-6,310.5H0.5V0.5H-6"></path><g class="tick" opacity="1" transform="translate(0,310.5)"><line stroke="#000" x2="-6"></line><text fill="#000" x="-9" dy="0.32em">0</text></g><g class="tick" opacity="1" transform="translate(0,267.7413793103448)"><line stroke="#000" x2="-6"></line><text fill="#000" x="-9" dy="0.32em">100</text></g><g class="tick" opacity="1" transform="translate(0,224.98275862068965)"><line stroke="#000" x2="-6"></line><text fill="#000" x="-9" dy="0.32em">200</text></g><g class="tick" opacity="1" transform="translate(0,182.22413793103448)"><line stroke="#000" x2="-6"></line><text fill="#000" x="-9" dy="0.32em">300</text></g><g class="tick" opacity="1" transform="translate(0,139.4655172413793)"><line stroke="#000" x2="-6"></line><text fill="#000" x="-9" dy="0.32em">400</text></g><g class="tick" opacity="1" transform="translate(0,96.70689655172413)"><line stroke="#000" x2="-6"></line><text fill="#000" x="-9" dy="0.32em">500</text></g><g class="tick" opacity="1" transform="translate(0,53.948275862068954)"><line stroke="#000" x2="-6"></line><text fill="#000" x="-9" dy="0.32em">600</text></g><g class="tick" opacity="1" transform="translate(0,11.18965517241378)"><line stroke="#000" x2="-6"></line><text fill="#000" x="-9" dy="0.32em">700</text></g></g></g></svg>