<svg xmlns="http://www.w3.org/2000/svg" width="280" height="160"><defs><style type="text/css"><![CDATA[ 
.bar rect {
  fill-opacity: 0;
  stroke:       black;
  stroke-width: 0.5;
}

.highlight rect {
  fill:       red;
  fill-opacity: 1;
}
.axis path,
.axis line {
  fill: none;
  stroke: #000;
  shape-rendering: crispEdges;
}
path {
    stroke: red;
    fill: none;
}

line {
    stroke: red;
}

path.marker {
    fill: red;
}
 ]]></style></defs><g transform="translate(50,10)"><g class="bar" transform="translate(0,119.4241151769646)"><rect x="1" width="11.5" height="0.5758848230353948"></rect></g><g class="bar" transform="translate(12.5,118.45230953809238)"><rect x="1" width="11.5" height="1.5476904619076208"></rect></g><g class="bar" transform="translate(25,114.52909418116377)"><rect x="1" width="11.5" height="5.470905818836229"></rect></g><g class="bar" transform="translate(37.5,69.75404919016196)"><rect x="1" width="11.5" height="50.245950809838035"></rect></g><g class="bar" transform="translate(50,0)"><rect x="1" width="11.5" height="120"></rect></g><g class="bar" transform="translate(62.5,37.972405518896224)"><rect x="1" width="11.5" height="82.02759448110378"></rect></g><g class="bar" transform="translate(75,76.88062387522496)"><rect x="1" width="11.5" height="43.119376124775044"></rect></g><g class="bar" transform="translate(87.5,91.3497300539892)"><rect x="1" width="11.5" height="28.650269946010795"></rect></g><g class="bar" transform="translate(100,101.06778644271145)"><rect x="1" width="11.5" height="18.93221355728855"></rect></g><g class="bar" transform="translate(112.5,108.55428914217157)"><rect x="1" width="11.5" height="11.44571085782843"></rect></g><g class="bar" transform="translate(125,116.54469106178765)"><rect x="1" width="11.5" height="3.4553089382123545"></rect></g><g class="bar" transform="translate(137.5,118.63227354529094)"><rect x="1" width="11.5" height="1.3677264547090573"></rect></g><g class="bar" transform="translate(150,119.4241151769646)"><rect x="1" width="11.5" height="0.5758848230353948"></rect></g><g class="bar" transform="translate(162.5,120)"><rect x="1" width="11.5" height="0"></rect></g><g class="bar" transform="translate(175,120)"><rect x="1" width="11.5" height="0"></rect></g><g class="bar" transform="translate(187.5,120)"><rect x="1" width="11.5" height="0"></rect></g></g></svg>