<svg xmlns="http://www.w3.org/2000/svg" width="600" height="350"><defs><style type="text/css"><![CDATA[ 
.bar rect {
  fill-opacity: 0;
  stroke:       black;
  stroke-width: 0.5;
}

.highlight rect {
  fill:       red;
  fill-opacity: 1;
}
.axis path,
.axis line {
  fill: none;
  stroke: #000;
  shape-rendering: crispEdges;
}
 ]]></style></defs><g transform="translate(50,10)"><g class="bar" transform="translate(0,294.75409836065575)"><rect x="1" width="11.999999999999996" height="15.245901639344254"></rect></g><g class="bar" transform="translate(12.999999999999996,283.3196721311475)"><rect x="1" width="11.999999999999996" height="26.680327868852487"></rect></g><g class="bar" transform="translate(25.999999999999993,299.8360655737705)"><rect x="1" width="11.999999999999996" height="10.163934426229503"></rect></g><g class="bar" transform="translate(39.00000000000001,289.672131147541)"><rect x="1" width="11.999999999999996" height="20.327868852459005"></rect></g><g class="bar" transform="translate(52,268.07377049180326)"><rect x="1" width="11.999999999999996" height="41.92622950819674"></rect></g><g class="bar" transform="translate(65,265.5327868852459)"><rect x="1" width="11.999999999999996" height="44.46721311475409"></rect></g><g class="bar" transform="translate(78.00000000000001,252.827868852459)"><rect x="1" width="11.999999999999996" height="57.172131147540995"></rect></g><g class="bar" transform="translate(91.00000000000001,188.0327868852459)"><rect x="1" width="11.999999999999996" height="121.96721311475409"></rect></g><g class="bar" transform="translate(104,207.09016393442624)"><rect x="1" width="11.999999999999996" height="102.90983606557376"></rect></g><g class="bar" transform="translate(117,153.72950819672133)"><rect x="1" width="11.999999999999996" height="156.27049180327867"></rect></g><g class="bar" transform="translate(130,143.5655737704918)"><rect x="1" width="11.999999999999996" height="166.4344262295082"></rect></g><g class="bar" transform="translate(143,120.69672131147541)"><rect x="1" width="11.999999999999996" height="189.30327868852459"></rect></g><g class="bar" transform="translate(156.00000000000003,104.18032786885246)"><rect x="1" width="11.999999999999996" height="205.81967213114754"></rect></g><g class="bar" transform="translate(169,64.7950819672131)"><rect x="1" width="11.999999999999996" height="245.2049180327869"></rect></g><g class="bar" transform="translate(182.00000000000003,50.81967213114751)"><rect x="1" width="11.999999999999996" height="259.1803278688525"></rect></g><g class="bar" transform="translate(195,47.00819672131149)"><rect x="1" width="11.999999999999996" height="262.9918032786885"></rect></g><g class="bar" transform="translate(208,0)"><rect x="1" width="11.999999999999996" height="310"></rect></g><g class="bar" transform="translate(221.00000000000003,30.491803278688508)"><rect x="1" width="11.999999999999996" height="279.5081967213115"></rect></g><g class="bar" transform="translate(234,39.38524590163934)"><rect x="1" width="11.999999999999996" height="270.61475409836066"></rect></g><g class="bar" transform="translate(247.00000000000003,7.622950819672155)"><rect x="1" width="11.999999999999996" height="302.37704918032784"></rect></g><g class="bar" transform="translate(260,47.00819672131149)"><rect x="1" width="11.999999999999996" height="262.9918032786885"></rect></g><g class="bar" transform="translate(273,59.71311475409837)"><rect x="1" width="11.999999999999996" height="250.28688524590163"></rect></g><g class="bar" transform="translate(286,87.66393442622953)"><rect x="1" width="11.999999999999996" height="222.33606557377047"></rect></g><g class="bar" transform="translate(299.00000000000006,139.75409836065572)"><rect x="1" width="11.999999999999996" height="170.24590163934428"></rect></g><g class="bar" transform="translate(312.00000000000006,177.8688524590164)"><rect x="1" width="11.999999999999996" height="132.1311475409836"></rect></g><g class="bar" transform="translate(325,185.4918032786885)"><rect x="1" width="11.999999999999996" height="124.50819672131149"></rect></g><g class="bar" transform="translate(338,215.98360655737704)"><rect x="1" width="11.999999999999996" height="94.01639344262296"></rect></g><g class="bar" transform="translate(351,246.47540983606558)"><rect x="1" width="11.999999999999996" height="63.52459016393442"></rect></g><g class="bar" transform="translate(364.00000000000006,276.9672131147541)"><rect x="1" width="11.999999999999996" height="33.03278688524591"></rect></g><g class="bar" transform="translate(377.00000000000006,303.6475409836066)"><rect x="1" width="11.999999999999996" height="6.352459016393425"></rect></g><g class="bar" transform="translate(390,304.91803278688525)"><rect x="1" width="11.999999999999996" height="5.081967213114751"></rect></g><g class="bar" transform="translate(403,307.4590163934426)"><rect x="1" width="11.999999999999996" height="2.540983606557404"></rect></g><g class="bar" transform="translate(416,310)"><rect x="1" width="11.999999999999996" height="0"></rect></g><g class="bar" transform="translate(429.00000000000006,310)"><rect x="1" width="11.999999999999996" height="0"></rect></g><g class="bar" transform="translate(442.00000000000006,310)"><rect x="1" width="11.999999999999996" height="0"></rect></g><g class="bar" transform="translate(455,310)"><rect x="1" width="11.999999999999996" height="0"></rect></g><g class="bar" transform="translate(468,310)"><rect x="1" width="11.999999999999996" height="0"></rect></g><g class="bar" transform="translate(481,310)"><rect x="1" width="11.999999999999996" height="0"></rect></g><g class="bar" transform="translate(494.00000000000006,310)"><rect x="1" width="11.999999999999996" height="0"></rect></g><g class="bar" transform="translate(507.00000000000006,310)"><rect x="1" width="11.999999999999996" height="0"></rect></g><g class="axis axis--x" transform="translate(0,310)" fill="none" font-size="10" font-family="sans-serif" text-anchor="middle"><path class="domain" stroke="#000" d="M0.5,6V0.5H520.5V6"></path><g class="tick" opacity="1" transform="translate(0,0)"><line stroke="#000" y2="6" x1="0.5" x2="0.5"></line><text fill="#000" y="9" x="0.5" dy="0.71em">0.01</text></g><g class="tick" opacity="1" transform="translate(130,0)"><line stroke="#000" y2="6" x1="0.5" x2="0.5"></line><text fill="#000" y="9" x="0.5" dy="0.71em">1</text></g><g class="tick" opacity="1" transform="translate(260,0)"><line stroke="#000" y2="6" x1="0.5" x2="0.5"></line><text fill="#000" y="9" x="0.5" dy="0.71em">100</text></g><g class="tick" opacity="1" transform="translate(390,0)"><line stroke="#000" y2="6" x1="0.5" x2="0.5"></line><text fill="#000" y="9" x="0.5" dy="0.71em">10000</text></g><g class="tick" opacity="1" transform="translate(520,0)"><line stroke="#000" y2="6" x1="0.5" x2="0.5"></line><text fill="#000" y="9" x="0.5" dy="0.71em"></text></g></g><g class="axis axis--y" fill="none" font-size="10" font-family="sans-serif" text-anchor="end"><path class="domain" stroke="#000" d="M-6,310.5H0.5V0.5H-6"></path><g class="tick" opacity="1" transform="translate(0,310)"><line stroke="#000" x2="-6" y1="0.5" y2="0.5"></line><text fill="#000" x="-9" y="0.5" dy="0.32em">0</text></g><g class="tick" opacity="1" transform="translate(0,284.59016393442624)"><line stroke="#000" x2="-6" y1="0.5" y2="0.5"></line><text fill="#000" x="-9" y="0.5" dy="0.32em">20</text></g><g class="tick" opacity="1" transform="translate(0,259.1803278688525)"><line stroke="#000" x2="-6" y1="0.5" y2="0.5"></line><text fill="#000" x="-9" y="0.5" dy="0.32em">40</text></g><g class="tick" opacity="1" transform="translate(0,233.77049180327867)"><line stroke="#000" x2="-6" y1="0.5" y2="0.5"></line><text fill="#000" x="-9" y="0.5" dy="0.32em">60</text></g><g class="tick" opacity="1" transform="translate(0,208.36065573770492)"><line stroke="#000" x2="-6" y1="0.5" y2="0.5"></line><text fill="#000" x="-9" y="0.5" dy="0.32em">80</text></g><g class="tick" opacity="1" transform="translate(0,182.95081967213116)"><line stroke="#000" x2="-6" y1="0.5" y2="0.5"></line><text fill="#000" x="-9" y="0.5" dy="0.32em">100</text></g><g class="tick" opacity="1" transform="translate(0,157.54098360655738)"><line stroke="#000" x2="-6" y1="0.5" y2="0.5"></line><text fill="#000" x="-9" y="0.5" dy="0.32em">120</text></g><g class="tick" opacity="1" transform="translate(0,132.13114754098362)"><line stroke="#000" x2="-6" y1="0.5" y2="0.5"></line><text fill="#000" x="-9" y="0.5" dy="0.32em">140</text></g><g class="tick" opacity="1" transform="translate(0,106.72131147540986)"><line stroke="#000" x2="-6" y1="0.5" y2="0.5"></line><text fill="#000" x="-9" y="0.5" dy="0.32em">160</text></g><g class="tick" opacity="1" transform="translate(0,81.31147540983605)"><line stroke="#000" x2="-6" y1="0.5" y2="0.5"></line><text fill="#000" x="-9" y="0.5" dy="0.32em">180</text></g><g class="tick" opacity="1" transform="translate(0,55.90163934426229)"><line stroke="#000" x2="-6" y1="0.5" y2="0.5"></line><text fill="#000" x="-9" y="0.5" dy="0.32em">200</text></g><g class="tick" opacity="1" transform="translate(0,30.491803278688508)"><line stroke="#000" x2="-6" y1="0.5" y2="0.5"></line><text fill="#000" x="-9" y="0.5" dy="0.32em">220</text></g><g class="tick" opacity="1" transform="translate(0,5.081967213114751)"><line stroke="#000" x2="-6" y1="0.5" y2="0.5"></line><text fill="#000" x="-9" y="0.5" dy="0.32em">240</text></g></g></g></svg>