<svg xmlns="http://www.w3.org/2000/svg" width="600" height="350"><defs><style type="text/css"><![CDATA[ 
.bar rect {
  fill-opacity: 0;
  stroke:       black;
  stroke-width: 0.5;
}

.highlight rect {
  fill:       red;
  fill-opacity: 1;
}
.axis path,
.axis line {
  fill: none;
  stroke: #000;
  shape-rendering: crispEdges;
}
path {
    stroke: red;
    fill: none;
}

line {
    stroke: red;
}

path.marker {
    fill: red;
}
 ]]></style></defs><g transform="translate(50,10)"><g class="bar" transform="translate(0,310)"><rect x="1" width="11.999999999999996" height="0"></rect></g><g class="bar" transform="translate(12.999999999999996,310)"><rect x="1" width="11.999999999999996" height="0"></rect></g><g class="bar" transform="translate(25.999999999999993,305.7241379310345)"><rect x="1" width="11.999999999999996" height="4.275862068965523"></rect></g><g class="bar" transform="translate(39.00000000000001,305.01149425287355)"><rect x="1" width="11.999999999999996" height="4.988505747126453"></rect></g><g class="bar" transform="translate(52,293.60919540229884)"><rect x="1" width="11.999999999999996" height="16.390804597701162"></rect></g><g class="bar" transform="translate(65,280.7816091954023)"><rect x="1" width="11.999999999999996" height="29.218390804597675"></rect></g><g class="bar" transform="translate(78.00000000000001,257.97701149425285)"><rect x="1" width="11.999999999999996" height="52.02298850574715"></rect></g><g class="bar" transform="translate(91.00000000000001,240.8735632183908)"><rect x="1" width="11.999999999999996" height="69.12643678160919"></rect></g><g class="bar" transform="translate(104,220.20689655172413)"><rect x="1" width="11.999999999999996" height="89.79310344827587"></rect></g><g class="bar" transform="translate(117,201.67816091954023)"><rect x="1" width="11.999999999999996" height="108.32183908045977"></rect></g><g class="bar" transform="translate(130,164.6206896551724)"><rect x="1" width="11.999999999999996" height="145.3793103448276"></rect></g><g class="bar" transform="translate(143,115.44827586206895)"><rect x="1" width="11.999999999999996" height="194.55172413793105"></rect></g><g class="bar" transform="translate(156.00000000000003,83.37931034482759)"><rect x="1" width="11.999999999999996" height="226.6206896551724"></rect></g><g class="bar" transform="translate(169,54.873563218390814)"><rect x="1" width="11.999999999999996" height="255.1264367816092"></rect></g><g class="bar" transform="translate(182.00000000000003,40.62068965517244)"><rect x="1" width="11.999999999999996" height="269.37931034482756"></rect></g><g class="bar" transform="translate(195,32.781609195402325)"><rect x="1" width="11.999999999999996" height="277.2183908045977"></rect></g><g class="bar" transform="translate(208,0)"><rect x="1" width="11.999999999999996" height="310"></rect></g><g class="bar" transform="translate(221.00000000000003,42.045977011494244)"><rect x="1" width="11.999999999999996" height="267.95402298850576"></rect></g><g class="bar" transform="translate(234,56.29885057471262)"><rect x="1" width="11.999999999999996" height="253.70114942528738"></rect></g><g class="bar" transform="translate(247.00000000000003,52.02298850574715)"><rect x="1" width="11.999999999999996" height="257.97701149425285"></rect></g><g class="bar" transform="translate(260,128.27586206896552)"><rect x="1" width="11.999999999999996" height="181.72413793103448"></rect></g><g class="bar" transform="translate(273,135.4022988505747)"><rect x="1" width="11.999999999999996" height="174.5977011494253"></rect></g><g class="bar" transform="translate(286,183.86206896551727)"><rect x="1" width="11.999999999999996" height="126.13793103448273"></rect></g><g class="bar" transform="translate(299.00000000000006,186)"><rect x="1" width="11.999999999999996" height="124"></rect></g><g class="bar" transform="translate(312.00000000000006,223.77011494252872)"><rect x="1" width="11.999999999999996" height="86.22988505747128"></rect></g><g class="bar" transform="translate(325,248)"><rect x="1" width="11.999999999999996" height="62"></rect></g><g class="bar" transform="translate(338,275.7931034482759)"><rect x="1" width="11.999999999999996" height="34.20689655172413"></rect></g><g class="bar" transform="translate(351,285.0574712643678)"><rect x="1" width="11.999999999999996" height="24.94252873563221"></rect></g><g class="bar" transform="translate(364.00000000000006,300.02298850574715)"><rect x="1" width="11.999999999999996" height="9.97701149425285"></rect></g><g class="bar" transform="translate(377.00000000000006,301.44827586206895)"><rect x="1" width="11.999999999999996" height="8.551724137931046"></rect></g><g class="bar" transform="translate(390,305.7241379310345)"><rect x="1" width="11.999999999999996" height="4.275862068965523"></rect></g><g class="bar" transform="translate(403,310)"><rect x="1" width="11.999999999999996" height="0"></rect></g><g class="bar" transform="translate(416,310)"><rect x="1" width="11.999999999999996" height="0"></rect></g><g class="bar" transform="translate(429.00000000000006,309.28735632183907)"><rect x="1" width="11.999999999999996" height="0.71264367816093"></rect></g><g class="bar" transform="translate(442.00000000000006,310)"><rect x="1" width="11.999999999999996" height="0"></rect></g><g class="bar" transform="translate(455,310)"><rect x="1" width="11.999999999999996" height="0"></rect></g><g class="bar" transform="translate(468,310)"><rect x="1" width="11.999999999999996" height="0"></rect></g><g class="bar" transform="translate(481,310)"><rect x="1" width="11.999999999999996" height="0"></rect></g><g class="bar" transform="translate(494.00000000000006,310)"><rect x="1" width="11.999999999999996" height="0"></rect></g><g class="bar" transform="translate(507.00000000000006,310)"><rect x="1" width="11.999999999999996" height="0"></rect></g><g class="axis axis--x" transform="translate(0,310)" fill="none" font-size="10" font-family="sans-serif" text-anchor="middle"><path class="domain" stroke="#000" d="M0.5,6V0.5H520.5V6"></path><g class="tick" opacity="1" transform="translate(0.5,0)"><line stroke="#000" y2="6"></line><text fill="#000" y="9" dy="0.71em">0.01</text></g><g class="tick" opacity="1" transform="translate(130.5,0)"><line stroke="#000" y2="6"></line><text fill="#000" y="9" dy="0.71em">1</text></g><g class="tick" opacity="1" transform="translate(260.5,0)"><line stroke="#000" y2="6"></line><text fill="#000" y="9" dy="0.71em">100</text></g><g class="tick" opacity="1" transform="translate(390.5,0)"><line stroke="#000" y2="6"></line><text fill="#000" y="9" dy="0.71em">10000</text></g><g class="tick" opacity="1" transform="translate(520.5,0)"><line stroke="#000" y2="6"></line><text fill="#000" y="9" dy="0.71em"></text></g></g><g class="axis axis--y" fill="none" font-size="10" font-family="sans-serif" text-anchor="end"><path class="domain" stroke="#000" d="M-6,310.5H0.5V0.5H-6"></path><g class="tick" opacity="1" transform="translate(0,310.5)"><line stroke="#000" x2="-6"></line><text fill="#000" x="-9" dy="0.32em">0</text></g><g class="tick" opacity="1" transform="translate(0,274.867816091954)"><line stroke="#000" x2="-6"></line><text fill="#000" x="-9" dy="0.32em">50</text></g><g class="tick" opacity="1" transform="translate(0,239.23563218390805)"><line stroke="#000" x2="-6"></line><text fill="#000" x="-9" dy="0.32em">100</text></g><g class="tick" opacity="1" transform="translate(0,203.60344827586206)"><line stroke="#000" x2="-6"></line><text fill="#000" x="-9" dy="0.32em">150</text></g><g class="tick" opacity="1" transform="translate(0,167.9712643678161)"><line stroke="#000" x2="-6"></line><text fill="#000" x="-9" dy="0.32em">200</text></g><g class="tick" opacity="1" transform="translate(0,132.33908045977012)"><line stroke="#000" x2="-6"></line><text fill="#000" x="-9" dy="0.32em">250</text></g><g class="tick" opacity="1" transform="translate(0,96.70689655172413)"><line stroke="#000" x2="-6"></line><text fill="#000" x="-9" dy="0.32em">300</text></g><g class="tick" opacity="1" transform="translate(0,61.07471264367817)"><line stroke="#000" x2="-6"></line><text fill="#000" x="-9" dy="0.32em">350</text></g><g class="tick" opacity="1" transform="translate(0,25.44252873563221)"><line stroke="#000" x2="-6"></line><text fill="#000" x="-9" dy="0.32em">400</text></g></g></g></svg>