<svg xmlns="http://www.w3.org/2000/svg" width="600" height="350"><defs><style type="text/css"><![CDATA[ 
.bar rect {
  fill-opacity: 0;
  stroke:       black;
  stroke-width: 0.5;
}

.highlight rect {
  fill:       red;
  fill-opacity: 1;
}
.axis path,
.axis line {
  fill: none;
  stroke: #000;
  shape-rendering: crispEdges;
}
 ]]></style></defs><g transform="translate(50,10)"><g class="bar" transform="translate(0,310)"><rect x="1" width="5.500000000000005" height="0"></rect></g><g class="bar" transform="translate(6.500000000000005,310)"><rect x="1" width="5.500000000000005" height="0"></rect></g><g class="bar" transform="translate(12.999999999999996,310)"><rect x="1" width="5.500000000000005" height="0"></rect></g><g class="bar" transform="translate(19.500000000000004,310)"><rect x="1" width="5.500000000000005" height="0"></rect></g><g class="bar" transform="translate(25.999999999999993,310)"><rect x="1" width="5.500000000000005" height="0"></rect></g><g class="bar" transform="translate(32.5,310)"><rect x="1" width="5.500000000000005" height="0"></rect></g><g class="bar" transform="translate(39.00000000000001,310)"><rect x="1" width="5.500000000000005" height="0"></rect></g><g class="bar" transform="translate(45.500000000000014,310)"><rect x="1" width="5.500000000000005" height="0"></rect></g><g class="bar" transform="translate(52,310)"><rect x="1" width="5.500000000000005" height="0"></rect></g><g class="bar" transform="translate(58.49999999999999,310)"><rect x="1" width="5.500000000000005" height="0"></rect></g><g class="bar" transform="translate(65,308.734693877551)"><rect x="1" width="5.500000000000005" height="1.2653061224489761"></rect></g><g class="bar" transform="translate(71.5,310)"><rect x="1" width="5.500000000000005" height="0"></rect></g><g class="bar" transform="translate(78.00000000000001,310)"><rect x="1" width="5.500000000000005" height="0"></rect></g><g class="bar" transform="translate(84.5,310)"><rect x="1" width="5.500000000000005" height="0"></rect></g><g class="bar" transform="translate(91.00000000000001,308.734693877551)"><rect x="1" width="5.500000000000005" height="1.2653061224489761"></rect></g><g class="bar" transform="translate(97.5,310)"><rect x="1" width="5.500000000000005" height="0"></rect></g><g class="bar" transform="translate(104,309.15646258503403)"><rect x="1" width="5.500000000000005" height="0.8435374149659651"></rect></g><g class="bar" transform="translate(110.50000000000001,307.46938775510205)"><rect x="1" width="5.500000000000005" height="2.5306122448979522"></rect></g><g class="bar" transform="translate(117,304.9387755102041)"><rect x="1" width="5.500000000000005" height="5.0612244897959044"></rect></g><g class="bar" transform="translate(123.50000000000001,303.6734693877551)"><rect x="1" width="5.500000000000005" height="6.326530612244881"></rect></g><g class="bar" transform="translate(130,297.3469387755102)"><rect x="1" width="5.500000000000005" height="12.653061224489818"></rect></g><g class="bar" transform="translate(136.5,285.1156462585034)"><rect x="1" width="5.500000000000005" height="24.884353741496625"></rect></g><g class="bar" transform="translate(143,280.4761904761905)"><rect x="1" width="5.500000000000005" height="29.52380952380952"></rect></g><g class="bar" transform="translate(149.50000000000003,250.53061224489795)"><rect x="1" width="5.500000000000005" height="59.46938775510205"></rect></g><g class="bar" transform="translate(156.00000000000003,224.80272108843536)"><rect x="1" width="5.500000000000005" height="85.19727891156464"></rect></g><g class="bar" transform="translate(162.5,190.63945578231295)"><rect x="1" width="5.500000000000005" height="119.36054421768705"></rect></g><g class="bar" transform="translate(169,126.53061224489795)"><rect x="1" width="5.500000000000005" height="183.46938775510205"></rect></g><g class="bar" transform="translate(175.5,83.08843537414967)"><rect x="1" width="5.500000000000005" height="226.91156462585033"></rect></g><g class="bar" transform="translate(182.00000000000003,36.69387755102042)"><rect x="1" width="5.500000000000005" height="273.3061224489796"></rect></g><g class="bar" transform="translate(188.50000000000003,29.102040816326507)"><rect x="1" width="5.500000000000005" height="280.8979591836735"></rect></g><g class="bar" transform="translate(195,0)"><rect x="1" width="5.500000000000005" height="310"></rect></g><g class="bar" transform="translate(201.5,16.027210884353735)"><rect x="1" width="5.500000000000005" height="293.97278911564626"></rect></g><g class="bar" transform="translate(208,36.27210884353741)"><rect x="1" width="5.500000000000005" height="273.7278911564626"></rect></g><g class="bar" transform="translate(214.50000000000003,67.48299319727892)"><rect x="1" width="5.500000000000005" height="242.51700680272108"></rect></g><g class="bar" transform="translate(221.00000000000003,112.1904761904762)"><rect x="1" width="5.500000000000005" height="197.8095238095238"></rect></g><g class="bar" transform="translate(227.5,155.2108843537415)"><rect x="1" width="5.500000000000005" height="154.7891156462585"></rect></g><g class="bar" transform="translate(234,181.36054421768708)"><rect x="1" width="5.500000000000005" height="128.63945578231292"></rect></g><g class="bar" transform="translate(240.5,208.77551020408163)"><rect x="1" width="5.500000000000005" height="101.22448979591837"></rect></g><g class="bar" transform="translate(247.00000000000003,226.91156462585036)"><rect x="1" width="5.500000000000005" height="83.08843537414964"></rect></g><g class="bar" transform="translate(253.50000000000003,220.58503401360542)"><rect x="1" width="5.500000000000005" height="89.41496598639458"></rect></g><g class="bar" transform="translate(260,233.23809523809524)"><rect x="1" width="5.500000000000005" height="76.76190476190476"></rect></g><g class="bar" transform="translate(266.50000000000006,239.98639455782313)"><rect x="1" width="5.500000000000005" height="70.01360544217687"></rect></g><g class="bar" transform="translate(273,239.98639455782313)"><rect x="1" width="5.500000000000005" height="70.01360544217687"></rect></g><g class="bar" transform="translate(279.5,258.5442176870748)"><rect x="1" width="5.500000000000005" height="51.45578231292518"></rect></g><g class="bar" transform="translate(286,256.85714285714283)"><rect x="1" width="5.500000000000005" height="53.14285714285717"></rect></g><g class="bar" transform="translate(292.5,257.27891156462584)"><rect x="1" width="5.500000000000005" height="52.721088435374156"></rect></g><g class="bar" transform="translate(299.00000000000006,254.3265306122449)"><rect x="1" width="5.500000000000005" height="55.67346938775509"></rect></g><g class="bar" transform="translate(305.5,265.7142857142857)"><rect x="1" width="5.500000000000005" height="44.28571428571428"></rect></g><g class="bar" transform="translate(312.00000000000006,275.83673469387753)"><rect x="1" width="5.500000000000005" height="34.16326530612247"></rect></g><g class="bar" transform="translate(318.5,283.8503401360544)"><rect x="1" width="5.500000000000005" height="26.1496598639456"></rect></g><g class="bar" transform="translate(325,279.6326530612245)"><rect x="1" width="5.500000000000005" height="30.367346938775484"></rect></g><g class="bar" transform="translate(331.50000000000006,290.17687074829934)"><rect x="1" width="5.500000000000005" height="19.823129251700664"></rect></g><g class="bar" transform="translate(338,296.0816326530612)"><rect x="1" width="5.500000000000005" height="13.918367346938794"></rect></g><g class="bar" transform="translate(344.50000000000006,297.7687074829932)"><rect x="1" width="5.500000000000005" height="12.231292517006807"></rect></g><g class="bar" transform="translate(351,306.2040816326531)"><rect x="1" width="5.500000000000005" height="3.7959183673469283"></rect></g><g class="bar" transform="translate(357.5,306.2040816326531)"><rect x="1" width="5.500000000000005" height="3.7959183673469283"></rect></g><g class="bar" transform="translate(364.00000000000006,305.36054421768705)"><rect x="1" width="5.500000000000005" height="4.63945578231295"></rect></g><g class="bar" transform="translate(370.5,308.312925170068)"><rect x="1" width="5.500000000000005" height="1.687074829931987"></rect></g><g class="bar" transform="translate(377.00000000000006,308.312925170068)"><rect x="1" width="5.500000000000005" height="1.687074829931987"></rect></g><g class="bar" transform="translate(383.5,310)"><rect x="1" width="5.500000000000005" height="0"></rect></g><g class="bar" transform="translate(390,310)"><rect x="1" width="5.500000000000005" height="0"></rect></g><g class="bar" transform="translate(396.50000000000006,309.578231292517)"><rect x="1" width="5.500000000000005" height="0.421768707483011"></rect></g><g class="bar" transform="translate(403,310)"><rect x="1" width="5.500000000000005" height="0"></rect></g><g class="bar" transform="translate(409.50000000000006,310)"><rect x="1" width="5.500000000000005" height="0"></rect></g><g class="bar" transform="translate(416,310)"><rect x="1" width="5.500000000000005" height="0"></rect></g><g class="bar" transform="translate(422.5,310)"><rect x="1" width="5.500000000000005" height="0"></rect></g><g class="bar" transform="translate(429.00000000000006,310)"><rect x="1" width="5.500000000000005" height="0"></rect></g><g class="bar" transform="translate(435.5,310)"><rect x="1" width="5.500000000000005" height="0"></rect></g><g class="bar" transform="translate(442.00000000000006,310)"><rect x="1" width="5.500000000000005" height="0"></rect></g><g class="bar" transform="translate(448.5,310)"><rect x="1" width="5.500000000000005" height="0"></rect></g><g class="bar" transform="translate(455,310)"><rect x="1" width="5.500000000000005" height="0"></rect></g><g class="bar" transform="translate(461.50000000000006,310)"><rect x="1" width="5.500000000000005" height="0"></rect></g><g class="bar" transform="translate(468,310)"><rect x="1" width="5.500000000000005" height="0"></rect></g><g class="bar" transform="translate(474.50000000000006,310)"><rect x="1" width="5.500000000000005" height="0"></rect></g><g class="bar" transform="translate(481,310)"><rect x="1" width="5.500000000000005" height="0"></rect></g><g class="bar" transform="translate(487.5,310)"><rect x="1" width="5.500000000000005" height="0"></rect></g><g class="bar" transform="translate(494.00000000000006,310)"><rect x="1" width="5.500000000000005" height="0"></rect></g><g class="bar" transform="translate(500.5,310)"><rect x="1" width="5.500000000000005" height="0"></rect></g><g class="bar" transform="translate(507.00000000000006,310)"><rect x="1" width="5.500000000000005" height="0"></rect></g><g class="bar" transform="translate(513.5,310)"><rect x="1" width="5.500000000000005" height="0"></rect></g><g class="axis axis--x" transform="translate(0,310)" fill="none" font-size="10" font-family="sans-serif" text-anchor="middle"><path class="domain" stroke="#000" d="M0.5,6V0.5H520.5V6"></path><g class="tick" opacity="1" transform="translate(0,0)"><line stroke="#000" y2="6" x1="0.5" x2="0.5"></line><text fill="#000" y="9" x="0.5" dy="0.71em">0.01</text></g><g class="tick" opacity="1" transform="translate(130,0)"><line stroke="#000" y2="6" x1="0.5" x2="0.5"></line><text fill="#000" y="9" x="0.5" dy="0.71em">1</text></g><g class="tick" opacity="1" transform="translate(260,0)"><line stroke="#000" y2="6" x1="0.5" x2="0.5"></line><text fill="#000" y="9" x="0.5" dy="0.71em">100</text></g><g class="tick" opacity="1" transform="translate(390,0)"><line stroke="#000" y2="6" x1="0.5" x2="0.5"></line><text fill="#000" y="9" x="0.5" dy="0.71em">10000</text></g><g class="tick" opacity="1" transform="translate(520,0)"><line stroke="#000" y2="6" x1="0.5" x2="0.5"></line><text fill="#000" y="9" x="0.5" dy="0.71em"></text></g></g><g class="axis axis--y" fill="none" font-size="10" font-family="sans-serif" text-anchor="end"><path class="domain" stroke="#000" d="M-6,310.5H0.5V0.5H-6"></path><g class="tick" opacity="1" transform="translate(0,310)"><line stroke="#000" x2="-6" y1="0.5" y2="0.5"></line><text fill="#000" x="-9" y="0.5" dy="0.32em">0</text></g><g class="tick" opacity="1" transform="translate(0,267.82312925170066)"><line stroke="#000" x2="-6" y1="0.5" y2="0.5"></line><text fill="#000" x="-9" y="0.5" dy="0.32em">100</text></g><g class="tick" opacity="1" transform="translate(0,225.64625850340136)"><line stroke="#000" x2="-6" y1="0.5" y2="0.5"></line><text fill="#000" x="-9" y="0.5" dy="0.32em">200</text></g><g class="tick" opacity="1" transform="translate(0,183.46938775510205)"><line stroke="#000" x2="-6" y1="0.5" y2="0.5"></line><text fill="#000" x="-9" y="0.5" dy="0.32em">300</text></g><g class="tick" opacity="1" transform="translate(0,141.2925170068027)"><line stroke="#000" x2="-6" y1="0.5" y2="0.5"></line><text fill="#000" x="-9" y="0.5" dy="0.32em">400</text></g><g class="tick" opacity="1" transform="translate(0,99.1156462585034)"><line stroke="#000" x2="-6" y1="0.5" y2="0.5"></line><text fill="#000" x="-9" y="0.5" dy="0.32em">500</text></g><g class="tick" opacity="1" transform="translate(0,56.93877551020407)"><line stroke="#000" x2="-6" y1="0.5" y2="0.5"></line><text fill="#000" x="-9" y="0.5" dy="0.32em">600</text></g><g class="tick" opacity="1" transform="translate(0,14.76190476190476)"><line stroke="#000" x2="-6" y1="0.5" y2="0.5"></line><text fill="#000" x="-9" y="0.5" dy="0.32em">700</text></g></g></g></svg>