<svg xmlns="http://www.w3.org/2000/svg" width="280" height="160"><defs><style type="text/css"><![CDATA[ 
.bar rect {
  fill-opacity: 0;
  stroke:       black;
  stroke-width: 0.5;
}

.highlight rect {
  fill:       red;
  fill-opacity: 1;
}
.axis path,
.axis line {
  fill: none;
  stroke: #000;
  shape-rendering: crispEdges;
}
path {
    stroke: red;
    fill: none;
}

line {
    stroke: red;
}

path.marker {
    fill: red;
}
 ]]></style></defs><g transform="translate(50,10)"><g class="bar" transform="translate(0,119.70873786407768)"><rect x="1" width="11.5" height="0.29126213592232375"></rect></g><g class="bar" transform="translate(12.5,109.36893203883496)"><rect x="1" width="11.5" height="10.631067961165044"></rect></g><g class="bar" transform="translate(25,88.25242718446603)"><rect x="1" width="11.5" height="31.74757281553397"></rect></g><g class="bar" transform="translate(37.5,47.912621359223294)"><rect x="1" width="11.5" height="72.0873786407767"></rect></g><g class="bar" transform="translate(50,12.233009708737853)"><rect x="1" width="11.5" height="107.76699029126215"></rect></g><g class="bar" transform="translate(62.5,0)"><rect x="1" width="11.5" height="120"></rect></g><g class="bar" transform="translate(75,5.242718446601941)"><rect x="1" width="11.5" height="114.75728155339806"></rect></g><g class="bar" transform="translate(87.5,27.96116504854369)"><rect x="1" width="11.5" height="92.03883495145631"></rect></g><g class="bar" transform="translate(100,46.45631067961165)"><rect x="1" width="11.5" height="73.54368932038835"></rect></g><g class="bar" transform="translate(112.5,69.90291262135923)"><rect x="1" width="11.5" height="50.097087378640765"></rect></g><g class="bar" transform="translate(125,94.2233009708738)"><rect x="1" width="11.5" height="25.776699029126206"></rect></g><g class="bar" transform="translate(137.5,117.52427184466019)"><rect x="1" width="11.5" height="2.4757281553398087"></rect></g><g class="bar" transform="translate(150,118.54368932038835)"><rect x="1" width="11.5" height="1.4563106796116472"></rect></g><g class="bar" transform="translate(162.5,119.5631067961165)"><rect x="1" width="11.5" height="0.43689320388349984"></rect></g><g class="bar" transform="translate(175,120)"><rect x="1" width="11.5" height="0"></rect></g><g class="bar" transform="translate(187.5,120)"><rect x="1" width="11.5" height="0"></rect></g></g></svg>