<svg xmlns="http://www.w3.org/2000/svg" width="600" height="350"><defs><style type="text/css"><![CDATA[ 
.bar rect {
  fill-opacity: 0;
  stroke:       black;
  stroke-width: 0.5;
}

.highlight rect {
  fill:       red;
  fill-opacity: 1;
}
.axis path,
.axis line {
  fill: none;
  stroke: #000;
  shape-rendering: crispEdges;
}
 ]]></style></defs><g transform="translate(50,10)"><g class="bar" transform="translate(0,282.3716012084592)"><rect x="1" width="11.999999999999996" height="27.628398791540803"></rect></g><g class="bar" transform="translate(12.999999999999996,280.49848942598186)"><rect x="1" width="11.999999999999996" height="29.50151057401814"></rect></g><g class="bar" transform="translate(25.999999999999993,257.5528700906344)"><rect x="1" width="11.999999999999996" height="52.44712990936557"></rect></g><g class="bar" transform="translate(39.00000000000001,275.34743202416917)"><rect x="1" width="11.999999999999996" height="34.652567975830834"></rect></g><g class="bar" transform="translate(52,264.10876132930514)"><rect x="1" width="11.999999999999996" height="45.89123867069486"></rect></g><g class="bar" transform="translate(65,255.6797583081571)"><rect x="1" width="11.999999999999996" height="54.32024169184291"></rect></g><g class="bar" transform="translate(78.00000000000001,254.74320241691845)"><rect x="1" width="11.999999999999996" height="55.25679758308155"></rect></g><g class="bar" transform="translate(91.00000000000001,250.99697885196375)"><rect x="1" width="11.999999999999996" height="59.003021148036254"></rect></g><g class="bar" transform="translate(104,230.392749244713)"><rect x="1" width="11.999999999999996" height="79.607250755287"></rect></g><g class="bar" transform="translate(117,213.06646525679758)"><rect x="1" width="11.999999999999996" height="96.93353474320242"></rect></g><g class="bar" transform="translate(130,177.00906344410876)"><rect x="1" width="11.999999999999996" height="132.99093655589124"></rect></g><g class="bar" transform="translate(143,152.6586102719033)"><rect x="1" width="11.999999999999996" height="157.3413897280967"></rect></g><g class="bar" transform="translate(156.00000000000003,68.36858006042297)"><rect x="1" width="11.999999999999996" height="241.63141993957703"></rect></g><g class="bar" transform="translate(169,31.37462235649548)"><rect x="1" width="11.999999999999996" height="278.6253776435045"></rect></g><g class="bar" transform="translate(182.00000000000003,23.41389728096675)"><rect x="1" width="11.999999999999996" height="286.58610271903325"></rect></g><g class="bar" transform="translate(195,7.492447129909351)"><rect x="1" width="11.999999999999996" height="302.50755287009065"></rect></g><g class="bar" transform="translate(208,0)"><rect x="1" width="11.999999999999996" height="310"></rect></g><g class="bar" transform="translate(221.00000000000003,13.111782477341364)"><rect x="1" width="11.999999999999996" height="296.88821752265864"></rect></g><g class="bar" transform="translate(234,46.35951661631418)"><rect x="1" width="11.999999999999996" height="263.6404833836858"></rect></g><g class="bar" transform="translate(247.00000000000003,79.607250755287)"><rect x="1" width="11.999999999999996" height="230.392749244713"></rect></g><g class="bar" transform="translate(260,79.607250755287)"><rect x="1" width="11.999999999999996" height="230.392749244713"></rect></g><g class="bar" transform="translate(273,117.06948640483384)"><rect x="1" width="11.999999999999996" height="192.93051359516616"></rect></g><g class="bar" transform="translate(286,183.56495468277944)"><rect x="1" width="11.999999999999996" height="126.43504531722056"></rect></g><g class="bar" transform="translate(299.00000000000006,202.29607250755288)"><rect x="1" width="11.999999999999996" height="107.70392749244712"></rect></g><g class="bar" transform="translate(312.00000000000006,240.6948640483384)"><rect x="1" width="11.999999999999996" height="69.30513595166161"></rect></g><g class="bar" transform="translate(325,254.74320241691845)"><rect x="1" width="11.999999999999996" height="55.25679758308155"></rect></g><g class="bar" transform="translate(338,290.80060422960725)"><rect x="1" width="11.999999999999996" height="19.199395770392755"></rect></g><g class="bar" transform="translate(351,294.0785498489426)"><rect x="1" width="11.999999999999996" height="15.9214501510574"></rect></g><g class="bar" transform="translate(364.00000000000006,307.19033232628396)"><rect x="1" width="11.999999999999996" height="2.809667673716035"></rect></g><g class="bar" transform="translate(377.00000000000006,308.12688821752266)"><rect x="1" width="11.999999999999996" height="1.8731117824773378"></rect></g><g class="bar" transform="translate(390,308.595166163142)"><rect x="1" width="11.999999999999996" height="1.4048338368580175"></rect></g><g class="bar" transform="translate(403,310)"><rect x="1" width="11.999999999999996" height="0"></rect></g><g class="bar" transform="translate(416,310)"><rect x="1" width="11.999999999999996" height="0"></rect></g><g class="bar" transform="translate(429.00000000000006,310)"><rect x="1" width="11.999999999999996" height="0"></rect></g><g class="bar" transform="translate(442.00000000000006,310)"><rect x="1" width="11.999999999999996" height="0"></rect></g><g class="bar" transform="translate(455,310)"><rect x="1" width="11.999999999999996" height="0"></rect></g><g class="bar" transform="translate(468,310)"><rect x="1" width="11.999999999999996" height="0"></rect></g><g class="bar" transform="translate(481,310)"><rect x="1" width="11.999999999999996" height="0"></rect></g><g class="bar" transform="translate(494.00000000000006,310)"><rect x="1" width="11.999999999999996" height="0"></rect></g><g class="bar" transform="translate(507.00000000000006,310)"><rect x="1" width="11.999999999999996" height="0"></rect></g><g class="axis axis--x" transform="translate(0,310)" fill="none" font-size="10" font-family="sans-serif" text-anchor="middle"><path class="domain" stroke="#000" d="M0.5,6V0.5H520.5V6"></path><g class="tick" opacity="1" transform="translate(0,0)"><line stroke="#000" y2="6" x1="0.5" x2="0.5"></line><text fill="#000" y="9" x="0.5" dy="0.71em">0.01</text></g><g class="tick" opacity="1" transform="translate(130,0)"><line stroke="#000" y2="6" x1="0.5" x2="0.5"></line><text fill="#000" y="9" x="0.5" dy="0.71em">1</text></g><g class="tick" opacity="1" transform="translate(260,0)"><line stroke="#000" y2="6" x1="0.5" x2="0.5"></line><text fill="#000" y="9" x="0.5" dy="0.71em">100</text></g><g class="tick" opacity="1" transform="translate(390,0)"><line stroke="#000" y2="6" x1="0.5" x2="0.5"></line><text fill="#000" y="9" x="0.5" dy="0.71em">10000</text></g><g class="tick" opacity="1" transform="translate(520,0)"><line stroke="#000" y2="6" x1="0.5" x2="0.5"></line><text fill="#000" y="9" x="0.5" dy="0.71em"></text></g></g><g class="axis axis--y" fill="none" font-size="10" font-family="sans-serif" text-anchor="end"><path class="domain" stroke="#000" d="M-6,310.5H0.5V0.5H-6"></path><g class="tick" opacity="1" transform="translate(0,310)"><line stroke="#000" x2="-6" y1="0.5" y2="0.5"></line><text fill="#000" x="-9" y="0.5" dy="0.32em">0</text></g><g class="tick" opacity="1" transform="translate(0,286.58610271903325)"><line stroke="#000" x2="-6" y1="0.5" y2="0.5"></line><text fill="#000" x="-9" y="0.5" dy="0.32em">50</text></g><g class="tick" opacity="1" transform="translate(0,263.1722054380665)"><line stroke="#000" x2="-6" y1="0.5" y2="0.5"></line><text fill="#000" x="-9" y="0.5" dy="0.32em">100</text></g><g class="tick" opacity="1" transform="translate(0,239.7583081570997)"><line stroke="#000" x2="-6" y1="0.5" y2="0.5"></line><text fill="#000" x="-9" y="0.5" dy="0.32em">150</text></g><g class="tick" opacity="1" transform="translate(0,216.34441087613294)"><line stroke="#000" x2="-6" y1="0.5" y2="0.5"></line><text fill="#000" x="-9" y="0.5" dy="0.32em">200</text></g><g class="tick" opacity="1" transform="translate(0,192.93051359516616)"><line stroke="#000" x2="-6" y1="0.5" y2="0.5"></line><text fill="#000" x="-9" y="0.5" dy="0.32em">250</text></g><g class="tick" opacity="1" transform="translate(0,169.51661631419938)"><line stroke="#000" x2="-6" y1="0.5" y2="0.5"></line><text fill="#000" x="-9" y="0.5" dy="0.32em">300</text></g><g class="tick" opacity="1" transform="translate(0,146.1027190332326)"><line stroke="#000" x2="-6" y1="0.5" y2="0.5"></line><text fill="#000" x="-9" y="0.5" dy="0.32em">350</text></g><g class="tick" opacity="1" transform="translate(0,122.68882175226588)"><line stroke="#000" x2="-6" y1="0.5" y2="0.5"></line><text fill="#000" x="-9" y="0.5" dy="0.32em">400</text></g><g class="tick" opacity="1" transform="translate(0,99.2749244712991)"><line stroke="#000" x2="-6" y1="0.5" y2="0.5"></line><text fill="#000" x="-9" y="0.5" dy="0.32em">450</text></g><g class="tick" opacity="1" transform="translate(0,75.86102719033232)"><line stroke="#000" x2="-6" y1="0.5" y2="0.5"></line><text fill="#000" x="-9" y="0.5" dy="0.32em">500</text></g><g class="tick" opacity="1" transform="translate(0,52.44712990936557)"><line stroke="#000" x2="-6" y1="0.5" y2="0.5"></line><text fill="#000" x="-9" y="0.5" dy="0.32em">550</text></g><g class="tick" opacity="1" transform="translate(0,29.033232628398764)"><line stroke="#000" x2="-6" y1="0.5" y2="0.5"></line><text fill="#000" x="-9" y="0.5" dy="0.32em">600</text></g><g class="tick" opacity="1" transform="translate(0,5.619335347432013)"><line stroke="#000" x2="-6" y1="0.5" y2="0.5"></line><text fill="#000" x="-9" y="0.5" dy="0.32em">650</text></g></g></g></svg>