<svg xmlns="http://www.w3.org/2000/svg" width="600" height="350"><defs><style type="text/css"><![CDATA[ 
.bar rect {
  fill-opacity: 0;
  stroke:       black;
  stroke-width: 0.5;
}

.highlight rect {
  fill:       red;
  fill-opacity: 1;
}
.axis path,
.axis line {
  fill: none;
  stroke: #000;
  shape-rendering: crispEdges;
}
path {
    stroke: red;
    fill: none;
}

line {
    stroke: red;
}

path.marker {
    fill: red;
}
 ]]></style></defs><g transform="translate(50,10)"><g class="bar" transform="translate(0,310)"><rect x="1" width="11.999999999999996" height="0"></rect></g><g class="bar" transform="translate(12.999999999999996,310)"><rect x="1" width="11.999999999999996" height="0"></rect></g><g class="bar" transform="translate(25.999999999999993,310)"><rect x="1" width="11.999999999999996" height="0"></rect></g><g class="bar" transform="translate(39.00000000000001,310)"><rect x="1" width="11.999999999999996" height="0"></rect></g><g class="bar" transform="translate(52,310)"><rect x="1" width="11.999999999999996" height="0"></rect></g><g class="bar" transform="translate(65,310)"><rect x="1" width="11.999999999999996" height="0"></rect></g><g class="bar" transform="translate(78.00000000000001,310)"><rect x="1" width="11.999999999999996" height="0"></rect></g><g class="bar" transform="translate(91.00000000000001,309.18635170603676)"><rect x="1" width="11.999999999999996" height="0.8136482939632401"></rect></g><g class="bar" transform="translate(104,301.0498687664042)"><rect x="1" width="11.999999999999996" height="8.950131233595812"></rect></g><g class="bar" transform="translate(117,274.1994750656168)"><rect x="1" width="11.999999999999996" height="35.80052493438319"></rect></g><g class="bar" transform="translate(130,219.68503937007875)"><rect x="1" width="11.999999999999996" height="90.31496062992125"></rect></g><g class="bar" transform="translate(143,205.85301837270342)"><rect x="1" width="11.999999999999996" height="104.14698162729658"></rect></g><g class="bar" transform="translate(156.00000000000003,182.25721784776903)"><rect x="1" width="11.999999999999996" height="127.74278215223097"></rect></g><g class="bar" transform="translate(169,187.13910761154858)"><rect x="1" width="11.999999999999996" height="122.86089238845142"></rect></g><g class="bar" transform="translate(182.00000000000003,160.28871391076115)"><rect x="1" width="11.999999999999996" height="149.71128608923885"></rect></g><g class="bar" transform="translate(195,133.43832020997377)"><rect x="1" width="11.999999999999996" height="176.56167979002623"></rect></g><g class="bar" transform="translate(208,78.11023622047244)"><rect x="1" width="11.999999999999996" height="231.88976377952756"></rect></g><g class="bar" transform="translate(221.00000000000003,56.9553805774278)"><rect x="1" width="11.999999999999996" height="253.0446194225722"></rect></g><g class="bar" transform="translate(234,25.2230971128609)"><rect x="1" width="11.999999999999996" height="284.7769028871391"></rect></g><g class="bar" transform="translate(247.00000000000003,0)"><rect x="1" width="11.999999999999996" height="310"></rect></g><g class="bar" transform="translate(260,15.459317585301847)"><rect x="1" width="11.999999999999996" height="294.54068241469815"></rect></g><g class="bar" transform="translate(273,23.59580052493436)"><rect x="1" width="11.999999999999996" height="286.40419947506564"></rect></g><g class="bar" transform="translate(286,101.70603674540683)"><rect x="1" width="11.999999999999996" height="208.29396325459317"></rect></g><g class="bar" transform="translate(299.00000000000006,121.23359580052494)"><rect x="1" width="11.999999999999996" height="188.76640419947506"></rect></g><g class="bar" transform="translate(312.00000000000006,163.54330708661416)"><rect x="1" width="11.999999999999996" height="146.45669291338584"></rect></g><g class="bar" transform="translate(325,200.15748031496065)"><rect x="1" width="11.999999999999996" height="109.84251968503935"></rect></g><g class="bar" transform="translate(338,235.14435695538057)"><rect x="1" width="11.999999999999996" height="74.85564304461943"></rect></g><g class="bar" transform="translate(351,292.0997375328084)"><rect x="1" width="11.999999999999996" height="17.900262467191624"></rect></g><g class="bar" transform="translate(364.00000000000006,302.6771653543307)"><rect x="1" width="11.999999999999996" height="7.322834645669275"></rect></g><g class="bar" transform="translate(377.00000000000006,309.18635170603676)"><rect x="1" width="11.999999999999996" height="0.8136482939632401"></rect></g><g class="bar" transform="translate(390,310)"><rect x="1" width="11.999999999999996" height="0"></rect></g><g class="bar" transform="translate(403,310)"><rect x="1" width="11.999999999999996" height="0"></rect></g><g class="bar" transform="translate(416,310)"><rect x="1" width="11.999999999999996" height="0"></rect></g><g class="bar" transform="translate(429.00000000000006,310)"><rect x="1" width="11.999999999999996" height="0"></rect></g><g class="bar" transform="translate(442.00000000000006,310)"><rect x="1" width="11.999999999999996" height="0"></rect></g><g class="bar" transform="translate(455,310)"><rect x="1" width="11.999999999999996" height="0"></rect></g><g class="bar" transform="translate(468,310)"><rect x="1" width="11.999999999999996" height="0"></rect></g><g class="bar" transform="translate(481,310)"><rect x="1" width="11.999999999999996" height="0"></rect></g><g class="bar" transform="translate(494.00000000000006,310)"><rect x="1" width="11.999999999999996" height="0"></rect></g><g class="bar" transform="translate(507.00000000000006,310)"><rect x="1" width="11.999999999999996" height="0"></rect></g><g class="axis axis--x" transform="translate(0,310)" fill="none" font-size="10" font-family="sans-serif" text-anchor="middle"><path class="domain" stroke="#000" d="M0.5,6V0.5H520.5V6"></path><g class="tick" opacity="1" transform="translate(0.5,0)"><line stroke="#000" y2="6"></line><text fill="#000" y="9" dy="0.71em">0.01</text></g><g class="tick" opacity="1" transform="translate(130.5,0)"><line stroke="#000" y2="6"></line><text fill="#000" y="9" dy="0.71em">1</text></g><g class="tick" opacity="1" transform="translate(260.5,0)"><line stroke="#000" y2="6"></line><text fill="#000" y="9" dy="0.71em">100</text></g><g class="tick" opacity="1" transform="translate(390.5,0)"><line stroke="#000" y2="6"></line><text fill="#000" y="9" dy="0.71em">10000</text></g><g class="tick" opacity="1" transform="translate(520.5,0)"><line stroke="#000" y2="6"></line><text fill="#000" y="9" dy="0.71em"></text></g></g><g class="axis axis--y" fill="none" font-size="10" font-family="sans-serif" text-anchor="end"><path class="domain" stroke="#000" d="M-6,310.5H0.5V0.5H-6"></path><g class="tick" opacity="1" transform="translate(0,310.5)"><line stroke="#000" x2="-6"></line><text fill="#000" x="-9" dy="0.32em">0</text></g><g class="tick" opacity="1" transform="translate(0,269.81758530183725)"><line stroke="#000" x2="-6"></line><text fill="#000" x="-9" dy="0.32em">50</text></g><g class="tick" opacity="1" transform="translate(0,229.13517060367454)"><line stroke="#000" x2="-6"></line><text fill="#000" x="-9" dy="0.32em">100</text></g><g class="tick" opacity="1" transform="translate(0,188.45275590551182)"><line stroke="#000" x2="-6"></line><text fill="#000" x="-9" dy="0.32em">150</text></g><g class="tick" opacity="1" transform="translate(0,147.77034120734908)"><line stroke="#000" x2="-6"></line><text fill="#000" x="-9" dy="0.32em">200</text></g><g class="tick" opacity="1" transform="translate(0,107.08792650918633)"><line stroke="#000" x2="-6"></line><text fill="#000" x="-9" dy="0.32em">250</text></g><g class="tick" opacity="1" transform="translate(0,66.40551181102362)"><line stroke="#000" x2="-6"></line><text fill="#000" x="-9" dy="0.32em">300</text></g><g class="tick" opacity="1" transform="translate(0,25.7230971128609)"><line stroke="#000" x2="-6"></line><text fill="#000" x="-9" dy="0.32em">350</text></g></g></g></svg>