<svg xmlns="http://www.w3.org/2000/svg" width="280" height="160"><defs><style type="text/css"><![CDATA[ 
.bar rect {
  fill-opacity: 0;
  stroke:       black;
  stroke-width: 0.5;
}

.highlight rect {
  fill:       red;
  fill-opacity: 1;
}
.axis path,
.axis line {
  fill: none;
  stroke: #000;
  shape-rendering: crispEdges;
}
path {
    stroke: red;
    fill: none;
}

line {
    stroke: red;
}

path.marker {
    fill: red;
}
 ]]></style></defs><g transform="translate(50,10)"><g class="bar" transform="translate(0,120)"><rect x="1" width="11.5" height="0"></rect></g><g class="bar" transform="translate(12.5,120)"><rect x="1" width="11.5" height="0"></rect></g><g class="bar" transform="translate(25,120)"><rect x="1" width="11.5" height="0"></rect></g><g class="bar" transform="translate(37.5,112.4494382022472)"><rect x="1" width="11.5" height="7.550561797752806"></rect></g><g class="bar" transform="translate(50,78.20224719101122)"><rect x="1" width="11.5" height="41.797752808988776"></rect></g><g class="bar" transform="translate(62.5,63.235955056179776)"><rect x="1" width="11.5" height="56.764044943820224"></rect></g><g class="bar" transform="translate(75,31.820224719101134)"><rect x="1" width="11.5" height="88.17977528089887"></rect></g><g class="bar" transform="translate(87.5,0)"><rect x="1" width="11.5" height="120"></rect></g><g class="bar" transform="translate(100,4.449438202247194)"><rect x="1" width="11.5" height="115.5505617977528"></rect></g><g class="bar" transform="translate(112.5,49.21348314606742)"><rect x="1" width="11.5" height="70.78651685393258"></rect></g><g class="bar" transform="translate(125,87.10112359550561)"><rect x="1" width="11.5" height="32.89887640449439"></rect></g><g class="bar" transform="translate(137.5,117.97752808988764)"><rect x="1" width="11.5" height="2.0224719101123583"></rect></g><g class="bar" transform="translate(150,120)"><rect x="1" width="11.5" height="0"></rect></g><g class="bar" transform="translate(162.5,120)"><rect x="1" width="11.5" height="0"></rect></g><g class="bar" transform="translate(175,120)"><rect x="1" width="11.5" height="0"></rect></g><g class="bar" transform="translate(187.5,120)"><rect x="1" width="11.5" height="0"></rect></g></g></svg>