<svg xmlns="http://www.w3.org/2000/svg" width="280" height="160"><defs><style type="text/css"><![CDATA[ 
.bar rect {
  fill-opacity: 0;
  stroke:       black;
  stroke-width: 0.5;
}

.highlight rect {
  fill:       red;
  fill-opacity: 1;
}
.axis path,
.axis line {
  fill: none;
  stroke: #000;
  shape-rendering: crispEdges;
}
path {
    stroke: red;
    fill: none;
}

line {
    stroke: red;
}

path.marker {
    fill: red;
}
 ]]></style></defs><g transform="translate(50,10)"><g class="bar" transform="translate(0,119.72911963882619)"><rect x="1" width="11.5" height="0.2708803611738091"></rect></g><g class="bar" transform="translate(12.5,119.32279909706546)"><rect x="1" width="11.5" height="0.677200902934544"></rect></g><g class="bar" transform="translate(25,115.39503386004515)"><rect x="1" width="11.5" height="4.604966139954854"></rect></g><g class="bar" transform="translate(37.5,97.78781038374717)"><rect x="1" width="11.5" height="22.21218961625283"></rect></g><g class="bar" transform="translate(50,78.41986455981942)"><rect x="1" width="11.5" height="41.580135440180584"></rect></g><g class="bar" transform="translate(62.5,58.103837471783294)"><rect x="1" width="11.5" height="61.896162528216706"></rect></g><g class="bar" transform="translate(75,30.47404063205417)"><rect x="1" width="11.5" height="89.52595936794583"></rect></g><g class="bar" transform="translate(87.5,0)"><rect x="1" width="11.5" height="120"></rect></g><g class="bar" transform="translate(100,0.40632054176072074)"><rect x="1" width="11.5" height="119.59367945823928"></rect></g><g class="bar" transform="translate(112.5,54.311512415349895)"><rect x="1" width="11.5" height="65.6884875846501"></rect></g><g class="bar" transform="translate(125,98.60045146726861)"><rect x="1" width="11.5" height="21.399548532731387"></rect></g><g class="bar" transform="translate(137.5,114.71783295711062)"><rect x="1" width="11.5" height="5.282167042889384"></rect></g><g class="bar" transform="translate(150,119.59367945823928)"><rect x="1" width="11.5" height="0.40632054176072074"></rect></g><g class="bar" transform="translate(162.5,120)"><rect x="1" width="11.5" height="0"></rect></g><g class="bar" transform="translate(175,120)"><rect x="1" width="11.5" height="0"></rect></g><g class="bar" transform="translate(187.5,120)"><rect x="1" width="11.5" height="0"></rect></g></g></svg>