<svg xmlns="http://www.w3.org/2000/svg" width="600" height="350"><defs><style type="text/css"><![CDATA[ 
.bar rect {
  fill-opacity: 0;
  stroke:       black;
  stroke-width: 0.5;
}

.highlight rect {
  fill:       red;
  fill-opacity: 1;
}
.axis path,
.axis line {
  fill: none;
  stroke: #000;
  shape-rendering: crispEdges;
}
path {
    stroke: red;
    fill: none;
}

line {
    stroke: red;
}

path.marker {
    fill: red;
}
 ]]></style></defs><g transform="translate(50,10)"><g class="bar" transform="translate(0,310)"><rect x="1" width="11.999999999999996" height="0"></rect></g><g class="bar" transform="translate(12.999999999999996,310)"><rect x="1" width="11.999999999999996" height="0"></rect></g><g class="bar" transform="translate(25.999999999999993,307.4864864864865)"><rect x="1" width="11.999999999999996" height="2.5135135135134874"></rect></g><g class="bar" transform="translate(39.00000000000001,309.1621621621622)"><rect x="1" width="11.999999999999996" height="0.8378378378378102"></rect></g><g class="bar" transform="translate(52,307.4864864864865)"><rect x="1" width="11.999999999999996" height="2.5135135135134874"></rect></g><g class="bar" transform="translate(65,304.97297297297297)"><rect x="1" width="11.999999999999996" height="5.027027027027032"></rect></g><g class="bar" transform="translate(78.00000000000001,300.7837837837838)"><rect x="1" width="11.999999999999996" height="9.216216216216196"></rect></g><g class="bar" transform="translate(91.00000000000001,278.1621621621622)"><rect x="1" width="11.999999999999996" height="31.83783783783781"></rect></g><g class="bar" transform="translate(104,254.7027027027027)"><rect x="1" width="11.999999999999996" height="55.29729729729729"></rect></g><g class="bar" transform="translate(117,245.48648648648648)"><rect x="1" width="11.999999999999996" height="64.51351351351352"></rect></g><g class="bar" transform="translate(130,211.97297297297297)"><rect x="1" width="11.999999999999996" height="98.02702702702703"></rect></g><g class="bar" transform="translate(143,211.13513513513513)"><rect x="1" width="11.999999999999996" height="98.86486486486487"></rect></g><g class="bar" transform="translate(156.00000000000003,185.16216216216216)"><rect x="1" width="11.999999999999996" height="124.83783783783784"></rect></g><g class="bar" transform="translate(169,158.35135135135135)"><rect x="1" width="11.999999999999996" height="151.64864864864865"></rect></g><g class="bar" transform="translate(182.00000000000003,143.2702702702703)"><rect x="1" width="11.999999999999996" height="166.7297297297297"></rect></g><g class="bar" transform="translate(195,113.10810810810813)"><rect x="1" width="11.999999999999996" height="196.89189189189187"></rect></g><g class="bar" transform="translate(208,86.29729729729732)"><rect x="1" width="11.999999999999996" height="223.70270270270268"></rect></g><g class="bar" transform="translate(221.00000000000003,47.75675675675677)"><rect x="1" width="11.999999999999996" height="262.2432432432432"></rect></g><g class="bar" transform="translate(234,3.3513513513513544)"><rect x="1" width="11.999999999999996" height="306.64864864864865"></rect></g><g class="bar" transform="translate(247.00000000000003,3.3513513513513544)"><rect x="1" width="11.999999999999996" height="306.64864864864865"></rect></g><g class="bar" transform="translate(260,0)"><rect x="1" width="11.999999999999996" height="310"></rect></g><g class="bar" transform="translate(273,20.108108108108127)"><rect x="1" width="11.999999999999996" height="289.8918918918919"></rect></g><g class="bar" transform="translate(286,54.45945945945945)"><rect x="1" width="11.999999999999996" height="255.54054054054055"></rect></g><g class="bar" transform="translate(299.00000000000006,129.027027027027)"><rect x="1" width="11.999999999999996" height="180.972972972973"></rect></g><g class="bar" transform="translate(312.00000000000006,200.24324324324323)"><rect x="1" width="11.999999999999996" height="109.75675675675677"></rect></g><g class="bar" transform="translate(325,241.2972972972973)"><rect x="1" width="11.999999999999996" height="68.70270270270271"></rect></g><g class="bar" transform="translate(338,271.4594594594595)"><rect x="1" width="11.999999999999996" height="38.54054054054052"></rect></g><g class="bar" transform="translate(351,269.7837837837838)"><rect x="1" width="11.999999999999996" height="40.216216216216196"></rect></g><g class="bar" transform="translate(364.00000000000006,295.7567567567568)"><rect x="1" width="11.999999999999996" height="14.243243243243228"></rect></g><g class="bar" transform="translate(377.00000000000006,306.64864864864865)"><rect x="1" width="11.999999999999996" height="3.3513513513513544"></rect></g><g class="bar" transform="translate(390,308.3243243243243)"><rect x="1" width="11.999999999999996" height="1.6756756756756772"></rect></g><g class="bar" transform="translate(403,310)"><rect x="1" width="11.999999999999996" height="0"></rect></g><g class="bar" transform="translate(416,309.1621621621622)"><rect x="1" width="11.999999999999996" height="0.8378378378378102"></rect></g><g class="bar" transform="translate(429.00000000000006,310)"><rect x="1" width="11.999999999999996" height="0"></rect></g><g class="bar" transform="translate(442.00000000000006,310)"><rect x="1" width="11.999999999999996" height="0"></rect></g><g class="bar" transform="translate(455,310)"><rect x="1" width="11.999999999999996" height="0"></rect></g><g class="bar" transform="translate(468,310)"><rect x="1" width="11.999999999999996" height="0"></rect></g><g class="bar" transform="translate(481,310)"><rect x="1" width="11.999999999999996" height="0"></rect></g><g class="bar" transform="translate(494.00000000000006,310)"><rect x="1" width="11.999999999999996" height="0"></rect></g><g class="bar" transform="translate(507.00000000000006,310)"><rect x="1" width="11.999999999999996" height="0"></rect></g><g class="axis axis--x" transform="translate(0,310)" fill="none" font-size="10" font-family="sans-serif" text-anchor="middle"><path class="domain" stroke="#000" d="M0.5,6V0.5H520.5V6"></path><g class="tick" opacity="1" transform="translate(0.5,0)"><line stroke="#000" y2="6"></line><text fill="#000" y="9" dy="0.71em">0.01</text></g><g class="tick" opacity="1" transform="translate(130.5,0)"><line stroke="#000" y2="6"></line><text fill="#000" y="9" dy="0.71em">1</text></g><g class="tick" opacity="1" transform="translate(260.5,0)"><line stroke="#000" y2="6"></line><text fill="#000" y="9" dy="0.71em">100</text></g><g class="tick" opacity="1" transform="translate(390.5,0)"><line stroke="#000" y2="6"></line><text fill="#000" y="9" dy="0.71em">10000</text></g><g class="tick" opacity="1" transform="translate(520.5,0)"><line stroke="#000" y2="6"></line><text fill="#000" y="9" dy="0.71em"></text></g></g><g class="axis axis--y" fill="none" font-size="10" font-family="sans-serif" text-anchor="end"><path class="domain" stroke="#000" d="M-6,310.5H0.5V0.5H-6"></path><g class="tick" opacity="1" transform="translate(0,310.5)"><line stroke="#000" x2="-6"></line><text fill="#000" x="-9" dy="0.32em">0</text></g><g class="tick" opacity="1" transform="translate(0,268.6081081081081)"><line stroke="#000" x2="-6"></line><text fill="#000" x="-9" dy="0.32em">50</text></g><g class="tick" opacity="1" transform="translate(0,226.7162162162162)"><line stroke="#000" x2="-6"></line><text fill="#000" x="-9" dy="0.32em">100</text></g><g class="tick" opacity="1" transform="translate(0,184.82432432432432)"><line stroke="#000" x2="-6"></line><text fill="#000" x="-9" dy="0.32em">150</text></g><g class="tick" opacity="1" transform="translate(0,142.93243243243242)"><line stroke="#000" x2="-6"></line><text fill="#000" x="-9" dy="0.32em">200</text></g><g class="tick" opacity="1" transform="translate(0,101.04054054054055)"><line stroke="#000" x2="-6"></line><text fill="#000" x="-9" dy="0.32em">250</text></g><g class="tick" opacity="1" transform="translate(0,59.148648648648646)"><line stroke="#000" x2="-6"></line><text fill="#000" x="-9" dy="0.32em">300</text></g><g class="tick" opacity="1" transform="translate(0,17.256756756756772)"><line stroke="#000" x2="-6"></line><text fill="#000" x="-9" dy="0.32em">350</text></g></g></g></svg>