<svg xmlns="http://www.w3.org/2000/svg" width="600" height="350"><defs><style type="text/css"><![CDATA[ 
.bar rect {
  fill-opacity: 0;
  stroke:       black;
  stroke-width: 0.5;
}

.highlight rect {
  fill:       red;
  fill-opacity: 1;
}
.axis path,
.axis line {
  fill: none;
  stroke: #000;
  shape-rendering: crispEdges;
}
 ]]></style></defs><g transform="translate(50,10)"><g class="bar" transform="translate(0,310)"><rect x="1" width="11.999999999999996" height="0"></rect></g><g class="bar" transform="translate(12.999999999999996,310)"><rect x="1" width="11.999999999999996" height="0"></rect></g><g class="bar" transform="translate(25.999999999999993,310)"><rect x="1" width="11.999999999999996" height="0"></rect></g><g class="bar" transform="translate(39.00000000000001,310)"><rect x="1" width="11.999999999999996" height="0"></rect></g><g class="bar" transform="translate(52,310)"><rect x="1" width="11.999999999999996" height="0"></rect></g><g class="bar" transform="translate(65,310)"><rect x="1" width="11.999999999999996" height="0"></rect></g><g class="bar" transform="translate(78.00000000000001,310)"><rect x="1" width="11.999999999999996" height="0"></rect></g><g class="bar" transform="translate(91.00000000000001,310)"><rect x="1" width="11.999999999999996" height="0"></rect></g><g class="bar" transform="translate(104,310)"><rect x="1" width="11.999999999999996" height="0"></rect></g><g class="bar" transform="translate(117,310)"><rect x="1" width="11.999999999999996" height="0"></rect></g><g class="bar" transform="translate(130,310)"><rect x="1" width="11.999999999999996" height="0"></rect></g><g class="bar" transform="translate(143,310)"><rect x="1" width="11.999999999999996" height="0"></rect></g><g class="bar" transform="translate(156.00000000000003,310)"><rect x="1" width="11.999999999999996" height="0"></rect></g><g class="bar" transform="translate(169,217.5438596491228)"><rect x="1" width="11.999999999999996" height="92.4561403508772"></rect></g><g class="bar" transform="translate(182.00000000000003,228.42105263157896)"><rect x="1" width="11.999999999999996" height="81.57894736842104"></rect></g><g class="bar" transform="translate(195,184.9122807017544)"><rect x="1" width="11.999999999999996" height="125.08771929824559"></rect></g><g class="bar" transform="translate(208,182.19298245614036)"><rect x="1" width="11.999999999999996" height="127.80701754385964"></rect></g><g class="bar" transform="translate(221.00000000000003,231.140350877193)"><rect x="1" width="11.999999999999996" height="78.85964912280701"></rect></g><g class="bar" transform="translate(234,184.9122807017544)"><rect x="1" width="11.999999999999996" height="125.08771929824559"></rect></g><g class="bar" transform="translate(247.00000000000003,135.96491228070175)"><rect x="1" width="11.999999999999996" height="174.03508771929825"></rect></g><g class="bar" transform="translate(260,51.66666666666663)"><rect x="1" width="11.999999999999996" height="258.33333333333337"></rect></g><g class="bar" transform="translate(273,0)"><rect x="1" width="11.999999999999996" height="310"></rect></g><g class="bar" transform="translate(286,48.94736842105266)"><rect x="1" width="11.999999999999996" height="261.05263157894734"></rect></g><g class="bar" transform="translate(299.00000000000006,111.49122807017545)"><rect x="1" width="11.999999999999996" height="198.50877192982455"></rect></g><g class="bar" transform="translate(312.00000000000006,81.57894736842107)"><rect x="1" width="11.999999999999996" height="228.42105263157893"></rect></g><g class="bar" transform="translate(325,144.12280701754386)"><rect x="1" width="11.999999999999996" height="165.87719298245614"></rect></g><g class="bar" transform="translate(338,135.96491228070175)"><rect x="1" width="11.999999999999996" height="174.03508771929825"></rect></g><g class="bar" transform="translate(351,220.26315789473682)"><rect x="1" width="11.999999999999996" height="89.73684210526318"></rect></g><g class="bar" transform="translate(364.00000000000006,271.9298245614035)"><rect x="1" width="11.999999999999996" height="38.07017543859649"></rect></g><g class="bar" transform="translate(377.00000000000006,282.8070175438597)"><rect x="1" width="11.999999999999996" height="27.192982456140328"></rect></g><g class="bar" transform="translate(390,293.6842105263158)"><rect x="1" width="11.999999999999996" height="16.31578947368422"></rect></g><g class="bar" transform="translate(403,299.12280701754383)"><rect x="1" width="11.999999999999996" height="10.877192982456165"></rect></g><g class="bar" transform="translate(416,296.4035087719298)"><rect x="1" width="11.999999999999996" height="13.596491228070192"></rect></g><g class="bar" transform="translate(429.00000000000006,307.280701754386)"><rect x="1" width="11.999999999999996" height="2.719298245614027"></rect></g><g class="bar" transform="translate(442.00000000000006,310)"><rect x="1" width="11.999999999999996" height="0"></rect></g><g class="bar" transform="translate(455,310)"><rect x="1" width="11.999999999999996" height="0"></rect></g><g class="bar" transform="translate(468,310)"><rect x="1" width="11.999999999999996" height="0"></rect></g><g class="bar" transform="translate(481,310)"><rect x="1" width="11.999999999999996" height="0"></rect></g><g class="bar" transform="translate(494.00000000000006,310)"><rect x="1" width="11.999999999999996" height="0"></rect></g><g class="bar" transform="translate(507.00000000000006,310)"><rect x="1" width="11.999999999999996" height="0"></rect></g><g class="axis axis--x" transform="translate(0,310)" fill="none" font-size="10" font-family="sans-serif" text-anchor="middle"><path class="domain" stroke="#000" d="M0.5,6V0.5H520.5V6"></path><g class="tick" opacity="1" transform="translate(0,0)"><line stroke="#000" y2="6" x1="0.5" x2="0.5"></line><text fill="#000" y="9" x="0.5" dy="0.71em">0.01</text></g><g class="tick" opacity="1" transform="translate(130,0)"><line stroke="#000" y2="6" x1="0.5" x2="0.5"></line><text fill="#000" y="9" x="0.5" dy="0.71em">1</text></g><g class="tick" opacity="1" transform="translate(260,0)"><line stroke="#000" y2="6" x1="0.5" x2="0.5"></line><text fill="#000" y="9" x="0.5" dy="0.71em">100</text></g><g class="tick" opacity="1" transform="translate(390,0)"><line stroke="#000" y2="6" x1="0.5" x2="0.5"></line><text fill="#000" y="9" x="0.5" dy="0.71em">10000</text></g><g class="tick" opacity="1" transform="translate(520,0)"><line stroke="#000" y2="6" x1="0.5" x2="0.5"></line><text fill="#000" y="9" x="0.5" dy="0.71em"></text></g></g><g class="axis axis--y" fill="none" font-size="10" font-family="sans-serif" text-anchor="end"><path class="domain" stroke="#000" d="M-6,310.5H0.5V0.5H-6"></path><g class="tick" opacity="1" transform="translate(0,310)"><line stroke="#000" x2="-6" y1="0.5" y2="0.5"></line><text fill="#000" x="-9" y="0.5" dy="0.32em">0</text></g><g class="tick" opacity="1" transform="translate(0,282.8070175438597)"><line stroke="#000" x2="-6" y1="0.5" y2="0.5"></line><text fill="#000" x="-9" y="0.5" dy="0.32em">10</text></g><g class="tick" opacity="1" transform="translate(0,255.6140350877193)"><line stroke="#000" x2="-6" y1="0.5" y2="0.5"></line><text fill="#000" x="-9" y="0.5" dy="0.32em">20</text></g><g class="tick" opacity="1" transform="translate(0,228.42105263157896)"><line stroke="#000" x2="-6" y1="0.5" y2="0.5"></line><text fill="#000" x="-9" y="0.5" dy="0.32em">30</text></g><g class="tick" opacity="1" transform="translate(0,201.2280701754386)"><line stroke="#000" x2="-6" y1="0.5" y2="0.5"></line><text fill="#000" x="-9" y="0.5" dy="0.32em">40</text></g><g class="tick" opacity="1" transform="translate(0,174.03508771929825)"><line stroke="#000" x2="-6" y1="0.5" y2="0.5"></line><text fill="#000" x="-9" y="0.5" dy="0.32em">50</text></g><g class="tick" opacity="1" transform="translate(0,146.8421052631579)"><line stroke="#000" x2="-6" y1="0.5" y2="0.5"></line><text fill="#000" x="-9" y="0.5" dy="0.32em">60</text></g><g class="tick" opacity="1" transform="translate(0,119.64912280701753)"><line stroke="#000" x2="-6" y1="0.5" y2="0.5"></line><text fill="#000" x="-9" y="0.5" dy="0.32em">70</text></g><g class="tick" opacity="1" transform="translate(0,92.4561403508772)"><line stroke="#000" x2="-6" y1="0.5" y2="0.5"></line><text fill="#000" x="-9" y="0.5" dy="0.32em">80</text></g><g class="tick" opacity="1" transform="translate(0,65.26315789473685)"><line stroke="#000" x2="-6" y1="0.5" y2="0.5"></line><text fill="#000" x="-9" y="0.5" dy="0.32em">90</text></g><g class="tick" opacity="1" transform="translate(0,38.07017543859649)"><line stroke="#000" x2="-6" y1="0.5" y2="0.5"></line><text fill="#000" x="-9" y="0.5" dy="0.32em">100</text></g><g class="tick" opacity="1" transform="translate(0,10.877192982456165)"><line stroke="#000" x2="-6" y1="0.5" y2="0.5"></line><text fill="#000" x="-9" y="0.5" dy="0.32em">110</text></g></g></g></svg>