<svg xmlns="http://www.w3.org/2000/svg" width="280" height="160"><defs><style type="text/css"><![CDATA[ 
.bar rect {
  fill-opacity: 0;
  stroke:       black;
  stroke-width: 0.5;
}

.highlight rect {
  fill:       red;
  fill-opacity: 1;
}
.axis path,
.axis line {
  fill: none;
  stroke: #000;
  shape-rendering: crispEdges;
}
 ]]></style></defs><g transform="translate(50,10)"><g class="bar" transform="translate(0,120)"><rect x="1" width="11.5" height="0"></rect></g><g class="bar" transform="translate(12.5,117.80645161290323)"><rect x="1" width="11.5" height="2.1935483870967687"></rect></g><g class="bar" transform="translate(25,103.2258064516129)"><rect x="1" width="11.5" height="16.774193548387103"></rect></g><g class="bar" transform="translate(37.5,71.09677419354838)"><rect x="1" width="11.5" height="48.903225806451616"></rect></g><g class="bar" transform="translate(50,35.096774193548384)"><rect x="1" width="11.5" height="84.90322580645162"></rect></g><g class="bar" transform="translate(62.5,12.25806451612904)"><rect x="1" width="11.5" height="107.74193548387096"></rect></g><g class="bar" transform="translate(75,0)"><rect x="1" width="11.5" height="120"></rect></g><g class="bar" transform="translate(87.5,18.967741935483872)"><rect x="1" width="11.5" height="101.03225806451613"></rect></g><g class="bar" transform="translate(100,43.22580645161291)"><rect x="1" width="11.5" height="76.77419354838709"></rect></g><g class="bar" transform="translate(112.5,76.38709677419354)"><rect x="1" width="11.5" height="43.61290322580646"></rect></g><g class="bar" transform="translate(125,105.16129032258064)"><rect x="1" width="11.5" height="14.83870967741936"></rect></g><g class="bar" transform="translate(137.5,113.29032258064517)"><rect x="1" width="11.5" height="6.709677419354833"></rect></g><g class="bar" transform="translate(150,119.35483870967742)"><rect x="1" width="11.5" height="0.6451612903225765"></rect></g><g class="bar" transform="translate(162.5,119.74193548387096)"><rect x="1" width="11.5" height="0.25806451612903913"></rect></g><g class="bar" transform="translate(175,120)"><rect x="1" width="11.5" height="0"></rect></g><g class="bar" transform="translate(187.5,120)"><rect x="1" width="11.5" height="0"></rect></g></g></svg>