<svg xmlns="http://www.w3.org/2000/svg" width="280" height="160"><defs><style type="text/css"><![CDATA[ 
.bar rect {
  fill-opacity: 0;
  stroke:       black;
  stroke-width: 0.5;
}

.highlight rect {
  fill:       red;
  fill-opacity: 1;
}
.axis path,
.axis line {
  fill: none;
  stroke: #000;
  shape-rendering: crispEdges;
}
 ]]></style></defs><g transform="translate(50,10)"><g class="bar" transform="translate(0,116.28865979381443)"><rect x="1" width="11.5" height="3.711340206185568"></rect></g><g class="bar" transform="translate(12.5,109.3298969072165)"><rect x="1" width="11.5" height="10.670103092783506"></rect></g><g class="bar" transform="translate(25,99.58762886597938)"><rect x="1" width="11.5" height="20.412371134020617"></rect></g><g class="bar" transform="translate(37.5,78.55670103092783)"><rect x="1" width="11.5" height="41.443298969072174"></rect></g><g class="bar" transform="translate(50,48.865979381443296)"><rect x="1" width="11.5" height="71.1340206185567"></rect></g><g class="bar" transform="translate(62.5,23.814432989690715)"><rect x="1" width="11.5" height="96.18556701030928"></rect></g><g class="bar" transform="translate(75,0)"><rect x="1" width="11.5" height="120"></rect></g><g class="bar" transform="translate(87.5,2.319587628865989)"><rect x="1" width="11.5" height="117.68041237113401"></rect></g><g class="bar" transform="translate(100,25.20618556701031)"><rect x="1" width="11.5" height="94.79381443298969"></rect></g><g class="bar" transform="translate(112.5,70.20618556701031)"><rect x="1" width="11.5" height="49.79381443298969"></rect></g><g class="bar" transform="translate(125,100.82474226804123)"><rect x="1" width="11.5" height="19.175257731958766"></rect></g><g class="bar" transform="translate(137.5,111.18556701030928)"><rect x="1" width="11.5" height="8.814432989690715"></rect></g><g class="bar" transform="translate(150,119.38144329896907)"><rect x="1" width="11.5" height="0.6185567010309256"></rect></g><g class="bar" transform="translate(162.5,120)"><rect x="1" width="11.5" height="0"></rect></g><g class="bar" transform="translate(175,120)"><rect x="1" width="11.5" height="0"></rect></g><g class="bar" transform="translate(187.5,120)"><rect x="1" width="11.5" height="0"></rect></g></g></svg>