<svg xmlns="http://www.w3.org/2000/svg" width="600" height="350"><defs><style type="text/css"><![CDATA[ 
.bar rect {
  fill-opacity: 0;
  stroke:       black;
  stroke-width: 0.5;
}

.highlight rect {
  fill:       red;
  fill-opacity: 1;
}
.axis path,
.axis line {
  fill: none;
  stroke: #000;
  shape-rendering: crispEdges;
}
 ]]></style></defs><g transform="translate(50,10)"><g class="bar" transform="translate(0,310)"><rect x="1" width="11.999999999999996" height="0"></rect></g><g class="bar" transform="translate(12.999999999999996,310)"><rect x="1" width="11.999999999999996" height="0"></rect></g><g class="bar" transform="translate(25.999999999999993,310)"><rect x="1" width="11.999999999999996" height="0"></rect></g><g class="bar" transform="translate(39.00000000000001,310)"><rect x="1" width="11.999999999999996" height="0"></rect></g><g class="bar" transform="translate(52,310)"><rect x="1" width="11.999999999999996" height="0"></rect></g><g class="bar" transform="translate(65,310)"><rect x="1" width="11.999999999999996" height="0"></rect></g><g class="bar" transform="translate(78.00000000000001,310)"><rect x="1" width="11.999999999999996" height="0"></rect></g><g class="bar" transform="translate(91.00000000000001,310)"><rect x="1" width="11.999999999999996" height="0"></rect></g><g class="bar" transform="translate(104,310)"><rect x="1" width="11.999999999999996" height="0"></rect></g><g class="bar" transform="translate(117,310)"><rect x="1" width="11.999999999999996" height="0"></rect></g><g class="bar" transform="translate(130,310)"><rect x="1" width="11.999999999999996" height="0"></rect></g><g class="bar" transform="translate(143,308.37696335078533)"><rect x="1" width="11.999999999999996" height="1.6230366492146686"></rect></g><g class="bar" transform="translate(156.00000000000003,295.39267015706804)"><rect x="1" width="11.999999999999996" height="14.60732984293196"></rect></g><g class="bar" transform="translate(169,266.1780104712042)"><rect x="1" width="11.999999999999996" height="43.821989528795825"></rect></g><g class="bar" transform="translate(182.00000000000003,212.61780104712042)"><rect x="1" width="11.999999999999996" height="97.38219895287958"></rect></g><g class="bar" transform="translate(195,136.33507853403142)"><rect x="1" width="11.999999999999996" height="173.66492146596858"></rect></g><g class="bar" transform="translate(208,0)"><rect x="1" width="11.999999999999996" height="310"></rect></g><g class="bar" transform="translate(221.00000000000003,43.821989528795825)"><rect x="1" width="11.999999999999996" height="266.1780104712042"></rect></g><g class="bar" transform="translate(234,74.65968586387436)"><rect x="1" width="11.999999999999996" height="235.34031413612564"></rect></g><g class="bar" transform="translate(247.00000000000003,58.42931937172773)"><rect x="1" width="11.999999999999996" height="251.57068062827227"></rect></g><g class="bar" transform="translate(260,43.821989528795825)"><rect x="1" width="11.999999999999996" height="266.1780104712042"></rect></g><g class="bar" transform="translate(273,66.54450261780104)"><rect x="1" width="11.999999999999996" height="243.45549738219896"></rect></g><g class="bar" transform="translate(286,108.7434554973822)"><rect x="1" width="11.999999999999996" height="201.2565445026178"></rect></g><g class="bar" transform="translate(299.00000000000006,136.33507853403142)"><rect x="1" width="11.999999999999996" height="173.66492146596858"></rect></g><g class="bar" transform="translate(312.00000000000006,163.92670157068062)"><rect x="1" width="11.999999999999996" height="146.07329842931938"></rect></g><g class="bar" transform="translate(325,219.10994764397907)"><rect x="1" width="11.999999999999996" height="90.89005235602093"></rect></g><g class="bar" transform="translate(338,236.9633507853403)"><rect x="1" width="11.999999999999996" height="73.03664921465969"></rect></g><g class="bar" transform="translate(351,259.68586387434556)"><rect x="1" width="11.999999999999996" height="50.31413612565444"></rect></g><g class="bar" transform="translate(364.00000000000006,284.0314136125654)"><rect x="1" width="11.999999999999996" height="25.968586387434584"></rect></g><g class="bar" transform="translate(377.00000000000006,303.5078534031414)"><rect x="1" width="11.999999999999996" height="6.492146596858618"></rect></g><g class="bar" transform="translate(390,305.130890052356)"><rect x="1" width="11.999999999999996" height="4.869109947644006"></rect></g><g class="bar" transform="translate(403,305.130890052356)"><rect x="1" width="11.999999999999996" height="4.869109947644006"></rect></g><g class="bar" transform="translate(416,306.75392670157066)"><rect x="1" width="11.999999999999996" height="3.2460732984293372"></rect></g><g class="bar" transform="translate(429.00000000000006,306.75392670157066)"><rect x="1" width="11.999999999999996" height="3.2460732984293372"></rect></g><g class="bar" transform="translate(442.00000000000006,310)"><rect x="1" width="11.999999999999996" height="0"></rect></g><g class="bar" transform="translate(455,308.37696335078533)"><rect x="1" width="11.999999999999996" height="1.6230366492146686"></rect></g><g class="bar" transform="translate(468,310)"><rect x="1" width="11.999999999999996" height="0"></rect></g><g class="bar" transform="translate(481,310)"><rect x="1" width="11.999999999999996" height="0"></rect></g><g class="bar" transform="translate(494.00000000000006,310)"><rect x="1" width="11.999999999999996" height="0"></rect></g><g class="bar" transform="translate(507.00000000000006,310)"><rect x="1" width="11.999999999999996" height="0"></rect></g><g class="axis axis--x" transform="translate(0,310)" fill="none" font-size="10" font-family="sans-serif" text-anchor="middle"><path class="domain" stroke="#000" d="M0.5,6V0.5H520.5V6"></path><g class="tick" opacity="1" transform="translate(0,0)"><line stroke="#000" y2="6" x1="0.5" x2="0.5"></line><text fill="#000" y="9" x="0.5" dy="0.71em">0.01</text></g><g class="tick" opacity="1" transform="translate(130,0)"><line stroke="#000" y2="6" x1="0.5" x2="0.5"></line><text fill="#000" y="9" x="0.5" dy="0.71em">1</text></g><g class="tick" opacity="1" transform="translate(260,0)"><line stroke="#000" y2="6" x1="0.5" x2="0.5"></line><text fill="#000" y="9" x="0.5" dy="0.71em">100</text></g><g class="tick" opacity="1" transform="translate(390,0)"><line stroke="#000" y2="6" x1="0.5" x2="0.5"></line><text fill="#000" y="9" x="0.5" dy="0.71em">10000</text></g><g class="tick" opacity="1" transform="translate(520,0)"><line stroke="#000" y2="6" x1="0.5" x2="0.5"></line><text fill="#000" y="9" x="0.5" dy="0.71em"></text></g></g><g class="axis axis--y" fill="none" font-size="10" font-family="sans-serif" text-anchor="end"><path class="domain" stroke="#000" d="M-6,310.5H0.5V0.5H-6"></path><g class="tick" opacity="1" transform="translate(0,310)"><line stroke="#000" x2="-6" y1="0.5" y2="0.5"></line><text fill="#000" x="-9" y="0.5" dy="0.32em">0</text></g><g class="tick" opacity="1" transform="translate(0,277.5392670157068)"><line stroke="#000" x2="-6" y1="0.5" y2="0.5"></line><text fill="#000" x="-9" y="0.5" dy="0.32em">20</text></g><g class="tick" opacity="1" transform="translate(0,245.0785340314136)"><line stroke="#000" x2="-6" y1="0.5" y2="0.5"></line><text fill="#000" x="-9" y="0.5" dy="0.32em">40</text></g><g class="tick" opacity="1" transform="translate(0,212.61780104712042)"><line stroke="#000" x2="-6" y1="0.5" y2="0.5"></line><text fill="#000" x="-9" y="0.5" dy="0.32em">60</text></g><g class="tick" opacity="1" transform="translate(0,180.15706806282722)"><line stroke="#000" x2="-6" y1="0.5" y2="0.5"></line><text fill="#000" x="-9" y="0.5" dy="0.32em">80</text></g><g class="tick" opacity="1" transform="translate(0,147.69633507853402)"><line stroke="#000" x2="-6" y1="0.5" y2="0.5"></line><text fill="#000" x="-9" y="0.5" dy="0.32em">100</text></g><g class="tick" opacity="1" transform="translate(0,115.23560209424085)"><line stroke="#000" x2="-6" y1="0.5" y2="0.5"></line><text fill="#000" x="-9" y="0.5" dy="0.32em">120</text></g><g class="tick" opacity="1" transform="translate(0,82.77486910994764)"><line stroke="#000" x2="-6" y1="0.5" y2="0.5"></line><text fill="#000" x="-9" y="0.5" dy="0.32em">140</text></g><g class="tick" opacity="1" transform="translate(0,50.31413612565444)"><line stroke="#000" x2="-6" y1="0.5" y2="0.5"></line><text fill="#000" x="-9" y="0.5" dy="0.32em">160</text></g><g class="tick" opacity="1" transform="translate(0,17.85340314136124)"><line stroke="#000" x2="-6" y1="0.5" y2="0.5"></line><text fill="#000" x="-9" y="0.5" dy="0.32em">180</text></g></g></g></svg>