<svg xmlns="http://www.w3.org/2000/svg" width="600" height="350"><defs><style type="text/css"><![CDATA[ 
.bar rect {
  fill-opacity: 0;
  stroke:       black;
  stroke-width: 0.5;
}

.highlight rect {
  fill:       red;
  fill-opacity: 1;
}
.axis path,
.axis line {
  fill: none;
  stroke: #000;
  shape-rendering: crispEdges;
}
path {
    stroke: red;
    fill: none;
}

line {
    stroke: red;
}

path.marker {
    fill: red;
}
 ]]></style></defs><g transform="translate(50,10)"><g class="bar" transform="translate(0,224.8091603053435)"><rect x="1" width="11.999999999999996" height="85.19083969465649"></rect></g><g class="bar" transform="translate(12.999999999999996,217.23664122137404)"><rect x="1" width="11.999999999999996" height="92.76335877862596"></rect></g><g class="bar" transform="translate(25.999999999999993,231.4351145038168)"><rect x="1" width="11.999999999999996" height="78.5648854961832"></rect></g><g class="bar" transform="translate(39.00000000000001,208.7175572519084)"><rect x="1" width="11.999999999999996" height="101.2824427480916"></rect></g><g class="bar" transform="translate(52,185.05343511450383)"><rect x="1" width="11.999999999999996" height="124.94656488549617"></rect></g><g class="bar" transform="translate(65,159.49618320610688)"><rect x="1" width="11.999999999999996" height="150.50381679389312"></rect></g><g class="bar" transform="translate(78.00000000000001,141.03816793893128)"><rect x="1" width="11.999999999999996" height="168.96183206106872"></rect></g><g class="bar" transform="translate(91.00000000000001,99.38931297709922)"><rect x="1" width="11.999999999999996" height="210.61068702290078"></rect></g><g class="bar" transform="translate(104,126.83969465648855)"><rect x="1" width="11.999999999999996" height="183.16030534351145"></rect></g><g class="bar" transform="translate(117,70.04580152671755)"><rect x="1" width="11.999999999999996" height="239.95419847328245"></rect></g><g class="bar" transform="translate(130,54.90076335877865)"><rect x="1" width="11.999999999999996" height="255.09923664122135"></rect></g><g class="bar" transform="translate(143,36.91603053435114)"><rect x="1" width="11.999999999999996" height="273.08396946564886"></rect></g><g class="bar" transform="translate(156.00000000000003,26.97709923664121)"><rect x="1" width="11.999999999999996" height="283.0229007633588"></rect></g><g class="bar" transform="translate(169,0)"><rect x="1" width="11.999999999999996" height="310"></rect></g><g class="bar" transform="translate(182.00000000000003,7.572519083969439)"><rect x="1" width="11.999999999999996" height="302.42748091603056"></rect></g><g class="bar" transform="translate(195,11.832061068702274)"><rect x="1" width="11.999999999999996" height="298.1679389312977"></rect></g><g class="bar" transform="translate(208,27.92366412213738)"><rect x="1" width="11.999999999999996" height="282.0763358778626"></rect></g><g class="bar" transform="translate(221.00000000000003,64.83969465648858)"><rect x="1" width="11.999999999999996" height="245.16030534351142"></rect></g><g class="bar" transform="translate(234,70.04580152671755)"><rect x="1" width="11.999999999999996" height="239.95419847328245"></rect></g><g class="bar" transform="translate(247.00000000000003,113.58778625954201)"><rect x="1" width="11.999999999999996" height="196.412213740458"></rect></g><g class="bar" transform="translate(260,135.83206106870227)"><rect x="1" width="11.999999999999996" height="174.16793893129773"></rect></g><g class="bar" transform="translate(273,162.33587786259542)"><rect x="1" width="11.999999999999996" height="147.66412213740458"></rect></g><g class="bar" transform="translate(286,201.14503816793894)"><rect x="1" width="11.999999999999996" height="108.85496183206106"></rect></g><g class="bar" transform="translate(299.00000000000006,221.0229007633588)"><rect x="1" width="11.999999999999996" height="88.97709923664121"></rect></g><g class="bar" transform="translate(312.00000000000006,246.10687022900763)"><rect x="1" width="11.999999999999996" height="63.893129770992374"></rect></g><g class="bar" transform="translate(325,276.8702290076336)"><rect x="1" width="11.999999999999996" height="33.12977099236639"></rect></g><g class="bar" transform="translate(338,288.7022900763359)"><rect x="1" width="11.999999999999996" height="21.297709923664115"></rect></g><g class="bar" transform="translate(351,301.00763358778624)"><rect x="1" width="11.999999999999996" height="8.992366412213755"></rect></g><g class="bar" transform="translate(364.00000000000006,300.0610687022901)"><rect x="1" width="11.999999999999996" height="9.938931297709928"></rect></g><g class="bar" transform="translate(377.00000000000006,303.37404580152673)"><rect x="1" width="11.999999999999996" height="6.625954198473266"></rect></g><g class="bar" transform="translate(390,307.63358778625957)"><rect x="1" width="11.999999999999996" height="2.366412213740432"></rect></g><g class="bar" transform="translate(403,310)"><rect x="1" width="11.999999999999996" height="0"></rect></g><g class="bar" transform="translate(416,310)"><rect x="1" width="11.999999999999996" height="0"></rect></g><g class="bar" transform="translate(429.00000000000006,310)"><rect x="1" width="11.999999999999996" height="0"></rect></g><g class="bar" transform="translate(442.00000000000006,310)"><rect x="1" width="11.999999999999996" height="0"></rect></g><g class="bar" transform="translate(455,310)"><rect x="1" width="11.999999999999996" height="0"></rect></g><g class="bar" transform="translate(468,310)"><rect x="1" width="11.999999999999996" height="0"></rect></g><g class="bar" transform="translate(481,310)"><rect x="1" width="11.999999999999996" height="0"></rect></g><g class="bar" transform="translate(494.00000000000006,310)"><rect x="1" width="11.999999999999996" height="0"></rect></g><g class="bar" transform="translate(507.00000000000006,310)"><rect x="1" width="11.999999999999996" height="0"></rect></g><g class="axis axis--x" transform="translate(0,310)" fill="none" font-size="10" font-family="sans-serif" text-anchor="middle"><path class="domain" stroke="#000" d="M0.5,6V0.5H520.5V6"></path><g class="tick" opacity="1" transform="translate(0.5,0)"><line stroke="#000" y2="6"></line><text fill="#000" y="9" dy="0.71em">0.01</text></g><g class="tick" opacity="1" transform="translate(130.5,0)"><line stroke="#000" y2="6"></line><text fill="#000" y="9" dy="0.71em">1</text></g><g class="tick" opacity="1" transform="translate(260.5,0)"><line stroke="#000" y2="6"></line><text fill="#000" y="9" dy="0.71em">100</text></g><g class="tick" opacity="1" transform="translate(390.5,0)"><line stroke="#000" y2="6"></line><text fill="#000" y="9" dy="0.71em">10000</text></g><g class="tick" opacity="1" transform="translate(520.5,0)"><line stroke="#000" y2="6"></line><text fill="#000" y="9" dy="0.71em"></text></g></g><g class="axis axis--y" fill="none" font-size="10" font-family="sans-serif" text-anchor="end"><path class="domain" stroke="#000" d="M-6,310.5H0.5V0.5H-6"></path><g class="tick" opacity="1" transform="translate(0,310.5)"><line stroke="#000" x2="-6"></line><text fill="#000" x="-9" dy="0.32em">0</text></g><g class="tick" opacity="1" transform="translate(0,286.8358778625954)"><line stroke="#000" x2="-6"></line><text fill="#000" x="-9" dy="0.32em">50</text></g><g class="tick" opacity="1" transform="translate(0,263.17175572519085)"><line stroke="#000" x2="-6"></line><text fill="#000" x="-9" dy="0.32em">100</text></g><g class="tick" opacity="1" transform="translate(0,239.50763358778624)"><line stroke="#000" x2="-6"></line><text fill="#000" x="-9" dy="0.32em">150</text></g><g class="tick" opacity="1" transform="translate(0,215.8435114503817)"><line stroke="#000" x2="-6"></line><text fill="#000" x="-9" dy="0.32em">200</text></g><g class="tick" opacity="1" transform="translate(0,192.1793893129771)"><line stroke="#000" x2="-6"></line><text fill="#000" x="-9" dy="0.32em">250</text></g><g class="tick" opacity="1" transform="translate(0,168.51526717557252)"><line stroke="#000" x2="-6"></line><text fill="#000" x="-9" dy="0.32em">300</text></g><g class="tick" opacity="1" transform="translate(0,144.85114503816794)"><line stroke="#000" x2="-6"></line><text fill="#000" x="-9" dy="0.32em">350</text></g><g class="tick" opacity="1" transform="translate(0,121.18702290076337)"><line stroke="#000" x2="-6"></line><text fill="#000" x="-9" dy="0.32em">400</text></g><g class="tick" opacity="1" transform="translate(0,97.52290076335876)"><line stroke="#000" x2="-6"></line><text fill="#000" x="-9" dy="0.32em">450</text></g><g class="tick" opacity="1" transform="translate(0,73.85877862595419)"><line stroke="#000" x2="-6"></line><text fill="#000" x="-9" dy="0.32em">500</text></g><g class="tick" opacity="1" transform="translate(0,50.19465648854964)"><line stroke="#000" x2="-6"></line><text fill="#000" x="-9" dy="0.32em">550</text></g><g class="tick" opacity="1" transform="translate(0,26.530534351145036)"><line stroke="#000" x2="-6"></line><text fill="#000" x="-9" dy="0.32em">600</text></g><g class="tick" opacity="1" transform="translate(0,2.866412213740489)"><line stroke="#000" x2="-6"></line><text fill="#000" x="-9" dy="0.32em">650</text></g></g></g></svg>