<svg xmlns="http://www.w3.org/2000/svg" width="600" height="350"><defs><style type="text/css"><![CDATA[ 
.bar rect {
  fill-opacity: 0;
  stroke:       black;
  stroke-width: 0.5;
}

.highlight rect {
  fill:       red;
  fill-opacity: 1;
}
.axis path,
.axis line {
  fill: none;
  stroke: #000;
  shape-rendering: crispEdges;
}
 ]]></style></defs><g transform="translate(50,10)"><g class="bar" transform="translate(0,79.86687548942834)"><rect x="1" width="11.999999999999996" height="230.13312451057166"></rect></g><g class="bar" transform="translate(12.999999999999996,121.62098668754894)"><rect x="1" width="11.999999999999996" height="188.37901331245106"></rect></g><g class="bar" transform="translate(25.999999999999993,168.9584964761159)"><rect x="1" width="11.999999999999996" height="141.0415035238841"></rect></g><g class="bar" transform="translate(39.00000000000001,189.35003915426782)"><rect x="1" width="11.999999999999996" height="120.64996084573218"></rect></g><g class="bar" transform="translate(52,182.5528582615505)"><rect x="1" width="11.999999999999996" height="127.44714173844949"></rect></g><g class="bar" transform="translate(65,137.64291307752546)"><rect x="1" width="11.999999999999996" height="172.35708692247454"></rect></g><g class="bar" transform="translate(78.00000000000001,76.71104150352389)"><rect x="1" width="11.999999999999996" height="233.2889584964761"></rect></g><g class="bar" transform="translate(91.00000000000001,19.17776037588095)"><rect x="1" width="11.999999999999996" height="290.82223962411905"></rect></g><g class="bar" transform="translate(104,0)"><rect x="1" width="11.999999999999996" height="310"></rect></g><g class="bar" transform="translate(117,16.992952231793254)"><rect x="1" width="11.999999999999996" height="293.00704776820675"></rect></g><g class="bar" transform="translate(130,51.22161315583401)"><rect x="1" width="11.999999999999996" height="258.778386844166"></rect></g><g class="bar" transform="translate(143,66.02975724353956)"><rect x="1" width="11.999999999999996" height="243.97024275646044"></rect></g><g class="bar" transform="translate(156.00000000000003,75.49725920125292)"><rect x="1" width="11.999999999999996" height="234.50274079874708"></rect></g><g class="bar" transform="translate(169,83.02270947533282)"><rect x="1" width="11.999999999999996" height="226.97729052466718"></rect></g><g class="bar" transform="translate(182.00000000000003,81.80892717306185)"><rect x="1" width="11.999999999999996" height="228.19107282693815"></rect></g><g class="bar" transform="translate(195,92.4902114330462)"><rect x="1" width="11.999999999999996" height="217.5097885669538"></rect></g><g class="bar" transform="translate(208,119.92169146436962)"><rect x="1" width="11.999999999999996" height="190.07830853563038"></rect></g><g class="bar" transform="translate(221.00000000000003,145.41111981205952)"><rect x="1" width="11.999999999999996" height="164.58888018794048"></rect></g><g class="bar" transform="translate(234,174.29913860610804)"><rect x="1" width="11.999999999999996" height="135.70086139389196"></rect></g><g class="bar" transform="translate(247.00000000000003,182.7956147220047)"><rect x="1" width="11.999999999999996" height="127.2043852779953"></rect></g><g class="bar" transform="translate(260,211.68363351605325)"><rect x="1" width="11.999999999999996" height="98.31636648394675"></rect></g><g class="bar" transform="translate(273,224.5497259201253)"><rect x="1" width="11.999999999999996" height="85.4502740798747"></rect></g><g class="bar" transform="translate(286,242.02819107282693)"><rect x="1" width="11.999999999999996" height="67.97180892717307"></rect></g><g class="bar" transform="translate(299.00000000000006,268.2458888018794)"><rect x="1" width="11.999999999999996" height="41.7541111981206"></rect></g><g class="bar" transform="translate(312.00000000000006,281.59749412685983)"><rect x="1" width="11.999999999999996" height="28.40250587314017"></rect></g><g class="bar" transform="translate(325,291.3077525450274)"><rect x="1" width="11.999999999999996" height="18.692247454972573"></rect></g><g class="bar" transform="translate(338,297.13390759592795)"><rect x="1" width="11.999999999999996" height="12.866092404072049"></rect></g><g class="bar" transform="translate(351,304.65935787000785)"><rect x="1" width="11.999999999999996" height="5.340642129992148"></rect></g><g class="bar" transform="translate(364.00000000000006,307.3296789350039)"><rect x="1" width="11.999999999999996" height="2.670321064996074"></rect></g><g class="bar" transform="translate(377.00000000000006,308.78621769772906)"><rect x="1" width="11.999999999999996" height="1.2137823022709426"></rect></g><g class="bar" transform="translate(390,310)"><rect x="1" width="11.999999999999996" height="0"></rect></g><g class="bar" transform="translate(403,309.27173061863743)"><rect x="1" width="11.999999999999996" height="0.7282693813625656"></rect></g><g class="bar" transform="translate(416,310)"><rect x="1" width="11.999999999999996" height="0"></rect></g><g class="bar" transform="translate(429.00000000000006,309.7572435395458)"><rect x="1" width="11.999999999999996" height="0.24275646045418853"></rect></g><g class="bar" transform="translate(442.00000000000006,310)"><rect x="1" width="11.999999999999996" height="0"></rect></g><g class="bar" transform="translate(455,310)"><rect x="1" width="11.999999999999996" height="0"></rect></g><g class="bar" transform="translate(468,310)"><rect x="1" width="11.999999999999996" height="0"></rect></g><g class="bar" transform="translate(481,310)"><rect x="1" width="11.999999999999996" height="0"></rect></g><g class="bar" transform="translate(494.00000000000006,310)"><rect x="1" width="11.999999999999996" height="0"></rect></g><g class="bar" transform="translate(507.00000000000006,310)"><rect x="1" width="11.999999999999996" height="0"></rect></g><g class="axis axis--x" transform="translate(0,310)" fill="none" font-size="10" font-family="sans-serif" text-anchor="middle"><path class="domain" stroke="#000" d="M0.5,6V0.5H520.5V6"></path><g class="tick" opacity="1" transform="translate(0,0)"><line stroke="#000" y2="6" x1="0.5" x2="0.5"></line><text fill="#000" y="9" x="0.5" dy="0.71em">0.01</text></g><g class="tick" opacity="1" transform="translate(130,0)"><line stroke="#000" y2="6" x1="0.5" x2="0.5"></line><text fill="#000" y="9" x="0.5" dy="0.71em">1</text></g><g class="tick" opacity="1" transform="translate(260,0)"><line stroke="#000" y2="6" x1="0.5" x2="0.5"></line><text fill="#000" y="9" x="0.5" dy="0.71em">100</text></g><g class="tick" opacity="1" transform="translate(390,0)"><line stroke="#000" y2="6" x1="0.5" x2="0.5"></line><text fill="#000" y="9" x="0.5" dy="0.71em">10000</text></g><g class="tick" opacity="1" transform="translate(520,0)"><line stroke="#000" y2="6" x1="0.5" x2="0.5"></line><text fill="#000" y="9" x="0.5" dy="0.71em"></text></g></g><g class="axis axis--y" fill="none" font-size="10" font-family="sans-serif" text-anchor="end"><path class="domain" stroke="#000" d="M-6,310.5H0.5V0.5H-6"></path><g class="tick" opacity="1" transform="translate(0,310)"><line stroke="#000" x2="-6" y1="0.5" y2="0.5"></line><text fill="#000" x="-9" y="0.5" dy="0.32em">0</text></g><g class="tick" opacity="1" transform="translate(0,285.72435395458103)"><line stroke="#000" x2="-6" y1="0.5" y2="0.5"></line><text fill="#000" x="-9" y="0.5" dy="0.32em">100</text></g><g class="tick" opacity="1" transform="translate(0,261.44870790916207)"><line stroke="#000" x2="-6" y1="0.5" y2="0.5"></line><text fill="#000" x="-9" y="0.5" dy="0.32em">200</text></g><g class="tick" opacity="1" transform="translate(0,237.17306186374316)"><line stroke="#000" x2="-6" y1="0.5" y2="0.5"></line><text fill="#000" x="-9" y="0.5" dy="0.32em">300</text></g><g class="tick" opacity="1" transform="translate(0,212.8974158183242)"><line stroke="#000" x2="-6" y1="0.5" y2="0.5"></line><text fill="#000" x="-9" y="0.5" dy="0.32em">400</text></g><g class="tick" opacity="1" transform="translate(0,188.62176977290522)"><line stroke="#000" x2="-6" y1="0.5" y2="0.5"></line><text fill="#000" x="-9" y="0.5" dy="0.32em">500</text></g><g class="tick" opacity="1" transform="translate(0,164.3461237274863)"><line stroke="#000" x2="-6" y1="0.5" y2="0.5"></line><text fill="#000" x="-9" y="0.5" dy="0.32em">600</text></g><g class="tick" opacity="1" transform="translate(0,140.07047768206735)"><line stroke="#000" x2="-6" y1="0.5" y2="0.5"></line><text fill="#000" x="-9" y="0.5" dy="0.32em">700</text></g><g class="tick" opacity="1" transform="translate(0,115.79483163664838)"><line stroke="#000" x2="-6" y1="0.5" y2="0.5"></line><text fill="#000" x="-9" y="0.5" dy="0.32em">800</text></g><g class="tick" opacity="1" transform="translate(0,91.51918559122944)"><line stroke="#000" x2="-6" y1="0.5" y2="0.5"></line><text fill="#000" x="-9" y="0.5" dy="0.32em">900</text></g><g class="tick" opacity="1" transform="translate(0,67.24353954581048)"><line stroke="#000" x2="-6" y1="0.5" y2="0.5"></line><text fill="#000" x="-9" y="0.5" dy="0.32em">1,000</text></g><g class="tick" opacity="1" transform="translate(0,42.96789350039154)"><line stroke="#000" x2="-6" y1="0.5" y2="0.5"></line><text fill="#000" x="-9" y="0.5" dy="0.32em">1,100</text></g><g class="tick" opacity="1" transform="translate(0,18.692247454972573)"><line stroke="#000" x2="-6" y1="0.5" y2="0.5"></line><text fill="#000" x="-9" y="0.5" dy="0.32em">1,200</text></g></g></g></svg>