<svg xmlns="http://www.w3.org/2000/svg" width="600" height="350"><defs><style type="text/css"><![CDATA[ 
.bar rect {
  fill-opacity: 0;
  stroke:       black;
  stroke-width: 0.5;
}

.highlight rect {
  fill:       red;
  fill-opacity: 1;
}
.axis path,
.axis line {
  fill: none;
  stroke: #000;
  shape-rendering: crispEdges;
}
path {
    stroke: red;
    fill: none;
}

line {
    stroke: red;
}

path.marker {
    fill: red;
}
 ]]></style></defs><g transform="translate(50,10)"><g class="bar" transform="translate(0,307.4166666666667)"><rect x="1" width="11.999999999999996" height="2.5833333333333144"></rect></g><g class="bar" transform="translate(12.999999999999996,302.25)"><rect x="1" width="11.999999999999996" height="7.75"></rect></g><g class="bar" transform="translate(25.999999999999993,300.52777777777777)"><rect x="1" width="11.999999999999996" height="9.472222222222229"></rect></g><g class="bar" transform="translate(39.00000000000001,286.75)"><rect x="1" width="11.999999999999996" height="23.25"></rect></g><g class="bar" transform="translate(52,266.0833333333333)"><rect x="1" width="11.999999999999996" height="43.916666666666686"></rect></g><g class="bar" transform="translate(65,222.16666666666669)"><rect x="1" width="11.999999999999996" height="87.83333333333331"></rect></g><g class="bar" transform="translate(78.00000000000001,198.05555555555554)"><rect x="1" width="11.999999999999996" height="111.94444444444446"></rect></g><g class="bar" transform="translate(91.00000000000001,189.44444444444446)"><rect x="1" width="11.999999999999996" height="120.55555555555554"></rect></g><g class="bar" transform="translate(104,181.69444444444446)"><rect x="1" width="11.999999999999996" height="128.30555555555554"></rect></g><g class="bar" transform="translate(117,127.44444444444443)"><rect x="1" width="11.999999999999996" height="182.55555555555557"></rect></g><g class="bar" transform="translate(130,126.58333333333334)"><rect x="1" width="11.999999999999996" height="183.41666666666666"></rect></g><g class="bar" transform="translate(143,67.16666666666666)"><rect x="1" width="11.999999999999996" height="242.83333333333334"></rect></g><g class="bar" transform="translate(156.00000000000003,86.11111111111111)"><rect x="1" width="11.999999999999996" height="223.88888888888889"></rect></g><g class="bar" transform="translate(169,44.77777777777777)"><rect x="1" width="11.999999999999996" height="265.22222222222223"></rect></g><g class="bar" transform="translate(182.00000000000003,31)"><rect x="1" width="11.999999999999996" height="279"></rect></g><g class="bar" transform="translate(195,18.944444444444457)"><rect x="1" width="11.999999999999996" height="291.05555555555554"></rect></g><g class="bar" transform="translate(208,0)"><rect x="1" width="11.999999999999996" height="310"></rect></g><g class="bar" transform="translate(221.00000000000003,7.75)"><rect x="1" width="11.999999999999996" height="302.25"></rect></g><g class="bar" transform="translate(234,35.30555555555554)"><rect x="1" width="11.999999999999996" height="274.69444444444446"></rect></g><g class="bar" transform="translate(247.00000000000003,29.27777777777777)"><rect x="1" width="11.999999999999996" height="280.72222222222223"></rect></g><g class="bar" transform="translate(260,35.30555555555554)"><rect x="1" width="11.999999999999996" height="274.69444444444446"></rect></g><g class="bar" transform="translate(273,75.77777777777777)"><rect x="1" width="11.999999999999996" height="234.22222222222223"></rect></g><g class="bar" transform="translate(286,111.08333333333331)"><rect x="1" width="11.999999999999996" height="198.91666666666669"></rect></g><g class="bar" transform="translate(299.00000000000006,146.38888888888889)"><rect x="1" width="11.999999999999996" height="163.61111111111111"></rect></g><g class="bar" transform="translate(312.00000000000006,187.72222222222223)"><rect x="1" width="11.999999999999996" height="122.27777777777777"></rect></g><g class="bar" transform="translate(325,223.02777777777777)"><rect x="1" width="11.999999999999996" height="86.97222222222223"></rect></g><g class="bar" transform="translate(338,275.55555555555554)"><rect x="1" width="11.999999999999996" height="34.44444444444446"></rect></g><g class="bar" transform="translate(351,285.8888888888889)"><rect x="1" width="11.999999999999996" height="24.111111111111086"></rect></g><g class="bar" transform="translate(364.00000000000006,300.52777777777777)"><rect x="1" width="11.999999999999996" height="9.472222222222229"></rect></g><g class="bar" transform="translate(377.00000000000006,302.25)"><rect x="1" width="11.999999999999996" height="7.75"></rect></g><g class="bar" transform="translate(390,306.55555555555554)"><rect x="1" width="11.999999999999996" height="3.444444444444457"></rect></g><g class="bar" transform="translate(403,306.55555555555554)"><rect x="1" width="11.999999999999996" height="3.444444444444457"></rect></g><g class="bar" transform="translate(416,310)"><rect x="1" width="11.999999999999996" height="0"></rect></g><g class="bar" transform="translate(429.00000000000006,310)"><rect x="1" width="11.999999999999996" height="0"></rect></g><g class="bar" transform="translate(442.00000000000006,310)"><rect x="1" width="11.999999999999996" height="0"></rect></g><g class="bar" transform="translate(455,310)"><rect x="1" width="11.999999999999996" height="0"></rect></g><g class="bar" transform="translate(468,310)"><rect x="1" width="11.999999999999996" height="0"></rect></g><g class="bar" transform="translate(481,310)"><rect x="1" width="11.999999999999996" height="0"></rect></g><g class="bar" transform="translate(494.00000000000006,310)"><rect x="1" width="11.999999999999996" height="0"></rect></g><g class="bar" transform="translate(507.00000000000006,310)"><rect x="1" width="11.999999999999996" height="0"></rect></g><g class="axis axis--x" transform="translate(0,310)" fill="none" font-size="10" font-family="sans-serif" text-anchor="middle"><path class="domain" stroke="#000" d="M0.5,6V0.5H520.5V6"></path><g class="tick" opacity="1" transform="translate(0.5,0)"><line stroke="#000" y2="6"></line><text fill="#000" y="9" dy="0.71em">0.01</text></g><g class="tick" opacity="1" transform="translate(130.5,0)"><line stroke="#000" y2="6"></line><text fill="#000" y="9" dy="0.71em">1</text></g><g class="tick" opacity="1" transform="translate(260.5,0)"><line stroke="#000" y2="6"></line><text fill="#000" y="9" dy="0.71em">100</text></g><g class="tick" opacity="1" transform="translate(390.5,0)"><line stroke="#000" y2="6"></line><text fill="#000" y="9" dy="0.71em">10000</text></g><g class="tick" opacity="1" transform="translate(520.5,0)"><line stroke="#000" y2="6"></line><text fill="#000" y="9" dy="0.71em"></text></g></g><g class="axis axis--y" fill="none" font-size="10" font-family="sans-serif" text-anchor="end"><path class="domain" stroke="#000" d="M-6,310.5H0.5V0.5H-6"></path><g class="tick" opacity="1" transform="translate(0,310.5)"><line stroke="#000" x2="-6"></line><text fill="#000" x="-9" dy="0.32em">0</text></g><g class="tick" opacity="1" transform="translate(0,267.44444444444446)"><line stroke="#000" x2="-6"></line><text fill="#000" x="-9" dy="0.32em">50</text></g><g class="tick" opacity="1" transform="translate(0,224.38888888888889)"><line stroke="#000" x2="-6"></line><text fill="#000" x="-9" dy="0.32em">100</text></g><g class="tick" opacity="1" transform="translate(0,181.33333333333331)"><line stroke="#000" x2="-6"></line><text fill="#000" x="-9" dy="0.32em">150</text></g><g class="tick" opacity="1" transform="translate(0,138.27777777777777)"><line stroke="#000" x2="-6"></line><text fill="#000" x="-9" dy="0.32em">200</text></g><g class="tick" opacity="1" transform="translate(0,95.22222222222223)"><line stroke="#000" x2="-6"></line><text fill="#000" x="-9" dy="0.32em">250</text></g><g class="tick" opacity="1" transform="translate(0,52.16666666666663)"><line stroke="#000" x2="-6"></line><text fill="#000" x="-9" dy="0.32em">300</text></g><g class="tick" opacity="1" transform="translate(0,9.111111111111143)"><line stroke="#000" x2="-6"></line><text fill="#000" x="-9" dy="0.32em">350</text></g></g></g></svg>