<svg xmlns="http://www.w3.org/2000/svg" width="280" height="160"><defs><style type="text/css"><![CDATA[ 
.bar rect {
  fill-opacity: 0;
  stroke:       black;
  stroke-width: 0.5;
}

.highlight rect {
  fill:       red;
  fill-opacity: 1;
}
.axis path,
.axis line {
  fill: none;
  stroke: #000;
  shape-rendering: crispEdges;
}
path {
    stroke: red;
    fill: none;
}

line {
    stroke: red;
}

path.marker {
    fill: red;
}
 ]]></style></defs><g transform="translate(50,10)"><g class="bar" transform="translate(0,120)"><rect x="1" width="11.5" height="0"></rect></g><g class="bar" transform="translate(12.5,119.01234567901234)"><rect x="1" width="11.5" height="0.9876543209876587"></rect></g><g class="bar" transform="translate(25,113.58024691358025)"><rect x="1" width="11.5" height="6.419753086419746"></rect></g><g class="bar" transform="translate(37.5,107.1604938271605)"><rect x="1" width="11.5" height="12.839506172839506"></rect></g><g class="bar" transform="translate(50,91.11111111111111)"><rect x="1" width="11.5" height="28.888888888888886"></rect></g><g class="bar" transform="translate(62.5,63.456790123456784)"><rect x="1" width="11.5" height="56.543209876543216"></rect></g><g class="bar" transform="translate(75,36.04938271604938)"><rect x="1" width="11.5" height="83.95061728395062"></rect></g><g class="bar" transform="translate(87.5,15.061728395061735)"><rect x="1" width="11.5" height="104.93827160493827"></rect></g><g class="bar" transform="translate(100,0)"><rect x="1" width="11.5" height="120"></rect></g><g class="bar" transform="translate(112.5,19.259259259259267)"><rect x="1" width="11.5" height="100.74074074074073"></rect></g><g class="bar" transform="translate(125,70.37037037037037)"><rect x="1" width="11.5" height="49.62962962962963"></rect></g><g class="bar" transform="translate(137.5,107.4074074074074)"><rect x="1" width="11.5" height="12.592592592592595"></rect></g><g class="bar" transform="translate(150,119.01234567901234)"><rect x="1" width="11.5" height="0.9876543209876587"></rect></g><g class="bar" transform="translate(162.5,120)"><rect x="1" width="11.5" height="0"></rect></g><g class="bar" transform="translate(175,120)"><rect x="1" width="11.5" height="0"></rect></g><g class="bar" transform="translate(187.5,120)"><rect x="1" width="11.5" height="0"></rect></g></g></svg>