<svg xmlns="http://www.w3.org/2000/svg" width="280" height="160"><defs><style type="text/css"><![CDATA[ 
.bar rect {
  fill-opacity: 0;
  stroke:       black;
  stroke-width: 0.5;
}

.highlight rect {
  fill:       red;
  fill-opacity: 1;
}
.axis path,
.axis line {
  fill: none;
  stroke: #000;
  shape-rendering: crispEdges;
}
 ]]></style></defs><g transform="translate(50,10)"><g class="bar" transform="translate(0,113.00268096514745)"><rect x="1" width="11.5" height="6.997319034852552"></rect></g><g class="bar" transform="translate(12.5,103.35120643431635)"><rect x="1" width="11.5" height="16.648793565683647"></rect></g><g class="bar" transform="translate(25,83.00268096514745)"><rect x="1" width="11.5" height="36.99731903485255"></rect></g><g class="bar" transform="translate(37.5,56.21983914209116)"><rect x="1" width="11.5" height="63.78016085790884"></rect></g><g class="bar" transform="translate(50,29.51742627345844)"><rect x="1" width="11.5" height="90.48257372654156"></rect></g><g class="bar" transform="translate(62.5,0)"><rect x="1" width="11.5" height="120"></rect></g><g class="bar" transform="translate(75,7.7211796246648845)"><rect x="1" width="11.5" height="112.27882037533512"></rect></g><g class="bar" transform="translate(87.5,28.63270777479893)"><rect x="1" width="11.5" height="91.36729222520107"></rect></g><g class="bar" transform="translate(100,57.58713136729222)"><rect x="1" width="11.5" height="62.41286863270778"></rect></g><g class="bar" transform="translate(112.5,89.59785522788204)"><rect x="1" width="11.5" height="30.402144772117964"></rect></g><g class="bar" transform="translate(125,107.05093833780161)"><rect x="1" width="11.5" height="12.949061662198389"></rect></g><g class="bar" transform="translate(137.5,116.62198391420911)"><rect x="1" width="11.5" height="3.3780160857908896"></rect></g><g class="bar" transform="translate(150,119.59785522788204)"><rect x="1" width="11.5" height="0.40214477211796407"></rect></g><g class="bar" transform="translate(162.5,120)"><rect x="1" width="11.5" height="0"></rect></g><g class="bar" transform="translate(175,120)"><rect x="1" width="11.5" height="0"></rect></g><g class="bar" transform="translate(187.5,120)"><rect x="1" width="11.5" height="0"></rect></g></g></svg>