<svg xmlns="http://www.w3.org/2000/svg" width="280" height="160"><defs><style type="text/css"><![CDATA[ 
.bar rect {
  fill-opacity: 0;
  stroke:       black;
  stroke-width: 0.5;
}

.highlight rect {
  fill:       red;
  fill-opacity: 1;
}
.axis path,
.axis line {
  fill: none;
  stroke: #000;
  shape-rendering: crispEdges;
}
path {
    stroke: red;
    fill: none;
}

line {
    stroke: red;
}

path.marker {
    fill: red;
}
 ]]></style></defs><g transform="translate(50,10)"><g class="bar" transform="translate(0,120)"><rect x="1" width="11.5" height="0"></rect></g><g class="bar" transform="translate(12.5,120)"><rect x="1" width="11.5" height="0"></rect></g><g class="bar" transform="translate(25,120)"><rect x="1" width="11.5" height="0"></rect></g><g class="bar" transform="translate(37.5,106.69950738916256)"><rect x="1" width="11.5" height="13.300492610837438"></rect></g><g class="bar" transform="translate(50,99.60591133004927)"><rect x="1" width="11.5" height="20.394088669950733"></rect></g><g class="bar" transform="translate(62.5,48.32512315270937)"><rect x="1" width="11.5" height="71.67487684729063"></rect></g><g class="bar" transform="translate(75,9.01477832512316)"><rect x="1" width="11.5" height="110.98522167487684"></rect></g><g class="bar" transform="translate(87.5,0)"><rect x="1" width="11.5" height="120"></rect></g><g class="bar" transform="translate(100,18.472906403940883)"><rect x="1" width="11.5" height="101.52709359605912"></rect></g><g class="bar" transform="translate(112.5,65.61576354679804)"><rect x="1" width="11.5" height="54.384236453201964"></rect></g><g class="bar" transform="translate(125,101.9704433497537)"><rect x="1" width="11.5" height="18.029556650246306"></rect></g><g class="bar" transform="translate(137.5,113.49753694581281)"><rect x="1" width="11.5" height="6.502463054187189"></rect></g><g class="bar" transform="translate(150,119.55665024630542)"><rect x="1" width="11.5" height="0.4433497536945765"></rect></g><g class="bar" transform="translate(162.5,119.70443349753694)"><rect x="1" width="11.5" height="0.2955665024630605"></rect></g><g class="bar" transform="translate(175,120)"><rect x="1" width="11.5" height="0"></rect></g><g class="bar" transform="translate(187.5,120)"><rect x="1" width="11.5" height="0"></rect></g></g></svg>