<svg xmlns="http://www.w3.org/2000/svg" width="600" height="350"><defs><style type="text/css"><![CDATA[ 
.bar rect {
  fill-opacity: 0;
  stroke:       black;
  stroke-width: 0.5;
}

.highlight rect {
  fill:       red;
  fill-opacity: 1;
}
.axis path,
.axis line {
  fill: none;
  stroke: #000;
  shape-rendering: crispEdges;
}
path {
    stroke: red;
    fill: none;
}

line {
    stroke: red;
}

path.marker {
    fill: red;
}
 ]]></style></defs><g transform="translate(50,10)"><g class="bar" transform="translate(0,310)"><rect x="1" width="11.999999999999996" height="0"></rect></g><g class="bar" transform="translate(12.999999999999996,310)"><rect x="1" width="11.999999999999996" height="0"></rect></g><g class="bar" transform="translate(25.999999999999993,310)"><rect x="1" width="11.999999999999996" height="0"></rect></g><g class="bar" transform="translate(39.00000000000001,310)"><rect x="1" width="11.999999999999996" height="0"></rect></g><g class="bar" transform="translate(52,310)"><rect x="1" width="11.999999999999996" height="0"></rect></g><g class="bar" transform="translate(65,310)"><rect x="1" width="11.999999999999996" height="0"></rect></g><g class="bar" transform="translate(78.00000000000001,310)"><rect x="1" width="11.999999999999996" height="0"></rect></g><g class="bar" transform="translate(91.00000000000001,308.1381381381381)"><rect x="1" width="11.999999999999996" height="1.8618618618618825"></rect></g><g class="bar" transform="translate(104,256.93693693693695)"><rect x="1" width="11.999999999999996" height="53.063063063063055"></rect></g><g class="bar" transform="translate(117,281.14114114114113)"><rect x="1" width="11.999999999999996" height="28.858858858858866"></rect></g><g class="bar" transform="translate(130,283.93393393393393)"><rect x="1" width="11.999999999999996" height="26.06606606606607"></rect></g><g class="bar" transform="translate(143,259.72972972972974)"><rect x="1" width="11.999999999999996" height="50.27027027027026"></rect></g><g class="bar" transform="translate(156.00000000000003,197.35735735735733)"><rect x="1" width="11.999999999999996" height="112.64264264264267"></rect></g><g class="bar" transform="translate(169,126.60660660660662)"><rect x="1" width="11.999999999999996" height="183.39339339339338"></rect></g><g class="bar" transform="translate(182.00000000000003,102.4024024024024)"><rect x="1" width="11.999999999999996" height="207.5975975975976"></rect></g><g class="bar" transform="translate(195,49.33933933933935)"><rect x="1" width="11.999999999999996" height="260.66066066066065"></rect></g><g class="bar" transform="translate(208,16.756756756756772)"><rect x="1" width="11.999999999999996" height="293.2432432432432"></rect></g><g class="bar" transform="translate(221.00000000000003,0)"><rect x="1" width="11.999999999999996" height="310"></rect></g><g class="bar" transform="translate(234,11.171171171171181)"><rect x="1" width="11.999999999999996" height="298.8288288288288"></rect></g><g class="bar" transform="translate(247.00000000000003,17.687687687687685)"><rect x="1" width="11.999999999999996" height="292.3123123123123"></rect></g><g class="bar" transform="translate(260,30.720720720720692)"><rect x="1" width="11.999999999999996" height="279.2792792792793"></rect></g><g class="bar" transform="translate(273,53.063063063063055)"><rect x="1" width="11.999999999999996" height="256.93693693693695"></rect></g><g class="bar" transform="translate(286,107.98798798798799)"><rect x="1" width="11.999999999999996" height="202.012012012012"></rect></g><g class="bar" transform="translate(299.00000000000006,164.77477477477478)"><rect x="1" width="11.999999999999996" height="145.22522522522522"></rect></g><g class="bar" transform="translate(312.00000000000006,211.3213213213213)"><rect x="1" width="11.999999999999996" height="98.6786786786787"></rect></g><g class="bar" transform="translate(325,252.28228228228227)"><rect x="1" width="11.999999999999996" height="57.71771771771773"></rect></g><g class="bar" transform="translate(338,269.03903903903904)"><rect x="1" width="11.999999999999996" height="40.96096096096096"></rect></g><g class="bar" transform="translate(351,282.07207207207205)"><rect x="1" width="11.999999999999996" height="27.927927927927954"></rect></g><g class="bar" transform="translate(364.00000000000006,286.7267267267267)"><rect x="1" width="11.999999999999996" height="23.273273273273276"></rect></g><g class="bar" transform="translate(377.00000000000006,305.3453453453453)"><rect x="1" width="11.999999999999996" height="4.654654654654678"></rect></g><g class="bar" transform="translate(390,308.1381381381381)"><rect x="1" width="11.999999999999996" height="1.8618618618618825"></rect></g><g class="bar" transform="translate(403,309.0690690690691)"><rect x="1" width="11.999999999999996" height="0.9309309309309128"></rect></g><g class="bar" transform="translate(416,310)"><rect x="1" width="11.999999999999996" height="0"></rect></g><g class="bar" transform="translate(429.00000000000006,308.1381381381381)"><rect x="1" width="11.999999999999996" height="1.8618618618618825"></rect></g><g class="bar" transform="translate(442.00000000000006,310)"><rect x="1" width="11.999999999999996" height="0"></rect></g><g class="bar" transform="translate(455,310)"><rect x="1" width="11.999999999999996" height="0"></rect></g><g class="bar" transform="translate(468,310)"><rect x="1" width="11.999999999999996" height="0"></rect></g><g class="bar" transform="translate(481,310)"><rect x="1" width="11.999999999999996" height="0"></rect></g><g class="bar" transform="translate(494.00000000000006,310)"><rect x="1" width="11.999999999999996" height="0"></rect></g><g class="bar" transform="translate(507.00000000000006,310)"><rect x="1" width="11.999999999999996" height="0"></rect></g><g class="axis axis--x" transform="translate(0,310)" fill="none" font-size="10" font-family="sans-serif" text-anchor="middle"><path class="domain" stroke="#000" d="M0.5,6V0.5H520.5V6"></path><g class="tick" opacity="1" transform="translate(0.5,0)"><line stroke="#000" y2="6"></line><text fill="#000" y="9" dy="0.71em">0.01</text></g><g class="tick" opacity="1" transform="translate(130.5,0)"><line stroke="#000" y2="6"></line><text fill="#000" y="9" dy="0.71em">1</text></g><g class="tick" opacity="1" transform="translate(260.5,0)"><line stroke="#000" y2="6"></line><text fill="#000" y="9" dy="0.71em">100</text></g><g class="tick" opacity="1" transform="translate(390.5,0)"><line stroke="#000" y2="6"></line><text fill="#000" y="9" dy="0.71em">10000</text></g><g class="tick" opacity="1" transform="translate(520.5,0)"><line stroke="#000" y2="6"></line><text fill="#000" y="9" dy="0.71em"></text></g></g><g class="axis axis--y" fill="none" font-size="10" font-family="sans-serif" text-anchor="end"><path class="domain" stroke="#000" d="M-6,310.5H0.5V0.5H-6"></path><g class="tick" opacity="1" transform="translate(0,310.5)"><line stroke="#000" x2="-6"></line><text fill="#000" x="-9" dy="0.32em">0</text></g><g class="tick" opacity="1" transform="translate(0,263.95345345345345)"><line stroke="#000" x2="-6"></line><text fill="#000" x="-9" dy="0.32em">50</text></g><g class="tick" opacity="1" transform="translate(0,217.4069069069069)"><line stroke="#000" x2="-6"></line><text fill="#000" x="-9" dy="0.32em">100</text></g><g class="tick" opacity="1" transform="translate(0,170.86036036036035)"><line stroke="#000" x2="-6"></line><text fill="#000" x="-9" dy="0.32em">150</text></g><g class="tick" opacity="1" transform="translate(0,124.31381381381382)"><line stroke="#000" x2="-6"></line><text fill="#000" x="-9" dy="0.32em">200</text></g><g class="tick" opacity="1" transform="translate(0,77.76726726726727)"><line stroke="#000" x2="-6"></line><text fill="#000" x="-9" dy="0.32em">250</text></g><g class="tick" opacity="1" transform="translate(0,31.220720720720692)"><line stroke="#000" x2="-6"></line><text fill="#000" x="-9" dy="0.32em">300</text></g></g></g></svg>