<svg xmlns="http://www.w3.org/2000/svg" width="280" height="160"><defs><style type="text/css"><![CDATA[ 
.bar rect {
  fill-opacity: 0;
  stroke:       black;
  stroke-width: 0.5;
}

.highlight rect {
  fill:       red;
  fill-opacity: 1;
}
.axis path,
.axis line {
  fill: none;
  stroke: #000;
  shape-rendering: crispEdges;
}
 ]]></style></defs><g transform="translate(50,10)"><g class="bar" transform="translate(0,120)"><rect x="1" width="11.5" height="0"></rect></g><g class="bar" transform="translate(12.5,119.65417867435158)"><rect x="1" width="11.5" height="0.3458213256484157"></rect></g><g class="bar" transform="translate(25,117.0028818443804)"><rect x="1" width="11.5" height="2.997118155619603"></rect></g><g class="bar" transform="translate(37.5,99.36599423631124)"><rect x="1" width="11.5" height="20.634005763688762"></rect></g><g class="bar" transform="translate(50,61.325648414985594)"><rect x="1" width="11.5" height="58.674351585014406"></rect></g><g class="bar" transform="translate(62.5,20.7492795389049)"><rect x="1" width="11.5" height="99.2507204610951"></rect></g><g class="bar" transform="translate(75,0)"><rect x="1" width="11.5" height="120"></rect></g><g class="bar" transform="translate(87.5,14.870317002881833)"><rect x="1" width="11.5" height="105.12968299711817"></rect></g><g class="bar" transform="translate(100,48.87608069164264)"><rect x="1" width="11.5" height="71.12391930835736"></rect></g><g class="bar" transform="translate(112.5,78.27089337175792)"><rect x="1" width="11.5" height="41.72910662824208"></rect></g><g class="bar" transform="translate(125,104.32276657060518)"><rect x="1" width="11.5" height="15.677233429394818"></rect></g><g class="bar" transform="translate(137.5,114.35158501440922)"><rect x="1" width="11.5" height="5.648414985590776"></rect></g><g class="bar" transform="translate(150,119.42363112391931)"><rect x="1" width="11.5" height="0.5763688760806929"></rect></g><g class="bar" transform="translate(162.5,119.88472622478386)"><rect x="1" width="11.5" height="0.11527377521613857"></rect></g><g class="bar" transform="translate(175,120)"><rect x="1" width="11.5" height="0"></rect></g><g class="bar" transform="translate(187.5,120)"><rect x="1" width="11.5" height="0"></rect></g></g></svg>