<svg xmlns="http://www.w3.org/2000/svg" width="600" height="350"><defs><style type="text/css"><![CDATA[ 
.bar rect {
  fill-opacity: 0;
  stroke:       black;
  stroke-width: 0.5;
}

.highlight rect {
  fill:       red;
  fill-opacity: 1;
}
.axis path,
.axis line {
  fill: none;
  stroke: #000;
  shape-rendering: crispEdges;
}
 ]]></style></defs><g transform="translate(50,10)"><g class="bar" transform="translate(0,310)"><rect x="1" width="11.999999999999996" height="0"></rect></g><g class="bar" transform="translate(12.999999999999996,310)"><rect x="1" width="11.999999999999996" height="0"></rect></g><g class="bar" transform="translate(25.999999999999993,310)"><rect x="1" width="11.999999999999996" height="0"></rect></g><g class="bar" transform="translate(39.00000000000001,310)"><rect x="1" width="11.999999999999996" height="0"></rect></g><g class="bar" transform="translate(52,307.7590361445783)"><rect x="1" width="11.999999999999996" height="2.2409638554216826"></rect></g><g class="bar" transform="translate(65,304.7710843373494)"><rect x="1" width="11.999999999999996" height="5.228915662650593"></rect></g><g class="bar" transform="translate(78.00000000000001,305.51807228915663)"><rect x="1" width="11.999999999999996" height="4.481927710843365"></rect></g><g class="bar" transform="translate(91.00000000000001,285.34939759036143)"><rect x="1" width="11.999999999999996" height="24.650602409638566"></rect></g><g class="bar" transform="translate(104,259.2048192771084)"><rect x="1" width="11.999999999999996" height="50.79518072289159"></rect></g><g class="bar" transform="translate(117,242.02409638554218)"><rect x="1" width="11.999999999999996" height="67.97590361445782"></rect></g><g class="bar" transform="translate(130,191.97590361445782)"><rect x="1" width="11.999999999999996" height="118.02409638554218"></rect></g><g class="bar" transform="translate(143,159.10843373493975)"><rect x="1" width="11.999999999999996" height="150.89156626506025"></rect></g><g class="bar" transform="translate(156.00000000000003,80.67469879518075)"><rect x="1" width="11.999999999999996" height="229.32530120481925"></rect></g><g class="bar" transform="translate(169,73.20481927710841)"><rect x="1" width="11.999999999999996" height="236.7951807228916"></rect></g><g class="bar" transform="translate(182.00000000000003,21.662650602409656)"><rect x="1" width="11.999999999999996" height="288.33734939759034"></rect></g><g class="bar" transform="translate(195,2.2409638554216826)"><rect x="1" width="11.999999999999996" height="307.7590361445783"></rect></g><g class="bar" transform="translate(208,0)"><rect x="1" width="11.999999999999996" height="310"></rect></g><g class="bar" transform="translate(221.00000000000003,17.18072289156629)"><rect x="1" width="11.999999999999996" height="292.8192771084337"></rect></g><g class="bar" transform="translate(234,28.385542168674704)"><rect x="1" width="11.999999999999996" height="281.6144578313253"></rect></g><g class="bar" transform="translate(247.00000000000003,43.325301204819255)"><rect x="1" width="11.999999999999996" height="266.67469879518075"></rect></g><g class="bar" transform="translate(260,97.10843373493975)"><rect x="1" width="11.999999999999996" height="212.89156626506025"></rect></g><g class="bar" transform="translate(273,142.67469879518072)"><rect x="1" width="11.999999999999996" height="167.32530120481928"></rect></g><g class="bar" transform="translate(286,166.57831325301206)"><rect x="1" width="11.999999999999996" height="143.42168674698794"></rect></g><g class="bar" transform="translate(299.00000000000006,185.25301204819277)"><rect x="1" width="11.999999999999996" height="124.74698795180723"></rect></g><g class="bar" transform="translate(312.00000000000006,227.0843373493976)"><rect x="1" width="11.999999999999996" height="82.9156626506024"></rect></g><g class="bar" transform="translate(325,255.46987951807228)"><rect x="1" width="11.999999999999996" height="54.530120481927725"></rect></g><g class="bar" transform="translate(338,277.13253012048193)"><rect x="1" width="11.999999999999996" height="32.86746987951807"></rect></g><g class="bar" transform="translate(351,284.6024096385542)"><rect x="1" width="11.999999999999996" height="25.397590361445793"></rect></g><g class="bar" transform="translate(364.00000000000006,292.0722891566265)"><rect x="1" width="11.999999999999996" height="17.927710843373518"></rect></g><g class="bar" transform="translate(377.00000000000006,302.5301204819277)"><rect x="1" width="11.999999999999996" height="7.4698795180722755"></rect></g><g class="bar" transform="translate(390,307.0120481927711)"><rect x="1" width="11.999999999999996" height="2.98795180722891"></rect></g><g class="bar" transform="translate(403,309.2530120481928)"><rect x="1" width="11.999999999999996" height="0.7469879518072275"></rect></g><g class="bar" transform="translate(416,310)"><rect x="1" width="11.999999999999996" height="0"></rect></g><g class="bar" transform="translate(429.00000000000006,310)"><rect x="1" width="11.999999999999996" height="0"></rect></g><g class="bar" transform="translate(442.00000000000006,309.2530120481928)"><rect x="1" width="11.999999999999996" height="0.7469879518072275"></rect></g><g class="bar" transform="translate(455,310)"><rect x="1" width="11.999999999999996" height="0"></rect></g><g class="bar" transform="translate(468,310)"><rect x="1" width="11.999999999999996" height="0"></rect></g><g class="bar" transform="translate(481,310)"><rect x="1" width="11.999999999999996" height="0"></rect></g><g class="bar" transform="translate(494.00000000000006,310)"><rect x="1" width="11.999999999999996" height="0"></rect></g><g class="bar" transform="translate(507.00000000000006,310)"><rect x="1" width="11.999999999999996" height="0"></rect></g><g class="axis axis--x" transform="translate(0,310)" fill="none" font-size="10" font-family="sans-serif" text-anchor="middle"><path class="domain" stroke="#000" d="M0.5,6V0.5H520.5V6"></path><g class="tick" opacity="1" transform="translate(0,0)"><line stroke="#000" y2="6" x1="0.5" x2="0.5"></line><text fill="#000" y="9" x="0.5" dy="0.71em">0.01</text></g><g class="tick" opacity="1" transform="translate(130,0)"><line stroke="#000" y2="6" x1="0.5" x2="0.5"></line><text fill="#000" y="9" x="0.5" dy="0.71em">1</text></g><g class="tick" opacity="1" transform="translate(260,0)"><line stroke="#000" y2="6" x1="0.5" x2="0.5"></line><text fill="#000" y="9" x="0.5" dy="0.71em">100</text></g><g class="tick" opacity="1" transform="translate(390,0)"><line stroke="#000" y2="6" x1="0.5" x2="0.5"></line><text fill="#000" y="9" x="0.5" dy="0.71em">10000</text></g><g class="tick" opacity="1" transform="translate(520,0)"><line stroke="#000" y2="6" x1="0.5" x2="0.5"></line><text fill="#000" y="9" x="0.5" dy="0.71em"></text></g></g><g class="axis axis--y" fill="none" font-size="10" font-family="sans-serif" text-anchor="end"><path class="domain" stroke="#000" d="M-6,310.5H0.5V0.5H-6"></path><g class="tick" opacity="1" transform="translate(0,310)"><line stroke="#000" x2="-6" y1="0.5" y2="0.5"></line><text fill="#000" x="-9" y="0.5" dy="0.32em">0</text></g><g class="tick" opacity="1" transform="translate(0,272.65060240963857)"><line stroke="#000" x2="-6" y1="0.5" y2="0.5"></line><text fill="#000" x="-9" y="0.5" dy="0.32em">50</text></g><g class="tick" opacity="1" transform="translate(0,235.3012048192771)"><line stroke="#000" x2="-6" y1="0.5" y2="0.5"></line><text fill="#000" x="-9" y="0.5" dy="0.32em">100</text></g><g class="tick" opacity="1" transform="translate(0,197.95180722891567)"><line stroke="#000" x2="-6" y1="0.5" y2="0.5"></line><text fill="#000" x="-9" y="0.5" dy="0.32em">150</text></g><g class="tick" opacity="1" transform="translate(0,160.6024096385542)"><line stroke="#000" x2="-6" y1="0.5" y2="0.5"></line><text fill="#000" x="-9" y="0.5" dy="0.32em">200</text></g><g class="tick" opacity="1" transform="translate(0,123.25301204819274)"><line stroke="#000" x2="-6" y1="0.5" y2="0.5"></line><text fill="#000" x="-9" y="0.5" dy="0.32em">250</text></g><g class="tick" opacity="1" transform="translate(0,85.90361445783134)"><line stroke="#000" x2="-6" y1="0.5" y2="0.5"></line><text fill="#000" x="-9" y="0.5" dy="0.32em">300</text></g><g class="tick" opacity="1" transform="translate(0,48.55421686746985)"><line stroke="#000" x2="-6" y1="0.5" y2="0.5"></line><text fill="#000" x="-9" y="0.5" dy="0.32em">350</text></g><g class="tick" opacity="1" transform="translate(0,11.204819277108413)"><line stroke="#000" x2="-6" y1="0.5" y2="0.5"></line><text fill="#000" x="-9" y="0.5" dy="0.32em">400</text></g></g></g></svg>