<svg xmlns="http://www.w3.org/2000/svg" width="600" height="350"><defs><style type="text/css"><![CDATA[ 
.bar rect {
  fill-opacity: 0;
  stroke:       black;
  stroke-width: 0.5;
}

.highlight rect {
  fill:       red;
  fill-opacity: 1;
}
.axis path,
.axis line {
  fill: none;
  stroke: #000;
  shape-rendering: crispEdges;
}
 ]]></style></defs><g transform="translate(50,10)"><g class="bar" transform="translate(0,310)"><rect x="1" width="2.2500000000000027" height="0"></rect></g><g class="bar" transform="translate(3.2500000000000027,310)"><rect x="1" width="2.2500000000000027" height="0"></rect></g><g class="bar" transform="translate(6.500000000000005,310)"><rect x="1" width="2.2500000000000027" height="0"></rect></g><g class="bar" transform="translate(9.749999999999995,310)"><rect x="1" width="2.2500000000000027" height="0"></rect></g><g class="bar" transform="translate(12.999999999999996,310)"><rect x="1" width="2.2500000000000027" height="0"></rect></g><g class="bar" transform="translate(16.25,310)"><rect x="1" width="2.2500000000000027" height="0"></rect></g><g class="bar" transform="translate(19.500000000000004,310)"><rect x="1" width="2.2500000000000027" height="0"></rect></g><g class="bar" transform="translate(22.750000000000007,310)"><rect x="1" width="2.2500000000000027" height="0"></rect></g><g class="bar" transform="translate(25.999999999999993,310)"><rect x="1" width="2.2500000000000027" height="0"></rect></g><g class="bar" transform="translate(29.249999999999996,310)"><rect x="1" width="2.2500000000000027" height="0"></rect></g><g class="bar" transform="translate(32.5,310)"><rect x="1" width="2.2500000000000027" height="0"></rect></g><g class="bar" transform="translate(35.75,310)"><rect x="1" width="2.2500000000000027" height="0"></rect></g><g class="bar" transform="translate(39.00000000000001,310)"><rect x="1" width="2.2500000000000027" height="0"></rect></g><g class="bar" transform="translate(42.24999999999999,310)"><rect x="1" width="2.2500000000000027" height="0"></rect></g><g class="bar" transform="translate(45.500000000000014,310)"><rect x="1" width="2.2500000000000027" height="0"></rect></g><g class="bar" transform="translate(48.75,310)"><rect x="1" width="2.2500000000000027" height="0"></rect></g><g class="bar" transform="translate(52,310)"><rect x="1" width="2.2500000000000027" height="0"></rect></g><g class="bar" transform="translate(55.25000000000001,310)"><rect x="1" width="2.2500000000000027" height="0"></rect></g><g class="bar" transform="translate(58.49999999999999,310)"><rect x="1" width="2.2500000000000027" height="0"></rect></g><g class="bar" transform="translate(61.750000000000014,310)"><rect x="1" width="2.2500000000000027" height="0"></rect></g><g class="bar" transform="translate(65,310)"><rect x="1" width="2.2500000000000027" height="0"></rect></g><g class="bar" transform="translate(68.25,310)"><rect x="1" width="2.2500000000000027" height="0"></rect></g><g class="bar" transform="translate(71.5,310)"><rect x="1" width="2.2500000000000027" height="0"></rect></g><g class="bar" transform="translate(74.75000000000001,310)"><rect x="1" width="2.2500000000000027" height="0"></rect></g><g class="bar" transform="translate(78.00000000000001,310)"><rect x="1" width="2.2500000000000027" height="0"></rect></g><g class="bar" transform="translate(81.25,310)"><rect x="1" width="2.2500000000000027" height="0"></rect></g><g class="bar" transform="translate(84.5,310)"><rect x="1" width="2.2500000000000027" height="0"></rect></g><g class="bar" transform="translate(87.75,310)"><rect x="1" width="2.2500000000000027" height="0"></rect></g><g class="bar" transform="translate(91.00000000000001,310)"><rect x="1" width="2.2500000000000027" height="0"></rect></g><g class="bar" transform="translate(94.25000000000001,310)"><rect x="1" width="2.2500000000000027" height="0"></rect></g><g class="bar" transform="translate(97.5,310)"><rect x="1" width="2.2500000000000027" height="0"></rect></g><g class="bar" transform="translate(100.75,310)"><rect x="1" width="2.2500000000000027" height="0"></rect></g><g class="bar" transform="translate(104,310)"><rect x="1" width="2.2500000000000027" height="0"></rect></g><g class="bar" transform="translate(107.25000000000001,310)"><rect x="1" width="2.2500000000000027" height="0"></rect></g><g class="bar" transform="translate(110.50000000000001,310)"><rect x="1" width="2.2500000000000027" height="0"></rect></g><g class="bar" transform="translate(113.75,310)"><rect x="1" width="2.2500000000000027" height="0"></rect></g><g class="bar" transform="translate(117,310)"><rect x="1" width="2.2500000000000027" height="0"></rect></g><g class="bar" transform="translate(120.25,310)"><rect x="1" width="2.2500000000000027" height="0"></rect></g><g class="bar" transform="translate(123.50000000000001,310)"><rect x="1" width="2.2500000000000027" height="0"></rect></g><g class="bar" transform="translate(126.75000000000001,310)"><rect x="1" width="2.2500000000000027" height="0"></rect></g><g class="bar" transform="translate(130,310)"><rect x="1" width="2.2500000000000027" height="0"></rect></g><g class="bar" transform="translate(133.25000000000003,310)"><rect x="1" width="2.2500000000000027" height="0"></rect></g><g class="bar" transform="translate(136.5,310)"><rect x="1" width="2.2500000000000027" height="0"></rect></g><g class="bar" transform="translate(139.75,310)"><rect x="1" width="2.2500000000000027" height="0"></rect></g><g class="bar" transform="translate(143,310)"><rect x="1" width="2.2500000000000027" height="0"></rect></g><g class="bar" transform="translate(146.25,310)"><rect x="1" width="2.2500000000000027" height="0"></rect></g><g class="bar" transform="translate(149.50000000000003,310)"><rect x="1" width="2.2500000000000027" height="0"></rect></g><g class="bar" transform="translate(152.75,310)"><rect x="1" width="2.2500000000000027" height="0"></rect></g><g class="bar" transform="translate(156.00000000000003,310)"><rect x="1" width="2.2500000000000027" height="0"></rect></g><g class="bar" transform="translate(159.25,310)"><rect x="1" width="2.2500000000000027" height="0"></rect></g><g class="bar" transform="translate(162.5,310)"><rect x="1" width="2.2500000000000027" height="0"></rect></g><g class="bar" transform="translate(165.75000000000003,310)"><rect x="1" width="2.2500000000000027" height="0"></rect></g><g class="bar" transform="translate(169,310)"><rect x="1" width="2.2500000000000027" height="0"></rect></g><g class="bar" transform="translate(172.25000000000003,310)"><rect x="1" width="2.2500000000000027" height="0"></rect></g><g class="bar" transform="translate(175.5,308.751677852349)"><rect x="1" width="2.2500000000000027" height="1.2483221476509812"></rect></g><g class="bar" transform="translate(178.75,310)"><rect x="1" width="2.2500000000000027" height="0"></rect></g><g class="bar" transform="translate(182.00000000000003,310)"><rect x="1" width="2.2500000000000027" height="0"></rect></g><g class="bar" transform="translate(185.25,309.79194630872485)"><rect x="1" width="2.2500000000000027" height="0.20805369127515405"></rect></g><g class="bar" transform="translate(188.50000000000003,310)"><rect x="1" width="2.2500000000000027" height="0"></rect></g><g class="bar" transform="translate(191.75,309.79194630872485)"><rect x="1" width="2.2500000000000027" height="0.20805369127515405"></rect></g><g class="bar" transform="translate(195,309.79194630872485)"><rect x="1" width="2.2500000000000027" height="0.20805369127515405"></rect></g><g class="bar" transform="translate(198.25000000000003,307.503355704698)"><rect x="1" width="2.2500000000000027" height="2.496644295302019"></rect></g><g class="bar" transform="translate(201.5,305.6308724832215)"><rect x="1" width="2.2500000000000027" height="4.369127516778519"></rect></g><g class="bar" transform="translate(204.75000000000003,305.4228187919463)"><rect x="1" width="2.2500000000000027" height="4.577181208053673"></rect></g><g class="bar" transform="translate(208,305.6308724832215)"><rect x="1" width="2.2500000000000027" height="4.369127516778519"></rect></g><g class="bar" transform="translate(211.25,304.7986577181208)"><rect x="1" width="2.2500000000000027" height="5.201342281879192"></rect></g><g class="bar" transform="translate(214.50000000000003,302.9261744966443)"><rect x="1" width="2.2500000000000027" height="7.0738255033556925"></rect></g><g class="bar" transform="translate(217.75,305.00671140939596)"><rect x="1" width="2.2500000000000027" height="4.993288590604038"></rect></g><g class="bar" transform="translate(221.00000000000003,302.09395973154363)"><rect x="1" width="2.2500000000000027" height="7.9060402684563655"></rect></g><g class="bar" transform="translate(224.25,286.48993288590606)"><rect x="1" width="2.2500000000000027" height="23.510067114093943"></rect></g><g class="bar" transform="translate(227.5,268.38926174496646)"><rect x="1" width="2.2500000000000027" height="41.61073825503354"></rect></g><g class="bar" transform="translate(230.75000000000003,248.83221476510067)"><rect x="1" width="2.2500000000000027" height="61.16778523489933"></rect></g><g class="bar" transform="translate(234,260.48322147651004)"><rect x="1" width="2.2500000000000027" height="49.51677852348996"></rect></g><g class="bar" transform="translate(237.25000000000003,290.8590604026846)"><rect x="1" width="2.2500000000000027" height="19.140939597315423"></rect></g><g class="bar" transform="translate(240.5,301.0536912751678)"><rect x="1" width="2.2500000000000027" height="8.946308724832193"></rect></g><g class="bar" transform="translate(243.75,296.06040268456377)"><rect x="1" width="2.2500000000000027" height="13.939597315436231"></rect></g><g class="bar" transform="translate(247.00000000000003,259.4429530201342)"><rect x="1" width="2.2500000000000027" height="50.55704697986579"></rect></g><g class="bar" transform="translate(250.25,225.73825503355704)"><rect x="1" width="2.2500000000000027" height="84.26174496644296"></rect></g><g class="bar" transform="translate(253.50000000000003,224.0738255033557)"><rect x="1" width="2.2500000000000027" height="85.92617449664431"></rect></g><g class="bar" transform="translate(256.75,260.06711409395973)"><rect x="1" width="2.2500000000000027" height="49.93288590604027"></rect></g><g class="bar" transform="translate(260,255.90604026845637)"><rect x="1" width="2.2500000000000027" height="54.093959731543634"></rect></g><g class="bar" transform="translate(263.25,184.5436241610738)"><rect x="1" width="2.2500000000000027" height="125.45637583892619"></rect></g><g class="bar" transform="translate(266.50000000000006,73.85906040268458)"><rect x="1" width="2.2500000000000027" height="236.14093959731542"></rect></g><g class="bar" transform="translate(269.75,0)"><rect x="1" width="2.2500000000000027" height="310"></rect></g><g class="bar" transform="translate(273,42.85906040268458)"><rect x="1" width="2.2500000000000027" height="267.1409395973154"></rect></g><g class="bar" transform="translate(276.25,201.18791946308724)"><rect x="1" width="2.2500000000000027" height="108.81208053691276"></rect></g><g class="bar" transform="translate(279.5,289.19463087248323)"><rect x="1" width="2.2500000000000027" height="20.80536912751677"></rect></g><g class="bar" transform="translate(282.75000000000006,301.0536912751678)"><rect x="1" width="2.2500000000000027" height="8.946308724832193"></rect></g><g class="bar" transform="translate(286,302.9261744966443)"><rect x="1" width="2.2500000000000027" height="7.0738255033556925"></rect></g><g class="bar" transform="translate(289.25,301.0536912751678)"><rect x="1" width="2.2500000000000027" height="8.946308724832193"></rect></g><g class="bar" transform="translate(292.5,305.6308724832215)"><rect x="1" width="2.2500000000000027" height="4.369127516778519"></rect></g><g class="bar" transform="translate(295.75,309.1677852348993)"><rect x="1" width="2.2500000000000027" height="0.832214765100673"></rect></g><g class="bar" transform="translate(299.00000000000006,309.1677852348993)"><rect x="1" width="2.2500000000000027" height="0.832214765100673"></rect></g><g class="bar" transform="translate(302.25,309.79194630872485)"><rect x="1" width="2.2500000000000027" height="0.20805369127515405"></rect></g><g class="bar" transform="translate(305.5,310)"><rect x="1" width="2.2500000000000027" height="0"></rect></g><g class="bar" transform="translate(308.75,310)"><rect x="1" width="2.2500000000000027" height="0"></rect></g><g class="bar" transform="translate(312.00000000000006,310)"><rect x="1" width="2.2500000000000027" height="0"></rect></g><g class="bar" transform="translate(315.25000000000006,310)"><rect x="1" width="2.2500000000000027" height="0"></rect></g><g class="bar" transform="translate(318.5,310)"><rect x="1" width="2.2500000000000027" height="0"></rect></g><g class="bar" transform="translate(321.75,310)"><rect x="1" width="2.2500000000000027" height="0"></rect></g><g class="bar" transform="translate(325,310)"><rect x="1" width="2.2500000000000027" height="0"></rect></g><g class="bar" transform="translate(328.25000000000006,310)"><rect x="1" width="2.2500000000000027" height="0"></rect></g><g class="bar" transform="translate(331.50000000000006,310)"><rect x="1" width="2.2500000000000027" height="0"></rect></g><g class="bar" transform="translate(334.75,310)"><rect x="1" width="2.2500000000000027" height="0"></rect></g><g class="bar" transform="translate(338,310)"><rect x="1" width="2.2500000000000027" height="0"></rect></g><g class="bar" transform="translate(341.25,310)"><rect x="1" width="2.2500000000000027" height="0"></rect></g><g class="bar" transform="translate(344.50000000000006,310)"><rect x="1" width="2.2500000000000027" height="0"></rect></g><g class="bar" transform="translate(347.75000000000006,310)"><rect x="1" width="2.2500000000000027" height="0"></rect></g><g class="bar" transform="translate(351,310)"><rect x="1" width="2.2500000000000027" height="0"></rect></g><g class="bar" transform="translate(354.25,310)"><rect x="1" width="2.2500000000000027" height="0"></rect></g><g class="bar" transform="translate(357.5,310)"><rect x="1" width="2.2500000000000027" height="0"></rect></g><g class="bar" transform="translate(360.75000000000006,310)"><rect x="1" width="2.2500000000000027" height="0"></rect></g><g class="bar" transform="translate(364.00000000000006,310)"><rect x="1" width="2.2500000000000027" height="0"></rect></g><g class="bar" transform="translate(367.25,310)"><rect x="1" width="2.2500000000000027" height="0"></rect></g><g class="bar" transform="translate(370.5,310)"><rect x="1" width="2.2500000000000027" height="0"></rect></g><g class="bar" transform="translate(373.75,310)"><rect x="1" width="2.2500000000000027" height="0"></rect></g><g class="bar" transform="translate(377.00000000000006,310)"><rect x="1" width="2.2500000000000027" height="0"></rect></g><g class="bar" transform="translate(380.25000000000006,310)"><rect x="1" width="2.2500000000000027" height="0"></rect></g><g class="bar" transform="translate(383.5,310)"><rect x="1" width="2.2500000000000027" height="0"></rect></g><g class="bar" transform="translate(386.75,310)"><rect x="1" width="2.2500000000000027" height="0"></rect></g><g class="bar" transform="translate(390,310)"><rect x="1" width="2.2500000000000027" height="0"></rect></g><g class="bar" transform="translate(393.25000000000006,310)"><rect x="1" width="2.2500000000000027" height="0"></rect></g><g class="bar" transform="translate(396.50000000000006,310)"><rect x="1" width="2.2500000000000027" height="0"></rect></g><g class="bar" transform="translate(399.75,310)"><rect x="1" width="2.2500000000000027" height="0"></rect></g><g class="bar" transform="translate(403,310)"><rect x="1" width="2.2500000000000027" height="0"></rect></g><g class="bar" transform="translate(406.25,310)"><rect x="1" width="2.2500000000000027" height="0"></rect></g><g class="bar" transform="translate(409.50000000000006,310)"><rect x="1" width="2.2500000000000027" height="0"></rect></g><g class="bar" transform="translate(412.75000000000006,310)"><rect x="1" width="2.2500000000000027" height="0"></rect></g><g class="bar" transform="translate(416,310)"><rect x="1" width="2.2500000000000027" height="0"></rect></g><g class="bar" transform="translate(419.25,310)"><rect x="1" width="2.2500000000000027" height="0"></rect></g><g class="bar" transform="translate(422.5,310)"><rect x="1" width="2.2500000000000027" height="0"></rect></g><g class="bar" transform="translate(425.75000000000006,310)"><rect x="1" width="2.2500000000000027" height="0"></rect></g><g class="bar" transform="translate(429.00000000000006,310)"><rect x="1" width="2.2500000000000027" height="0"></rect></g><g class="bar" transform="translate(432.25,310)"><rect x="1" width="2.2500000000000027" height="0"></rect></g><g class="bar" transform="translate(435.5,310)"><rect x="1" width="2.2500000000000027" height="0"></rect></g><g class="bar" transform="translate(438.75,310)"><rect x="1" width="2.2500000000000027" height="0"></rect></g><g class="bar" transform="translate(442.00000000000006,310)"><rect x="1" width="2.2500000000000027" height="0"></rect></g><g class="bar" transform="translate(445.25000000000006,310)"><rect x="1" width="2.2500000000000027" height="0"></rect></g><g class="bar" transform="translate(448.5,310)"><rect x="1" width="2.2500000000000027" height="0"></rect></g><g class="bar" transform="translate(451.75,310)"><rect x="1" width="2.2500000000000027" height="0"></rect></g><g class="bar" transform="translate(455,310)"><rect x="1" width="2.2500000000000027" height="0"></rect></g><g class="bar" transform="translate(458.25000000000006,310)"><rect x="1" width="2.2500000000000027" height="0"></rect></g><g class="bar" transform="translate(461.50000000000006,310)"><rect x="1" width="2.2500000000000027" height="0"></rect></g><g class="bar" transform="translate(464.75,310)"><rect x="1" width="2.2500000000000027" height="0"></rect></g><g class="bar" transform="translate(468,310)"><rect x="1" width="2.2500000000000027" height="0"></rect></g><g class="bar" transform="translate(471.25,310)"><rect x="1" width="2.2500000000000027" height="0"></rect></g><g class="bar" transform="translate(474.50000000000006,310)"><rect x="1" width="2.2500000000000027" height="0"></rect></g><g class="bar" transform="translate(477.75000000000006,310)"><rect x="1" width="2.2500000000000027" height="0"></rect></g><g class="bar" transform="translate(481,310)"><rect x="1" width="2.2500000000000027" height="0"></rect></g><g class="bar" transform="translate(484.25,310)"><rect x="1" width="2.2500000000000027" height="0"></rect></g><g class="bar" transform="translate(487.5,310)"><rect x="1" width="2.2500000000000027" height="0"></rect></g><g class="bar" transform="translate(490.75000000000006,310)"><rect x="1" width="2.2500000000000027" height="0"></rect></g><g class="bar" transform="translate(494.00000000000006,310)"><rect x="1" width="2.2500000000000027" height="0"></rect></g><g class="bar" transform="translate(497.25,310)"><rect x="1" width="2.2500000000000027" height="0"></rect></g><g class="bar" transform="translate(500.5,310)"><rect x="1" width="2.2500000000000027" height="0"></rect></g><g class="bar" transform="translate(503.75,310)"><rect x="1" width="2.2500000000000027" height="0"></rect></g><g class="bar" transform="translate(507.00000000000006,310)"><rect x="1" width="2.2500000000000027" height="0"></rect></g><g class="bar" transform="translate(510.25000000000006,310)"><rect x="1" width="2.2500000000000027" height="0"></rect></g><g class="bar" transform="translate(513.5,310)"><rect x="1" width="2.2500000000000027" height="0"></rect></g><g class="bar" transform="translate(516.75,310)"><rect x="1" width="2.2500000000000027" height="0"></rect></g><g class="axis axis--x" transform="translate(0,310)" fill="none" font-size="10" font-family="sans-serif" text-anchor="middle"><path class="domain" stroke="#000" d="M0.5,6V0.5H520.5V6"></path><g class="tick" opacity="1" transform="translate(0,0)"><line stroke="#000" y2="6" x1="0.5" x2="0.5"></line><text fill="#000" y="9" x="0.5" dy="0.71em">0.01</text></g><g class="tick" opacity="1" transform="translate(130,0)"><line stroke="#000" y2="6" x1="0.5" x2="0.5"></line><text fill="#000" y="9" x="0.5" dy="0.71em">1</text></g><g class="tick" opacity="1" transform="translate(260,0)"><line stroke="#000" y2="6" x1="0.5" x2="0.5"></line><text fill="#000" y="9" x="0.5" dy="0.71em">100</text></g><g class="tick" opacity="1" transform="translate(390,0)"><line stroke="#000" y2="6" x1="0.5" x2="0.5"></line><text fill="#000" y="9" x="0.5" dy="0.71em">10000</text></g><g class="tick" opacity="1" transform="translate(520,0)"><line stroke="#000" y2="6" x1="0.5" x2="0.5"></line><text fill="#000" y="9" x="0.5" dy="0.71em"></text></g></g><g class="axis axis--y" fill="none" font-size="10" font-family="sans-serif" text-anchor="end"><path class="domain" stroke="#000" d="M-6,310.5H0.5V0.5H-6"></path><g class="tick" opacity="1" transform="translate(0,310)"><line stroke="#000" x2="-6" y1="0.5" y2="0.5"></line><text fill="#000" x="-9" y="0.5" dy="0.32em">0</text></g><g class="tick" opacity="1" transform="translate(0,268.38926174496646)"><line stroke="#000" x2="-6" y1="0.5" y2="0.5"></line><text fill="#000" x="-9" y="0.5" dy="0.32em">200</text></g><g class="tick" opacity="1" transform="translate(0,226.77852348993287)"><line stroke="#000" x2="-6" y1="0.5" y2="0.5"></line><text fill="#000" x="-9" y="0.5" dy="0.32em">400</text></g><g class="tick" opacity="1" transform="translate(0,185.16778523489933)"><line stroke="#000" x2="-6" y1="0.5" y2="0.5"></line><text fill="#000" x="-9" y="0.5" dy="0.32em">600</text></g><g class="tick" opacity="1" transform="translate(0,143.55704697986576)"><line stroke="#000" x2="-6" y1="0.5" y2="0.5"></line><text fill="#000" x="-9" y="0.5" dy="0.32em">800</text></g><g class="tick" opacity="1" transform="translate(0,101.94630872483219)"><line stroke="#000" x2="-6" y1="0.5" y2="0.5"></line><text fill="#000" x="-9" y="0.5" dy="0.32em">1,000</text></g><g class="tick" opacity="1" transform="translate(0,60.33557046979868)"><line stroke="#000" x2="-6" y1="0.5" y2="0.5"></line><text fill="#000" x="-9" y="0.5" dy="0.32em">1,200</text></g><g class="tick" opacity="1" transform="translate(0,18.724832214765115)"><line stroke="#000" x2="-6" y1="0.5" y2="0.5"></line><text fill="#000" x="-9" y="0.5" dy="0.32em">1,400</text></g></g></g></svg>