<svg xmlns="http://www.w3.org/2000/svg" width="280" height="160"><defs><style type="text/css"><![CDATA[ 
.bar rect {
  fill-opacity: 0;
  stroke:       black;
  stroke-width: 0.5;
}

.highlight rect {
  fill:       red;
  fill-opacity: 1;
}
.axis path,
.axis line {
  fill: none;
  stroke: #000;
  shape-rendering: crispEdges;
}
 ]]></style></defs><g transform="translate(50,10)"><g class="bar" transform="translate(0,117.73242630385488)"><rect x="1" width="11.5" height="2.2675736961451207"></rect></g><g class="bar" transform="translate(12.5,109.1156462585034)"><rect x="1" width="11.5" height="10.884353741496597"></rect></g><g class="bar" transform="translate(25,47.52834467120181)"><rect x="1" width="11.5" height="72.47165532879819"></rect></g><g class="bar" transform="translate(37.5,0)"><rect x="1" width="11.5" height="120"></rect></g><g class="bar" transform="translate(50,22.49433106575964)"><rect x="1" width="11.5" height="97.50566893424036"></rect></g><g class="bar" transform="translate(62.5,46.12244897959184)"><rect x="1" width="11.5" height="73.87755102040816"></rect></g><g class="bar" transform="translate(75,64.30839002267574)"><rect x="1" width="11.5" height="55.69160997732426"></rect></g><g class="bar" transform="translate(87.5,82.0408163265306)"><rect x="1" width="11.5" height="37.9591836734694"></rect></g><g class="bar" transform="translate(100,95.41950113378685)"><rect x="1" width="11.5" height="24.580498866213148"></rect></g><g class="bar" transform="translate(112.5,110.8390022675737)"><rect x="1" width="11.5" height="9.160997732426296"></rect></g><g class="bar" transform="translate(125,116.91609977324264)"><rect x="1" width="11.5" height="3.0839002267573647"></rect></g><g class="bar" transform="translate(137.5,118.86621315192744)"><rect x="1" width="11.5" height="1.1337868480725604"></rect></g><g class="bar" transform="translate(150,119.72789115646259)"><rect x="1" width="11.5" height="0.27210884353740994"></rect></g><g class="bar" transform="translate(162.5,119.68253968253968)"><rect x="1" width="11.5" height="0.31746031746031633"></rect></g><g class="bar" transform="translate(175,120)"><rect x="1" width="11.5" height="0"></rect></g><g class="bar" transform="translate(187.5,120)"><rect x="1" width="11.5" height="0"></rect></g></g></svg>