<svg xmlns="http://www.w3.org/2000/svg" width="600" height="350"><defs><style type="text/css"><![CDATA[ 
.bar rect {
  fill-opacity: 0;
  stroke:       black;
  stroke-width: 0.5;
}

.highlight rect {
  fill:       red;
  fill-opacity: 1;
}
.axis path,
.axis line {
  fill: none;
  stroke: #000;
  shape-rendering: crispEdges;
}
 ]]></style></defs><g transform="translate(50,10)"><g class="bar" transform="translate(0,305.7182320441989)"><rect x="1" width="11.999999999999996" height="4.281767955801115"></rect></g><g class="bar" transform="translate(12.999999999999996,303.72007366482507)"><rect x="1" width="11.999999999999996" height="6.279926335174935"></rect></g><g class="bar" transform="translate(25.999999999999993,300.865561694291)"><rect x="1" width="11.999999999999996" height="9.134438305709011"></rect></g><g class="bar" transform="translate(39.00000000000001,289.7329650092081)"><rect x="1" width="11.999999999999996" height="20.2670349907919"></rect></g><g class="bar" transform="translate(52,267.18232044198896)"><rect x="1" width="11.999999999999996" height="42.81767955801104"></rect></g><g class="bar" transform="translate(65,197.81767955801104)"><rect x="1" width="11.999999999999996" height="112.18232044198896"></rect></g><g class="bar" transform="translate(78.00000000000001,104.76058931860035)"><rect x="1" width="11.999999999999996" height="205.23941068139965"></rect></g><g class="bar" transform="translate(91.00000000000001,27.11786372007367)"><rect x="1" width="11.999999999999996" height="282.8821362799263"></rect></g><g class="bar" transform="translate(104,0)"><rect x="1" width="11.999999999999996" height="310"></rect></g><g class="bar" transform="translate(117,8.848987108655592)"><rect x="1" width="11.999999999999996" height="301.1510128913444"></rect></g><g class="bar" transform="translate(130,35.96685082872932)"><rect x="1" width="11.999999999999996" height="274.0331491712707"></rect></g><g class="bar" transform="translate(143,76.21546961325967)"><rect x="1" width="11.999999999999996" height="233.78453038674033"></rect></g><g class="bar" transform="translate(156.00000000000003,102.47697974217311)"><rect x="1" width="11.999999999999996" height="207.5230202578269"></rect></g><g class="bar" transform="translate(169,124.45672191528544)"><rect x="1" width="11.999999999999996" height="185.54327808471456"></rect></g><g class="bar" transform="translate(182.00000000000003,132.16390423572744)"><rect x="1" width="11.999999999999996" height="177.83609576427256"></rect></g><g class="bar" transform="translate(195,160.99447513812154)"><rect x="1" width="11.999999999999996" height="149.00552486187846"></rect></g><g class="bar" transform="translate(208,171.2707182320442)"><rect x="1" width="11.999999999999996" height="138.7292817679558"></rect></g><g class="bar" transform="translate(221.00000000000003,191.5377532228361)"><rect x="1" width="11.999999999999996" height="118.4622467771639"></rect></g><g class="bar" transform="translate(234,211.804788213628)"><rect x="1" width="11.999999999999996" height="98.195211786372"></rect></g><g class="bar" transform="translate(247.00000000000003,224.9355432780847)"><rect x="1" width="11.999999999999996" height="85.06445672191529"></rect></g><g class="bar" transform="translate(260,237.20994475138122)"><rect x="1" width="11.999999999999996" height="72.79005524861878"></rect></g><g class="bar" transform="translate(273,258.04788213627995)"><rect x="1" width="11.999999999999996" height="51.95211786372005"></rect></g><g class="bar" transform="translate(286,263.4714548802947)"><rect x="1" width="11.999999999999996" height="46.52854511970531"></rect></g><g class="bar" transform="translate(299.00000000000006,285.16574585635357)"><rect x="1" width="11.999999999999996" height="24.834254143646433"></rect></g><g class="bar" transform="translate(312.00000000000006,293.7292817679558)"><rect x="1" width="11.999999999999996" height="16.270718232044203"></rect></g><g class="bar" transform="translate(325,300.865561694291)"><rect x="1" width="11.999999999999996" height="9.134438305709011"></rect></g><g class="bar" transform="translate(338,302.57826887661145)"><rect x="1" width="11.999999999999996" height="7.421731123388554"></rect></g><g class="bar" transform="translate(351,305.43278084714547)"><rect x="1" width="11.999999999999996" height="4.567219152854534"></rect></g><g class="bar" transform="translate(364.00000000000006,306.57458563535914)"><rect x="1" width="11.999999999999996" height="3.425414364640858"></rect></g><g class="bar" transform="translate(377.00000000000006,308.0018416206261)"><rect x="1" width="11.999999999999996" height="1.9981583793738764"></rect></g><g class="bar" transform="translate(390,309.1436464088398)"><rect x="1" width="11.999999999999996" height="0.8563535911602003"></rect></g><g class="bar" transform="translate(403,309.7145488029466)"><rect x="1" width="11.999999999999996" height="0.28545119705341904"></rect></g><g class="bar" transform="translate(416,308.57274401473296)"><rect x="1" width="11.999999999999996" height="1.4272559852670383"></rect></g><g class="bar" transform="translate(429.00000000000006,309.1436464088398)"><rect x="1" width="11.999999999999996" height="0.8563535911602003"></rect></g><g class="bar" transform="translate(442.00000000000006,309.7145488029466)"><rect x="1" width="11.999999999999996" height="0.28545119705341904"></rect></g><g class="bar" transform="translate(455,310)"><rect x="1" width="11.999999999999996" height="0"></rect></g><g class="bar" transform="translate(468,310)"><rect x="1" width="11.999999999999996" height="0"></rect></g><g class="bar" transform="translate(481,310)"><rect x="1" width="11.999999999999996" height="0"></rect></g><g class="bar" transform="translate(494.00000000000006,310)"><rect x="1" width="11.999999999999996" height="0"></rect></g><g class="bar" transform="translate(507.00000000000006,310)"><rect x="1" width="11.999999999999996" height="0"></rect></g><g class="axis axis--x" transform="translate(0,310)" fill="none" font-size="10" font-family="sans-serif" text-anchor="middle"><path class="domain" stroke="#000" d="M0.5,6V0.5H520.5V6"></path><g class="tick" opacity="1" transform="translate(0,0)"><line stroke="#000" y2="6" x1="0.5" x2="0.5"></line><text fill="#000" y="9" x="0.5" dy="0.71em">0.01</text></g><g class="tick" opacity="1" transform="translate(130,0)"><line stroke="#000" y2="6" x1="0.5" x2="0.5"></line><text fill="#000" y="9" x="0.5" dy="0.71em">1</text></g><g class="tick" opacity="1" transform="translate(260,0)"><line stroke="#000" y2="6" x1="0.5" x2="0.5"></line><text fill="#000" y="9" x="0.5" dy="0.71em">100</text></g><g class="tick" opacity="1" transform="translate(390,0)"><line stroke="#000" y2="6" x1="0.5" x2="0.5"></line><text fill="#000" y="9" x="0.5" dy="0.71em">10000</text></g><g class="tick" opacity="1" transform="translate(520,0)"><line stroke="#000" y2="6" x1="0.5" x2="0.5"></line><text fill="#000" y="9" x="0.5" dy="0.71em"></text></g></g><g class="axis axis--y" fill="none" font-size="10" font-family="sans-serif" text-anchor="end"><path class="domain" stroke="#000" d="M-6,310.5H0.5V0.5H-6"></path><g class="tick" opacity="1" transform="translate(0,310)"><line stroke="#000" x2="-6" y1="0.5" y2="0.5"></line><text fill="#000" x="-9" y="0.5" dy="0.32em">0</text></g><g class="tick" opacity="1" transform="translate(0,281.4548802946593)"><line stroke="#000" x2="-6" y1="0.5" y2="0.5"></line><text fill="#000" x="-9" y="0.5" dy="0.32em">100</text></g><g class="tick" opacity="1" transform="translate(0,252.9097605893186)"><line stroke="#000" x2="-6" y1="0.5" y2="0.5"></line><text fill="#000" x="-9" y="0.5" dy="0.32em">200</text></g><g class="tick" opacity="1" transform="translate(0,224.3646408839779)"><line stroke="#000" x2="-6" y1="0.5" y2="0.5"></line><text fill="#000" x="-9" y="0.5" dy="0.32em">300</text></g><g class="tick" opacity="1" transform="translate(0,195.81952117863722)"><line stroke="#000" x2="-6" y1="0.5" y2="0.5"></line><text fill="#000" x="-9" y="0.5" dy="0.32em">400</text></g><g class="tick" opacity="1" transform="translate(0,167.2744014732965)"><line stroke="#000" x2="-6" y1="0.5" y2="0.5"></line><text fill="#000" x="-9" y="0.5" dy="0.32em">500</text></g><g class="tick" opacity="1" transform="translate(0,138.7292817679558)"><line stroke="#000" x2="-6" y1="0.5" y2="0.5"></line><text fill="#000" x="-9" y="0.5" dy="0.32em">600</text></g><g class="tick" opacity="1" transform="translate(0,110.18416206261509)"><line stroke="#000" x2="-6" y1="0.5" y2="0.5"></line><text fill="#000" x="-9" y="0.5" dy="0.32em">700</text></g><g class="tick" opacity="1" transform="translate(0,81.6390423572744)"><line stroke="#000" x2="-6" y1="0.5" y2="0.5"></line><text fill="#000" x="-9" y="0.5" dy="0.32em">800</text></g><g class="tick" opacity="1" transform="translate(0,53.093922651933724)"><line stroke="#000" x2="-6" y1="0.5" y2="0.5"></line><text fill="#000" x="-9" y="0.5" dy="0.32em">900</text></g><g class="tick" opacity="1" transform="translate(0,24.548802946593014)"><line stroke="#000" x2="-6" y1="0.5" y2="0.5"></line><text fill="#000" x="-9" y="0.5" dy="0.32em">1,000</text></g></g></g></svg>