<svg xmlns="http://www.w3.org/2000/svg" width="600" height="350"><defs><style type="text/css"><![CDATA[ 
.bar rect {
  fill-opacity: 0;
  stroke:       black;
  stroke-width: 0.5;
}

.highlight rect {
  fill:       red;
  fill-opacity: 1;
}
.axis path,
.axis line {
  fill: none;
  stroke: #000;
  shape-rendering: crispEdges;
}
path {
    stroke: red;
    fill: none;
}

line {
    stroke: red;
}

path.marker {
    fill: red;
}
 ]]></style></defs><g transform="translate(50,10)"><g class="bar" transform="translate(0,309.6045918367347)"><rect x="1" width="11.999999999999996" height="0.3954081632653015"></rect></g><g class="bar" transform="translate(12.999999999999996,307.23214285714283)"><rect x="1" width="11.999999999999996" height="2.767857142857167"></rect></g><g class="bar" transform="translate(25.999999999999993,310)"><rect x="1" width="11.999999999999996" height="0"></rect></g><g class="bar" transform="translate(39.00000000000001,307.23214285714283)"><rect x="1" width="11.999999999999996" height="2.767857142857167"></rect></g><g class="bar" transform="translate(52,304.4642857142857)"><rect x="1" width="11.999999999999996" height="5.535714285714278"></rect></g><g class="bar" transform="translate(65,292.2066326530612)"><rect x="1" width="11.999999999999996" height="17.793367346938794"></rect></g><g class="bar" transform="translate(78.00000000000001,274.80867346938777)"><rect x="1" width="11.999999999999996" height="35.19132653061223"></rect></g><g class="bar" transform="translate(91.00000000000001,230.9183673469388)"><rect x="1" width="11.999999999999996" height="79.0816326530612"></rect></g><g class="bar" transform="translate(104,169.23469387755102)"><rect x="1" width="11.999999999999996" height="140.76530612244898"></rect></g><g class="bar" transform="translate(117,106.36479591836735)"><rect x="1" width="11.999999999999996" height="203.63520408163265"></rect></g><g class="bar" transform="translate(130,81.05867346938777)"><rect x="1" width="11.999999999999996" height="228.94132653061223"></rect></g><g class="bar" transform="translate(143,64.84693877551018)"><rect x="1" width="11.999999999999996" height="245.15306122448982"></rect></g><g class="bar" transform="translate(156.00000000000003,30.446428571428555)"><rect x="1" width="11.999999999999996" height="279.55357142857144"></rect></g><g class="bar" transform="translate(169,13.04846938775512)"><rect x="1" width="11.999999999999996" height="296.9515306122449"></rect></g><g class="bar" transform="translate(182.00000000000003,9.88520408163265)"><rect x="1" width="11.999999999999996" height="300.11479591836735"></rect></g><g class="bar" transform="translate(195,0)"><rect x="1" width="11.999999999999996" height="310"></rect></g><g class="bar" transform="translate(208,21.747448979591866)"><rect x="1" width="11.999999999999996" height="288.25255102040813"></rect></g><g class="bar" transform="translate(221.00000000000003,41.91326530612247)"><rect x="1" width="11.999999999999996" height="268.08673469387753"></rect></g><g class="bar" transform="translate(234,99.24744897959184)"><rect x="1" width="11.999999999999996" height="210.75255102040816"></rect></g><g class="bar" transform="translate(247.00000000000003,134.0433673469388)"><rect x="1" width="11.999999999999996" height="175.9566326530612"></rect></g><g class="bar" transform="translate(260,152.62755102040816)"><rect x="1" width="11.999999999999996" height="157.37244897959184"></rect></g><g class="bar" transform="translate(273,185.44642857142856)"><rect x="1" width="11.999999999999996" height="124.55357142857144"></rect></g><g class="bar" transform="translate(286,215.89285714285717)"><rect x="1" width="11.999999999999996" height="94.10714285714283"></rect></g><g class="bar" transform="translate(299.00000000000006,223.40561224489795)"><rect x="1" width="11.999999999999996" height="86.59438775510205"></rect></g><g class="bar" transform="translate(312.00000000000006,266.109693877551)"><rect x="1" width="11.999999999999996" height="43.890306122448976"></rect></g><g class="bar" transform="translate(325,280.34438775510205)"><rect x="1" width="11.999999999999996" height="29.655612244897952"></rect></g><g class="bar" transform="translate(338,284.6938775510204)"><rect x="1" width="11.999999999999996" height="25.30612244897958"></rect></g><g class="bar" transform="translate(351,286.6709183673469)"><rect x="1" width="11.999999999999996" height="23.32908163265307"></rect></g><g class="bar" transform="translate(364.00000000000006,304.4642857142857)"><rect x="1" width="11.999999999999996" height="5.535714285714278"></rect></g><g class="bar" transform="translate(377.00000000000006,308.8137755102041)"><rect x="1" width="11.999999999999996" height="1.1862244897959044"></rect></g><g class="bar" transform="translate(390,310)"><rect x="1" width="11.999999999999996" height="0"></rect></g><g class="bar" transform="translate(403,310)"><rect x="1" width="11.999999999999996" height="0"></rect></g><g class="bar" transform="translate(416,310)"><rect x="1" width="11.999999999999996" height="0"></rect></g><g class="bar" transform="translate(429.00000000000006,310)"><rect x="1" width="11.999999999999996" height="0"></rect></g><g class="bar" transform="translate(442.00000000000006,310)"><rect x="1" width="11.999999999999996" height="0"></rect></g><g class="bar" transform="translate(455,310)"><rect x="1" width="11.999999999999996" height="0"></rect></g><g class="bar" transform="translate(468,310)"><rect x="1" width="11.999999999999996" height="0"></rect></g><g class="bar" transform="translate(481,310)"><rect x="1" width="11.999999999999996" height="0"></rect></g><g class="bar" transform="translate(494.00000000000006,310)"><rect x="1" width="11.999999999999996" height="0"></rect></g><g class="bar" transform="translate(507.00000000000006,310)"><rect x="1" width="11.999999999999996" height="0"></rect></g><g class="axis axis--x" transform="translate(0,310)" fill="none" font-size="10" font-family="sans-serif" text-anchor="middle"><path class="domain" stroke="#000" d="M0.5,6V0.5H520.5V6"></path><g class="tick" opacity="1" transform="translate(0.5,0)"><line stroke="#000" y2="6"></line><text fill="#000" y="9" dy="0.71em">0.01</text></g><g class="tick" opacity="1" transform="translate(130.5,0)"><line stroke="#000" y2="6"></line><text fill="#000" y="9" dy="0.71em">1</text></g><g class="tick" opacity="1" transform="translate(260.5,0)"><line stroke="#000" y2="6"></line><text fill="#000" y="9" dy="0.71em">100</text></g><g class="tick" opacity="1" transform="translate(390.5,0)"><line stroke="#000" y2="6"></line><text fill="#000" y="9" dy="0.71em">10000</text></g><g class="tick" opacity="1" transform="translate(520.5,0)"><line stroke="#000" y2="6"></line><text fill="#000" y="9" dy="0.71em"></text></g></g><g class="axis axis--y" fill="none" font-size="10" font-family="sans-serif" text-anchor="end"><path class="domain" stroke="#000" d="M-6,310.5H0.5V0.5H-6"></path><g class="tick" opacity="1" transform="translate(0,310.5)"><line stroke="#000" x2="-6"></line><text fill="#000" x="-9" dy="0.32em">0</text></g><g class="tick" opacity="1" transform="translate(0,270.9591836734694)"><line stroke="#000" x2="-6"></line><text fill="#000" x="-9" dy="0.32em">100</text></g><g class="tick" opacity="1" transform="translate(0,231.4183673469388)"><line stroke="#000" x2="-6"></line><text fill="#000" x="-9" dy="0.32em">200</text></g><g class="tick" opacity="1" transform="translate(0,191.87755102040816)"><line stroke="#000" x2="-6"></line><text fill="#000" x="-9" dy="0.32em">300</text></g><g class="tick" opacity="1" transform="translate(0,152.33673469387756)"><line stroke="#000" x2="-6"></line><text fill="#000" x="-9" dy="0.32em">400</text></g><g class="tick" opacity="1" transform="translate(0,112.79591836734696)"><line stroke="#000" x2="-6"></line><text fill="#000" x="-9" dy="0.32em">500</text></g><g class="tick" opacity="1" transform="translate(0,73.25510204081633)"><line stroke="#000" x2="-6"></line><text fill="#000" x="-9" dy="0.32em">600</text></g><g class="tick" opacity="1" transform="translate(0,33.71428571428572)"><line stroke="#000" x2="-6"></line><text fill="#000" x="-9" dy="0.32em">700</text></g></g></g></svg>