<svg xmlns="http://www.w3.org/2000/svg" width="280" height="160"><defs><style type="text/css"><![CDATA[ 
.bar rect {
  fill-opacity: 0;
  stroke:       black;
  stroke-width: 0.5;
}

.highlight rect {
  fill:       red;
  fill-opacity: 1;
}
.axis path,
.axis line {
  fill: none;
  stroke: #000;
  shape-rendering: crispEdges;
}
path {
    stroke: red;
    fill: none;
}

line {
    stroke: red;
}

path.marker {
    fill: red;
}
 ]]></style></defs><g transform="translate(50,10)"><g class="bar" transform="translate(0,119.48553054662379)"><rect x="1" width="11.5" height="0.5144694533762078"></rect></g><g class="bar" transform="translate(12.5,118.64951768488746)"><rect x="1" width="11.5" height="1.3504823151125436"></rect></g><g class="bar" transform="translate(25,105.46623794212219)"><rect x="1" width="11.5" height="14.533762057877809"></rect></g><g class="bar" transform="translate(37.5,57.041800643086816)"><rect x="1" width="11.5" height="62.958199356913184"></rect></g><g class="bar" transform="translate(50,19.485530546623806)"><rect x="1" width="11.5" height="100.5144694533762"></rect></g><g class="bar" transform="translate(62.5,0.8360128617363358)"><rect x="1" width="11.5" height="119.16398713826366"></rect></g><g class="bar" transform="translate(75,0)"><rect x="1" width="11.5" height="120"></rect></g><g class="bar" transform="translate(87.5,36.20578778135048)"><rect x="1" width="11.5" height="83.79421221864952"></rect></g><g class="bar" transform="translate(100,65.85209003215434)"><rect x="1" width="11.5" height="54.14790996784566"></rect></g><g class="bar" transform="translate(112.5,91.7684887459807)"><rect x="1" width="11.5" height="28.231511254019296"></rect></g><g class="bar" transform="translate(125,108.87459807073955)"><rect x="1" width="11.5" height="11.125401929260448"></rect></g><g class="bar" transform="translate(137.5,117.29903536977491)"><rect x="1" width="11.5" height="2.700964630225087"></rect></g><g class="bar" transform="translate(150,120)"><rect x="1" width="11.5" height="0"></rect></g><g class="bar" transform="translate(162.5,120)"><rect x="1" width="11.5" height="0"></rect></g><g class="bar" transform="translate(175,120)"><rect x="1" width="11.5" height="0"></rect></g><g class="bar" transform="translate(187.5,120)"><rect x="1" width="11.5" height="0"></rect></g></g></svg>