<svg xmlns="http://www.w3.org/2000/svg" width="600" height="350"><defs><style type="text/css"><![CDATA[ 
.bar rect {
  fill-opacity: 0;
  stroke:       black;
  stroke-width: 0.5;
}

.highlight rect {
  fill:       red;
  fill-opacity: 1;
}
.axis path,
.axis line {
  fill: none;
  stroke: #000;
  shape-rendering: crispEdges;
}
path {
    stroke: red;
    fill: none;
}

line {
    stroke: red;
}

path.marker {
    fill: red;
}
 ]]></style></defs><g transform="translate(50,10)"><g class="bar" transform="translate(0,283.3081570996979)"><rect x="1" width="11.999999999999996" height="26.691842900302106"></rect></g><g class="bar" transform="translate(12.999999999999996,279.09365558912384)"><rect x="1" width="11.999999999999996" height="30.90634441087616"></rect></g><g class="bar" transform="translate(25.999999999999993,258.95770392749245)"><rect x="1" width="11.999999999999996" height="51.042296072507554"></rect></g><g class="bar" transform="translate(39.00000000000001,269.72809667673715)"><rect x="1" width="11.999999999999996" height="40.27190332326285"></rect></g><g class="bar" transform="translate(52,267.8549848942598)"><rect x="1" width="11.999999999999996" height="42.145015105740185"></rect></g><g class="bar" transform="translate(65,251.4652567975831)"><rect x="1" width="11.999999999999996" height="58.534743202416905"></rect></g><g class="bar" transform="translate(78.00000000000001,254.74320241691845)"><rect x="1" width="11.999999999999996" height="55.25679758308155"></rect></g><g class="bar" transform="translate(91.00000000000001,252.87009063444108)"><rect x="1" width="11.999999999999996" height="57.129909365558916"></rect></g><g class="bar" transform="translate(104,230.86102719033232)"><rect x="1" width="11.999999999999996" height="79.13897280966768"></rect></g><g class="bar" transform="translate(117,215.8761329305136)"><rect x="1" width="11.999999999999996" height="94.12386706948641"></rect></g><g class="bar" transform="translate(130,184.96978851963746)"><rect x="1" width="11.999999999999996" height="125.03021148036254"></rect></g><g class="bar" transform="translate(143,155)"><rect x="1" width="11.999999999999996" height="155"></rect></g><g class="bar" transform="translate(156.00000000000003,65.09063444108762)"><rect x="1" width="11.999999999999996" height="244.90936555891238"></rect></g><g class="bar" transform="translate(169,37.46223564954681)"><rect x="1" width="11.999999999999996" height="272.5377643504532"></rect></g><g class="bar" transform="translate(182.00000000000003,26.223564954682786)"><rect x="1" width="11.999999999999996" height="283.7764350453172"></rect></g><g class="bar" transform="translate(195,7.024169184290031)"><rect x="1" width="11.999999999999996" height="302.97583081570997"></rect></g><g class="bar" transform="translate(208,0)"><rect x="1" width="11.999999999999996" height="310"></rect></g><g class="bar" transform="translate(221.00000000000003,15.45317220543808)"><rect x="1" width="11.999999999999996" height="294.5468277945619"></rect></g><g class="bar" transform="translate(234,44.01812688821752)"><rect x="1" width="11.999999999999996" height="265.9818731117825"></rect></g><g class="bar" transform="translate(247.00000000000003,83.35347432024167)"><rect x="1" width="11.999999999999996" height="226.64652567975833"></rect></g><g class="bar" transform="translate(260,80.07552870090635)"><rect x="1" width="11.999999999999996" height="229.92447129909365"></rect></g><g class="bar" transform="translate(273,115.1963746223565)"><rect x="1" width="11.999999999999996" height="194.8036253776435"></rect></g><g class="bar" transform="translate(286,177.4773413897281)"><rect x="1" width="11.999999999999996" height="132.5226586102719"></rect></g><g class="bar" transform="translate(299.00000000000006,202.7643504531722)"><rect x="1" width="11.999999999999996" height="107.2356495468278"></rect></g><g class="bar" transform="translate(312.00000000000006,245.84592145015105)"><rect x="1" width="11.999999999999996" height="64.15407854984895"></rect></g><g class="bar" transform="translate(325,252.87009063444108)"><rect x="1" width="11.999999999999996" height="57.129909365558916"></rect></g><g class="bar" transform="translate(338,290.3323262839879)"><rect x="1" width="11.999999999999996" height="19.667673716012075"></rect></g><g class="bar" transform="translate(351,293.6102719033233)"><rect x="1" width="11.999999999999996" height="16.38972809667672"></rect></g><g class="bar" transform="translate(364.00000000000006,307.65861027190334)"><rect x="1" width="11.999999999999996" height="2.341389728096658"></rect></g><g class="bar" transform="translate(377.00000000000006,308.12688821752266)"><rect x="1" width="11.999999999999996" height="1.8731117824773378"></rect></g><g class="bar" transform="translate(390,308.595166163142)"><rect x="1" width="11.999999999999996" height="1.4048338368580175"></rect></g><g class="bar" transform="translate(403,310)"><rect x="1" width="11.999999999999996" height="0"></rect></g><g class="bar" transform="translate(416,310)"><rect x="1" width="11.999999999999996" height="0"></rect></g><g class="bar" transform="translate(429.00000000000006,310)"><rect x="1" width="11.999999999999996" height="0"></rect></g><g class="bar" transform="translate(442.00000000000006,310)"><rect x="1" width="11.999999999999996" height="0"></rect></g><g class="bar" transform="translate(455,310)"><rect x="1" width="11.999999999999996" height="0"></rect></g><g class="bar" transform="translate(468,310)"><rect x="1" width="11.999999999999996" height="0"></rect></g><g class="bar" transform="translate(481,310)"><rect x="1" width="11.999999999999996" height="0"></rect></g><g class="bar" transform="translate(494.00000000000006,310)"><rect x="1" width="11.999999999999996" height="0"></rect></g><g class="bar" transform="translate(507.00000000000006,310)"><rect x="1" width="11.999999999999996" height="0"></rect></g><g class="axis axis--x" transform="translate(0,310)" fill="none" font-size="10" font-family="sans-serif" text-anchor="middle"><path class="domain" stroke="#000" d="M0.5,6V0.5H520.5V6"></path><g class="tick" opacity="1" transform="translate(0.5,0)"><line stroke="#000" y2="6"></line><text fill="#000" y="9" dy="0.71em">0.01</text></g><g class="tick" opacity="1" transform="translate(130.5,0)"><line stroke="#000" y2="6"></line><text fill="#000" y="9" dy="0.71em">1</text></g><g class="tick" opacity="1" transform="translate(260.5,0)"><line stroke="#000" y2="6"></line><text fill="#000" y="9" dy="0.71em">100</text></g><g class="tick" opacity="1" transform="translate(390.5,0)"><line stroke="#000" y2="6"></line><text fill="#000" y="9" dy="0.71em">10000</text></g><g class="tick" opacity="1" transform="translate(520.5,0)"><line stroke="#000" y2="6"></line><text fill="#000" y="9" dy="0.71em"></text></g></g><g class="axis axis--y" fill="none" font-size="10" font-family="sans-serif" text-anchor="end"><path class="domain" stroke="#000" d="M-6,310.5H0.5V0.5H-6"></path><g class="tick" opacity="1" transform="translate(0,310.5)"><line stroke="#000" x2="-6"></line><text fill="#000" x="-9" dy="0.32em">0</text></g><g class="tick" opacity="1" transform="translate(0,287.08610271903325)"><line stroke="#000" x2="-6"></line><text fill="#000" x="-9" dy="0.32em">50</text></g><g class="tick" opacity="1" transform="translate(0,263.6722054380665)"><line stroke="#000" x2="-6"></line><text fill="#000" x="-9" dy="0.32em">100</text></g><g class="tick" opacity="1" transform="translate(0,240.2583081570997)"><line stroke="#000" x2="-6"></line><text fill="#000" x="-9" dy="0.32em">150</text></g><g class="tick" opacity="1" transform="translate(0,216.84441087613294)"><line stroke="#000" x2="-6"></line><text fill="#000" x="-9" dy="0.32em">200</text></g><g class="tick" opacity="1" transform="translate(0,193.43051359516616)"><line stroke="#000" x2="-6"></line><text fill="#000" x="-9" dy="0.32em">250</text></g><g class="tick" opacity="1" transform="translate(0,170.01661631419938)"><line stroke="#000" x2="-6"></line><text fill="#000" x="-9" dy="0.32em">300</text></g><g class="tick" opacity="1" transform="translate(0,146.6027190332326)"><line stroke="#000" x2="-6"></line><text fill="#000" x="-9" dy="0.32em">350</text></g><g class="tick" opacity="1" transform="translate(0,123.18882175226588)"><line stroke="#000" x2="-6"></line><text fill="#000" x="-9" dy="0.32em">400</text></g><g class="tick" opacity="1" transform="translate(0,99.7749244712991)"><line stroke="#000" x2="-6"></line><text fill="#000" x="-9" dy="0.32em">450</text></g><g class="tick" opacity="1" transform="translate(0,76.36102719033232)"><line stroke="#000" x2="-6"></line><text fill="#000" x="-9" dy="0.32em">500</text></g><g class="tick" opacity="1" transform="translate(0,52.94712990936557)"><line stroke="#000" x2="-6"></line><text fill="#000" x="-9" dy="0.32em">550</text></g><g class="tick" opacity="1" transform="translate(0,29.533232628398764)"><line stroke="#000" x2="-6"></line><text fill="#000" x="-9" dy="0.32em">600</text></g><g class="tick" opacity="1" transform="translate(0,6.119335347432013)"><line stroke="#000" x2="-6"></line><text fill="#000" x="-9" dy="0.32em">650</text></g></g></g></svg>