<svg xmlns="http://www.w3.org/2000/svg" width="600" height="350"><defs><style type="text/css"><![CDATA[ 
.bar rect {
  fill-opacity: 0;
  stroke:       black;
  stroke-width: 0.5;
}

.highlight rect {
  fill:       red;
  fill-opacity: 1;
}
.axis path,
.axis line {
  fill: none;
  stroke: #000;
  shape-rendering: crispEdges;
}
path {
    stroke: red;
    fill: none;
}

line {
    stroke: red;
}

path.marker {
    fill: red;
}
 ]]></style></defs><g transform="translate(50,10)"><g class="bar" transform="translate(0,310)"><rect x="1" width="5.500000000000005" height="0"></rect></g><g class="bar" transform="translate(6.500000000000005,310)"><rect x="1" width="5.500000000000005" height="0"></rect></g><g class="bar" transform="translate(12.999999999999996,310)"><rect x="1" width="5.500000000000005" height="0"></rect></g><g class="bar" transform="translate(19.500000000000004,310)"><rect x="1" width="5.500000000000005" height="0"></rect></g><g class="bar" transform="translate(25.999999999999993,310)"><rect x="1" width="5.500000000000005" height="0"></rect></g><g class="bar" transform="translate(32.5,310)"><rect x="1" width="5.500000000000005" height="0"></rect></g><g class="bar" transform="translate(39.00000000000001,310)"><rect x="1" width="5.500000000000005" height="0"></rect></g><g class="bar" transform="translate(45.500000000000014,310)"><rect x="1" width="5.500000000000005" height="0"></rect></g><g class="bar" transform="translate(52,310)"><rect x="1" width="5.500000000000005" height="0"></rect></g><g class="bar" transform="translate(58.49999999999999,310)"><rect x="1" width="5.500000000000005" height="0"></rect></g><g class="bar" transform="translate(65,309.17333333333335)"><rect x="1" width="5.500000000000005" height="0.8266666666666538"></rect></g><g class="bar" transform="translate(71.5,309.58666666666664)"><rect x="1" width="5.500000000000005" height="0.4133333333333553"></rect></g><g class="bar" transform="translate(78.00000000000001,310)"><rect x="1" width="5.500000000000005" height="0"></rect></g><g class="bar" transform="translate(84.5,303.8)"><rect x="1" width="5.500000000000005" height="6.199999999999989"></rect></g><g class="bar" transform="translate(91.00000000000001,305.4533333333333)"><rect x="1" width="5.500000000000005" height="4.546666666666681"></rect></g><g class="bar" transform="translate(97.5,309.58666666666664)"><rect x="1" width="5.500000000000005" height="0.4133333333333553"></rect></g><g class="bar" transform="translate(104,307.93333333333334)"><rect x="1" width="5.500000000000005" height="2.066666666666663"></rect></g><g class="bar" transform="translate(110.50000000000001,307.1066666666667)"><rect x="1" width="5.500000000000005" height="2.8933333333333167"></rect></g><g class="bar" transform="translate(117,304.62666666666667)"><rect x="1" width="5.500000000000005" height="5.373333333333335"></rect></g><g class="bar" transform="translate(123.50000000000001,303.38666666666666)"><rect x="1" width="5.500000000000005" height="6.613333333333344"></rect></g><g class="bar" transform="translate(130,300.08)"><rect x="1" width="5.500000000000005" height="9.920000000000016"></rect></g><g class="bar" transform="translate(136.5,288.92)"><rect x="1" width="5.500000000000005" height="21.079999999999984"></rect></g><g class="bar" transform="translate(143,269.08)"><rect x="1" width="5.500000000000005" height="40.920000000000016"></rect></g><g class="bar" transform="translate(149.50000000000003,253.78666666666666)"><rect x="1" width="5.500000000000005" height="56.21333333333334"></rect></g><g class="bar" transform="translate(156.00000000000003,224.85333333333335)"><rect x="1" width="5.500000000000005" height="85.14666666666665"></rect></g><g class="bar" transform="translate(162.5,191.78666666666666)"><rect x="1" width="5.500000000000005" height="118.21333333333334"></rect></g><g class="bar" transform="translate(169,131.85333333333332)"><rect x="1" width="5.500000000000005" height="178.14666666666668"></rect></g><g class="bar" transform="translate(175.5,87.21333333333334)"><rect x="1" width="5.500000000000005" height="222.78666666666666"></rect></g><g class="bar" transform="translate(182.00000000000003,36.78666666666669)"><rect x="1" width="5.500000000000005" height="273.2133333333333"></rect></g><g class="bar" transform="translate(188.50000000000003,23.146666666666647)"><rect x="1" width="5.500000000000005" height="286.85333333333335"></rect></g><g class="bar" transform="translate(195,0)"><rect x="1" width="5.500000000000005" height="310"></rect></g><g class="bar" transform="translate(201.5,12.400000000000034)"><rect x="1" width="5.500000000000005" height="297.59999999999997"></rect></g><g class="bar" transform="translate(208,28.106666666666683)"><rect x="1" width="5.500000000000005" height="281.8933333333333"></rect></g><g class="bar" transform="translate(214.50000000000003,78.94666666666669)"><rect x="1" width="5.500000000000005" height="231.0533333333333"></rect></g><g class="bar" transform="translate(221.00000000000003,119.03999999999999)"><rect x="1" width="5.500000000000005" height="190.96"></rect></g><g class="bar" transform="translate(227.5,161.20000000000002)"><rect x="1" width="5.500000000000005" height="148.79999999999998"></rect></g><g class="bar" transform="translate(234,183.52)"><rect x="1" width="5.500000000000005" height="126.47999999999999"></rect></g><g class="bar" transform="translate(240.5,206.66666666666669)"><rect x="1" width="5.500000000000005" height="103.33333333333331"></rect></g><g class="bar" transform="translate(247.00000000000003,221.13333333333333)"><rect x="1" width="5.500000000000005" height="88.86666666666667"></rect></g><g class="bar" transform="translate(253.50000000000003,230.22666666666666)"><rect x="1" width="5.500000000000005" height="79.77333333333334"></rect></g><g class="bar" transform="translate(260,226.92000000000002)"><rect x="1" width="5.500000000000005" height="83.07999999999998"></rect></g><g class="bar" transform="translate(266.50000000000006,236.84)"><rect x="1" width="5.500000000000005" height="73.16"></rect></g><g class="bar" transform="translate(273,244.69333333333333)"><rect x="1" width="5.500000000000005" height="65.30666666666667"></rect></g><g class="bar" transform="translate(279.5,245.93333333333334)"><rect x="1" width="5.500000000000005" height="64.06666666666666"></rect></g><g class="bar" transform="translate(286,252.13333333333333)"><rect x="1" width="5.500000000000005" height="57.866666666666674"></rect></g><g class="bar" transform="translate(292.5,265.7733333333333)"><rect x="1" width="5.500000000000005" height="44.22666666666669"></rect></g><g class="bar" transform="translate(299.00000000000006,273.2133333333333)"><rect x="1" width="5.500000000000005" height="36.78666666666669"></rect></g><g class="bar" transform="translate(305.5,263.29333333333335)"><rect x="1" width="5.500000000000005" height="46.70666666666665"></rect></g><g class="bar" transform="translate(312.00000000000006,275.28)"><rect x="1" width="5.500000000000005" height="34.72000000000003"></rect></g><g class="bar" transform="translate(318.5,278.17333333333335)"><rect x="1" width="5.500000000000005" height="31.826666666666654"></rect></g><g class="bar" transform="translate(325,287.26666666666665)"><rect x="1" width="5.500000000000005" height="22.73333333333335"></rect></g><g class="bar" transform="translate(331.50000000000006,293.46666666666664)"><rect x="1" width="5.500000000000005" height="16.53333333333336"></rect></g><g class="bar" transform="translate(338,297.6)"><rect x="1" width="5.500000000000005" height="12.399999999999977"></rect></g><g class="bar" transform="translate(344.50000000000006,297.6)"><rect x="1" width="5.500000000000005" height="12.399999999999977"></rect></g><g class="bar" transform="translate(351,302.56)"><rect x="1" width="5.500000000000005" height="7.439999999999998"></rect></g><g class="bar" transform="translate(357.5,305.04)"><rect x="1" width="5.500000000000005" height="4.9599999999999795"></rect></g><g class="bar" transform="translate(364.00000000000006,307.52)"><rect x="1" width="5.500000000000005" height="2.480000000000018"></rect></g><g class="bar" transform="translate(370.5,307.93333333333334)"><rect x="1" width="5.500000000000005" height="2.066666666666663"></rect></g><g class="bar" transform="translate(377.00000000000006,309.58666666666664)"><rect x="1" width="5.500000000000005" height="0.4133333333333553"></rect></g><g class="bar" transform="translate(383.5,308.76)"><rect x="1" width="5.500000000000005" height="1.240000000000009"></rect></g><g class="bar" transform="translate(390,310)"><rect x="1" width="5.500000000000005" height="0"></rect></g><g class="bar" transform="translate(396.50000000000006,309.58666666666664)"><rect x="1" width="5.500000000000005" height="0.4133333333333553"></rect></g><g class="bar" transform="translate(403,310)"><rect x="1" width="5.500000000000005" height="0"></rect></g><g class="bar" transform="translate(409.50000000000006,310)"><rect x="1" width="5.500000000000005" height="0"></rect></g><g class="bar" transform="translate(416,310)"><rect x="1" width="5.500000000000005" height="0"></rect></g><g class="bar" transform="translate(422.5,310)"><rect x="1" width="5.500000000000005" height="0"></rect></g><g class="bar" transform="translate(429.00000000000006,310)"><rect x="1" width="5.500000000000005" height="0"></rect></g><g class="bar" transform="translate(435.5,310)"><rect x="1" width="5.500000000000005" height="0"></rect></g><g class="bar" transform="translate(442.00000000000006,310)"><rect x="1" width="5.500000000000005" height="0"></rect></g><g class="bar" transform="translate(448.5,310)"><rect x="1" width="5.500000000000005" height="0"></rect></g><g class="bar" transform="translate(455,310)"><rect x="1" width="5.500000000000005" height="0"></rect></g><g class="bar" transform="translate(461.50000000000006,310)"><rect x="1" width="5.500000000000005" height="0"></rect></g><g class="bar" transform="translate(468,310)"><rect x="1" width="5.500000000000005" height="0"></rect></g><g class="bar" transform="translate(474.50000000000006,310)"><rect x="1" width="5.500000000000005" height="0"></rect></g><g class="bar" transform="translate(481,310)"><rect x="1" width="5.500000000000005" height="0"></rect></g><g class="bar" transform="translate(487.5,310)"><rect x="1" width="5.500000000000005" height="0"></rect></g><g class="bar" transform="translate(494.00000000000006,310)"><rect x="1" width="5.500000000000005" height="0"></rect></g><g class="bar" transform="translate(500.5,310)"><rect x="1" width="5.500000000000005" height="0"></rect></g><g class="bar" transform="translate(507.00000000000006,310)"><rect x="1" width="5.500000000000005" height="0"></rect></g><g class="bar" transform="translate(513.5,310)"><rect x="1" width="5.500000000000005" height="0"></rect></g><g class="axis axis--x" transform="translate(0,310)" fill="none" font-size="10" font-family="sans-serif" text-anchor="middle"><path class="domain" stroke="#000" d="M0.5,6V0.5H520.5V6"></path><g class="tick" opacity="1" transform="translate(0.5,0)"><line stroke="#000" y2="6"></line><text fill="#000" y="9" dy="0.71em">0.01</text></g><g class="tick" opacity="1" transform="translate(130.5,0)"><line stroke="#000" y2="6"></line><text fill="#000" y="9" dy="0.71em">1</text></g><g class="tick" opacity="1" transform="translate(260.5,0)"><line stroke="#000" y2="6"></line><text fill="#000" y="9" dy="0.71em">100</text></g><g class="tick" opacity="1" transform="translate(390.5,0)"><line stroke="#000" y2="6"></line><text fill="#000" y="9" dy="0.71em">10000</text></g><g class="tick" opacity="1" transform="translate(520.5,0)"><line stroke="#000" y2="6"></line><text fill="#000" y="9" dy="0.71em"></text></g></g><g class="axis axis--y" fill="none" font-size="10" font-family="sans-serif" text-anchor="end"><path class="domain" stroke="#000" d="M-6,310.5H0.5V0.5H-6"></path><g class="tick" opacity="1" transform="translate(0,310.5)"><line stroke="#000" x2="-6"></line><text fill="#000" x="-9" dy="0.32em">0</text></g><g class="tick" opacity="1" transform="translate(0,269.1666666666667)"><line stroke="#000" x2="-6"></line><text fill="#000" x="-9" dy="0.32em">100</text></g><g class="tick" opacity="1" transform="translate(0,227.83333333333331)"><line stroke="#000" x2="-6"></line><text fill="#000" x="-9" dy="0.32em">200</text></g><g class="tick" opacity="1" transform="translate(0,186.5)"><line stroke="#000" x2="-6"></line><text fill="#000" x="-9" dy="0.32em">300</text></g><g class="tick" opacity="1" transform="translate(0,145.16666666666666)"><line stroke="#000" x2="-6"></line><text fill="#000" x="-9" dy="0.32em">400</text></g><g class="tick" opacity="1" transform="translate(0,103.83333333333334)"><line stroke="#000" x2="-6"></line><text fill="#000" x="-9" dy="0.32em">500</text></g><g class="tick" opacity="1" transform="translate(0,62.5)"><line stroke="#000" x2="-6"></line><text fill="#000" x="-9" dy="0.32em">600</text></g><g class="tick" opacity="1" transform="translate(0,21.166666666666686)"><line stroke="#000" x2="-6"></line><text fill="#000" x="-9" dy="0.32em">700</text></g></g></g></svg>