<svg xmlns="http://www.w3.org/2000/svg" width="600" height="350"><defs><style type="text/css"><![CDATA[ 
.bar rect {
  fill-opacity: 0;
  stroke:       black;
  stroke-width: 0.5;
}

.highlight rect {
  fill:       red;
  fill-opacity: 1;
}
.axis path,
.axis line {
  fill: none;
  stroke: #000;
  shape-rendering: crispEdges;
}
path {
    stroke: red;
    fill: none;
}

line {
    stroke: red;
}

path.marker {
    fill: red;
}
 ]]></style></defs><g transform="translate(50,10)"><g class="bar" transform="translate(0,310)"><rect x="1" width="5.500000000000005" height="0"></rect></g><g class="bar" transform="translate(6.500000000000005,310)"><rect x="1" width="5.500000000000005" height="0"></rect></g><g class="bar" transform="translate(12.999999999999996,310)"><rect x="1" width="5.500000000000005" height="0"></rect></g><g class="bar" transform="translate(19.500000000000004,310)"><rect x="1" width="5.500000000000005" height="0"></rect></g><g class="bar" transform="translate(25.999999999999993,310)"><rect x="1" width="5.500000000000005" height="0"></rect></g><g class="bar" transform="translate(32.5,310)"><rect x="1" width="5.500000000000005" height="0"></rect></g><g class="bar" transform="translate(39.00000000000001,310)"><rect x="1" width="5.500000000000005" height="0"></rect></g><g class="bar" transform="translate(45.500000000000014,310)"><rect x="1" width="5.500000000000005" height="0"></rect></g><g class="bar" transform="translate(52,310)"><rect x="1" width="5.500000000000005" height="0"></rect></g><g class="bar" transform="translate(58.49999999999999,310)"><rect x="1" width="5.500000000000005" height="0"></rect></g><g class="bar" transform="translate(65,308.724279835391)"><rect x="1" width="5.500000000000005" height="1.2757201646090266"></rect></g><g class="bar" transform="translate(71.5,309.5747599451303)"><rect x="1" width="5.500000000000005" height="0.42524005486967553"></rect></g><g class="bar" transform="translate(78.00000000000001,309.5747599451303)"><rect x="1" width="5.500000000000005" height="0.42524005486967553"></rect></g><g class="bar" transform="translate(84.5,310)"><rect x="1" width="5.500000000000005" height="0"></rect></g><g class="bar" transform="translate(91.00000000000001,309.14951989026065)"><rect x="1" width="5.500000000000005" height="0.8504801097393511"></rect></g><g class="bar" transform="translate(97.5,310)"><rect x="1" width="5.500000000000005" height="0"></rect></g><g class="bar" transform="translate(104,309.5747599451303)"><rect x="1" width="5.500000000000005" height="0.42524005486967553"></rect></g><g class="bar" transform="translate(110.50000000000001,306.59807956104254)"><rect x="1" width="5.500000000000005" height="3.401920438957461"></rect></g><g class="bar" transform="translate(117,306.17283950617286)"><rect x="1" width="5.500000000000005" height="3.8271604938271366"></rect></g><g class="bar" transform="translate(123.50000000000001,304.04663923182443)"><rect x="1" width="5.500000000000005" height="5.953360768175571"></rect></g><g class="bar" transform="translate(130,299.3689986282579)"><rect x="1" width="5.500000000000005" height="10.631001371742116"></rect></g><g class="bar" transform="translate(136.5,277.2565157750343)"><rect x="1" width="5.500000000000005" height="32.7434842249657"></rect></g><g class="bar" transform="translate(143,280.65843621399176)"><rect x="1" width="5.500000000000005" height="29.341563786008237"></rect></g><g class="bar" transform="translate(149.50000000000003,251.74211248285323)"><rect x="1" width="5.500000000000005" height="58.25788751714677"></rect></g><g class="bar" transform="translate(156.00000000000003,224.5267489711934)"><rect x="1" width="5.500000000000005" height="85.4732510288066"></rect></g><g class="bar" transform="translate(162.5,187.5308641975309)"><rect x="1" width="5.500000000000005" height="122.46913580246911"></rect></g><g class="bar" transform="translate(169,130.12345679012344)"><rect x="1" width="5.500000000000005" height="179.87654320987656"></rect></g><g class="bar" transform="translate(175.5,83.77229080932784)"><rect x="1" width="5.500000000000005" height="226.22770919067216"></rect></g><g class="bar" transform="translate(182.00000000000003,31.04252400548694)"><rect x="1" width="5.500000000000005" height="278.95747599451306"></rect></g><g class="bar" transform="translate(188.50000000000003,18.285322359396446)"><rect x="1" width="5.500000000000005" height="291.71467764060355"></rect></g><g class="bar" transform="translate(195,0)"><rect x="1" width="5.500000000000005" height="310"></rect></g><g class="bar" transform="translate(201.5,14.032921810699577)"><rect x="1" width="5.500000000000005" height="295.9670781893004"></rect></g><g class="bar" transform="translate(208,36.57064471879289)"><rect x="1" width="5.500000000000005" height="273.4293552812071"></rect></g><g class="bar" transform="translate(214.50000000000003,68.46364883401921)"><rect x="1" width="5.500000000000005" height="241.5363511659808"></rect></g><g class="bar" transform="translate(221.00000000000003,114.81481481481481)"><rect x="1" width="5.500000000000005" height="195.1851851851852"></rect></g><g class="bar" transform="translate(227.5,147.5582990397805)"><rect x="1" width="5.500000000000005" height="162.4417009602195"></rect></g><g class="bar" transform="translate(234,180.7270233196159)"><rect x="1" width="5.500000000000005" height="129.2729766803841"></rect></g><g class="bar" transform="translate(240.5,204.54046639231825)"><rect x="1" width="5.500000000000005" height="105.45953360768175"></rect></g><g class="bar" transform="translate(247.00000000000003,227.0781893004115)"><rect x="1" width="5.500000000000005" height="82.92181069958849"></rect></g><g class="bar" transform="translate(253.50000000000003,219.4238683127572)"><rect x="1" width="5.500000000000005" height="90.57613168724279"></rect></g><g class="bar" transform="translate(260,232.18106995884773)"><rect x="1" width="5.500000000000005" height="77.81893004115227"></rect></g><g class="bar" transform="translate(266.50000000000006,238.559670781893)"><rect x="1" width="5.500000000000005" height="71.440329218107"></rect></g><g class="bar" transform="translate(273,238.13443072702333)"><rect x="1" width="5.500000000000005" height="71.86556927297667"></rect></g><g class="bar" transform="translate(279.5,258.1207133058985)"><rect x="1" width="5.500000000000005" height="51.879286694101495"></rect></g><g class="bar" transform="translate(286,259.8216735253772)"><rect x="1" width="5.500000000000005" height="50.17832647462279"></rect></g><g class="bar" transform="translate(292.5,253.86831275720164)"><rect x="1" width="5.500000000000005" height="56.131687242798364"></rect></g><g class="bar" transform="translate(299.00000000000006,253.44307270233196)"><rect x="1" width="5.500000000000005" height="56.55692729766804"></rect></g><g class="bar" transform="translate(305.5,267.9012345679012)"><rect x="1" width="5.500000000000005" height="42.09876543209879"></rect></g><g class="bar" transform="translate(312.00000000000006,274.2798353909465)"><rect x="1" width="5.500000000000005" height="35.720164609053484"></rect></g><g class="bar" transform="translate(318.5,285.3360768175583)"><rect x="1" width="5.500000000000005" height="24.663923182441692"></rect></g><g class="bar" transform="translate(325,278.10699588477365)"><rect x="1" width="5.500000000000005" height="31.893004115226347"></rect></g><g class="bar" transform="translate(331.50000000000006,290.4389574759945)"><rect x="1" width="5.500000000000005" height="19.561042524005472"></rect></g><g class="bar" transform="translate(338,296.3923182441701)"><rect x="1" width="5.500000000000005" height="13.607681755829901"></rect></g><g class="bar" transform="translate(344.50000000000006,296.3923182441701)"><rect x="1" width="5.500000000000005" height="13.607681755829901"></rect></g><g class="bar" transform="translate(351,306.17283950617286)"><rect x="1" width="5.500000000000005" height="3.8271604938271366"></rect></g><g class="bar" transform="translate(357.5,307.0233196159122)"><rect x="1" width="5.500000000000005" height="2.9766803840877856"></rect></g><g class="bar" transform="translate(364.00000000000006,304.8971193415638)"><rect x="1" width="5.500000000000005" height="5.10288065843622"></rect></g><g class="bar" transform="translate(370.5,308.29903978052124)"><rect x="1" width="5.500000000000005" height="1.700960219478759"></rect></g><g class="bar" transform="translate(377.00000000000006,308.29903978052124)"><rect x="1" width="5.500000000000005" height="1.700960219478759"></rect></g><g class="bar" transform="translate(383.5,310)"><rect x="1" width="5.500000000000005" height="0"></rect></g><g class="bar" transform="translate(390,310)"><rect x="1" width="5.500000000000005" height="0"></rect></g><g class="bar" transform="translate(396.50000000000006,309.5747599451303)"><rect x="1" width="5.500000000000005" height="0.42524005486967553"></rect></g><g class="bar" transform="translate(403,310)"><rect x="1" width="5.500000000000005" height="0"></rect></g><g class="bar" transform="translate(409.50000000000006,310)"><rect x="1" width="5.500000000000005" height="0"></rect></g><g class="bar" transform="translate(416,310)"><rect x="1" width="5.500000000000005" height="0"></rect></g><g class="bar" transform="translate(422.5,310)"><rect x="1" width="5.500000000000005" height="0"></rect></g><g class="bar" transform="translate(429.00000000000006,310)"><rect x="1" width="5.500000000000005" height="0"></rect></g><g class="bar" transform="translate(435.5,310)"><rect x="1" width="5.500000000000005" height="0"></rect></g><g class="bar" transform="translate(442.00000000000006,310)"><rect x="1" width="5.500000000000005" height="0"></rect></g><g class="bar" transform="translate(448.5,310)"><rect x="1" width="5.500000000000005" height="0"></rect></g><g class="bar" transform="translate(455,310)"><rect x="1" width="5.500000000000005" height="0"></rect></g><g class="bar" transform="translate(461.50000000000006,310)"><rect x="1" width="5.500000000000005" height="0"></rect></g><g class="bar" transform="translate(468,310)"><rect x="1" width="5.500000000000005" height="0"></rect></g><g class="bar" transform="translate(474.50000000000006,310)"><rect x="1" width="5.500000000000005" height="0"></rect></g><g class="bar" transform="translate(481,310)"><rect x="1" width="5.500000000000005" height="0"></rect></g><g class="bar" transform="translate(487.5,310)"><rect x="1" width="5.500000000000005" height="0"></rect></g><g class="bar" transform="translate(494.00000000000006,310)"><rect x="1" width="5.500000000000005" height="0"></rect></g><g class="bar" transform="translate(500.5,310)"><rect x="1" width="5.500000000000005" height="0"></rect></g><g class="bar" transform="translate(507.00000000000006,310)"><rect x="1" width="5.500000000000005" height="0"></rect></g><g class="bar" transform="translate(513.5,310)"><rect x="1" width="5.500000000000005" height="0"></rect></g><g class="axis axis--x" transform="translate(0,310)" fill="none" font-size="10" font-family="sans-serif" text-anchor="middle"><path class="domain" stroke="#000" d="M0.5,6V0.5H520.5V6"></path><g class="tick" opacity="1" transform="translate(0.5,0)"><line stroke="#000" y2="6"></line><text fill="#000" y="9" dy="0.71em">0.01</text></g><g class="tick" opacity="1" transform="translate(130.5,0)"><line stroke="#000" y2="6"></line><text fill="#000" y="9" dy="0.71em">1</text></g><g class="tick" opacity="1" transform="translate(260.5,0)"><line stroke="#000" y2="6"></line><text fill="#000" y="9" dy="0.71em">100</text></g><g class="tick" opacity="1" transform="translate(390.5,0)"><line stroke="#000" y2="6"></line><text fill="#000" y="9" dy="0.71em">10000</text></g><g class="tick" opacity="1" transform="translate(520.5,0)"><line stroke="#000" y2="6"></line><text fill="#000" y="9" dy="0.71em"></text></g></g><g class="axis axis--y" fill="none" font-size="10" font-family="sans-serif" text-anchor="end"><path class="domain" stroke="#000" d="M-6,310.5H0.5V0.5H-6"></path><g class="tick" opacity="1" transform="translate(0,310.5)"><line stroke="#000" x2="-6"></line><text fill="#000" x="-9" dy="0.32em">0</text></g><g class="tick" opacity="1" transform="translate(0,267.97599451303154)"><line stroke="#000" x2="-6"></line><text fill="#000" x="-9" dy="0.32em">100</text></g><g class="tick" opacity="1" transform="translate(0,225.4519890260631)"><line stroke="#000" x2="-6"></line><text fill="#000" x="-9" dy="0.32em">200</text></g><g class="tick" opacity="1" transform="translate(0,182.92798353909464)"><line stroke="#000" x2="-6"></line><text fill="#000" x="-9" dy="0.32em">300</text></g><g class="tick" opacity="1" transform="translate(0,140.4039780521262)"><line stroke="#000" x2="-6"></line><text fill="#000" x="-9" dy="0.32em">400</text></g><g class="tick" opacity="1" transform="translate(0,97.87997256515774)"><line stroke="#000" x2="-6"></line><text fill="#000" x="-9" dy="0.32em">500</text></g><g class="tick" opacity="1" transform="translate(0,55.35596707818928)"><line stroke="#000" x2="-6"></line><text fill="#000" x="-9" dy="0.32em">600</text></g><g class="tick" opacity="1" transform="translate(0,12.831961591220818)"><line stroke="#000" x2="-6"></line><text fill="#000" x="-9" dy="0.32em">700</text></g></g></g></svg>