<svg xmlns="http://www.w3.org/2000/svg" width="280" height="160"><defs><style type="text/css"><![CDATA[ 
.bar rect {
  fill-opacity: 0;
  stroke:       black;
  stroke-width: 0.5;
}

.highlight rect {
  fill:       red;
  fill-opacity: 1;
}
.axis path,
.axis line {
  fill: none;
  stroke: #000;
  shape-rendering: crispEdges;
}
 ]]></style></defs><g transform="translate(50,10)"><g class="bar" transform="translate(0,89.22325354176844)"><rect x="1" width="11.5" height="30.776746458231557"></rect></g><g class="bar" transform="translate(12.5,67.47435271128481)"><rect x="1" width="11.5" height="52.52564728871519"></rect></g><g class="bar" transform="translate(25,56.92232535417685)"><rect x="1" width="11.5" height="63.07767464582315"></rect></g><g class="bar" transform="translate(37.5,46.135808500244266)"><rect x="1" width="11.5" height="73.86419149975573"></rect></g><g class="bar" transform="translate(50,26.438690766976066)"><rect x="1" width="11.5" height="93.56130923302393"></rect></g><g class="bar" transform="translate(62.5,0)"><rect x="1" width="11.5" height="120"></rect></g><g class="bar" transform="translate(75,3.2242305813385457)"><rect x="1" width="11.5" height="116.77576941866145"></rect></g><g class="bar" transform="translate(87.5,20.51783097215437)"><rect x="1" width="11.5" height="99.48216902784563"></rect></g><g class="bar" transform="translate(100,48.59794821690278)"><rect x="1" width="11.5" height="71.40205178309722"></rect></g><g class="bar" transform="translate(112.5,84.00586223742062)"><rect x="1" width="11.5" height="35.994137762579385"></rect></g><g class="bar" transform="translate(125,111.8514899853444)"><rect x="1" width="11.5" height="8.1485100146556"></rect></g><g class="bar" transform="translate(137.5,119.23790913531998)"><rect x="1" width="11.5" height="0.7620908646800189"></rect></g><g class="bar" transform="translate(150,119.94137762579385)"><rect x="1" width="11.5" height="0.05862237420615202"></rect></g><g class="bar" transform="translate(162.5,120)"><rect x="1" width="11.5" height="0"></rect></g><g class="bar" transform="translate(175,120)"><rect x="1" width="11.5" height="0"></rect></g><g class="bar" transform="translate(187.5,120)"><rect x="1" width="11.5" height="0"></rect></g></g></svg>