<svg xmlns="http://www.w3.org/2000/svg" width="600" height="350"><defs><style type="text/css"><![CDATA[ 
.bar rect {
  fill-opacity: 0;
  stroke:       black;
  stroke-width: 0.5;
}

.highlight rect {
  fill:       red;
  fill-opacity: 1;
}
.axis path,
.axis line {
  fill: none;
  stroke: #000;
  shape-rendering: crispEdges;
}
 ]]></style></defs><g transform="translate(50,10)"><g class="bar" transform="translate(0,310)"><rect x="1" width="11.999999999999996" height="0"></rect></g><g class="bar" transform="translate(12.999999999999996,310)"><rect x="1" width="11.999999999999996" height="0"></rect></g><g class="bar" transform="translate(25.999999999999993,310)"><rect x="1" width="11.999999999999996" height="0"></rect></g><g class="bar" transform="translate(39.00000000000001,310)"><rect x="1" width="11.999999999999996" height="0"></rect></g><g class="bar" transform="translate(52,310)"><rect x="1" width="11.999999999999996" height="0"></rect></g><g class="bar" transform="translate(65,310)"><rect x="1" width="11.999999999999996" height="0"></rect></g><g class="bar" transform="translate(78.00000000000001,310)"><rect x="1" width="11.999999999999996" height="0"></rect></g><g class="bar" transform="translate(91.00000000000001,292.5128205128205)"><rect x="1" width="11.999999999999996" height="17.487179487179503"></rect></g><g class="bar" transform="translate(104,306.8205128205128)"><rect x="1" width="11.999999999999996" height="3.1794871794871824"></rect></g><g class="bar" transform="translate(117,305.2307692307692)"><rect x="1" width="11.999999999999996" height="4.769230769230774"></rect></g><g class="bar" transform="translate(130,284.56410256410254)"><rect x="1" width="11.999999999999996" height="25.43589743589746"></rect></g><g class="bar" transform="translate(143,284.56410256410254)"><rect x="1" width="11.999999999999996" height="25.43589743589746"></rect></g><g class="bar" transform="translate(156.00000000000003,262.3076923076923)"><rect x="1" width="11.999999999999996" height="47.69230769230768"></rect></g><g class="bar" transform="translate(169,254.35897435897436)"><rect x="1" width="11.999999999999996" height="55.641025641025635"></rect></g><g class="bar" transform="translate(182.00000000000003,178.05128205128204)"><rect x="1" width="11.999999999999996" height="131.94871794871796"></rect></g><g class="bar" transform="translate(195,147.84615384615384)"><rect x="1" width="11.999999999999996" height="162.15384615384616"></rect></g><g class="bar" transform="translate(208,92.20512820512823)"><rect x="1" width="11.999999999999996" height="217.79487179487177"></rect></g><g class="bar" transform="translate(221.00000000000003,15.897435897435912)"><rect x="1" width="11.999999999999996" height="294.1025641025641"></rect></g><g class="bar" transform="translate(234,0)"><rect x="1" width="11.999999999999996" height="310"></rect></g><g class="bar" transform="translate(247.00000000000003,6.358974358974365)"><rect x="1" width="11.999999999999996" height="303.64102564102564"></rect></g><g class="bar" transform="translate(260,22.25641025641022)"><rect x="1" width="11.999999999999996" height="287.7435897435898"></rect></g><g class="bar" transform="translate(273,50.87179487179486)"><rect x="1" width="11.999999999999996" height="259.12820512820514"></rect></g><g class="bar" transform="translate(286,89.02564102564102)"><rect x="1" width="11.999999999999996" height="220.97435897435898"></rect></g><g class="bar" transform="translate(299.00000000000006,104.92307692307693)"><rect x="1" width="11.999999999999996" height="205.07692307692307"></rect></g><g class="bar" transform="translate(312.00000000000006,173.2820512820513)"><rect x="1" width="11.999999999999996" height="136.7179487179487"></rect></g><g class="bar" transform="translate(325,224.15384615384613)"><rect x="1" width="11.999999999999996" height="85.84615384615387"></rect></g><g class="bar" transform="translate(338,244.82051282051282)"><rect x="1" width="11.999999999999996" height="65.17948717948718"></rect></g><g class="bar" transform="translate(351,284.56410256410254)"><rect x="1" width="11.999999999999996" height="25.43589743589746"></rect></g><g class="bar" transform="translate(364.00000000000006,298.87179487179486)"><rect x="1" width="11.999999999999996" height="11.128205128205138"></rect></g><g class="bar" transform="translate(377.00000000000006,297.28205128205127)"><rect x="1" width="11.999999999999996" height="12.71794871794873"></rect></g><g class="bar" transform="translate(390,306.8205128205128)"><rect x="1" width="11.999999999999996" height="3.1794871794871824"></rect></g><g class="bar" transform="translate(403,306.8205128205128)"><rect x="1" width="11.999999999999996" height="3.1794871794871824"></rect></g><g class="bar" transform="translate(416,305.2307692307692)"><rect x="1" width="11.999999999999996" height="4.769230769230774"></rect></g><g class="bar" transform="translate(429.00000000000006,306.8205128205128)"><rect x="1" width="11.999999999999996" height="3.1794871794871824"></rect></g><g class="bar" transform="translate(442.00000000000006,308.4102564102564)"><rect x="1" width="11.999999999999996" height="1.5897435897435912"></rect></g><g class="bar" transform="translate(455,308.4102564102564)"><rect x="1" width="11.999999999999996" height="1.5897435897435912"></rect></g><g class="bar" transform="translate(468,310)"><rect x="1" width="11.999999999999996" height="0"></rect></g><g class="bar" transform="translate(481,310)"><rect x="1" width="11.999999999999996" height="0"></rect></g><g class="bar" transform="translate(494.00000000000006,310)"><rect x="1" width="11.999999999999996" height="0"></rect></g><g class="bar" transform="translate(507.00000000000006,310)"><rect x="1" width="11.999999999999996" height="0"></rect></g><g class="axis axis--x" transform="translate(0,310)" fill="none" font-size="10" font-family="sans-serif" text-anchor="middle"><path class="domain" stroke="#000" d="M0.5,6V0.5H520.5V6"></path><g class="tick" opacity="1" transform="translate(0,0)"><line stroke="#000" y2="6" x1="0.5" x2="0.5"></line><text fill="#000" y="9" x="0.5" dy="0.71em">0.01</text></g><g class="tick" opacity="1" transform="translate(130,0)"><line stroke="#000" y2="6" x1="0.5" x2="0.5"></line><text fill="#000" y="9" x="0.5" dy="0.71em">1</text></g><g class="tick" opacity="1" transform="translate(260,0)"><line stroke="#000" y2="6" x1="0.5" x2="0.5"></line><text fill="#000" y="9" x="0.5" dy="0.71em">100</text></g><g class="tick" opacity="1" transform="translate(390,0)"><line stroke="#000" y2="6" x1="0.5" x2="0.5"></line><text fill="#000" y="9" x="0.5" dy="0.71em">10000</text></g><g class="tick" opacity="1" transform="translate(520,0)"><line stroke="#000" y2="6" x1="0.5" x2="0.5"></line><text fill="#000" y="9" x="0.5" dy="0.71em"></text></g></g><g class="axis axis--y" fill="none" font-size="10" font-family="sans-serif" text-anchor="end"><path class="domain" stroke="#000" d="M-6,310.5H0.5V0.5H-6"></path><g class="tick" opacity="1" transform="translate(0,310)"><line stroke="#000" x2="-6" y1="0.5" y2="0.5"></line><text fill="#000" x="-9" y="0.5" dy="0.32em">0</text></g><g class="tick" opacity="1" transform="translate(0,278.20512820512823)"><line stroke="#000" x2="-6" y1="0.5" y2="0.5"></line><text fill="#000" x="-9" y="0.5" dy="0.32em">20</text></g><g class="tick" opacity="1" transform="translate(0,246.4102564102564)"><line stroke="#000" x2="-6" y1="0.5" y2="0.5"></line><text fill="#000" x="-9" y="0.5" dy="0.32em">40</text></g><g class="tick" opacity="1" transform="translate(0,214.6153846153846)"><line stroke="#000" x2="-6" y1="0.5" y2="0.5"></line><text fill="#000" x="-9" y="0.5" dy="0.32em">60</text></g><g class="tick" opacity="1" transform="translate(0,182.82051282051282)"><line stroke="#000" x2="-6" y1="0.5" y2="0.5"></line><text fill="#000" x="-9" y="0.5" dy="0.32em">80</text></g><g class="tick" opacity="1" transform="translate(0,151.02564102564105)"><line stroke="#000" x2="-6" y1="0.5" y2="0.5"></line><text fill="#000" x="-9" y="0.5" dy="0.32em">100</text></g><g class="tick" opacity="1" transform="translate(0,119.23076923076923)"><line stroke="#000" x2="-6" y1="0.5" y2="0.5"></line><text fill="#000" x="-9" y="0.5" dy="0.32em">120</text></g><g class="tick" opacity="1" transform="translate(0,87.43589743589743)"><line stroke="#000" x2="-6" y1="0.5" y2="0.5"></line><text fill="#000" x="-9" y="0.5" dy="0.32em">140</text></g><g class="tick" opacity="1" transform="translate(0,55.641025641025664)"><line stroke="#000" x2="-6" y1="0.5" y2="0.5"></line><text fill="#000" x="-9" y="0.5" dy="0.32em">160</text></g><g class="tick" opacity="1" transform="translate(0,23.84615384615381)"><line stroke="#000" x2="-6" y1="0.5" y2="0.5"></line><text fill="#000" x="-9" y="0.5" dy="0.32em">180</text></g></g></g></svg>