<svg xmlns="http://www.w3.org/2000/svg" width="600" height="350"><defs><style type="text/css"><![CDATA[ 
.bar rect {
  fill-opacity: 0;
  stroke:       black;
  stroke-width: 0.5;
}

.highlight rect {
  fill:       red;
  fill-opacity: 1;
}
.axis path,
.axis line {
  fill: none;
  stroke: #000;
  shape-rendering: crispEdges;
}
 ]]></style></defs><g transform="translate(50,10)"><g class="bar" transform="translate(0,269.2857142857143)"><rect x="1" width="11.999999999999996" height="40.71428571428572"></rect></g><g class="bar" transform="translate(12.999999999999996,237.14285714285714)"><rect x="1" width="11.999999999999996" height="72.85714285714286"></rect></g><g class="bar" transform="translate(25.999999999999993,221.42857142857144)"><rect x="1" width="11.999999999999996" height="88.57142857142856"></rect></g><g class="bar" transform="translate(39.00000000000001,165.71428571428572)"><rect x="1" width="11.999999999999996" height="144.28571428571428"></rect></g><g class="bar" transform="translate(52,180.7142857142857)"><rect x="1" width="11.999999999999996" height="129.2857142857143"></rect></g><g class="bar" transform="translate(65,137.14285714285714)"><rect x="1" width="11.999999999999996" height="172.85714285714286"></rect></g><g class="bar" transform="translate(78.00000000000001,116.42857142857142)"><rect x="1" width="11.999999999999996" height="193.57142857142858"></rect></g><g class="bar" transform="translate(91.00000000000001,65.7142857142857)"><rect x="1" width="11.999999999999996" height="244.2857142857143"></rect></g><g class="bar" transform="translate(104,62.14285714285714)"><rect x="1" width="11.999999999999996" height="247.85714285714286"></rect></g><g class="bar" transform="translate(117,54.28571428571428)"><rect x="1" width="11.999999999999996" height="255.71428571428572"></rect></g><g class="bar" transform="translate(130,7.142857142857167)"><rect x="1" width="11.999999999999996" height="302.85714285714283"></rect></g><g class="bar" transform="translate(143,20)"><rect x="1" width="11.999999999999996" height="290"></rect></g><g class="bar" transform="translate(156.00000000000003,48.571428571428555)"><rect x="1" width="11.999999999999996" height="261.42857142857144"></rect></g><g class="bar" transform="translate(169,3.571428571428555)"><rect x="1" width="11.999999999999996" height="306.42857142857144"></rect></g><g class="bar" transform="translate(182.00000000000003,10)"><rect x="1" width="11.999999999999996" height="300"></rect></g><g class="bar" transform="translate(195,0)"><rect x="1" width="11.999999999999996" height="310"></rect></g><g class="bar" transform="translate(208,5)"><rect x="1" width="11.999999999999996" height="305"></rect></g><g class="bar" transform="translate(221.00000000000003,2.142857142857167)"><rect x="1" width="11.999999999999996" height="307.85714285714283"></rect></g><g class="bar" transform="translate(234,35.71428571428572)"><rect x="1" width="11.999999999999996" height="274.2857142857143"></rect></g><g class="bar" transform="translate(247.00000000000003,44.28571428571428)"><rect x="1" width="11.999999999999996" height="265.7142857142857"></rect></g><g class="bar" transform="translate(260,70)"><rect x="1" width="11.999999999999996" height="240"></rect></g><g class="bar" transform="translate(273,102.85714285714286)"><rect x="1" width="11.999999999999996" height="207.14285714285714"></rect></g><g class="bar" transform="translate(286,115.71428571428572)"><rect x="1" width="11.999999999999996" height="194.28571428571428"></rect></g><g class="bar" transform="translate(299.00000000000006,192.85714285714286)"><rect x="1" width="11.999999999999996" height="117.14285714285714"></rect></g><g class="bar" transform="translate(312.00000000000006,188.57142857142856)"><rect x="1" width="11.999999999999996" height="121.42857142857144"></rect></g><g class="bar" transform="translate(325,237.85714285714286)"><rect x="1" width="11.999999999999996" height="72.14285714285714"></rect></g><g class="bar" transform="translate(338,282.85714285714283)"><rect x="1" width="11.999999999999996" height="27.142857142857167"></rect></g><g class="bar" transform="translate(351,296.42857142857144)"><rect x="1" width="11.999999999999996" height="13.571428571428555"></rect></g><g class="bar" transform="translate(364.00000000000006,305.7142857142857)"><rect x="1" width="11.999999999999996" height="4.285714285714278"></rect></g><g class="bar" transform="translate(377.00000000000006,306.42857142857144)"><rect x="1" width="11.999999999999996" height="3.571428571428555"></rect></g><g class="bar" transform="translate(390,308.57142857142856)"><rect x="1" width="11.999999999999996" height="1.4285714285714448"></rect></g><g class="bar" transform="translate(403,307.14285714285717)"><rect x="1" width="11.999999999999996" height="2.857142857142833"></rect></g><g class="bar" transform="translate(416,307.85714285714283)"><rect x="1" width="11.999999999999996" height="2.142857142857167"></rect></g><g class="bar" transform="translate(429.00000000000006,310)"><rect x="1" width="11.999999999999996" height="0"></rect></g><g class="bar" transform="translate(442.00000000000006,310)"><rect x="1" width="11.999999999999996" height="0"></rect></g><g class="bar" transform="translate(455,310)"><rect x="1" width="11.999999999999996" height="0"></rect></g><g class="bar" transform="translate(468,310)"><rect x="1" width="11.999999999999996" height="0"></rect></g><g class="bar" transform="translate(481,310)"><rect x="1" width="11.999999999999996" height="0"></rect></g><g class="bar" transform="translate(494.00000000000006,310)"><rect x="1" width="11.999999999999996" height="0"></rect></g><g class="bar" transform="translate(507.00000000000006,310)"><rect x="1" width="11.999999999999996" height="0"></rect></g><g class="axis axis--x" transform="translate(0,310)" fill="none" font-size="10" font-family="sans-serif" text-anchor="middle"><path class="domain" stroke="#000" d="M0.5,6V0.5H520.5V6"></path><g class="tick" opacity="1" transform="translate(0,0)"><line stroke="#000" y2="6" x1="0.5" x2="0.5"></line><text fill="#000" y="9" x="0.5" dy="0.71em">0.01</text></g><g class="tick" opacity="1" transform="translate(130,0)"><line stroke="#000" y2="6" x1="0.5" x2="0.5"></line><text fill="#000" y="9" x="0.5" dy="0.71em">1</text></g><g class="tick" opacity="1" transform="translate(260,0)"><line stroke="#000" y2="6" x1="0.5" x2="0.5"></line><text fill="#000" y="9" x="0.5" dy="0.71em">100</text></g><g class="tick" opacity="1" transform="translate(390,0)"><line stroke="#000" y2="6" x1="0.5" x2="0.5"></line><text fill="#000" y="9" x="0.5" dy="0.71em">10000</text></g><g class="tick" opacity="1" transform="translate(520,0)"><line stroke="#000" y2="6" x1="0.5" x2="0.5"></line><text fill="#000" y="9" x="0.5" dy="0.71em"></text></g></g><g class="axis axis--y" fill="none" font-size="10" font-family="sans-serif" text-anchor="end"><path class="domain" stroke="#000" d="M-6,310.5H0.5V0.5H-6"></path><g class="tick" opacity="1" transform="translate(0,310)"><line stroke="#000" x2="-6" y1="0.5" y2="0.5"></line><text fill="#000" x="-9" y="0.5" dy="0.32em">0</text></g><g class="tick" opacity="1" transform="translate(0,274.2857142857143)"><line stroke="#000" x2="-6" y1="0.5" y2="0.5"></line><text fill="#000" x="-9" y="0.5" dy="0.32em">50</text></g><g class="tick" opacity="1" transform="translate(0,238.57142857142856)"><line stroke="#000" x2="-6" y1="0.5" y2="0.5"></line><text fill="#000" x="-9" y="0.5" dy="0.32em">100</text></g><g class="tick" opacity="1" transform="translate(0,202.85714285714286)"><line stroke="#000" x2="-6" y1="0.5" y2="0.5"></line><text fill="#000" x="-9" y="0.5" dy="0.32em">150</text></g><g class="tick" opacity="1" transform="translate(0,167.14285714285714)"><line stroke="#000" x2="-6" y1="0.5" y2="0.5"></line><text fill="#000" x="-9" y="0.5" dy="0.32em">200</text></g><g class="tick" opacity="1" transform="translate(0,131.42857142857144)"><line stroke="#000" x2="-6" y1="0.5" y2="0.5"></line><text fill="#000" x="-9" y="0.5" dy="0.32em">250</text></g><g class="tick" opacity="1" transform="translate(0,95.71428571428572)"><line stroke="#000" x2="-6" y1="0.5" y2="0.5"></line><text fill="#000" x="-9" y="0.5" dy="0.32em">300</text></g><g class="tick" opacity="1" transform="translate(0,60.00000000000003)"><line stroke="#000" x2="-6" y1="0.5" y2="0.5"></line><text fill="#000" x="-9" y="0.5" dy="0.32em">350</text></g><g class="tick" opacity="1" transform="translate(0,24.285714285714278)"><line stroke="#000" x2="-6" y1="0.5" y2="0.5"></line><text fill="#000" x="-9" y="0.5" dy="0.32em">400</text></g></g></g></svg>