<svg xmlns="http://www.w3.org/2000/svg" width="600" height="350"><defs><style type="text/css"><![CDATA[ 
.bar rect {
  fill-opacity: 0;
  stroke:       black;
  stroke-width: 0.5;
}

.highlight rect {
  fill:       red;
  fill-opacity: 1;
}
.axis path,
.axis line {
  fill: none;
  stroke: #000;
  shape-rendering: crispEdges;
}
 ]]></style></defs><g transform="translate(50,10)"><g class="bar" transform="translate(0,310)"><rect x="1" width="2.2500000000000027" height="0"></rect></g><g class="bar" transform="translate(3.2500000000000027,310)"><rect x="1" width="2.2500000000000027" height="0"></rect></g><g class="bar" transform="translate(6.500000000000005,310)"><rect x="1" width="2.2500000000000027" height="0"></rect></g><g class="bar" transform="translate(9.749999999999995,310)"><rect x="1" width="2.2500000000000027" height="0"></rect></g><g class="bar" transform="translate(12.999999999999996,310)"><rect x="1" width="2.2500000000000027" height="0"></rect></g><g class="bar" transform="translate(16.25,310)"><rect x="1" width="2.2500000000000027" height="0"></rect></g><g class="bar" transform="translate(19.500000000000004,310)"><rect x="1" width="2.2500000000000027" height="0"></rect></g><g class="bar" transform="translate(22.750000000000007,310)"><rect x="1" width="2.2500000000000027" height="0"></rect></g><g class="bar" transform="translate(25.999999999999993,310)"><rect x="1" width="2.2500000000000027" height="0"></rect></g><g class="bar" transform="translate(29.249999999999996,310)"><rect x="1" width="2.2500000000000027" height="0"></rect></g><g class="bar" transform="translate(32.5,310)"><rect x="1" width="2.2500000000000027" height="0"></rect></g><g class="bar" transform="translate(35.75,310)"><rect x="1" width="2.2500000000000027" height="0"></rect></g><g class="bar" transform="translate(39.00000000000001,310)"><rect x="1" width="2.2500000000000027" height="0"></rect></g><g class="bar" transform="translate(42.24999999999999,310)"><rect x="1" width="2.2500000000000027" height="0"></rect></g><g class="bar" transform="translate(45.500000000000014,310)"><rect x="1" width="2.2500000000000027" height="0"></rect></g><g class="bar" transform="translate(48.75,310)"><rect x="1" width="2.2500000000000027" height="0"></rect></g><g class="bar" transform="translate(52,310)"><rect x="1" width="2.2500000000000027" height="0"></rect></g><g class="bar" transform="translate(55.25000000000001,310)"><rect x="1" width="2.2500000000000027" height="0"></rect></g><g class="bar" transform="translate(58.49999999999999,310)"><rect x="1" width="2.2500000000000027" height="0"></rect></g><g class="bar" transform="translate(61.750000000000014,310)"><rect x="1" width="2.2500000000000027" height="0"></rect></g><g class="bar" transform="translate(65,310)"><rect x="1" width="2.2500000000000027" height="0"></rect></g><g class="bar" transform="translate(68.25,310)"><rect x="1" width="2.2500000000000027" height="0"></rect></g><g class="bar" transform="translate(71.5,310)"><rect x="1" width="2.2500000000000027" height="0"></rect></g><g class="bar" transform="translate(74.75000000000001,310)"><rect x="1" width="2.2500000000000027" height="0"></rect></g><g class="bar" transform="translate(78.00000000000001,310)"><rect x="1" width="2.2500000000000027" height="0"></rect></g><g class="bar" transform="translate(81.25,310)"><rect x="1" width="2.2500000000000027" height="0"></rect></g><g class="bar" transform="translate(84.5,310)"><rect x="1" width="2.2500000000000027" height="0"></rect></g><g class="bar" transform="translate(87.75,310)"><rect x="1" width="2.2500000000000027" height="0"></rect></g><g class="bar" transform="translate(91.00000000000001,310)"><rect x="1" width="2.2500000000000027" height="0"></rect></g><g class="bar" transform="translate(94.25000000000001,310)"><rect x="1" width="2.2500000000000027" height="0"></rect></g><g class="bar" transform="translate(97.5,310)"><rect x="1" width="2.2500000000000027" height="0"></rect></g><g class="bar" transform="translate(100.75,310)"><rect x="1" width="2.2500000000000027" height="0"></rect></g><g class="bar" transform="translate(104,310)"><rect x="1" width="2.2500000000000027" height="0"></rect></g><g class="bar" transform="translate(107.25000000000001,310)"><rect x="1" width="2.2500000000000027" height="0"></rect></g><g class="bar" transform="translate(110.50000000000001,310)"><rect x="1" width="2.2500000000000027" height="0"></rect></g><g class="bar" transform="translate(113.75,310)"><rect x="1" width="2.2500000000000027" height="0"></rect></g><g class="bar" transform="translate(117,310)"><rect x="1" width="2.2500000000000027" height="0"></rect></g><g class="bar" transform="translate(120.25,310)"><rect x="1" width="2.2500000000000027" height="0"></rect></g><g class="bar" transform="translate(123.50000000000001,310)"><rect x="1" width="2.2500000000000027" height="0"></rect></g><g class="bar" transform="translate(126.75000000000001,310)"><rect x="1" width="2.2500000000000027" height="0"></rect></g><g class="bar" transform="translate(130,310)"><rect x="1" width="2.2500000000000027" height="0"></rect></g><g class="bar" transform="translate(133.25000000000003,310)"><rect x="1" width="2.2500000000000027" height="0"></rect></g><g class="bar" transform="translate(136.5,310)"><rect x="1" width="2.2500000000000027" height="0"></rect></g><g class="bar" transform="translate(139.75,310)"><rect x="1" width="2.2500000000000027" height="0"></rect></g><g class="bar" transform="translate(143,310)"><rect x="1" width="2.2500000000000027" height="0"></rect></g><g class="bar" transform="translate(146.25,310)"><rect x="1" width="2.2500000000000027" height="0"></rect></g><g class="bar" transform="translate(149.50000000000003,310)"><rect x="1" width="2.2500000000000027" height="0"></rect></g><g class="bar" transform="translate(152.75,310)"><rect x="1" width="2.2500000000000027" height="0"></rect></g><g class="bar" transform="translate(156.00000000000003,310)"><rect x="1" width="2.2500000000000027" height="0"></rect></g><g class="bar" transform="translate(159.25,310)"><rect x="1" width="2.2500000000000027" height="0"></rect></g><g class="bar" transform="translate(162.5,310)"><rect x="1" width="2.2500000000000027" height="0"></rect></g><g class="bar" transform="translate(165.75000000000003,306.5657311669128)"><rect x="1" width="2.2500000000000027" height="3.434268833087174"></rect></g><g class="bar" transform="translate(169,310)"><rect x="1" width="2.2500000000000027" height="0"></rect></g><g class="bar" transform="translate(172.25000000000003,310)"><rect x="1" width="2.2500000000000027" height="0"></rect></g><g class="bar" transform="translate(175.5,310)"><rect x="1" width="2.2500000000000027" height="0"></rect></g><g class="bar" transform="translate(178.75,309.54209748892174)"><rect x="1" width="2.2500000000000027" height="0.4579025110782595"></rect></g><g class="bar" transform="translate(182.00000000000003,308.8552437223043)"><rect x="1" width="2.2500000000000027" height="1.1447562776957056"></rect></g><g class="bar" transform="translate(185.25,308.8552437223043)"><rect x="1" width="2.2500000000000027" height="1.1447562776957056"></rect></g><g class="bar" transform="translate(188.50000000000003,307.7104874446086)"><rect x="1" width="2.2500000000000027" height="2.2895125553914113"></rect></g><g class="bar" transform="translate(191.75,309.77104874446087)"><rect x="1" width="2.2500000000000027" height="0.22895125553912976"></rect></g><g class="bar" transform="translate(195,306.3367799113737)"><rect x="1" width="2.2500000000000027" height="3.6632200886263035"></rect></g><g class="bar" transform="translate(198.25000000000003,308.397341211226)"><rect x="1" width="2.2500000000000027" height="1.602658788774022"></rect></g><g class="bar" transform="translate(201.5,308.62629246676516)"><rect x="1" width="2.2500000000000027" height="1.3737075332348354"></rect></g><g class="bar" transform="translate(204.75000000000003,305.4209748892171)"><rect x="1" width="2.2500000000000027" height="4.579025110782879"></rect></g><g class="bar" transform="translate(208,306.3367799113737)"><rect x="1" width="2.2500000000000027" height="3.6632200886263035"></rect></g><g class="bar" transform="translate(211.25,300.15509601181685)"><rect x="1" width="2.2500000000000027" height="9.844903988183148"></rect></g><g class="bar" transform="translate(214.50000000000003,303.81831610044316)"><rect x="1" width="2.2500000000000027" height="6.181683899556845"></rect></g><g class="bar" transform="translate(217.75,303.36041358936484)"><rect x="1" width="2.2500000000000027" height="6.639586410635161"></rect></g><g class="bar" transform="translate(221.00000000000003,303.58936484490397)"><rect x="1" width="2.2500000000000027" height="6.410635155096031"></rect></g><g class="bar" transform="translate(224.25,294.8892171344165)"><rect x="1" width="2.2500000000000027" height="15.110782865583474"></rect></g><g class="bar" transform="translate(227.5,273.3677991137371)"><rect x="1" width="2.2500000000000027" height="36.63220088626292"></rect></g><g class="bar" transform="translate(230.75000000000003,235.81979320531758)"><rect x="1" width="2.2500000000000027" height="74.18020679468242"></rect></g><g class="bar" transform="translate(234,228.9512555391433)"><rect x="1" width="2.2500000000000027" height="81.04874446085671"></rect></g><g class="bar" transform="translate(237.25000000000003,253.4490398818316)"><rect x="1" width="2.2500000000000027" height="56.550960118168405"></rect></g><g class="bar" transform="translate(240.5,292.82865583456424)"><rect x="1" width="2.2500000000000027" height="17.171344165435755"></rect></g><g class="bar" transform="translate(243.75,299.9261447562777)"><rect x="1" width="2.2500000000000027" height="10.073855243722278"></rect></g><g class="bar" transform="translate(247.00000000000003,287.33382570162485)"><rect x="1" width="2.2500000000000027" height="22.666174298375154"></rect></g><g class="bar" transform="translate(250.25,240.6277695716396)"><rect x="1" width="2.2500000000000027" height="69.37223042836041"></rect></g><g class="bar" transform="translate(253.50000000000003,211.0930576070901)"><rect x="1" width="2.2500000000000027" height="98.90694239290991"></rect></g><g class="bar" transform="translate(256.75,222.76957163958642)"><rect x="1" width="2.2500000000000027" height="87.23042836041358"></rect></g><g class="bar" transform="translate(260,263.75184638109306)"><rect x="1" width="2.2500000000000027" height="46.24815361890694"></rect></g><g class="bar" transform="translate(263.25,236.27769571639587)"><rect x="1" width="2.2500000000000027" height="73.72230428360413"></rect></g><g class="bar" transform="translate(266.50000000000006,128.89955686853767)"><rect x="1" width="2.2500000000000027" height="181.10044313146233"></rect></g><g class="bar" transform="translate(269.75,24.955686853766622)"><rect x="1" width="2.2500000000000027" height="285.0443131462334"></rect></g><g class="bar" transform="translate(273,0)"><rect x="1" width="2.2500000000000027" height="310"></rect></g><g class="bar" transform="translate(276.25,115.16248153618906)"><rect x="1" width="2.2500000000000027" height="194.83751846381094"></rect></g><g class="bar" transform="translate(279.5,252.99113737075334)"><rect x="1" width="2.2500000000000027" height="57.008862629246664"></rect></g><g class="bar" transform="translate(282.75000000000006,294.8892171344165)"><rect x="1" width="2.2500000000000027" height="15.110782865583474"></rect></g><g class="bar" transform="translate(286,302.9025110782866)"><rect x="1" width="2.2500000000000027" height="7.0974889217134205"></rect></g><g class="bar" transform="translate(289.25,302.44460856720826)"><rect x="1" width="2.2500000000000027" height="7.555391432791737"></rect></g><g class="bar" transform="translate(292.5,305.64992614475625)"><rect x="1" width="2.2500000000000027" height="4.35007385524375"></rect></g><g class="bar" transform="translate(295.75,304.96307237813886)"><rect x="1" width="2.2500000000000027" height="5.036927621861139"></rect></g><g class="bar" transform="translate(299.00000000000006,309.54209748892174)"><rect x="1" width="2.2500000000000027" height="0.4579025110782595"></rect></g><g class="bar" transform="translate(302.25,309.77104874446087)"><rect x="1" width="2.2500000000000027" height="0.22895125553912976"></rect></g><g class="bar" transform="translate(305.5,309.54209748892174)"><rect x="1" width="2.2500000000000027" height="0.4579025110782595"></rect></g><g class="bar" transform="translate(308.75,310)"><rect x="1" width="2.2500000000000027" height="0"></rect></g><g class="bar" transform="translate(312.00000000000006,310)"><rect x="1" width="2.2500000000000027" height="0"></rect></g><g class="bar" transform="translate(315.25000000000006,310)"><rect x="1" width="2.2500000000000027" height="0"></rect></g><g class="bar" transform="translate(318.5,310)"><rect x="1" width="2.2500000000000027" height="0"></rect></g><g class="bar" transform="translate(321.75,310)"><rect x="1" width="2.2500000000000027" height="0"></rect></g><g class="bar" transform="translate(325,310)"><rect x="1" width="2.2500000000000027" height="0"></rect></g><g class="bar" transform="translate(328.25000000000006,310)"><rect x="1" width="2.2500000000000027" height="0"></rect></g><g class="bar" transform="translate(331.50000000000006,310)"><rect x="1" width="2.2500000000000027" height="0"></rect></g><g class="bar" transform="translate(334.75,310)"><rect x="1" width="2.2500000000000027" height="0"></rect></g><g class="bar" transform="translate(338,310)"><rect x="1" width="2.2500000000000027" height="0"></rect></g><g class="bar" transform="translate(341.25,310)"><rect x="1" width="2.2500000000000027" height="0"></rect></g><g class="bar" transform="translate(344.50000000000006,310)"><rect x="1" width="2.2500000000000027" height="0"></rect></g><g class="bar" transform="translate(347.75000000000006,310)"><rect x="1" width="2.2500000000000027" height="0"></rect></g><g class="bar" transform="translate(351,310)"><rect x="1" width="2.2500000000000027" height="0"></rect></g><g class="bar" transform="translate(354.25,310)"><rect x="1" width="2.2500000000000027" height="0"></rect></g><g class="bar" transform="translate(357.5,310)"><rect x="1" width="2.2500000000000027" height="0"></rect></g><g class="bar" transform="translate(360.75000000000006,310)"><rect x="1" width="2.2500000000000027" height="0"></rect></g><g class="bar" transform="translate(364.00000000000006,310)"><rect x="1" width="2.2500000000000027" height="0"></rect></g><g class="bar" transform="translate(367.25,310)"><rect x="1" width="2.2500000000000027" height="0"></rect></g><g class="bar" transform="translate(370.5,310)"><rect x="1" width="2.2500000000000027" height="0"></rect></g><g class="bar" transform="translate(373.75,310)"><rect x="1" width="2.2500000000000027" height="0"></rect></g><g class="bar" transform="translate(377.00000000000006,310)"><rect x="1" width="2.2500000000000027" height="0"></rect></g><g class="bar" transform="translate(380.25000000000006,310)"><rect x="1" width="2.2500000000000027" height="0"></rect></g><g class="bar" transform="translate(383.5,310)"><rect x="1" width="2.2500000000000027" height="0"></rect></g><g class="bar" transform="translate(386.75,310)"><rect x="1" width="2.2500000000000027" height="0"></rect></g><g class="bar" transform="translate(390,310)"><rect x="1" width="2.2500000000000027" height="0"></rect></g><g class="bar" transform="translate(393.25000000000006,310)"><rect x="1" width="2.2500000000000027" height="0"></rect></g><g class="bar" transform="translate(396.50000000000006,310)"><rect x="1" width="2.2500000000000027" height="0"></rect></g><g class="bar" transform="translate(399.75,310)"><rect x="1" width="2.2500000000000027" height="0"></rect></g><g class="bar" transform="translate(403,310)"><rect x="1" width="2.2500000000000027" height="0"></rect></g><g class="bar" transform="translate(406.25,310)"><rect x="1" width="2.2500000000000027" height="0"></rect></g><g class="bar" transform="translate(409.50000000000006,310)"><rect x="1" width="2.2500000000000027" height="0"></rect></g><g class="bar" transform="translate(412.75000000000006,310)"><rect x="1" width="2.2500000000000027" height="0"></rect></g><g class="bar" transform="translate(416,310)"><rect x="1" width="2.2500000000000027" height="0"></rect></g><g class="bar" transform="translate(419.25,310)"><rect x="1" width="2.2500000000000027" height="0"></rect></g><g class="bar" transform="translate(422.5,310)"><rect x="1" width="2.2500000000000027" height="0"></rect></g><g class="bar" transform="translate(425.75000000000006,310)"><rect x="1" width="2.2500000000000027" height="0"></rect></g><g class="bar" transform="translate(429.00000000000006,310)"><rect x="1" width="2.2500000000000027" height="0"></rect></g><g class="bar" transform="translate(432.25,310)"><rect x="1" width="2.2500000000000027" height="0"></rect></g><g class="bar" transform="translate(435.5,310)"><rect x="1" width="2.2500000000000027" height="0"></rect></g><g class="bar" transform="translate(438.75,310)"><rect x="1" width="2.2500000000000027" height="0"></rect></g><g class="bar" transform="translate(442.00000000000006,310)"><rect x="1" width="2.2500000000000027" height="0"></rect></g><g class="bar" transform="translate(445.25000000000006,310)"><rect x="1" width="2.2500000000000027" height="0"></rect></g><g class="bar" transform="translate(448.5,310)"><rect x="1" width="2.2500000000000027" height="0"></rect></g><g class="bar" transform="translate(451.75,310)"><rect x="1" width="2.2500000000000027" height="0"></rect></g><g class="bar" transform="translate(455,310)"><rect x="1" width="2.2500000000000027" height="0"></rect></g><g class="bar" transform="translate(458.25000000000006,310)"><rect x="1" width="2.2500000000000027" height="0"></rect></g><g class="bar" transform="translate(461.50000000000006,310)"><rect x="1" width="2.2500000000000027" height="0"></rect></g><g class="bar" transform="translate(464.75,310)"><rect x="1" width="2.2500000000000027" height="0"></rect></g><g class="bar" transform="translate(468,310)"><rect x="1" width="2.2500000000000027" height="0"></rect></g><g class="bar" transform="translate(471.25,310)"><rect x="1" width="2.2500000000000027" height="0"></rect></g><g class="bar" transform="translate(474.50000000000006,310)"><rect x="1" width="2.2500000000000027" height="0"></rect></g><g class="bar" transform="translate(477.75000000000006,310)"><rect x="1" width="2.2500000000000027" height="0"></rect></g><g class="bar" transform="translate(481,310)"><rect x="1" width="2.2500000000000027" height="0"></rect></g><g class="bar" transform="translate(484.25,310)"><rect x="1" width="2.2500000000000027" height="0"></rect></g><g class="bar" transform="translate(487.5,310)"><rect x="1" width="2.2500000000000027" height="0"></rect></g><g class="bar" transform="translate(490.75000000000006,310)"><rect x="1" width="2.2500000000000027" height="0"></rect></g><g class="bar" transform="translate(494.00000000000006,310)"><rect x="1" width="2.2500000000000027" height="0"></rect></g><g class="bar" transform="translate(497.25,310)"><rect x="1" width="2.2500000000000027" height="0"></rect></g><g class="bar" transform="translate(500.5,310)"><rect x="1" width="2.2500000000000027" height="0"></rect></g><g class="bar" transform="translate(503.75,310)"><rect x="1" width="2.2500000000000027" height="0"></rect></g><g class="bar" transform="translate(507.00000000000006,310)"><rect x="1" width="2.2500000000000027" height="0"></rect></g><g class="bar" transform="translate(510.25000000000006,310)"><rect x="1" width="2.2500000000000027" height="0"></rect></g><g class="bar" transform="translate(513.5,310)"><rect x="1" width="2.2500000000000027" height="0"></rect></g><g class="bar" transform="translate(516.75,310)"><rect x="1" width="2.2500000000000027" height="0"></rect></g><g class="axis axis--x" transform="translate(0,310)" fill="none" font-size="10" font-family="sans-serif" text-anchor="middle"><path class="domain" stroke="#000" d="M0.5,6V0.5H520.5V6"></path><g class="tick" opacity="1" transform="translate(0,0)"><line stroke="#000" y2="6" x1="0.5" x2="0.5"></line><text fill="#000" y="9" x="0.5" dy="0.71em">0.01</text></g><g class="tick" opacity="1" transform="translate(130,0)"><line stroke="#000" y2="6" x1="0.5" x2="0.5"></line><text fill="#000" y="9" x="0.5" dy="0.71em">1</text></g><g class="tick" opacity="1" transform="translate(260,0)"><line stroke="#000" y2="6" x1="0.5" x2="0.5"></line><text fill="#000" y="9" x="0.5" dy="0.71em">100</text></g><g class="tick" opacity="1" transform="translate(390,0)"><line stroke="#000" y2="6" x1="0.5" x2="0.5"></line><text fill="#000" y="9" x="0.5" dy="0.71em">10000</text></g><g class="tick" opacity="1" transform="translate(520,0)"><line stroke="#000" y2="6" x1="0.5" x2="0.5"></line><text fill="#000" y="9" x="0.5" dy="0.71em"></text></g></g><g class="axis axis--y" fill="none" font-size="10" font-family="sans-serif" text-anchor="end"><path class="domain" stroke="#000" d="M-6,310.5H0.5V0.5H-6"></path><g class="tick" opacity="1" transform="translate(0,310)"><line stroke="#000" x2="-6" y1="0.5" y2="0.5"></line><text fill="#000" x="-9" y="0.5" dy="0.32em">0</text></g><g class="tick" opacity="1" transform="translate(0,287.10487444608566)"><line stroke="#000" x2="-6" y1="0.5" y2="0.5"></line><text fill="#000" x="-9" y="0.5" dy="0.32em">100</text></g><g class="tick" opacity="1" transform="translate(0,264.2097488921713)"><line stroke="#000" x2="-6" y1="0.5" y2="0.5"></line><text fill="#000" x="-9" y="0.5" dy="0.32em">200</text></g><g class="tick" opacity="1" transform="translate(0,241.314623338257)"><line stroke="#000" x2="-6" y1="0.5" y2="0.5"></line><text fill="#000" x="-9" y="0.5" dy="0.32em">300</text></g><g class="tick" opacity="1" transform="translate(0,218.4194977843427)"><line stroke="#000" x2="-6" y1="0.5" y2="0.5"></line><text fill="#000" x="-9" y="0.5" dy="0.32em">400</text></g><g class="tick" opacity="1" transform="translate(0,195.52437223042836)"><line stroke="#000" x2="-6" y1="0.5" y2="0.5"></line><text fill="#000" x="-9" y="0.5" dy="0.32em">500</text></g><g class="tick" opacity="1" transform="translate(0,172.62924667651401)"><line stroke="#000" x2="-6" y1="0.5" y2="0.5"></line><text fill="#000" x="-9" y="0.5" dy="0.32em">600</text></g><g class="tick" opacity="1" transform="translate(0,149.7341211225997)"><line stroke="#000" x2="-6" y1="0.5" y2="0.5"></line><text fill="#000" x="-9" y="0.5" dy="0.32em">700</text></g><g class="tick" opacity="1" transform="translate(0,126.83899556868536)"><line stroke="#000" x2="-6" y1="0.5" y2="0.5"></line><text fill="#000" x="-9" y="0.5" dy="0.32em">800</text></g><g class="tick" opacity="1" transform="translate(0,103.94387001477105)"><line stroke="#000" x2="-6" y1="0.5" y2="0.5"></line><text fill="#000" x="-9" y="0.5" dy="0.32em">900</text></g><g class="tick" opacity="1" transform="translate(0,81.04874446085671)"><line stroke="#000" x2="-6" y1="0.5" y2="0.5"></line><text fill="#000" x="-9" y="0.5" dy="0.32em">1,000</text></g><g class="tick" opacity="1" transform="translate(0,58.1536189069424)"><line stroke="#000" x2="-6" y1="0.5" y2="0.5"></line><text fill="#000" x="-9" y="0.5" dy="0.32em">1,100</text></g><g class="tick" opacity="1" transform="translate(0,35.25849335302803)"><line stroke="#000" x2="-6" y1="0.5" y2="0.5"></line><text fill="#000" x="-9" y="0.5" dy="0.32em">1,200</text></g><g class="tick" opacity="1" transform="translate(0,12.363367799113746)"><line stroke="#000" x2="-6" y1="0.5" y2="0.5"></line><text fill="#000" x="-9" y="0.5" dy="0.32em">1,300</text></g></g></g></svg>