<svg xmlns="http://www.w3.org/2000/svg" width="280" height="160"><defs><style type="text/css"><![CDATA[ 
.bar rect {
  fill-opacity: 0;
  stroke:       black;
  stroke-width: 0.5;
}

.highlight rect {
  fill:       red;
  fill-opacity: 1;
}
.axis path,
.axis line {
  fill: none;
  stroke: #000;
  shape-rendering: crispEdges;
}
path {
    stroke: red;
    fill: none;
}

line {
    stroke: red;
}

path.marker {
    fill: red;
}
 ]]></style></defs><g transform="translate(50,10)"><g class="bar" transform="translate(0,112.18867924528303)"><rect x="1" width="11.5" height="7.811320754716974"></rect></g><g class="bar" transform="translate(12.5,96)"><rect x="1" width="11.5" height="24"></rect></g><g class="bar" transform="translate(25,67.47169811320754)"><rect x="1" width="11.5" height="52.52830188679246"></rect></g><g class="bar" transform="translate(37.5,30.905660377358487)"><rect x="1" width="11.5" height="89.09433962264151"></rect></g><g class="bar" transform="translate(50,22.52830188679245)"><rect x="1" width="11.5" height="97.47169811320755"></rect></g><g class="bar" transform="translate(62.5,3.2830188679245396)"><rect x="1" width="11.5" height="116.71698113207546"></rect></g><g class="bar" transform="translate(75,0)"><rect x="1" width="11.5" height="120"></rect></g><g class="bar" transform="translate(87.5,3.169811320754718)"><rect x="1" width="11.5" height="116.83018867924528"></rect></g><g class="bar" transform="translate(100,27.849056603773576)"><rect x="1" width="11.5" height="92.15094339622642"></rect></g><g class="bar" transform="translate(112.5,67.1320754716981)"><rect x="1" width="11.5" height="52.8679245283019"></rect></g><g class="bar" transform="translate(125,102)"><rect x="1" width="11.5" height="18"></rect></g><g class="bar" transform="translate(137.5,115.9245283018868)"><rect x="1" width="11.5" height="4.075471698113205"></rect></g><g class="bar" transform="translate(150,119.66037735849056)"><rect x="1" width="11.5" height="0.3396226415094361"></rect></g><g class="bar" transform="translate(162.5,120)"><rect x="1" width="11.5" height="0"></rect></g><g class="bar" transform="translate(175,120)"><rect x="1" width="11.5" height="0"></rect></g><g class="bar" transform="translate(187.5,120)"><rect x="1" width="11.5" height="0"></rect></g></g></svg>