<svg xmlns="http://www.w3.org/2000/svg" width="600" height="350"><defs><style type="text/css"><![CDATA[ 
.bar rect {
  fill-opacity: 0;
  stroke:       black;
  stroke-width: 0.5;
}

.highlight rect {
  fill:       red;
  fill-opacity: 1;
}
.axis path,
.axis line {
  fill: none;
  stroke: #000;
  shape-rendering: crispEdges;
}
path {
    stroke: red;
    fill: none;
}

line {
    stroke: red;
}

path.marker {
    fill: red;
}
 ]]></style></defs><g transform="translate(50,10)"><g class="bar" transform="translate(0,301.14285714285717)"><rect x="1" width="11.999999999999996" height="8.857142857142833"></rect></g><g class="bar" transform="translate(12.999999999999996,288.8791208791209)"><rect x="1" width="11.999999999999996" height="21.120879120879124"></rect></g><g class="bar" transform="translate(25.999999999999993,278.65934065934067)"><rect x="1" width="11.999999999999996" height="31.34065934065933"></rect></g><g class="bar" transform="translate(39.00000000000001,261.6263736263736)"><rect x="1" width="11.999999999999996" height="48.373626373626394"></rect></g><g class="bar" transform="translate(52,228.24175824175825)"><rect x="1" width="11.999999999999996" height="81.75824175824175"></rect></g><g class="bar" transform="translate(65,209.16483516483515)"><rect x="1" width="11.999999999999996" height="100.83516483516485"></rect></g><g class="bar" transform="translate(78.00000000000001,180.54945054945054)"><rect x="1" width="11.999999999999996" height="129.45054945054946"></rect></g><g class="bar" transform="translate(91.00000000000001,132.85714285714286)"><rect x="1" width="11.999999999999996" height="177.14285714285714"></rect></g><g class="bar" transform="translate(104,86.52747252747253)"><rect x="1" width="11.999999999999996" height="223.47252747252747"></rect></g><g class="bar" transform="translate(117,88.57142857142856)"><rect x="1" width="11.999999999999996" height="221.42857142857144"></rect></g><g class="bar" transform="translate(130,83.12087912087912)"><rect x="1" width="11.999999999999996" height="226.87912087912088"></rect></g><g class="bar" transform="translate(143,80.39560439560438)"><rect x="1" width="11.999999999999996" height="229.60439560439562"></rect></g><g class="bar" transform="translate(156.00000000000003,29.2967032967033)"><rect x="1" width="11.999999999999996" height="280.7032967032967"></rect></g><g class="bar" transform="translate(169,18.39560439560438)"><rect x="1" width="11.999999999999996" height="291.6043956043956"></rect></g><g class="bar" transform="translate(182.00000000000003,49.73626373626371)"><rect x="1" width="11.999999999999996" height="260.2637362637363"></rect></g><g class="bar" transform="translate(195,48.373626373626394)"><rect x="1" width="11.999999999999996" height="261.6263736263736"></rect></g><g class="bar" transform="translate(208,0)"><rect x="1" width="11.999999999999996" height="310"></rect></g><g class="bar" transform="translate(221.00000000000003,17.032967032967065)"><rect x="1" width="11.999999999999996" height="292.96703296703294"></rect></g><g class="bar" transform="translate(234,12.263736263736234)"><rect x="1" width="11.999999999999996" height="297.73626373626377"></rect></g><g class="bar" transform="translate(247.00000000000003,47.01098901098902)"><rect x="1" width="11.999999999999996" height="262.989010989011"></rect></g><g class="bar" transform="translate(260,55.1868131868132)"><rect x="1" width="11.999999999999996" height="254.8131868131868"></rect></g><g class="bar" transform="translate(273,101.5164835164835)"><rect x="1" width="11.999999999999996" height="208.4835164835165"></rect></g><g class="bar" transform="translate(286,136.94505494505495)"><rect x="1" width="11.999999999999996" height="173.05494505494505"></rect></g><g class="bar" transform="translate(299.00000000000006,172.3736263736264)"><rect x="1" width="11.999999999999996" height="137.6263736263736"></rect></g><g class="bar" transform="translate(312.00000000000006,211.2087912087912)"><rect x="1" width="11.999999999999996" height="98.79120879120879"></rect></g><g class="bar" transform="translate(325,260.2637362637363)"><rect x="1" width="11.999999999999996" height="49.73626373626371"></rect></g><g class="bar" transform="translate(338,269.1208791208791)"><rect x="1" width="11.999999999999996" height="40.879120879120876"></rect></g><g class="bar" transform="translate(351,286.83516483516485)"><rect x="1" width="11.999999999999996" height="23.164835164835154"></rect></g><g class="bar" transform="translate(364.00000000000006,296.3736263736264)"><rect x="1" width="11.999999999999996" height="13.626373626373606"></rect></g><g class="bar" transform="translate(377.00000000000006,304.54945054945057)"><rect x="1" width="11.999999999999996" height="5.450549450549431"></rect></g><g class="bar" transform="translate(390,307.95604395604397)"><rect x="1" width="11.999999999999996" height="2.0439560439560296"></rect></g><g class="bar" transform="translate(403,310)"><rect x="1" width="11.999999999999996" height="0"></rect></g><g class="bar" transform="translate(416,310)"><rect x="1" width="11.999999999999996" height="0"></rect></g><g class="bar" transform="translate(429.00000000000006,310)"><rect x="1" width="11.999999999999996" height="0"></rect></g><g class="bar" transform="translate(442.00000000000006,310)"><rect x="1" width="11.999999999999996" height="0"></rect></g><g class="bar" transform="translate(455,310)"><rect x="1" width="11.999999999999996" height="0"></rect></g><g class="bar" transform="translate(468,310)"><rect x="1" width="11.999999999999996" height="0"></rect></g><g class="bar" transform="translate(481,310)"><rect x="1" width="11.999999999999996" height="0"></rect></g><g class="bar" transform="translate(494.00000000000006,310)"><rect x="1" width="11.999999999999996" height="0"></rect></g><g class="bar" transform="translate(507.00000000000006,310)"><rect x="1" width="11.999999999999996" height="0"></rect></g><g class="axis axis--x" transform="translate(0,310)" fill="none" font-size="10" font-family="sans-serif" text-anchor="middle"><path class="domain" stroke="#000" d="M0.5,6V0.5H520.5V6"></path><g class="tick" opacity="1" transform="translate(0.5,0)"><line stroke="#000" y2="6"></line><text fill="#000" y="9" dy="0.71em">0.01</text></g><g class="tick" opacity="1" transform="translate(130.5,0)"><line stroke="#000" y2="6"></line><text fill="#000" y="9" dy="0.71em">1</text></g><g class="tick" opacity="1" transform="translate(260.5,0)"><line stroke="#000" y2="6"></line><text fill="#000" y="9" dy="0.71em">100</text></g><g class="tick" opacity="1" transform="translate(390.5,0)"><line stroke="#000" y2="6"></line><text fill="#000" y="9" dy="0.71em">10000</text></g><g class="tick" opacity="1" transform="translate(520.5,0)"><line stroke="#000" y2="6"></line><text fill="#000" y="9" dy="0.71em"></text></g></g><g class="axis axis--y" fill="none" font-size="10" font-family="sans-serif" text-anchor="end"><path class="domain" stroke="#000" d="M-6,310.5H0.5V0.5H-6"></path><g class="tick" opacity="1" transform="translate(0,310.5)"><line stroke="#000" x2="-6"></line><text fill="#000" x="-9" dy="0.32em">0</text></g><g class="tick" opacity="1" transform="translate(0,276.4340659340659)"><line stroke="#000" x2="-6"></line><text fill="#000" x="-9" dy="0.32em">50</text></g><g class="tick" opacity="1" transform="translate(0,242.36813186813185)"><line stroke="#000" x2="-6"></line><text fill="#000" x="-9" dy="0.32em">100</text></g><g class="tick" opacity="1" transform="translate(0,208.3021978021978)"><line stroke="#000" x2="-6"></line><text fill="#000" x="-9" dy="0.32em">150</text></g><g class="tick" opacity="1" transform="translate(0,174.23626373626374)"><line stroke="#000" x2="-6"></line><text fill="#000" x="-9" dy="0.32em">200</text></g><g class="tick" opacity="1" transform="translate(0,140.17032967032966)"><line stroke="#000" x2="-6"></line><text fill="#000" x="-9" dy="0.32em">250</text></g><g class="tick" opacity="1" transform="translate(0,106.10439560439562)"><line stroke="#000" x2="-6"></line><text fill="#000" x="-9" dy="0.32em">300</text></g><g class="tick" opacity="1" transform="translate(0,72.03846153846152)"><line stroke="#000" x2="-6"></line><text fill="#000" x="-9" dy="0.32em">350</text></g><g class="tick" opacity="1" transform="translate(0,37.972527472527474)"><line stroke="#000" x2="-6"></line><text fill="#000" x="-9" dy="0.32em">400</text></g><g class="tick" opacity="1" transform="translate(0,3.9065934065934016)"><line stroke="#000" x2="-6"></line><text fill="#000" x="-9" dy="0.32em">450</text></g></g></g></svg>