<svg xmlns="http://www.w3.org/2000/svg" width="280" height="160"><defs><style type="text/css"><![CDATA[ 
.bar rect {
  fill-opacity: 0;
  stroke:       black;
  stroke-width: 0.5;
}

.highlight rect {
  fill:       red;
  fill-opacity: 1;
}
.axis path,
.axis line {
  fill: none;
  stroke: #000;
  shape-rendering: crispEdges;
}
path {
    stroke: red;
    fill: none;
}

line {
    stroke: red;
}

path.marker {
    fill: red;
}
 ]]></style></defs><g transform="translate(50,10)"><g class="bar" transform="translate(0,120)"><rect x="1" width="11.5" height="0"></rect></g><g class="bar" transform="translate(12.5,120)"><rect x="1" width="11.5" height="0"></rect></g><g class="bar" transform="translate(25,117.19745222929936)"><rect x="1" width="11.5" height="2.8025477707006416"></rect></g><g class="bar" transform="translate(37.5,118.47133757961784)"><rect x="1" width="11.5" height="1.5286624203821617"></rect></g><g class="bar" transform="translate(50,108.02547770700637)"><rect x="1" width="11.5" height="11.974522292993626"></rect></g><g class="bar" transform="translate(62.5,84.5859872611465)"><rect x="1" width="11.5" height="35.4140127388535"></rect></g><g class="bar" transform="translate(75,35.92356687898089)"><rect x="1" width="11.5" height="84.07643312101911"></rect></g><g class="bar" transform="translate(87.5,0)"><rect x="1" width="11.5" height="120"></rect></g><g class="bar" transform="translate(100,12.99363057324841)"><rect x="1" width="11.5" height="107.00636942675159"></rect></g><g class="bar" transform="translate(112.5,49.93630573248407)"><rect x="1" width="11.5" height="70.06369426751593"></rect></g><g class="bar" transform="translate(125,93.2484076433121)"><rect x="1" width="11.5" height="26.751592356687894"></rect></g><g class="bar" transform="translate(137.5,114.14012738853503)"><rect x="1" width="11.5" height="5.859872611464965"></rect></g><g class="bar" transform="translate(150,118.47133757961784)"><rect x="1" width="11.5" height="1.5286624203821617"></rect></g><g class="bar" transform="translate(162.5,118.98089171974522)"><rect x="1" width="11.5" height="1.019108280254784"></rect></g><g class="bar" transform="translate(175,119.7452229299363)"><rect x="1" width="11.5" height="0.254777070063696"></rect></g><g class="bar" transform="translate(187.5,120)"><rect x="1" width="11.5" height="0"></rect></g></g></svg>