<svg xmlns="http://www.w3.org/2000/svg" width="600" height="350"><defs><style type="text/css"><![CDATA[ 
.bar rect {
  fill-opacity: 0;
  stroke:       black;
  stroke-width: 0.5;
}

.highlight rect {
  fill:       red;
  fill-opacity: 1;
}
.axis path,
.axis line {
  fill: none;
  stroke: #000;
  shape-rendering: crispEdges;
}
 ]]></style></defs><g transform="translate(50,10)"><g class="bar" transform="translate(0,307.87185354691076)"><rect x="1" width="11.999999999999996" height="2.1281464530892436"></rect></g><g class="bar" transform="translate(12.999999999999996,309.29061784897027)"><rect x="1" width="11.999999999999996" height="0.7093821510297289"></rect></g><g class="bar" transform="translate(25.999999999999993,309.29061784897027)"><rect x="1" width="11.999999999999996" height="0.7093821510297289"></rect></g><g class="bar" transform="translate(39.00000000000001,307.162471395881)"><rect x="1" width="11.999999999999996" height="2.8375286041189725"></rect></g><g class="bar" transform="translate(52,299.3592677345538)"><rect x="1" width="11.999999999999996" height="10.640732265446218"></rect></g><g class="bar" transform="translate(65,296.5217391304348)"><rect x="1" width="11.999999999999996" height="13.47826086956519"></rect></g><g class="bar" transform="translate(78.00000000000001,289.4279176201373)"><rect x="1" width="11.999999999999996" height="20.572082379862707"></rect></g><g class="bar" transform="translate(91.00000000000001,257.50572082379864)"><rect x="1" width="11.999999999999996" height="52.49427917620136"></rect></g><g class="bar" transform="translate(104,248.2837528604119)"><rect x="1" width="11.999999999999996" height="61.71624713958809"></rect></g><g class="bar" transform="translate(117,207.84897025171625)"><rect x="1" width="11.999999999999996" height="102.15102974828375"></rect></g><g class="bar" transform="translate(130,118.46681922196797)"><rect x="1" width="11.999999999999996" height="191.53318077803203"></rect></g><g class="bar" transform="translate(143,102.15102974828378)"><rect x="1" width="11.999999999999996" height="207.84897025171622"></rect></g><g class="bar" transform="translate(156.00000000000003,74.48512585812358)"><rect x="1" width="11.999999999999996" height="235.51487414187642"></rect></g><g class="bar" transform="translate(169,29.79405034324941)"><rect x="1" width="11.999999999999996" height="280.2059496567506"></rect></g><g class="bar" transform="translate(182.00000000000003,8.512585812356974)"><rect x="1" width="11.999999999999996" height="301.487414187643"></rect></g><g class="bar" transform="translate(195,14.897025171624705)"><rect x="1" width="11.999999999999996" height="295.1029748283753"></rect></g><g class="bar" transform="translate(208,0)"><rect x="1" width="11.999999999999996" height="310"></rect></g><g class="bar" transform="translate(221.00000000000003,30.503432494279195)"><rect x="1" width="11.999999999999996" height="279.4965675057208"></rect></g><g class="bar" transform="translate(234,62.42562929061785)"><rect x="1" width="11.999999999999996" height="247.57437070938215"></rect></g><g class="bar" transform="translate(247.00000000000003,79.4508009153318)"><rect x="1" width="11.999999999999996" height="230.5491990846682"></rect></g><g class="bar" transform="translate(260,122.0137299771167)"><rect x="1" width="11.999999999999996" height="187.9862700228833"></rect></g><g class="bar" transform="translate(273,146.13272311212816)"><rect x="1" width="11.999999999999996" height="163.86727688787184"></rect></g><g class="bar" transform="translate(286,192.2425629290618)"><rect x="1" width="11.999999999999996" height="117.75743707093821"></rect></g><g class="bar" transform="translate(299.00000000000006,207.13958810068652)"><rect x="1" width="11.999999999999996" height="102.86041189931348"></rect></g><g class="bar" transform="translate(312.00000000000006,236.22425629290618)"><rect x="1" width="11.999999999999996" height="73.77574370709382"></rect></g><g class="bar" transform="translate(325,268.8558352402746)"><rect x="1" width="11.999999999999996" height="41.14416475972541"></rect></g><g class="bar" transform="translate(338,274.5308924485126)"><rect x="1" width="11.999999999999996" height="35.46910755148741"></rect></g><g class="bar" transform="translate(351,285.88100686498854)"><rect x="1" width="11.999999999999996" height="24.118993135011465"></rect></g><g class="bar" transform="translate(364.00000000000006,294.3935926773455)"><rect x="1" width="11.999999999999996" height="15.60640732265449"></rect></g><g class="bar" transform="translate(377.00000000000006,305.7437070938215)"><rect x="1" width="11.999999999999996" height="4.256292906178487"></rect></g><g class="bar" transform="translate(390,307.162471395881)"><rect x="1" width="11.999999999999996" height="2.8375286041189725"></rect></g><g class="bar" transform="translate(403,307.87185354691076)"><rect x="1" width="11.999999999999996" height="2.1281464530892436"></rect></g><g class="bar" transform="translate(416,307.87185354691076)"><rect x="1" width="11.999999999999996" height="2.1281464530892436"></rect></g><g class="bar" transform="translate(429.00000000000006,310)"><rect x="1" width="11.999999999999996" height="0"></rect></g><g class="bar" transform="translate(442.00000000000006,310)"><rect x="1" width="11.999999999999996" height="0"></rect></g><g class="bar" transform="translate(455,310)"><rect x="1" width="11.999999999999996" height="0"></rect></g><g class="bar" transform="translate(468,310)"><rect x="1" width="11.999999999999996" height="0"></rect></g><g class="bar" transform="translate(481,310)"><rect x="1" width="11.999999999999996" height="0"></rect></g><g class="bar" transform="translate(494.00000000000006,310)"><rect x="1" width="11.999999999999996" height="0"></rect></g><g class="bar" transform="translate(507.00000000000006,310)"><rect x="1" width="11.999999999999996" height="0"></rect></g><g class="axis axis--x" transform="translate(0,310)" fill="none" font-size="10" font-family="sans-serif" text-anchor="middle"><path class="domain" stroke="#000" d="M0.5,6V0.5H520.5V6"></path><g class="tick" opacity="1" transform="translate(0,0)"><line stroke="#000" y2="6" x1="0.5" x2="0.5"></line><text fill="#000" y="9" x="0.5" dy="0.71em">0.01</text></g><g class="tick" opacity="1" transform="translate(130,0)"><line stroke="#000" y2="6" x1="0.5" x2="0.5"></line><text fill="#000" y="9" x="0.5" dy="0.71em">1</text></g><g class="tick" opacity="1" transform="translate(260,0)"><line stroke="#000" y2="6" x1="0.5" x2="0.5"></line><text fill="#000" y="9" x="0.5" dy="0.71em">100</text></g><g class="tick" opacity="1" transform="translate(390,0)"><line stroke="#000" y2="6" x1="0.5" x2="0.5"></line><text fill="#000" y="9" x="0.5" dy="0.71em">10000</text></g><g class="tick" opacity="1" transform="translate(520,0)"><line stroke="#000" y2="6" x1="0.5" x2="0.5"></line><text fill="#000" y="9" x="0.5" dy="0.71em"></text></g></g><g class="axis axis--y" fill="none" font-size="10" font-family="sans-serif" text-anchor="end"><path class="domain" stroke="#000" d="M-6,310.5H0.5V0.5H-6"></path><g class="tick" opacity="1" transform="translate(0,310)"><line stroke="#000" x2="-6" y1="0.5" y2="0.5"></line><text fill="#000" x="-9" y="0.5" dy="0.32em">0</text></g><g class="tick" opacity="1" transform="translate(0,274.5308924485126)"><line stroke="#000" x2="-6" y1="0.5" y2="0.5"></line><text fill="#000" x="-9" y="0.5" dy="0.32em">50</text></g><g class="tick" opacity="1" transform="translate(0,239.06178489702518)"><line stroke="#000" x2="-6" y1="0.5" y2="0.5"></line><text fill="#000" x="-9" y="0.5" dy="0.32em">100</text></g><g class="tick" opacity="1" transform="translate(0,203.59267734553777)"><line stroke="#000" x2="-6" y1="0.5" y2="0.5"></line><text fill="#000" x="-9" y="0.5" dy="0.32em">150</text></g><g class="tick" opacity="1" transform="translate(0,168.12356979405033)"><line stroke="#000" x2="-6" y1="0.5" y2="0.5"></line><text fill="#000" x="-9" y="0.5" dy="0.32em">200</text></g><g class="tick" opacity="1" transform="translate(0,132.65446224256291)"><line stroke="#000" x2="-6" y1="0.5" y2="0.5"></line><text fill="#000" x="-9" y="0.5" dy="0.32em">250</text></g><g class="tick" opacity="1" transform="translate(0,97.1853546910755)"><line stroke="#000" x2="-6" y1="0.5" y2="0.5"></line><text fill="#000" x="-9" y="0.5" dy="0.32em">300</text></g><g class="tick" opacity="1" transform="translate(0,61.71624713958812)"><line stroke="#000" x2="-6" y1="0.5" y2="0.5"></line><text fill="#000" x="-9" y="0.5" dy="0.32em">350</text></g><g class="tick" opacity="1" transform="translate(0,26.24713958810065)"><line stroke="#000" x2="-6" y1="0.5" y2="0.5"></line><text fill="#000" x="-9" y="0.5" dy="0.32em">400</text></g></g></g></svg>