<svg xmlns="http://www.w3.org/2000/svg" width="600" height="350"><defs><style type="text/css"><![CDATA[ 
.bar rect {
  fill-opacity: 0;
  stroke:       black;
  stroke-width: 0.5;
}

.highlight rect {
  fill:       red;
  fill-opacity: 1;
}
.axis path,
.axis line {
  fill: none;
  stroke: #000;
  shape-rendering: crispEdges;
}
path {
    stroke: red;
    fill: none;
}

line {
    stroke: red;
}

path.marker {
    fill: red;
}
 ]]></style></defs><g transform="translate(50,10)"><g class="bar" transform="translate(0,310)"><rect x="1" width="11.999999999999996" height="0"></rect></g><g class="bar" transform="translate(12.999999999999996,310)"><rect x="1" width="11.999999999999996" height="0"></rect></g><g class="bar" transform="translate(25.999999999999993,310)"><rect x="1" width="11.999999999999996" height="0"></rect></g><g class="bar" transform="translate(39.00000000000001,310)"><rect x="1" width="11.999999999999996" height="0"></rect></g><g class="bar" transform="translate(52,310)"><rect x="1" width="11.999999999999996" height="0"></rect></g><g class="bar" transform="translate(65,309.36213991769546)"><rect x="1" width="11.999999999999996" height="0.6378600823045417"></rect></g><g class="bar" transform="translate(78.00000000000001,309.36213991769546)"><rect x="1" width="11.999999999999996" height="0.6378600823045417"></rect></g><g class="bar" transform="translate(91.00000000000001,300.4320987654321)"><rect x="1" width="11.999999999999996" height="9.567901234567898"></rect></g><g class="bar" transform="translate(104,302.9835390946502)"><rect x="1" width="11.999999999999996" height="7.016460905349788"></rect></g><g class="bar" transform="translate(117,284.48559670781896)"><rect x="1" width="11.999999999999996" height="25.514403292181044"></rect></g><g class="bar" transform="translate(130,281.2962962962963)"><rect x="1" width="11.999999999999996" height="28.703703703703695"></rect></g><g class="bar" transform="translate(143,260.24691358024694)"><rect x="1" width="11.999999999999996" height="49.75308641975306"></rect></g><g class="bar" transform="translate(156.00000000000003,203.47736625514403)"><rect x="1" width="11.999999999999996" height="106.52263374485597"></rect></g><g class="bar" transform="translate(169,180.51440329218107)"><rect x="1" width="11.999999999999996" height="129.48559670781893"></rect></g><g class="bar" transform="translate(182.00000000000003,132.03703703703704)"><rect x="1" width="11.999999999999996" height="177.96296296296296"></rect></g><g class="bar" transform="translate(195,76.54320987654322)"><rect x="1" width="11.999999999999996" height="233.45679012345678"></rect></g><g class="bar" transform="translate(208,64.42386831275721)"><rect x="1" width="11.999999999999996" height="245.5761316872428"></rect></g><g class="bar" transform="translate(221.00000000000003,13.395061728395035)"><rect x="1" width="11.999999999999996" height="296.60493827160496"></rect></g><g class="bar" transform="translate(234,29.341563786008237)"><rect x="1" width="11.999999999999996" height="280.65843621399176"></rect></g><g class="bar" transform="translate(247.00000000000003,21.687242798353907)"><rect x="1" width="11.999999999999996" height="288.3127572016461"></rect></g><g class="bar" transform="translate(260,0)"><rect x="1" width="11.999999999999996" height="310"></rect></g><g class="bar" transform="translate(273,83.55967078189303)"><rect x="1" width="11.999999999999996" height="226.44032921810697"></rect></g><g class="bar" transform="translate(286,133.3127572016461)"><rect x="1" width="11.999999999999996" height="176.6872427983539"></rect></g><g class="bar" transform="translate(299.00000000000006,188.80658436213992)"><rect x="1" width="11.999999999999996" height="121.19341563786008"></rect></g><g class="bar" transform="translate(312.00000000000006,242.38683127572017)"><rect x="1" width="11.999999999999996" height="67.61316872427983"></rect></g><g class="bar" transform="translate(325,265.3497942386831)"><rect x="1" width="11.999999999999996" height="44.6502057613169"></rect></g><g class="bar" transform="translate(338,280.0205761316872)"><rect x="1" width="11.999999999999996" height="29.97942386831278"></rect></g><g class="bar" transform="translate(351,294.05349794238685)"><rect x="1" width="11.999999999999996" height="15.946502057613145"></rect></g><g class="bar" transform="translate(364.00000000000006,307.4485596707819)"><rect x="1" width="11.999999999999996" height="2.55144032921811"></rect></g><g class="bar" transform="translate(377.00000000000006,306.17283950617286)"><rect x="1" width="11.999999999999996" height="3.8271604938271366"></rect></g><g class="bar" transform="translate(390,306.81069958847735)"><rect x="1" width="11.999999999999996" height="3.1893004115226518"></rect></g><g class="bar" transform="translate(403,307.4485596707819)"><rect x="1" width="11.999999999999996" height="2.55144032921811"></rect></g><g class="bar" transform="translate(416,308.724279835391)"><rect x="1" width="11.999999999999996" height="1.2757201646090266"></rect></g><g class="bar" transform="translate(429.00000000000006,310)"><rect x="1" width="11.999999999999996" height="0"></rect></g><g class="bar" transform="translate(442.00000000000006,310)"><rect x="1" width="11.999999999999996" height="0"></rect></g><g class="bar" transform="translate(455,310)"><rect x="1" width="11.999999999999996" height="0"></rect></g><g class="bar" transform="translate(468,310)"><rect x="1" width="11.999999999999996" height="0"></rect></g><g class="bar" transform="translate(481,310)"><rect x="1" width="11.999999999999996" height="0"></rect></g><g class="bar" transform="translate(494.00000000000006,310)"><rect x="1" width="11.999999999999996" height="0"></rect></g><g class="bar" transform="translate(507.00000000000006,310)"><rect x="1" width="11.999999999999996" height="0"></rect></g><g class="axis axis--x" transform="translate(0,310)" fill="none" font-size="10" font-family="sans-serif" text-anchor="middle"><path class="domain" stroke="#000" d="M0.5,6V0.5H520.5V6"></path><g class="tick" opacity="1" transform="translate(0.5,0)"><line stroke="#000" y2="6"></line><text fill="#000" y="9" dy="0.71em">0.01</text></g><g class="tick" opacity="1" transform="translate(130.5,0)"><line stroke="#000" y2="6"></line><text fill="#000" y="9" dy="0.71em">1</text></g><g class="tick" opacity="1" transform="translate(260.5,0)"><line stroke="#000" y2="6"></line><text fill="#000" y="9" dy="0.71em">100</text></g><g class="tick" opacity="1" transform="translate(390.5,0)"><line stroke="#000" y2="6"></line><text fill="#000" y="9" dy="0.71em">10000</text></g><g class="tick" opacity="1" transform="translate(520.5,0)"><line stroke="#000" y2="6"></line><text fill="#000" y="9" dy="0.71em"></text></g></g><g class="axis axis--y" fill="none" font-size="10" font-family="sans-serif" text-anchor="end"><path class="domain" stroke="#000" d="M-6,310.5H0.5V0.5H-6"></path><g class="tick" opacity="1" transform="translate(0,310.5)"><line stroke="#000" x2="-6"></line><text fill="#000" x="-9" dy="0.32em">0</text></g><g class="tick" opacity="1" transform="translate(0,278.60699588477365)"><line stroke="#000" x2="-6"></line><text fill="#000" x="-9" dy="0.32em">50</text></g><g class="tick" opacity="1" transform="translate(0,246.7139917695473)"><line stroke="#000" x2="-6"></line><text fill="#000" x="-9" dy="0.32em">100</text></g><g class="tick" opacity="1" transform="translate(0,214.820987654321)"><line stroke="#000" x2="-6"></line><text fill="#000" x="-9" dy="0.32em">150</text></g><g class="tick" opacity="1" transform="translate(0,182.92798353909464)"><line stroke="#000" x2="-6"></line><text fill="#000" x="-9" dy="0.32em">200</text></g><g class="tick" opacity="1" transform="translate(0,151.03497942386832)"><line stroke="#000" x2="-6"></line><text fill="#000" x="-9" dy="0.32em">250</text></g><g class="tick" opacity="1" transform="translate(0,119.14197530864197)"><line stroke="#000" x2="-6"></line><text fill="#000" x="-9" dy="0.32em">300</text></g><g class="tick" opacity="1" transform="translate(0,87.24897119341563)"><line stroke="#000" x2="-6"></line><text fill="#000" x="-9" dy="0.32em">350</text></g><g class="tick" opacity="1" transform="translate(0,55.35596707818928)"><line stroke="#000" x2="-6"></line><text fill="#000" x="-9" dy="0.32em">400</text></g><g class="tick" opacity="1" transform="translate(0,23.462962962962933)"><line stroke="#000" x2="-6"></line><text fill="#000" x="-9" dy="0.32em">450</text></g></g></g></svg>