<svg xmlns="http://www.w3.org/2000/svg" width="600" height="350"><defs><style type="text/css"><![CDATA[ 
.bar rect {
  fill-opacity: 0;
  stroke:       black;
  stroke-width: 0.5;
}

.highlight rect {
  fill:       red;
  fill-opacity: 1;
}
.axis path,
.axis line {
  fill: none;
  stroke: #000;
  shape-rendering: crispEdges;
}
 ]]></style></defs><g transform="translate(50,10)"><g class="bar" transform="translate(0,310)"><rect x="1" width="11.999999999999996" height="0"></rect></g><g class="bar" transform="translate(12.999999999999996,310)"><rect x="1" width="11.999999999999996" height="0"></rect></g><g class="bar" transform="translate(25.999999999999993,310)"><rect x="1" width="11.999999999999996" height="0"></rect></g><g class="bar" transform="translate(39.00000000000001,309.1364902506964)"><rect x="1" width="11.999999999999996" height="0.8635097493036028"></rect></g><g class="bar" transform="translate(52,310)"><rect x="1" width="11.999999999999996" height="0"></rect></g><g class="bar" transform="translate(65,303.091922005571)"><rect x="1" width="11.999999999999996" height="6.908077994428993"></rect></g><g class="bar" transform="translate(78.00000000000001,296.18384401114207)"><rect x="1" width="11.999999999999996" height="13.816155988857929"></rect></g><g class="bar" transform="translate(91.00000000000001,300.50139275766014)"><rect x="1" width="11.999999999999996" height="9.498607242339858"></rect></g><g class="bar" transform="translate(104,273.7325905292479)"><rect x="1" width="11.999999999999996" height="36.26740947075211"></rect></g><g class="bar" transform="translate(117,282.36768802228414)"><rect x="1" width="11.999999999999996" height="27.632311977715858"></rect></g><g class="bar" transform="translate(130,272.8690807799443)"><rect x="1" width="11.999999999999996" height="37.130919220055716"></rect></g><g class="bar" transform="translate(143,236.6016713091922)"><rect x="1" width="11.999999999999996" height="73.3983286908078"></rect></g><g class="bar" transform="translate(156.00000000000003,196.01671309192199)"><rect x="1" width="11.999999999999996" height="113.98328690807801"></rect></g><g class="bar" transform="translate(169,172.70194986072426)"><rect x="1" width="11.999999999999996" height="137.29805013927574"></rect></g><g class="bar" transform="translate(182.00000000000003,131.25348189415044)"><rect x="1" width="11.999999999999996" height="178.74651810584956"></rect></g><g class="bar" transform="translate(195,85.48746518105852)"><rect x="1" width="11.999999999999996" height="224.51253481894148"></rect></g><g class="bar" transform="translate(208,61.309192200557106)"><rect x="1" width="11.999999999999996" height="248.6908077994429"></rect></g><g class="bar" transform="translate(221.00000000000003,27.632311977715858)"><rect x="1" width="11.999999999999996" height="282.36768802228414"></rect></g><g class="bar" transform="translate(234,0)"><rect x="1" width="11.999999999999996" height="310"></rect></g><g class="bar" transform="translate(247.00000000000003,17.270194986072454)"><rect x="1" width="11.999999999999996" height="292.72980501392755"></rect></g><g class="bar" transform="translate(260,57.85515320334261)"><rect x="1" width="11.999999999999996" height="252.1448467966574"></rect></g><g class="bar" transform="translate(273,75.98885793871864)"><rect x="1" width="11.999999999999996" height="234.01114206128136"></rect></g><g class="bar" transform="translate(286,121.75487465181058)"><rect x="1" width="11.999999999999996" height="188.24512534818942"></rect></g><g class="bar" transform="translate(299.00000000000006,143.3426183844011)"><rect x="1" width="11.999999999999996" height="166.6573816155989"></rect></g><g class="bar" transform="translate(312.00000000000006,193.42618384401115)"><rect x="1" width="11.999999999999996" height="116.57381615598885"></rect></g><g class="bar" transform="translate(325,240.9192200557103)"><rect x="1" width="11.999999999999996" height="69.0807799442897"></rect></g><g class="bar" transform="translate(338,262.5069637883008)"><rect x="1" width="11.999999999999996" height="47.49303621169918"></rect></g><g class="bar" transform="translate(351,285.8217270194986)"><rect x="1" width="11.999999999999996" height="24.17827298050139"></rect></g><g class="bar" transform="translate(364.00000000000006,297.0473537604457)"><rect x="1" width="11.999999999999996" height="12.952646239554326"></rect></g><g class="bar" transform="translate(377.00000000000006,302.2284122562674)"><rect x="1" width="11.999999999999996" height="7.771587743732596"></rect></g><g class="bar" transform="translate(390,306.54596100278553)"><rect x="1" width="11.999999999999996" height="3.454038997214468"></rect></g><g class="bar" transform="translate(403,306.54596100278553)"><rect x="1" width="11.999999999999996" height="3.454038997214468"></rect></g><g class="bar" transform="translate(416,310)"><rect x="1" width="11.999999999999996" height="0"></rect></g><g class="bar" transform="translate(429.00000000000006,310)"><rect x="1" width="11.999999999999996" height="0"></rect></g><g class="bar" transform="translate(442.00000000000006,310)"><rect x="1" width="11.999999999999996" height="0"></rect></g><g class="bar" transform="translate(455,310)"><rect x="1" width="11.999999999999996" height="0"></rect></g><g class="bar" transform="translate(468,310)"><rect x="1" width="11.999999999999996" height="0"></rect></g><g class="bar" transform="translate(481,310)"><rect x="1" width="11.999999999999996" height="0"></rect></g><g class="bar" transform="translate(494.00000000000006,310)"><rect x="1" width="11.999999999999996" height="0"></rect></g><g class="bar" transform="translate(507.00000000000006,310)"><rect x="1" width="11.999999999999996" height="0"></rect></g><g class="axis axis--x" transform="translate(0,310)" fill="none" font-size="10" font-family="sans-serif" text-anchor="middle"><path class="domain" stroke="#000" d="M0.5,6V0.5H520.5V6"></path><g class="tick" opacity="1" transform="translate(0,0)"><line stroke="#000" y2="6" x1="0.5" x2="0.5"></line><text fill="#000" y="9" x="0.5" dy="0.71em">0.01</text></g><g class="tick" opacity="1" transform="translate(130,0)"><line stroke="#000" y2="6" x1="0.5" x2="0.5"></line><text fill="#000" y="9" x="0.5" dy="0.71em">1</text></g><g class="tick" opacity="1" transform="translate(260,0)"><line stroke="#000" y2="6" x1="0.5" x2="0.5"></line><text fill="#000" y="9" x="0.5" dy="0.71em">100</text></g><g class="tick" opacity="1" transform="translate(390,0)"><line stroke="#000" y2="6" x1="0.5" x2="0.5"></line><text fill="#000" y="9" x="0.5" dy="0.71em">10000</text></g><g class="tick" opacity="1" transform="translate(520,0)"><line stroke="#000" y2="6" x1="0.5" x2="0.5"></line><text fill="#000" y="9" x="0.5" dy="0.71em"></text></g></g><g class="axis axis--y" fill="none" font-size="10" font-family="sans-serif" text-anchor="end"><path class="domain" stroke="#000" d="M-6,310.5H0.5V0.5H-6"></path><g class="tick" opacity="1" transform="translate(0,310)"><line stroke="#000" x2="-6" y1="0.5" y2="0.5"></line><text fill="#000" x="-9" y="0.5" dy="0.32em">0</text></g><g class="tick" opacity="1" transform="translate(0,266.82451253481895)"><line stroke="#000" x2="-6" y1="0.5" y2="0.5"></line><text fill="#000" x="-9" y="0.5" dy="0.32em">50</text></g><g class="tick" opacity="1" transform="translate(0,223.64902506963787)"><line stroke="#000" x2="-6" y1="0.5" y2="0.5"></line><text fill="#000" x="-9" y="0.5" dy="0.32em">100</text></g><g class="tick" opacity="1" transform="translate(0,180.47353760445682)"><line stroke="#000" x2="-6" y1="0.5" y2="0.5"></line><text fill="#000" x="-9" y="0.5" dy="0.32em">150</text></g><g class="tick" opacity="1" transform="translate(0,137.29805013927574)"><line stroke="#000" x2="-6" y1="0.5" y2="0.5"></line><text fill="#000" x="-9" y="0.5" dy="0.32em">200</text></g><g class="tick" opacity="1" transform="translate(0,94.1225626740947)"><line stroke="#000" x2="-6" y1="0.5" y2="0.5"></line><text fill="#000" x="-9" y="0.5" dy="0.32em">250</text></g><g class="tick" opacity="1" transform="translate(0,50.947075208913645)"><line stroke="#000" x2="-6" y1="0.5" y2="0.5"></line><text fill="#000" x="-9" y="0.5" dy="0.32em">300</text></g><g class="tick" opacity="1" transform="translate(0,7.771587743732596)"><line stroke="#000" x2="-6" y1="0.5" y2="0.5"></line><text fill="#000" x="-9" y="0.5" dy="0.32em">350</text></g></g></g></svg>