<svg xmlns="http://www.w3.org/2000/svg" width="280" height="160"><defs><style type="text/css"><![CDATA[ 
.bar rect {
  fill-opacity: 0;
  stroke:       black;
  stroke-width: 0.5;
}

.highlight rect {
  fill:       red;
  fill-opacity: 1;
}
.axis path,
.axis line {
  fill: none;
  stroke: #000;
  shape-rendering: crispEdges;
}
 ]]></style></defs><g transform="translate(50,10)"><g class="bar" transform="translate(0,120)"><rect x="1" width="11.5" height="0"></rect></g><g class="bar" transform="translate(12.5,120)"><rect x="1" width="11.5" height="0"></rect></g><g class="bar" transform="translate(25,119.73254086181278)"><rect x="1" width="11.5" height="0.26745913818722045"></rect></g><g class="bar" transform="translate(37.5,117.94947994056463)"><rect x="1" width="11.5" height="2.050520059435371"></rect></g><g class="bar" transform="translate(50,91.64933135215453)"><rect x="1" width="11.5" height="28.350668647845467"></rect></g><g class="bar" transform="translate(62.5,33.96731054977711)"><rect x="1" width="11.5" height="86.03268945022289"></rect></g><g class="bar" transform="translate(75,0)"><rect x="1" width="11.5" height="120"></rect></g><g class="bar" transform="translate(87.5,16.13670133729569)"><rect x="1" width="11.5" height="103.86329866270431"></rect></g><g class="bar" transform="translate(100,45.913818722139666)"><rect x="1" width="11.5" height="74.08618127786033"></rect></g><g class="bar" transform="translate(112.5,84.87369985141159)"><rect x="1" width="11.5" height="35.12630014858841"></rect></g><g class="bar" transform="translate(125,108.49925705794948)"><rect x="1" width="11.5" height="11.500742942050522"></rect></g><g class="bar" transform="translate(137.5,116.79049034175334)"><rect x="1" width="11.5" height="3.2095096582466596"></rect></g><g class="bar" transform="translate(150,119.64338781575037)"><rect x="1" width="11.5" height="0.35661218424962726"></rect></g><g class="bar" transform="translate(162.5,119.9108469539376)"><rect x="1" width="11.5" height="0.08915304606240682"></rect></g><g class="bar" transform="translate(175,120)"><rect x="1" width="11.5" height="0"></rect></g><g class="bar" transform="translate(187.5,120)"><rect x="1" width="11.5" height="0"></rect></g></g></svg>