<svg xmlns="http://www.w3.org/2000/svg" width="600" height="350"><defs><style type="text/css"><![CDATA[ 
.bar rect {
  fill-opacity: 0;
  stroke:       black;
  stroke-width: 0.5;
}

.highlight rect {
  fill:       red;
  fill-opacity: 1;
}
.axis path,
.axis line {
  fill: none;
  stroke: #000;
  shape-rendering: crispEdges;
}
 ]]></style></defs><g transform="translate(50,10)"><g class="bar" transform="translate(0,310)"><rect x="1" width="11.999999999999996" height="0"></rect></g><g class="bar" transform="translate(12.999999999999996,310)"><rect x="1" width="11.999999999999996" height="0"></rect></g><g class="bar" transform="translate(25.999999999999993,310)"><rect x="1" width="11.999999999999996" height="0"></rect></g><g class="bar" transform="translate(39.00000000000001,310)"><rect x="1" width="11.999999999999996" height="0"></rect></g><g class="bar" transform="translate(52,310)"><rect x="1" width="11.999999999999996" height="0"></rect></g><g class="bar" transform="translate(65,310)"><rect x="1" width="11.999999999999996" height="0"></rect></g><g class="bar" transform="translate(78.00000000000001,308.9141856392294)"><rect x="1" width="11.999999999999996" height="1.0858143607705983"></rect></g><g class="bar" transform="translate(91.00000000000001,308.9141856392294)"><rect x="1" width="11.999999999999996" height="1.0858143607705983"></rect></g><g class="bar" transform="translate(104,306.199649737303)"><rect x="1" width="11.999999999999996" height="3.800350262697009"></rect></g><g class="bar" transform="translate(117,301.85639229422065)"><rect x="1" width="11.999999999999996" height="8.143607705779345"></rect></g><g class="bar" transform="translate(130,280.1401050788091)"><rect x="1" width="11.999999999999996" height="29.859894921190914"></rect></g><g class="bar" transform="translate(143,231.8213660245184)"><rect x="1" width="11.999999999999996" height="78.1786339754816"></rect></g><g class="bar" transform="translate(156.00000000000003,168.8441330998249)"><rect x="1" width="11.999999999999996" height="141.1558669001751"></rect></g><g class="bar" transform="translate(169,110.21015761821366)"><rect x="1" width="11.999999999999996" height="199.78984238178634"></rect></g><g class="bar" transform="translate(182.00000000000003,62.43432574430824)"><rect x="1" width="11.999999999999996" height="247.56567425569176"></rect></g><g class="bar" transform="translate(195,36.91768826619966)"><rect x="1" width="11.999999999999996" height="273.08231173380034"></rect></g><g class="bar" transform="translate(208,0)"><rect x="1" width="11.999999999999996" height="310"></rect></g><g class="bar" transform="translate(221.00000000000003,25.516637478108578)"><rect x="1" width="11.999999999999996" height="284.4833625218914"></rect></g><g class="bar" transform="translate(234,62.43432574430824)"><rect x="1" width="11.999999999999996" height="247.56567425569176"></rect></g><g class="bar" transform="translate(247.00000000000003,61.89141856392294)"><rect x="1" width="11.999999999999996" height="248.10858143607706"></rect></g><g class="bar" transform="translate(260,84.69352014010508)"><rect x="1" width="11.999999999999996" height="225.30647985989492"></rect></g><g class="bar" transform="translate(273,151.4711033274956)"><rect x="1" width="11.999999999999996" height="158.5288966725044"></rect></g><g class="bar" transform="translate(286,180.24518388791594)"><rect x="1" width="11.999999999999996" height="129.75481611208406"></rect></g><g class="bar" transform="translate(299.00000000000006,223.13485113835378)"><rect x="1" width="11.999999999999996" height="86.86514886164622"></rect></g><g class="bar" transform="translate(312.00000000000006,245.39404553415062)"><rect x="1" width="11.999999999999996" height="64.60595446584938"></rect></g><g class="bar" transform="translate(325,273.08231173380034)"><rect x="1" width="11.999999999999996" height="36.91768826619966"></rect></g><g class="bar" transform="translate(338,286.1120840630473)"><rect x="1" width="11.999999999999996" height="23.88791593695271"></rect></g><g class="bar" transform="translate(351,295.3415061295972)"><rect x="1" width="11.999999999999996" height="14.658493870402822"></rect></g><g class="bar" transform="translate(364.00000000000006,301.3134851138354)"><rect x="1" width="11.999999999999996" height="8.686514886164616"></rect></g><g class="bar" transform="translate(377.00000000000006,304.5709281961471)"><rect x="1" width="11.999999999999996" height="5.429071803852878"></rect></g><g class="bar" transform="translate(390,308.9141856392294)"><rect x="1" width="11.999999999999996" height="1.0858143607705983"></rect></g><g class="bar" transform="translate(403,308.9141856392294)"><rect x="1" width="11.999999999999996" height="1.0858143607705983"></rect></g><g class="bar" transform="translate(416,310)"><rect x="1" width="11.999999999999996" height="0"></rect></g><g class="bar" transform="translate(429.00000000000006,309.45709281961473)"><rect x="1" width="11.999999999999996" height="0.5429071803852707"></rect></g><g class="bar" transform="translate(442.00000000000006,310)"><rect x="1" width="11.999999999999996" height="0"></rect></g><g class="bar" transform="translate(455,310)"><rect x="1" width="11.999999999999996" height="0"></rect></g><g class="bar" transform="translate(468,310)"><rect x="1" width="11.999999999999996" height="0"></rect></g><g class="bar" transform="translate(481,310)"><rect x="1" width="11.999999999999996" height="0"></rect></g><g class="bar" transform="translate(494.00000000000006,310)"><rect x="1" width="11.999999999999996" height="0"></rect></g><g class="bar" transform="translate(507.00000000000006,310)"><rect x="1" width="11.999999999999996" height="0"></rect></g><g class="axis axis--x" transform="translate(0,310)" fill="none" font-size="10" font-family="sans-serif" text-anchor="middle"><path class="domain" stroke="#000" d="M0.5,6V0.5H520.5V6"></path><g class="tick" opacity="1" transform="translate(0,0)"><line stroke="#000" y2="6" x1="0.5" x2="0.5"></line><text fill="#000" y="9" x="0.5" dy="0.71em">0.01</text></g><g class="tick" opacity="1" transform="translate(130,0)"><line stroke="#000" y2="6" x1="0.5" x2="0.5"></line><text fill="#000" y="9" x="0.5" dy="0.71em">1</text></g><g class="tick" opacity="1" transform="translate(260,0)"><line stroke="#000" y2="6" x1="0.5" x2="0.5"></line><text fill="#000" y="9" x="0.5" dy="0.71em">100</text></g><g class="tick" opacity="1" transform="translate(390,0)"><line stroke="#000" y2="6" x1="0.5" x2="0.5"></line><text fill="#000" y="9" x="0.5" dy="0.71em">10000</text></g><g class="tick" opacity="1" transform="translate(520,0)"><line stroke="#000" y2="6" x1="0.5" x2="0.5"></line><text fill="#000" y="9" x="0.5" dy="0.71em"></text></g></g><g class="axis axis--y" fill="none" font-size="10" font-family="sans-serif" text-anchor="end"><path class="domain" stroke="#000" d="M-6,310.5H0.5V0.5H-6"></path><g class="tick" opacity="1" transform="translate(0,310)"><line stroke="#000" x2="-6" y1="0.5" y2="0.5"></line><text fill="#000" x="-9" y="0.5" dy="0.32em">0</text></g><g class="tick" opacity="1" transform="translate(0,282.85464098073555)"><line stroke="#000" x2="-6" y1="0.5" y2="0.5"></line><text fill="#000" x="-9" y="0.5" dy="0.32em">50</text></g><g class="tick" opacity="1" transform="translate(0,255.7092819614711)"><line stroke="#000" x2="-6" y1="0.5" y2="0.5"></line><text fill="#000" x="-9" y="0.5" dy="0.32em">100</text></g><g class="tick" opacity="1" transform="translate(0,228.56392294220666)"><line stroke="#000" x2="-6" y1="0.5" y2="0.5"></line><text fill="#000" x="-9" y="0.5" dy="0.32em">150</text></g><g class="tick" opacity="1" transform="translate(0,201.4185639229422)"><line stroke="#000" x2="-6" y1="0.5" y2="0.5"></line><text fill="#000" x="-9" y="0.5" dy="0.32em">200</text></g><g class="tick" opacity="1" transform="translate(0,174.27320490367777)"><line stroke="#000" x2="-6" y1="0.5" y2="0.5"></line><text fill="#000" x="-9" y="0.5" dy="0.32em">250</text></g><g class="tick" opacity="1" transform="translate(0,147.12784588441332)"><line stroke="#000" x2="-6" y1="0.5" y2="0.5"></line><text fill="#000" x="-9" y="0.5" dy="0.32em">300</text></g><g class="tick" opacity="1" transform="translate(0,119.98248686514884)"><line stroke="#000" x2="-6" y1="0.5" y2="0.5"></line><text fill="#000" x="-9" y="0.5" dy="0.32em">350</text></g><g class="tick" opacity="1" transform="translate(0,92.83712784588442)"><line stroke="#000" x2="-6" y1="0.5" y2="0.5"></line><text fill="#000" x="-9" y="0.5" dy="0.32em">400</text></g><g class="tick" opacity="1" transform="translate(0,65.69176882661998)"><line stroke="#000" x2="-6" y1="0.5" y2="0.5"></line><text fill="#000" x="-9" y="0.5" dy="0.32em">450</text></g><g class="tick" opacity="1" transform="translate(0,38.54640980735553)"><line stroke="#000" x2="-6" y1="0.5" y2="0.5"></line><text fill="#000" x="-9" y="0.5" dy="0.32em">500</text></g><g class="tick" opacity="1" transform="translate(0,11.401050788091084)"><line stroke="#000" x2="-6" y1="0.5" y2="0.5"></line><text fill="#000" x="-9" y="0.5" dy="0.32em">550</text></g></g></g></svg>