<svg xmlns="http://www.w3.org/2000/svg" width="600" height="350"><defs><style type="text/css"><![CDATA[ 
.bar rect {
  fill-opacity: 0;
  stroke:       black;
  stroke-width: 0.5;
}

.highlight rect {
  fill:       red;
  fill-opacity: 1;
}
.axis path,
.axis line {
  fill: none;
  stroke: #000;
  shape-rendering: crispEdges;
}
path {
    stroke: red;
    fill: none;
}

line {
    stroke: red;
}

path.marker {
    fill: red;
}
 ]]></style></defs><g transform="translate(50,10)"><g class="bar" transform="translate(0,310)"><rect x="1" width="11.999999999999996" height="0"></rect></g><g class="bar" transform="translate(12.999999999999996,310)"><rect x="1" width="11.999999999999996" height="0"></rect></g><g class="bar" transform="translate(25.999999999999993,310)"><rect x="1" width="11.999999999999996" height="0"></rect></g><g class="bar" transform="translate(39.00000000000001,310)"><rect x="1" width="11.999999999999996" height="0"></rect></g><g class="bar" transform="translate(52,310)"><rect x="1" width="11.999999999999996" height="0"></rect></g><g class="bar" transform="translate(65,310)"><rect x="1" width="11.999999999999996" height="0"></rect></g><g class="bar" transform="translate(78.00000000000001,310)"><rect x="1" width="11.999999999999996" height="0"></rect></g><g class="bar" transform="translate(91.00000000000001,300.8086253369272)"><rect x="1" width="11.999999999999996" height="9.191374663072793"></rect></g><g class="bar" transform="translate(104,282.4258760107817)"><rect x="1" width="11.999999999999996" height="27.57412398921832"></rect></g><g class="bar" transform="translate(117,274.0700808625337)"><rect x="1" width="11.999999999999996" height="35.9299191374663"></rect></g><g class="bar" transform="translate(130,219.75741239892182)"><rect x="1" width="11.999999999999996" height="90.24258760107818"></rect></g><g class="bar" transform="translate(143,267.3854447439353)"><rect x="1" width="11.999999999999996" height="42.614555256064705"></rect></g><g class="bar" transform="translate(156.00000000000003,268.2210242587601)"><rect x="1" width="11.999999999999996" height="41.77897574123989"></rect></g><g class="bar" transform="translate(169,204.7169811320755)"><rect x="1" width="11.999999999999996" height="105.28301886792451"></rect></g><g class="bar" transform="translate(182.00000000000003,129.51482479784366)"><rect x="1" width="11.999999999999996" height="180.48517520215634"></rect></g><g class="bar" transform="translate(195,44.28571428571428)"><rect x="1" width="11.999999999999996" height="265.7142857142857"></rect></g><g class="bar" transform="translate(208,0)"><rect x="1" width="11.999999999999996" height="310"></rect></g><g class="bar" transform="translate(221.00000000000003,0)"><rect x="1" width="11.999999999999996" height="310"></rect></g><g class="bar" transform="translate(234,55.14824797843664)"><rect x="1" width="11.999999999999996" height="254.85175202156336"></rect></g><g class="bar" transform="translate(247.00000000000003,104.44743935309972)"><rect x="1" width="11.999999999999996" height="205.55256064690028"></rect></g><g class="bar" transform="translate(260,193.85444743935312)"><rect x="1" width="11.999999999999996" height="116.14555256064688"></rect></g><g class="bar" transform="translate(273,232.2911051212938)"><rect x="1" width="11.999999999999996" height="77.70889487870619"></rect></g><g class="bar" transform="translate(286,244.82479784366575)"><rect x="1" width="11.999999999999996" height="65.17520215633425"></rect></g><g class="bar" transform="translate(299.00000000000006,262.3719676549865)"><rect x="1" width="11.999999999999996" height="47.62803234501348"></rect></g><g class="bar" transform="translate(312.00000000000006,275.7412398921833)"><rect x="1" width="11.999999999999996" height="34.25876010781673"></rect></g><g class="bar" transform="translate(325,280.75471698113205)"><rect x="1" width="11.999999999999996" height="29.24528301886795"></rect></g><g class="bar" transform="translate(338,285.7681940700809)"><rect x="1" width="11.999999999999996" height="24.23180592991912"></rect></g><g class="bar" transform="translate(351,293.28840970350404)"><rect x="1" width="11.999999999999996" height="16.711590296495956"></rect></g><g class="bar" transform="translate(364.00000000000006,293.28840970350404)"><rect x="1" width="11.999999999999996" height="16.711590296495956"></rect></g><g class="bar" transform="translate(377.00000000000006,295.79514824797843)"><rect x="1" width="11.999999999999996" height="14.204851752021568"></rect></g><g class="bar" transform="translate(390,304.9865229110512)"><rect x="1" width="11.999999999999996" height="5.013477088948775"></rect></g><g class="bar" transform="translate(403,305.822102425876)"><rect x="1" width="11.999999999999996" height="4.177897574124017"></rect></g><g class="bar" transform="translate(416,309.1644204851752)"><rect x="1" width="11.999999999999996" height="0.8355795148248149"></rect></g><g class="bar" transform="translate(429.00000000000006,310)"><rect x="1" width="11.999999999999996" height="0"></rect></g><g class="bar" transform="translate(442.00000000000006,309.1644204851752)"><rect x="1" width="11.999999999999996" height="0.8355795148248149"></rect></g><g class="bar" transform="translate(455,309.1644204851752)"><rect x="1" width="11.999999999999996" height="0.8355795148248149"></rect></g><g class="bar" transform="translate(468,310)"><rect x="1" width="11.999999999999996" height="0"></rect></g><g class="bar" transform="translate(481,310)"><rect x="1" width="11.999999999999996" height="0"></rect></g><g class="bar" transform="translate(494.00000000000006,310)"><rect x="1" width="11.999999999999996" height="0"></rect></g><g class="bar" transform="translate(507.00000000000006,310)"><rect x="1" width="11.999999999999996" height="0"></rect></g><g class="axis axis--x" transform="translate(0,310)" fill="none" font-size="10" font-family="sans-serif" text-anchor="middle"><path class="domain" stroke="#000" d="M0.5,6V0.5H520.5V6"></path><g class="tick" opacity="1" transform="translate(0.5,0)"><line stroke="#000" y2="6"></line><text fill="#000" y="9" dy="0.71em">0.01</text></g><g class="tick" opacity="1" transform="translate(130.5,0)"><line stroke="#000" y2="6"></line><text fill="#000" y="9" dy="0.71em">1</text></g><g class="tick" opacity="1" transform="translate(260.5,0)"><line stroke="#000" y2="6"></line><text fill="#000" y="9" dy="0.71em">100</text></g><g class="tick" opacity="1" transform="translate(390.5,0)"><line stroke="#000" y2="6"></line><text fill="#000" y="9" dy="0.71em">10000</text></g><g class="tick" opacity="1" transform="translate(520.5,0)"><line stroke="#000" y2="6"></line><text fill="#000" y="9" dy="0.71em"></text></g></g><g class="axis axis--y" fill="none" font-size="10" font-family="sans-serif" text-anchor="end"><path class="domain" stroke="#000" d="M-6,310.5H0.5V0.5H-6"></path><g class="tick" opacity="1" transform="translate(0,310.5)"><line stroke="#000" x2="-6"></line><text fill="#000" x="-9" dy="0.32em">0</text></g><g class="tick" opacity="1" transform="translate(0,268.7210242587601)"><line stroke="#000" x2="-6"></line><text fill="#000" x="-9" dy="0.32em">50</text></g><g class="tick" opacity="1" transform="translate(0,226.94204851752022)"><line stroke="#000" x2="-6"></line><text fill="#000" x="-9" dy="0.32em">100</text></g><g class="tick" opacity="1" transform="translate(0,185.16307277628033)"><line stroke="#000" x2="-6"></line><text fill="#000" x="-9" dy="0.32em">150</text></g><g class="tick" opacity="1" transform="translate(0,143.38409703504044)"><line stroke="#000" x2="-6"></line><text fill="#000" x="-9" dy="0.32em">200</text></g><g class="tick" opacity="1" transform="translate(0,101.60512129380055)"><line stroke="#000" x2="-6"></line><text fill="#000" x="-9" dy="0.32em">250</text></g><g class="tick" opacity="1" transform="translate(0,59.82614555256066)"><line stroke="#000" x2="-6"></line><text fill="#000" x="-9" dy="0.32em">300</text></g><g class="tick" opacity="1" transform="translate(0,18.04716981132077)"><line stroke="#000" x2="-6"></line><text fill="#000" x="-9" dy="0.32em">350</text></g></g></g></svg>