<svg xmlns="http://www.w3.org/2000/svg" width="280" height="160"><defs><style type="text/css"><![CDATA[ 
.bar rect {
  fill-opacity: 0;
  stroke:       black;
  stroke-width: 0.5;
}

.highlight rect {
  fill:       red;
  fill-opacity: 1;
}
.axis path,
.axis line {
  fill: none;
  stroke: #000;
  shape-rendering: crispEdges;
}
path {
    stroke: red;
    fill: none;
}

line {
    stroke: red;
}

path.marker {
    fill: red;
}
 ]]></style></defs><g transform="translate(50,10)"><g class="bar" transform="translate(0,120)"><rect x="1" width="11.5" height="0"></rect></g><g class="bar" transform="translate(12.5,120)"><rect x="1" width="11.5" height="0"></rect></g><g class="bar" transform="translate(25,119.86636971046771)"><rect x="1" width="11.5" height="0.1336302895322916"></rect></g><g class="bar" transform="translate(37.5,110.24498886414254)"><rect x="1" width="11.5" height="9.755011135857458"></rect></g><g class="bar" transform="translate(50,82.71714922048997)"><rect x="1" width="11.5" height="37.28285077951003"></rect></g><g class="bar" transform="translate(62.5,65.87973273942094)"><rect x="1" width="11.5" height="54.120267260579055"></rect></g><g class="bar" transform="translate(75,33.67483296213808)"><rect x="1" width="11.5" height="86.32516703786192"></rect></g><g class="bar" transform="translate(87.5,5.478841870824056)"><rect x="1" width="11.5" height="114.52115812917594"></rect></g><g class="bar" transform="translate(100,0)"><rect x="1" width="11.5" height="120"></rect></g><g class="bar" transform="translate(112.5,46.77060133630289)"><rect x="1" width="11.5" height="73.22939866369711"></rect></g><g class="bar" transform="translate(125,87.92873051224944)"><rect x="1" width="11.5" height="32.071269487750556"></rect></g><g class="bar" transform="translate(137.5,118.12917594654789)"><rect x="1" width="11.5" height="1.870824053452111"></rect></g><g class="bar" transform="translate(150,120)"><rect x="1" width="11.5" height="0"></rect></g><g class="bar" transform="translate(162.5,120)"><rect x="1" width="11.5" height="0"></rect></g><g class="bar" transform="translate(175,120)"><rect x="1" width="11.5" height="0"></rect></g><g class="bar" transform="translate(187.5,120)"><rect x="1" width="11.5" height="0"></rect></g></g></svg>