<svg xmlns="http://www.w3.org/2000/svg" width="280" height="160"><defs><style type="text/css"><![CDATA[ 
.bar rect {
  fill-opacity: 0;
  stroke:       black;
  stroke-width: 0.5;
}

.highlight rect {
  fill:       red;
  fill-opacity: 1;
}
.axis path,
.axis line {
  fill: none;
  stroke: #000;
  shape-rendering: crispEdges;
}
path {
    stroke: red;
    fill: none;
}

line {
    stroke: red;
}

path.marker {
    fill: red;
}
 ]]></style></defs><g transform="translate(50,10)"><g class="bar" transform="translate(0,120)"><rect x="1" width="11.5" height="0"></rect></g><g class="bar" transform="translate(12.5,120)"><rect x="1" width="11.5" height="0"></rect></g><g class="bar" transform="translate(25,120)"><rect x="1" width="11.5" height="0"></rect></g><g class="bar" transform="translate(37.5,111.06529209621993)"><rect x="1" width="11.5" height="8.934707903780065"></rect></g><g class="bar" transform="translate(50,75.4639175257732)"><rect x="1" width="11.5" height="44.5360824742268"></rect></g><g class="bar" transform="translate(62.5,64.74226804123711)"><rect x="1" width="11.5" height="55.25773195876289"></rect></g><g class="bar" transform="translate(75,30.37800687285224)"><rect x="1" width="11.5" height="89.62199312714776"></rect></g><g class="bar" transform="translate(87.5,0)"><rect x="1" width="11.5" height="120"></rect></g><g class="bar" transform="translate(100,0.5498281786941561)"><rect x="1" width="11.5" height="119.45017182130584"></rect></g><g class="bar" transform="translate(112.5,46.46048109965635)"><rect x="1" width="11.5" height="73.53951890034365"></rect></g><g class="bar" transform="translate(125,87.2852233676976)"><rect x="1" width="11.5" height="32.7147766323024"></rect></g><g class="bar" transform="translate(137.5,118.07560137457045)"><rect x="1" width="11.5" height="1.9243986254295464"></rect></g><g class="bar" transform="translate(150,120)"><rect x="1" width="11.5" height="0"></rect></g><g class="bar" transform="translate(162.5,120)"><rect x="1" width="11.5" height="0"></rect></g><g class="bar" transform="translate(175,120)"><rect x="1" width="11.5" height="0"></rect></g><g class="bar" transform="translate(187.5,120)"><rect x="1" width="11.5" height="0"></rect></g></g></svg>