<svg xmlns="http://www.w3.org/2000/svg" width="600" height="350"><defs><style type="text/css"><![CDATA[ 
.bar rect {
  fill-opacity: 0;
  stroke:       black;
  stroke-width: 0.5;
}

.highlight rect {
  fill:       red;
  fill-opacity: 1;
}
.axis path,
.axis line {
  fill: none;
  stroke: #000;
  shape-rendering: crispEdges;
}
 ]]></style></defs><g transform="translate(50,10)"><g class="bar" transform="translate(0,304.94172494172494)"><rect x="1" width="11.999999999999996" height="5.058275058275058"></rect></g><g class="bar" transform="translate(12.999999999999996,291.2121212121212)"><rect x="1" width="11.999999999999996" height="18.78787878787881"></rect></g><g class="bar" transform="translate(25.999999999999993,287.5990675990676)"><rect x="1" width="11.999999999999996" height="22.40093240093239"></rect></g><g class="bar" transform="translate(39.00000000000001,256.5268065268065)"><rect x="1" width="11.999999999999996" height="53.473193473193476"></rect></g><g class="bar" transform="translate(52,244.96503496503496)"><rect x="1" width="11.999999999999996" height="65.03496503496504"></rect></g><g class="bar" transform="translate(65,186.43356643356645)"><rect x="1" width="11.999999999999996" height="123.56643356643355"></rect></g><g class="bar" transform="translate(78.00000000000001,153.9160839160839)"><rect x="1" width="11.999999999999996" height="156.0839160839161"></rect></g><g class="bar" transform="translate(91.00000000000001,127.90209790209792)"><rect x="1" width="11.999999999999996" height="182.09790209790208"></rect></g><g class="bar" transform="translate(104,99.7202797202797)"><rect x="1" width="11.999999999999996" height="210.2797202797203"></rect></g><g class="bar" transform="translate(117,50.58275058275058)"><rect x="1" width="11.999999999999996" height="259.4172494172494"></rect></g><g class="bar" transform="translate(130,36.853146853146825)"><rect x="1" width="11.999999999999996" height="273.1468531468532"></rect></g><g class="bar" transform="translate(143,0)"><rect x="1" width="11.999999999999996" height="310"></rect></g><g class="bar" transform="translate(156.00000000000003,19.510489510489492)"><rect x="1" width="11.999999999999996" height="290.4895104895105"></rect></g><g class="bar" transform="translate(169,16.620046620046594)"><rect x="1" width="11.999999999999996" height="293.3799533799534"></rect></g><g class="bar" transform="translate(182.00000000000003,26.013986013986028)"><rect x="1" width="11.999999999999996" height="283.986013986014"></rect></g><g class="bar" transform="translate(195,37.575757575757564)"><rect x="1" width="11.999999999999996" height="272.42424242424244"></rect></g><g class="bar" transform="translate(208,49.86013986013984)"><rect x="1" width="11.999999999999996" height="260.13986013986016"></rect></g><g class="bar" transform="translate(221.00000000000003,38.2983682983683)"><rect x="1" width="11.999999999999996" height="271.7016317016317"></rect></g><g class="bar" transform="translate(234,76.59673659673658)"><rect x="1" width="11.999999999999996" height="233.40326340326342"></rect></g><g class="bar" transform="translate(247.00000000000003,96.82983682983681)"><rect x="1" width="11.999999999999996" height="213.1701631701632"></rect></g><g class="bar" transform="translate(260,148.85780885780883)"><rect x="1" width="11.999999999999996" height="161.14219114219117"></rect></g><g class="bar" transform="translate(273,164.03263403263404)"><rect x="1" width="11.999999999999996" height="145.96736596736596"></rect></g><g class="bar" transform="translate(286,190.76923076923077)"><rect x="1" width="11.999999999999996" height="119.23076923076923"></rect></g><g class="bar" transform="translate(299.00000000000006,221.84149184149186)"><rect x="1" width="11.999999999999996" height="88.15850815850814"></rect></g><g class="bar" transform="translate(312.00000000000006,250.02331002331002)"><rect x="1" width="11.999999999999996" height="59.97668997668998"></rect></g><g class="bar" transform="translate(325,255.08158508158508)"><rect x="1" width="11.999999999999996" height="54.918414918414925"></rect></g><g class="bar" transform="translate(338,277.4825174825175)"><rect x="1" width="11.999999999999996" height="32.517482517482506"></rect></g><g class="bar" transform="translate(351,281.8181818181818)"><rect x="1" width="11.999999999999996" height="28.181818181818187"></rect></g><g class="bar" transform="translate(364.00000000000006,293.37995337995335)"><rect x="1" width="11.999999999999996" height="16.62004662004665"></rect></g><g class="bar" transform="translate(377.00000000000006,300.6060606060606)"><rect x="1" width="11.999999999999996" height="9.393939393939377"></rect></g><g class="bar" transform="translate(390,304.94172494172494)"><rect x="1" width="11.999999999999996" height="5.058275058275058"></rect></g><g class="bar" transform="translate(403,308.5547785547786)"><rect x="1" width="11.999999999999996" height="1.4452214452214207"></rect></g><g class="bar" transform="translate(416,309.27738927738926)"><rect x="1" width="11.999999999999996" height="0.7226107226107388"></rect></g><g class="bar" transform="translate(429.00000000000006,310)"><rect x="1" width="11.999999999999996" height="0"></rect></g><g class="bar" transform="translate(442.00000000000006,310)"><rect x="1" width="11.999999999999996" height="0"></rect></g><g class="bar" transform="translate(455,310)"><rect x="1" width="11.999999999999996" height="0"></rect></g><g class="bar" transform="translate(468,310)"><rect x="1" width="11.999999999999996" height="0"></rect></g><g class="bar" transform="translate(481,310)"><rect x="1" width="11.999999999999996" height="0"></rect></g><g class="bar" transform="translate(494.00000000000006,310)"><rect x="1" width="11.999999999999996" height="0"></rect></g><g class="bar" transform="translate(507.00000000000006,310)"><rect x="1" width="11.999999999999996" height="0"></rect></g><g class="axis axis--x" transform="translate(0,310)" fill="none" font-size="10" font-family="sans-serif" text-anchor="middle"><path class="domain" stroke="#000" d="M0.5,6V0.5H520.5V6"></path><g class="tick" opacity="1" transform="translate(0,0)"><line stroke="#000" y2="6" x1="0.5" x2="0.5"></line><text fill="#000" y="9" x="0.5" dy="0.71em">0.01</text></g><g class="tick" opacity="1" transform="translate(130,0)"><line stroke="#000" y2="6" x1="0.5" x2="0.5"></line><text fill="#000" y="9" x="0.5" dy="0.71em">1</text></g><g class="tick" opacity="1" transform="translate(260,0)"><line stroke="#000" y2="6" x1="0.5" x2="0.5"></line><text fill="#000" y="9" x="0.5" dy="0.71em">100</text></g><g class="tick" opacity="1" transform="translate(390,0)"><line stroke="#000" y2="6" x1="0.5" x2="0.5"></line><text fill="#000" y="9" x="0.5" dy="0.71em">10000</text></g><g class="tick" opacity="1" transform="translate(520,0)"><line stroke="#000" y2="6" x1="0.5" x2="0.5"></line><text fill="#000" y="9" x="0.5" dy="0.71em"></text></g></g><g class="axis axis--y" fill="none" font-size="10" font-family="sans-serif" text-anchor="end"><path class="domain" stroke="#000" d="M-6,310.5H0.5V0.5H-6"></path><g class="tick" opacity="1" transform="translate(0,310)"><line stroke="#000" x2="-6" y1="0.5" y2="0.5"></line><text fill="#000" x="-9" y="0.5" dy="0.32em">0</text></g><g class="tick" opacity="1" transform="translate(0,273.86946386946386)"><line stroke="#000" x2="-6" y1="0.5" y2="0.5"></line><text fill="#000" x="-9" y="0.5" dy="0.32em">50</text></g><g class="tick" opacity="1" transform="translate(0,237.73892773892774)"><line stroke="#000" x2="-6" y1="0.5" y2="0.5"></line><text fill="#000" x="-9" y="0.5" dy="0.32em">100</text></g><g class="tick" opacity="1" transform="translate(0,201.60839160839163)"><line stroke="#000" x2="-6" y1="0.5" y2="0.5"></line><text fill="#000" x="-9" y="0.5" dy="0.32em">150</text></g><g class="tick" opacity="1" transform="translate(0,165.47785547785548)"><line stroke="#000" x2="-6" y1="0.5" y2="0.5"></line><text fill="#000" x="-9" y="0.5" dy="0.32em">200</text></g><g class="tick" opacity="1" transform="translate(0,129.34731934731934)"><line stroke="#000" x2="-6" y1="0.5" y2="0.5"></line><text fill="#000" x="-9" y="0.5" dy="0.32em">250</text></g><g class="tick" opacity="1" transform="translate(0,93.21678321678323)"><line stroke="#000" x2="-6" y1="0.5" y2="0.5"></line><text fill="#000" x="-9" y="0.5" dy="0.32em">300</text></g><g class="tick" opacity="1" transform="translate(0,57.086247086247084)"><line stroke="#000" x2="-6" y1="0.5" y2="0.5"></line><text fill="#000" x="-9" y="0.5" dy="0.32em">350</text></g><g class="tick" opacity="1" transform="translate(0,20.95571095571097)"><line stroke="#000" x2="-6" y1="0.5" y2="0.5"></line><text fill="#000" x="-9" y="0.5" dy="0.32em">400</text></g></g></g></svg>