<svg xmlns="http://www.w3.org/2000/svg" width="600" height="350"><defs><style type="text/css"><![CDATA[ 
.bar rect {
  fill-opacity: 0;
  stroke:       black;
  stroke-width: 0.5;
}

.highlight rect {
  fill:       red;
  fill-opacity: 1;
}
.axis path,
.axis line {
  fill: none;
  stroke: #000;
  shape-rendering: crispEdges;
}
 ]]></style></defs><g transform="translate(50,10)"><g class="bar" transform="translate(0,310)"><rect x="1" width="5.500000000000005" height="0"></rect></g><g class="bar" transform="translate(6.500000000000005,310)"><rect x="1" width="5.500000000000005" height="0"></rect></g><g class="bar" transform="translate(12.999999999999996,310)"><rect x="1" width="5.500000000000005" height="0"></rect></g><g class="bar" transform="translate(19.500000000000004,310)"><rect x="1" width="5.500000000000005" height="0"></rect></g><g class="bar" transform="translate(25.999999999999993,310)"><rect x="1" width="5.500000000000005" height="0"></rect></g><g class="bar" transform="translate(32.5,310)"><rect x="1" width="5.500000000000005" height="0"></rect></g><g class="bar" transform="translate(39.00000000000001,310)"><rect x="1" width="5.500000000000005" height="0"></rect></g><g class="bar" transform="translate(45.500000000000014,310)"><rect x="1" width="5.500000000000005" height="0"></rect></g><g class="bar" transform="translate(52,310)"><rect x="1" width="5.500000000000005" height="0"></rect></g><g class="bar" transform="translate(58.49999999999999,310)"><rect x="1" width="5.500000000000005" height="0"></rect></g><g class="bar" transform="translate(65,310)"><rect x="1" width="5.500000000000005" height="0"></rect></g><g class="bar" transform="translate(71.5,308.8316582914573)"><rect x="1" width="5.500000000000005" height="1.1683417085426981"></rect></g><g class="bar" transform="translate(78.00000000000001,306.49497487437185)"><rect x="1" width="5.500000000000005" height="3.5050251256281513"></rect></g><g class="bar" transform="translate(84.5,306.10552763819095)"><rect x="1" width="5.500000000000005" height="3.8944723618090507"></rect></g><g class="bar" transform="translate(91.00000000000001,305.71608040201005)"><rect x="1" width="5.500000000000005" height="4.28391959798995"></rect></g><g class="bar" transform="translate(97.5,308.8316582914573)"><rect x="1" width="5.500000000000005" height="1.1683417085426981"></rect></g><g class="bar" transform="translate(104,309.2211055276382)"><rect x="1" width="5.500000000000005" height="0.7788944723617988"></rect></g><g class="bar" transform="translate(110.50000000000001,305.32663316582915)"><rect x="1" width="5.500000000000005" height="4.673366834170849"></rect></g><g class="bar" transform="translate(117,299.09547738693465)"><rect x="1" width="5.500000000000005" height="10.904522613065353"></rect></g><g class="bar" transform="translate(123.50000000000001,299.09547738693465)"><rect x="1" width="5.500000000000005" height="10.904522613065353"></rect></g><g class="bar" transform="translate(130,299.4849246231156)"><rect x="1" width="5.500000000000005" height="10.515075376884397"></rect></g><g class="bar" transform="translate(136.5,271.44472361809045)"><rect x="1" width="5.500000000000005" height="38.55527638190955"></rect></g><g class="bar" transform="translate(143,263.65577889447235)"><rect x="1" width="5.500000000000005" height="46.34422110552765"></rect></g><g class="bar" transform="translate(149.50000000000003,234.83668341708542)"><rect x="1" width="5.500000000000005" height="75.16331658291458"></rect></g><g class="bar" transform="translate(156.00000000000003,191.99748743718592)"><rect x="1" width="5.500000000000005" height="118.00251256281408"></rect></g><g class="bar" transform="translate(162.5,140.97989949748745)"><rect x="1" width="5.500000000000005" height="169.02010050251255"></rect></g><g class="bar" transform="translate(169,89.18341708542712)"><rect x="1" width="5.500000000000005" height="220.81658291457288"></rect></g><g class="bar" transform="translate(175.5,55.69095477386935)"><rect x="1" width="5.500000000000005" height="254.30904522613065"></rect></g><g class="bar" transform="translate(182.00000000000003,0)"><rect x="1" width="5.500000000000005" height="310"></rect></g><g class="bar" transform="translate(188.50000000000003,8.5678391959799)"><rect x="1" width="5.500000000000005" height="301.4321608040201"></rect></g><g class="bar" transform="translate(195,12.072864321608051)"><rect x="1" width="5.500000000000005" height="297.92713567839195"></rect></g><g class="bar" transform="translate(201.5,19.082914572864354)"><rect x="1" width="5.500000000000005" height="290.91708542713565"></rect></g><g class="bar" transform="translate(208,50.6281407035176)"><rect x="1" width="5.500000000000005" height="259.3718592964824"></rect></g><g class="bar" transform="translate(214.50000000000003,99.69849246231155)"><rect x="1" width="5.500000000000005" height="210.30150753768845"></rect></g><g class="bar" transform="translate(221.00000000000003,140.97989949748745)"><rect x="1" width="5.500000000000005" height="169.02010050251255"></rect></g><g class="bar" transform="translate(227.5,153.05276381909547)"><rect x="1" width="5.500000000000005" height="156.94723618090453"></rect></g><g class="bar" transform="translate(234,197.0603015075377)"><rect x="1" width="5.500000000000005" height="112.9396984924623"></rect></g><g class="bar" transform="translate(240.5,212.24874371859295)"><rect x="1" width="5.500000000000005" height="97.75125628140705"></rect></g><g class="bar" transform="translate(247.00000000000003,236.78391959798995)"><rect x="1" width="5.500000000000005" height="73.21608040201005"></rect></g><g class="bar" transform="translate(253.50000000000003,231.3316582914573)"><rect x="1" width="5.500000000000005" height="78.6683417085427"></rect></g><g class="bar" transform="translate(260,250.0251256281407)"><rect x="1" width="5.500000000000005" height="59.9748743718593"></rect></g><g class="bar" transform="translate(266.50000000000006,239.12060301507537)"><rect x="1" width="5.500000000000005" height="70.87939698492463"></rect></g><g class="bar" transform="translate(273,249.6356783919598)"><rect x="1" width="5.500000000000005" height="60.3643216080402"></rect></g><g class="bar" transform="translate(279.5,254.30904522613065)"><rect x="1" width="5.500000000000005" height="55.69095477386935"></rect></g><g class="bar" transform="translate(286,262.48743718592965)"><rect x="1" width="5.500000000000005" height="47.51256281407035"></rect></g><g class="bar" transform="translate(292.5,267.9396984924623)"><rect x="1" width="5.500000000000005" height="42.0603015075377"></rect></g><g class="bar" transform="translate(299.00000000000006,269.88693467336685)"><rect x="1" width="5.500000000000005" height="40.11306532663315"></rect></g><g class="bar" transform="translate(305.5,271.83417085427135)"><rect x="1" width="5.500000000000005" height="38.16582914572865"></rect></g><g class="bar" transform="translate(312.00000000000006,280.01256281407035)"><rect x="1" width="5.500000000000005" height="29.98743718592965"></rect></g><g class="bar" transform="translate(318.5,280.01256281407035)"><rect x="1" width="5.500000000000005" height="29.98743718592965"></rect></g><g class="bar" transform="translate(325,285.8542713567839)"><rect x="1" width="5.500000000000005" height="24.145728643216103"></rect></g><g class="bar" transform="translate(331.50000000000006,292.8643216080402)"><rect x="1" width="5.500000000000005" height="17.1356783919598"></rect></g><g class="bar" transform="translate(338,290.5276381909548)"><rect x="1" width="5.500000000000005" height="19.472361809045196"></rect></g><g class="bar" transform="translate(344.50000000000006,301.0427135678392)"><rect x="1" width="5.500000000000005" height="8.9572864321608"></rect></g><g class="bar" transform="translate(351,303.3793969849246)"><rect x="1" width="5.500000000000005" height="6.620603015075403"></rect></g><g class="bar" transform="translate(357.5,306.49497487437185)"><rect x="1" width="5.500000000000005" height="3.5050251256281513"></rect></g><g class="bar" transform="translate(364.00000000000006,307.27386934673365)"><rect x="1" width="5.500000000000005" height="2.7261306532663525"></rect></g><g class="bar" transform="translate(370.5,308.0527638190955)"><rect x="1" width="5.500000000000005" height="1.947236180904497"></rect></g><g class="bar" transform="translate(377.00000000000006,309.6105527638191)"><rect x="1" width="5.500000000000005" height="0.3894472361808994"></rect></g><g class="bar" transform="translate(383.5,309.6105527638191)"><rect x="1" width="5.500000000000005" height="0.3894472361808994"></rect></g><g class="bar" transform="translate(390,309.6105527638191)"><rect x="1" width="5.500000000000005" height="0.3894472361808994"></rect></g><g class="bar" transform="translate(396.50000000000006,309.6105527638191)"><rect x="1" width="5.500000000000005" height="0.3894472361808994"></rect></g><g class="bar" transform="translate(403,310)"><rect x="1" width="5.500000000000005" height="0"></rect></g><g class="bar" transform="translate(409.50000000000006,310)"><rect x="1" width="5.500000000000005" height="0"></rect></g><g class="bar" transform="translate(416,310)"><rect x="1" width="5.500000000000005" height="0"></rect></g><g class="bar" transform="translate(422.5,310)"><rect x="1" width="5.500000000000005" height="0"></rect></g><g class="bar" transform="translate(429.00000000000006,310)"><rect x="1" width="5.500000000000005" height="0"></rect></g><g class="bar" transform="translate(435.5,310)"><rect x="1" width="5.500000000000005" height="0"></rect></g><g class="bar" transform="translate(442.00000000000006,310)"><rect x="1" width="5.500000000000005" height="0"></rect></g><g class="bar" transform="translate(448.5,310)"><rect x="1" width="5.500000000000005" height="0"></rect></g><g class="bar" transform="translate(455,310)"><rect x="1" width="5.500000000000005" height="0"></rect></g><g class="bar" transform="translate(461.50000000000006,310)"><rect x="1" width="5.500000000000005" height="0"></rect></g><g class="bar" transform="translate(468,310)"><rect x="1" width="5.500000000000005" height="0"></rect></g><g class="bar" transform="translate(474.50000000000006,310)"><rect x="1" width="5.500000000000005" height="0"></rect></g><g class="bar" transform="translate(481,310)"><rect x="1" width="5.500000000000005" height="0"></rect></g><g class="bar" transform="translate(487.5,310)"><rect x="1" width="5.500000000000005" height="0"></rect></g><g class="bar" transform="translate(494.00000000000006,310)"><rect x="1" width="5.500000000000005" height="0"></rect></g><g class="bar" transform="translate(500.5,310)"><rect x="1" width="5.500000000000005" height="0"></rect></g><g class="bar" transform="translate(507.00000000000006,310)"><rect x="1" width="5.500000000000005" height="0"></rect></g><g class="bar" transform="translate(513.5,310)"><rect x="1" width="5.500000000000005" height="0"></rect></g><g class="axis axis--x" transform="translate(0,310)" fill="none" font-size="10" font-family="sans-serif" text-anchor="middle"><path class="domain" stroke="#000" d="M0.5,6V0.5H520.5V6"></path><g class="tick" opacity="1" transform="translate(0,0)"><line stroke="#000" y2="6" x1="0.5" x2="0.5"></line><text fill="#000" y="9" x="0.5" dy="0.71em">0.01</text></g><g class="tick" opacity="1" transform="translate(130,0)"><line stroke="#000" y2="6" x1="0.5" x2="0.5"></line><text fill="#000" y="9" x="0.5" dy="0.71em">1</text></g><g class="tick" opacity="1" transform="translate(260,0)"><line stroke="#000" y2="6" x1="0.5" x2="0.5"></line><text fill="#000" y="9" x="0.5" dy="0.71em">100</text></g><g class="tick" opacity="1" transform="translate(390,0)"><line stroke="#000" y2="6" x1="0.5" x2="0.5"></line><text fill="#000" y="9" x="0.5" dy="0.71em">10000</text></g><g class="tick" opacity="1" transform="translate(520,0)"><line stroke="#000" y2="6" x1="0.5" x2="0.5"></line><text fill="#000" y="9" x="0.5" dy="0.71em"></text></g></g><g class="axis axis--y" fill="none" font-size="10" font-family="sans-serif" text-anchor="end"><path class="domain" stroke="#000" d="M-6,310.5H0.5V0.5H-6"></path><g class="tick" opacity="1" transform="translate(0,310)"><line stroke="#000" x2="-6" y1="0.5" y2="0.5"></line><text fill="#000" x="-9" y="0.5" dy="0.32em">0</text></g><g class="tick" opacity="1" transform="translate(0,271.05527638190955)"><line stroke="#000" x2="-6" y1="0.5" y2="0.5"></line><text fill="#000" x="-9" y="0.5" dy="0.32em">100</text></g><g class="tick" opacity="1" transform="translate(0,232.1105527638191)"><line stroke="#000" x2="-6" y1="0.5" y2="0.5"></line><text fill="#000" x="-9" y="0.5" dy="0.32em">200</text></g><g class="tick" opacity="1" transform="translate(0,193.16582914572865)"><line stroke="#000" x2="-6" y1="0.5" y2="0.5"></line><text fill="#000" x="-9" y="0.5" dy="0.32em">300</text></g><g class="tick" opacity="1" transform="translate(0,154.2211055276382)"><line stroke="#000" x2="-6" y1="0.5" y2="0.5"></line><text fill="#000" x="-9" y="0.5" dy="0.32em">400</text></g><g class="tick" opacity="1" transform="translate(0,115.27638190954772)"><line stroke="#000" x2="-6" y1="0.5" y2="0.5"></line><text fill="#000" x="-9" y="0.5" dy="0.32em">500</text></g><g class="tick" opacity="1" transform="translate(0,76.33165829145727)"><line stroke="#000" x2="-6" y1="0.5" y2="0.5"></line><text fill="#000" x="-9" y="0.5" dy="0.32em">600</text></g><g class="tick" opacity="1" transform="translate(0,37.38693467336685)"><line stroke="#000" x2="-6" y1="0.5" y2="0.5"></line><text fill="#000" x="-9" y="0.5" dy="0.32em">700</text></g></g></g></svg>