<svg xmlns="http://www.w3.org/2000/svg" width="600" height="350"><defs><style type="text/css"><![CDATA[ 
.bar rect {
  fill-opacity: 0;
  stroke:       black;
  stroke-width: 0.5;
}

.highlight rect {
  fill:       red;
  fill-opacity: 1;
}
.axis path,
.axis line {
  fill: none;
  stroke: #000;
  shape-rendering: crispEdges;
}
 ]]></style></defs><g transform="translate(50,10)"><g class="bar" transform="translate(0,307.7037037037037)"><rect x="1" width="11.999999999999996" height="2.2962962962963047"></rect></g><g class="bar" transform="translate(12.999999999999996,306.17283950617286)"><rect x="1" width="11.999999999999996" height="3.8271604938271366"></rect></g><g class="bar" transform="translate(25.999999999999993,306.17283950617286)"><rect x="1" width="11.999999999999996" height="3.8271604938271366"></rect></g><g class="bar" transform="translate(39.00000000000001,297.75308641975306)"><rect x="1" width="11.999999999999996" height="12.24691358024694"></rect></g><g class="bar" transform="translate(52,287.03703703703707)"><rect x="1" width="11.999999999999996" height="22.962962962962933"></rect></g><g class="bar" transform="translate(65,288.5679012345679)"><rect x="1" width="11.999999999999996" height="21.4320987654321"></rect></g><g class="bar" transform="translate(78.00000000000001,263.30864197530866)"><rect x="1" width="11.999999999999996" height="46.69135802469134"></rect></g><g class="bar" transform="translate(91.00000000000001,232.69135802469134)"><rect x="1" width="11.999999999999996" height="77.30864197530866"></rect></g><g class="bar" transform="translate(104,199.77777777777777)"><rect x="1" width="11.999999999999996" height="110.22222222222223"></rect></g><g class="bar" transform="translate(117,179.87654320987656)"><rect x="1" width="11.999999999999996" height="130.12345679012344"></rect></g><g class="bar" transform="translate(130,157.679012345679)"><rect x="1" width="11.999999999999996" height="152.320987654321"></rect></g><g class="bar" transform="translate(143,88.02469135802471)"><rect x="1" width="11.999999999999996" height="221.9753086419753"></rect></g><g class="bar" transform="translate(156.00000000000003,78.07407407407408)"><rect x="1" width="11.999999999999996" height="231.92592592592592"></rect></g><g class="bar" transform="translate(169,68.88888888888889)"><rect x="1" width="11.999999999999996" height="241.11111111111111"></rect></g><g class="bar" transform="translate(182.00000000000003,37.50617283950618)"><rect x="1" width="11.999999999999996" height="272.4938271604938"></rect></g><g class="bar" transform="translate(195,13.777777777777771)"><rect x="1" width="11.999999999999996" height="296.22222222222223"></rect></g><g class="bar" transform="translate(208,0)"><rect x="1" width="11.999999999999996" height="310"></rect></g><g class="bar" transform="translate(221.00000000000003,40.5679012345679)"><rect x="1" width="11.999999999999996" height="269.4320987654321"></rect></g><g class="bar" transform="translate(234,32.91358024691357)"><rect x="1" width="11.999999999999996" height="277.08641975308643"></rect></g><g class="bar" transform="translate(247.00000000000003,58.172839506172835)"><rect x="1" width="11.999999999999996" height="251.82716049382717"></rect></g><g class="bar" transform="translate(260,105.62962962962965)"><rect x="1" width="11.999999999999996" height="204.37037037037035"></rect></g><g class="bar" transform="translate(273,105.62962962962965)"><rect x="1" width="11.999999999999996" height="204.37037037037035"></rect></g><g class="bar" transform="translate(286,183.7037037037037)"><rect x="1" width="11.999999999999996" height="126.2962962962963"></rect></g><g class="bar" transform="translate(299.00000000000006,176.0493827160494)"><rect x="1" width="11.999999999999996" height="133.9506172839506"></rect></g><g class="bar" transform="translate(312.00000000000006,225.03703703703704)"><rect x="1" width="11.999999999999996" height="84.96296296296296"></rect></g><g class="bar" transform="translate(325,263.30864197530866)"><rect x="1" width="11.999999999999996" height="46.69135802469134"></rect></g><g class="bar" transform="translate(338,271.7283950617284)"><rect x="1" width="11.999999999999996" height="38.271604938271594"></rect></g><g class="bar" transform="translate(351,275.55555555555554)"><rect x="1" width="11.999999999999996" height="34.44444444444446"></rect></g><g class="bar" transform="translate(364.00000000000006,291.6296296296296)"><rect x="1" width="11.999999999999996" height="18.37037037037038"></rect></g><g class="bar" transform="translate(377.00000000000006,296.98765432098764)"><rect x="1" width="11.999999999999996" height="13.012345679012356"></rect></g><g class="bar" transform="translate(390,306.9382716049383)"><rect x="1" width="11.999999999999996" height="3.0617283950617207"></rect></g><g class="bar" transform="translate(403,310)"><rect x="1" width="11.999999999999996" height="0"></rect></g><g class="bar" transform="translate(416,310)"><rect x="1" width="11.999999999999996" height="0"></rect></g><g class="bar" transform="translate(429.00000000000006,310)"><rect x="1" width="11.999999999999996" height="0"></rect></g><g class="bar" transform="translate(442.00000000000006,310)"><rect x="1" width="11.999999999999996" height="0"></rect></g><g class="bar" transform="translate(455,310)"><rect x="1" width="11.999999999999996" height="0"></rect></g><g class="bar" transform="translate(468,310)"><rect x="1" width="11.999999999999996" height="0"></rect></g><g class="bar" transform="translate(481,310)"><rect x="1" width="11.999999999999996" height="0"></rect></g><g class="bar" transform="translate(494.00000000000006,310)"><rect x="1" width="11.999999999999996" height="0"></rect></g><g class="bar" transform="translate(507.00000000000006,310)"><rect x="1" width="11.999999999999996" height="0"></rect></g><g class="axis axis--x" transform="translate(0,310)" fill="none" font-size="10" font-family="sans-serif" text-anchor="middle"><path class="domain" stroke="#000" d="M0.5,6V0.5H520.5V6"></path><g class="tick" opacity="1" transform="translate(0,0)"><line stroke="#000" y2="6" x1="0.5" x2="0.5"></line><text fill="#000" y="9" x="0.5" dy="0.71em">0.01</text></g><g class="tick" opacity="1" transform="translate(130,0)"><line stroke="#000" y2="6" x1="0.5" x2="0.5"></line><text fill="#000" y="9" x="0.5" dy="0.71em">1</text></g><g class="tick" opacity="1" transform="translate(260,0)"><line stroke="#000" y2="6" x1="0.5" x2="0.5"></line><text fill="#000" y="9" x="0.5" dy="0.71em">100</text></g><g class="tick" opacity="1" transform="translate(390,0)"><line stroke="#000" y2="6" x1="0.5" x2="0.5"></line><text fill="#000" y="9" x="0.5" dy="0.71em">10000</text></g><g class="tick" opacity="1" transform="translate(520,0)"><line stroke="#000" y2="6" x1="0.5" x2="0.5"></line><text fill="#000" y="9" x="0.5" dy="0.71em"></text></g></g><g class="axis axis--y" fill="none" font-size="10" font-family="sans-serif" text-anchor="end"><path class="domain" stroke="#000" d="M-6,310.5H0.5V0.5H-6"></path><g class="tick" opacity="1" transform="translate(0,310)"><line stroke="#000" x2="-6" y1="0.5" y2="0.5"></line><text fill="#000" x="-9" y="0.5" dy="0.32em">0</text></g><g class="tick" opacity="1" transform="translate(0,271.7283950617284)"><line stroke="#000" x2="-6" y1="0.5" y2="0.5"></line><text fill="#000" x="-9" y="0.5" dy="0.32em">50</text></g><g class="tick" opacity="1" transform="translate(0,233.4567901234568)"><line stroke="#000" x2="-6" y1="0.5" y2="0.5"></line><text fill="#000" x="-9" y="0.5" dy="0.32em">100</text></g><g class="tick" opacity="1" transform="translate(0,195.1851851851852)"><line stroke="#000" x2="-6" y1="0.5" y2="0.5"></line><text fill="#000" x="-9" y="0.5" dy="0.32em">150</text></g><g class="tick" opacity="1" transform="translate(0,156.9135802469136)"><line stroke="#000" x2="-6" y1="0.5" y2="0.5"></line><text fill="#000" x="-9" y="0.5" dy="0.32em">200</text></g><g class="tick" opacity="1" transform="translate(0,118.64197530864197)"><line stroke="#000" x2="-6" y1="0.5" y2="0.5"></line><text fill="#000" x="-9" y="0.5" dy="0.32em">250</text></g><g class="tick" opacity="1" transform="translate(0,80.37037037037038)"><line stroke="#000" x2="-6" y1="0.5" y2="0.5"></line><text fill="#000" x="-9" y="0.5" dy="0.32em">300</text></g><g class="tick" opacity="1" transform="translate(0,42.09876543209879)"><line stroke="#000" x2="-6" y1="0.5" y2="0.5"></line><text fill="#000" x="-9" y="0.5" dy="0.32em">350</text></g><g class="tick" opacity="1" transform="translate(0,3.8271604938271935)"><line stroke="#000" x2="-6" y1="0.5" y2="0.5"></line><text fill="#000" x="-9" y="0.5" dy="0.32em">400</text></g></g></g></svg>