<svg xmlns="http://www.w3.org/2000/svg" width="600" height="350"><defs><style type="text/css"><![CDATA[ 
.bar rect {
  fill-opacity: 0;
  stroke:       black;
  stroke-width: 0.5;
}

.highlight rect {
  fill:       red;
  fill-opacity: 1;
}
.axis path,
.axis line {
  fill: none;
  stroke: #000;
  shape-rendering: crispEdges;
}
 ]]></style></defs><g transform="translate(50,10)"><g class="bar" transform="translate(0,310)"><rect x="1" width="11.999999999999996" height="0"></rect></g><g class="bar" transform="translate(12.999999999999996,310)"><rect x="1" width="11.999999999999996" height="0"></rect></g><g class="bar" transform="translate(25.999999999999993,310)"><rect x="1" width="11.999999999999996" height="0"></rect></g><g class="bar" transform="translate(39.00000000000001,310)"><rect x="1" width="11.999999999999996" height="0"></rect></g><g class="bar" transform="translate(52,310)"><rect x="1" width="11.999999999999996" height="0"></rect></g><g class="bar" transform="translate(65,310)"><rect x="1" width="11.999999999999996" height="0"></rect></g><g class="bar" transform="translate(78.00000000000001,310)"><rect x="1" width="11.999999999999996" height="0"></rect></g><g class="bar" transform="translate(91.00000000000001,310)"><rect x="1" width="11.999999999999996" height="0"></rect></g><g class="bar" transform="translate(104,310)"><rect x="1" width="11.999999999999996" height="0"></rect></g><g class="bar" transform="translate(117,304.91803278688525)"><rect x="1" width="11.999999999999996" height="5.081967213114751"></rect></g><g class="bar" transform="translate(130,307.4590163934426)"><rect x="1" width="11.999999999999996" height="2.540983606557404"></rect></g><g class="bar" transform="translate(143,307.4590163934426)"><rect x="1" width="11.999999999999996" height="2.540983606557404"></rect></g><g class="bar" transform="translate(156.00000000000003,307.4590163934426)"><rect x="1" width="11.999999999999996" height="2.540983606557404"></rect></g><g class="bar" transform="translate(169,294.75409836065575)"><rect x="1" width="11.999999999999996" height="15.245901639344254"></rect></g><g class="bar" transform="translate(182.00000000000003,294.75409836065575)"><rect x="1" width="11.999999999999996" height="15.245901639344254"></rect></g><g class="bar" transform="translate(195,238.85245901639342)"><rect x="1" width="11.999999999999996" height="71.14754098360658"></rect></g><g class="bar" transform="translate(208,213.44262295081967)"><rect x="1" width="11.999999999999996" height="96.55737704918033"></rect></g><g class="bar" transform="translate(221.00000000000003,198.19672131147541)"><rect x="1" width="11.999999999999996" height="111.80327868852459"></rect></g><g class="bar" transform="translate(234,116.88524590163934)"><rect x="1" width="11.999999999999996" height="193.11475409836066"></rect></g><g class="bar" transform="translate(247.00000000000003,147.37704918032787)"><rect x="1" width="11.999999999999996" height="162.62295081967213"></rect></g><g class="bar" transform="translate(260,73.68852459016395)"><rect x="1" width="11.999999999999996" height="236.31147540983605"></rect></g><g class="bar" transform="translate(273,20.327868852459005)"><rect x="1" width="11.999999999999996" height="289.672131147541"></rect></g><g class="bar" transform="translate(286,10.163934426229503)"><rect x="1" width="11.999999999999996" height="299.8360655737705"></rect></g><g class="bar" transform="translate(299.00000000000006,0)"><rect x="1" width="11.999999999999996" height="310"></rect></g><g class="bar" transform="translate(312.00000000000006,2.540983606557404)"><rect x="1" width="11.999999999999996" height="307.4590163934426"></rect></g><g class="bar" transform="translate(325,40.65573770491807)"><rect x="1" width="11.999999999999996" height="269.34426229508193"></rect></g><g class="bar" transform="translate(338,129.59016393442624)"><rect x="1" width="11.999999999999996" height="180.40983606557376"></rect></g><g class="bar" transform="translate(351,149.91803278688525)"><rect x="1" width="11.999999999999996" height="160.08196721311475"></rect></g><g class="bar" transform="translate(364.00000000000006,218.52459016393442)"><rect x="1" width="11.999999999999996" height="91.47540983606558"></rect></g><g class="bar" transform="translate(377.00000000000006,271.88524590163934)"><rect x="1" width="11.999999999999996" height="38.11475409836066"></rect></g><g class="bar" transform="translate(390,310)"><rect x="1" width="11.999999999999996" height="0"></rect></g><g class="bar" transform="translate(403,310)"><rect x="1" width="11.999999999999996" height="0"></rect></g><g class="bar" transform="translate(416,310)"><rect x="1" width="11.999999999999996" height="0"></rect></g><g class="bar" transform="translate(429.00000000000006,310)"><rect x="1" width="11.999999999999996" height="0"></rect></g><g class="bar" transform="translate(442.00000000000006,310)"><rect x="1" width="11.999999999999996" height="0"></rect></g><g class="bar" transform="translate(455,310)"><rect x="1" width="11.999999999999996" height="0"></rect></g><g class="bar" transform="translate(468,310)"><rect x="1" width="11.999999999999996" height="0"></rect></g><g class="bar" transform="translate(481,310)"><rect x="1" width="11.999999999999996" height="0"></rect></g><g class="bar" transform="translate(494.00000000000006,310)"><rect x="1" width="11.999999999999996" height="0"></rect></g><g class="bar" transform="translate(507.00000000000006,310)"><rect x="1" width="11.999999999999996" height="0"></rect></g><g class="axis axis--x" transform="translate(0,310)" fill="none" font-size="10" font-family="sans-serif" text-anchor="middle"><path class="domain" stroke="#000" d="M0.5,6V0.5H520.5V6"></path><g class="tick" opacity="1" transform="translate(0,0)"><line stroke="#000" y2="6" x1="0.5" x2="0.5"></line><text fill="#000" y="9" x="0.5" dy="0.71em">0.01</text></g><g class="tick" opacity="1" transform="translate(130,0)"><line stroke="#000" y2="6" x1="0.5" x2="0.5"></line><text fill="#000" y="9" x="0.5" dy="0.71em">1</text></g><g class="tick" opacity="1" transform="translate(260,0)"><line stroke="#000" y2="6" x1="0.5" x2="0.5"></line><text fill="#000" y="9" x="0.5" dy="0.71em">100</text></g><g class="tick" opacity="1" transform="translate(390,0)"><line stroke="#000" y2="6" x1="0.5" x2="0.5"></line><text fill="#000" y="9" x="0.5" dy="0.71em">10000</text></g><g class="tick" opacity="1" transform="translate(520,0)"><line stroke="#000" y2="6" x1="0.5" x2="0.5"></line><text fill="#000" y="9" x="0.5" dy="0.71em"></text></g></g><g class="axis axis--y" fill="none" font-size="10" font-family="sans-serif" text-anchor="end"><path class="domain" stroke="#000" d="M-6,310.5H0.5V0.5H-6"></path><g class="tick" opacity="1" transform="translate(0,310)"><line stroke="#000" x2="-6" y1="0.5" y2="0.5"></line><text fill="#000" x="-9" y="0.5" dy="0.32em">0</text></g><g class="tick" opacity="1" transform="translate(0,284.59016393442624)"><line stroke="#000" x2="-6" y1="0.5" y2="0.5"></line><text fill="#000" x="-9" y="0.5" dy="0.32em">10</text></g><g class="tick" opacity="1" transform="translate(0,259.1803278688525)"><line stroke="#000" x2="-6" y1="0.5" y2="0.5"></line><text fill="#000" x="-9" y="0.5" dy="0.32em">20</text></g><g class="tick" opacity="1" transform="translate(0,233.77049180327867)"><line stroke="#000" x2="-6" y1="0.5" y2="0.5"></line><text fill="#000" x="-9" y="0.5" dy="0.32em">30</text></g><g class="tick" opacity="1" transform="translate(0,208.36065573770492)"><line stroke="#000" x2="-6" y1="0.5" y2="0.5"></line><text fill="#000" x="-9" y="0.5" dy="0.32em">40</text></g><g class="tick" opacity="1" transform="translate(0,182.95081967213116)"><line stroke="#000" x2="-6" y1="0.5" y2="0.5"></line><text fill="#000" x="-9" y="0.5" dy="0.32em">50</text></g><g class="tick" opacity="1" transform="translate(0,157.54098360655738)"><line stroke="#000" x2="-6" y1="0.5" y2="0.5"></line><text fill="#000" x="-9" y="0.5" dy="0.32em">60</text></g><g class="tick" opacity="1" transform="translate(0,132.13114754098362)"><line stroke="#000" x2="-6" y1="0.5" y2="0.5"></line><text fill="#000" x="-9" y="0.5" dy="0.32em">70</text></g><g class="tick" opacity="1" transform="translate(0,106.72131147540986)"><line stroke="#000" x2="-6" y1="0.5" y2="0.5"></line><text fill="#000" x="-9" y="0.5" dy="0.32em">80</text></g><g class="tick" opacity="1" transform="translate(0,81.31147540983605)"><line stroke="#000" x2="-6" y1="0.5" y2="0.5"></line><text fill="#000" x="-9" y="0.5" dy="0.32em">90</text></g><g class="tick" opacity="1" transform="translate(0,55.90163934426229)"><line stroke="#000" x2="-6" y1="0.5" y2="0.5"></line><text fill="#000" x="-9" y="0.5" dy="0.32em">100</text></g><g class="tick" opacity="1" transform="translate(0,30.491803278688508)"><line stroke="#000" x2="-6" y1="0.5" y2="0.5"></line><text fill="#000" x="-9" y="0.5" dy="0.32em">110</text></g><g class="tick" opacity="1" transform="translate(0,5.081967213114751)"><line stroke="#000" x2="-6" y1="0.5" y2="0.5"></line><text fill="#000" x="-9" y="0.5" dy="0.32em">120</text></g></g></g></svg>