<svg xmlns="http://www.w3.org/2000/svg" width="280" height="160"><defs><style type="text/css"><![CDATA[ 
.bar rect {
  fill-opacity: 0;
  stroke:       black;
  stroke-width: 0.5;
}

.highlight rect {
  fill:       red;
  fill-opacity: 1;
}
.axis path,
.axis line {
  fill: none;
  stroke: #000;
  shape-rendering: crispEdges;
}
 ]]></style></defs><g transform="translate(50,10)"><g class="bar" transform="translate(0,120)"><rect x="1" width="11.5" height="0"></rect></g><g class="bar" transform="translate(12.5,119.55555555555556)"><rect x="1" width="11.5" height="0.44444444444444287"></rect></g><g class="bar" transform="translate(25,118.66666666666667)"><rect x="1" width="11.5" height="1.3333333333333286"></rect></g><g class="bar" transform="translate(37.5,118.22222222222223)"><rect x="1" width="11.5" height="1.7777777777777715"></rect></g><g class="bar" transform="translate(50,108)"><rect x="1" width="11.5" height="12"></rect></g><g class="bar" transform="translate(62.5,78.66666666666666)"><rect x="1" width="11.5" height="41.33333333333334"></rect></g><g class="bar" transform="translate(75,52)"><rect x="1" width="11.5" height="68"></rect></g><g class="bar" transform="translate(87.5,16)"><rect x="1" width="11.5" height="104"></rect></g><g class="bar" transform="translate(100,0)"><rect x="1" width="11.5" height="120"></rect></g><g class="bar" transform="translate(112.5,4)"><rect x="1" width="11.5" height="116"></rect></g><g class="bar" transform="translate(125,63.11111111111111)"><rect x="1" width="11.5" height="56.88888888888889"></rect></g><g class="bar" transform="translate(137.5,87.55555555555556)"><rect x="1" width="11.5" height="32.44444444444444"></rect></g><g class="bar" transform="translate(150,116)"><rect x="1" width="11.5" height="4"></rect></g><g class="bar" transform="translate(162.5,119.11111111111111)"><rect x="1" width="11.5" height="0.8888888888888857"></rect></g><g class="bar" transform="translate(175,120)"><rect x="1" width="11.5" height="0"></rect></g><g class="bar" transform="translate(187.5,120)"><rect x="1" width="11.5" height="0"></rect></g></g></svg>