<svg xmlns="http://www.w3.org/2000/svg" width="600" height="350"><defs><style type="text/css"><![CDATA[ 
.bar rect {
  fill-opacity: 0;
  stroke:       black;
  stroke-width: 0.5;
}

.highlight rect {
  fill:       red;
  fill-opacity: 1;
}
.axis path,
.axis line {
  fill: none;
  stroke: #000;
  shape-rendering: crispEdges;
}
 ]]></style></defs><g transform="translate(50,10)"><g class="bar" transform="translate(0,279)"><rect x="1" width="11.999999999999996" height="31"></rect></g><g class="bar" transform="translate(12.999999999999996,252.02597402597402)"><rect x="1" width="11.999999999999996" height="57.97402597402598"></rect></g><g class="bar" transform="translate(25.999999999999993,239.94805194805195)"><rect x="1" width="11.999999999999996" height="70.05194805194805"></rect></g><g class="bar" transform="translate(39.00000000000001,210.15584415584414)"><rect x="1" width="11.999999999999996" height="99.84415584415586"></rect></g><g class="bar" transform="translate(52,204.5194805194805)"><rect x="1" width="11.999999999999996" height="105.48051948051949"></rect></g><g class="bar" transform="translate(65,152.987012987013)"><rect x="1" width="11.999999999999996" height="157.012987012987"></rect></g><g class="bar" transform="translate(78.00000000000001,154.5974025974026)"><rect x="1" width="11.999999999999996" height="155.4025974025974"></rect></g><g class="bar" transform="translate(91.00000000000001,151.77922077922076)"><rect x="1" width="11.999999999999996" height="158.22077922077924"></rect></g><g class="bar" transform="translate(104,140.5064935064935)"><rect x="1" width="11.999999999999996" height="169.4935064935065"></rect></g><g class="bar" transform="translate(117,136.48051948051946)"><rect x="1" width="11.999999999999996" height="173.51948051948054"></rect></g><g class="bar" transform="translate(130,124.4025974025974)"><rect x="1" width="11.999999999999996" height="185.5974025974026"></rect></g><g class="bar" transform="translate(143,108.7012987012987)"><rect x="1" width="11.999999999999996" height="201.2987012987013"></rect></g><g class="bar" transform="translate(156.00000000000003,97.42857142857142)"><rect x="1" width="11.999999999999996" height="212.57142857142858"></rect></g><g class="bar" transform="translate(169,101.05194805194807)"><rect x="1" width="11.999999999999996" height="208.94805194805193"></rect></g><g class="bar" transform="translate(182.00000000000003,46.7012987012987)"><rect x="1" width="11.999999999999996" height="263.2987012987013"></rect></g><g class="bar" transform="translate(195,53.948051948051955)"><rect x="1" width="11.999999999999996" height="256.05194805194805"></rect></g><g class="bar" transform="translate(208,12.48051948051949)"><rect x="1" width="11.999999999999996" height="297.5194805194805"></rect></g><g class="bar" transform="translate(221.00000000000003,0)"><rect x="1" width="11.999999999999996" height="310"></rect></g><g class="bar" transform="translate(234,21.740259740259773)"><rect x="1" width="11.999999999999996" height="288.2597402597402"></rect></g><g class="bar" transform="translate(247.00000000000003,41.06493506493507)"><rect x="1" width="11.999999999999996" height="268.93506493506493"></rect></g><g class="bar" transform="translate(260,93)"><rect x="1" width="11.999999999999996" height="217"></rect></g><g class="bar" transform="translate(273,140.10389610389612)"><rect x="1" width="11.999999999999996" height="169.89610389610388"></rect></g><g class="bar" transform="translate(286,187.6103896103896)"><rect x="1" width="11.999999999999996" height="122.3896103896104"></rect></g><g class="bar" transform="translate(299.00000000000006,220.2207792207792)"><rect x="1" width="11.999999999999996" height="89.7792207792208"></rect></g><g class="bar" transform="translate(312.00000000000006,259.27272727272725)"><rect x="1" width="11.999999999999996" height="50.72727272727275"></rect></g><g class="bar" transform="translate(325,277.38961038961037)"><rect x="1" width="11.999999999999996" height="32.61038961038963"></rect></g><g class="bar" transform="translate(338,283.42857142857144)"><rect x="1" width="11.999999999999996" height="26.571428571428555"></rect></g><g class="bar" transform="translate(351,297.1168831168831)"><rect x="1" width="11.999999999999996" height="12.883116883116884"></rect></g><g class="bar" transform="translate(364.00000000000006,305.97402597402595)"><rect x="1" width="11.999999999999996" height="4.025974025974051"></rect></g><g class="bar" transform="translate(377.00000000000006,308.7922077922078)"><rect x="1" width="11.999999999999996" height="1.2077922077921812"></rect></g><g class="bar" transform="translate(390,310)"><rect x="1" width="11.999999999999996" height="0"></rect></g><g class="bar" transform="translate(403,310)"><rect x="1" width="11.999999999999996" height="0"></rect></g><g class="bar" transform="translate(416,310)"><rect x="1" width="11.999999999999996" height="0"></rect></g><g class="bar" transform="translate(429.00000000000006,310)"><rect x="1" width="11.999999999999996" height="0"></rect></g><g class="bar" transform="translate(442.00000000000006,310)"><rect x="1" width="11.999999999999996" height="0"></rect></g><g class="bar" transform="translate(455,310)"><rect x="1" width="11.999999999999996" height="0"></rect></g><g class="bar" transform="translate(468,310)"><rect x="1" width="11.999999999999996" height="0"></rect></g><g class="bar" transform="translate(481,310)"><rect x="1" width="11.999999999999996" height="0"></rect></g><g class="bar" transform="translate(494.00000000000006,310)"><rect x="1" width="11.999999999999996" height="0"></rect></g><g class="bar" transform="translate(507.00000000000006,310)"><rect x="1" width="11.999999999999996" height="0"></rect></g><g class="axis axis--x" transform="translate(0,310)" fill="none" font-size="10" font-family="sans-serif" text-anchor="middle"><path class="domain" stroke="#000" d="M0.5,6V0.5H520.5V6"></path><g class="tick" opacity="1" transform="translate(0,0)"><line stroke="#000" y2="6" x1="0.5" x2="0.5"></line><text fill="#000" y="9" x="0.5" dy="0.71em">0.01</text></g><g class="tick" opacity="1" transform="translate(130,0)"><line stroke="#000" y2="6" x1="0.5" x2="0.5"></line><text fill="#000" y="9" x="0.5" dy="0.71em">1</text></g><g class="tick" opacity="1" transform="translate(260,0)"><line stroke="#000" y2="6" x1="0.5" x2="0.5"></line><text fill="#000" y="9" x="0.5" dy="0.71em">100</text></g><g class="tick" opacity="1" transform="translate(390,0)"><line stroke="#000" y2="6" x1="0.5" x2="0.5"></line><text fill="#000" y="9" x="0.5" dy="0.71em">10000</text></g><g class="tick" opacity="1" transform="translate(520,0)"><line stroke="#000" y2="6" x1="0.5" x2="0.5"></line><text fill="#000" y="9" x="0.5" dy="0.71em"></text></g></g><g class="axis axis--y" fill="none" font-size="10" font-family="sans-serif" text-anchor="end"><path class="domain" stroke="#000" d="M-6,310.5H0.5V0.5H-6"></path><g class="tick" opacity="1" transform="translate(0,310)"><line stroke="#000" x2="-6" y1="0.5" y2="0.5"></line><text fill="#000" x="-9" y="0.5" dy="0.32em">0</text></g><g class="tick" opacity="1" transform="translate(0,269.7402597402597)"><line stroke="#000" x2="-6" y1="0.5" y2="0.5"></line><text fill="#000" x="-9" y="0.5" dy="0.32em">100</text></g><g class="tick" opacity="1" transform="translate(0,229.4805194805195)"><line stroke="#000" x2="-6" y1="0.5" y2="0.5"></line><text fill="#000" x="-9" y="0.5" dy="0.32em">200</text></g><g class="tick" opacity="1" transform="translate(0,189.2207792207792)"><line stroke="#000" x2="-6" y1="0.5" y2="0.5"></line><text fill="#000" x="-9" y="0.5" dy="0.32em">300</text></g><g class="tick" opacity="1" transform="translate(0,148.96103896103898)"><line stroke="#000" x2="-6" y1="0.5" y2="0.5"></line><text fill="#000" x="-9" y="0.5" dy="0.32em">400</text></g><g class="tick" opacity="1" transform="translate(0,108.7012987012987)"><line stroke="#000" x2="-6" y1="0.5" y2="0.5"></line><text fill="#000" x="-9" y="0.5" dy="0.32em">500</text></g><g class="tick" opacity="1" transform="translate(0,68.44155844155844)"><line stroke="#000" x2="-6" y1="0.5" y2="0.5"></line><text fill="#000" x="-9" y="0.5" dy="0.32em">600</text></g><g class="tick" opacity="1" transform="translate(0,28.181818181818187)"><line stroke="#000" x2="-6" y1="0.5" y2="0.5"></line><text fill="#000" x="-9" y="0.5" dy="0.32em">700</text></g></g></g></svg>