<svg xmlns="http://www.w3.org/2000/svg" width="280" height="160"><defs><style type="text/css"><![CDATA[ 
.bar rect {
  fill-opacity: 0;
  stroke:       black;
  stroke-width: 0.5;
}

.highlight rect {
  fill:       red;
  fill-opacity: 1;
}
.axis path,
.axis line {
  fill: none;
  stroke: #000;
  shape-rendering: crispEdges;
}
 ]]></style></defs><g transform="translate(50,10)"><g class="bar" transform="translate(0,120)"><rect x="1" width="11.5" height="0"></rect></g><g class="bar" transform="translate(12.5,120)"><rect x="1" width="11.5" height="0"></rect></g><g class="bar" transform="translate(25,120)"><rect x="1" width="11.5" height="0"></rect></g><g class="bar" transform="translate(37.5,120)"><rect x="1" width="11.5" height="0"></rect></g><g class="bar" transform="translate(50,101.08695652173913)"><rect x="1" width="11.5" height="18.913043478260875"></rect></g><g class="bar" transform="translate(62.5,34.89130434782609)"><rect x="1" width="11.5" height="85.1086956521739"></rect></g><g class="bar" transform="translate(75,8.478260869565219)"><rect x="1" width="11.5" height="111.52173913043478"></rect></g><g class="bar" transform="translate(87.5,0)"><rect x="1" width="11.5" height="120"></rect></g><g class="bar" transform="translate(100,24.456521739130437)"><rect x="1" width="11.5" height="95.54347826086956"></rect></g><g class="bar" transform="translate(112.5,54.45652173913044)"><rect x="1" width="11.5" height="65.54347826086956"></rect></g><g class="bar" transform="translate(125,87.71739130434783)"><rect x="1" width="11.5" height="32.28260869565217"></rect></g><g class="bar" transform="translate(137.5,107.93478260869566)"><rect x="1" width="11.5" height="12.065217391304344"></rect></g><g class="bar" transform="translate(150,115.43478260869566)"><rect x="1" width="11.5" height="4.565217391304344"></rect></g><g class="bar" transform="translate(162.5,118.69565217391305)"><rect x="1" width="11.5" height="1.3043478260869534"></rect></g><g class="bar" transform="translate(175,120)"><rect x="1" width="11.5" height="0"></rect></g><g class="bar" transform="translate(187.5,120)"><rect x="1" width="11.5" height="0"></rect></g></g></svg>