<svg xmlns="http://www.w3.org/2000/svg" width="600" height="350"><defs><style type="text/css"><![CDATA[ 
.bar rect {
  fill-opacity: 0;
  stroke:       black;
  stroke-width: 0.5;
}

.highlight rect {
  fill:       red;
  fill-opacity: 1;
}
.axis path,
.axis line {
  fill: none;
  stroke: #000;
  shape-rendering: crispEdges;
}
path {
    stroke: red;
    fill: none;
}

line {
    stroke: red;
}

path.marker {
    fill: red;
}
 ]]></style></defs><g transform="translate(50,10)"><g class="bar" transform="translate(0,310)"><rect x="1" width="11.999999999999996" height="0"></rect></g><g class="bar" transform="translate(12.999999999999996,305.8013544018059)"><rect x="1" width="11.999999999999996" height="4.198645598194105"></rect></g><g class="bar" transform="translate(25.999999999999993,302.3024830699774)"><rect x="1" width="11.999999999999996" height="7.697516930022573"></rect></g><g class="bar" transform="translate(39.00000000000001,306.50112866817153)"><rect x="1" width="11.999999999999996" height="3.498871331828468"></rect></g><g class="bar" transform="translate(52,307.2009029345372)"><rect x="1" width="11.999999999999996" height="2.7990970654627745"></rect></g><g class="bar" transform="translate(65,307.2009029345372)"><rect x="1" width="11.999999999999996" height="2.7990970654627745"></rect></g><g class="bar" transform="translate(78.00000000000001,301.60270880361173)"><rect x="1" width="11.999999999999996" height="8.397291196388267"></rect></g><g class="bar" transform="translate(91.00000000000001,278.510158013544)"><rect x="1" width="11.999999999999996" height="31.489841986455986"></rect></g><g class="bar" transform="translate(104,244.92099322799095)"><rect x="1" width="11.999999999999996" height="65.07900677200905"></rect></g><g class="bar" transform="translate(117,204.33408577878106)"><rect x="1" width="11.999999999999996" height="105.66591422121894"></rect></g><g class="bar" transform="translate(130,148.35214446952597)"><rect x="1" width="11.999999999999996" height="161.64785553047403"></rect></g><g class="bar" transform="translate(143,86.77200902934538)"><rect x="1" width="11.999999999999996" height="223.22799097065462"></rect></g><g class="bar" transform="translate(156.00000000000003,49.68397291196385)"><rect x="1" width="11.999999999999996" height="260.31602708803615"></rect></g><g class="bar" transform="translate(169,20.293453724605)"><rect x="1" width="11.999999999999996" height="289.706546275395"></rect></g><g class="bar" transform="translate(182.00000000000003,11.896162528216678)"><rect x="1" width="11.999999999999996" height="298.1038374717833"></rect></g><g class="bar" transform="translate(195,0)"><rect x="1" width="11.999999999999996" height="310"></rect></g><g class="bar" transform="translate(208,15.395033860045146)"><rect x="1" width="11.999999999999996" height="294.60496613995485"></rect></g><g class="bar" transform="translate(221.00000000000003,20.993227990970638)"><rect x="1" width="11.999999999999996" height="289.00677200902936"></rect></g><g class="bar" transform="translate(234,37.78781038374717)"><rect x="1" width="11.999999999999996" height="272.21218961625283"></rect></g><g class="bar" transform="translate(247.00000000000003,78.37471783295712)"><rect x="1" width="11.999999999999996" height="231.62528216704288"></rect></g><g class="bar" transform="translate(260,134.35665914221218)"><rect x="1" width="11.999999999999996" height="175.64334085778782"></rect></g><g class="bar" transform="translate(273,170.0451467268623)"><rect x="1" width="11.999999999999996" height="139.9548532731377"></rect></g><g class="bar" transform="translate(286,208.53273137697516)"><rect x="1" width="11.999999999999996" height="101.46726862302484"></rect></g><g class="bar" transform="translate(299.00000000000006,216.93002257336343)"><rect x="1" width="11.999999999999996" height="93.06997742663657"></rect></g><g class="bar" transform="translate(312.00000000000006,259.6162528216704)"><rect x="1" width="11.999999999999996" height="50.3837471783296"></rect></g><g class="bar" transform="translate(325,241.42212189616254)"><rect x="1" width="11.999999999999996" height="68.57787810383746"></rect></g><g class="bar" transform="translate(338,255.4176072234763)"><rect x="1" width="11.999999999999996" height="54.582392776523704"></rect></g><g class="bar" transform="translate(351,254.7178329571106)"><rect x="1" width="11.999999999999996" height="55.2821670428894"></rect></g><g class="bar" transform="translate(364.00000000000006,302.3024830699774)"><rect x="1" width="11.999999999999996" height="7.697516930022573"></rect></g><g class="bar" transform="translate(377.00000000000006,308.6004514672686)"><rect x="1" width="11.999999999999996" height="1.3995485327313872"></rect></g><g class="bar" transform="translate(390,308.6004514672686)"><rect x="1" width="11.999999999999996" height="1.3995485327313872"></rect></g><g class="bar" transform="translate(403,308.6004514672686)"><rect x="1" width="11.999999999999996" height="1.3995485327313872"></rect></g><g class="bar" transform="translate(416,310)"><rect x="1" width="11.999999999999996" height="0"></rect></g><g class="bar" transform="translate(429.00000000000006,310)"><rect x="1" width="11.999999999999996" height="0"></rect></g><g class="bar" transform="translate(442.00000000000006,310)"><rect x="1" width="11.999999999999996" height="0"></rect></g><g class="bar" transform="translate(455,310)"><rect x="1" width="11.999999999999996" height="0"></rect></g><g class="bar" transform="translate(468,310)"><rect x="1" width="11.999999999999996" height="0"></rect></g><g class="bar" transform="translate(481,310)"><rect x="1" width="11.999999999999996" height="0"></rect></g><g class="bar" transform="translate(494.00000000000006,310)"><rect x="1" width="11.999999999999996" height="0"></rect></g><g class="bar" transform="translate(507.00000000000006,310)"><rect x="1" width="11.999999999999996" height="0"></rect></g><g class="axis axis--x" transform="translate(0,310)" fill="none" font-size="10" font-family="sans-serif" text-anchor="middle"><path class="domain" stroke="#000" d="M0.5,6V0.5H520.5V6"></path><g class="tick" opacity="1" transform="translate(0.5,0)"><line stroke="#000" y2="6"></line><text fill="#000" y="9" dy="0.71em">0.01</text></g><g class="tick" opacity="1" transform="translate(130.5,0)"><line stroke="#000" y2="6"></line><text fill="#000" y="9" dy="0.71em">1</text></g><g class="tick" opacity="1" transform="translate(260.5,0)"><line stroke="#000" y2="6"></line><text fill="#000" y="9" dy="0.71em">100</text></g><g class="tick" opacity="1" transform="translate(390.5,0)"><line stroke="#000" y2="6"></line><text fill="#000" y="9" dy="0.71em">10000</text></g><g class="tick" opacity="1" transform="translate(520.5,0)"><line stroke="#000" y2="6"></line><text fill="#000" y="9" dy="0.71em"></text></g></g><g class="axis axis--y" fill="none" font-size="10" font-family="sans-serif" text-anchor="end"><path class="domain" stroke="#000" d="M-6,310.5H0.5V0.5H-6"></path><g class="tick" opacity="1" transform="translate(0,310.5)"><line stroke="#000" x2="-6"></line><text fill="#000" x="-9" dy="0.32em">0</text></g><g class="tick" opacity="1" transform="translate(0,275.51128668171555)"><line stroke="#000" x2="-6"></line><text fill="#000" x="-9" dy="0.32em">50</text></g><g class="tick" opacity="1" transform="translate(0,240.52257336343115)"><line stroke="#000" x2="-6"></line><text fill="#000" x="-9" dy="0.32em">100</text></g><g class="tick" opacity="1" transform="translate(0,205.53386004514672)"><line stroke="#000" x2="-6"></line><text fill="#000" x="-9" dy="0.32em">150</text></g><g class="tick" opacity="1" transform="translate(0,170.5451467268623)"><line stroke="#000" x2="-6"></line><text fill="#000" x="-9" dy="0.32em">200</text></g><g class="tick" opacity="1" transform="translate(0,135.55643340857787)"><line stroke="#000" x2="-6"></line><text fill="#000" x="-9" dy="0.32em">250</text></g><g class="tick" opacity="1" transform="translate(0,100.56772009029345)"><line stroke="#000" x2="-6"></line><text fill="#000" x="-9" dy="0.32em">300</text></g><g class="tick" opacity="1" transform="translate(0,65.57900677200902)"><line stroke="#000" x2="-6"></line><text fill="#000" x="-9" dy="0.32em">350</text></g><g class="tick" opacity="1" transform="translate(0,30.5902934537246)"><line stroke="#000" x2="-6"></line><text fill="#000" x="-9" dy="0.32em">400</text></g></g></g></svg>