<svg xmlns="http://www.w3.org/2000/svg" width="280" height="160"><defs><style type="text/css"><![CDATA[ 
.bar rect {
  fill-opacity: 0;
  stroke:       black;
  stroke-width: 0.5;
}

.highlight rect {
  fill:       red;
  fill-opacity: 1;
}
.axis path,
.axis line {
  fill: none;
  stroke: #000;
  shape-rendering: crispEdges;
}
 ]]></style></defs><g transform="translate(50,10)"><g class="bar" transform="translate(0,107.06814580031696)"><rect x="1" width="11.5" height="12.931854199683045"></rect></g><g class="bar" transform="translate(12.5,112.58320126782884)"><rect x="1" width="11.5" height="7.416798732171159"></rect></g><g class="bar" transform="translate(25,98.8906497622821)"><rect x="1" width="11.5" height="21.109350237717905"></rect></g><g class="bar" transform="translate(37.5,65.80031695721078)"><rect x="1" width="11.5" height="54.19968304278922"></rect></g><g class="bar" transform="translate(50,40.12678288431063)"><rect x="1" width="11.5" height="79.87321711568937"></rect></g><g class="bar" transform="translate(62.5,8.17749603803486)"><rect x="1" width="11.5" height="111.82250396196514"></rect></g><g class="bar" transform="translate(75,0)"><rect x="1" width="11.5" height="120"></rect></g><g class="bar" transform="translate(87.5,3.2329635499207683)"><rect x="1" width="11.5" height="116.76703645007923"></rect></g><g class="bar" transform="translate(100,20.729001584786047)"><rect x="1" width="11.5" height="99.27099841521395"></rect></g><g class="bar" transform="translate(112.5,57.81299524564184)"><rect x="1" width="11.5" height="62.18700475435816"></rect></g><g class="bar" transform="translate(125,81.39461172741679)"><rect x="1" width="11.5" height="38.60538827258321"></rect></g><g class="bar" transform="translate(137.5,110.8716323296355)"><rect x="1" width="11.5" height="9.128367670364497"></rect></g><g class="bar" transform="translate(150,118.85895404120444)"><rect x="1" width="11.5" height="1.1410459587955586"></rect></g><g class="bar" transform="translate(162.5,120)"><rect x="1" width="11.5" height="0"></rect></g><g class="bar" transform="translate(175,120)"><rect x="1" width="11.5" height="0"></rect></g><g class="bar" transform="translate(187.5,120)"><rect x="1" width="11.5" height="0"></rect></g></g></svg>