<svg xmlns="http://www.w3.org/2000/svg" width="280" height="160"><defs><style type="text/css"><![CDATA[ 
.bar rect {
  fill-opacity: 0;
  stroke:       black;
  stroke-width: 0.5;
}

.highlight rect {
  fill:       red;
  fill-opacity: 1;
}
.axis path,
.axis line {
  fill: none;
  stroke: #000;
  shape-rendering: crispEdges;
}
 ]]></style></defs><g transform="translate(50,10)"><g class="bar" transform="translate(0,120)"><rect x="1" width="11.5" height="0"></rect></g><g class="bar" transform="translate(12.5,120)"><rect x="1" width="11.5" height="0"></rect></g><g class="bar" transform="translate(25,120)"><rect x="1" width="11.5" height="0"></rect></g><g class="bar" transform="translate(37.5,120)"><rect x="1" width="11.5" height="0"></rect></g><g class="bar" transform="translate(50,120)"><rect x="1" width="11.5" height="0"></rect></g><g class="bar" transform="translate(62.5,118.77049180327869)"><rect x="1" width="11.5" height="1.2295081967213122"></rect></g><g class="bar" transform="translate(75,74.01639344262296)"><rect x="1" width="11.5" height="45.983606557377044"></rect></g><g class="bar" transform="translate(87.5,0)"><rect x="1" width="11.5" height="120"></rect></g><g class="bar" transform="translate(100,0.7377049180327901)"><rect x="1" width="11.5" height="119.26229508196721"></rect></g><g class="bar" transform="translate(112.5,22.131147540983605)"><rect x="1" width="11.5" height="97.8688524590164"></rect></g><g class="bar" transform="translate(125,75)"><rect x="1" width="11.5" height="45"></rect></g><g class="bar" transform="translate(137.5,107.45901639344262)"><rect x="1" width="11.5" height="12.540983606557376"></rect></g><g class="bar" transform="translate(150,119.01639344262296)"><rect x="1" width="11.5" height="0.983606557377044"></rect></g><g class="bar" transform="translate(162.5,119.75409836065573)"><rect x="1" width="11.5" height="0.24590163934426812"></rect></g><g class="bar" transform="translate(175,120)"><rect x="1" width="11.5" height="0"></rect></g><g class="bar" transform="translate(187.5,120)"><rect x="1" width="11.5" height="0"></rect></g></g></svg>