<svg xmlns="http://www.w3.org/2000/svg" width="280" height="160"><defs><style type="text/css"><![CDATA[ 
.bar rect {
  fill-opacity: 0;
  stroke:       black;
  stroke-width: 0.5;
}

.highlight rect {
  fill:       red;
  fill-opacity: 1;
}
.axis path,
.axis line {
  fill: none;
  stroke: #000;
  shape-rendering: crispEdges;
}
path {
    stroke: red;
    fill: none;
}

line {
    stroke: red;
}

path.marker {
    fill: red;
}
 ]]></style></defs><g transform="translate(50,10)"><g class="bar" transform="translate(0,120)"><rect x="1" width="11.5" height="0"></rect></g><g class="bar" transform="translate(12.5,118.29988193624557)"><rect x="1" width="11.5" height="1.7001180637544309"></rect></g><g class="bar" transform="translate(25,108.80755608028335)"><rect x="1" width="11.5" height="11.192443919716652"></rect></g><g class="bar" transform="translate(37.5,98.32349468713105)"><rect x="1" width="11.5" height="21.676505312868954"></rect></g><g class="bar" transform="translate(50,72.39669421487604)"><rect x="1" width="11.5" height="47.603305785123965"></rect></g><g class="bar" transform="translate(62.5,31.735537190082653)"><rect x="1" width="11.5" height="88.26446280991735"></rect></g><g class="bar" transform="translate(75,11.192443919716652)"><rect x="1" width="11.5" height="108.80755608028335"></rect></g><g class="bar" transform="translate(87.5,0)"><rect x="1" width="11.5" height="120"></rect></g><g class="bar" transform="translate(100,31.59386068476978)"><rect x="1" width="11.5" height="88.40613931523022"></rect></g><g class="bar" transform="translate(112.5,77.35537190082644)"><rect x="1" width="11.5" height="42.64462809917356"></rect></g><g class="bar" transform="translate(125,101.2987012987013)"><rect x="1" width="11.5" height="18.701298701298697"></rect></g><g class="bar" transform="translate(137.5,114.89964580873672)"><rect x="1" width="11.5" height="5.100354191263278"></rect></g><g class="bar" transform="translate(150,117.87485242030696)"><rect x="1" width="11.5" height="2.125147579693035"></rect></g><g class="bar" transform="translate(162.5,120)"><rect x="1" width="11.5" height="0"></rect></g><g class="bar" transform="translate(175,120)"><rect x="1" width="11.5" height="0"></rect></g><g class="bar" transform="translate(187.5,120)"><rect x="1" width="11.5" height="0"></rect></g></g></svg>