<svg xmlns="http://www.w3.org/2000/svg" width="600" height="350"><defs><style type="text/css"><![CDATA[ 
.bar rect {
  fill-opacity: 0;
  stroke:       black;
  stroke-width: 0.5;
}

.highlight rect {
  fill:       red;
  fill-opacity: 1;
}
.axis path,
.axis line {
  fill: none;
  stroke: #000;
  shape-rendering: crispEdges;
}
 ]]></style></defs><g transform="translate(50,10)"><g class="bar" transform="translate(0,310)"><rect x="1" width="11.999999999999996" height="0"></rect></g><g class="bar" transform="translate(12.999999999999996,310)"><rect x="1" width="11.999999999999996" height="0"></rect></g><g class="bar" transform="translate(25.999999999999993,310)"><rect x="1" width="11.999999999999996" height="0"></rect></g><g class="bar" transform="translate(39.00000000000001,310)"><rect x="1" width="11.999999999999996" height="0"></rect></g><g class="bar" transform="translate(52,309.602053915276)"><rect x="1" width="11.999999999999996" height="0.39794608472402615"></rect></g><g class="bar" transform="translate(65,303.6328626444159)"><rect x="1" width="11.999999999999996" height="6.367137355584077"></rect></g><g class="bar" transform="translate(78.00000000000001,296.8677792041078)"><rect x="1" width="11.999999999999996" height="13.13222079589218"></rect></g><g class="bar" transform="translate(91.00000000000001,263.8382541720154)"><rect x="1" width="11.999999999999996" height="46.16174582798459"></rect></g><g class="bar" transform="translate(104,211.30937098844672)"><rect x="1" width="11.999999999999996" height="98.69062901155328"></rect></g><g class="bar" transform="translate(117,166.73940949935815)"><rect x="1" width="11.999999999999996" height="143.26059050064185"></rect></g><g class="bar" transform="translate(130,157.18870346598203)"><rect x="1" width="11.999999999999996" height="152.81129653401797"></rect></g><g class="bar" transform="translate(143,143.65853658536585)"><rect x="1" width="11.999999999999996" height="166.34146341463415"></rect></g><g class="bar" transform="translate(156.00000000000003,132.51604621309372)"><rect x="1" width="11.999999999999996" height="177.48395378690628"></rect></g><g class="bar" transform="translate(169,92.72143774069318)"><rect x="1" width="11.999999999999996" height="217.27856225930682"></rect></g><g class="bar" transform="translate(182.00000000000003,46.957637997432585)"><rect x="1" width="11.999999999999996" height="263.0423620025674"></rect></g><g class="bar" transform="translate(195,0)"><rect x="1" width="11.999999999999996" height="310"></rect></g><g class="bar" transform="translate(208,17.111681643132215)"><rect x="1" width="11.999999999999996" height="292.8883183568678"></rect></g><g class="bar" transform="translate(221.00000000000003,15.917843388960193)"><rect x="1" width="11.999999999999996" height="294.0821566110398"></rect></g><g class="bar" transform="translate(234,47.35558408215661)"><rect x="1" width="11.999999999999996" height="262.6444159178434"></rect></g><g class="bar" transform="translate(247.00000000000003,75.21181001283699)"><rect x="1" width="11.999999999999996" height="234.788189987163"></rect></g><g class="bar" transform="translate(260,112.22079589216943)"><rect x="1" width="11.999999999999996" height="197.77920410783057"></rect></g><g class="bar" transform="translate(273,163.5558408215661)"><rect x="1" width="11.999999999999996" height="146.4441591784339"></rect></g><g class="bar" transform="translate(286,203.35044929396662)"><rect x="1" width="11.999999999999996" height="106.64955070603338"></rect></g><g class="bar" transform="translate(299.00000000000006,239.9614890885751)"><rect x="1" width="11.999999999999996" height="70.03851091142491"></rect></g><g class="bar" transform="translate(312.00000000000006,256.2772785622593)"><rect x="1" width="11.999999999999996" height="53.72272143774069"></rect></g><g class="bar" transform="translate(325,281.7458279845956)"><rect x="1" width="11.999999999999996" height="28.25417201540438"></rect></g><g class="bar" transform="translate(338,289.3068035943517)"><rect x="1" width="11.999999999999996" height="20.69319640564828"></rect></g><g class="bar" transform="translate(351,299.6534017971759)"><rect x="1" width="11.999999999999996" height="10.346598202824111"></rect></g><g class="bar" transform="translate(364.00000000000006,302.8369704749679)"><rect x="1" width="11.999999999999996" height="7.163029525032073"></rect></g><g class="bar" transform="translate(377.00000000000006,308.40821566110395)"><rect x="1" width="11.999999999999996" height="1.5917843388960478"></rect></g><g class="bar" transform="translate(390,309.602053915276)"><rect x="1" width="11.999999999999996" height="0.39794608472402615"></rect></g><g class="bar" transform="translate(403,309.602053915276)"><rect x="1" width="11.999999999999996" height="0.39794608472402615"></rect></g><g class="bar" transform="translate(416,309.602053915276)"><rect x="1" width="11.999999999999996" height="0.39794608472402615"></rect></g><g class="bar" transform="translate(429.00000000000006,310)"><rect x="1" width="11.999999999999996" height="0"></rect></g><g class="bar" transform="translate(442.00000000000006,310)"><rect x="1" width="11.999999999999996" height="0"></rect></g><g class="bar" transform="translate(455,310)"><rect x="1" width="11.999999999999996" height="0"></rect></g><g class="bar" transform="translate(468,310)"><rect x="1" width="11.999999999999996" height="0"></rect></g><g class="bar" transform="translate(481,310)"><rect x="1" width="11.999999999999996" height="0"></rect></g><g class="bar" transform="translate(494.00000000000006,310)"><rect x="1" width="11.999999999999996" height="0"></rect></g><g class="bar" transform="translate(507.00000000000006,310)"><rect x="1" width="11.999999999999996" height="0"></rect></g><g class="axis axis--x" transform="translate(0,310)" fill="none" font-size="10" font-family="sans-serif" text-anchor="middle"><path class="domain" stroke="#000" d="M0.5,6V0.5H520.5V6"></path><g class="tick" opacity="1" transform="translate(0,0)"><line stroke="#000" y2="6" x1="0.5" x2="0.5"></line><text fill="#000" y="9" x="0.5" dy="0.71em">0.01</text></g><g class="tick" opacity="1" transform="translate(130,0)"><line stroke="#000" y2="6" x1="0.5" x2="0.5"></line><text fill="#000" y="9" x="0.5" dy="0.71em">1</text></g><g class="tick" opacity="1" transform="translate(260,0)"><line stroke="#000" y2="6" x1="0.5" x2="0.5"></line><text fill="#000" y="9" x="0.5" dy="0.71em">100</text></g><g class="tick" opacity="1" transform="translate(390,0)"><line stroke="#000" y2="6" x1="0.5" x2="0.5"></line><text fill="#000" y="9" x="0.5" dy="0.71em">10000</text></g><g class="tick" opacity="1" transform="translate(520,0)"><line stroke="#000" y2="6" x1="0.5" x2="0.5"></line><text fill="#000" y="9" x="0.5" dy="0.71em"></text></g></g><g class="axis axis--y" fill="none" font-size="10" font-family="sans-serif" text-anchor="end"><path class="domain" stroke="#000" d="M-6,310.5H0.5V0.5H-6"></path><g class="tick" opacity="1" transform="translate(0,310)"><line stroke="#000" x2="-6" y1="0.5" y2="0.5"></line><text fill="#000" x="-9" y="0.5" dy="0.32em">0</text></g><g class="tick" opacity="1" transform="translate(0,270.2053915275995)"><line stroke="#000" x2="-6" y1="0.5" y2="0.5"></line><text fill="#000" x="-9" y="0.5" dy="0.32em">100</text></g><g class="tick" opacity="1" transform="translate(0,230.41078305519898)"><line stroke="#000" x2="-6" y1="0.5" y2="0.5"></line><text fill="#000" x="-9" y="0.5" dy="0.32em">200</text></g><g class="tick" opacity="1" transform="translate(0,190.61617458279846)"><line stroke="#000" x2="-6" y1="0.5" y2="0.5"></line><text fill="#000" x="-9" y="0.5" dy="0.32em">300</text></g><g class="tick" opacity="1" transform="translate(0,150.82156611039795)"><line stroke="#000" x2="-6" y1="0.5" y2="0.5"></line><text fill="#000" x="-9" y="0.5" dy="0.32em">400</text></g><g class="tick" opacity="1" transform="translate(0,111.02695763799741)"><line stroke="#000" x2="-6" y1="0.5" y2="0.5"></line><text fill="#000" x="-9" y="0.5" dy="0.32em">500</text></g><g class="tick" opacity="1" transform="translate(0,71.23234916559693)"><line stroke="#000" x2="-6" y1="0.5" y2="0.5"></line><text fill="#000" x="-9" y="0.5" dy="0.32em">600</text></g><g class="tick" opacity="1" transform="translate(0,31.437740693196417)"><line stroke="#000" x2="-6" y1="0.5" y2="0.5"></line><text fill="#000" x="-9" y="0.5" dy="0.32em">700</text></g></g></g></svg>