<svg xmlns="http://www.w3.org/2000/svg" width="600" height="350"><defs><style type="text/css"><![CDATA[ 
.bar rect {
  fill-opacity: 0;
  stroke:       black;
  stroke-width: 0.5;
}

.highlight rect {
  fill:       red;
  fill-opacity: 1;
}
.axis path,
.axis line {
  fill: none;
  stroke: #000;
  shape-rendering: crispEdges;
}
path {
    stroke: red;
    fill: none;
}

line {
    stroke: red;
}

path.marker {
    fill: red;
}
 ]]></style></defs><g transform="translate(50,10)"><g class="bar" transform="translate(0,284.28909952606637)"><rect x="1" width="31.5" height="25.710900473933634"></rect></g><g class="bar" transform="translate(32.5,239.478672985782)"><rect x="1" width="31.5" height="70.521327014218"></rect></g><g class="bar" transform="translate(65,166.75355450236967)"><rect x="1" width="31.5" height="143.24644549763033"></rect></g><g class="bar" transform="translate(97.5,249.02843601895734)"><rect x="1" width="31.5" height="60.971563981042664"></rect></g><g class="bar" transform="translate(130,226.2559241706161)"><rect x="1" width="31.5" height="83.74407582938389"></rect></g><g class="bar" transform="translate(162.5,155.7345971563981)"><rect x="1" width="31.5" height="154.2654028436019"></rect></g><g class="bar" transform="translate(195,53.625592417061625)"><rect x="1" width="31.5" height="256.3744075829384"></rect></g><g class="bar" transform="translate(227.5,0)"><rect x="1" width="31.5" height="310"></rect></g><g class="bar" transform="translate(260,13.222748815165858)"><rect x="1" width="31.5" height="296.77725118483414"></rect></g><g class="bar" transform="translate(292.5,80.80568720379148)"><rect x="1" width="31.5" height="229.19431279620852"></rect></g><g class="bar" transform="translate(325,202.74881516587678)"><rect x="1" width="31.5" height="107.25118483412322"></rect></g><g class="bar" transform="translate(357.5,278.4123222748815)"><rect x="1" width="31.5" height="31.58767772511851"></rect></g><g class="bar" transform="translate(390,301.9194312796209)"><rect x="1" width="31.5" height="8.08056872037912"></rect></g><g class="bar" transform="translate(422.5,308.5308056872038)"><rect x="1" width="31.5" height="1.469194312796219"></rect></g><g class="bar" transform="translate(455,310)"><rect x="1" width="31.5" height="0"></rect></g><g class="bar" transform="translate(487.5,310)"><rect x="1" width="31.5" height="0"></rect></g><g class="axis axis--x" transform="translate(0,310)" fill="none" font-size="10" font-family="sans-serif" text-anchor="middle"><path class="domain" stroke="#000" d="M0.5,6V0.5H520.5V6"></path><g class="tick" opacity="1" transform="translate(0.5,0)"><line stroke="#000" y2="6"></line><text fill="#000" y="9" dy="0.71em">0.01</text></g><g class="tick" opacity="1" transform="translate(130.5,0)"><line stroke="#000" y2="6"></line><text fill="#000" y="9" dy="0.71em">1</text></g><g class="tick" opacity="1" transform="translate(260.5,0)"><line stroke="#000" y2="6"></line><text fill="#000" y="9" dy="0.71em">100</text></g><g class="tick" opacity="1" transform="translate(390.5,0)"><line stroke="#000" y2="6"></line><text fill="#000" y="9" dy="0.71em">10000</text></g><g class="tick" opacity="1" transform="translate(520.5,0)"><line stroke="#000" y2="6"></line><text fill="#000" y="9" dy="0.71em"></text></g></g><g class="axis axis--y" fill="none" font-size="10" font-family="sans-serif" text-anchor="end"><path class="domain" stroke="#000" d="M-6,310.5H0.5V0.5H-6"></path><g class="tick" opacity="1" transform="translate(0,310.5)"><line stroke="#000" x2="-6"></line><text fill="#000" x="-9" dy="0.32em">0</text></g><g class="tick" opacity="1" transform="translate(0,273.7701421800948)"><line stroke="#000" x2="-6"></line><text fill="#000" x="-9" dy="0.32em">50</text></g><g class="tick" opacity="1" transform="translate(0,237.04028436018956)"><line stroke="#000" x2="-6"></line><text fill="#000" x="-9" dy="0.32em">100</text></g><g class="tick" opacity="1" transform="translate(0,200.31042654028437)"><line stroke="#000" x2="-6"></line><text fill="#000" x="-9" dy="0.32em">150</text></g><g class="tick" opacity="1" transform="translate(0,163.58056872037915)"><line stroke="#000" x2="-6"></line><text fill="#000" x="-9" dy="0.32em">200</text></g><g class="tick" opacity="1" transform="translate(0,126.85071090047393)"><line stroke="#000" x2="-6"></line><text fill="#000" x="-9" dy="0.32em">250</text></g><g class="tick" opacity="1" transform="translate(0,90.12085308056871)"><line stroke="#000" x2="-6"></line><text fill="#000" x="-9" dy="0.32em">300</text></g><g class="tick" opacity="1" transform="translate(0,53.39099526066349)"><line stroke="#000" x2="-6"></line><text fill="#000" x="-9" dy="0.32em">350</text></g><g class="tick" opacity="1" transform="translate(0,16.661137440758296)"><line stroke="#000" x2="-6"></line><text fill="#000" x="-9" dy="0.32em">400</text></g></g></g></svg>