<svg xmlns="http://www.w3.org/2000/svg" width="280" height="160"><defs><style type="text/css"><![CDATA[ 
.bar rect {
  fill-opacity: 0;
  stroke:       black;
  stroke-width: 0.5;
}

.highlight rect {
  fill:       red;
  fill-opacity: 1;
}
.axis path,
.axis line {
  fill: none;
  stroke: #000;
  shape-rendering: crispEdges;
}
path {
    stroke: red;
    fill: none;
}

line {
    stroke: red;
}

path.marker {
    fill: red;
}
 ]]></style></defs><g transform="translate(50,10)"><g class="bar" transform="translate(0,110.04739336492891)"><rect x="1" width="11.5" height="9.952606635071092"></rect></g><g class="bar" transform="translate(12.5,92.70142180094787)"><rect x="1" width="11.5" height="27.29857819905213"></rect></g><g class="bar" transform="translate(25,64.54976303317535)"><rect x="1" width="11.5" height="55.45023696682465"></rect></g><g class="bar" transform="translate(37.5,96.39810426540285)"><rect x="1" width="11.5" height="23.60189573459715"></rect></g><g class="bar" transform="translate(50,87.58293838862559)"><rect x="1" width="11.5" height="32.41706161137441"></rect></g><g class="bar" transform="translate(62.5,60.28436018957346)"><rect x="1" width="11.5" height="59.71563981042654"></rect></g><g class="bar" transform="translate(75,20.758293838862556)"><rect x="1" width="11.5" height="99.24170616113744"></rect></g><g class="bar" transform="translate(87.5,0)"><rect x="1" width="11.5" height="120"></rect></g><g class="bar" transform="translate(100,5.118483412322277)"><rect x="1" width="11.5" height="114.88151658767772"></rect></g><g class="bar" transform="translate(112.5,31.279620853080573)"><rect x="1" width="11.5" height="88.72037914691943"></rect></g><g class="bar" transform="translate(125,78.48341232227489)"><rect x="1" width="11.5" height="41.51658767772511"></rect></g><g class="bar" transform="translate(137.5,107.77251184834122)"><rect x="1" width="11.5" height="12.227488151658775"></rect></g><g class="bar" transform="translate(150,116.87203791469194)"><rect x="1" width="11.5" height="3.127962085308056"></rect></g><g class="bar" transform="translate(162.5,119.43127962085308)"><rect x="1" width="11.5" height="0.5687203791469244"></rect></g><g class="bar" transform="translate(175,120)"><rect x="1" width="11.5" height="0"></rect></g><g class="bar" transform="translate(187.5,120)"><rect x="1" width="11.5" height="0"></rect></g></g></svg>