<svg xmlns="http://www.w3.org/2000/svg" width="600" height="350"><defs><style type="text/css"><![CDATA[ 
.bar rect {
  fill-opacity: 0;
  stroke:       black;
  stroke-width: 0.5;
}

.highlight rect {
  fill:       red;
  fill-opacity: 1;
}
.axis path,
.axis line {
  fill: none;
  stroke: #000;
  shape-rendering: crispEdges;
}
path {
    stroke: red;
    fill: none;
}

line {
    stroke: red;
}

path.marker {
    fill: red;
}
 ]]></style></defs><g transform="translate(50,10)"><g class="bar" transform="translate(0,307.8014184397163)"><rect x="1" width="11.999999999999996" height="2.198581560283685"></rect></g><g class="bar" transform="translate(12.999999999999996,304.50354609929076)"><rect x="1" width="11.999999999999996" height="5.496453900709241"></rect></g><g class="bar" transform="translate(25.999999999999993,300.1063829787234)"><rect x="1" width="11.999999999999996" height="9.893617021276611"></rect></g><g class="bar" transform="translate(39.00000000000001,285.8156028368794)"><rect x="1" width="11.999999999999996" height="24.184397163120593"></rect></g><g class="bar" transform="translate(52,258.3333333333333)"><rect x="1" width="11.999999999999996" height="51.666666666666686"></rect></g><g class="bar" transform="translate(65,245.1418439716312)"><rect x="1" width="11.999999999999996" height="64.8581560283688"></rect></g><g class="bar" transform="translate(78.00000000000001,251.73758865248226)"><rect x="1" width="11.999999999999996" height="58.26241134751774"></rect></g><g class="bar" transform="translate(91.00000000000001,227.55319148936172)"><rect x="1" width="11.999999999999996" height="82.44680851063828"></rect></g><g class="bar" transform="translate(104,235.24822695035462)"><rect x="1" width="11.999999999999996" height="74.75177304964538"></rect></g><g class="bar" transform="translate(117,233.0496453900709)"><rect x="1" width="11.999999999999996" height="76.9503546099291"></rect></g><g class="bar" transform="translate(130,235.24822695035462)"><rect x="1" width="11.999999999999996" height="74.75177304964538"></rect></g><g class="bar" transform="translate(143,234.14893617021278)"><rect x="1" width="11.999999999999996" height="75.85106382978722"></rect></g><g class="bar" transform="translate(156.00000000000003,197.8723404255319)"><rect x="1" width="11.999999999999996" height="112.12765957446811"></rect></g><g class="bar" transform="translate(169,171.48936170212767)"><rect x="1" width="11.999999999999996" height="138.51063829787233"></rect></g><g class="bar" transform="translate(182.00000000000003,135.2127659574468)"><rect x="1" width="11.999999999999996" height="174.7872340425532"></rect></g><g class="bar" transform="translate(195,106.63120567375887)"><rect x="1" width="11.999999999999996" height="203.36879432624113"></rect></g><g class="bar" transform="translate(208,63.758865248226925)"><rect x="1" width="11.999999999999996" height="246.24113475177307"></rect></g><g class="bar" transform="translate(221.00000000000003,38.47517730496452)"><rect x="1" width="11.999999999999996" height="271.5248226950355"></rect></g><g class="bar" transform="translate(234,14.290780141843982)"><rect x="1" width="11.999999999999996" height="295.709219858156"></rect></g><g class="bar" transform="translate(247.00000000000003,0)"><rect x="1" width="11.999999999999996" height="310"></rect></g><g class="bar" transform="translate(260,19.787234042553166)"><rect x="1" width="11.999999999999996" height="290.21276595744683"></rect></g><g class="bar" transform="translate(273,49.468085106382944)"><rect x="1" width="11.999999999999996" height="260.53191489361706"></rect></g><g class="bar" transform="translate(286,117.62411347517732)"><rect x="1" width="11.999999999999996" height="192.37588652482268"></rect></g><g class="bar" transform="translate(299.00000000000006,163.79432624113474)"><rect x="1" width="11.999999999999996" height="146.20567375886526"></rect></g><g class="bar" transform="translate(312.00000000000006,195.67375886524823)"><rect x="1" width="11.999999999999996" height="114.32624113475177"></rect></g><g class="bar" transform="translate(325,234.14893617021278)"><rect x="1" width="11.999999999999996" height="75.85106382978722"></rect></g><g class="bar" transform="translate(338,266.02836879432624)"><rect x="1" width="11.999999999999996" height="43.97163120567376"></rect></g><g class="bar" transform="translate(351,279.21985815602835)"><rect x="1" width="11.999999999999996" height="30.78014184397165"></rect></g><g class="bar" transform="translate(364.00000000000006,270.4255319148936)"><rect x="1" width="11.999999999999996" height="39.57446808510639"></rect></g><g class="bar" transform="translate(377.00000000000006,294.6099290780142)"><rect x="1" width="11.999999999999996" height="15.390070921985796"></rect></g><g class="bar" transform="translate(390,304.50354609929076)"><rect x="1" width="11.999999999999996" height="5.496453900709241"></rect></g><g class="bar" transform="translate(403,306.70212765957444)"><rect x="1" width="11.999999999999996" height="3.297872340425556"></rect></g><g class="bar" transform="translate(416,310)"><rect x="1" width="11.999999999999996" height="0"></rect></g><g class="bar" transform="translate(429.00000000000006,310)"><rect x="1" width="11.999999999999996" height="0"></rect></g><g class="bar" transform="translate(442.00000000000006,310)"><rect x="1" width="11.999999999999996" height="0"></rect></g><g class="bar" transform="translate(455,310)"><rect x="1" width="11.999999999999996" height="0"></rect></g><g class="bar" transform="translate(468,310)"><rect x="1" width="11.999999999999996" height="0"></rect></g><g class="bar" transform="translate(481,310)"><rect x="1" width="11.999999999999996" height="0"></rect></g><g class="bar" transform="translate(494.00000000000006,310)"><rect x="1" width="11.999999999999996" height="0"></rect></g><g class="bar" transform="translate(507.00000000000006,310)"><rect x="1" width="11.999999999999996" height="0"></rect></g><g class="axis axis--x" transform="translate(0,310)" fill="none" font-size="10" font-family="sans-serif" text-anchor="middle"><path class="domain" stroke="#000" d="M0.5,6V0.5H520.5V6"></path><g class="tick" opacity="1" transform="translate(0.5,0)"><line stroke="#000" y2="6"></line><text fill="#000" y="9" dy="0.71em">0.01</text></g><g class="tick" opacity="1" transform="translate(130.5,0)"><line stroke="#000" y2="6"></line><text fill="#000" y="9" dy="0.71em">1</text></g><g class="tick" opacity="1" transform="translate(260.5,0)"><line stroke="#000" y2="6"></line><text fill="#000" y="9" dy="0.71em">100</text></g><g class="tick" opacity="1" transform="translate(390.5,0)"><line stroke="#000" y2="6"></line><text fill="#000" y="9" dy="0.71em">10000</text></g><g class="tick" opacity="1" transform="translate(520.5,0)"><line stroke="#000" y2="6"></line><text fill="#000" y="9" dy="0.71em"></text></g></g><g class="axis axis--y" fill="none" font-size="10" font-family="sans-serif" text-anchor="end"><path class="domain" stroke="#000" d="M-6,310.5H0.5V0.5H-6"></path><g class="tick" opacity="1" transform="translate(0,310.5)"><line stroke="#000" x2="-6"></line><text fill="#000" x="-9" dy="0.32em">0</text></g><g class="tick" opacity="1" transform="translate(0,288.51418439716315)"><line stroke="#000" x2="-6"></line><text fill="#000" x="-9" dy="0.32em">20</text></g><g class="tick" opacity="1" transform="translate(0,266.52836879432624)"><line stroke="#000" x2="-6"></line><text fill="#000" x="-9" dy="0.32em">40</text></g><g class="tick" opacity="1" transform="translate(0,244.54255319148936)"><line stroke="#000" x2="-6"></line><text fill="#000" x="-9" dy="0.32em">60</text></g><g class="tick" opacity="1" transform="translate(0,222.55673758865248)"><line stroke="#000" x2="-6"></line><text fill="#000" x="-9" dy="0.32em">80</text></g><g class="tick" opacity="1" transform="translate(0,200.5709219858156)"><line stroke="#000" x2="-6"></line><text fill="#000" x="-9" dy="0.32em">100</text></g><g class="tick" opacity="1" transform="translate(0,178.58510638297872)"><line stroke="#000" x2="-6"></line><text fill="#000" x="-9" dy="0.32em">120</text></g><g class="tick" opacity="1" transform="translate(0,156.59929078014184)"><line stroke="#000" x2="-6"></line><text fill="#000" x="-9" dy="0.32em">140</text></g><g class="tick" opacity="1" transform="translate(0,134.61347517730496)"><line stroke="#000" x2="-6"></line><text fill="#000" x="-9" dy="0.32em">160</text></g><g class="tick" opacity="1" transform="translate(0,112.62765957446808)"><line stroke="#000" x2="-6"></line><text fill="#000" x="-9" dy="0.32em">180</text></g><g class="tick" opacity="1" transform="translate(0,90.6418439716312)"><line stroke="#000" x2="-6"></line><text fill="#000" x="-9" dy="0.32em">200</text></g><g class="tick" opacity="1" transform="translate(0,68.65602836879432)"><line stroke="#000" x2="-6"></line><text fill="#000" x="-9" dy="0.32em">220</text></g><g class="tick" opacity="1" transform="translate(0,46.670212765957444)"><line stroke="#000" x2="-6"></line><text fill="#000" x="-9" dy="0.32em">240</text></g><g class="tick" opacity="1" transform="translate(0,24.684397163120593)"><line stroke="#000" x2="-6"></line><text fill="#000" x="-9" dy="0.32em">260</text></g><g class="tick" opacity="1" transform="translate(0,2.698581560283685)"><line stroke="#000" x2="-6"></line><text fill="#000" x="-9" dy="0.32em">280</text></g></g></g></svg>