<svg xmlns="http://www.w3.org/2000/svg" width="600" height="350"><defs><style type="text/css"><![CDATA[ 
.bar rect {
  fill-opacity: 0;
  stroke:       black;
  stroke-width: 0.5;
}

.highlight rect {
  fill:       red;
  fill-opacity: 1;
}
.axis path,
.axis line {
  fill: none;
  stroke: #000;
  shape-rendering: crispEdges;
}
 ]]></style></defs><g transform="translate(50,10)"><g class="bar" transform="translate(0,307.89115646258506)"><rect x="1" width="11.999999999999996" height="2.1088435374149412"></rect></g><g class="bar" transform="translate(12.999999999999996,304.7278911564626)"><rect x="1" width="11.999999999999996" height="5.27210884353741"></rect></g><g class="bar" transform="translate(25.999999999999993,301.5646258503401)"><rect x="1" width="11.999999999999996" height="8.435374149659879"></rect></g><g class="bar" transform="translate(39.00000000000001,285.7482993197279)"><rect x="1" width="11.999999999999996" height="24.25170068027211"></rect></g><g class="bar" transform="translate(52,262.55102040816325)"><rect x="1" width="11.999999999999996" height="47.448979591836746"></rect></g><g class="bar" transform="translate(65,247.7891156462585)"><rect x="1" width="11.999999999999996" height="62.210884353741505"></rect></g><g class="bar" transform="translate(78.00000000000001,250.95238095238096)"><rect x="1" width="11.999999999999996" height="59.04761904761904"></rect></g><g class="bar" transform="translate(91.00000000000001,229.8639455782313)"><rect x="1" width="11.999999999999996" height="80.1360544217687"></rect></g><g class="bar" transform="translate(104,242.51700680272108)"><rect x="1" width="11.999999999999996" height="67.48299319727892"></rect></g><g class="bar" transform="translate(117,235.1360544217687)"><rect x="1" width="11.999999999999996" height="74.8639455782313"></rect></g><g class="bar" transform="translate(130,237.24489795918367)"><rect x="1" width="11.999999999999996" height="72.75510204081633"></rect></g><g class="bar" transform="translate(143,234.0816326530612)"><rect x="1" width="11.999999999999996" height="75.9183673469388"></rect></g><g class="bar" transform="translate(156.00000000000003,202.44897959183675)"><rect x="1" width="11.999999999999996" height="107.55102040816325"></rect></g><g class="bar" transform="translate(169,169.76190476190476)"><rect x="1" width="11.999999999999996" height="140.23809523809524"></rect></g><g class="bar" transform="translate(182.00000000000003,161.3265306122449)"><rect x="1" width="11.999999999999996" height="148.6734693877551"></rect></g><g class="bar" transform="translate(195,98.06122448979593)"><rect x="1" width="11.999999999999996" height="211.93877551020407"></rect></g><g class="bar" transform="translate(208,73.80952380952382)"><rect x="1" width="11.999999999999996" height="236.19047619047618"></rect></g><g class="bar" transform="translate(221.00000000000003,48.50340136054422)"><rect x="1" width="11.999999999999996" height="261.4965986394558"></rect></g><g class="bar" transform="translate(234,24.25170068027211)"><rect x="1" width="11.999999999999996" height="285.7482993197279"></rect></g><g class="bar" transform="translate(247.00000000000003,0)"><rect x="1" width="11.999999999999996" height="310"></rect></g><g class="bar" transform="translate(260,35.8503401360544)"><rect x="1" width="11.999999999999996" height="274.1496598639456"></rect></g><g class="bar" transform="translate(273,60.102040816326536)"><rect x="1" width="11.999999999999996" height="249.89795918367346"></rect></g><g class="bar" transform="translate(286,126.53061224489795)"><rect x="1" width="11.999999999999996" height="183.46938775510205"></rect></g><g class="bar" transform="translate(299.00000000000006,170.81632653061226)"><rect x="1" width="11.999999999999996" height="139.18367346938774"></rect></g><g class="bar" transform="translate(312.00000000000006,209.8299319727891)"><rect x="1" width="11.999999999999996" height="100.1700680272109"></rect></g><g class="bar" transform="translate(325,236.1904761904762)"><rect x="1" width="11.999999999999996" height="73.8095238095238"></rect></g><g class="bar" transform="translate(338,266.7687074829932)"><rect x="1" width="11.999999999999996" height="43.23129251700681"></rect></g><g class="bar" transform="translate(351,277.312925170068)"><rect x="1" width="11.999999999999996" height="32.68707482993199"></rect></g><g class="bar" transform="translate(364.00000000000006,273.0952380952381)"><rect x="1" width="11.999999999999996" height="36.904761904761926"></rect></g><g class="bar" transform="translate(377.00000000000006,294.18367346938777)"><rect x="1" width="11.999999999999996" height="15.81632653061223"></rect></g><g class="bar" transform="translate(390,305.78231292517006)"><rect x="1" width="11.999999999999996" height="4.217687074829939"></rect></g><g class="bar" transform="translate(403,306.83673469387753)"><rect x="1" width="11.999999999999996" height="3.1632653061224687"></rect></g><g class="bar" transform="translate(416,310)"><rect x="1" width="11.999999999999996" height="0"></rect></g><g class="bar" transform="translate(429.00000000000006,310)"><rect x="1" width="11.999999999999996" height="0"></rect></g><g class="bar" transform="translate(442.00000000000006,310)"><rect x="1" width="11.999999999999996" height="0"></rect></g><g class="bar" transform="translate(455,310)"><rect x="1" width="11.999999999999996" height="0"></rect></g><g class="bar" transform="translate(468,310)"><rect x="1" width="11.999999999999996" height="0"></rect></g><g class="bar" transform="translate(481,310)"><rect x="1" width="11.999999999999996" height="0"></rect></g><g class="bar" transform="translate(494.00000000000006,310)"><rect x="1" width="11.999999999999996" height="0"></rect></g><g class="bar" transform="translate(507.00000000000006,310)"><rect x="1" width="11.999999999999996" height="0"></rect></g><g class="axis axis--x" transform="translate(0,310)" fill="none" font-size="10" font-family="sans-serif" text-anchor="middle"><path class="domain" stroke="#000" d="M0.5,6V0.5H520.5V6"></path><g class="tick" opacity="1" transform="translate(0,0)"><line stroke="#000" y2="6" x1="0.5" x2="0.5"></line><text fill="#000" y="9" x="0.5" dy="0.71em">0.01</text></g><g class="tick" opacity="1" transform="translate(130,0)"><line stroke="#000" y2="6" x1="0.5" x2="0.5"></line><text fill="#000" y="9" x="0.5" dy="0.71em">1</text></g><g class="tick" opacity="1" transform="translate(260,0)"><line stroke="#000" y2="6" x1="0.5" x2="0.5"></line><text fill="#000" y="9" x="0.5" dy="0.71em">100</text></g><g class="tick" opacity="1" transform="translate(390,0)"><line stroke="#000" y2="6" x1="0.5" x2="0.5"></line><text fill="#000" y="9" x="0.5" dy="0.71em">10000</text></g><g class="tick" opacity="1" transform="translate(520,0)"><line stroke="#000" y2="6" x1="0.5" x2="0.5"></line><text fill="#000" y="9" x="0.5" dy="0.71em"></text></g></g><g class="axis axis--y" fill="none" font-size="10" font-family="sans-serif" text-anchor="end"><path class="domain" stroke="#000" d="M-6,310.5H0.5V0.5H-6"></path><g class="tick" opacity="1" transform="translate(0,310)"><line stroke="#000" x2="-6" y1="0.5" y2="0.5"></line><text fill="#000" x="-9" y="0.5" dy="0.32em">0</text></g><g class="tick" opacity="1" transform="translate(0,288.91156462585036)"><line stroke="#000" x2="-6" y1="0.5" y2="0.5"></line><text fill="#000" x="-9" y="0.5" dy="0.32em">20</text></g><g class="tick" opacity="1" transform="translate(0,267.82312925170066)"><line stroke="#000" x2="-6" y1="0.5" y2="0.5"></line><text fill="#000" x="-9" y="0.5" dy="0.32em">40</text></g><g class="tick" opacity="1" transform="translate(0,246.73469387755102)"><line stroke="#000" x2="-6" y1="0.5" y2="0.5"></line><text fill="#000" x="-9" y="0.5" dy="0.32em">60</text></g><g class="tick" opacity="1" transform="translate(0,225.64625850340136)"><line stroke="#000" x2="-6" y1="0.5" y2="0.5"></line><text fill="#000" x="-9" y="0.5" dy="0.32em">80</text></g><g class="tick" opacity="1" transform="translate(0,204.5578231292517)"><line stroke="#000" x2="-6" y1="0.5" y2="0.5"></line><text fill="#000" x="-9" y="0.5" dy="0.32em">100</text></g><g class="tick" opacity="1" transform="translate(0,183.46938775510205)"><line stroke="#000" x2="-6" y1="0.5" y2="0.5"></line><text fill="#000" x="-9" y="0.5" dy="0.32em">120</text></g><g class="tick" opacity="1" transform="translate(0,162.38095238095238)"><line stroke="#000" x2="-6" y1="0.5" y2="0.5"></line><text fill="#000" x="-9" y="0.5" dy="0.32em">140</text></g><g class="tick" opacity="1" transform="translate(0,141.2925170068027)"><line stroke="#000" x2="-6" y1="0.5" y2="0.5"></line><text fill="#000" x="-9" y="0.5" dy="0.32em">160</text></g><g class="tick" opacity="1" transform="translate(0,120.20408163265304)"><line stroke="#000" x2="-6" y1="0.5" y2="0.5"></line><text fill="#000" x="-9" y="0.5" dy="0.32em">180</text></g><g class="tick" opacity="1" transform="translate(0,99.1156462585034)"><line stroke="#000" x2="-6" y1="0.5" y2="0.5"></line><text fill="#000" x="-9" y="0.5" dy="0.32em">200</text></g><g class="tick" opacity="1" transform="translate(0,78.02721088435374)"><line stroke="#000" x2="-6" y1="0.5" y2="0.5"></line><text fill="#000" x="-9" y="0.5" dy="0.32em">220</text></g><g class="tick" opacity="1" transform="translate(0,56.93877551020407)"><line stroke="#000" x2="-6" y1="0.5" y2="0.5"></line><text fill="#000" x="-9" y="0.5" dy="0.32em">240</text></g><g class="tick" opacity="1" transform="translate(0,35.8503401360544)"><line stroke="#000" x2="-6" y1="0.5" y2="0.5"></line><text fill="#000" x="-9" y="0.5" dy="0.32em">260</text></g><g class="tick" opacity="1" transform="translate(0,14.76190476190476)"><line stroke="#000" x2="-6" y1="0.5" y2="0.5"></line><text fill="#000" x="-9" y="0.5" dy="0.32em">280</text></g></g></g></svg>