<svg xmlns="http://www.w3.org/2000/svg" width="600" height="350"><defs><style type="text/css"><![CDATA[ 
.bar rect {
  fill-opacity: 0;
  stroke:       black;
  stroke-width: 0.5;
}

.highlight rect {
  fill:       red;
  fill-opacity: 1;
}
.axis path,
.axis line {
  fill: none;
  stroke: #000;
  shape-rendering: crispEdges;
}
 ]]></style></defs><g transform="translate(50,10)"><g class="bar" transform="translate(0,310)"><rect x="1" width="11.999999999999996" height="0"></rect></g><g class="bar" transform="translate(12.999999999999996,310)"><rect x="1" width="11.999999999999996" height="0"></rect></g><g class="bar" transform="translate(25.999999999999993,310)"><rect x="1" width="11.999999999999996" height="0"></rect></g><g class="bar" transform="translate(39.00000000000001,310)"><rect x="1" width="11.999999999999996" height="0"></rect></g><g class="bar" transform="translate(52,310)"><rect x="1" width="11.999999999999996" height="0"></rect></g><g class="bar" transform="translate(65,307.7037037037037)"><rect x="1" width="11.999999999999996" height="2.2962962962963047"></rect></g><g class="bar" transform="translate(78.00000000000001,308.4691358024691)"><rect x="1" width="11.999999999999996" height="1.5308641975308888"></rect></g><g class="bar" transform="translate(91.00000000000001,304.641975308642)"><rect x="1" width="11.999999999999996" height="5.358024691358025"></rect></g><g class="bar" transform="translate(104,284.74074074074076)"><rect x="1" width="11.999999999999996" height="25.259259259259238"></rect></g><g class="bar" transform="translate(117,240.34567901234567)"><rect x="1" width="11.999999999999996" height="69.65432098765433"></rect></g><g class="bar" transform="translate(130,172.98765432098764)"><rect x="1" width="11.999999999999996" height="137.01234567901236"></rect></g><g class="bar" transform="translate(143,64.29629629629628)"><rect x="1" width="11.999999999999996" height="245.70370370370372"></rect></g><g class="bar" transform="translate(156.00000000000003,4.592592592592609)"><rect x="1" width="11.999999999999996" height="305.4074074074074"></rect></g><g class="bar" transform="translate(169,41.333333333333314)"><rect x="1" width="11.999999999999996" height="268.6666666666667"></rect></g><g class="bar" transform="translate(182.00000000000003,0)"><rect x="1" width="11.999999999999996" height="310"></rect></g><g class="bar" transform="translate(195,28.32098765432096)"><rect x="1" width="11.999999999999996" height="281.67901234567904"></rect></g><g class="bar" transform="translate(208,32.14814814814815)"><rect x="1" width="11.999999999999996" height="277.85185185185185"></rect></g><g class="bar" transform="translate(221.00000000000003,18.37037037037038)"><rect x="1" width="11.999999999999996" height="291.6296296296296"></rect></g><g class="bar" transform="translate(234,9.185185185185219)"><rect x="1" width="11.999999999999996" height="300.8148148148148"></rect></g><g class="bar" transform="translate(247.00000000000003,27.555555555555543)"><rect x="1" width="11.999999999999996" height="282.44444444444446"></rect></g><g class="bar" transform="translate(260,62)"><rect x="1" width="11.999999999999996" height="248"></rect></g><g class="bar" transform="translate(273,87.25925925925924)"><rect x="1" width="11.999999999999996" height="222.74074074074076"></rect></g><g class="bar" transform="translate(286,133.18518518518516)"><rect x="1" width="11.999999999999996" height="176.81481481481484"></rect></g><g class="bar" transform="translate(299.00000000000006,166.09876543209876)"><rect x="1" width="11.999999999999996" height="143.90123456790124"></rect></g><g class="bar" transform="translate(312.00000000000006,219.679012345679)"><rect x="1" width="11.999999999999996" height="90.32098765432099"></rect></g><g class="bar" transform="translate(325,234.22222222222223)"><rect x="1" width="11.999999999999996" height="75.77777777777777"></rect></g><g class="bar" transform="translate(338,254.88888888888889)"><rect x="1" width="11.999999999999996" height="55.111111111111114"></rect></g><g class="bar" transform="translate(351,281.679012345679)"><rect x="1" width="11.999999999999996" height="28.320987654321016"></rect></g><g class="bar" transform="translate(364.00000000000006,296.98765432098764)"><rect x="1" width="11.999999999999996" height="13.012345679012356"></rect></g><g class="bar" transform="translate(377.00000000000006,307.7037037037037)"><rect x="1" width="11.999999999999996" height="2.2962962962963047"></rect></g><g class="bar" transform="translate(390,308.4691358024691)"><rect x="1" width="11.999999999999996" height="1.5308641975308888"></rect></g><g class="bar" transform="translate(403,307.7037037037037)"><rect x="1" width="11.999999999999996" height="2.2962962962963047"></rect></g><g class="bar" transform="translate(416,310)"><rect x="1" width="11.999999999999996" height="0"></rect></g><g class="bar" transform="translate(429.00000000000006,310)"><rect x="1" width="11.999999999999996" height="0"></rect></g><g class="bar" transform="translate(442.00000000000006,310)"><rect x="1" width="11.999999999999996" height="0"></rect></g><g class="bar" transform="translate(455,310)"><rect x="1" width="11.999999999999996" height="0"></rect></g><g class="bar" transform="translate(468,310)"><rect x="1" width="11.999999999999996" height="0"></rect></g><g class="bar" transform="translate(481,310)"><rect x="1" width="11.999999999999996" height="0"></rect></g><g class="bar" transform="translate(494.00000000000006,310)"><rect x="1" width="11.999999999999996" height="0"></rect></g><g class="bar" transform="translate(507.00000000000006,310)"><rect x="1" width="11.999999999999996" height="0"></rect></g><g class="axis axis--x" transform="translate(0,310)" fill="none" font-size="10" font-family="sans-serif" text-anchor="middle"><path class="domain" stroke="#000" d="M0.5,6V0.5H520.5V6"></path><g class="tick" opacity="1" transform="translate(0,0)"><line stroke="#000" y2="6" x1="0.5" x2="0.5"></line><text fill="#000" y="9" x="0.5" dy="0.71em">0.01</text></g><g class="tick" opacity="1" transform="translate(130,0)"><line stroke="#000" y2="6" x1="0.5" x2="0.5"></line><text fill="#000" y="9" x="0.5" dy="0.71em">1</text></g><g class="tick" opacity="1" transform="translate(260,0)"><line stroke="#000" y2="6" x1="0.5" x2="0.5"></line><text fill="#000" y="9" x="0.5" dy="0.71em">100</text></g><g class="tick" opacity="1" transform="translate(390,0)"><line stroke="#000" y2="6" x1="0.5" x2="0.5"></line><text fill="#000" y="9" x="0.5" dy="0.71em">10000</text></g><g class="tick" opacity="1" transform="translate(520,0)"><line stroke="#000" y2="6" x1="0.5" x2="0.5"></line><text fill="#000" y="9" x="0.5" dy="0.71em"></text></g></g><g class="axis axis--y" fill="none" font-size="10" font-family="sans-serif" text-anchor="end"><path class="domain" stroke="#000" d="M-6,310.5H0.5V0.5H-6"></path><g class="tick" opacity="1" transform="translate(0,310)"><line stroke="#000" x2="-6" y1="0.5" y2="0.5"></line><text fill="#000" x="-9" y="0.5" dy="0.32em">0</text></g><g class="tick" opacity="1" transform="translate(0,271.7283950617284)"><line stroke="#000" x2="-6" y1="0.5" y2="0.5"></line><text fill="#000" x="-9" y="0.5" dy="0.32em">50</text></g><g class="tick" opacity="1" transform="translate(0,233.4567901234568)"><line stroke="#000" x2="-6" y1="0.5" y2="0.5"></line><text fill="#000" x="-9" y="0.5" dy="0.32em">100</text></g><g class="tick" opacity="1" transform="translate(0,195.1851851851852)"><line stroke="#000" x2="-6" y1="0.5" y2="0.5"></line><text fill="#000" x="-9" y="0.5" dy="0.32em">150</text></g><g class="tick" opacity="1" transform="translate(0,156.9135802469136)"><line stroke="#000" x2="-6" y1="0.5" y2="0.5"></line><text fill="#000" x="-9" y="0.5" dy="0.32em">200</text></g><g class="tick" opacity="1" transform="translate(0,118.64197530864197)"><line stroke="#000" x2="-6" y1="0.5" y2="0.5"></line><text fill="#000" x="-9" y="0.5" dy="0.32em">250</text></g><g class="tick" opacity="1" transform="translate(0,80.37037037037038)"><line stroke="#000" x2="-6" y1="0.5" y2="0.5"></line><text fill="#000" x="-9" y="0.5" dy="0.32em">300</text></g><g class="tick" opacity="1" transform="translate(0,42.09876543209879)"><line stroke="#000" x2="-6" y1="0.5" y2="0.5"></line><text fill="#000" x="-9" y="0.5" dy="0.32em">350</text></g><g class="tick" opacity="1" transform="translate(0,3.8271604938271935)"><line stroke="#000" x2="-6" y1="0.5" y2="0.5"></line><text fill="#000" x="-9" y="0.5" dy="0.32em">400</text></g></g></g></svg>