<svg xmlns="http://www.w3.org/2000/svg" width="600" height="350"><defs><style type="text/css"><![CDATA[ 
.bar rect {
  fill-opacity: 0;
  stroke:       black;
  stroke-width: 0.5;
}

.highlight rect {
  fill:       red;
  fill-opacity: 1;
}
.axis path,
.axis line {
  fill: none;
  stroke: #000;
  shape-rendering: crispEdges;
}
 ]]></style></defs><g transform="translate(50,10)"><g class="bar" transform="translate(0,310)"><rect x="1" width="11.999999999999996" height="0"></rect></g><g class="bar" transform="translate(12.999999999999996,310)"><rect x="1" width="11.999999999999996" height="0"></rect></g><g class="bar" transform="translate(25.999999999999993,310)"><rect x="1" width="11.999999999999996" height="0"></rect></g><g class="bar" transform="translate(39.00000000000001,310)"><rect x="1" width="11.999999999999996" height="0"></rect></g><g class="bar" transform="translate(52,310)"><rect x="1" width="11.999999999999996" height="0"></rect></g><g class="bar" transform="translate(65,310)"><rect x="1" width="11.999999999999996" height="0"></rect></g><g class="bar" transform="translate(78.00000000000001,310)"><rect x="1" width="11.999999999999996" height="0"></rect></g><g class="bar" transform="translate(91.00000000000001,310)"><rect x="1" width="11.999999999999996" height="0"></rect></g><g class="bar" transform="translate(104,310)"><rect x="1" width="11.999999999999996" height="0"></rect></g><g class="bar" transform="translate(117,310)"><rect x="1" width="11.999999999999996" height="0"></rect></g><g class="bar" transform="translate(130,310)"><rect x="1" width="11.999999999999996" height="0"></rect></g><g class="bar" transform="translate(143,310)"><rect x="1" width="11.999999999999996" height="0"></rect></g><g class="bar" transform="translate(156.00000000000003,289.13461538461536)"><rect x="1" width="11.999999999999996" height="20.86538461538464"></rect></g><g class="bar" transform="translate(169,289.13461538461536)"><rect x="1" width="11.999999999999996" height="20.86538461538464"></rect></g><g class="bar" transform="translate(182.00000000000003,247.40384615384616)"><rect x="1" width="11.999999999999996" height="62.59615384615384"></rect></g><g class="bar" transform="translate(195,196.73076923076923)"><rect x="1" width="11.999999999999996" height="113.26923076923077"></rect></g><g class="bar" transform="translate(208,89.4230769230769)"><rect x="1" width="11.999999999999996" height="220.5769230769231"></rect></g><g class="bar" transform="translate(221.00000000000003,56.63461538461539)"><rect x="1" width="11.999999999999996" height="253.3653846153846"></rect></g><g class="bar" transform="translate(234,20.865384615384585)"><rect x="1" width="11.999999999999996" height="289.1346153846154"></rect></g><g class="bar" transform="translate(247.00000000000003,0)"><rect x="1" width="11.999999999999996" height="310"></rect></g><g class="bar" transform="translate(260,14.903846153846189)"><rect x="1" width="11.999999999999996" height="295.0961538461538"></rect></g><g class="bar" transform="translate(273,74.51923076923077)"><rect x="1" width="11.999999999999996" height="235.48076923076923"></rect></g><g class="bar" transform="translate(286,116.25)"><rect x="1" width="11.999999999999996" height="193.75"></rect></g><g class="bar" transform="translate(299.00000000000006,131.15384615384616)"><rect x="1" width="11.999999999999996" height="178.84615384615384"></rect></g><g class="bar" transform="translate(312.00000000000006,184.80769230769232)"><rect x="1" width="11.999999999999996" height="125.19230769230768"></rect></g><g class="bar" transform="translate(325,163.9423076923077)"><rect x="1" width="11.999999999999996" height="146.0576923076923"></rect></g><g class="bar" transform="translate(338,214.6153846153846)"><rect x="1" width="11.999999999999996" height="95.38461538461539"></rect></g><g class="bar" transform="translate(351,181.8269230769231)"><rect x="1" width="11.999999999999996" height="128.1730769230769"></rect></g><g class="bar" transform="translate(364.00000000000006,232.5)"><rect x="1" width="11.999999999999996" height="77.5"></rect></g><g class="bar" transform="translate(377.00000000000006,253.3653846153846)"><rect x="1" width="11.999999999999996" height="56.63461538461539"></rect></g><g class="bar" transform="translate(390,274.2307692307692)"><rect x="1" width="11.999999999999996" height="35.769230769230774"></rect></g><g class="bar" transform="translate(403,292.11538461538464)"><rect x="1" width="11.999999999999996" height="17.88461538461536"></rect></g><g class="bar" transform="translate(416,307.0192307692308)"><rect x="1" width="11.999999999999996" height="2.9807692307692264"></rect></g><g class="bar" transform="translate(429.00000000000006,307.0192307692308)"><rect x="1" width="11.999999999999996" height="2.9807692307692264"></rect></g><g class="bar" transform="translate(442.00000000000006,310)"><rect x="1" width="11.999999999999996" height="0"></rect></g><g class="bar" transform="translate(455,310)"><rect x="1" width="11.999999999999996" height="0"></rect></g><g class="bar" transform="translate(468,310)"><rect x="1" width="11.999999999999996" height="0"></rect></g><g class="bar" transform="translate(481,310)"><rect x="1" width="11.999999999999996" height="0"></rect></g><g class="bar" transform="translate(494.00000000000006,310)"><rect x="1" width="11.999999999999996" height="0"></rect></g><g class="bar" transform="translate(507.00000000000006,310)"><rect x="1" width="11.999999999999996" height="0"></rect></g><g class="axis axis--x" transform="translate(0,310)" fill="none" font-size="10" font-family="sans-serif" text-anchor="middle"><path class="domain" stroke="#000" d="M0.5,6V0.5H520.5V6"></path><g class="tick" opacity="1" transform="translate(0,0)"><line stroke="#000" y2="6" x1="0.5" x2="0.5"></line><text fill="#000" y="9" x="0.5" dy="0.71em">0.01</text></g><g class="tick" opacity="1" transform="translate(130,0)"><line stroke="#000" y2="6" x1="0.5" x2="0.5"></line><text fill="#000" y="9" x="0.5" dy="0.71em">1</text></g><g class="tick" opacity="1" transform="translate(260,0)"><line stroke="#000" y2="6" x1="0.5" x2="0.5"></line><text fill="#000" y="9" x="0.5" dy="0.71em">100</text></g><g class="tick" opacity="1" transform="translate(390,0)"><line stroke="#000" y2="6" x1="0.5" x2="0.5"></line><text fill="#000" y="9" x="0.5" dy="0.71em">10000</text></g><g class="tick" opacity="1" transform="translate(520,0)"><line stroke="#000" y2="6" x1="0.5" x2="0.5"></line><text fill="#000" y="9" x="0.5" dy="0.71em"></text></g></g><g class="axis axis--y" fill="none" font-size="10" font-family="sans-serif" text-anchor="end"><path class="domain" stroke="#000" d="M-6,310.5H0.5V0.5H-6"></path><g class="tick" opacity="1" transform="translate(0,310)"><line stroke="#000" x2="-6" y1="0.5" y2="0.5"></line><text fill="#000" x="-9" y="0.5" dy="0.32em">0</text></g><g class="tick" opacity="1" transform="translate(0,280.1923076923077)"><line stroke="#000" x2="-6" y1="0.5" y2="0.5"></line><text fill="#000" x="-9" y="0.5" dy="0.32em">10</text></g><g class="tick" opacity="1" transform="translate(0,250.3846153846154)"><line stroke="#000" x2="-6" y1="0.5" y2="0.5"></line><text fill="#000" x="-9" y="0.5" dy="0.32em">20</text></g><g class="tick" opacity="1" transform="translate(0,220.5769230769231)"><line stroke="#000" x2="-6" y1="0.5" y2="0.5"></line><text fill="#000" x="-9" y="0.5" dy="0.32em">30</text></g><g class="tick" opacity="1" transform="translate(0,190.76923076923077)"><line stroke="#000" x2="-6" y1="0.5" y2="0.5"></line><text fill="#000" x="-9" y="0.5" dy="0.32em">40</text></g><g class="tick" opacity="1" transform="translate(0,160.96153846153845)"><line stroke="#000" x2="-6" y1="0.5" y2="0.5"></line><text fill="#000" x="-9" y="0.5" dy="0.32em">50</text></g><g class="tick" opacity="1" transform="translate(0,131.15384615384616)"><line stroke="#000" x2="-6" y1="0.5" y2="0.5"></line><text fill="#000" x="-9" y="0.5" dy="0.32em">60</text></g><g class="tick" opacity="1" transform="translate(0,101.34615384615384)"><line stroke="#000" x2="-6" y1="0.5" y2="0.5"></line><text fill="#000" x="-9" y="0.5" dy="0.32em">70</text></g><g class="tick" opacity="1" transform="translate(0,71.53846153846152)"><line stroke="#000" x2="-6" y1="0.5" y2="0.5"></line><text fill="#000" x="-9" y="0.5" dy="0.32em">80</text></g><g class="tick" opacity="1" transform="translate(0,41.730769230769226)"><line stroke="#000" x2="-6" y1="0.5" y2="0.5"></line><text fill="#000" x="-9" y="0.5" dy="0.32em">90</text></g><g class="tick" opacity="1" transform="translate(0,11.923076923076906)"><line stroke="#000" x2="-6" y1="0.5" y2="0.5"></line><text fill="#000" x="-9" y="0.5" dy="0.32em">100</text></g></g></g></svg>