<svg xmlns="http://www.w3.org/2000/svg" width="280" height="160"><defs><style type="text/css"><![CDATA[ 
.bar rect {
  fill-opacity: 0;
  stroke:       black;
  stroke-width: 0.5;
}

.highlight rect {
  fill:       red;
  fill-opacity: 1;
}
.axis path,
.axis line {
  fill: none;
  stroke: #000;
  shape-rendering: crispEdges;
}
path {
    stroke: red;
    fill: none;
}

line {
    stroke: red;
}

path.marker {
    fill: red;
}
 ]]></style></defs><g transform="translate(50,10)"><g class="bar" transform="translate(0,111.3894324853229)"><rect x="1" width="11.5" height="8.6105675146771"></rect></g><g class="bar" transform="translate(12.5,89.54990215264188)"><rect x="1" width="11.5" height="30.450097847358123"></rect></g><g class="bar" transform="translate(25,68.4931506849315)"><rect x="1" width="11.5" height="51.50684931506849"></rect></g><g class="bar" transform="translate(37.5,48.14090019569473)"><rect x="1" width="11.5" height="71.85909980430527"></rect></g><g class="bar" transform="translate(50,20.74363992172212)"><rect x="1" width="11.5" height="99.25636007827788"></rect></g><g class="bar" transform="translate(62.5,0)"><rect x="1" width="11.5" height="120"></rect></g><g class="bar" transform="translate(75,1.8786692759295534)"><rect x="1" width="11.5" height="118.12133072407045"></rect></g><g class="bar" transform="translate(87.5,10.097847358121342)"><rect x="1" width="11.5" height="109.90215264187866"></rect></g><g class="bar" transform="translate(100,28.180039138943243)"><rect x="1" width="11.5" height="91.81996086105676"></rect></g><g class="bar" transform="translate(112.5,84.69667318982388)"><rect x="1" width="11.5" height="35.30332681017612"></rect></g><g class="bar" transform="translate(125,110.13698630136986)"><rect x="1" width="11.5" height="9.86301369863014"></rect></g><g class="bar" transform="translate(137.5,118.19960861056751)"><rect x="1" width="11.5" height="1.800391389432491"></rect></g><g class="bar" transform="translate(150,119.45205479452055)"><rect x="1" width="11.5" height="0.5479452054794507"></rect></g><g class="bar" transform="translate(162.5,120)"><rect x="1" width="11.5" height="0"></rect></g><g class="bar" transform="translate(175,120)"><rect x="1" width="11.5" height="0"></rect></g><g class="bar" transform="translate(187.5,120)"><rect x="1" width="11.5" height="0"></rect></g></g></svg>