<svg xmlns="http://www.w3.org/2000/svg" width="600" height="350"><defs><style type="text/css"><![CDATA[ 
.bar rect {
  fill-opacity: 0;
  stroke:       black;
  stroke-width: 0.5;
}

.highlight rect {
  fill:       red;
  fill-opacity: 1;
}
.axis path,
.axis line {
  fill: none;
  stroke: #000;
  shape-rendering: crispEdges;
}
path {
    stroke: red;
    fill: none;
}

line {
    stroke: red;
}

path.marker {
    fill: red;
}
 ]]></style></defs><g transform="translate(50,10)"><g class="bar" transform="translate(0,295.1437699680511)"><rect x="1" width="11.999999999999996" height="14.856230031948883"></rect></g><g class="bar" transform="translate(12.999999999999996,287.220447284345)"><rect x="1" width="11.999999999999996" height="22.779552715654972"></rect></g><g class="bar" transform="translate(25.999999999999993,263.9456869009585)"><rect x="1" width="11.999999999999996" height="46.05431309904151"></rect></g><g class="bar" transform="translate(39.00000000000001,241.16613418530352)"><rect x="1" width="11.999999999999996" height="68.83386581469648"></rect></g><g class="bar" transform="translate(52,215.41533546325877)"><rect x="1" width="11.999999999999996" height="94.58466453674123"></rect></g><g class="bar" transform="translate(65,187.68370607028754)"><rect x="1" width="11.999999999999996" height="122.31629392971246"></rect></g><g class="bar" transform="translate(78.00000000000001,178.27476038338656)"><rect x="1" width="11.999999999999996" height="131.72523961661344"></rect></g><g class="bar" transform="translate(91.00000000000001,141.13418530351436)"><rect x="1" width="11.999999999999996" height="168.86581469648564"></rect></g><g class="bar" transform="translate(104,153.5143769968051)"><rect x="1" width="11.999999999999996" height="156.4856230031949"></rect></g><g class="bar" transform="translate(117,108.94568690095846)"><rect x="1" width="11.999999999999996" height="201.05431309904154"></rect></g><g class="bar" transform="translate(130,79.72843450479232)"><rect x="1" width="11.999999999999996" height="230.27156549520768"></rect></g><g class="bar" transform="translate(143,53.48242811501598)"><rect x="1" width="11.999999999999996" height="256.517571884984"></rect></g><g class="bar" transform="translate(156.00000000000003,13.370607028753966)"><rect x="1" width="11.999999999999996" height="296.62939297124603"></rect></g><g class="bar" transform="translate(169,16.341853035143743)"><rect x="1" width="11.999999999999996" height="293.65814696485626"></rect></g><g class="bar" transform="translate(182.00000000000003,0)"><rect x="1" width="11.999999999999996" height="310"></rect></g><g class="bar" transform="translate(195,0.49520766773161995)"><rect x="1" width="11.999999999999996" height="309.5047923322684"></rect></g><g class="bar" transform="translate(208,12.380191693290726)"><rect x="1" width="11.999999999999996" height="297.6198083067093"></rect></g><g class="bar" transform="translate(221.00000000000003,16.83706070287542)"><rect x="1" width="11.999999999999996" height="293.1629392971246"></rect></g><g class="bar" transform="translate(234,41.59744408945687)"><rect x="1" width="11.999999999999996" height="268.40255591054313"></rect></g><g class="bar" transform="translate(247.00000000000003,36.15015974440894)"><rect x="1" width="11.999999999999996" height="273.84984025559106"></rect></g><g class="bar" transform="translate(260,58.43450479233226)"><rect x="1" width="11.999999999999996" height="251.56549520766774"></rect></g><g class="bar" transform="translate(273,76.26198083067092)"><rect x="1" width="11.999999999999996" height="233.73801916932908"></rect></g><g class="bar" transform="translate(286,134.69648562300318)"><rect x="1" width="11.999999999999996" height="175.30351437699682"></rect></g><g class="bar" transform="translate(299.00000000000006,218.8817891373802)"><rect x="1" width="11.999999999999996" height="91.1182108626198"></rect></g><g class="bar" transform="translate(312.00000000000006,257.50798722044726)"><rect x="1" width="11.999999999999996" height="52.49201277955274"></rect></g><g class="bar" transform="translate(325,275.83067092651754)"><rect x="1" width="11.999999999999996" height="34.16932907348246"></rect></g><g class="bar" transform="translate(338,287.71565495207665)"><rect x="1" width="11.999999999999996" height="22.284345047923352"></rect></g><g class="bar" transform="translate(351,300.59105431309905)"><rect x="1" width="11.999999999999996" height="9.40894568690095"></rect></g><g class="bar" transform="translate(364.00000000000006,305.54313099041536)"><rect x="1" width="11.999999999999996" height="4.456869009584636"></rect></g><g class="bar" transform="translate(377.00000000000006,306.5335463258786)"><rect x="1" width="11.999999999999996" height="3.4664536741213965"></rect></g><g class="bar" transform="translate(390,307.52396166134184)"><rect x="1" width="11.999999999999996" height="2.4760383386581566"></rect></g><g class="bar" transform="translate(403,309.00958466453676)"><rect x="1" width="11.999999999999996" height="0.9904153354632399"></rect></g><g class="bar" transform="translate(416,310)"><rect x="1" width="11.999999999999996" height="0"></rect></g><g class="bar" transform="translate(429.00000000000006,310)"><rect x="1" width="11.999999999999996" height="0"></rect></g><g class="bar" transform="translate(442.00000000000006,310)"><rect x="1" width="11.999999999999996" height="0"></rect></g><g class="bar" transform="translate(455,310)"><rect x="1" width="11.999999999999996" height="0"></rect></g><g class="bar" transform="translate(468,310)"><rect x="1" width="11.999999999999996" height="0"></rect></g><g class="bar" transform="translate(481,310)"><rect x="1" width="11.999999999999996" height="0"></rect></g><g class="bar" transform="translate(494.00000000000006,310)"><rect x="1" width="11.999999999999996" height="0"></rect></g><g class="bar" transform="translate(507.00000000000006,310)"><rect x="1" width="11.999999999999996" height="0"></rect></g><g class="axis axis--x" transform="translate(0,310)" fill="none" font-size="10" font-family="sans-serif" text-anchor="middle"><path class="domain" stroke="#000" d="M0.5,6V0.5H520.5V6"></path><g class="tick" opacity="1" transform="translate(0.5,0)"><line stroke="#000" y2="6"></line><text fill="#000" y="9" dy="0.71em">0.01</text></g><g class="tick" opacity="1" transform="translate(130.5,0)"><line stroke="#000" y2="6"></line><text fill="#000" y="9" dy="0.71em">1</text></g><g class="tick" opacity="1" transform="translate(260.5,0)"><line stroke="#000" y2="6"></line><text fill="#000" y="9" dy="0.71em">100</text></g><g class="tick" opacity="1" transform="translate(390.5,0)"><line stroke="#000" y2="6"></line><text fill="#000" y="9" dy="0.71em">10000</text></g><g class="tick" opacity="1" transform="translate(520.5,0)"><line stroke="#000" y2="6"></line><text fill="#000" y="9" dy="0.71em"></text></g></g><g class="axis axis--y" fill="none" font-size="10" font-family="sans-serif" text-anchor="end"><path class="domain" stroke="#000" d="M-6,310.5H0.5V0.5H-6"></path><g class="tick" opacity="1" transform="translate(0,310.5)"><line stroke="#000" x2="-6"></line><text fill="#000" x="-9" dy="0.32em">0</text></g><g class="tick" opacity="1" transform="translate(0,285.73961661341855)"><line stroke="#000" x2="-6"></line><text fill="#000" x="-9" dy="0.32em">50</text></g><g class="tick" opacity="1" transform="translate(0,260.97923322683704)"><line stroke="#000" x2="-6"></line><text fill="#000" x="-9" dy="0.32em">100</text></g><g class="tick" opacity="1" transform="translate(0,236.2188498402556)"><line stroke="#000" x2="-6"></line><text fill="#000" x="-9" dy="0.32em">150</text></g><g class="tick" opacity="1" transform="translate(0,211.45846645367413)"><line stroke="#000" x2="-6"></line><text fill="#000" x="-9" dy="0.32em">200</text></g><g class="tick" opacity="1" transform="translate(0,186.69808306709263)"><line stroke="#000" x2="-6"></line><text fill="#000" x="-9" dy="0.32em">250</text></g><g class="tick" opacity="1" transform="translate(0,161.93769968051117)"><line stroke="#000" x2="-6"></line><text fill="#000" x="-9" dy="0.32em">300</text></g><g class="tick" opacity="1" transform="translate(0,137.1773162939297)"><line stroke="#000" x2="-6"></line><text fill="#000" x="-9" dy="0.32em">350</text></g><g class="tick" opacity="1" transform="translate(0,112.41693290734824)"><line stroke="#000" x2="-6"></line><text fill="#000" x="-9" dy="0.32em">400</text></g><g class="tick" opacity="1" transform="translate(0,87.65654952076676)"><line stroke="#000" x2="-6"></line><text fill="#000" x="-9" dy="0.32em">450</text></g><g class="tick" opacity="1" transform="translate(0,62.89616613418528)"><line stroke="#000" x2="-6"></line><text fill="#000" x="-9" dy="0.32em">500</text></g><g class="tick" opacity="1" transform="translate(0,38.135782747603855)"><line stroke="#000" x2="-6"></line><text fill="#000" x="-9" dy="0.32em">550</text></g><g class="tick" opacity="1" transform="translate(0,13.375399361022346)"><line stroke="#000" x2="-6"></line><text fill="#000" x="-9" dy="0.32em">600</text></g></g></g></svg>