<svg xmlns="http://www.w3.org/2000/svg" width="600" height="350"><defs><style type="text/css"><![CDATA[ 
.bar rect {
  fill-opacity: 0;
  stroke:       black;
  stroke-width: 0.5;
}

.highlight rect {
  fill:       red;
  fill-opacity: 1;
}
.axis path,
.axis line {
  fill: none;
  stroke: #000;
  shape-rendering: crispEdges;
}
path {
    stroke: red;
    fill: none;
}

line {
    stroke: red;
}

path.marker {
    fill: red;
}
 ]]></style></defs><g transform="translate(50,10)"><g class="bar" transform="translate(0,310)"><rect x="1" width="11.999999999999996" height="0"></rect></g><g class="bar" transform="translate(12.999999999999996,308.09348093480935)"><rect x="1" width="11.999999999999996" height="1.9065190651906505"></rect></g><g class="bar" transform="translate(25.999999999999993,305.80565805658057)"><rect x="1" width="11.999999999999996" height="4.194341943419431"></rect></g><g class="bar" transform="translate(39.00000000000001,301.61131611316114)"><rect x="1" width="11.999999999999996" height="8.388683886838862"></rect></g><g class="bar" transform="translate(52,284.8339483394834)"><rect x="1" width="11.999999999999996" height="25.166051660516587"></rect></g><g class="bar" transform="translate(65,214.67404674046742)"><rect x="1" width="11.999999999999996" height="95.32595325953258"></rect></g><g class="bar" transform="translate(78.00000000000001,126.97416974169741)"><rect x="1" width="11.999999999999996" height="183.0258302583026"></rect></g><g class="bar" transform="translate(91.00000000000001,60.24600246002461)"><rect x="1" width="11.999999999999996" height="249.7539975399754"></rect></g><g class="bar" transform="translate(104,29.360393603936075)"><rect x="1" width="11.999999999999996" height="280.6396063960639"></rect></g><g class="bar" transform="translate(117,39.65559655596559)"><rect x="1" width="11.999999999999996" height="270.3444034440344"></rect></g><g class="bar" transform="translate(130,73.59163591635917)"><rect x="1" width="11.999999999999996" height="236.40836408364083"></rect></g><g class="bar" transform="translate(143,81.5990159901599)"><rect x="1" width="11.999999999999996" height="228.4009840098401"></rect></g><g class="bar" transform="translate(156.00000000000003,55.67035670356705)"><rect x="1" width="11.999999999999996" height="254.32964329643295"></rect></g><g class="bar" transform="translate(169,32.029520295202985)"><rect x="1" width="11.999999999999996" height="277.970479704797"></rect></g><g class="bar" transform="translate(182.00000000000003,0)"><rect x="1" width="11.999999999999996" height="310"></rect></g><g class="bar" transform="translate(195,4.575645756457561)"><rect x="1" width="11.999999999999996" height="305.42435424354244"></rect></g><g class="bar" transform="translate(208,5.7195571955719515)"><rect x="1" width="11.999999999999996" height="304.28044280442805"></rect></g><g class="bar" transform="translate(221.00000000000003,28.216482164821628)"><rect x="1" width="11.999999999999996" height="281.7835178351784"></rect></g><g class="bar" transform="translate(234,62.53382533825339)"><rect x="1" width="11.999999999999996" height="247.4661746617466"></rect></g><g class="bar" transform="translate(247.00000000000003,82.74292742927432)"><rect x="1" width="11.999999999999996" height="227.25707257072568"></rect></g><g class="bar" transform="translate(260,126.97416974169741)"><rect x="1" width="11.999999999999996" height="183.0258302583026"></rect></g><g class="bar" transform="translate(273,149.85239852398524)"><rect x="1" width="11.999999999999996" height="160.14760147601476"></rect></g><g class="bar" transform="translate(286,187.98277982779828)"><rect x="1" width="11.999999999999996" height="122.01722017220172"></rect></g><g class="bar" transform="translate(299.00000000000006,240.22140221402213)"><rect x="1" width="11.999999999999996" height="69.77859778597787"></rect></g><g class="bar" transform="translate(312.00000000000006,263.09963099630994)"><rect x="1" width="11.999999999999996" height="46.90036900369006"></rect></g><g class="bar" transform="translate(325,278.73308733087333)"><rect x="1" width="11.999999999999996" height="31.26691266912667"></rect></g><g class="bar" transform="translate(338,293.2226322263223)"><rect x="1" width="11.999999999999996" height="16.777367773677724"></rect></g><g class="bar" transform="translate(351,297.79827798277984)"><rect x="1" width="11.999999999999996" height="12.201722017220163"></rect></g><g class="bar" transform="translate(364.00000000000006,302.3739237392374)"><rect x="1" width="11.999999999999996" height="7.626076260762602"></rect></g><g class="bar" transform="translate(377.00000000000006,308.8560885608856)"><rect x="1" width="11.999999999999996" height="1.1439114391143903"></rect></g><g class="bar" transform="translate(390,309.61869618696187)"><rect x="1" width="11.999999999999996" height="0.3813038130381301"></rect></g><g class="bar" transform="translate(403,310)"><rect x="1" width="11.999999999999996" height="0"></rect></g><g class="bar" transform="translate(416,310)"><rect x="1" width="11.999999999999996" height="0"></rect></g><g class="bar" transform="translate(429.00000000000006,310)"><rect x="1" width="11.999999999999996" height="0"></rect></g><g class="bar" transform="translate(442.00000000000006,310)"><rect x="1" width="11.999999999999996" height="0"></rect></g><g class="bar" transform="translate(455,310)"><rect x="1" width="11.999999999999996" height="0"></rect></g><g class="bar" transform="translate(468,310)"><rect x="1" width="11.999999999999996" height="0"></rect></g><g class="bar" transform="translate(481,310)"><rect x="1" width="11.999999999999996" height="0"></rect></g><g class="bar" transform="translate(494.00000000000006,310)"><rect x="1" width="11.999999999999996" height="0"></rect></g><g class="bar" transform="translate(507.00000000000006,310)"><rect x="1" width="11.999999999999996" height="0"></rect></g><g class="axis axis--x" transform="translate(0,310)" fill="none" font-size="10" font-family="sans-serif" text-anchor="middle"><path class="domain" stroke="#000" d="M0.5,6V0.5H520.5V6"></path><g class="tick" opacity="1" transform="translate(0.5,0)"><line stroke="#000" y2="6"></line><text fill="#000" y="9" dy="0.71em">0.01</text></g><g class="tick" opacity="1" transform="translate(130.5,0)"><line stroke="#000" y2="6"></line><text fill="#000" y="9" dy="0.71em">1</text></g><g class="tick" opacity="1" transform="translate(260.5,0)"><line stroke="#000" y2="6"></line><text fill="#000" y="9" dy="0.71em">100</text></g><g class="tick" opacity="1" transform="translate(390.5,0)"><line stroke="#000" y2="6"></line><text fill="#000" y="9" dy="0.71em">10000</text></g><g class="tick" opacity="1" transform="translate(520.5,0)"><line stroke="#000" y2="6"></line><text fill="#000" y="9" dy="0.71em"></text></g></g><g class="axis axis--y" fill="none" font-size="10" font-family="sans-serif" text-anchor="end"><path class="domain" stroke="#000" d="M-6,310.5H0.5V0.5H-6"></path><g class="tick" opacity="1" transform="translate(0,310.5)"><line stroke="#000" x2="-6"></line><text fill="#000" x="-9" dy="0.32em">0</text></g><g class="tick" opacity="1" transform="translate(0,272.369618696187)"><line stroke="#000" x2="-6"></line><text fill="#000" x="-9" dy="0.32em">100</text></g><g class="tick" opacity="1" transform="translate(0,234.23923739237392)"><line stroke="#000" x2="-6"></line><text fill="#000" x="-9" dy="0.32em">200</text></g><g class="tick" opacity="1" transform="translate(0,196.10885608856088)"><line stroke="#000" x2="-6"></line><text fill="#000" x="-9" dy="0.32em">300</text></g><g class="tick" opacity="1" transform="translate(0,157.97847478474785)"><line stroke="#000" x2="-6"></line><text fill="#000" x="-9" dy="0.32em">400</text></g><g class="tick" opacity="1" transform="translate(0,119.8480934809348)"><line stroke="#000" x2="-6"></line><text fill="#000" x="-9" dy="0.32em">500</text></g><g class="tick" opacity="1" transform="translate(0,81.71771217712177)"><line stroke="#000" x2="-6"></line><text fill="#000" x="-9" dy="0.32em">600</text></g><g class="tick" opacity="1" transform="translate(0,43.58733087330876)"><line stroke="#000" x2="-6"></line><text fill="#000" x="-9" dy="0.32em">700</text></g><g class="tick" opacity="1" transform="translate(0,5.456949569495691)"><line stroke="#000" x2="-6"></line><text fill="#000" x="-9" dy="0.32em">800</text></g></g></g></svg>