<svg xmlns="http://www.w3.org/2000/svg" width="280" height="160"><defs><style type="text/css"><![CDATA[ 
.bar rect {
  fill-opacity: 0;
  stroke:       black;
  stroke-width: 0.5;
}

.highlight rect {
  fill:       red;
  fill-opacity: 1;
}
.axis path,
.axis line {
  fill: none;
  stroke: #000;
  shape-rendering: crispEdges;
}
path {
    stroke: red;
    fill: none;
}

line {
    stroke: red;
}

path.marker {
    fill: red;
}
 ]]></style></defs><g transform="translate(50,10)"><g class="bar" transform="translate(0,119.44982170147733)"><rect x="1" width="11.5" height="0.5501782985226669"></rect></g><g class="bar" transform="translate(12.5,114.19256240448294)"><rect x="1" width="11.5" height="5.807437595517058"></rect></g><g class="bar" transform="translate(25,55.56800815078961)"><rect x="1" width="11.5" height="64.43199184921039"></rect></g><g class="bar" transform="translate(37.5,11.431482424859908)"><rect x="1" width="11.5" height="108.56851757514009"></rect></g><g class="bar" transform="translate(50,25.797249108507387)"><rect x="1" width="11.5" height="94.20275089149261"></rect></g><g class="bar" transform="translate(62.5,4.645950076413655)"><rect x="1" width="11.5" height="115.35404992358635"></rect></g><g class="bar" transform="translate(75,0)"><rect x="1" width="11.5" height="120"></rect></g><g class="bar" transform="translate(87.5,20.96790626591951)"><rect x="1" width="11.5" height="99.03209373408049"></rect></g><g class="bar" transform="translate(100,54.528782475802345)"><rect x="1" width="11.5" height="65.47121752419766"></rect></g><g class="bar" transform="translate(112.5,92.18543046357615)"><rect x="1" width="11.5" height="27.814569536423846"></rect></g><g class="bar" transform="translate(125,111.19714722363729)"><rect x="1" width="11.5" height="8.802852776362712"></rect></g><g class="bar" transform="translate(137.5,117.73815588385125)"><rect x="1" width="11.5" height="2.261844116148751"></rect></g><g class="bar" transform="translate(150,119.93886907794193)"><rect x="1" width="11.5" height="0.06113092205806936"></rect></g><g class="bar" transform="translate(162.5,120)"><rect x="1" width="11.5" height="0"></rect></g><g class="bar" transform="translate(175,120)"><rect x="1" width="11.5" height="0"></rect></g><g class="bar" transform="translate(187.5,120)"><rect x="1" width="11.5" height="0"></rect></g></g></svg>