<svg xmlns="http://www.w3.org/2000/svg" width="600" height="350"><defs><style type="text/css"><![CDATA[ 
.bar rect {
  fill-opacity: 0;
  stroke:       black;
  stroke-width: 0.5;
}

.highlight rect {
  fill:       red;
  fill-opacity: 1;
}
.axis path,
.axis line {
  fill: none;
  stroke: #000;
  shape-rendering: crispEdges;
}
 ]]></style></defs><g transform="translate(50,10)"><g class="bar" transform="translate(0,297.05159705159707)"><rect x="1" width="11.999999999999996" height="12.94840294840293"></rect></g><g class="bar" transform="translate(12.999999999999996,281.43734643734643)"><rect x="1" width="11.999999999999996" height="28.562653562653566"></rect></g><g class="bar" transform="translate(25.999999999999993,290.1965601965602)"><rect x="1" width="11.999999999999996" height="19.8034398034398"></rect></g><g class="bar" transform="translate(39.00000000000001,269.25061425061426)"><rect x="1" width="11.999999999999996" height="40.74938574938574"></rect></g><g class="bar" transform="translate(52,252.87469287469287)"><rect x="1" width="11.999999999999996" height="57.12530712530713"></rect></g><g class="bar" transform="translate(65,229.64373464373466)"><rect x="1" width="11.999999999999996" height="80.35626535626534"></rect></g><g class="bar" transform="translate(78.00000000000001,205.65110565110564)"><rect x="1" width="11.999999999999996" height="104.34889434889436"></rect></g><g class="bar" transform="translate(91.00000000000001,194.6068796068796)"><rect x="1" width="11.999999999999996" height="115.3931203931204"></rect></g><g class="bar" transform="translate(104,182.42014742014743)"><rect x="1" width="11.999999999999996" height="127.57985257985257"></rect></g><g class="bar" transform="translate(117,164.9017199017199)"><rect x="1" width="11.999999999999996" height="145.0982800982801"></rect></g><g class="bar" transform="translate(130,150.42997542997543)"><rect x="1" width="11.999999999999996" height="159.57002457002457"></rect></g><g class="bar" transform="translate(143,104.72972972972974)"><rect x="1" width="11.999999999999996" height="205.27027027027026"></rect></g><g class="bar" transform="translate(156.00000000000003,41.89189189189187)"><rect x="1" width="11.999999999999996" height="268.1081081081081"></rect></g><g class="bar" transform="translate(169,29.7051597051597)"><rect x="1" width="11.999999999999996" height="280.2948402948403"></rect></g><g class="bar" transform="translate(182.00000000000003,28.943488943488944)"><rect x="1" width="11.999999999999996" height="281.05651105651106"></rect></g><g class="bar" transform="translate(195,25.1351351351351)"><rect x="1" width="11.999999999999996" height="284.8648648648649"></rect></g><g class="bar" transform="translate(208,0)"><rect x="1" width="11.999999999999996" height="310"></rect></g><g class="bar" transform="translate(221.00000000000003,35.798525798525816)"><rect x="1" width="11.999999999999996" height="274.2014742014742"></rect></g><g class="bar" transform="translate(234,47.98525798525799)"><rect x="1" width="11.999999999999996" height="262.014742014742"></rect></g><g class="bar" transform="translate(247.00000000000003,89.87714987714986)"><rect x="1" width="11.999999999999996" height="220.12285012285014"></rect></g><g class="bar" transform="translate(260,105.11056511056512)"><rect x="1" width="11.999999999999996" height="204.88943488943488"></rect></g><g class="bar" transform="translate(273,135.57739557739555)"><rect x="1" width="11.999999999999996" height="174.42260442260445"></rect></g><g class="bar" transform="translate(286,173.2800982800983)"><rect x="1" width="11.999999999999996" height="136.7199017199017"></rect></g><g class="bar" transform="translate(299.00000000000006,222.4078624078624)"><rect x="1" width="11.999999999999996" height="87.59213759213759"></rect></g><g class="bar" transform="translate(312.00000000000006,252.87469287469287)"><rect x="1" width="11.999999999999996" height="57.12530712530713"></rect></g><g class="bar" transform="translate(325,278.7714987714988)"><rect x="1" width="11.999999999999996" height="31.228501228501216"></rect></g><g class="bar" transform="translate(338,297.43243243243245)"><rect x="1" width="11.999999999999996" height="12.56756756756755"></rect></g><g class="bar" transform="translate(351,302.76412776412775)"><rect x="1" width="11.999999999999996" height="7.23587223587225"></rect></g><g class="bar" transform="translate(364.00000000000006,306.1916461916462)"><rect x="1" width="11.999999999999996" height="3.808353808353786"></rect></g><g class="bar" transform="translate(377.00000000000006,308.0958230958231)"><rect x="1" width="11.999999999999996" height="1.904176904176893"></rect></g><g class="bar" transform="translate(390,308.85749385749386)"><rect x="1" width="11.999999999999996" height="1.1425061425061358"></rect></g><g class="bar" transform="translate(403,310)"><rect x="1" width="11.999999999999996" height="0"></rect></g><g class="bar" transform="translate(416,310)"><rect x="1" width="11.999999999999996" height="0"></rect></g><g class="bar" transform="translate(429.00000000000006,310)"><rect x="1" width="11.999999999999996" height="0"></rect></g><g class="bar" transform="translate(442.00000000000006,310)"><rect x="1" width="11.999999999999996" height="0"></rect></g><g class="bar" transform="translate(455,310)"><rect x="1" width="11.999999999999996" height="0"></rect></g><g class="bar" transform="translate(468,310)"><rect x="1" width="11.999999999999996" height="0"></rect></g><g class="bar" transform="translate(481,310)"><rect x="1" width="11.999999999999996" height="0"></rect></g><g class="bar" transform="translate(494.00000000000006,310)"><rect x="1" width="11.999999999999996" height="0"></rect></g><g class="bar" transform="translate(507.00000000000006,310)"><rect x="1" width="11.999999999999996" height="0"></rect></g><g class="axis axis--x" transform="translate(0,310)" fill="none" font-size="10" font-family="sans-serif" text-anchor="middle"><path class="domain" stroke="#000" d="M0.5,6V0.5H520.5V6"></path><g class="tick" opacity="1" transform="translate(0,0)"><line stroke="#000" y2="6" x1="0.5" x2="0.5"></line><text fill="#000" y="9" x="0.5" dy="0.71em">0.01</text></g><g class="tick" opacity="1" transform="translate(130,0)"><line stroke="#000" y2="6" x1="0.5" x2="0.5"></line><text fill="#000" y="9" x="0.5" dy="0.71em">1</text></g><g class="tick" opacity="1" transform="translate(260,0)"><line stroke="#000" y2="6" x1="0.5" x2="0.5"></line><text fill="#000" y="9" x="0.5" dy="0.71em">100</text></g><g class="tick" opacity="1" transform="translate(390,0)"><line stroke="#000" y2="6" x1="0.5" x2="0.5"></line><text fill="#000" y="9" x="0.5" dy="0.71em">10000</text></g><g class="tick" opacity="1" transform="translate(520,0)"><line stroke="#000" y2="6" x1="0.5" x2="0.5"></line><text fill="#000" y="9" x="0.5" dy="0.71em"></text></g></g><g class="axis axis--y" fill="none" font-size="10" font-family="sans-serif" text-anchor="end"><path class="domain" stroke="#000" d="M-6,310.5H0.5V0.5H-6"></path><g class="tick" opacity="1" transform="translate(0,310)"><line stroke="#000" x2="-6" y1="0.5" y2="0.5"></line><text fill="#000" x="-9" y="0.5" dy="0.32em">0</text></g><g class="tick" opacity="1" transform="translate(0,271.9164619164619)"><line stroke="#000" x2="-6" y1="0.5" y2="0.5"></line><text fill="#000" x="-9" y="0.5" dy="0.32em">100</text></g><g class="tick" opacity="1" transform="translate(0,233.83292383292383)"><line stroke="#000" x2="-6" y1="0.5" y2="0.5"></line><text fill="#000" x="-9" y="0.5" dy="0.32em">200</text></g><g class="tick" opacity="1" transform="translate(0,195.74938574938574)"><line stroke="#000" x2="-6" y1="0.5" y2="0.5"></line><text fill="#000" x="-9" y="0.5" dy="0.32em">300</text></g><g class="tick" opacity="1" transform="translate(0,157.66584766584765)"><line stroke="#000" x2="-6" y1="0.5" y2="0.5"></line><text fill="#000" x="-9" y="0.5" dy="0.32em">400</text></g><g class="tick" opacity="1" transform="translate(0,119.58230958230959)"><line stroke="#000" x2="-6" y1="0.5" y2="0.5"></line><text fill="#000" x="-9" y="0.5" dy="0.32em">500</text></g><g class="tick" opacity="1" transform="translate(0,81.4987714987715)"><line stroke="#000" x2="-6" y1="0.5" y2="0.5"></line><text fill="#000" x="-9" y="0.5" dy="0.32em">600</text></g><g class="tick" opacity="1" transform="translate(0,43.41523341523339)"><line stroke="#000" x2="-6" y1="0.5" y2="0.5"></line><text fill="#000" x="-9" y="0.5" dy="0.32em">700</text></g><g class="tick" opacity="1" transform="translate(0,5.3316953316953)"><line stroke="#000" x2="-6" y1="0.5" y2="0.5"></line><text fill="#000" x="-9" y="0.5" dy="0.32em">800</text></g></g></g></svg>