<svg xmlns="http://www.w3.org/2000/svg" width="600" height="350"><defs><style type="text/css"><![CDATA[ 
.bar rect {
  fill-opacity: 0;
  stroke:       black;
  stroke-width: 0.5;
}

.highlight rect {
  fill:       red;
  fill-opacity: 1;
}
.axis path,
.axis line {
  fill: none;
  stroke: #000;
  shape-rendering: crispEdges;
}
path {
    stroke: red;
    fill: none;
}

line {
    stroke: red;
}

path.marker {
    fill: red;
}
 ]]></style></defs><g transform="translate(50,10)"><g class="bar" transform="translate(0,305.84450402144773)"><rect x="1" width="11.999999999999996" height="4.155495978552267"></rect></g><g class="bar" transform="translate(12.999999999999996,298.3646112600536)"><rect x="1" width="11.999999999999996" height="11.635388739946393"></rect></g><g class="bar" transform="translate(25.999999999999993,305.84450402144773)"><rect x="1" width="11.999999999999996" height="4.155495978552267"></rect></g><g class="bar" transform="translate(39.00000000000001,297.53351206434314)"><rect x="1" width="11.999999999999996" height="12.466487935656858"></rect></g><g class="bar" transform="translate(52,276.75603217158175)"><rect x="1" width="11.999999999999996" height="33.24396782841825"></rect></g><g class="bar" transform="translate(65,246.0053619302949)"><rect x="1" width="11.999999999999996" height="63.994638069705104"></rect></g><g class="bar" transform="translate(78.00000000000001,155.41554959785523)"><rect x="1" width="11.999999999999996" height="154.58445040214477"></rect></g><g class="bar" transform="translate(91.00000000000001,127.98927613941021)"><rect x="1" width="11.999999999999996" height="182.0107238605898"></rect></g><g class="bar" transform="translate(104,68.98123324396784)"><rect x="1" width="11.999999999999996" height="241.01876675603216"></rect></g><g class="bar" transform="translate(117,35.73726541554959)"><rect x="1" width="11.999999999999996" height="274.2627345844504"></rect></g><g class="bar" transform="translate(130,0)"><rect x="1" width="11.999999999999996" height="310"></rect></g><g class="bar" transform="translate(143,31.58176943699732)"><rect x="1" width="11.999999999999996" height="278.4182305630027"></rect></g><g class="bar" transform="translate(156.00000000000003,34.07506702412866)"><rect x="1" width="11.999999999999996" height="275.92493297587134"></rect></g><g class="bar" transform="translate(169,31.58176943699732)"><rect x="1" width="11.999999999999996" height="278.4182305630027"></rect></g><g class="bar" transform="translate(182.00000000000003,54.85254691689008)"><rect x="1" width="11.999999999999996" height="255.14745308310992"></rect></g><g class="bar" transform="translate(195,59.00804289544237)"><rect x="1" width="11.999999999999996" height="250.99195710455763"></rect></g><g class="bar" transform="translate(208,67.31903485254693)"><rect x="1" width="11.999999999999996" height="242.68096514745307"></rect></g><g class="bar" transform="translate(221.00000000000003,59.00804289544237)"><rect x="1" width="11.999999999999996" height="250.99195710455763"></rect></g><g class="bar" transform="translate(234,112.19839142091155)"><rect x="1" width="11.999999999999996" height="197.80160857908845"></rect></g><g class="bar" transform="translate(247.00000000000003,141.28686327077747)"><rect x="1" width="11.999999999999996" height="168.71313672922253"></rect></g><g class="bar" transform="translate(260,163.7265415549598)"><rect x="1" width="11.999999999999996" height="146.2734584450402"></rect></g><g class="bar" transform="translate(273,181.17962466487936)"><rect x="1" width="11.999999999999996" height="128.82037533512064"></rect></g><g class="bar" transform="translate(286,202.78820375335118)"><rect x="1" width="11.999999999999996" height="107.21179624664882"></rect></g><g class="bar" transform="translate(299.00000000000006,217.74798927613944)"><rect x="1" width="11.999999999999996" height="92.25201072386056"></rect></g><g class="bar" transform="translate(312.00000000000006,220.24128686327077)"><rect x="1" width="11.999999999999996" height="89.75871313672923"></rect></g><g class="bar" transform="translate(325,273.43163538873995)"><rect x="1" width="11.999999999999996" height="36.56836461126005"></rect></g><g class="bar" transform="translate(338,282.57372654155495)"><rect x="1" width="11.999999999999996" height="27.426273458445053"></rect></g><g class="bar" transform="translate(351,288.39142091152814)"><rect x="1" width="11.999999999999996" height="21.608579088471856"></rect></g><g class="bar" transform="translate(364.00000000000006,300.02680965147454)"><rect x="1" width="11.999999999999996" height="9.973190348525463"></rect></g><g class="bar" transform="translate(377.00000000000006,301.68900804289547)"><rect x="1" width="11.999999999999996" height="8.310991957104534"></rect></g><g class="bar" transform="translate(390,305.01340482573727)"><rect x="1" width="11.999999999999996" height="4.986595174262732"></rect></g><g class="bar" transform="translate(403,306.6756032171582)"><rect x="1" width="11.999999999999996" height="3.324396782841802"></rect></g><g class="bar" transform="translate(416,305.01340482573727)"><rect x="1" width="11.999999999999996" height="4.986595174262732"></rect></g><g class="bar" transform="translate(429.00000000000006,310)"><rect x="1" width="11.999999999999996" height="0"></rect></g><g class="bar" transform="translate(442.00000000000006,310)"><rect x="1" width="11.999999999999996" height="0"></rect></g><g class="bar" transform="translate(455,310)"><rect x="1" width="11.999999999999996" height="0"></rect></g><g class="bar" transform="translate(468,310)"><rect x="1" width="11.999999999999996" height="0"></rect></g><g class="bar" transform="translate(481,310)"><rect x="1" width="11.999999999999996" height="0"></rect></g><g class="bar" transform="translate(494.00000000000006,310)"><rect x="1" width="11.999999999999996" height="0"></rect></g><g class="bar" transform="translate(507.00000000000006,310)"><rect x="1" width="11.999999999999996" height="0"></rect></g><g class="axis axis--x" transform="translate(0,310)" fill="none" font-size="10" font-family="sans-serif" text-anchor="middle"><path class="domain" stroke="#000" d="M0.5,6V0.5H520.5V6"></path><g class="tick" opacity="1" transform="translate(0.5,0)"><line stroke="#000" y2="6"></line><text fill="#000" y="9" dy="0.71em">0.01</text></g><g class="tick" opacity="1" transform="translate(130.5,0)"><line stroke="#000" y2="6"></line><text fill="#000" y="9" dy="0.71em">1</text></g><g class="tick" opacity="1" transform="translate(260.5,0)"><line stroke="#000" y2="6"></line><text fill="#000" y="9" dy="0.71em">100</text></g><g class="tick" opacity="1" transform="translate(390.5,0)"><line stroke="#000" y2="6"></line><text fill="#000" y="9" dy="0.71em">10000</text></g><g class="tick" opacity="1" transform="translate(520.5,0)"><line stroke="#000" y2="6"></line><text fill="#000" y="9" dy="0.71em"></text></g></g><g class="axis axis--y" fill="none" font-size="10" font-family="sans-serif" text-anchor="end"><path class="domain" stroke="#000" d="M-6,310.5H0.5V0.5H-6"></path><g class="tick" opacity="1" transform="translate(0,310.5)"><line stroke="#000" x2="-6"></line><text fill="#000" x="-9" dy="0.32em">0</text></g><g class="tick" opacity="1" transform="translate(0,268.9450402144772)"><line stroke="#000" x2="-6"></line><text fill="#000" x="-9" dy="0.32em">50</text></g><g class="tick" opacity="1" transform="translate(0,227.39008042895443)"><line stroke="#000" x2="-6"></line><text fill="#000" x="-9" dy="0.32em">100</text></g><g class="tick" opacity="1" transform="translate(0,185.83512064343165)"><line stroke="#000" x2="-6"></line><text fill="#000" x="-9" dy="0.32em">150</text></g><g class="tick" opacity="1" transform="translate(0,144.28016085790884)"><line stroke="#000" x2="-6"></line><text fill="#000" x="-9" dy="0.32em">200</text></g><g class="tick" opacity="1" transform="translate(0,102.72520107238606)"><line stroke="#000" x2="-6"></line><text fill="#000" x="-9" dy="0.32em">250</text></g><g class="tick" opacity="1" transform="translate(0,61.17024128686327)"><line stroke="#000" x2="-6"></line><text fill="#000" x="-9" dy="0.32em">300</text></g><g class="tick" opacity="1" transform="translate(0,19.61528150134052)"><line stroke="#000" x2="-6"></line><text fill="#000" x="-9" dy="0.32em">350</text></g></g></g></svg>