<svg xmlns="http://www.w3.org/2000/svg" width="280" height="160"><defs><style type="text/css"><![CDATA[ 
.bar rect {
  fill-opacity: 0;
  stroke:       black;
  stroke-width: 0.5;
}

.highlight rect {
  fill:       red;
  fill-opacity: 1;
}
.axis path,
.axis line {
  fill: none;
  stroke: #000;
  shape-rendering: crispEdges;
}
path {
    stroke: red;
    fill: none;
}

line {
    stroke: red;
}

path.marker {
    fill: red;
}
 ]]></style></defs><g transform="translate(50,10)"><g class="bar" transform="translate(0,120)"><rect x="1" width="11.5" height="0"></rect></g><g class="bar" transform="translate(12.5,120)"><rect x="1" width="11.5" height="0"></rect></g><g class="bar" transform="translate(25,120)"><rect x="1" width="11.5" height="0"></rect></g><g class="bar" transform="translate(37.5,119.6765498652291)"><rect x="1" width="11.5" height="0.32345013477089424"></rect></g><g class="bar" transform="translate(50,113.8544474393531)"><rect x="1" width="11.5" height="6.145552560646905"></rect></g><g class="bar" transform="translate(62.5,101.2398921832884)"><rect x="1" width="11.5" height="18.760107816711596"></rect></g><g class="bar" transform="translate(75,85.39083557951483)"><rect x="1" width="11.5" height="34.60916442048517"></rect></g><g class="bar" transform="translate(87.5,43.98921832884096)"><rect x="1" width="11.5" height="76.01078167115904"></rect></g><g class="bar" transform="translate(100,0)"><rect x="1" width="11.5" height="120"></rect></g><g class="bar" transform="translate(112.5,29.75741239892183)"><rect x="1" width="11.5" height="90.24258760107817"></rect></g><g class="bar" transform="translate(125,76.98113207547169)"><rect x="1" width="11.5" height="43.01886792452831"></rect></g><g class="bar" transform="translate(137.5,100.59299191374663)"><rect x="1" width="11.5" height="19.40700808625337"></rect></g><g class="bar" transform="translate(150,116.44204851752022)"><rect x="1" width="11.5" height="3.5579514824797798"></rect></g><g class="bar" transform="translate(162.5,119.6765498652291)"><rect x="1" width="11.5" height="0.32345013477089424"></rect></g><g class="bar" transform="translate(175,120)"><rect x="1" width="11.5" height="0"></rect></g><g class="bar" transform="translate(187.5,120)"><rect x="1" width="11.5" height="0"></rect></g></g></svg>