<svg xmlns="http://www.w3.org/2000/svg" width="280" height="160"><defs><style type="text/css"><![CDATA[ 
.bar rect {
  fill-opacity: 0;
  stroke:       black;
  stroke-width: 0.5;
}

.highlight rect {
  fill:       red;
  fill-opacity: 1;
}
.axis path,
.axis line {
  fill: none;
  stroke: #000;
  shape-rendering: crispEdges;
}
 ]]></style></defs><g transform="translate(50,10)"><g class="bar" transform="translate(0,119.63451776649747)"><rect x="1" width="11.5" height="0.36548223350253295"></rect></g><g class="bar" transform="translate(12.5,118.53807106598985)"><rect x="1" width="11.5" height="1.461928934010146"></rect></g><g class="bar" transform="translate(25,110.25380710659898)"><rect x="1" width="11.5" height="9.746192893401016"></rect></g><g class="bar" transform="translate(37.5,90.39593908629442)"><rect x="1" width="11.5" height="29.60406091370558"></rect></g><g class="bar" transform="translate(50,39.95939086294416)"><rect x="1" width="11.5" height="80.04060913705584"></rect></g><g class="bar" transform="translate(62.5,11.451776649746193)"><rect x="1" width="11.5" height="108.5482233502538"></rect></g><g class="bar" transform="translate(75,0)"><rect x="1" width="11.5" height="120"></rect></g><g class="bar" transform="translate(87.5,4.020304568527919)"><rect x="1" width="11.5" height="115.97969543147208"></rect></g><g class="bar" transform="translate(100,42.030456852791886)"><rect x="1" width="11.5" height="77.96954314720811"></rect></g><g class="bar" transform="translate(112.5,75.65482233502539)"><rect x="1" width="11.5" height="44.345177664974614"></rect></g><g class="bar" transform="translate(125,104.6497461928934)"><rect x="1" width="11.5" height="15.350253807106597"></rect></g><g class="bar" transform="translate(137.5,115.1269035532995)"><rect x="1" width="11.5" height="4.873096446700501"></rect></g><g class="bar" transform="translate(150,119.87817258883248)"><rect x="1" width="11.5" height="0.12182741116751572"></rect></g><g class="bar" transform="translate(162.5,119.51269035532995)"><rect x="1" width="11.5" height="0.48730964467004867"></rect></g><g class="bar" transform="translate(175,120)"><rect x="1" width="11.5" height="0"></rect></g><g class="bar" transform="translate(187.5,120)"><rect x="1" width="11.5" height="0"></rect></g></g></svg>