<svg xmlns="http://www.w3.org/2000/svg" width="280" height="160"><defs><style type="text/css"><![CDATA[ 
.bar rect {
  fill-opacity: 0;
  stroke:       black;
  stroke-width: 0.5;
}

.highlight rect {
  fill:       red;
  fill-opacity: 1;
}
.axis path,
.axis line {
  fill: none;
  stroke: #000;
  shape-rendering: crispEdges;
}
path {
    stroke: red;
    fill: none;
}

line {
    stroke: red;
}

path.marker {
    fill: red;
}
 ]]></style></defs><g transform="translate(50,10)"><g class="bar" transform="translate(0,120)"><rect x="1" width="11.5" height="0"></rect></g><g class="bar" transform="translate(12.5,120)"><rect x="1" width="11.5" height="0"></rect></g><g class="bar" transform="translate(25,119.03614457831326)"><rect x="1" width="11.5" height="0.9638554216867448"></rect></g><g class="bar" transform="translate(37.5,106.02409638554217)"><rect x="1" width="11.5" height="13.975903614457835"></rect></g><g class="bar" transform="translate(50,40.24096385542168)"><rect x="1" width="11.5" height="79.75903614457832"></rect></g><g class="bar" transform="translate(62.5,0)"><rect x="1" width="11.5" height="120"></rect></g><g class="bar" transform="translate(75,5.783132530120483)"><rect x="1" width="11.5" height="114.21686746987952"></rect></g><g class="bar" transform="translate(87.5,7.46987951807229)"><rect x="1" width="11.5" height="112.53012048192771"></rect></g><g class="bar" transform="translate(100,30.602409638554207)"><rect x="1" width="11.5" height="89.3975903614458"></rect></g><g class="bar" transform="translate(112.5,70.48192771084337)"><rect x="1" width="11.5" height="49.518072289156635"></rect></g><g class="bar" transform="translate(125,96.50602409638554)"><rect x="1" width="11.5" height="23.493975903614455"></rect></g><g class="bar" transform="translate(137.5,116.02409638554217)"><rect x="1" width="11.5" height="3.9759036144578346"></rect></g><g class="bar" transform="translate(150,119.39759036144578)"><rect x="1" width="11.5" height="0.6024096385542208"></rect></g><g class="bar" transform="translate(162.5,120)"><rect x="1" width="11.5" height="0"></rect></g><g class="bar" transform="translate(175,120)"><rect x="1" width="11.5" height="0"></rect></g><g class="bar" transform="translate(187.5,120)"><rect x="1" width="11.5" height="0"></rect></g></g></svg>