<svg xmlns="http://www.w3.org/2000/svg" width="600" height="350"><defs><style type="text/css"><![CDATA[ 
.bar rect {
  fill-opacity: 0;
  stroke:       black;
  stroke-width: 0.5;
}

.highlight rect {
  fill:       red;
  fill-opacity: 1;
}
.axis path,
.axis line {
  fill: none;
  stroke: #000;
  shape-rendering: crispEdges;
}
path {
    stroke: red;
    fill: none;
}

line {
    stroke: red;
}

path.marker {
    fill: red;
}
 ]]></style></defs><g transform="translate(50,10)"><g class="bar" transform="translate(0,297.97178130511463)"><rect x="1" width="11.999999999999996" height="12.028218694885368"></rect></g><g class="bar" transform="translate(12.999999999999996,264.620811287478)"><rect x="1" width="11.999999999999996" height="45.37918871252202"></rect></g><g class="bar" transform="translate(25.999999999999993,256.96649029982365)"><rect x="1" width="11.999999999999996" height="53.03350970017635"></rect></g><g class="bar" transform="translate(39.00000000000001,227.44268077601413)"><rect x="1" width="11.999999999999996" height="82.55731922398587"></rect></g><g class="bar" transform="translate(52,208.30687830687833)"><rect x="1" width="11.999999999999996" height="101.69312169312167"></rect></g><g class="bar" transform="translate(65,183.7037037037037)"><rect x="1" width="11.999999999999996" height="126.2962962962963"></rect></g><g class="bar" transform="translate(78.00000000000001,154.72663139329808)"><rect x="1" width="11.999999999999996" height="155.27336860670192"></rect></g><g class="bar" transform="translate(91.00000000000001,151.99294532627866)"><rect x="1" width="11.999999999999996" height="158.00705467372134"></rect></g><g class="bar" transform="translate(104,159.10052910052912)"><rect x="1" width="11.999999999999996" height="150.89947089947088"></rect></g><g class="bar" transform="translate(117,134.49735449735448)"><rect x="1" width="11.999999999999996" height="175.50264550264552"></rect></g><g class="bar" transform="translate(130,90.75837742504407)"><rect x="1" width="11.999999999999996" height="219.24162257495593"></rect></g><g class="bar" transform="translate(143,71.0758377425044)"><rect x="1" width="11.999999999999996" height="238.9241622574956"></rect></g><g class="bar" transform="translate(156.00000000000003,34.9911816578483)"><rect x="1" width="11.999999999999996" height="275.0088183421517"></rect></g><g class="bar" transform="translate(169,28.430335097001773)"><rect x="1" width="11.999999999999996" height="281.5696649029982"></rect></g><g class="bar" transform="translate(182.00000000000003,0)"><rect x="1" width="11.999999999999996" height="310"></rect></g><g class="bar" transform="translate(195,52.48677248677251)"><rect x="1" width="11.999999999999996" height="257.5132275132275"></rect></g><g class="bar" transform="translate(208,12.574955908289269)"><rect x="1" width="11.999999999999996" height="297.42504409171073"></rect></g><g class="bar" transform="translate(221.00000000000003,33.897707231040556)"><rect x="1" width="11.999999999999996" height="276.10229276895944"></rect></g><g class="bar" transform="translate(234,39.36507936507934)"><rect x="1" width="11.999999999999996" height="270.63492063492066"></rect></g><g class="bar" transform="translate(247.00000000000003,33.897707231040556)"><rect x="1" width="11.999999999999996" height="276.10229276895944"></rect></g><g class="bar" transform="translate(260,49.206349206349216)"><rect x="1" width="11.999999999999996" height="260.7936507936508"></rect></g><g class="bar" transform="translate(273,80.91710758377425)"><rect x="1" width="11.999999999999996" height="229.08289241622575"></rect></g><g class="bar" transform="translate(286,126.84303350970018)"><rect x="1" width="11.999999999999996" height="183.15696649029982"></rect></g><g class="bar" transform="translate(299.00000000000006,165.1146384479718)"><rect x="1" width="11.999999999999996" height="144.8853615520282"></rect></g><g class="bar" transform="translate(312.00000000000006,253.68606701940035)"><rect x="1" width="11.999999999999996" height="56.313932980599645"></rect></g><g class="bar" transform="translate(325,271.1816578483245)"><rect x="1" width="11.999999999999996" height="38.818342151675495"></rect></g><g class="bar" transform="translate(338,284.8500881834215)"><rect x="1" width="11.999999999999996" height="25.14991181657848"></rect></g><g class="bar" transform="translate(351,299.0652557319224)"><rect x="1" width="11.999999999999996" height="10.934744268077623"></rect></g><g class="bar" transform="translate(364.00000000000006,305.62610229276896)"><rect x="1" width="11.999999999999996" height="4.373897707231038"></rect></g><g class="bar" transform="translate(377.00000000000006,306.17283950617286)"><rect x="1" width="11.999999999999996" height="3.8271604938271366"></rect></g><g class="bar" transform="translate(390,307.81305114638445)"><rect x="1" width="11.999999999999996" height="2.1869488536155473"></rect></g><g class="bar" transform="translate(403,308.90652557319225)"><rect x="1" width="11.999999999999996" height="1.0934744268077452"></rect></g><g class="bar" transform="translate(416,310)"><rect x="1" width="11.999999999999996" height="0"></rect></g><g class="bar" transform="translate(429.00000000000006,310)"><rect x="1" width="11.999999999999996" height="0"></rect></g><g class="bar" transform="translate(442.00000000000006,310)"><rect x="1" width="11.999999999999996" height="0"></rect></g><g class="bar" transform="translate(455,310)"><rect x="1" width="11.999999999999996" height="0"></rect></g><g class="bar" transform="translate(468,310)"><rect x="1" width="11.999999999999996" height="0"></rect></g><g class="bar" transform="translate(481,310)"><rect x="1" width="11.999999999999996" height="0"></rect></g><g class="bar" transform="translate(494.00000000000006,310)"><rect x="1" width="11.999999999999996" height="0"></rect></g><g class="bar" transform="translate(507.00000000000006,310)"><rect x="1" width="11.999999999999996" height="0"></rect></g><g class="axis axis--x" transform="translate(0,310)" fill="none" font-size="10" font-family="sans-serif" text-anchor="middle"><path class="domain" stroke="#000" d="M0.5,6V0.5H520.5V6"></path><g class="tick" opacity="1" transform="translate(0.5,0)"><line stroke="#000" y2="6"></line><text fill="#000" y="9" dy="0.71em">0.01</text></g><g class="tick" opacity="1" transform="translate(130.5,0)"><line stroke="#000" y2="6"></line><text fill="#000" y="9" dy="0.71em">1</text></g><g class="tick" opacity="1" transform="translate(260.5,0)"><line stroke="#000" y2="6"></line><text fill="#000" y="9" dy="0.71em">100</text></g><g class="tick" opacity="1" transform="translate(390.5,0)"><line stroke="#000" y2="6"></line><text fill="#000" y="9" dy="0.71em">10000</text></g><g class="tick" opacity="1" transform="translate(520.5,0)"><line stroke="#000" y2="6"></line><text fill="#000" y="9" dy="0.71em"></text></g></g><g class="axis axis--y" fill="none" font-size="10" font-family="sans-serif" text-anchor="end"><path class="domain" stroke="#000" d="M-6,310.5H0.5V0.5H-6"></path><g class="tick" opacity="1" transform="translate(0,310.5)"><line stroke="#000" x2="-6"></line><text fill="#000" x="-9" dy="0.32em">0</text></g><g class="tick" opacity="1" transform="translate(0,283.163139329806)"><line stroke="#000" x2="-6"></line><text fill="#000" x="-9" dy="0.32em">50</text></g><g class="tick" opacity="1" transform="translate(0,255.826278659612)"><line stroke="#000" x2="-6"></line><text fill="#000" x="-9" dy="0.32em">100</text></g><g class="tick" opacity="1" transform="translate(0,228.48941798941797)"><line stroke="#000" x2="-6"></line><text fill="#000" x="-9" dy="0.32em">150</text></g><g class="tick" opacity="1" transform="translate(0,201.152557319224)"><line stroke="#000" x2="-6"></line><text fill="#000" x="-9" dy="0.32em">200</text></g><g class="tick" opacity="1" transform="translate(0,173.81569664903)"><line stroke="#000" x2="-6"></line><text fill="#000" x="-9" dy="0.32em">250</text></g><g class="tick" opacity="1" transform="translate(0,146.47883597883597)"><line stroke="#000" x2="-6"></line><text fill="#000" x="-9" dy="0.32em">300</text></g><g class="tick" opacity="1" transform="translate(0,119.14197530864197)"><line stroke="#000" x2="-6"></line><text fill="#000" x="-9" dy="0.32em">350</text></g><g class="tick" opacity="1" transform="translate(0,91.80511463844798)"><line stroke="#000" x2="-6"></line><text fill="#000" x="-9" dy="0.32em">400</text></g><g class="tick" opacity="1" transform="translate(0,64.46825396825398)"><line stroke="#000" x2="-6"></line><text fill="#000" x="-9" dy="0.32em">450</text></g><g class="tick" opacity="1" transform="translate(0,37.131393298060004)"><line stroke="#000" x2="-6"></line><text fill="#000" x="-9" dy="0.32em">500</text></g><g class="tick" opacity="1" transform="translate(0,9.794532627865976)"><line stroke="#000" x2="-6"></line><text fill="#000" x="-9" dy="0.32em">550</text></g></g></g></svg>