<svg xmlns="http://www.w3.org/2000/svg" width="280" height="160"><defs><style type="text/css"><![CDATA[ 
.bar rect {
  fill-opacity: 0;
  stroke:       black;
  stroke-width: 0.5;
}

.highlight rect {
  fill:       red;
  fill-opacity: 1;
}
.axis path,
.axis line {
  fill: none;
  stroke: #000;
  shape-rendering: crispEdges;
}
 ]]></style></defs><g transform="translate(50,10)"><g class="bar" transform="translate(0,120)"><rect x="1" width="11.5" height="0"></rect></g><g class="bar" transform="translate(12.5,118.86471144749291)"><rect x="1" width="11.5" height="1.1352885525070917"></rect></g><g class="bar" transform="translate(25,116.70766319772942)"><rect x="1" width="11.5" height="3.292336802270583"></rect></g><g class="bar" transform="translate(37.5,105.69536423841059)"><rect x="1" width="11.5" height="14.30463576158941"></rect></g><g class="bar" transform="translate(50,80.60548722800378)"><rect x="1" width="11.5" height="39.39451277199622"></rect></g><g class="bar" transform="translate(62.5,36.21570482497634)"><rect x="1" width="11.5" height="83.78429517502366"></rect></g><g class="bar" transform="translate(75,6.698202459791858)"><rect x="1" width="11.5" height="113.30179754020814"></rect></g><g class="bar" transform="translate(87.5,0)"><rect x="1" width="11.5" height="120"></rect></g><g class="bar" transform="translate(100,35.42100283822138)"><rect x="1" width="11.5" height="84.57899716177862"></rect></g><g class="bar" transform="translate(112.5,80.03784295175024)"><rect x="1" width="11.5" height="39.962157048249765"></rect></g><g class="bar" transform="translate(125,107.17123935666982)"><rect x="1" width="11.5" height="12.828760643330185"></rect></g><g class="bar" transform="translate(137.5,116.93472090823084)"><rect x="1" width="11.5" height="3.065279091769156"></rect></g><g class="bar" transform="translate(150,119.54588457899716)"><rect x="1" width="11.5" height="0.4541154210028395"></rect></g><g class="bar" transform="translate(162.5,119.54588457899716)"><rect x="1" width="11.5" height="0.4541154210028395"></rect></g><g class="bar" transform="translate(175,120)"><rect x="1" width="11.5" height="0"></rect></g><g class="bar" transform="translate(187.5,120)"><rect x="1" width="11.5" height="0"></rect></g></g></svg>