<svg xmlns="http://www.w3.org/2000/svg" width="600" height="350"><defs><style type="text/css"><![CDATA[ 
.bar rect {
  fill-opacity: 0;
  stroke:       black;
  stroke-width: 0.5;
}

.highlight rect {
  fill:       red;
  fill-opacity: 1;
}
.axis path,
.axis line {
  fill: none;
  stroke: #000;
  shape-rendering: crispEdges;
}
 ]]></style></defs><g transform="translate(50,10)"><g class="bar" transform="translate(0,310)"><rect x="1" width="11.999999999999996" height="0"></rect></g><g class="bar" transform="translate(12.999999999999996,310)"><rect x="1" width="11.999999999999996" height="0"></rect></g><g class="bar" transform="translate(25.999999999999993,310)"><rect x="1" width="11.999999999999996" height="0"></rect></g><g class="bar" transform="translate(39.00000000000001,310)"><rect x="1" width="11.999999999999996" height="0"></rect></g><g class="bar" transform="translate(52,310)"><rect x="1" width="11.999999999999996" height="0"></rect></g><g class="bar" transform="translate(65,310)"><rect x="1" width="11.999999999999996" height="0"></rect></g><g class="bar" transform="translate(78.00000000000001,310)"><rect x="1" width="11.999999999999996" height="0"></rect></g><g class="bar" transform="translate(91.00000000000001,306.58402203856747)"><rect x="1" width="11.999999999999996" height="3.4159779614325316"></rect></g><g class="bar" transform="translate(104,304.87603305785126)"><rect x="1" width="11.999999999999996" height="5.123966942148741"></rect></g><g class="bar" transform="translate(117,264.73829201101927)"><rect x="1" width="11.999999999999996" height="45.26170798898073"></rect></g><g class="bar" transform="translate(130,284.3801652892562)"><rect x="1" width="11.999999999999996" height="25.619834710743817"></rect></g><g class="bar" transform="translate(143,208.37465564738292)"><rect x="1" width="11.999999999999996" height="101.62534435261708"></rect></g><g class="bar" transform="translate(156.00000000000003,260.46831955922863)"><rect x="1" width="11.999999999999996" height="49.53168044077137"></rect></g><g class="bar" transform="translate(169,255.3443526170799)"><rect x="1" width="11.999999999999996" height="54.65564738292011"></rect></g><g class="bar" transform="translate(182.00000000000003,197.27272727272725)"><rect x="1" width="11.999999999999996" height="112.72727272727275"></rect></g><g class="bar" transform="translate(195,116.14325068870525)"><rect x="1" width="11.999999999999996" height="193.85674931129475"></rect></g><g class="bar" transform="translate(208,0)"><rect x="1" width="11.999999999999996" height="310"></rect></g><g class="bar" transform="translate(221.00000000000003,26.47382920110192)"><rect x="1" width="11.999999999999996" height="283.5261707988981"></rect></g><g class="bar" transform="translate(234,81.12947658402203)"><rect x="1" width="11.999999999999996" height="228.87052341597797"></rect></g><g class="bar" transform="translate(247.00000000000003,107.60330578512395)"><rect x="1" width="11.999999999999996" height="202.39669421487605"></rect></g><g class="bar" transform="translate(260,145.17906336088154)"><rect x="1" width="11.999999999999996" height="164.82093663911846"></rect></g><g class="bar" transform="translate(273,236.55647382920108)"><rect x="1" width="11.999999999999996" height="73.44352617079892"></rect></g><g class="bar" transform="translate(286,237.41046831955924)"><rect x="1" width="11.999999999999996" height="72.58953168044076"></rect></g><g class="bar" transform="translate(299.00000000000006,272.42424242424244)"><rect x="1" width="11.999999999999996" height="37.575757575757564"></rect></g><g class="bar" transform="translate(312.00000000000006,269.0082644628099)"><rect x="1" width="11.999999999999996" height="40.991735537190095"></rect></g><g class="bar" transform="translate(325,284.3801652892562)"><rect x="1" width="11.999999999999996" height="25.619834710743817"></rect></g><g class="bar" transform="translate(338,286.08815426997245)"><rect x="1" width="11.999999999999996" height="23.91184573002755"></rect></g><g class="bar" transform="translate(351,292.06611570247935)"><rect x="1" width="11.999999999999996" height="17.93388429752065"></rect></g><g class="bar" transform="translate(364.00000000000006,288.6501377410468)"><rect x="1" width="11.999999999999996" height="21.34986225895318"></rect></g><g class="bar" transform="translate(377.00000000000006,304.0220385674931)"><rect x="1" width="11.999999999999996" height="5.977961432506902"></rect></g><g class="bar" transform="translate(390,304.87603305785126)"><rect x="1" width="11.999999999999996" height="5.123966942148741"></rect></g><g class="bar" transform="translate(403,304.87603305785126)"><rect x="1" width="11.999999999999996" height="5.123966942148741"></rect></g><g class="bar" transform="translate(416,308.29201101928373)"><rect x="1" width="11.999999999999996" height="1.7079889807162658"></rect></g><g class="bar" transform="translate(429.00000000000006,310)"><rect x="1" width="11.999999999999996" height="0"></rect></g><g class="bar" transform="translate(442.00000000000006,309.1460055096419)"><rect x="1" width="11.999999999999996" height="0.8539944903581045"></rect></g><g class="bar" transform="translate(455,309.1460055096419)"><rect x="1" width="11.999999999999996" height="0.8539944903581045"></rect></g><g class="bar" transform="translate(468,310)"><rect x="1" width="11.999999999999996" height="0"></rect></g><g class="bar" transform="translate(481,310)"><rect x="1" width="11.999999999999996" height="0"></rect></g><g class="bar" transform="translate(494.00000000000006,310)"><rect x="1" width="11.999999999999996" height="0"></rect></g><g class="bar" transform="translate(507.00000000000006,310)"><rect x="1" width="11.999999999999996" height="0"></rect></g><g class="axis axis--x" transform="translate(0,310)" fill="none" font-size="10" font-family="sans-serif" text-anchor="middle"><path class="domain" stroke="#000" d="M0.5,6V0.5H520.5V6"></path><g class="tick" opacity="1" transform="translate(0,0)"><line stroke="#000" y2="6" x1="0.5" x2="0.5"></line><text fill="#000" y="9" x="0.5" dy="0.71em">0.01</text></g><g class="tick" opacity="1" transform="translate(130,0)"><line stroke="#000" y2="6" x1="0.5" x2="0.5"></line><text fill="#000" y="9" x="0.5" dy="0.71em">1</text></g><g class="tick" opacity="1" transform="translate(260,0)"><line stroke="#000" y2="6" x1="0.5" x2="0.5"></line><text fill="#000" y="9" x="0.5" dy="0.71em">100</text></g><g class="tick" opacity="1" transform="translate(390,0)"><line stroke="#000" y2="6" x1="0.5" x2="0.5"></line><text fill="#000" y="9" x="0.5" dy="0.71em">10000</text></g><g class="tick" opacity="1" transform="translate(520,0)"><line stroke="#000" y2="6" x1="0.5" x2="0.5"></line><text fill="#000" y="9" x="0.5" dy="0.71em"></text></g></g><g class="axis axis--y" fill="none" font-size="10" font-family="sans-serif" text-anchor="end"><path class="domain" stroke="#000" d="M-6,310.5H0.5V0.5H-6"></path><g class="tick" opacity="1" transform="translate(0,310)"><line stroke="#000" x2="-6" y1="0.5" y2="0.5"></line><text fill="#000" x="-9" y="0.5" dy="0.32em">0</text></g><g class="tick" opacity="1" transform="translate(0,267.30027548209364)"><line stroke="#000" x2="-6" y1="0.5" y2="0.5"></line><text fill="#000" x="-9" y="0.5" dy="0.32em">50</text></g><g class="tick" opacity="1" transform="translate(0,224.60055096418733)"><line stroke="#000" x2="-6" y1="0.5" y2="0.5"></line><text fill="#000" x="-9" y="0.5" dy="0.32em">100</text></g><g class="tick" opacity="1" transform="translate(0,181.900826446281)"><line stroke="#000" x2="-6" y1="0.5" y2="0.5"></line><text fill="#000" x="-9" y="0.5" dy="0.32em">150</text></g><g class="tick" opacity="1" transform="translate(0,139.20110192837464)"><line stroke="#000" x2="-6" y1="0.5" y2="0.5"></line><text fill="#000" x="-9" y="0.5" dy="0.32em">200</text></g><g class="tick" opacity="1" transform="translate(0,96.50137741046834)"><line stroke="#000" x2="-6" y1="0.5" y2="0.5"></line><text fill="#000" x="-9" y="0.5" dy="0.32em">250</text></g><g class="tick" opacity="1" transform="translate(0,53.801652892562004)"><line stroke="#000" x2="-6" y1="0.5" y2="0.5"></line><text fill="#000" x="-9" y="0.5" dy="0.32em">300</text></g><g class="tick" opacity="1" transform="translate(0,11.101928374655643)"><line stroke="#000" x2="-6" y1="0.5" y2="0.5"></line><text fill="#000" x="-9" y="0.5" dy="0.32em">350</text></g></g></g></svg>