<svg xmlns="http://www.w3.org/2000/svg" width="280" height="160"><defs><style type="text/css"><![CDATA[ 
.bar rect {
  fill-opacity: 0;
  stroke:       black;
  stroke-width: 0.5;
}

.highlight rect {
  fill:       red;
  fill-opacity: 1;
}
.axis path,
.axis line {
  fill: none;
  stroke: #000;
  shape-rendering: crispEdges;
}
path {
    stroke: red;
    fill: none;
}

line {
    stroke: red;
}

path.marker {
    fill: red;
}
 ]]></style></defs><g transform="translate(50,10)"><g class="bar" transform="translate(0,107.16279069767442)"><rect x="1" width="11.5" height="12.837209302325576"></rect></g><g class="bar" transform="translate(12.5,106.79069767441861)"><rect x="1" width="11.5" height="13.20930232558139"></rect></g><g class="bar" transform="translate(25,93.3953488372093)"><rect x="1" width="11.5" height="26.604651162790702"></rect></g><g class="bar" transform="translate(37.5,68.65116279069767)"><rect x="1" width="11.5" height="51.34883720930233"></rect></g><g class="bar" transform="translate(50,36.279069767441854)"><rect x="1" width="11.5" height="83.72093023255815"></rect></g><g class="bar" transform="translate(62.5,12.651162790697683)"><rect x="1" width="11.5" height="107.34883720930232"></rect></g><g class="bar" transform="translate(75,7.255813953488371)"><rect x="1" width="11.5" height="112.74418604651163"></rect></g><g class="bar" transform="translate(87.5,0)"><rect x="1" width="11.5" height="120"></rect></g><g class="bar" transform="translate(100,21.395348837209298)"><rect x="1" width="11.5" height="98.6046511627907"></rect></g><g class="bar" transform="translate(112.5,62.88372093023256)"><rect x="1" width="11.5" height="57.11627906976744"></rect></g><g class="bar" transform="translate(125,84.83720930232559)"><rect x="1" width="11.5" height="35.16279069767441"></rect></g><g class="bar" transform="translate(137.5,110.88372093023256)"><rect x="1" width="11.5" height="9.116279069767444"></rect></g><g class="bar" transform="translate(150,119.25581395348837)"><rect x="1" width="11.5" height="0.7441860465116292"></rect></g><g class="bar" transform="translate(162.5,119.62790697674419)"><rect x="1" width="11.5" height="0.3720930232558146"></rect></g><g class="bar" transform="translate(175,120)"><rect x="1" width="11.5" height="0"></rect></g><g class="bar" transform="translate(187.5,120)"><rect x="1" width="11.5" height="0"></rect></g></g></svg>