<svg xmlns="http://www.w3.org/2000/svg" width="600" height="350"><defs><style type="text/css"><![CDATA[ 
.bar rect {
  fill-opacity: 0;
  stroke:       black;
  stroke-width: 0.5;
}

.highlight rect {
  fill:       red;
  fill-opacity: 1;
}
.axis path,
.axis line {
  fill: none;
  stroke: #000;
  shape-rendering: crispEdges;
}
path {
    stroke: red;
    fill: none;
}

line {
    stroke: red;
}

path.marker {
    fill: red;
}
 ]]></style></defs><g transform="translate(50,10)"><g class="bar" transform="translate(0,303.0075187969925)"><rect x="1" width="11.999999999999996" height="6.9924812030075145"></rect></g><g class="bar" transform="translate(12.999999999999996,263.38345864661653)"><rect x="1" width="11.999999999999996" height="46.61654135338347"></rect></g><g class="bar" transform="translate(25.999999999999993,268.0451127819549)"><rect x="1" width="11.999999999999996" height="41.95488721804509"></rect></g><g class="bar" transform="translate(39.00000000000001,273.8721804511278)"><rect x="1" width="11.999999999999996" height="36.127819548872196"></rect></g><g class="bar" transform="translate(52,278.5338345864662)"><rect x="1" width="11.999999999999996" height="31.466165413533815"></rect></g><g class="bar" transform="translate(65,259.8872180451128)"><rect x="1" width="11.999999999999996" height="50.112781954887225"></rect></g><g class="bar" transform="translate(78.00000000000001,229.58646616541353)"><rect x="1" width="11.999999999999996" height="80.41353383458647"></rect></g><g class="bar" transform="translate(91.00000000000001,230.75187969924812)"><rect x="1" width="11.999999999999996" height="79.24812030075188"></rect></g><g class="bar" transform="translate(104,195.78947368421052)"><rect x="1" width="11.999999999999996" height="114.21052631578948"></rect></g><g class="bar" transform="translate(117,145.6766917293233)"><rect x="1" width="11.999999999999996" height="164.3233082706767"></rect></g><g class="bar" transform="translate(130,114.21052631578948)"><rect x="1" width="11.999999999999996" height="195.78947368421052"></rect></g><g class="bar" transform="translate(143,86.24060150375942)"><rect x="1" width="11.999999999999996" height="223.75939849624058"></rect></g><g class="bar" transform="translate(156.00000000000003,80.41353383458647)"><rect x="1" width="11.999999999999996" height="229.58646616541353"></rect></g><g class="bar" transform="translate(169,46.61654135338347)"><rect x="1" width="11.999999999999996" height="263.38345864661653"></rect></g><g class="bar" transform="translate(182.00000000000003,25.639097744360924)"><rect x="1" width="11.999999999999996" height="284.3609022556391"></rect></g><g class="bar" transform="translate(195,51.27819548872179)"><rect x="1" width="11.999999999999996" height="258.7218045112782"></rect></g><g class="bar" transform="translate(208,0)"><rect x="1" width="11.999999999999996" height="310"></rect></g><g class="bar" transform="translate(221.00000000000003,6.9924812030075145)"><rect x="1" width="11.999999999999996" height="303.0075187969925"></rect></g><g class="bar" transform="translate(234,18.64661654135341)"><rect x="1" width="11.999999999999996" height="291.3533834586466"></rect></g><g class="bar" transform="translate(247.00000000000003,15.150375939849653)"><rect x="1" width="11.999999999999996" height="294.84962406015035"></rect></g><g class="bar" transform="translate(260,47.781954887218035)"><rect x="1" width="11.999999999999996" height="262.21804511278197"></rect></g><g class="bar" transform="translate(273,65.26315789473685)"><rect x="1" width="11.999999999999996" height="244.73684210526315"></rect></g><g class="bar" transform="translate(286,108.38345864661653)"><rect x="1" width="11.999999999999996" height="201.61654135338347"></rect></g><g class="bar" transform="translate(299.00000000000006,172.48120300751881)"><rect x="1" width="11.999999999999996" height="137.51879699248119"></rect></g><g class="bar" transform="translate(312.00000000000006,180.6390977443609)"><rect x="1" width="11.999999999999996" height="129.3609022556391"></rect></g><g class="bar" transform="translate(325,189.96240601503757)"><rect x="1" width="11.999999999999996" height="120.03759398496243"></rect></g><g class="bar" transform="translate(338,256.390977443609)"><rect x="1" width="11.999999999999996" height="53.60902255639098"></rect></g><g class="bar" transform="translate(351,238.90977443609023)"><rect x="1" width="11.999999999999996" height="71.09022556390977"></rect></g><g class="bar" transform="translate(364.00000000000006,283.1954887218045)"><rect x="1" width="11.999999999999996" height="26.80451127819549"></rect></g><g class="bar" transform="translate(377.00000000000006,304.17293233082705)"><rect x="1" width="11.999999999999996" height="5.827067669172948"></rect></g><g class="bar" transform="translate(390,305.3383458646617)"><rect x="1" width="11.999999999999996" height="4.661654135338324"></rect></g><g class="bar" transform="translate(403,310)"><rect x="1" width="11.999999999999996" height="0"></rect></g><g class="bar" transform="translate(416,307.6691729323308)"><rect x="1" width="11.999999999999996" height="2.3308270676691905"></rect></g><g class="bar" transform="translate(429.00000000000006,310)"><rect x="1" width="11.999999999999996" height="0"></rect></g><g class="bar" transform="translate(442.00000000000006,310)"><rect x="1" width="11.999999999999996" height="0"></rect></g><g class="bar" transform="translate(455,310)"><rect x="1" width="11.999999999999996" height="0"></rect></g><g class="bar" transform="translate(468,310)"><rect x="1" width="11.999999999999996" height="0"></rect></g><g class="bar" transform="translate(481,310)"><rect x="1" width="11.999999999999996" height="0"></rect></g><g class="bar" transform="translate(494.00000000000006,310)"><rect x="1" width="11.999999999999996" height="0"></rect></g><g class="bar" transform="translate(507.00000000000006,310)"><rect x="1" width="11.999999999999996" height="0"></rect></g><g class="axis axis--x" transform="translate(0,310)" fill="none" font-size="10" font-family="sans-serif" text-anchor="middle"><path class="domain" stroke="#000" d="M0.5,6V0.5H520.5V6"></path><g class="tick" opacity="1" transform="translate(0.5,0)"><line stroke="#000" y2="6"></line><text fill="#000" y="9" dy="0.71em">0.01</text></g><g class="tick" opacity="1" transform="translate(130.5,0)"><line stroke="#000" y2="6"></line><text fill="#000" y="9" dy="0.71em">1</text></g><g class="tick" opacity="1" transform="translate(260.5,0)"><line stroke="#000" y2="6"></line><text fill="#000" y="9" dy="0.71em">100</text></g><g class="tick" opacity="1" transform="translate(390.5,0)"><line stroke="#000" y2="6"></line><text fill="#000" y="9" dy="0.71em">10000</text></g><g class="tick" opacity="1" transform="translate(520.5,0)"><line stroke="#000" y2="6"></line><text fill="#000" y="9" dy="0.71em"></text></g></g><g class="axis axis--y" fill="none" font-size="10" font-family="sans-serif" text-anchor="end"><path class="domain" stroke="#000" d="M-6,310.5H0.5V0.5H-6"></path><g class="tick" opacity="1" transform="translate(0,310.5)"><line stroke="#000" x2="-6"></line><text fill="#000" x="-9" dy="0.32em">0</text></g><g class="tick" opacity="1" transform="translate(0,287.19172932330827)"><line stroke="#000" x2="-6"></line><text fill="#000" x="-9" dy="0.32em">20</text></g><g class="tick" opacity="1" transform="translate(0,263.88345864661653)"><line stroke="#000" x2="-6"></line><text fill="#000" x="-9" dy="0.32em">40</text></g><g class="tick" opacity="1" transform="translate(0,240.5751879699248)"><line stroke="#000" x2="-6"></line><text fill="#000" x="-9" dy="0.32em">60</text></g><g class="tick" opacity="1" transform="translate(0,217.2669172932331)"><line stroke="#000" x2="-6"></line><text fill="#000" x="-9" dy="0.32em">80</text></g><g class="tick" opacity="1" transform="translate(0,193.95864661654136)"><line stroke="#000" x2="-6"></line><text fill="#000" x="-9" dy="0.32em">100</text></g><g class="tick" opacity="1" transform="translate(0,170.65037593984962)"><line stroke="#000" x2="-6"></line><text fill="#000" x="-9" dy="0.32em">120</text></g><g class="tick" opacity="1" transform="translate(0,147.3421052631579)"><line stroke="#000" x2="-6"></line><text fill="#000" x="-9" dy="0.32em">140</text></g><g class="tick" opacity="1" transform="translate(0,124.03383458646618)"><line stroke="#000" x2="-6"></line><text fill="#000" x="-9" dy="0.32em">160</text></g><g class="tick" opacity="1" transform="translate(0,100.72556390977445)"><line stroke="#000" x2="-6"></line><text fill="#000" x="-9" dy="0.32em">180</text></g><g class="tick" opacity="1" transform="translate(0,77.41729323308272)"><line stroke="#000" x2="-6"></line><text fill="#000" x="-9" dy="0.32em">200</text></g><g class="tick" opacity="1" transform="translate(0,54.10902255639098)"><line stroke="#000" x2="-6"></line><text fill="#000" x="-9" dy="0.32em">220</text></g><g class="tick" opacity="1" transform="translate(0,30.80075187969925)"><line stroke="#000" x2="-6"></line><text fill="#000" x="-9" dy="0.32em">240</text></g><g class="tick" opacity="1" transform="translate(0,7.4924812030075145)"><line stroke="#000" x2="-6"></line><text fill="#000" x="-9" dy="0.32em">260</text></g></g></g></svg>