<svg xmlns="http://www.w3.org/2000/svg" width="600" height="350"><defs><style type="text/css"><![CDATA[ 
.bar rect {
  fill-opacity: 0;
  stroke:       black;
  stroke-width: 0.5;
}

.highlight rect {
  fill:       red;
  fill-opacity: 1;
}
.axis path,
.axis line {
  fill: none;
  stroke: #000;
  shape-rendering: crispEdges;
}
path {
    stroke: red;
    fill: none;
}

line {
    stroke: red;
}

path.marker {
    fill: red;
}
 ]]></style></defs><g transform="translate(50,10)"><g class="bar" transform="translate(0,290.5055487053021)"><rect x="1" width="5.500000000000005" height="19.49445129469791"></rect></g><g class="bar" transform="translate(6.500000000000005,290.8877928483354)"><rect x="1" width="5.500000000000005" height="19.11220715166462"></rect></g><g class="bar" transform="translate(12.999999999999996,275.2157829839704)"><rect x="1" width="5.500000000000005" height="34.78421701602957"></rect></g><g class="bar" transform="translate(19.500000000000004,269.8643649815043)"><rect x="1" width="5.500000000000005" height="40.13563501849569"></rect></g><g class="bar" transform="translate(25.999999999999993,266.0419235511714)"><rect x="1" width="5.500000000000005" height="43.95807644882859"></rect></g><g class="bar" transform="translate(32.5,251.8988902589396)"><rect x="1" width="5.500000000000005" height="58.10110974106041"></rect></g><g class="bar" transform="translate(39.00000000000001,248.07644882860666)"><rect x="1" width="5.500000000000005" height="61.92355117139334"></rect></g><g class="bar" transform="translate(45.500000000000014,230.1109741060419)"><rect x="1" width="5.500000000000005" height="79.88902589395809"></rect></g><g class="bar" transform="translate(52,236.6091245376079)"><rect x="1" width="5.500000000000005" height="73.3908754623921"></rect></g><g class="bar" transform="translate(58.49999999999999,225.52404438964243)"><rect x="1" width="5.500000000000005" height="84.47595561035757"></rect></g><g class="bar" transform="translate(65,217.87916152897657)"><rect x="1" width="5.500000000000005" height="92.12083847102343"></rect></g><g class="bar" transform="translate(71.5,220.9371146732429)"><rect x="1" width="5.500000000000005" height="89.06288532675711"></rect></g><g class="bar" transform="translate(78.00000000000001,213.29223181257706)"><rect x="1" width="5.500000000000005" height="96.70776818742294"></rect></g><g class="bar" transform="translate(84.5,218.64364981504315)"><rect x="1" width="5.500000000000005" height="91.35635018495685"></rect></g><g class="bar" transform="translate(91.00000000000001,220.55487053020963)"><rect x="1" width="5.500000000000005" height="89.44512946979037"></rect></g><g class="bar" transform="translate(97.5,204.50061652281136)"><rect x="1" width="5.500000000000005" height="105.49938347718864"></rect></g><g class="bar" transform="translate(104,183.47718865598029)"><rect x="1" width="5.500000000000005" height="126.52281134401971"></rect></g><g class="bar" transform="translate(110.50000000000001,154.42663378545006)"><rect x="1" width="5.500000000000005" height="155.57336621454994"></rect></g><g class="bar" transform="translate(117,110.46855733662147)"><rect x="1" width="5.500000000000005" height="199.53144266337853"></rect></g><g class="bar" transform="translate(123.50000000000001,89.44512946979037)"><rect x="1" width="5.500000000000005" height="220.55487053020963"></rect></g><g class="bar" transform="translate(130,57.33662145499383)"><rect x="1" width="5.500000000000005" height="252.66337854500617"></rect></g><g class="bar" transform="translate(136.5,61.54130702836005)"><rect x="1" width="5.500000000000005" height="248.45869297163995"></rect></g><g class="bar" transform="translate(143,83.32922318125773)"><rect x="1" width="5.500000000000005" height="226.67077681874227"></rect></g><g class="bar" transform="translate(149.50000000000003,88.68064118372382)"><rect x="1" width="5.500000000000005" height="221.31935881627618"></rect></g><g class="bar" transform="translate(156.00000000000003,106.26387176325525)"><rect x="1" width="5.500000000000005" height="203.73612823674475"></rect></g><g class="bar" transform="translate(162.5,83.32922318125773)"><rect x="1" width="5.500000000000005" height="226.67077681874227"></rect></g><g class="bar" transform="translate(169,79.88902589395806)"><rect x="1" width="5.500000000000005" height="230.11097410604194"></rect></g><g class="bar" transform="translate(175.5,51.22071516646116)"><rect x="1" width="5.500000000000005" height="258.77928483353884"></rect></g><g class="bar" transform="translate(182.00000000000003,27.521578298397003)"><rect x="1" width="5.500000000000005" height="282.478421701603"></rect></g><g class="bar" transform="translate(188.50000000000003,17.96547472256475)"><rect x="1" width="5.500000000000005" height="292.03452527743525"></rect></g><g class="bar" transform="translate(195,0)"><rect x="1" width="5.500000000000005" height="310"></rect></g><g class="bar" transform="translate(201.5,9.9383477188656)"><rect x="1" width="5.500000000000005" height="300.0616522811344"></rect></g><g class="bar" transform="translate(208,25.61035758323061)"><rect x="1" width="5.500000000000005" height="284.3896424167694"></rect></g><g class="bar" transform="translate(214.50000000000003,78.3600493218249)"><rect x="1" width="5.500000000000005" height="231.6399506781751"></rect></g><g class="bar" transform="translate(221.00000000000003,89.44512946979037)"><rect x="1" width="5.500000000000005" height="220.55487053020963"></rect></g><g class="bar" transform="translate(227.5,145.25277435265107)"><rect x="1" width="5.500000000000005" height="164.74722564734893"></rect></g><g class="bar" transform="translate(234,172.3921085080148)"><rect x="1" width="5.500000000000005" height="137.6078914919852"></rect></g><g class="bar" transform="translate(240.5,192.65104808877928)"><rect x="1" width="5.500000000000005" height="117.34895191122072"></rect></g><g class="bar" transform="translate(247.00000000000003,210.99876695437732)"><rect x="1" width="5.500000000000005" height="99.00123304562268"></rect></g><g class="bar" transform="translate(253.50000000000003,215.58569667077683)"><rect x="1" width="5.500000000000005" height="94.41430332922317"></rect></g><g class="bar" transform="translate(260,228.19975339087546)"><rect x="1" width="5.500000000000005" height="81.80024660912454"></rect></g><g class="bar" transform="translate(266.50000000000006,235.46239210850803)"><rect x="1" width="5.500000000000005" height="74.53760789149197"></rect></g><g class="bar" transform="translate(273,245.40073982737363)"><rect x="1" width="5.500000000000005" height="64.59926017262637"></rect></g><g class="bar" transform="translate(279.5,248.07644882860666)"><rect x="1" width="5.500000000000005" height="61.92355117139334"></rect></g><g class="bar" transform="translate(286,252.28113440197288)"><rect x="1" width="5.500000000000005" height="57.71886559802712"></rect></g><g class="bar" transform="translate(292.5,259.5437731196054)"><rect x="1" width="5.500000000000005" height="50.45622688039458"></rect></g><g class="bar" transform="translate(299.00000000000006,256.8680641183724)"><rect x="1" width="5.500000000000005" height="53.13193588162761"></rect></g><g class="bar" transform="translate(305.5,282.09617755856965)"><rect x="1" width="5.500000000000005" height="27.90382244143035"></rect></g><g class="bar" transform="translate(312.00000000000006,272.54007398273734)"><rect x="1" width="5.500000000000005" height="37.45992601726266"></rect></g><g class="bar" transform="translate(318.5,283.2429099876695)"><rect x="1" width="5.500000000000005" height="26.75709001233048"></rect></g><g class="bar" transform="translate(325,292.79901356350183)"><rect x="1" width="5.500000000000005" height="17.20098643649817"></rect></g><g class="bar" transform="translate(331.50000000000006,293.1812577065351)"><rect x="1" width="5.500000000000005" height="16.81874229346488"></rect></g><g class="bar" transform="translate(338,295.4747225647349)"><rect x="1" width="5.500000000000005" height="14.525277435265082"></rect></g><g class="bar" transform="translate(344.50000000000006,303.8840937114673)"><rect x="1" width="5.500000000000005" height="6.115906288532699"></rect></g><g class="bar" transform="translate(351,303.501849568434)"><rect x="1" width="5.500000000000005" height="6.498150431565989"></rect></g><g class="bar" transform="translate(357.5,305.4130702836005)"><rect x="1" width="5.500000000000005" height="4.5869297163994815"></rect></g><g class="bar" transform="translate(364.00000000000006,307.70653514180026)"><rect x="1" width="5.500000000000005" height="2.2934648581997408"></rect></g><g class="bar" transform="translate(370.5,308.47102342786684)"><rect x="1" width="5.500000000000005" height="1.5289765721331605"></rect></g><g class="bar" transform="translate(377.00000000000006,309.6177558569667)"><rect x="1" width="5.500000000000005" height="0.38224414303329013"></rect></g><g class="bar" transform="translate(383.5,309.6177558569667)"><rect x="1" width="5.500000000000005" height="0.38224414303329013"></rect></g><g class="bar" transform="translate(390,309.6177558569667)"><rect x="1" width="5.500000000000005" height="0.38224414303329013"></rect></g><g class="bar" transform="translate(396.50000000000006,310)"><rect x="1" width="5.500000000000005" height="0"></rect></g><g class="bar" transform="translate(403,310)"><rect x="1" width="5.500000000000005" height="0"></rect></g><g class="bar" transform="translate(409.50000000000006,310)"><rect x="1" width="5.500000000000005" height="0"></rect></g><g class="bar" transform="translate(416,310)"><rect x="1" width="5.500000000000005" height="0"></rect></g><g class="bar" transform="translate(422.5,310)"><rect x="1" width="5.500000000000005" height="0"></rect></g><g class="bar" transform="translate(429.00000000000006,310)"><rect x="1" width="5.500000000000005" height="0"></rect></g><g class="bar" transform="translate(435.5,310)"><rect x="1" width="5.500000000000005" height="0"></rect></g><g class="bar" transform="translate(442.00000000000006,310)"><rect x="1" width="5.500000000000005" height="0"></rect></g><g class="bar" transform="translate(448.5,310)"><rect x="1" width="5.500000000000005" height="0"></rect></g><g class="bar" transform="translate(455,310)"><rect x="1" width="5.500000000000005" height="0"></rect></g><g class="bar" transform="translate(461.50000000000006,310)"><rect x="1" width="5.500000000000005" height="0"></rect></g><g class="bar" transform="translate(468,310)"><rect x="1" width="5.500000000000005" height="0"></rect></g><g class="bar" transform="translate(474.50000000000006,310)"><rect x="1" width="5.500000000000005" height="0"></rect></g><g class="bar" transform="translate(481,310)"><rect x="1" width="5.500000000000005" height="0"></rect></g><g class="bar" transform="translate(487.5,310)"><rect x="1" width="5.500000000000005" height="0"></rect></g><g class="bar" transform="translate(494.00000000000006,310)"><rect x="1" width="5.500000000000005" height="0"></rect></g><g class="bar" transform="translate(500.5,310)"><rect x="1" width="5.500000000000005" height="0"></rect></g><g class="bar" transform="translate(507.00000000000006,310)"><rect x="1" width="5.500000000000005" height="0"></rect></g><g class="bar" transform="translate(513.5,310)"><rect x="1" width="5.500000000000005" height="0"></rect></g><g class="axis axis--x" transform="translate(0,310)" fill="none" font-size="10" font-family="sans-serif" text-anchor="middle"><path class="domain" stroke="#000" d="M0.5,6V0.5H520.5V6"></path><g class="tick" opacity="1" transform="translate(0.5,0)"><line stroke="#000" y2="6"></line><text fill="#000" y="9" dy="0.71em">0.01</text></g><g class="tick" opacity="1" transform="translate(130.5,0)"><line stroke="#000" y2="6"></line><text fill="#000" y="9" dy="0.71em">1</text></g><g class="tick" opacity="1" transform="translate(260.5,0)"><line stroke="#000" y2="6"></line><text fill="#000" y="9" dy="0.71em">100</text></g><g class="tick" opacity="1" transform="translate(390.5,0)"><line stroke="#000" y2="6"></line><text fill="#000" y="9" dy="0.71em">10000</text></g><g class="tick" opacity="1" transform="translate(520.5,0)"><line stroke="#000" y2="6"></line><text fill="#000" y="9" dy="0.71em"></text></g></g><g class="axis axis--y" fill="none" font-size="10" font-family="sans-serif" text-anchor="end"><path class="domain" stroke="#000" d="M-6,310.5H0.5V0.5H-6"></path><g class="tick" opacity="1" transform="translate(0,310.5)"><line stroke="#000" x2="-6"></line><text fill="#000" x="-9" dy="0.32em">0</text></g><g class="tick" opacity="1" transform="translate(0,272.27558569667076)"><line stroke="#000" x2="-6"></line><text fill="#000" x="-9" dy="0.32em">100</text></g><g class="tick" opacity="1" transform="translate(0,234.05117139334155)"><line stroke="#000" x2="-6"></line><text fill="#000" x="-9" dy="0.32em">200</text></g><g class="tick" opacity="1" transform="translate(0,195.82675709001234)"><line stroke="#000" x2="-6"></line><text fill="#000" x="-9" dy="0.32em">300</text></g><g class="tick" opacity="1" transform="translate(0,157.6023427866831)"><line stroke="#000" x2="-6"></line><text fill="#000" x="-9" dy="0.32em">400</text></g><g class="tick" opacity="1" transform="translate(0,119.37792848335388)"><line stroke="#000" x2="-6"></line><text fill="#000" x="-9" dy="0.32em">500</text></g><g class="tick" opacity="1" transform="translate(0,81.15351418002464)"><line stroke="#000" x2="-6"></line><text fill="#000" x="-9" dy="0.32em">600</text></g><g class="tick" opacity="1" transform="translate(0,42.92909987669543)"><line stroke="#000" x2="-6"></line><text fill="#000" x="-9" dy="0.32em">700</text></g><g class="tick" opacity="1" transform="translate(0,4.704685573366191)"><line stroke="#000" x2="-6"></line><text fill="#000" x="-9" dy="0.32em">800</text></g></g></g></svg>