<svg xmlns="http://www.w3.org/2000/svg" width="280" height="160"><defs><style type="text/css"><![CDATA[ 
.bar rect {
  fill-opacity: 0;
  stroke:       black;
  stroke-width: 0.5;
}

.highlight rect {
  fill:       red;
  fill-opacity: 1;
}
.axis path,
.axis line {
  fill: none;
  stroke: #000;
  shape-rendering: crispEdges;
}
path {
    stroke: red;
    fill: none;
}

line {
    stroke: red;
}

path.marker {
    fill: red;
}
 ]]></style></defs><g transform="translate(50,10)"><g class="bar" transform="translate(0,120)"><rect x="1" width="11.5" height="0"></rect></g><g class="bar" transform="translate(12.5,119.90267639902676)"><rect x="1" width="11.5" height="0.09732360097324033"></rect></g><g class="bar" transform="translate(25,118.15085158150852)"><rect x="1" width="11.5" height="1.849148418491481"></rect></g><g class="bar" transform="translate(37.5,111.338199513382)"><rect x="1" width="11.5" height="8.661800486618006"></rect></g><g class="bar" transform="translate(50,84.96350364963504)"><rect x="1" width="11.5" height="35.036496350364956"></rect></g><g class="bar" transform="translate(62.5,54.598540145985396)"><rect x="1" width="11.5" height="65.4014598540146"></rect></g><g class="bar" transform="translate(75,20.729927007299267)"><rect x="1" width="11.5" height="99.27007299270073"></rect></g><g class="bar" transform="translate(87.5,0)"><rect x="1" width="11.5" height="120"></rect></g><g class="bar" transform="translate(100,18.004866180048666)"><rect x="1" width="11.5" height="101.99513381995133"></rect></g><g class="bar" transform="translate(112.5,66.66666666666667)"><rect x="1" width="11.5" height="53.33333333333333"></rect></g><g class="bar" transform="translate(125,106.56934306569343)"><rect x="1" width="11.5" height="13.430656934306569"></rect></g><g class="bar" transform="translate(137.5,117.95620437956204)"><rect x="1" width="11.5" height="2.0437956204379617"></rect></g><g class="bar" transform="translate(150,119.61070559610705)"><rect x="1" width="11.5" height="0.3892944038929471"></rect></g><g class="bar" transform="translate(162.5,119.90267639902676)"><rect x="1" width="11.5" height="0.09732360097324033"></rect></g><g class="bar" transform="translate(175,120)"><rect x="1" width="11.5" height="0"></rect></g><g class="bar" transform="translate(187.5,120)"><rect x="1" width="11.5" height="0"></rect></g></g></svg>