<svg xmlns="http://www.w3.org/2000/svg" width="280" height="160"><defs><style type="text/css"><![CDATA[ 
.bar rect {
  fill-opacity: 0;
  stroke:       black;
  stroke-width: 0.5;
}

.highlight rect {
  fill:       red;
  fill-opacity: 1;
}
.axis path,
.axis line {
  fill: none;
  stroke: #000;
  shape-rendering: crispEdges;
}
 ]]></style></defs><g transform="translate(50,10)"><g class="bar" transform="translate(0,118.6829268292683)"><rect x="1" width="11.5" height="1.3170731707317032"></rect></g><g class="bar" transform="translate(12.5,118.2439024390244)"><rect x="1" width="11.5" height="1.7560975609756042"></rect></g><g class="bar" transform="translate(25,113.85365853658537)"><rect x="1" width="11.5" height="6.146341463414629"></rect></g><g class="bar" transform="translate(37.5,80.48780487804878)"><rect x="1" width="11.5" height="39.51219512195122"></rect></g><g class="bar" transform="translate(50,27.073170731707307)"><rect x="1" width="11.5" height="92.92682926829269"></rect></g><g class="bar" transform="translate(62.5,0)"><rect x="1" width="11.5" height="120"></rect></g><g class="bar" transform="translate(75,7.170731707317074)"><rect x="1" width="11.5" height="112.82926829268293"></rect></g><g class="bar" transform="translate(87.5,17.707317073170728)"><rect x="1" width="11.5" height="102.29268292682927"></rect></g><g class="bar" transform="translate(100,49.024390243902445)"><rect x="1" width="11.5" height="70.97560975609755"></rect></g><g class="bar" transform="translate(112.5,75.51219512195122)"><rect x="1" width="11.5" height="44.48780487804878"></rect></g><g class="bar" transform="translate(125,100.39024390243902)"><rect x="1" width="11.5" height="19.609756097560975"></rect></g><g class="bar" transform="translate(137.5,111.21951219512195)"><rect x="1" width="11.5" height="8.78048780487805"></rect></g><g class="bar" transform="translate(150,118.2439024390244)"><rect x="1" width="11.5" height="1.7560975609756042"></rect></g><g class="bar" transform="translate(162.5,120)"><rect x="1" width="11.5" height="0"></rect></g><g class="bar" transform="translate(175,120)"><rect x="1" width="11.5" height="0"></rect></g><g class="bar" transform="translate(187.5,120)"><rect x="1" width="11.5" height="0"></rect></g></g></svg>