<svg xmlns="http://www.w3.org/2000/svg" width="280" height="160"><defs><style type="text/css"><![CDATA[ 
.bar rect {
  fill-opacity: 0;
  stroke:       black;
  stroke-width: 0.5;
}

.highlight rect {
  fill:       red;
  fill-opacity: 1;
}
.axis path,
.axis line {
  fill: none;
  stroke: #000;
  shape-rendering: crispEdges;
}
 ]]></style></defs><g transform="translate(50,10)"><g class="bar" transform="translate(0,120)"><rect x="1" width="11.5" height="0"></rect></g><g class="bar" transform="translate(12.5,120)"><rect x="1" width="11.5" height="0"></rect></g><g class="bar" transform="translate(25,119.76190476190476)"><rect x="1" width="11.5" height="0.2380952380952408"></rect></g><g class="bar" transform="translate(37.5,97.38095238095238)"><rect x="1" width="11.5" height="22.61904761904762"></rect></g><g class="bar" transform="translate(50,34.28571428571428)"><rect x="1" width="11.5" height="85.71428571428572"></rect></g><g class="bar" transform="translate(62.5,0)"><rect x="1" width="11.5" height="120"></rect></g><g class="bar" transform="translate(75,17.142857142857153)"><rect x="1" width="11.5" height="102.85714285714285"></rect></g><g class="bar" transform="translate(87.5,21.19047619047619)"><rect x="1" width="11.5" height="98.80952380952381"></rect></g><g class="bar" transform="translate(100,43.09523809523809)"><rect x="1" width="11.5" height="76.90476190476191"></rect></g><g class="bar" transform="translate(112.5,77.14285714285714)"><rect x="1" width="11.5" height="42.85714285714286"></rect></g><g class="bar" transform="translate(125,96.19047619047619)"><rect x="1" width="11.5" height="23.80952380952381"></rect></g><g class="bar" transform="translate(137.5,109.76190476190476)"><rect x="1" width="11.5" height="10.23809523809524"></rect></g><g class="bar" transform="translate(150,118.33333333333333)"><rect x="1" width="11.5" height="1.6666666666666714"></rect></g><g class="bar" transform="translate(162.5,119.04761904761905)"><rect x="1" width="11.5" height="0.952380952380949"></rect></g><g class="bar" transform="translate(175,120)"><rect x="1" width="11.5" height="0"></rect></g><g class="bar" transform="translate(187.5,120)"><rect x="1" width="11.5" height="0"></rect></g></g></svg>