<svg xmlns="http://www.w3.org/2000/svg" width="600" height="350"><defs><style type="text/css"><![CDATA[ 
.bar rect {
  fill-opacity: 0;
  stroke:       black;
  stroke-width: 0.5;
}

.highlight rect {
  fill:       red;
  fill-opacity: 1;
}
.axis path,
.axis line {
  fill: none;
  stroke: #000;
  shape-rendering: crispEdges;
}
 ]]></style></defs><g transform="translate(50,10)"><g class="bar" transform="translate(0,310)"><rect x="1" width="11.999999999999996" height="0"></rect></g><g class="bar" transform="translate(12.999999999999996,310)"><rect x="1" width="11.999999999999996" height="0"></rect></g><g class="bar" transform="translate(25.999999999999993,310)"><rect x="1" width="11.999999999999996" height="0"></rect></g><g class="bar" transform="translate(39.00000000000001,310)"><rect x="1" width="11.999999999999996" height="0"></rect></g><g class="bar" transform="translate(52,310)"><rect x="1" width="11.999999999999996" height="0"></rect></g><g class="bar" transform="translate(65,310)"><rect x="1" width="11.999999999999996" height="0"></rect></g><g class="bar" transform="translate(78.00000000000001,308.51674641148327)"><rect x="1" width="11.999999999999996" height="1.4832535885167317"></rect></g><g class="bar" transform="translate(91.00000000000001,304.066985645933)"><rect x="1" width="11.999999999999996" height="5.933014354066984"></rect></g><g class="bar" transform="translate(104,274.4019138755981)"><rect x="1" width="11.999999999999996" height="35.5980861244019"></rect></g><g class="bar" transform="translate(117,210.622009569378)"><rect x="1" width="11.999999999999996" height="99.37799043062199"></rect></g><g class="bar" transform="translate(130,148.32535885167465)"><rect x="1" width="11.999999999999996" height="161.67464114832535"></rect></g><g class="bar" transform="translate(143,88.99521531100481)"><rect x="1" width="11.999999999999996" height="221.0047846889952"></rect></g><g class="bar" transform="translate(156.00000000000003,23.732057416267935)"><rect x="1" width="11.999999999999996" height="286.26794258373207"></rect></g><g class="bar" transform="translate(169,0)"><rect x="1" width="11.999999999999996" height="310"></rect></g><g class="bar" transform="translate(182.00000000000003,7.4162679425837155)"><rect x="1" width="11.999999999999996" height="302.5837320574163"></rect></g><g class="bar" transform="translate(195,63.77990430622009)"><rect x="1" width="11.999999999999996" height="246.2200956937799"></rect></g><g class="bar" transform="translate(208,32.63157894736844)"><rect x="1" width="11.999999999999996" height="277.36842105263156"></rect></g><g class="bar" transform="translate(221.00000000000003,48.94736842105266)"><rect x="1" width="11.999999999999996" height="261.05263157894734"></rect></g><g class="bar" transform="translate(234,62.29665071770336)"><rect x="1" width="11.999999999999996" height="247.70334928229664"></rect></g><g class="bar" transform="translate(247.00000000000003,86.02870813397129)"><rect x="1" width="11.999999999999996" height="223.9712918660287"></rect></g><g class="bar" transform="translate(260,111.24401913875599)"><rect x="1" width="11.999999999999996" height="198.755980861244"></rect></g><g class="bar" transform="translate(273,111.24401913875599)"><rect x="1" width="11.999999999999996" height="198.755980861244"></rect></g><g class="bar" transform="translate(286,163.1578947368421)"><rect x="1" width="11.999999999999996" height="146.8421052631579"></rect></g><g class="bar" transform="translate(299.00000000000006,198.75598086124404)"><rect x="1" width="11.999999999999996" height="111.24401913875596"></rect></g><g class="bar" transform="translate(312.00000000000006,219.52153110047846)"><rect x="1" width="11.999999999999996" height="90.47846889952154"></rect></g><g class="bar" transform="translate(325,229.9043062200957)"><rect x="1" width="11.999999999999996" height="80.09569377990431"></rect></g><g class="bar" transform="translate(338,262.53588516746413)"><rect x="1" width="11.999999999999996" height="47.46411483253587"></rect></g><g class="bar" transform="translate(351,274.4019138755981)"><rect x="1" width="11.999999999999996" height="35.5980861244019"></rect></g><g class="bar" transform="translate(364.00000000000006,277.36842105263156)"><rect x="1" width="11.999999999999996" height="32.63157894736844"></rect></g><g class="bar" transform="translate(377.00000000000006,293.6842105263158)"><rect x="1" width="11.999999999999996" height="16.31578947368422"></rect></g><g class="bar" transform="translate(390,304.066985645933)"><rect x="1" width="11.999999999999996" height="5.933014354066984"></rect></g><g class="bar" transform="translate(403,307.0334928229665)"><rect x="1" width="11.999999999999996" height="2.9665071770335203"></rect></g><g class="bar" transform="translate(416,307.0334928229665)"><rect x="1" width="11.999999999999996" height="2.9665071770335203"></rect></g><g class="bar" transform="translate(429.00000000000006,308.51674641148327)"><rect x="1" width="11.999999999999996" height="1.4832535885167317"></rect></g><g class="bar" transform="translate(442.00000000000006,307.0334928229665)"><rect x="1" width="11.999999999999996" height="2.9665071770335203"></rect></g><g class="bar" transform="translate(455,310)"><rect x="1" width="11.999999999999996" height="0"></rect></g><g class="bar" transform="translate(468,310)"><rect x="1" width="11.999999999999996" height="0"></rect></g><g class="bar" transform="translate(481,310)"><rect x="1" width="11.999999999999996" height="0"></rect></g><g class="bar" transform="translate(494.00000000000006,310)"><rect x="1" width="11.999999999999996" height="0"></rect></g><g class="bar" transform="translate(507.00000000000006,310)"><rect x="1" width="11.999999999999996" height="0"></rect></g><g class="axis axis--x" transform="translate(0,310)" fill="none" font-size="10" font-family="sans-serif" text-anchor="middle"><path class="domain" stroke="#000" d="M0.5,6V0.5H520.5V6"></path><g class="tick" opacity="1" transform="translate(0,0)"><line stroke="#000" y2="6" x1="0.5" x2="0.5"></line><text fill="#000" y="9" x="0.5" dy="0.71em">0.01</text></g><g class="tick" opacity="1" transform="translate(130,0)"><line stroke="#000" y2="6" x1="0.5" x2="0.5"></line><text fill="#000" y="9" x="0.5" dy="0.71em">1</text></g><g class="tick" opacity="1" transform="translate(260,0)"><line stroke="#000" y2="6" x1="0.5" x2="0.5"></line><text fill="#000" y="9" x="0.5" dy="0.71em">100</text></g><g class="tick" opacity="1" transform="translate(390,0)"><line stroke="#000" y2="6" x1="0.5" x2="0.5"></line><text fill="#000" y="9" x="0.5" dy="0.71em">10000</text></g><g class="tick" opacity="1" transform="translate(520,0)"><line stroke="#000" y2="6" x1="0.5" x2="0.5"></line><text fill="#000" y="9" x="0.5" dy="0.71em"></text></g></g><g class="axis axis--y" fill="none" font-size="10" font-family="sans-serif" text-anchor="end"><path class="domain" stroke="#000" d="M-6,310.5H0.5V0.5H-6"></path><g class="tick" opacity="1" transform="translate(0,310)"><line stroke="#000" x2="-6" y1="0.5" y2="0.5"></line><text fill="#000" x="-9" y="0.5" dy="0.32em">0</text></g><g class="tick" opacity="1" transform="translate(0,280.3349282296651)"><line stroke="#000" x2="-6" y1="0.5" y2="0.5"></line><text fill="#000" x="-9" y="0.5" dy="0.32em">20</text></g><g class="tick" opacity="1" transform="translate(0,250.66985645933013)"><line stroke="#000" x2="-6" y1="0.5" y2="0.5"></line><text fill="#000" x="-9" y="0.5" dy="0.32em">40</text></g><g class="tick" opacity="1" transform="translate(0,221.00478468899522)"><line stroke="#000" x2="-6" y1="0.5" y2="0.5"></line><text fill="#000" x="-9" y="0.5" dy="0.32em">60</text></g><g class="tick" opacity="1" transform="translate(0,191.33971291866027)"><line stroke="#000" x2="-6" y1="0.5" y2="0.5"></line><text fill="#000" x="-9" y="0.5" dy="0.32em">80</text></g><g class="tick" opacity="1" transform="translate(0,161.67464114832535)"><line stroke="#000" x2="-6" y1="0.5" y2="0.5"></line><text fill="#000" x="-9" y="0.5" dy="0.32em">100</text></g><g class="tick" opacity="1" transform="translate(0,132.00956937799043)"><line stroke="#000" x2="-6" y1="0.5" y2="0.5"></line><text fill="#000" x="-9" y="0.5" dy="0.32em">120</text></g><g class="tick" opacity="1" transform="translate(0,102.34449760765548)"><line stroke="#000" x2="-6" y1="0.5" y2="0.5"></line><text fill="#000" x="-9" y="0.5" dy="0.32em">140</text></g><g class="tick" opacity="1" transform="translate(0,72.67942583732057)"><line stroke="#000" x2="-6" y1="0.5" y2="0.5"></line><text fill="#000" x="-9" y="0.5" dy="0.32em">160</text></g><g class="tick" opacity="1" transform="translate(0,43.01435406698562)"><line stroke="#000" x2="-6" y1="0.5" y2="0.5"></line><text fill="#000" x="-9" y="0.5" dy="0.32em">180</text></g><g class="tick" opacity="1" transform="translate(0,13.3492822966507)"><line stroke="#000" x2="-6" y1="0.5" y2="0.5"></line><text fill="#000" x="-9" y="0.5" dy="0.32em">200</text></g></g></g></svg>