<svg xmlns="http://www.w3.org/2000/svg" width="280" height="160"><defs><style type="text/css"><![CDATA[ 
.bar rect {
  fill-opacity: 0;
  stroke:       black;
  stroke-width: 0.5;
}

.highlight rect {
  fill:       red;
  fill-opacity: 1;
}
.axis path,
.axis line {
  fill: none;
  stroke: #000;
  shape-rendering: crispEdges;
}
path {
    stroke: red;
    fill: none;
}

line {
    stroke: red;
}

path.marker {
    fill: red;
}
 ]]></style></defs><g transform="translate(50,10)"><g class="bar" transform="translate(0,120)"><rect x="1" width="11.5" height="0"></rect></g><g class="bar" transform="translate(12.5,120)"><rect x="1" width="11.5" height="0"></rect></g><g class="bar" transform="translate(25,120)"><rect x="1" width="11.5" height="0"></rect></g><g class="bar" transform="translate(37.5,120)"><rect x="1" width="11.5" height="0"></rect></g><g class="bar" transform="translate(50,119.62025316455696)"><rect x="1" width="11.5" height="0.37974683544304355"></rect></g><g class="bar" transform="translate(62.5,109.74683544303798)"><rect x="1" width="11.5" height="10.25316455696202"></rect></g><g class="bar" transform="translate(75,81.26582278481013)"><rect x="1" width="11.5" height="38.734177215189874"></rect></g><g class="bar" transform="translate(87.5,36.45569620253164)"><rect x="1" width="11.5" height="83.54430379746836"></rect></g><g class="bar" transform="translate(100,0)"><rect x="1" width="11.5" height="120"></rect></g><g class="bar" transform="translate(112.5,1.8987341772151893)"><rect x="1" width="11.5" height="118.10126582278481"></rect></g><g class="bar" transform="translate(125,53.92405063291139)"><rect x="1" width="11.5" height="66.07594936708861"></rect></g><g class="bar" transform="translate(137.5,95.31645569620252)"><rect x="1" width="11.5" height="24.683544303797476"></rect></g><g class="bar" transform="translate(150,118.48101265822785)"><rect x="1" width="11.5" height="1.5189873417721458"></rect></g><g class="bar" transform="translate(162.5,119.24050632911393)"><rect x="1" width="11.5" height="0.7594936708860729"></rect></g><g class="bar" transform="translate(175,120)"><rect x="1" width="11.5" height="0"></rect></g><g class="bar" transform="translate(187.5,120)"><rect x="1" width="11.5" height="0"></rect></g></g></svg>