<svg xmlns="http://www.w3.org/2000/svg" width="600" height="350"><defs><style type="text/css"><![CDATA[ 
.bar rect {
  fill-opacity: 0;
  stroke:       black;
  stroke-width: 0.5;
}

.highlight rect {
  fill:       red;
  fill-opacity: 1;
}
.axis path,
.axis line {
  fill: none;
  stroke: #000;
  shape-rendering: crispEdges;
}
path {
    stroke: red;
    fill: none;
}

line {
    stroke: red;
}

path.marker {
    fill: red;
}
 ]]></style></defs><g transform="translate(50,10)"><g class="bar" transform="translate(0,310)"><rect x="1" width="5.500000000000005" height="0"></rect></g><g class="bar" transform="translate(6.500000000000005,310)"><rect x="1" width="5.500000000000005" height="0"></rect></g><g class="bar" transform="translate(12.999999999999996,310)"><rect x="1" width="5.500000000000005" height="0"></rect></g><g class="bar" transform="translate(19.500000000000004,310)"><rect x="1" width="5.500000000000005" height="0"></rect></g><g class="bar" transform="translate(25.999999999999993,310)"><rect x="1" width="5.500000000000005" height="0"></rect></g><g class="bar" transform="translate(32.5,310)"><rect x="1" width="5.500000000000005" height="0"></rect></g><g class="bar" transform="translate(39.00000000000001,310)"><rect x="1" width="5.500000000000005" height="0"></rect></g><g class="bar" transform="translate(45.500000000000014,310)"><rect x="1" width="5.500000000000005" height="0"></rect></g><g class="bar" transform="translate(52,310)"><rect x="1" width="5.500000000000005" height="0"></rect></g><g class="bar" transform="translate(58.49999999999999,310)"><rect x="1" width="5.500000000000005" height="0"></rect></g><g class="bar" transform="translate(65,310)"><rect x="1" width="5.500000000000005" height="0"></rect></g><g class="bar" transform="translate(71.5,310)"><rect x="1" width="5.500000000000005" height="0"></rect></g><g class="bar" transform="translate(78.00000000000001,310)"><rect x="1" width="5.500000000000005" height="0"></rect></g><g class="bar" transform="translate(84.5,310)"><rect x="1" width="5.500000000000005" height="0"></rect></g><g class="bar" transform="translate(91.00000000000001,310)"><rect x="1" width="5.500000000000005" height="0"></rect></g><g class="bar" transform="translate(97.5,310)"><rect x="1" width="5.500000000000005" height="0"></rect></g><g class="bar" transform="translate(104,310)"><rect x="1" width="5.500000000000005" height="0"></rect></g><g class="bar" transform="translate(110.50000000000001,308.11550151975683)"><rect x="1" width="5.500000000000005" height="1.8844984802431668"></rect></g><g class="bar" transform="translate(117,306.23100303951367)"><rect x="1" width="5.500000000000005" height="3.7689969604863336"></rect></g><g class="bar" transform="translate(123.50000000000001,302.46200607902733)"><rect x="1" width="5.500000000000005" height="7.537993920972667"></rect></g><g class="bar" transform="translate(130,298.69300911854106)"><rect x="1" width="5.500000000000005" height="11.306990881458944"></rect></g><g class="bar" transform="translate(136.5,281.73252279635255)"><rect x="1" width="5.500000000000005" height="28.267477203647445"></rect></g><g class="bar" transform="translate(143,277.9635258358663)"><rect x="1" width="5.500000000000005" height="32.03647416413372"></rect></g><g class="bar" transform="translate(149.50000000000003,255.34954407294833)"><rect x="1" width="5.500000000000005" height="54.65045592705167"></rect></g><g class="bar" transform="translate(156.00000000000003,234.62006079027356)"><rect x="1" width="5.500000000000005" height="75.37993920972644"></rect></g><g class="bar" transform="translate(162.5,170.54711246200608)"><rect x="1" width="5.500000000000005" height="139.45288753799392"></rect></g><g class="bar" transform="translate(169,117.78115501519758)"><rect x="1" width="5.500000000000005" height="192.21884498480242"></rect></g><g class="bar" transform="translate(175.5,58.41945288753797)"><rect x="1" width="5.500000000000005" height="251.58054711246203"></rect></g><g class="bar" transform="translate(182.00000000000003,69.72644376899694)"><rect x="1" width="5.500000000000005" height="240.27355623100306"></rect></g><g class="bar" transform="translate(188.50000000000003,43.343465045592666)"><rect x="1" width="5.500000000000005" height="266.65653495440733"></rect></g><g class="bar" transform="translate(195,25.440729483282666)"><rect x="1" width="5.500000000000005" height="284.55927051671733"></rect></g><g class="bar" transform="translate(201.5,12.249240121580556)"><rect x="1" width="5.500000000000005" height="297.75075987841944"></rect></g><g class="bar" transform="translate(208,37.68996960486322)"><rect x="1" width="5.500000000000005" height="272.3100303951368"></rect></g><g class="bar" transform="translate(214.50000000000003,0)"><rect x="1" width="5.500000000000005" height="310"></rect></g><g class="bar" transform="translate(221.00000000000003,49.93920972644378)"><rect x="1" width="5.500000000000005" height="260.0607902735562"></rect></g><g class="bar" transform="translate(227.5,61.24620060790272)"><rect x="1" width="5.500000000000005" height="248.75379939209728"></rect></g><g class="bar" transform="translate(234,55.59270516717328)"><rect x="1" width="5.500000000000005" height="254.40729483282672"></rect></g><g class="bar" transform="translate(240.5,54.65045592705167)"><rect x="1" width="5.500000000000005" height="255.34954407294833"></rect></g><g class="bar" transform="translate(247.00000000000003,65.01519756838906)"><rect x="1" width="5.500000000000005" height="244.98480243161094"></rect></g><g class="bar" transform="translate(253.50000000000003,85.7446808510638)"><rect x="1" width="5.500000000000005" height="224.2553191489362"></rect></g><g class="bar" transform="translate(260,96.10942249240122)"><rect x="1" width="5.500000000000005" height="213.89057750759878"></rect></g><g class="bar" transform="translate(266.50000000000006,105.53191489361703)"><rect x="1" width="5.500000000000005" height="204.46808510638297"></rect></g><g class="bar" transform="translate(273,144.16413373860183)"><rect x="1" width="5.500000000000005" height="165.83586626139817"></rect></g><g class="bar" transform="translate(279.5,143.22188449848022)"><rect x="1" width="5.500000000000005" height="166.77811550151978"></rect></g><g class="bar" transform="translate(286,185.62310030395136)"><rect x="1" width="5.500000000000005" height="124.37689969604864"></rect></g><g class="bar" transform="translate(292.5,193.161094224924)"><rect x="1" width="5.500000000000005" height="116.838905775076"></rect></g><g class="bar" transform="translate(299.00000000000006,218.60182370820667)"><rect x="1" width="5.500000000000005" height="91.39817629179333"></rect></g><g class="bar" transform="translate(305.5,234.62006079027356)"><rect x="1" width="5.500000000000005" height="75.37993920972644"></rect></g><g class="bar" transform="translate(312.00000000000006,262.887537993921)"><rect x="1" width="5.500000000000005" height="47.112462006079"></rect></g><g class="bar" transform="translate(318.5,246.8693009118541)"><rect x="1" width="5.500000000000005" height="63.13069908814589"></rect></g><g class="bar" transform="translate(325,270.4255319148936)"><rect x="1" width="5.500000000000005" height="39.57446808510639"></rect></g><g class="bar" transform="translate(331.50000000000006,271.3677811550152)"><rect x="1" width="5.500000000000005" height="38.63221884498478"></rect></g><g class="bar" transform="translate(338,288.32826747720367)"><rect x="1" width="5.500000000000005" height="21.671732522796333"></rect></g><g class="bar" transform="translate(344.50000000000006,285.5015197568389)"><rect x="1" width="5.500000000000005" height="24.49848024316111"></rect></g><g class="bar" transform="translate(351,296.8085106382979)"><rect x="1" width="5.500000000000005" height="13.19148936170211"></rect></g><g class="bar" transform="translate(357.5,295.8662613981763)"><rect x="1" width="5.500000000000005" height="14.133738601823723"></rect></g><g class="bar" transform="translate(364.00000000000006,303.40425531914894)"><rect x="1" width="5.500000000000005" height="6.595744680851055"></rect></g><g class="bar" transform="translate(370.5,304.3465045592705)"><rect x="1" width="5.500000000000005" height="5.6534954407295"></rect></g><g class="bar" transform="translate(377.00000000000006,306.23100303951367)"><rect x="1" width="5.500000000000005" height="3.7689969604863336"></rect></g><g class="bar" transform="translate(383.5,309.05775075987845)"><rect x="1" width="5.500000000000005" height="0.942249240121555"></rect></g><g class="bar" transform="translate(390,308.11550151975683)"><rect x="1" width="5.500000000000005" height="1.8844984802431668"></rect></g><g class="bar" transform="translate(396.50000000000006,310)"><rect x="1" width="5.500000000000005" height="0"></rect></g><g class="bar" transform="translate(403,308.11550151975683)"><rect x="1" width="5.500000000000005" height="1.8844984802431668"></rect></g><g class="bar" transform="translate(409.50000000000006,310)"><rect x="1" width="5.500000000000005" height="0"></rect></g><g class="bar" transform="translate(416,310)"><rect x="1" width="5.500000000000005" height="0"></rect></g><g class="bar" transform="translate(422.5,310)"><rect x="1" width="5.500000000000005" height="0"></rect></g><g class="bar" transform="translate(429.00000000000006,309.05775075987845)"><rect x="1" width="5.500000000000005" height="0.942249240121555"></rect></g><g class="bar" transform="translate(435.5,310)"><rect x="1" width="5.500000000000005" height="0"></rect></g><g class="bar" transform="translate(442.00000000000006,310)"><rect x="1" width="5.500000000000005" height="0"></rect></g><g class="bar" transform="translate(448.5,310)"><rect x="1" width="5.500000000000005" height="0"></rect></g><g class="bar" transform="translate(455,310)"><rect x="1" width="5.500000000000005" height="0"></rect></g><g class="bar" transform="translate(461.50000000000006,310)"><rect x="1" width="5.500000000000005" height="0"></rect></g><g class="bar" transform="translate(468,310)"><rect x="1" width="5.500000000000005" height="0"></rect></g><g class="bar" transform="translate(474.50000000000006,310)"><rect x="1" width="5.500000000000005" height="0"></rect></g><g class="bar" transform="translate(481,310)"><rect x="1" width="5.500000000000005" height="0"></rect></g><g class="bar" transform="translate(487.5,310)"><rect x="1" width="5.500000000000005" height="0"></rect></g><g class="bar" transform="translate(494.00000000000006,310)"><rect x="1" width="5.500000000000005" height="0"></rect></g><g class="bar" transform="translate(500.5,310)"><rect x="1" width="5.500000000000005" height="0"></rect></g><g class="bar" transform="translate(507.00000000000006,310)"><rect x="1" width="5.500000000000005" height="0"></rect></g><g class="bar" transform="translate(513.5,310)"><rect x="1" width="5.500000000000005" height="0"></rect></g><g class="axis axis--x" transform="translate(0,310)" fill="none" font-size="10" font-family="sans-serif" text-anchor="middle"><path class="domain" stroke="#000" d="M0.5,6V0.5H520.5V6"></path><g class="tick" opacity="1" transform="translate(0.5,0)"><line stroke="#000" y2="6"></line><text fill="#000" y="9" dy="0.71em">0.01</text></g><g class="tick" opacity="1" transform="translate(130.5,0)"><line stroke="#000" y2="6"></line><text fill="#000" y="9" dy="0.71em">1</text></g><g class="tick" opacity="1" transform="translate(260.5,0)"><line stroke="#000" y2="6"></line><text fill="#000" y="9" dy="0.71em">100</text></g><g class="tick" opacity="1" transform="translate(390.5,0)"><line stroke="#000" y2="6"></line><text fill="#000" y="9" dy="0.71em">10000</text></g><g class="tick" opacity="1" transform="translate(520.5,0)"><line stroke="#000" y2="6"></line><text fill="#000" y="9" dy="0.71em"></text></g></g><g class="axis axis--y" fill="none" font-size="10" font-family="sans-serif" text-anchor="end"><path class="domain" stroke="#000" d="M-6,310.5H0.5V0.5H-6"></path><g class="tick" opacity="1" transform="translate(0,310.5)"><line stroke="#000" x2="-6"></line><text fill="#000" x="-9" dy="0.32em">0</text></g><g class="tick" opacity="1" transform="translate(0,263.387537993921)"><line stroke="#000" x2="-6"></line><text fill="#000" x="-9" dy="0.32em">50</text></g><g class="tick" opacity="1" transform="translate(0,216.27507598784194)"><line stroke="#000" x2="-6"></line><text fill="#000" x="-9" dy="0.32em">100</text></g><g class="tick" opacity="1" transform="translate(0,169.16261398176292)"><line stroke="#000" x2="-6"></line><text fill="#000" x="-9" dy="0.32em">150</text></g><g class="tick" opacity="1" transform="translate(0,122.05015197568389)"><line stroke="#000" x2="-6"></line><text fill="#000" x="-9" dy="0.32em">200</text></g><g class="tick" opacity="1" transform="translate(0,74.93768996960486)"><line stroke="#000" x2="-6"></line><text fill="#000" x="-9" dy="0.32em">250</text></g><g class="tick" opacity="1" transform="translate(0,27.825227963525833)"><line stroke="#000" x2="-6"></line><text fill="#000" x="-9" dy="0.32em">300</text></g></g></g></svg>