<svg xmlns="http://www.w3.org/2000/svg" width="280" height="160"><defs><style type="text/css"><![CDATA[ 
.bar rect {
  fill-opacity: 0;
  stroke:       black;
  stroke-width: 0.5;
}

.highlight rect {
  fill:       red;
  fill-opacity: 1;
}
.axis path,
.axis line {
  fill: none;
  stroke: #000;
  shape-rendering: crispEdges;
}
path {
    stroke: red;
    fill: none;
}

line {
    stroke: red;
}

path.marker {
    fill: red;
}
 ]]></style></defs><g transform="translate(50,10)"><g class="bar" transform="translate(0,117.33219324497648)"><rect x="1" width="11.5" height="2.66780675502352"></rect></g><g class="bar" transform="translate(12.5,106.71227020094057)"><rect x="1" width="11.5" height="13.287729799059434"></rect></g><g class="bar" transform="translate(25,89.93587002992732)"><rect x="1" width="11.5" height="30.064129970072685"></rect></g><g class="bar" transform="translate(37.5,53.56135100470286)"><rect x="1" width="11.5" height="66.43864899529714"></rect></g><g class="bar" transform="translate(50,19.649422830269344)"><rect x="1" width="11.5" height="100.35057716973066"></rect></g><g class="bar" transform="translate(62.5,0)"><rect x="1" width="11.5" height="120"></rect></g><g class="bar" transform="translate(75,2.1547669944420704)"><rect x="1" width="11.5" height="117.84523300555793"></rect></g><g class="bar" transform="translate(87.5,24.061564771269772)"><rect x="1" width="11.5" height="95.93843522873023"></rect></g><g class="bar" transform="translate(100,66.07952116289013)"><rect x="1" width="11.5" height="53.92047883710987"></rect></g><g class="bar" transform="translate(112.5,100.19666524155622)"><rect x="1" width="11.5" height="19.803334758443782"></rect></g><g class="bar" transform="translate(125,113.4330910645575)"><rect x="1" width="11.5" height="6.566908935442498"></rect></g><g class="bar" transform="translate(137.5,118.40957674219752)"><rect x="1" width="11.5" height="1.5904232578024846"></rect></g><g class="bar" transform="translate(150,119.74348011970928)"><rect x="1" width="11.5" height="0.2565198802907247"></rect></g><g class="bar" transform="translate(162.5,120)"><rect x="1" width="11.5" height="0"></rect></g><g class="bar" transform="translate(175,120)"><rect x="1" width="11.5" height="0"></rect></g><g class="bar" transform="translate(187.5,120)"><rect x="1" width="11.5" height="0"></rect></g></g></svg>