<svg xmlns="http://www.w3.org/2000/svg" width="280" height="160"><defs><style type="text/css"><![CDATA[ 
.bar rect {
  fill-opacity: 0;
  stroke:       black;
  stroke-width: 0.5;
}

.highlight rect {
  fill:       red;
  fill-opacity: 1;
}
.axis path,
.axis line {
  fill: none;
  stroke: #000;
  shape-rendering: crispEdges;
}
path {
    stroke: red;
    fill: none;
}

line {
    stroke: red;
}

path.marker {
    fill: red;
}
 ]]></style></defs><g transform="translate(50,10)"><g class="bar" transform="translate(0,90.17441860465117)"><rect x="1" width="11.5" height="29.825581395348834"></rect></g><g class="bar" transform="translate(12.5,102.73255813953489)"><rect x="1" width="11.5" height="17.267441860465112"></rect></g><g class="bar" transform="translate(25,90)"><rect x="1" width="11.5" height="30"></rect></g><g class="bar" transform="translate(37.5,64.7093023255814)"><rect x="1" width="11.5" height="55.290697674418595"></rect></g><g class="bar" transform="translate(50,45.872093023255815)"><rect x="1" width="11.5" height="74.12790697674419"></rect></g><g class="bar" transform="translate(62.5,9.59302325581396)"><rect x="1" width="11.5" height="110.40697674418604"></rect></g><g class="bar" transform="translate(75,0)"><rect x="1" width="11.5" height="120"></rect></g><g class="bar" transform="translate(87.5,7.674418604651166)"><rect x="1" width="11.5" height="112.32558139534883"></rect></g><g class="bar" transform="translate(100,25.465116279069775)"><rect x="1" width="11.5" height="94.53488372093022"></rect></g><g class="bar" transform="translate(112.5,69.24418604651163)"><rect x="1" width="11.5" height="50.75581395348837"></rect></g><g class="bar" transform="translate(125,90)"><rect x="1" width="11.5" height="30"></rect></g><g class="bar" transform="translate(137.5,107.26744186046511)"><rect x="1" width="11.5" height="12.732558139534888"></rect></g><g class="bar" transform="translate(150,119.65116279069767)"><rect x="1" width="11.5" height="0.34883720930233153"></rect></g><g class="bar" transform="translate(162.5,120)"><rect x="1" width="11.5" height="0"></rect></g><g class="bar" transform="translate(175,120)"><rect x="1" width="11.5" height="0"></rect></g><g class="bar" transform="translate(187.5,120)"><rect x="1" width="11.5" height="0"></rect></g></g></svg>