<svg xmlns="http://www.w3.org/2000/svg" width="280" height="160"><defs><style type="text/css"><![CDATA[ 
.bar rect {
  fill-opacity: 0;
  stroke:       black;
  stroke-width: 0.5;
}

.highlight rect {
  fill:       red;
  fill-opacity: 1;
}
.axis path,
.axis line {
  fill: none;
  stroke: #000;
  shape-rendering: crispEdges;
}
path {
    stroke: red;
    fill: none;
}

line {
    stroke: red;
}

path.marker {
    fill: red;
}
 ]]></style></defs><g transform="translate(50,10)"><g class="bar" transform="translate(0,117.39495798319328)"><rect x="1" width="11.5" height="2.6050420168067205"></rect></g><g class="bar" transform="translate(12.5,114.70588235294117)"><rect x="1" width="11.5" height="5.294117647058826"></rect></g><g class="bar" transform="translate(25,104.28571428571428)"><rect x="1" width="11.5" height="15.714285714285722"></rect></g><g class="bar" transform="translate(37.5,63.529411764705884)"><rect x="1" width="11.5" height="56.470588235294116"></rect></g><g class="bar" transform="translate(50,24.621848739495803)"><rect x="1" width="11.5" height="95.3781512605042"></rect></g><g class="bar" transform="translate(62.5,3.529411764705884)"><rect x="1" width="11.5" height="116.47058823529412"></rect></g><g class="bar" transform="translate(75,0)"><rect x="1" width="11.5" height="120"></rect></g><g class="bar" transform="translate(87.5,22.52100840336135)"><rect x="1" width="11.5" height="97.47899159663865"></rect></g><g class="bar" transform="translate(100,53.949579831932766)"><rect x="1" width="11.5" height="66.05042016806723"></rect></g><g class="bar" transform="translate(112.5,87.89915966386555)"><rect x="1" width="11.5" height="32.10084033613445"></rect></g><g class="bar" transform="translate(125,111.00840336134453)"><rect x="1" width="11.5" height="8.991596638655466"></rect></g><g class="bar" transform="translate(137.5,117.14285714285714)"><rect x="1" width="11.5" height="2.857142857142861"></rect></g><g class="bar" transform="translate(150,119.32773109243698)"><rect x="1" width="11.5" height="0.6722689075630228"></rect></g><g class="bar" transform="translate(162.5,119.91596638655462)"><rect x="1" width="11.5" height="0.08403361344538496"></rect></g><g class="bar" transform="translate(175,120)"><rect x="1" width="11.5" height="0"></rect></g><g class="bar" transform="translate(187.5,120)"><rect x="1" width="11.5" height="0"></rect></g></g></svg>