<svg xmlns="http://www.w3.org/2000/svg" width="600" height="350"><defs><style type="text/css"><![CDATA[ 
.bar rect {
  fill-opacity: 0;
  stroke:       black;
  stroke-width: 0.5;
}

.highlight rect {
  fill:       red;
  fill-opacity: 1;
}
.axis path,
.axis line {
  fill: none;
  stroke: #000;
  shape-rendering: crispEdges;
}
path {
    stroke: red;
    fill: none;
}

line {
    stroke: red;
}

path.marker {
    fill: red;
}
 ]]></style></defs><g transform="translate(50,10)"><g class="bar" transform="translate(0,306.4600326264274)"><rect x="1" width="11.999999999999996" height="3.5399673735726083"></rect></g><g class="bar" transform="translate(12.999999999999996,304.43719412724306)"><rect x="1" width="11.999999999999996" height="5.56280587275694"></rect></g><g class="bar" transform="translate(25.999999999999993,299.38009787928223)"><rect x="1" width="11.999999999999996" height="10.619902120717768"></rect></g><g class="bar" transform="translate(39.00000000000001,297.3572593800979)"><rect x="1" width="11.999999999999996" height="12.6427406199021"></rect></g><g class="bar" transform="translate(52,294.82871125611746)"><rect x="1" width="11.999999999999996" height="15.171288743882542"></rect></g><g class="bar" transform="translate(65,287.2430668841762)"><rect x="1" width="11.999999999999996" height="22.756933115823813"></rect></g><g class="bar" transform="translate(78.00000000000001,263.4747145187602)"><rect x="1" width="11.999999999999996" height="46.52528548123979"></rect></g><g class="bar" transform="translate(91.00000000000001,244.25774877650898)"><rect x="1" width="11.999999999999996" height="65.74225122349102"></rect></g><g class="bar" transform="translate(104,199.24959216965743)"><rect x="1" width="11.999999999999996" height="110.75040783034257"></rect></g><g class="bar" transform="translate(117,121.37030995106036)"><rect x="1" width="11.999999999999996" height="188.62969004893964"></rect></g><g class="bar" transform="translate(130,115.80750407830345)"><rect x="1" width="11.999999999999996" height="194.19249592169655"></rect></g><g class="bar" transform="translate(143,57.65089722675367)"><rect x="1" width="11.999999999999996" height="252.34910277324633"></rect></g><g class="bar" transform="translate(156.00000000000003,50.0652528548124)"><rect x="1" width="11.999999999999996" height="259.9347471451876"></rect></g><g class="bar" transform="translate(169,23.76835236541598)"><rect x="1" width="11.999999999999996" height="286.231647634584"></rect></g><g class="bar" transform="translate(182.00000000000003,27.81402936378464)"><rect x="1" width="11.999999999999996" height="282.18597063621536"></rect></g><g class="bar" transform="translate(195,27.81402936378464)"><rect x="1" width="11.999999999999996" height="282.18597063621536"></rect></g><g class="bar" transform="translate(208,0)"><rect x="1" width="11.999999999999996" height="310"></rect></g><g class="bar" transform="translate(221.00000000000003,39.951060358890686)"><rect x="1" width="11.999999999999996" height="270.0489396411093"></rect></g><g class="bar" transform="translate(234,69.78792822185972)"><rect x="1" width="11.999999999999996" height="240.21207177814028"></rect></g><g class="bar" transform="translate(247.00000000000003,103.67047308319738)"><rect x="1" width="11.999999999999996" height="206.32952691680262"></rect></g><g class="bar" transform="translate(260,112.7732463295269)"><rect x="1" width="11.999999999999996" height="197.2267536704731"></rect></g><g class="bar" transform="translate(273,163.8499184339315)"><rect x="1" width="11.999999999999996" height="146.1500815660685"></rect></g><g class="bar" transform="translate(286,205.82381729200654)"><rect x="1" width="11.999999999999996" height="104.17618270799346"></rect></g><g class="bar" transform="translate(299.00000000000006,232.626427406199)"><rect x="1" width="11.999999999999996" height="77.37357259380099"></rect></g><g class="bar" transform="translate(312.00000000000006,244.25774877650898)"><rect x="1" width="11.999999999999996" height="65.74225122349102"></rect></g><g class="bar" transform="translate(325,283.1973898858075)"><rect x="1" width="11.999999999999996" height="26.802610114192476"></rect></g><g class="bar" transform="translate(338,291.28874388254485)"><rect x="1" width="11.999999999999996" height="18.71125611745515"></rect></g><g class="bar" transform="translate(351,298.36867862969007)"><rect x="1" width="11.999999999999996" height="11.631321370309934"></rect></g><g class="bar" transform="translate(364.00000000000006,301.9086460032626)"><rect x="1" width="11.999999999999996" height="8.091353996737382"></rect></g><g class="bar" transform="translate(377.00000000000006,303.931484502447)"><rect x="1" width="11.999999999999996" height="6.068515497552994"></rect></g><g class="bar" transform="translate(390,308.4828711256117)"><rect x="1" width="11.999999999999996" height="1.517128874388277"></rect></g><g class="bar" transform="translate(403,307.47145187601956)"><rect x="1" width="11.999999999999996" height="2.5285481239804426"></rect></g><g class="bar" transform="translate(416,310)"><rect x="1" width="11.999999999999996" height="0"></rect></g><g class="bar" transform="translate(429.00000000000006,309.4942903752039)"><rect x="1" width="11.999999999999996" height="0.5057096247961113"></rect></g><g class="bar" transform="translate(442.00000000000006,310)"><rect x="1" width="11.999999999999996" height="0"></rect></g><g class="bar" transform="translate(455,310)"><rect x="1" width="11.999999999999996" height="0"></rect></g><g class="bar" transform="translate(468,310)"><rect x="1" width="11.999999999999996" height="0"></rect></g><g class="bar" transform="translate(481,310)"><rect x="1" width="11.999999999999996" height="0"></rect></g><g class="bar" transform="translate(494.00000000000006,310)"><rect x="1" width="11.999999999999996" height="0"></rect></g><g class="bar" transform="translate(507.00000000000006,310)"><rect x="1" width="11.999999999999996" height="0"></rect></g><g class="axis axis--x" transform="translate(0,310)" fill="none" font-size="10" font-family="sans-serif" text-anchor="middle"><path class="domain" stroke="#000" d="M0.5,6V0.5H520.5V6"></path><g class="tick" opacity="1" transform="translate(0.5,0)"><line stroke="#000" y2="6"></line><text fill="#000" y="9" dy="0.71em">0.01</text></g><g class="tick" opacity="1" transform="translate(130.5,0)"><line stroke="#000" y2="6"></line><text fill="#000" y="9" dy="0.71em">1</text></g><g class="tick" opacity="1" transform="translate(260.5,0)"><line stroke="#000" y2="6"></line><text fill="#000" y="9" dy="0.71em">100</text></g><g class="tick" opacity="1" transform="translate(390.5,0)"><line stroke="#000" y2="6"></line><text fill="#000" y="9" dy="0.71em">10000</text></g><g class="tick" opacity="1" transform="translate(520.5,0)"><line stroke="#000" y2="6"></line><text fill="#000" y="9" dy="0.71em"></text></g></g><g class="axis axis--y" fill="none" font-size="10" font-family="sans-serif" text-anchor="end"><path class="domain" stroke="#000" d="M-6,310.5H0.5V0.5H-6"></path><g class="tick" opacity="1" transform="translate(0,310.5)"><line stroke="#000" x2="-6"></line><text fill="#000" x="-9" dy="0.32em">0</text></g><g class="tick" opacity="1" transform="translate(0,285.21451876019574)"><line stroke="#000" x2="-6"></line><text fill="#000" x="-9" dy="0.32em">50</text></g><g class="tick" opacity="1" transform="translate(0,259.9290375203915)"><line stroke="#000" x2="-6"></line><text fill="#000" x="-9" dy="0.32em">100</text></g><g class="tick" opacity="1" transform="translate(0,234.6435562805873)"><line stroke="#000" x2="-6"></line><text fill="#000" x="-9" dy="0.32em">150</text></g><g class="tick" opacity="1" transform="translate(0,209.35807504078304)"><line stroke="#000" x2="-6"></line><text fill="#000" x="-9" dy="0.32em">200</text></g><g class="tick" opacity="1" transform="translate(0,184.07259380097878)"><line stroke="#000" x2="-6"></line><text fill="#000" x="-9" dy="0.32em">250</text></g><g class="tick" opacity="1" transform="translate(0,158.78711256117455)"><line stroke="#000" x2="-6"></line><text fill="#000" x="-9" dy="0.32em">300</text></g><g class="tick" opacity="1" transform="translate(0,133.5016313213703)"><line stroke="#000" x2="-6"></line><text fill="#000" x="-9" dy="0.32em">350</text></g><g class="tick" opacity="1" transform="translate(0,108.21615008156607)"><line stroke="#000" x2="-6"></line><text fill="#000" x="-9" dy="0.32em">400</text></g><g class="tick" opacity="1" transform="translate(0,82.93066884176184)"><line stroke="#000" x2="-6"></line><text fill="#000" x="-9" dy="0.32em">450</text></g><g class="tick" opacity="1" transform="translate(0,57.64518760195756)"><line stroke="#000" x2="-6"></line><text fill="#000" x="-9" dy="0.32em">500</text></g><g class="tick" opacity="1" transform="translate(0,32.35970636215336)"><line stroke="#000" x2="-6"></line><text fill="#000" x="-9" dy="0.32em">550</text></g><g class="tick" opacity="1" transform="translate(0,7.074225122349105)"><line stroke="#000" x2="-6"></line><text fill="#000" x="-9" dy="0.32em">600</text></g></g></g></svg>