<svg xmlns="http://www.w3.org/2000/svg" width="600" height="350"><defs><style type="text/css"><![CDATA[ 
.bar rect {
  fill-opacity: 0;
  stroke:       black;
  stroke-width: 0.5;
}

.highlight rect {
  fill:       red;
  fill-opacity: 1;
}
.axis path,
.axis line {
  fill: none;
  stroke: #000;
  shape-rendering: crispEdges;
}
 ]]></style></defs><g transform="translate(50,10)"><g class="bar" transform="translate(0,302.6365795724466)"><rect x="1" width="11.999999999999996" height="7.363420427553422"></rect></g><g class="bar" transform="translate(12.999999999999996,293.06413301662707)"><rect x="1" width="11.999999999999996" height="16.935866983372932"></rect></g><g class="bar" transform="translate(25.999999999999993,276.12826603325414)"><rect x="1" width="11.999999999999996" height="33.871733966745865"></rect></g><g class="bar" transform="translate(39.00000000000001,257.71971496437055)"><rect x="1" width="11.999999999999996" height="52.28028503562945"></rect></g><g class="bar" transform="translate(52,230.47505938242278)"><rect x="1" width="11.999999999999996" height="79.52494061757722"></rect></g><g class="bar" transform="translate(65,187.03087885985747)"><rect x="1" width="11.999999999999996" height="122.96912114014253"></rect></g><g class="bar" transform="translate(78.00000000000001,164.94061757719714)"><rect x="1" width="11.999999999999996" height="145.05938242280286"></rect></g><g class="bar" transform="translate(91.00000000000001,126.65083135391924)"><rect x="1" width="11.999999999999996" height="183.34916864608076"></rect></g><g class="bar" transform="translate(104,97.93349168646083)"><rect x="1" width="11.999999999999996" height="212.06650831353917"></rect></g><g class="bar" transform="translate(117,36.81710213776722)"><rect x="1" width="11.999999999999996" height="273.1828978622328"></rect></g><g class="bar" transform="translate(130,31.662707838479832)"><rect x="1" width="11.999999999999996" height="278.33729216152017"></rect></g><g class="bar" transform="translate(143,13.990498812351575)"><rect x="1" width="11.999999999999996" height="296.0095011876484"></rect></g><g class="bar" transform="translate(156.00000000000003,13.254156769596193)"><rect x="1" width="11.999999999999996" height="296.7458432304038"></rect></g><g class="bar" transform="translate(169,22.826603325415704)"><rect x="1" width="11.999999999999996" height="287.1733966745843"></rect></g><g class="bar" transform="translate(182.00000000000003,0)"><rect x="1" width="11.999999999999996" height="310"></rect></g><g class="bar" transform="translate(195,42.70783847980999)"><rect x="1" width="11.999999999999996" height="267.29216152019"></rect></g><g class="bar" transform="translate(208,34.60807600950119)"><rect x="1" width="11.999999999999996" height="275.3919239904988"></rect></g><g class="bar" transform="translate(221.00000000000003,73.63420427553444)"><rect x="1" width="11.999999999999996" height="236.36579572446556"></rect></g><g class="bar" transform="translate(234,77.31591448931118)"><rect x="1" width="11.999999999999996" height="232.68408551068882"></rect></g><g class="bar" transform="translate(247.00000000000003,86.88836104513067)"><rect x="1" width="11.999999999999996" height="223.11163895486933"></rect></g><g class="bar" transform="translate(260,114.13301662707838)"><rect x="1" width="11.999999999999996" height="195.86698337292162"></rect></g><g class="bar" transform="translate(273,131.80522565320663)"><rect x="1" width="11.999999999999996" height="178.19477434679337"></rect></g><g class="bar" transform="translate(286,150.9501187648456)"><rect x="1" width="11.999999999999996" height="159.0498812351544"></rect></g><g class="bar" transform="translate(299.00000000000006,207.64845605700714)"><rect x="1" width="11.999999999999996" height="102.35154394299286"></rect></g><g class="bar" transform="translate(312.00000000000006,243.729216152019)"><rect x="1" width="11.999999999999996" height="66.270783847981"></rect></g><g class="bar" transform="translate(325,240.0475059382423)"><rect x="1" width="11.999999999999996" height="69.9524940617577"></rect></g><g class="bar" transform="translate(338,264.34679334916865)"><rect x="1" width="11.999999999999996" height="45.65320665083135"></rect></g><g class="bar" transform="translate(351,296.7458432304038)"><rect x="1" width="11.999999999999996" height="13.254156769596193"></rect></g><g class="bar" transform="translate(364.00000000000006,300.42755344418055)"><rect x="1" width="11.999999999999996" height="9.572446555819454"></rect></g><g class="bar" transform="translate(377.00000000000006,300.42755344418055)"><rect x="1" width="11.999999999999996" height="9.572446555819454"></rect></g><g class="bar" transform="translate(390,304.8456057007126)"><rect x="1" width="11.999999999999996" height="5.1543942992873895"></rect></g><g class="bar" transform="translate(403,309.2636579572447)"><rect x="1" width="11.999999999999996" height="0.7363420427553251"></rect></g><g class="bar" transform="translate(416,308.5273159144893)"><rect x="1" width="11.999999999999996" height="1.472684085510707"></rect></g><g class="bar" transform="translate(429.00000000000006,310)"><rect x="1" width="11.999999999999996" height="0"></rect></g><g class="bar" transform="translate(442.00000000000006,310)"><rect x="1" width="11.999999999999996" height="0"></rect></g><g class="bar" transform="translate(455,310)"><rect x="1" width="11.999999999999996" height="0"></rect></g><g class="bar" transform="translate(468,310)"><rect x="1" width="11.999999999999996" height="0"></rect></g><g class="bar" transform="translate(481,310)"><rect x="1" width="11.999999999999996" height="0"></rect></g><g class="bar" transform="translate(494.00000000000006,310)"><rect x="1" width="11.999999999999996" height="0"></rect></g><g class="bar" transform="translate(507.00000000000006,310)"><rect x="1" width="11.999999999999996" height="0"></rect></g><g class="axis axis--x" transform="translate(0,310)" fill="none" font-size="10" font-family="sans-serif" text-anchor="middle"><path class="domain" stroke="#000" d="M0.5,6V0.5H520.5V6"></path><g class="tick" opacity="1" transform="translate(0,0)"><line stroke="#000" y2="6" x1="0.5" x2="0.5"></line><text fill="#000" y="9" x="0.5" dy="0.71em">0.01</text></g><g class="tick" opacity="1" transform="translate(130,0)"><line stroke="#000" y2="6" x1="0.5" x2="0.5"></line><text fill="#000" y="9" x="0.5" dy="0.71em">1</text></g><g class="tick" opacity="1" transform="translate(260,0)"><line stroke="#000" y2="6" x1="0.5" x2="0.5"></line><text fill="#000" y="9" x="0.5" dy="0.71em">100</text></g><g class="tick" opacity="1" transform="translate(390,0)"><line stroke="#000" y2="6" x1="0.5" x2="0.5"></line><text fill="#000" y="9" x="0.5" dy="0.71em">10000</text></g><g class="tick" opacity="1" transform="translate(520,0)"><line stroke="#000" y2="6" x1="0.5" x2="0.5"></line><text fill="#000" y="9" x="0.5" dy="0.71em"></text></g></g><g class="axis axis--y" fill="none" font-size="10" font-family="sans-serif" text-anchor="end"><path class="domain" stroke="#000" d="M-6,310.5H0.5V0.5H-6"></path><g class="tick" opacity="1" transform="translate(0,310)"><line stroke="#000" x2="-6" y1="0.5" y2="0.5"></line><text fill="#000" x="-9" y="0.5" dy="0.32em">0</text></g><g class="tick" opacity="1" transform="translate(0,273.1828978622328)"><line stroke="#000" x2="-6" y1="0.5" y2="0.5"></line><text fill="#000" x="-9" y="0.5" dy="0.32em">50</text></g><g class="tick" opacity="1" transform="translate(0,236.36579572446556)"><line stroke="#000" x2="-6" y1="0.5" y2="0.5"></line><text fill="#000" x="-9" y="0.5" dy="0.32em">100</text></g><g class="tick" opacity="1" transform="translate(0,199.54869358669833)"><line stroke="#000" x2="-6" y1="0.5" y2="0.5"></line><text fill="#000" x="-9" y="0.5" dy="0.32em">150</text></g><g class="tick" opacity="1" transform="translate(0,162.7315914489311)"><line stroke="#000" x2="-6" y1="0.5" y2="0.5"></line><text fill="#000" x="-9" y="0.5" dy="0.32em">200</text></g><g class="tick" opacity="1" transform="translate(0,125.91448931116389)"><line stroke="#000" x2="-6" y1="0.5" y2="0.5"></line><text fill="#000" x="-9" y="0.5" dy="0.32em">250</text></g><g class="tick" opacity="1" transform="translate(0,89.09738717339667)"><line stroke="#000" x2="-6" y1="0.5" y2="0.5"></line><text fill="#000" x="-9" y="0.5" dy="0.32em">300</text></g><g class="tick" opacity="1" transform="translate(0,52.28028503562945)"><line stroke="#000" x2="-6" y1="0.5" y2="0.5"></line><text fill="#000" x="-9" y="0.5" dy="0.32em">350</text></g><g class="tick" opacity="1" transform="translate(0,15.463182897862225)"><line stroke="#000" x2="-6" y1="0.5" y2="0.5"></line><text fill="#000" x="-9" y="0.5" dy="0.32em">400</text></g></g></g></svg>