<svg xmlns="http://www.w3.org/2000/svg" width="280" height="160"><defs><style type="text/css"><![CDATA[ 
.bar rect {
  fill-opacity: 0;
  stroke:       black;
  stroke-width: 0.5;
}

.highlight rect {
  fill:       red;
  fill-opacity: 1;
}
.axis path,
.axis line {
  fill: none;
  stroke: #000;
  shape-rendering: crispEdges;
}
path {
    stroke: red;
    fill: none;
}

line {
    stroke: red;
}

path.marker {
    fill: red;
}
 ]]></style></defs><g transform="translate(50,10)"><g class="bar" transform="translate(0,119.39271255060729)"><rect x="1" width="11.5" height="0.6072874493927145"></rect></g><g class="bar" transform="translate(12.5,113.6842105263158)"><rect x="1" width="11.5" height="6.315789473684205"></rect></g><g class="bar" transform="translate(25,94.37246963562754)"><rect x="1" width="11.5" height="25.62753036437246"></rect></g><g class="bar" transform="translate(37.5,66.31578947368422)"><rect x="1" width="11.5" height="53.68421052631578"></rect></g><g class="bar" transform="translate(50,39.35222672064778)"><rect x="1" width="11.5" height="80.64777327935222"></rect></g><g class="bar" transform="translate(62.5,30.12145748987855)"><rect x="1" width="11.5" height="89.87854251012145"></rect></g><g class="bar" transform="translate(75,20.16194331983806)"><rect x="1" width="11.5" height="99.83805668016194"></rect></g><g class="bar" transform="translate(87.5,0)"><rect x="1" width="11.5" height="120"></rect></g><g class="bar" transform="translate(100,13.724696356275302)"><rect x="1" width="11.5" height="106.2753036437247"></rect></g><g class="bar" transform="translate(112.5,43.11740890688259)"><rect x="1" width="11.5" height="76.88259109311741"></rect></g><g class="bar" transform="translate(125,96.92307692307692)"><rect x="1" width="11.5" height="23.07692307692308"></rect></g><g class="bar" transform="translate(137.5,118.29959514170041)"><rect x="1" width="11.5" height="1.700404858299592"></rect></g><g class="bar" transform="translate(150,120)"><rect x="1" width="11.5" height="0"></rect></g><g class="bar" transform="translate(162.5,119.87854251012146)"><rect x="1" width="11.5" height="0.12145748987853722"></rect></g><g class="bar" transform="translate(175,120)"><rect x="1" width="11.5" height="0"></rect></g><g class="bar" transform="translate(187.5,120)"><rect x="1" width="11.5" height="0"></rect></g></g></svg>