<svg xmlns="http://www.w3.org/2000/svg" width="280" height="160"><defs><style type="text/css"><![CDATA[ 
.bar rect {
  fill-opacity: 0;
  stroke:       black;
  stroke-width: 0.5;
}

.highlight rect {
  fill:       red;
  fill-opacity: 1;
}
.axis path,
.axis line {
  fill: none;
  stroke: #000;
  shape-rendering: crispEdges;
}
 ]]></style></defs><g transform="translate(50,10)"><g class="bar" transform="translate(0,116.93548387096774)"><rect x="1" width="11.5" height="3.0645161290322562"></rect></g><g class="bar" transform="translate(12.5,107.41935483870968)"><rect x="1" width="11.5" height="12.58064516129032"></rect></g><g class="bar" transform="translate(25,98.87096774193549)"><rect x="1" width="11.5" height="21.129032258064512"></rect></g><g class="bar" transform="translate(37.5,72.41935483870968)"><rect x="1" width="11.5" height="47.58064516129032"></rect></g><g class="bar" transform="translate(50,36.12903225806451)"><rect x="1" width="11.5" height="83.87096774193549"></rect></g><g class="bar" transform="translate(62.5,7.4193548387096655)"><rect x="1" width="11.5" height="112.58064516129033"></rect></g><g class="bar" transform="translate(75,0)"><rect x="1" width="11.5" height="120"></rect></g><g class="bar" transform="translate(87.5,16.935483870967744)"><rect x="1" width="11.5" height="103.06451612903226"></rect></g><g class="bar" transform="translate(100,34.677419354838705)"><rect x="1" width="11.5" height="85.3225806451613"></rect></g><g class="bar" transform="translate(112.5,73.2258064516129)"><rect x="1" width="11.5" height="46.7741935483871"></rect></g><g class="bar" transform="translate(125,98.70967741935483)"><rect x="1" width="11.5" height="21.290322580645167"></rect></g><g class="bar" transform="translate(137.5,113.38709677419355)"><rect x="1" width="11.5" height="6.612903225806448"></rect></g><g class="bar" transform="translate(150,117.58064516129032)"><rect x="1" width="11.5" height="2.4193548387096797"></rect></g><g class="bar" transform="translate(162.5,120)"><rect x="1" width="11.5" height="0"></rect></g><g class="bar" transform="translate(175,120)"><rect x="1" width="11.5" height="0"></rect></g><g class="bar" transform="translate(187.5,120)"><rect x="1" width="11.5" height="0"></rect></g></g></svg>