<svg xmlns="http://www.w3.org/2000/svg" width="280" height="160"><defs><style type="text/css"><![CDATA[ 
.bar rect {
  fill-opacity: 0;
  stroke:       black;
  stroke-width: 0.5;
}

.highlight rect {
  fill:       red;
  fill-opacity: 1;
}
.axis path,
.axis line {
  fill: none;
  stroke: #000;
  shape-rendering: crispEdges;
}
 ]]></style></defs><g transform="translate(50,10)"><g class="bar" transform="translate(0,119.32394366197182)"><rect x="1" width="11.5" height="0.6760563380281752"></rect></g><g class="bar" transform="translate(12.5,117.29577464788733)"><rect x="1" width="11.5" height="2.7042253521126725"></rect></g><g class="bar" transform="translate(25,103.43661971830986)"><rect x="1" width="11.5" height="16.563380281690144"></rect></g><g class="bar" transform="translate(37.5,74.02816901408451)"><rect x="1" width="11.5" height="45.97183098591549"></rect></g><g class="bar" transform="translate(50,35.1549295774648)"><rect x="1" width="11.5" height="84.8450704225352"></rect></g><g class="bar" transform="translate(62.5,3.1549295774647845)"><rect x="1" width="11.5" height="116.84507042253522"></rect></g><g class="bar" transform="translate(75,0)"><rect x="1" width="11.5" height="120"></rect></g><g class="bar" transform="translate(87.5,14.08450704225352)"><rect x="1" width="11.5" height="105.91549295774648"></rect></g><g class="bar" transform="translate(100,41.577464788732385)"><rect x="1" width="11.5" height="78.42253521126761"></rect></g><g class="bar" transform="translate(112.5,80.11267605633803)"><rect x="1" width="11.5" height="39.88732394366197"></rect></g><g class="bar" transform="translate(125,101.29577464788733)"><rect x="1" width="11.5" height="18.704225352112672"></rect></g><g class="bar" transform="translate(137.5,114.8169014084507)"><rect x="1" width="11.5" height="5.183098591549296"></rect></g><g class="bar" transform="translate(150,119.54929577464789)"><rect x="1" width="11.5" height="0.4507042253521121"></rect></g><g class="bar" transform="translate(162.5,120)"><rect x="1" width="11.5" height="0"></rect></g><g class="bar" transform="translate(175,120)"><rect x="1" width="11.5" height="0"></rect></g><g class="bar" transform="translate(187.5,120)"><rect x="1" width="11.5" height="0"></rect></g></g></svg>