<svg xmlns="http://www.w3.org/2000/svg" width="600" height="350"><defs><style type="text/css"><![CDATA[ 
.bar rect {
  fill-opacity: 0;
  stroke:       black;
  stroke-width: 0.5;
}

.highlight rect {
  fill:       red;
  fill-opacity: 1;
}
.axis path,
.axis line {
  fill: none;
  stroke: #000;
  shape-rendering: crispEdges;
}
 ]]></style></defs><g transform="translate(50,10)"><g class="bar" transform="translate(0,310)"><rect x="1" width="11.999999999999996" height="0"></rect></g><g class="bar" transform="translate(12.999999999999996,310)"><rect x="1" width="11.999999999999996" height="0"></rect></g><g class="bar" transform="translate(25.999999999999993,310)"><rect x="1" width="11.999999999999996" height="0"></rect></g><g class="bar" transform="translate(39.00000000000001,310)"><rect x="1" width="11.999999999999996" height="0"></rect></g><g class="bar" transform="translate(52,308.1212121212121)"><rect x="1" width="11.999999999999996" height="1.8787878787878753"></rect></g><g class="bar" transform="translate(65,308.1212121212121)"><rect x="1" width="11.999999999999996" height="1.8787878787878753"></rect></g><g class="bar" transform="translate(78.00000000000001,304.3636363636364)"><rect x="1" width="11.999999999999996" height="5.636363636363626"></rect></g><g class="bar" transform="translate(91.00000000000001,296.8484848484849)"><rect x="1" width="11.999999999999996" height="13.151515151515127"></rect></g><g class="bar" transform="translate(104,261.1515151515151)"><rect x="1" width="11.999999999999996" height="48.84848484848487"></rect></g><g class="bar" transform="translate(117,244.24242424242425)"><rect x="1" width="11.999999999999996" height="65.75757575757575"></rect></g><g class="bar" transform="translate(130,232.96969696969697)"><rect x="1" width="11.999999999999996" height="77.03030303030303"></rect></g><g class="bar" transform="translate(143,169.0909090909091)"><rect x="1" width="11.999999999999996" height="140.9090909090909"></rect></g><g class="bar" transform="translate(156.00000000000003,137.15151515151513)"><rect x="1" width="11.999999999999996" height="172.84848484848487"></rect></g><g class="bar" transform="translate(169,77.03030303030303)"><rect x="1" width="11.999999999999996" height="232.96969696969697"></rect></g><g class="bar" transform="translate(182.00000000000003,50.72727272727275)"><rect x="1" width="11.999999999999996" height="259.27272727272725"></rect></g><g class="bar" transform="translate(195,80.78787878787878)"><rect x="1" width="11.999999999999996" height="229.21212121212122"></rect></g><g class="bar" transform="translate(208,88.30303030303028)"><rect x="1" width="11.999999999999996" height="221.69696969696972"></rect></g><g class="bar" transform="translate(221.00000000000003,133.3939393939394)"><rect x="1" width="11.999999999999996" height="176.6060606060606"></rect></g><g class="bar" transform="translate(234,120.24242424242425)"><rect x="1" width="11.999999999999996" height="189.75757575757575"></rect></g><g class="bar" transform="translate(247.00000000000003,116.48484848484847)"><rect x="1" width="11.999999999999996" height="193.51515151515153"></rect></g><g class="bar" transform="translate(260,86.42424242424244)"><rect x="1" width="11.999999999999996" height="223.57575757575756"></rect></g><g class="bar" transform="translate(273,86.42424242424244)"><rect x="1" width="11.999999999999996" height="223.57575757575756"></rect></g><g class="bar" transform="translate(286,0)"><rect x="1" width="11.999999999999996" height="310"></rect></g><g class="bar" transform="translate(299.00000000000006,3.7575757575757507)"><rect x="1" width="11.999999999999996" height="306.24242424242425"></rect></g><g class="bar" transform="translate(312.00000000000006,62)"><rect x="1" width="11.999999999999996" height="248"></rect></g><g class="bar" transform="translate(325,122.12121212121212)"><rect x="1" width="11.999999999999996" height="187.87878787878788"></rect></g><g class="bar" transform="translate(338,165.33333333333334)"><rect x="1" width="11.999999999999996" height="144.66666666666666"></rect></g><g class="bar" transform="translate(351,214.1818181818182)"><rect x="1" width="11.999999999999996" height="95.81818181818181"></rect></g><g class="bar" transform="translate(364.00000000000006,278.06060606060606)"><rect x="1" width="11.999999999999996" height="31.939393939393938"></rect></g><g class="bar" transform="translate(377.00000000000006,283.6969696969697)"><rect x="1" width="11.999999999999996" height="26.30303030303031"></rect></g><g class="bar" transform="translate(390,300.6060606060606)"><rect x="1" width="11.999999999999996" height="9.393939393939377"></rect></g><g class="bar" transform="translate(403,308.1212121212121)"><rect x="1" width="11.999999999999996" height="1.8787878787878753"></rect></g><g class="bar" transform="translate(416,310)"><rect x="1" width="11.999999999999996" height="0"></rect></g><g class="bar" transform="translate(429.00000000000006,310)"><rect x="1" width="11.999999999999996" height="0"></rect></g><g class="bar" transform="translate(442.00000000000006,310)"><rect x="1" width="11.999999999999996" height="0"></rect></g><g class="bar" transform="translate(455,310)"><rect x="1" width="11.999999999999996" height="0"></rect></g><g class="bar" transform="translate(468,310)"><rect x="1" width="11.999999999999996" height="0"></rect></g><g class="bar" transform="translate(481,310)"><rect x="1" width="11.999999999999996" height="0"></rect></g><g class="bar" transform="translate(494.00000000000006,310)"><rect x="1" width="11.999999999999996" height="0"></rect></g><g class="bar" transform="translate(507.00000000000006,310)"><rect x="1" width="11.999999999999996" height="0"></rect></g><g class="axis axis--x" transform="translate(0,310)" fill="none" font-size="10" font-family="sans-serif" text-anchor="middle"><path class="domain" stroke="#000" d="M0.5,6V0.5H520.5V6"></path><g class="tick" opacity="1" transform="translate(0,0)"><line stroke="#000" y2="6" x1="0.5" x2="0.5"></line><text fill="#000" y="9" x="0.5" dy="0.71em">0.01</text></g><g class="tick" opacity="1" transform="translate(130,0)"><line stroke="#000" y2="6" x1="0.5" x2="0.5"></line><text fill="#000" y="9" x="0.5" dy="0.71em">1</text></g><g class="tick" opacity="1" transform="translate(260,0)"><line stroke="#000" y2="6" x1="0.5" x2="0.5"></line><text fill="#000" y="9" x="0.5" dy="0.71em">100</text></g><g class="tick" opacity="1" transform="translate(390,0)"><line stroke="#000" y2="6" x1="0.5" x2="0.5"></line><text fill="#000" y="9" x="0.5" dy="0.71em">10000</text></g><g class="tick" opacity="1" transform="translate(520,0)"><line stroke="#000" y2="6" x1="0.5" x2="0.5"></line><text fill="#000" y="9" x="0.5" dy="0.71em"></text></g></g><g class="axis axis--y" fill="none" font-size="10" font-family="sans-serif" text-anchor="end"><path class="domain" stroke="#000" d="M-6,310.5H0.5V0.5H-6"></path><g class="tick" opacity="1" transform="translate(0,310)"><line stroke="#000" x2="-6" y1="0.5" y2="0.5"></line><text fill="#000" x="-9" y="0.5" dy="0.32em">0</text></g><g class="tick" opacity="1" transform="translate(0,272.42424242424244)"><line stroke="#000" x2="-6" y1="0.5" y2="0.5"></line><text fill="#000" x="-9" y="0.5" dy="0.32em">20</text></g><g class="tick" opacity="1" transform="translate(0,234.84848484848484)"><line stroke="#000" x2="-6" y1="0.5" y2="0.5"></line><text fill="#000" x="-9" y="0.5" dy="0.32em">40</text></g><g class="tick" opacity="1" transform="translate(0,197.27272727272725)"><line stroke="#000" x2="-6" y1="0.5" y2="0.5"></line><text fill="#000" x="-9" y="0.5" dy="0.32em">60</text></g><g class="tick" opacity="1" transform="translate(0,159.6969696969697)"><line stroke="#000" x2="-6" y1="0.5" y2="0.5"></line><text fill="#000" x="-9" y="0.5" dy="0.32em">80</text></g><g class="tick" opacity="1" transform="translate(0,122.12121212121212)"><line stroke="#000" x2="-6" y1="0.5" y2="0.5"></line><text fill="#000" x="-9" y="0.5" dy="0.32em">100</text></g><g class="tick" opacity="1" transform="translate(0,84.54545454545453)"><line stroke="#000" x2="-6" y1="0.5" y2="0.5"></line><text fill="#000" x="-9" y="0.5" dy="0.32em">120</text></g><g class="tick" opacity="1" transform="translate(0,46.96969696969694)"><line stroke="#000" x2="-6" y1="0.5" y2="0.5"></line><text fill="#000" x="-9" y="0.5" dy="0.32em">140</text></g><g class="tick" opacity="1" transform="translate(0,9.393939393939377)"><line stroke="#000" x2="-6" y1="0.5" y2="0.5"></line><text fill="#000" x="-9" y="0.5" dy="0.32em">160</text></g></g></g></svg>