<svg xmlns="http://www.w3.org/2000/svg" width="600" height="350"><defs><style type="text/css"><![CDATA[ 
.bar rect {
  fill-opacity: 0;
  stroke:       black;
  stroke-width: 0.5;
}

.highlight rect {
  fill:       red;
  fill-opacity: 1;
}
.axis path,
.axis line {
  fill: none;
  stroke: #000;
  shape-rendering: crispEdges;
}
path {
    stroke: red;
    fill: none;
}

line {
    stroke: red;
}

path.marker {
    fill: red;
}
 ]]></style></defs><g transform="translate(50,10)"><g class="bar" transform="translate(0,310)"><rect x="1" width="11.999999999999996" height="0"></rect></g><g class="bar" transform="translate(12.999999999999996,310)"><rect x="1" width="11.999999999999996" height="0"></rect></g><g class="bar" transform="translate(25.999999999999993,310)"><rect x="1" width="11.999999999999996" height="0"></rect></g><g class="bar" transform="translate(39.00000000000001,310)"><rect x="1" width="11.999999999999996" height="0"></rect></g><g class="bar" transform="translate(52,310)"><rect x="1" width="11.999999999999996" height="0"></rect></g><g class="bar" transform="translate(65,307.80918727915196)"><rect x="1" width="11.999999999999996" height="2.1908127208480437"></rect></g><g class="bar" transform="translate(78.00000000000001,304.52296819787983)"><rect x="1" width="11.999999999999996" height="5.477031802120166"></rect></g><g class="bar" transform="translate(91.00000000000001,306.71378091872793)"><rect x="1" width="11.999999999999996" height="3.2862190812720655"></rect></g><g class="bar" transform="translate(104,304.52296819787983)"><rect x="1" width="11.999999999999996" height="5.477031802120166"></rect></g><g class="bar" transform="translate(117,307.80918727915196)"><rect x="1" width="11.999999999999996" height="2.1908127208480437"></rect></g><g class="bar" transform="translate(130,270.565371024735)"><rect x="1" width="11.999999999999996" height="39.434628975265014"></rect></g><g class="bar" transform="translate(143,293.56890459363956)"><rect x="1" width="11.999999999999996" height="16.43109540636044"></rect></g><g class="bar" transform="translate(156.00000000000003,255.22968197879857)"><rect x="1" width="11.999999999999996" height="54.77031802120143"></rect></g><g class="bar" transform="translate(169,237.70318021201413)"><rect x="1" width="11.999999999999996" height="72.29681978798587"></rect></g><g class="bar" transform="translate(182.00000000000003,205.9363957597173)"><rect x="1" width="11.999999999999996" height="104.0636042402827"></rect></g><g class="bar" transform="translate(195,135.8303886925795)"><rect x="1" width="11.999999999999996" height="174.1696113074205"></rect></g><g class="bar" transform="translate(208,83.25088339222614)"><rect x="1" width="11.999999999999996" height="226.74911660777386"></rect></g><g class="bar" transform="translate(221.00000000000003,60.24734982332157)"><rect x="1" width="11.999999999999996" height="249.75265017667843"></rect></g><g class="bar" transform="translate(234,59.15194346289752)"><rect x="1" width="11.999999999999996" height="250.84805653710248"></rect></g><g class="bar" transform="translate(247.00000000000003,41.62544169611306)"><rect x="1" width="11.999999999999996" height="268.37455830388694"></rect></g><g class="bar" transform="translate(260,0)"><rect x="1" width="11.999999999999996" height="310"></rect></g><g class="bar" transform="translate(273,42.72084805653708)"><rect x="1" width="11.999999999999996" height="267.2791519434629"></rect></g><g class="bar" transform="translate(286,44.91166077738518)"><rect x="1" width="11.999999999999996" height="265.0883392226148"></rect></g><g class="bar" transform="translate(299.00000000000006,99.68197879858656)"><rect x="1" width="11.999999999999996" height="210.31802120141344"></rect></g><g class="bar" transform="translate(312.00000000000006,112.82685512367493)"><rect x="1" width="11.999999999999996" height="197.17314487632507"></rect></g><g class="bar" transform="translate(325,150.07067137809187)"><rect x="1" width="11.999999999999996" height="159.92932862190813"></rect></g><g class="bar" transform="translate(338,216.89045936395758)"><rect x="1" width="11.999999999999996" height="93.10954063604242"></rect></g><g class="bar" transform="translate(351,265.0883392226148)"><rect x="1" width="11.999999999999996" height="44.91166077738518"></rect></g><g class="bar" transform="translate(364.00000000000006,304.52296819787983)"><rect x="1" width="11.999999999999996" height="5.477031802120166"></rect></g><g class="bar" transform="translate(377.00000000000006,305.6183745583039)"><rect x="1" width="11.999999999999996" height="4.381625441696087"></rect></g><g class="bar" transform="translate(390,307.80918727915196)"><rect x="1" width="11.999999999999996" height="2.1908127208480437"></rect></g><g class="bar" transform="translate(403,310)"><rect x="1" width="11.999999999999996" height="0"></rect></g><g class="bar" transform="translate(416,310)"><rect x="1" width="11.999999999999996" height="0"></rect></g><g class="bar" transform="translate(429.00000000000006,310)"><rect x="1" width="11.999999999999996" height="0"></rect></g><g class="bar" transform="translate(442.00000000000006,310)"><rect x="1" width="11.999999999999996" height="0"></rect></g><g class="bar" transform="translate(455,310)"><rect x="1" width="11.999999999999996" height="0"></rect></g><g class="bar" transform="translate(468,310)"><rect x="1" width="11.999999999999996" height="0"></rect></g><g class="bar" transform="translate(481,310)"><rect x="1" width="11.999999999999996" height="0"></rect></g><g class="bar" transform="translate(494.00000000000006,310)"><rect x="1" width="11.999999999999996" height="0"></rect></g><g class="bar" transform="translate(507.00000000000006,310)"><rect x="1" width="11.999999999999996" height="0"></rect></g><g class="axis axis--x" transform="translate(0,310)" fill="none" font-size="10" font-family="sans-serif" text-anchor="middle"><path class="domain" stroke="#000" d="M0.5,6V0.5H520.5V6"></path><g class="tick" opacity="1" transform="translate(0.5,0)"><line stroke="#000" y2="6"></line><text fill="#000" y="9" dy="0.71em">0.01</text></g><g class="tick" opacity="1" transform="translate(130.5,0)"><line stroke="#000" y2="6"></line><text fill="#000" y="9" dy="0.71em">1</text></g><g class="tick" opacity="1" transform="translate(260.5,0)"><line stroke="#000" y2="6"></line><text fill="#000" y="9" dy="0.71em">100</text></g><g class="tick" opacity="1" transform="translate(390.5,0)"><line stroke="#000" y2="6"></line><text fill="#000" y="9" dy="0.71em">10000</text></g><g class="tick" opacity="1" transform="translate(520.5,0)"><line stroke="#000" y2="6"></line><text fill="#000" y="9" dy="0.71em"></text></g></g><g class="axis axis--y" fill="none" font-size="10" font-family="sans-serif" text-anchor="end"><path class="domain" stroke="#000" d="M-6,310.5H0.5V0.5H-6"></path><g class="tick" opacity="1" transform="translate(0,310.5)"><line stroke="#000" x2="-6"></line><text fill="#000" x="-9" dy="0.32em">0</text></g><g class="tick" opacity="1" transform="translate(0,288.59187279151945)"><line stroke="#000" x2="-6"></line><text fill="#000" x="-9" dy="0.32em">20</text></g><g class="tick" opacity="1" transform="translate(0,266.6837455830389)"><line stroke="#000" x2="-6"></line><text fill="#000" x="-9" dy="0.32em">40</text></g><g class="tick" opacity="1" transform="translate(0,244.7756183745583)"><line stroke="#000" x2="-6"></line><text fill="#000" x="-9" dy="0.32em">60</text></g><g class="tick" opacity="1" transform="translate(0,222.86749116607774)"><line stroke="#000" x2="-6"></line><text fill="#000" x="-9" dy="0.32em">80</text></g><g class="tick" opacity="1" transform="translate(0,200.95936395759716)"><line stroke="#000" x2="-6"></line><text fill="#000" x="-9" dy="0.32em">100</text></g><g class="tick" opacity="1" transform="translate(0,179.0512367491166)"><line stroke="#000" x2="-6"></line><text fill="#000" x="-9" dy="0.32em">120</text></g><g class="tick" opacity="1" transform="translate(0,157.14310954063603)"><line stroke="#000" x2="-6"></line><text fill="#000" x="-9" dy="0.32em">140</text></g><g class="tick" opacity="1" transform="translate(0,135.23498233215548)"><line stroke="#000" x2="-6"></line><text fill="#000" x="-9" dy="0.32em">160</text></g><g class="tick" opacity="1" transform="translate(0,113.32685512367493)"><line stroke="#000" x2="-6"></line><text fill="#000" x="-9" dy="0.32em">180</text></g><g class="tick" opacity="1" transform="translate(0,91.41872791519432)"><line stroke="#000" x2="-6"></line><text fill="#000" x="-9" dy="0.32em">200</text></g><g class="tick" opacity="1" transform="translate(0,69.5106007067138)"><line stroke="#000" x2="-6"></line><text fill="#000" x="-9" dy="0.32em">220</text></g><g class="tick" opacity="1" transform="translate(0,47.60247349823322)"><line stroke="#000" x2="-6"></line><text fill="#000" x="-9" dy="0.32em">240</text></g><g class="tick" opacity="1" transform="translate(0,25.694346289752673)"><line stroke="#000" x2="-6"></line><text fill="#000" x="-9" dy="0.32em">260</text></g><g class="tick" opacity="1" transform="translate(0,3.7862190812720655)"><line stroke="#000" x2="-6"></line><text fill="#000" x="-9" dy="0.32em">280</text></g></g></g></svg>