<svg xmlns="http://www.w3.org/2000/svg" width="600" height="350"><defs><style type="text/css"><![CDATA[ 
.bar rect {
  fill-opacity: 0;
  stroke:       black;
  stroke-width: 0.5;
}

.highlight rect {
  fill:       red;
  fill-opacity: 1;
}
.axis path,
.axis line {
  fill: none;
  stroke: #000;
  shape-rendering: crispEdges;
}
path {
    stroke: red;
    fill: none;
}

line {
    stroke: red;
}

path.marker {
    fill: red;
}
 ]]></style></defs><g transform="translate(50,10)"><g class="bar" transform="translate(0,310)"><rect x="1" width="11.999999999999996" height="0"></rect></g><g class="bar" transform="translate(12.999999999999996,310)"><rect x="1" width="11.999999999999996" height="0"></rect></g><g class="bar" transform="translate(25.999999999999993,310)"><rect x="1" width="11.999999999999996" height="0"></rect></g><g class="bar" transform="translate(39.00000000000001,310)"><rect x="1" width="11.999999999999996" height="0"></rect></g><g class="bar" transform="translate(52,309.1142857142857)"><rect x="1" width="11.999999999999996" height="0.8857142857143003"></rect></g><g class="bar" transform="translate(65,302.9142857142857)"><rect x="1" width="11.999999999999996" height="7.085714285714289"></rect></g><g class="bar" transform="translate(78.00000000000001,280.77142857142854)"><rect x="1" width="11.999999999999996" height="29.228571428571456"></rect></g><g class="bar" transform="translate(91.00000000000001,265.7142857142857)"><rect x="1" width="11.999999999999996" height="44.28571428571428"></rect></g><g class="bar" transform="translate(104,209.9142857142857)"><rect x="1" width="11.999999999999996" height="100.08571428571429"></rect></g><g class="bar" transform="translate(117,178.9142857142857)"><rect x="1" width="11.999999999999996" height="131.0857142857143"></rect></g><g class="bar" transform="translate(130,146.14285714285714)"><rect x="1" width="11.999999999999996" height="163.85714285714286"></rect></g><g class="bar" transform="translate(143,139.94285714285712)"><rect x="1" width="11.999999999999996" height="170.05714285714288"></rect></g><g class="bar" transform="translate(156.00000000000003,61.11428571428573)"><rect x="1" width="11.999999999999996" height="248.88571428571427"></rect></g><g class="bar" transform="translate(169,47.82857142857142)"><rect x="1" width="11.999999999999996" height="262.1714285714286"></rect></g><g class="bar" transform="translate(182.00000000000003,17.714285714285722)"><rect x="1" width="11.999999999999996" height="292.2857142857143"></rect></g><g class="bar" transform="translate(195,0)"><rect x="1" width="11.999999999999996" height="310"></rect></g><g class="bar" transform="translate(208,42.514285714285734)"><rect x="1" width="11.999999999999996" height="267.48571428571427"></rect></g><g class="bar" transform="translate(221.00000000000003,44.28571428571428)"><rect x="1" width="11.999999999999996" height="265.7142857142857"></rect></g><g class="bar" transform="translate(234,52.25714285714287)"><rect x="1" width="11.999999999999996" height="257.74285714285713"></rect></g><g class="bar" transform="translate(247.00000000000003,60.22857142857143)"><rect x="1" width="11.999999999999996" height="249.77142857142857"></rect></g><g class="bar" transform="translate(260,109.82857142857145)"><rect x="1" width="11.999999999999996" height="200.17142857142855"></rect></g><g class="bar" transform="translate(273,139.94285714285712)"><rect x="1" width="11.999999999999996" height="170.05714285714288"></rect></g><g class="bar" transform="translate(286,161.20000000000002)"><rect x="1" width="11.999999999999996" height="148.79999999999998"></rect></g><g class="bar" transform="translate(299.00000000000006,199.28571428571428)"><rect x="1" width="11.999999999999996" height="110.71428571428572"></rect></g><g class="bar" transform="translate(312.00000000000006,204.6)"><rect x="1" width="11.999999999999996" height="105.4"></rect></g><g class="bar" transform="translate(325,260.4)"><rect x="1" width="11.999999999999996" height="49.60000000000002"></rect></g><g class="bar" transform="translate(338,272.8)"><rect x="1" width="11.999999999999996" height="37.19999999999999"></rect></g><g class="bar" transform="translate(351,275.45714285714286)"><rect x="1" width="11.999999999999996" height="34.542857142857144"></rect></g><g class="bar" transform="translate(364.00000000000006,297.6)"><rect x="1" width="11.999999999999996" height="12.399999999999977"></rect></g><g class="bar" transform="translate(377.00000000000006,297.6)"><rect x="1" width="11.999999999999996" height="12.399999999999977"></rect></g><g class="bar" transform="translate(390,305.57142857142856)"><rect x="1" width="11.999999999999996" height="4.428571428571445"></rect></g><g class="bar" transform="translate(403,309.1142857142857)"><rect x="1" width="11.999999999999996" height="0.8857142857143003"></rect></g><g class="bar" transform="translate(416,308.22857142857146)"><rect x="1" width="11.999999999999996" height="1.7714285714285438"></rect></g><g class="bar" transform="translate(429.00000000000006,309.1142857142857)"><rect x="1" width="11.999999999999996" height="0.8857142857143003"></rect></g><g class="bar" transform="translate(442.00000000000006,310)"><rect x="1" width="11.999999999999996" height="0"></rect></g><g class="bar" transform="translate(455,310)"><rect x="1" width="11.999999999999996" height="0"></rect></g><g class="bar" transform="translate(468,310)"><rect x="1" width="11.999999999999996" height="0"></rect></g><g class="bar" transform="translate(481,310)"><rect x="1" width="11.999999999999996" height="0"></rect></g><g class="bar" transform="translate(494.00000000000006,310)"><rect x="1" width="11.999999999999996" height="0"></rect></g><g class="bar" transform="translate(507.00000000000006,310)"><rect x="1" width="11.999999999999996" height="0"></rect></g><g class="axis axis--x" transform="translate(0,310)" fill="none" font-size="10" font-family="sans-serif" text-anchor="middle"><path class="domain" stroke="#000" d="M0.5,6V0.5H520.5V6"></path><g class="tick" opacity="1" transform="translate(0.5,0)"><line stroke="#000" y2="6"></line><text fill="#000" y="9" dy="0.71em">0.01</text></g><g class="tick" opacity="1" transform="translate(130.5,0)"><line stroke="#000" y2="6"></line><text fill="#000" y="9" dy="0.71em">1</text></g><g class="tick" opacity="1" transform="translate(260.5,0)"><line stroke="#000" y2="6"></line><text fill="#000" y="9" dy="0.71em">100</text></g><g class="tick" opacity="1" transform="translate(390.5,0)"><line stroke="#000" y2="6"></line><text fill="#000" y="9" dy="0.71em">10000</text></g><g class="tick" opacity="1" transform="translate(520.5,0)"><line stroke="#000" y2="6"></line><text fill="#000" y="9" dy="0.71em"></text></g></g><g class="axis axis--y" fill="none" font-size="10" font-family="sans-serif" text-anchor="end"><path class="domain" stroke="#000" d="M-6,310.5H0.5V0.5H-6"></path><g class="tick" opacity="1" transform="translate(0,310.5)"><line stroke="#000" x2="-6"></line><text fill="#000" x="-9" dy="0.32em">0</text></g><g class="tick" opacity="1" transform="translate(0,266.2142857142857)"><line stroke="#000" x2="-6"></line><text fill="#000" x="-9" dy="0.32em">50</text></g><g class="tick" opacity="1" transform="translate(0,221.92857142857144)"><line stroke="#000" x2="-6"></line><text fill="#000" x="-9" dy="0.32em">100</text></g><g class="tick" opacity="1" transform="translate(0,177.64285714285714)"><line stroke="#000" x2="-6"></line><text fill="#000" x="-9" dy="0.32em">150</text></g><g class="tick" opacity="1" transform="translate(0,133.35714285714286)"><line stroke="#000" x2="-6"></line><text fill="#000" x="-9" dy="0.32em">200</text></g><g class="tick" opacity="1" transform="translate(0,89.07142857142856)"><line stroke="#000" x2="-6"></line><text fill="#000" x="-9" dy="0.32em">250</text></g><g class="tick" opacity="1" transform="translate(0,44.78571428571428)"><line stroke="#000" x2="-6"></line><text fill="#000" x="-9" dy="0.32em">300</text></g><g class="tick" opacity="1" transform="translate(0,0.5)"><line stroke="#000" x2="-6"></line><text fill="#000" x="-9" dy="0.32em">350</text></g></g></g></svg>