<svg xmlns="http://www.w3.org/2000/svg" width="600" height="350"><defs><style type="text/css"><![CDATA[ 
.bar rect {
  fill-opacity: 0;
  stroke:       black;
  stroke-width: 0.5;
}

.highlight rect {
  fill:       red;
  fill-opacity: 1;
}
.axis path,
.axis line {
  fill: none;
  stroke: #000;
  shape-rendering: crispEdges;
}
 ]]></style></defs><g transform="translate(50,10)"><g class="bar" transform="translate(0,310)"><rect x="1" width="11.999999999999996" height="0"></rect></g><g class="bar" transform="translate(12.999999999999996,310)"><rect x="1" width="11.999999999999996" height="0"></rect></g><g class="bar" transform="translate(25.999999999999993,310)"><rect x="1" width="11.999999999999996" height="0"></rect></g><g class="bar" transform="translate(39.00000000000001,310)"><rect x="1" width="11.999999999999996" height="0"></rect></g><g class="bar" transform="translate(52,310)"><rect x="1" width="11.999999999999996" height="0"></rect></g><g class="bar" transform="translate(65,310)"><rect x="1" width="11.999999999999996" height="0"></rect></g><g class="bar" transform="translate(78.00000000000001,307.987012987013)"><rect x="1" width="11.999999999999996" height="2.0129870129870255"></rect></g><g class="bar" transform="translate(91.00000000000001,305.97402597402595)"><rect x="1" width="11.999999999999996" height="4.025974025974051"></rect></g><g class="bar" transform="translate(104,310)"><rect x="1" width="11.999999999999996" height="0"></rect></g><g class="bar" transform="translate(117,301.94805194805195)"><rect x="1" width="11.999999999999996" height="8.051948051948045"></rect></g><g class="bar" transform="translate(130,295.90909090909093)"><rect x="1" width="11.999999999999996" height="14.090909090909065"></rect></g><g class="bar" transform="translate(143,271.75324675324674)"><rect x="1" width="11.999999999999996" height="38.24675324675326"></rect></g><g class="bar" transform="translate(156.00000000000003,191.23376623376623)"><rect x="1" width="11.999999999999996" height="118.76623376623377"></rect></g><g class="bar" transform="translate(169,245.58441558441558)"><rect x="1" width="11.999999999999996" height="64.41558441558442"></rect></g><g class="bar" transform="translate(182.00000000000003,223.44155844155844)"><rect x="1" width="11.999999999999996" height="86.55844155844156"></rect></g><g class="bar" transform="translate(195,187.20779220779218)"><rect x="1" width="11.999999999999996" height="122.79220779220782"></rect></g><g class="bar" transform="translate(208,124.80519480519482)"><rect x="1" width="11.999999999999996" height="185.19480519480518"></rect></g><g class="bar" transform="translate(221.00000000000003,92.5974025974026)"><rect x="1" width="11.999999999999996" height="217.4025974025974"></rect></g><g class="bar" transform="translate(234,88.57142857142856)"><rect x="1" width="11.999999999999996" height="221.42857142857144"></rect></g><g class="bar" transform="translate(247.00000000000003,56.363636363636346)"><rect x="1" width="11.999999999999996" height="253.63636363636365"></rect></g><g class="bar" transform="translate(260,24.155844155844136)"><rect x="1" width="11.999999999999996" height="285.84415584415586"></rect></g><g class="bar" transform="translate(273,0)"><rect x="1" width="11.999999999999996" height="310"></rect></g><g class="bar" transform="translate(286,32.20779220779224)"><rect x="1" width="11.999999999999996" height="277.79220779220776"></rect></g><g class="bar" transform="translate(299.00000000000006,20.12987012987014)"><rect x="1" width="11.999999999999996" height="289.87012987012986"></rect></g><g class="bar" transform="translate(312.00000000000006,86.55844155844156)"><rect x="1" width="11.999999999999996" height="223.44155844155844"></rect></g><g class="bar" transform="translate(325,80.51948051948051)"><rect x="1" width="11.999999999999996" height="229.4805194805195"></rect></g><g class="bar" transform="translate(338,183.1818181818182)"><rect x="1" width="11.999999999999996" height="126.81818181818181"></rect></g><g class="bar" transform="translate(351,231.49350649350652)"><rect x="1" width="11.999999999999996" height="78.50649350649348"></rect></g><g class="bar" transform="translate(364.00000000000006,279.8051948051948)"><rect x="1" width="11.999999999999996" height="30.194805194805213"></rect></g><g class="bar" transform="translate(377.00000000000006,287.85714285714283)"><rect x="1" width="11.999999999999996" height="22.142857142857167"></rect></g><g class="bar" transform="translate(390,291.8831168831169)"><rect x="1" width="11.999999999999996" height="18.116883116883116"></rect></g><g class="bar" transform="translate(403,310)"><rect x="1" width="11.999999999999996" height="0"></rect></g><g class="bar" transform="translate(416,310)"><rect x="1" width="11.999999999999996" height="0"></rect></g><g class="bar" transform="translate(429.00000000000006,307.987012987013)"><rect x="1" width="11.999999999999996" height="2.0129870129870255"></rect></g><g class="bar" transform="translate(442.00000000000006,310)"><rect x="1" width="11.999999999999996" height="0"></rect></g><g class="bar" transform="translate(455,310)"><rect x="1" width="11.999999999999996" height="0"></rect></g><g class="bar" transform="translate(468,310)"><rect x="1" width="11.999999999999996" height="0"></rect></g><g class="bar" transform="translate(481,310)"><rect x="1" width="11.999999999999996" height="0"></rect></g><g class="bar" transform="translate(494.00000000000006,310)"><rect x="1" width="11.999999999999996" height="0"></rect></g><g class="bar" transform="translate(507.00000000000006,310)"><rect x="1" width="11.999999999999996" height="0"></rect></g><g class="axis axis--x" transform="translate(0,310)" fill="none" font-size="10" font-family="sans-serif" text-anchor="middle"><path class="domain" stroke="#000" d="M0.5,6V0.5H520.5V6"></path><g class="tick" opacity="1" transform="translate(0,0)"><line stroke="#000" y2="6" x1="0.5" x2="0.5"></line><text fill="#000" y="9" x="0.5" dy="0.71em">0.01</text></g><g class="tick" opacity="1" transform="translate(130,0)"><line stroke="#000" y2="6" x1="0.5" x2="0.5"></line><text fill="#000" y="9" x="0.5" dy="0.71em">1</text></g><g class="tick" opacity="1" transform="translate(260,0)"><line stroke="#000" y2="6" x1="0.5" x2="0.5"></line><text fill="#000" y="9" x="0.5" dy="0.71em">100</text></g><g class="tick" opacity="1" transform="translate(390,0)"><line stroke="#000" y2="6" x1="0.5" x2="0.5"></line><text fill="#000" y="9" x="0.5" dy="0.71em">10000</text></g><g class="tick" opacity="1" transform="translate(520,0)"><line stroke="#000" y2="6" x1="0.5" x2="0.5"></line><text fill="#000" y="9" x="0.5" dy="0.71em"></text></g></g><g class="axis axis--y" fill="none" font-size="10" font-family="sans-serif" text-anchor="end"><path class="domain" stroke="#000" d="M-6,310.5H0.5V0.5H-6"></path><g class="tick" opacity="1" transform="translate(0,310)"><line stroke="#000" x2="-6" y1="0.5" y2="0.5"></line><text fill="#000" x="-9" y="0.5" dy="0.32em">0</text></g><g class="tick" opacity="1" transform="translate(0,269.7402597402597)"><line stroke="#000" x2="-6" y1="0.5" y2="0.5"></line><text fill="#000" x="-9" y="0.5" dy="0.32em">20</text></g><g class="tick" opacity="1" transform="translate(0,229.4805194805195)"><line stroke="#000" x2="-6" y1="0.5" y2="0.5"></line><text fill="#000" x="-9" y="0.5" dy="0.32em">40</text></g><g class="tick" opacity="1" transform="translate(0,189.2207792207792)"><line stroke="#000" x2="-6" y1="0.5" y2="0.5"></line><text fill="#000" x="-9" y="0.5" dy="0.32em">60</text></g><g class="tick" opacity="1" transform="translate(0,148.96103896103898)"><line stroke="#000" x2="-6" y1="0.5" y2="0.5"></line><text fill="#000" x="-9" y="0.5" dy="0.32em">80</text></g><g class="tick" opacity="1" transform="translate(0,108.7012987012987)"><line stroke="#000" x2="-6" y1="0.5" y2="0.5"></line><text fill="#000" x="-9" y="0.5" dy="0.32em">100</text></g><g class="tick" opacity="1" transform="translate(0,68.44155844155844)"><line stroke="#000" x2="-6" y1="0.5" y2="0.5"></line><text fill="#000" x="-9" y="0.5" dy="0.32em">120</text></g><g class="tick" opacity="1" transform="translate(0,28.181818181818187)"><line stroke="#000" x2="-6" y1="0.5" y2="0.5"></line><text fill="#000" x="-9" y="0.5" dy="0.32em">140</text></g></g></g></svg>