<svg xmlns="http://www.w3.org/2000/svg" width="280" height="160"><defs><style type="text/css"><![CDATA[ 
.bar rect {
  fill-opacity: 0;
  stroke:       black;
  stroke-width: 0.5;
}

.highlight rect {
  fill:       red;
  fill-opacity: 1;
}
.axis path,
.axis line {
  fill: none;
  stroke: #000;
  shape-rendering: crispEdges;
}
path {
    stroke: red;
    fill: none;
}

line {
    stroke: red;
}

path.marker {
    fill: red;
}
 ]]></style></defs><g transform="translate(50,10)"><g class="bar" transform="translate(0,120)"><rect x="1" width="11.5" height="0"></rect></g><g class="bar" transform="translate(12.5,119.39949958298583)"><rect x="1" width="11.5" height="0.6005004170141746"></rect></g><g class="bar" transform="translate(25,113.99499582985821)"><rect x="1" width="11.5" height="6.005004170141788"></rect></g><g class="bar" transform="translate(37.5,104.88740617180984)"><rect x="1" width="11.5" height="15.112593828190157"></rect></g><g class="bar" transform="translate(50,85.87155963302752)"><rect x="1" width="11.5" height="34.128440366972484"></rect></g><g class="bar" transform="translate(62.5,61.3511259382819)"><rect x="1" width="11.5" height="58.6488740617181"></rect></g><g class="bar" transform="translate(75,20.116763969974983)"><rect x="1" width="11.5" height="99.88323603002502"></rect></g><g class="bar" transform="translate(87.5,0)"><rect x="1" width="11.5" height="120"></rect></g><g class="bar" transform="translate(100,7.506255212677232)"><rect x="1" width="11.5" height="112.49374478732277"></rect></g><g class="bar" transform="translate(112.5,60.05004170141785)"><rect x="1" width="11.5" height="59.94995829858215"></rect></g><g class="bar" transform="translate(125,104.58715596330275)"><rect x="1" width="11.5" height="15.412844036697251"></rect></g><g class="bar" transform="translate(137.5,118.29858215179316)"><rect x="1" width="11.5" height="1.7014178482068445"></rect></g><g class="bar" transform="translate(150,119.79983319432861)"><rect x="1" width="11.5" height="0.20016680567138678"></rect></g><g class="bar" transform="translate(162.5,120)"><rect x="1" width="11.5" height="0"></rect></g><g class="bar" transform="translate(175,120)"><rect x="1" width="11.5" height="0"></rect></g><g class="bar" transform="translate(187.5,120)"><rect x="1" width="11.5" height="0"></rect></g></g></svg>