<svg xmlns="http://www.w3.org/2000/svg" width="600" height="350"><defs><style type="text/css"><![CDATA[ 
.bar rect {
  fill-opacity: 0;
  stroke:       black;
  stroke-width: 0.5;
}

.highlight rect {
  fill:       red;
  fill-opacity: 1;
}
.axis path,
.axis line {
  fill: none;
  stroke: #000;
  shape-rendering: crispEdges;
}
path {
    stroke: red;
    fill: none;
}

line {
    stroke: red;
}

path.marker {
    fill: red;
}
 ]]></style></defs><g transform="translate(50,10)"><g class="bar" transform="translate(0,310)"><rect x="1" width="11.999999999999996" height="0"></rect></g><g class="bar" transform="translate(12.999999999999996,310)"><rect x="1" width="11.999999999999996" height="0"></rect></g><g class="bar" transform="translate(25.999999999999993,310)"><rect x="1" width="11.999999999999996" height="0"></rect></g><g class="bar" transform="translate(39.00000000000001,310)"><rect x="1" width="11.999999999999996" height="0"></rect></g><g class="bar" transform="translate(52,310)"><rect x="1" width="11.999999999999996" height="0"></rect></g><g class="bar" transform="translate(65,310)"><rect x="1" width="11.999999999999996" height="0"></rect></g><g class="bar" transform="translate(78.00000000000001,310)"><rect x="1" width="11.999999999999996" height="0"></rect></g><g class="bar" transform="translate(91.00000000000001,310)"><rect x="1" width="11.999999999999996" height="0"></rect></g><g class="bar" transform="translate(104,310)"><rect x="1" width="11.999999999999996" height="0"></rect></g><g class="bar" transform="translate(117,310)"><rect x="1" width="11.999999999999996" height="0"></rect></g><g class="bar" transform="translate(130,310)"><rect x="1" width="11.999999999999996" height="0"></rect></g><g class="bar" transform="translate(143,308.2183908045977)"><rect x="1" width="11.999999999999996" height="1.781609195402325"></rect></g><g class="bar" transform="translate(156.00000000000003,308.2183908045977)"><rect x="1" width="11.999999999999996" height="1.781609195402325"></rect></g><g class="bar" transform="translate(169,299.3103448275862)"><rect x="1" width="11.999999999999996" height="10.68965517241378"></rect></g><g class="bar" transform="translate(182.00000000000003,286.8390804597701)"><rect x="1" width="11.999999999999996" height="23.160919540229884"></rect></g><g class="bar" transform="translate(195,267.2413793103448)"><rect x="1" width="11.999999999999996" height="42.758620689655174"></rect></g><g class="bar" transform="translate(208,254.77011494252872)"><rect x="1" width="11.999999999999996" height="55.22988505747128"></rect></g><g class="bar" transform="translate(221.00000000000003,231.60919540229884)"><rect x="1" width="11.999999999999996" height="78.39080459770116"></rect></g><g class="bar" transform="translate(234,217.35632183908046)"><rect x="1" width="11.999999999999996" height="92.64367816091954"></rect></g><g class="bar" transform="translate(247.00000000000003,197.75862068965517)"><rect x="1" width="11.999999999999996" height="112.24137931034483"></rect></g><g class="bar" transform="translate(260,144.31034482758622)"><rect x="1" width="11.999999999999996" height="165.68965517241378"></rect></g><g class="bar" transform="translate(273,133.6206896551724)"><rect x="1" width="11.999999999999996" height="176.3793103448276"></rect></g><g class="bar" transform="translate(286,44.54022988505744)"><rect x="1" width="11.999999999999996" height="265.45977011494256"></rect></g><g class="bar" transform="translate(299.00000000000006,0)"><rect x="1" width="11.999999999999996" height="310"></rect></g><g class="bar" transform="translate(312.00000000000006,33.85057471264366)"><rect x="1" width="11.999999999999996" height="276.14942528735634"></rect></g><g class="bar" transform="translate(325,46.32183908045977)"><rect x="1" width="11.999999999999996" height="263.67816091954023"></rect></g><g class="bar" transform="translate(338,151.4367816091954)"><rect x="1" width="11.999999999999996" height="158.5632183908046"></rect></g><g class="bar" transform="translate(351,217.35632183908046)"><rect x="1" width="11.999999999999996" height="92.64367816091954"></rect></g><g class="bar" transform="translate(364.00000000000006,286.8390804597701)"><rect x="1" width="11.999999999999996" height="23.160919540229884"></rect></g><g class="bar" transform="translate(377.00000000000006,295.7471264367816)"><rect x="1" width="11.999999999999996" height="14.252873563218373"></rect></g><g class="bar" transform="translate(390,306.4367816091954)"><rect x="1" width="11.999999999999996" height="3.563218390804593"></rect></g><g class="bar" transform="translate(403,308.2183908045977)"><rect x="1" width="11.999999999999996" height="1.781609195402325"></rect></g><g class="bar" transform="translate(416,310)"><rect x="1" width="11.999999999999996" height="0"></rect></g><g class="bar" transform="translate(429.00000000000006,310)"><rect x="1" width="11.999999999999996" height="0"></rect></g><g class="bar" transform="translate(442.00000000000006,310)"><rect x="1" width="11.999999999999996" height="0"></rect></g><g class="bar" transform="translate(455,310)"><rect x="1" width="11.999999999999996" height="0"></rect></g><g class="bar" transform="translate(468,310)"><rect x="1" width="11.999999999999996" height="0"></rect></g><g class="bar" transform="translate(481,310)"><rect x="1" width="11.999999999999996" height="0"></rect></g><g class="bar" transform="translate(494.00000000000006,310)"><rect x="1" width="11.999999999999996" height="0"></rect></g><g class="bar" transform="translate(507.00000000000006,310)"><rect x="1" width="11.999999999999996" height="0"></rect></g><g class="axis axis--x" transform="translate(0,310)" fill="none" font-size="10" font-family="sans-serif" text-anchor="middle"><path class="domain" stroke="#000" d="M0.5,6V0.5H520.5V6"></path><g class="tick" opacity="1" transform="translate(0.5,0)"><line stroke="#000" y2="6"></line><text fill="#000" y="9" dy="0.71em">0.01</text></g><g class="tick" opacity="1" transform="translate(130.5,0)"><line stroke="#000" y2="6"></line><text fill="#000" y="9" dy="0.71em">1</text></g><g class="tick" opacity="1" transform="translate(260.5,0)"><line stroke="#000" y2="6"></line><text fill="#000" y="9" dy="0.71em">100</text></g><g class="tick" opacity="1" transform="translate(390.5,0)"><line stroke="#000" y2="6"></line><text fill="#000" y="9" dy="0.71em">10000</text></g><g class="tick" opacity="1" transform="translate(520.5,0)"><line stroke="#000" y2="6"></line><text fill="#000" y="9" dy="0.71em"></text></g></g><g class="axis axis--y" fill="none" font-size="10" font-family="sans-serif" text-anchor="end"><path class="domain" stroke="#000" d="M-6,310.5H0.5V0.5H-6"></path><g class="tick" opacity="1" transform="translate(0,310.5)"><line stroke="#000" x2="-6"></line><text fill="#000" x="-9" dy="0.32em">0</text></g><g class="tick" opacity="1" transform="translate(0,274.867816091954)"><line stroke="#000" x2="-6"></line><text fill="#000" x="-9" dy="0.32em">20</text></g><g class="tick" opacity="1" transform="translate(0,239.23563218390805)"><line stroke="#000" x2="-6"></line><text fill="#000" x="-9" dy="0.32em">40</text></g><g class="tick" opacity="1" transform="translate(0,203.60344827586206)"><line stroke="#000" x2="-6"></line><text fill="#000" x="-9" dy="0.32em">60</text></g><g class="tick" opacity="1" transform="translate(0,167.9712643678161)"><line stroke="#000" x2="-6"></line><text fill="#000" x="-9" dy="0.32em">80</text></g><g class="tick" opacity="1" transform="translate(0,132.33908045977012)"><line stroke="#000" x2="-6"></line><text fill="#000" x="-9" dy="0.32em">100</text></g><g class="tick" opacity="1" transform="translate(0,96.70689655172413)"><line stroke="#000" x2="-6"></line><text fill="#000" x="-9" dy="0.32em">120</text></g><g class="tick" opacity="1" transform="translate(0,61.07471264367817)"><line stroke="#000" x2="-6"></line><text fill="#000" x="-9" dy="0.32em">140</text></g><g class="tick" opacity="1" transform="translate(0,25.44252873563221)"><line stroke="#000" x2="-6"></line><text fill="#000" x="-9" dy="0.32em">160</text></g></g></g></svg>