<svg xmlns="http://www.w3.org/2000/svg" width="600" height="350"><defs><style type="text/css"><![CDATA[ 
.bar rect {
  fill-opacity: 0;
  stroke:       black;
  stroke-width: 0.5;
}

.highlight rect {
  fill:       red;
  fill-opacity: 1;
}
.axis path,
.axis line {
  fill: none;
  stroke: #000;
  shape-rendering: crispEdges;
}
path {
    stroke: red;
    fill: none;
}

line {
    stroke: red;
}

path.marker {
    fill: red;
}
 ]]></style></defs><g transform="translate(50,10)"><g class="bar" transform="translate(0,310)"><rect x="1" width="11.999999999999996" height="0"></rect></g><g class="bar" transform="translate(12.999999999999996,310)"><rect x="1" width="11.999999999999996" height="0"></rect></g><g class="bar" transform="translate(25.999999999999993,310)"><rect x="1" width="11.999999999999996" height="0"></rect></g><g class="bar" transform="translate(39.00000000000001,310)"><rect x="1" width="11.999999999999996" height="0"></rect></g><g class="bar" transform="translate(52,310)"><rect x="1" width="11.999999999999996" height="0"></rect></g><g class="bar" transform="translate(65,310)"><rect x="1" width="11.999999999999996" height="0"></rect></g><g class="bar" transform="translate(78.00000000000001,307.8767123287671)"><rect x="1" width="11.999999999999996" height="2.1232876712329016"></rect></g><g class="bar" transform="translate(91.00000000000001,294.0753424657534)"><rect x="1" width="11.999999999999996" height="15.924657534246592"></rect></g><g class="bar" transform="translate(104,293.013698630137)"><rect x="1" width="11.999999999999996" height="16.986301369862986"></rect></g><g class="bar" transform="translate(117,284.52054794520546)"><rect x="1" width="11.999999999999996" height="25.479452054794535"></rect></g><g class="bar" transform="translate(130,263.28767123287673)"><rect x="1" width="11.999999999999996" height="46.71232876712327"></rect></g><g class="bar" transform="translate(143,239.93150684931507)"><rect x="1" width="11.999999999999996" height="70.06849315068493"></rect></g><g class="bar" transform="translate(156.00000000000003,183.66438356164383)"><rect x="1" width="11.999999999999996" height="126.33561643835617"></rect></g><g class="bar" transform="translate(169,167.73972602739727)"><rect x="1" width="11.999999999999996" height="142.26027397260273"></rect></g><g class="bar" transform="translate(182.00000000000003,175.1712328767123)"><rect x="1" width="11.999999999999996" height="134.8287671232877"></rect></g><g class="bar" transform="translate(195,140.13698630136986)"><rect x="1" width="11.999999999999996" height="169.86301369863014"></rect></g><g class="bar" transform="translate(208,149.69178082191783)"><rect x="1" width="11.999999999999996" height="160.30821917808217"></rect></g><g class="bar" transform="translate(221.00000000000003,126.33561643835614)"><rect x="1" width="11.999999999999996" height="183.66438356164386"></rect></g><g class="bar" transform="translate(234,111.47260273972603)"><rect x="1" width="11.999999999999996" height="198.52739726027397"></rect></g><g class="bar" transform="translate(247.00000000000003,65.82191780821915)"><rect x="1" width="11.999999999999996" height="244.17808219178085"></rect></g><g class="bar" transform="translate(260,12.739726027397296)"><rect x="1" width="11.999999999999996" height="297.2602739726027"></rect></g><g class="bar" transform="translate(273,22.294520547945183)"><rect x="1" width="11.999999999999996" height="287.7054794520548"></rect></g><g class="bar" transform="translate(286,0)"><rect x="1" width="11.999999999999996" height="310"></rect></g><g class="bar" transform="translate(299.00000000000006,106.16438356164386)"><rect x="1" width="11.999999999999996" height="203.83561643835614"></rect></g><g class="bar" transform="translate(312.00000000000006,171.986301369863)"><rect x="1" width="11.999999999999996" height="138.013698630137"></rect></g><g class="bar" transform="translate(325,220.82191780821918)"><rect x="1" width="11.999999999999996" height="89.17808219178082"></rect></g><g class="bar" transform="translate(338,247.36301369863014)"><rect x="1" width="11.999999999999996" height="62.63698630136986"></rect></g><g class="bar" transform="translate(351,263.28767123287673)"><rect x="1" width="11.999999999999996" height="46.71232876712327"></rect></g><g class="bar" transform="translate(364.00000000000006,278.1506849315069)"><rect x="1" width="11.999999999999996" height="31.849315068493127"></rect></g><g class="bar" transform="translate(377.00000000000006,303.63013698630135)"><rect x="1" width="11.999999999999996" height="6.369863013698648"></rect></g><g class="bar" transform="translate(390,308.93835616438355)"><rect x="1" width="11.999999999999996" height="1.0616438356164508"></rect></g><g class="bar" transform="translate(403,310)"><rect x="1" width="11.999999999999996" height="0"></rect></g><g class="bar" transform="translate(416,310)"><rect x="1" width="11.999999999999996" height="0"></rect></g><g class="bar" transform="translate(429.00000000000006,310)"><rect x="1" width="11.999999999999996" height="0"></rect></g><g class="bar" transform="translate(442.00000000000006,310)"><rect x="1" width="11.999999999999996" height="0"></rect></g><g class="bar" transform="translate(455,310)"><rect x="1" width="11.999999999999996" height="0"></rect></g><g class="bar" transform="translate(468,310)"><rect x="1" width="11.999999999999996" height="0"></rect></g><g class="bar" transform="translate(481,310)"><rect x="1" width="11.999999999999996" height="0"></rect></g><g class="bar" transform="translate(494.00000000000006,310)"><rect x="1" width="11.999999999999996" height="0"></rect></g><g class="bar" transform="translate(507.00000000000006,310)"><rect x="1" width="11.999999999999996" height="0"></rect></g><g class="axis axis--x" transform="translate(0,310)" fill="none" font-size="10" font-family="sans-serif" text-anchor="middle"><path class="domain" stroke="#000" d="M0.5,6V0.5H520.5V6"></path><g class="tick" opacity="1" transform="translate(0.5,0)"><line stroke="#000" y2="6"></line><text fill="#000" y="9" dy="0.71em">0.01</text></g><g class="tick" opacity="1" transform="translate(130.5,0)"><line stroke="#000" y2="6"></line><text fill="#000" y="9" dy="0.71em">1</text></g><g class="tick" opacity="1" transform="translate(260.5,0)"><line stroke="#000" y2="6"></line><text fill="#000" y="9" dy="0.71em">100</text></g><g class="tick" opacity="1" transform="translate(390.5,0)"><line stroke="#000" y2="6"></line><text fill="#000" y="9" dy="0.71em">10000</text></g><g class="tick" opacity="1" transform="translate(520.5,0)"><line stroke="#000" y2="6"></line><text fill="#000" y="9" dy="0.71em"></text></g></g><g class="axis axis--y" fill="none" font-size="10" font-family="sans-serif" text-anchor="end"><path class="domain" stroke="#000" d="M-6,310.5H0.5V0.5H-6"></path><g class="tick" opacity="1" transform="translate(0,310.5)"><line stroke="#000" x2="-6"></line><text fill="#000" x="-9" dy="0.32em">0</text></g><g class="tick" opacity="1" transform="translate(0,289.2671232876712)"><line stroke="#000" x2="-6"></line><text fill="#000" x="-9" dy="0.32em">20</text></g><g class="tick" opacity="1" transform="translate(0,268.0342465753425)"><line stroke="#000" x2="-6"></line><text fill="#000" x="-9" dy="0.32em">40</text></g><g class="tick" opacity="1" transform="translate(0,246.8013698630137)"><line stroke="#000" x2="-6"></line><text fill="#000" x="-9" dy="0.32em">60</text></g><g class="tick" opacity="1" transform="translate(0,225.56849315068493)"><line stroke="#000" x2="-6"></line><text fill="#000" x="-9" dy="0.32em">80</text></g><g class="tick" opacity="1" transform="translate(0,204.33561643835617)"><line stroke="#000" x2="-6"></line><text fill="#000" x="-9" dy="0.32em">100</text></g><g class="tick" opacity="1" transform="translate(0,183.1027397260274)"><line stroke="#000" x2="-6"></line><text fill="#000" x="-9" dy="0.32em">120</text></g><g class="tick" opacity="1" transform="translate(0,161.86986301369865)"><line stroke="#000" x2="-6"></line><text fill="#000" x="-9" dy="0.32em">140</text></g><g class="tick" opacity="1" transform="translate(0,140.63698630136986)"><line stroke="#000" x2="-6"></line><text fill="#000" x="-9" dy="0.32em">160</text></g><g class="tick" opacity="1" transform="translate(0,119.4041095890411)"><line stroke="#000" x2="-6"></line><text fill="#000" x="-9" dy="0.32em">180</text></g><g class="tick" opacity="1" transform="translate(0,98.17123287671234)"><line stroke="#000" x2="-6"></line><text fill="#000" x="-9" dy="0.32em">200</text></g><g class="tick" opacity="1" transform="translate(0,76.93835616438355)"><line stroke="#000" x2="-6"></line><text fill="#000" x="-9" dy="0.32em">220</text></g><g class="tick" opacity="1" transform="translate(0,55.70547945205482)"><line stroke="#000" x2="-6"></line><text fill="#000" x="-9" dy="0.32em">240</text></g><g class="tick" opacity="1" transform="translate(0,34.47260273972603)"><line stroke="#000" x2="-6"></line><text fill="#000" x="-9" dy="0.32em">260</text></g><g class="tick" opacity="1" transform="translate(0,13.239726027397296)"><line stroke="#000" x2="-6"></line><text fill="#000" x="-9" dy="0.32em">280</text></g></g></g></svg>