<svg xmlns="http://www.w3.org/2000/svg" width="600" height="350"><defs><style type="text/css"><![CDATA[ 
.bar rect {
  fill-opacity: 0;
  stroke:       black;
  stroke-width: 0.5;
}

.highlight rect {
  fill:       red;
  fill-opacity: 1;
}
.axis path,
.axis line {
  fill: none;
  stroke: #000;
  shape-rendering: crispEdges;
}
 ]]></style></defs><g transform="translate(50,10)"><g class="bar" transform="translate(0,310)"><rect x="1" width="11.999999999999996" height="0"></rect></g><g class="bar" transform="translate(12.999999999999996,310)"><rect x="1" width="11.999999999999996" height="0"></rect></g><g class="bar" transform="translate(25.999999999999993,308.49878934624695)"><rect x="1" width="11.999999999999996" height="1.5012106537530485"></rect></g><g class="bar" transform="translate(39.00000000000001,309.2493946731235)"><rect x="1" width="11.999999999999996" height="0.7506053268764958"></rect></g><g class="bar" transform="translate(52,304.7457627118644)"><rect x="1" width="11.999999999999996" height="5.2542372881355845"></rect></g><g class="bar" transform="translate(65,298.7409200968523)"><rect x="1" width="11.999999999999996" height="11.259079903147722"></rect></g><g class="bar" transform="translate(78.00000000000001,290.48426150121065)"><rect x="1" width="11.999999999999996" height="19.515738498789347"></rect></g><g class="bar" transform="translate(91.00000000000001,275.4721549636804)"><rect x="1" width="11.999999999999996" height="34.527845036319604"></rect></g><g class="bar" transform="translate(104,259.7094430992736)"><rect x="1" width="11.999999999999996" height="50.290556900726415"></rect></g><g class="bar" transform="translate(117,234.18886198547216)"><rect x="1" width="11.999999999999996" height="75.81113801452784"></rect></g><g class="bar" transform="translate(130,203.41404358353512)"><rect x="1" width="11.999999999999996" height="106.58595641646488"></rect></g><g class="bar" transform="translate(143,193.65617433414045)"><rect x="1" width="11.999999999999996" height="116.34382566585955"></rect></g><g class="bar" transform="translate(156.00000000000003,168.135593220339)"><rect x="1" width="11.999999999999996" height="141.864406779661"></rect></g><g class="bar" transform="translate(169,129.1041162227603)"><rect x="1" width="11.999999999999996" height="180.8958837772397"></rect></g><g class="bar" transform="translate(182.00000000000003,100.5811138014528)"><rect x="1" width="11.999999999999996" height="209.4188861985472"></rect></g><g class="bar" transform="translate(195,69.05569007263924)"><rect x="1" width="11.999999999999996" height="240.94430992736076"></rect></g><g class="bar" transform="translate(208,0)"><rect x="1" width="11.999999999999996" height="310"></rect></g><g class="bar" transform="translate(221.00000000000003,6.00484261501208)"><rect x="1" width="11.999999999999996" height="303.9951573849879"></rect></g><g class="bar" transform="translate(234,4.503631961259089)"><rect x="1" width="11.999999999999996" height="305.4963680387409"></rect></g><g class="bar" transform="translate(247.00000000000003,12.760290556900713)"><rect x="1" width="11.999999999999996" height="297.2397094430993"></rect></g><g class="bar" transform="translate(260,18.014527845036355)"><rect x="1" width="11.999999999999996" height="291.98547215496365"></rect></g><g class="bar" transform="translate(273,68.30508474576271)"><rect x="1" width="11.999999999999996" height="241.6949152542373"></rect></g><g class="bar" transform="translate(286,107.33656174334138)"><rect x="1" width="11.999999999999996" height="202.66343825665862"></rect></g><g class="bar" transform="translate(299.00000000000006,163.6319612590799)"><rect x="1" width="11.999999999999996" height="146.3680387409201"></rect></g><g class="bar" transform="translate(312.00000000000006,225.9322033898305)"><rect x="1" width="11.999999999999996" height="84.0677966101695"></rect></g><g class="bar" transform="translate(325,250.70217917675546)"><rect x="1" width="11.999999999999996" height="59.297820823244535"></rect></g><g class="bar" transform="translate(338,267.21549636803877)"><rect x="1" width="11.999999999999996" height="42.78450363196123"></rect></g><g class="bar" transform="translate(351,286.73123486682806)"><rect x="1" width="11.999999999999996" height="23.26876513317194"></rect></g><g class="bar" transform="translate(364.00000000000006,297.2397094430993)"><rect x="1" width="11.999999999999996" height="12.760290556900713"></rect></g><g class="bar" transform="translate(377.00000000000006,304.7457627118644)"><rect x="1" width="11.999999999999996" height="5.2542372881355845"></rect></g><g class="bar" transform="translate(390,308.49878934624695)"><rect x="1" width="11.999999999999996" height="1.5012106537530485"></rect></g><g class="bar" transform="translate(403,307.74818401937046)"><rect x="1" width="11.999999999999996" height="2.2518159806295444"></rect></g><g class="bar" transform="translate(416,310)"><rect x="1" width="11.999999999999996" height="0"></rect></g><g class="bar" transform="translate(429.00000000000006,310)"><rect x="1" width="11.999999999999996" height="0"></rect></g><g class="bar" transform="translate(442.00000000000006,310)"><rect x="1" width="11.999999999999996" height="0"></rect></g><g class="bar" transform="translate(455,310)"><rect x="1" width="11.999999999999996" height="0"></rect></g><g class="bar" transform="translate(468,310)"><rect x="1" width="11.999999999999996" height="0"></rect></g><g class="bar" transform="translate(481,310)"><rect x="1" width="11.999999999999996" height="0"></rect></g><g class="bar" transform="translate(494.00000000000006,310)"><rect x="1" width="11.999999999999996" height="0"></rect></g><g class="bar" transform="translate(507.00000000000006,310)"><rect x="1" width="11.999999999999996" height="0"></rect></g><g class="axis axis--x" transform="translate(0,310)" fill="none" font-size="10" font-family="sans-serif" text-anchor="middle"><path class="domain" stroke="#000" d="M0.5,6V0.5H520.5V6"></path><g class="tick" opacity="1" transform="translate(0,0)"><line stroke="#000" y2="6" x1="0.5" x2="0.5"></line><text fill="#000" y="9" x="0.5" dy="0.71em">0.01</text></g><g class="tick" opacity="1" transform="translate(130,0)"><line stroke="#000" y2="6" x1="0.5" x2="0.5"></line><text fill="#000" y="9" x="0.5" dy="0.71em">1</text></g><g class="tick" opacity="1" transform="translate(260,0)"><line stroke="#000" y2="6" x1="0.5" x2="0.5"></line><text fill="#000" y="9" x="0.5" dy="0.71em">100</text></g><g class="tick" opacity="1" transform="translate(390,0)"><line stroke="#000" y2="6" x1="0.5" x2="0.5"></line><text fill="#000" y="9" x="0.5" dy="0.71em">10000</text></g><g class="tick" opacity="1" transform="translate(520,0)"><line stroke="#000" y2="6" x1="0.5" x2="0.5"></line><text fill="#000" y="9" x="0.5" dy="0.71em"></text></g></g><g class="axis axis--y" fill="none" font-size="10" font-family="sans-serif" text-anchor="end"><path class="domain" stroke="#000" d="M-6,310.5H0.5V0.5H-6"></path><g class="tick" opacity="1" transform="translate(0,310)"><line stroke="#000" x2="-6" y1="0.5" y2="0.5"></line><text fill="#000" x="-9" y="0.5" dy="0.32em">0</text></g><g class="tick" opacity="1" transform="translate(0,272.46973365617436)"><line stroke="#000" x2="-6" y1="0.5" y2="0.5"></line><text fill="#000" x="-9" y="0.5" dy="0.32em">50</text></g><g class="tick" opacity="1" transform="translate(0,234.93946731234865)"><line stroke="#000" x2="-6" y1="0.5" y2="0.5"></line><text fill="#000" x="-9" y="0.5" dy="0.32em">100</text></g><g class="tick" opacity="1" transform="translate(0,197.409200968523)"><line stroke="#000" x2="-6" y1="0.5" y2="0.5"></line><text fill="#000" x="-9" y="0.5" dy="0.32em">150</text></g><g class="tick" opacity="1" transform="translate(0,159.87893462469734)"><line stroke="#000" x2="-6" y1="0.5" y2="0.5"></line><text fill="#000" x="-9" y="0.5" dy="0.32em">200</text></g><g class="tick" opacity="1" transform="translate(0,122.34866828087166)"><line stroke="#000" x2="-6" y1="0.5" y2="0.5"></line><text fill="#000" x="-9" y="0.5" dy="0.32em">250</text></g><g class="tick" opacity="1" transform="translate(0,84.81840193704599)"><line stroke="#000" x2="-6" y1="0.5" y2="0.5"></line><text fill="#000" x="-9" y="0.5" dy="0.32em">300</text></g><g class="tick" opacity="1" transform="translate(0,47.288135593220375)"><line stroke="#000" x2="-6" y1="0.5" y2="0.5"></line><text fill="#000" x="-9" y="0.5" dy="0.32em">350</text></g><g class="tick" opacity="1" transform="translate(0,9.757869249394673)"><line stroke="#000" x2="-6" y1="0.5" y2="0.5"></line><text fill="#000" x="-9" y="0.5" dy="0.32em">400</text></g></g></g></svg>