<svg xmlns="http://www.w3.org/2000/svg" width="600" height="350"><defs><style type="text/css"><![CDATA[ 
.bar rect {
  fill-opacity: 0;
  stroke:       black;
  stroke-width: 0.5;
}

.highlight rect {
  fill:       red;
  fill-opacity: 1;
}
.axis path,
.axis line {
  fill: none;
  stroke: #000;
  shape-rendering: crispEdges;
}
path {
    stroke: red;
    fill: none;
}

line {
    stroke: red;
}

path.marker {
    fill: red;
}
 ]]></style></defs><g transform="translate(50,10)"><g class="bar" transform="translate(0,310)"><rect x="1" width="11.999999999999996" height="0"></rect></g><g class="bar" transform="translate(12.999999999999996,310)"><rect x="1" width="11.999999999999996" height="0"></rect></g><g class="bar" transform="translate(25.999999999999993,310)"><rect x="1" width="11.999999999999996" height="0"></rect></g><g class="bar" transform="translate(39.00000000000001,310)"><rect x="1" width="11.999999999999996" height="0"></rect></g><g class="bar" transform="translate(52,310)"><rect x="1" width="11.999999999999996" height="0"></rect></g><g class="bar" transform="translate(65,310)"><rect x="1" width="11.999999999999996" height="0"></rect></g><g class="bar" transform="translate(78.00000000000001,310)"><rect x="1" width="11.999999999999996" height="0"></rect></g><g class="bar" transform="translate(91.00000000000001,306.58402203856747)"><rect x="1" width="11.999999999999996" height="3.4159779614325316"></rect></g><g class="bar" transform="translate(104,304.87603305785126)"><rect x="1" width="11.999999999999996" height="5.123966942148741"></rect></g><g class="bar" transform="translate(117,264.73829201101927)"><rect x="1" width="11.999999999999996" height="45.26170798898073"></rect></g><g class="bar" transform="translate(130,284.3801652892562)"><rect x="1" width="11.999999999999996" height="25.619834710743817"></rect></g><g class="bar" transform="translate(143,208.37465564738292)"><rect x="1" width="11.999999999999996" height="101.62534435261708"></rect></g><g class="bar" transform="translate(156.00000000000003,270.71625344352617)"><rect x="1" width="11.999999999999996" height="39.28374655647383"></rect></g><g class="bar" transform="translate(169,245.09641873278235)"><rect x="1" width="11.999999999999996" height="64.90358126721765"></rect></g><g class="bar" transform="translate(182.00000000000003,197.27272727272725)"><rect x="1" width="11.999999999999996" height="112.72727272727275"></rect></g><g class="bar" transform="translate(195,116.14325068870525)"><rect x="1" width="11.999999999999996" height="193.85674931129475"></rect></g><g class="bar" transform="translate(208,0)"><rect x="1" width="11.999999999999996" height="310"></rect></g><g class="bar" transform="translate(221.00000000000003,27.327823691460083)"><rect x="1" width="11.999999999999996" height="282.6721763085399"></rect></g><g class="bar" transform="translate(234,82.8374655647383)"><rect x="1" width="11.999999999999996" height="227.1625344352617"></rect></g><g class="bar" transform="translate(247.00000000000003,106.74931129476585)"><rect x="1" width="11.999999999999996" height="203.25068870523415"></rect></g><g class="bar" transform="translate(260,148.59504132231405)"><rect x="1" width="11.999999999999996" height="161.40495867768595"></rect></g><g class="bar" transform="translate(273,237.41046831955924)"><rect x="1" width="11.999999999999996" height="72.58953168044076"></rect></g><g class="bar" transform="translate(286,239.11845730027548)"><rect x="1" width="11.999999999999996" height="70.88154269972452"></rect></g><g class="bar" transform="translate(299.00000000000006,271.5702479338843)"><rect x="1" width="11.999999999999996" height="38.429752066115725"></rect></g><g class="bar" transform="translate(312.00000000000006,269.0082644628099)"><rect x="1" width="11.999999999999996" height="40.991735537190095"></rect></g><g class="bar" transform="translate(325,284.3801652892562)"><rect x="1" width="11.999999999999996" height="25.619834710743817"></rect></g><g class="bar" transform="translate(338,286.08815426997245)"><rect x="1" width="11.999999999999996" height="23.91184573002755"></rect></g><g class="bar" transform="translate(351,292.06611570247935)"><rect x="1" width="11.999999999999996" height="17.93388429752065"></rect></g><g class="bar" transform="translate(364.00000000000006,288.6501377410468)"><rect x="1" width="11.999999999999996" height="21.34986225895318"></rect></g><g class="bar" transform="translate(377.00000000000006,304.0220385674931)"><rect x="1" width="11.999999999999996" height="5.977961432506902"></rect></g><g class="bar" transform="translate(390,304.87603305785126)"><rect x="1" width="11.999999999999996" height="5.123966942148741"></rect></g><g class="bar" transform="translate(403,304.87603305785126)"><rect x="1" width="11.999999999999996" height="5.123966942148741"></rect></g><g class="bar" transform="translate(416,308.29201101928373)"><rect x="1" width="11.999999999999996" height="1.7079889807162658"></rect></g><g class="bar" transform="translate(429.00000000000006,310)"><rect x="1" width="11.999999999999996" height="0"></rect></g><g class="bar" transform="translate(442.00000000000006,309.1460055096419)"><rect x="1" width="11.999999999999996" height="0.8539944903581045"></rect></g><g class="bar" transform="translate(455,309.1460055096419)"><rect x="1" width="11.999999999999996" height="0.8539944903581045"></rect></g><g class="bar" transform="translate(468,310)"><rect x="1" width="11.999999999999996" height="0"></rect></g><g class="bar" transform="translate(481,310)"><rect x="1" width="11.999999999999996" height="0"></rect></g><g class="bar" transform="translate(494.00000000000006,310)"><rect x="1" width="11.999999999999996" height="0"></rect></g><g class="bar" transform="translate(507.00000000000006,310)"><rect x="1" width="11.999999999999996" height="0"></rect></g><g class="axis axis--x" transform="translate(0,310)" fill="none" font-size="10" font-family="sans-serif" text-anchor="middle"><path class="domain" stroke="#000" d="M0.5,6V0.5H520.5V6"></path><g class="tick" opacity="1" transform="translate(0.5,0)"><line stroke="#000" y2="6"></line><text fill="#000" y="9" dy="0.71em">0.01</text></g><g class="tick" opacity="1" transform="translate(130.5,0)"><line stroke="#000" y2="6"></line><text fill="#000" y="9" dy="0.71em">1</text></g><g class="tick" opacity="1" transform="translate(260.5,0)"><line stroke="#000" y2="6"></line><text fill="#000" y="9" dy="0.71em">100</text></g><g class="tick" opacity="1" transform="translate(390.5,0)"><line stroke="#000" y2="6"></line><text fill="#000" y="9" dy="0.71em">10000</text></g><g class="tick" opacity="1" transform="translate(520.5,0)"><line stroke="#000" y2="6"></line><text fill="#000" y="9" dy="0.71em"></text></g></g><g class="axis axis--y" fill="none" font-size="10" font-family="sans-serif" text-anchor="end"><path class="domain" stroke="#000" d="M-6,310.5H0.5V0.5H-6"></path><g class="tick" opacity="1" transform="translate(0,310.5)"><line stroke="#000" x2="-6"></line><text fill="#000" x="-9" dy="0.32em">0</text></g><g class="tick" opacity="1" transform="translate(0,267.80027548209364)"><line stroke="#000" x2="-6"></line><text fill="#000" x="-9" dy="0.32em">50</text></g><g class="tick" opacity="1" transform="translate(0,225.10055096418733)"><line stroke="#000" x2="-6"></line><text fill="#000" x="-9" dy="0.32em">100</text></g><g class="tick" opacity="1" transform="translate(0,182.400826446281)"><line stroke="#000" x2="-6"></line><text fill="#000" x="-9" dy="0.32em">150</text></g><g class="tick" opacity="1" transform="translate(0,139.70110192837464)"><line stroke="#000" x2="-6"></line><text fill="#000" x="-9" dy="0.32em">200</text></g><g class="tick" opacity="1" transform="translate(0,97.00137741046834)"><line stroke="#000" x2="-6"></line><text fill="#000" x="-9" dy="0.32em">250</text></g><g class="tick" opacity="1" transform="translate(0,54.301652892562004)"><line stroke="#000" x2="-6"></line><text fill="#000" x="-9" dy="0.32em">300</text></g><g class="tick" opacity="1" transform="translate(0,11.601928374655643)"><line stroke="#000" x2="-6"></line><text fill="#000" x="-9" dy="0.32em">350</text></g></g></g></svg>