<svg xmlns="http://www.w3.org/2000/svg" width="600" height="350"><defs><style type="text/css"><![CDATA[ 
.bar rect {
  fill-opacity: 0;
  stroke:       black;
  stroke-width: 0.5;
}

.highlight rect {
  fill:       red;
  fill-opacity: 1;
}
.axis path,
.axis line {
  fill: none;
  stroke: #000;
  shape-rendering: crispEdges;
}
path {
    stroke: red;
    fill: none;
}

line {
    stroke: red;
}

path.marker {
    fill: red;
}
 ]]></style></defs><g transform="translate(50,10)"><g class="bar" transform="translate(0,310)"><rect x="1" width="11.999999999999996" height="0"></rect></g><g class="bar" transform="translate(12.999999999999996,310)"><rect x="1" width="11.999999999999996" height="0"></rect></g><g class="bar" transform="translate(25.999999999999993,310)"><rect x="1" width="11.999999999999996" height="0"></rect></g><g class="bar" transform="translate(39.00000000000001,310)"><rect x="1" width="11.999999999999996" height="0"></rect></g><g class="bar" transform="translate(52,310)"><rect x="1" width="11.999999999999996" height="0"></rect></g><g class="bar" transform="translate(65,310)"><rect x="1" width="11.999999999999996" height="0"></rect></g><g class="bar" transform="translate(78.00000000000001,310)"><rect x="1" width="11.999999999999996" height="0"></rect></g><g class="bar" transform="translate(91.00000000000001,310)"><rect x="1" width="11.999999999999996" height="0"></rect></g><g class="bar" transform="translate(104,310)"><rect x="1" width="11.999999999999996" height="0"></rect></g><g class="bar" transform="translate(117,307.4273858921162)"><rect x="1" width="11.999999999999996" height="2.572614107883794"></rect></g><g class="bar" transform="translate(130,305.49792531120335)"><rect x="1" width="11.999999999999996" height="4.502074688796654"></rect></g><g class="bar" transform="translate(143,294.5643153526971)"><rect x="1" width="11.999999999999996" height="15.435684647302878"></rect></g><g class="bar" transform="translate(156.00000000000003,285.56016597510376)"><rect x="1" width="11.999999999999996" height="24.439834024896243"></rect></g><g class="bar" transform="translate(169,250.18672199170123)"><rect x="1" width="11.999999999999996" height="59.81327800829877"></rect></g><g class="bar" transform="translate(182.00000000000003,196.16182572614107)"><rect x="1" width="11.999999999999996" height="113.83817427385893"></rect></g><g class="bar" transform="translate(195,83.60995850622407)"><rect x="1" width="11.999999999999996" height="226.39004149377593"></rect></g><g class="bar" transform="translate(208,14.149377593360953)"><rect x="1" width="11.999999999999996" height="295.85062240663905"></rect></g><g class="bar" transform="translate(221.00000000000003,4.502074688796654)"><rect x="1" width="11.999999999999996" height="305.49792531120335"></rect></g><g class="bar" transform="translate(234,0)"><rect x="1" width="11.999999999999996" height="310"></rect></g><g class="bar" transform="translate(247.00000000000003,37.94605809128632)"><rect x="1" width="11.999999999999996" height="272.0539419087137"></rect></g><g class="bar" transform="translate(260,45.02074688796682)"><rect x="1" width="11.999999999999996" height="264.9792531120332"></rect></g><g class="bar" transform="translate(273,81.68049792531119)"><rect x="1" width="11.999999999999996" height="228.3195020746888"></rect></g><g class="bar" transform="translate(286,135.70539419087137)"><rect x="1" width="11.999999999999996" height="174.29460580912863"></rect></g><g class="bar" transform="translate(299.00000000000006,165.29045643153526)"><rect x="1" width="11.999999999999996" height="144.70954356846474"></rect></g><g class="bar" transform="translate(312.00000000000006,214.81327800829877)"><rect x="1" width="11.999999999999996" height="95.18672199170123"></rect></g><g class="bar" transform="translate(325,254.04564315352698)"><rect x="1" width="11.999999999999996" height="55.95435684647302"></rect></g><g class="bar" transform="translate(338,279.1286307053942)"><rect x="1" width="11.999999999999996" height="30.871369294605813"></rect></g><g class="bar" transform="translate(351,293.2780082987552)"><rect x="1" width="11.999999999999996" height="16.721991701244804"></rect></g><g class="bar" transform="translate(364.00000000000006,297.78008298755185)"><rect x="1" width="11.999999999999996" height="12.21991701244815"></rect></g><g class="bar" transform="translate(377.00000000000006,305.49792531120335)"><rect x="1" width="11.999999999999996" height="4.502074688796654"></rect></g><g class="bar" transform="translate(390,308.7136929460581)"><rect x="1" width="11.999999999999996" height="1.2863070539419255"></rect></g><g class="bar" transform="translate(403,309.35684647302907)"><rect x="1" width="11.999999999999996" height="0.6431535269709343"></rect></g><g class="bar" transform="translate(416,310)"><rect x="1" width="11.999999999999996" height="0"></rect></g><g class="bar" transform="translate(429.00000000000006,310)"><rect x="1" width="11.999999999999996" height="0"></rect></g><g class="bar" transform="translate(442.00000000000006,310)"><rect x="1" width="11.999999999999996" height="0"></rect></g><g class="bar" transform="translate(455,310)"><rect x="1" width="11.999999999999996" height="0"></rect></g><g class="bar" transform="translate(468,310)"><rect x="1" width="11.999999999999996" height="0"></rect></g><g class="bar" transform="translate(481,310)"><rect x="1" width="11.999999999999996" height="0"></rect></g><g class="bar" transform="translate(494.00000000000006,310)"><rect x="1" width="11.999999999999996" height="0"></rect></g><g class="bar" transform="translate(507.00000000000006,310)"><rect x="1" width="11.999999999999996" height="0"></rect></g><g class="axis axis--x" transform="translate(0,310)" fill="none" font-size="10" font-family="sans-serif" text-anchor="middle"><path class="domain" stroke="#000" d="M0.5,6V0.5H520.5V6"></path><g class="tick" opacity="1" transform="translate(0.5,0)"><line stroke="#000" y2="6"></line><text fill="#000" y="9" dy="0.71em">0.01</text></g><g class="tick" opacity="1" transform="translate(130.5,0)"><line stroke="#000" y2="6"></line><text fill="#000" y="9" dy="0.71em">1</text></g><g class="tick" opacity="1" transform="translate(260.5,0)"><line stroke="#000" y2="6"></line><text fill="#000" y="9" dy="0.71em">100</text></g><g class="tick" opacity="1" transform="translate(390.5,0)"><line stroke="#000" y2="6"></line><text fill="#000" y="9" dy="0.71em">10000</text></g><g class="tick" opacity="1" transform="translate(520.5,0)"><line stroke="#000" y2="6"></line><text fill="#000" y="9" dy="0.71em"></text></g></g><g class="axis axis--y" fill="none" font-size="10" font-family="sans-serif" text-anchor="end"><path class="domain" stroke="#000" d="M-6,310.5H0.5V0.5H-6"></path><g class="tick" opacity="1" transform="translate(0,310.5)"><line stroke="#000" x2="-6"></line><text fill="#000" x="-9" dy="0.32em">0</text></g><g class="tick" opacity="1" transform="translate(0,278.34232365145226)"><line stroke="#000" x2="-6"></line><text fill="#000" x="-9" dy="0.32em">50</text></g><g class="tick" opacity="1" transform="translate(0,246.18464730290458)"><line stroke="#000" x2="-6"></line><text fill="#000" x="-9" dy="0.32em">100</text></g><g class="tick" opacity="1" transform="translate(0,214.02697095435684)"><line stroke="#000" x2="-6"></line><text fill="#000" x="-9" dy="0.32em">150</text></g><g class="tick" opacity="1" transform="translate(0,181.86929460580913)"><line stroke="#000" x2="-6"></line><text fill="#000" x="-9" dy="0.32em">200</text></g><g class="tick" opacity="1" transform="translate(0,149.7116182572614)"><line stroke="#000" x2="-6"></line><text fill="#000" x="-9" dy="0.32em">250</text></g><g class="tick" opacity="1" transform="translate(0,117.55394190871368)"><line stroke="#000" x2="-6"></line><text fill="#000" x="-9" dy="0.32em">300</text></g><g class="tick" opacity="1" transform="translate(0,85.39626556016597)"><line stroke="#000" x2="-6"></line><text fill="#000" x="-9" dy="0.32em">350</text></g><g class="tick" opacity="1" transform="translate(0,53.23858921161826)"><line stroke="#000" x2="-6"></line><text fill="#000" x="-9" dy="0.32em">400</text></g><g class="tick" opacity="1" transform="translate(0,21.080912863070523)"><line stroke="#000" x2="-6"></line><text fill="#000" x="-9" dy="0.32em">450</text></g></g></g></svg>