<svg xmlns="http://www.w3.org/2000/svg" width="280" height="160"><defs><style type="text/css"><![CDATA[ 
.bar rect {
  fill-opacity: 0;
  stroke:       black;
  stroke-width: 0.5;
}

.highlight rect {
  fill:       red;
  fill-opacity: 1;
}
.axis path,
.axis line {
  fill: none;
  stroke: #000;
  shape-rendering: crispEdges;
}
 ]]></style></defs><g transform="translate(50,10)"><g class="bar" transform="translate(0,117.12164477441462)"><rect x="1" width="11.5" height="2.8783552255853806"></rect></g><g class="bar" transform="translate(12.5,104.03198172472872)"><rect x="1" width="11.5" height="15.968018275271277"></rect></g><g class="bar" transform="translate(25,82.170188463735)"><rect x="1" width="11.5" height="37.829811536265"></rect></g><g class="bar" transform="translate(37.5,67.4357509994289)"><rect x="1" width="11.5" height="52.564249000571095"></rect></g><g class="bar" transform="translate(50,46.053683609366075)"><rect x="1" width="11.5" height="73.94631639063392"></rect></g><g class="bar" transform="translate(62.5,13.295259851513421)"><rect x="1" width="11.5" height="106.70474014848658"></rect></g><g class="bar" transform="translate(75,0)"><rect x="1" width="11.5" height="120"></rect></g><g class="bar" transform="translate(87.5,18.98343803540834)"><rect x="1" width="11.5" height="101.01656196459166"></rect></g><g class="bar" transform="translate(100,40.57110222729868)"><rect x="1" width="11.5" height="79.42889777270132"></rect></g><g class="bar" transform="translate(112.5,83.88349514563107)"><rect x="1" width="11.5" height="36.11650485436893"></rect></g><g class="bar" transform="translate(125,111.84466019417476)"><rect x="1" width="11.5" height="8.155339805825236"></rect></g><g class="bar" transform="translate(137.5,118.01256424900058)"><rect x="1" width="11.5" height="1.987435750999424"></rect></g><g class="bar" transform="translate(150,119.79440319817247)"><rect x="1" width="11.5" height="0.20559680182752516"></rect></g><g class="bar" transform="translate(162.5,120)"><rect x="1" width="11.5" height="0"></rect></g><g class="bar" transform="translate(175,120)"><rect x="1" width="11.5" height="0"></rect></g><g class="bar" transform="translate(187.5,120)"><rect x="1" width="11.5" height="0"></rect></g></g></svg>