<svg xmlns="http://www.w3.org/2000/svg" width="600" height="350"><defs><style type="text/css"><![CDATA[ 
.bar rect {
  fill-opacity: 0;
  stroke:       black;
  stroke-width: 0.5;
}

.highlight rect {
  fill:       red;
  fill-opacity: 1;
}
.axis path,
.axis line {
  fill: none;
  stroke: #000;
  shape-rendering: crispEdges;
}
 ]]></style></defs><g transform="translate(50,10)"><g class="bar" transform="translate(0,308.6845827439887)"><rect x="1" width="11.999999999999996" height="1.315417256011301"></rect></g><g class="bar" transform="translate(12.999999999999996,299.9151343705799)"><rect x="1" width="11.999999999999996" height="10.084865629420108"></rect></g><g class="bar" transform="translate(25.999999999999993,292.02263083451203)"><rect x="1" width="11.999999999999996" height="17.97736916548797"></rect></g><g class="bar" transform="translate(39.00000000000001,279.3069306930693)"><rect x="1" width="11.999999999999996" height="30.69306930693068"></rect></g><g class="bar" transform="translate(52,249.4908062234795)"><rect x="1" width="11.999999999999996" height="60.509193776520505"></rect></g><g class="bar" transform="translate(65,237.21357850070723)"><rect x="1" width="11.999999999999996" height="72.78642149929277"></rect></g><g class="bar" transform="translate(78.00000000000001,205.64356435643563)"><rect x="1" width="11.999999999999996" height="104.35643564356437"></rect></g><g class="bar" transform="translate(91.00000000000001,188.1046676096181)"><rect x="1" width="11.999999999999996" height="121.8953323903819"></rect></g><g class="bar" transform="translate(104,178.01980198019803)"><rect x="1" width="11.999999999999996" height="131.98019801980197"></rect></g><g class="bar" transform="translate(117,162.67326732673268)"><rect x="1" width="11.999999999999996" height="147.32673267326732"></rect></g><g class="bar" transform="translate(130,141.18811881188117)"><rect x="1" width="11.999999999999996" height="168.81188118811883"></rect></g><g class="bar" transform="translate(143,109.61810466760963)"><rect x="1" width="11.999999999999996" height="200.38189533239037"></rect></g><g class="bar" transform="translate(156.00000000000003,74.1018387553041)"><rect x="1" width="11.999999999999996" height="235.8981612446959"></rect></g><g class="bar" transform="translate(169,60.07072135785009)"><rect x="1" width="11.999999999999996" height="249.9292786421499"></rect></g><g class="bar" transform="translate(182.00000000000003,9.207920792079221)"><rect x="1" width="11.999999999999996" height="300.7920792079208"></rect></g><g class="bar" transform="translate(195,6.138613861386148)"><rect x="1" width="11.999999999999996" height="303.86138613861385"></rect></g><g class="bar" transform="translate(208,1.315417256011301)"><rect x="1" width="11.999999999999996" height="308.6845827439887"></rect></g><g class="bar" transform="translate(221.00000000000003,0)"><rect x="1" width="11.999999999999996" height="310"></rect></g><g class="bar" transform="translate(234,70.59405940594058)"><rect x="1" width="11.999999999999996" height="239.40594059405942"></rect></g><g class="bar" transform="translate(247.00000000000003,57.878359264497874)"><rect x="1" width="11.999999999999996" height="252.12164073550213"></rect></g><g class="bar" transform="translate(260,77.17114568599717)"><rect x="1" width="11.999999999999996" height="232.82885431400283"></rect></g><g class="bar" transform="translate(273,114.87977369165489)"><rect x="1" width="11.999999999999996" height="195.1202263083451"></rect></g><g class="bar" transform="translate(286,147.32673267326732)"><rect x="1" width="11.999999999999996" height="162.67326732673268"></rect></g><g class="bar" transform="translate(299.00000000000006,209.15134370579915)"><rect x="1" width="11.999999999999996" height="100.84865629420085"></rect></g><g class="bar" transform="translate(312.00000000000006,262.20650636492223)"><rect x="1" width="11.999999999999996" height="47.793493635077766"></rect></g><g class="bar" transform="translate(325,275.7991513437058)"><rect x="1" width="11.999999999999996" height="34.20084865629423"></rect></g><g class="bar" transform="translate(338,297.7227722772277)"><rect x="1" width="11.999999999999996" height="12.277227722772295"></rect></g><g class="bar" transform="translate(351,301.66902404526166)"><rect x="1" width="11.999999999999996" height="8.330975954738335"></rect></g><g class="bar" transform="translate(364.00000000000006,302.98444130127297)"><rect x="1" width="11.999999999999996" height="7.015558698727034"></rect></g><g class="bar" transform="translate(377.00000000000006,306.9306930693069)"><rect x="1" width="11.999999999999996" height="3.069306930693074"></rect></g><g class="bar" transform="translate(390,309.5615275813296)"><rect x="1" width="11.999999999999996" height="0.43847241867041475"></rect></g><g class="bar" transform="translate(403,309.1230551626591)"><rect x="1" width="11.999999999999996" height="0.8769448373408864"></rect></g><g class="bar" transform="translate(416,310)"><rect x="1" width="11.999999999999996" height="0"></rect></g><g class="bar" transform="translate(429.00000000000006,310)"><rect x="1" width="11.999999999999996" height="0"></rect></g><g class="bar" transform="translate(442.00000000000006,310)"><rect x="1" width="11.999999999999996" height="0"></rect></g><g class="bar" transform="translate(455,310)"><rect x="1" width="11.999999999999996" height="0"></rect></g><g class="bar" transform="translate(468,310)"><rect x="1" width="11.999999999999996" height="0"></rect></g><g class="bar" transform="translate(481,310)"><rect x="1" width="11.999999999999996" height="0"></rect></g><g class="bar" transform="translate(494.00000000000006,310)"><rect x="1" width="11.999999999999996" height="0"></rect></g><g class="bar" transform="translate(507.00000000000006,310)"><rect x="1" width="11.999999999999996" height="0"></rect></g><g class="axis axis--x" transform="translate(0,310)" fill="none" font-size="10" font-family="sans-serif" text-anchor="middle"><path class="domain" stroke="#000" d="M0.5,6V0.5H520.5V6"></path><g class="tick" opacity="1" transform="translate(0,0)"><line stroke="#000" y2="6" x1="0.5" x2="0.5"></line><text fill="#000" y="9" x="0.5" dy="0.71em">0.01</text></g><g class="tick" opacity="1" transform="translate(130,0)"><line stroke="#000" y2="6" x1="0.5" x2="0.5"></line><text fill="#000" y="9" x="0.5" dy="0.71em">1</text></g><g class="tick" opacity="1" transform="translate(260,0)"><line stroke="#000" y2="6" x1="0.5" x2="0.5"></line><text fill="#000" y="9" x="0.5" dy="0.71em">100</text></g><g class="tick" opacity="1" transform="translate(390,0)"><line stroke="#000" y2="6" x1="0.5" x2="0.5"></line><text fill="#000" y="9" x="0.5" dy="0.71em">10000</text></g><g class="tick" opacity="1" transform="translate(520,0)"><line stroke="#000" y2="6" x1="0.5" x2="0.5"></line><text fill="#000" y="9" x="0.5" dy="0.71em"></text></g></g><g class="axis axis--y" fill="none" font-size="10" font-family="sans-serif" text-anchor="end"><path class="domain" stroke="#000" d="M-6,310.5H0.5V0.5H-6"></path><g class="tick" opacity="1" transform="translate(0,310)"><line stroke="#000" x2="-6" y1="0.5" y2="0.5"></line><text fill="#000" x="-9" y="0.5" dy="0.32em">0</text></g><g class="tick" opacity="1" transform="translate(0,288.07637906647807)"><line stroke="#000" x2="-6" y1="0.5" y2="0.5"></line><text fill="#000" x="-9" y="0.5" dy="0.32em">50</text></g><g class="tick" opacity="1" transform="translate(0,266.15275813295614)"><line stroke="#000" x2="-6" y1="0.5" y2="0.5"></line><text fill="#000" x="-9" y="0.5" dy="0.32em">100</text></g><g class="tick" opacity="1" transform="translate(0,244.22913719943423)"><line stroke="#000" x2="-6" y1="0.5" y2="0.5"></line><text fill="#000" x="-9" y="0.5" dy="0.32em">150</text></g><g class="tick" opacity="1" transform="translate(0,222.3055162659123)"><line stroke="#000" x2="-6" y1="0.5" y2="0.5"></line><text fill="#000" x="-9" y="0.5" dy="0.32em">200</text></g><g class="tick" opacity="1" transform="translate(0,200.3818953323904)"><line stroke="#000" x2="-6" y1="0.5" y2="0.5"></line><text fill="#000" x="-9" y="0.5" dy="0.32em">250</text></g><g class="tick" opacity="1" transform="translate(0,178.45827439886847)"><line stroke="#000" x2="-6" y1="0.5" y2="0.5"></line><text fill="#000" x="-9" y="0.5" dy="0.32em">300</text></g><g class="tick" opacity="1" transform="translate(0,156.53465346534654)"><line stroke="#000" x2="-6" y1="0.5" y2="0.5"></line><text fill="#000" x="-9" y="0.5" dy="0.32em">350</text></g><g class="tick" opacity="1" transform="translate(0,134.6110325318246)"><line stroke="#000" x2="-6" y1="0.5" y2="0.5"></line><text fill="#000" x="-9" y="0.5" dy="0.32em">400</text></g><g class="tick" opacity="1" transform="translate(0,112.6874115983027)"><line stroke="#000" x2="-6" y1="0.5" y2="0.5"></line><text fill="#000" x="-9" y="0.5" dy="0.32em">450</text></g><g class="tick" opacity="1" transform="translate(0,90.76379066478077)"><line stroke="#000" x2="-6" y1="0.5" y2="0.5"></line><text fill="#000" x="-9" y="0.5" dy="0.32em">500</text></g><g class="tick" opacity="1" transform="translate(0,68.84016973125884)"><line stroke="#000" x2="-6" y1="0.5" y2="0.5"></line><text fill="#000" x="-9" y="0.5" dy="0.32em">550</text></g><g class="tick" opacity="1" transform="translate(0,46.91654879773694)"><line stroke="#000" x2="-6" y1="0.5" y2="0.5"></line><text fill="#000" x="-9" y="0.5" dy="0.32em">600</text></g><g class="tick" opacity="1" transform="translate(0,24.992927864215005)"><line stroke="#000" x2="-6" y1="0.5" y2="0.5"></line><text fill="#000" x="-9" y="0.5" dy="0.32em">650</text></g><g class="tick" opacity="1" transform="translate(0,3.069306930693074)"><line stroke="#000" x2="-6" y1="0.5" y2="0.5"></line><text fill="#000" x="-9" y="0.5" dy="0.32em">700</text></g></g></g></svg>