<svg xmlns="http://www.w3.org/2000/svg" width="280" height="160"><defs><style type="text/css"><![CDATA[ 
.bar rect {
  fill-opacity: 0;
  stroke:       black;
  stroke-width: 0.5;
}

.highlight rect {
  fill:       red;
  fill-opacity: 1;
}
.axis path,
.axis line {
  fill: none;
  stroke: #000;
  shape-rendering: crispEdges;
}
path {
    stroke: red;
    fill: none;
}

line {
    stroke: red;
}

path.marker {
    fill: red;
}
 ]]></style></defs><g transform="translate(50,10)"><g class="bar" transform="translate(0,120)"><rect x="1" width="11.5" height="0"></rect></g><g class="bar" transform="translate(12.5,120)"><rect x="1" width="11.5" height="0"></rect></g><g class="bar" transform="translate(25,120)"><rect x="1" width="11.5" height="0"></rect></g><g class="bar" transform="translate(37.5,120)"><rect x="1" width="11.5" height="0"></rect></g><g class="bar" transform="translate(50,120)"><rect x="1" width="11.5" height="0"></rect></g><g class="bar" transform="translate(62.5,120)"><rect x="1" width="11.5" height="0"></rect></g><g class="bar" transform="translate(75,62.27129337539432)"><rect x="1" width="11.5" height="57.72870662460568"></rect></g><g class="bar" transform="translate(87.5,0)"><rect x="1" width="11.5" height="120"></rect></g><g class="bar" transform="translate(100,29.337539432176655)"><rect x="1" width="11.5" height="90.66246056782335"></rect></g><g class="bar" transform="translate(112.5,56.02523659305994)"><rect x="1" width="11.5" height="63.97476340694006"></rect></g><g class="bar" transform="translate(125,93.1230283911672)"><rect x="1" width="11.5" height="26.876971608832804"></rect></g><g class="bar" transform="translate(137.5,112.2397476340694)"><rect x="1" width="11.5" height="7.760252365930597"></rect></g><g class="bar" transform="translate(150,118.48580441640378)"><rect x="1" width="11.5" height="1.5141955835962193"></rect></g><g class="bar" transform="translate(162.5,119.62145110410094)"><rect x="1" width="11.5" height="0.3785488958990584"></rect></g><g class="bar" transform="translate(175,120)"><rect x="1" width="11.5" height="0"></rect></g><g class="bar" transform="translate(187.5,120)"><rect x="1" width="11.5" height="0"></rect></g></g></svg>