<svg xmlns="http://www.w3.org/2000/svg" width="280" height="160"><defs><style type="text/css"><![CDATA[ 
.bar rect {
  fill-opacity: 0;
  stroke:       black;
  stroke-width: 0.5;
}

.highlight rect {
  fill:       red;
  fill-opacity: 1;
}
.axis path,
.axis line {
  fill: none;
  stroke: #000;
  shape-rendering: crispEdges;
}
 ]]></style></defs><g transform="translate(50,10)"><g class="bar" transform="translate(0,117.02702702702703)"><rect x="1" width="11.5" height="2.9729729729729684"></rect></g><g class="bar" transform="translate(12.5,114.5945945945946)"><rect x="1" width="11.5" height="5.4054054054054035"></rect></g><g class="bar" transform="translate(25,105.67567567567568)"><rect x="1" width="11.5" height="14.324324324324323"></rect></g><g class="bar" transform="translate(37.5,91.35135135135135)"><rect x="1" width="11.5" height="28.648648648648646"></rect></g><g class="bar" transform="translate(50,33.78378378378379)"><rect x="1" width="11.5" height="86.21621621621621"></rect></g><g class="bar" transform="translate(62.5,0)"><rect x="1" width="11.5" height="120"></rect></g><g class="bar" transform="translate(75,0.5405405405405332)"><rect x="1" width="11.5" height="119.45945945945947"></rect></g><g class="bar" transform="translate(87.5,6.756756756756758)"><rect x="1" width="11.5" height="113.24324324324324"></rect></g><g class="bar" transform="translate(100,26.756756756756758)"><rect x="1" width="11.5" height="93.24324324324324"></rect></g><g class="bar" transform="translate(112.5,60.27027027027027)"><rect x="1" width="11.5" height="59.72972972972973"></rect></g><g class="bar" transform="translate(125,84.32432432432432)"><rect x="1" width="11.5" height="35.67567567567568"></rect></g><g class="bar" transform="translate(137.5,108.10810810810811)"><rect x="1" width="11.5" height="11.891891891891888"></rect></g><g class="bar" transform="translate(150,116.75675675675676)"><rect x="1" width="11.5" height="3.243243243243242"></rect></g><g class="bar" transform="translate(162.5,119.45945945945945)"><rect x="1" width="11.5" height="0.5405405405405475"></rect></g><g class="bar" transform="translate(175,120)"><rect x="1" width="11.5" height="0"></rect></g><g class="bar" transform="translate(187.5,120)"><rect x="1" width="11.5" height="0"></rect></g></g></svg>