<svg xmlns="http://www.w3.org/2000/svg" width="600" height="350"><defs><style type="text/css"><![CDATA[ 
.bar rect {
  fill-opacity: 0;
  stroke:       black;
  stroke-width: 0.5;
}

.highlight rect {
  fill:       red;
  fill-opacity: 1;
}
.axis path,
.axis line {
  fill: none;
  stroke: #000;
  shape-rendering: crispEdges;
}
path {
    stroke: red;
    fill: none;
}

line {
    stroke: red;
}

path.marker {
    fill: red;
}
 ]]></style></defs><g transform="translate(50,10)"><g class="bar" transform="translate(0,305.5315315315315)"><rect x="1" width="11.999999999999996" height="4.468468468468473"></rect></g><g class="bar" transform="translate(12.999999999999996,294.9189189189189)"><rect x="1" width="11.999999999999996" height="15.081081081081095"></rect></g><g class="bar" transform="translate(25.999999999999993,284.3063063063063)"><rect x="1" width="11.999999999999996" height="25.693693693693717"></rect></g><g class="bar" transform="translate(39.00000000000001,266.43243243243245)"><rect x="1" width="11.999999999999996" height="43.56756756756755"></rect></g><g class="bar" transform="translate(52,234.03603603603602)"><rect x="1" width="11.999999999999996" height="75.96396396396398"></rect></g><g class="bar" transform="translate(65,215.6036036036036)"><rect x="1" width="11.999999999999996" height="94.3963963963964"></rect></g><g class="bar" transform="translate(78.00000000000001,191.02702702702703)"><rect x="1" width="11.999999999999996" height="118.97297297297297"></rect></g><g class="bar" transform="translate(91.00000000000001,180.97297297297297)"><rect x="1" width="11.999999999999996" height="129.02702702702703"></rect></g><g class="bar" transform="translate(104,152.48648648648648)"><rect x="1" width="11.999999999999996" height="157.51351351351352"></rect></g><g class="bar" transform="translate(117,152.48648648648648)"><rect x="1" width="11.999999999999996" height="157.51351351351352"></rect></g><g class="bar" transform="translate(130,135.7297297297297)"><rect x="1" width="11.999999999999996" height="174.2702702702703"></rect></g><g class="bar" transform="translate(143,94.95495495495496)"><rect x="1" width="11.999999999999996" height="215.04504504504504"></rect></g><g class="bar" transform="translate(156.00000000000003,69.26126126126127)"><rect x="1" width="11.999999999999996" height="240.73873873873873"></rect></g><g class="bar" transform="translate(169,7.819819819819827)"><rect x="1" width="11.999999999999996" height="302.1801801801802"></rect></g><g class="bar" transform="translate(182.00000000000003,24.576576576576542)"><rect x="1" width="11.999999999999996" height="285.42342342342346"></rect></g><g class="bar" transform="translate(195,5.027027027027032)"><rect x="1" width="11.999999999999996" height="304.97297297297297"></rect></g><g class="bar" transform="translate(208,0)"><rect x="1" width="11.999999999999996" height="310"></rect></g><g class="bar" transform="translate(221.00000000000003,17.31531531531533)"><rect x="1" width="11.999999999999996" height="292.68468468468467"></rect></g><g class="bar" transform="translate(234,22.900900900900922)"><rect x="1" width="11.999999999999996" height="287.0990990990991"></rect></g><g class="bar" transform="translate(247.00000000000003,39.65765765765764)"><rect x="1" width="11.999999999999996" height="270.34234234234236"></rect></g><g class="bar" transform="translate(260,36.86486486486484)"><rect x="1" width="11.999999999999996" height="273.13513513513516"></rect></g><g class="bar" transform="translate(273,62)"><rect x="1" width="11.999999999999996" height="248"></rect></g><g class="bar" transform="translate(286,129.027027027027)"><rect x="1" width="11.999999999999996" height="180.972972972973"></rect></g><g class="bar" transform="translate(299.00000000000006,209.45945945945945)"><rect x="1" width="11.999999999999996" height="100.54054054054055"></rect></g><g class="bar" transform="translate(312.00000000000006,239.6216216216216)"><rect x="1" width="11.999999999999996" height="70.37837837837839"></rect></g><g class="bar" transform="translate(325,277.6036036036036)"><rect x="1" width="11.999999999999996" height="32.396396396396426"></rect></g><g class="bar" transform="translate(338,292.1261261261261)"><rect x="1" width="11.999999999999996" height="17.87387387387389"></rect></g><g class="bar" transform="translate(351,302.73873873873873)"><rect x="1" width="11.999999999999996" height="7.261261261261268"></rect></g><g class="bar" transform="translate(364.00000000000006,301.06306306306305)"><rect x="1" width="11.999999999999996" height="8.936936936936945"></rect></g><g class="bar" transform="translate(377.00000000000006,307.76576576576576)"><rect x="1" width="11.999999999999996" height="2.2342342342342363"></rect></g><g class="bar" transform="translate(390,307.76576576576576)"><rect x="1" width="11.999999999999996" height="2.2342342342342363"></rect></g><g class="bar" transform="translate(403,310)"><rect x="1" width="11.999999999999996" height="0"></rect></g><g class="bar" transform="translate(416,308.8828828828829)"><rect x="1" width="11.999999999999996" height="1.1171171171171181"></rect></g><g class="bar" transform="translate(429.00000000000006,309.44144144144144)"><rect x="1" width="11.999999999999996" height="0.5585585585585591"></rect></g><g class="bar" transform="translate(442.00000000000006,310)"><rect x="1" width="11.999999999999996" height="0"></rect></g><g class="bar" transform="translate(455,310)"><rect x="1" width="11.999999999999996" height="0"></rect></g><g class="bar" transform="translate(468,310)"><rect x="1" width="11.999999999999996" height="0"></rect></g><g class="bar" transform="translate(481,310)"><rect x="1" width="11.999999999999996" height="0"></rect></g><g class="bar" transform="translate(494.00000000000006,310)"><rect x="1" width="11.999999999999996" height="0"></rect></g><g class="bar" transform="translate(507.00000000000006,310)"><rect x="1" width="11.999999999999996" height="0"></rect></g><g class="axis axis--x" transform="translate(0,310)" fill="none" font-size="10" font-family="sans-serif" text-anchor="middle"><path class="domain" stroke="#000" d="M0.5,6V0.5H520.5V6"></path><g class="tick" opacity="1" transform="translate(0.5,0)"><line stroke="#000" y2="6"></line><text fill="#000" y="9" dy="0.71em">0.01</text></g><g class="tick" opacity="1" transform="translate(130.5,0)"><line stroke="#000" y2="6"></line><text fill="#000" y="9" dy="0.71em">1</text></g><g class="tick" opacity="1" transform="translate(260.5,0)"><line stroke="#000" y2="6"></line><text fill="#000" y="9" dy="0.71em">100</text></g><g class="tick" opacity="1" transform="translate(390.5,0)"><line stroke="#000" y2="6"></line><text fill="#000" y="9" dy="0.71em">10000</text></g><g class="tick" opacity="1" transform="translate(520.5,0)"><line stroke="#000" y2="6"></line><text fill="#000" y="9" dy="0.71em"></text></g></g><g class="axis axis--y" fill="none" font-size="10" font-family="sans-serif" text-anchor="end"><path class="domain" stroke="#000" d="M-6,310.5H0.5V0.5H-6"></path><g class="tick" opacity="1" transform="translate(0,310.5)"><line stroke="#000" x2="-6"></line><text fill="#000" x="-9" dy="0.32em">0</text></g><g class="tick" opacity="1" transform="translate(0,282.57207207207205)"><line stroke="#000" x2="-6"></line><text fill="#000" x="-9" dy="0.32em">50</text></g><g class="tick" opacity="1" transform="translate(0,254.64414414414415)"><line stroke="#000" x2="-6"></line><text fill="#000" x="-9" dy="0.32em">100</text></g><g class="tick" opacity="1" transform="translate(0,226.7162162162162)"><line stroke="#000" x2="-6"></line><text fill="#000" x="-9" dy="0.32em">150</text></g><g class="tick" opacity="1" transform="translate(0,198.7882882882883)"><line stroke="#000" x2="-6"></line><text fill="#000" x="-9" dy="0.32em">200</text></g><g class="tick" opacity="1" transform="translate(0,170.86036036036035)"><line stroke="#000" x2="-6"></line><text fill="#000" x="-9" dy="0.32em">250</text></g><g class="tick" opacity="1" transform="translate(0,142.93243243243242)"><line stroke="#000" x2="-6"></line><text fill="#000" x="-9" dy="0.32em">300</text></g><g class="tick" opacity="1" transform="translate(0,115.0045045045045)"><line stroke="#000" x2="-6"></line><text fill="#000" x="-9" dy="0.32em">350</text></g><g class="tick" opacity="1" transform="translate(0,87.0765765765766)"><line stroke="#000" x2="-6"></line><text fill="#000" x="-9" dy="0.32em">400</text></g><g class="tick" opacity="1" transform="translate(0,59.148648648648646)"><line stroke="#000" x2="-6"></line><text fill="#000" x="-9" dy="0.32em">450</text></g><g class="tick" opacity="1" transform="translate(0,31.220720720720692)"><line stroke="#000" x2="-6"></line><text fill="#000" x="-9" dy="0.32em">500</text></g><g class="tick" opacity="1" transform="translate(0,3.2927927927927954)"><line stroke="#000" x2="-6"></line><text fill="#000" x="-9" dy="0.32em">550</text></g></g></g></svg>