<svg xmlns="http://www.w3.org/2000/svg" width="600" height="350"><defs><style type="text/css"><![CDATA[ 
.bar rect {
  fill-opacity: 0;
  stroke:       black;
  stroke-width: 0.5;
}

.highlight rect {
  fill:       red;
  fill-opacity: 1;
}
.axis path,
.axis line {
  fill: none;
  stroke: #000;
  shape-rendering: crispEdges;
}
 ]]></style></defs><g transform="translate(50,10)"><g class="bar" transform="translate(0,296.9890510948905)"><rect x="1" width="11.999999999999996" height="13.010948905109501"></rect></g><g class="bar" transform="translate(12.999999999999996,278.3211678832117)"><rect x="1" width="11.999999999999996" height="31.678832116788328"></rect></g><g class="bar" transform="translate(25.999999999999993,270.4014598540146)"><rect x="1" width="11.999999999999996" height="39.598540145985396"></rect></g><g class="bar" transform="translate(39.00000000000001,247.77372262773721)"><rect x="1" width="11.999999999999996" height="62.226277372262786"></rect></g><g class="bar" transform="translate(52,236.45985401459853)"><rect x="1" width="11.999999999999996" height="73.54014598540147"></rect></g><g class="bar" transform="translate(65,207.6094890510949)"><rect x="1" width="11.999999999999996" height="102.3905109489051"></rect></g><g class="bar" transform="translate(78.00000000000001,189.507299270073)"><rect x="1" width="11.999999999999996" height="120.49270072992701"></rect></g><g class="bar" transform="translate(91.00000000000001,133.5036496350365)"><rect x="1" width="11.999999999999996" height="176.4963503649635"></rect></g><g class="bar" transform="translate(104,95.6021897810219)"><rect x="1" width="11.999999999999996" height="214.3978102189781"></rect></g><g class="bar" transform="translate(117,44.68978102189777)"><rect x="1" width="11.999999999999996" height="265.3102189781022"></rect></g><g class="bar" transform="translate(130,37.335766423357654)"><rect x="1" width="11.999999999999996" height="272.66423357664235"></rect></g><g class="bar" transform="translate(143,37.901459854014604)"><rect x="1" width="11.999999999999996" height="272.0985401459854"></rect></g><g class="bar" transform="translate(156.00000000000003,54.30656934306569)"><rect x="1" width="11.999999999999996" height="255.6934306569343"></rect></g><g class="bar" transform="translate(169,55.43795620437953)"><rect x="1" width="11.999999999999996" height="254.56204379562047"></rect></g><g class="bar" transform="translate(182.00000000000003,32.24452554744522)"><rect x="1" width="11.999999999999996" height="277.7554744525548"></rect></g><g class="bar" transform="translate(195,45.25547445255478)"><rect x="1" width="11.999999999999996" height="264.7445255474452"></rect></g><g class="bar" transform="translate(208,35.07299270072991)"><rect x="1" width="11.999999999999996" height="274.9270072992701"></rect></g><g class="bar" transform="translate(221.00000000000003,51.478102189781055)"><rect x="1" width="11.999999999999996" height="258.52189781021895"></rect></g><g class="bar" transform="translate(234,35.07299270072991)"><rect x="1" width="11.999999999999996" height="274.9270072992701"></rect></g><g class="bar" transform="translate(247.00000000000003,0)"><rect x="1" width="11.999999999999996" height="310"></rect></g><g class="bar" transform="translate(260,46.952554744525514)"><rect x="1" width="11.999999999999996" height="263.0474452554745"></rect></g><g class="bar" transform="translate(273,84.85401459854018)"><rect x="1" width="11.999999999999996" height="225.14598540145982"></rect></g><g class="bar" transform="translate(286,174.23357664233575)"><rect x="1" width="11.999999999999996" height="135.76642335766425"></rect></g><g class="bar" transform="translate(299.00000000000006,213.26642335766422)"><rect x="1" width="11.999999999999996" height="96.73357664233578"></rect></g><g class="bar" transform="translate(312.00000000000006,233.63138686131387)"><rect x="1" width="11.999999999999996" height="76.36861313868613"></rect></g><g class="bar" transform="translate(325,258.521897810219)"><rect x="1" width="11.999999999999996" height="51.478102189781"></rect></g><g class="bar" transform="translate(338,281.7153284671533)"><rect x="1" width="11.999999999999996" height="28.284671532846687"></rect></g><g class="bar" transform="translate(351,299.25182481751824)"><rect x="1" width="11.999999999999996" height="10.74817518248176"></rect></g><g class="bar" transform="translate(364.00000000000006,299.8175182481752)"><rect x="1" width="11.999999999999996" height="10.18248175182481"></rect></g><g class="bar" transform="translate(377.00000000000006,304.3430656934307)"><rect x="1" width="11.999999999999996" height="5.656934306569326"></rect></g><g class="bar" transform="translate(390,307.73722627737226)"><rect x="1" width="11.999999999999996" height="2.262773722627742"></rect></g><g class="bar" transform="translate(403,310)"><rect x="1" width="11.999999999999996" height="0"></rect></g><g class="bar" transform="translate(416,310)"><rect x="1" width="11.999999999999996" height="0"></rect></g><g class="bar" transform="translate(429.00000000000006,310)"><rect x="1" width="11.999999999999996" height="0"></rect></g><g class="bar" transform="translate(442.00000000000006,310)"><rect x="1" width="11.999999999999996" height="0"></rect></g><g class="bar" transform="translate(455,310)"><rect x="1" width="11.999999999999996" height="0"></rect></g><g class="bar" transform="translate(468,310)"><rect x="1" width="11.999999999999996" height="0"></rect></g><g class="bar" transform="translate(481,310)"><rect x="1" width="11.999999999999996" height="0"></rect></g><g class="bar" transform="translate(494.00000000000006,310)"><rect x="1" width="11.999999999999996" height="0"></rect></g><g class="bar" transform="translate(507.00000000000006,310)"><rect x="1" width="11.999999999999996" height="0"></rect></g><g class="axis axis--x" transform="translate(0,310)" fill="none" font-size="10" font-family="sans-serif" text-anchor="middle"><path class="domain" stroke="#000" d="M0.5,6V0.5H520.5V6"></path><g class="tick" opacity="1" transform="translate(0,0)"><line stroke="#000" y2="6" x1="0.5" x2="0.5"></line><text fill="#000" y="9" x="0.5" dy="0.71em">0.01</text></g><g class="tick" opacity="1" transform="translate(130,0)"><line stroke="#000" y2="6" x1="0.5" x2="0.5"></line><text fill="#000" y="9" x="0.5" dy="0.71em">1</text></g><g class="tick" opacity="1" transform="translate(260,0)"><line stroke="#000" y2="6" x1="0.5" x2="0.5"></line><text fill="#000" y="9" x="0.5" dy="0.71em">100</text></g><g class="tick" opacity="1" transform="translate(390,0)"><line stroke="#000" y2="6" x1="0.5" x2="0.5"></line><text fill="#000" y="9" x="0.5" dy="0.71em">10000</text></g><g class="tick" opacity="1" transform="translate(520,0)"><line stroke="#000" y2="6" x1="0.5" x2="0.5"></line><text fill="#000" y="9" x="0.5" dy="0.71em"></text></g></g><g class="axis axis--y" fill="none" font-size="10" font-family="sans-serif" text-anchor="end"><path class="domain" stroke="#000" d="M-6,310.5H0.5V0.5H-6"></path><g class="tick" opacity="1" transform="translate(0,310)"><line stroke="#000" x2="-6" y1="0.5" y2="0.5"></line><text fill="#000" x="-9" y="0.5" dy="0.32em">0</text></g><g class="tick" opacity="1" transform="translate(0,281.7153284671533)"><line stroke="#000" x2="-6" y1="0.5" y2="0.5"></line><text fill="#000" x="-9" y="0.5" dy="0.32em">50</text></g><g class="tick" opacity="1" transform="translate(0,253.43065693430657)"><line stroke="#000" x2="-6" y1="0.5" y2="0.5"></line><text fill="#000" x="-9" y="0.5" dy="0.32em">100</text></g><g class="tick" opacity="1" transform="translate(0,225.14598540145985)"><line stroke="#000" x2="-6" y1="0.5" y2="0.5"></line><text fill="#000" x="-9" y="0.5" dy="0.32em">150</text></g><g class="tick" opacity="1" transform="translate(0,196.86131386861314)"><line stroke="#000" x2="-6" y1="0.5" y2="0.5"></line><text fill="#000" x="-9" y="0.5" dy="0.32em">200</text></g><g class="tick" opacity="1" transform="translate(0,168.57664233576642)"><line stroke="#000" x2="-6" y1="0.5" y2="0.5"></line><text fill="#000" x="-9" y="0.5" dy="0.32em">250</text></g><g class="tick" opacity="1" transform="translate(0,140.2919708029197)"><line stroke="#000" x2="-6" y1="0.5" y2="0.5"></line><text fill="#000" x="-9" y="0.5" dy="0.32em">300</text></g><g class="tick" opacity="1" transform="translate(0,112.00729927007296)"><line stroke="#000" x2="-6" y1="0.5" y2="0.5"></line><text fill="#000" x="-9" y="0.5" dy="0.32em">350</text></g><g class="tick" opacity="1" transform="translate(0,83.72262773722628)"><line stroke="#000" x2="-6" y1="0.5" y2="0.5"></line><text fill="#000" x="-9" y="0.5" dy="0.32em">400</text></g><g class="tick" opacity="1" transform="translate(0,55.43795620437953)"><line stroke="#000" x2="-6" y1="0.5" y2="0.5"></line><text fill="#000" x="-9" y="0.5" dy="0.32em">450</text></g><g class="tick" opacity="1" transform="translate(0,27.153284671532845)"><line stroke="#000" x2="-6" y1="0.5" y2="0.5"></line><text fill="#000" x="-9" y="0.5" dy="0.32em">500</text></g></g></g></svg>