<svg xmlns="http://www.w3.org/2000/svg" width="280" height="160"><defs><style type="text/css"><![CDATA[ 
.bar rect {
  fill-opacity: 0;
  stroke:       black;
  stroke-width: 0.5;
}

.highlight rect {
  fill:       red;
  fill-opacity: 1;
}
.axis path,
.axis line {
  fill: none;
  stroke: #000;
  shape-rendering: crispEdges;
}
path {
    stroke: red;
    fill: none;
}

line {
    stroke: red;
}

path.marker {
    fill: red;
}
 ]]></style></defs><g transform="translate(50,10)"><g class="bar" transform="translate(0,108.98823529411764)"><rect x="1" width="11.5" height="11.011764705882356"></rect></g><g class="bar" transform="translate(12.5,86.68235294117648)"><rect x="1" width="11.5" height="33.317647058823525"></rect></g><g class="bar" transform="translate(25,80.47058823529412)"><rect x="1" width="11.5" height="39.529411764705884"></rect></g><g class="bar" transform="translate(37.5,107.85882352941177)"><rect x="1" width="11.5" height="12.141176470588235"></rect></g><g class="bar" transform="translate(50,98.54117647058823)"><rect x="1" width="11.5" height="21.458823529411774"></rect></g><g class="bar" transform="translate(62.5,66.63529411764705)"><rect x="1" width="11.5" height="53.36470588235295"></rect></g><g class="bar" transform="translate(75,27.38823529411765)"><rect x="1" width="11.5" height="92.61176470588235"></rect></g><g class="bar" transform="translate(87.5,16.941176470588246)"><rect x="1" width="11.5" height="103.05882352941175"></rect></g><g class="bar" transform="translate(100,0)"><rect x="1" width="11.5" height="120"></rect></g><g class="bar" transform="translate(112.5,33.60000000000001)"><rect x="1" width="11.5" height="86.39999999999999"></rect></g><g class="bar" transform="translate(125,48.28235294117647)"><rect x="1" width="11.5" height="71.71764705882353"></rect></g><g class="bar" transform="translate(137.5,111.52941176470588)"><rect x="1" width="11.5" height="8.470588235294116"></rect></g><g class="bar" transform="translate(150,118.30588235294118)"><rect x="1" width="11.5" height="1.6941176470588175"></rect></g><g class="bar" transform="translate(162.5,120)"><rect x="1" width="11.5" height="0"></rect></g><g class="bar" transform="translate(175,120)"><rect x="1" width="11.5" height="0"></rect></g><g class="bar" transform="translate(187.5,120)"><rect x="1" width="11.5" height="0"></rect></g></g></svg>