<svg xmlns="http://www.w3.org/2000/svg" width="600" height="350"><defs><style type="text/css"><![CDATA[ 
.bar rect {
  fill-opacity: 0;
  stroke:       black;
  stroke-width: 0.5;
}

.highlight rect {
  fill:       red;
  fill-opacity: 1;
}
.axis path,
.axis line {
  fill: none;
  stroke: #000;
  shape-rendering: crispEdges;
}
 ]]></style></defs><g transform="translate(50,10)"><g class="bar" transform="translate(0,308.93835616438355)"><rect x="1" width="11.999999999999996" height="1.0616438356164508"></rect></g><g class="bar" transform="translate(12.999999999999996,301.5068493150685)"><rect x="1" width="11.999999999999996" height="8.493150684931493"></rect></g><g class="bar" transform="translate(25.999999999999993,302.56849315068496)"><rect x="1" width="11.999999999999996" height="7.431506849315042"></rect></g><g class="bar" transform="translate(39.00000000000001,297.26027397260276)"><rect x="1" width="11.999999999999996" height="12.73972602739724"></rect></g><g class="bar" transform="translate(52,278.1506849315069)"><rect x="1" width="11.999999999999996" height="31.849315068493127"></rect></g><g class="bar" transform="translate(65,280.2739726027397)"><rect x="1" width="11.999999999999996" height="29.72602739726028"></rect></g><g class="bar" transform="translate(78.00000000000001,272.8424657534247)"><rect x="1" width="11.999999999999996" height="37.157534246575324"></rect></g><g class="bar" transform="translate(91.00000000000001,232.5)"><rect x="1" width="11.999999999999996" height="77.5"></rect></g><g class="bar" transform="translate(104,216.57534246575344)"><rect x="1" width="11.999999999999996" height="93.42465753424656"></rect></g><g class="bar" transform="translate(117,185.78767123287673)"><rect x="1" width="11.999999999999996" height="124.21232876712327"></rect></g><g class="bar" transform="translate(130,111.47260273972603)"><rect x="1" width="11.999999999999996" height="198.52739726027397"></rect></g><g class="bar" transform="translate(143,94.48630136986301)"><rect x="1" width="11.999999999999996" height="215.513698630137"></rect></g><g class="bar" transform="translate(156.00000000000003,43.52739726027397)"><rect x="1" width="11.999999999999996" height="266.472602739726"></rect></g><g class="bar" transform="translate(169,65.82191780821915)"><rect x="1" width="11.999999999999996" height="244.17808219178085"></rect></g><g class="bar" transform="translate(182.00000000000003,10.616438356164394)"><rect x="1" width="11.999999999999996" height="299.3835616438356"></rect></g><g class="bar" transform="translate(195,0)"><rect x="1" width="11.999999999999996" height="310"></rect></g><g class="bar" transform="translate(208,25.479452054794535)"><rect x="1" width="11.999999999999996" height="284.52054794520546"></rect></g><g class="bar" transform="translate(221.00000000000003,23.356164383561634)"><rect x="1" width="11.999999999999996" height="286.64383561643837"></rect></g><g class="bar" transform="translate(234,26.541095890410986)"><rect x="1" width="11.999999999999996" height="283.458904109589"></rect></g><g class="bar" transform="translate(247.00000000000003,59.452054794520535)"><rect x="1" width="11.999999999999996" height="250.54794520547946"></rect></g><g class="bar" transform="translate(260,93.42465753424656)"><rect x="1" width="11.999999999999996" height="216.57534246575344"></rect></g><g class="bar" transform="translate(273,107.22602739726028)"><rect x="1" width="11.999999999999996" height="202.77397260273972"></rect></g><g class="bar" transform="translate(286,133.7671232876712)"><rect x="1" width="11.999999999999996" height="176.2328767123288"></rect></g><g class="bar" transform="translate(299.00000000000006,185.78767123287673)"><rect x="1" width="11.999999999999996" height="124.21232876712327"></rect></g><g class="bar" transform="translate(312.00000000000006,185.78767123287673)"><rect x="1" width="11.999999999999996" height="124.21232876712327"></rect></g><g class="bar" transform="translate(325,237.8082191780822)"><rect x="1" width="11.999999999999996" height="72.1917808219178"></rect></g><g class="bar" transform="translate(338,232.5)"><rect x="1" width="11.999999999999996" height="77.5"></rect></g><g class="bar" transform="translate(351,280.2739726027397)"><rect x="1" width="11.999999999999996" height="29.72602739726028"></rect></g><g class="bar" transform="translate(364.00000000000006,279.21232876712327)"><rect x="1" width="11.999999999999996" height="30.787671232876733"></rect></g><g class="bar" transform="translate(377.00000000000006,302.56849315068496)"><rect x="1" width="11.999999999999996" height="7.431506849315042"></rect></g><g class="bar" transform="translate(390,310)"><rect x="1" width="11.999999999999996" height="0"></rect></g><g class="bar" transform="translate(403,310)"><rect x="1" width="11.999999999999996" height="0"></rect></g><g class="bar" transform="translate(416,310)"><rect x="1" width="11.999999999999996" height="0"></rect></g><g class="bar" transform="translate(429.00000000000006,310)"><rect x="1" width="11.999999999999996" height="0"></rect></g><g class="bar" transform="translate(442.00000000000006,307.8767123287671)"><rect x="1" width="11.999999999999996" height="2.1232876712329016"></rect></g><g class="bar" transform="translate(455,310)"><rect x="1" width="11.999999999999996" height="0"></rect></g><g class="bar" transform="translate(468,310)"><rect x="1" width="11.999999999999996" height="0"></rect></g><g class="bar" transform="translate(481,310)"><rect x="1" width="11.999999999999996" height="0"></rect></g><g class="bar" transform="translate(494.00000000000006,310)"><rect x="1" width="11.999999999999996" height="0"></rect></g><g class="bar" transform="translate(507.00000000000006,310)"><rect x="1" width="11.999999999999996" height="0"></rect></g><g class="axis axis--x" transform="translate(0,310)" fill="none" font-size="10" font-family="sans-serif" text-anchor="middle"><path class="domain" stroke="#000" d="M0.5,6V0.5H520.5V6"></path><g class="tick" opacity="1" transform="translate(0,0)"><line stroke="#000" y2="6" x1="0.5" x2="0.5"></line><text fill="#000" y="9" x="0.5" dy="0.71em">0.01</text></g><g class="tick" opacity="1" transform="translate(130,0)"><line stroke="#000" y2="6" x1="0.5" x2="0.5"></line><text fill="#000" y="9" x="0.5" dy="0.71em">1</text></g><g class="tick" opacity="1" transform="translate(260,0)"><line stroke="#000" y2="6" x1="0.5" x2="0.5"></line><text fill="#000" y="9" x="0.5" dy="0.71em">100</text></g><g class="tick" opacity="1" transform="translate(390,0)"><line stroke="#000" y2="6" x1="0.5" x2="0.5"></line><text fill="#000" y="9" x="0.5" dy="0.71em">10000</text></g><g class="tick" opacity="1" transform="translate(520,0)"><line stroke="#000" y2="6" x1="0.5" x2="0.5"></line><text fill="#000" y="9" x="0.5" dy="0.71em"></text></g></g><g class="axis axis--y" fill="none" font-size="10" font-family="sans-serif" text-anchor="end"><path class="domain" stroke="#000" d="M-6,310.5H0.5V0.5H-6"></path><g class="tick" opacity="1" transform="translate(0,310)"><line stroke="#000" x2="-6" y1="0.5" y2="0.5"></line><text fill="#000" x="-9" y="0.5" dy="0.32em">0</text></g><g class="tick" opacity="1" transform="translate(0,288.7671232876712)"><line stroke="#000" x2="-6" y1="0.5" y2="0.5"></line><text fill="#000" x="-9" y="0.5" dy="0.32em">20</text></g><g class="tick" opacity="1" transform="translate(0,267.5342465753425)"><line stroke="#000" x2="-6" y1="0.5" y2="0.5"></line><text fill="#000" x="-9" y="0.5" dy="0.32em">40</text></g><g class="tick" opacity="1" transform="translate(0,246.3013698630137)"><line stroke="#000" x2="-6" y1="0.5" y2="0.5"></line><text fill="#000" x="-9" y="0.5" dy="0.32em">60</text></g><g class="tick" opacity="1" transform="translate(0,225.06849315068493)"><line stroke="#000" x2="-6" y1="0.5" y2="0.5"></line><text fill="#000" x="-9" y="0.5" dy="0.32em">80</text></g><g class="tick" opacity="1" transform="translate(0,203.83561643835617)"><line stroke="#000" x2="-6" y1="0.5" y2="0.5"></line><text fill="#000" x="-9" y="0.5" dy="0.32em">100</text></g><g class="tick" opacity="1" transform="translate(0,182.6027397260274)"><line stroke="#000" x2="-6" y1="0.5" y2="0.5"></line><text fill="#000" x="-9" y="0.5" dy="0.32em">120</text></g><g class="tick" opacity="1" transform="translate(0,161.36986301369865)"><line stroke="#000" x2="-6" y1="0.5" y2="0.5"></line><text fill="#000" x="-9" y="0.5" dy="0.32em">140</text></g><g class="tick" opacity="1" transform="translate(0,140.13698630136986)"><line stroke="#000" x2="-6" y1="0.5" y2="0.5"></line><text fill="#000" x="-9" y="0.5" dy="0.32em">160</text></g><g class="tick" opacity="1" transform="translate(0,118.9041095890411)"><line stroke="#000" x2="-6" y1="0.5" y2="0.5"></line><text fill="#000" x="-9" y="0.5" dy="0.32em">180</text></g><g class="tick" opacity="1" transform="translate(0,97.67123287671234)"><line stroke="#000" x2="-6" y1="0.5" y2="0.5"></line><text fill="#000" x="-9" y="0.5" dy="0.32em">200</text></g><g class="tick" opacity="1" transform="translate(0,76.43835616438355)"><line stroke="#000" x2="-6" y1="0.5" y2="0.5"></line><text fill="#000" x="-9" y="0.5" dy="0.32em">220</text></g><g class="tick" opacity="1" transform="translate(0,55.20547945205482)"><line stroke="#000" x2="-6" y1="0.5" y2="0.5"></line><text fill="#000" x="-9" y="0.5" dy="0.32em">240</text></g><g class="tick" opacity="1" transform="translate(0,33.97260273972603)"><line stroke="#000" x2="-6" y1="0.5" y2="0.5"></line><text fill="#000" x="-9" y="0.5" dy="0.32em">260</text></g><g class="tick" opacity="1" transform="translate(0,12.739726027397296)"><line stroke="#000" x2="-6" y1="0.5" y2="0.5"></line><text fill="#000" x="-9" y="0.5" dy="0.32em">280</text></g></g></g></svg>