<svg xmlns="http://www.w3.org/2000/svg" width="600" height="350"><defs><style type="text/css"><![CDATA[ 
.bar rect {
  fill-opacity: 0;
  stroke:       black;
  stroke-width: 0.5;
}

.highlight rect {
  fill:       red;
  fill-opacity: 1;
}
.axis path,
.axis line {
  fill: none;
  stroke: #000;
  shape-rendering: crispEdges;
}
path {
    stroke: red;
    fill: none;
}

line {
    stroke: red;
}

path.marker {
    fill: red;
}
 ]]></style></defs><g transform="translate(50,10)"><g class="bar" transform="translate(0,310)"><rect x="1" width="11.999999999999996" height="0"></rect></g><g class="bar" transform="translate(12.999999999999996,308.268156424581)"><rect x="1" width="11.999999999999996" height="1.7318435754190205"></rect></g><g class="bar" transform="translate(25.999999999999993,303.64990689013035)"><rect x="1" width="11.999999999999996" height="6.350093109869647"></rect></g><g class="bar" transform="translate(39.00000000000001,282.8677839851024)"><rect x="1" width="11.999999999999996" height="27.132216014897608"></rect></g><g class="bar" transform="translate(52,272.47672253258844)"><rect x="1" width="11.999999999999996" height="37.52327746741156"></rect></g><g class="bar" transform="translate(65,256.8901303538175)"><rect x="1" width="11.999999999999996" height="53.10986964618252"></rect></g><g class="bar" transform="translate(78.00000000000001,242.45810055865923)"><rect x="1" width="11.999999999999996" height="67.54189944134077"></rect></g><g class="bar" transform="translate(91.00000000000001,231.48975791433892)"><rect x="1" width="11.999999999999996" height="78.51024208566108"></rect></g><g class="bar" transform="translate(104,200.316573556797)"><rect x="1" width="11.999999999999996" height="109.68342644320299"></rect></g><g class="bar" transform="translate(117,195.69832402234636)"><rect x="1" width="11.999999999999996" height="114.30167597765364"></rect></g><g class="bar" transform="translate(130,210.13035381750467)"><rect x="1" width="11.999999999999996" height="99.86964618249533"></rect></g><g class="bar" transform="translate(143,202.62569832402232)"><rect x="1" width="11.999999999999996" height="107.37430167597768"></rect></g><g class="bar" transform="translate(156.00000000000003,199.7392923649907)"><rect x="1" width="11.999999999999996" height="110.26070763500931"></rect></g><g class="bar" transform="translate(169,159.90689013035382)"><rect x="1" width="11.999999999999996" height="150.09310986964618"></rect></g><g class="bar" transform="translate(182.00000000000003,104.48789571694601)"><rect x="1" width="11.999999999999996" height="205.512104283054"></rect></g><g class="bar" transform="translate(195,105.0651769087523)"><rect x="1" width="11.999999999999996" height="204.9348230912477"></rect></g><g class="bar" transform="translate(208,78.51024208566108)"><rect x="1" width="11.999999999999996" height="231.48975791433892"></rect></g><g class="bar" transform="translate(221.00000000000003,62.92364990689012)"><rect x="1" width="11.999999999999996" height="247.07635009310988"></rect></g><g class="bar" transform="translate(234,9.23649906890131)"><rect x="1" width="11.999999999999996" height="300.7635009310987"></rect></g><g class="bar" transform="translate(247.00000000000003,27.13221601489755)"><rect x="1" width="11.999999999999996" height="282.86778398510245"></rect></g><g class="bar" transform="translate(260,0)"><rect x="1" width="11.999999999999996" height="310"></rect></g><g class="bar" transform="translate(273,49.068901303538155)"><rect x="1" width="11.999999999999996" height="260.93109869646185"></rect></g><g class="bar" transform="translate(286,104.48789571694601)"><rect x="1" width="11.999999999999996" height="205.512104283054"></rect></g><g class="bar" transform="translate(299.00000000000006,150.09310986964618)"><rect x="1" width="11.999999999999996" height="159.90689013035382"></rect></g><g class="bar" transform="translate(312.00000000000006,205.51210428305401)"><rect x="1" width="11.999999999999996" height="104.48789571694599"></rect></g><g class="bar" transform="translate(325,266.70391061452517)"><rect x="1" width="11.999999999999996" height="43.29608938547483"></rect></g><g class="bar" transform="translate(338,290.94972067039106)"><rect x="1" width="11.999999999999996" height="19.05027932960894"></rect></g><g class="bar" transform="translate(351,297.877094972067)"><rect x="1" width="11.999999999999996" height="12.122905027932973"></rect></g><g class="bar" transform="translate(364.00000000000006,303.07262569832403)"><rect x="1" width="11.999999999999996" height="6.927374301675968"></rect></g><g class="bar" transform="translate(377.00000000000006,307.69087523277466)"><rect x="1" width="11.999999999999996" height="2.3091247672253417"></rect></g><g class="bar" transform="translate(390,308.268156424581)"><rect x="1" width="11.999999999999996" height="1.7318435754190205"></rect></g><g class="bar" transform="translate(403,310)"><rect x="1" width="11.999999999999996" height="0"></rect></g><g class="bar" transform="translate(416,310)"><rect x="1" width="11.999999999999996" height="0"></rect></g><g class="bar" transform="translate(429.00000000000006,310)"><rect x="1" width="11.999999999999996" height="0"></rect></g><g class="bar" transform="translate(442.00000000000006,310)"><rect x="1" width="11.999999999999996" height="0"></rect></g><g class="bar" transform="translate(455,310)"><rect x="1" width="11.999999999999996" height="0"></rect></g><g class="bar" transform="translate(468,310)"><rect x="1" width="11.999999999999996" height="0"></rect></g><g class="bar" transform="translate(481,310)"><rect x="1" width="11.999999999999996" height="0"></rect></g><g class="bar" transform="translate(494.00000000000006,310)"><rect x="1" width="11.999999999999996" height="0"></rect></g><g class="bar" transform="translate(507.00000000000006,310)"><rect x="1" width="11.999999999999996" height="0"></rect></g><g class="axis axis--x" transform="translate(0,310)" fill="none" font-size="10" font-family="sans-serif" text-anchor="middle"><path class="domain" stroke="#000" d="M0.5,6V0.5H520.5V6"></path><g class="tick" opacity="1" transform="translate(0.5,0)"><line stroke="#000" y2="6"></line><text fill="#000" y="9" dy="0.71em">0.01</text></g><g class="tick" opacity="1" transform="translate(130.5,0)"><line stroke="#000" y2="6"></line><text fill="#000" y="9" dy="0.71em">1</text></g><g class="tick" opacity="1" transform="translate(260.5,0)"><line stroke="#000" y2="6"></line><text fill="#000" y="9" dy="0.71em">100</text></g><g class="tick" opacity="1" transform="translate(390.5,0)"><line stroke="#000" y2="6"></line><text fill="#000" y="9" dy="0.71em">10000</text></g><g class="tick" opacity="1" transform="translate(520.5,0)"><line stroke="#000" y2="6"></line><text fill="#000" y="9" dy="0.71em"></text></g></g><g class="axis axis--y" fill="none" font-size="10" font-family="sans-serif" text-anchor="end"><path class="domain" stroke="#000" d="M-6,310.5H0.5V0.5H-6"></path><g class="tick" opacity="1" transform="translate(0,310.5)"><line stroke="#000" x2="-6"></line><text fill="#000" x="-9" dy="0.32em">0</text></g><g class="tick" opacity="1" transform="translate(0,281.6359404096834)"><line stroke="#000" x2="-6"></line><text fill="#000" x="-9" dy="0.32em">50</text></g><g class="tick" opacity="1" transform="translate(0,252.77188081936686)"><line stroke="#000" x2="-6"></line><text fill="#000" x="-9" dy="0.32em">100</text></g><g class="tick" opacity="1" transform="translate(0,223.90782122905028)"><line stroke="#000" x2="-6"></line><text fill="#000" x="-9" dy="0.32em">150</text></g><g class="tick" opacity="1" transform="translate(0,195.0437616387337)"><line stroke="#000" x2="-6"></line><text fill="#000" x="-9" dy="0.32em">200</text></g><g class="tick" opacity="1" transform="translate(0,166.17970204841714)"><line stroke="#000" x2="-6"></line><text fill="#000" x="-9" dy="0.32em">250</text></g><g class="tick" opacity="1" transform="translate(0,137.31564245810057)"><line stroke="#000" x2="-6"></line><text fill="#000" x="-9" dy="0.32em">300</text></g><g class="tick" opacity="1" transform="translate(0,108.451582867784)"><line stroke="#000" x2="-6"></line><text fill="#000" x="-9" dy="0.32em">350</text></g><g class="tick" opacity="1" transform="translate(0,79.58752327746743)"><line stroke="#000" x2="-6"></line><text fill="#000" x="-9" dy="0.32em">400</text></g><g class="tick" opacity="1" transform="translate(0,50.723463687150854)"><line stroke="#000" x2="-6"></line><text fill="#000" x="-9" dy="0.32em">450</text></g><g class="tick" opacity="1" transform="translate(0,21.859404096834282)"><line stroke="#000" x2="-6"></line><text fill="#000" x="-9" dy="0.32em">500</text></g></g></g></svg>