<svg xmlns="http://www.w3.org/2000/svg" width="280" height="160"><defs><style type="text/css"><![CDATA[ 
.bar rect {
  fill-opacity: 0;
  stroke:       black;
  stroke-width: 0.5;
}

.highlight rect {
  fill:       red;
  fill-opacity: 1;
}
.axis path,
.axis line {
  fill: none;
  stroke: #000;
  shape-rendering: crispEdges;
}
path {
    stroke: red;
    fill: none;
}

line {
    stroke: red;
}

path.marker {
    fill: red;
}
 ]]></style></defs><g transform="translate(50,10)"><g class="bar" transform="translate(0,116.5832614322692)"><rect x="1" width="11.5" height="3.4167385677308033"></rect></g><g class="bar" transform="translate(12.5,106.43658326143228)"><rect x="1" width="11.5" height="13.563416738567724"></rect></g><g class="bar" transform="translate(25,80.24158757549611)"><rect x="1" width="11.5" height="39.75841242450389"></rect></g><g class="bar" transform="translate(37.5,66.5746333045729)"><rect x="1" width="11.5" height="53.4253666954271"></rect></g><g class="bar" transform="translate(50,46.69542709232097)"><rect x="1" width="11.5" height="73.30457290767903"></rect></g><g class="bar" transform="translate(62.5,22.053494391716995)"><rect x="1" width="11.5" height="97.946505608283"></rect></g><g class="bar" transform="translate(75,4.037963761863679)"><rect x="1" width="11.5" height="115.96203623813632"></rect></g><g class="bar" transform="translate(87.5,0)"><rect x="1" width="11.5" height="120"></rect></g><g class="bar" transform="translate(100,24.124245038826572)"><rect x="1" width="11.5" height="95.87575496117343"></rect></g><g class="bar" transform="translate(112.5,64.81449525452976)"><rect x="1" width="11.5" height="55.18550474547024"></rect></g><g class="bar" transform="translate(125,103.64106988783433)"><rect x="1" width="11.5" height="16.358930112165666"></rect></g><g class="bar" transform="translate(137.5,118.13632441760139)"><rect x="1" width="11.5" height="1.8636755823986135"></rect></g><g class="bar" transform="translate(150,119.58584987057809)"><rect x="1" width="11.5" height="0.41415012942191254"></rect></g><g class="bar" transform="translate(162.5,120)"><rect x="1" width="11.5" height="0"></rect></g><g class="bar" transform="translate(175,120)"><rect x="1" width="11.5" height="0"></rect></g><g class="bar" transform="translate(187.5,120)"><rect x="1" width="11.5" height="0"></rect></g></g></svg>