<svg xmlns="http://www.w3.org/2000/svg" width="600" height="350"><defs><style type="text/css"><![CDATA[ 
.bar rect {
  fill-opacity: 0;
  stroke:       black;
  stroke-width: 0.5;
}

.highlight rect {
  fill:       red;
  fill-opacity: 1;
}
.axis path,
.axis line {
  fill: none;
  stroke: #000;
  shape-rendering: crispEdges;
}
 ]]></style></defs><g transform="translate(50,10)"><g class="bar" transform="translate(0,310)"><rect x="1" width="2.2500000000000027" height="0"></rect></g><g class="bar" transform="translate(3.2500000000000027,310)"><rect x="1" width="2.2500000000000027" height="0"></rect></g><g class="bar" transform="translate(6.500000000000005,310)"><rect x="1" width="2.2500000000000027" height="0"></rect></g><g class="bar" transform="translate(9.749999999999995,310)"><rect x="1" width="2.2500000000000027" height="0"></rect></g><g class="bar" transform="translate(12.999999999999996,310)"><rect x="1" width="2.2500000000000027" height="0"></rect></g><g class="bar" transform="translate(16.25,310)"><rect x="1" width="2.2500000000000027" height="0"></rect></g><g class="bar" transform="translate(19.500000000000004,310)"><rect x="1" width="2.2500000000000027" height="0"></rect></g><g class="bar" transform="translate(22.750000000000007,310)"><rect x="1" width="2.2500000000000027" height="0"></rect></g><g class="bar" transform="translate(25.999999999999993,310)"><rect x="1" width="2.2500000000000027" height="0"></rect></g><g class="bar" transform="translate(29.249999999999996,310)"><rect x="1" width="2.2500000000000027" height="0"></rect></g><g class="bar" transform="translate(32.5,310)"><rect x="1" width="2.2500000000000027" height="0"></rect></g><g class="bar" transform="translate(35.75,310)"><rect x="1" width="2.2500000000000027" height="0"></rect></g><g class="bar" transform="translate(39.00000000000001,310)"><rect x="1" width="2.2500000000000027" height="0"></rect></g><g class="bar" transform="translate(42.24999999999999,310)"><rect x="1" width="2.2500000000000027" height="0"></rect></g><g class="bar" transform="translate(45.500000000000014,310)"><rect x="1" width="2.2500000000000027" height="0"></rect></g><g class="bar" transform="translate(48.75,310)"><rect x="1" width="2.2500000000000027" height="0"></rect></g><g class="bar" transform="translate(52,310)"><rect x="1" width="2.2500000000000027" height="0"></rect></g><g class="bar" transform="translate(55.25000000000001,310)"><rect x="1" width="2.2500000000000027" height="0"></rect></g><g class="bar" transform="translate(58.49999999999999,310)"><rect x="1" width="2.2500000000000027" height="0"></rect></g><g class="bar" transform="translate(61.750000000000014,310)"><rect x="1" width="2.2500000000000027" height="0"></rect></g><g class="bar" transform="translate(65,310)"><rect x="1" width="2.2500000000000027" height="0"></rect></g><g class="bar" transform="translate(68.25,310)"><rect x="1" width="2.2500000000000027" height="0"></rect></g><g class="bar" transform="translate(71.5,310)"><rect x="1" width="2.2500000000000027" height="0"></rect></g><g class="bar" transform="translate(74.75000000000001,310)"><rect x="1" width="2.2500000000000027" height="0"></rect></g><g class="bar" transform="translate(78.00000000000001,310)"><rect x="1" width="2.2500000000000027" height="0"></rect></g><g class="bar" transform="translate(81.25,310)"><rect x="1" width="2.2500000000000027" height="0"></rect></g><g class="bar" transform="translate(84.5,310)"><rect x="1" width="2.2500000000000027" height="0"></rect></g><g class="bar" transform="translate(87.75,310)"><rect x="1" width="2.2500000000000027" height="0"></rect></g><g class="bar" transform="translate(91.00000000000001,310)"><rect x="1" width="2.2500000000000027" height="0"></rect></g><g class="bar" transform="translate(94.25000000000001,310)"><rect x="1" width="2.2500000000000027" height="0"></rect></g><g class="bar" transform="translate(97.5,310)"><rect x="1" width="2.2500000000000027" height="0"></rect></g><g class="bar" transform="translate(100.75,310)"><rect x="1" width="2.2500000000000027" height="0"></rect></g><g class="bar" transform="translate(104,310)"><rect x="1" width="2.2500000000000027" height="0"></rect></g><g class="bar" transform="translate(107.25000000000001,310)"><rect x="1" width="2.2500000000000027" height="0"></rect></g><g class="bar" transform="translate(110.50000000000001,310)"><rect x="1" width="2.2500000000000027" height="0"></rect></g><g class="bar" transform="translate(113.75,310)"><rect x="1" width="2.2500000000000027" height="0"></rect></g><g class="bar" transform="translate(117,310)"><rect x="1" width="2.2500000000000027" height="0"></rect></g><g class="bar" transform="translate(120.25,310)"><rect x="1" width="2.2500000000000027" height="0"></rect></g><g class="bar" transform="translate(123.50000000000001,310)"><rect x="1" width="2.2500000000000027" height="0"></rect></g><g class="bar" transform="translate(126.75000000000001,310)"><rect x="1" width="2.2500000000000027" height="0"></rect></g><g class="bar" transform="translate(130,310)"><rect x="1" width="2.2500000000000027" height="0"></rect></g><g class="bar" transform="translate(133.25000000000003,310)"><rect x="1" width="2.2500000000000027" height="0"></rect></g><g class="bar" transform="translate(136.5,310)"><rect x="1" width="2.2500000000000027" height="0"></rect></g><g class="bar" transform="translate(139.75,310)"><rect x="1" width="2.2500000000000027" height="0"></rect></g><g class="bar" transform="translate(143,310)"><rect x="1" width="2.2500000000000027" height="0"></rect></g><g class="bar" transform="translate(146.25,310)"><rect x="1" width="2.2500000000000027" height="0"></rect></g><g class="bar" transform="translate(149.50000000000003,310)"><rect x="1" width="2.2500000000000027" height="0"></rect></g><g class="bar" transform="translate(152.75,310)"><rect x="1" width="2.2500000000000027" height="0"></rect></g><g class="bar" transform="translate(156.00000000000003,310)"><rect x="1" width="2.2500000000000027" height="0"></rect></g><g class="bar" transform="translate(159.25,310)"><rect x="1" width="2.2500000000000027" height="0"></rect></g><g class="bar" transform="translate(162.5,310)"><rect x="1" width="2.2500000000000027" height="0"></rect></g><g class="bar" transform="translate(165.75000000000003,310)"><rect x="1" width="2.2500000000000027" height="0"></rect></g><g class="bar" transform="translate(169,307.0134874759152)"><rect x="1" width="2.2500000000000027" height="2.9865125240847874"></rect></g><g class="bar" transform="translate(172.25000000000003,310)"><rect x="1" width="2.2500000000000027" height="0"></rect></g><g class="bar" transform="translate(175.5,310)"><rect x="1" width="2.2500000000000027" height="0"></rect></g><g class="bar" transform="translate(178.75,310)"><rect x="1" width="2.2500000000000027" height="0"></rect></g><g class="bar" transform="translate(182.00000000000003,310)"><rect x="1" width="2.2500000000000027" height="0"></rect></g><g class="bar" transform="translate(185.25,309.402697495183)"><rect x="1" width="2.2500000000000027" height="0.5973025048169802"></rect></g><g class="bar" transform="translate(188.50000000000003,310)"><rect x="1" width="2.2500000000000027" height="0"></rect></g><g class="bar" transform="translate(191.75,310)"><rect x="1" width="2.2500000000000027" height="0"></rect></g><g class="bar" transform="translate(195,307.3121387283237)"><rect x="1" width="2.2500000000000027" height="2.6878612716762973"></rect></g><g class="bar" transform="translate(198.25000000000003,310)"><rect x="1" width="2.2500000000000027" height="0"></rect></g><g class="bar" transform="translate(201.5,310)"><rect x="1" width="2.2500000000000027" height="0"></rect></g><g class="bar" transform="translate(204.75000000000003,310)"><rect x="1" width="2.2500000000000027" height="0"></rect></g><g class="bar" transform="translate(208,305.22157996146433)"><rect x="1" width="2.2500000000000027" height="4.778420038535671"></rect></g><g class="bar" transform="translate(211.25,301.04046242774564)"><rect x="1" width="2.2500000000000027" height="8.959537572254362"></rect></g><g class="bar" transform="translate(214.50000000000003,305.5202312138728)"><rect x="1" width="2.2500000000000027" height="4.479768786127181"></rect></g><g class="bar" transform="translate(217.75,298.65125240847783)"><rect x="1" width="2.2500000000000027" height="11.34874759152217"></rect></g><g class="bar" transform="translate(221.00000000000003,301.3391136801541)"><rect x="1" width="2.2500000000000027" height="8.660886319845872"></rect></g><g class="bar" transform="translate(224.25,301.6377649325626)"><rect x="1" width="2.2500000000000027" height="8.362235067437382"></rect></g><g class="bar" transform="translate(227.5,289.39306358381504)"><rect x="1" width="2.2500000000000027" height="20.606936416184965"></rect></g><g class="bar" transform="translate(230.75000000000003,266.39691714836226)"><rect x="1" width="2.2500000000000027" height="43.60308285163774"></rect></g><g class="bar" transform="translate(234,236.53179190751445)"><rect x="1" width="2.2500000000000027" height="73.46820809248555"></rect></g><g class="bar" transform="translate(237.25000000000003,219.50867052023122)"><rect x="1" width="2.2500000000000027" height="90.49132947976878"></rect></g><g class="bar" transform="translate(240.5,210.5491329479769)"><rect x="1" width="2.2500000000000027" height="99.45086705202311"></rect></g><g class="bar" transform="translate(243.75,247.28323699421964)"><rect x="1" width="2.2500000000000027" height="62.716763005780365"></rect></g><g class="bar" transform="translate(247.00000000000003,275.65510597302506)"><rect x="1" width="2.2500000000000027" height="34.34489402697494"></rect></g><g class="bar" transform="translate(250.25,288.4971098265896)"><rect x="1" width="2.2500000000000027" height="21.50289017341038"></rect></g><g class="bar" transform="translate(253.50000000000003,260.4238921001927)"><rect x="1" width="2.2500000000000027" height="49.57610789980731"></rect></g><g class="bar" transform="translate(256.75,210.5491329479769)"><rect x="1" width="2.2500000000000027" height="99.45086705202311"></rect></g><g class="bar" transform="translate(260,179.4894026974952)"><rect x="1" width="2.2500000000000027" height="130.5105973025048"></rect></g><g class="bar" transform="translate(263.25,220.40462427745663)"><rect x="1" width="2.2500000000000027" height="89.59537572254337"></rect></g><g class="bar" transform="translate(266.50000000000006,238.62235067437382)"><rect x="1" width="2.2500000000000027" height="71.37764932562618"></rect></g><g class="bar" transform="translate(269.75,182.1772639691715)"><rect x="1" width="2.2500000000000027" height="127.82273603082851"></rect></g><g class="bar" transform="translate(273,82.42774566473989)"><rect x="1" width="2.2500000000000027" height="227.5722543352601"></rect></g><g class="bar" transform="translate(276.25,0)"><rect x="1" width="2.2500000000000027" height="310"></rect></g><g class="bar" transform="translate(279.5,24.788053949903656)"><rect x="1" width="2.2500000000000027" height="285.21194605009634"></rect></g><g class="bar" transform="translate(282.75000000000006,163.66088631984584)"><rect x="1" width="2.2500000000000027" height="146.33911368015416"></rect></g><g class="bar" transform="translate(286,278.34296724470136)"><rect x="1" width="2.2500000000000027" height="31.657032755298644"></rect></g><g class="bar" transform="translate(289.25,300.7418111753372)"><rect x="1" width="2.2500000000000027" height="9.258188824662795"></rect></g><g class="bar" transform="translate(292.5,302.8323699421965)"><rect x="1" width="2.2500000000000027" height="7.167630057803478"></rect></g><g class="bar" transform="translate(295.75,305.8188824662813)"><rect x="1" width="2.2500000000000027" height="4.181117533718691"></rect></g><g class="bar" transform="translate(299.00000000000006,306.4161849710983)"><rect x="1" width="2.2500000000000027" height="3.5838150289017108"></rect></g><g class="bar" transform="translate(302.25,309.402697495183)"><rect x="1" width="2.2500000000000027" height="0.5973025048169802"></rect></g><g class="bar" transform="translate(305.5,310)"><rect x="1" width="2.2500000000000027" height="0"></rect></g><g class="bar" transform="translate(308.75,309.7013487475915)"><rect x="1" width="2.2500000000000027" height="0.2986512524084901"></rect></g><g class="bar" transform="translate(312.00000000000006,310)"><rect x="1" width="2.2500000000000027" height="0"></rect></g><g class="bar" transform="translate(315.25000000000006,310)"><rect x="1" width="2.2500000000000027" height="0"></rect></g><g class="bar" transform="translate(318.5,310)"><rect x="1" width="2.2500000000000027" height="0"></rect></g><g class="bar" transform="translate(321.75,310)"><rect x="1" width="2.2500000000000027" height="0"></rect></g><g class="bar" transform="translate(325,310)"><rect x="1" width="2.2500000000000027" height="0"></rect></g><g class="bar" transform="translate(328.25000000000006,310)"><rect x="1" width="2.2500000000000027" height="0"></rect></g><g class="bar" transform="translate(331.50000000000006,310)"><rect x="1" width="2.2500000000000027" height="0"></rect></g><g class="bar" transform="translate(334.75,310)"><rect x="1" width="2.2500000000000027" height="0"></rect></g><g class="bar" transform="translate(338,310)"><rect x="1" width="2.2500000000000027" height="0"></rect></g><g class="bar" transform="translate(341.25,310)"><rect x="1" width="2.2500000000000027" height="0"></rect></g><g class="bar" transform="translate(344.50000000000006,310)"><rect x="1" width="2.2500000000000027" height="0"></rect></g><g class="bar" transform="translate(347.75000000000006,310)"><rect x="1" width="2.2500000000000027" height="0"></rect></g><g class="bar" transform="translate(351,310)"><rect x="1" width="2.2500000000000027" height="0"></rect></g><g class="bar" transform="translate(354.25,310)"><rect x="1" width="2.2500000000000027" height="0"></rect></g><g class="bar" transform="translate(357.5,310)"><rect x="1" width="2.2500000000000027" height="0"></rect></g><g class="bar" transform="translate(360.75000000000006,310)"><rect x="1" width="2.2500000000000027" height="0"></rect></g><g class="bar" transform="translate(364.00000000000006,310)"><rect x="1" width="2.2500000000000027" height="0"></rect></g><g class="bar" transform="translate(367.25,310)"><rect x="1" width="2.2500000000000027" height="0"></rect></g><g class="bar" transform="translate(370.5,310)"><rect x="1" width="2.2500000000000027" height="0"></rect></g><g class="bar" transform="translate(373.75,310)"><rect x="1" width="2.2500000000000027" height="0"></rect></g><g class="bar" transform="translate(377.00000000000006,310)"><rect x="1" width="2.2500000000000027" height="0"></rect></g><g class="bar" transform="translate(380.25000000000006,310)"><rect x="1" width="2.2500000000000027" height="0"></rect></g><g class="bar" transform="translate(383.5,310)"><rect x="1" width="2.2500000000000027" height="0"></rect></g><g class="bar" transform="translate(386.75,310)"><rect x="1" width="2.2500000000000027" height="0"></rect></g><g class="bar" transform="translate(390,310)"><rect x="1" width="2.2500000000000027" height="0"></rect></g><g class="bar" transform="translate(393.25000000000006,310)"><rect x="1" width="2.2500000000000027" height="0"></rect></g><g class="bar" transform="translate(396.50000000000006,310)"><rect x="1" width="2.2500000000000027" height="0"></rect></g><g class="bar" transform="translate(399.75,310)"><rect x="1" width="2.2500000000000027" height="0"></rect></g><g class="bar" transform="translate(403,310)"><rect x="1" width="2.2500000000000027" height="0"></rect></g><g class="bar" transform="translate(406.25,310)"><rect x="1" width="2.2500000000000027" height="0"></rect></g><g class="bar" transform="translate(409.50000000000006,310)"><rect x="1" width="2.2500000000000027" height="0"></rect></g><g class="bar" transform="translate(412.75000000000006,310)"><rect x="1" width="2.2500000000000027" height="0"></rect></g><g class="bar" transform="translate(416,310)"><rect x="1" width="2.2500000000000027" height="0"></rect></g><g class="bar" transform="translate(419.25,310)"><rect x="1" width="2.2500000000000027" height="0"></rect></g><g class="bar" transform="translate(422.5,310)"><rect x="1" width="2.2500000000000027" height="0"></rect></g><g class="bar" transform="translate(425.75000000000006,310)"><rect x="1" width="2.2500000000000027" height="0"></rect></g><g class="bar" transform="translate(429.00000000000006,310)"><rect x="1" width="2.2500000000000027" height="0"></rect></g><g class="bar" transform="translate(432.25,310)"><rect x="1" width="2.2500000000000027" height="0"></rect></g><g class="bar" transform="translate(435.5,310)"><rect x="1" width="2.2500000000000027" height="0"></rect></g><g class="bar" transform="translate(438.75,310)"><rect x="1" width="2.2500000000000027" height="0"></rect></g><g class="bar" transform="translate(442.00000000000006,310)"><rect x="1" width="2.2500000000000027" height="0"></rect></g><g class="bar" transform="translate(445.25000000000006,310)"><rect x="1" width="2.2500000000000027" height="0"></rect></g><g class="bar" transform="translate(448.5,310)"><rect x="1" width="2.2500000000000027" height="0"></rect></g><g class="bar" transform="translate(451.75,310)"><rect x="1" width="2.2500000000000027" height="0"></rect></g><g class="bar" transform="translate(455,310)"><rect x="1" width="2.2500000000000027" height="0"></rect></g><g class="bar" transform="translate(458.25000000000006,310)"><rect x="1" width="2.2500000000000027" height="0"></rect></g><g class="bar" transform="translate(461.50000000000006,310)"><rect x="1" width="2.2500000000000027" height="0"></rect></g><g class="bar" transform="translate(464.75,310)"><rect x="1" width="2.2500000000000027" height="0"></rect></g><g class="bar" transform="translate(468,310)"><rect x="1" width="2.2500000000000027" height="0"></rect></g><g class="bar" transform="translate(471.25,310)"><rect x="1" width="2.2500000000000027" height="0"></rect></g><g class="bar" transform="translate(474.50000000000006,310)"><rect x="1" width="2.2500000000000027" height="0"></rect></g><g class="bar" transform="translate(477.75000000000006,310)"><rect x="1" width="2.2500000000000027" height="0"></rect></g><g class="bar" transform="translate(481,310)"><rect x="1" width="2.2500000000000027" height="0"></rect></g><g class="bar" transform="translate(484.25,310)"><rect x="1" width="2.2500000000000027" height="0"></rect></g><g class="bar" transform="translate(487.5,310)"><rect x="1" width="2.2500000000000027" height="0"></rect></g><g class="bar" transform="translate(490.75000000000006,310)"><rect x="1" width="2.2500000000000027" height="0"></rect></g><g class="bar" transform="translate(494.00000000000006,310)"><rect x="1" width="2.2500000000000027" height="0"></rect></g><g class="bar" transform="translate(497.25,310)"><rect x="1" width="2.2500000000000027" height="0"></rect></g><g class="bar" transform="translate(500.5,310)"><rect x="1" width="2.2500000000000027" height="0"></rect></g><g class="bar" transform="translate(503.75,310)"><rect x="1" width="2.2500000000000027" height="0"></rect></g><g class="bar" transform="translate(507.00000000000006,310)"><rect x="1" width="2.2500000000000027" height="0"></rect></g><g class="bar" transform="translate(510.25000000000006,310)"><rect x="1" width="2.2500000000000027" height="0"></rect></g><g class="bar" transform="translate(513.5,310)"><rect x="1" width="2.2500000000000027" height="0"></rect></g><g class="bar" transform="translate(516.75,310)"><rect x="1" width="2.2500000000000027" height="0"></rect></g><g class="axis axis--x" transform="translate(0,310)" fill="none" font-size="10" font-family="sans-serif" text-anchor="middle"><path class="domain" stroke="#000" d="M0.5,6V0.5H520.5V6"></path><g class="tick" opacity="1" transform="translate(0,0)"><line stroke="#000" y2="6" x1="0.5" x2="0.5"></line><text fill="#000" y="9" x="0.5" dy="0.71em">0.01</text></g><g class="tick" opacity="1" transform="translate(130,0)"><line stroke="#000" y2="6" x1="0.5" x2="0.5"></line><text fill="#000" y="9" x="0.5" dy="0.71em">1</text></g><g class="tick" opacity="1" transform="translate(260,0)"><line stroke="#000" y2="6" x1="0.5" x2="0.5"></line><text fill="#000" y="9" x="0.5" dy="0.71em">100</text></g><g class="tick" opacity="1" transform="translate(390,0)"><line stroke="#000" y2="6" x1="0.5" x2="0.5"></line><text fill="#000" y="9" x="0.5" dy="0.71em">10000</text></g><g class="tick" opacity="1" transform="translate(520,0)"><line stroke="#000" y2="6" x1="0.5" x2="0.5"></line><text fill="#000" y="9" x="0.5" dy="0.71em"></text></g></g><g class="axis axis--y" fill="none" font-size="10" font-family="sans-serif" text-anchor="end"><path class="domain" stroke="#000" d="M-6,310.5H0.5V0.5H-6"></path><g class="tick" opacity="1" transform="translate(0,310)"><line stroke="#000" x2="-6" y1="0.5" y2="0.5"></line><text fill="#000" x="-9" y="0.5" dy="0.32em">0</text></g><g class="tick" opacity="1" transform="translate(0,280.13487475915224)"><line stroke="#000" x2="-6" y1="0.5" y2="0.5"></line><text fill="#000" x="-9" y="0.5" dy="0.32em">100</text></g><g class="tick" opacity="1" transform="translate(0,250.26974951830442)"><line stroke="#000" x2="-6" y1="0.5" y2="0.5"></line><text fill="#000" x="-9" y="0.5" dy="0.32em">200</text></g><g class="tick" opacity="1" transform="translate(0,220.40462427745663)"><line stroke="#000" x2="-6" y1="0.5" y2="0.5"></line><text fill="#000" x="-9" y="0.5" dy="0.32em">300</text></g><g class="tick" opacity="1" transform="translate(0,190.53949903660885)"><line stroke="#000" x2="-6" y1="0.5" y2="0.5"></line><text fill="#000" x="-9" y="0.5" dy="0.32em">400</text></g><g class="tick" opacity="1" transform="translate(0,160.67437379576108)"><line stroke="#000" x2="-6" y1="0.5" y2="0.5"></line><text fill="#000" x="-9" y="0.5" dy="0.32em">500</text></g><g class="tick" opacity="1" transform="translate(0,130.80924855491327)"><line stroke="#000" x2="-6" y1="0.5" y2="0.5"></line><text fill="#000" x="-9" y="0.5" dy="0.32em">600</text></g><g class="tick" opacity="1" transform="translate(0,100.94412331406551)"><line stroke="#000" x2="-6" y1="0.5" y2="0.5"></line><text fill="#000" x="-9" y="0.5" dy="0.32em">700</text></g><g class="tick" opacity="1" transform="translate(0,71.07899807321772)"><line stroke="#000" x2="-6" y1="0.5" y2="0.5"></line><text fill="#000" x="-9" y="0.5" dy="0.32em">800</text></g><g class="tick" opacity="1" transform="translate(0,41.21387283236993)"><line stroke="#000" x2="-6" y1="0.5" y2="0.5"></line><text fill="#000" x="-9" y="0.5" dy="0.32em">900</text></g><g class="tick" opacity="1" transform="translate(0,11.34874759152217)"><line stroke="#000" x2="-6" y1="0.5" y2="0.5"></line><text fill="#000" x="-9" y="0.5" dy="0.32em">1,000</text></g></g></g></svg>