<svg xmlns="http://www.w3.org/2000/svg" width="600" height="350"><defs><style type="text/css"><![CDATA[ 
.bar rect {
  fill-opacity: 0;
  stroke:       black;
  stroke-width: 0.5;
}

.highlight rect {
  fill:       red;
  fill-opacity: 1;
}
.axis path,
.axis line {
  fill: none;
  stroke: #000;
  shape-rendering: crispEdges;
}
path {
    stroke: red;
    fill: none;
}

line {
    stroke: red;
}

path.marker {
    fill: red;
}
 ]]></style></defs><g transform="translate(50,10)"><g class="bar" transform="translate(0,296.94139194139194)"><rect x="1" width="11.999999999999996" height="13.058608058608058"></rect></g><g class="bar" transform="translate(12.999999999999996,277.6373626373626)"><rect x="1" width="11.999999999999996" height="32.36263736263737"></rect></g><g class="bar" transform="translate(25.999999999999993,270.8241758241758)"><rect x="1" width="11.999999999999996" height="39.175824175824175"></rect></g><g class="bar" transform="translate(39.00000000000001,248.1135531135531)"><rect x="1" width="11.999999999999996" height="61.88644688644689"></rect></g><g class="bar" transform="translate(52,237.32600732600733)"><rect x="1" width="11.999999999999996" height="72.67399267399267"></rect></g><g class="bar" transform="translate(65,207.23443223443223)"><rect x="1" width="11.999999999999996" height="102.76556776556777"></rect></g><g class="bar" transform="translate(78.00000000000001,188.4981684981685)"><rect x="1" width="11.999999999999996" height="121.5018315018315"></rect></g><g class="bar" transform="translate(91.00000000000001,134.56043956043956)"><rect x="1" width="11.999999999999996" height="175.43956043956044"></rect></g><g class="bar" transform="translate(104,95.95238095238096)"><rect x="1" width="11.999999999999996" height="214.04761904761904"></rect></g><g class="bar" transform="translate(117,43.150183150183125)"><rect x="1" width="11.999999999999996" height="266.8498168498169"></rect></g><g class="bar" transform="translate(130,36.33699633699632)"><rect x="1" width="11.999999999999996" height="273.6630036630037"></rect></g><g class="bar" transform="translate(143,33.49816849816847)"><rect x="1" width="11.999999999999996" height="276.50183150183153"></rect></g><g class="bar" transform="translate(156.00000000000003,54.50549450549451)"><rect x="1" width="11.999999999999996" height="255.4945054945055"></rect></g><g class="bar" transform="translate(169,57.91208791208791)"><rect x="1" width="11.999999999999996" height="252.0879120879121"></rect></g><g class="bar" transform="translate(182.00000000000003,29.52380952380952)"><rect x="1" width="11.999999999999996" height="280.4761904761905"></rect></g><g class="bar" transform="translate(195,45.42124542124543)"><rect x="1" width="11.999999999999996" height="264.57875457875457"></rect></g><g class="bar" transform="translate(208,33.49816849816847)"><rect x="1" width="11.999999999999996" height="276.50183150183153"></rect></g><g class="bar" transform="translate(221.00000000000003,48.82783882783883)"><rect x="1" width="11.999999999999996" height="261.17216117216117"></rect></g><g class="bar" transform="translate(234,33.49816849816847)"><rect x="1" width="11.999999999999996" height="276.50183150183153"></rect></g><g class="bar" transform="translate(247.00000000000003,0)"><rect x="1" width="11.999999999999996" height="310"></rect></g><g class="bar" transform="translate(260,44.85347985347988)"><rect x="1" width="11.999999999999996" height="265.1465201465201"></rect></g><g class="bar" transform="translate(273,84.5970695970696)"><rect x="1" width="11.999999999999996" height="225.4029304029304"></rect></g><g class="bar" transform="translate(286,173.73626373626374)"><rect x="1" width="11.999999999999996" height="136.26373626373626"></rect></g><g class="bar" transform="translate(299.00000000000006,212.9120879120879)"><rect x="1" width="11.999999999999996" height="97.08791208791209"></rect></g><g class="bar" transform="translate(312.00000000000006,233.35164835164835)"><rect x="1" width="11.999999999999996" height="76.64835164835165"></rect></g><g class="bar" transform="translate(325,258.3333333333333)"><rect x="1" width="11.999999999999996" height="51.666666666666686"></rect></g><g class="bar" transform="translate(338,281.61172161172163)"><rect x="1" width="11.999999999999996" height="28.388278388278366"></rect></g><g class="bar" transform="translate(351,299.2124542124542)"><rect x="1" width="11.999999999999996" height="10.78754578754581"></rect></g><g class="bar" transform="translate(364.00000000000006,299.7802197802198)"><rect x="1" width="11.999999999999996" height="10.219780219780205"></rect></g><g class="bar" transform="translate(377.00000000000006,304.32234432234435)"><rect x="1" width="11.999999999999996" height="5.67765567765565"></rect></g><g class="bar" transform="translate(390,307.72893772893775)"><rect x="1" width="11.999999999999996" height="2.271062271062249"></rect></g><g class="bar" transform="translate(403,310)"><rect x="1" width="11.999999999999996" height="0"></rect></g><g class="bar" transform="translate(416,310)"><rect x="1" width="11.999999999999996" height="0"></rect></g><g class="bar" transform="translate(429.00000000000006,310)"><rect x="1" width="11.999999999999996" height="0"></rect></g><g class="bar" transform="translate(442.00000000000006,310)"><rect x="1" width="11.999999999999996" height="0"></rect></g><g class="bar" transform="translate(455,310)"><rect x="1" width="11.999999999999996" height="0"></rect></g><g class="bar" transform="translate(468,310)"><rect x="1" width="11.999999999999996" height="0"></rect></g><g class="bar" transform="translate(481,310)"><rect x="1" width="11.999999999999996" height="0"></rect></g><g class="bar" transform="translate(494.00000000000006,310)"><rect x="1" width="11.999999999999996" height="0"></rect></g><g class="bar" transform="translate(507.00000000000006,310)"><rect x="1" width="11.999999999999996" height="0"></rect></g><g class="axis axis--x" transform="translate(0,310)" fill="none" font-size="10" font-family="sans-serif" text-anchor="middle"><path class="domain" stroke="#000" d="M0.5,6V0.5H520.5V6"></path><g class="tick" opacity="1" transform="translate(0.5,0)"><line stroke="#000" y2="6"></line><text fill="#000" y="9" dy="0.71em">0.01</text></g><g class="tick" opacity="1" transform="translate(130.5,0)"><line stroke="#000" y2="6"></line><text fill="#000" y="9" dy="0.71em">1</text></g><g class="tick" opacity="1" transform="translate(260.5,0)"><line stroke="#000" y2="6"></line><text fill="#000" y="9" dy="0.71em">100</text></g><g class="tick" opacity="1" transform="translate(390.5,0)"><line stroke="#000" y2="6"></line><text fill="#000" y="9" dy="0.71em">10000</text></g><g class="tick" opacity="1" transform="translate(520.5,0)"><line stroke="#000" y2="6"></line><text fill="#000" y="9" dy="0.71em"></text></g></g><g class="axis axis--y" fill="none" font-size="10" font-family="sans-serif" text-anchor="end"><path class="domain" stroke="#000" d="M-6,310.5H0.5V0.5H-6"></path><g class="tick" opacity="1" transform="translate(0,310.5)"><line stroke="#000" x2="-6"></line><text fill="#000" x="-9" dy="0.32em">0</text></g><g class="tick" opacity="1" transform="translate(0,282.11172161172163)"><line stroke="#000" x2="-6"></line><text fill="#000" x="-9" dy="0.32em">50</text></g><g class="tick" opacity="1" transform="translate(0,253.7234432234432)"><line stroke="#000" x2="-6"></line><text fill="#000" x="-9" dy="0.32em">100</text></g><g class="tick" opacity="1" transform="translate(0,225.33516483516485)"><line stroke="#000" x2="-6"></line><text fill="#000" x="-9" dy="0.32em">150</text></g><g class="tick" opacity="1" transform="translate(0,196.94688644688645)"><line stroke="#000" x2="-6"></line><text fill="#000" x="-9" dy="0.32em">200</text></g><g class="tick" opacity="1" transform="translate(0,168.55860805860806)"><line stroke="#000" x2="-6"></line><text fill="#000" x="-9" dy="0.32em">250</text></g><g class="tick" opacity="1" transform="translate(0,140.17032967032966)"><line stroke="#000" x2="-6"></line><text fill="#000" x="-9" dy="0.32em">300</text></g><g class="tick" opacity="1" transform="translate(0,111.78205128205127)"><line stroke="#000" x2="-6"></line><text fill="#000" x="-9" dy="0.32em">350</text></g><g class="tick" opacity="1" transform="translate(0,83.3937728937729)"><line stroke="#000" x2="-6"></line><text fill="#000" x="-9" dy="0.32em">400</text></g><g class="tick" opacity="1" transform="translate(0,55.00549450549451)"><line stroke="#000" x2="-6"></line><text fill="#000" x="-9" dy="0.32em">450</text></g><g class="tick" opacity="1" transform="translate(0,26.617216117216117)"><line stroke="#000" x2="-6"></line><text fill="#000" x="-9" dy="0.32em">500</text></g></g></g></svg>