<svg xmlns="http://www.w3.org/2000/svg" width="280" height="160"><defs><style type="text/css"><![CDATA[ 
.bar rect {
  fill-opacity: 0;
  stroke:       black;
  stroke-width: 0.5;
}

.highlight rect {
  fill:       red;
  fill-opacity: 1;
}
.axis path,
.axis line {
  fill: none;
  stroke: #000;
  shape-rendering: crispEdges;
}
 ]]></style></defs><g transform="translate(50,10)"><g class="bar" transform="translate(0,120)"><rect x="1" width="11.5" height="0"></rect></g><g class="bar" transform="translate(12.5,119.4)"><rect x="1" width="11.5" height="0.5999999999999943"></rect></g><g class="bar" transform="translate(25,114.4)"><rect x="1" width="11.5" height="5.599999999999994"></rect></g><g class="bar" transform="translate(37.5,104.6)"><rect x="1" width="11.5" height="15.400000000000006"></rect></g><g class="bar" transform="translate(50,85.6)"><rect x="1" width="11.5" height="34.400000000000006"></rect></g><g class="bar" transform="translate(62.5,62.5)"><rect x="1" width="11.5" height="57.5"></rect></g><g class="bar" transform="translate(75,19.099999999999994)"><rect x="1" width="11.5" height="100.9"></rect></g><g class="bar" transform="translate(87.5,0)"><rect x="1" width="11.5" height="120"></rect></g><g class="bar" transform="translate(100,7.8999999999999915)"><rect x="1" width="11.5" height="112.10000000000001"></rect></g><g class="bar" transform="translate(112.5,59.4)"><rect x="1" width="11.5" height="60.6"></rect></g><g class="bar" transform="translate(125,104.8)"><rect x="1" width="11.5" height="15.200000000000003"></rect></g><g class="bar" transform="translate(137.5,118.3)"><rect x="1" width="11.5" height="1.7000000000000028"></rect></g><g class="bar" transform="translate(150,119.8)"><rect x="1" width="11.5" height="0.20000000000000284"></rect></g><g class="bar" transform="translate(162.5,120)"><rect x="1" width="11.5" height="0"></rect></g><g class="bar" transform="translate(175,120)"><rect x="1" width="11.5" height="0"></rect></g><g class="bar" transform="translate(187.5,120)"><rect x="1" width="11.5" height="0"></rect></g></g></svg>