<svg xmlns="http://www.w3.org/2000/svg" width="600" height="350"><defs><style type="text/css"><![CDATA[ 
.bar rect {
  fill-opacity: 0;
  stroke:       black;
  stroke-width: 0.5;
}

.highlight rect {
  fill:       red;
  fill-opacity: 1;
}
.axis path,
.axis line {
  fill: none;
  stroke: #000;
  shape-rendering: crispEdges;
}
 ]]></style></defs><g transform="translate(50,10)"><g class="bar" transform="translate(0,310)"><rect x="1" width="11.999999999999996" height="0"></rect></g><g class="bar" transform="translate(12.999999999999996,310)"><rect x="1" width="11.999999999999996" height="0"></rect></g><g class="bar" transform="translate(25.999999999999993,310)"><rect x="1" width="11.999999999999996" height="0"></rect></g><g class="bar" transform="translate(39.00000000000001,308.7423935091278)"><rect x="1" width="11.999999999999996" height="1.257606490872206"></rect></g><g class="bar" transform="translate(52,307.4847870182556)"><rect x="1" width="11.999999999999996" height="2.515212981744412"></rect></g><g class="bar" transform="translate(65,307.4847870182556)"><rect x="1" width="11.999999999999996" height="2.515212981744412"></rect></g><g class="bar" transform="translate(78.00000000000001,289.2494929006085)"><rect x="1" width="11.999999999999996" height="20.750507099391484"></rect></g><g class="bar" transform="translate(91.00000000000001,285.4766734279919)"><rect x="1" width="11.999999999999996" height="24.523326572008102"></rect></g><g class="bar" transform="translate(104,276.6734279918864)"><rect x="1" width="11.999999999999996" height="33.3265720081136"></rect></g><g class="bar" transform="translate(117,259.06693711967546)"><rect x="1" width="11.999999999999996" height="50.93306288032454"></rect></g><g class="bar" transform="translate(130,243.97565922920893)"><rect x="1" width="11.999999999999996" height="66.02434077079107"></rect></g><g class="bar" transform="translate(143,218.1947261663286)"><rect x="1" width="11.999999999999996" height="91.80527383367141"></rect></g><g class="bar" transform="translate(156.00000000000003,199.33062880324542)"><rect x="1" width="11.999999999999996" height="110.66937119675458"></rect></g><g class="bar" transform="translate(169,176.06490872210952)"><rect x="1" width="11.999999999999996" height="133.93509127789048"></rect></g><g class="bar" transform="translate(182.00000000000003,134.56389452332655)"><rect x="1" width="11.999999999999996" height="175.43610547667345"></rect></g><g class="bar" transform="translate(195,83.63083164300204)"><rect x="1" width="11.999999999999996" height="226.36916835699796"></rect></g><g class="bar" transform="translate(208,39.61460446247463)"><rect x="1" width="11.999999999999996" height="270.38539553752537"></rect></g><g class="bar" transform="translate(221.00000000000003,0)"><rect x="1" width="11.999999999999996" height="310"></rect></g><g class="bar" transform="translate(234,32.068965517241395)"><rect x="1" width="11.999999999999996" height="277.9310344827586"></rect></g><g class="bar" transform="translate(247.00000000000003,5.659229208924955)"><rect x="1" width="11.999999999999996" height="304.34077079107504"></rect></g><g class="bar" transform="translate(260,8.174442190669367)"><rect x="1" width="11.999999999999996" height="301.82555780933063"></rect></g><g class="bar" transform="translate(273,33.955375253549676)"><rect x="1" width="11.999999999999996" height="276.0446247464503"></rect></g><g class="bar" transform="translate(286,83.63083164300204)"><rect x="1" width="11.999999999999996" height="226.36916835699796"></rect></g><g class="bar" transform="translate(299.00000000000006,153.42799188640976)"><rect x="1" width="11.999999999999996" height="156.57200811359024"></rect></g><g class="bar" transform="translate(312.00000000000006,184.86815415821502)"><rect x="1" width="11.999999999999996" height="125.13184584178498"></rect></g><g class="bar" transform="translate(325,249.00608519269775)"><rect x="1" width="11.999999999999996" height="60.99391480730225"></rect></g><g class="bar" transform="translate(338,281.07505070993915)"><rect x="1" width="11.999999999999996" height="28.92494929006085"></rect></g><g class="bar" transform="translate(351,301.1967545638945)"><rect x="1" width="11.999999999999996" height="8.803245436105499"></rect></g><g class="bar" transform="translate(364.00000000000006,305.59837728194725)"><rect x="1" width="11.999999999999996" height="4.401622718052749"></rect></g><g class="bar" transform="translate(377.00000000000006,306.85598377281946)"><rect x="1" width="11.999999999999996" height="3.1440162271805434"></rect></g><g class="bar" transform="translate(390,310)"><rect x="1" width="11.999999999999996" height="0"></rect></g><g class="bar" transform="translate(403,309.37119675456387)"><rect x="1" width="11.999999999999996" height="0.6288032454361314"></rect></g><g class="bar" transform="translate(416,309.37119675456387)"><rect x="1" width="11.999999999999996" height="0.6288032454361314"></rect></g><g class="bar" transform="translate(429.00000000000006,310)"><rect x="1" width="11.999999999999996" height="0"></rect></g><g class="bar" transform="translate(442.00000000000006,310)"><rect x="1" width="11.999999999999996" height="0"></rect></g><g class="bar" transform="translate(455,310)"><rect x="1" width="11.999999999999996" height="0"></rect></g><g class="bar" transform="translate(468,310)"><rect x="1" width="11.999999999999996" height="0"></rect></g><g class="bar" transform="translate(481,310)"><rect x="1" width="11.999999999999996" height="0"></rect></g><g class="bar" transform="translate(494.00000000000006,310)"><rect x="1" width="11.999999999999996" height="0"></rect></g><g class="bar" transform="translate(507.00000000000006,310)"><rect x="1" width="11.999999999999996" height="0"></rect></g><g class="axis axis--x" transform="translate(0,310)" fill="none" font-size="10" font-family="sans-serif" text-anchor="middle"><path class="domain" stroke="#000" d="M0.5,6V0.5H520.5V6"></path><g class="tick" opacity="1" transform="translate(0,0)"><line stroke="#000" y2="6" x1="0.5" x2="0.5"></line><text fill="#000" y="9" x="0.5" dy="0.71em">0.01</text></g><g class="tick" opacity="1" transform="translate(130,0)"><line stroke="#000" y2="6" x1="0.5" x2="0.5"></line><text fill="#000" y="9" x="0.5" dy="0.71em">1</text></g><g class="tick" opacity="1" transform="translate(260,0)"><line stroke="#000" y2="6" x1="0.5" x2="0.5"></line><text fill="#000" y="9" x="0.5" dy="0.71em">100</text></g><g class="tick" opacity="1" transform="translate(390,0)"><line stroke="#000" y2="6" x1="0.5" x2="0.5"></line><text fill="#000" y="9" x="0.5" dy="0.71em">10000</text></g><g class="tick" opacity="1" transform="translate(520,0)"><line stroke="#000" y2="6" x1="0.5" x2="0.5"></line><text fill="#000" y="9" x="0.5" dy="0.71em"></text></g></g><g class="axis axis--y" fill="none" font-size="10" font-family="sans-serif" text-anchor="end"><path class="domain" stroke="#000" d="M-6,310.5H0.5V0.5H-6"></path><g class="tick" opacity="1" transform="translate(0,310)"><line stroke="#000" x2="-6" y1="0.5" y2="0.5"></line><text fill="#000" x="-9" y="0.5" dy="0.32em">0</text></g><g class="tick" opacity="1" transform="translate(0,278.55983772819474)"><line stroke="#000" x2="-6" y1="0.5" y2="0.5"></line><text fill="#000" x="-9" y="0.5" dy="0.32em">50</text></g><g class="tick" opacity="1" transform="translate(0,247.11967545638944)"><line stroke="#000" x2="-6" y1="0.5" y2="0.5"></line><text fill="#000" x="-9" y="0.5" dy="0.32em">100</text></g><g class="tick" opacity="1" transform="translate(0,215.67951318458415)"><line stroke="#000" x2="-6" y1="0.5" y2="0.5"></line><text fill="#000" x="-9" y="0.5" dy="0.32em">150</text></g><g class="tick" opacity="1" transform="translate(0,184.2393509127789)"><line stroke="#000" x2="-6" y1="0.5" y2="0.5"></line><text fill="#000" x="-9" y="0.5" dy="0.32em">200</text></g><g class="tick" opacity="1" transform="translate(0,152.79918864097363)"><line stroke="#000" x2="-6" y1="0.5" y2="0.5"></line><text fill="#000" x="-9" y="0.5" dy="0.32em">250</text></g><g class="tick" opacity="1" transform="translate(0,121.35902636916833)"><line stroke="#000" x2="-6" y1="0.5" y2="0.5"></line><text fill="#000" x="-9" y="0.5" dy="0.32em">300</text></g><g class="tick" opacity="1" transform="translate(0,89.9188640973631)"><line stroke="#000" x2="-6" y1="0.5" y2="0.5"></line><text fill="#000" x="-9" y="0.5" dy="0.32em">350</text></g><g class="tick" opacity="1" transform="translate(0,58.478701825557806)"><line stroke="#000" x2="-6" y1="0.5" y2="0.5"></line><text fill="#000" x="-9" y="0.5" dy="0.32em">400</text></g><g class="tick" opacity="1" transform="translate(0,27.038539553752514)"><line stroke="#000" x2="-6" y1="0.5" y2="0.5"></line><text fill="#000" x="-9" y="0.5" dy="0.32em">450</text></g></g></g></svg>