<svg xmlns="http://www.w3.org/2000/svg" width="600" height="350"><defs><style type="text/css"><![CDATA[ 
.bar rect {
  fill-opacity: 0;
  stroke:       black;
  stroke-width: 0.5;
}

.highlight rect {
  fill:       red;
  fill-opacity: 1;
}
.axis path,
.axis line {
  fill: none;
  stroke: #000;
  shape-rendering: crispEdges;
}
path {
    stroke: red;
    fill: none;
}

line {
    stroke: red;
}

path.marker {
    fill: red;
}
 ]]></style></defs><g transform="translate(50,10)"><g class="bar" transform="translate(0,310)"><rect x="1" width="11.999999999999996" height="0"></rect></g><g class="bar" transform="translate(12.999999999999996,310)"><rect x="1" width="11.999999999999996" height="0"></rect></g><g class="bar" transform="translate(25.999999999999993,310)"><rect x="1" width="11.999999999999996" height="0"></rect></g><g class="bar" transform="translate(39.00000000000001,310)"><rect x="1" width="11.999999999999996" height="0"></rect></g><g class="bar" transform="translate(52,310)"><rect x="1" width="11.999999999999996" height="0"></rect></g><g class="bar" transform="translate(65,310)"><rect x="1" width="11.999999999999996" height="0"></rect></g><g class="bar" transform="translate(78.00000000000001,223.2)"><rect x="1" width="11.999999999999996" height="86.80000000000001"></rect></g><g class="bar" transform="translate(91.00000000000001,231.0909090909091)"><rect x="1" width="11.999999999999996" height="78.9090909090909"></rect></g><g class="bar" transform="translate(104,193.89090909090908)"><rect x="1" width="11.999999999999996" height="116.10909090909092"></rect></g><g class="bar" transform="translate(117,288.58181818181816)"><rect x="1" width="11.999999999999996" height="21.418181818181836"></rect></g><g class="bar" transform="translate(130,299.8545454545455)"><rect x="1" width="11.999999999999996" height="10.145454545454527"></rect></g><g class="bar" transform="translate(143,298.72727272727275)"><rect x="1" width="11.999999999999996" height="11.272727272727252"></rect></g><g class="bar" transform="translate(156.00000000000003,290.8363636363636)"><rect x="1" width="11.999999999999996" height="19.163636363636385"></rect></g><g class="bar" transform="translate(169,281.8181818181818)"><rect x="1" width="11.999999999999996" height="28.181818181818187"></rect></g><g class="bar" transform="translate(182.00000000000003,264.90909090909093)"><rect x="1" width="11.999999999999996" height="45.090909090909065"></rect></g><g class="bar" transform="translate(195,237.85454545454547)"><rect x="1" width="11.999999999999996" height="72.14545454545453"></rect></g><g class="bar" transform="translate(208,220.94545454545454)"><rect x="1" width="11.999999999999996" height="89.05454545454546"></rect></g><g class="bar" transform="translate(221.00000000000003,129.63636363636365)"><rect x="1" width="11.999999999999996" height="180.36363636363635"></rect></g><g class="bar" transform="translate(234,76.65454545454546)"><rect x="1" width="11.999999999999996" height="233.34545454545454"></rect></g><g class="bar" transform="translate(247.00000000000003,39.454545454545496)"><rect x="1" width="11.999999999999996" height="270.5454545454545"></rect></g><g class="bar" transform="translate(260,0)"><rect x="1" width="11.999999999999996" height="310"></rect></g><g class="bar" transform="translate(273,50.72727272727275)"><rect x="1" width="11.999999999999996" height="259.27272727272725"></rect></g><g class="bar" transform="translate(286,18.03636363636366)"><rect x="1" width="11.999999999999996" height="291.96363636363634"></rect></g><g class="bar" transform="translate(299.00000000000006,118.36363636363637)"><rect x="1" width="11.999999999999996" height="191.63636363636363"></rect></g><g class="bar" transform="translate(312.00000000000006,129.63636363636365)"><rect x="1" width="11.999999999999996" height="180.36363636363635"></rect></g><g class="bar" transform="translate(325,181.4909090909091)"><rect x="1" width="11.999999999999996" height="128.5090909090909"></rect></g><g class="bar" transform="translate(338,251.38181818181818)"><rect x="1" width="11.999999999999996" height="58.618181818181824"></rect></g><g class="bar" transform="translate(351,277.3090909090909)"><rect x="1" width="11.999999999999996" height="32.69090909090909"></rect></g><g class="bar" transform="translate(364.00000000000006,291.96363636363634)"><rect x="1" width="11.999999999999996" height="18.03636363636366"></rect></g><g class="bar" transform="translate(377.00000000000006,307.74545454545455)"><rect x="1" width="11.999999999999996" height="2.2545454545454504"></rect></g><g class="bar" transform="translate(390,303.23636363636365)"><rect x="1" width="11.999999999999996" height="6.763636363636351"></rect></g><g class="bar" transform="translate(403,307.74545454545455)"><rect x="1" width="11.999999999999996" height="2.2545454545454504"></rect></g><g class="bar" transform="translate(416,307.74545454545455)"><rect x="1" width="11.999999999999996" height="2.2545454545454504"></rect></g><g class="bar" transform="translate(429.00000000000006,310)"><rect x="1" width="11.999999999999996" height="0"></rect></g><g class="bar" transform="translate(442.00000000000006,310)"><rect x="1" width="11.999999999999996" height="0"></rect></g><g class="bar" transform="translate(455,310)"><rect x="1" width="11.999999999999996" height="0"></rect></g><g class="bar" transform="translate(468,310)"><rect x="1" width="11.999999999999996" height="0"></rect></g><g class="bar" transform="translate(481,310)"><rect x="1" width="11.999999999999996" height="0"></rect></g><g class="bar" transform="translate(494.00000000000006,310)"><rect x="1" width="11.999999999999996" height="0"></rect></g><g class="bar" transform="translate(507.00000000000006,310)"><rect x="1" width="11.999999999999996" height="0"></rect></g><g class="axis axis--x" transform="translate(0,310)" fill="none" font-size="10" font-family="sans-serif" text-anchor="middle"><path class="domain" stroke="#000" d="M0.5,6V0.5H520.5V6"></path><g class="tick" opacity="1" transform="translate(0.5,0)"><line stroke="#000" y2="6"></line><text fill="#000" y="9" dy="0.71em">0.01</text></g><g class="tick" opacity="1" transform="translate(130.5,0)"><line stroke="#000" y2="6"></line><text fill="#000" y="9" dy="0.71em">1</text></g><g class="tick" opacity="1" transform="translate(260.5,0)"><line stroke="#000" y2="6"></line><text fill="#000" y="9" dy="0.71em">100</text></g><g class="tick" opacity="1" transform="translate(390.5,0)"><line stroke="#000" y2="6"></line><text fill="#000" y="9" dy="0.71em">10000</text></g><g class="tick" opacity="1" transform="translate(520.5,0)"><line stroke="#000" y2="6"></line><text fill="#000" y="9" dy="0.71em"></text></g></g><g class="axis axis--y" fill="none" font-size="10" font-family="sans-serif" text-anchor="end"><path class="domain" stroke="#000" d="M-6,310.5H0.5V0.5H-6"></path><g class="tick" opacity="1" transform="translate(0,310.5)"><line stroke="#000" x2="-6"></line><text fill="#000" x="-9" dy="0.32em">0</text></g><g class="tick" opacity="1" transform="translate(0,287.95454545454544)"><line stroke="#000" x2="-6"></line><text fill="#000" x="-9" dy="0.32em">20</text></g><g class="tick" opacity="1" transform="translate(0,265.40909090909093)"><line stroke="#000" x2="-6"></line><text fill="#000" x="-9" dy="0.32em">40</text></g><g class="tick" opacity="1" transform="translate(0,242.86363636363637)"><line stroke="#000" x2="-6"></line><text fill="#000" x="-9" dy="0.32em">60</text></g><g class="tick" opacity="1" transform="translate(0,220.3181818181818)"><line stroke="#000" x2="-6"></line><text fill="#000" x="-9" dy="0.32em">80</text></g><g class="tick" opacity="1" transform="translate(0,197.77272727272725)"><line stroke="#000" x2="-6"></line><text fill="#000" x="-9" dy="0.32em">100</text></g><g class="tick" opacity="1" transform="translate(0,175.22727272727275)"><line stroke="#000" x2="-6"></line><text fill="#000" x="-9" dy="0.32em">120</text></g><g class="tick" opacity="1" transform="translate(0,152.6818181818182)"><line stroke="#000" x2="-6"></line><text fill="#000" x="-9" dy="0.32em">140</text></g><g class="tick" opacity="1" transform="translate(0,130.13636363636365)"><line stroke="#000" x2="-6"></line><text fill="#000" x="-9" dy="0.32em">160</text></g><g class="tick" opacity="1" transform="translate(0,107.5909090909091)"><line stroke="#000" x2="-6"></line><text fill="#000" x="-9" dy="0.32em">180</text></g><g class="tick" opacity="1" transform="translate(0,85.04545454545453)"><line stroke="#000" x2="-6"></line><text fill="#000" x="-9" dy="0.32em">200</text></g><g class="tick" opacity="1" transform="translate(0,62.5)"><line stroke="#000" x2="-6"></line><text fill="#000" x="-9" dy="0.32em">220</text></g><g class="tick" opacity="1" transform="translate(0,39.954545454545496)"><line stroke="#000" x2="-6"></line><text fill="#000" x="-9" dy="0.32em">240</text></g><g class="tick" opacity="1" transform="translate(0,17.409090909090935)"><line stroke="#000" x2="-6"></line><text fill="#000" x="-9" dy="0.32em">260</text></g></g></g></svg>