<svg xmlns="http://www.w3.org/2000/svg" width="280" height="160"><defs><style type="text/css"><![CDATA[ 
.bar rect {
  fill-opacity: 0;
  stroke:       black;
  stroke-width: 0.5;
}

.highlight rect {
  fill:       red;
  fill-opacity: 1;
}
.axis path,
.axis line {
  fill: none;
  stroke: #000;
  shape-rendering: crispEdges;
}
path {
    stroke: red;
    fill: none;
}

line {
    stroke: red;
}

path.marker {
    fill: red;
}
 ]]></style></defs><g transform="translate(50,10)"><g class="bar" transform="translate(0,108.37259100642399)"><rect x="1" width="11.5" height="11.627408993576012"></rect></g><g class="bar" transform="translate(12.5,95.71734475374733)"><rect x="1" width="11.5" height="24.282655246252673"></rect></g><g class="bar" transform="translate(25,67.00214132762312)"><rect x="1" width="11.5" height="52.99785867237688"></rect></g><g class="bar" transform="translate(37.5,37.644539614561026)"><rect x="1" width="11.5" height="82.35546038543897"></rect></g><g class="bar" transform="translate(50,16.059957173447543)"><rect x="1" width="11.5" height="103.94004282655246"></rect></g><g class="bar" transform="translate(62.5,4.56102783725909)"><rect x="1" width="11.5" height="115.43897216274091"></rect></g><g class="bar" transform="translate(75,0)"><rect x="1" width="11.5" height="120"></rect></g><g class="bar" transform="translate(87.5,22.869379014989292)"><rect x="1" width="11.5" height="97.13062098501071"></rect></g><g class="bar" transform="translate(100,54.34689507494646)"><rect x="1" width="11.5" height="65.65310492505354"></rect></g><g class="bar" transform="translate(112.5,83.5117773019272)"><rect x="1" width="11.5" height="36.4882226980728"></rect></g><g class="bar" transform="translate(125,112.03426124197003)"><rect x="1" width="11.5" height="7.965738758029971"></rect></g><g class="bar" transform="translate(137.5,118.84368308351178)"><rect x="1" width="11.5" height="1.1563169164882225"></rect></g><g class="bar" transform="translate(150,119.67880085653105)"><rect x="1" width="11.5" height="0.3211991434689452"></rect></g><g class="bar" transform="translate(162.5,120)"><rect x="1" width="11.5" height="0"></rect></g><g class="bar" transform="translate(175,120)"><rect x="1" width="11.5" height="0"></rect></g><g class="bar" transform="translate(187.5,120)"><rect x="1" width="11.5" height="0"></rect></g></g></svg>