<svg xmlns="http://www.w3.org/2000/svg" width="600" height="350"><defs><style type="text/css"><![CDATA[ 
.bar rect {
  fill-opacity: 0;
  stroke:       black;
  stroke-width: 0.5;
}

.highlight rect {
  fill:       red;
  fill-opacity: 1;
}
.axis path,
.axis line {
  fill: none;
  stroke: #000;
  shape-rendering: crispEdges;
}
path {
    stroke: red;
    fill: none;
}

line {
    stroke: red;
}

path.marker {
    fill: red;
}
 ]]></style></defs><g transform="translate(50,10)"><g class="bar" transform="translate(0,291.9300518134715)"><rect x="1" width="11.999999999999996" height="18.069948186528507"></rect></g><g class="bar" transform="translate(12.999999999999996,275.06476683937825)"><rect x="1" width="11.999999999999996" height="34.93523316062175"></rect></g><g class="bar" transform="translate(25.999999999999993,269.8445595854922)"><rect x="1" width="11.999999999999996" height="40.15544041450778"></rect></g><g class="bar" transform="translate(39.00000000000001,247.35751295336786)"><rect x="1" width="11.999999999999996" height="62.64248704663214"></rect></g><g class="bar" transform="translate(52,241.3341968911917)"><rect x="1" width="11.999999999999996" height="68.66580310880829"></rect></g><g class="bar" transform="translate(65,208.00518134715026)"><rect x="1" width="11.999999999999996" height="101.99481865284974"></rect></g><g class="bar" transform="translate(78.00000000000001,158.6139896373057)"><rect x="1" width="11.999999999999996" height="151.3860103626943"></rect></g><g class="bar" transform="translate(91.00000000000001,141.34715025906735)"><rect x="1" width="11.999999999999996" height="168.65284974093265"></rect></g><g class="bar" transform="translate(104,91.55440414507774)"><rect x="1" width="11.999999999999996" height="218.44559585492226"></rect></g><g class="bar" transform="translate(117,104.40414507772019)"><rect x="1" width="11.999999999999996" height="205.5958549222798"></rect></g><g class="bar" transform="translate(130,59.43005181347149)"><rect x="1" width="11.999999999999996" height="250.5699481865285"></rect></g><g class="bar" transform="translate(143,50.99740932642487)"><rect x="1" width="11.999999999999996" height="259.0025906735751"></rect></g><g class="bar" transform="translate(156.00000000000003,38.950777202072516)"><rect x="1" width="11.999999999999996" height="271.0492227979275"></rect></g><g class="bar" transform="translate(169,25.297927461139864)"><rect x="1" width="11.999999999999996" height="284.70207253886014"></rect></g><g class="bar" transform="translate(182.00000000000003,4.015544041450767)"><rect x="1" width="11.999999999999996" height="305.98445595854923"></rect></g><g class="bar" transform="translate(195,7.629533678756445)"><rect x="1" width="11.999999999999996" height="302.37046632124355"></rect></g><g class="bar" transform="translate(208,0)"><rect x="1" width="11.999999999999996" height="310"></rect></g><g class="bar" transform="translate(221.00000000000003,34.13212435233157)"><rect x="1" width="11.999999999999996" height="275.8678756476684"></rect></g><g class="bar" transform="translate(234,53.406735751295344)"><rect x="1" width="11.999999999999996" height="256.59326424870466"></rect></g><g class="bar" transform="translate(247.00000000000003,97.57772020725389)"><rect x="1" width="11.999999999999996" height="212.4222797927461"></rect></g><g class="bar" transform="translate(260,114.44300518134713)"><rect x="1" width="11.999999999999996" height="195.55699481865287"></rect></g><g class="bar" transform="translate(273,159.81865284974094)"><rect x="1" width="11.999999999999996" height="150.18134715025906"></rect></g><g class="bar" transform="translate(286,186.32124352331607)"><rect x="1" width="11.999999999999996" height="123.67875647668393"></rect></g><g class="bar" transform="translate(299.00000000000006,207.60362694300517)"><rect x="1" width="11.999999999999996" height="102.39637305699483"></rect></g><g class="bar" transform="translate(312.00000000000006,243.3419689119171)"><rect x="1" width="11.999999999999996" height="66.65803108808291"></rect></g><g class="bar" transform="translate(325,287.11139896373055)"><rect x="1" width="11.999999999999996" height="22.88860103626945"></rect></g><g class="bar" transform="translate(338,290.3238341968912)"><rect x="1" width="11.999999999999996" height="19.676165803108802"></rect></g><g class="bar" transform="translate(351,299.559585492228)"><rect x="1" width="11.999999999999996" height="10.440414507772005"></rect></g><g class="bar" transform="translate(364.00000000000006,307.59067357512953)"><rect x="1" width="11.999999999999996" height="2.4093264248704713"></rect></g><g class="bar" transform="translate(377.00000000000006,308.3937823834197)"><rect x="1" width="11.999999999999996" height="1.6062176165802953"></rect></g><g class="bar" transform="translate(390,308.7953367875648)"><rect x="1" width="11.999999999999996" height="1.2046632124352072"></rect></g><g class="bar" transform="translate(403,309.1968911917098)"><rect x="1" width="11.999999999999996" height="0.8031088082901761"></rect></g><g class="bar" transform="translate(416,310)"><rect x="1" width="11.999999999999996" height="0"></rect></g><g class="bar" transform="translate(429.00000000000006,310)"><rect x="1" width="11.999999999999996" height="0"></rect></g><g class="bar" transform="translate(442.00000000000006,310)"><rect x="1" width="11.999999999999996" height="0"></rect></g><g class="bar" transform="translate(455,310)"><rect x="1" width="11.999999999999996" height="0"></rect></g><g class="bar" transform="translate(468,310)"><rect x="1" width="11.999999999999996" height="0"></rect></g><g class="bar" transform="translate(481,310)"><rect x="1" width="11.999999999999996" height="0"></rect></g><g class="bar" transform="translate(494.00000000000006,310)"><rect x="1" width="11.999999999999996" height="0"></rect></g><g class="bar" transform="translate(507.00000000000006,310)"><rect x="1" width="11.999999999999996" height="0"></rect></g><g class="axis axis--x" transform="translate(0,310)" fill="none" font-size="10" font-family="sans-serif" text-anchor="middle"><path class="domain" stroke="#000" d="M0.5,6V0.5H520.5V6"></path><g class="tick" opacity="1" transform="translate(0.5,0)"><line stroke="#000" y2="6"></line><text fill="#000" y="9" dy="0.71em">0.01</text></g><g class="tick" opacity="1" transform="translate(130.5,0)"><line stroke="#000" y2="6"></line><text fill="#000" y="9" dy="0.71em">1</text></g><g class="tick" opacity="1" transform="translate(260.5,0)"><line stroke="#000" y2="6"></line><text fill="#000" y="9" dy="0.71em">100</text></g><g class="tick" opacity="1" transform="translate(390.5,0)"><line stroke="#000" y2="6"></line><text fill="#000" y="9" dy="0.71em">10000</text></g><g class="tick" opacity="1" transform="translate(520.5,0)"><line stroke="#000" y2="6"></line><text fill="#000" y="9" dy="0.71em"></text></g></g><g class="axis axis--y" fill="none" font-size="10" font-family="sans-serif" text-anchor="end"><path class="domain" stroke="#000" d="M-6,310.5H0.5V0.5H-6"></path><g class="tick" opacity="1" transform="translate(0,310.5)"><line stroke="#000" x2="-6"></line><text fill="#000" x="-9" dy="0.32em">0</text></g><g class="tick" opacity="1" transform="translate(0,270.3445595854922)"><line stroke="#000" x2="-6"></line><text fill="#000" x="-9" dy="0.32em">100</text></g><g class="tick" opacity="1" transform="translate(0,230.18911917098447)"><line stroke="#000" x2="-6"></line><text fill="#000" x="-9" dy="0.32em">200</text></g><g class="tick" opacity="1" transform="translate(0,190.0336787564767)"><line stroke="#000" x2="-6"></line><text fill="#000" x="-9" dy="0.32em">300</text></g><g class="tick" opacity="1" transform="translate(0,149.87823834196894)"><line stroke="#000" x2="-6"></line><text fill="#000" x="-9" dy="0.32em">400</text></g><g class="tick" opacity="1" transform="translate(0,109.72279792746116)"><line stroke="#000" x2="-6"></line><text fill="#000" x="-9" dy="0.32em">500</text></g><g class="tick" opacity="1" transform="translate(0,69.56735751295338)"><line stroke="#000" x2="-6"></line><text fill="#000" x="-9" dy="0.32em">600</text></g><g class="tick" opacity="1" transform="translate(0,29.4119170984456)"><line stroke="#000" x2="-6"></line><text fill="#000" x="-9" dy="0.32em">700</text></g></g></g></svg>