<svg xmlns="http://www.w3.org/2000/svg" width="600" height="350"><defs><style type="text/css"><![CDATA[ 
.bar rect {
  fill-opacity: 0;
  stroke:       black;
  stroke-width: 0.5;
}

.highlight rect {
  fill:       red;
  fill-opacity: 1;
}
.axis path,
.axis line {
  fill: none;
  stroke: #000;
  shape-rendering: crispEdges;
}
 ]]></style></defs><g transform="translate(50,10)"><g class="bar" transform="translate(0,310)"><rect x="1" width="11.999999999999996" height="0"></rect></g><g class="bar" transform="translate(12.999999999999996,310)"><rect x="1" width="11.999999999999996" height="0"></rect></g><g class="bar" transform="translate(25.999999999999993,310)"><rect x="1" width="11.999999999999996" height="0"></rect></g><g class="bar" transform="translate(39.00000000000001,310)"><rect x="1" width="11.999999999999996" height="0"></rect></g><g class="bar" transform="translate(52,304.6857142857143)"><rect x="1" width="11.999999999999996" height="5.314285714285688"></rect></g><g class="bar" transform="translate(65,301.14285714285717)"><rect x="1" width="11.999999999999996" height="8.857142857142833"></rect></g><g class="bar" transform="translate(78.00000000000001,308.22857142857146)"><rect x="1" width="11.999999999999996" height="1.7714285714285438"></rect></g><g class="bar" transform="translate(91.00000000000001,292.2857142857143)"><rect x="1" width="11.999999999999996" height="17.714285714285722"></rect></g><g class="bar" transform="translate(104,299.37142857142857)"><rect x="1" width="11.999999999999996" height="10.628571428571433"></rect></g><g class="bar" transform="translate(117,294.0571428571429)"><rect x="1" width="11.999999999999996" height="15.942857142857122"></rect></g><g class="bar" transform="translate(130,272.8)"><rect x="1" width="11.999999999999996" height="37.19999999999999"></rect></g><g class="bar" transform="translate(143,239.14285714285714)"><rect x="1" width="11.999999999999996" height="70.85714285714286"></rect></g><g class="bar" transform="translate(156.00000000000003,187.77142857142857)"><rect x="1" width="11.999999999999996" height="122.22857142857143"></rect></g><g class="bar" transform="translate(169,100.97142857142859)"><rect x="1" width="11.999999999999996" height="209.0285714285714"></rect></g><g class="bar" transform="translate(182.00000000000003,86.80000000000001)"><rect x="1" width="11.999999999999996" height="223.2"></rect></g><g class="bar" transform="translate(195,63.77142857142857)"><rect x="1" width="11.999999999999996" height="246.22857142857143"></rect></g><g class="bar" transform="translate(208,12.400000000000034)"><rect x="1" width="11.999999999999996" height="297.59999999999997"></rect></g><g class="bar" transform="translate(221.00000000000003,53.14285714285711)"><rect x="1" width="11.999999999999996" height="256.8571428571429"></rect></g><g class="bar" transform="translate(234,28.342857142857156)"><rect x="1" width="11.999999999999996" height="281.65714285714284"></rect></g><g class="bar" transform="translate(247.00000000000003,0)"><rect x="1" width="11.999999999999996" height="310"></rect></g><g class="bar" transform="translate(260,53.14285714285711)"><rect x="1" width="11.999999999999996" height="256.8571428571429"></rect></g><g class="bar" transform="translate(273,14.171428571428578)"><rect x="1" width="11.999999999999996" height="295.8285714285714"></rect></g><g class="bar" transform="translate(286,108.05714285714285)"><rect x="1" width="11.999999999999996" height="201.94285714285715"></rect></g><g class="bar" transform="translate(299.00000000000006,124)"><rect x="1" width="11.999999999999996" height="186"></rect></g><g class="bar" transform="translate(312.00000000000006,134.62857142857143)"><rect x="1" width="11.999999999999996" height="175.37142857142857"></rect></g><g class="bar" transform="translate(325,187.77142857142857)"><rect x="1" width="11.999999999999996" height="122.22857142857143"></rect></g><g class="bar" transform="translate(338,212.57142857142856)"><rect x="1" width="11.999999999999996" height="97.42857142857144"></rect></g><g class="bar" transform="translate(351,239.14285714285714)"><rect x="1" width="11.999999999999996" height="70.85714285714286"></rect></g><g class="bar" transform="translate(364.00000000000006,271.0285714285714)"><rect x="1" width="11.999999999999996" height="38.97142857142859"></rect></g><g class="bar" transform="translate(377.00000000000006,288.74285714285713)"><rect x="1" width="11.999999999999996" height="21.257142857142867"></rect></g><g class="bar" transform="translate(390,302.9142857142857)"><rect x="1" width="11.999999999999996" height="7.085714285714289"></rect></g><g class="bar" transform="translate(403,306.45714285714286)"><rect x="1" width="11.999999999999996" height="3.5428571428571445"></rect></g><g class="bar" transform="translate(416,306.45714285714286)"><rect x="1" width="11.999999999999996" height="3.5428571428571445"></rect></g><g class="bar" transform="translate(429.00000000000006,310)"><rect x="1" width="11.999999999999996" height="0"></rect></g><g class="bar" transform="translate(442.00000000000006,308.22857142857146)"><rect x="1" width="11.999999999999996" height="1.7714285714285438"></rect></g><g class="bar" transform="translate(455,310)"><rect x="1" width="11.999999999999996" height="0"></rect></g><g class="bar" transform="translate(468,310)"><rect x="1" width="11.999999999999996" height="0"></rect></g><g class="bar" transform="translate(481,310)"><rect x="1" width="11.999999999999996" height="0"></rect></g><g class="bar" transform="translate(494.00000000000006,310)"><rect x="1" width="11.999999999999996" height="0"></rect></g><g class="bar" transform="translate(507.00000000000006,310)"><rect x="1" width="11.999999999999996" height="0"></rect></g><g class="axis axis--x" transform="translate(0,310)" fill="none" font-size="10" font-family="sans-serif" text-anchor="middle"><path class="domain" stroke="#000" d="M0.5,6V0.5H520.5V6"></path><g class="tick" opacity="1" transform="translate(0,0)"><line stroke="#000" y2="6" x1="0.5" x2="0.5"></line><text fill="#000" y="9" x="0.5" dy="0.71em">0.01</text></g><g class="tick" opacity="1" transform="translate(130,0)"><line stroke="#000" y2="6" x1="0.5" x2="0.5"></line><text fill="#000" y="9" x="0.5" dy="0.71em">1</text></g><g class="tick" opacity="1" transform="translate(260,0)"><line stroke="#000" y2="6" x1="0.5" x2="0.5"></line><text fill="#000" y="9" x="0.5" dy="0.71em">100</text></g><g class="tick" opacity="1" transform="translate(390,0)"><line stroke="#000" y2="6" x1="0.5" x2="0.5"></line><text fill="#000" y="9" x="0.5" dy="0.71em">10000</text></g><g class="tick" opacity="1" transform="translate(520,0)"><line stroke="#000" y2="6" x1="0.5" x2="0.5"></line><text fill="#000" y="9" x="0.5" dy="0.71em"></text></g></g><g class="axis axis--y" fill="none" font-size="10" font-family="sans-serif" text-anchor="end"><path class="domain" stroke="#000" d="M-6,310.5H0.5V0.5H-6"></path><g class="tick" opacity="1" transform="translate(0,310)"><line stroke="#000" x2="-6" y1="0.5" y2="0.5"></line><text fill="#000" x="-9" y="0.5" dy="0.32em">0</text></g><g class="tick" opacity="1" transform="translate(0,274.57142857142856)"><line stroke="#000" x2="-6" y1="0.5" y2="0.5"></line><text fill="#000" x="-9" y="0.5" dy="0.32em">20</text></g><g class="tick" opacity="1" transform="translate(0,239.14285714285714)"><line stroke="#000" x2="-6" y1="0.5" y2="0.5"></line><text fill="#000" x="-9" y="0.5" dy="0.32em">40</text></g><g class="tick" opacity="1" transform="translate(0,203.71428571428572)"><line stroke="#000" x2="-6" y1="0.5" y2="0.5"></line><text fill="#000" x="-9" y="0.5" dy="0.32em">60</text></g><g class="tick" opacity="1" transform="translate(0,168.28571428571428)"><line stroke="#000" x2="-6" y1="0.5" y2="0.5"></line><text fill="#000" x="-9" y="0.5" dy="0.32em">80</text></g><g class="tick" opacity="1" transform="translate(0,132.85714285714286)"><line stroke="#000" x2="-6" y1="0.5" y2="0.5"></line><text fill="#000" x="-9" y="0.5" dy="0.32em">100</text></g><g class="tick" opacity="1" transform="translate(0,97.42857142857142)"><line stroke="#000" x2="-6" y1="0.5" y2="0.5"></line><text fill="#000" x="-9" y="0.5" dy="0.32em">120</text></g><g class="tick" opacity="1" transform="translate(0,62)"><line stroke="#000" x2="-6" y1="0.5" y2="0.5"></line><text fill="#000" x="-9" y="0.5" dy="0.32em">140</text></g><g class="tick" opacity="1" transform="translate(0,26.571428571428555)"><line stroke="#000" x2="-6" y1="0.5" y2="0.5"></line><text fill="#000" x="-9" y="0.5" dy="0.32em">160</text></g></g></g></svg>