<svg xmlns="http://www.w3.org/2000/svg" width="600" height="350"><defs><style type="text/css"><![CDATA[ 
.bar rect {
  fill-opacity: 0;
  stroke:       black;
  stroke-width: 0.5;
}

.highlight rect {
  fill:       red;
  fill-opacity: 1;
}
.axis path,
.axis line {
  fill: none;
  stroke: #000;
  shape-rendering: crispEdges;
}
path {
    stroke: red;
    fill: none;
}

line {
    stroke: red;
}

path.marker {
    fill: red;
}
 ]]></style></defs><g transform="translate(50,10)"><g class="bar" transform="translate(0,310)"><rect x="1" width="5.500000000000005" height="0"></rect></g><g class="bar" transform="translate(6.500000000000005,310)"><rect x="1" width="5.500000000000005" height="0"></rect></g><g class="bar" transform="translate(12.999999999999996,310)"><rect x="1" width="5.500000000000005" height="0"></rect></g><g class="bar" transform="translate(19.500000000000004,310)"><rect x="1" width="5.500000000000005" height="0"></rect></g><g class="bar" transform="translate(25.999999999999993,310)"><rect x="1" width="5.500000000000005" height="0"></rect></g><g class="bar" transform="translate(32.5,310)"><rect x="1" width="5.500000000000005" height="0"></rect></g><g class="bar" transform="translate(39.00000000000001,310)"><rect x="1" width="5.500000000000005" height="0"></rect></g><g class="bar" transform="translate(45.500000000000014,309.49263502454994)"><rect x="1" width="5.500000000000005" height="0.5073649754500593"></rect></g><g class="bar" transform="translate(52,310)"><rect x="1" width="5.500000000000005" height="0"></rect></g><g class="bar" transform="translate(58.49999999999999,310)"><rect x="1" width="5.500000000000005" height="0"></rect></g><g class="bar" transform="translate(65,310)"><rect x="1" width="5.500000000000005" height="0"></rect></g><g class="bar" transform="translate(71.5,310)"><rect x="1" width="5.500000000000005" height="0"></rect></g><g class="bar" transform="translate(78.00000000000001,310)"><rect x="1" width="5.500000000000005" height="0"></rect></g><g class="bar" transform="translate(84.5,310)"><rect x="1" width="5.500000000000005" height="0"></rect></g><g class="bar" transform="translate(91.00000000000001,309.74631751227497)"><rect x="1" width="5.500000000000005" height="0.25368248772502966"></rect></g><g class="bar" transform="translate(97.5,309.49263502454994)"><rect x="1" width="5.500000000000005" height="0.5073649754500593"></rect></g><g class="bar" transform="translate(104,308.22422258592474)"><rect x="1" width="5.500000000000005" height="1.7757774140752645"></rect></g><g class="bar" transform="translate(110.50000000000001,309.23895253682485)"><rect x="1" width="5.500000000000005" height="0.7610474631751458"></rect></g><g class="bar" transform="translate(117,308.22422258592474)"><rect x="1" width="5.500000000000005" height="1.7757774140752645"></rect></g><g class="bar" transform="translate(123.50000000000001,306.4484451718494)"><rect x="1" width="5.500000000000005" height="3.5515548281505858"></rect></g><g class="bar" transform="translate(130,306.1947626841244)"><rect x="1" width="5.500000000000005" height="3.8052373158756154"></rect></g><g class="bar" transform="translate(136.5,301.6284779050736)"><rect x="1" width="5.500000000000005" height="8.371522094926377"></rect></g><g class="bar" transform="translate(143,298.8379705400982)"><rect x="1" width="5.500000000000005" height="11.162029459901817"></rect></g><g class="bar" transform="translate(149.50000000000003,295.2864157119476)"><rect x="1" width="5.500000000000005" height="14.713584288052402"></rect></g><g class="bar" transform="translate(156.00000000000003,284.6317512274959)"><rect x="1" width="5.500000000000005" height="25.368248772504103"></rect></g><g class="bar" transform="translate(162.5,278.03600654664484)"><rect x="1" width="5.500000000000005" height="31.963993453355158"></rect></g><g class="bar" transform="translate(169,263.0687397708674)"><rect x="1" width="5.500000000000005" height="46.93126022913259"></rect></g><g class="bar" transform="translate(175.5,254.95090016366612)"><rect x="1" width="5.500000000000005" height="55.04909983633388"></rect></g><g class="bar" transform="translate(182.00000000000003,228.06055646481178)"><rect x="1" width="5.500000000000005" height="81.93944353518822"></rect></g><g class="bar" transform="translate(188.50000000000003,183.9198036006547)"><rect x="1" width="5.500000000000005" height="126.08019639934531"></rect></g><g class="bar" transform="translate(195,148.40425531914892)"><rect x="1" width="5.500000000000005" height="161.59574468085108"></rect></g><g class="bar" transform="translate(201.5,98.17512274959083)"><rect x="1" width="5.500000000000005" height="211.82487725040917"></rect></g><g class="bar" transform="translate(208,62.65957446808511)"><rect x="1" width="5.500000000000005" height="247.3404255319149"></rect></g><g class="bar" transform="translate(214.50000000000003,10.147299509001641)"><rect x="1" width="5.500000000000005" height="299.85270049099836"></rect></g><g class="bar" transform="translate(221.00000000000003,0)"><rect x="1" width="5.500000000000005" height="310"></rect></g><g class="bar" transform="translate(227.5,8.37152209492632)"><rect x="1" width="5.500000000000005" height="301.6284779050737"></rect></g><g class="bar" transform="translate(234,38.55973813420621)"><rect x="1" width="5.500000000000005" height="271.4402618657938"></rect></g><g class="bar" transform="translate(240.5,64.18166939443537)"><rect x="1" width="5.500000000000005" height="245.81833060556463"></rect></g><g class="bar" transform="translate(247.00000000000003,104.0098199672668)"><rect x="1" width="5.500000000000005" height="205.9901800327332"></rect></g><g class="bar" transform="translate(253.50000000000003,159.56628477905073)"><rect x="1" width="5.500000000000005" height="150.43371522094927"></rect></g><g class="bar" transform="translate(260,189.7545008183306)"><rect x="1" width="5.500000000000005" height="120.2454991816694"></rect></g><g class="bar" transform="translate(266.50000000000006,221.97217675941081)"><rect x="1" width="5.500000000000005" height="88.02782324058919"></rect></g><g class="bar" transform="translate(273,242.77414075286416)"><rect x="1" width="5.500000000000005" height="67.22585924713584"></rect></g><g class="bar" transform="translate(279.5,266.620294599018)"><rect x="1" width="5.500000000000005" height="43.379705400982004"></rect></g><g class="bar" transform="translate(286,282.6022913256956)"><rect x="1" width="5.500000000000005" height="27.397708674304397"></rect></g><g class="bar" transform="translate(292.5,284.6317512274959)"><rect x="1" width="5.500000000000005" height="25.368248772504103"></rect></g><g class="bar" transform="translate(299.00000000000006,295.7937806873977)"><rect x="1" width="5.500000000000005" height="14.206219312602286"></rect></g><g class="bar" transform="translate(305.5,297.31587561374795)"><rect x="1" width="5.500000000000005" height="12.684124386252051"></rect></g><g class="bar" transform="translate(312.00000000000006,298.3306055646481)"><rect x="1" width="5.500000000000005" height="11.669394435351876"></rect></g><g class="bar" transform="translate(318.5,301.6284779050736)"><rect x="1" width="5.500000000000005" height="8.371522094926377"></rect></g><g class="bar" transform="translate(325,304.16530278232403)"><rect x="1" width="5.500000000000005" height="5.834697217675966"></rect></g><g class="bar" transform="translate(331.50000000000006,306.1947626841244)"><rect x="1" width="5.500000000000005" height="3.8052373158756154"></rect></g><g class="bar" transform="translate(338,304.4189852700491)"><rect x="1" width="5.500000000000005" height="5.58101472995088"></rect></g><g class="bar" transform="translate(344.50000000000006,306.70212765957444)"><rect x="1" width="5.500000000000005" height="3.297872340425556"></rect></g><g class="bar" transform="translate(351,306.4484451718494)"><rect x="1" width="5.500000000000005" height="3.5515548281505858"></rect></g><g class="bar" transform="translate(357.5,307.97054009819965)"><rect x="1" width="5.500000000000005" height="2.029459901800351"></rect></g><g class="bar" transform="translate(364.00000000000006,308.7315875613748)"><rect x="1" width="5.500000000000005" height="1.2684124386252051"></rect></g><g class="bar" transform="translate(370.5,309.23895253682485)"><rect x="1" width="5.500000000000005" height="0.7610474631751458"></rect></g><g class="bar" transform="translate(377.00000000000006,309.49263502454994)"><rect x="1" width="5.500000000000005" height="0.5073649754500593"></rect></g><g class="bar" transform="translate(383.5,309.49263502454994)"><rect x="1" width="5.500000000000005" height="0.5073649754500593"></rect></g><g class="bar" transform="translate(390,310)"><rect x="1" width="5.500000000000005" height="0"></rect></g><g class="bar" transform="translate(396.50000000000006,310)"><rect x="1" width="5.500000000000005" height="0"></rect></g><g class="bar" transform="translate(403,309.74631751227497)"><rect x="1" width="5.500000000000005" height="0.25368248772502966"></rect></g><g class="bar" transform="translate(409.50000000000006,310)"><rect x="1" width="5.500000000000005" height="0"></rect></g><g class="bar" transform="translate(416,310)"><rect x="1" width="5.500000000000005" height="0"></rect></g><g class="bar" transform="translate(422.5,310)"><rect x="1" width="5.500000000000005" height="0"></rect></g><g class="bar" transform="translate(429.00000000000006,310)"><rect x="1" width="5.500000000000005" height="0"></rect></g><g class="bar" transform="translate(435.5,310)"><rect x="1" width="5.500000000000005" height="0"></rect></g><g class="bar" transform="translate(442.00000000000006,310)"><rect x="1" width="5.500000000000005" height="0"></rect></g><g class="bar" transform="translate(448.5,310)"><rect x="1" width="5.500000000000005" height="0"></rect></g><g class="bar" transform="translate(455,310)"><rect x="1" width="5.500000000000005" height="0"></rect></g><g class="bar" transform="translate(461.50000000000006,310)"><rect x="1" width="5.500000000000005" height="0"></rect></g><g class="bar" transform="translate(468,310)"><rect x="1" width="5.500000000000005" height="0"></rect></g><g class="bar" transform="translate(474.50000000000006,310)"><rect x="1" width="5.500000000000005" height="0"></rect></g><g class="bar" transform="translate(481,310)"><rect x="1" width="5.500000000000005" height="0"></rect></g><g class="bar" transform="translate(487.5,310)"><rect x="1" width="5.500000000000005" height="0"></rect></g><g class="bar" transform="translate(494.00000000000006,310)"><rect x="1" width="5.500000000000005" height="0"></rect></g><g class="bar" transform="translate(500.5,310)"><rect x="1" width="5.500000000000005" height="0"></rect></g><g class="bar" transform="translate(507.00000000000006,310)"><rect x="1" width="5.500000000000005" height="0"></rect></g><g class="bar" transform="translate(513.5,310)"><rect x="1" width="5.500000000000005" height="0"></rect></g><g class="axis axis--x" transform="translate(0,310)" fill="none" font-size="10" font-family="sans-serif" text-anchor="middle"><path class="domain" stroke="#000" d="M0.5,6V0.5H520.5V6"></path><g class="tick" opacity="1" transform="translate(0.5,0)"><line stroke="#000" y2="6"></line><text fill="#000" y="9" dy="0.71em">0.01</text></g><g class="tick" opacity="1" transform="translate(130.5,0)"><line stroke="#000" y2="6"></line><text fill="#000" y="9" dy="0.71em">1</text></g><g class="tick" opacity="1" transform="translate(260.5,0)"><line stroke="#000" y2="6"></line><text fill="#000" y="9" dy="0.71em">100</text></g><g class="tick" opacity="1" transform="translate(390.5,0)"><line stroke="#000" y2="6"></line><text fill="#000" y="9" dy="0.71em">10000</text></g><g class="tick" opacity="1" transform="translate(520.5,0)"><line stroke="#000" y2="6"></line><text fill="#000" y="9" dy="0.71em"></text></g></g><g class="axis axis--y" fill="none" font-size="10" font-family="sans-serif" text-anchor="end"><path class="domain" stroke="#000" d="M-6,310.5H0.5V0.5H-6"></path><g class="tick" opacity="1" transform="translate(0,310.5)"><line stroke="#000" x2="-6"></line><text fill="#000" x="-9" dy="0.32em">0</text></g><g class="tick" opacity="1" transform="translate(0,285.1317512274959)"><line stroke="#000" x2="-6"></line><text fill="#000" x="-9" dy="0.32em">100</text></g><g class="tick" opacity="1" transform="translate(0,259.7635024549918)"><line stroke="#000" x2="-6"></line><text fill="#000" x="-9" dy="0.32em">200</text></g><g class="tick" opacity="1" transform="translate(0,234.39525368248772)"><line stroke="#000" x2="-6"></line><text fill="#000" x="-9" dy="0.32em">300</text></g><g class="tick" opacity="1" transform="translate(0,209.02700490998365)"><line stroke="#000" x2="-6"></line><text fill="#000" x="-9" dy="0.32em">400</text></g><g class="tick" opacity="1" transform="translate(0,183.65875613747954)"><line stroke="#000" x2="-6"></line><text fill="#000" x="-9" dy="0.32em">500</text></g><g class="tick" opacity="1" transform="translate(0,158.29050736497544)"><line stroke="#000" x2="-6"></line><text fill="#000" x="-9" dy="0.32em">600</text></g><g class="tick" opacity="1" transform="translate(0,132.92225859247137)"><line stroke="#000" x2="-6"></line><text fill="#000" x="-9" dy="0.32em">700</text></g><g class="tick" opacity="1" transform="translate(0,107.55400981996726)"><line stroke="#000" x2="-6"></line><text fill="#000" x="-9" dy="0.32em">800</text></g><g class="tick" opacity="1" transform="translate(0,82.18576104746316)"><line stroke="#000" x2="-6"></line><text fill="#000" x="-9" dy="0.32em">900</text></g><g class="tick" opacity="1" transform="translate(0,56.817512274959086)"><line stroke="#000" x2="-6"></line><text fill="#000" x="-9" dy="0.32em">1,000</text></g><g class="tick" opacity="1" transform="translate(0,31.449263502454983)"><line stroke="#000" x2="-6"></line><text fill="#000" x="-9" dy="0.32em">1,100</text></g><g class="tick" opacity="1" transform="translate(0,6.08101472995088)"><line stroke="#000" x2="-6"></line><text fill="#000" x="-9" dy="0.32em">1,200</text></g></g></g></svg>