<svg xmlns="http://www.w3.org/2000/svg" width="600" height="350"><defs><style type="text/css"><![CDATA[ 
.bar rect {
  fill-opacity: 0;
  stroke:       black;
  stroke-width: 0.5;
}

.highlight rect {
  fill:       red;
  fill-opacity: 1;
}
.axis path,
.axis line {
  fill: none;
  stroke: #000;
  shape-rendering: crispEdges;
}
 ]]></style></defs><g transform="translate(50,10)"><g class="bar" transform="translate(0,310)"><rect x="1" width="11.999999999999996" height="0"></rect></g><g class="bar" transform="translate(12.999999999999996,305.69444444444446)"><rect x="1" width="11.999999999999996" height="4.305555555555543"></rect></g><g class="bar" transform="translate(25.999999999999993,308.9236111111111)"><rect x="1" width="11.999999999999996" height="1.0763888888889142"></rect></g><g class="bar" transform="translate(39.00000000000001,301.3888888888889)"><rect x="1" width="11.999999999999996" height="8.611111111111086"></rect></g><g class="bar" transform="translate(52,294.93055555555554)"><rect x="1" width="11.999999999999996" height="15.069444444444457"></rect></g><g class="bar" transform="translate(65,262.6388888888889)"><rect x="1" width="11.999999999999996" height="47.361111111111086"></rect></g><g class="bar" transform="translate(78.00000000000001,250.79861111111111)"><rect x="1" width="11.999999999999996" height="59.201388888888886"></rect></g><g class="bar" transform="translate(91.00000000000001,209.89583333333331)"><rect x="1" width="11.999999999999996" height="100.10416666666669"></rect></g><g class="bar" transform="translate(104,113.02083333333334)"><rect x="1" width="11.999999999999996" height="196.97916666666666"></rect></g><g class="bar" transform="translate(117,90.41666666666666)"><rect x="1" width="11.999999999999996" height="219.58333333333334"></rect></g><g class="bar" transform="translate(130,69.96527777777777)"><rect x="1" width="11.999999999999996" height="240.03472222222223"></rect></g><g class="bar" transform="translate(143,41.97916666666663)"><rect x="1" width="11.999999999999996" height="268.02083333333337"></rect></g><g class="bar" transform="translate(156.00000000000003,9.6875)"><rect x="1" width="11.999999999999996" height="300.3125"></rect></g><g class="bar" transform="translate(169,12.916666666666629)"><rect x="1" width="11.999999999999996" height="297.08333333333337"></rect></g><g class="bar" transform="translate(182.00000000000003,0)"><rect x="1" width="11.999999999999996" height="310"></rect></g><g class="bar" transform="translate(195,48.4375)"><rect x="1" width="11.999999999999996" height="261.5625"></rect></g><g class="bar" transform="translate(208,39.82638888888886)"><rect x="1" width="11.999999999999996" height="270.17361111111114"></rect></g><g class="bar" transform="translate(221.00000000000003,18.298611111111143)"><rect x="1" width="11.999999999999996" height="291.70138888888886"></rect></g><g class="bar" transform="translate(234,20.451388888888857)"><rect x="1" width="11.999999999999996" height="289.54861111111114"></rect></g><g class="bar" transform="translate(247.00000000000003,25.83333333333337)"><rect x="1" width="11.999999999999996" height="284.16666666666663"></rect></g><g class="bar" transform="translate(260,9.6875)"><rect x="1" width="11.999999999999996" height="300.3125"></rect></g><g class="bar" transform="translate(273,79.65277777777777)"><rect x="1" width="11.999999999999996" height="230.34722222222223"></rect></g><g class="bar" transform="translate(286,79.65277777777777)"><rect x="1" width="11.999999999999996" height="230.34722222222223"></rect></g><g class="bar" transform="translate(299.00000000000006,113.02083333333334)"><rect x="1" width="11.999999999999996" height="196.97916666666666"></rect></g><g class="bar" transform="translate(312.00000000000006,144.23611111111111)"><rect x="1" width="11.999999999999996" height="165.76388888888889"></rect></g><g class="bar" transform="translate(325,235.72916666666666)"><rect x="1" width="11.999999999999996" height="74.27083333333334"></rect></g><g class="bar" transform="translate(338,245.41666666666666)"><rect x="1" width="11.999999999999996" height="64.58333333333334"></rect></g><g class="bar" transform="translate(351,269.09722222222223)"><rect x="1" width="11.999999999999996" height="40.90277777777777"></rect></g><g class="bar" transform="translate(364.00000000000006,293.8541666666667)"><rect x="1" width="11.999999999999996" height="16.145833333333314"></rect></g><g class="bar" transform="translate(377.00000000000006,294.93055555555554)"><rect x="1" width="11.999999999999996" height="15.069444444444457"></rect></g><g class="bar" transform="translate(390,305.69444444444446)"><rect x="1" width="11.999999999999996" height="4.305555555555543"></rect></g><g class="bar" transform="translate(403,308.9236111111111)"><rect x="1" width="11.999999999999996" height="1.0763888888889142"></rect></g><g class="bar" transform="translate(416,310)"><rect x="1" width="11.999999999999996" height="0"></rect></g><g class="bar" transform="translate(429.00000000000006,310)"><rect x="1" width="11.999999999999996" height="0"></rect></g><g class="bar" transform="translate(442.00000000000006,310)"><rect x="1" width="11.999999999999996" height="0"></rect></g><g class="bar" transform="translate(455,310)"><rect x="1" width="11.999999999999996" height="0"></rect></g><g class="bar" transform="translate(468,310)"><rect x="1" width="11.999999999999996" height="0"></rect></g><g class="bar" transform="translate(481,310)"><rect x="1" width="11.999999999999996" height="0"></rect></g><g class="bar" transform="translate(494.00000000000006,310)"><rect x="1" width="11.999999999999996" height="0"></rect></g><g class="bar" transform="translate(507.00000000000006,310)"><rect x="1" width="11.999999999999996" height="0"></rect></g><g class="axis axis--x" transform="translate(0,310)" fill="none" font-size="10" font-family="sans-serif" text-anchor="middle"><path class="domain" stroke="#000" d="M0.5,6V0.5H520.5V6"></path><g class="tick" opacity="1" transform="translate(0,0)"><line stroke="#000" y2="6" x1="0.5" x2="0.5"></line><text fill="#000" y="9" x="0.5" dy="0.71em">0.01</text></g><g class="tick" opacity="1" transform="translate(130,0)"><line stroke="#000" y2="6" x1="0.5" x2="0.5"></line><text fill="#000" y="9" x="0.5" dy="0.71em">1</text></g><g class="tick" opacity="1" transform="translate(260,0)"><line stroke="#000" y2="6" x1="0.5" x2="0.5"></line><text fill="#000" y="9" x="0.5" dy="0.71em">100</text></g><g class="tick" opacity="1" transform="translate(390,0)"><line stroke="#000" y2="6" x1="0.5" x2="0.5"></line><text fill="#000" y="9" x="0.5" dy="0.71em">10000</text></g><g class="tick" opacity="1" transform="translate(520,0)"><line stroke="#000" y2="6" x1="0.5" x2="0.5"></line><text fill="#000" y="9" x="0.5" dy="0.71em"></text></g></g><g class="axis axis--y" fill="none" font-size="10" font-family="sans-serif" text-anchor="end"><path class="domain" stroke="#000" d="M-6,310.5H0.5V0.5H-6"></path><g class="tick" opacity="1" transform="translate(0,310)"><line stroke="#000" x2="-6" y1="0.5" y2="0.5"></line><text fill="#000" x="-9" y="0.5" dy="0.32em">0</text></g><g class="tick" opacity="1" transform="translate(0,288.47222222222223)"><line stroke="#000" x2="-6" y1="0.5" y2="0.5"></line><text fill="#000" x="-9" y="0.5" dy="0.32em">20</text></g><g class="tick" opacity="1" transform="translate(0,266.94444444444446)"><line stroke="#000" x2="-6" y1="0.5" y2="0.5"></line><text fill="#000" x="-9" y="0.5" dy="0.32em">40</text></g><g class="tick" opacity="1" transform="translate(0,245.41666666666666)"><line stroke="#000" x2="-6" y1="0.5" y2="0.5"></line><text fill="#000" x="-9" y="0.5" dy="0.32em">60</text></g><g class="tick" opacity="1" transform="translate(0,223.88888888888889)"><line stroke="#000" x2="-6" y1="0.5" y2="0.5"></line><text fill="#000" x="-9" y="0.5" dy="0.32em">80</text></g><g class="tick" opacity="1" transform="translate(0,202.36111111111111)"><line stroke="#000" x2="-6" y1="0.5" y2="0.5"></line><text fill="#000" x="-9" y="0.5" dy="0.32em">100</text></g><g class="tick" opacity="1" transform="translate(0,180.83333333333331)"><line stroke="#000" x2="-6" y1="0.5" y2="0.5"></line><text fill="#000" x="-9" y="0.5" dy="0.32em">120</text></g><g class="tick" opacity="1" transform="translate(0,159.30555555555557)"><line stroke="#000" x2="-6" y1="0.5" y2="0.5"></line><text fill="#000" x="-9" y="0.5" dy="0.32em">140</text></g><g class="tick" opacity="1" transform="translate(0,137.77777777777777)"><line stroke="#000" x2="-6" y1="0.5" y2="0.5"></line><text fill="#000" x="-9" y="0.5" dy="0.32em">160</text></g><g class="tick" opacity="1" transform="translate(0,116.25)"><line stroke="#000" x2="-6" y1="0.5" y2="0.5"></line><text fill="#000" x="-9" y="0.5" dy="0.32em">180</text></g><g class="tick" opacity="1" transform="translate(0,94.72222222222223)"><line stroke="#000" x2="-6" y1="0.5" y2="0.5"></line><text fill="#000" x="-9" y="0.5" dy="0.32em">200</text></g><g class="tick" opacity="1" transform="translate(0,73.19444444444446)"><line stroke="#000" x2="-6" y1="0.5" y2="0.5"></line><text fill="#000" x="-9" y="0.5" dy="0.32em">220</text></g><g class="tick" opacity="1" transform="translate(0,51.66666666666663)"><line stroke="#000" x2="-6" y1="0.5" y2="0.5"></line><text fill="#000" x="-9" y="0.5" dy="0.32em">240</text></g><g class="tick" opacity="1" transform="translate(0,30.138888888888857)"><line stroke="#000" x2="-6" y1="0.5" y2="0.5"></line><text fill="#000" x="-9" y="0.5" dy="0.32em">260</text></g><g class="tick" opacity="1" transform="translate(0,8.611111111111143)"><line stroke="#000" x2="-6" y1="0.5" y2="0.5"></line><text fill="#000" x="-9" y="0.5" dy="0.32em">280</text></g></g></g></svg>