<svg xmlns="http://www.w3.org/2000/svg" width="600" height="350"><defs><style type="text/css"><![CDATA[ 
.bar rect {
  fill-opacity: 0;
  stroke:       black;
  stroke-width: 0.5;
}

.highlight rect {
  fill:       red;
  fill-opacity: 1;
}
.axis path,
.axis line {
  fill: none;
  stroke: #000;
  shape-rendering: crispEdges;
}
path {
    stroke: red;
    fill: none;
}

line {
    stroke: red;
}

path.marker {
    fill: red;
}
 ]]></style></defs><g transform="translate(50,10)"><g class="bar" transform="translate(0,310)"><rect x="1" width="11.999999999999996" height="0"></rect></g><g class="bar" transform="translate(12.999999999999996,310)"><rect x="1" width="11.999999999999996" height="0"></rect></g><g class="bar" transform="translate(25.999999999999993,310)"><rect x="1" width="11.999999999999996" height="0"></rect></g><g class="bar" transform="translate(39.00000000000001,310)"><rect x="1" width="11.999999999999996" height="0"></rect></g><g class="bar" transform="translate(52,310)"><rect x="1" width="11.999999999999996" height="0"></rect></g><g class="bar" transform="translate(65,310)"><rect x="1" width="11.999999999999996" height="0"></rect></g><g class="bar" transform="translate(78.00000000000001,310)"><rect x="1" width="11.999999999999996" height="0"></rect></g><g class="bar" transform="translate(91.00000000000001,310)"><rect x="1" width="11.999999999999996" height="0"></rect></g><g class="bar" transform="translate(104,310)"><rect x="1" width="11.999999999999996" height="0"></rect></g><g class="bar" transform="translate(117,307.7857142857143)"><rect x="1" width="11.999999999999996" height="2.2142857142857224"></rect></g><g class="bar" transform="translate(130,307.7857142857143)"><rect x="1" width="11.999999999999996" height="2.2142857142857224"></rect></g><g class="bar" transform="translate(143,303.35714285714283)"><rect x="1" width="11.999999999999996" height="6.642857142857167"></rect></g><g class="bar" transform="translate(156.00000000000003,294.5)"><rect x="1" width="11.999999999999996" height="15.5"></rect></g><g class="bar" transform="translate(169,274.57142857142856)"><rect x="1" width="11.999999999999996" height="35.428571428571445"></rect></g><g class="bar" transform="translate(182.00000000000003,228.07142857142856)"><rect x="1" width="11.999999999999996" height="81.92857142857144"></rect></g><g class="bar" transform="translate(195,221.42857142857144)"><rect x="1" width="11.999999999999996" height="88.57142857142856"></rect></g><g class="bar" transform="translate(208,177.14285714285714)"><rect x="1" width="11.999999999999996" height="132.85714285714286"></rect></g><g class="bar" transform="translate(221.00000000000003,157.2142857142857)"><rect x="1" width="11.999999999999996" height="152.7857142857143"></rect></g><g class="bar" transform="translate(234,99.64285714285714)"><rect x="1" width="11.999999999999996" height="210.35714285714286"></rect></g><g class="bar" transform="translate(247.00000000000003,22.14285714285711)"><rect x="1" width="11.999999999999996" height="287.8571428571429"></rect></g><g class="bar" transform="translate(260,37.64285714285717)"><rect x="1" width="11.999999999999996" height="272.35714285714283"></rect></g><g class="bar" transform="translate(273,70.85714285714283)"><rect x="1" width="11.999999999999996" height="239.14285714285717"></rect></g><g class="bar" transform="translate(286,55.35714285714286)"><rect x="1" width="11.999999999999996" height="254.64285714285714"></rect></g><g class="bar" transform="translate(299.00000000000006,28.785714285714278)"><rect x="1" width="11.999999999999996" height="281.2142857142857"></rect></g><g class="bar" transform="translate(312.00000000000006,0)"><rect x="1" width="11.999999999999996" height="310"></rect></g><g class="bar" transform="translate(325,106.28571428571428)"><rect x="1" width="11.999999999999996" height="203.71428571428572"></rect></g><g class="bar" transform="translate(338,157.2142857142857)"><rect x="1" width="11.999999999999996" height="152.7857142857143"></rect></g><g class="bar" transform="translate(351,214.78571428571428)"><rect x="1" width="11.999999999999996" height="95.21428571428572"></rect></g><g class="bar" transform="translate(364.00000000000006,230.28571428571428)"><rect x="1" width="11.999999999999996" height="79.71428571428572"></rect></g><g class="bar" transform="translate(377.00000000000006,274.57142857142856)"><rect x="1" width="11.999999999999996" height="35.428571428571445"></rect></g><g class="bar" transform="translate(390,307.7857142857143)"><rect x="1" width="11.999999999999996" height="2.2142857142857224"></rect></g><g class="bar" transform="translate(403,307.7857142857143)"><rect x="1" width="11.999999999999996" height="2.2142857142857224"></rect></g><g class="bar" transform="translate(416,310)"><rect x="1" width="11.999999999999996" height="0"></rect></g><g class="bar" transform="translate(429.00000000000006,310)"><rect x="1" width="11.999999999999996" height="0"></rect></g><g class="bar" transform="translate(442.00000000000006,310)"><rect x="1" width="11.999999999999996" height="0"></rect></g><g class="bar" transform="translate(455,310)"><rect x="1" width="11.999999999999996" height="0"></rect></g><g class="bar" transform="translate(468,310)"><rect x="1" width="11.999999999999996" height="0"></rect></g><g class="bar" transform="translate(481,310)"><rect x="1" width="11.999999999999996" height="0"></rect></g><g class="bar" transform="translate(494.00000000000006,310)"><rect x="1" width="11.999999999999996" height="0"></rect></g><g class="bar" transform="translate(507.00000000000006,310)"><rect x="1" width="11.999999999999996" height="0"></rect></g><g class="axis axis--x" transform="translate(0,310)" fill="none" font-size="10" font-family="sans-serif" text-anchor="middle"><path class="domain" stroke="#000" d="M0.5,6V0.5H520.5V6"></path><g class="tick" opacity="1" transform="translate(0.5,0)"><line stroke="#000" y2="6"></line><text fill="#000" y="9" dy="0.71em">0.01</text></g><g class="tick" opacity="1" transform="translate(130.5,0)"><line stroke="#000" y2="6"></line><text fill="#000" y="9" dy="0.71em">1</text></g><g class="tick" opacity="1" transform="translate(260.5,0)"><line stroke="#000" y2="6"></line><text fill="#000" y="9" dy="0.71em">100</text></g><g class="tick" opacity="1" transform="translate(390.5,0)"><line stroke="#000" y2="6"></line><text fill="#000" y="9" dy="0.71em">10000</text></g><g class="tick" opacity="1" transform="translate(520.5,0)"><line stroke="#000" y2="6"></line><text fill="#000" y="9" dy="0.71em"></text></g></g><g class="axis axis--y" fill="none" font-size="10" font-family="sans-serif" text-anchor="end"><path class="domain" stroke="#000" d="M-6,310.5H0.5V0.5H-6"></path><g class="tick" opacity="1" transform="translate(0,310.5)"><line stroke="#000" x2="-6"></line><text fill="#000" x="-9" dy="0.32em">0</text></g><g class="tick" opacity="1" transform="translate(0,288.35714285714283)"><line stroke="#000" x2="-6"></line><text fill="#000" x="-9" dy="0.32em">10</text></g><g class="tick" opacity="1" transform="translate(0,266.2142857142857)"><line stroke="#000" x2="-6"></line><text fill="#000" x="-9" dy="0.32em">20</text></g><g class="tick" opacity="1" transform="translate(0,244.07142857142856)"><line stroke="#000" x2="-6"></line><text fill="#000" x="-9" dy="0.32em">30</text></g><g class="tick" opacity="1" transform="translate(0,221.92857142857144)"><line stroke="#000" x2="-6"></line><text fill="#000" x="-9" dy="0.32em">40</text></g><g class="tick" opacity="1" transform="translate(0,199.78571428571428)"><line stroke="#000" x2="-6"></line><text fill="#000" x="-9" dy="0.32em">50</text></g><g class="tick" opacity="1" transform="translate(0,177.64285714285714)"><line stroke="#000" x2="-6"></line><text fill="#000" x="-9" dy="0.32em">60</text></g><g class="tick" opacity="1" transform="translate(0,155.5)"><line stroke="#000" x2="-6"></line><text fill="#000" x="-9" dy="0.32em">70</text></g><g class="tick" opacity="1" transform="translate(0,133.35714285714286)"><line stroke="#000" x2="-6"></line><text fill="#000" x="-9" dy="0.32em">80</text></g><g class="tick" opacity="1" transform="translate(0,111.2142857142857)"><line stroke="#000" x2="-6"></line><text fill="#000" x="-9" dy="0.32em">90</text></g><g class="tick" opacity="1" transform="translate(0,89.07142857142856)"><line stroke="#000" x2="-6"></line><text fill="#000" x="-9" dy="0.32em">100</text></g><g class="tick" opacity="1" transform="translate(0,66.92857142857144)"><line stroke="#000" x2="-6"></line><text fill="#000" x="-9" dy="0.32em">110</text></g><g class="tick" opacity="1" transform="translate(0,44.78571428571428)"><line stroke="#000" x2="-6"></line><text fill="#000" x="-9" dy="0.32em">120</text></g><g class="tick" opacity="1" transform="translate(0,22.64285714285711)"><line stroke="#000" x2="-6"></line><text fill="#000" x="-9" dy="0.32em">130</text></g><g class="tick" opacity="1" transform="translate(0,0.5)"><line stroke="#000" x2="-6"></line><text fill="#000" x="-9" dy="0.32em">140</text></g></g></g></svg>