<svg xmlns="http://www.w3.org/2000/svg" width="600" height="350"><defs><style type="text/css"><![CDATA[ 
.bar rect {
  fill-opacity: 0;
  stroke:       black;
  stroke-width: 0.5;
}

.highlight rect {
  fill:       red;
  fill-opacity: 1;
}
.axis path,
.axis line {
  fill: none;
  stroke: #000;
  shape-rendering: crispEdges;
}
 ]]></style></defs><g transform="translate(50,10)"><g class="bar" transform="translate(0,310)"><rect x="1" width="11.999999999999996" height="0"></rect></g><g class="bar" transform="translate(12.999999999999996,310)"><rect x="1" width="11.999999999999996" height="0"></rect></g><g class="bar" transform="translate(25.999999999999993,310)"><rect x="1" width="11.999999999999996" height="0"></rect></g><g class="bar" transform="translate(39.00000000000001,310)"><rect x="1" width="11.999999999999996" height="0"></rect></g><g class="bar" transform="translate(52,310)"><rect x="1" width="11.999999999999996" height="0"></rect></g><g class="bar" transform="translate(65,310)"><rect x="1" width="11.999999999999996" height="0"></rect></g><g class="bar" transform="translate(78.00000000000001,309.8566805362922)"><rect x="1" width="11.999999999999996" height="0.1433194637078259"></rect></g><g class="bar" transform="translate(91.00000000000001,300.11095700416087)"><rect x="1" width="11.999999999999996" height="9.889042995839134"></rect></g><g class="bar" transform="translate(104,0)"><rect x="1" width="11.999999999999996" height="310"></rect></g><g class="bar" transform="translate(117,257.40175681923256)"><rect x="1" width="11.999999999999996" height="52.59824318076744"></rect></g><g class="bar" transform="translate(130,257.68839574664815)"><rect x="1" width="11.999999999999996" height="52.311604253351845"></rect></g><g class="bar" transform="translate(143,245.64956079519186)"><rect x="1" width="11.999999999999996" height="64.35043920480814"></rect></g><g class="bar" transform="translate(156.00000000000003,252.95885344429033)"><rect x="1" width="11.999999999999996" height="57.04114655570967"></rect></g><g class="bar" transform="translate(169,254.6786870087841)"><rect x="1" width="11.999999999999996" height="55.321312991215905"></rect></g><g class="bar" transform="translate(182.00000000000003,252.24225612575128)"><rect x="1" width="11.999999999999996" height="57.75774387424872"></rect></g><g class="bar" transform="translate(195,251.95561719833563)"><rect x="1" width="11.999999999999996" height="58.04438280166437"></rect></g><g class="bar" transform="translate(208,251.5256588072122)"><rect x="1" width="11.999999999999996" height="58.47434119278779"></rect></g><g class="bar" transform="translate(221.00000000000003,257.40175681923256)"><rect x="1" width="11.999999999999996" height="52.59824318076744"></rect></g><g class="bar" transform="translate(234,266.28756356911697)"><rect x="1" width="11.999999999999996" height="43.71243643088303"></rect></g><g class="bar" transform="translate(247.00000000000003,271.1604253351826)"><rect x="1" width="11.999999999999996" height="38.839574664817405"></rect></g><g class="bar" transform="translate(260,277.753120665742)"><rect x="1" width="11.999999999999996" height="32.24687933425798"></rect></g><g class="bar" transform="translate(273,288.78871937124364)"><rect x="1" width="11.999999999999996" height="21.211280628756356"></rect></g><g class="bar" transform="translate(286,288.93203883495147)"><rect x="1" width="11.999999999999996" height="21.06796116504853"></rect></g><g class="bar" transform="translate(299.00000000000006,295.9546925566343)"><rect x="1" width="11.999999999999996" height="14.045307443365687"></rect></g><g class="bar" transform="translate(312.00000000000006,299.3943596856218)"><rect x="1" width="11.999999999999996" height="10.605640314378206"></rect></g><g class="bar" transform="translate(325,300.54091539528434)"><rect x="1" width="11.999999999999996" height="9.459084604715656"></rect></g><g class="bar" transform="translate(338,305.27045769764214)"><rect x="1" width="11.999999999999996" height="4.729542302357856"></rect></g><g class="bar" transform="translate(351,308.28016643550626)"><rect x="1" width="11.999999999999996" height="1.7198335644937401"></rect></g><g class="bar" transform="translate(364.00000000000006,308.56680536292185)"><rect x="1" width="11.999999999999996" height="1.4331946370781452"></rect></g><g class="bar" transform="translate(377.00000000000006,308.99676375404533)"><rect x="1" width="11.999999999999996" height="1.0032362459546675"></rect></g><g class="bar" transform="translate(390,308.42348589921403)"><rect x="1" width="11.999999999999996" height="1.576514100785971"></rect></g><g class="bar" transform="translate(403,307.9935275080906)"><rect x="1" width="11.999999999999996" height="2.006472491909392"></rect></g><g class="bar" transform="translate(416,310)"><rect x="1" width="11.999999999999996" height="0"></rect></g><g class="bar" transform="translate(429.00000000000006,310)"><rect x="1" width="11.999999999999996" height="0"></rect></g><g class="bar" transform="translate(442.00000000000006,310)"><rect x="1" width="11.999999999999996" height="0"></rect></g><g class="bar" transform="translate(455,310)"><rect x="1" width="11.999999999999996" height="0"></rect></g><g class="bar" transform="translate(468,310)"><rect x="1" width="11.999999999999996" height="0"></rect></g><g class="bar" transform="translate(481,310)"><rect x="1" width="11.999999999999996" height="0"></rect></g><g class="bar" transform="translate(494.00000000000006,310)"><rect x="1" width="11.999999999999996" height="0"></rect></g><g class="bar" transform="translate(507.00000000000006,310)"><rect x="1" width="11.999999999999996" height="0"></rect></g><g class="axis axis--x" transform="translate(0,310)" fill="none" font-size="10" font-family="sans-serif" text-anchor="middle"><path class="domain" stroke="#000" d="M0.5,6V0.5H520.5V6"></path><g class="tick" opacity="1" transform="translate(0,0)"><line stroke="#000" y2="6" x1="0.5" x2="0.5"></line><text fill="#000" y="9" x="0.5" dy="0.71em">0.01</text></g><g class="tick" opacity="1" transform="translate(130,0)"><line stroke="#000" y2="6" x1="0.5" x2="0.5"></line><text fill="#000" y="9" x="0.5" dy="0.71em">1</text></g><g class="tick" opacity="1" transform="translate(260,0)"><line stroke="#000" y2="6" x1="0.5" x2="0.5"></line><text fill="#000" y="9" x="0.5" dy="0.71em">100</text></g><g class="tick" opacity="1" transform="translate(390,0)"><line stroke="#000" y2="6" x1="0.5" x2="0.5"></line><text fill="#000" y="9" x="0.5" dy="0.71em">10000</text></g><g class="tick" opacity="1" transform="translate(520,0)"><line stroke="#000" y2="6" x1="0.5" x2="0.5"></line><text fill="#000" y="9" x="0.5" dy="0.71em"></text></g></g><g class="axis axis--y" fill="none" font-size="10" font-family="sans-serif" text-anchor="end"><path class="domain" stroke="#000" d="M-6,310.5H0.5V0.5H-6"></path><g class="tick" opacity="1" transform="translate(0,310)"><line stroke="#000" x2="-6" y1="0.5" y2="0.5"></line><text fill="#000" x="-9" y="0.5" dy="0.32em">0</text></g><g class="tick" opacity="1" transform="translate(0,281.3361072584374)"><line stroke="#000" x2="-6" y1="0.5" y2="0.5"></line><text fill="#000" x="-9" y="0.5" dy="0.32em">200</text></g><g class="tick" opacity="1" transform="translate(0,252.6722145168747)"><line stroke="#000" x2="-6" y1="0.5" y2="0.5"></line><text fill="#000" x="-9" y="0.5" dy="0.32em">400</text></g><g class="tick" opacity="1" transform="translate(0,224.00832177531208)"><line stroke="#000" x2="-6" y1="0.5" y2="0.5"></line><text fill="#000" x="-9" y="0.5" dy="0.32em">600</text></g><g class="tick" opacity="1" transform="translate(0,195.3444290337494)"><line stroke="#000" x2="-6" y1="0.5" y2="0.5"></line><text fill="#000" x="-9" y="0.5" dy="0.32em">800</text></g><g class="tick" opacity="1" transform="translate(0,166.6805362921868)"><line stroke="#000" x2="-6" y1="0.5" y2="0.5"></line><text fill="#000" x="-9" y="0.5" dy="0.32em">1,000</text></g><g class="tick" opacity="1" transform="translate(0,138.01664355062414)"><line stroke="#000" x2="-6" y1="0.5" y2="0.5"></line><text fill="#000" x="-9" y="0.5" dy="0.32em">1,200</text></g><g class="tick" opacity="1" transform="translate(0,109.35275080906149)"><line stroke="#000" x2="-6" y1="0.5" y2="0.5"></line><text fill="#000" x="-9" y="0.5" dy="0.32em">1,400</text></g><g class="tick" opacity="1" transform="translate(0,80.68885806749884)"><line stroke="#000" x2="-6" y1="0.5" y2="0.5"></line><text fill="#000" x="-9" y="0.5" dy="0.32em">1,600</text></g><g class="tick" opacity="1" transform="translate(0,52.02496532593619)"><line stroke="#000" x2="-6" y1="0.5" y2="0.5"></line><text fill="#000" x="-9" y="0.5" dy="0.32em">1,800</text></g><g class="tick" opacity="1" transform="translate(0,23.361072584373574)"><line stroke="#000" x2="-6" y1="0.5" y2="0.5"></line><text fill="#000" x="-9" y="0.5" dy="0.32em">2,000</text></g></g></g></svg>