<svg xmlns="http://www.w3.org/2000/svg" width="600" height="350"><defs><style type="text/css"><![CDATA[ 
.bar rect {
  fill-opacity: 0;
  stroke:       black;
  stroke-width: 0.5;
}

.highlight rect {
  fill:       red;
  fill-opacity: 1;
}
.axis path,
.axis line {
  fill: none;
  stroke: #000;
  shape-rendering: crispEdges;
}
 ]]></style></defs><g transform="translate(50,10)"><g class="bar" transform="translate(0,297.65486725663715)"><rect x="1" width="11.999999999999996" height="12.345132743362853"></rect></g><g class="bar" transform="translate(12.999999999999996,298.68362831858406)"><rect x="1" width="11.999999999999996" height="11.316371681415944"></rect></g><g class="bar" transform="translate(25.999999999999993,292.51106194690266)"><rect x="1" width="11.999999999999996" height="17.488938053097343"></rect></g><g class="bar" transform="translate(39.00000000000001,277.7654867256637)"><rect x="1" width="11.999999999999996" height="32.23451327433628"></rect></g><g class="bar" transform="translate(52,253.76106194690266)"><rect x="1" width="11.999999999999996" height="56.23893805309734"></rect></g><g class="bar" transform="translate(65,213.98230088495575)"><rect x="1" width="11.999999999999996" height="96.01769911504425"></rect></g><g class="bar" transform="translate(78.00000000000001,176.26106194690266)"><rect x="1" width="11.999999999999996" height="133.73893805309734"></rect></g><g class="bar" transform="translate(91.00000000000001,120.02212389380531)"><rect x="1" width="11.999999999999996" height="189.97787610619469"></rect></g><g class="bar" transform="translate(104,95.67477876106196)"><rect x="1" width="11.999999999999996" height="214.32522123893804"></rect></g><g class="bar" transform="translate(117,54.524336283185846)"><rect x="1" width="11.999999999999996" height="255.47566371681415"></rect></g><g class="bar" transform="translate(130,42.17920353982299)"><rect x="1" width="11.999999999999996" height="267.820796460177"></rect></g><g class="bar" transform="translate(143,36.349557522123916)"><rect x="1" width="11.999999999999996" height="273.6504424778761"></rect></g><g class="bar" transform="translate(156.00000000000003,9.258849557522126)"><rect x="1" width="11.999999999999996" height="300.7411504424779"></rect></g><g class="bar" transform="translate(169,0)"><rect x="1" width="11.999999999999996" height="310"></rect></g><g class="bar" transform="translate(182.00000000000003,19.20353982300884)"><rect x="1" width="11.999999999999996" height="290.79646017699116"></rect></g><g class="bar" transform="translate(195,52.46681415929203)"><rect x="1" width="11.999999999999996" height="257.533185840708"></rect></g><g class="bar" transform="translate(208,66.86946902654867)"><rect x="1" width="11.999999999999996" height="243.13053097345133"></rect></g><g class="bar" transform="translate(221.00000000000003,87.10176991150445)"><rect x="1" width="11.999999999999996" height="222.89823008849555"></rect></g><g class="bar" transform="translate(234,94.64601769911505)"><rect x="1" width="11.999999999999996" height="215.35398230088495"></rect></g><g class="bar" transform="translate(247.00000000000003,125.85176991150445)"><rect x="1" width="11.999999999999996" height="184.14823008849555"></rect></g><g class="bar" transform="translate(260,154.65707964601768)"><rect x="1" width="11.999999999999996" height="155.34292035398232"></rect></g><g class="bar" transform="translate(273,172.14601769911505)"><rect x="1" width="11.999999999999996" height="137.85398230088495"></rect></g><g class="bar" transform="translate(286,199.2367256637168)"><rect x="1" width="11.999999999999996" height="110.76327433628319"></rect></g><g class="bar" transform="translate(299.00000000000006,248.96017699115043)"><rect x="1" width="11.999999999999996" height="61.03982300884957"></rect></g><g class="bar" transform="translate(312.00000000000006,278.79424778761063)"><rect x="1" width="11.999999999999996" height="31.20575221238937"></rect></g><g class="bar" transform="translate(325,287.3672566371681)"><rect x="1" width="11.999999999999996" height="22.63274336283189"></rect></g><g class="bar" transform="translate(338,290.79646017699116)"><rect x="1" width="11.999999999999996" height="19.20353982300884"></rect></g><g class="bar" transform="translate(351,295.5973451327434)"><rect x="1" width="11.999999999999996" height="14.402654867256615"></rect></g><g class="bar" transform="translate(364.00000000000006,304.8561946902655)"><rect x="1" width="11.999999999999996" height="5.143805309734489"></rect></g><g class="bar" transform="translate(377.00000000000006,308.62831858407077)"><rect x="1" width="11.999999999999996" height="1.3716814159292312"></rect></g><g class="bar" transform="translate(390,310)"><rect x="1" width="11.999999999999996" height="0"></rect></g><g class="bar" transform="translate(403,310)"><rect x="1" width="11.999999999999996" height="0"></rect></g><g class="bar" transform="translate(416,309.6570796460177)"><rect x="1" width="11.999999999999996" height="0.342920353982322"></rect></g><g class="bar" transform="translate(429.00000000000006,310)"><rect x="1" width="11.999999999999996" height="0"></rect></g><g class="bar" transform="translate(442.00000000000006,310)"><rect x="1" width="11.999999999999996" height="0"></rect></g><g class="bar" transform="translate(455,310)"><rect x="1" width="11.999999999999996" height="0"></rect></g><g class="bar" transform="translate(468,310)"><rect x="1" width="11.999999999999996" height="0"></rect></g><g class="bar" transform="translate(481,310)"><rect x="1" width="11.999999999999996" height="0"></rect></g><g class="bar" transform="translate(494.00000000000006,310)"><rect x="1" width="11.999999999999996" height="0"></rect></g><g class="bar" transform="translate(507.00000000000006,310)"><rect x="1" width="11.999999999999996" height="0"></rect></g><g class="axis axis--x" transform="translate(0,310)" fill="none" font-size="10" font-family="sans-serif" text-anchor="middle"><path class="domain" stroke="#000" d="M0.5,6V0.5H520.5V6"></path><g class="tick" opacity="1" transform="translate(0,0)"><line stroke="#000" y2="6" x1="0.5" x2="0.5"></line><text fill="#000" y="9" x="0.5" dy="0.71em">0.01</text></g><g class="tick" opacity="1" transform="translate(130,0)"><line stroke="#000" y2="6" x1="0.5" x2="0.5"></line><text fill="#000" y="9" x="0.5" dy="0.71em">1</text></g><g class="tick" opacity="1" transform="translate(260,0)"><line stroke="#000" y2="6" x1="0.5" x2="0.5"></line><text fill="#000" y="9" x="0.5" dy="0.71em">100</text></g><g class="tick" opacity="1" transform="translate(390,0)"><line stroke="#000" y2="6" x1="0.5" x2="0.5"></line><text fill="#000" y="9" x="0.5" dy="0.71em">10000</text></g><g class="tick" opacity="1" transform="translate(520,0)"><line stroke="#000" y2="6" x1="0.5" x2="0.5"></line><text fill="#000" y="9" x="0.5" dy="0.71em"></text></g></g><g class="axis axis--y" fill="none" font-size="10" font-family="sans-serif" text-anchor="end"><path class="domain" stroke="#000" d="M-6,310.5H0.5V0.5H-6"></path><g class="tick" opacity="1" transform="translate(0,310)"><line stroke="#000" x2="-6" y1="0.5" y2="0.5"></line><text fill="#000" x="-9" y="0.5" dy="0.32em">0</text></g><g class="tick" opacity="1" transform="translate(0,275.7079646017699)"><line stroke="#000" x2="-6" y1="0.5" y2="0.5"></line><text fill="#000" x="-9" y="0.5" dy="0.32em">100</text></g><g class="tick" opacity="1" transform="translate(0,241.4159292035398)"><line stroke="#000" x2="-6" y1="0.5" y2="0.5"></line><text fill="#000" x="-9" y="0.5" dy="0.32em">200</text></g><g class="tick" opacity="1" transform="translate(0,207.12389380530973)"><line stroke="#000" x2="-6" y1="0.5" y2="0.5"></line><text fill="#000" x="-9" y="0.5" dy="0.32em">300</text></g><g class="tick" opacity="1" transform="translate(0,172.83185840707964)"><line stroke="#000" x2="-6" y1="0.5" y2="0.5"></line><text fill="#000" x="-9" y="0.5" dy="0.32em">400</text></g><g class="tick" opacity="1" transform="translate(0,138.53982300884957)"><line stroke="#000" x2="-6" y1="0.5" y2="0.5"></line><text fill="#000" x="-9" y="0.5" dy="0.32em">500</text></g><g class="tick" opacity="1" transform="translate(0,104.24778761061947)"><line stroke="#000" x2="-6" y1="0.5" y2="0.5"></line><text fill="#000" x="-9" y="0.5" dy="0.32em">600</text></g><g class="tick" opacity="1" transform="translate(0,69.9557522123894)"><line stroke="#000" x2="-6" y1="0.5" y2="0.5"></line><text fill="#000" x="-9" y="0.5" dy="0.32em">700</text></g><g class="tick" opacity="1" transform="translate(0,35.66371681415927)"><line stroke="#000" x2="-6" y1="0.5" y2="0.5"></line><text fill="#000" x="-9" y="0.5" dy="0.32em">800</text></g><g class="tick" opacity="1" transform="translate(0,1.3716814159292312)"><line stroke="#000" x2="-6" y1="0.5" y2="0.5"></line><text fill="#000" x="-9" y="0.5" dy="0.32em">900</text></g></g></g></svg>