<svg xmlns="http://www.w3.org/2000/svg" width="600" height="350"><defs><style type="text/css"><![CDATA[ 
.bar rect {
  fill-opacity: 0;
  stroke:       black;
  stroke-width: 0.5;
}

.highlight rect {
  fill:       red;
  fill-opacity: 1;
}
.axis path,
.axis line {
  fill: none;
  stroke: #000;
  shape-rendering: crispEdges;
}
path {
    stroke: red;
    fill: none;
}

line {
    stroke: red;
}

path.marker {
    fill: red;
}
 ]]></style></defs><g transform="translate(50,10)"><g class="bar" transform="translate(0,310)"><rect x="1" width="11.999999999999996" height="0"></rect></g><g class="bar" transform="translate(12.999999999999996,310)"><rect x="1" width="11.999999999999996" height="0"></rect></g><g class="bar" transform="translate(25.999999999999993,310)"><rect x="1" width="11.999999999999996" height="0"></rect></g><g class="bar" transform="translate(39.00000000000001,310)"><rect x="1" width="11.999999999999996" height="0"></rect></g><g class="bar" transform="translate(52,310)"><rect x="1" width="11.999999999999996" height="0"></rect></g><g class="bar" transform="translate(65,310)"><rect x="1" width="11.999999999999996" height="0"></rect></g><g class="bar" transform="translate(78.00000000000001,310)"><rect x="1" width="11.999999999999996" height="0"></rect></g><g class="bar" transform="translate(91.00000000000001,309.1242937853107)"><rect x="1" width="11.999999999999996" height="0.8757062146892736"></rect></g><g class="bar" transform="translate(104,308.24858757062145)"><rect x="1" width="11.999999999999996" height="1.7514124293785471"></rect></g><g class="bar" transform="translate(117,309.1242937853107)"><rect x="1" width="11.999999999999996" height="0.8757062146892736"></rect></g><g class="bar" transform="translate(130,289.8587570621469)"><rect x="1" width="11.999999999999996" height="20.14124293785312"></rect></g><g class="bar" transform="translate(143,272.3446327683616)"><rect x="1" width="11.999999999999996" height="37.65536723163842"></rect></g><g class="bar" transform="translate(156.00000000000003,213.6723163841808)"><rect x="1" width="11.999999999999996" height="96.32768361581921"></rect></g><g class="bar" transform="translate(169,122.59887005649719)"><rect x="1" width="11.999999999999996" height="187.4011299435028"></rect></g><g class="bar" transform="translate(182.00000000000003,29.774011299435017)"><rect x="1" width="11.999999999999996" height="280.225988700565"></rect></g><g class="bar" transform="translate(195,9.632768361581896)"><rect x="1" width="11.999999999999996" height="300.3672316384181"></rect></g><g class="bar" transform="translate(208,35.0282485875706)"><rect x="1" width="11.999999999999996" height="274.9717514124294"></rect></g><g class="bar" transform="translate(221.00000000000003,0)"><rect x="1" width="11.999999999999996" height="310"></rect></g><g class="bar" transform="translate(234,47.288135593220375)"><rect x="1" width="11.999999999999996" height="262.7118644067796"></rect></g><g class="bar" transform="translate(247.00000000000003,70.05649717514126)"><rect x="1" width="11.999999999999996" height="239.94350282485874"></rect></g><g class="bar" transform="translate(260,130.48022598870054)"><rect x="1" width="11.999999999999996" height="179.51977401129946"></rect></g><g class="bar" transform="translate(273,147.1186440677966)"><rect x="1" width="11.999999999999996" height="162.8813559322034"></rect></g><g class="bar" transform="translate(286,185.6497175141243)"><rect x="1" width="11.999999999999996" height="124.35028248587571"></rect></g><g class="bar" transform="translate(299.00000000000006,209.29378531073445)"><rect x="1" width="11.999999999999996" height="100.70621468926555"></rect></g><g class="bar" transform="translate(312.00000000000006,242.57062146892656)"><rect x="1" width="11.999999999999996" height="67.42937853107344"></rect></g><g class="bar" transform="translate(325,260.08474576271186)"><rect x="1" width="11.999999999999996" height="49.91525423728814"></rect></g><g class="bar" transform="translate(338,243.44632768361583)"><rect x="1" width="11.999999999999996" height="66.55367231638417"></rect></g><g class="bar" transform="translate(351,268.84180790960454)"><rect x="1" width="11.999999999999996" height="41.15819209039546"></rect></g><g class="bar" transform="translate(364.00000000000006,298.61581920903956)"><rect x="1" width="11.999999999999996" height="11.384180790960443"></rect></g><g class="bar" transform="translate(377.00000000000006,307.3728813559322)"><rect x="1" width="11.999999999999996" height="2.6271186440678207"></rect></g><g class="bar" transform="translate(390,305.6214689265537)"><rect x="1" width="11.999999999999996" height="4.378531073446311"></rect></g><g class="bar" transform="translate(403,302.99435028248587)"><rect x="1" width="11.999999999999996" height="7.005649717514132"></rect></g><g class="bar" transform="translate(416,309.1242937853107)"><rect x="1" width="11.999999999999996" height="0.8757062146892736"></rect></g><g class="bar" transform="translate(429.00000000000006,310)"><rect x="1" width="11.999999999999996" height="0"></rect></g><g class="bar" transform="translate(442.00000000000006,310)"><rect x="1" width="11.999999999999996" height="0"></rect></g><g class="bar" transform="translate(455,310)"><rect x="1" width="11.999999999999996" height="0"></rect></g><g class="bar" transform="translate(468,310)"><rect x="1" width="11.999999999999996" height="0"></rect></g><g class="bar" transform="translate(481,310)"><rect x="1" width="11.999999999999996" height="0"></rect></g><g class="bar" transform="translate(494.00000000000006,310)"><rect x="1" width="11.999999999999996" height="0"></rect></g><g class="bar" transform="translate(507.00000000000006,310)"><rect x="1" width="11.999999999999996" height="0"></rect></g><g class="axis axis--x" transform="translate(0,310)" fill="none" font-size="10" font-family="sans-serif" text-anchor="middle"><path class="domain" stroke="#000" d="M0.5,6V0.5H520.5V6"></path><g class="tick" opacity="1" transform="translate(0.5,0)"><line stroke="#000" y2="6"></line><text fill="#000" y="9" dy="0.71em">0.01</text></g><g class="tick" opacity="1" transform="translate(130.5,0)"><line stroke="#000" y2="6"></line><text fill="#000" y="9" dy="0.71em">1</text></g><g class="tick" opacity="1" transform="translate(260.5,0)"><line stroke="#000" y2="6"></line><text fill="#000" y="9" dy="0.71em">100</text></g><g class="tick" opacity="1" transform="translate(390.5,0)"><line stroke="#000" y2="6"></line><text fill="#000" y="9" dy="0.71em">10000</text></g><g class="tick" opacity="1" transform="translate(520.5,0)"><line stroke="#000" y2="6"></line><text fill="#000" y="9" dy="0.71em"></text></g></g><g class="axis axis--y" fill="none" font-size="10" font-family="sans-serif" text-anchor="end"><path class="domain" stroke="#000" d="M-6,310.5H0.5V0.5H-6"></path><g class="tick" opacity="1" transform="translate(0,310.5)"><line stroke="#000" x2="-6"></line><text fill="#000" x="-9" dy="0.32em">0</text></g><g class="tick" opacity="1" transform="translate(0,266.7146892655367)"><line stroke="#000" x2="-6"></line><text fill="#000" x="-9" dy="0.32em">50</text></g><g class="tick" opacity="1" transform="translate(0,222.92937853107344)"><line stroke="#000" x2="-6"></line><text fill="#000" x="-9" dy="0.32em">100</text></g><g class="tick" opacity="1" transform="translate(0,179.1440677966102)"><line stroke="#000" x2="-6"></line><text fill="#000" x="-9" dy="0.32em">150</text></g><g class="tick" opacity="1" transform="translate(0,135.35875706214688)"><line stroke="#000" x2="-6"></line><text fill="#000" x="-9" dy="0.32em">200</text></g><g class="tick" opacity="1" transform="translate(0,91.5734463276836)"><line stroke="#000" x2="-6"></line><text fill="#000" x="-9" dy="0.32em">250</text></g><g class="tick" opacity="1" transform="translate(0,47.788135593220375)"><line stroke="#000" x2="-6"></line><text fill="#000" x="-9" dy="0.32em">300</text></g><g class="tick" opacity="1" transform="translate(0,4.002824858757037)"><line stroke="#000" x2="-6"></line><text fill="#000" x="-9" dy="0.32em">350</text></g></g></g></svg>