<svg xmlns="http://www.w3.org/2000/svg" width="280" height="160"><defs><style type="text/css"><![CDATA[ 
.bar rect {
  fill-opacity: 0;
  stroke:       black;
  stroke-width: 0.5;
}

.highlight rect {
  fill:       red;
  fill-opacity: 1;
}
.axis path,
.axis line {
  fill: none;
  stroke: #000;
  shape-rendering: crispEdges;
}
path {
    stroke: red;
    fill: none;
}

line {
    stroke: red;
}

path.marker {
    fill: red;
}
 ]]></style></defs><g transform="translate(50,10)"><g class="bar" transform="translate(0,120)"><rect x="1" width="11.5" height="0"></rect></g><g class="bar" transform="translate(12.5,120)"><rect x="1" width="11.5" height="0"></rect></g><g class="bar" transform="translate(25,120)"><rect x="1" width="11.5" height="0"></rect></g><g class="bar" transform="translate(37.5,119.42925089179548)"><rect x="1" width="11.5" height="0.5707491082045237"></rect></g><g class="bar" transform="translate(50,103.1629013079667)"><rect x="1" width="11.5" height="16.837098692033294"></rect></g><g class="bar" transform="translate(62.5,35.52913198573127)"><rect x="1" width="11.5" height="84.47086801426873"></rect></g><g class="bar" transform="translate(75,0)"><rect x="1" width="11.5" height="120"></rect></g><g class="bar" transform="translate(87.5,13.840665873959566)"><rect x="1" width="11.5" height="106.15933412604043"></rect></g><g class="bar" transform="translate(100,53.79310344827586)"><rect x="1" width="11.5" height="66.20689655172414"></rect></g><g class="bar" transform="translate(112.5,82.75862068965517)"><rect x="1" width="11.5" height="37.241379310344826"></rect></g><g class="bar" transform="translate(125,96.59928656361474)"><rect x="1" width="11.5" height="23.40071343638526"></rect></g><g class="bar" transform="translate(137.5,115.43400713436385)"><rect x="1" width="11.5" height="4.565992865636147"></rect></g><g class="bar" transform="translate(150,118.00237812128418)"><rect x="1" width="11.5" height="1.9976218787158189"></rect></g><g class="bar" transform="translate(162.5,120)"><rect x="1" width="11.5" height="0"></rect></g><g class="bar" transform="translate(175,120)"><rect x="1" width="11.5" height="0"></rect></g><g class="bar" transform="translate(187.5,120)"><rect x="1" width="11.5" height="0"></rect></g></g></svg>