<svg xmlns="http://www.w3.org/2000/svg" width="280" height="160"><defs><style type="text/css"><![CDATA[ 
.bar rect {
  fill-opacity: 0;
  stroke:       black;
  stroke-width: 0.5;
}

.highlight rect {
  fill:       red;
  fill-opacity: 1;
}
.axis path,
.axis line {
  fill: none;
  stroke: #000;
  shape-rendering: crispEdges;
}
 ]]></style></defs><g transform="translate(50,10)"><g class="bar" transform="translate(0,118.66666666666667)"><rect x="1" width="11.5" height="1.3333333333333286"></rect></g><g class="bar" transform="translate(12.5,115.75757575757575)"><rect x="1" width="11.5" height="4.242424242424249"></rect></g><g class="bar" transform="translate(25,92.96969696969697)"><rect x="1" width="11.5" height="27.03030303030303"></rect></g><g class="bar" transform="translate(37.5,64)"><rect x="1" width="11.5" height="56"></rect></g><g class="bar" transform="translate(50,29.212121212121218)"><rect x="1" width="11.5" height="90.78787878787878"></rect></g><g class="bar" transform="translate(62.5,0)"><rect x="1" width="11.5" height="120"></rect></g><g class="bar" transform="translate(75,0.8484848484848584)"><rect x="1" width="11.5" height="119.15151515151514"></rect></g><g class="bar" transform="translate(87.5,14.787878787878796)"><rect x="1" width="11.5" height="105.2121212121212"></rect></g><g class="bar" transform="translate(100,53.09090909090909)"><rect x="1" width="11.5" height="66.9090909090909"></rect></g><g class="bar" transform="translate(112.5,80.96969696969697)"><rect x="1" width="11.5" height="39.03030303030303"></rect></g><g class="bar" transform="translate(125,105.57575757575758)"><rect x="1" width="11.5" height="14.424242424242422"></rect></g><g class="bar" transform="translate(137.5,113.57575757575758)"><rect x="1" width="11.5" height="6.424242424242422"></rect></g><g class="bar" transform="translate(150,118.78787878787878)"><rect x="1" width="11.5" height="1.2121212121212182"></rect></g><g class="bar" transform="translate(162.5,120)"><rect x="1" width="11.5" height="0"></rect></g><g class="bar" transform="translate(175,120)"><rect x="1" width="11.5" height="0"></rect></g><g class="bar" transform="translate(187.5,120)"><rect x="1" width="11.5" height="0"></rect></g></g></svg>