<svg xmlns="http://www.w3.org/2000/svg" width="280" height="160"><defs><style type="text/css"><![CDATA[ 
.bar rect {
  fill-opacity: 0;
  stroke:       black;
  stroke-width: 0.5;
}

.highlight rect {
  fill:       red;
  fill-opacity: 1;
}
.axis path,
.axis line {
  fill: none;
  stroke: #000;
  shape-rendering: crispEdges;
}
path {
    stroke: red;
    fill: none;
}

line {
    stroke: red;
}

path.marker {
    fill: red;
}
 ]]></style></defs><g transform="translate(50,10)"><g class="bar" transform="translate(0,120)"><rect x="1" width="11.5" height="0"></rect></g><g class="bar" transform="translate(12.5,120)"><rect x="1" width="11.5" height="0"></rect></g><g class="bar" transform="translate(25,119.27492447129909)"><rect x="1" width="11.5" height="0.7250755287009127"></rect></g><g class="bar" transform="translate(37.5,115.2870090634441)"><rect x="1" width="11.5" height="4.712990936555897"></rect></g><g class="bar" transform="translate(50,105.98187311178248)"><rect x="1" width="11.5" height="14.018126888217523"></rect></g><g class="bar" transform="translate(62.5,70.45317220543807)"><rect x="1" width="11.5" height="49.546827794561935"></rect></g><g class="bar" transform="translate(75,28.640483383685805)"><rect x="1" width="11.5" height="91.3595166163142"></rect></g><g class="bar" transform="translate(87.5,0)"><rect x="1" width="11.5" height="120"></rect></g><g class="bar" transform="translate(100,4.108761329305139)"><rect x="1" width="11.5" height="115.89123867069486"></rect></g><g class="bar" transform="translate(112.5,64.04833836858006)"><rect x="1" width="11.5" height="55.95166163141994"></rect></g><g class="bar" transform="translate(125,107.6737160120846)"><rect x="1" width="11.5" height="12.326283987915403"></rect></g><g class="bar" transform="translate(137.5,117.34138972809667)"><rect x="1" width="11.5" height="2.6586102719033278"></rect></g><g class="bar" transform="translate(150,119.75830815709969)"><rect x="1" width="11.5" height="0.24169184290030898"></rect></g><g class="bar" transform="translate(162.5,119.5166163141994)"><rect x="1" width="11.5" height="0.48338368580060376"></rect></g><g class="bar" transform="translate(175,120)"><rect x="1" width="11.5" height="0"></rect></g><g class="bar" transform="translate(187.5,120)"><rect x="1" width="11.5" height="0"></rect></g></g></svg>