<svg xmlns="http://www.w3.org/2000/svg" width="280" height="160"><defs><style type="text/css"><![CDATA[ 
.bar rect {
  fill-opacity: 0;
  stroke:       black;
  stroke-width: 0.5;
}

.highlight rect {
  fill:       red;
  fill-opacity: 1;
}
.axis path,
.axis line {
  fill: none;
  stroke: #000;
  shape-rendering: crispEdges;
}
 ]]></style></defs><g transform="translate(50,10)"><g class="bar" transform="translate(0,119.17878528656972)"><rect x="1" width="11.5" height="0.8212147134302796"></rect></g><g class="bar" transform="translate(12.5,113.94354148845167)"><rect x="1" width="11.5" height="6.056458511548328"></rect></g><g class="bar" transform="translate(25,98.13515825491874)"><rect x="1" width="11.5" height="21.864841745081264"></rect></g><g class="bar" transform="translate(37.5,66.62104362703165)"><rect x="1" width="11.5" height="53.37895637296835"></rect></g><g class="bar" transform="translate(50,43.62703165098375)"><rect x="1" width="11.5" height="76.37296834901625"></rect></g><g class="bar" transform="translate(62.5,26.4841745081266)"><rect x="1" width="11.5" height="93.5158254918734"></rect></g><g class="bar" transform="translate(75,8.006843455945258)"><rect x="1" width="11.5" height="111.99315654405474"></rect></g><g class="bar" transform="translate(87.5,0)"><rect x="1" width="11.5" height="120"></rect></g><g class="bar" transform="translate(100,21.556886227544908)"><rect x="1" width="11.5" height="98.44311377245509"></rect></g><g class="bar" transform="translate(112.5,62.82292557741659)"><rect x="1" width="11.5" height="57.17707442258341"></rect></g><g class="bar" transform="translate(125,103.16509837467922)"><rect x="1" width="11.5" height="16.834901625320782"></rect></g><g class="bar" transform="translate(137.5,117.53635585970915)"><rect x="1" width="11.5" height="2.463644140290853"></rect></g><g class="bar" transform="translate(150,119.69204448246364)"><rect x="1" width="11.5" height="0.30795551753635664"></rect></g><g class="bar" transform="translate(162.5,120)"><rect x="1" width="11.5" height="0"></rect></g><g class="bar" transform="translate(175,120)"><rect x="1" width="11.5" height="0"></rect></g><g class="bar" transform="translate(187.5,120)"><rect x="1" width="11.5" height="0"></rect></g></g></svg>