<svg xmlns="http://www.w3.org/2000/svg" width="600" height="350"><defs><style type="text/css"><![CDATA[ 
.bar rect {
  fill-opacity: 0;
  stroke:       black;
  stroke-width: 0.5;
}

.highlight rect {
  fill:       red;
  fill-opacity: 1;
}
.axis path,
.axis line {
  fill: none;
  stroke: #000;
  shape-rendering: crispEdges;
}
 ]]></style></defs><g transform="translate(50,10)"><g class="bar" transform="translate(0,310)"><rect x="1" width="5.500000000000005" height="0"></rect></g><g class="bar" transform="translate(6.500000000000005,310)"><rect x="1" width="5.500000000000005" height="0"></rect></g><g class="bar" transform="translate(12.999999999999996,310)"><rect x="1" width="5.500000000000005" height="0"></rect></g><g class="bar" transform="translate(19.500000000000004,310)"><rect x="1" width="5.500000000000005" height="0"></rect></g><g class="bar" transform="translate(25.999999999999993,310)"><rect x="1" width="5.500000000000005" height="0"></rect></g><g class="bar" transform="translate(32.5,310)"><rect x="1" width="5.500000000000005" height="0"></rect></g><g class="bar" transform="translate(39.00000000000001,310)"><rect x="1" width="5.500000000000005" height="0"></rect></g><g class="bar" transform="translate(45.500000000000014,310)"><rect x="1" width="5.500000000000005" height="0"></rect></g><g class="bar" transform="translate(52,310)"><rect x="1" width="5.500000000000005" height="0"></rect></g><g class="bar" transform="translate(58.49999999999999,310)"><rect x="1" width="5.500000000000005" height="0"></rect></g><g class="bar" transform="translate(65,310)"><rect x="1" width="5.500000000000005" height="0"></rect></g><g class="bar" transform="translate(71.5,310)"><rect x="1" width="5.500000000000005" height="0"></rect></g><g class="bar" transform="translate(78.00000000000001,310)"><rect x="1" width="5.500000000000005" height="0"></rect></g><g class="bar" transform="translate(84.5,310)"><rect x="1" width="5.500000000000005" height="0"></rect></g><g class="bar" transform="translate(91.00000000000001,310)"><rect x="1" width="5.500000000000005" height="0"></rect></g><g class="bar" transform="translate(97.5,310)"><rect x="1" width="5.500000000000005" height="0"></rect></g><g class="bar" transform="translate(104,310)"><rect x="1" width="5.500000000000005" height="0"></rect></g><g class="bar" transform="translate(110.50000000000001,310)"><rect x="1" width="5.500000000000005" height="0"></rect></g><g class="bar" transform="translate(117,308.1764705882353)"><rect x="1" width="5.500000000000005" height="1.8235294117646959"></rect></g><g class="bar" transform="translate(123.50000000000001,310)"><rect x="1" width="5.500000000000005" height="0"></rect></g><g class="bar" transform="translate(130,309.0882352941176)"><rect x="1" width="5.500000000000005" height="0.9117647058823763"></rect></g><g class="bar" transform="translate(136.5,308.1764705882353)"><rect x="1" width="5.500000000000005" height="1.8235294117646959"></rect></g><g class="bar" transform="translate(143,305.44117647058823)"><rect x="1" width="5.500000000000005" height="4.558823529411768"></rect></g><g class="bar" transform="translate(149.50000000000003,308.1764705882353)"><rect x="1" width="5.500000000000005" height="1.8235294117646959"></rect></g><g class="bar" transform="translate(156.00000000000003,299.05882352941177)"><rect x="1" width="5.500000000000005" height="10.941176470588232"></rect></g><g class="bar" transform="translate(162.5,289.02941176470586)"><rect x="1" width="5.500000000000005" height="20.970588235294144"></rect></g><g class="bar" transform="translate(169,283.55882352941177)"><rect x="1" width="5.500000000000005" height="26.441176470588232"></rect></g><g class="bar" transform="translate(175.5,247.08823529411765)"><rect x="1" width="5.500000000000005" height="62.91176470588235"></rect></g><g class="bar" transform="translate(182.00000000000003,217)"><rect x="1" width="5.500000000000005" height="93"></rect></g><g class="bar" transform="translate(188.50000000000003,172.32352941176472)"><rect x="1" width="5.500000000000005" height="137.67647058823528"></rect></g><g class="bar" transform="translate(195,124)"><rect x="1" width="5.500000000000005" height="186"></rect></g><g class="bar" transform="translate(201.5,74.76470588235296)"><rect x="1" width="5.500000000000005" height="235.23529411764704"></rect></g><g class="bar" transform="translate(208,41.029411764705856)"><rect x="1" width="5.500000000000005" height="268.97058823529414"></rect></g><g class="bar" transform="translate(214.50000000000003,0)"><rect x="1" width="5.500000000000005" height="310"></rect></g><g class="bar" transform="translate(221.00000000000003,22.794117647058783)"><rect x="1" width="5.500000000000005" height="287.2058823529412"></rect></g><g class="bar" transform="translate(227.5,27.35294117647061)"><rect x="1" width="5.500000000000005" height="282.6470588235294"></rect></g><g class="bar" transform="translate(234,10.029411764705856)"><rect x="1" width="5.500000000000005" height="299.97058823529414"></rect></g><g class="bar" transform="translate(240.5,32.823529411764696)"><rect x="1" width="5.500000000000005" height="277.1764705882353"></rect></g><g class="bar" transform="translate(247.00000000000003,38.29411764705884)"><rect x="1" width="5.500000000000005" height="271.70588235294116"></rect></g><g class="bar" transform="translate(253.50000000000003,62.91176470588235)"><rect x="1" width="5.500000000000005" height="247.08823529411765"></rect></g><g class="bar" transform="translate(260,79.3235294117647)"><rect x="1" width="5.500000000000005" height="230.6764705882353"></rect></g><g class="bar" transform="translate(266.50000000000006,61.088235294117624)"><rect x="1" width="5.500000000000005" height="248.91176470588238"></rect></g><g class="bar" transform="translate(273,103.94117647058823)"><rect x="1" width="5.500000000000005" height="206.05882352941177"></rect></g><g class="bar" transform="translate(279.5,133.11764705882354)"><rect x="1" width="5.500000000000005" height="176.88235294117646"></rect></g><g class="bar" transform="translate(286,146.7941176470588)"><rect x="1" width="5.500000000000005" height="163.2058823529412"></rect></g><g class="bar" transform="translate(292.5,154.08823529411765)"><rect x="1" width="5.500000000000005" height="155.91176470588235"></rect></g><g class="bar" transform="translate(299.00000000000006,186)"><rect x="1" width="5.500000000000005" height="124"></rect></g><g class="bar" transform="translate(305.5,219.73529411764707)"><rect x="1" width="5.500000000000005" height="90.26470588235293"></rect></g><g class="bar" transform="translate(312.00000000000006,246.1764705882353)"><rect x="1" width="5.500000000000005" height="63.823529411764696"></rect></g><g class="bar" transform="translate(318.5,258.94117647058823)"><rect x="1" width="5.500000000000005" height="51.05882352941177"></rect></g><g class="bar" transform="translate(325,257.11764705882354)"><rect x="1" width="5.500000000000005" height="52.882352941176464"></rect></g><g class="bar" transform="translate(331.50000000000006,285.38235294117646)"><rect x="1" width="5.500000000000005" height="24.617647058823536"></rect></g><g class="bar" transform="translate(338,289.02941176470586)"><rect x="1" width="5.500000000000005" height="20.970588235294144"></rect></g><g class="bar" transform="translate(344.50000000000006,290.8529411764706)"><rect x="1" width="5.500000000000005" height="19.14705882352939"></rect></g><g class="bar" transform="translate(351,299.97058823529414)"><rect x="1" width="5.500000000000005" height="10.029411764705856"></rect></g><g class="bar" transform="translate(357.5,297.2352941176471)"><rect x="1" width="5.500000000000005" height="12.764705882352928"></rect></g><g class="bar" transform="translate(364.00000000000006,301.79411764705884)"><rect x="1" width="5.500000000000005" height="8.20588235294116"></rect></g><g class="bar" transform="translate(370.5,308.1764705882353)"><rect x="1" width="5.500000000000005" height="1.8235294117646959"></rect></g><g class="bar" transform="translate(377.00000000000006,308.1764705882353)"><rect x="1" width="5.500000000000005" height="1.8235294117646959"></rect></g><g class="bar" transform="translate(383.5,309.0882352941176)"><rect x="1" width="5.500000000000005" height="0.9117647058823763"></rect></g><g class="bar" transform="translate(390,309.0882352941176)"><rect x="1" width="5.500000000000005" height="0.9117647058823763"></rect></g><g class="bar" transform="translate(396.50000000000006,310)"><rect x="1" width="5.500000000000005" height="0"></rect></g><g class="bar" transform="translate(403,310)"><rect x="1" width="5.500000000000005" height="0"></rect></g><g class="bar" transform="translate(409.50000000000006,310)"><rect x="1" width="5.500000000000005" height="0"></rect></g><g class="bar" transform="translate(416,310)"><rect x="1" width="5.500000000000005" height="0"></rect></g><g class="bar" transform="translate(422.5,310)"><rect x="1" width="5.500000000000005" height="0"></rect></g><g class="bar" transform="translate(429.00000000000006,309.0882352941176)"><rect x="1" width="5.500000000000005" height="0.9117647058823763"></rect></g><g class="bar" transform="translate(435.5,310)"><rect x="1" width="5.500000000000005" height="0"></rect></g><g class="bar" transform="translate(442.00000000000006,310)"><rect x="1" width="5.500000000000005" height="0"></rect></g><g class="bar" transform="translate(448.5,310)"><rect x="1" width="5.500000000000005" height="0"></rect></g><g class="bar" transform="translate(455,310)"><rect x="1" width="5.500000000000005" height="0"></rect></g><g class="bar" transform="translate(461.50000000000006,310)"><rect x="1" width="5.500000000000005" height="0"></rect></g><g class="bar" transform="translate(468,310)"><rect x="1" width="5.500000000000005" height="0"></rect></g><g class="bar" transform="translate(474.50000000000006,310)"><rect x="1" width="5.500000000000005" height="0"></rect></g><g class="bar" transform="translate(481,310)"><rect x="1" width="5.500000000000005" height="0"></rect></g><g class="bar" transform="translate(487.5,310)"><rect x="1" width="5.500000000000005" height="0"></rect></g><g class="bar" transform="translate(494.00000000000006,310)"><rect x="1" width="5.500000000000005" height="0"></rect></g><g class="bar" transform="translate(500.5,310)"><rect x="1" width="5.500000000000005" height="0"></rect></g><g class="bar" transform="translate(507.00000000000006,310)"><rect x="1" width="5.500000000000005" height="0"></rect></g><g class="bar" transform="translate(513.5,310)"><rect x="1" width="5.500000000000005" height="0"></rect></g><g class="axis axis--x" transform="translate(0,310)" fill="none" font-size="10" font-family="sans-serif" text-anchor="middle"><path class="domain" stroke="#000" d="M0.5,6V0.5H520.5V6"></path><g class="tick" opacity="1" transform="translate(0,0)"><line stroke="#000" y2="6" x1="0.5" x2="0.5"></line><text fill="#000" y="9" x="0.5" dy="0.71em">0.01</text></g><g class="tick" opacity="1" transform="translate(130,0)"><line stroke="#000" y2="6" x1="0.5" x2="0.5"></line><text fill="#000" y="9" x="0.5" dy="0.71em">1</text></g><g class="tick" opacity="1" transform="translate(260,0)"><line stroke="#000" y2="6" x1="0.5" x2="0.5"></line><text fill="#000" y="9" x="0.5" dy="0.71em">100</text></g><g class="tick" opacity="1" transform="translate(390,0)"><line stroke="#000" y2="6" x1="0.5" x2="0.5"></line><text fill="#000" y="9" x="0.5" dy="0.71em">10000</text></g><g class="tick" opacity="1" transform="translate(520,0)"><line stroke="#000" y2="6" x1="0.5" x2="0.5"></line><text fill="#000" y="9" x="0.5" dy="0.71em"></text></g></g><g class="axis axis--y" fill="none" font-size="10" font-family="sans-serif" text-anchor="end"><path class="domain" stroke="#000" d="M-6,310.5H0.5V0.5H-6"></path><g class="tick" opacity="1" transform="translate(0,310)"><line stroke="#000" x2="-6" y1="0.5" y2="0.5"></line><text fill="#000" x="-9" y="0.5" dy="0.32em">0</text></g><g class="tick" opacity="1" transform="translate(0,264.4117647058823)"><line stroke="#000" x2="-6" y1="0.5" y2="0.5"></line><text fill="#000" x="-9" y="0.5" dy="0.32em">50</text></g><g class="tick" opacity="1" transform="translate(0,218.8235294117647)"><line stroke="#000" x2="-6" y1="0.5" y2="0.5"></line><text fill="#000" x="-9" y="0.5" dy="0.32em">100</text></g><g class="tick" opacity="1" transform="translate(0,173.23529411764707)"><line stroke="#000" x2="-6" y1="0.5" y2="0.5"></line><text fill="#000" x="-9" y="0.5" dy="0.32em">150</text></g><g class="tick" opacity="1" transform="translate(0,127.64705882352939)"><line stroke="#000" x2="-6" y1="0.5" y2="0.5"></line><text fill="#000" x="-9" y="0.5" dy="0.32em">200</text></g><g class="tick" opacity="1" transform="translate(0,82.05882352941174)"><line stroke="#000" x2="-6" y1="0.5" y2="0.5"></line><text fill="#000" x="-9" y="0.5" dy="0.32em">250</text></g><g class="tick" opacity="1" transform="translate(0,36.470588235294144)"><line stroke="#000" x2="-6" y1="0.5" y2="0.5"></line><text fill="#000" x="-9" y="0.5" dy="0.32em">300</text></g></g></g></svg>