<svg xmlns="http://www.w3.org/2000/svg" width="600" height="350"><defs><style type="text/css"><![CDATA[ 
.bar rect {
  fill-opacity: 0;
  stroke:       black;
  stroke-width: 0.5;
}

.highlight rect {
  fill:       red;
  fill-opacity: 1;
}
.axis path,
.axis line {
  fill: none;
  stroke: #000;
  shape-rendering: crispEdges;
}
 ]]></style></defs><g transform="translate(50,10)"><g class="bar" transform="translate(0,310)"><rect x="1" width="31.5" height="0"></rect></g><g class="bar" transform="translate(32.5,310)"><rect x="1" width="31.5" height="0"></rect></g><g class="bar" transform="translate(65,307.72058823529414)"><rect x="1" width="31.5" height="2.2794117647058556"></rect></g><g class="bar" transform="translate(97.5,296.3235294117647)"><rect x="1" width="31.5" height="13.676470588235304"></rect></g><g class="bar" transform="translate(130,232.5)"><rect x="1" width="31.5" height="77.5"></rect></g><g class="bar" transform="translate(162.5,127.64705882352939)"><rect x="1" width="31.5" height="182.3529411764706"></rect></g><g class="bar" transform="translate(195,77.5)"><rect x="1" width="31.5" height="232.5"></rect></g><g class="bar" transform="translate(227.5,0)"><rect x="1" width="31.5" height="310"></rect></g><g class="bar" transform="translate(260,0)"><rect x="1" width="31.5" height="310"></rect></g><g class="bar" transform="translate(292.5,11.397058823529392)"><rect x="1" width="31.5" height="298.6029411764706"></rect></g><g class="bar" transform="translate(325,116.25)"><rect x="1" width="31.5" height="193.75"></rect></g><g class="bar" transform="translate(357.5,186.91176470588238)"><rect x="1" width="31.5" height="123.08823529411762"></rect></g><g class="bar" transform="translate(390,259.8529411764706)"><rect x="1" width="31.5" height="50.14705882352939"></rect></g><g class="bar" transform="translate(422.5,307.72058823529414)"><rect x="1" width="31.5" height="2.2794117647058556"></rect></g><g class="bar" transform="translate(455,310)"><rect x="1" width="31.5" height="0"></rect></g><g class="bar" transform="translate(487.5,310)"><rect x="1" width="31.5" height="0"></rect></g><g class="axis axis--x" transform="translate(0,310)" fill="none" font-size="10" font-family="sans-serif" text-anchor="middle"><path class="domain" stroke="#000" d="M0.5,6V0.5H520.5V6"></path><g class="tick" opacity="1" transform="translate(0,0)"><line stroke="#000" y2="6" x1="0.5" x2="0.5"></line><text fill="#000" y="9" x="0.5" dy="0.71em">0.01</text></g><g class="tick" opacity="1" transform="translate(130,0)"><line stroke="#000" y2="6" x1="0.5" x2="0.5"></line><text fill="#000" y="9" x="0.5" dy="0.71em">1</text></g><g class="tick" opacity="1" transform="translate(260,0)"><line stroke="#000" y2="6" x1="0.5" x2="0.5"></line><text fill="#000" y="9" x="0.5" dy="0.71em">100</text></g><g class="tick" opacity="1" transform="translate(390,0)"><line stroke="#000" y2="6" x1="0.5" x2="0.5"></line><text fill="#000" y="9" x="0.5" dy="0.71em">10000</text></g><g class="tick" opacity="1" transform="translate(520,0)"><line stroke="#000" y2="6" x1="0.5" x2="0.5"></line><text fill="#000" y="9" x="0.5" dy="0.71em"></text></g></g><g class="axis axis--y" fill="none" font-size="10" font-family="sans-serif" text-anchor="end"><path class="domain" stroke="#000" d="M-6,310.5H0.5V0.5H-6"></path><g class="tick" opacity="1" transform="translate(0,310)"><line stroke="#000" x2="-6" y1="0.5" y2="0.5"></line><text fill="#000" x="-9" y="0.5" dy="0.32em">0</text></g><g class="tick" opacity="1" transform="translate(0,287.20588235294116)"><line stroke="#000" x2="-6" y1="0.5" y2="0.5"></line><text fill="#000" x="-9" y="0.5" dy="0.32em">10</text></g><g class="tick" opacity="1" transform="translate(0,264.4117647058823)"><line stroke="#000" x2="-6" y1="0.5" y2="0.5"></line><text fill="#000" x="-9" y="0.5" dy="0.32em">20</text></g><g class="tick" opacity="1" transform="translate(0,241.61764705882354)"><line stroke="#000" x2="-6" y1="0.5" y2="0.5"></line><text fill="#000" x="-9" y="0.5" dy="0.32em">30</text></g><g class="tick" opacity="1" transform="translate(0,218.8235294117647)"><line stroke="#000" x2="-6" y1="0.5" y2="0.5"></line><text fill="#000" x="-9" y="0.5" dy="0.32em">40</text></g><g class="tick" opacity="1" transform="translate(0,196.02941176470586)"><line stroke="#000" x2="-6" y1="0.5" y2="0.5"></line><text fill="#000" x="-9" y="0.5" dy="0.32em">50</text></g><g class="tick" opacity="1" transform="translate(0,173.23529411764707)"><line stroke="#000" x2="-6" y1="0.5" y2="0.5"></line><text fill="#000" x="-9" y="0.5" dy="0.32em">60</text></g><g class="tick" opacity="1" transform="translate(0,150.44117647058826)"><line stroke="#000" x2="-6" y1="0.5" y2="0.5"></line><text fill="#000" x="-9" y="0.5" dy="0.32em">70</text></g><g class="tick" opacity="1" transform="translate(0,127.64705882352939)"><line stroke="#000" x2="-6" y1="0.5" y2="0.5"></line><text fill="#000" x="-9" y="0.5" dy="0.32em">80</text></g><g class="tick" opacity="1" transform="translate(0,104.85294117647061)"><line stroke="#000" x2="-6" y1="0.5" y2="0.5"></line><text fill="#000" x="-9" y="0.5" dy="0.32em">90</text></g><g class="tick" opacity="1" transform="translate(0,82.05882352941174)"><line stroke="#000" x2="-6" y1="0.5" y2="0.5"></line><text fill="#000" x="-9" y="0.5" dy="0.32em">100</text></g><g class="tick" opacity="1" transform="translate(0,59.26470588235293)"><line stroke="#000" x2="-6" y1="0.5" y2="0.5"></line><text fill="#000" x="-9" y="0.5" dy="0.32em">110</text></g><g class="tick" opacity="1" transform="translate(0,36.470588235294144)"><line stroke="#000" x2="-6" y1="0.5" y2="0.5"></line><text fill="#000" x="-9" y="0.5" dy="0.32em">120</text></g><g class="tick" opacity="1" transform="translate(0,13.676470588235304)"><line stroke="#000" x2="-6" y1="0.5" y2="0.5"></line><text fill="#000" x="-9" y="0.5" dy="0.32em">130</text></g></g></g></svg>