<svg xmlns="http://www.w3.org/2000/svg" width="280" height="160"><defs><style type="text/css"><![CDATA[ 
.bar rect {
  fill-opacity: 0;
  stroke:       black;
  stroke-width: 0.5;
}

.highlight rect {
  fill:       red;
  fill-opacity: 1;
}
.axis path,
.axis line {
  fill: none;
  stroke: #000;
  shape-rendering: crispEdges;
}
 ]]></style></defs><g transform="translate(50,10)"><g class="bar" transform="translate(0,120)"><rect x="1" width="11.5" height="0"></rect></g><g class="bar" transform="translate(12.5,120)"><rect x="1" width="11.5" height="0"></rect></g><g class="bar" transform="translate(25,119.84349527225302)"><rect x="1" width="11.5" height="0.15650472774697732"></rect></g><g class="bar" transform="translate(37.5,117.45679817411151)"><rect x="1" width="11.5" height="2.543201825888488"></rect></g><g class="bar" transform="translate(50,94.02021519400066)"><rect x="1" width="11.5" height="25.979784805999344"></rect></g><g class="bar" transform="translate(62.5,0)"><rect x="1" width="11.5" height="120"></rect></g><g class="bar" transform="translate(75,1.4085425497228528)"><rect x="1" width="11.5" height="118.59145745027715"></rect></g><g class="bar" transform="translate(87.5,67.57091620476035)"><rect x="1" width="11.5" height="52.42908379523965"></rect></g><g class="bar" transform="translate(100,88.46429735898272)"><rect x="1" width="11.5" height="31.53570264101728"></rect></g><g class="bar" transform="translate(112.5,100.436909031627)"><rect x="1" width="11.5" height="19.563090968373004"></rect></g><g class="bar" transform="translate(125,112.605151613955)"><rect x="1" width="11.5" height="7.394848386044998"></rect></g><g class="bar" transform="translate(137.5,118.90446690577112)"><rect x="1" width="11.5" height="1.095533094228884"></rect></g><g class="bar" transform="translate(150,119.96087381806325)"><rect x="1" width="11.5" height="0.039126181936751436"></rect></g><g class="bar" transform="translate(162.5,120)"><rect x="1" width="11.5" height="0"></rect></g><g class="bar" transform="translate(175,120)"><rect x="1" width="11.5" height="0"></rect></g><g class="bar" transform="translate(187.5,120)"><rect x="1" width="11.5" height="0"></rect></g></g></svg>