<svg xmlns="http://www.w3.org/2000/svg" width="600" height="350"><defs><style type="text/css"><![CDATA[ 
.bar rect {
  fill-opacity: 0;
  stroke:       black;
  stroke-width: 0.5;
}

.highlight rect {
  fill:       red;
  fill-opacity: 1;
}
.axis path,
.axis line {
  fill: none;
  stroke: #000;
  shape-rendering: crispEdges;
}
path {
    stroke: red;
    fill: none;
}

line {
    stroke: red;
}

path.marker {
    fill: red;
}
 ]]></style></defs><g transform="translate(50,10)"><g class="bar" transform="translate(0,310)"><rect x="1" width="11.999999999999996" height="0"></rect></g><g class="bar" transform="translate(12.999999999999996,310)"><rect x="1" width="11.999999999999996" height="0"></rect></g><g class="bar" transform="translate(25.999999999999993,310)"><rect x="1" width="11.999999999999996" height="0"></rect></g><g class="bar" transform="translate(39.00000000000001,310)"><rect x="1" width="11.999999999999996" height="0"></rect></g><g class="bar" transform="translate(52,310)"><rect x="1" width="11.999999999999996" height="0"></rect></g><g class="bar" transform="translate(65,309.48247078464107)"><rect x="1" width="11.999999999999996" height="0.5175292153589339"></rect></g><g class="bar" transform="translate(78.00000000000001,306.37729549248746)"><rect x="1" width="11.999999999999996" height="3.6227045075125375"></rect></g><g class="bar" transform="translate(91.00000000000001,299.13188647746244)"><rect x="1" width="11.999999999999996" height="10.868113522537556"></rect></g><g class="bar" transform="translate(104,259.79966611018364)"><rect x="1" width="11.999999999999996" height="50.20033388981636"></rect></g><g class="bar" transform="translate(117,203.90651085141903)"><rect x="1" width="11.999999999999996" height="106.09348914858097"></rect></g><g class="bar" transform="translate(130,144.90818030050085)"><rect x="1" width="11.999999999999996" height="165.09181969949915"></rect></g><g class="bar" transform="translate(143,91.08514190317197)"><rect x="1" width="11.999999999999996" height="218.91485809682803"></rect></g><g class="bar" transform="translate(156.00000000000003,22.77128547579298)"><rect x="1" width="11.999999999999996" height="287.228714524207"></rect></g><g class="bar" transform="translate(169,30.016694490817997)"><rect x="1" width="11.999999999999996" height="279.983305509182"></rect></g><g class="bar" transform="translate(182.00000000000003,0.5175292153589339)"><rect x="1" width="11.999999999999996" height="309.48247078464107"></rect></g><g class="bar" transform="translate(195,3.1051752921536036)"><rect x="1" width="11.999999999999996" height="306.8948247078464"></rect></g><g class="bar" transform="translate(208,8.280467445742886)"><rect x="1" width="11.999999999999996" height="301.7195325542571"></rect></g><g class="bar" transform="translate(221.00000000000003,0)"><rect x="1" width="11.999999999999996" height="310"></rect></g><g class="bar" transform="translate(234,62.62103505843072)"><rect x="1" width="11.999999999999996" height="247.37896494156928"></rect></g><g class="bar" transform="translate(247.00000000000003,89.01502504173621)"><rect x="1" width="11.999999999999996" height="220.9849749582638"></rect></g><g class="bar" transform="translate(260,131.4524207011686)"><rect x="1" width="11.999999999999996" height="178.5475792988314"></rect></g><g class="bar" transform="translate(273,152.1535893155259)"><rect x="1" width="11.999999999999996" height="157.8464106844741"></rect></g><g class="bar" transform="translate(286,192.00333889816363)"><rect x="1" width="11.999999999999996" height="117.99666110183637"></rect></g><g class="bar" transform="translate(299.00000000000006,230.30050083472452)"><rect x="1" width="11.999999999999996" height="79.69949916527548"></rect></g><g class="bar" transform="translate(312.00000000000006,253.07178631051752)"><rect x="1" width="11.999999999999996" height="56.928213689482476"></rect></g><g class="bar" transform="translate(325,270.15025041736226)"><rect x="1" width="11.999999999999996" height="39.84974958263774"></rect></g><g class="bar" transform="translate(338,285.6761268781302)"><rect x="1" width="11.999999999999996" height="24.32387312186978"></rect></g><g class="bar" transform="translate(351,284.1235392320534)"><rect x="1" width="11.999999999999996" height="25.876460767946583"></rect></g><g class="bar" transform="translate(364.00000000000006,297.0617696160267)"><rect x="1" width="11.999999999999996" height="12.938230383973291"></rect></g><g class="bar" transform="translate(377.00000000000006,306.37729549248746)"><rect x="1" width="11.999999999999996" height="3.6227045075125375"></rect></g><g class="bar" transform="translate(390,310)"><rect x="1" width="11.999999999999996" height="0"></rect></g><g class="bar" transform="translate(403,310)"><rect x="1" width="11.999999999999996" height="0"></rect></g><g class="bar" transform="translate(416,309.48247078464107)"><rect x="1" width="11.999999999999996" height="0.5175292153589339"></rect></g><g class="bar" transform="translate(429.00000000000006,310)"><rect x="1" width="11.999999999999996" height="0"></rect></g><g class="bar" transform="translate(442.00000000000006,310)"><rect x="1" width="11.999999999999996" height="0"></rect></g><g class="bar" transform="translate(455,310)"><rect x="1" width="11.999999999999996" height="0"></rect></g><g class="bar" transform="translate(468,310)"><rect x="1" width="11.999999999999996" height="0"></rect></g><g class="bar" transform="translate(481,310)"><rect x="1" width="11.999999999999996" height="0"></rect></g><g class="bar" transform="translate(494.00000000000006,310)"><rect x="1" width="11.999999999999996" height="0"></rect></g><g class="bar" transform="translate(507.00000000000006,310)"><rect x="1" width="11.999999999999996" height="0"></rect></g><g class="axis axis--x" transform="translate(0,310)" fill="none" font-size="10" font-family="sans-serif" text-anchor="middle"><path class="domain" stroke="#000" d="M0.5,6V0.5H520.5V6"></path><g class="tick" opacity="1" transform="translate(0.5,0)"><line stroke="#000" y2="6"></line><text fill="#000" y="9" dy="0.71em">0.01</text></g><g class="tick" opacity="1" transform="translate(130.5,0)"><line stroke="#000" y2="6"></line><text fill="#000" y="9" dy="0.71em">1</text></g><g class="tick" opacity="1" transform="translate(260.5,0)"><line stroke="#000" y2="6"></line><text fill="#000" y="9" dy="0.71em">100</text></g><g class="tick" opacity="1" transform="translate(390.5,0)"><line stroke="#000" y2="6"></line><text fill="#000" y="9" dy="0.71em">10000</text></g><g class="tick" opacity="1" transform="translate(520.5,0)"><line stroke="#000" y2="6"></line><text fill="#000" y="9" dy="0.71em"></text></g></g><g class="axis axis--y" fill="none" font-size="10" font-family="sans-serif" text-anchor="end"><path class="domain" stroke="#000" d="M-6,310.5H0.5V0.5H-6"></path><g class="tick" opacity="1" transform="translate(0,310.5)"><line stroke="#000" x2="-6"></line><text fill="#000" x="-9" dy="0.32em">0</text></g><g class="tick" opacity="1" transform="translate(0,284.6235392320534)"><line stroke="#000" x2="-6"></line><text fill="#000" x="-9" dy="0.32em">50</text></g><g class="tick" opacity="1" transform="translate(0,258.74707846410683)"><line stroke="#000" x2="-6"></line><text fill="#000" x="-9" dy="0.32em">100</text></g><g class="tick" opacity="1" transform="translate(0,232.87061769616025)"><line stroke="#000" x2="-6"></line><text fill="#000" x="-9" dy="0.32em">150</text></g><g class="tick" opacity="1" transform="translate(0,206.99415692821367)"><line stroke="#000" x2="-6"></line><text fill="#000" x="-9" dy="0.32em">200</text></g><g class="tick" opacity="1" transform="translate(0,181.11769616026712)"><line stroke="#000" x2="-6"></line><text fill="#000" x="-9" dy="0.32em">250</text></g><g class="tick" opacity="1" transform="translate(0,155.24123539232053)"><line stroke="#000" x2="-6"></line><text fill="#000" x="-9" dy="0.32em">300</text></g><g class="tick" opacity="1" transform="translate(0,129.36477462437395)"><line stroke="#000" x2="-6"></line><text fill="#000" x="-9" dy="0.32em">350</text></g><g class="tick" opacity="1" transform="translate(0,103.48831385642737)"><line stroke="#000" x2="-6"></line><text fill="#000" x="-9" dy="0.32em">400</text></g><g class="tick" opacity="1" transform="translate(0,77.61185308848081)"><line stroke="#000" x2="-6"></line><text fill="#000" x="-9" dy="0.32em">450</text></g><g class="tick" opacity="1" transform="translate(0,51.73539232053423)"><line stroke="#000" x2="-6"></line><text fill="#000" x="-9" dy="0.32em">500</text></g><g class="tick" opacity="1" transform="translate(0,25.85893155258765)"><line stroke="#000" x2="-6"></line><text fill="#000" x="-9" dy="0.32em">550</text></g></g></g></svg>