<svg xmlns="http://www.w3.org/2000/svg" width="600" height="350"><defs><style type="text/css"><![CDATA[ 
.bar rect {
  fill-opacity: 0;
  stroke:       black;
  stroke-width: 0.5;
}

.highlight rect {
  fill:       red;
  fill-opacity: 1;
}
.axis path,
.axis line {
  fill: none;
  stroke: #000;
  shape-rendering: crispEdges;
}
 ]]></style></defs><g transform="translate(50,10)"><g class="bar" transform="translate(0,310)"><rect x="1" width="11.999999999999996" height="0"></rect></g><g class="bar" transform="translate(12.999999999999996,310)"><rect x="1" width="11.999999999999996" height="0"></rect></g><g class="bar" transform="translate(25.999999999999993,310)"><rect x="1" width="11.999999999999996" height="0"></rect></g><g class="bar" transform="translate(39.00000000000001,310)"><rect x="1" width="11.999999999999996" height="0"></rect></g><g class="bar" transform="translate(52,310)"><rect x="1" width="11.999999999999996" height="0"></rect></g><g class="bar" transform="translate(65,307.84722222222223)"><rect x="1" width="11.999999999999996" height="2.1527777777777715"></rect></g><g class="bar" transform="translate(78.00000000000001,304.61805555555554)"><rect x="1" width="11.999999999999996" height="5.381944444444457"></rect></g><g class="bar" transform="translate(91.00000000000001,306.7708333333333)"><rect x="1" width="11.999999999999996" height="3.2291666666666856"></rect></g><g class="bar" transform="translate(104,305.69444444444446)"><rect x="1" width="11.999999999999996" height="4.305555555555543"></rect></g><g class="bar" transform="translate(117,306.7708333333333)"><rect x="1" width="11.999999999999996" height="3.2291666666666856"></rect></g><g class="bar" transform="translate(130,271.25)"><rect x="1" width="11.999999999999996" height="38.75"></rect></g><g class="bar" transform="translate(143,294.93055555555554)"><rect x="1" width="11.999999999999996" height="15.069444444444457"></rect></g><g class="bar" transform="translate(156.00000000000003,257.25694444444446)"><rect x="1" width="11.999999999999996" height="52.74305555555554"></rect></g><g class="bar" transform="translate(169,236.80555555555554)"><rect x="1" width="11.999999999999996" height="73.19444444444446"></rect></g><g class="bar" transform="translate(182.00000000000003,206.66666666666669)"><rect x="1" width="11.999999999999996" height="103.33333333333331"></rect></g><g class="bar" transform="translate(195,137.77777777777777)"><rect x="1" width="11.999999999999996" height="172.22222222222223"></rect></g><g class="bar" transform="translate(208,86.11111111111111)"><rect x="1" width="11.999999999999996" height="223.88888888888889"></rect></g><g class="bar" transform="translate(221.00000000000003,66.73611111111111)"><rect x="1" width="11.999999999999996" height="243.26388888888889"></rect></g><g class="bar" transform="translate(234,53.81944444444446)"><rect x="1" width="11.999999999999996" height="256.18055555555554"></rect></g><g class="bar" transform="translate(247.00000000000003,35.52083333333337)"><rect x="1" width="11.999999999999996" height="274.47916666666663"></rect></g><g class="bar" transform="translate(260,0)"><rect x="1" width="11.999999999999996" height="310"></rect></g><g class="bar" transform="translate(273,32.29166666666663)"><rect x="1" width="11.999999999999996" height="277.70833333333337"></rect></g><g class="bar" transform="translate(286,51.66666666666663)"><rect x="1" width="11.999999999999996" height="258.33333333333337"></rect></g><g class="bar" transform="translate(299.00000000000006,103.33333333333334)"><rect x="1" width="11.999999999999996" height="206.66666666666666"></rect></g><g class="bar" transform="translate(312.00000000000006,117.32638888888889)"><rect x="1" width="11.999999999999996" height="192.67361111111111"></rect></g><g class="bar" transform="translate(325,159.30555555555557)"><rect x="1" width="11.999999999999996" height="150.69444444444443"></rect></g><g class="bar" transform="translate(338,214.20138888888889)"><rect x="1" width="11.999999999999996" height="95.79861111111111"></rect></g><g class="bar" transform="translate(351,266.94444444444446)"><rect x="1" width="11.999999999999996" height="43.05555555555554"></rect></g><g class="bar" transform="translate(364.00000000000006,304.61805555555554)"><rect x="1" width="11.999999999999996" height="5.381944444444457"></rect></g><g class="bar" transform="translate(377.00000000000006,305.69444444444446)"><rect x="1" width="11.999999999999996" height="4.305555555555543"></rect></g><g class="bar" transform="translate(390,307.84722222222223)"><rect x="1" width="11.999999999999996" height="2.1527777777777715"></rect></g><g class="bar" transform="translate(403,310)"><rect x="1" width="11.999999999999996" height="0"></rect></g><g class="bar" transform="translate(416,310)"><rect x="1" width="11.999999999999996" height="0"></rect></g><g class="bar" transform="translate(429.00000000000006,310)"><rect x="1" width="11.999999999999996" height="0"></rect></g><g class="bar" transform="translate(442.00000000000006,310)"><rect x="1" width="11.999999999999996" height="0"></rect></g><g class="bar" transform="translate(455,310)"><rect x="1" width="11.999999999999996" height="0"></rect></g><g class="bar" transform="translate(468,310)"><rect x="1" width="11.999999999999996" height="0"></rect></g><g class="bar" transform="translate(481,310)"><rect x="1" width="11.999999999999996" height="0"></rect></g><g class="bar" transform="translate(494.00000000000006,310)"><rect x="1" width="11.999999999999996" height="0"></rect></g><g class="bar" transform="translate(507.00000000000006,310)"><rect x="1" width="11.999999999999996" height="0"></rect></g><g class="axis axis--x" transform="translate(0,310)" fill="none" font-size="10" font-family="sans-serif" text-anchor="middle"><path class="domain" stroke="#000" d="M0.5,6V0.5H520.5V6"></path><g class="tick" opacity="1" transform="translate(0,0)"><line stroke="#000" y2="6" x1="0.5" x2="0.5"></line><text fill="#000" y="9" x="0.5" dy="0.71em">0.01</text></g><g class="tick" opacity="1" transform="translate(130,0)"><line stroke="#000" y2="6" x1="0.5" x2="0.5"></line><text fill="#000" y="9" x="0.5" dy="0.71em">1</text></g><g class="tick" opacity="1" transform="translate(260,0)"><line stroke="#000" y2="6" x1="0.5" x2="0.5"></line><text fill="#000" y="9" x="0.5" dy="0.71em">100</text></g><g class="tick" opacity="1" transform="translate(390,0)"><line stroke="#000" y2="6" x1="0.5" x2="0.5"></line><text fill="#000" y="9" x="0.5" dy="0.71em">10000</text></g><g class="tick" opacity="1" transform="translate(520,0)"><line stroke="#000" y2="6" x1="0.5" x2="0.5"></line><text fill="#000" y="9" x="0.5" dy="0.71em"></text></g></g><g class="axis axis--y" fill="none" font-size="10" font-family="sans-serif" text-anchor="end"><path class="domain" stroke="#000" d="M-6,310.5H0.5V0.5H-6"></path><g class="tick" opacity="1" transform="translate(0,310)"><line stroke="#000" x2="-6" y1="0.5" y2="0.5"></line><text fill="#000" x="-9" y="0.5" dy="0.32em">0</text></g><g class="tick" opacity="1" transform="translate(0,288.47222222222223)"><line stroke="#000" x2="-6" y1="0.5" y2="0.5"></line><text fill="#000" x="-9" y="0.5" dy="0.32em">20</text></g><g class="tick" opacity="1" transform="translate(0,266.94444444444446)"><line stroke="#000" x2="-6" y1="0.5" y2="0.5"></line><text fill="#000" x="-9" y="0.5" dy="0.32em">40</text></g><g class="tick" opacity="1" transform="translate(0,245.41666666666666)"><line stroke="#000" x2="-6" y1="0.5" y2="0.5"></line><text fill="#000" x="-9" y="0.5" dy="0.32em">60</text></g><g class="tick" opacity="1" transform="translate(0,223.88888888888889)"><line stroke="#000" x2="-6" y1="0.5" y2="0.5"></line><text fill="#000" x="-9" y="0.5" dy="0.32em">80</text></g><g class="tick" opacity="1" transform="translate(0,202.36111111111111)"><line stroke="#000" x2="-6" y1="0.5" y2="0.5"></line><text fill="#000" x="-9" y="0.5" dy="0.32em">100</text></g><g class="tick" opacity="1" transform="translate(0,180.83333333333331)"><line stroke="#000" x2="-6" y1="0.5" y2="0.5"></line><text fill="#000" x="-9" y="0.5" dy="0.32em">120</text></g><g class="tick" opacity="1" transform="translate(0,159.30555555555557)"><line stroke="#000" x2="-6" y1="0.5" y2="0.5"></line><text fill="#000" x="-9" y="0.5" dy="0.32em">140</text></g><g class="tick" opacity="1" transform="translate(0,137.77777777777777)"><line stroke="#000" x2="-6" y1="0.5" y2="0.5"></line><text fill="#000" x="-9" y="0.5" dy="0.32em">160</text></g><g class="tick" opacity="1" transform="translate(0,116.25)"><line stroke="#000" x2="-6" y1="0.5" y2="0.5"></line><text fill="#000" x="-9" y="0.5" dy="0.32em">180</text></g><g class="tick" opacity="1" transform="translate(0,94.72222222222223)"><line stroke="#000" x2="-6" y1="0.5" y2="0.5"></line><text fill="#000" x="-9" y="0.5" dy="0.32em">200</text></g><g class="tick" opacity="1" transform="translate(0,73.19444444444446)"><line stroke="#000" x2="-6" y1="0.5" y2="0.5"></line><text fill="#000" x="-9" y="0.5" dy="0.32em">220</text></g><g class="tick" opacity="1" transform="translate(0,51.66666666666663)"><line stroke="#000" x2="-6" y1="0.5" y2="0.5"></line><text fill="#000" x="-9" y="0.5" dy="0.32em">240</text></g><g class="tick" opacity="1" transform="translate(0,30.138888888888857)"><line stroke="#000" x2="-6" y1="0.5" y2="0.5"></line><text fill="#000" x="-9" y="0.5" dy="0.32em">260</text></g><g class="tick" opacity="1" transform="translate(0,8.611111111111143)"><line stroke="#000" x2="-6" y1="0.5" y2="0.5"></line><text fill="#000" x="-9" y="0.5" dy="0.32em">280</text></g></g></g></svg>