<svg xmlns="http://www.w3.org/2000/svg" width="280" height="160"><defs><style type="text/css"><![CDATA[ 
.bar rect {
  fill-opacity: 0;
  stroke:       black;
  stroke-width: 0.5;
}

.highlight rect {
  fill:       red;
  fill-opacity: 1;
}
.axis path,
.axis line {
  fill: none;
  stroke: #000;
  shape-rendering: crispEdges;
}
path {
    stroke: red;
    fill: none;
}

line {
    stroke: red;
}

path.marker {
    fill: red;
}
 ]]></style></defs><g transform="translate(50,10)"><g class="bar" transform="translate(0,120)"><rect x="1" width="11.5" height="0"></rect></g><g class="bar" transform="translate(12.5,120)"><rect x="1" width="11.5" height="0"></rect></g><g class="bar" transform="translate(25,120)"><rect x="1" width="11.5" height="0"></rect></g><g class="bar" transform="translate(37.5,120)"><rect x="1" width="11.5" height="0"></rect></g><g class="bar" transform="translate(50,120)"><rect x="1" width="11.5" height="0"></rect></g><g class="bar" transform="translate(62.5,120)"><rect x="1" width="11.5" height="0"></rect></g><g class="bar" transform="translate(75,119.29133858267717)"><rect x="1" width="11.5" height="0.7086614173228298"></rect></g><g class="bar" transform="translate(87.5,0)"><rect x="1" width="11.5" height="120"></rect></g><g class="bar" transform="translate(100,37.795275590551185)"><rect x="1" width="11.5" height="82.20472440944881"></rect></g><g class="bar" transform="translate(112.5,48.8976377952756)"><rect x="1" width="11.5" height="71.1023622047244"></rect></g><g class="bar" transform="translate(125,80.78740157480316)"><rect x="1" width="11.5" height="39.212598425196845"></rect></g><g class="bar" transform="translate(137.5,108.18897637795276)"><rect x="1" width="11.5" height="11.811023622047244"></rect></g><g class="bar" transform="translate(150,117.63779527559055)"><rect x="1" width="11.5" height="2.3622047244094517"></rect></g><g class="bar" transform="translate(162.5,119.5275590551181)"><rect x="1" width="11.5" height="0.47244094488189603"></rect></g><g class="bar" transform="translate(175,120)"><rect x="1" width="11.5" height="0"></rect></g><g class="bar" transform="translate(187.5,120)"><rect x="1" width="11.5" height="0"></rect></g></g></svg>