<svg xmlns="http://www.w3.org/2000/svg" width="280" height="160"><defs><style type="text/css"><![CDATA[ 
.bar rect {
  fill-opacity: 0;
  stroke:       black;
  stroke-width: 0.5;
}

.highlight rect {
  fill:       red;
  fill-opacity: 1;
}
.axis path,
.axis line {
  fill: none;
  stroke: #000;
  shape-rendering: crispEdges;
}
 ]]></style></defs><g transform="translate(50,10)"><g class="bar" transform="translate(0,120)"><rect x="1" width="11.5" height="0"></rect></g><g class="bar" transform="translate(12.5,120)"><rect x="1" width="11.5" height="0"></rect></g><g class="bar" transform="translate(25,120)"><rect x="1" width="11.5" height="0"></rect></g><g class="bar" transform="translate(37.5,119.89342806394316)"><rect x="1" width="11.5" height="0.10657193605683801"></rect></g><g class="bar" transform="translate(50,119.36056838365897)"><rect x="1" width="11.5" height="0.6394316163410281"></rect></g><g class="bar" transform="translate(62.5,115.09769094138544)"><rect x="1" width="11.5" height="4.902309058614563"></rect></g><g class="bar" transform="translate(75,92.82415630550622)"><rect x="1" width="11.5" height="27.17584369449378"></rect></g><g class="bar" transform="translate(87.5,36.23445825932504)"><rect x="1" width="11.5" height="83.76554174067496"></rect></g><g class="bar" transform="translate(100,0)"><rect x="1" width="11.5" height="120"></rect></g><g class="bar" transform="translate(112.5,66.71403197158082)"><rect x="1" width="11.5" height="53.28596802841918"></rect></g><g class="bar" transform="translate(125,106.89165186500888)"><rect x="1" width="11.5" height="13.108348134991118"></rect></g><g class="bar" transform="translate(137.5,116.80284191829485)"><rect x="1" width="11.5" height="3.1971580817051546"></rect></g><g class="bar" transform="translate(150,119.46714031971581)"><rect x="1" width="11.5" height="0.5328596802841901"></rect></g><g class="bar" transform="translate(162.5,119.89342806394316)"><rect x="1" width="11.5" height="0.10657193605683801"></rect></g><g class="bar" transform="translate(175,120)"><rect x="1" width="11.5" height="0"></rect></g><g class="bar" transform="translate(187.5,120)"><rect x="1" width="11.5" height="0"></rect></g></g></svg>