<svg xmlns="http://www.w3.org/2000/svg" width="280" height="160"><defs><style type="text/css"><![CDATA[ 
.bar rect {
  fill-opacity: 0;
  stroke:       black;
  stroke-width: 0.5;
}

.highlight rect {
  fill:       red;
  fill-opacity: 1;
}
.axis path,
.axis line {
  fill: none;
  stroke: #000;
  shape-rendering: crispEdges;
}
path {
    stroke: red;
    fill: none;
}

line {
    stroke: red;
}

path.marker {
    fill: red;
}
 ]]></style></defs><g transform="translate(50,10)"><g class="bar" transform="translate(0,120)"><rect x="1" width="11.5" height="0"></rect></g><g class="bar" transform="translate(12.5,120)"><rect x="1" width="11.5" height="0"></rect></g><g class="bar" transform="translate(25,120)"><rect x="1" width="11.5" height="0"></rect></g><g class="bar" transform="translate(37.5,120)"><rect x="1" width="11.5" height="0"></rect></g><g class="bar" transform="translate(50,118.05405405405405)"><rect x="1" width="11.5" height="1.945945945945951"></rect></g><g class="bar" transform="translate(62.5,103.13513513513513)"><rect x="1" width="11.5" height="16.86486486486487"></rect></g><g class="bar" transform="translate(75,68.43243243243244)"><rect x="1" width="11.5" height="51.567567567567565"></rect></g><g class="bar" transform="translate(87.5,12.648648648648646)"><rect x="1" width="11.5" height="107.35135135135135"></rect></g><g class="bar" transform="translate(100,0)"><rect x="1" width="11.5" height="120"></rect></g><g class="bar" transform="translate(112.5,14.91891891891892)"><rect x="1" width="11.5" height="105.08108108108108"></rect></g><g class="bar" transform="translate(125,75.56756756756756)"><rect x="1" width="11.5" height="44.432432432432435"></rect></g><g class="bar" transform="translate(137.5,106.70270270270271)"><rect x="1" width="11.5" height="13.297297297297291"></rect></g><g class="bar" transform="translate(150,117.4054054054054)"><rect x="1" width="11.5" height="2.5945945945945965"></rect></g><g class="bar" transform="translate(162.5,119.35135135135135)"><rect x="1" width="11.5" height="0.6486486486486456"></rect></g><g class="bar" transform="translate(175,120)"><rect x="1" width="11.5" height="0"></rect></g><g class="bar" transform="translate(187.5,120)"><rect x="1" width="11.5" height="0"></rect></g></g></svg>