<svg xmlns="http://www.w3.org/2000/svg" width="280" height="160"><defs><style type="text/css"><![CDATA[ 
.bar rect {
  fill-opacity: 0;
  stroke:       black;
  stroke-width: 0.5;
}

.highlight rect {
  fill:       red;
  fill-opacity: 1;
}
.axis path,
.axis line {
  fill: none;
  stroke: #000;
  shape-rendering: crispEdges;
}
path {
    stroke: red;
    fill: none;
}

line {
    stroke: red;
}

path.marker {
    fill: red;
}
 ]]></style></defs><g transform="translate(50,10)"><g class="bar" transform="translate(0,118.00391389432485)"><rect x="1" width="11.5" height="1.9960861056751469"></rect></g><g class="bar" transform="translate(12.5,111.31115459882584)"><rect x="1" width="11.5" height="8.688845401174163"></rect></g><g class="bar" transform="translate(25,97.573385518591)"><rect x="1" width="11.5" height="22.426614481409004"></rect></g><g class="bar" transform="translate(37.5,65.04892367906066)"><rect x="1" width="11.5" height="54.951076320939336"></rect></g><g class="bar" transform="translate(50,34.05088062622309)"><rect x="1" width="11.5" height="85.94911937377691"></rect></g><g class="bar" transform="translate(62.5,0)"><rect x="1" width="11.5" height="120"></rect></g><g class="bar" transform="translate(75,0.46966731898238834)"><rect x="1" width="11.5" height="119.53033268101761"></rect></g><g class="bar" transform="translate(87.5,14.442270058708417)"><rect x="1" width="11.5" height="105.55772994129158"></rect></g><g class="bar" transform="translate(100,47.67123287671234)"><rect x="1" width="11.5" height="72.32876712328766"></rect></g><g class="bar" transform="translate(112.5,72.44618395303327)"><rect x="1" width="11.5" height="47.55381604696673"></rect></g><g class="bar" transform="translate(125,98.39530332681018)"><rect x="1" width="11.5" height="21.60469667318982"></rect></g><g class="bar" transform="translate(137.5,113.77690802348337)"><rect x="1" width="11.5" height="6.223091976516628"></rect></g><g class="bar" transform="translate(150,119.76516634050881)"><rect x="1" width="11.5" height="0.23483365949118706"></rect></g><g class="bar" transform="translate(162.5,120)"><rect x="1" width="11.5" height="0"></rect></g><g class="bar" transform="translate(175,120)"><rect x="1" width="11.5" height="0"></rect></g><g class="bar" transform="translate(187.5,120)"><rect x="1" width="11.5" height="0"></rect></g></g></svg>