<svg xmlns="http://www.w3.org/2000/svg" width="600" height="350"><defs><style type="text/css"><![CDATA[ 
.bar rect {
  fill-opacity: 0;
  stroke:       black;
  stroke-width: 0.5;
}

.highlight rect {
  fill:       red;
  fill-opacity: 1;
}
.axis path,
.axis line {
  fill: none;
  stroke: #000;
  shape-rendering: crispEdges;
}
path {
    stroke: red;
    fill: none;
}

line {
    stroke: red;
}

path.marker {
    fill: red;
}
 ]]></style></defs><g transform="translate(50,10)"><g class="bar" transform="translate(0,308.609865470852)"><rect x="1" width="11.999999999999996" height="1.3901345291479856"></rect></g><g class="bar" transform="translate(12.999999999999996,305.13452914798205)"><rect x="1" width="11.999999999999996" height="4.86547085201795"></rect></g><g class="bar" transform="translate(25.999999999999993,297.4887892376682)"><rect x="1" width="11.999999999999996" height="12.511210762331814"></rect></g><g class="bar" transform="translate(39.00000000000001,292.62331838565024)"><rect x="1" width="11.999999999999996" height="17.376681614349764"></rect></g><g class="bar" transform="translate(52,282.89237668161434)"><rect x="1" width="11.999999999999996" height="27.107623318385663"></rect></g><g class="bar" transform="translate(65,262.7354260089686)"><rect x="1" width="11.999999999999996" height="47.2645739910314"></rect></g><g class="bar" transform="translate(78.00000000000001,255.0896860986547)"><rect x="1" width="11.999999999999996" height="54.91031390134529"></rect></g><g class="bar" transform="translate(91.00000000000001,218.25112107623318)"><rect x="1" width="11.999999999999996" height="91.74887892376682"></rect></g><g class="bar" transform="translate(104,183.49775784753365)"><rect x="1" width="11.999999999999996" height="126.50224215246635"></rect></g><g class="bar" transform="translate(117,172.37668161434976)"><rect x="1" width="11.999999999999996" height="137.62331838565024"></rect></g><g class="bar" transform="translate(130,142.48878923766816)"><rect x="1" width="11.999999999999996" height="167.51121076233184"></rect></g><g class="bar" transform="translate(143,89.66367713004482)"><rect x="1" width="11.999999999999996" height="220.33632286995518"></rect></g><g class="bar" transform="translate(156.00000000000003,53.52017937219733)"><rect x="1" width="11.999999999999996" height="256.47982062780267"></rect></g><g class="bar" transform="translate(169,45.17937219730942)"><rect x="1" width="11.999999999999996" height="264.8206278026906"></rect></g><g class="bar" transform="translate(182.00000000000003,0)"><rect x="1" width="11.999999999999996" height="310"></rect></g><g class="bar" transform="translate(195,20.156950672645735)"><rect x="1" width="11.999999999999996" height="289.84304932735427"></rect></g><g class="bar" transform="translate(208,38.22869955156949)"><rect x="1" width="11.999999999999996" height="271.7713004484305"></rect></g><g class="bar" transform="translate(221.00000000000003,27.802690582959656)"><rect x="1" width="11.999999999999996" height="282.19730941704034"></rect></g><g class="bar" transform="translate(234,45.17937219730942)"><rect x="1" width="11.999999999999996" height="264.8206278026906"></rect></g><g class="bar" transform="translate(247.00000000000003,86.18834080717488)"><rect x="1" width="11.999999999999996" height="223.81165919282512"></rect></g><g class="bar" transform="translate(260,105.65022421524662)"><rect x="1" width="11.999999999999996" height="204.34977578475338"></rect></g><g class="bar" transform="translate(273,160.5605381165919)"><rect x="1" width="11.999999999999996" height="149.4394618834081"></rect></g><g class="bar" transform="translate(286,149.43946188340806)"><rect x="1" width="11.999999999999996" height="160.56053811659194"></rect></g><g class="bar" transform="translate(299.00000000000006,203.65470852017938)"><rect x="1" width="11.999999999999996" height="106.34529147982062"></rect></g><g class="bar" transform="translate(312.00000000000006,221.03139013452915)"><rect x="1" width="11.999999999999996" height="88.96860986547085"></rect></g><g class="bar" transform="translate(325,240.4932735426009)"><rect x="1" width="11.999999999999996" height="69.50672645739911"></rect></g><g class="bar" transform="translate(338,266.90582959641256)"><rect x="1" width="11.999999999999996" height="43.09417040358744"></rect></g><g class="bar" transform="translate(351,280.80717488789236)"><rect x="1" width="11.999999999999996" height="29.19282511210764"></rect></g><g class="bar" transform="translate(364.00000000000006,292.62331838565024)"><rect x="1" width="11.999999999999996" height="17.376681614349764"></rect></g><g class="bar" transform="translate(377.00000000000006,304.43946188340806)"><rect x="1" width="11.999999999999996" height="5.5605381165919425"></rect></g><g class="bar" transform="translate(390,308.609865470852)"><rect x="1" width="11.999999999999996" height="1.3901345291479856"></rect></g><g class="bar" transform="translate(403,310)"><rect x="1" width="11.999999999999996" height="0"></rect></g><g class="bar" transform="translate(416,310)"><rect x="1" width="11.999999999999996" height="0"></rect></g><g class="bar" transform="translate(429.00000000000006,310)"><rect x="1" width="11.999999999999996" height="0"></rect></g><g class="bar" transform="translate(442.00000000000006,310)"><rect x="1" width="11.999999999999996" height="0"></rect></g><g class="bar" transform="translate(455,310)"><rect x="1" width="11.999999999999996" height="0"></rect></g><g class="bar" transform="translate(468,310)"><rect x="1" width="11.999999999999996" height="0"></rect></g><g class="bar" transform="translate(481,310)"><rect x="1" width="11.999999999999996" height="0"></rect></g><g class="bar" transform="translate(494.00000000000006,310)"><rect x="1" width="11.999999999999996" height="0"></rect></g><g class="bar" transform="translate(507.00000000000006,310)"><rect x="1" width="11.999999999999996" height="0"></rect></g><g class="axis axis--x" transform="translate(0,310)" fill="none" font-size="10" font-family="sans-serif" text-anchor="middle"><path class="domain" stroke="#000" d="M0.5,6V0.5H520.5V6"></path><g class="tick" opacity="1" transform="translate(0.5,0)"><line stroke="#000" y2="6"></line><text fill="#000" y="9" dy="0.71em">0.01</text></g><g class="tick" opacity="1" transform="translate(130.5,0)"><line stroke="#000" y2="6"></line><text fill="#000" y="9" dy="0.71em">1</text></g><g class="tick" opacity="1" transform="translate(260.5,0)"><line stroke="#000" y2="6"></line><text fill="#000" y="9" dy="0.71em">100</text></g><g class="tick" opacity="1" transform="translate(390.5,0)"><line stroke="#000" y2="6"></line><text fill="#000" y="9" dy="0.71em">10000</text></g><g class="tick" opacity="1" transform="translate(520.5,0)"><line stroke="#000" y2="6"></line><text fill="#000" y="9" dy="0.71em"></text></g></g><g class="axis axis--y" fill="none" font-size="10" font-family="sans-serif" text-anchor="end"><path class="domain" stroke="#000" d="M-6,310.5H0.5V0.5H-6"></path><g class="tick" opacity="1" transform="translate(0,310.5)"><line stroke="#000" x2="-6"></line><text fill="#000" x="-9" dy="0.32em">0</text></g><g class="tick" opacity="1" transform="translate(0,275.7466367713005)"><line stroke="#000" x2="-6"></line><text fill="#000" x="-9" dy="0.32em">50</text></g><g class="tick" opacity="1" transform="translate(0,240.9932735426009)"><line stroke="#000" x2="-6"></line><text fill="#000" x="-9" dy="0.32em">100</text></g><g class="tick" opacity="1" transform="translate(0,206.23991031390133)"><line stroke="#000" x2="-6"></line><text fill="#000" x="-9" dy="0.32em">150</text></g><g class="tick" opacity="1" transform="translate(0,171.48654708520178)"><line stroke="#000" x2="-6"></line><text fill="#000" x="-9" dy="0.32em">200</text></g><g class="tick" opacity="1" transform="translate(0,136.73318385650225)"><line stroke="#000" x2="-6"></line><text fill="#000" x="-9" dy="0.32em">250</text></g><g class="tick" opacity="1" transform="translate(0,101.97982062780267)"><line stroke="#000" x2="-6"></line><text fill="#000" x="-9" dy="0.32em">300</text></g><g class="tick" opacity="1" transform="translate(0,67.22645739910311)"><line stroke="#000" x2="-6"></line><text fill="#000" x="-9" dy="0.32em">350</text></g><g class="tick" opacity="1" transform="translate(0,32.473094170403556)"><line stroke="#000" x2="-6"></line><text fill="#000" x="-9" dy="0.32em">400</text></g></g></g></svg>