<svg xmlns="http://www.w3.org/2000/svg" width="600" height="350"><defs><style type="text/css"><![CDATA[ 
.bar rect {
  fill-opacity: 0;
  stroke:       black;
  stroke-width: 0.5;
}

.highlight rect {
  fill:       red;
  fill-opacity: 1;
}
.axis path,
.axis line {
  fill: none;
  stroke: #000;
  shape-rendering: crispEdges;
}
 ]]></style></defs><g transform="translate(50,10)"><g class="bar" transform="translate(0,310)"><rect x="1" width="11.999999999999996" height="0"></rect></g><g class="bar" transform="translate(12.999999999999996,310)"><rect x="1" width="11.999999999999996" height="0"></rect></g><g class="bar" transform="translate(25.999999999999993,310)"><rect x="1" width="11.999999999999996" height="0"></rect></g><g class="bar" transform="translate(39.00000000000001,310)"><rect x="1" width="11.999999999999996" height="0"></rect></g><g class="bar" transform="translate(52,310)"><rect x="1" width="11.999999999999996" height="0"></rect></g><g class="bar" transform="translate(65,310)"><rect x="1" width="11.999999999999996" height="0"></rect></g><g class="bar" transform="translate(78.00000000000001,310)"><rect x="1" width="11.999999999999996" height="0"></rect></g><g class="bar" transform="translate(91.00000000000001,310)"><rect x="1" width="11.999999999999996" height="0"></rect></g><g class="bar" transform="translate(104,308.48039215686276)"><rect x="1" width="11.999999999999996" height="1.519607843137237"></rect></g><g class="bar" transform="translate(117,303.921568627451)"><rect x="1" width="11.999999999999996" height="6.078431372549005"></rect></g><g class="bar" transform="translate(130,296.3235294117647)"><rect x="1" width="11.999999999999996" height="13.676470588235304"></rect></g><g class="bar" transform="translate(143,281.12745098039215)"><rect x="1" width="11.999999999999996" height="28.872549019607845"></rect></g><g class="bar" transform="translate(156.00000000000003,288.72549019607845)"><rect x="1" width="11.999999999999996" height="21.274509803921546"></rect></g><g class="bar" transform="translate(169,232.5)"><rect x="1" width="11.999999999999996" height="77.5"></rect></g><g class="bar" transform="translate(182.00000000000003,211.22549019607845)"><rect x="1" width="11.999999999999996" height="98.77450980392155"></rect></g><g class="bar" transform="translate(195,180.83333333333331)"><rect x="1" width="11.999999999999996" height="129.16666666666669"></rect></g><g class="bar" transform="translate(208,147.40196078431373)"><rect x="1" width="11.999999999999996" height="162.59803921568627"></rect></g><g class="bar" transform="translate(221.00000000000003,65.34313725490196)"><rect x="1" width="11.999999999999996" height="244.65686274509804"></rect></g><g class="bar" transform="translate(234,0)"><rect x="1" width="11.999999999999996" height="310"></rect></g><g class="bar" transform="translate(247.00000000000003,6.078431372549005)"><rect x="1" width="11.999999999999996" height="303.921568627451"></rect></g><g class="bar" transform="translate(260,18.235294117647072)"><rect x="1" width="11.999999999999996" height="291.7647058823529"></rect></g><g class="bar" transform="translate(273,71.42156862745097)"><rect x="1" width="11.999999999999996" height="238.57843137254903"></rect></g><g class="bar" transform="translate(286,104.85294117647061)"><rect x="1" width="11.999999999999996" height="205.1470588235294"></rect></g><g class="bar" transform="translate(299.00000000000006,103.33333333333334)"><rect x="1" width="11.999999999999996" height="206.66666666666666"></rect></g><g class="bar" transform="translate(312.00000000000006,159.55882352941177)"><rect x="1" width="11.999999999999996" height="150.44117647058823"></rect></g><g class="bar" transform="translate(325,221.86274509803923)"><rect x="1" width="11.999999999999996" height="88.13725490196077"></rect></g><g class="bar" transform="translate(338,229.46078431372547)"><rect x="1" width="11.999999999999996" height="80.53921568627453"></rect></g><g class="bar" transform="translate(351,262.8921568627451)"><rect x="1" width="11.999999999999996" height="47.10784313725492"></rect></g><g class="bar" transform="translate(364.00000000000006,276.5686274509804)"><rect x="1" width="11.999999999999996" height="33.43137254901961"></rect></g><g class="bar" transform="translate(377.00000000000006,293.2843137254902)"><rect x="1" width="11.999999999999996" height="16.71568627450978"></rect></g><g class="bar" transform="translate(390,293.2843137254902)"><rect x="1" width="11.999999999999996" height="16.71568627450978"></rect></g><g class="bar" transform="translate(403,303.921568627451)"><rect x="1" width="11.999999999999996" height="6.078431372549005"></rect></g><g class="bar" transform="translate(416,308.48039215686276)"><rect x="1" width="11.999999999999996" height="1.519607843137237"></rect></g><g class="bar" transform="translate(429.00000000000006,310)"><rect x="1" width="11.999999999999996" height="0"></rect></g><g class="bar" transform="translate(442.00000000000006,310)"><rect x="1" width="11.999999999999996" height="0"></rect></g><g class="bar" transform="translate(455,310)"><rect x="1" width="11.999999999999996" height="0"></rect></g><g class="bar" transform="translate(468,310)"><rect x="1" width="11.999999999999996" height="0"></rect></g><g class="bar" transform="translate(481,310)"><rect x="1" width="11.999999999999996" height="0"></rect></g><g class="bar" transform="translate(494.00000000000006,310)"><rect x="1" width="11.999999999999996" height="0"></rect></g><g class="bar" transform="translate(507.00000000000006,310)"><rect x="1" width="11.999999999999996" height="0"></rect></g><g class="axis axis--x" transform="translate(0,310)" fill="none" font-size="10" font-family="sans-serif" text-anchor="middle"><path class="domain" stroke="#000" d="M0.5,6V0.5H520.5V6"></path><g class="tick" opacity="1" transform="translate(0,0)"><line stroke="#000" y2="6" x1="0.5" x2="0.5"></line><text fill="#000" y="9" x="0.5" dy="0.71em">0.01</text></g><g class="tick" opacity="1" transform="translate(130,0)"><line stroke="#000" y2="6" x1="0.5" x2="0.5"></line><text fill="#000" y="9" x="0.5" dy="0.71em">1</text></g><g class="tick" opacity="1" transform="translate(260,0)"><line stroke="#000" y2="6" x1="0.5" x2="0.5"></line><text fill="#000" y="9" x="0.5" dy="0.71em">100</text></g><g class="tick" opacity="1" transform="translate(390,0)"><line stroke="#000" y2="6" x1="0.5" x2="0.5"></line><text fill="#000" y="9" x="0.5" dy="0.71em">10000</text></g><g class="tick" opacity="1" transform="translate(520,0)"><line stroke="#000" y2="6" x1="0.5" x2="0.5"></line><text fill="#000" y="9" x="0.5" dy="0.71em"></text></g></g><g class="axis axis--y" fill="none" font-size="10" font-family="sans-serif" text-anchor="end"><path class="domain" stroke="#000" d="M-6,310.5H0.5V0.5H-6"></path><g class="tick" opacity="1" transform="translate(0,310)"><line stroke="#000" x2="-6" y1="0.5" y2="0.5"></line><text fill="#000" x="-9" y="0.5" dy="0.32em">0</text></g><g class="tick" opacity="1" transform="translate(0,279.6078431372549)"><line stroke="#000" x2="-6" y1="0.5" y2="0.5"></line><text fill="#000" x="-9" y="0.5" dy="0.32em">20</text></g><g class="tick" opacity="1" transform="translate(0,249.2156862745098)"><line stroke="#000" x2="-6" y1="0.5" y2="0.5"></line><text fill="#000" x="-9" y="0.5" dy="0.32em">40</text></g><g class="tick" opacity="1" transform="translate(0,218.8235294117647)"><line stroke="#000" x2="-6" y1="0.5" y2="0.5"></line><text fill="#000" x="-9" y="0.5" dy="0.32em">60</text></g><g class="tick" opacity="1" transform="translate(0,188.4313725490196)"><line stroke="#000" x2="-6" y1="0.5" y2="0.5"></line><text fill="#000" x="-9" y="0.5" dy="0.32em">80</text></g><g class="tick" opacity="1" transform="translate(0,158.0392156862745)"><line stroke="#000" x2="-6" y1="0.5" y2="0.5"></line><text fill="#000" x="-9" y="0.5" dy="0.32em">100</text></g><g class="tick" opacity="1" transform="translate(0,127.64705882352939)"><line stroke="#000" x2="-6" y1="0.5" y2="0.5"></line><text fill="#000" x="-9" y="0.5" dy="0.32em">120</text></g><g class="tick" opacity="1" transform="translate(0,97.25490196078431)"><line stroke="#000" x2="-6" y1="0.5" y2="0.5"></line><text fill="#000" x="-9" y="0.5" dy="0.32em">140</text></g><g class="tick" opacity="1" transform="translate(0,66.86274509803923)"><line stroke="#000" x2="-6" y1="0.5" y2="0.5"></line><text fill="#000" x="-9" y="0.5" dy="0.32em">160</text></g><g class="tick" opacity="1" transform="translate(0,36.470588235294144)"><line stroke="#000" x2="-6" y1="0.5" y2="0.5"></line><text fill="#000" x="-9" y="0.5" dy="0.32em">180</text></g><g class="tick" opacity="1" transform="translate(0,6.078431372549005)"><line stroke="#000" x2="-6" y1="0.5" y2="0.5"></line><text fill="#000" x="-9" y="0.5" dy="0.32em">200</text></g></g></g></svg>