<svg xmlns="http://www.w3.org/2000/svg" width="600" height="350"><defs><style type="text/css"><![CDATA[ 
.bar rect {
  fill-opacity: 0;
  stroke:       black;
  stroke-width: 0.5;
}

.highlight rect {
  fill:       red;
  fill-opacity: 1;
}
.axis path,
.axis line {
  fill: none;
  stroke: #000;
  shape-rendering: crispEdges;
}
 ]]></style></defs><g transform="translate(50,10)"><g class="bar" transform="translate(0,310)"><rect x="1" width="5.500000000000005" height="0"></rect></g><g class="bar" transform="translate(6.500000000000005,309.5386904761905)"><rect x="1" width="5.500000000000005" height="0.4613095238095184"></rect></g><g class="bar" transform="translate(12.999999999999996,310)"><rect x="1" width="5.500000000000005" height="0"></rect></g><g class="bar" transform="translate(19.500000000000004,310)"><rect x="1" width="5.500000000000005" height="0"></rect></g><g class="bar" transform="translate(25.999999999999993,310)"><rect x="1" width="5.500000000000005" height="0"></rect></g><g class="bar" transform="translate(32.5,306.3095238095238)"><rect x="1" width="5.500000000000005" height="3.690476190476204"></rect></g><g class="bar" transform="translate(39.00000000000001,308.61607142857144)"><rect x="1" width="5.500000000000005" height="1.3839285714285552"></rect></g><g class="bar" transform="translate(45.500000000000014,304.0029761904762)"><rect x="1" width="5.500000000000005" height="5.997023809523796"></rect></g><g class="bar" transform="translate(52,303.08035714285717)"><rect x="1" width="5.500000000000005" height="6.919642857142833"></rect></g><g class="bar" transform="translate(58.49999999999999,300.7738095238095)"><rect x="1" width="5.500000000000005" height="9.226190476190482"></rect></g><g class="bar" transform="translate(65,302.1577380952381)"><rect x="1" width="5.500000000000005" height="7.842261904761926"></rect></g><g class="bar" transform="translate(71.5,298.4672619047619)"><rect x="1" width="5.500000000000005" height="11.532738095238074"></rect></g><g class="bar" transform="translate(78.00000000000001,294.3154761904762)"><rect x="1" width="5.500000000000005" height="15.684523809523796"></rect></g><g class="bar" transform="translate(84.5,293.39285714285717)"><rect x="1" width="5.500000000000005" height="16.607142857142833"></rect></g><g class="bar" transform="translate(91.00000000000001,295.69940476190476)"><rect x="1" width="5.500000000000005" height="14.30059523809524"></rect></g><g class="bar" transform="translate(97.5,295.69940476190476)"><rect x="1" width="5.500000000000005" height="14.30059523809524"></rect></g><g class="bar" transform="translate(104,291.54761904761904)"><rect x="1" width="5.500000000000005" height="18.452380952380963"></rect></g><g class="bar" transform="translate(110.50000000000001,295.23809523809524)"><rect x="1" width="5.500000000000005" height="14.76190476190476"></rect></g><g class="bar" transform="translate(117,298.4672619047619)"><rect x="1" width="5.500000000000005" height="11.532738095238074"></rect></g><g class="bar" transform="translate(123.50000000000001,291.0863095238095)"><rect x="1" width="5.500000000000005" height="18.91369047619048"></rect></g><g class="bar" transform="translate(130,287.85714285714283)"><rect x="1" width="5.500000000000005" height="22.142857142857167"></rect></g><g class="bar" transform="translate(136.5,282.7827380952381)"><rect x="1" width="5.500000000000005" height="27.217261904761926"></rect></g><g class="bar" transform="translate(143,270.7886904761905)"><rect x="1" width="5.500000000000005" height="39.21130952380952"></rect></g><g class="bar" transform="translate(149.50000000000003,261.1011904761905)"><rect x="1" width="5.500000000000005" height="48.89880952380952"></rect></g><g class="bar" transform="translate(156.00000000000003,241.72619047619048)"><rect x="1" width="5.500000000000005" height="68.27380952380952"></rect></g><g class="bar" transform="translate(162.5,214.97023809523807)"><rect x="1" width="5.500000000000005" height="95.02976190476193"></rect></g><g class="bar" transform="translate(169,159.15178571428572)"><rect x="1" width="5.500000000000005" height="150.84821428571428"></rect></g><g class="bar" transform="translate(175.5,121.7857142857143)"><rect x="1" width="5.500000000000005" height="188.2142857142857"></rect></g><g class="bar" transform="translate(182.00000000000003,74.73214285714286)"><rect x="1" width="5.500000000000005" height="235.26785714285714"></rect></g><g class="bar" transform="translate(188.50000000000003,58.125)"><rect x="1" width="5.500000000000005" height="251.875"></rect></g><g class="bar" transform="translate(195,52.58928571428572)"><rect x="1" width="5.500000000000005" height="257.4107142857143"></rect></g><g class="bar" transform="translate(201.5,12.916666666666629)"><rect x="1" width="5.500000000000005" height="297.08333333333337"></rect></g><g class="bar" transform="translate(208,0)"><rect x="1" width="5.500000000000005" height="310"></rect></g><g class="bar" transform="translate(214.50000000000003,20.758928571428555)"><rect x="1" width="5.500000000000005" height="289.24107142857144"></rect></g><g class="bar" transform="translate(221.00000000000003,44.28571428571428)"><rect x="1" width="5.500000000000005" height="265.7142857142857"></rect></g><g class="bar" transform="translate(227.5,65.04464285714286)"><rect x="1" width="5.500000000000005" height="244.95535714285714"></rect></g><g class="bar" transform="translate(234,83.49702380952382)"><rect x="1" width="5.500000000000005" height="226.50297619047618"></rect></g><g class="bar" transform="translate(240.5,106.10119047619048)"><rect x="1" width="5.500000000000005" height="203.89880952380952"></rect></g><g class="bar" transform="translate(247.00000000000003,116.25)"><rect x="1" width="5.500000000000005" height="193.75"></rect></g><g class="bar" transform="translate(253.50000000000003,154.53869047619048)"><rect x="1" width="5.500000000000005" height="155.46130952380952"></rect></g><g class="bar" transform="translate(260,150.3869047619048)"><rect x="1" width="5.500000000000005" height="159.6130952380952"></rect></g><g class="bar" transform="translate(266.50000000000006,172.5297619047619)"><rect x="1" width="5.500000000000005" height="137.4702380952381"></rect></g><g class="bar" transform="translate(273,200.20833333333331)"><rect x="1" width="5.500000000000005" height="109.79166666666669"></rect></g><g class="bar" transform="translate(279.5,217.27678571428572)"><rect x="1" width="5.500000000000005" height="92.72321428571428"></rect></g><g class="bar" transform="translate(286,226.5029761904762)"><rect x="1" width="5.500000000000005" height="83.4970238095238"></rect></g><g class="bar" transform="translate(292.5,245.8779761904762)"><rect x="1" width="5.500000000000005" height="64.1220238095238"></rect></g><g class="bar" transform="translate(299.00000000000006,250.49107142857142)"><rect x="1" width="5.500000000000005" height="59.508928571428584"></rect></g><g class="bar" transform="translate(305.5,267.5595238095238)"><rect x="1" width="5.500000000000005" height="42.440476190476204"></rect></g><g class="bar" transform="translate(312.00000000000006,276.32440476190476)"><rect x="1" width="5.500000000000005" height="33.67559523809524"></rect></g><g class="bar" transform="translate(318.5,282.32142857142856)"><rect x="1" width="5.500000000000005" height="27.678571428571445"></rect></g><g class="bar" transform="translate(325,286.4732142857143)"><rect x="1" width="5.500000000000005" height="23.526785714285722"></rect></g><g class="bar" transform="translate(331.50000000000006,296.1607142857143)"><rect x="1" width="5.500000000000005" height="13.839285714285722"></rect></g><g class="bar" transform="translate(338,297.0833333333333)"><rect x="1" width="5.500000000000005" height="12.916666666666686"></rect></g><g class="bar" transform="translate(344.50000000000006,305.38690476190476)"><rect x="1" width="5.500000000000005" height="4.613095238095241"></rect></g><g class="bar" transform="translate(351,306.3095238095238)"><rect x="1" width="5.500000000000005" height="3.690476190476204"></rect></g><g class="bar" transform="translate(357.5,307.23214285714283)"><rect x="1" width="5.500000000000005" height="2.767857142857167"></rect></g><g class="bar" transform="translate(364.00000000000006,308.61607142857144)"><rect x="1" width="5.500000000000005" height="1.3839285714285552"></rect></g><g class="bar" transform="translate(370.5,309.5386904761905)"><rect x="1" width="5.500000000000005" height="0.4613095238095184"></rect></g><g class="bar" transform="translate(377.00000000000006,310)"><rect x="1" width="5.500000000000005" height="0"></rect></g><g class="bar" transform="translate(383.5,307.23214285714283)"><rect x="1" width="5.500000000000005" height="2.767857142857167"></rect></g><g class="bar" transform="translate(390,310)"><rect x="1" width="5.500000000000005" height="0"></rect></g><g class="bar" transform="translate(396.50000000000006,309.5386904761905)"><rect x="1" width="5.500000000000005" height="0.4613095238095184"></rect></g><g class="bar" transform="translate(403,310)"><rect x="1" width="5.500000000000005" height="0"></rect></g><g class="bar" transform="translate(409.50000000000006,309.5386904761905)"><rect x="1" width="5.500000000000005" height="0.4613095238095184"></rect></g><g class="bar" transform="translate(416,310)"><rect x="1" width="5.500000000000005" height="0"></rect></g><g class="bar" transform="translate(422.5,310)"><rect x="1" width="5.500000000000005" height="0"></rect></g><g class="bar" transform="translate(429.00000000000006,310)"><rect x="1" width="5.500000000000005" height="0"></rect></g><g class="bar" transform="translate(435.5,310)"><rect x="1" width="5.500000000000005" height="0"></rect></g><g class="bar" transform="translate(442.00000000000006,310)"><rect x="1" width="5.500000000000005" height="0"></rect></g><g class="bar" transform="translate(448.5,310)"><rect x="1" width="5.500000000000005" height="0"></rect></g><g class="bar" transform="translate(455,310)"><rect x="1" width="5.500000000000005" height="0"></rect></g><g class="bar" transform="translate(461.50000000000006,310)"><rect x="1" width="5.500000000000005" height="0"></rect></g><g class="bar" transform="translate(468,310)"><rect x="1" width="5.500000000000005" height="0"></rect></g><g class="bar" transform="translate(474.50000000000006,310)"><rect x="1" width="5.500000000000005" height="0"></rect></g><g class="bar" transform="translate(481,310)"><rect x="1" width="5.500000000000005" height="0"></rect></g><g class="bar" transform="translate(487.5,310)"><rect x="1" width="5.500000000000005" height="0"></rect></g><g class="bar" transform="translate(494.00000000000006,310)"><rect x="1" width="5.500000000000005" height="0"></rect></g><g class="bar" transform="translate(500.5,310)"><rect x="1" width="5.500000000000005" height="0"></rect></g><g class="bar" transform="translate(507.00000000000006,310)"><rect x="1" width="5.500000000000005" height="0"></rect></g><g class="bar" transform="translate(513.5,310)"><rect x="1" width="5.500000000000005" height="0"></rect></g><g class="axis axis--x" transform="translate(0,310)" fill="none" font-size="10" font-family="sans-serif" text-anchor="middle"><path class="domain" stroke="#000" d="M0.5,6V0.5H520.5V6"></path><g class="tick" opacity="1" transform="translate(0,0)"><line stroke="#000" y2="6" x1="0.5" x2="0.5"></line><text fill="#000" y="9" x="0.5" dy="0.71em">0.01</text></g><g class="tick" opacity="1" transform="translate(130,0)"><line stroke="#000" y2="6" x1="0.5" x2="0.5"></line><text fill="#000" y="9" x="0.5" dy="0.71em">1</text></g><g class="tick" opacity="1" transform="translate(260,0)"><line stroke="#000" y2="6" x1="0.5" x2="0.5"></line><text fill="#000" y="9" x="0.5" dy="0.71em">100</text></g><g class="tick" opacity="1" transform="translate(390,0)"><line stroke="#000" y2="6" x1="0.5" x2="0.5"></line><text fill="#000" y="9" x="0.5" dy="0.71em">10000</text></g><g class="tick" opacity="1" transform="translate(520,0)"><line stroke="#000" y2="6" x1="0.5" x2="0.5"></line><text fill="#000" y="9" x="0.5" dy="0.71em"></text></g></g><g class="axis axis--y" fill="none" font-size="10" font-family="sans-serif" text-anchor="end"><path class="domain" stroke="#000" d="M-6,310.5H0.5V0.5H-6"></path><g class="tick" opacity="1" transform="translate(0,310)"><line stroke="#000" x2="-6" y1="0.5" y2="0.5"></line><text fill="#000" x="-9" y="0.5" dy="0.32em">0</text></g><g class="tick" opacity="1" transform="translate(0,286.9345238095238)"><line stroke="#000" x2="-6" y1="0.5" y2="0.5"></line><text fill="#000" x="-9" y="0.5" dy="0.32em">50</text></g><g class="tick" opacity="1" transform="translate(0,263.8690476190476)"><line stroke="#000" x2="-6" y1="0.5" y2="0.5"></line><text fill="#000" x="-9" y="0.5" dy="0.32em">100</text></g><g class="tick" opacity="1" transform="translate(0,240.80357142857144)"><line stroke="#000" x2="-6" y1="0.5" y2="0.5"></line><text fill="#000" x="-9" y="0.5" dy="0.32em">150</text></g><g class="tick" opacity="1" transform="translate(0,217.73809523809524)"><line stroke="#000" x2="-6" y1="0.5" y2="0.5"></line><text fill="#000" x="-9" y="0.5" dy="0.32em">200</text></g><g class="tick" opacity="1" transform="translate(0,194.67261904761904)"><line stroke="#000" x2="-6" y1="0.5" y2="0.5"></line><text fill="#000" x="-9" y="0.5" dy="0.32em">250</text></g><g class="tick" opacity="1" transform="translate(0,171.60714285714286)"><line stroke="#000" x2="-6" y1="0.5" y2="0.5"></line><text fill="#000" x="-9" y="0.5" dy="0.32em">300</text></g><g class="tick" opacity="1" transform="translate(0,148.54166666666666)"><line stroke="#000" x2="-6" y1="0.5" y2="0.5"></line><text fill="#000" x="-9" y="0.5" dy="0.32em">350</text></g><g class="tick" opacity="1" transform="translate(0,125.47619047619048)"><line stroke="#000" x2="-6" y1="0.5" y2="0.5"></line><text fill="#000" x="-9" y="0.5" dy="0.32em">400</text></g><g class="tick" opacity="1" transform="translate(0,102.4107142857143)"><line stroke="#000" x2="-6" y1="0.5" y2="0.5"></line><text fill="#000" x="-9" y="0.5" dy="0.32em">450</text></g><g class="tick" opacity="1" transform="translate(0,79.3452380952381)"><line stroke="#000" x2="-6" y1="0.5" y2="0.5"></line><text fill="#000" x="-9" y="0.5" dy="0.32em">500</text></g><g class="tick" opacity="1" transform="translate(0,56.2797619047619)"><line stroke="#000" x2="-6" y1="0.5" y2="0.5"></line><text fill="#000" x="-9" y="0.5" dy="0.32em">550</text></g><g class="tick" opacity="1" transform="translate(0,33.21428571428572)"><line stroke="#000" x2="-6" y1="0.5" y2="0.5"></line><text fill="#000" x="-9" y="0.5" dy="0.32em">600</text></g><g class="tick" opacity="1" transform="translate(0,10.148809523809518)"><line stroke="#000" x2="-6" y1="0.5" y2="0.5"></line><text fill="#000" x="-9" y="0.5" dy="0.32em">650</text></g></g></g></svg>