<svg xmlns="http://www.w3.org/2000/svg" width="600" height="350"><defs><style type="text/css"><![CDATA[ 
.bar rect {
  fill-opacity: 0;
  stroke:       black;
  stroke-width: 0.5;
}

.highlight rect {
  fill:       red;
  fill-opacity: 1;
}
.axis path,
.axis line {
  fill: none;
  stroke: #000;
  shape-rendering: crispEdges;
}
path {
    stroke: red;
    fill: none;
}

line {
    stroke: red;
}

path.marker {
    fill: red;
}
 ]]></style></defs><g transform="translate(50,10)"><g class="bar" transform="translate(0,310)"><rect x="1" width="2.2500000000000027" height="0"></rect></g><g class="bar" transform="translate(3.2500000000000027,310)"><rect x="1" width="2.2500000000000027" height="0"></rect></g><g class="bar" transform="translate(6.500000000000005,310)"><rect x="1" width="2.2500000000000027" height="0"></rect></g><g class="bar" transform="translate(9.749999999999995,310)"><rect x="1" width="2.2500000000000027" height="0"></rect></g><g class="bar" transform="translate(12.999999999999996,310)"><rect x="1" width="2.2500000000000027" height="0"></rect></g><g class="bar" transform="translate(16.25,310)"><rect x="1" width="2.2500000000000027" height="0"></rect></g><g class="bar" transform="translate(19.500000000000004,310)"><rect x="1" width="2.2500000000000027" height="0"></rect></g><g class="bar" transform="translate(22.750000000000007,310)"><rect x="1" width="2.2500000000000027" height="0"></rect></g><g class="bar" transform="translate(25.999999999999993,310)"><rect x="1" width="2.2500000000000027" height="0"></rect></g><g class="bar" transform="translate(29.249999999999996,310)"><rect x="1" width="2.2500000000000027" height="0"></rect></g><g class="bar" transform="translate(32.5,310)"><rect x="1" width="2.2500000000000027" height="0"></rect></g><g class="bar" transform="translate(35.75,310)"><rect x="1" width="2.2500000000000027" height="0"></rect></g><g class="bar" transform="translate(39.00000000000001,310)"><rect x="1" width="2.2500000000000027" height="0"></rect></g><g class="bar" transform="translate(42.24999999999999,310)"><rect x="1" width="2.2500000000000027" height="0"></rect></g><g class="bar" transform="translate(45.500000000000014,310)"><rect x="1" width="2.2500000000000027" height="0"></rect></g><g class="bar" transform="translate(48.75,310)"><rect x="1" width="2.2500000000000027" height="0"></rect></g><g class="bar" transform="translate(52,310)"><rect x="1" width="2.2500000000000027" height="0"></rect></g><g class="bar" transform="translate(55.25000000000001,310)"><rect x="1" width="2.2500000000000027" height="0"></rect></g><g class="bar" transform="translate(58.49999999999999,310)"><rect x="1" width="2.2500000000000027" height="0"></rect></g><g class="bar" transform="translate(61.750000000000014,310)"><rect x="1" width="2.2500000000000027" height="0"></rect></g><g class="bar" transform="translate(65,310)"><rect x="1" width="2.2500000000000027" height="0"></rect></g><g class="bar" transform="translate(68.25,310)"><rect x="1" width="2.2500000000000027" height="0"></rect></g><g class="bar" transform="translate(71.5,310)"><rect x="1" width="2.2500000000000027" height="0"></rect></g><g class="bar" transform="translate(74.75000000000001,310)"><rect x="1" width="2.2500000000000027" height="0"></rect></g><g class="bar" transform="translate(78.00000000000001,310)"><rect x="1" width="2.2500000000000027" height="0"></rect></g><g class="bar" transform="translate(81.25,310)"><rect x="1" width="2.2500000000000027" height="0"></rect></g><g class="bar" transform="translate(84.5,310)"><rect x="1" width="2.2500000000000027" height="0"></rect></g><g class="bar" transform="translate(87.75,310)"><rect x="1" width="2.2500000000000027" height="0"></rect></g><g class="bar" transform="translate(91.00000000000001,310)"><rect x="1" width="2.2500000000000027" height="0"></rect></g><g class="bar" transform="translate(94.25000000000001,310)"><rect x="1" width="2.2500000000000027" height="0"></rect></g><g class="bar" transform="translate(97.5,310)"><rect x="1" width="2.2500000000000027" height="0"></rect></g><g class="bar" transform="translate(100.75,310)"><rect x="1" width="2.2500000000000027" height="0"></rect></g><g class="bar" transform="translate(104,310)"><rect x="1" width="2.2500000000000027" height="0"></rect></g><g class="bar" transform="translate(107.25000000000001,310)"><rect x="1" width="2.2500000000000027" height="0"></rect></g><g class="bar" transform="translate(110.50000000000001,310)"><rect x="1" width="2.2500000000000027" height="0"></rect></g><g class="bar" transform="translate(113.75,310)"><rect x="1" width="2.2500000000000027" height="0"></rect></g><g class="bar" transform="translate(117,310)"><rect x="1" width="2.2500000000000027" height="0"></rect></g><g class="bar" transform="translate(120.25,310)"><rect x="1" width="2.2500000000000027" height="0"></rect></g><g class="bar" transform="translate(123.50000000000001,310)"><rect x="1" width="2.2500000000000027" height="0"></rect></g><g class="bar" transform="translate(126.75000000000001,310)"><rect x="1" width="2.2500000000000027" height="0"></rect></g><g class="bar" transform="translate(130,310)"><rect x="1" width="2.2500000000000027" height="0"></rect></g><g class="bar" transform="translate(133.25000000000003,310)"><rect x="1" width="2.2500000000000027" height="0"></rect></g><g class="bar" transform="translate(136.5,310)"><rect x="1" width="2.2500000000000027" height="0"></rect></g><g class="bar" transform="translate(139.75,310)"><rect x="1" width="2.2500000000000027" height="0"></rect></g><g class="bar" transform="translate(143,310)"><rect x="1" width="2.2500000000000027" height="0"></rect></g><g class="bar" transform="translate(146.25,310)"><rect x="1" width="2.2500000000000027" height="0"></rect></g><g class="bar" transform="translate(149.50000000000003,310)"><rect x="1" width="2.2500000000000027" height="0"></rect></g><g class="bar" transform="translate(152.75,310)"><rect x="1" width="2.2500000000000027" height="0"></rect></g><g class="bar" transform="translate(156.00000000000003,310)"><rect x="1" width="2.2500000000000027" height="0"></rect></g><g class="bar" transform="translate(159.25,310)"><rect x="1" width="2.2500000000000027" height="0"></rect></g><g class="bar" transform="translate(162.5,310)"><rect x="1" width="2.2500000000000027" height="0"></rect></g><g class="bar" transform="translate(165.75000000000003,310)"><rect x="1" width="2.2500000000000027" height="0"></rect></g><g class="bar" transform="translate(169,310)"><rect x="1" width="2.2500000000000027" height="0"></rect></g><g class="bar" transform="translate(172.25000000000003,310)"><rect x="1" width="2.2500000000000027" height="0"></rect></g><g class="bar" transform="translate(175.5,310)"><rect x="1" width="2.2500000000000027" height="0"></rect></g><g class="bar" transform="translate(178.75,306.9189602446483)"><rect x="1" width="2.2500000000000027" height="3.0810397553516964"></rect></g><g class="bar" transform="translate(182.00000000000003,310)"><rect x="1" width="2.2500000000000027" height="0"></rect></g><g class="bar" transform="translate(185.25,310)"><rect x="1" width="2.2500000000000027" height="0"></rect></g><g class="bar" transform="translate(188.50000000000003,308.81498470948014)"><rect x="1" width="2.2500000000000027" height="1.185015290519857"></rect></g><g class="bar" transform="translate(191.75,307.8669724770642)"><rect x="1" width="2.2500000000000027" height="2.1330275229357767"></rect></g><g class="bar" transform="translate(195,310)"><rect x="1" width="2.2500000000000027" height="0"></rect></g><g class="bar" transform="translate(198.25000000000003,308.57798165137615)"><rect x="1" width="2.2500000000000027" height="1.4220183486238511"></rect></g><g class="bar" transform="translate(201.5,309.2889908256881)"><rect x="1" width="2.2500000000000027" height="0.7110091743119256"></rect></g><g class="bar" transform="translate(204.75000000000003,308.34097859327215)"><rect x="1" width="2.2500000000000027" height="1.6590214067278453"></rect></g><g class="bar" transform="translate(208,308.57798165137615)"><rect x="1" width="2.2500000000000027" height="1.4220183486238511"></rect></g><g class="bar" transform="translate(211.25,304.7859327217125)"><rect x="1" width="2.2500000000000027" height="5.214067278287473"></rect></g><g class="bar" transform="translate(214.50000000000003,304.3119266055046)"><rect x="1" width="2.2500000000000027" height="5.6880733944954045"></rect></g><g class="bar" transform="translate(217.75,305.73394495412845)"><rect x="1" width="2.2500000000000027" height="4.266055045871553"></rect></g><g class="bar" transform="translate(221.00000000000003,307.3929663608563)"><rect x="1" width="2.2500000000000027" height="2.607033639143708"></rect></g><g class="bar" transform="translate(224.25,300.519877675841)"><rect x="1" width="2.2500000000000027" height="9.480122324159026"></rect></g><g class="bar" transform="translate(227.5,286.29969418960246)"><rect x="1" width="2.2500000000000027" height="23.700305810397538"></rect></g><g class="bar" transform="translate(230.75000000000003,261.414373088685)"><rect x="1" width="2.2500000000000027" height="48.58562691131499"></rect></g><g class="bar" transform="translate(234,232.5)"><rect x="1" width="2.2500000000000027" height="77.5"></rect></g><g class="bar" transform="translate(237.25000000000003,254.30428134556576)"><rect x="1" width="2.2500000000000027" height="55.695718654434245"></rect></g><g class="bar" transform="translate(240.5,290.091743119266)"><rect x="1" width="2.2500000000000027" height="19.908256880733973"></rect></g><g class="bar" transform="translate(243.75,301.70489296636083)"><rect x="1" width="2.2500000000000027" height="8.29510703363917"></rect></g><g class="bar" transform="translate(247.00000000000003,290.565749235474)"><rect x="1" width="2.2500000000000027" height="19.434250764525984"></rect></g><g class="bar" transform="translate(250.25,266.8654434250765)"><rect x="1" width="2.2500000000000027" height="43.13455657492352"></rect></g><g class="bar" transform="translate(253.50000000000003,223.7308868501529)"><rect x="1" width="2.2500000000000027" height="86.2691131498471"></rect></g><g class="bar" transform="translate(256.75,223.9678899082569)"><rect x="1" width="2.2500000000000027" height="86.0321100917431"></rect></g><g class="bar" transform="translate(260,258.3333333333333)"><rect x="1" width="2.2500000000000027" height="51.666666666666686"></rect></g><g class="bar" transform="translate(263.25,257.14831804281346)"><rect x="1" width="2.2500000000000027" height="52.85168195718654"></rect></g><g class="bar" transform="translate(266.50000000000006,151.44495412844037)"><rect x="1" width="2.2500000000000027" height="158.55504587155963"></rect></g><g class="bar" transform="translate(269.75,54.747706422018354)"><rect x="1" width="2.2500000000000027" height="255.25229357798165"></rect></g><g class="bar" transform="translate(273,0)"><rect x="1" width="2.2500000000000027" height="310"></rect></g><g class="bar" transform="translate(276.25,54.747706422018354)"><rect x="1" width="2.2500000000000027" height="255.25229357798165"></rect></g><g class="bar" transform="translate(279.5,216.14678899082568)"><rect x="1" width="2.2500000000000027" height="93.85321100917432"></rect></g><g class="bar" transform="translate(282.75000000000006,294.5948012232416)"><rect x="1" width="2.2500000000000027" height="15.405198776758425"></rect></g><g class="bar" transform="translate(286,299.3348623853211)"><rect x="1" width="2.2500000000000027" height="10.665137614678883"></rect></g><g class="bar" transform="translate(289.25,302.1788990825688)"><rect x="1" width="2.2500000000000027" height="7.821100917431181"></rect></g><g class="bar" transform="translate(292.5,306.68195718654437)"><rect x="1" width="2.2500000000000027" height="3.3180428134556337"></rect></g><g class="bar" transform="translate(295.75,304.3119266055046)"><rect x="1" width="2.2500000000000027" height="5.6880733944954045"></rect></g><g class="bar" transform="translate(299.00000000000006,309.2889908256881)"><rect x="1" width="2.2500000000000027" height="0.7110091743119256"></rect></g><g class="bar" transform="translate(302.25,309.52599388379207)"><rect x="1" width="2.2500000000000027" height="0.4740061162079314"></rect></g><g class="bar" transform="translate(305.5,310)"><rect x="1" width="2.2500000000000027" height="0"></rect></g><g class="bar" transform="translate(308.75,310)"><rect x="1" width="2.2500000000000027" height="0"></rect></g><g class="bar" transform="translate(312.00000000000006,310)"><rect x="1" width="2.2500000000000027" height="0"></rect></g><g class="bar" transform="translate(315.25000000000006,310)"><rect x="1" width="2.2500000000000027" height="0"></rect></g><g class="bar" transform="translate(318.5,310)"><rect x="1" width="2.2500000000000027" height="0"></rect></g><g class="bar" transform="translate(321.75,310)"><rect x="1" width="2.2500000000000027" height="0"></rect></g><g class="bar" transform="translate(325,310)"><rect x="1" width="2.2500000000000027" height="0"></rect></g><g class="bar" transform="translate(328.25000000000006,310)"><rect x="1" width="2.2500000000000027" height="0"></rect></g><g class="bar" transform="translate(331.50000000000006,310)"><rect x="1" width="2.2500000000000027" height="0"></rect></g><g class="bar" transform="translate(334.75,310)"><rect x="1" width="2.2500000000000027" height="0"></rect></g><g class="bar" transform="translate(338,310)"><rect x="1" width="2.2500000000000027" height="0"></rect></g><g class="bar" transform="translate(341.25,310)"><rect x="1" width="2.2500000000000027" height="0"></rect></g><g class="bar" transform="translate(344.50000000000006,310)"><rect x="1" width="2.2500000000000027" height="0"></rect></g><g class="bar" transform="translate(347.75000000000006,310)"><rect x="1" width="2.2500000000000027" height="0"></rect></g><g class="bar" transform="translate(351,310)"><rect x="1" width="2.2500000000000027" height="0"></rect></g><g class="bar" transform="translate(354.25,310)"><rect x="1" width="2.2500000000000027" height="0"></rect></g><g class="bar" transform="translate(357.5,310)"><rect x="1" width="2.2500000000000027" height="0"></rect></g><g class="bar" transform="translate(360.75000000000006,310)"><rect x="1" width="2.2500000000000027" height="0"></rect></g><g class="bar" transform="translate(364.00000000000006,310)"><rect x="1" width="2.2500000000000027" height="0"></rect></g><g class="bar" transform="translate(367.25,310)"><rect x="1" width="2.2500000000000027" height="0"></rect></g><g class="bar" transform="translate(370.5,310)"><rect x="1" width="2.2500000000000027" height="0"></rect></g><g class="bar" transform="translate(373.75,310)"><rect x="1" width="2.2500000000000027" height="0"></rect></g><g class="bar" transform="translate(377.00000000000006,310)"><rect x="1" width="2.2500000000000027" height="0"></rect></g><g class="bar" transform="translate(380.25000000000006,310)"><rect x="1" width="2.2500000000000027" height="0"></rect></g><g class="bar" transform="translate(383.5,310)"><rect x="1" width="2.2500000000000027" height="0"></rect></g><g class="bar" transform="translate(386.75,310)"><rect x="1" width="2.2500000000000027" height="0"></rect></g><g class="bar" transform="translate(390,310)"><rect x="1" width="2.2500000000000027" height="0"></rect></g><g class="bar" transform="translate(393.25000000000006,310)"><rect x="1" width="2.2500000000000027" height="0"></rect></g><g class="bar" transform="translate(396.50000000000006,310)"><rect x="1" width="2.2500000000000027" height="0"></rect></g><g class="bar" transform="translate(399.75,310)"><rect x="1" width="2.2500000000000027" height="0"></rect></g><g class="bar" transform="translate(403,310)"><rect x="1" width="2.2500000000000027" height="0"></rect></g><g class="bar" transform="translate(406.25,310)"><rect x="1" width="2.2500000000000027" height="0"></rect></g><g class="bar" transform="translate(409.50000000000006,310)"><rect x="1" width="2.2500000000000027" height="0"></rect></g><g class="bar" transform="translate(412.75000000000006,310)"><rect x="1" width="2.2500000000000027" height="0"></rect></g><g class="bar" transform="translate(416,310)"><rect x="1" width="2.2500000000000027" height="0"></rect></g><g class="bar" transform="translate(419.25,310)"><rect x="1" width="2.2500000000000027" height="0"></rect></g><g class="bar" transform="translate(422.5,310)"><rect x="1" width="2.2500000000000027" height="0"></rect></g><g class="bar" transform="translate(425.75000000000006,310)"><rect x="1" width="2.2500000000000027" height="0"></rect></g><g class="bar" transform="translate(429.00000000000006,310)"><rect x="1" width="2.2500000000000027" height="0"></rect></g><g class="bar" transform="translate(432.25,310)"><rect x="1" width="2.2500000000000027" height="0"></rect></g><g class="bar" transform="translate(435.5,310)"><rect x="1" width="2.2500000000000027" height="0"></rect></g><g class="bar" transform="translate(438.75,310)"><rect x="1" width="2.2500000000000027" height="0"></rect></g><g class="bar" transform="translate(442.00000000000006,310)"><rect x="1" width="2.2500000000000027" height="0"></rect></g><g class="bar" transform="translate(445.25000000000006,310)"><rect x="1" width="2.2500000000000027" height="0"></rect></g><g class="bar" transform="translate(448.5,310)"><rect x="1" width="2.2500000000000027" height="0"></rect></g><g class="bar" transform="translate(451.75,310)"><rect x="1" width="2.2500000000000027" height="0"></rect></g><g class="bar" transform="translate(455,310)"><rect x="1" width="2.2500000000000027" height="0"></rect></g><g class="bar" transform="translate(458.25000000000006,310)"><rect x="1" width="2.2500000000000027" height="0"></rect></g><g class="bar" transform="translate(461.50000000000006,310)"><rect x="1" width="2.2500000000000027" height="0"></rect></g><g class="bar" transform="translate(464.75,310)"><rect x="1" width="2.2500000000000027" height="0"></rect></g><g class="bar" transform="translate(468,310)"><rect x="1" width="2.2500000000000027" height="0"></rect></g><g class="bar" transform="translate(471.25,310)"><rect x="1" width="2.2500000000000027" height="0"></rect></g><g class="bar" transform="translate(474.50000000000006,310)"><rect x="1" width="2.2500000000000027" height="0"></rect></g><g class="bar" transform="translate(477.75000000000006,310)"><rect x="1" width="2.2500000000000027" height="0"></rect></g><g class="bar" transform="translate(481,310)"><rect x="1" width="2.2500000000000027" height="0"></rect></g><g class="bar" transform="translate(484.25,310)"><rect x="1" width="2.2500000000000027" height="0"></rect></g><g class="bar" transform="translate(487.5,310)"><rect x="1" width="2.2500000000000027" height="0"></rect></g><g class="bar" transform="translate(490.75000000000006,310)"><rect x="1" width="2.2500000000000027" height="0"></rect></g><g class="bar" transform="translate(494.00000000000006,310)"><rect x="1" width="2.2500000000000027" height="0"></rect></g><g class="bar" transform="translate(497.25,310)"><rect x="1" width="2.2500000000000027" height="0"></rect></g><g class="bar" transform="translate(500.5,310)"><rect x="1" width="2.2500000000000027" height="0"></rect></g><g class="bar" transform="translate(503.75,310)"><rect x="1" width="2.2500000000000027" height="0"></rect></g><g class="bar" transform="translate(507.00000000000006,310)"><rect x="1" width="2.2500000000000027" height="0"></rect></g><g class="bar" transform="translate(510.25000000000006,310)"><rect x="1" width="2.2500000000000027" height="0"></rect></g><g class="bar" transform="translate(513.5,310)"><rect x="1" width="2.2500000000000027" height="0"></rect></g><g class="bar" transform="translate(516.75,310)"><rect x="1" width="2.2500000000000027" height="0"></rect></g><g class="axis axis--x" transform="translate(0,310)" fill="none" font-size="10" font-family="sans-serif" text-anchor="middle"><path class="domain" stroke="#000" d="M0.5,6V0.5H520.5V6"></path><g class="tick" opacity="1" transform="translate(0.5,0)"><line stroke="#000" y2="6"></line><text fill="#000" y="9" dy="0.71em">0.01</text></g><g class="tick" opacity="1" transform="translate(130.5,0)"><line stroke="#000" y2="6"></line><text fill="#000" y="9" dy="0.71em">1</text></g><g class="tick" opacity="1" transform="translate(260.5,0)"><line stroke="#000" y2="6"></line><text fill="#000" y="9" dy="0.71em">100</text></g><g class="tick" opacity="1" transform="translate(390.5,0)"><line stroke="#000" y2="6"></line><text fill="#000" y="9" dy="0.71em">10000</text></g><g class="tick" opacity="1" transform="translate(520.5,0)"><line stroke="#000" y2="6"></line><text fill="#000" y="9" dy="0.71em"></text></g></g><g class="axis axis--y" fill="none" font-size="10" font-family="sans-serif" text-anchor="end"><path class="domain" stroke="#000" d="M-6,310.5H0.5V0.5H-6"></path><g class="tick" opacity="1" transform="translate(0,310.5)"><line stroke="#000" x2="-6"></line><text fill="#000" x="-9" dy="0.32em">0</text></g><g class="tick" opacity="1" transform="translate(0,286.79969418960246)"><line stroke="#000" x2="-6"></line><text fill="#000" x="-9" dy="0.32em">100</text></g><g class="tick" opacity="1" transform="translate(0,263.0993883792049)"><line stroke="#000" x2="-6"></line><text fill="#000" x="-9" dy="0.32em">200</text></g><g class="tick" opacity="1" transform="translate(0,239.39908256880733)"><line stroke="#000" x2="-6"></line><text fill="#000" x="-9" dy="0.32em">300</text></g><g class="tick" opacity="1" transform="translate(0,215.6987767584098)"><line stroke="#000" x2="-6"></line><text fill="#000" x="-9" dy="0.32em">400</text></g><g class="tick" opacity="1" transform="translate(0,191.99847094801223)"><line stroke="#000" x2="-6"></line><text fill="#000" x="-9" dy="0.32em">500</text></g><g class="tick" opacity="1" transform="translate(0,168.29816513761466)"><line stroke="#000" x2="-6"></line><text fill="#000" x="-9" dy="0.32em">600</text></g><g class="tick" opacity="1" transform="translate(0,144.59785932721712)"><line stroke="#000" x2="-6"></line><text fill="#000" x="-9" dy="0.32em">700</text></g><g class="tick" opacity="1" transform="translate(0,120.89755351681958)"><line stroke="#000" x2="-6"></line><text fill="#000" x="-9" dy="0.32em">800</text></g><g class="tick" opacity="1" transform="translate(0,97.19724770642202)"><line stroke="#000" x2="-6"></line><text fill="#000" x="-9" dy="0.32em">900</text></g><g class="tick" opacity="1" transform="translate(0,73.49694189602445)"><line stroke="#000" x2="-6"></line><text fill="#000" x="-9" dy="0.32em">1,000</text></g><g class="tick" opacity="1" transform="translate(0,49.796636085626915)"><line stroke="#000" x2="-6"></line><text fill="#000" x="-9" dy="0.32em">1,100</text></g><g class="tick" opacity="1" transform="translate(0,26.09633027522932)"><line stroke="#000" x2="-6"></line><text fill="#000" x="-9" dy="0.32em">1,200</text></g><g class="tick" opacity="1" transform="translate(0,2.3960244648318394)"><line stroke="#000" x2="-6"></line><text fill="#000" x="-9" dy="0.32em">1,300</text></g></g></g></svg>