<svg xmlns="http://www.w3.org/2000/svg" width="280" height="160"><defs><style type="text/css"><![CDATA[ 
.bar rect {
  fill-opacity: 0;
  stroke:       black;
  stroke-width: 0.5;
}

.highlight rect {
  fill:       red;
  fill-opacity: 1;
}
.axis path,
.axis line {
  fill: none;
  stroke: #000;
  shape-rendering: crispEdges;
}
path {
    stroke: red;
    fill: none;
}

line {
    stroke: red;
}

path.marker {
    fill: red;
}
 ]]></style></defs><g transform="translate(50,10)"><g class="bar" transform="translate(0,120)"><rect x="1" width="11.5" height="0"></rect></g><g class="bar" transform="translate(12.5,120)"><rect x="1" width="11.5" height="0"></rect></g><g class="bar" transform="translate(25,120)"><rect x="1" width="11.5" height="0"></rect></g><g class="bar" transform="translate(37.5,120)"><rect x="1" width="11.5" height="0"></rect></g><g class="bar" transform="translate(50,118.66295264623956)"><rect x="1" width="11.5" height="1.3370473537604397"></rect></g><g class="bar" transform="translate(62.5,102.95264623955433)"><rect x="1" width="11.5" height="17.047353760445674"></rect></g><g class="bar" transform="translate(75,82.2284122562674)"><rect x="1" width="11.5" height="37.771587743732596"></rect></g><g class="bar" transform="translate(87.5,38.105849582172695)"><rect x="1" width="11.5" height="81.8941504178273"></rect></g><g class="bar" transform="translate(100,12.033426183844014)"><rect x="1" width="11.5" height="107.96657381615599"></rect></g><g class="bar" transform="translate(112.5,0)"><rect x="1" width="11.5" height="120"></rect></g><g class="bar" transform="translate(125,51.81058495821728)"><rect x="1" width="11.5" height="68.18941504178272"></rect></g><g class="bar" transform="translate(137.5,102.95264623955433)"><rect x="1" width="11.5" height="17.047353760445674"></rect></g><g class="bar" transform="translate(150,118.32869080779945)"><rect x="1" width="11.5" height="1.6713091922005532"></rect></g><g class="bar" transform="translate(162.5,120)"><rect x="1" width="11.5" height="0"></rect></g><g class="bar" transform="translate(175,120)"><rect x="1" width="11.5" height="0"></rect></g><g class="bar" transform="translate(187.5,120)"><rect x="1" width="11.5" height="0"></rect></g></g></svg>