<svg xmlns="http://www.w3.org/2000/svg" width="600" height="350"><defs><style type="text/css"><![CDATA[ 
.bar rect {
  fill-opacity: 0;
  stroke:       black;
  stroke-width: 0.5;
}

.highlight rect {
  fill:       red;
  fill-opacity: 1;
}
.axis path,
.axis line {
  fill: none;
  stroke: #000;
  shape-rendering: crispEdges;
}
path {
    stroke: red;
    fill: none;
}

line {
    stroke: red;
}

path.marker {
    fill: red;
}
 ]]></style></defs><g transform="translate(50,10)"><g class="bar" transform="translate(0,310)"><rect x="1" width="5.500000000000005" height="0"></rect></g><g class="bar" transform="translate(6.500000000000005,310)"><rect x="1" width="5.500000000000005" height="0"></rect></g><g class="bar" transform="translate(12.999999999999996,310)"><rect x="1" width="5.500000000000005" height="0"></rect></g><g class="bar" transform="translate(19.500000000000004,310)"><rect x="1" width="5.500000000000005" height="0"></rect></g><g class="bar" transform="translate(25.999999999999993,310)"><rect x="1" width="5.500000000000005" height="0"></rect></g><g class="bar" transform="translate(32.5,310)"><rect x="1" width="5.500000000000005" height="0"></rect></g><g class="bar" transform="translate(39.00000000000001,310)"><rect x="1" width="5.500000000000005" height="0"></rect></g><g class="bar" transform="translate(45.500000000000014,310)"><rect x="1" width="5.500000000000005" height="0"></rect></g><g class="bar" transform="translate(52,310)"><rect x="1" width="5.500000000000005" height="0"></rect></g><g class="bar" transform="translate(58.49999999999999,310)"><rect x="1" width="5.500000000000005" height="0"></rect></g><g class="bar" transform="translate(65,310)"><rect x="1" width="5.500000000000005" height="0"></rect></g><g class="bar" transform="translate(71.5,310)"><rect x="1" width="5.500000000000005" height="0"></rect></g><g class="bar" transform="translate(78.00000000000001,310)"><rect x="1" width="5.500000000000005" height="0"></rect></g><g class="bar" transform="translate(84.5,310)"><rect x="1" width="5.500000000000005" height="0"></rect></g><g class="bar" transform="translate(91.00000000000001,308.8197969543147)"><rect x="1" width="5.500000000000005" height="1.180203045685289"></rect></g><g class="bar" transform="translate(97.5,306.8527918781726)"><rect x="1" width="5.500000000000005" height="3.1472081218274184"></rect></g><g class="bar" transform="translate(104,306.8527918781726)"><rect x="1" width="5.500000000000005" height="3.1472081218274184"></rect></g><g class="bar" transform="translate(110.50000000000001,307.24619289340103)"><rect x="1" width="5.500000000000005" height="2.7538071065989698"></rect></g><g class="bar" transform="translate(117,302.1319796954315)"><rect x="1" width="5.500000000000005" height="7.8680203045685175"></rect></g><g class="bar" transform="translate(123.50000000000001,304.492385786802)"><rect x="1" width="5.500000000000005" height="5.507614213197996"></rect></g><g class="bar" transform="translate(130,295.83756345177665)"><rect x="1" width="5.500000000000005" height="14.162436548223354"></rect></g><g class="bar" transform="translate(136.5,282.8553299492386)"><rect x="1" width="5.500000000000005" height="27.14467005076142"></rect></g><g class="bar" transform="translate(143,266.7258883248731)"><rect x="1" width="5.500000000000005" height="43.2741116751269"></rect></g><g class="bar" transform="translate(149.50000000000003,241.5482233502538)"><rect x="1" width="5.500000000000005" height="68.4517766497462"></rect></g><g class="bar" transform="translate(156.00000000000003,208.10913705583755)"><rect x="1" width="5.500000000000005" height="101.89086294416245"></rect></g><g class="bar" transform="translate(162.5,166.8020304568528)"><rect x="1" width="5.500000000000005" height="143.1979695431472"></rect></g><g class="bar" transform="translate(169,93.23604060913706)"><rect x="1" width="5.500000000000005" height="216.76395939086294"></rect></g><g class="bar" transform="translate(175.5,68.45177664974622)"><rect x="1" width="5.500000000000005" height="241.54822335025378"></rect></g><g class="bar" transform="translate(182.00000000000003,14.555837563451746)"><rect x="1" width="5.500000000000005" height="295.44416243654825"></rect></g><g class="bar" transform="translate(188.50000000000003,0)"><rect x="1" width="5.500000000000005" height="310"></rect></g><g class="bar" transform="translate(195,21.637055837563423)"><rect x="1" width="5.500000000000005" height="288.3629441624366"></rect></g><g class="bar" transform="translate(201.5,24.39086294416245)"><rect x="1" width="5.500000000000005" height="285.60913705583755"></rect></g><g class="bar" transform="translate(208,75.92639593908629)"><rect x="1" width="5.500000000000005" height="234.0736040609137"></rect></g><g class="bar" transform="translate(214.50000000000003,89.30203045685278)"><rect x="1" width="5.500000000000005" height="220.69796954314722"></rect></g><g class="bar" transform="translate(221.00000000000003,138.4771573604061)"><rect x="1" width="5.500000000000005" height="171.5228426395939"></rect></g><g class="bar" transform="translate(227.5,180.1776649746193)"><rect x="1" width="5.500000000000005" height="129.8223350253807"></rect></g><g class="bar" transform="translate(234,183.3248730964467)"><rect x="1" width="5.500000000000005" height="126.67512690355329"></rect></g><g class="bar" transform="translate(240.5,206.14213197969542)"><rect x="1" width="5.500000000000005" height="103.85786802030458"></rect></g><g class="bar" transform="translate(247.00000000000003,221.48477157360406)"><rect x="1" width="5.500000000000005" height="88.51522842639594"></rect></g><g class="bar" transform="translate(253.50000000000003,232.89340101522845)"><rect x="1" width="5.500000000000005" height="77.10659898477155"></rect></g><g class="bar" transform="translate(260,240.36802030456852)"><rect x="1" width="5.500000000000005" height="69.63197969543148"></rect></g><g class="bar" transform="translate(266.50000000000006,240.36802030456852)"><rect x="1" width="5.500000000000005" height="69.63197969543148"></rect></g><g class="bar" transform="translate(273,241.1548223350254)"><rect x="1" width="5.500000000000005" height="68.84517766497461"></rect></g><g class="bar" transform="translate(279.5,259.251269035533)"><rect x="1" width="5.500000000000005" height="50.74873096446697"></rect></g><g class="bar" transform="translate(286,257.6776649746193)"><rect x="1" width="5.500000000000005" height="52.32233502538071"></rect></g><g class="bar" transform="translate(292.5,260.03807106598987)"><rect x="1" width="5.500000000000005" height="49.96192893401013"></rect></g><g class="bar" transform="translate(299.00000000000006,264.75888324873097)"><rect x="1" width="5.500000000000005" height="45.24111675126903"></rect></g><g class="bar" transform="translate(305.5,270.2664974619289)"><rect x="1" width="5.500000000000005" height="39.73350253807109"></rect></g><g class="bar" transform="translate(312.00000000000006,277.74111675126903)"><rect x="1" width="5.500000000000005" height="32.25888324873097"></rect></g><g class="bar" transform="translate(318.5,282.06852791878174)"><rect x="1" width="5.500000000000005" height="27.93147208121826"></rect></g><g class="bar" transform="translate(325,279.3147208121827)"><rect x="1" width="5.500000000000005" height="30.685279187817287"></rect></g><g class="bar" transform="translate(331.50000000000006,294.26395939086296)"><rect x="1" width="5.500000000000005" height="15.736040609137035"></rect></g><g class="bar" transform="translate(338,294.65736040609136)"><rect x="1" width="5.500000000000005" height="15.342639593908643"></rect></g><g class="bar" transform="translate(344.50000000000006,300.16497461928935)"><rect x="1" width="5.500000000000005" height="9.835025380710647"></rect></g><g class="bar" transform="translate(351,305.6725888324873)"><rect x="1" width="5.500000000000005" height="4.327411167512707"></rect></g><g class="bar" transform="translate(357.5,306.06598984771574)"><rect x="1" width="5.500000000000005" height="3.9340101522842588"></rect></g><g class="bar" transform="translate(364.00000000000006,305.2791878172589)"><rect x="1" width="5.500000000000005" height="4.720812182741099"></rect></g><g class="bar" transform="translate(370.5,309.21319796954316)"><rect x="1" width="5.500000000000005" height="0.7868020304568404"></rect></g><g class="bar" transform="translate(377.00000000000006,309.21319796954316)"><rect x="1" width="5.500000000000005" height="0.7868020304568404"></rect></g><g class="bar" transform="translate(383.5,309.60659898477155)"><rect x="1" width="5.500000000000005" height="0.3934010152284486"></rect></g><g class="bar" transform="translate(390,309.60659898477155)"><rect x="1" width="5.500000000000005" height="0.3934010152284486"></rect></g><g class="bar" transform="translate(396.50000000000006,310)"><rect x="1" width="5.500000000000005" height="0"></rect></g><g class="bar" transform="translate(403,310)"><rect x="1" width="5.500000000000005" height="0"></rect></g><g class="bar" transform="translate(409.50000000000006,310)"><rect x="1" width="5.500000000000005" height="0"></rect></g><g class="bar" transform="translate(416,310)"><rect x="1" width="5.500000000000005" height="0"></rect></g><g class="bar" transform="translate(422.5,310)"><rect x="1" width="5.500000000000005" height="0"></rect></g><g class="bar" transform="translate(429.00000000000006,310)"><rect x="1" width="5.500000000000005" height="0"></rect></g><g class="bar" transform="translate(435.5,310)"><rect x="1" width="5.500000000000005" height="0"></rect></g><g class="bar" transform="translate(442.00000000000006,310)"><rect x="1" width="5.500000000000005" height="0"></rect></g><g class="bar" transform="translate(448.5,310)"><rect x="1" width="5.500000000000005" height="0"></rect></g><g class="bar" transform="translate(455,310)"><rect x="1" width="5.500000000000005" height="0"></rect></g><g class="bar" transform="translate(461.50000000000006,310)"><rect x="1" width="5.500000000000005" height="0"></rect></g><g class="bar" transform="translate(468,310)"><rect x="1" width="5.500000000000005" height="0"></rect></g><g class="bar" transform="translate(474.50000000000006,310)"><rect x="1" width="5.500000000000005" height="0"></rect></g><g class="bar" transform="translate(481,310)"><rect x="1" width="5.500000000000005" height="0"></rect></g><g class="bar" transform="translate(487.5,310)"><rect x="1" width="5.500000000000005" height="0"></rect></g><g class="bar" transform="translate(494.00000000000006,310)"><rect x="1" width="5.500000000000005" height="0"></rect></g><g class="bar" transform="translate(500.5,310)"><rect x="1" width="5.500000000000005" height="0"></rect></g><g class="bar" transform="translate(507.00000000000006,310)"><rect x="1" width="5.500000000000005" height="0"></rect></g><g class="bar" transform="translate(513.5,310)"><rect x="1" width="5.500000000000005" height="0"></rect></g><g class="axis axis--x" transform="translate(0,310)" fill="none" font-size="10" font-family="sans-serif" text-anchor="middle"><path class="domain" stroke="#000" d="M0.5,6V0.5H520.5V6"></path><g class="tick" opacity="1" transform="translate(0.5,0)"><line stroke="#000" y2="6"></line><text fill="#000" y="9" dy="0.71em">0.01</text></g><g class="tick" opacity="1" transform="translate(130.5,0)"><line stroke="#000" y2="6"></line><text fill="#000" y="9" dy="0.71em">1</text></g><g class="tick" opacity="1" transform="translate(260.5,0)"><line stroke="#000" y2="6"></line><text fill="#000" y="9" dy="0.71em">100</text></g><g class="tick" opacity="1" transform="translate(390.5,0)"><line stroke="#000" y2="6"></line><text fill="#000" y="9" dy="0.71em">10000</text></g><g class="tick" opacity="1" transform="translate(520.5,0)"><line stroke="#000" y2="6"></line><text fill="#000" y="9" dy="0.71em"></text></g></g><g class="axis axis--y" fill="none" font-size="10" font-family="sans-serif" text-anchor="end"><path class="domain" stroke="#000" d="M-6,310.5H0.5V0.5H-6"></path><g class="tick" opacity="1" transform="translate(0,310.5)"><line stroke="#000" x2="-6"></line><text fill="#000" x="-9" dy="0.32em">0</text></g><g class="tick" opacity="1" transform="translate(0,271.15989847715736)"><line stroke="#000" x2="-6"></line><text fill="#000" x="-9" dy="0.32em">100</text></g><g class="tick" opacity="1" transform="translate(0,231.8197969543147)"><line stroke="#000" x2="-6"></line><text fill="#000" x="-9" dy="0.32em">200</text></g><g class="tick" opacity="1" transform="translate(0,192.4796954314721)"><line stroke="#000" x2="-6"></line><text fill="#000" x="-9" dy="0.32em">300</text></g><g class="tick" opacity="1" transform="translate(0,153.13959390862945)"><line stroke="#000" x2="-6"></line><text fill="#000" x="-9" dy="0.32em">400</text></g><g class="tick" opacity="1" transform="translate(0,113.7994923857868)"><line stroke="#000" x2="-6"></line><text fill="#000" x="-9" dy="0.32em">500</text></g><g class="tick" opacity="1" transform="translate(0,74.45939086294419)"><line stroke="#000" x2="-6"></line><text fill="#000" x="-9" dy="0.32em">600</text></g><g class="tick" opacity="1" transform="translate(0,35.119289340101545)"><line stroke="#000" x2="-6"></line><text fill="#000" x="-9" dy="0.32em">700</text></g></g></g></svg>