<svg xmlns="http://www.w3.org/2000/svg" width="280" height="160"><defs><style type="text/css"><![CDATA[ 
.bar rect {
  fill-opacity: 0;
  stroke:       black;
  stroke-width: 0.5;
}

.highlight rect {
  fill:       red;
  fill-opacity: 1;
}
.axis path,
.axis line {
  fill: none;
  stroke: #000;
  shape-rendering: crispEdges;
}
path {
    stroke: red;
    fill: none;
}

line {
    stroke: red;
}

path.marker {
    fill: red;
}
 ]]></style></defs><g transform="translate(50,10)"><g class="bar" transform="translate(0,118.5065339141257)"><rect x="1" width="11.5" height="1.493466085874303"></rect></g><g class="bar" transform="translate(12.5,97.52333540759179)"><rect x="1" width="11.5" height="22.476664592408213"></rect></g><g class="bar" transform="translate(25,53.01804604853764)"><rect x="1" width="11.5" height="66.98195395146236"></rect></g><g class="bar" transform="translate(37.5,58.46919726197885)"><rect x="1" width="11.5" height="61.53080273802115"></rect></g><g class="bar" transform="translate(50,79.30304915992534)"><rect x="1" width="11.5" height="40.69695084007466"></rect></g><g class="bar" transform="translate(62.5,66.45924082140635)"><rect x="1" width="11.5" height="53.540759178593646"></rect></g><g class="bar" transform="translate(75,0.8960796515245875)"><rect x="1" width="11.5" height="119.10392034847541"></rect></g><g class="bar" transform="translate(87.5,0)"><rect x="1" width="11.5" height="120"></rect></g><g class="bar" transform="translate(100,34.8724331051649)"><rect x="1" width="11.5" height="85.1275668948351"></rect></g><g class="bar" transform="translate(112.5,79.22837585563161)"><rect x="1" width="11.5" height="40.77162414436839"></rect></g><g class="bar" transform="translate(125,109.99377722464219)"><rect x="1" width="11.5" height="10.006222775357813"></rect></g><g class="bar" transform="translate(137.5,118.20784069695084)"><rect x="1" width="11.5" height="1.7921593030491607"></rect></g><g class="bar" transform="translate(150,120)"><rect x="1" width="11.5" height="0"></rect></g><g class="bar" transform="translate(162.5,119.92532669570629)"><rect x="1" width="11.5" height="0.07467330429371088"></rect></g><g class="bar" transform="translate(175,120)"><rect x="1" width="11.5" height="0"></rect></g><g class="bar" transform="translate(187.5,120)"><rect x="1" width="11.5" height="0"></rect></g></g></svg>