<svg xmlns="http://www.w3.org/2000/svg" width="280" height="160"><defs><style type="text/css"><![CDATA[ 
.bar rect {
  fill-opacity: 0;
  stroke:       black;
  stroke-width: 0.5;
}

.highlight rect {
  fill:       red;
  fill-opacity: 1;
}
.axis path,
.axis line {
  fill: none;
  stroke: #000;
  shape-rendering: crispEdges;
}
 ]]></style></defs><g transform="translate(50,10)"><g class="bar" transform="translate(0,101.31958762886597)"><rect x="1" width="11.5" height="18.680412371134025"></rect></g><g class="bar" transform="translate(12.5,2.2268041237113465)"><rect x="1" width="11.5" height="117.77319587628865"></rect></g><g class="bar" transform="translate(25,0)"><rect x="1" width="11.5" height="120"></rect></g><g class="bar" transform="translate(37.5,53.9381443298969)"><rect x="1" width="11.5" height="66.0618556701031"></rect></g><g class="bar" transform="translate(50,80.78350515463917)"><rect x="1" width="11.5" height="39.21649484536083"></rect></g><g class="bar" transform="translate(62.5,72.12371134020619)"><rect x="1" width="11.5" height="47.876288659793815"></rect></g><g class="bar" transform="translate(75,21.525773195876297)"><rect x="1" width="11.5" height="98.4742268041237"></rect></g><g class="bar" transform="translate(87.5,23.876288659793815)"><rect x="1" width="11.5" height="96.12371134020619"></rect></g><g class="bar" transform="translate(100,71.1340206185567)"><rect x="1" width="11.5" height="48.865979381443296"></rect></g><g class="bar" transform="translate(112.5,93.5257731958763)"><rect x="1" width="11.5" height="26.474226804123703"></rect></g><g class="bar" transform="translate(125,108.74226804123711)"><rect x="1" width="11.5" height="11.25773195876289"></rect></g><g class="bar" transform="translate(137.5,117.03092783505154)"><rect x="1" width="11.5" height="2.9690721649484573"></rect></g><g class="bar" transform="translate(150,119.50515463917526)"><rect x="1" width="11.5" height="0.4948453608247405"></rect></g><g class="bar" transform="translate(162.5,119.1340206185567)"><rect x="1" width="11.5" height="0.8659793814432959"></rect></g><g class="bar" transform="translate(175,120)"><rect x="1" width="11.5" height="0"></rect></g><g class="bar" transform="translate(187.5,120)"><rect x="1" width="11.5" height="0"></rect></g></g></svg>