<svg xmlns="http://www.w3.org/2000/svg" width="600" height="350"><defs><style type="text/css"><![CDATA[ 
.bar rect {
  fill-opacity: 0;
  stroke:       black;
  stroke-width: 0.5;
}

.highlight rect {
  fill:       red;
  fill-opacity: 1;
}
.axis path,
.axis line {
  fill: none;
  stroke: #000;
  shape-rendering: crispEdges;
}
 ]]></style></defs><g transform="translate(50,10)"><g class="bar" transform="translate(0,279.54813359528487)"><rect x="1" width="11.999999999999996" height="30.451866404715133"></rect></g><g class="bar" transform="translate(12.999999999999996,261.8860510805501)"><rect x="1" width="11.999999999999996" height="48.11394891944991"></rect></g><g class="bar" transform="translate(25.999999999999993,252.75049115913555)"><rect x="1" width="11.999999999999996" height="57.24950884086445"></rect></g><g class="bar" transform="translate(39.00000000000001,84.04715127701377)"><rect x="1" width="11.999999999999996" height="225.95284872298623"></rect></g><g class="bar" transform="translate(52,0)"><rect x="1" width="11.999999999999996" height="310"></rect></g><g class="bar" transform="translate(65,51.159135559921424)"><rect x="1" width="11.999999999999996" height="258.8408644400786"></rect></g><g class="bar" transform="translate(78.00000000000001,94.40078585461688)"><rect x="1" width="11.999999999999996" height="215.59921414538312"></rect></g><g class="bar" transform="translate(91.00000000000001,88.31041257367386)"><rect x="1" width="11.999999999999996" height="221.68958742632614"></rect></g><g class="bar" transform="translate(104,176.01178781925344)"><rect x="1" width="11.999999999999996" height="133.98821218074656"></rect></g><g class="bar" transform="translate(117,224.12573673870332)"><rect x="1" width="11.999999999999996" height="85.87426326129668"></rect></g><g class="bar" transform="translate(130,214.9901768172888)"><rect x="1" width="11.999999999999996" height="95.00982318271119"></rect></g><g class="bar" transform="translate(143,248.48722986247543)"><rect x="1" width="11.999999999999996" height="61.51277013752457"></rect></g><g class="bar" transform="translate(156.00000000000003,250.92337917485264)"><rect x="1" width="11.999999999999996" height="59.07662082514736"></rect></g><g class="bar" transform="translate(169,223.51669941060905)"><rect x="1" width="11.999999999999996" height="86.48330058939095"></rect></g><g class="bar" transform="translate(182.00000000000003,183.32023575638507)"><rect x="1" width="11.999999999999996" height="126.67976424361493"></rect></g><g class="bar" transform="translate(195,127.28880157170923)"><rect x="1" width="11.999999999999996" height="182.71119842829077"></rect></g><g class="bar" transform="translate(208,100.49115913555994)"><rect x="1" width="11.999999999999996" height="209.50884086444006"></rect></g><g class="bar" transform="translate(221.00000000000003,115.71709233791748)"><rect x="1" width="11.999999999999996" height="194.28290766208252"></rect></g><g class="bar" transform="translate(234,109.01768172888018)"><rect x="1" width="11.999999999999996" height="200.98231827111982"></rect></g><g class="bar" transform="translate(247.00000000000003,139.46954813359528)"><rect x="1" width="11.999999999999996" height="170.53045186640472"></rect></g><g class="bar" transform="translate(260,205.24557956777997)"><rect x="1" width="11.999999999999996" height="104.75442043222003"></rect></g><g class="bar" transform="translate(273,208.89980353634576)"><rect x="1" width="11.999999999999996" height="101.10019646365424"></rect></g><g class="bar" transform="translate(286,240.5697445972495)"><rect x="1" width="11.999999999999996" height="69.4302554027505"></rect></g><g class="bar" transform="translate(299.00000000000006,255.79567779960706)"><rect x="1" width="11.999999999999996" height="54.20432220039294"></rect></g><g class="bar" transform="translate(312.00000000000006,268.5854616895874)"><rect x="1" width="11.999999999999996" height="41.41453831041258"></rect></g><g class="bar" transform="translate(325,283.811394891945)"><rect x="1" width="11.999999999999996" height="26.188605108055015"></rect></g><g class="bar" transform="translate(338,289.2927308447937)"><rect x="1" width="11.999999999999996" height="20.70726915520629"></rect></g><g class="bar" transform="translate(351,296.60117878192534)"><rect x="1" width="11.999999999999996" height="13.398821218074659"></rect></g><g class="bar" transform="translate(364.00000000000006,302.08251473477407)"><rect x="1" width="11.999999999999996" height="7.917485265225935"></rect></g><g class="bar" transform="translate(377.00000000000006,308.1728880157171)"><rect x="1" width="11.999999999999996" height="1.827111984282908"></rect></g><g class="bar" transform="translate(390,308.1728880157171)"><rect x="1" width="11.999999999999996" height="1.827111984282908"></rect></g><g class="bar" transform="translate(403,309.3909626719057)"><rect x="1" width="11.999999999999996" height="0.6090373280943027"></rect></g><g class="bar" transform="translate(416,309.3909626719057)"><rect x="1" width="11.999999999999996" height="0.6090373280943027"></rect></g><g class="bar" transform="translate(429.00000000000006,308.1728880157171)"><rect x="1" width="11.999999999999996" height="1.827111984282908"></rect></g><g class="bar" transform="translate(442.00000000000006,308.1728880157171)"><rect x="1" width="11.999999999999996" height="1.827111984282908"></rect></g><g class="bar" transform="translate(455,310)"><rect x="1" width="11.999999999999996" height="0"></rect></g><g class="bar" transform="translate(468,310)"><rect x="1" width="11.999999999999996" height="0"></rect></g><g class="bar" transform="translate(481,310)"><rect x="1" width="11.999999999999996" height="0"></rect></g><g class="bar" transform="translate(494.00000000000006,310)"><rect x="1" width="11.999999999999996" height="0"></rect></g><g class="bar" transform="translate(507.00000000000006,310)"><rect x="1" width="11.999999999999996" height="0"></rect></g><g class="axis axis--x" transform="translate(0,310)" fill="none" font-size="10" font-family="sans-serif" text-anchor="middle"><path class="domain" stroke="#000" d="M0.5,6V0.5H520.5V6"></path><g class="tick" opacity="1" transform="translate(0,0)"><line stroke="#000" y2="6" x1="0.5" x2="0.5"></line><text fill="#000" y="9" x="0.5" dy="0.71em">0.01</text></g><g class="tick" opacity="1" transform="translate(130,0)"><line stroke="#000" y2="6" x1="0.5" x2="0.5"></line><text fill="#000" y="9" x="0.5" dy="0.71em">1</text></g><g class="tick" opacity="1" transform="translate(260,0)"><line stroke="#000" y2="6" x1="0.5" x2="0.5"></line><text fill="#000" y="9" x="0.5" dy="0.71em">100</text></g><g class="tick" opacity="1" transform="translate(390,0)"><line stroke="#000" y2="6" x1="0.5" x2="0.5"></line><text fill="#000" y="9" x="0.5" dy="0.71em">10000</text></g><g class="tick" opacity="1" transform="translate(520,0)"><line stroke="#000" y2="6" x1="0.5" x2="0.5"></line><text fill="#000" y="9" x="0.5" dy="0.71em"></text></g></g><g class="axis axis--y" fill="none" font-size="10" font-family="sans-serif" text-anchor="end"><path class="domain" stroke="#000" d="M-6,310.5H0.5V0.5H-6"></path><g class="tick" opacity="1" transform="translate(0,310)"><line stroke="#000" x2="-6" y1="0.5" y2="0.5"></line><text fill="#000" x="-9" y="0.5" dy="0.32em">0</text></g><g class="tick" opacity="1" transform="translate(0,279.54813359528487)"><line stroke="#000" x2="-6" y1="0.5" y2="0.5"></line><text fill="#000" x="-9" y="0.5" dy="0.32em">50</text></g><g class="tick" opacity="1" transform="translate(0,249.09626719056973)"><line stroke="#000" x2="-6" y1="0.5" y2="0.5"></line><text fill="#000" x="-9" y="0.5" dy="0.32em">100</text></g><g class="tick" opacity="1" transform="translate(0,218.6444007858546)"><line stroke="#000" x2="-6" y1="0.5" y2="0.5"></line><text fill="#000" x="-9" y="0.5" dy="0.32em">150</text></g><g class="tick" opacity="1" transform="translate(0,188.1925343811395)"><line stroke="#000" x2="-6" y1="0.5" y2="0.5"></line><text fill="#000" x="-9" y="0.5" dy="0.32em">200</text></g><g class="tick" opacity="1" transform="translate(0,157.74066797642436)"><line stroke="#000" x2="-6" y1="0.5" y2="0.5"></line><text fill="#000" x="-9" y="0.5" dy="0.32em">250</text></g><g class="tick" opacity="1" transform="translate(0,127.28880157170923)"><line stroke="#000" x2="-6" y1="0.5" y2="0.5"></line><text fill="#000" x="-9" y="0.5" dy="0.32em">300</text></g><g class="tick" opacity="1" transform="translate(0,96.8369351669941)"><line stroke="#000" x2="-6" y1="0.5" y2="0.5"></line><text fill="#000" x="-9" y="0.5" dy="0.32em">350</text></g><g class="tick" opacity="1" transform="translate(0,66.38506876227899)"><line stroke="#000" x2="-6" y1="0.5" y2="0.5"></line><text fill="#000" x="-9" y="0.5" dy="0.32em">400</text></g><g class="tick" opacity="1" transform="translate(0,35.93320235756386)"><line stroke="#000" x2="-6" y1="0.5" y2="0.5"></line><text fill="#000" x="-9" y="0.5" dy="0.32em">450</text></g><g class="tick" opacity="1" transform="translate(0,5.481335952848724)"><line stroke="#000" x2="-6" y1="0.5" y2="0.5"></line><text fill="#000" x="-9" y="0.5" dy="0.32em">500</text></g></g></g></svg>