<svg xmlns="http://www.w3.org/2000/svg" width="600" height="350"><defs><style type="text/css"><![CDATA[ 
.bar rect {
  fill-opacity: 0;
  stroke:       black;
  stroke-width: 0.5;
}

.highlight rect {
  fill:       red;
  fill-opacity: 1;
}
.axis path,
.axis line {
  fill: none;
  stroke: #000;
  shape-rendering: crispEdges;
}
 ]]></style></defs><g transform="translate(50,10)"><g class="bar" transform="translate(0,310)"><rect x="1" width="11.999999999999996" height="0"></rect></g><g class="bar" transform="translate(12.999999999999996,310)"><rect x="1" width="11.999999999999996" height="0"></rect></g><g class="bar" transform="translate(25.999999999999993,310)"><rect x="1" width="11.999999999999996" height="0"></rect></g><g class="bar" transform="translate(39.00000000000001,310)"><rect x="1" width="11.999999999999996" height="0"></rect></g><g class="bar" transform="translate(52,303.27548806941434)"><rect x="1" width="11.999999999999996" height="6.724511930585663"></rect></g><g class="bar" transform="translate(65,309.3275488069414)"><rect x="1" width="11.999999999999996" height="0.6724511930585777"></rect></g><g class="bar" transform="translate(78.00000000000001,307.31019522776575)"><rect x="1" width="11.999999999999996" height="2.689804772234254"></rect></g><g class="bar" transform="translate(91.00000000000001,303.94793926247286)"><rect x="1" width="11.999999999999996" height="6.0520607375271425"></rect></g><g class="bar" transform="translate(104,304.62039045553144)"><rect x="1" width="11.999999999999996" height="5.379609544468565"></rect></g><g class="bar" transform="translate(117,294.53362255965294)"><rect x="1" width="11.999999999999996" height="15.46637744034706"></rect></g><g class="bar" transform="translate(130,289.1540130151844)"><rect x="1" width="11.999999999999996" height="20.845986984815625"></rect></g><g class="bar" transform="translate(143,285.11930585683297)"><rect x="1" width="11.999999999999996" height="24.880694143167034"></rect></g><g class="bar" transform="translate(156.00000000000003,275.03253796095447)"><rect x="1" width="11.999999999999996" height="34.96746203904553"></rect></g><g class="bar" transform="translate(169,272.34273318872016)"><rect x="1" width="11.999999999999996" height="37.65726681127984"></rect></g><g class="bar" transform="translate(182.00000000000003,246.117136659436)"><rect x="1" width="11.999999999999996" height="63.882863340564"></rect></g><g class="bar" transform="translate(195,208.4598698481562)"><rect x="1" width="11.999999999999996" height="101.54013015184381"></rect></g><g class="bar" transform="translate(208,182.234273318872)"><rect x="1" width="11.999999999999996" height="127.765726681128"></rect></g><g class="bar" transform="translate(221.00000000000003,147.93926247288502)"><rect x="1" width="11.999999999999996" height="162.06073752711498"></rect></g><g class="bar" transform="translate(234,65.9002169197397)"><rect x="1" width="11.999999999999996" height="244.0997830802603"></rect></g><g class="bar" transform="translate(247.00000000000003,48.41648590021691)"><rect x="1" width="11.999999999999996" height="261.5835140997831"></rect></g><g class="bar" transform="translate(260,0)"><rect x="1" width="11.999999999999996" height="310"></rect></g><g class="bar" transform="translate(273,20.173535791757047)"><rect x="1" width="11.999999999999996" height="289.82646420824295"></rect></g><g class="bar" transform="translate(286,95.4880694143167)"><rect x="1" width="11.999999999999996" height="214.5119305856833"></rect></g><g class="bar" transform="translate(299.00000000000006,133.14533622559654)"><rect x="1" width="11.999999999999996" height="176.85466377440346"></rect></g><g class="bar" transform="translate(312.00000000000006,182.90672451193058)"><rect x="1" width="11.999999999999996" height="127.09327548806942"></rect></g><g class="bar" transform="translate(325,248.80694143167028)"><rect x="1" width="11.999999999999996" height="61.19305856832972"></rect></g><g class="bar" transform="translate(338,277.7223427331887)"><rect x="1" width="11.999999999999996" height="32.277657266811275"></rect></g><g class="bar" transform="translate(351,304.62039045553144)"><rect x="1" width="11.999999999999996" height="5.379609544468565"></rect></g><g class="bar" transform="translate(364.00000000000006,303.27548806941434)"><rect x="1" width="11.999999999999996" height="6.724511930585663"></rect></g><g class="bar" transform="translate(377.00000000000006,307.98264642082427)"><rect x="1" width="11.999999999999996" height="2.017353579175733"></rect></g><g class="bar" transform="translate(390,310)"><rect x="1" width="11.999999999999996" height="0"></rect></g><g class="bar" transform="translate(403,305.9652928416486)"><rect x="1" width="11.999999999999996" height="4.034707158351409"></rect></g><g class="bar" transform="translate(416,310)"><rect x="1" width="11.999999999999996" height="0"></rect></g><g class="bar" transform="translate(429.00000000000006,310)"><rect x="1" width="11.999999999999996" height="0"></rect></g><g class="bar" transform="translate(442.00000000000006,310)"><rect x="1" width="11.999999999999996" height="0"></rect></g><g class="bar" transform="translate(455,310)"><rect x="1" width="11.999999999999996" height="0"></rect></g><g class="bar" transform="translate(468,310)"><rect x="1" width="11.999999999999996" height="0"></rect></g><g class="bar" transform="translate(481,310)"><rect x="1" width="11.999999999999996" height="0"></rect></g><g class="bar" transform="translate(494.00000000000006,310)"><rect x="1" width="11.999999999999996" height="0"></rect></g><g class="bar" transform="translate(507.00000000000006,310)"><rect x="1" width="11.999999999999996" height="0"></rect></g><g class="axis axis--x" transform="translate(0,310)" fill="none" font-size="10" font-family="sans-serif" text-anchor="middle"><path class="domain" stroke="#000" d="M0.5,6V0.5H520.5V6"></path><g class="tick" opacity="1" transform="translate(0,0)"><line stroke="#000" y2="6" x1="0.5" x2="0.5"></line><text fill="#000" y="9" x="0.5" dy="0.71em">0.01</text></g><g class="tick" opacity="1" transform="translate(130,0)"><line stroke="#000" y2="6" x1="0.5" x2="0.5"></line><text fill="#000" y="9" x="0.5" dy="0.71em">1</text></g><g class="tick" opacity="1" transform="translate(260,0)"><line stroke="#000" y2="6" x1="0.5" x2="0.5"></line><text fill="#000" y="9" x="0.5" dy="0.71em">100</text></g><g class="tick" opacity="1" transform="translate(390,0)"><line stroke="#000" y2="6" x1="0.5" x2="0.5"></line><text fill="#000" y="9" x="0.5" dy="0.71em">10000</text></g><g class="tick" opacity="1" transform="translate(520,0)"><line stroke="#000" y2="6" x1="0.5" x2="0.5"></line><text fill="#000" y="9" x="0.5" dy="0.71em"></text></g></g><g class="axis axis--y" fill="none" font-size="10" font-family="sans-serif" text-anchor="end"><path class="domain" stroke="#000" d="M-6,310.5H0.5V0.5H-6"></path><g class="tick" opacity="1" transform="translate(0,310)"><line stroke="#000" x2="-6" y1="0.5" y2="0.5"></line><text fill="#000" x="-9" y="0.5" dy="0.32em">0</text></g><g class="tick" opacity="1" transform="translate(0,276.37744034707157)"><line stroke="#000" x2="-6" y1="0.5" y2="0.5"></line><text fill="#000" x="-9" y="0.5" dy="0.32em">50</text></g><g class="tick" opacity="1" transform="translate(0,242.75488069414317)"><line stroke="#000" x2="-6" y1="0.5" y2="0.5"></line><text fill="#000" x="-9" y="0.5" dy="0.32em">100</text></g><g class="tick" opacity="1" transform="translate(0,209.13232104121477)"><line stroke="#000" x2="-6" y1="0.5" y2="0.5"></line><text fill="#000" x="-9" y="0.5" dy="0.32em">150</text></g><g class="tick" opacity="1" transform="translate(0,175.50976138828634)"><line stroke="#000" x2="-6" y1="0.5" y2="0.5"></line><text fill="#000" x="-9" y="0.5" dy="0.32em">200</text></g><g class="tick" opacity="1" transform="translate(0,141.8872017353579)"><line stroke="#000" x2="-6" y1="0.5" y2="0.5"></line><text fill="#000" x="-9" y="0.5" dy="0.32em">250</text></g><g class="tick" opacity="1" transform="translate(0,108.2646420824295)"><line stroke="#000" x2="-6" y1="0.5" y2="0.5"></line><text fill="#000" x="-9" y="0.5" dy="0.32em">300</text></g><g class="tick" opacity="1" transform="translate(0,74.6420824295011)"><line stroke="#000" x2="-6" y1="0.5" y2="0.5"></line><text fill="#000" x="-9" y="0.5" dy="0.32em">350</text></g><g class="tick" opacity="1" transform="translate(0,41.01952277657267)"><line stroke="#000" x2="-6" y1="0.5" y2="0.5"></line><text fill="#000" x="-9" y="0.5" dy="0.32em">400</text></g><g class="tick" opacity="1" transform="translate(0,7.396963123644241)"><line stroke="#000" x2="-6" y1="0.5" y2="0.5"></line><text fill="#000" x="-9" y="0.5" dy="0.32em">450</text></g></g></g></svg>