<svg xmlns="http://www.w3.org/2000/svg" width="600" height="350"><defs><style type="text/css"><![CDATA[ 
.bar rect {
  fill-opacity: 0;
  stroke:       black;
  stroke-width: 0.5;
}

.highlight rect {
  fill:       red;
  fill-opacity: 1;
}
.axis path,
.axis line {
  fill: none;
  stroke: #000;
  shape-rendering: crispEdges;
}
path {
    stroke: red;
    fill: none;
}

line {
    stroke: red;
}

path.marker {
    fill: red;
}
 ]]></style></defs><g transform="translate(50,10)"><g class="bar" transform="translate(0,310)"><rect x="1" width="11.999999999999996" height="0"></rect></g><g class="bar" transform="translate(12.999999999999996,310)"><rect x="1" width="11.999999999999996" height="0"></rect></g><g class="bar" transform="translate(25.999999999999993,310)"><rect x="1" width="11.999999999999996" height="0"></rect></g><g class="bar" transform="translate(39.00000000000001,310)"><rect x="1" width="11.999999999999996" height="0"></rect></g><g class="bar" transform="translate(52,310)"><rect x="1" width="11.999999999999996" height="0"></rect></g><g class="bar" transform="translate(65,310)"><rect x="1" width="11.999999999999996" height="0"></rect></g><g class="bar" transform="translate(78.00000000000001,310)"><rect x="1" width="11.999999999999996" height="0"></rect></g><g class="bar" transform="translate(91.00000000000001,310)"><rect x="1" width="11.999999999999996" height="0"></rect></g><g class="bar" transform="translate(104,310)"><rect x="1" width="11.999999999999996" height="0"></rect></g><g class="bar" transform="translate(117,310)"><rect x="1" width="11.999999999999996" height="0"></rect></g><g class="bar" transform="translate(130,310)"><rect x="1" width="11.999999999999996" height="0"></rect></g><g class="bar" transform="translate(143,310)"><rect x="1" width="11.999999999999996" height="0"></rect></g><g class="bar" transform="translate(156.00000000000003,310)"><rect x="1" width="11.999999999999996" height="0"></rect></g><g class="bar" transform="translate(169,310)"><rect x="1" width="11.999999999999996" height="0"></rect></g><g class="bar" transform="translate(182.00000000000003,310)"><rect x="1" width="11.999999999999996" height="0"></rect></g><g class="bar" transform="translate(195,310)"><rect x="1" width="11.999999999999996" height="0"></rect></g><g class="bar" transform="translate(208,310)"><rect x="1" width="11.999999999999996" height="0"></rect></g><g class="bar" transform="translate(221.00000000000003,310)"><rect x="1" width="11.999999999999996" height="0"></rect></g><g class="bar" transform="translate(234,310)"><rect x="1" width="11.999999999999996" height="0"></rect></g><g class="bar" transform="translate(247.00000000000003,102.4107142857143)"><rect x="1" width="11.999999999999996" height="207.5892857142857"></rect></g><g class="bar" transform="translate(260,0)"><rect x="1" width="11.999999999999996" height="310"></rect></g><g class="bar" transform="translate(273,113.48214285714286)"><rect x="1" width="11.999999999999996" height="196.51785714285714"></rect></g><g class="bar" transform="translate(286,16.60714285714289)"><rect x="1" width="11.999999999999996" height="293.3928571428571"></rect></g><g class="bar" transform="translate(299.00000000000006,94.10714285714286)"><rect x="1" width="11.999999999999996" height="215.89285714285714"></rect></g><g class="bar" transform="translate(312.00000000000006,77.5)"><rect x="1" width="11.999999999999996" height="232.5"></rect></g><g class="bar" transform="translate(325,124.55357142857144)"><rect x="1" width="11.999999999999996" height="185.44642857142856"></rect></g><g class="bar" transform="translate(338,179.91071428571428)"><rect x="1" width="11.999999999999996" height="130.08928571428572"></rect></g><g class="bar" transform="translate(351,207.58928571428572)"><rect x="1" width="11.999999999999996" height="102.41071428571428"></rect></g><g class="bar" transform="translate(364.00000000000006,265.7142857142857)"><rect x="1" width="11.999999999999996" height="44.28571428571428"></rect></g><g class="bar" transform="translate(377.00000000000006,282.32142857142856)"><rect x="1" width="11.999999999999996" height="27.678571428571445"></rect></g><g class="bar" transform="translate(390,298.92857142857144)"><rect x="1" width="11.999999999999996" height="11.071428571428555"></rect></g><g class="bar" transform="translate(403,293.39285714285717)"><rect x="1" width="11.999999999999996" height="16.607142857142833"></rect></g><g class="bar" transform="translate(416,301.69642857142856)"><rect x="1" width="11.999999999999996" height="8.303571428571445"></rect></g><g class="bar" transform="translate(429.00000000000006,304.4642857142857)"><rect x="1" width="11.999999999999996" height="5.535714285714278"></rect></g><g class="bar" transform="translate(442.00000000000006,310)"><rect x="1" width="11.999999999999996" height="0"></rect></g><g class="bar" transform="translate(455,310)"><rect x="1" width="11.999999999999996" height="0"></rect></g><g class="bar" transform="translate(468,310)"><rect x="1" width="11.999999999999996" height="0"></rect></g><g class="bar" transform="translate(481,310)"><rect x="1" width="11.999999999999996" height="0"></rect></g><g class="bar" transform="translate(494.00000000000006,310)"><rect x="1" width="11.999999999999996" height="0"></rect></g><g class="bar" transform="translate(507.00000000000006,310)"><rect x="1" width="11.999999999999996" height="0"></rect></g><g class="axis axis--x" transform="translate(0,310)" fill="none" font-size="10" font-family="sans-serif" text-anchor="middle"><path class="domain" stroke="#000" d="M0.5,6V0.5H520.5V6"></path><g class="tick" opacity="1" transform="translate(0.5,0)"><line stroke="#000" y2="6"></line><text fill="#000" y="9" dy="0.71em">0.01</text></g><g class="tick" opacity="1" transform="translate(130.5,0)"><line stroke="#000" y2="6"></line><text fill="#000" y="9" dy="0.71em">1</text></g><g class="tick" opacity="1" transform="translate(260.5,0)"><line stroke="#000" y2="6"></line><text fill="#000" y="9" dy="0.71em">100</text></g><g class="tick" opacity="1" transform="translate(390.5,0)"><line stroke="#000" y2="6"></line><text fill="#000" y="9" dy="0.71em">10000</text></g><g class="tick" opacity="1" transform="translate(520.5,0)"><line stroke="#000" y2="6"></line><text fill="#000" y="9" dy="0.71em"></text></g></g><g class="axis axis--y" fill="none" font-size="10" font-family="sans-serif" text-anchor="end"><path class="domain" stroke="#000" d="M-6,310.5H0.5V0.5H-6"></path><g class="tick" opacity="1" transform="translate(0,310.5)"><line stroke="#000" x2="-6"></line><text fill="#000" x="-9" dy="0.32em">0</text></g><g class="tick" opacity="1" transform="translate(0,282.82142857142856)"><line stroke="#000" x2="-6"></line><text fill="#000" x="-9" dy="0.32em">10</text></g><g class="tick" opacity="1" transform="translate(0,255.14285714285714)"><line stroke="#000" x2="-6"></line><text fill="#000" x="-9" dy="0.32em">20</text></g><g class="tick" opacity="1" transform="translate(0,227.46428571428572)"><line stroke="#000" x2="-6"></line><text fill="#000" x="-9" dy="0.32em">30</text></g><g class="tick" opacity="1" transform="translate(0,199.78571428571428)"><line stroke="#000" x2="-6"></line><text fill="#000" x="-9" dy="0.32em">40</text></g><g class="tick" opacity="1" transform="translate(0,172.10714285714286)"><line stroke="#000" x2="-6"></line><text fill="#000" x="-9" dy="0.32em">50</text></g><g class="tick" opacity="1" transform="translate(0,144.42857142857144)"><line stroke="#000" x2="-6"></line><text fill="#000" x="-9" dy="0.32em">60</text></g><g class="tick" opacity="1" transform="translate(0,116.75)"><line stroke="#000" x2="-6"></line><text fill="#000" x="-9" dy="0.32em">70</text></g><g class="tick" opacity="1" transform="translate(0,89.07142857142856)"><line stroke="#000" x2="-6"></line><text fill="#000" x="-9" dy="0.32em">80</text></g><g class="tick" opacity="1" transform="translate(0,61.39285714285714)"><line stroke="#000" x2="-6"></line><text fill="#000" x="-9" dy="0.32em">90</text></g><g class="tick" opacity="1" transform="translate(0,33.71428571428572)"><line stroke="#000" x2="-6"></line><text fill="#000" x="-9" dy="0.32em">100</text></g><g class="tick" opacity="1" transform="translate(0,6.035714285714278)"><line stroke="#000" x2="-6"></line><text fill="#000" x="-9" dy="0.32em">110</text></g></g></g></svg>