<svg xmlns="http://www.w3.org/2000/svg" width="280" height="160"><defs><style type="text/css"><![CDATA[ 
.bar rect {
  fill-opacity: 0;
  stroke:       black;
  stroke-width: 0.5;
}

.highlight rect {
  fill:       red;
  fill-opacity: 1;
}
.axis path,
.axis line {
  fill: none;
  stroke: #000;
  shape-rendering: crispEdges;
}
path {
    stroke: red;
    fill: none;
}

line {
    stroke: red;
}

path.marker {
    fill: red;
}
 ]]></style></defs><g transform="translate(50,10)"><g class="bar" transform="translate(0,118.55711422845691)"><rect x="1" width="11.5" height="1.4428857715430894"></rect></g><g class="bar" transform="translate(12.5,111.34268537074148)"><rect x="1" width="11.5" height="8.657314629258522"></rect></g><g class="bar" transform="translate(25,89.93987975951904)"><rect x="1" width="11.5" height="30.060120240480956"></rect></g><g class="bar" transform="translate(37.5,54.10821643286573)"><rect x="1" width="11.5" height="65.89178356713427"></rect></g><g class="bar" transform="translate(50,24.529058116232463)"><rect x="1" width="11.5" height="95.47094188376754"></rect></g><g class="bar" transform="translate(62.5,0)"><rect x="1" width="11.5" height="120"></rect></g><g class="bar" transform="translate(75,9.258517034068134)"><rect x="1" width="11.5" height="110.74148296593187"></rect></g><g class="bar" transform="translate(87.5,30.661322645290582)"><rect x="1" width="11.5" height="89.33867735470942"></rect></g><g class="bar" transform="translate(100,57.35470941883767)"><rect x="1" width="11.5" height="62.64529058116233"></rect></g><g class="bar" transform="translate(112.5,83.92785571142284)"><rect x="1" width="11.5" height="36.072144288577164"></rect></g><g class="bar" transform="translate(125,102.44488977955912)"><rect x="1" width="11.5" height="17.55511022044088"></rect></g><g class="bar" transform="translate(137.5,112.66533066132264)"><rect x="1" width="11.5" height="7.334669338677358"></rect></g><g class="bar" transform="translate(150,119.63927855711422)"><rect x="1" width="11.5" height="0.3607214428857759"></rect></g><g class="bar" transform="translate(162.5,119.87975951903807)"><rect x="1" width="11.5" height="0.1202404809619253"></rect></g><g class="bar" transform="translate(175,120)"><rect x="1" width="11.5" height="0"></rect></g><g class="bar" transform="translate(187.5,120)"><rect x="1" width="11.5" height="0"></rect></g></g></svg>