<svg xmlns="http://www.w3.org/2000/svg" width="600" height="350"><defs><style type="text/css"><![CDATA[ 
.bar rect {
  fill-opacity: 0;
  stroke:       black;
  stroke-width: 0.5;
}

.highlight rect {
  fill:       red;
  fill-opacity: 1;
}
.axis path,
.axis line {
  fill: none;
  stroke: #000;
  shape-rendering: crispEdges;
}
path {
    stroke: red;
    fill: none;
}

line {
    stroke: red;
}

path.marker {
    fill: red;
}
 ]]></style></defs><g transform="translate(50,10)"><g class="bar" transform="translate(0,307.8422273781903)"><rect x="1" width="11.999999999999996" height="2.157772621809727"></rect></g><g class="bar" transform="translate(12.999999999999996,307.8422273781903)"><rect x="1" width="11.999999999999996" height="2.157772621809727"></rect></g><g class="bar" transform="translate(25.999999999999993,302.80742459396754)"><rect x="1" width="11.999999999999996" height="7.192575406032461"></rect></g><g class="bar" transform="translate(39.00000000000001,292.0185614849188)"><rect x="1" width="11.999999999999996" height="17.98143851508121"></rect></g><g class="bar" transform="translate(52,279.0719257540603)"><rect x="1" width="11.999999999999996" height="30.928074245939683"></rect></g><g class="bar" transform="translate(65,261.8097447795824)"><rect x="1" width="11.999999999999996" height="48.19025522041761"></rect></g><g class="bar" transform="translate(78.00000000000001,235.91647331786544)"><rect x="1" width="11.999999999999996" height="74.08352668213456"></rect></g><g class="bar" transform="translate(91.00000000000001,194.19953596287704)"><rect x="1" width="11.999999999999996" height="115.80046403712296"></rect></g><g class="bar" transform="translate(104,170.46403712296984)"><rect x="1" width="11.999999999999996" height="139.53596287703016"></rect></g><g class="bar" transform="translate(117,113.64269141531321)"><rect x="1" width="11.999999999999996" height="196.3573085846868"></rect></g><g class="bar" transform="translate(130,105.01160092807424)"><rect x="1" width="11.999999999999996" height="204.98839907192576"></rect></g><g class="bar" transform="translate(143,64.0139211136891)"><rect x="1" width="11.999999999999996" height="245.9860788863109"></rect></g><g class="bar" transform="translate(156.00000000000003,51.7865429234339)"><rect x="1" width="11.999999999999996" height="258.2134570765661"></rect></g><g class="bar" transform="translate(169,40.27842227378193)"><rect x="1" width="11.999999999999996" height="269.7215777262181"></rect></g><g class="bar" transform="translate(182.00000000000003,0)"><rect x="1" width="11.999999999999996" height="310"></rect></g><g class="bar" transform="translate(195,15.823665893271425)"><rect x="1" width="11.999999999999996" height="294.1763341067286"></rect></g><g class="bar" transform="translate(208,66.8909512761021)"><rect x="1" width="11.999999999999996" height="243.1090487238979"></rect></g><g class="bar" transform="translate(221.00000000000003,79.83758700696058)"><rect x="1" width="11.999999999999996" height="230.16241299303942"></rect></g><g class="bar" transform="translate(234,76.24129930394432)"><rect x="1" width="11.999999999999996" height="233.75870069605568"></rect></g><g class="bar" transform="translate(247.00000000000003,114.36194895591649)"><rect x="1" width="11.999999999999996" height="195.6380510440835"></rect></g><g class="bar" transform="translate(260,154.6403712296984)"><rect x="1" width="11.999999999999996" height="155.3596287703016"></rect></g><g class="bar" transform="translate(273,151.76334106728538)"><rect x="1" width="11.999999999999996" height="158.23665893271462"></rect></g><g class="bar" transform="translate(286,189.1647331786543)"><rect x="1" width="11.999999999999996" height="120.8352668213457"></rect></g><g class="bar" transform="translate(299.00000000000006,222.2505800464037)"><rect x="1" width="11.999999999999996" height="87.74941995359629"></rect></g><g class="bar" transform="translate(312.00000000000006,241.6705336426914)"><rect x="1" width="11.999999999999996" height="68.3294663573086"></rect></g><g class="bar" transform="translate(325,260.3712296983759)"><rect x="1" width="11.999999999999996" height="49.628770301624115"></rect></g><g class="bar" transform="translate(338,269.72157772621813)"><rect x="1" width="11.999999999999996" height="40.27842227378187"></rect></g><g class="bar" transform="translate(351,279.7911832946636)"><rect x="1" width="11.999999999999996" height="30.208816705336403"></rect></g><g class="bar" transform="translate(364.00000000000006,288.42227378190256)"><rect x="1" width="11.999999999999996" height="21.57772621809744"></rect></g><g class="bar" transform="translate(377.00000000000006,302.80742459396754)"><rect x="1" width="11.999999999999996" height="7.192575406032461"></rect></g><g class="bar" transform="translate(390,308.5614849187935)"><rect x="1" width="11.999999999999996" height="1.4385150812065035"></rect></g><g class="bar" transform="translate(403,309.2807424593968)"><rect x="1" width="11.999999999999996" height="0.7192575406032233"></rect></g><g class="bar" transform="translate(416,310)"><rect x="1" width="11.999999999999996" height="0"></rect></g><g class="bar" transform="translate(429.00000000000006,310)"><rect x="1" width="11.999999999999996" height="0"></rect></g><g class="bar" transform="translate(442.00000000000006,309.2807424593968)"><rect x="1" width="11.999999999999996" height="0.7192575406032233"></rect></g><g class="bar" transform="translate(455,310)"><rect x="1" width="11.999999999999996" height="0"></rect></g><g class="bar" transform="translate(468,310)"><rect x="1" width="11.999999999999996" height="0"></rect></g><g class="bar" transform="translate(481,310)"><rect x="1" width="11.999999999999996" height="0"></rect></g><g class="bar" transform="translate(494.00000000000006,310)"><rect x="1" width="11.999999999999996" height="0"></rect></g><g class="bar" transform="translate(507.00000000000006,310)"><rect x="1" width="11.999999999999996" height="0"></rect></g><g class="axis axis--x" transform="translate(0,310)" fill="none" font-size="10" font-family="sans-serif" text-anchor="middle"><path class="domain" stroke="#000" d="M0.5,6V0.5H520.5V6"></path><g class="tick" opacity="1" transform="translate(0.5,0)"><line stroke="#000" y2="6"></line><text fill="#000" y="9" dy="0.71em">0.01</text></g><g class="tick" opacity="1" transform="translate(130.5,0)"><line stroke="#000" y2="6"></line><text fill="#000" y="9" dy="0.71em">1</text></g><g class="tick" opacity="1" transform="translate(260.5,0)"><line stroke="#000" y2="6"></line><text fill="#000" y="9" dy="0.71em">100</text></g><g class="tick" opacity="1" transform="translate(390.5,0)"><line stroke="#000" y2="6"></line><text fill="#000" y="9" dy="0.71em">10000</text></g><g class="tick" opacity="1" transform="translate(520.5,0)"><line stroke="#000" y2="6"></line><text fill="#000" y="9" dy="0.71em"></text></g></g><g class="axis axis--y" fill="none" font-size="10" font-family="sans-serif" text-anchor="end"><path class="domain" stroke="#000" d="M-6,310.5H0.5V0.5H-6"></path><g class="tick" opacity="1" transform="translate(0,310.5)"><line stroke="#000" x2="-6"></line><text fill="#000" x="-9" dy="0.32em">0</text></g><g class="tick" opacity="1" transform="translate(0,274.5371229698376)"><line stroke="#000" x2="-6"></line><text fill="#000" x="-9" dy="0.32em">50</text></g><g class="tick" opacity="1" transform="translate(0,238.57424593967517)"><line stroke="#000" x2="-6"></line><text fill="#000" x="-9" dy="0.32em">100</text></g><g class="tick" opacity="1" transform="translate(0,202.61136890951275)"><line stroke="#000" x2="-6"></line><text fill="#000" x="-9" dy="0.32em">150</text></g><g class="tick" opacity="1" transform="translate(0,166.64849187935036)"><line stroke="#000" x2="-6"></line><text fill="#000" x="-9" dy="0.32em">200</text></g><g class="tick" opacity="1" transform="translate(0,130.68561484918794)"><line stroke="#000" x2="-6"></line><text fill="#000" x="-9" dy="0.32em">250</text></g><g class="tick" opacity="1" transform="translate(0,94.72273781902553)"><line stroke="#000" x2="-6"></line><text fill="#000" x="-9" dy="0.32em">300</text></g><g class="tick" opacity="1" transform="translate(0,58.75986078886308)"><line stroke="#000" x2="-6"></line><text fill="#000" x="-9" dy="0.32em">350</text></g><g class="tick" opacity="1" transform="translate(0,22.79698375870072)"><line stroke="#000" x2="-6"></line><text fill="#000" x="-9" dy="0.32em">400</text></g></g></g></svg>