<svg xmlns="http://www.w3.org/2000/svg" width="280" height="160"><defs><style type="text/css"><![CDATA[ 
.bar rect {
  fill-opacity: 0;
  stroke:       black;
  stroke-width: 0.5;
}

.highlight rect {
  fill:       red;
  fill-opacity: 1;
}
.axis path,
.axis line {
  fill: none;
  stroke: #000;
  shape-rendering: crispEdges;
}
 ]]></style></defs><g transform="translate(50,10)"><g class="bar" transform="translate(0,109.71428571428571)"><rect x="1" width="11.5" height="10.285714285714292"></rect></g><g class="bar" transform="translate(12.5,80.91428571428571)"><rect x="1" width="11.5" height="39.08571428571429"></rect></g><g class="bar" transform="translate(25,40)"><rect x="1" width="11.5" height="80"></rect></g><g class="bar" transform="translate(37.5,13.257142857142867)"><rect x="1" width="11.5" height="106.74285714285713"></rect></g><g class="bar" transform="translate(50,0)"><rect x="1" width="11.5" height="120"></rect></g><g class="bar" transform="translate(62.5,16.91428571428571)"><rect x="1" width="11.5" height="103.08571428571429"></rect></g><g class="bar" transform="translate(75,50.28571428571428)"><rect x="1" width="11.5" height="69.71428571428572"></rect></g><g class="bar" transform="translate(87.5,84.8)"><rect x="1" width="11.5" height="35.2"></rect></g><g class="bar" transform="translate(100,98.51428571428572)"><rect x="1" width="11.5" height="21.48571428571428"></rect></g><g class="bar" transform="translate(112.5,111.54285714285714)"><rect x="1" width="11.5" height="8.457142857142856"></rect></g><g class="bar" transform="translate(125,116.8)"><rect x="1" width="11.5" height="3.200000000000003"></rect></g><g class="bar" transform="translate(137.5,118.85714285714286)"><rect x="1" width="11.5" height="1.1428571428571388"></rect></g><g class="bar" transform="translate(150,119.77142857142857)"><rect x="1" width="11.5" height="0.22857142857142776"></rect></g><g class="bar" transform="translate(162.5,120)"><rect x="1" width="11.5" height="0"></rect></g><g class="bar" transform="translate(175,120)"><rect x="1" width="11.5" height="0"></rect></g><g class="bar" transform="translate(187.5,119.77142857142857)"><rect x="1" width="11.5" height="0.22857142857142776"></rect></g></g></svg>