<svg xmlns="http://www.w3.org/2000/svg" width="600" height="350"><defs><style type="text/css"><![CDATA[ 
.bar rect {
  fill-opacity: 0;
  stroke:       black;
  stroke-width: 0.5;
}

.highlight rect {
  fill:       red;
  fill-opacity: 1;
}
.axis path,
.axis line {
  fill: none;
  stroke: #000;
  shape-rendering: crispEdges;
}
 ]]></style></defs><g transform="translate(50,10)"><g class="bar" transform="translate(0,253.22528363047002)"><rect x="1" width="11.999999999999996" height="56.77471636952998"></rect></g><g class="bar" transform="translate(12.999999999999996,256.23987034035656)"><rect x="1" width="11.999999999999996" height="53.76012965964344"></rect></g><g class="bar" transform="translate(25.999999999999993,248.7034035656402)"><rect x="1" width="11.999999999999996" height="61.2965964343598"></rect></g><g class="bar" transform="translate(39.00000000000001,224.5867098865478)"><rect x="1" width="11.999999999999996" height="85.4132901134522"></rect></g><g class="bar" transform="translate(52,196.95299837925444)"><rect x="1" width="11.999999999999996" height="113.04700162074556"></rect></g><g class="bar" transform="translate(65,191.42625607779578)"><rect x="1" width="11.999999999999996" height="118.57374392220422"></rect></g><g class="bar" transform="translate(78.00000000000001,187.9092382495948)"><rect x="1" width="11.999999999999996" height="122.09076175040519"></rect></g><g class="bar" transform="translate(91.00000000000001,170.32414910858995)"><rect x="1" width="11.999999999999996" height="139.67585089141005"></rect></g><g class="bar" transform="translate(104,115.05672609400324)"><rect x="1" width="11.999999999999996" height="194.94327390599676"></rect></g><g class="bar" transform="translate(117,110.03241491085899)"><rect x="1" width="11.999999999999996" height="199.967585089141"></rect></g><g class="bar" transform="translate(130,57.77957860615882)"><rect x="1" width="11.999999999999996" height="252.22042139384118"></rect></g><g class="bar" transform="translate(143,0)"><rect x="1" width="11.999999999999996" height="310"></rect></g><g class="bar" transform="translate(156.00000000000003,14.068071312803852)"><rect x="1" width="11.999999999999996" height="295.93192868719615"></rect></g><g class="bar" transform="translate(169,44.213938411669346)"><rect x="1" width="11.999999999999996" height="265.78606158833065"></rect></g><g class="bar" transform="translate(182.00000000000003,33.66288492706644)"><rect x="1" width="11.999999999999996" height="276.33711507293356"></rect></g><g class="bar" transform="translate(195,1.0048622366288669)"><rect x="1" width="11.999999999999996" height="308.99513776337113"></rect></g><g class="bar" transform="translate(208,10.55105348460296)"><rect x="1" width="11.999999999999996" height="299.44894651539704"></rect></g><g class="bar" transform="translate(221.00000000000003,13.565640194489504)"><rect x="1" width="11.999999999999996" height="296.4343598055105"></rect></g><g class="bar" transform="translate(234,28.638573743922223)"><rect x="1" width="11.999999999999996" height="281.3614262560778"></rect></g><g class="bar" transform="translate(247.00000000000003,58.282009724473255)"><rect x="1" width="11.999999999999996" height="251.71799027552674"></rect></g><g class="bar" transform="translate(260,88.42787682333875)"><rect x="1" width="11.999999999999996" height="221.57212317666125"></rect></g><g class="bar" transform="translate(273,131.63695299837926)"><rect x="1" width="11.999999999999996" height="178.36304700162074"></rect></g><g class="bar" transform="translate(286,178.36304700162074)"><rect x="1" width="11.999999999999996" height="131.63695299837926"></rect></g><g class="bar" transform="translate(299.00000000000006,209.01134521880064)"><rect x="1" width="11.999999999999996" height="100.98865478119936"></rect></g><g class="bar" transform="translate(312.00000000000006,229.61102106969207)"><rect x="1" width="11.999999999999996" height="80.38897893030793"></rect></g><g class="bar" transform="translate(325,259.75688816855757)"><rect x="1" width="11.999999999999996" height="50.243111831442434"></rect></g><g class="bar" transform="translate(338,286.88816855753646)"><rect x="1" width="11.999999999999996" height="23.11183144246354"></rect></g><g class="bar" transform="translate(351,297.9416531604538)"><rect x="1" width="11.999999999999996" height="12.058346839546175"></rect></g><g class="bar" transform="translate(364.00000000000006,305.9805510534846)"><rect x="1" width="11.999999999999996" height="4.019448946515411"></rect></g><g class="bar" transform="translate(377.00000000000006,306.98541329011346)"><rect x="1" width="11.999999999999996" height="3.0145867098865438"></rect></g><g class="bar" transform="translate(390,307.48784440842786)"><rect x="1" width="11.999999999999996" height="2.5121555915721387"></rect></g><g class="bar" transform="translate(403,310)"><rect x="1" width="11.999999999999996" height="0"></rect></g><g class="bar" transform="translate(416,310)"><rect x="1" width="11.999999999999996" height="0"></rect></g><g class="bar" transform="translate(429.00000000000006,310)"><rect x="1" width="11.999999999999996" height="0"></rect></g><g class="bar" transform="translate(442.00000000000006,310)"><rect x="1" width="11.999999999999996" height="0"></rect></g><g class="bar" transform="translate(455,310)"><rect x="1" width="11.999999999999996" height="0"></rect></g><g class="bar" transform="translate(468,310)"><rect x="1" width="11.999999999999996" height="0"></rect></g><g class="bar" transform="translate(481,310)"><rect x="1" width="11.999999999999996" height="0"></rect></g><g class="bar" transform="translate(494.00000000000006,310)"><rect x="1" width="11.999999999999996" height="0"></rect></g><g class="bar" transform="translate(507.00000000000006,310)"><rect x="1" width="11.999999999999996" height="0"></rect></g><g class="axis axis--x" transform="translate(0,310)" fill="none" font-size="10" font-family="sans-serif" text-anchor="middle"><path class="domain" stroke="#000" d="M0.5,6V0.5H520.5V6"></path><g class="tick" opacity="1" transform="translate(0,0)"><line stroke="#000" y2="6" x1="0.5" x2="0.5"></line><text fill="#000" y="9" x="0.5" dy="0.71em">0.01</text></g><g class="tick" opacity="1" transform="translate(130,0)"><line stroke="#000" y2="6" x1="0.5" x2="0.5"></line><text fill="#000" y="9" x="0.5" dy="0.71em">1</text></g><g class="tick" opacity="1" transform="translate(260,0)"><line stroke="#000" y2="6" x1="0.5" x2="0.5"></line><text fill="#000" y="9" x="0.5" dy="0.71em">100</text></g><g class="tick" opacity="1" transform="translate(390,0)"><line stroke="#000" y2="6" x1="0.5" x2="0.5"></line><text fill="#000" y="9" x="0.5" dy="0.71em">10000</text></g><g class="tick" opacity="1" transform="translate(520,0)"><line stroke="#000" y2="6" x1="0.5" x2="0.5"></line><text fill="#000" y="9" x="0.5" dy="0.71em"></text></g></g><g class="axis axis--y" fill="none" font-size="10" font-family="sans-serif" text-anchor="end"><path class="domain" stroke="#000" d="M-6,310.5H0.5V0.5H-6"></path><g class="tick" opacity="1" transform="translate(0,310)"><line stroke="#000" x2="-6" y1="0.5" y2="0.5"></line><text fill="#000" x="-9" y="0.5" dy="0.32em">0</text></g><g class="tick" opacity="1" transform="translate(0,284.8784440842788)"><line stroke="#000" x2="-6" y1="0.5" y2="0.5"></line><text fill="#000" x="-9" y="0.5" dy="0.32em">50</text></g><g class="tick" opacity="1" transform="translate(0,259.75688816855757)"><line stroke="#000" x2="-6" y1="0.5" y2="0.5"></line><text fill="#000" x="-9" y="0.5" dy="0.32em">100</text></g><g class="tick" opacity="1" transform="translate(0,234.6353322528363)"><line stroke="#000" x2="-6" y1="0.5" y2="0.5"></line><text fill="#000" x="-9" y="0.5" dy="0.32em">150</text></g><g class="tick" opacity="1" transform="translate(0,209.51377633711508)"><line stroke="#000" x2="-6" y1="0.5" y2="0.5"></line><text fill="#000" x="-9" y="0.5" dy="0.32em">200</text></g><g class="tick" opacity="1" transform="translate(0,184.39222042139386)"><line stroke="#000" x2="-6" y1="0.5" y2="0.5"></line><text fill="#000" x="-9" y="0.5" dy="0.32em">250</text></g><g class="tick" opacity="1" transform="translate(0,159.2706645056726)"><line stroke="#000" x2="-6" y1="0.5" y2="0.5"></line><text fill="#000" x="-9" y="0.5" dy="0.32em">300</text></g><g class="tick" opacity="1" transform="translate(0,134.1491085899514)"><line stroke="#000" x2="-6" y1="0.5" y2="0.5"></line><text fill="#000" x="-9" y="0.5" dy="0.32em">350</text></g><g class="tick" opacity="1" transform="translate(0,109.02755267423015)"><line stroke="#000" x2="-6" y1="0.5" y2="0.5"></line><text fill="#000" x="-9" y="0.5" dy="0.32em">400</text></g><g class="tick" opacity="1" transform="translate(0,83.9059967585089)"><line stroke="#000" x2="-6" y1="0.5" y2="0.5"></line><text fill="#000" x="-9" y="0.5" dy="0.32em">450</text></g><g class="tick" opacity="1" transform="translate(0,58.78444084278769)"><line stroke="#000" x2="-6" y1="0.5" y2="0.5"></line><text fill="#000" x="-9" y="0.5" dy="0.32em">500</text></g><g class="tick" opacity="1" transform="translate(0,33.66288492706644)"><line stroke="#000" x2="-6" y1="0.5" y2="0.5"></line><text fill="#000" x="-9" y="0.5" dy="0.32em">550</text></g><g class="tick" opacity="1" transform="translate(0,8.541329011345226)"><line stroke="#000" x2="-6" y1="0.5" y2="0.5"></line><text fill="#000" x="-9" y="0.5" dy="0.32em">600</text></g></g></g></svg>