<svg xmlns="http://www.w3.org/2000/svg" width="600" height="350"><defs><style type="text/css"><![CDATA[ 
.bar rect {
  fill-opacity: 0;
  stroke:       black;
  stroke-width: 0.5;
}

.highlight rect {
  fill:       red;
  fill-opacity: 1;
}
.axis path,
.axis line {
  fill: none;
  stroke: #000;
  shape-rendering: crispEdges;
}
 ]]></style></defs><g transform="translate(50,10)"><g class="bar" transform="translate(0,304.3822075782537)"><rect x="1" width="11.999999999999996" height="5.617792421746287"></rect></g><g class="bar" transform="translate(12.999999999999996,299.7858319604613)"><rect x="1" width="11.999999999999996" height="10.21416803953872"></rect></g><g class="bar" transform="translate(25.999999999999993,280.3789126853377)"><rect x="1" width="11.999999999999996" height="29.621087314662304"></rect></g><g class="bar" transform="translate(39.00000000000001,259.9505766062603)"><rect x="1" width="11.999999999999996" height="50.04942339373969"></rect></g><g class="bar" transform="translate(52,231.86161449752882)"><rect x="1" width="11.999999999999996" height="78.13838550247118"></rect></g><g class="bar" transform="translate(65,207.85831960461286)"><rect x="1" width="11.999999999999996" height="102.14168039538714"></rect></g><g class="bar" transform="translate(78.00000000000001,201.72981878088962)"><rect x="1" width="11.999999999999996" height="108.27018121911038"></rect></g><g class="bar" transform="translate(91.00000000000001,159.34102141680395)"><rect x="1" width="11.999999999999996" height="150.65897858319605"></rect></g><g class="bar" transform="translate(104,147.0840197693575)"><rect x="1" width="11.999999999999996" height="162.9159802306425"></rect></g><g class="bar" transform="translate(117,155.25535420098845)"><rect x="1" width="11.999999999999996" height="154.74464579901155"></rect></g><g class="bar" transform="translate(130,146.06260296540364)"><rect x="1" width="11.999999999999996" height="163.93739703459636"></rect></g><g class="bar" transform="translate(143,112.35584843492586)"><rect x="1" width="11.999999999999996" height="197.64415156507414"></rect></g><g class="bar" transform="translate(156.00000000000003,56.68863261943986)"><rect x="1" width="11.999999999999996" height="253.31136738056014"></rect></g><g class="bar" transform="translate(169,44.4316309719934)"><rect x="1" width="11.999999999999996" height="265.5683690280066"></rect></g><g class="bar" transform="translate(182.00000000000003,20.42833607907744)"><rect x="1" width="11.999999999999996" height="289.57166392092256"></rect></g><g class="bar" transform="translate(195,0)"><rect x="1" width="11.999999999999996" height="310"></rect></g><g class="bar" transform="translate(208,36.26029654036245)"><rect x="1" width="11.999999999999996" height="273.73970345963755"></rect></g><g class="bar" transform="translate(221.00000000000003,34.21746293245468)"><rect x="1" width="11.999999999999996" height="275.7825370675453"></rect></g><g class="bar" transform="translate(234,56.68863261943986)"><rect x="1" width="11.999999999999996" height="253.31136738056014"></rect></g><g class="bar" transform="translate(247.00000000000003,52.60296540362435)"><rect x="1" width="11.999999999999996" height="257.39703459637565"></rect></g><g class="bar" transform="translate(260,73.54200988467878)"><rect x="1" width="11.999999999999996" height="236.45799011532122"></rect></g><g class="bar" transform="translate(273,110.31301482701812)"><rect x="1" width="11.999999999999996" height="199.68698517298188"></rect></g><g class="bar" transform="translate(286,165.46952224052717)"><rect x="1" width="11.999999999999996" height="144.53047775947283"></rect></g><g class="bar" transform="translate(299.00000000000006,168.02306425041186)"><rect x="1" width="11.999999999999996" height="141.97693574958814"></rect></g><g class="bar" transform="translate(312.00000000000006,227.26523887973642)"><rect x="1" width="11.999999999999996" height="82.73476112026358"></rect></g><g class="bar" transform="translate(325,270.67545304777593)"><rect x="1" width="11.999999999999996" height="39.32454695222407"></rect></g><g class="bar" transform="translate(338,286.50741350906094)"><rect x="1" width="11.999999999999996" height="23.49258649093906"></rect></g><g class="bar" transform="translate(351,302.8500823723229)"><rect x="1" width="11.999999999999996" height="7.149917627677098"></rect></g><g class="bar" transform="translate(364.00000000000006,302.33937397034595)"><rect x="1" width="11.999999999999996" height="7.660626029654054"></rect></g><g class="bar" transform="translate(377.00000000000006,306.9357495881384)"><rect x="1" width="11.999999999999996" height="3.0642504118616216"></rect></g><g class="bar" transform="translate(390,308.97858319604615)"><rect x="1" width="11.999999999999996" height="1.021416803953855"></rect></g><g class="bar" transform="translate(403,309.48929159802304)"><rect x="1" width="11.999999999999996" height="0.5107084019769559"></rect></g><g class="bar" transform="translate(416,310)"><rect x="1" width="11.999999999999996" height="0"></rect></g><g class="bar" transform="translate(429.00000000000006,310)"><rect x="1" width="11.999999999999996" height="0"></rect></g><g class="bar" transform="translate(442.00000000000006,310)"><rect x="1" width="11.999999999999996" height="0"></rect></g><g class="bar" transform="translate(455,310)"><rect x="1" width="11.999999999999996" height="0"></rect></g><g class="bar" transform="translate(468,310)"><rect x="1" width="11.999999999999996" height="0"></rect></g><g class="bar" transform="translate(481,310)"><rect x="1" width="11.999999999999996" height="0"></rect></g><g class="bar" transform="translate(494.00000000000006,310)"><rect x="1" width="11.999999999999996" height="0"></rect></g><g class="bar" transform="translate(507.00000000000006,310)"><rect x="1" width="11.999999999999996" height="0"></rect></g><g class="axis axis--x" transform="translate(0,310)" fill="none" font-size="10" font-family="sans-serif" text-anchor="middle"><path class="domain" stroke="#000" d="M0.5,6V0.5H520.5V6"></path><g class="tick" opacity="1" transform="translate(0,0)"><line stroke="#000" y2="6" x1="0.5" x2="0.5"></line><text fill="#000" y="9" x="0.5" dy="0.71em">0.01</text></g><g class="tick" opacity="1" transform="translate(130,0)"><line stroke="#000" y2="6" x1="0.5" x2="0.5"></line><text fill="#000" y="9" x="0.5" dy="0.71em">1</text></g><g class="tick" opacity="1" transform="translate(260,0)"><line stroke="#000" y2="6" x1="0.5" x2="0.5"></line><text fill="#000" y="9" x="0.5" dy="0.71em">100</text></g><g class="tick" opacity="1" transform="translate(390,0)"><line stroke="#000" y2="6" x1="0.5" x2="0.5"></line><text fill="#000" y="9" x="0.5" dy="0.71em">10000</text></g><g class="tick" opacity="1" transform="translate(520,0)"><line stroke="#000" y2="6" x1="0.5" x2="0.5"></line><text fill="#000" y="9" x="0.5" dy="0.71em"></text></g></g><g class="axis axis--y" fill="none" font-size="10" font-family="sans-serif" text-anchor="end"><path class="domain" stroke="#000" d="M-6,310.5H0.5V0.5H-6"></path><g class="tick" opacity="1" transform="translate(0,310)"><line stroke="#000" x2="-6" y1="0.5" y2="0.5"></line><text fill="#000" x="-9" y="0.5" dy="0.32em">0</text></g><g class="tick" opacity="1" transform="translate(0,284.46457990115323)"><line stroke="#000" x2="-6" y1="0.5" y2="0.5"></line><text fill="#000" x="-9" y="0.5" dy="0.32em">50</text></g><g class="tick" opacity="1" transform="translate(0,258.92915980230646)"><line stroke="#000" x2="-6" y1="0.5" y2="0.5"></line><text fill="#000" x="-9" y="0.5" dy="0.32em">100</text></g><g class="tick" opacity="1" transform="translate(0,233.39373970345963)"><line stroke="#000" x2="-6" y1="0.5" y2="0.5"></line><text fill="#000" x="-9" y="0.5" dy="0.32em">150</text></g><g class="tick" opacity="1" transform="translate(0,207.85831960461286)"><line stroke="#000" x2="-6" y1="0.5" y2="0.5"></line><text fill="#000" x="-9" y="0.5" dy="0.32em">200</text></g><g class="tick" opacity="1" transform="translate(0,182.32289950576606)"><line stroke="#000" x2="-6" y1="0.5" y2="0.5"></line><text fill="#000" x="-9" y="0.5" dy="0.32em">250</text></g><g class="tick" opacity="1" transform="translate(0,156.7874794069193)"><line stroke="#000" x2="-6" y1="0.5" y2="0.5"></line><text fill="#000" x="-9" y="0.5" dy="0.32em">300</text></g><g class="tick" opacity="1" transform="translate(0,131.2520593080725)"><line stroke="#000" x2="-6" y1="0.5" y2="0.5"></line><text fill="#000" x="-9" y="0.5" dy="0.32em">350</text></g><g class="tick" opacity="1" transform="translate(0,105.71663920922572)"><line stroke="#000" x2="-6" y1="0.5" y2="0.5"></line><text fill="#000" x="-9" y="0.5" dy="0.32em">400</text></g><g class="tick" opacity="1" transform="translate(0,80.18121911037892)"><line stroke="#000" x2="-6" y1="0.5" y2="0.5"></line><text fill="#000" x="-9" y="0.5" dy="0.32em">450</text></g><g class="tick" opacity="1" transform="translate(0,54.64579901153212)"><line stroke="#000" x2="-6" y1="0.5" y2="0.5"></line><text fill="#000" x="-9" y="0.5" dy="0.32em">500</text></g><g class="tick" opacity="1" transform="translate(0,29.11037891268535)"><line stroke="#000" x2="-6" y1="0.5" y2="0.5"></line><text fill="#000" x="-9" y="0.5" dy="0.32em">550</text></g><g class="tick" opacity="1" transform="translate(0,3.5749588138385775)"><line stroke="#000" x2="-6" y1="0.5" y2="0.5"></line><text fill="#000" x="-9" y="0.5" dy="0.32em">600</text></g></g></g></svg>