<svg xmlns="http://www.w3.org/2000/svg" width="600" height="350"><defs><style type="text/css"><![CDATA[ 
.bar rect {
  fill-opacity: 0;
  stroke:       black;
  stroke-width: 0.5;
}

.highlight rect {
  fill:       red;
  fill-opacity: 1;
}
.axis path,
.axis line {
  fill: none;
  stroke: #000;
  shape-rendering: crispEdges;
}
 ]]></style></defs><g transform="translate(50,10)"><g class="bar" transform="translate(0,310)"><rect x="1" width="11.999999999999996" height="0"></rect></g><g class="bar" transform="translate(12.999999999999996,310)"><rect x="1" width="11.999999999999996" height="0"></rect></g><g class="bar" transform="translate(25.999999999999993,310)"><rect x="1" width="11.999999999999996" height="0"></rect></g><g class="bar" transform="translate(39.00000000000001,310)"><rect x="1" width="11.999999999999996" height="0"></rect></g><g class="bar" transform="translate(52,310)"><rect x="1" width="11.999999999999996" height="0"></rect></g><g class="bar" transform="translate(65,307.61538461538464)"><rect x="1" width="11.999999999999996" height="2.3846153846153584"></rect></g><g class="bar" transform="translate(78.00000000000001,295.6923076923077)"><rect x="1" width="11.999999999999996" height="14.30769230769232"></rect></g><g class="bar" transform="translate(91.00000000000001,293.3076923076923)"><rect x="1" width="11.999999999999996" height="16.69230769230768"></rect></g><g class="bar" transform="translate(104,276.61538461538464)"><rect x="1" width="11.999999999999996" height="33.38461538461536"></rect></g><g class="bar" transform="translate(117,262.3076923076923)"><rect x="1" width="11.999999999999996" height="47.69230769230768"></rect></g><g class="bar" transform="translate(130,245.6153846153846)"><rect x="1" width="11.999999999999996" height="64.38461538461539"></rect></g><g class="bar" transform="translate(143,238.46153846153845)"><rect x="1" width="11.999999999999996" height="71.53846153846155"></rect></g><g class="bar" transform="translate(156.00000000000003,152.6153846153846)"><rect x="1" width="11.999999999999996" height="157.3846153846154"></rect></g><g class="bar" transform="translate(169,133.53846153846155)"><rect x="1" width="11.999999999999996" height="176.46153846153845"></rect></g><g class="bar" transform="translate(182.00000000000003,100.15384615384613)"><rect x="1" width="11.999999999999996" height="209.84615384615387"></rect></g><g class="bar" transform="translate(195,104.92307692307693)"><rect x="1" width="11.999999999999996" height="205.07692307692307"></rect></g><g class="bar" transform="translate(208,81.07692307692307)"><rect x="1" width="11.999999999999996" height="228.92307692307693"></rect></g><g class="bar" transform="translate(221.00000000000003,71.53846153846152)"><rect x="1" width="11.999999999999996" height="238.46153846153848"></rect></g><g class="bar" transform="translate(234,85.84615384615384)"><rect x="1" width="11.999999999999996" height="224.15384615384616"></rect></g><g class="bar" transform="translate(247.00000000000003,11.923076923076906)"><rect x="1" width="11.999999999999996" height="298.0769230769231"></rect></g><g class="bar" transform="translate(260,21.461538461538453)"><rect x="1" width="11.999999999999996" height="288.53846153846155"></rect></g><g class="bar" transform="translate(273,0)"><rect x="1" width="11.999999999999996" height="310"></rect></g><g class="bar" transform="translate(286,109.69230769230768)"><rect x="1" width="11.999999999999996" height="200.30769230769232"></rect></g><g class="bar" transform="translate(299.00000000000006,76.30769230769232)"><rect x="1" width="11.999999999999996" height="233.69230769230768"></rect></g><g class="bar" transform="translate(312.00000000000006,107.30769230769229)"><rect x="1" width="11.999999999999996" height="202.6923076923077"></rect></g><g class="bar" transform="translate(325,169.30769230769232)"><rect x="1" width="11.999999999999996" height="140.69230769230768"></rect></g><g class="bar" transform="translate(338,190.76923076923077)"><rect x="1" width="11.999999999999996" height="119.23076923076923"></rect></g><g class="bar" transform="translate(351,209.84615384615384)"><rect x="1" width="11.999999999999996" height="100.15384615384616"></rect></g><g class="bar" transform="translate(364.00000000000006,248)"><rect x="1" width="11.999999999999996" height="62"></rect></g><g class="bar" transform="translate(377.00000000000006,243.23076923076923)"><rect x="1" width="11.999999999999996" height="66.76923076923077"></rect></g><g class="bar" transform="translate(390,305.2307692307692)"><rect x="1" width="11.999999999999996" height="4.769230769230774"></rect></g><g class="bar" transform="translate(403,302.84615384615387)"><rect x="1" width="11.999999999999996" height="7.153846153846132"></rect></g><g class="bar" transform="translate(416,305.2307692307692)"><rect x="1" width="11.999999999999996" height="4.769230769230774"></rect></g><g class="bar" transform="translate(429.00000000000006,310)"><rect x="1" width="11.999999999999996" height="0"></rect></g><g class="bar" transform="translate(442.00000000000006,310)"><rect x="1" width="11.999999999999996" height="0"></rect></g><g class="bar" transform="translate(455,310)"><rect x="1" width="11.999999999999996" height="0"></rect></g><g class="bar" transform="translate(468,310)"><rect x="1" width="11.999999999999996" height="0"></rect></g><g class="bar" transform="translate(481,310)"><rect x="1" width="11.999999999999996" height="0"></rect></g><g class="bar" transform="translate(494.00000000000006,310)"><rect x="1" width="11.999999999999996" height="0"></rect></g><g class="bar" transform="translate(507.00000000000006,310)"><rect x="1" width="11.999999999999996" height="0"></rect></g><g class="axis axis--x" transform="translate(0,310)" fill="none" font-size="10" font-family="sans-serif" text-anchor="middle"><path class="domain" stroke="#000" d="M0.5,6V0.5H520.5V6"></path><g class="tick" opacity="1" transform="translate(0,0)"><line stroke="#000" y2="6" x1="0.5" x2="0.5"></line><text fill="#000" y="9" x="0.5" dy="0.71em">0.01</text></g><g class="tick" opacity="1" transform="translate(130,0)"><line stroke="#000" y2="6" x1="0.5" x2="0.5"></line><text fill="#000" y="9" x="0.5" dy="0.71em">1</text></g><g class="tick" opacity="1" transform="translate(260,0)"><line stroke="#000" y2="6" x1="0.5" x2="0.5"></line><text fill="#000" y="9" x="0.5" dy="0.71em">100</text></g><g class="tick" opacity="1" transform="translate(390,0)"><line stroke="#000" y2="6" x1="0.5" x2="0.5"></line><text fill="#000" y="9" x="0.5" dy="0.71em">10000</text></g><g class="tick" opacity="1" transform="translate(520,0)"><line stroke="#000" y2="6" x1="0.5" x2="0.5"></line><text fill="#000" y="9" x="0.5" dy="0.71em"></text></g></g><g class="axis axis--y" fill="none" font-size="10" font-family="sans-serif" text-anchor="end"><path class="domain" stroke="#000" d="M-6,310.5H0.5V0.5H-6"></path><g class="tick" opacity="1" transform="translate(0,310)"><line stroke="#000" x2="-6" y1="0.5" y2="0.5"></line><text fill="#000" x="-9" y="0.5" dy="0.32em">0</text></g><g class="tick" opacity="1" transform="translate(0,286.15384615384613)"><line stroke="#000" x2="-6" y1="0.5" y2="0.5"></line><text fill="#000" x="-9" y="0.5" dy="0.32em">10</text></g><g class="tick" opacity="1" transform="translate(0,262.3076923076923)"><line stroke="#000" x2="-6" y1="0.5" y2="0.5"></line><text fill="#000" x="-9" y="0.5" dy="0.32em">20</text></g><g class="tick" opacity="1" transform="translate(0,238.46153846153845)"><line stroke="#000" x2="-6" y1="0.5" y2="0.5"></line><text fill="#000" x="-9" y="0.5" dy="0.32em">30</text></g><g class="tick" opacity="1" transform="translate(0,214.6153846153846)"><line stroke="#000" x2="-6" y1="0.5" y2="0.5"></line><text fill="#000" x="-9" y="0.5" dy="0.32em">40</text></g><g class="tick" opacity="1" transform="translate(0,190.76923076923077)"><line stroke="#000" x2="-6" y1="0.5" y2="0.5"></line><text fill="#000" x="-9" y="0.5" dy="0.32em">50</text></g><g class="tick" opacity="1" transform="translate(0,166.9230769230769)"><line stroke="#000" x2="-6" y1="0.5" y2="0.5"></line><text fill="#000" x="-9" y="0.5" dy="0.32em">60</text></g><g class="tick" opacity="1" transform="translate(0,143.0769230769231)"><line stroke="#000" x2="-6" y1="0.5" y2="0.5"></line><text fill="#000" x="-9" y="0.5" dy="0.32em">70</text></g><g class="tick" opacity="1" transform="translate(0,119.23076923076923)"><line stroke="#000" x2="-6" y1="0.5" y2="0.5"></line><text fill="#000" x="-9" y="0.5" dy="0.32em">80</text></g><g class="tick" opacity="1" transform="translate(0,95.38461538461539)"><line stroke="#000" x2="-6" y1="0.5" y2="0.5"></line><text fill="#000" x="-9" y="0.5" dy="0.32em">90</text></g><g class="tick" opacity="1" transform="translate(0,71.53846153846152)"><line stroke="#000" x2="-6" y1="0.5" y2="0.5"></line><text fill="#000" x="-9" y="0.5" dy="0.32em">100</text></g><g class="tick" opacity="1" transform="translate(0,47.69230769230768)"><line stroke="#000" x2="-6" y1="0.5" y2="0.5"></line><text fill="#000" x="-9" y="0.5" dy="0.32em">110</text></g><g class="tick" opacity="1" transform="translate(0,23.84615384615381)"><line stroke="#000" x2="-6" y1="0.5" y2="0.5"></line><text fill="#000" x="-9" y="0.5" dy="0.32em">120</text></g><g class="tick" opacity="1" transform="translate(0,0)"><line stroke="#000" x2="-6" y1="0.5" y2="0.5"></line><text fill="#000" x="-9" y="0.5" dy="0.32em">130</text></g></g></g></svg>