<svg xmlns="http://www.w3.org/2000/svg" width="600" height="350"><defs><style type="text/css"><![CDATA[ 
.bar rect {
  fill-opacity: 0;
  stroke:       black;
  stroke-width: 0.5;
}

.highlight rect {
  fill:       red;
  fill-opacity: 1;
}
.axis path,
.axis line {
  fill: none;
  stroke: #000;
  shape-rendering: crispEdges;
}
 ]]></style></defs><g transform="translate(50,10)"><g class="bar" transform="translate(0,310)"><rect x="1" width="11.999999999999996" height="0"></rect></g><g class="bar" transform="translate(12.999999999999996,310)"><rect x="1" width="11.999999999999996" height="0"></rect></g><g class="bar" transform="translate(25.999999999999993,310)"><rect x="1" width="11.999999999999996" height="0"></rect></g><g class="bar" transform="translate(39.00000000000001,310)"><rect x="1" width="11.999999999999996" height="0"></rect></g><g class="bar" transform="translate(52,310)"><rect x="1" width="11.999999999999996" height="0"></rect></g><g class="bar" transform="translate(65,310)"><rect x="1" width="11.999999999999996" height="0"></rect></g><g class="bar" transform="translate(78.00000000000001,310)"><rect x="1" width="11.999999999999996" height="0"></rect></g><g class="bar" transform="translate(91.00000000000001,308.0379746835443)"><rect x="1" width="11.999999999999996" height="1.9620253164557084"></rect></g><g class="bar" transform="translate(104,310)"><rect x="1" width="11.999999999999996" height="0"></rect></g><g class="bar" transform="translate(117,310)"><rect x="1" width="11.999999999999996" height="0"></rect></g><g class="bar" transform="translate(130,300.1898734177215)"><rect x="1" width="11.999999999999996" height="9.810126582278485"></rect></g><g class="bar" transform="translate(143,302.1518987341772)"><rect x="1" width="11.999999999999996" height="7.848101265822777"></rect></g><g class="bar" transform="translate(156.00000000000003,280.56962025316454)"><rect x="1" width="11.999999999999996" height="29.430379746835456"></rect></g><g class="bar" transform="translate(169,268.7974683544304)"><rect x="1" width="11.999999999999996" height="41.20253164556959"></rect></g><g class="bar" transform="translate(182.00000000000003,247.21518987341773)"><rect x="1" width="11.999999999999996" height="62.78481012658227"></rect></g><g class="bar" transform="translate(195,237.40506329113924)"><rect x="1" width="11.999999999999996" height="72.59493670886076"></rect></g><g class="bar" transform="translate(208,227.59493670886076)"><rect x="1" width="11.999999999999996" height="82.40506329113924"></rect></g><g class="bar" transform="translate(221.00000000000003,176.58227848101265)"><rect x="1" width="11.999999999999996" height="133.41772151898735"></rect></g><g class="bar" transform="translate(234,131.45569620253167)"><rect x="1" width="11.999999999999996" height="178.54430379746833"></rect></g><g class="bar" transform="translate(247.00000000000003,105.9493670886076)"><rect x="1" width="11.999999999999996" height="204.0506329113924"></rect></g><g class="bar" transform="translate(260,5.8860759493670685)"><rect x="1" width="11.999999999999996" height="304.11392405063293"></rect></g><g class="bar" transform="translate(273,0)"><rect x="1" width="11.999999999999996" height="310"></rect></g><g class="bar" transform="translate(286,62.78481012658227)"><rect x="1" width="11.999999999999996" height="247.21518987341773"></rect></g><g class="bar" transform="translate(299.00000000000006,64.74683544303798)"><rect x="1" width="11.999999999999996" height="245.25316455696202"></rect></g><g class="bar" transform="translate(312.00000000000006,141.26582278481013)"><rect x="1" width="11.999999999999996" height="168.73417721518987"></rect></g><g class="bar" transform="translate(325,184.43037974683546)"><rect x="1" width="11.999999999999996" height="125.56962025316454"></rect></g><g class="bar" transform="translate(338,213.86075949367088)"><rect x="1" width="11.999999999999996" height="96.13924050632912"></rect></g><g class="bar" transform="translate(351,243.2911392405063)"><rect x="1" width="11.999999999999996" height="66.70886075949369"></rect></g><g class="bar" transform="translate(364.00000000000006,253.1012658227848)"><rect x="1" width="11.999999999999996" height="56.8987341772152"></rect></g><g class="bar" transform="translate(377.00000000000006,276.6455696202532)"><rect x="1" width="11.999999999999996" height="33.354430379746816"></rect></g><g class="bar" transform="translate(390,294.30379746835445)"><rect x="1" width="11.999999999999996" height="15.696202531645554"></rect></g><g class="bar" transform="translate(403,306.0759493670886)"><rect x="1" width="11.999999999999996" height="3.924050632911417"></rect></g><g class="bar" transform="translate(416,308.0379746835443)"><rect x="1" width="11.999999999999996" height="1.9620253164557084"></rect></g><g class="bar" transform="translate(429.00000000000006,308.0379746835443)"><rect x="1" width="11.999999999999996" height="1.9620253164557084"></rect></g><g class="bar" transform="translate(442.00000000000006,310)"><rect x="1" width="11.999999999999996" height="0"></rect></g><g class="bar" transform="translate(455,310)"><rect x="1" width="11.999999999999996" height="0"></rect></g><g class="bar" transform="translate(468,310)"><rect x="1" width="11.999999999999996" height="0"></rect></g><g class="bar" transform="translate(481,310)"><rect x="1" width="11.999999999999996" height="0"></rect></g><g class="bar" transform="translate(494.00000000000006,310)"><rect x="1" width="11.999999999999996" height="0"></rect></g><g class="bar" transform="translate(507.00000000000006,310)"><rect x="1" width="11.999999999999996" height="0"></rect></g><g class="axis axis--x" transform="translate(0,310)" fill="none" font-size="10" font-family="sans-serif" text-anchor="middle"><path class="domain" stroke="#000" d="M0.5,6V0.5H520.5V6"></path><g class="tick" opacity="1" transform="translate(0,0)"><line stroke="#000" y2="6" x1="0.5" x2="0.5"></line><text fill="#000" y="9" x="0.5" dy="0.71em">0.01</text></g><g class="tick" opacity="1" transform="translate(130,0)"><line stroke="#000" y2="6" x1="0.5" x2="0.5"></line><text fill="#000" y="9" x="0.5" dy="0.71em">1</text></g><g class="tick" opacity="1" transform="translate(260,0)"><line stroke="#000" y2="6" x1="0.5" x2="0.5"></line><text fill="#000" y="9" x="0.5" dy="0.71em">100</text></g><g class="tick" opacity="1" transform="translate(390,0)"><line stroke="#000" y2="6" x1="0.5" x2="0.5"></line><text fill="#000" y="9" x="0.5" dy="0.71em">10000</text></g><g class="tick" opacity="1" transform="translate(520,0)"><line stroke="#000" y2="6" x1="0.5" x2="0.5"></line><text fill="#000" y="9" x="0.5" dy="0.71em"></text></g></g><g class="axis axis--y" fill="none" font-size="10" font-family="sans-serif" text-anchor="end"><path class="domain" stroke="#000" d="M-6,310.5H0.5V0.5H-6"></path><g class="tick" opacity="1" transform="translate(0,310)"><line stroke="#000" x2="-6" y1="0.5" y2="0.5"></line><text fill="#000" x="-9" y="0.5" dy="0.32em">0</text></g><g class="tick" opacity="1" transform="translate(0,270.75949367088606)"><line stroke="#000" x2="-6" y1="0.5" y2="0.5"></line><text fill="#000" x="-9" y="0.5" dy="0.32em">20</text></g><g class="tick" opacity="1" transform="translate(0,231.51898734177215)"><line stroke="#000" x2="-6" y1="0.5" y2="0.5"></line><text fill="#000" x="-9" y="0.5" dy="0.32em">40</text></g><g class="tick" opacity="1" transform="translate(0,192.27848101265823)"><line stroke="#000" x2="-6" y1="0.5" y2="0.5"></line><text fill="#000" x="-9" y="0.5" dy="0.32em">60</text></g><g class="tick" opacity="1" transform="translate(0,153.0379746835443)"><line stroke="#000" x2="-6" y1="0.5" y2="0.5"></line><text fill="#000" x="-9" y="0.5" dy="0.32em">80</text></g><g class="tick" opacity="1" transform="translate(0,113.79746835443038)"><line stroke="#000" x2="-6" y1="0.5" y2="0.5"></line><text fill="#000" x="-9" y="0.5" dy="0.32em">100</text></g><g class="tick" opacity="1" transform="translate(0,74.55696202531644)"><line stroke="#000" x2="-6" y1="0.5" y2="0.5"></line><text fill="#000" x="-9" y="0.5" dy="0.32em">120</text></g><g class="tick" opacity="1" transform="translate(0,35.316455696202524)"><line stroke="#000" x2="-6" y1="0.5" y2="0.5"></line><text fill="#000" x="-9" y="0.5" dy="0.32em">140</text></g></g></g></svg>