<svg xmlns="http://www.w3.org/2000/svg" width="600" height="350"><defs><style type="text/css"><![CDATA[ 
.bar rect {
  fill-opacity: 0;
  stroke:       black;
  stroke-width: 0.5;
}

.highlight rect {
  fill:       red;
  fill-opacity: 1;
}
.axis path,
.axis line {
  fill: none;
  stroke: #000;
  shape-rendering: crispEdges;
}
 ]]></style></defs><g transform="translate(50,10)"><g class="bar" transform="translate(0,310)"><rect x="1" width="11.999999999999996" height="0"></rect></g><g class="bar" transform="translate(12.999999999999996,307.1818181818182)"><rect x="1" width="11.999999999999996" height="2.818181818181813"></rect></g><g class="bar" transform="translate(25.999999999999993,302.4848484848485)"><rect x="1" width="11.999999999999996" height="7.515151515151501"></rect></g><g class="bar" transform="translate(39.00000000000001,286.5151515151515)"><rect x="1" width="11.999999999999996" height="23.4848484848485"></rect></g><g class="bar" transform="translate(52,270.54545454545456)"><rect x="1" width="11.999999999999996" height="39.45454545454544"></rect></g><g class="bar" transform="translate(65,265.8484848484849)"><rect x="1" width="11.999999999999996" height="44.15151515151513"></rect></g><g class="bar" transform="translate(78.00000000000001,201.96969696969697)"><rect x="1" width="11.999999999999996" height="108.03030303030303"></rect></g><g class="bar" transform="translate(91.00000000000001,163.45454545454547)"><rect x="1" width="11.999999999999996" height="146.54545454545453"></rect></g><g class="bar" transform="translate(104,131.5151515151515)"><rect x="1" width="11.999999999999996" height="178.4848484848485"></rect></g><g class="bar" transform="translate(117,79.84848484848484)"><rect x="1" width="11.999999999999996" height="230.15151515151516"></rect></g><g class="bar" transform="translate(130,47.909090909090935)"><rect x="1" width="11.999999999999996" height="262.09090909090907"></rect></g><g class="bar" transform="translate(143,28.181818181818187)"><rect x="1" width="11.999999999999996" height="281.8181818181818"></rect></g><g class="bar" transform="translate(156.00000000000003,34.75757575757575)"><rect x="1" width="11.999999999999996" height="275.24242424242425"></rect></g><g class="bar" transform="translate(169,11.272727272727252)"><rect x="1" width="11.999999999999996" height="298.72727272727275"></rect></g><g class="bar" transform="translate(182.00000000000003,0)"><rect x="1" width="11.999999999999996" height="310"></rect></g><g class="bar" transform="translate(195,4.696969696969688)"><rect x="1" width="11.999999999999996" height="305.3030303030303"></rect></g><g class="bar" transform="translate(208,64.81818181818181)"><rect x="1" width="11.999999999999996" height="245.1818181818182"></rect></g><g class="bar" transform="translate(221.00000000000003,75.15151515151516)"><rect x="1" width="11.999999999999996" height="234.84848484848484"></rect></g><g class="bar" transform="translate(234,124)"><rect x="1" width="11.999999999999996" height="186"></rect></g><g class="bar" transform="translate(247.00000000000003,155.93939393939394)"><rect x="1" width="11.999999999999996" height="154.06060606060606"></rect></g><g class="bar" transform="translate(260,205.72727272727275)"><rect x="1" width="11.999999999999996" height="104.27272727272725"></rect></g><g class="bar" transform="translate(273,201.96969696969697)"><rect x="1" width="11.999999999999996" height="108.03030303030303"></rect></g><g class="bar" transform="translate(286,243.3030303030303)"><rect x="1" width="11.999999999999996" height="66.69696969696969"></rect></g><g class="bar" transform="translate(299.00000000000006,249.87878787878788)"><rect x="1" width="11.999999999999996" height="60.121212121212125"></rect></g><g class="bar" transform="translate(312.00000000000006,254.57575757575756)"><rect x="1" width="11.999999999999996" height="55.424242424242436"></rect></g><g class="bar" transform="translate(325,272.42424242424244)"><rect x="1" width="11.999999999999996" height="37.575757575757564"></rect></g><g class="bar" transform="translate(338,281.8181818181818)"><rect x="1" width="11.999999999999996" height="28.181818181818187"></rect></g><g class="bar" transform="translate(351,282.75757575757575)"><rect x="1" width="11.999999999999996" height="27.24242424242425"></rect></g><g class="bar" transform="translate(364.00000000000006,287.45454545454544)"><rect x="1" width="11.999999999999996" height="22.54545454545456"></rect></g><g class="bar" transform="translate(377.00000000000006,303.42424242424244)"><rect x="1" width="11.999999999999996" height="6.575757575757564"></rect></g><g class="bar" transform="translate(390,302.4848484848485)"><rect x="1" width="11.999999999999996" height="7.515151515151501"></rect></g><g class="bar" transform="translate(403,306.24242424242425)"><rect x="1" width="11.999999999999996" height="3.7575757575757507"></rect></g><g class="bar" transform="translate(416,307.1818181818182)"><rect x="1" width="11.999999999999996" height="2.818181818181813"></rect></g><g class="bar" transform="translate(429.00000000000006,309.06060606060606)"><rect x="1" width="11.999999999999996" height="0.9393939393939377"></rect></g><g class="bar" transform="translate(442.00000000000006,310)"><rect x="1" width="11.999999999999996" height="0"></rect></g><g class="bar" transform="translate(455,309.06060606060606)"><rect x="1" width="11.999999999999996" height="0.9393939393939377"></rect></g><g class="bar" transform="translate(468,310)"><rect x="1" width="11.999999999999996" height="0"></rect></g><g class="bar" transform="translate(481,310)"><rect x="1" width="11.999999999999996" height="0"></rect></g><g class="bar" transform="translate(494.00000000000006,310)"><rect x="1" width="11.999999999999996" height="0"></rect></g><g class="bar" transform="translate(507.00000000000006,310)"><rect x="1" width="11.999999999999996" height="0"></rect></g><g class="axis axis--x" transform="translate(0,310)" fill="none" font-size="10" font-family="sans-serif" text-anchor="middle"><path class="domain" stroke="#000" d="M0.5,6V0.5H520.5V6"></path><g class="tick" opacity="1" transform="translate(0,0)"><line stroke="#000" y2="6" x1="0.5" x2="0.5"></line><text fill="#000" y="9" x="0.5" dy="0.71em">0.01</text></g><g class="tick" opacity="1" transform="translate(130,0)"><line stroke="#000" y2="6" x1="0.5" x2="0.5"></line><text fill="#000" y="9" x="0.5" dy="0.71em">1</text></g><g class="tick" opacity="1" transform="translate(260,0)"><line stroke="#000" y2="6" x1="0.5" x2="0.5"></line><text fill="#000" y="9" x="0.5" dy="0.71em">100</text></g><g class="tick" opacity="1" transform="translate(390,0)"><line stroke="#000" y2="6" x1="0.5" x2="0.5"></line><text fill="#000" y="9" x="0.5" dy="0.71em">10000</text></g><g class="tick" opacity="1" transform="translate(520,0)"><line stroke="#000" y2="6" x1="0.5" x2="0.5"></line><text fill="#000" y="9" x="0.5" dy="0.71em"></text></g></g><g class="axis axis--y" fill="none" font-size="10" font-family="sans-serif" text-anchor="end"><path class="domain" stroke="#000" d="M-6,310.5H0.5V0.5H-6"></path><g class="tick" opacity="1" transform="translate(0,310)"><line stroke="#000" x2="-6" y1="0.5" y2="0.5"></line><text fill="#000" x="-9" y="0.5" dy="0.32em">0</text></g><g class="tick" opacity="1" transform="translate(0,263.030303030303)"><line stroke="#000" x2="-6" y1="0.5" y2="0.5"></line><text fill="#000" x="-9" y="0.5" dy="0.32em">50</text></g><g class="tick" opacity="1" transform="translate(0,216.06060606060606)"><line stroke="#000" x2="-6" y1="0.5" y2="0.5"></line><text fill="#000" x="-9" y="0.5" dy="0.32em">100</text></g><g class="tick" opacity="1" transform="translate(0,169.0909090909091)"><line stroke="#000" x2="-6" y1="0.5" y2="0.5"></line><text fill="#000" x="-9" y="0.5" dy="0.32em">150</text></g><g class="tick" opacity="1" transform="translate(0,122.12121212121212)"><line stroke="#000" x2="-6" y1="0.5" y2="0.5"></line><text fill="#000" x="-9" y="0.5" dy="0.32em">200</text></g><g class="tick" opacity="1" transform="translate(0,75.15151515151516)"><line stroke="#000" x2="-6" y1="0.5" y2="0.5"></line><text fill="#000" x="-9" y="0.5" dy="0.32em">250</text></g><g class="tick" opacity="1" transform="translate(0,28.181818181818187)"><line stroke="#000" x2="-6" y1="0.5" y2="0.5"></line><text fill="#000" x="-9" y="0.5" dy="0.32em">300</text></g></g></g></svg>