<svg xmlns="http://www.w3.org/2000/svg" width="600" height="350"><defs><style type="text/css"><![CDATA[ 
.bar rect {
  fill-opacity: 0;
  stroke:       black;
  stroke-width: 0.5;
}

.highlight rect {
  fill:       red;
  fill-opacity: 1;
}
.axis path,
.axis line {
  fill: none;
  stroke: #000;
  shape-rendering: crispEdges;
}
 ]]></style></defs><g transform="translate(50,10)"><g class="bar" transform="translate(0,290.625)"><rect x="1" width="11.999999999999996" height="19.375"></rect></g><g class="bar" transform="translate(12.999999999999996,277.21153846153845)"><rect x="1" width="11.999999999999996" height="32.78846153846155"></rect></g><g class="bar" transform="translate(25.999999999999993,265.28846153846155)"><rect x="1" width="11.999999999999996" height="44.71153846153845"></rect></g><g class="bar" transform="translate(39.00000000000001,253.3653846153846)"><rect x="1" width="11.999999999999996" height="56.63461538461539"></rect></g><g class="bar" transform="translate(52,242.1875)"><rect x="1" width="11.999999999999996" height="67.8125"></rect></g><g class="bar" transform="translate(65,162.4519230769231)"><rect x="1" width="11.999999999999996" height="147.5480769230769"></rect></g><g class="bar" transform="translate(78.00000000000001,154.2548076923077)"><rect x="1" width="11.999999999999996" height="155.7451923076923"></rect></g><g class="bar" transform="translate(91.00000000000001,130.40865384615384)"><rect x="1" width="11.999999999999996" height="179.59134615384616"></rect></g><g class="bar" transform="translate(104,125.19230769230771)"><rect x="1" width="11.999999999999996" height="184.8076923076923"></rect></g><g class="bar" transform="translate(117,81.22596153846152)"><rect x="1" width="11.999999999999996" height="228.77403846153848"></rect></g><g class="bar" transform="translate(130,70.79326923076923)"><rect x="1" width="11.999999999999996" height="239.20673076923077"></rect></g><g class="bar" transform="translate(143,39.49519230769232)"><rect x="1" width="11.999999999999996" height="270.5048076923077"></rect></g><g class="bar" transform="translate(156.00000000000003,25.336538461538453)"><rect x="1" width="11.999999999999996" height="284.66346153846155"></rect></g><g class="bar" transform="translate(169,40.240384615384585)"><rect x="1" width="11.999999999999996" height="269.7596153846154"></rect></g><g class="bar" transform="translate(182.00000000000003,30.552884615384585)"><rect x="1" width="11.999999999999996" height="279.4471153846154"></rect></g><g class="bar" transform="translate(195,31.298076923076906)"><rect x="1" width="11.999999999999996" height="278.7019230769231"></rect></g><g class="bar" transform="translate(208,0)"><rect x="1" width="11.999999999999996" height="310"></rect></g><g class="bar" transform="translate(221.00000000000003,26.826923076923094)"><rect x="1" width="11.999999999999996" height="283.1730769230769"></rect></g><g class="bar" transform="translate(234,54.39903846153848)"><rect x="1" width="11.999999999999996" height="255.60096153846152"></rect></g><g class="bar" transform="translate(247.00000000000003,68.55769230769229)"><rect x="1" width="11.999999999999996" height="241.4423076923077"></rect></g><g class="bar" transform="translate(260,63.34134615384616)"><rect x="1" width="11.999999999999996" height="246.65865384615384"></rect></g><g class="bar" transform="translate(273,86.44230769230771)"><rect x="1" width="11.999999999999996" height="223.5576923076923"></rect></g><g class="bar" transform="translate(286,139.35096153846152)"><rect x="1" width="11.999999999999996" height="170.64903846153848"></rect></g><g class="bar" transform="translate(299.00000000000006,198.96634615384613)"><rect x="1" width="11.999999999999996" height="111.03365384615387"></rect></g><g class="bar" transform="translate(312.00000000000006,227.28365384615387)"><rect x="1" width="11.999999999999996" height="82.71634615384613"></rect></g><g class="bar" transform="translate(325,243.6778846153846)"><rect x="1" width="11.999999999999996" height="66.32211538461539"></rect></g><g class="bar" transform="translate(338,265.28846153846155)"><rect x="1" width="11.999999999999996" height="44.71153846153845"></rect></g><g class="bar" transform="translate(351,289.13461538461536)"><rect x="1" width="11.999999999999996" height="20.86538461538464"></rect></g><g class="bar" transform="translate(364.00000000000006,302.5480769230769)"><rect x="1" width="11.999999999999996" height="7.451923076923094"></rect></g><g class="bar" transform="translate(377.00000000000006,298.82211538461536)"><rect x="1" width="11.999999999999996" height="11.177884615384642"></rect></g><g class="bar" transform="translate(390,306.27403846153845)"><rect x="1" width="11.999999999999996" height="3.725961538461547"></rect></g><g class="bar" transform="translate(403,308.50961538461536)"><rect x="1" width="11.999999999999996" height="1.4903846153846416"></rect></g><g class="bar" transform="translate(416,310)"><rect x="1" width="11.999999999999996" height="0"></rect></g><g class="bar" transform="translate(429.00000000000006,310)"><rect x="1" width="11.999999999999996" height="0"></rect></g><g class="bar" transform="translate(442.00000000000006,310)"><rect x="1" width="11.999999999999996" height="0"></rect></g><g class="bar" transform="translate(455,310)"><rect x="1" width="11.999999999999996" height="0"></rect></g><g class="bar" transform="translate(468,310)"><rect x="1" width="11.999999999999996" height="0"></rect></g><g class="bar" transform="translate(481,310)"><rect x="1" width="11.999999999999996" height="0"></rect></g><g class="bar" transform="translate(494.00000000000006,310)"><rect x="1" width="11.999999999999996" height="0"></rect></g><g class="bar" transform="translate(507.00000000000006,310)"><rect x="1" width="11.999999999999996" height="0"></rect></g><g class="axis axis--x" transform="translate(0,310)" fill="none" font-size="10" font-family="sans-serif" text-anchor="middle"><path class="domain" stroke="#000" d="M0.5,6V0.5H520.5V6"></path><g class="tick" opacity="1" transform="translate(0,0)"><line stroke="#000" y2="6" x1="0.5" x2="0.5"></line><text fill="#000" y="9" x="0.5" dy="0.71em">0.01</text></g><g class="tick" opacity="1" transform="translate(130,0)"><line stroke="#000" y2="6" x1="0.5" x2="0.5"></line><text fill="#000" y="9" x="0.5" dy="0.71em">1</text></g><g class="tick" opacity="1" transform="translate(260,0)"><line stroke="#000" y2="6" x1="0.5" x2="0.5"></line><text fill="#000" y="9" x="0.5" dy="0.71em">100</text></g><g class="tick" opacity="1" transform="translate(390,0)"><line stroke="#000" y2="6" x1="0.5" x2="0.5"></line><text fill="#000" y="9" x="0.5" dy="0.71em">10000</text></g><g class="tick" opacity="1" transform="translate(520,0)"><line stroke="#000" y2="6" x1="0.5" x2="0.5"></line><text fill="#000" y="9" x="0.5" dy="0.71em"></text></g></g><g class="axis axis--y" fill="none" font-size="10" font-family="sans-serif" text-anchor="end"><path class="domain" stroke="#000" d="M-6,310.5H0.5V0.5H-6"></path><g class="tick" opacity="1" transform="translate(0,310)"><line stroke="#000" x2="-6" y1="0.5" y2="0.5"></line><text fill="#000" x="-9" y="0.5" dy="0.32em">0</text></g><g class="tick" opacity="1" transform="translate(0,272.74038461538464)"><line stroke="#000" x2="-6" y1="0.5" y2="0.5"></line><text fill="#000" x="-9" y="0.5" dy="0.32em">50</text></g><g class="tick" opacity="1" transform="translate(0,235.48076923076923)"><line stroke="#000" x2="-6" y1="0.5" y2="0.5"></line><text fill="#000" x="-9" y="0.5" dy="0.32em">100</text></g><g class="tick" opacity="1" transform="translate(0,198.22115384615387)"><line stroke="#000" x2="-6" y1="0.5" y2="0.5"></line><text fill="#000" x="-9" y="0.5" dy="0.32em">150</text></g><g class="tick" opacity="1" transform="translate(0,160.96153846153845)"><line stroke="#000" x2="-6" y1="0.5" y2="0.5"></line><text fill="#000" x="-9" y="0.5" dy="0.32em">200</text></g><g class="tick" opacity="1" transform="translate(0,123.7019230769231)"><line stroke="#000" x2="-6" y1="0.5" y2="0.5"></line><text fill="#000" x="-9" y="0.5" dy="0.32em">250</text></g><g class="tick" opacity="1" transform="translate(0,86.44230769230771)"><line stroke="#000" x2="-6" y1="0.5" y2="0.5"></line><text fill="#000" x="-9" y="0.5" dy="0.32em">300</text></g><g class="tick" opacity="1" transform="translate(0,49.18269230769232)"><line stroke="#000" x2="-6" y1="0.5" y2="0.5"></line><text fill="#000" x="-9" y="0.5" dy="0.32em">350</text></g><g class="tick" opacity="1" transform="translate(0,11.923076923076906)"><line stroke="#000" x2="-6" y1="0.5" y2="0.5"></line><text fill="#000" x="-9" y="0.5" dy="0.32em">400</text></g></g></g></svg>