<svg xmlns="http://www.w3.org/2000/svg" width="600" height="350"><defs><style type="text/css"><![CDATA[ 
.bar rect {
  fill-opacity: 0;
  stroke:       black;
  stroke-width: 0.5;
}

.highlight rect {
  fill:       red;
  fill-opacity: 1;
}
.axis path,
.axis line {
  fill: none;
  stroke: #000;
  shape-rendering: crispEdges;
}
 ]]></style></defs><g transform="translate(50,10)"><g class="bar" transform="translate(0,289.64179104477614)"><rect x="1" width="11.999999999999996" height="20.35820895522386"></rect></g><g class="bar" transform="translate(12.999999999999996,279.46268656716416)"><rect x="1" width="11.999999999999996" height="30.537313432835845"></rect></g><g class="bar" transform="translate(25.999999999999993,244.2985074626866)"><rect x="1" width="11.999999999999996" height="65.70149253731341"></rect></g><g class="bar" transform="translate(39.00000000000001,224.86567164179104)"><rect x="1" width="11.999999999999996" height="85.13432835820896"></rect></g><g class="bar" transform="translate(52,188.77611940298507)"><rect x="1" width="11.999999999999996" height="121.22388059701493"></rect></g><g class="bar" transform="translate(65,116.59701492537314)"><rect x="1" width="11.999999999999996" height="193.40298507462686"></rect></g><g class="bar" transform="translate(78.00000000000001,79.58208955223881)"><rect x="1" width="11.999999999999996" height="230.4179104477612"></rect></g><g class="bar" transform="translate(91.00000000000001,90.68656716417911)"><rect x="1" width="11.999999999999996" height="219.3134328358209"></rect></g><g class="bar" transform="translate(104,91.61194029850748)"><rect x="1" width="11.999999999999996" height="218.38805970149252"></rect></g><g class="bar" transform="translate(117,79.58208955223881)"><rect x="1" width="11.999999999999996" height="230.4179104477612"></rect></g><g class="bar" transform="translate(130,72.17910447761193)"><rect x="1" width="11.999999999999996" height="237.82089552238807"></rect></g><g class="bar" transform="translate(143,64.7761194029851)"><rect x="1" width="11.999999999999996" height="245.2238805970149"></rect></g><g class="bar" transform="translate(156.00000000000003,13.8805970149254)"><rect x="1" width="11.999999999999996" height="296.1194029850746"></rect></g><g class="bar" transform="translate(169,27.761194029850742)"><rect x="1" width="11.999999999999996" height="282.23880597014926"></rect></g><g class="bar" transform="translate(182.00000000000003,37.014925373134304)"><rect x="1" width="11.999999999999996" height="272.9850746268657"></rect></g><g class="bar" transform="translate(195,41.64179104477614)"><rect x="1" width="11.999999999999996" height="268.35820895522386"></rect></g><g class="bar" transform="translate(208,4.626865671641781)"><rect x="1" width="11.999999999999996" height="305.3731343283582"></rect></g><g class="bar" transform="translate(221.00000000000003,0)"><rect x="1" width="11.999999999999996" height="310"></rect></g><g class="bar" transform="translate(234,2.776119402985046)"><rect x="1" width="11.999999999999996" height="307.22388059701495"></rect></g><g class="bar" transform="translate(247.00000000000003,60.14925373134329)"><rect x="1" width="11.999999999999996" height="249.8507462686567"></rect></g><g class="bar" transform="translate(260,62.92537313432837)"><rect x="1" width="11.999999999999996" height="247.07462686567163"></rect></g><g class="bar" transform="translate(273,98.089552238806)"><rect x="1" width="11.999999999999996" height="211.910447761194"></rect></g><g class="bar" transform="translate(286,138.8059701492537)"><rect x="1" width="11.999999999999996" height="171.1940298507463"></rect></g><g class="bar" transform="translate(299.00000000000006,152.6865671641791)"><rect x="1" width="11.999999999999996" height="157.3134328358209"></rect></g><g class="bar" transform="translate(312.00000000000006,189.7014925373134)"><rect x="1" width="11.999999999999996" height="120.29850746268659"></rect></g><g class="bar" transform="translate(325,245.22388059701493)"><rect x="1" width="11.999999999999996" height="64.77611940298507"></rect></g><g class="bar" transform="translate(338,260.02985074626866)"><rect x="1" width="11.999999999999996" height="49.970149253731336"></rect></g><g class="bar" transform="translate(351,276.6865671641791)"><rect x="1" width="11.999999999999996" height="33.31343283582089"></rect></g><g class="bar" transform="translate(364.00000000000006,294.2686567164179)"><rect x="1" width="11.999999999999996" height="15.731343283582078"></rect></g><g class="bar" transform="translate(377.00000000000006,301.67164179104475)"><rect x="1" width="11.999999999999996" height="8.328358208955251"></rect></g><g class="bar" transform="translate(390,305.3731343283582)"><rect x="1" width="11.999999999999996" height="4.626865671641781"></rect></g><g class="bar" transform="translate(403,307.2238805970149)"><rect x="1" width="11.999999999999996" height="2.7761194029851026"></rect></g><g class="bar" transform="translate(416,309.07462686567163)"><rect x="1" width="11.999999999999996" height="0.9253731343283675"></rect></g><g class="bar" transform="translate(429.00000000000006,310)"><rect x="1" width="11.999999999999996" height="0"></rect></g><g class="bar" transform="translate(442.00000000000006,310)"><rect x="1" width="11.999999999999996" height="0"></rect></g><g class="bar" transform="translate(455,310)"><rect x="1" width="11.999999999999996" height="0"></rect></g><g class="bar" transform="translate(468,310)"><rect x="1" width="11.999999999999996" height="0"></rect></g><g class="bar" transform="translate(481,310)"><rect x="1" width="11.999999999999996" height="0"></rect></g><g class="bar" transform="translate(494.00000000000006,310)"><rect x="1" width="11.999999999999996" height="0"></rect></g><g class="bar" transform="translate(507.00000000000006,310)"><rect x="1" width="11.999999999999996" height="0"></rect></g><g class="axis axis--x" transform="translate(0,310)" fill="none" font-size="10" font-family="sans-serif" text-anchor="middle"><path class="domain" stroke="#000" d="M0.5,6V0.5H520.5V6"></path><g class="tick" opacity="1" transform="translate(0,0)"><line stroke="#000" y2="6" x1="0.5" x2="0.5"></line><text fill="#000" y="9" x="0.5" dy="0.71em">0.01</text></g><g class="tick" opacity="1" transform="translate(130,0)"><line stroke="#000" y2="6" x1="0.5" x2="0.5"></line><text fill="#000" y="9" x="0.5" dy="0.71em">1</text></g><g class="tick" opacity="1" transform="translate(260,0)"><line stroke="#000" y2="6" x1="0.5" x2="0.5"></line><text fill="#000" y="9" x="0.5" dy="0.71em">100</text></g><g class="tick" opacity="1" transform="translate(390,0)"><line stroke="#000" y2="6" x1="0.5" x2="0.5"></line><text fill="#000" y="9" x="0.5" dy="0.71em">10000</text></g><g class="tick" opacity="1" transform="translate(520,0)"><line stroke="#000" y2="6" x1="0.5" x2="0.5"></line><text fill="#000" y="9" x="0.5" dy="0.71em"></text></g></g><g class="axis axis--y" fill="none" font-size="10" font-family="sans-serif" text-anchor="end"><path class="domain" stroke="#000" d="M-6,310.5H0.5V0.5H-6"></path><g class="tick" opacity="1" transform="translate(0,310)"><line stroke="#000" x2="-6" y1="0.5" y2="0.5"></line><text fill="#000" x="-9" y="0.5" dy="0.32em">0</text></g><g class="tick" opacity="1" transform="translate(0,263.7313432835821)"><line stroke="#000" x2="-6" y1="0.5" y2="0.5"></line><text fill="#000" x="-9" y="0.5" dy="0.32em">50</text></g><g class="tick" opacity="1" transform="translate(0,217.46268656716418)"><line stroke="#000" x2="-6" y1="0.5" y2="0.5"></line><text fill="#000" x="-9" y="0.5" dy="0.32em">100</text></g><g class="tick" opacity="1" transform="translate(0,171.19402985074626)"><line stroke="#000" x2="-6" y1="0.5" y2="0.5"></line><text fill="#000" x="-9" y="0.5" dy="0.32em">150</text></g><g class="tick" opacity="1" transform="translate(0,124.92537313432837)"><line stroke="#000" x2="-6" y1="0.5" y2="0.5"></line><text fill="#000" x="-9" y="0.5" dy="0.32em">200</text></g><g class="tick" opacity="1" transform="translate(0,78.65671641791045)"><line stroke="#000" x2="-6" y1="0.5" y2="0.5"></line><text fill="#000" x="-9" y="0.5" dy="0.32em">250</text></g><g class="tick" opacity="1" transform="translate(0,32.38805970149252)"><line stroke="#000" x2="-6" y1="0.5" y2="0.5"></line><text fill="#000" x="-9" y="0.5" dy="0.32em">300</text></g></g></g></svg>