<svg xmlns="http://www.w3.org/2000/svg" width="600" height="350"><defs><style type="text/css"><![CDATA[ 
.bar rect {
  fill-opacity: 0;
  stroke:       black;
  stroke-width: 0.5;
}

.highlight rect {
  fill:       red;
  fill-opacity: 1;
}
.axis path,
.axis line {
  fill: none;
  stroke: #000;
  shape-rendering: crispEdges;
}
path {
    stroke: red;
    fill: none;
}

line {
    stroke: red;
}

path.marker {
    fill: red;
}
 ]]></style></defs><g transform="translate(50,10)"><g class="bar" transform="translate(0,310)"><rect x="1" width="11.999999999999996" height="0"></rect></g><g class="bar" transform="translate(12.999999999999996,310)"><rect x="1" width="11.999999999999996" height="0"></rect></g><g class="bar" transform="translate(25.999999999999993,310)"><rect x="1" width="11.999999999999996" height="0"></rect></g><g class="bar" transform="translate(39.00000000000001,310)"><rect x="1" width="11.999999999999996" height="0"></rect></g><g class="bar" transform="translate(52,310)"><rect x="1" width="11.999999999999996" height="0"></rect></g><g class="bar" transform="translate(65,310)"><rect x="1" width="11.999999999999996" height="0"></rect></g><g class="bar" transform="translate(78.00000000000001,308.7295081967213)"><rect x="1" width="11.999999999999996" height="1.2704918032786736"></rect></g><g class="bar" transform="translate(91.00000000000001,310)"><rect x="1" width="11.999999999999996" height="0"></rect></g><g class="bar" transform="translate(104,308.7295081967213)"><rect x="1" width="11.999999999999996" height="1.2704918032786736"></rect></g><g class="bar" transform="translate(117,301.10655737704917)"><rect x="1" width="11.999999999999996" height="8.893442622950829"></rect></g><g class="bar" transform="translate(130,282.04918032786884)"><rect x="1" width="11.999999999999996" height="27.95081967213116"></rect></g><g class="bar" transform="translate(143,257.90983606557376)"><rect x="1" width="11.999999999999996" height="52.09016393442624"></rect></g><g class="bar" transform="translate(156.00000000000003,203.27868852459017)"><rect x="1" width="11.999999999999996" height="106.72131147540983"></rect></g><g class="bar" transform="translate(169,172.78688524590163)"><rect x="1" width="11.999999999999996" height="137.21311475409837"></rect></g><g class="bar" transform="translate(182.00000000000003,147.37704918032787)"><rect x="1" width="11.999999999999996" height="162.62295081967213"></rect></g><g class="bar" transform="translate(195,58.44262295081967)"><rect x="1" width="11.999999999999996" height="251.55737704918033"></rect></g><g class="bar" transform="translate(208,38.11475409836066)"><rect x="1" width="11.999999999999996" height="271.88524590163934"></rect></g><g class="bar" transform="translate(221.00000000000003,36.84426229508193)"><rect x="1" width="11.999999999999996" height="273.15573770491807"></rect></g><g class="bar" transform="translate(234,30.491803278688508)"><rect x="1" width="11.999999999999996" height="279.5081967213115"></rect></g><g class="bar" transform="translate(247.00000000000003,0)"><rect x="1" width="11.999999999999996" height="310"></rect></g><g class="bar" transform="translate(260,47.00819672131149)"><rect x="1" width="11.999999999999996" height="262.9918032786885"></rect></g><g class="bar" transform="translate(273,24.139344262295083)"><rect x="1" width="11.999999999999996" height="285.8606557377049"></rect></g><g class="bar" transform="translate(286,25.409836065573757)"><rect x="1" width="11.999999999999996" height="284.59016393442624"></rect></g><g class="bar" transform="translate(299.00000000000006,76.22950819672133)"><rect x="1" width="11.999999999999996" height="233.77049180327867"></rect></g><g class="bar" transform="translate(312.00000000000006,111.80327868852459)"><rect x="1" width="11.999999999999996" height="198.19672131147541"></rect></g><g class="bar" transform="translate(325,142.2950819672131)"><rect x="1" width="11.999999999999996" height="167.7049180327869"></rect></g><g class="bar" transform="translate(338,231.22950819672133)"><rect x="1" width="11.999999999999996" height="78.77049180327867"></rect></g><g class="bar" transform="translate(351,249.01639344262296)"><rect x="1" width="11.999999999999996" height="60.983606557377044"></rect></g><g class="bar" transform="translate(364.00000000000006,284.59016393442624)"><rect x="1" width="11.999999999999996" height="25.409836065573757"></rect></g><g class="bar" transform="translate(377.00000000000006,301.10655737704917)"><rect x="1" width="11.999999999999996" height="8.893442622950829"></rect></g><g class="bar" transform="translate(390,310)"><rect x="1" width="11.999999999999996" height="0"></rect></g><g class="bar" transform="translate(403,310)"><rect x="1" width="11.999999999999996" height="0"></rect></g><g class="bar" transform="translate(416,310)"><rect x="1" width="11.999999999999996" height="0"></rect></g><g class="bar" transform="translate(429.00000000000006,310)"><rect x="1" width="11.999999999999996" height="0"></rect></g><g class="bar" transform="translate(442.00000000000006,310)"><rect x="1" width="11.999999999999996" height="0"></rect></g><g class="bar" transform="translate(455,310)"><rect x="1" width="11.999999999999996" height="0"></rect></g><g class="bar" transform="translate(468,310)"><rect x="1" width="11.999999999999996" height="0"></rect></g><g class="bar" transform="translate(481,310)"><rect x="1" width="11.999999999999996" height="0"></rect></g><g class="bar" transform="translate(494.00000000000006,310)"><rect x="1" width="11.999999999999996" height="0"></rect></g><g class="bar" transform="translate(507.00000000000006,310)"><rect x="1" width="11.999999999999996" height="0"></rect></g><g class="axis axis--x" transform="translate(0,310)" fill="none" font-size="10" font-family="sans-serif" text-anchor="middle"><path class="domain" stroke="#000" d="M0.5,6V0.5H520.5V6"></path><g class="tick" opacity="1" transform="translate(0.5,0)"><line stroke="#000" y2="6"></line><text fill="#000" y="9" dy="0.71em">0.01</text></g><g class="tick" opacity="1" transform="translate(130.5,0)"><line stroke="#000" y2="6"></line><text fill="#000" y="9" dy="0.71em">1</text></g><g class="tick" opacity="1" transform="translate(260.5,0)"><line stroke="#000" y2="6"></line><text fill="#000" y="9" dy="0.71em">100</text></g><g class="tick" opacity="1" transform="translate(390.5,0)"><line stroke="#000" y2="6"></line><text fill="#000" y="9" dy="0.71em">10000</text></g><g class="tick" opacity="1" transform="translate(520.5,0)"><line stroke="#000" y2="6"></line><text fill="#000" y="9" dy="0.71em"></text></g></g><g class="axis axis--y" fill="none" font-size="10" font-family="sans-serif" text-anchor="end"><path class="domain" stroke="#000" d="M-6,310.5H0.5V0.5H-6"></path><g class="tick" opacity="1" transform="translate(0,310.5)"><line stroke="#000" x2="-6"></line><text fill="#000" x="-9" dy="0.32em">0</text></g><g class="tick" opacity="1" transform="translate(0,285.09016393442624)"><line stroke="#000" x2="-6"></line><text fill="#000" x="-9" dy="0.32em">20</text></g><g class="tick" opacity="1" transform="translate(0,259.6803278688525)"><line stroke="#000" x2="-6"></line><text fill="#000" x="-9" dy="0.32em">40</text></g><g class="tick" opacity="1" transform="translate(0,234.27049180327867)"><line stroke="#000" x2="-6"></line><text fill="#000" x="-9" dy="0.32em">60</text></g><g class="tick" opacity="1" transform="translate(0,208.86065573770492)"><line stroke="#000" x2="-6"></line><text fill="#000" x="-9" dy="0.32em">80</text></g><g class="tick" opacity="1" transform="translate(0,183.45081967213116)"><line stroke="#000" x2="-6"></line><text fill="#000" x="-9" dy="0.32em">100</text></g><g class="tick" opacity="1" transform="translate(0,158.04098360655738)"><line stroke="#000" x2="-6"></line><text fill="#000" x="-9" dy="0.32em">120</text></g><g class="tick" opacity="1" transform="translate(0,132.63114754098362)"><line stroke="#000" x2="-6"></line><text fill="#000" x="-9" dy="0.32em">140</text></g><g class="tick" opacity="1" transform="translate(0,107.22131147540986)"><line stroke="#000" x2="-6"></line><text fill="#000" x="-9" dy="0.32em">160</text></g><g class="tick" opacity="1" transform="translate(0,81.81147540983605)"><line stroke="#000" x2="-6"></line><text fill="#000" x="-9" dy="0.32em">180</text></g><g class="tick" opacity="1" transform="translate(0,56.40163934426229)"><line stroke="#000" x2="-6"></line><text fill="#000" x="-9" dy="0.32em">200</text></g><g class="tick" opacity="1" transform="translate(0,30.991803278688508)"><line stroke="#000" x2="-6"></line><text fill="#000" x="-9" dy="0.32em">220</text></g><g class="tick" opacity="1" transform="translate(0,5.581967213114751)"><line stroke="#000" x2="-6"></line><text fill="#000" x="-9" dy="0.32em">240</text></g></g></g></svg>