<svg xmlns="http://www.w3.org/2000/svg" width="600" height="350"><defs><style type="text/css"><![CDATA[ 
.bar rect {
  fill-opacity: 0;
  stroke:       black;
  stroke-width: 0.5;
}

.highlight rect {
  fill:       red;
  fill-opacity: 1;
}
.axis path,
.axis line {
  fill: none;
  stroke: #000;
  shape-rendering: crispEdges;
}
 ]]></style></defs><g transform="translate(50,10)"><g class="bar" transform="translate(0,309.6149068322981)"><rect x="1" width="11.999999999999996" height="0.38509316770188207"></rect></g><g class="bar" transform="translate(12.999999999999996,308.45962732919253)"><rect x="1" width="11.999999999999996" height="1.5403726708074714"></rect></g><g class="bar" transform="translate(25.999999999999993,305.37888198757764)"><rect x="1" width="11.999999999999996" height="4.621118012422357"></rect></g><g class="bar" transform="translate(39.00000000000001,299.9875776397516)"><rect x="1" width="11.999999999999996" height="10.012422360248422"></rect></g><g class="bar" transform="translate(52,280.3478260869565)"><rect x="1" width="11.999999999999996" height="29.652173913043498"></rect></g><g class="bar" transform="translate(65,202.17391304347825)"><rect x="1" width="11.999999999999996" height="107.82608695652175"></rect></g><g class="bar" transform="translate(78.00000000000001,122.45962732919256)"><rect x="1" width="11.999999999999996" height="187.54037267080744"></rect></g><g class="bar" transform="translate(91.00000000000001,48.906832298136635)"><rect x="1" width="11.999999999999996" height="261.09316770186336"></rect></g><g class="bar" transform="translate(104,19.63975155279502)"><rect x="1" width="11.999999999999996" height="290.360248447205"></rect></g><g class="bar" transform="translate(117,49.67701863354034)"><rect x="1" width="11.999999999999996" height="260.32298136645966"></rect></g><g class="bar" transform="translate(130,73.55279503105592)"><rect x="1" width="11.999999999999996" height="236.44720496894408"></rect></g><g class="bar" transform="translate(143,87.03105590062111)"><rect x="1" width="11.999999999999996" height="222.9689440993789"></rect></g><g class="bar" transform="translate(156.00000000000003,54.29813664596273)"><rect x="1" width="11.999999999999996" height="255.70186335403727"></rect></g><g class="bar" transform="translate(169,39.27950310559004)"><rect x="1" width="11.999999999999996" height="270.72049689440996"></rect></g><g class="bar" transform="translate(182.00000000000003,7.316770186335418)"><rect x="1" width="11.999999999999996" height="302.6832298136646"></rect></g><g class="bar" transform="translate(195,0)"><rect x="1" width="11.999999999999996" height="310"></rect></g><g class="bar" transform="translate(208,2.695652173913004)"><rect x="1" width="11.999999999999996" height="307.304347826087"></rect></g><g class="bar" transform="translate(221.00000000000003,26.956521739130437)"><rect x="1" width="11.999999999999996" height="283.04347826086956"></rect></g><g class="bar" transform="translate(234,57.763975155279496)"><rect x="1" width="11.999999999999996" height="252.2360248447205"></rect></g><g class="bar" transform="translate(247.00000000000003,78.94409937888199)"><rect x="1" width="11.999999999999996" height="231.055900621118"></rect></g><g class="bar" transform="translate(260,132.472049689441)"><rect x="1" width="11.999999999999996" height="177.527950310559"></rect></g><g class="bar" transform="translate(273,138.63354037267078)"><rect x="1" width="11.999999999999996" height="171.36645962732922"></rect></g><g class="bar" transform="translate(286,187.54037267080747)"><rect x="1" width="11.999999999999996" height="122.45962732919253"></rect></g><g class="bar" transform="translate(299.00000000000006,235.29192546583852)"><rect x="1" width="11.999999999999996" height="74.70807453416148"></rect></g><g class="bar" transform="translate(312.00000000000006,263.7888198757764)"><rect x="1" width="11.999999999999996" height="46.211180124223574"></rect></g><g class="bar" transform="translate(325,278.8074534161491)"><rect x="1" width="11.999999999999996" height="31.192546583850913"></rect></g><g class="bar" transform="translate(338,292.67080745341616)"><rect x="1" width="11.999999999999996" height="17.32919254658384"></rect></g><g class="bar" transform="translate(351,297.6770186335404)"><rect x="1" width="11.999999999999996" height="12.3229813664596"></rect></g><g class="bar" transform="translate(364.00000000000006,302.6832298136646)"><rect x="1" width="11.999999999999996" height="7.316770186335418"></rect></g><g class="bar" transform="translate(377.00000000000006,308.8447204968944)"><rect x="1" width="11.999999999999996" height="1.1552795031055894"></rect></g><g class="bar" transform="translate(390,309.6149068322981)"><rect x="1" width="11.999999999999996" height="0.38509316770188207"></rect></g><g class="bar" transform="translate(403,310)"><rect x="1" width="11.999999999999996" height="0"></rect></g><g class="bar" transform="translate(416,310)"><rect x="1" width="11.999999999999996" height="0"></rect></g><g class="bar" transform="translate(429.00000000000006,310)"><rect x="1" width="11.999999999999996" height="0"></rect></g><g class="bar" transform="translate(442.00000000000006,310)"><rect x="1" width="11.999999999999996" height="0"></rect></g><g class="bar" transform="translate(455,310)"><rect x="1" width="11.999999999999996" height="0"></rect></g><g class="bar" transform="translate(468,310)"><rect x="1" width="11.999999999999996" height="0"></rect></g><g class="bar" transform="translate(481,310)"><rect x="1" width="11.999999999999996" height="0"></rect></g><g class="bar" transform="translate(494.00000000000006,310)"><rect x="1" width="11.999999999999996" height="0"></rect></g><g class="bar" transform="translate(507.00000000000006,310)"><rect x="1" width="11.999999999999996" height="0"></rect></g><g class="axis axis--x" transform="translate(0,310)" fill="none" font-size="10" font-family="sans-serif" text-anchor="middle"><path class="domain" stroke="#000" d="M0.5,6V0.5H520.5V6"></path><g class="tick" opacity="1" transform="translate(0,0)"><line stroke="#000" y2="6" x1="0.5" x2="0.5"></line><text fill="#000" y="9" x="0.5" dy="0.71em">0.01</text></g><g class="tick" opacity="1" transform="translate(130,0)"><line stroke="#000" y2="6" x1="0.5" x2="0.5"></line><text fill="#000" y="9" x="0.5" dy="0.71em">1</text></g><g class="tick" opacity="1" transform="translate(260,0)"><line stroke="#000" y2="6" x1="0.5" x2="0.5"></line><text fill="#000" y="9" x="0.5" dy="0.71em">100</text></g><g class="tick" opacity="1" transform="translate(390,0)"><line stroke="#000" y2="6" x1="0.5" x2="0.5"></line><text fill="#000" y="9" x="0.5" dy="0.71em">10000</text></g><g class="tick" opacity="1" transform="translate(520,0)"><line stroke="#000" y2="6" x1="0.5" x2="0.5"></line><text fill="#000" y="9" x="0.5" dy="0.71em"></text></g></g><g class="axis axis--y" fill="none" font-size="10" font-family="sans-serif" text-anchor="end"><path class="domain" stroke="#000" d="M-6,310.5H0.5V0.5H-6"></path><g class="tick" opacity="1" transform="translate(0,310)"><line stroke="#000" x2="-6" y1="0.5" y2="0.5"></line><text fill="#000" x="-9" y="0.5" dy="0.32em">0</text></g><g class="tick" opacity="1" transform="translate(0,271.49068322981367)"><line stroke="#000" x2="-6" y1="0.5" y2="0.5"></line><text fill="#000" x="-9" y="0.5" dy="0.32em">100</text></g><g class="tick" opacity="1" transform="translate(0,232.98136645962734)"><line stroke="#000" x2="-6" y1="0.5" y2="0.5"></line><text fill="#000" x="-9" y="0.5" dy="0.32em">200</text></g><g class="tick" opacity="1" transform="translate(0,194.472049689441)"><line stroke="#000" x2="-6" y1="0.5" y2="0.5"></line><text fill="#000" x="-9" y="0.5" dy="0.32em">300</text></g><g class="tick" opacity="1" transform="translate(0,155.96273291925465)"><line stroke="#000" x2="-6" y1="0.5" y2="0.5"></line><text fill="#000" x="-9" y="0.5" dy="0.32em">400</text></g><g class="tick" opacity="1" transform="translate(0,117.45341614906835)"><line stroke="#000" x2="-6" y1="0.5" y2="0.5"></line><text fill="#000" x="-9" y="0.5" dy="0.32em">500</text></g><g class="tick" opacity="1" transform="translate(0,78.94409937888199)"><line stroke="#000" x2="-6" y1="0.5" y2="0.5"></line><text fill="#000" x="-9" y="0.5" dy="0.32em">600</text></g><g class="tick" opacity="1" transform="translate(0,40.434782608695684)"><line stroke="#000" x2="-6" y1="0.5" y2="0.5"></line><text fill="#000" x="-9" y="0.5" dy="0.32em">700</text></g><g class="tick" opacity="1" transform="translate(0,1.9254658385092966)"><line stroke="#000" x2="-6" y1="0.5" y2="0.5"></line><text fill="#000" x="-9" y="0.5" dy="0.32em">800</text></g></g></g></svg>