<svg xmlns="http://www.w3.org/2000/svg" width="600" height="350"><defs><style type="text/css"><![CDATA[ 
.bar rect {
  fill-opacity: 0;
  stroke:       black;
  stroke-width: 0.5;
}

.highlight rect {
  fill:       red;
  fill-opacity: 1;
}
.axis path,
.axis line {
  fill: none;
  stroke: #000;
  shape-rendering: crispEdges;
}
 ]]></style></defs><g transform="translate(50,10)"><g class="bar" transform="translate(0,310)"><rect x="1" width="11.999999999999996" height="0"></rect></g><g class="bar" transform="translate(12.999999999999996,310)"><rect x="1" width="11.999999999999996" height="0"></rect></g><g class="bar" transform="translate(25.999999999999993,310)"><rect x="1" width="11.999999999999996" height="0"></rect></g><g class="bar" transform="translate(39.00000000000001,310)"><rect x="1" width="11.999999999999996" height="0"></rect></g><g class="bar" transform="translate(52,310)"><rect x="1" width="11.999999999999996" height="0"></rect></g><g class="bar" transform="translate(65,310)"><rect x="1" width="11.999999999999996" height="0"></rect></g><g class="bar" transform="translate(78.00000000000001,310)"><rect x="1" width="11.999999999999996" height="0"></rect></g><g class="bar" transform="translate(91.00000000000001,309.47986577181206)"><rect x="1" width="11.999999999999996" height="0.520134228187942"></rect></g><g class="bar" transform="translate(104,306.87919463087246)"><rect x="1" width="11.999999999999996" height="3.120805369127538"></rect></g><g class="bar" transform="translate(117,291.7953020134228)"><rect x="1" width="11.999999999999996" height="18.204697986577173"></rect></g><g class="bar" transform="translate(130,268.38926174496646)"><rect x="1" width="11.999999999999996" height="41.61073825503354"></rect></g><g class="bar" transform="translate(143,208.5738255033557)"><rect x="1" width="11.999999999999996" height="101.42617449664431"></rect></g><g class="bar" transform="translate(156.00000000000003,130.03355704697987)"><rect x="1" width="11.999999999999996" height="179.96644295302013"></rect></g><g class="bar" transform="translate(169,119.63087248322148)"><rect x="1" width="11.999999999999996" height="190.36912751677852"></rect></g><g class="bar" transform="translate(182.00000000000003,65.53691275167785)"><rect x="1" width="11.999999999999996" height="244.46308724832215"></rect></g><g class="bar" transform="translate(195,7.8020134228187885)"><rect x="1" width="11.999999999999996" height="302.1979865771812"></rect></g><g class="bar" transform="translate(208,0)"><rect x="1" width="11.999999999999996" height="310"></rect></g><g class="bar" transform="translate(221.00000000000003,10.402684563758385)"><rect x="1" width="11.999999999999996" height="299.5973154362416"></rect></g><g class="bar" transform="translate(234,43.69127516778525)"><rect x="1" width="11.999999999999996" height="266.30872483221475"></rect></g><g class="bar" transform="translate(247.00000000000003,59.81543624161074)"><rect x="1" width="11.999999999999996" height="250.18456375838926"></rect></g><g class="bar" transform="translate(260,95.70469798657717)"><rect x="1" width="11.999999999999996" height="214.29530201342283"></rect></g><g class="bar" transform="translate(273,133.1543624161074)"><rect x="1" width="11.999999999999996" height="176.8456375838926"></rect></g><g class="bar" transform="translate(286,175.28523489932886)"><rect x="1" width="11.999999999999996" height="134.71476510067114"></rect></g><g class="bar" transform="translate(299.00000000000006,216.37583892617448)"><rect x="1" width="11.999999999999996" height="93.62416107382552"></rect></g><g class="bar" transform="translate(312.00000000000006,247.06375838926175)"><rect x="1" width="11.999999999999996" height="62.93624161073825"></rect></g><g class="bar" transform="translate(325,272.55033557046977)"><rect x="1" width="11.999999999999996" height="37.44966442953023"></rect></g><g class="bar" transform="translate(338,281.39261744966444)"><rect x="1" width="11.999999999999996" height="28.607382550335558"></rect></g><g class="bar" transform="translate(351,299.0771812080537)"><rect x="1" width="11.999999999999996" height="10.922818791946327"></rect></g><g class="bar" transform="translate(364.00000000000006,302.1979865771812)"><rect x="1" width="11.999999999999996" height="7.8020134228187885"></rect></g><g class="bar" transform="translate(377.00000000000006,306.87919463087246)"><rect x="1" width="11.999999999999996" height="3.120805369127538"></rect></g><g class="bar" transform="translate(390,308.9597315436242)"><rect x="1" width="11.999999999999996" height="1.040268456375827"></rect></g><g class="bar" transform="translate(403,308.9597315436242)"><rect x="1" width="11.999999999999996" height="1.040268456375827"></rect></g><g class="bar" transform="translate(416,310)"><rect x="1" width="11.999999999999996" height="0"></rect></g><g class="bar" transform="translate(429.00000000000006,309.47986577181206)"><rect x="1" width="11.999999999999996" height="0.520134228187942"></rect></g><g class="bar" transform="translate(442.00000000000006,310)"><rect x="1" width="11.999999999999996" height="0"></rect></g><g class="bar" transform="translate(455,310)"><rect x="1" width="11.999999999999996" height="0"></rect></g><g class="bar" transform="translate(468,310)"><rect x="1" width="11.999999999999996" height="0"></rect></g><g class="bar" transform="translate(481,310)"><rect x="1" width="11.999999999999996" height="0"></rect></g><g class="bar" transform="translate(494.00000000000006,310)"><rect x="1" width="11.999999999999996" height="0"></rect></g><g class="bar" transform="translate(507.00000000000006,310)"><rect x="1" width="11.999999999999996" height="0"></rect></g><g class="axis axis--x" transform="translate(0,310)" fill="none" font-size="10" font-family="sans-serif" text-anchor="middle"><path class="domain" stroke="#000" d="M0.5,6V0.5H520.5V6"></path><g class="tick" opacity="1" transform="translate(0,0)"><line stroke="#000" y2="6" x1="0.5" x2="0.5"></line><text fill="#000" y="9" x="0.5" dy="0.71em">0.01</text></g><g class="tick" opacity="1" transform="translate(130,0)"><line stroke="#000" y2="6" x1="0.5" x2="0.5"></line><text fill="#000" y="9" x="0.5" dy="0.71em">1</text></g><g class="tick" opacity="1" transform="translate(260,0)"><line stroke="#000" y2="6" x1="0.5" x2="0.5"></line><text fill="#000" y="9" x="0.5" dy="0.71em">100</text></g><g class="tick" opacity="1" transform="translate(390,0)"><line stroke="#000" y2="6" x1="0.5" x2="0.5"></line><text fill="#000" y="9" x="0.5" dy="0.71em">10000</text></g><g class="tick" opacity="1" transform="translate(520,0)"><line stroke="#000" y2="6" x1="0.5" x2="0.5"></line><text fill="#000" y="9" x="0.5" dy="0.71em"></text></g></g><g class="axis axis--y" fill="none" font-size="10" font-family="sans-serif" text-anchor="end"><path class="domain" stroke="#000" d="M-6,310.5H0.5V0.5H-6"></path><g class="tick" opacity="1" transform="translate(0,310)"><line stroke="#000" x2="-6" y1="0.5" y2="0.5"></line><text fill="#000" x="-9" y="0.5" dy="0.32em">0</text></g><g class="tick" opacity="1" transform="translate(0,283.99328859060404)"><line stroke="#000" x2="-6" y1="0.5" y2="0.5"></line><text fill="#000" x="-9" y="0.5" dy="0.32em">50</text></g><g class="tick" opacity="1" transform="translate(0,257.9865771812081)"><line stroke="#000" x2="-6" y1="0.5" y2="0.5"></line><text fill="#000" x="-9" y="0.5" dy="0.32em">100</text></g><g class="tick" opacity="1" transform="translate(0,231.97986577181206)"><line stroke="#000" x2="-6" y1="0.5" y2="0.5"></line><text fill="#000" x="-9" y="0.5" dy="0.32em">150</text></g><g class="tick" opacity="1" transform="translate(0,205.9731543624161)"><line stroke="#000" x2="-6" y1="0.5" y2="0.5"></line><text fill="#000" x="-9" y="0.5" dy="0.32em">200</text></g><g class="tick" opacity="1" transform="translate(0,179.96644295302013)"><line stroke="#000" x2="-6" y1="0.5" y2="0.5"></line><text fill="#000" x="-9" y="0.5" dy="0.32em">250</text></g><g class="tick" opacity="1" transform="translate(0,153.95973154362414)"><line stroke="#000" x2="-6" y1="0.5" y2="0.5"></line><text fill="#000" x="-9" y="0.5" dy="0.32em">300</text></g><g class="tick" opacity="1" transform="translate(0,127.95302013422818)"><line stroke="#000" x2="-6" y1="0.5" y2="0.5"></line><text fill="#000" x="-9" y="0.5" dy="0.32em">350</text></g><g class="tick" opacity="1" transform="translate(0,101.94630872483219)"><line stroke="#000" x2="-6" y1="0.5" y2="0.5"></line><text fill="#000" x="-9" y="0.5" dy="0.32em">400</text></g><g class="tick" opacity="1" transform="translate(0,75.93959731543626)"><line stroke="#000" x2="-6" y1="0.5" y2="0.5"></line><text fill="#000" x="-9" y="0.5" dy="0.32em">450</text></g><g class="tick" opacity="1" transform="translate(0,49.93288590604027)"><line stroke="#000" x2="-6" y1="0.5" y2="0.5"></line><text fill="#000" x="-9" y="0.5" dy="0.32em">500</text></g><g class="tick" opacity="1" transform="translate(0,23.926174496644308)"><line stroke="#000" x2="-6" y1="0.5" y2="0.5"></line><text fill="#000" x="-9" y="0.5" dy="0.32em">550</text></g></g></g></svg>