<svg xmlns="http://www.w3.org/2000/svg" width="600" height="350"><defs><style type="text/css"><![CDATA[ 
.bar rect {
  fill-opacity: 0;
  stroke:       black;
  stroke-width: 0.5;
}

.highlight rect {
  fill:       red;
  fill-opacity: 1;
}
.axis path,
.axis line {
  fill: none;
  stroke: #000;
  shape-rendering: crispEdges;
}
 ]]></style></defs><g transform="translate(50,10)"><g class="bar" transform="translate(0,305.87354409317805)"><rect x="1" width="5.500000000000005" height="4.1264559068219455"></rect></g><g class="bar" transform="translate(6.500000000000005,306.3893510815308)"><rect x="1" width="5.500000000000005" height="3.6106489184692236"></rect></g><g class="bar" transform="translate(12.999999999999996,302.26289517470883)"><rect x="1" width="5.500000000000005" height="7.737104825291169"></rect></g><g class="bar" transform="translate(19.500000000000004,296.0732113144759)"><rect x="1" width="5.500000000000005" height="13.926788685524116"></rect></g><g class="bar" transform="translate(25.999999999999993,296.0732113144759)"><rect x="1" width="5.500000000000005" height="13.926788685524116"></rect></g><g class="bar" transform="translate(32.5,295.5574043261231)"><rect x="1" width="5.500000000000005" height="14.442595673876895"></rect></g><g class="bar" transform="translate(39.00000000000001,286.2728785357737)"><rect x="1" width="5.500000000000005" height="23.727121464226286"></rect></g><g class="bar" transform="translate(45.500000000000014,285.757071547421)"><rect x="1" width="5.500000000000005" height="24.242928452579008"></rect></g><g class="bar" transform="translate(52,271.3144758735441)"><rect x="1" width="5.500000000000005" height="38.6855241264559"></rect></g><g class="bar" transform="translate(58.49999999999999,268.21963394342765)"><rect x="1" width="5.500000000000005" height="41.78036605657235"></rect></g><g class="bar" transform="translate(65,256.3560732113145)"><rect x="1" width="5.500000000000005" height="53.64392678868552"></rect></g><g class="bar" transform="translate(71.5,244.4925124792013)"><rect x="1" width="5.500000000000005" height="65.50748752079869"></rect></g><g class="bar" transform="translate(78.00000000000001,239.85024958402664)"><rect x="1" width="5.500000000000005" height="70.14975041597336"></rect></g><g class="bar" transform="translate(84.5,234.17637271214642)"><rect x="1" width="5.500000000000005" height="75.82362728785358"></rect></g><g class="bar" transform="translate(91.00000000000001,201.68053244592346)"><rect x="1" width="5.500000000000005" height="108.31946755407654"></rect></g><g class="bar" transform="translate(97.5,174.34276206322795)"><rect x="1" width="5.500000000000005" height="135.65723793677205"></rect></g><g class="bar" transform="translate(104,145.97337770382697)"><rect x="1" width="5.500000000000005" height="164.02662229617303"></rect></g><g class="bar" transform="translate(110.50000000000001,139.26788685524127)"><rect x="1" width="5.500000000000005" height="170.73211314475873"></rect></g><g class="bar" transform="translate(117,125.85690515806988)"><rect x="1" width="5.500000000000005" height="184.14309484193012"></rect></g><g class="bar" transform="translate(123.50000000000001,112.96173044925126)"><rect x="1" width="5.500000000000005" height="197.03826955074874"></rect></g><g class="bar" transform="translate(130,85.62396006655572)"><rect x="1" width="5.500000000000005" height="224.37603993344428"></rect></g><g class="bar" transform="translate(136.5,76.85524126455906)"><rect x="1" width="5.500000000000005" height="233.14475873544094"></rect></g><g class="bar" transform="translate(143,84.59234608985025)"><rect x="1" width="5.500000000000005" height="225.40765391014975"></rect></g><g class="bar" transform="translate(149.50000000000003,64.99168053244594)"><rect x="1" width="5.500000000000005" height="245.00831946755406"></rect></g><g class="bar" transform="translate(156.00000000000003,39.7171381031614)"><rect x="1" width="5.500000000000005" height="270.2828618968386"></rect></g><g class="bar" transform="translate(162.5,52.0965058236273)"><rect x="1" width="5.500000000000005" height="257.9034941763727"></rect></g><g class="bar" transform="translate(169,19.60066555740434)"><rect x="1" width="5.500000000000005" height="290.39933444259566"></rect></g><g class="bar" transform="translate(175.5,0)"><rect x="1" width="5.500000000000005" height="310"></rect></g><g class="bar" transform="translate(182.00000000000003,10.831946755407671)"><rect x="1" width="5.500000000000005" height="299.16805324459233"></rect></g><g class="bar" transform="translate(188.50000000000003,20.116472545757063)"><rect x="1" width="5.500000000000005" height="289.88352745424294"></rect></g><g class="bar" transform="translate(195,14.442595673876838)"><rect x="1" width="5.500000000000005" height="295.55740432612316"></rect></g><g class="bar" transform="translate(201.5,13.926788685524116)"><rect x="1" width="5.500000000000005" height="296.0732113144759"></rect></g><g class="bar" transform="translate(208,28.885191347753732)"><rect x="1" width="5.500000000000005" height="281.11480865224627"></rect></g><g class="bar" transform="translate(214.50000000000003,26.30615640599001)"><rect x="1" width="5.500000000000005" height="283.69384359401"></rect></g><g class="bar" transform="translate(221.00000000000003,38.16971713810318)"><rect x="1" width="5.500000000000005" height="271.8302828618968"></rect></g><g class="bar" transform="translate(227.5,40.232945091514125)"><rect x="1" width="5.500000000000005" height="269.7670549084859"></rect></g><g class="bar" transform="translate(234,71.18136439267889)"><rect x="1" width="5.500000000000005" height="238.8186356073211"></rect></g><g class="bar" transform="translate(240.5,103.16139767054909)"><rect x="1" width="5.500000000000005" height="206.8386023294509"></rect></g><g class="bar" transform="translate(247.00000000000003,95.4242928452579)"><rect x="1" width="5.500000000000005" height="214.5757071547421"></rect></g><g class="bar" transform="translate(253.50000000000003,140.29950083194677)"><rect x="1" width="5.500000000000005" height="169.70049916805323"></rect></g><g class="bar" transform="translate(260,153.1946755407654)"><rect x="1" width="5.500000000000005" height="156.8053244592346"></rect></g><g class="bar" transform="translate(266.50000000000006,174.8585690515807)"><rect x="1" width="5.500000000000005" height="135.1414309484193"></rect></g><g class="bar" transform="translate(273,198.585690515807)"><rect x="1" width="5.500000000000005" height="111.41430948419301"></rect></g><g class="bar" transform="translate(279.5,216.12312811980033)"><rect x="1" width="5.500000000000005" height="93.87687188019967"></rect></g><g class="bar" transform="translate(286,228.50249584026622)"><rect x="1" width="5.500000000000005" height="81.49750415973378"></rect></g><g class="bar" transform="translate(292.5,262.02995008319465)"><rect x="1" width="5.500000000000005" height="47.97004991680535"></rect></g><g class="bar" transform="translate(299.00000000000006,257.38768718802)"><rect x="1" width="5.500000000000005" height="52.61231281198002"></rect></g><g class="bar" transform="translate(305.5,264.09317803660565)"><rect x="1" width="5.500000000000005" height="45.90682196339435"></rect></g><g class="bar" transform="translate(312.00000000000006,283.1780366056572)"><rect x="1" width="5.500000000000005" height="26.821963394342788"></rect></g><g class="bar" transform="translate(318.5,286.78868552412644)"><rect x="1" width="5.500000000000005" height="23.211314475873564"></rect></g><g class="bar" transform="translate(325,298.13643926788683)"><rect x="1" width="5.500000000000005" height="11.863560732113172"></rect></g><g class="bar" transform="translate(331.50000000000006,294.0099833610649)"><rect x="1" width="5.500000000000005" height="15.990016638935117"></rect></g><g class="bar" transform="translate(338,297.6206322795341)"><rect x="1" width="5.500000000000005" height="12.379367720465893"></rect></g><g class="bar" transform="translate(344.50000000000006,299.16805324459233)"><rect x="1" width="5.500000000000005" height="10.831946755407671"></rect></g><g class="bar" transform="translate(351,301.74708818635605)"><rect x="1" width="5.500000000000005" height="8.252911813643948"></rect></g><g class="bar" transform="translate(357.5,308.4525790349418)"><rect x="1" width="5.500000000000005" height="1.5474209650582225"></rect></g><g class="bar" transform="translate(364.00000000000006,300.19966722129783)"><rect x="1" width="5.500000000000005" height="9.80033277870217"></rect></g><g class="bar" transform="translate(370.5,305.87354409317805)"><rect x="1" width="5.500000000000005" height="4.1264559068219455"></rect></g><g class="bar" transform="translate(377.00000000000006,309.4841930116473)"><rect x="1" width="5.500000000000005" height="0.5158069883527219"></rect></g><g class="bar" transform="translate(383.5,309.4841930116473)"><rect x="1" width="5.500000000000005" height="0.5158069883527219"></rect></g><g class="bar" transform="translate(390,308.4525790349418)"><rect x="1" width="5.500000000000005" height="1.5474209650582225"></rect></g><g class="bar" transform="translate(396.50000000000006,309.4841930116473)"><rect x="1" width="5.500000000000005" height="0.5158069883527219"></rect></g><g class="bar" transform="translate(403,310)"><rect x="1" width="5.500000000000005" height="0"></rect></g><g class="bar" transform="translate(409.50000000000006,310)"><rect x="1" width="5.500000000000005" height="0"></rect></g><g class="bar" transform="translate(416,310)"><rect x="1" width="5.500000000000005" height="0"></rect></g><g class="bar" transform="translate(422.5,310)"><rect x="1" width="5.500000000000005" height="0"></rect></g><g class="bar" transform="translate(429.00000000000006,310)"><rect x="1" width="5.500000000000005" height="0"></rect></g><g class="bar" transform="translate(435.5,310)"><rect x="1" width="5.500000000000005" height="0"></rect></g><g class="bar" transform="translate(442.00000000000006,310)"><rect x="1" width="5.500000000000005" height="0"></rect></g><g class="bar" transform="translate(448.5,310)"><rect x="1" width="5.500000000000005" height="0"></rect></g><g class="bar" transform="translate(455,310)"><rect x="1" width="5.500000000000005" height="0"></rect></g><g class="bar" transform="translate(461.50000000000006,310)"><rect x="1" width="5.500000000000005" height="0"></rect></g><g class="bar" transform="translate(468,310)"><rect x="1" width="5.500000000000005" height="0"></rect></g><g class="bar" transform="translate(474.50000000000006,310)"><rect x="1" width="5.500000000000005" height="0"></rect></g><g class="bar" transform="translate(481,310)"><rect x="1" width="5.500000000000005" height="0"></rect></g><g class="bar" transform="translate(487.5,310)"><rect x="1" width="5.500000000000005" height="0"></rect></g><g class="bar" transform="translate(494.00000000000006,310)"><rect x="1" width="5.500000000000005" height="0"></rect></g><g class="bar" transform="translate(500.5,310)"><rect x="1" width="5.500000000000005" height="0"></rect></g><g class="bar" transform="translate(507.00000000000006,310)"><rect x="1" width="5.500000000000005" height="0"></rect></g><g class="bar" transform="translate(513.5,310)"><rect x="1" width="5.500000000000005" height="0"></rect></g><g class="axis axis--x" transform="translate(0,310)" fill="none" font-size="10" font-family="sans-serif" text-anchor="middle"><path class="domain" stroke="#000" d="M0.5,6V0.5H520.5V6"></path><g class="tick" opacity="1" transform="translate(0,0)"><line stroke="#000" y2="6" x1="0.5" x2="0.5"></line><text fill="#000" y="9" x="0.5" dy="0.71em">0.01</text></g><g class="tick" opacity="1" transform="translate(130,0)"><line stroke="#000" y2="6" x1="0.5" x2="0.5"></line><text fill="#000" y="9" x="0.5" dy="0.71em">1</text></g><g class="tick" opacity="1" transform="translate(260,0)"><line stroke="#000" y2="6" x1="0.5" x2="0.5"></line><text fill="#000" y="9" x="0.5" dy="0.71em">100</text></g><g class="tick" opacity="1" transform="translate(390,0)"><line stroke="#000" y2="6" x1="0.5" x2="0.5"></line><text fill="#000" y="9" x="0.5" dy="0.71em">10000</text></g><g class="tick" opacity="1" transform="translate(520,0)"><line stroke="#000" y2="6" x1="0.5" x2="0.5"></line><text fill="#000" y="9" x="0.5" dy="0.71em"></text></g></g><g class="axis axis--y" fill="none" font-size="10" font-family="sans-serif" text-anchor="end"><path class="domain" stroke="#000" d="M-6,310.5H0.5V0.5H-6"></path><g class="tick" opacity="1" transform="translate(0,310)"><line stroke="#000" x2="-6" y1="0.5" y2="0.5"></line><text fill="#000" x="-9" y="0.5" dy="0.32em">0</text></g><g class="tick" opacity="1" transform="translate(0,284.2096505823627)"><line stroke="#000" x2="-6" y1="0.5" y2="0.5"></line><text fill="#000" x="-9" y="0.5" dy="0.32em">50</text></g><g class="tick" opacity="1" transform="translate(0,258.4193011647255)"><line stroke="#000" x2="-6" y1="0.5" y2="0.5"></line><text fill="#000" x="-9" y="0.5" dy="0.32em">100</text></g><g class="tick" opacity="1" transform="translate(0,232.6289517470882)"><line stroke="#000" x2="-6" y1="0.5" y2="0.5"></line><text fill="#000" x="-9" y="0.5" dy="0.32em">150</text></g><g class="tick" opacity="1" transform="translate(0,206.8386023294509)"><line stroke="#000" x2="-6" y1="0.5" y2="0.5"></line><text fill="#000" x="-9" y="0.5" dy="0.32em">200</text></g><g class="tick" opacity="1" transform="translate(0,181.04825291181365)"><line stroke="#000" x2="-6" y1="0.5" y2="0.5"></line><text fill="#000" x="-9" y="0.5" dy="0.32em">250</text></g><g class="tick" opacity="1" transform="translate(0,155.25790349417636)"><line stroke="#000" x2="-6" y1="0.5" y2="0.5"></line><text fill="#000" x="-9" y="0.5" dy="0.32em">300</text></g><g class="tick" opacity="1" transform="translate(0,129.4675540765391)"><line stroke="#000" x2="-6" y1="0.5" y2="0.5"></line><text fill="#000" x="-9" y="0.5" dy="0.32em">350</text></g><g class="tick" opacity="1" transform="translate(0,103.67720465890184)"><line stroke="#000" x2="-6" y1="0.5" y2="0.5"></line><text fill="#000" x="-9" y="0.5" dy="0.32em">400</text></g><g class="tick" opacity="1" transform="translate(0,77.88685524126456)"><line stroke="#000" x2="-6" y1="0.5" y2="0.5"></line><text fill="#000" x="-9" y="0.5" dy="0.32em">450</text></g><g class="tick" opacity="1" transform="translate(0,52.0965058236273)"><line stroke="#000" x2="-6" y1="0.5" y2="0.5"></line><text fill="#000" x="-9" y="0.5" dy="0.32em">500</text></g><g class="tick" opacity="1" transform="translate(0,26.30615640599001)"><line stroke="#000" x2="-6" y1="0.5" y2="0.5"></line><text fill="#000" x="-9" y="0.5" dy="0.32em">550</text></g><g class="tick" opacity="1" transform="translate(0,0.5158069883527219)"><line stroke="#000" x2="-6" y1="0.5" y2="0.5"></line><text fill="#000" x="-9" y="0.5" dy="0.32em">600</text></g></g></g></svg>