<svg xmlns="http://www.w3.org/2000/svg" width="600" height="350"><defs><style type="text/css"><![CDATA[ 
.bar rect {
  fill-opacity: 0;
  stroke:       black;
  stroke-width: 0.5;
}

.highlight rect {
  fill:       red;
  fill-opacity: 1;
}
.axis path,
.axis line {
  fill: none;
  stroke: #000;
  shape-rendering: crispEdges;
}
 ]]></style></defs><g transform="translate(50,10)"><g class="bar" transform="translate(0,309.0490797546012)"><rect x="1" width="11.999999999999996" height="0.9509202453987768"></rect></g><g class="bar" transform="translate(12.999999999999996,306.6717791411043)"><rect x="1" width="11.999999999999996" height="3.3282208588956905"></rect></g><g class="bar" transform="translate(25.999999999999993,302.39263803680984)"><rect x="1" width="11.999999999999996" height="7.607361963190158"></rect></g><g class="bar" transform="translate(39.00000000000001,295.7361963190184)"><rect x="1" width="11.999999999999996" height="14.263803680981596"></rect></g><g class="bar" transform="translate(52,286.70245398773005)"><rect x="1" width="11.999999999999996" height="23.297546012269947"></rect></g><g class="bar" transform="translate(65,271.0122699386503)"><rect x="1" width="11.999999999999996" height="38.98773006134968"></rect></g><g class="bar" transform="translate(78.00000000000001,255.79754601226995)"><rect x="1" width="11.999999999999996" height="54.20245398773005"></rect></g><g class="bar" transform="translate(91.00000000000001,238.68098159509202)"><rect x="1" width="11.999999999999996" height="71.31901840490798"></rect></g><g class="bar" transform="translate(104,237.25460122699388)"><rect x="1" width="11.999999999999996" height="72.74539877300612"></rect></g><g class="bar" transform="translate(117,198.74233128834356)"><rect x="1" width="11.999999999999996" height="111.25766871165644"></rect></g><g class="bar" transform="translate(130,171.16564417177912)"><rect x="1" width="11.999999999999996" height="138.83435582822088"></rect></g><g class="bar" transform="translate(143,130.7515337423313)"><rect x="1" width="11.999999999999996" height="179.2484662576687"></rect></g><g class="bar" transform="translate(156.00000000000003,74.17177914110428)"><rect x="1" width="11.999999999999996" height="235.82822085889572"></rect></g><g class="bar" transform="translate(169,39.93865030674846)"><rect x="1" width="11.999999999999996" height="270.06134969325154"></rect></g><g class="bar" transform="translate(182.00000000000003,0)"><rect x="1" width="11.999999999999996" height="310"></rect></g><g class="bar" transform="translate(195,19.01840490797548)"><rect x="1" width="11.999999999999996" height="290.9815950920245"></rect></g><g class="bar" transform="translate(208,40.889570552147234)"><rect x="1" width="11.999999999999996" height="269.11042944785277"></rect></g><g class="bar" transform="translate(221.00000000000003,65.61349693251535)"><rect x="1" width="11.999999999999996" height="244.38650306748465"></rect></g><g class="bar" transform="translate(234,95.56748466257667)"><rect x="1" width="11.999999999999996" height="214.43251533742333"></rect></g><g class="bar" transform="translate(247.00000000000003,106.02760736196319)"><rect x="1" width="11.999999999999996" height="203.9723926380368"></rect></g><g class="bar" transform="translate(260,132.17791411042944)"><rect x="1" width="11.999999999999996" height="177.82208588957056"></rect></g><g class="bar" transform="translate(273,152.1472392638037)"><rect x="1" width="11.999999999999996" height="157.8527607361963"></rect></g><g class="bar" transform="translate(286,183.0521472392638)"><rect x="1" width="11.999999999999996" height="126.9478527607362"></rect></g><g class="bar" transform="translate(299.00000000000006,214.9079754601227)"><rect x="1" width="11.999999999999996" height="95.09202453987729"></rect></g><g class="bar" transform="translate(312.00000000000006,242.0092024539877)"><rect x="1" width="11.999999999999996" height="67.99079754601229"></rect></g><g class="bar" transform="translate(325,276.7177914110429)"><rect x="1" width="11.999999999999996" height="33.282208588957076"></rect></g><g class="bar" transform="translate(338,289.5552147239264)"><rect x="1" width="11.999999999999996" height="20.444785276073617"></rect></g><g class="bar" transform="translate(351,296.6871165644172)"><rect x="1" width="11.999999999999996" height="13.312883435582819"></rect></g><g class="bar" transform="translate(364.00000000000006,304.76993865030676)"><rect x="1" width="11.999999999999996" height="5.230061349693244"></rect></g><g class="bar" transform="translate(377.00000000000006,305.2453987730061)"><rect x="1" width="11.999999999999996" height="4.754601226993884"></rect></g><g class="bar" transform="translate(390,307.14723926380367)"><rect x="1" width="11.999999999999996" height="2.8527607361963305"></rect></g><g class="bar" transform="translate(403,309.52453987730064)"><rect x="1" width="11.999999999999996" height="0.47546012269936"></rect></g><g class="bar" transform="translate(416,310)"><rect x="1" width="11.999999999999996" height="0"></rect></g><g class="bar" transform="translate(429.00000000000006,310)"><rect x="1" width="11.999999999999996" height="0"></rect></g><g class="bar" transform="translate(442.00000000000006,310)"><rect x="1" width="11.999999999999996" height="0"></rect></g><g class="bar" transform="translate(455,310)"><rect x="1" width="11.999999999999996" height="0"></rect></g><g class="bar" transform="translate(468,310)"><rect x="1" width="11.999999999999996" height="0"></rect></g><g class="bar" transform="translate(481,310)"><rect x="1" width="11.999999999999996" height="0"></rect></g><g class="bar" transform="translate(494.00000000000006,310)"><rect x="1" width="11.999999999999996" height="0"></rect></g><g class="bar" transform="translate(507.00000000000006,310)"><rect x="1" width="11.999999999999996" height="0"></rect></g><g class="axis axis--x" transform="translate(0,310)" fill="none" font-size="10" font-family="sans-serif" text-anchor="middle"><path class="domain" stroke="#000" d="M0.5,6V0.5H520.5V6"></path><g class="tick" opacity="1" transform="translate(0,0)"><line stroke="#000" y2="6" x1="0.5" x2="0.5"></line><text fill="#000" y="9" x="0.5" dy="0.71em">0.01</text></g><g class="tick" opacity="1" transform="translate(130,0)"><line stroke="#000" y2="6" x1="0.5" x2="0.5"></line><text fill="#000" y="9" x="0.5" dy="0.71em">1</text></g><g class="tick" opacity="1" transform="translate(260,0)"><line stroke="#000" y2="6" x1="0.5" x2="0.5"></line><text fill="#000" y="9" x="0.5" dy="0.71em">100</text></g><g class="tick" opacity="1" transform="translate(390,0)"><line stroke="#000" y2="6" x1="0.5" x2="0.5"></line><text fill="#000" y="9" x="0.5" dy="0.71em">10000</text></g><g class="tick" opacity="1" transform="translate(520,0)"><line stroke="#000" y2="6" x1="0.5" x2="0.5"></line><text fill="#000" y="9" x="0.5" dy="0.71em"></text></g></g><g class="axis axis--y" fill="none" font-size="10" font-family="sans-serif" text-anchor="end"><path class="domain" stroke="#000" d="M-6,310.5H0.5V0.5H-6"></path><g class="tick" opacity="1" transform="translate(0,310)"><line stroke="#000" x2="-6" y1="0.5" y2="0.5"></line><text fill="#000" x="-9" y="0.5" dy="0.32em">0</text></g><g class="tick" opacity="1" transform="translate(0,286.2269938650307)"><line stroke="#000" x2="-6" y1="0.5" y2="0.5"></line><text fill="#000" x="-9" y="0.5" dy="0.32em">50</text></g><g class="tick" opacity="1" transform="translate(0,262.4539877300613)"><line stroke="#000" x2="-6" y1="0.5" y2="0.5"></line><text fill="#000" x="-9" y="0.5" dy="0.32em">100</text></g><g class="tick" opacity="1" transform="translate(0,238.68098159509202)"><line stroke="#000" x2="-6" y1="0.5" y2="0.5"></line><text fill="#000" x="-9" y="0.5" dy="0.32em">150</text></g><g class="tick" opacity="1" transform="translate(0,214.9079754601227)"><line stroke="#000" x2="-6" y1="0.5" y2="0.5"></line><text fill="#000" x="-9" y="0.5" dy="0.32em">200</text></g><g class="tick" opacity="1" transform="translate(0,191.13496932515338)"><line stroke="#000" x2="-6" y1="0.5" y2="0.5"></line><text fill="#000" x="-9" y="0.5" dy="0.32em">250</text></g><g class="tick" opacity="1" transform="translate(0,167.36196319018404)"><line stroke="#000" x2="-6" y1="0.5" y2="0.5"></line><text fill="#000" x="-9" y="0.5" dy="0.32em">300</text></g><g class="tick" opacity="1" transform="translate(0,143.58895705521473)"><line stroke="#000" x2="-6" y1="0.5" y2="0.5"></line><text fill="#000" x="-9" y="0.5" dy="0.32em">350</text></g><g class="tick" opacity="1" transform="translate(0,119.8159509202454)"><line stroke="#000" x2="-6" y1="0.5" y2="0.5"></line><text fill="#000" x="-9" y="0.5" dy="0.32em">400</text></g><g class="tick" opacity="1" transform="translate(0,96.04294478527606)"><line stroke="#000" x2="-6" y1="0.5" y2="0.5"></line><text fill="#000" x="-9" y="0.5" dy="0.32em">450</text></g><g class="tick" opacity="1" transform="translate(0,72.26993865030676)"><line stroke="#000" x2="-6" y1="0.5" y2="0.5"></line><text fill="#000" x="-9" y="0.5" dy="0.32em">500</text></g><g class="tick" opacity="1" transform="translate(0,48.49693251533739)"><line stroke="#000" x2="-6" y1="0.5" y2="0.5"></line><text fill="#000" x="-9" y="0.5" dy="0.32em">550</text></g><g class="tick" opacity="1" transform="translate(0,24.723926380368084)"><line stroke="#000" x2="-6" y1="0.5" y2="0.5"></line><text fill="#000" x="-9" y="0.5" dy="0.32em">600</text></g><g class="tick" opacity="1" transform="translate(0,0.9509202453987768)"><line stroke="#000" x2="-6" y1="0.5" y2="0.5"></line><text fill="#000" x="-9" y="0.5" dy="0.32em">650</text></g></g></g></svg>