<svg xmlns="http://www.w3.org/2000/svg" width="600" height="350"><defs><style type="text/css"><![CDATA[ 
.bar rect {
  fill-opacity: 0;
  stroke:       black;
  stroke-width: 0.5;
}

.highlight rect {
  fill:       red;
  fill-opacity: 1;
}
.axis path,
.axis line {
  fill: none;
  stroke: #000;
  shape-rendering: crispEdges;
}
 ]]></style></defs><g transform="translate(50,10)"><g class="bar" transform="translate(0,310)"><rect x="1" width="5.500000000000005" height="0"></rect></g><g class="bar" transform="translate(6.500000000000005,310)"><rect x="1" width="5.500000000000005" height="0"></rect></g><g class="bar" transform="translate(12.999999999999996,310)"><rect x="1" width="5.500000000000005" height="0"></rect></g><g class="bar" transform="translate(19.500000000000004,310)"><rect x="1" width="5.500000000000005" height="0"></rect></g><g class="bar" transform="translate(25.999999999999993,310)"><rect x="1" width="5.500000000000005" height="0"></rect></g><g class="bar" transform="translate(32.5,310)"><rect x="1" width="5.500000000000005" height="0"></rect></g><g class="bar" transform="translate(39.00000000000001,310)"><rect x="1" width="5.500000000000005" height="0"></rect></g><g class="bar" transform="translate(45.500000000000014,310)"><rect x="1" width="5.500000000000005" height="0"></rect></g><g class="bar" transform="translate(52,309.2345679012346)"><rect x="1" width="5.500000000000005" height="0.765432098765416"></rect></g><g class="bar" transform="translate(58.49999999999999,309.2345679012346)"><rect x="1" width="5.500000000000005" height="0.765432098765416"></rect></g><g class="bar" transform="translate(65,309.2345679012346)"><rect x="1" width="5.500000000000005" height="0.765432098765416"></rect></g><g class="bar" transform="translate(71.5,307.7037037037037)"><rect x="1" width="5.500000000000005" height="2.2962962962963047"></rect></g><g class="bar" transform="translate(78.00000000000001,308.4691358024691)"><rect x="1" width="5.500000000000005" height="1.5308641975308888"></rect></g><g class="bar" transform="translate(84.5,305.4074074074074)"><rect x="1" width="5.500000000000005" height="4.592592592592609"></rect></g><g class="bar" transform="translate(91.00000000000001,302.34567901234567)"><rect x="1" width="5.500000000000005" height="7.65432098765433"></rect></g><g class="bar" transform="translate(97.5,307.7037037037037)"><rect x="1" width="5.500000000000005" height="2.2962962962963047"></rect></g><g class="bar" transform="translate(104,300.81481481481484)"><rect x="1" width="5.500000000000005" height="9.185185185185162"></rect></g><g class="bar" transform="translate(110.50000000000001,308.4691358024691)"><rect x="1" width="5.500000000000005" height="1.5308641975308888"></rect></g><g class="bar" transform="translate(117,304.641975308642)"><rect x="1" width="5.500000000000005" height="5.358024691358025"></rect></g><g class="bar" transform="translate(123.50000000000001,300.04938271604937)"><rect x="1" width="5.500000000000005" height="9.950617283950635"></rect></g><g class="bar" transform="translate(130,297.75308641975306)"><rect x="1" width="5.500000000000005" height="12.24691358024694"></rect></g><g class="bar" transform="translate(136.5,293.9259259259259)"><rect x="1" width="5.500000000000005" height="16.074074074074076"></rect></g><g class="bar" transform="translate(143,287.8024691358025)"><rect x="1" width="5.500000000000005" height="22.197530864197518"></rect></g><g class="bar" transform="translate(149.50000000000003,280.91358024691357)"><rect x="1" width="5.500000000000005" height="29.08641975308643"></rect></g><g class="bar" transform="translate(156.00000000000003,260.24691358024694)"><rect x="1" width="5.500000000000005" height="49.75308641975306"></rect></g><g class="bar" transform="translate(162.5,259.48148148148147)"><rect x="1" width="5.500000000000005" height="50.51851851851853"></rect></g><g class="bar" transform="translate(169,230.39506172839504)"><rect x="1" width="5.500000000000005" height="79.60493827160496"></rect></g><g class="bar" transform="translate(175.5,218.91358024691357)"><rect x="1" width="5.500000000000005" height="91.08641975308643"></rect></g><g class="bar" transform="translate(182.00000000000003,213.55555555555554)"><rect x="1" width="5.500000000000005" height="96.44444444444446"></rect></g><g class="bar" transform="translate(188.50000000000003,212.79012345679013)"><rect x="1" width="5.500000000000005" height="97.20987654320987"></rect></g><g class="bar" transform="translate(195,159.20987654320987)"><rect x="1" width="5.500000000000005" height="150.79012345679013"></rect></g><g class="bar" transform="translate(201.5,145.4320987654321)"><rect x="1" width="5.500000000000005" height="164.5679012345679"></rect></g><g class="bar" transform="translate(208,131.65432098765433)"><rect x="1" width="5.500000000000005" height="178.34567901234567"></rect></g><g class="bar" transform="translate(214.50000000000003,74.24691358024691)"><rect x="1" width="5.500000000000005" height="235.7530864197531"></rect></g><g class="bar" transform="translate(221.00000000000003,64.29629629629628)"><rect x="1" width="5.500000000000005" height="245.70370370370372"></rect></g><g class="bar" transform="translate(227.5,46.69135802469134)"><rect x="1" width="5.500000000000005" height="263.30864197530866"></rect></g><g class="bar" transform="translate(234,35.20987654320987)"><rect x="1" width="5.500000000000005" height="274.7901234567901"></rect></g><g class="bar" transform="translate(240.5,26.02469135802471)"><rect x="1" width="5.500000000000005" height="283.9753086419753"></rect></g><g class="bar" transform="translate(247.00000000000003,0)"><rect x="1" width="5.500000000000005" height="310"></rect></g><g class="bar" transform="translate(253.50000000000003,30.617283950617264)"><rect x="1" width="5.500000000000005" height="279.38271604938274"></rect></g><g class="bar" transform="translate(260,48.987654320987644)"><rect x="1" width="5.500000000000005" height="261.01234567901236"></rect></g><g class="bar" transform="translate(266.50000000000006,62.765432098765444)"><rect x="1" width="5.500000000000005" height="247.23456790123456"></rect></g><g class="bar" transform="translate(273,97.20987654320987)"><rect x="1" width="5.500000000000005" height="212.79012345679013"></rect></g><g class="bar" transform="translate(279.5,110.2222222222222)"><rect x="1" width="5.500000000000005" height="199.7777777777778"></rect></g><g class="bar" transform="translate(286,186)"><rect x="1" width="5.500000000000005" height="124"></rect></g><g class="bar" transform="translate(292.5,191.35802469135803)"><rect x="1" width="5.500000000000005" height="118.64197530864197"></rect></g><g class="bar" transform="translate(299.00000000000006,193.65432098765433)"><rect x="1" width="5.500000000000005" height="116.34567901234567"></rect></g><g class="bar" transform="translate(305.5,241.87654320987656)"><rect x="1" width="5.500000000000005" height="68.12345679012344"></rect></g><g class="bar" transform="translate(312.00000000000006,231.1604938271605)"><rect x="1" width="5.500000000000005" height="78.83950617283949"></rect></g><g class="bar" transform="translate(318.5,257.18518518518516)"><rect x="1" width="5.500000000000005" height="52.81481481481484"></rect></g><g class="bar" transform="translate(325,260.24691358024694)"><rect x="1" width="5.500000000000005" height="49.75308641975306"></rect></g><g class="bar" transform="translate(331.50000000000006,277.85185185185185)"><rect x="1" width="5.500000000000005" height="32.14814814814815"></rect></g><g class="bar" transform="translate(338,295.4567901234568)"><rect x="1" width="5.500000000000005" height="14.543209876543187"></rect></g><g class="bar" transform="translate(344.50000000000006,300.81481481481484)"><rect x="1" width="5.500000000000005" height="9.185185185185162"></rect></g><g class="bar" transform="translate(351,301.58024691358025)"><rect x="1" width="5.500000000000005" height="8.419753086419746"></rect></g><g class="bar" transform="translate(357.5,303.1111111111111)"><rect x="1" width="5.500000000000005" height="6.888888888888914"></rect></g><g class="bar" transform="translate(364.00000000000006,306.17283950617286)"><rect x="1" width="5.500000000000005" height="3.8271604938271366"></rect></g><g class="bar" transform="translate(370.5,307.7037037037037)"><rect x="1" width="5.500000000000005" height="2.2962962962963047"></rect></g><g class="bar" transform="translate(377.00000000000006,310)"><rect x="1" width="5.500000000000005" height="0"></rect></g><g class="bar" transform="translate(383.5,309.2345679012346)"><rect x="1" width="5.500000000000005" height="0.765432098765416"></rect></g><g class="bar" transform="translate(390,310)"><rect x="1" width="5.500000000000005" height="0"></rect></g><g class="bar" transform="translate(396.50000000000006,309.2345679012346)"><rect x="1" width="5.500000000000005" height="0.765432098765416"></rect></g><g class="bar" transform="translate(403,310)"><rect x="1" width="5.500000000000005" height="0"></rect></g><g class="bar" transform="translate(409.50000000000006,310)"><rect x="1" width="5.500000000000005" height="0"></rect></g><g class="bar" transform="translate(416,310)"><rect x="1" width="5.500000000000005" height="0"></rect></g><g class="bar" transform="translate(422.5,310)"><rect x="1" width="5.500000000000005" height="0"></rect></g><g class="bar" transform="translate(429.00000000000006,310)"><rect x="1" width="5.500000000000005" height="0"></rect></g><g class="bar" transform="translate(435.5,310)"><rect x="1" width="5.500000000000005" height="0"></rect></g><g class="bar" transform="translate(442.00000000000006,310)"><rect x="1" width="5.500000000000005" height="0"></rect></g><g class="bar" transform="translate(448.5,310)"><rect x="1" width="5.500000000000005" height="0"></rect></g><g class="bar" transform="translate(455,310)"><rect x="1" width="5.500000000000005" height="0"></rect></g><g class="bar" transform="translate(461.50000000000006,310)"><rect x="1" width="5.500000000000005" height="0"></rect></g><g class="bar" transform="translate(468,310)"><rect x="1" width="5.500000000000005" height="0"></rect></g><g class="bar" transform="translate(474.50000000000006,310)"><rect x="1" width="5.500000000000005" height="0"></rect></g><g class="bar" transform="translate(481,310)"><rect x="1" width="5.500000000000005" height="0"></rect></g><g class="bar" transform="translate(487.5,310)"><rect x="1" width="5.500000000000005" height="0"></rect></g><g class="bar" transform="translate(494.00000000000006,310)"><rect x="1" width="5.500000000000005" height="0"></rect></g><g class="bar" transform="translate(500.5,310)"><rect x="1" width="5.500000000000005" height="0"></rect></g><g class="bar" transform="translate(507.00000000000006,310)"><rect x="1" width="5.500000000000005" height="0"></rect></g><g class="bar" transform="translate(513.5,310)"><rect x="1" width="5.500000000000005" height="0"></rect></g><g class="axis axis--x" transform="translate(0,310)" fill="none" font-size="10" font-family="sans-serif" text-anchor="middle"><path class="domain" stroke="#000" d="M0.5,6V0.5H520.5V6"></path><g class="tick" opacity="1" transform="translate(0,0)"><line stroke="#000" y2="6" x1="0.5" x2="0.5"></line><text fill="#000" y="9" x="0.5" dy="0.71em">0.01</text></g><g class="tick" opacity="1" transform="translate(130,0)"><line stroke="#000" y2="6" x1="0.5" x2="0.5"></line><text fill="#000" y="9" x="0.5" dy="0.71em">1</text></g><g class="tick" opacity="1" transform="translate(260,0)"><line stroke="#000" y2="6" x1="0.5" x2="0.5"></line><text fill="#000" y="9" x="0.5" dy="0.71em">100</text></g><g class="tick" opacity="1" transform="translate(390,0)"><line stroke="#000" y2="6" x1="0.5" x2="0.5"></line><text fill="#000" y="9" x="0.5" dy="0.71em">10000</text></g><g class="tick" opacity="1" transform="translate(520,0)"><line stroke="#000" y2="6" x1="0.5" x2="0.5"></line><text fill="#000" y="9" x="0.5" dy="0.71em"></text></g></g><g class="axis axis--y" fill="none" font-size="10" font-family="sans-serif" text-anchor="end"><path class="domain" stroke="#000" d="M-6,310.5H0.5V0.5H-6"></path><g class="tick" opacity="1" transform="translate(0,310)"><line stroke="#000" x2="-6" y1="0.5" y2="0.5"></line><text fill="#000" x="-9" y="0.5" dy="0.32em">0</text></g><g class="tick" opacity="1" transform="translate(0,271.7283950617284)"><line stroke="#000" x2="-6" y1="0.5" y2="0.5"></line><text fill="#000" x="-9" y="0.5" dy="0.32em">50</text></g><g class="tick" opacity="1" transform="translate(0,233.4567901234568)"><line stroke="#000" x2="-6" y1="0.5" y2="0.5"></line><text fill="#000" x="-9" y="0.5" dy="0.32em">100</text></g><g class="tick" opacity="1" transform="translate(0,195.1851851851852)"><line stroke="#000" x2="-6" y1="0.5" y2="0.5"></line><text fill="#000" x="-9" y="0.5" dy="0.32em">150</text></g><g class="tick" opacity="1" transform="translate(0,156.9135802469136)"><line stroke="#000" x2="-6" y1="0.5" y2="0.5"></line><text fill="#000" x="-9" y="0.5" dy="0.32em">200</text></g><g class="tick" opacity="1" transform="translate(0,118.64197530864197)"><line stroke="#000" x2="-6" y1="0.5" y2="0.5"></line><text fill="#000" x="-9" y="0.5" dy="0.32em">250</text></g><g class="tick" opacity="1" transform="translate(0,80.37037037037038)"><line stroke="#000" x2="-6" y1="0.5" y2="0.5"></line><text fill="#000" x="-9" y="0.5" dy="0.32em">300</text></g><g class="tick" opacity="1" transform="translate(0,42.09876543209879)"><line stroke="#000" x2="-6" y1="0.5" y2="0.5"></line><text fill="#000" x="-9" y="0.5" dy="0.32em">350</text></g><g class="tick" opacity="1" transform="translate(0,3.8271604938271935)"><line stroke="#000" x2="-6" y1="0.5" y2="0.5"></line><text fill="#000" x="-9" y="0.5" dy="0.32em">400</text></g></g></g></svg>