<svg xmlns="http://www.w3.org/2000/svg" width="280" height="160"><defs><style type="text/css"><![CDATA[ 
.bar rect {
  fill-opacity: 0;
  stroke:       black;
  stroke-width: 0.5;
}

.highlight rect {
  fill:       red;
  fill-opacity: 1;
}
.axis path,
.axis line {
  fill: none;
  stroke: #000;
  shape-rendering: crispEdges;
}
path {
    stroke: red;
    fill: none;
}

line {
    stroke: red;
}

path.marker {
    fill: red;
}
 ]]></style></defs><g transform="translate(50,10)"><g class="bar" transform="translate(0,120)"><rect x="1" width="11.5" height="0"></rect></g><g class="bar" transform="translate(12.5,119.75206611570248)"><rect x="1" width="11.5" height="0.24793388429752383"></rect></g><g class="bar" transform="translate(25,119.00826446280992)"><rect x="1" width="11.5" height="0.9917355371900811"></rect></g><g class="bar" transform="translate(37.5,112.8099173553719)"><rect x="1" width="11.5" height="7.190082644628106"></rect></g><g class="bar" transform="translate(50,86.52892561983471)"><rect x="1" width="11.5" height="33.47107438016529"></rect></g><g class="bar" transform="translate(62.5,48.595041322314046)"><rect x="1" width="11.5" height="71.40495867768595"></rect></g><g class="bar" transform="translate(75,29.25619834710743)"><rect x="1" width="11.5" height="90.74380165289257"></rect></g><g class="bar" transform="translate(87.5,0)"><rect x="1" width="11.5" height="120"></rect></g><g class="bar" transform="translate(100,1.239669421487605)"><rect x="1" width="11.5" height="118.7603305785124"></rect></g><g class="bar" transform="translate(112.5,25.289256198347104)"><rect x="1" width="11.5" height="94.7107438016529"></rect></g><g class="bar" transform="translate(125,74.13223140495867)"><rect x="1" width="11.5" height="45.867768595041326"></rect></g><g class="bar" transform="translate(137.5,110.08264462809917)"><rect x="1" width="11.5" height="9.917355371900825"></rect></g><g class="bar" transform="translate(150,117.52066115702479)"><rect x="1" width="11.5" height="2.47933884297521"></rect></g><g class="bar" transform="translate(162.5,120)"><rect x="1" width="11.5" height="0"></rect></g><g class="bar" transform="translate(175,120)"><rect x="1" width="11.5" height="0"></rect></g><g class="bar" transform="translate(187.5,120)"><rect x="1" width="11.5" height="0"></rect></g></g></svg>