<svg xmlns="http://www.w3.org/2000/svg" width="600" height="350"><defs><style type="text/css"><![CDATA[ 
.bar rect {
  fill-opacity: 0;
  stroke:       black;
  stroke-width: 0.5;
}

.highlight rect {
  fill:       red;
  fill-opacity: 1;
}
.axis path,
.axis line {
  fill: none;
  stroke: #000;
  shape-rendering: crispEdges;
}
 ]]></style></defs><g transform="translate(50,10)"><g class="bar" transform="translate(0,310)"><rect x="1" width="11.999999999999996" height="0"></rect></g><g class="bar" transform="translate(12.999999999999996,310)"><rect x="1" width="11.999999999999996" height="0"></rect></g><g class="bar" transform="translate(25.999999999999993,310)"><rect x="1" width="11.999999999999996" height="0"></rect></g><g class="bar" transform="translate(39.00000000000001,309.11174785100286)"><rect x="1" width="11.999999999999996" height="0.8882521489971396"></rect></g><g class="bar" transform="translate(52,309.11174785100286)"><rect x="1" width="11.999999999999996" height="0.8882521489971396"></rect></g><g class="bar" transform="translate(65,309.11174785100286)"><rect x="1" width="11.999999999999996" height="0.8882521489971396"></rect></g><g class="bar" transform="translate(78.00000000000001,305.5587392550143)"><rect x="1" width="11.999999999999996" height="4.441260744985698"></rect></g><g class="bar" transform="translate(91.00000000000001,298.45272206303724)"><rect x="1" width="11.999999999999996" height="11.547277936962757"></rect></g><g class="bar" transform="translate(104,290.45845272206304)"><rect x="1" width="11.999999999999996" height="19.541547277936957"></rect></g><g class="bar" transform="translate(117,265.58739255014325)"><rect x="1" width="11.999999999999996" height="44.41260744985675"></rect></g><g class="bar" transform="translate(130,243.3810888252149)"><rect x="1" width="11.999999999999996" height="66.6189111747851"></rect></g><g class="bar" transform="translate(143,212.2922636103152)"><rect x="1" width="11.999999999999996" height="97.70773638968481"></rect></g><g class="bar" transform="translate(156.00000000000003,158.10888252148996)"><rect x="1" width="11.999999999999996" height="151.89111747851004"></rect></g><g class="bar" transform="translate(169,138.567335243553)"><rect x="1" width="11.999999999999996" height="171.432664756447"></rect></g><g class="bar" transform="translate(182.00000000000003,135.9025787965616)"><rect x="1" width="11.999999999999996" height="174.0974212034384"></rect></g><g class="bar" transform="translate(195,89.71346704871058)"><rect x="1" width="11.999999999999996" height="220.28653295128942"></rect></g><g class="bar" transform="translate(208,55.95988538681948)"><rect x="1" width="11.999999999999996" height="254.04011461318052"></rect></g><g class="bar" transform="translate(221.00000000000003,75.50143266475644)"><rect x="1" width="11.999999999999996" height="234.49856733524356"></rect></g><g class="bar" transform="translate(234,58.62464183381087)"><rect x="1" width="11.999999999999996" height="251.37535816618913"></rect></g><g class="bar" transform="translate(247.00000000000003,0)"><rect x="1" width="11.999999999999996" height="310"></rect></g><g class="bar" transform="translate(260,43.52435530085961)"><rect x="1" width="11.999999999999996" height="266.4756446991404"></rect></g><g class="bar" transform="translate(273,4.441260744985641)"><rect x="1" width="11.999999999999996" height="305.55873925501436"></rect></g><g class="bar" transform="translate(286,49.74212034383953)"><rect x="1" width="11.999999999999996" height="260.25787965616047"></rect></g><g class="bar" transform="translate(299.00000000000006,105.70200573065901)"><rect x="1" width="11.999999999999996" height="204.297994269341"></rect></g><g class="bar" transform="translate(312.00000000000006,157.22063037249282)"><rect x="1" width="11.999999999999996" height="152.77936962750718"></rect></g><g class="bar" transform="translate(325,195.41547277936962)"><rect x="1" width="11.999999999999996" height="114.58452722063038"></rect></g><g class="bar" transform="translate(338,235.38681948424068)"><rect x="1" width="11.999999999999996" height="74.61318051575932"></rect></g><g class="bar" transform="translate(351,286.01719197707735)"><rect x="1" width="11.999999999999996" height="23.982808022922654"></rect></g><g class="bar" transform="translate(364.00000000000006,303.7822349570201)"><rect x="1" width="11.999999999999996" height="6.21776504297992"></rect></g><g class="bar" transform="translate(377.00000000000006,309.11174785100286)"><rect x="1" width="11.999999999999996" height="0.8882521489971396"></rect></g><g class="bar" transform="translate(390,309.11174785100286)"><rect x="1" width="11.999999999999996" height="0.8882521489971396"></rect></g><g class="bar" transform="translate(403,309.11174785100286)"><rect x="1" width="11.999999999999996" height="0.8882521489971396"></rect></g><g class="bar" transform="translate(416,310)"><rect x="1" width="11.999999999999996" height="0"></rect></g><g class="bar" transform="translate(429.00000000000006,310)"><rect x="1" width="11.999999999999996" height="0"></rect></g><g class="bar" transform="translate(442.00000000000006,310)"><rect x="1" width="11.999999999999996" height="0"></rect></g><g class="bar" transform="translate(455,310)"><rect x="1" width="11.999999999999996" height="0"></rect></g><g class="bar" transform="translate(468,310)"><rect x="1" width="11.999999999999996" height="0"></rect></g><g class="bar" transform="translate(481,310)"><rect x="1" width="11.999999999999996" height="0"></rect></g><g class="bar" transform="translate(494.00000000000006,310)"><rect x="1" width="11.999999999999996" height="0"></rect></g><g class="bar" transform="translate(507.00000000000006,310)"><rect x="1" width="11.999999999999996" height="0"></rect></g><g class="axis axis--x" transform="translate(0,310)" fill="none" font-size="10" font-family="sans-serif" text-anchor="middle"><path class="domain" stroke="#000" d="M0.5,6V0.5H520.5V6"></path><g class="tick" opacity="1" transform="translate(0,0)"><line stroke="#000" y2="6" x1="0.5" x2="0.5"></line><text fill="#000" y="9" x="0.5" dy="0.71em">0.01</text></g><g class="tick" opacity="1" transform="translate(130,0)"><line stroke="#000" y2="6" x1="0.5" x2="0.5"></line><text fill="#000" y="9" x="0.5" dy="0.71em">1</text></g><g class="tick" opacity="1" transform="translate(260,0)"><line stroke="#000" y2="6" x1="0.5" x2="0.5"></line><text fill="#000" y="9" x="0.5" dy="0.71em">100</text></g><g class="tick" opacity="1" transform="translate(390,0)"><line stroke="#000" y2="6" x1="0.5" x2="0.5"></line><text fill="#000" y="9" x="0.5" dy="0.71em">10000</text></g><g class="tick" opacity="1" transform="translate(520,0)"><line stroke="#000" y2="6" x1="0.5" x2="0.5"></line><text fill="#000" y="9" x="0.5" dy="0.71em"></text></g></g><g class="axis axis--y" fill="none" font-size="10" font-family="sans-serif" text-anchor="end"><path class="domain" stroke="#000" d="M-6,310.5H0.5V0.5H-6"></path><g class="tick" opacity="1" transform="translate(0,310)"><line stroke="#000" x2="-6" y1="0.5" y2="0.5"></line><text fill="#000" x="-9" y="0.5" dy="0.32em">0</text></g><g class="tick" opacity="1" transform="translate(0,265.58739255014325)"><line stroke="#000" x2="-6" y1="0.5" y2="0.5"></line><text fill="#000" x="-9" y="0.5" dy="0.32em">50</text></g><g class="tick" opacity="1" transform="translate(0,221.17478510028656)"><line stroke="#000" x2="-6" y1="0.5" y2="0.5"></line><text fill="#000" x="-9" y="0.5" dy="0.32em">100</text></g><g class="tick" opacity="1" transform="translate(0,176.7621776504298)"><line stroke="#000" x2="-6" y1="0.5" y2="0.5"></line><text fill="#000" x="-9" y="0.5" dy="0.32em">150</text></g><g class="tick" opacity="1" transform="translate(0,132.34957020057308)"><line stroke="#000" x2="-6" y1="0.5" y2="0.5"></line><text fill="#000" x="-9" y="0.5" dy="0.32em">200</text></g><g class="tick" opacity="1" transform="translate(0,87.93696275071633)"><line stroke="#000" x2="-6" y1="0.5" y2="0.5"></line><text fill="#000" x="-9" y="0.5" dy="0.32em">250</text></g><g class="tick" opacity="1" transform="translate(0,43.52435530085961)"><line stroke="#000" x2="-6" y1="0.5" y2="0.5"></line><text fill="#000" x="-9" y="0.5" dy="0.32em">300</text></g></g></g></svg>