<svg xmlns="http://www.w3.org/2000/svg" width="600" height="350"><defs><style type="text/css"><![CDATA[ 
.bar rect {
  fill-opacity: 0;
  stroke:       black;
  stroke-width: 0.5;
}

.highlight rect {
  fill:       red;
  fill-opacity: 1;
}
.axis path,
.axis line {
  fill: none;
  stroke: #000;
  shape-rendering: crispEdges;
}
 ]]></style></defs><g transform="translate(50,10)"><g class="bar" transform="translate(0,310)"><rect x="1" width="0.30000000000000115" height="0"></rect></g><g class="bar" transform="translate(1.3000000000000012,310)"><rect x="1" width="0.30000000000000115" height="0"></rect></g><g class="bar" transform="translate(2.6000000000000023,310)"><rect x="1" width="0.30000000000000115" height="0"></rect></g><g class="bar" transform="translate(3.9000000000000035,310)"><rect x="1" width="0.30000000000000115" height="0"></rect></g><g class="bar" transform="translate(5.200000000000005,310)"><rect x="1" width="0.30000000000000115" height="0"></rect></g><g class="bar" transform="translate(6.500000000000005,310)"><rect x="1" width="0.30000000000000115" height="0"></rect></g><g class="bar" transform="translate(7.800000000000007,310)"><rect x="1" width="0.30000000000000115" height="0"></rect></g><g class="bar" transform="translate(9.100000000000009,310)"><rect x="1" width="0.30000000000000115" height="0"></rect></g><g class="bar" transform="translate(10.399999999999995,310)"><rect x="1" width="0.30000000000000115" height="0"></rect></g><g class="bar" transform="translate(11.699999999999996,310)"><rect x="1" width="0.30000000000000115" height="0"></rect></g><g class="bar" transform="translate(12.999999999999996,310)"><rect x="1" width="0.30000000000000115" height="0"></rect></g><g class="bar" transform="translate(14.299999999999999,310)"><rect x="1" width="0.30000000000000115" height="0"></rect></g><g class="bar" transform="translate(15.6,310)"><rect x="1" width="0.30000000000000115" height="0"></rect></g><g class="bar" transform="translate(16.900000000000002,310)"><rect x="1" width="0.30000000000000115" height="0"></rect></g><g class="bar" transform="translate(18.200000000000003,310)"><rect x="1" width="0.30000000000000115" height="0"></rect></g><g class="bar" transform="translate(19.500000000000004,310)"><rect x="1" width="0.30000000000000115" height="0"></rect></g><g class="bar" transform="translate(20.800000000000004,310)"><rect x="1" width="0.30000000000000115" height="0"></rect></g><g class="bar" transform="translate(22.100000000000005,310)"><rect x="1" width="0.30000000000000115" height="0"></rect></g><g class="bar" transform="translate(23.39999999999999,310)"><rect x="1" width="0.30000000000000115" height="0"></rect></g><g class="bar" transform="translate(24.699999999999992,310)"><rect x="1" width="0.30000000000000115" height="0"></rect></g><g class="bar" transform="translate(25.999999999999993,310)"><rect x="1" width="0.30000000000000115" height="0"></rect></g><g class="bar" transform="translate(27.299999999999997,310)"><rect x="1" width="0.30000000000000115" height="0"></rect></g><g class="bar" transform="translate(28.599999999999998,310)"><rect x="1" width="0.30000000000000115" height="0"></rect></g><g class="bar" transform="translate(29.9,310)"><rect x="1" width="0.30000000000000115" height="0"></rect></g><g class="bar" transform="translate(31.2,310)"><rect x="1" width="0.30000000000000115" height="0"></rect></g><g class="bar" transform="translate(32.5,310)"><rect x="1" width="0.30000000000000115" height="0"></rect></g><g class="bar" transform="translate(33.800000000000004,310)"><rect x="1" width="0.30000000000000115" height="0"></rect></g><g class="bar" transform="translate(35.1,310)"><rect x="1" width="0.30000000000000115" height="0"></rect></g><g class="bar" transform="translate(36.400000000000006,310)"><rect x="1" width="0.30000000000000115" height="0"></rect></g><g class="bar" transform="translate(37.7,310)"><rect x="1" width="0.30000000000000115" height="0"></rect></g><g class="bar" transform="translate(39.00000000000001,310)"><rect x="1" width="0.30000000000000115" height="0"></rect></g><g class="bar" transform="translate(40.300000000000004,310)"><rect x="1" width="0.30000000000000115" height="0"></rect></g><g class="bar" transform="translate(41.60000000000001,310)"><rect x="1" width="0.30000000000000115" height="0"></rect></g><g class="bar" transform="translate(42.900000000000006,310)"><rect x="1" width="0.30000000000000115" height="0"></rect></g><g class="bar" transform="translate(44.20000000000001,310)"><rect x="1" width="0.30000000000000115" height="0"></rect></g><g class="bar" transform="translate(45.500000000000014,310)"><rect x="1" width="0.30000000000000115" height="0"></rect></g><g class="bar" transform="translate(46.8,310)"><rect x="1" width="0.30000000000000115" height="0"></rect></g><g class="bar" transform="translate(48.1,310)"><rect x="1" width="0.30000000000000115" height="0"></rect></g><g class="bar" transform="translate(49.4,310)"><rect x="1" width="0.30000000000000115" height="0"></rect></g><g class="bar" transform="translate(50.7,310)"><rect x="1" width="0.30000000000000115" height="0"></rect></g><g class="bar" transform="translate(52,310)"><rect x="1" width="0.30000000000000115" height="0"></rect></g><g class="bar" transform="translate(53.300000000000004,310)"><rect x="1" width="0.30000000000000115" height="0"></rect></g><g class="bar" transform="translate(54.599999999999994,310)"><rect x="1" width="0.30000000000000115" height="0"></rect></g><g class="bar" transform="translate(55.89999999999999,310)"><rect x="1" width="0.30000000000000115" height="0"></rect></g><g class="bar" transform="translate(57.199999999999996,310)"><rect x="1" width="0.30000000000000115" height="0"></rect></g><g class="bar" transform="translate(58.49999999999999,310)"><rect x="1" width="0.30000000000000115" height="0"></rect></g><g class="bar" transform="translate(59.8,310)"><rect x="1" width="0.30000000000000115" height="0"></rect></g><g class="bar" transform="translate(61.099999999999994,310)"><rect x="1" width="0.30000000000000115" height="0"></rect></g><g class="bar" transform="translate(62.4,310)"><rect x="1" width="0.30000000000000115" height="0"></rect></g><g class="bar" transform="translate(63.699999999999996,310)"><rect x="1" width="0.30000000000000115" height="0"></rect></g><g class="bar" transform="translate(65,310)"><rect x="1" width="0.30000000000000115" height="0"></rect></g><g class="bar" transform="translate(66.3,310)"><rect x="1" width="0.30000000000000115" height="0"></rect></g><g class="bar" transform="translate(67.60000000000001,310)"><rect x="1" width="0.30000000000000115" height="0"></rect></g><g class="bar" transform="translate(68.9,310)"><rect x="1" width="0.30000000000000115" height="0"></rect></g><g class="bar" transform="translate(70.2,310)"><rect x="1" width="0.30000000000000115" height="0"></rect></g><g class="bar" transform="translate(71.5,310)"><rect x="1" width="0.30000000000000115" height="0"></rect></g><g class="bar" transform="translate(72.80000000000001,310)"><rect x="1" width="0.30000000000000115" height="0"></rect></g><g class="bar" transform="translate(74.10000000000001,310)"><rect x="1" width="0.30000000000000115" height="0"></rect></g><g class="bar" transform="translate(75.39999999999999,310)"><rect x="1" width="0.30000000000000115" height="0"></rect></g><g class="bar" transform="translate(76.7,310)"><rect x="1" width="0.30000000000000115" height="0"></rect></g><g class="bar" transform="translate(78,310)"><rect x="1" width="0.30000000000000115" height="0"></rect></g><g class="bar" transform="translate(79.3,310)"><rect x="1" width="0.30000000000000115" height="0"></rect></g><g class="bar" transform="translate(80.6,310)"><rect x="1" width="0.30000000000000115" height="0"></rect></g><g class="bar" transform="translate(81.9,310)"><rect x="1" width="0.30000000000000115" height="0"></rect></g><g class="bar" transform="translate(83.2,310)"><rect x="1" width="0.30000000000000115" height="0"></rect></g><g class="bar" transform="translate(84.5,310)"><rect x="1" width="0.30000000000000115" height="0"></rect></g><g class="bar" transform="translate(85.8,310)"><rect x="1" width="0.30000000000000115" height="0"></rect></g><g class="bar" transform="translate(87.10000000000001,310)"><rect x="1" width="0.30000000000000115" height="0"></rect></g><g class="bar" transform="translate(88.4,310)"><rect x="1" width="0.30000000000000115" height="0"></rect></g><g class="bar" transform="translate(89.7,310)"><rect x="1" width="0.30000000000000115" height="0"></rect></g><g class="bar" transform="translate(91.00000000000001,310)"><rect x="1" width="0.30000000000000115" height="0"></rect></g><g class="bar" transform="translate(92.3,310)"><rect x="1" width="0.30000000000000115" height="0"></rect></g><g class="bar" transform="translate(93.6,310)"><rect x="1" width="0.30000000000000115" height="0"></rect></g><g class="bar" transform="translate(94.89999999999999,310)"><rect x="1" width="0.30000000000000115" height="0"></rect></g><g class="bar" transform="translate(96.2,310)"><rect x="1" width="0.30000000000000115" height="0"></rect></g><g class="bar" transform="translate(97.5,310)"><rect x="1" width="0.30000000000000115" height="0"></rect></g><g class="bar" transform="translate(98.8,310)"><rect x="1" width="0.30000000000000115" height="0"></rect></g><g class="bar" transform="translate(100.10000000000001,310)"><rect x="1" width="0.30000000000000115" height="0"></rect></g><g class="bar" transform="translate(101.4,310)"><rect x="1" width="0.30000000000000115" height="0"></rect></g><g class="bar" transform="translate(102.7,310)"><rect x="1" width="0.30000000000000115" height="0"></rect></g><g class="bar" transform="translate(104,310)"><rect x="1" width="0.30000000000000115" height="0"></rect></g><g class="bar" transform="translate(105.30000000000001,310)"><rect x="1" width="0.30000000000000115" height="0"></rect></g><g class="bar" transform="translate(106.60000000000001,310)"><rect x="1" width="0.30000000000000115" height="0"></rect></g><g class="bar" transform="translate(107.9,310)"><rect x="1" width="0.30000000000000115" height="0"></rect></g><g class="bar" transform="translate(109.2,310)"><rect x="1" width="0.30000000000000115" height="0"></rect></g><g class="bar" transform="translate(110.5,310)"><rect x="1" width="0.30000000000000115" height="0"></rect></g><g class="bar" transform="translate(111.8,310)"><rect x="1" width="0.30000000000000115" height="0"></rect></g><g class="bar" transform="translate(113.1,310)"><rect x="1" width="0.30000000000000115" height="0"></rect></g><g class="bar" transform="translate(114.4,310)"><rect x="1" width="0.30000000000000115" height="0"></rect></g><g class="bar" transform="translate(115.7,310)"><rect x="1" width="0.30000000000000115" height="0"></rect></g><g class="bar" transform="translate(117,310)"><rect x="1" width="0.30000000000000115" height="0"></rect></g><g class="bar" transform="translate(118.3,310)"><rect x="1" width="0.30000000000000115" height="0"></rect></g><g class="bar" transform="translate(119.60000000000001,310)"><rect x="1" width="0.30000000000000115" height="0"></rect></g><g class="bar" transform="translate(120.9,310)"><rect x="1" width="0.30000000000000115" height="0"></rect></g><g class="bar" transform="translate(122.2,310)"><rect x="1" width="0.30000000000000115" height="0"></rect></g><g class="bar" transform="translate(123.50000000000001,310)"><rect x="1" width="0.30000000000000115" height="0"></rect></g><g class="bar" transform="translate(124.8,310)"><rect x="1" width="0.30000000000000115" height="0"></rect></g><g class="bar" transform="translate(126.1,310)"><rect x="1" width="0.30000000000000115" height="0"></rect></g><g class="bar" transform="translate(127.39999999999999,310)"><rect x="1" width="0.30000000000000115" height="0"></rect></g><g class="bar" transform="translate(128.7,310)"><rect x="1" width="0.30000000000000115" height="0"></rect></g><g class="bar" transform="translate(130,310)"><rect x="1" width="0.30000000000000115" height="0"></rect></g><g class="bar" transform="translate(131.3,310)"><rect x="1" width="0.30000000000000115" height="0"></rect></g><g class="bar" transform="translate(132.6,310)"><rect x="1" width="0.30000000000000115" height="0"></rect></g><g class="bar" transform="translate(133.9,310)"><rect x="1" width="0.30000000000000115" height="0"></rect></g><g class="bar" transform="translate(135.20000000000002,310)"><rect x="1" width="0.30000000000000115" height="0"></rect></g><g class="bar" transform="translate(136.5,310)"><rect x="1" width="0.30000000000000115" height="0"></rect></g><g class="bar" transform="translate(137.8,310)"><rect x="1" width="0.30000000000000115" height="0"></rect></g><g class="bar" transform="translate(139.1,310)"><rect x="1" width="0.30000000000000115" height="0"></rect></g><g class="bar" transform="translate(140.4,310)"><rect x="1" width="0.30000000000000115" height="0"></rect></g><g class="bar" transform="translate(141.70000000000002,310)"><rect x="1" width="0.30000000000000115" height="0"></rect></g><g class="bar" transform="translate(143,310)"><rect x="1" width="0.30000000000000115" height="0"></rect></g><g class="bar" transform="translate(144.3,310)"><rect x="1" width="0.30000000000000115" height="0"></rect></g><g class="bar" transform="translate(145.60000000000002,310)"><rect x="1" width="0.30000000000000115" height="0"></rect></g><g class="bar" transform="translate(146.9,310)"><rect x="1" width="0.30000000000000115" height="0"></rect></g><g class="bar" transform="translate(148.20000000000002,310)"><rect x="1" width="0.30000000000000115" height="0"></rect></g><g class="bar" transform="translate(149.50000000000003,310)"><rect x="1" width="0.30000000000000115" height="0"></rect></g><g class="bar" transform="translate(150.79999999999998,310)"><rect x="1" width="0.30000000000000115" height="0"></rect></g><g class="bar" transform="translate(152.1,310)"><rect x="1" width="0.30000000000000115" height="0"></rect></g><g class="bar" transform="translate(153.4,310)"><rect x="1" width="0.30000000000000115" height="0"></rect></g><g class="bar" transform="translate(154.7,310)"><rect x="1" width="0.30000000000000115" height="0"></rect></g><g class="bar" transform="translate(156,310)"><rect x="1" width="0.30000000000000115" height="0"></rect></g><g class="bar" transform="translate(157.29999999999998,310)"><rect x="1" width="0.30000000000000115" height="0"></rect></g><g class="bar" transform="translate(158.6,310)"><rect x="1" width="0.30000000000000115" height="0"></rect></g><g class="bar" transform="translate(159.9,310)"><rect x="1" width="0.30000000000000115" height="0"></rect></g><g class="bar" transform="translate(161.2,310)"><rect x="1" width="0.30000000000000115" height="0"></rect></g><g class="bar" transform="translate(162.5,310)"><rect x="1" width="0.30000000000000115" height="0"></rect></g><g class="bar" transform="translate(163.8,310)"><rect x="1" width="0.30000000000000115" height="0"></rect></g><g class="bar" transform="translate(165.1,310)"><rect x="1" width="0.30000000000000115" height="0"></rect></g><g class="bar" transform="translate(166.4,310)"><rect x="1" width="0.30000000000000115" height="0"></rect></g><g class="bar" transform="translate(167.70000000000002,310)"><rect x="1" width="0.30000000000000115" height="0"></rect></g><g class="bar" transform="translate(169,310)"><rect x="1" width="0.30000000000000115" height="0"></rect></g><g class="bar" transform="translate(170.3,310)"><rect x="1" width="0.30000000000000115" height="0"></rect></g><g class="bar" transform="translate(171.6,310)"><rect x="1" width="0.30000000000000115" height="0"></rect></g><g class="bar" transform="translate(172.9,310)"><rect x="1" width="0.30000000000000115" height="0"></rect></g><g class="bar" transform="translate(174.20000000000002,310)"><rect x="1" width="0.30000000000000115" height="0"></rect></g><g class="bar" transform="translate(175.5,310)"><rect x="1" width="0.30000000000000115" height="0"></rect></g><g class="bar" transform="translate(176.8,310)"><rect x="1" width="0.30000000000000115" height="0"></rect></g><g class="bar" transform="translate(178.10000000000002,310)"><rect x="1" width="0.30000000000000115" height="0"></rect></g><g class="bar" transform="translate(179.4,310)"><rect x="1" width="0.30000000000000115" height="0"></rect></g><g class="bar" transform="translate(180.70000000000002,310)"><rect x="1" width="0.30000000000000115" height="0"></rect></g><g class="bar" transform="translate(182.00000000000003,310)"><rect x="1" width="0.30000000000000115" height="0"></rect></g><g class="bar" transform="translate(183.29999999999998,310)"><rect x="1" width="0.30000000000000115" height="0"></rect></g><g class="bar" transform="translate(184.6,310)"><rect x="1" width="0.30000000000000115" height="0"></rect></g><g class="bar" transform="translate(185.9,306.11174458380844)"><rect x="1" width="0.30000000000000115" height="3.888255416191555"></rect></g><g class="bar" transform="translate(187.2,310)"><rect x="1" width="0.30000000000000115" height="0"></rect></g><g class="bar" transform="translate(188.5,310)"><rect x="1" width="0.30000000000000115" height="0"></rect></g><g class="bar" transform="translate(189.79999999999998,310)"><rect x="1" width="0.30000000000000115" height="0"></rect></g><g class="bar" transform="translate(191.1,309.29304446978335)"><rect x="1" width="0.30000000000000115" height="0.7069555302166464"></rect></g><g class="bar" transform="translate(192.4,309.29304446978335)"><rect x="1" width="0.30000000000000115" height="0.7069555302166464"></rect></g><g class="bar" transform="translate(193.7,310)"><rect x="1" width="0.30000000000000115" height="0"></rect></g><g class="bar" transform="translate(195,309.6465222348917)"><rect x="1" width="0.30000000000000115" height="0.3534777651083232"></rect></g><g class="bar" transform="translate(196.3,310)"><rect x="1" width="0.30000000000000115" height="0"></rect></g><g class="bar" transform="translate(197.6,308.93956670467503)"><rect x="1" width="0.30000000000000115" height="1.0604332953249695"></rect></g><g class="bar" transform="translate(198.9,310)"><rect x="1" width="0.30000000000000115" height="0"></rect></g><g class="bar" transform="translate(200.20000000000002,305.0513112884835)"><rect x="1" width="0.30000000000000115" height="4.948688711516525"></rect></g><g class="bar" transform="translate(201.5,309.6465222348917)"><rect x="1" width="0.30000000000000115" height="0.3534777651083232"></rect></g><g class="bar" transform="translate(202.8,309.6465222348917)"><rect x="1" width="0.30000000000000115" height="0.3534777651083232"></rect></g><g class="bar" transform="translate(204.1,308.93956670467503)"><rect x="1" width="0.30000000000000115" height="1.0604332953249695"></rect></g><g class="bar" transform="translate(205.4,309.6465222348917)"><rect x="1" width="0.30000000000000115" height="0.3534777651083232"></rect></g><g class="bar" transform="translate(206.70000000000002,309.29304446978335)"><rect x="1" width="0.30000000000000115" height="0.7069555302166464"></rect></g><g class="bar" transform="translate(208,307.87913340935006)"><rect x="1" width="0.30000000000000115" height="2.120866590649939"></rect></g><g class="bar" transform="translate(209.3,308.2326111744584)"><rect x="1" width="0.30000000000000115" height="1.767388825541616"></rect></g><g class="bar" transform="translate(210.60000000000002,307.87913340935006)"><rect x="1" width="0.30000000000000115" height="2.120866590649939"></rect></g><g class="bar" transform="translate(211.9,308.2326111744584)"><rect x="1" width="0.30000000000000115" height="1.767388825541616"></rect></g><g class="bar" transform="translate(213.20000000000002,308.93956670467503)"><rect x="1" width="0.30000000000000115" height="1.0604332953249695"></rect></g><g class="bar" transform="translate(214.50000000000003,307.1721778791334)"><rect x="1" width="0.30000000000000115" height="2.8278221208665855"></rect></g><g class="bar" transform="translate(215.8,308.5860889395667)"><rect x="1" width="0.30000000000000115" height="1.4139110604332927"></rect></g><g class="bar" transform="translate(217.1,308.93956670467503)"><rect x="1" width="0.30000000000000115" height="1.0604332953249695"></rect></g><g class="bar" transform="translate(218.4,304.34435575826683)"><rect x="1" width="0.30000000000000115" height="5.655644241733171"></rect></g><g class="bar" transform="translate(219.7,308.93956670467503)"><rect x="1" width="0.30000000000000115" height="1.0604332953249695"></rect></g><g class="bar" transform="translate(221,308.93956670467503)"><rect x="1" width="0.30000000000000115" height="1.0604332953249695"></rect></g><g class="bar" transform="translate(222.29999999999998,308.5860889395667)"><rect x="1" width="0.30000000000000115" height="1.4139110604332927"></rect></g><g class="bar" transform="translate(223.6,308.2326111744584)"><rect x="1" width="0.30000000000000115" height="1.767388825541616"></rect></g><g class="bar" transform="translate(224.9,309.6465222348917)"><rect x="1" width="0.30000000000000115" height="0.3534777651083232"></rect></g><g class="bar" transform="translate(226.2,304.34435575826683)"><rect x="1" width="0.30000000000000115" height="5.655644241733171"></rect></g><g class="bar" transform="translate(227.5,307.87913340935006)"><rect x="1" width="0.30000000000000115" height="2.120866590649939"></rect></g><g class="bar" transform="translate(228.8,309.29304446978335)"><rect x="1" width="0.30000000000000115" height="0.7069555302166464"></rect></g><g class="bar" transform="translate(230.1,308.5860889395667)"><rect x="1" width="0.30000000000000115" height="1.4139110604332927"></rect></g><g class="bar" transform="translate(231.4,308.2326111744584)"><rect x="1" width="0.30000000000000115" height="1.767388825541616"></rect></g><g class="bar" transform="translate(232.70000000000002,308.2326111744584)"><rect x="1" width="0.30000000000000115" height="1.767388825541616"></rect></g><g class="bar" transform="translate(234,308.93956670467503)"><rect x="1" width="0.30000000000000115" height="1.0604332953249695"></rect></g><g class="bar" transform="translate(235.3,307.52565564424174)"><rect x="1" width="0.30000000000000115" height="2.4743443557582623"></rect></g><g class="bar" transform="translate(236.6,305.7582668187001)"><rect x="1" width="0.30000000000000115" height="4.241733181299878"></rect></g><g class="bar" transform="translate(237.9,303.28392246294186)"><rect x="1" width="0.30000000000000115" height="6.7160775370581405"></rect></g><g class="bar" transform="translate(239.20000000000002,305.7582668187001)"><rect x="1" width="0.30000000000000115" height="4.241733181299878"></rect></g><g class="bar" transform="translate(240.5,304.34435575826683)"><rect x="1" width="0.30000000000000115" height="5.655644241733171"></rect></g><g class="bar" transform="translate(241.8,305.4047890535918)"><rect x="1" width="0.30000000000000115" height="4.595210946408201"></rect></g><g class="bar" transform="translate(243.10000000000002,300.10262257696695)"><rect x="1" width="0.30000000000000115" height="9.89737742303305"></rect></g><g class="bar" transform="translate(244.4,299.042189281642)"><rect x="1" width="0.30000000000000115" height="10.957810718358019"></rect></g><g class="bar" transform="translate(245.70000000000002,296.92132269099204)"><rect x="1" width="0.30000000000000115" height="13.078677309007958"></rect></g><g class="bar" transform="translate(247.00000000000003,296.92132269099204)"><rect x="1" width="0.30000000000000115" height="13.078677309007958"></rect></g><g class="bar" transform="translate(248.3,294.4469783352338)"><rect x="1" width="0.30000000000000115" height="15.55302166476622"></rect></g><g class="bar" transform="translate(249.6,293.7400228050171)"><rect x="1" width="0.30000000000000115" height="16.259977194982923"></rect></g><g class="bar" transform="translate(250.9,290.9122006841505)"><rect x="1" width="0.30000000000000115" height="19.08779931584951"></rect></g><g class="bar" transform="translate(252.2,285.61003420752564)"><rect x="1" width="0.30000000000000115" height="24.389965792474356"></rect></g><g class="bar" transform="translate(253.5,281.01482326111744)"><rect x="1" width="0.30000000000000115" height="28.985176738882558"></rect></g><g class="bar" transform="translate(254.79999999999998,277.83352337514253)"><rect x="1" width="0.30000000000000115" height="32.16647662485747"></rect></g><g class="bar" transform="translate(256.1,260.86659064994296)"><rect x="1" width="0.30000000000000115" height="49.133409350057036"></rect></g><g class="bar" transform="translate(257.4,235.06271379703534)"><rect x="1" width="0.30000000000000115" height="74.93728620296466"></rect></g><g class="bar" transform="translate(258.7,227.2862029646522)"><rect x="1" width="0.30000000000000115" height="82.7137970353478"></rect></g><g class="bar" transform="translate(260,210.3192702394527)"><rect x="1" width="0.30000000000000115" height="99.68072976054731"></rect></g><g class="bar" transform="translate(261.3,153.76282782212087)"><rect x="1" width="0.30000000000000115" height="156.23717217787913"></rect></g><g class="bar" transform="translate(262.6,144.21892816419614)"><rect x="1" width="0.30000000000000115" height="165.78107183580386"></rect></g><g class="bar" transform="translate(263.90000000000003,44.89167616875716)"><rect x="1" width="0.30000000000000115" height="265.10832383124284"></rect></g><g class="bar" transform="translate(265.2,69.63511972633981)"><rect x="1" width="0.30000000000000115" height="240.3648802736602"></rect></g><g class="bar" transform="translate(266.5,16.259977194982923)"><rect x="1" width="0.30000000000000115" height="293.7400228050171"></rect></g><g class="bar" transform="translate(267.8,0)"><rect x="1" width="0.30000000000000115" height="310"></rect></g><g class="bar" transform="translate(269.09999999999997,69.9885974914481)"><rect x="1" width="0.30000000000000115" height="240.0114025085519"></rect></g><g class="bar" transform="translate(270.40000000000003,86.60205245153932)"><rect x="1" width="0.30000000000000115" height="223.39794754846068"></rect></g><g class="bar" transform="translate(271.7,135.0285062713797)"><rect x="1" width="0.30000000000000115" height="174.9714937286203"></rect></g><g class="bar" transform="translate(273,197.94754846066135)"><rect x="1" width="0.30000000000000115" height="112.05245153933865"></rect></g><g class="bar" transform="translate(274.3,246.72748004561004)"><rect x="1" width="0.30000000000000115" height="63.27251995438996"></rect></g><g class="bar" transform="translate(275.6,271.82440136830104)"><rect x="1" width="0.30000000000000115" height="38.17559863169896"></rect></g><g class="bar" transform="translate(276.9,299.042189281642)"><rect x="1" width="0.30000000000000115" height="10.957810718358019"></rect></g><g class="bar" transform="translate(278.2,307.52565564424174)"><rect x="1" width="0.30000000000000115" height="2.4743443557582623"></rect></g><g class="bar" transform="translate(279.5,310)"><rect x="1" width="0.30000000000000115" height="0"></rect></g><g class="bar" transform="translate(280.8,310)"><rect x="1" width="0.30000000000000115" height="0"></rect></g><g class="bar" transform="translate(282.09999999999997,310)"><rect x="1" width="0.30000000000000115" height="0"></rect></g><g class="bar" transform="translate(283.40000000000003,310)"><rect x="1" width="0.30000000000000115" height="0"></rect></g><g class="bar" transform="translate(284.7,310)"><rect x="1" width="0.30000000000000115" height="0"></rect></g><g class="bar" transform="translate(286,310)"><rect x="1" width="0.30000000000000115" height="0"></rect></g><g class="bar" transform="translate(287.3,310)"><rect x="1" width="0.30000000000000115" height="0"></rect></g><g class="bar" transform="translate(288.6,310)"><rect x="1" width="0.30000000000000115" height="0"></rect></g><g class="bar" transform="translate(289.9,310)"><rect x="1" width="0.30000000000000115" height="0"></rect></g><g class="bar" transform="translate(291.20000000000005,310)"><rect x="1" width="0.30000000000000115" height="0"></rect></g><g class="bar" transform="translate(292.5,310)"><rect x="1" width="0.30000000000000115" height="0"></rect></g><g class="bar" transform="translate(293.8,310)"><rect x="1" width="0.30000000000000115" height="0"></rect></g><g class="bar" transform="translate(295.1,310)"><rect x="1" width="0.30000000000000115" height="0"></rect></g><g class="bar" transform="translate(296.40000000000003,310)"><rect x="1" width="0.30000000000000115" height="0"></rect></g><g class="bar" transform="translate(297.7,310)"><rect x="1" width="0.30000000000000115" height="0"></rect></g><g class="bar" transform="translate(299.00000000000006,310)"><rect x="1" width="0.30000000000000115" height="0"></rect></g><g class="bar" transform="translate(300.3,310)"><rect x="1" width="0.30000000000000115" height="0"></rect></g><g class="bar" transform="translate(301.59999999999997,310)"><rect x="1" width="0.30000000000000115" height="0"></rect></g><g class="bar" transform="translate(302.90000000000003,310)"><rect x="1" width="0.30000000000000115" height="0"></rect></g><g class="bar" transform="translate(304.2,310)"><rect x="1" width="0.30000000000000115" height="0"></rect></g><g class="bar" transform="translate(305.5,310)"><rect x="1" width="0.30000000000000115" height="0"></rect></g><g class="bar" transform="translate(306.8,310)"><rect x="1" width="0.30000000000000115" height="0"></rect></g><g class="bar" transform="translate(308.1,310)"><rect x="1" width="0.30000000000000115" height="0"></rect></g><g class="bar" transform="translate(309.4,310)"><rect x="1" width="0.30000000000000115" height="0"></rect></g><g class="bar" transform="translate(310.7,310)"><rect x="1" width="0.30000000000000115" height="0"></rect></g><g class="bar" transform="translate(312,310)"><rect x="1" width="0.30000000000000115" height="0"></rect></g><g class="bar" transform="translate(313.3,310)"><rect x="1" width="0.30000000000000115" height="0"></rect></g><g class="bar" transform="translate(314.59999999999997,310)"><rect x="1" width="0.30000000000000115" height="0"></rect></g><g class="bar" transform="translate(315.90000000000003,310)"><rect x="1" width="0.30000000000000115" height="0"></rect></g><g class="bar" transform="translate(317.2,310)"><rect x="1" width="0.30000000000000115" height="0"></rect></g><g class="bar" transform="translate(318.5,310)"><rect x="1" width="0.30000000000000115" height="0"></rect></g><g class="bar" transform="translate(319.8,310)"><rect x="1" width="0.30000000000000115" height="0"></rect></g><g class="bar" transform="translate(321.1,310)"><rect x="1" width="0.30000000000000115" height="0"></rect></g><g class="bar" transform="translate(322.4,310)"><rect x="1" width="0.30000000000000115" height="0"></rect></g><g class="bar" transform="translate(323.70000000000005,310)"><rect x="1" width="0.30000000000000115" height="0"></rect></g><g class="bar" transform="translate(325,310)"><rect x="1" width="0.30000000000000115" height="0"></rect></g><g class="bar" transform="translate(326.3,310)"><rect x="1" width="0.30000000000000115" height="0"></rect></g><g class="bar" transform="translate(327.6,310)"><rect x="1" width="0.30000000000000115" height="0"></rect></g><g class="bar" transform="translate(328.90000000000003,310)"><rect x="1" width="0.30000000000000115" height="0"></rect></g><g class="bar" transform="translate(330.2,310)"><rect x="1" width="0.30000000000000115" height="0"></rect></g><g class="bar" transform="translate(331.50000000000006,310)"><rect x="1" width="0.30000000000000115" height="0"></rect></g><g class="bar" transform="translate(332.8,310)"><rect x="1" width="0.30000000000000115" height="0"></rect></g><g class="bar" transform="translate(334.09999999999997,310)"><rect x="1" width="0.30000000000000115" height="0"></rect></g><g class="bar" transform="translate(335.40000000000003,310)"><rect x="1" width="0.30000000000000115" height="0"></rect></g><g class="bar" transform="translate(336.7,310)"><rect x="1" width="0.30000000000000115" height="0"></rect></g><g class="bar" transform="translate(338,310)"><rect x="1" width="0.30000000000000115" height="0"></rect></g><g class="bar" transform="translate(339.3,310)"><rect x="1" width="0.30000000000000115" height="0"></rect></g><g class="bar" transform="translate(340.6,310)"><rect x="1" width="0.30000000000000115" height="0"></rect></g><g class="bar" transform="translate(341.9,310)"><rect x="1" width="0.30000000000000115" height="0"></rect></g><g class="bar" transform="translate(343.2,310)"><rect x="1" width="0.30000000000000115" height="0"></rect></g><g class="bar" transform="translate(344.5,310)"><rect x="1" width="0.30000000000000115" height="0"></rect></g><g class="bar" transform="translate(345.8,310)"><rect x="1" width="0.30000000000000115" height="0"></rect></g><g class="bar" transform="translate(347.09999999999997,310)"><rect x="1" width="0.30000000000000115" height="0"></rect></g><g class="bar" transform="translate(348.40000000000003,310)"><rect x="1" width="0.30000000000000115" height="0"></rect></g><g class="bar" transform="translate(349.7,310)"><rect x="1" width="0.30000000000000115" height="0"></rect></g><g class="bar" transform="translate(351,310)"><rect x="1" width="0.30000000000000115" height="0"></rect></g><g class="bar" transform="translate(352.3,310)"><rect x="1" width="0.30000000000000115" height="0"></rect></g><g class="bar" transform="translate(353.6,310)"><rect x="1" width="0.30000000000000115" height="0"></rect></g><g class="bar" transform="translate(354.9,310)"><rect x="1" width="0.30000000000000115" height="0"></rect></g><g class="bar" transform="translate(356.20000000000005,310)"><rect x="1" width="0.30000000000000115" height="0"></rect></g><g class="bar" transform="translate(357.5,310)"><rect x="1" width="0.30000000000000115" height="0"></rect></g><g class="bar" transform="translate(358.8,310)"><rect x="1" width="0.30000000000000115" height="0"></rect></g><g class="bar" transform="translate(360.1,310)"><rect x="1" width="0.30000000000000115" height="0"></rect></g><g class="bar" transform="translate(361.40000000000003,310)"><rect x="1" width="0.30000000000000115" height="0"></rect></g><g class="bar" transform="translate(362.7,310)"><rect x="1" width="0.30000000000000115" height="0"></rect></g><g class="bar" transform="translate(364.00000000000006,310)"><rect x="1" width="0.30000000000000115" height="0"></rect></g><g class="bar" transform="translate(365.3,310)"><rect x="1" width="0.30000000000000115" height="0"></rect></g><g class="bar" transform="translate(366.59999999999997,310)"><rect x="1" width="0.30000000000000115" height="0"></rect></g><g class="bar" transform="translate(367.90000000000003,310)"><rect x="1" width="0.30000000000000115" height="0"></rect></g><g class="bar" transform="translate(369.2,310)"><rect x="1" width="0.30000000000000115" height="0"></rect></g><g class="bar" transform="translate(370.5,310)"><rect x="1" width="0.30000000000000115" height="0"></rect></g><g class="bar" transform="translate(371.8,310)"><rect x="1" width="0.30000000000000115" height="0"></rect></g><g class="bar" transform="translate(373.1,310)"><rect x="1" width="0.30000000000000115" height="0"></rect></g><g class="bar" transform="translate(374.4,310)"><rect x="1" width="0.30000000000000115" height="0"></rect></g><g class="bar" transform="translate(375.7,310)"><rect x="1" width="0.30000000000000115" height="0"></rect></g><g class="bar" transform="translate(377,310)"><rect x="1" width="0.30000000000000115" height="0"></rect></g><g class="bar" transform="translate(378.3,310)"><rect x="1" width="0.30000000000000115" height="0"></rect></g><g class="bar" transform="translate(379.59999999999997,310)"><rect x="1" width="0.30000000000000115" height="0"></rect></g><g class="bar" transform="translate(380.90000000000003,310)"><rect x="1" width="0.30000000000000115" height="0"></rect></g><g class="bar" transform="translate(382.2,310)"><rect x="1" width="0.30000000000000115" height="0"></rect></g><g class="bar" transform="translate(383.5,310)"><rect x="1" width="0.30000000000000115" height="0"></rect></g><g class="bar" transform="translate(384.8,310)"><rect x="1" width="0.30000000000000115" height="0"></rect></g><g class="bar" transform="translate(386.1,310)"><rect x="1" width="0.30000000000000115" height="0"></rect></g><g class="bar" transform="translate(387.4,310)"><rect x="1" width="0.30000000000000115" height="0"></rect></g><g class="bar" transform="translate(388.70000000000005,310)"><rect x="1" width="0.30000000000000115" height="0"></rect></g><g class="bar" transform="translate(390,310)"><rect x="1" width="0.30000000000000115" height="0"></rect></g><g class="bar" transform="translate(391.3,310)"><rect x="1" width="0.30000000000000115" height="0"></rect></g><g class="bar" transform="translate(392.6,310)"><rect x="1" width="0.30000000000000115" height="0"></rect></g><g class="bar" transform="translate(393.90000000000003,310)"><rect x="1" width="0.30000000000000115" height="0"></rect></g><g class="bar" transform="translate(395.2,310)"><rect x="1" width="0.30000000000000115" height="0"></rect></g><g class="bar" transform="translate(396.50000000000006,310)"><rect x="1" width="0.30000000000000115" height="0"></rect></g><g class="bar" transform="translate(397.8,310)"><rect x="1" width="0.30000000000000115" height="0"></rect></g><g class="bar" transform="translate(399.1,310)"><rect x="1" width="0.30000000000000115" height="0"></rect></g><g class="bar" transform="translate(400.40000000000003,310)"><rect x="1" width="0.30000000000000115" height="0"></rect></g><g class="bar" transform="translate(401.7,310)"><rect x="1" width="0.30000000000000115" height="0"></rect></g><g class="bar" transform="translate(403,310)"><rect x="1" width="0.30000000000000115" height="0"></rect></g><g class="bar" transform="translate(404.3,310)"><rect x="1" width="0.30000000000000115" height="0"></rect></g><g class="bar" transform="translate(405.6,310)"><rect x="1" width="0.30000000000000115" height="0"></rect></g><g class="bar" transform="translate(406.9,310)"><rect x="1" width="0.30000000000000115" height="0"></rect></g><g class="bar" transform="translate(408.2,310)"><rect x="1" width="0.30000000000000115" height="0"></rect></g><g class="bar" transform="translate(409.5,310)"><rect x="1" width="0.30000000000000115" height="0"></rect></g><g class="bar" transform="translate(410.8,310)"><rect x="1" width="0.30000000000000115" height="0"></rect></g><g class="bar" transform="translate(412.09999999999997,310)"><rect x="1" width="0.30000000000000115" height="0"></rect></g><g class="bar" transform="translate(413.40000000000003,310)"><rect x="1" width="0.30000000000000115" height="0"></rect></g><g class="bar" transform="translate(414.7,310)"><rect x="1" width="0.30000000000000115" height="0"></rect></g><g class="bar" transform="translate(416,310)"><rect x="1" width="0.30000000000000115" height="0"></rect></g><g class="bar" transform="translate(417.3,310)"><rect x="1" width="0.30000000000000115" height="0"></rect></g><g class="bar" transform="translate(418.6,310)"><rect x="1" width="0.30000000000000115" height="0"></rect></g><g class="bar" transform="translate(419.9,310)"><rect x="1" width="0.30000000000000115" height="0"></rect></g><g class="bar" transform="translate(421.20000000000005,310)"><rect x="1" width="0.30000000000000115" height="0"></rect></g><g class="bar" transform="translate(422.5,310)"><rect x="1" width="0.30000000000000115" height="0"></rect></g><g class="bar" transform="translate(423.8,310)"><rect x="1" width="0.30000000000000115" height="0"></rect></g><g class="bar" transform="translate(425.1,310)"><rect x="1" width="0.30000000000000115" height="0"></rect></g><g class="bar" transform="translate(426.40000000000003,310)"><rect x="1" width="0.30000000000000115" height="0"></rect></g><g class="bar" transform="translate(427.7,310)"><rect x="1" width="0.30000000000000115" height="0"></rect></g><g class="bar" transform="translate(429.00000000000006,310)"><rect x="1" width="0.30000000000000115" height="0"></rect></g><g class="bar" transform="translate(430.3,310)"><rect x="1" width="0.30000000000000115" height="0"></rect></g><g class="bar" transform="translate(431.6,310)"><rect x="1" width="0.30000000000000115" height="0"></rect></g><g class="bar" transform="translate(432.90000000000003,310)"><rect x="1" width="0.30000000000000115" height="0"></rect></g><g class="bar" transform="translate(434.2,310)"><rect x="1" width="0.30000000000000115" height="0"></rect></g><g class="bar" transform="translate(435.5,310)"><rect x="1" width="0.30000000000000115" height="0"></rect></g><g class="bar" transform="translate(436.8,310)"><rect x="1" width="0.30000000000000115" height="0"></rect></g><g class="bar" transform="translate(438.1,310)"><rect x="1" width="0.30000000000000115" height="0"></rect></g><g class="bar" transform="translate(439.4,310)"><rect x="1" width="0.30000000000000115" height="0"></rect></g><g class="bar" transform="translate(440.7,310)"><rect x="1" width="0.30000000000000115" height="0"></rect></g><g class="bar" transform="translate(442,310)"><rect x="1" width="0.30000000000000115" height="0"></rect></g><g class="bar" transform="translate(443.3,310)"><rect x="1" width="0.30000000000000115" height="0"></rect></g><g class="bar" transform="translate(444.59999999999997,310)"><rect x="1" width="0.30000000000000115" height="0"></rect></g><g class="bar" transform="translate(445.90000000000003,310)"><rect x="1" width="0.30000000000000115" height="0"></rect></g><g class="bar" transform="translate(447.2,310)"><rect x="1" width="0.30000000000000115" height="0"></rect></g><g class="bar" transform="translate(448.5,310)"><rect x="1" width="0.30000000000000115" height="0"></rect></g><g class="bar" transform="translate(449.8,310)"><rect x="1" width="0.30000000000000115" height="0"></rect></g><g class="bar" transform="translate(451.1,310)"><rect x="1" width="0.30000000000000115" height="0"></rect></g><g class="bar" transform="translate(452.4,310)"><rect x="1" width="0.30000000000000115" height="0"></rect></g><g class="bar" transform="translate(453.70000000000005,310)"><rect x="1" width="0.30000000000000115" height="0"></rect></g><g class="bar" transform="translate(455,310)"><rect x="1" width="0.30000000000000115" height="0"></rect></g><g class="bar" transform="translate(456.3,310)"><rect x="1" width="0.30000000000000115" height="0"></rect></g><g class="bar" transform="translate(457.6,310)"><rect x="1" width="0.30000000000000115" height="0"></rect></g><g class="bar" transform="translate(458.90000000000003,310)"><rect x="1" width="0.30000000000000115" height="0"></rect></g><g class="bar" transform="translate(460.2,310)"><rect x="1" width="0.30000000000000115" height="0"></rect></g><g class="bar" transform="translate(461.50000000000006,310)"><rect x="1" width="0.30000000000000115" height="0"></rect></g><g class="bar" transform="translate(462.8,310)"><rect x="1" width="0.30000000000000115" height="0"></rect></g><g class="bar" transform="translate(464.1,310)"><rect x="1" width="0.30000000000000115" height="0"></rect></g><g class="bar" transform="translate(465.40000000000003,310)"><rect x="1" width="0.30000000000000115" height="0"></rect></g><g class="bar" transform="translate(466.7,310)"><rect x="1" width="0.30000000000000115" height="0"></rect></g><g class="bar" transform="translate(468,310)"><rect x="1" width="0.30000000000000115" height="0"></rect></g><g class="bar" transform="translate(469.3,310)"><rect x="1" width="0.30000000000000115" height="0"></rect></g><g class="bar" transform="translate(470.6,310)"><rect x="1" width="0.30000000000000115" height="0"></rect></g><g class="bar" transform="translate(471.9,310)"><rect x="1" width="0.30000000000000115" height="0"></rect></g><g class="bar" transform="translate(473.2,310)"><rect x="1" width="0.30000000000000115" height="0"></rect></g><g class="bar" transform="translate(474.5,310)"><rect x="1" width="0.30000000000000115" height="0"></rect></g><g class="bar" transform="translate(475.8,310)"><rect x="1" width="0.30000000000000115" height="0"></rect></g><g class="bar" transform="translate(477.09999999999997,310)"><rect x="1" width="0.30000000000000115" height="0"></rect></g><g class="bar" transform="translate(478.40000000000003,310)"><rect x="1" width="0.30000000000000115" height="0"></rect></g><g class="bar" transform="translate(479.7,310)"><rect x="1" width="0.30000000000000115" height="0"></rect></g><g class="bar" transform="translate(481,310)"><rect x="1" width="0.30000000000000115" height="0"></rect></g><g class="bar" transform="translate(482.3,310)"><rect x="1" width="0.30000000000000115" height="0"></rect></g><g class="bar" transform="translate(483.6,310)"><rect x="1" width="0.30000000000000115" height="0"></rect></g><g class="bar" transform="translate(484.9,310)"><rect x="1" width="0.30000000000000115" height="0"></rect></g><g class="bar" transform="translate(486.20000000000005,310)"><rect x="1" width="0.30000000000000115" height="0"></rect></g><g class="bar" transform="translate(487.5,310)"><rect x="1" width="0.30000000000000115" height="0"></rect></g><g class="bar" transform="translate(488.8,310)"><rect x="1" width="0.30000000000000115" height="0"></rect></g><g class="bar" transform="translate(490.1,310)"><rect x="1" width="0.30000000000000115" height="0"></rect></g><g class="bar" transform="translate(491.40000000000003,310)"><rect x="1" width="0.30000000000000115" height="0"></rect></g><g class="bar" transform="translate(492.7,310)"><rect x="1" width="0.30000000000000115" height="0"></rect></g><g class="bar" transform="translate(494.00000000000006,310)"><rect x="1" width="0.30000000000000115" height="0"></rect></g><g class="bar" transform="translate(495.3,310)"><rect x="1" width="0.30000000000000115" height="0"></rect></g><g class="bar" transform="translate(496.6,310)"><rect x="1" width="0.30000000000000115" height="0"></rect></g><g class="bar" transform="translate(497.90000000000003,310)"><rect x="1" width="0.30000000000000115" height="0"></rect></g><g class="bar" transform="translate(499.2,310)"><rect x="1" width="0.30000000000000115" height="0"></rect></g><g class="bar" transform="translate(500.5,310)"><rect x="1" width="0.30000000000000115" height="0"></rect></g><g class="bar" transform="translate(501.8,310)"><rect x="1" width="0.30000000000000115" height="0"></rect></g><g class="bar" transform="translate(503.1,310)"><rect x="1" width="0.30000000000000115" height="0"></rect></g><g class="bar" transform="translate(504.4,310)"><rect x="1" width="0.30000000000000115" height="0"></rect></g><g class="bar" transform="translate(505.7,310)"><rect x="1" width="0.30000000000000115" height="0"></rect></g><g class="bar" transform="translate(507,310)"><rect x="1" width="0.30000000000000115" height="0"></rect></g><g class="bar" transform="translate(508.3,310)"><rect x="1" width="0.30000000000000115" height="0"></rect></g><g class="bar" transform="translate(509.59999999999997,310)"><rect x="1" width="0.30000000000000115" height="0"></rect></g><g class="bar" transform="translate(510.90000000000003,310)"><rect x="1" width="0.30000000000000115" height="0"></rect></g><g class="bar" transform="translate(512.2,310)"><rect x="1" width="0.30000000000000115" height="0"></rect></g><g class="bar" transform="translate(513.5,310)"><rect x="1" width="0.30000000000000115" height="0"></rect></g><g class="bar" transform="translate(514.8,310)"><rect x="1" width="0.30000000000000115" height="0"></rect></g><g class="bar" transform="translate(516.1,310)"><rect x="1" width="0.30000000000000115" height="0"></rect></g><g class="bar" transform="translate(517.4,310)"><rect x="1" width="0.30000000000000115" height="0"></rect></g><g class="bar" transform="translate(518.7,310)"><rect x="1" width="0.30000000000000115" height="0"></rect></g><g class="axis axis--x" transform="translate(0,310)" fill="none" font-size="10" font-family="sans-serif" text-anchor="middle"><path class="domain" stroke="#000" d="M0.5,6V0.5H520.5V6"></path><g class="tick" opacity="1" transform="translate(0,0)"><line stroke="#000" y2="6" x1="0.5" x2="0.5"></line><text fill="#000" y="9" x="0.5" dy="0.71em">0.01</text></g><g class="tick" opacity="1" transform="translate(130,0)"><line stroke="#000" y2="6" x1="0.5" x2="0.5"></line><text fill="#000" y="9" x="0.5" dy="0.71em">1</text></g><g class="tick" opacity="1" transform="translate(260,0)"><line stroke="#000" y2="6" x1="0.5" x2="0.5"></line><text fill="#000" y="9" x="0.5" dy="0.71em">100</text></g><g class="tick" opacity="1" transform="translate(390,0)"><line stroke="#000" y2="6" x1="0.5" x2="0.5"></line><text fill="#000" y="9" x="0.5" dy="0.71em">10000</text></g><g class="tick" opacity="1" transform="translate(520,0)"><line stroke="#000" y2="6" x1="0.5" x2="0.5"></line><text fill="#000" y="9" x="0.5" dy="0.71em"></text></g></g><g class="axis axis--y" fill="none" font-size="10" font-family="sans-serif" text-anchor="end"><path class="domain" stroke="#000" d="M-6,310.5H0.5V0.5H-6"></path><g class="tick" opacity="1" transform="translate(0,310)"><line stroke="#000" x2="-6" y1="0.5" y2="0.5"></line><text fill="#000" x="-9" y="0.5" dy="0.32em">0</text></g><g class="tick" opacity="1" transform="translate(0,274.6522234891676)"><line stroke="#000" x2="-6" y1="0.5" y2="0.5"></line><text fill="#000" x="-9" y="0.5" dy="0.32em">100</text></g><g class="tick" opacity="1" transform="translate(0,239.30444697833525)"><line stroke="#000" x2="-6" y1="0.5" y2="0.5"></line><text fill="#000" x="-9" y="0.5" dy="0.32em">200</text></g><g class="tick" opacity="1" transform="translate(0,203.95667046750285)"><line stroke="#000" x2="-6" y1="0.5" y2="0.5"></line><text fill="#000" x="-9" y="0.5" dy="0.32em">300</text></g><g class="tick" opacity="1" transform="translate(0,168.60889395667047)"><line stroke="#000" x2="-6" y1="0.5" y2="0.5"></line><text fill="#000" x="-9" y="0.5" dy="0.32em">400</text></g><g class="tick" opacity="1" transform="translate(0,133.2611174458381)"><line stroke="#000" x2="-6" y1="0.5" y2="0.5"></line><text fill="#000" x="-9" y="0.5" dy="0.32em">500</text></g><g class="tick" opacity="1" transform="translate(0,97.91334093500569)"><line stroke="#000" x2="-6" y1="0.5" y2="0.5"></line><text fill="#000" x="-9" y="0.5" dy="0.32em">600</text></g><g class="tick" opacity="1" transform="translate(0,62.56556442417332)"><line stroke="#000" x2="-6" y1="0.5" y2="0.5"></line><text fill="#000" x="-9" y="0.5" dy="0.32em">700</text></g><g class="tick" opacity="1" transform="translate(0,27.217787913340942)"><line stroke="#000" x2="-6" y1="0.5" y2="0.5"></line><text fill="#000" x="-9" y="0.5" dy="0.32em">800</text></g></g></g></svg>