<svg xmlns="http://www.w3.org/2000/svg" width="280" height="160"><defs><style type="text/css"><![CDATA[ 
.bar rect {
  fill-opacity: 0;
  stroke:       black;
  stroke-width: 0.5;
}

.highlight rect {
  fill:       red;
  fill-opacity: 1;
}
.axis path,
.axis line {
  fill: none;
  stroke: #000;
  shape-rendering: crispEdges;
}
 ]]></style></defs><g transform="translate(50,10)"><g class="bar" transform="translate(0,120)"><rect x="1" width="11.5" height="0"></rect></g><g class="bar" transform="translate(12.5,120)"><rect x="1" width="11.5" height="0"></rect></g><g class="bar" transform="translate(25,119.35828877005348)"><rect x="1" width="11.5" height="0.6417112299465231"></rect></g><g class="bar" transform="translate(37.5,117.43315508021391)"><rect x="1" width="11.5" height="2.5668449197860923"></rect></g><g class="bar" transform="translate(50,102.03208556149733)"><rect x="1" width="11.5" height="17.967914438502675"></rect></g><g class="bar" transform="translate(62.5,47.165775401069524)"><rect x="1" width="11.5" height="72.83422459893048"></rect></g><g class="bar" transform="translate(75,18.288770053475943)"><rect x="1" width="11.5" height="101.71122994652406"></rect></g><g class="bar" transform="translate(87.5,0)"><rect x="1" width="11.5" height="120"></rect></g><g class="bar" transform="translate(100,24.705882352941188)"><rect x="1" width="11.5" height="95.29411764705881"></rect></g><g class="bar" transform="translate(112.5,47.48663101604278)"><rect x="1" width="11.5" height="72.51336898395722"></rect></g><g class="bar" transform="translate(125,83.7433155080214)"><rect x="1" width="11.5" height="36.2566844919786"></rect></g><g class="bar" transform="translate(137.5,99.46524064171123)"><rect x="1" width="11.5" height="20.534759358288767"></rect></g><g class="bar" transform="translate(150,114.8663101604278)"><rect x="1" width="11.5" height="5.133689839572199"></rect></g><g class="bar" transform="translate(162.5,120)"><rect x="1" width="11.5" height="0"></rect></g><g class="bar" transform="translate(175,120)"><rect x="1" width="11.5" height="0"></rect></g><g class="bar" transform="translate(187.5,120)"><rect x="1" width="11.5" height="0"></rect></g></g></svg>