<svg xmlns="http://www.w3.org/2000/svg" width="280" height="160"><defs><style type="text/css"><![CDATA[ 
.bar rect {
  fill-opacity: 0;
  stroke:       black;
  stroke-width: 0.5;
}

.highlight rect {
  fill:       red;
  fill-opacity: 1;
}
.axis path,
.axis line {
  fill: none;
  stroke: #000;
  shape-rendering: crispEdges;
}
 ]]></style></defs><g transform="translate(50,10)"><g class="bar" transform="translate(0,120)"><rect x="1" width="11.5" height="0"></rect></g><g class="bar" transform="translate(12.5,120)"><rect x="1" width="11.5" height="0"></rect></g><g class="bar" transform="translate(25,120)"><rect x="1" width="11.5" height="0"></rect></g><g class="bar" transform="translate(37.5,119.77777777777777)"><rect x="1" width="11.5" height="0.22222222222222854"></rect></g><g class="bar" transform="translate(50,116.88888888888889)"><rect x="1" width="11.5" height="3.1111111111111143"></rect></g><g class="bar" transform="translate(62.5,96.88888888888889)"><rect x="1" width="11.5" height="23.111111111111114"></rect></g><g class="bar" transform="translate(75,51.77777777777777)"><rect x="1" width="11.5" height="68.22222222222223"></rect></g><g class="bar" transform="translate(87.5,13.555555555555557)"><rect x="1" width="11.5" height="106.44444444444444"></rect></g><g class="bar" transform="translate(100,0)"><rect x="1" width="11.5" height="120"></rect></g><g class="bar" transform="translate(112.5,26.444444444444443)"><rect x="1" width="11.5" height="93.55555555555556"></rect></g><g class="bar" transform="translate(125,74.66666666666667)"><rect x="1" width="11.5" height="45.33333333333333"></rect></g><g class="bar" transform="translate(137.5,111.11111111111111)"><rect x="1" width="11.5" height="8.888888888888886"></rect></g><g class="bar" transform="translate(150,119.33333333333333)"><rect x="1" width="11.5" height="0.6666666666666714"></rect></g><g class="bar" transform="translate(162.5,120)"><rect x="1" width="11.5" height="0"></rect></g><g class="bar" transform="translate(175,120)"><rect x="1" width="11.5" height="0"></rect></g><g class="bar" transform="translate(187.5,120)"><rect x="1" width="11.5" height="0"></rect></g></g></svg>