<svg xmlns="http://www.w3.org/2000/svg" width="600" height="350"><defs><style type="text/css"><![CDATA[ 
.bar rect {
  fill-opacity: 0;
  stroke:       black;
  stroke-width: 0.5;
}

.highlight rect {
  fill:       red;
  fill-opacity: 1;
}
.axis path,
.axis line {
  fill: none;
  stroke: #000;
  shape-rendering: crispEdges;
}
 ]]></style></defs><g transform="translate(50,10)"><g class="bar" transform="translate(0,310)"><rect x="1" width="11.999999999999996" height="0"></rect></g><g class="bar" transform="translate(12.999999999999996,310)"><rect x="1" width="11.999999999999996" height="0"></rect></g><g class="bar" transform="translate(25.999999999999993,310)"><rect x="1" width="11.999999999999996" height="0"></rect></g><g class="bar" transform="translate(39.00000000000001,310)"><rect x="1" width="11.999999999999996" height="0"></rect></g><g class="bar" transform="translate(52,310)"><rect x="1" width="11.999999999999996" height="0"></rect></g><g class="bar" transform="translate(65,310)"><rect x="1" width="11.999999999999996" height="0"></rect></g><g class="bar" transform="translate(78.00000000000001,310)"><rect x="1" width="11.999999999999996" height="0"></rect></g><g class="bar" transform="translate(91.00000000000001,310)"><rect x="1" width="11.999999999999996" height="0"></rect></g><g class="bar" transform="translate(104,310)"><rect x="1" width="11.999999999999996" height="0"></rect></g><g class="bar" transform="translate(117,308.69747899159665)"><rect x="1" width="11.999999999999996" height="1.302521008403346"></rect></g><g class="bar" transform="translate(130,308.69747899159665)"><rect x="1" width="11.999999999999996" height="1.302521008403346"></rect></g><g class="bar" transform="translate(143,302.1848739495798)"><rect x="1" width="11.999999999999996" height="7.81512605042019"></rect></g><g class="bar" transform="translate(156.00000000000003,293.0672268907563)"><rect x="1" width="11.999999999999996" height="16.932773109243726"></rect></g><g class="bar" transform="translate(169,265.7142857142857)"><rect x="1" width="11.999999999999996" height="44.28571428571428"></rect></g><g class="bar" transform="translate(182.00000000000003,226.6386554621849)"><rect x="1" width="11.999999999999996" height="83.36134453781511"></rect></g><g class="bar" transform="translate(195,194.07563025210084)"><rect x="1" width="11.999999999999996" height="115.92436974789916"></rect></g><g class="bar" transform="translate(208,141.9747899159664)"><rect x="1" width="11.999999999999996" height="168.0252100840336"></rect></g><g class="bar" transform="translate(221.00000000000003,89.87394957983193)"><rect x="1" width="11.999999999999996" height="220.12605042016807"></rect></g><g class="bar" transform="translate(234,45.58823529411768)"><rect x="1" width="11.999999999999996" height="264.4117647058823"></rect></g><g class="bar" transform="translate(247.00000000000003,54.70588235294119)"><rect x="1" width="11.999999999999996" height="255.2941176470588"></rect></g><g class="bar" transform="translate(260,0)"><rect x="1" width="11.999999999999996" height="310"></rect></g><g class="bar" transform="translate(273,41.68067226890753)"><rect x="1" width="11.999999999999996" height="268.31932773109247"></rect></g><g class="bar" transform="translate(286,50.798319327731065)"><rect x="1" width="11.999999999999996" height="259.20168067226894"></rect></g><g class="bar" transform="translate(299.00000000000006,88.57142857142856)"><rect x="1" width="11.999999999999996" height="221.42857142857144"></rect></g><g class="bar" transform="translate(312.00000000000006,117.22689075630251)"><rect x="1" width="11.999999999999996" height="192.7731092436975"></rect></g><g class="bar" transform="translate(325,194.07563025210084)"><rect x="1" width="11.999999999999996" height="115.92436974789916"></rect></g><g class="bar" transform="translate(338,200.58823529411762)"><rect x="1" width="11.999999999999996" height="109.41176470588238"></rect></g><g class="bar" transform="translate(351,256.5966386554622)"><rect x="1" width="11.999999999999996" height="53.403361344537814"></rect></g><g class="bar" transform="translate(364.00000000000006,287.85714285714283)"><rect x="1" width="11.999999999999996" height="22.142857142857167"></rect></g><g class="bar" transform="translate(377.00000000000006,293.0672268907563)"><rect x="1" width="11.999999999999996" height="16.932773109243726"></rect></g><g class="bar" transform="translate(390,307.39495798319325)"><rect x="1" width="11.999999999999996" height="2.605042016806749"></rect></g><g class="bar" transform="translate(403,308.69747899159665)"><rect x="1" width="11.999999999999996" height="1.302521008403346"></rect></g><g class="bar" transform="translate(416,310)"><rect x="1" width="11.999999999999996" height="0"></rect></g><g class="bar" transform="translate(429.00000000000006,310)"><rect x="1" width="11.999999999999996" height="0"></rect></g><g class="bar" transform="translate(442.00000000000006,310)"><rect x="1" width="11.999999999999996" height="0"></rect></g><g class="bar" transform="translate(455,310)"><rect x="1" width="11.999999999999996" height="0"></rect></g><g class="bar" transform="translate(468,310)"><rect x="1" width="11.999999999999996" height="0"></rect></g><g class="bar" transform="translate(481,310)"><rect x="1" width="11.999999999999996" height="0"></rect></g><g class="bar" transform="translate(494.00000000000006,310)"><rect x="1" width="11.999999999999996" height="0"></rect></g><g class="bar" transform="translate(507.00000000000006,310)"><rect x="1" width="11.999999999999996" height="0"></rect></g><g class="axis axis--x" transform="translate(0,310)" fill="none" font-size="10" font-family="sans-serif" text-anchor="middle"><path class="domain" stroke="#000" d="M0.5,6V0.5H520.5V6"></path><g class="tick" opacity="1" transform="translate(0,0)"><line stroke="#000" y2="6" x1="0.5" x2="0.5"></line><text fill="#000" y="9" x="0.5" dy="0.71em">0.01</text></g><g class="tick" opacity="1" transform="translate(130,0)"><line stroke="#000" y2="6" x1="0.5" x2="0.5"></line><text fill="#000" y="9" x="0.5" dy="0.71em">1</text></g><g class="tick" opacity="1" transform="translate(260,0)"><line stroke="#000" y2="6" x1="0.5" x2="0.5"></line><text fill="#000" y="9" x="0.5" dy="0.71em">100</text></g><g class="tick" opacity="1" transform="translate(390,0)"><line stroke="#000" y2="6" x1="0.5" x2="0.5"></line><text fill="#000" y="9" x="0.5" dy="0.71em">10000</text></g><g class="tick" opacity="1" transform="translate(520,0)"><line stroke="#000" y2="6" x1="0.5" x2="0.5"></line><text fill="#000" y="9" x="0.5" dy="0.71em"></text></g></g><g class="axis axis--y" fill="none" font-size="10" font-family="sans-serif" text-anchor="end"><path class="domain" stroke="#000" d="M-6,310.5H0.5V0.5H-6"></path><g class="tick" opacity="1" transform="translate(0,310)"><line stroke="#000" x2="-6" y1="0.5" y2="0.5"></line><text fill="#000" x="-9" y="0.5" dy="0.32em">0</text></g><g class="tick" opacity="1" transform="translate(0,283.9495798319328)"><line stroke="#000" x2="-6" y1="0.5" y2="0.5"></line><text fill="#000" x="-9" y="0.5" dy="0.32em">20</text></g><g class="tick" opacity="1" transform="translate(0,257.89915966386553)"><line stroke="#000" x2="-6" y1="0.5" y2="0.5"></line><text fill="#000" x="-9" y="0.5" dy="0.32em">40</text></g><g class="tick" opacity="1" transform="translate(0,231.84873949579833)"><line stroke="#000" x2="-6" y1="0.5" y2="0.5"></line><text fill="#000" x="-9" y="0.5" dy="0.32em">60</text></g><g class="tick" opacity="1" transform="translate(0,205.79831932773106)"><line stroke="#000" x2="-6" y1="0.5" y2="0.5"></line><text fill="#000" x="-9" y="0.5" dy="0.32em">80</text></g><g class="tick" opacity="1" transform="translate(0,179.74789915966386)"><line stroke="#000" x2="-6" y1="0.5" y2="0.5"></line><text fill="#000" x="-9" y="0.5" dy="0.32em">100</text></g><g class="tick" opacity="1" transform="translate(0,153.69747899159665)"><line stroke="#000" x2="-6" y1="0.5" y2="0.5"></line><text fill="#000" x="-9" y="0.5" dy="0.32em">120</text></g><g class="tick" opacity="1" transform="translate(0,127.64705882352939)"><line stroke="#000" x2="-6" y1="0.5" y2="0.5"></line><text fill="#000" x="-9" y="0.5" dy="0.32em">140</text></g><g class="tick" opacity="1" transform="translate(0,101.59663865546216)"><line stroke="#000" x2="-6" y1="0.5" y2="0.5"></line><text fill="#000" x="-9" y="0.5" dy="0.32em">160</text></g><g class="tick" opacity="1" transform="translate(0,75.54621848739495)"><line stroke="#000" x2="-6" y1="0.5" y2="0.5"></line><text fill="#000" x="-9" y="0.5" dy="0.32em">180</text></g><g class="tick" opacity="1" transform="translate(0,49.49579831932772)"><line stroke="#000" x2="-6" y1="0.5" y2="0.5"></line><text fill="#000" x="-9" y="0.5" dy="0.32em">200</text></g><g class="tick" opacity="1" transform="translate(0,23.445378151260513)"><line stroke="#000" x2="-6" y1="0.5" y2="0.5"></line><text fill="#000" x="-9" y="0.5" dy="0.32em">220</text></g></g></g></svg>