<svg xmlns="http://www.w3.org/2000/svg" width="280" height="160"><defs><style type="text/css"><![CDATA[ 
.bar rect {
  fill-opacity: 0;
  stroke:       black;
  stroke-width: 0.5;
}

.highlight rect {
  fill:       red;
  fill-opacity: 1;
}
.axis path,
.axis line {
  fill: none;
  stroke: #000;
  shape-rendering: crispEdges;
}
 ]]></style></defs><g transform="translate(50,10)"><g class="bar" transform="translate(0,119.49632738719832)"><rect x="1" width="11.5" height="0.5036726128016795"></rect></g><g class="bar" transform="translate(12.5,117.85939139559287)"><rect x="1" width="11.5" height="2.1406086044071344"></rect></g><g class="bar" transform="translate(25,108.03777544596012)"><rect x="1" width="11.5" height="11.962224554039878"></rect></g><g class="bar" transform="translate(37.5,68.37355718782791)"><rect x="1" width="11.5" height="51.62644281217209"></rect></g><g class="bar" transform="translate(50,21.783840503672607)"><rect x="1" width="11.5" height="98.21615949632739"></rect></g><g class="bar" transform="translate(62.5,0)"><rect x="1" width="11.5" height="120"></rect></g><g class="bar" transform="translate(75,10.325288562434423)"><rect x="1" width="11.5" height="109.67471143756558"></rect></g><g class="bar" transform="translate(87.5,32.738719832109126)"><rect x="1" width="11.5" height="87.26128016789087"></rect></g><g class="bar" transform="translate(100,73.03252885624345)"><rect x="1" width="11.5" height="46.967471143756555"></rect></g><g class="bar" transform="translate(112.5,100.48268625393494)"><rect x="1" width="11.5" height="19.517313746065057"></rect></g><g class="bar" transform="translate(125,111.56348373557188)"><rect x="1" width="11.5" height="8.436516264428121"></rect></g><g class="bar" transform="translate(137.5,116.34837355718783)"><rect x="1" width="11.5" height="3.651626442812173"></rect></g><g class="bar" transform="translate(150,116.60020986358867)"><rect x="1" width="11.5" height="3.399790136411326"></rect></g><g class="bar" transform="translate(162.5,119.74816369359917)"><rect x="1" width="11.5" height="0.25183630640083265"></rect></g><g class="bar" transform="translate(175,120)"><rect x="1" width="11.5" height="0"></rect></g><g class="bar" transform="translate(187.5,120)"><rect x="1" width="11.5" height="0"></rect></g></g></svg>