<svg xmlns="http://www.w3.org/2000/svg" width="600" height="350"><defs><style type="text/css"><![CDATA[ 
.bar rect {
  fill-opacity: 0;
  stroke:       black;
  stroke-width: 0.5;
}

.highlight rect {
  fill:       red;
  fill-opacity: 1;
}
.axis path,
.axis line {
  fill: none;
  stroke: #000;
  shape-rendering: crispEdges;
}
 ]]></style></defs><g transform="translate(50,10)"><g class="bar" transform="translate(0,309.2601431980907)"><rect x="1" width="11.999999999999996" height="0.7398568019092977"></rect></g><g class="bar" transform="translate(12.999999999999996,308.5202863961814)"><rect x="1" width="11.999999999999996" height="1.4797136038185954"></rect></g><g class="bar" transform="translate(25.999999999999993,307.04057279236275)"><rect x="1" width="11.999999999999996" height="2.9594272076372476"></rect></g><g class="bar" transform="translate(39.00000000000001,305.56085918854416)"><rect x="1" width="11.999999999999996" height="4.439140811455843"></rect></g><g class="bar" transform="translate(52,304.08114558472556)"><rect x="1" width="11.999999999999996" height="5.9188544152744385"></rect></g><g class="bar" transform="translate(65,297.42243436754177)"><rect x="1" width="11.999999999999996" height="12.577565632458231"></rect></g><g class="bar" transform="translate(78.00000000000001,278.18615751789974)"><rect x="1" width="11.999999999999996" height="31.813842482100256"></rect></g><g class="bar" transform="translate(91.00000000000001,250.8114558472554)"><rect x="1" width="11.999999999999996" height="59.18854415274461"></rect></g><g class="bar" transform="translate(104,204.9403341288783)"><rect x="1" width="11.999999999999996" height="105.0596658711217"></rect></g><g class="bar" transform="translate(117,145.01193317422437)"><rect x="1" width="11.999999999999996" height="164.98806682577563"></rect></g><g class="bar" transform="translate(130,102.8400954653938)"><rect x="1" width="11.999999999999996" height="207.1599045346062"></rect></g><g class="bar" transform="translate(143,74.72553699284009)"><rect x="1" width="11.999999999999996" height="235.2744630071599"></rect></g><g class="bar" transform="translate(156.00000000000003,45.131264916467785)"><rect x="1" width="11.999999999999996" height="264.8687350835322"></rect></g><g class="bar" transform="translate(169,45.131264916467785)"><rect x="1" width="11.999999999999996" height="264.8687350835322"></rect></g><g class="bar" transform="translate(182.00000000000003,0)"><rect x="1" width="11.999999999999996" height="310"></rect></g><g class="bar" transform="translate(195,56.96897374701672)"><rect x="1" width="11.999999999999996" height="253.03102625298328"></rect></g><g class="bar" transform="translate(208,50.310262529832926)"><rect x="1" width="11.999999999999996" height="259.6897374701671"></rect></g><g class="bar" transform="translate(221.00000000000003,51.05011933174222)"><rect x="1" width="11.999999999999996" height="258.9498806682578"></rect></g><g class="bar" transform="translate(234,115.417661097852)"><rect x="1" width="11.999999999999996" height="194.582338902148"></rect></g><g class="bar" transform="translate(247.00000000000003,119.11694510739855)"><rect x="1" width="11.999999999999996" height="190.88305489260145"></rect></g><g class="bar" transform="translate(260,180.5250596658711)"><rect x="1" width="11.999999999999996" height="129.4749403341289"></rect></g><g class="bar" transform="translate(273,206.4200477326969)"><rect x="1" width="11.999999999999996" height="103.5799522673031"></rect></g><g class="bar" transform="translate(286,235.2744630071599)"><rect x="1" width="11.999999999999996" height="74.72553699284009"></rect></g><g class="bar" transform="translate(299.00000000000006,260.4295942720764)"><rect x="1" width="11.999999999999996" height="49.57040572792363"></rect></g><g class="bar" transform="translate(312.00000000000006,276.70644391408115)"><rect x="1" width="11.999999999999996" height="33.29355608591885"></rect></g><g class="bar" transform="translate(325,288.5441527446301)"><rect x="1" width="11.999999999999996" height="21.455847255369918"></rect></g><g class="bar" transform="translate(338,292.2434367541766)"><rect x="1" width="11.999999999999996" height="17.756563245823372"></rect></g><g class="bar" transform="translate(351,294.4630071599045)"><rect x="1" width="11.999999999999996" height="15.536992840095479"></rect></g><g class="bar" transform="translate(364.00000000000006,304.08114558472556)"><rect x="1" width="11.999999999999996" height="5.9188544152744385"></rect></g><g class="bar" transform="translate(377.00000000000006,299.6420047732697)"><rect x="1" width="11.999999999999996" height="10.357995226730282"></rect></g><g class="bar" transform="translate(390,290.763723150358)"><rect x="1" width="11.999999999999996" height="19.236276849642024"></rect></g><g class="bar" transform="translate(403,309.2601431980907)"><rect x="1" width="11.999999999999996" height="0.7398568019092977"></rect></g><g class="bar" transform="translate(416,310)"><rect x="1" width="11.999999999999996" height="0"></rect></g><g class="bar" transform="translate(429.00000000000006,309.2601431980907)"><rect x="1" width="11.999999999999996" height="0.7398568019092977"></rect></g><g class="bar" transform="translate(442.00000000000006,309.2601431980907)"><rect x="1" width="11.999999999999996" height="0.7398568019092977"></rect></g><g class="bar" transform="translate(455,310)"><rect x="1" width="11.999999999999996" height="0"></rect></g><g class="bar" transform="translate(468,310)"><rect x="1" width="11.999999999999996" height="0"></rect></g><g class="bar" transform="translate(481,310)"><rect x="1" width="11.999999999999996" height="0"></rect></g><g class="bar" transform="translate(494.00000000000006,310)"><rect x="1" width="11.999999999999996" height="0"></rect></g><g class="bar" transform="translate(507.00000000000006,310)"><rect x="1" width="11.999999999999996" height="0"></rect></g><g class="axis axis--x" transform="translate(0,310)" fill="none" font-size="10" font-family="sans-serif" text-anchor="middle"><path class="domain" stroke="#000" d="M0.5,6V0.5H520.5V6"></path><g class="tick" opacity="1" transform="translate(0,0)"><line stroke="#000" y2="6" x1="0.5" x2="0.5"></line><text fill="#000" y="9" x="0.5" dy="0.71em">0.01</text></g><g class="tick" opacity="1" transform="translate(130,0)"><line stroke="#000" y2="6" x1="0.5" x2="0.5"></line><text fill="#000" y="9" x="0.5" dy="0.71em">1</text></g><g class="tick" opacity="1" transform="translate(260,0)"><line stroke="#000" y2="6" x1="0.5" x2="0.5"></line><text fill="#000" y="9" x="0.5" dy="0.71em">100</text></g><g class="tick" opacity="1" transform="translate(390,0)"><line stroke="#000" y2="6" x1="0.5" x2="0.5"></line><text fill="#000" y="9" x="0.5" dy="0.71em">10000</text></g><g class="tick" opacity="1" transform="translate(520,0)"><line stroke="#000" y2="6" x1="0.5" x2="0.5"></line><text fill="#000" y="9" x="0.5" dy="0.71em"></text></g></g><g class="axis axis--y" fill="none" font-size="10" font-family="sans-serif" text-anchor="end"><path class="domain" stroke="#000" d="M-6,310.5H0.5V0.5H-6"></path><g class="tick" opacity="1" transform="translate(0,310)"><line stroke="#000" x2="-6" y1="0.5" y2="0.5"></line><text fill="#000" x="-9" y="0.5" dy="0.32em">0</text></g><g class="tick" opacity="1" transform="translate(0,273.0071599045346)"><line stroke="#000" x2="-6" y1="0.5" y2="0.5"></line><text fill="#000" x="-9" y="0.5" dy="0.32em">50</text></g><g class="tick" opacity="1" transform="translate(0,236.0143198090692)"><line stroke="#000" x2="-6" y1="0.5" y2="0.5"></line><text fill="#000" x="-9" y="0.5" dy="0.32em">100</text></g><g class="tick" opacity="1" transform="translate(0,199.0214797136038)"><line stroke="#000" x2="-6" y1="0.5" y2="0.5"></line><text fill="#000" x="-9" y="0.5" dy="0.32em">150</text></g><g class="tick" opacity="1" transform="translate(0,162.02863961813844)"><line stroke="#000" x2="-6" y1="0.5" y2="0.5"></line><text fill="#000" x="-9" y="0.5" dy="0.32em">200</text></g><g class="tick" opacity="1" transform="translate(0,125.03579952267305)"><line stroke="#000" x2="-6" y1="0.5" y2="0.5"></line><text fill="#000" x="-9" y="0.5" dy="0.32em">250</text></g><g class="tick" opacity="1" transform="translate(0,88.04295942720765)"><line stroke="#000" x2="-6" y1="0.5" y2="0.5"></line><text fill="#000" x="-9" y="0.5" dy="0.32em">300</text></g><g class="tick" opacity="1" transform="translate(0,51.05011933174222)"><line stroke="#000" x2="-6" y1="0.5" y2="0.5"></line><text fill="#000" x="-9" y="0.5" dy="0.32em">350</text></g><g class="tick" opacity="1" transform="translate(0,14.057279236276884)"><line stroke="#000" x2="-6" y1="0.5" y2="0.5"></line><text fill="#000" x="-9" y="0.5" dy="0.32em">400</text></g></g></g></svg>