<svg xmlns="http://www.w3.org/2000/svg" width="600" height="350"><defs><style type="text/css"><![CDATA[ 
.bar rect {
  fill-opacity: 0;
  stroke:       black;
  stroke-width: 0.5;
}

.highlight rect {
  fill:       red;
  fill-opacity: 1;
}
.axis path,
.axis line {
  fill: none;
  stroke: #000;
  shape-rendering: crispEdges;
}
 ]]></style></defs><g transform="translate(50,10)"><g class="bar" transform="translate(0,309.2512077294686)"><rect x="1" width="11.999999999999996" height="0.7487922705313963"></rect></g><g class="bar" transform="translate(12.999999999999996,308.5024154589372)"><rect x="1" width="11.999999999999996" height="1.4975845410627926"></rect></g><g class="bar" transform="translate(25.999999999999993,305.5072463768116)"><rect x="1" width="11.999999999999996" height="4.492753623188378"></rect></g><g class="bar" transform="translate(39.00000000000001,295.77294685990336)"><rect x="1" width="11.999999999999996" height="14.227053140096643"></rect></g><g class="bar" transform="translate(52,289.7826086956522)"><rect x="1" width="11.999999999999996" height="20.217391304347814"></rect></g><g class="bar" transform="translate(65,270.31400966183577)"><rect x="1" width="11.999999999999996" height="39.68599033816423"></rect></g><g class="bar" transform="translate(78.00000000000001,244.10628019323673)"><rect x="1" width="11.999999999999996" height="65.89371980676327"></rect></g><g class="bar" transform="translate(91.00000000000001,213.40579710144928)"><rect x="1" width="11.999999999999996" height="96.59420289855072"></rect></g><g class="bar" transform="translate(104,182.70531400966183)"><rect x="1" width="11.999999999999996" height="127.29468599033817"></rect></g><g class="bar" transform="translate(117,150.50724637681162)"><rect x="1" width="11.999999999999996" height="159.49275362318838"></rect></g><g class="bar" transform="translate(130,102.58454106280195)"><rect x="1" width="11.999999999999996" height="207.41545893719805"></rect></g><g class="bar" transform="translate(143,112.31884057971016)"><rect x="1" width="11.999999999999996" height="197.68115942028984"></rect></g><g class="bar" transform="translate(156.00000000000003,116.06280193236714)"><rect x="1" width="11.999999999999996" height="193.93719806763286"></rect></g><g class="bar" transform="translate(169,72.6328502415459)"><rect x="1" width="11.999999999999996" height="237.3671497584541"></rect></g><g class="bar" transform="translate(182.00000000000003,85.36231884057972)"><rect x="1" width="11.999999999999996" height="224.63768115942028"></rect></g><g class="bar" transform="translate(195,82.3671497584541)"><rect x="1" width="11.999999999999996" height="227.6328502415459"></rect></g><g class="bar" transform="translate(208,51.66666666666663)"><rect x="1" width="11.999999999999996" height="258.33333333333337"></rect></g><g class="bar" transform="translate(221.00000000000003,47.17391304347825)"><rect x="1" width="11.999999999999996" height="262.82608695652175"></rect></g><g class="bar" transform="translate(234,3.7439613526570383)"><rect x="1" width="11.999999999999996" height="306.25603864734296"></rect></g><g class="bar" transform="translate(247.00000000000003,0)"><rect x="1" width="11.999999999999996" height="310"></rect></g><g class="bar" transform="translate(260,17.22222222222223)"><rect x="1" width="11.999999999999996" height="292.77777777777777"></rect></g><g class="bar" transform="translate(273,53.16425120772948)"><rect x="1" width="11.999999999999996" height="256.8357487922705"></rect></g><g class="bar" transform="translate(286,77.1256038647343)"><rect x="1" width="11.999999999999996" height="232.8743961352657"></rect></g><g class="bar" transform="translate(299.00000000000006,105.57971014492753)"><rect x="1" width="11.999999999999996" height="204.42028985507247"></rect></g><g class="bar" transform="translate(312.00000000000006,157.9951690821256)"><rect x="1" width="11.999999999999996" height="152.0048309178744"></rect></g><g class="bar" transform="translate(325,226.8840579710145)"><rect x="1" width="11.999999999999996" height="83.1159420289855"></rect></g><g class="bar" transform="translate(338,260.57971014492756)"><rect x="1" width="11.999999999999996" height="49.42028985507244"></rect></g><g class="bar" transform="translate(351,294.27536231884056)"><rect x="1" width="11.999999999999996" height="15.724637681159436"></rect></g><g class="bar" transform="translate(364.00000000000006,306.256038647343)"><rect x="1" width="11.999999999999996" height="3.7439613526569815"></rect></g><g class="bar" transform="translate(377.00000000000006,310)"><rect x="1" width="11.999999999999996" height="0"></rect></g><g class="bar" transform="translate(390,310)"><rect x="1" width="11.999999999999996" height="0"></rect></g><g class="bar" transform="translate(403,310)"><rect x="1" width="11.999999999999996" height="0"></rect></g><g class="bar" transform="translate(416,309.2512077294686)"><rect x="1" width="11.999999999999996" height="0.7487922705313963"></rect></g><g class="bar" transform="translate(429.00000000000006,310)"><rect x="1" width="11.999999999999996" height="0"></rect></g><g class="bar" transform="translate(442.00000000000006,310)"><rect x="1" width="11.999999999999996" height="0"></rect></g><g class="bar" transform="translate(455,310)"><rect x="1" width="11.999999999999996" height="0"></rect></g><g class="bar" transform="translate(468,310)"><rect x="1" width="11.999999999999996" height="0"></rect></g><g class="bar" transform="translate(481,310)"><rect x="1" width="11.999999999999996" height="0"></rect></g><g class="bar" transform="translate(494.00000000000006,310)"><rect x="1" width="11.999999999999996" height="0"></rect></g><g class="bar" transform="translate(507.00000000000006,310)"><rect x="1" width="11.999999999999996" height="0"></rect></g><g class="axis axis--x" transform="translate(0,310)" fill="none" font-size="10" font-family="sans-serif" text-anchor="middle"><path class="domain" stroke="#000" d="M0.5,6V0.5H520.5V6"></path><g class="tick" opacity="1" transform="translate(0,0)"><line stroke="#000" y2="6" x1="0.5" x2="0.5"></line><text fill="#000" y="9" x="0.5" dy="0.71em">0.01</text></g><g class="tick" opacity="1" transform="translate(130,0)"><line stroke="#000" y2="6" x1="0.5" x2="0.5"></line><text fill="#000" y="9" x="0.5" dy="0.71em">1</text></g><g class="tick" opacity="1" transform="translate(260,0)"><line stroke="#000" y2="6" x1="0.5" x2="0.5"></line><text fill="#000" y="9" x="0.5" dy="0.71em">100</text></g><g class="tick" opacity="1" transform="translate(390,0)"><line stroke="#000" y2="6" x1="0.5" x2="0.5"></line><text fill="#000" y="9" x="0.5" dy="0.71em">10000</text></g><g class="tick" opacity="1" transform="translate(520,0)"><line stroke="#000" y2="6" x1="0.5" x2="0.5"></line><text fill="#000" y="9" x="0.5" dy="0.71em"></text></g></g><g class="axis axis--y" fill="none" font-size="10" font-family="sans-serif" text-anchor="end"><path class="domain" stroke="#000" d="M-6,310.5H0.5V0.5H-6"></path><g class="tick" opacity="1" transform="translate(0,310)"><line stroke="#000" x2="-6" y1="0.5" y2="0.5"></line><text fill="#000" x="-9" y="0.5" dy="0.32em">0</text></g><g class="tick" opacity="1" transform="translate(0,272.56038647342996)"><line stroke="#000" x2="-6" y1="0.5" y2="0.5"></line><text fill="#000" x="-9" y="0.5" dy="0.32em">50</text></g><g class="tick" opacity="1" transform="translate(0,235.12077294685992)"><line stroke="#000" x2="-6" y1="0.5" y2="0.5"></line><text fill="#000" x="-9" y="0.5" dy="0.32em">100</text></g><g class="tick" opacity="1" transform="translate(0,197.68115942028987)"><line stroke="#000" x2="-6" y1="0.5" y2="0.5"></line><text fill="#000" x="-9" y="0.5" dy="0.32em">150</text></g><g class="tick" opacity="1" transform="translate(0,160.2415458937198)"><line stroke="#000" x2="-6" y1="0.5" y2="0.5"></line><text fill="#000" x="-9" y="0.5" dy="0.32em">200</text></g><g class="tick" opacity="1" transform="translate(0,122.80193236714976)"><line stroke="#000" x2="-6" y1="0.5" y2="0.5"></line><text fill="#000" x="-9" y="0.5" dy="0.32em">250</text></g><g class="tick" opacity="1" transform="translate(0,85.36231884057972)"><line stroke="#000" x2="-6" y1="0.5" y2="0.5"></line><text fill="#000" x="-9" y="0.5" dy="0.32em">300</text></g><g class="tick" opacity="1" transform="translate(0,47.92270531400965)"><line stroke="#000" x2="-6" y1="0.5" y2="0.5"></line><text fill="#000" x="-9" y="0.5" dy="0.32em">350</text></g><g class="tick" opacity="1" transform="translate(0,10.483091787439605)"><line stroke="#000" x2="-6" y1="0.5" y2="0.5"></line><text fill="#000" x="-9" y="0.5" dy="0.32em">400</text></g></g></g></svg>