<svg xmlns="http://www.w3.org/2000/svg" width="280" height="160"><defs><style type="text/css"><![CDATA[ 
.bar rect {
  fill-opacity: 0;
  stroke:       black;
  stroke-width: 0.5;
}

.highlight rect {
  fill:       red;
  fill-opacity: 1;
}
.axis path,
.axis line {
  fill: none;
  stroke: #000;
  shape-rendering: crispEdges;
}
 ]]></style></defs><g transform="translate(50,10)"><g class="bar" transform="translate(0,120)"><rect x="1" width="11.5" height="0"></rect></g><g class="bar" transform="translate(12.5,120)"><rect x="1" width="11.5" height="0"></rect></g><g class="bar" transform="translate(25,119.15343915343915)"><rect x="1" width="11.5" height="0.8465608465608483"></rect></g><g class="bar" transform="translate(37.5,113.86243386243386)"><rect x="1" width="11.5" height="6.1375661375661394"></rect></g><g class="bar" transform="translate(50,99.36507936507937)"><rect x="1" width="11.5" height="20.634920634920633"></rect></g><g class="bar" transform="translate(62.5,60.952380952380956)"><rect x="1" width="11.5" height="59.047619047619044"></rect></g><g class="bar" transform="translate(75,16.08465608465609)"><rect x="1" width="11.5" height="103.91534391534391"></rect></g><g class="bar" transform="translate(87.5,0)"><rect x="1" width="11.5" height="120"></rect></g><g class="bar" transform="translate(100,14.92063492063491)"><rect x="1" width="11.5" height="105.07936507936509"></rect></g><g class="bar" transform="translate(112.5,75.87301587301587)"><rect x="1" width="11.5" height="44.12698412698413"></rect></g><g class="bar" transform="translate(125,105.82010582010582)"><rect x="1" width="11.5" height="14.179894179894177"></rect></g><g class="bar" transform="translate(137.5,117.77777777777777)"><rect x="1" width="11.5" height="2.2222222222222285"></rect></g><g class="bar" transform="translate(150,118.94179894179894)"><rect x="1" width="11.5" height="1.058201058201064"></rect></g><g class="bar" transform="translate(162.5,120)"><rect x="1" width="11.5" height="0"></rect></g><g class="bar" transform="translate(175,120)"><rect x="1" width="11.5" height="0"></rect></g><g class="bar" transform="translate(187.5,120)"><rect x="1" width="11.5" height="0"></rect></g></g></svg>