<svg xmlns="http://www.w3.org/2000/svg" width="600" height="350"><defs><style type="text/css"><![CDATA[ 
.bar rect {
  fill-opacity: 0;
  stroke:       black;
  stroke-width: 0.5;
}

.highlight rect {
  fill:       red;
  fill-opacity: 1;
}
.axis path,
.axis line {
  fill: none;
  stroke: #000;
  shape-rendering: crispEdges;
}
 ]]></style></defs><g transform="translate(50,10)"><g class="bar" transform="translate(0,310)"><rect x="1" width="11.999999999999996" height="0"></rect></g><g class="bar" transform="translate(12.999999999999996,310)"><rect x="1" width="11.999999999999996" height="0"></rect></g><g class="bar" transform="translate(25.999999999999993,310)"><rect x="1" width="11.999999999999996" height="0"></rect></g><g class="bar" transform="translate(39.00000000000001,310)"><rect x="1" width="11.999999999999996" height="0"></rect></g><g class="bar" transform="translate(52,310)"><rect x="1" width="11.999999999999996" height="0"></rect></g><g class="bar" transform="translate(65,309.3501048218029)"><rect x="1" width="11.999999999999996" height="0.6498951781970845"></rect></g><g class="bar" transform="translate(78.00000000000001,309.3501048218029)"><rect x="1" width="11.999999999999996" height="0.6498951781970845"></rect></g><g class="bar" transform="translate(91.00000000000001,300.9014675052411)"><rect x="1" width="11.999999999999996" height="9.0985324947589"></rect></g><g class="bar" transform="translate(104,302.2012578616352)"><rect x="1" width="11.999999999999996" height="7.798742138364787"></rect></g><g class="bar" transform="translate(117,285.3039832285115)"><rect x="1" width="11.999999999999996" height="24.696016771488473"></rect></g><g class="bar" transform="translate(130,283.35429769392033)"><rect x="1" width="11.999999999999996" height="26.64570230607967"></rect></g><g class="bar" transform="translate(143,257.35849056603774)"><rect x="1" width="11.999999999999996" height="52.641509433962256"></rect></g><g class="bar" transform="translate(156.00000000000003,204.7169811320755)"><rect x="1" width="11.999999999999996" height="105.28301886792451"></rect></g><g class="bar" transform="translate(169,183.9203354297694)"><rect x="1" width="11.999999999999996" height="126.07966457023059"></rect></g><g class="bar" transform="translate(182.00000000000003,131.27882599580715)"><rect x="1" width="11.999999999999996" height="178.72117400419285"></rect></g><g class="bar" transform="translate(195,63.039832285115295)"><rect x="1" width="11.999999999999996" height="246.9601677148847"></rect></g><g class="bar" transform="translate(208,68.2389937106918)"><rect x="1" width="11.999999999999996" height="241.7610062893082"></rect></g><g class="bar" transform="translate(221.00000000000003,7.1488469601677025)"><rect x="1" width="11.999999999999996" height="302.8511530398323"></rect></g><g class="bar" transform="translate(234,23.39622641509436)"><rect x="1" width="11.999999999999996" height="286.60377358490564"></rect></g><g class="bar" transform="translate(247.00000000000003,12.997903563941293)"><rect x="1" width="11.999999999999996" height="297.0020964360587"></rect></g><g class="bar" transform="translate(260,0)"><rect x="1" width="11.999999999999996" height="310"></rect></g><g class="bar" transform="translate(273,77.33752620545073)"><rect x="1" width="11.999999999999996" height="232.66247379454927"></rect></g><g class="bar" transform="translate(286,129.32914046121596)"><rect x="1" width="11.999999999999996" height="180.67085953878404"></rect></g><g class="bar" transform="translate(299.00000000000006,186.51991614255763)"><rect x="1" width="11.999999999999996" height="123.48008385744237"></rect></g><g class="bar" transform="translate(312.00000000000006,240.46121593291406)"><rect x="1" width="11.999999999999996" height="69.53878406708594"></rect></g><g class="bar" transform="translate(325,264.50733752620545)"><rect x="1" width="11.999999999999996" height="45.49266247379455"></rect></g><g class="bar" transform="translate(338,278.80503144654085)"><rect x="1" width="11.999999999999996" height="31.194968553459148"></rect></g><g class="bar" transform="translate(351,293.1027253668763)"><rect x="1" width="11.999999999999996" height="16.897274633123686"></rect></g><g class="bar" transform="translate(364.00000000000006,307.4004192872117)"><rect x="1" width="11.999999999999996" height="2.5995807127882813"></rect></g><g class="bar" transform="translate(377.00000000000006,305.4507337526205)"><rect x="1" width="11.999999999999996" height="4.549266247379478"></rect></g><g class="bar" transform="translate(390,306.7505241090147)"><rect x="1" width="11.999999999999996" height="3.249475890985309"></rect></g><g class="bar" transform="translate(403,308.0503144654088)"><rect x="1" width="11.999999999999996" height="1.9496855345911968"></rect></g><g class="bar" transform="translate(416,308.7002096436059)"><rect x="1" width="11.999999999999996" height="1.2997903563941122"></rect></g><g class="bar" transform="translate(429.00000000000006,310)"><rect x="1" width="11.999999999999996" height="0"></rect></g><g class="bar" transform="translate(442.00000000000006,310)"><rect x="1" width="11.999999999999996" height="0"></rect></g><g class="bar" transform="translate(455,310)"><rect x="1" width="11.999999999999996" height="0"></rect></g><g class="bar" transform="translate(468,310)"><rect x="1" width="11.999999999999996" height="0"></rect></g><g class="bar" transform="translate(481,310)"><rect x="1" width="11.999999999999996" height="0"></rect></g><g class="bar" transform="translate(494.00000000000006,310)"><rect x="1" width="11.999999999999996" height="0"></rect></g><g class="bar" transform="translate(507.00000000000006,310)"><rect x="1" width="11.999999999999996" height="0"></rect></g><g class="axis axis--x" transform="translate(0,310)" fill="none" font-size="10" font-family="sans-serif" text-anchor="middle"><path class="domain" stroke="#000" d="M0.5,6V0.5H520.5V6"></path><g class="tick" opacity="1" transform="translate(0,0)"><line stroke="#000" y2="6" x1="0.5" x2="0.5"></line><text fill="#000" y="9" x="0.5" dy="0.71em">0.01</text></g><g class="tick" opacity="1" transform="translate(130,0)"><line stroke="#000" y2="6" x1="0.5" x2="0.5"></line><text fill="#000" y="9" x="0.5" dy="0.71em">1</text></g><g class="tick" opacity="1" transform="translate(260,0)"><line stroke="#000" y2="6" x1="0.5" x2="0.5"></line><text fill="#000" y="9" x="0.5" dy="0.71em">100</text></g><g class="tick" opacity="1" transform="translate(390,0)"><line stroke="#000" y2="6" x1="0.5" x2="0.5"></line><text fill="#000" y="9" x="0.5" dy="0.71em">10000</text></g><g class="tick" opacity="1" transform="translate(520,0)"><line stroke="#000" y2="6" x1="0.5" x2="0.5"></line><text fill="#000" y="9" x="0.5" dy="0.71em"></text></g></g><g class="axis axis--y" fill="none" font-size="10" font-family="sans-serif" text-anchor="end"><path class="domain" stroke="#000" d="M-6,310.5H0.5V0.5H-6"></path><g class="tick" opacity="1" transform="translate(0,310)"><line stroke="#000" x2="-6" y1="0.5" y2="0.5"></line><text fill="#000" x="-9" y="0.5" dy="0.32em">0</text></g><g class="tick" opacity="1" transform="translate(0,277.50524109014674)"><line stroke="#000" x2="-6" y1="0.5" y2="0.5"></line><text fill="#000" x="-9" y="0.5" dy="0.32em">50</text></g><g class="tick" opacity="1" transform="translate(0,245.0104821802935)"><line stroke="#000" x2="-6" y1="0.5" y2="0.5"></line><text fill="#000" x="-9" y="0.5" dy="0.32em">100</text></g><g class="tick" opacity="1" transform="translate(0,212.51572327044028)"><line stroke="#000" x2="-6" y1="0.5" y2="0.5"></line><text fill="#000" x="-9" y="0.5" dy="0.32em">150</text></g><g class="tick" opacity="1" transform="translate(0,180.02096436058702)"><line stroke="#000" x2="-6" y1="0.5" y2="0.5"></line><text fill="#000" x="-9" y="0.5" dy="0.32em">200</text></g><g class="tick" opacity="1" transform="translate(0,147.52620545073376)"><line stroke="#000" x2="-6" y1="0.5" y2="0.5"></line><text fill="#000" x="-9" y="0.5" dy="0.32em">250</text></g><g class="tick" opacity="1" transform="translate(0,115.03144654088052)"><line stroke="#000" x2="-6" y1="0.5" y2="0.5"></line><text fill="#000" x="-9" y="0.5" dy="0.32em">300</text></g><g class="tick" opacity="1" transform="translate(0,82.53668763102723)"><line stroke="#000" x2="-6" y1="0.5" y2="0.5"></line><text fill="#000" x="-9" y="0.5" dy="0.32em">350</text></g><g class="tick" opacity="1" transform="translate(0,50.04192872117403)"><line stroke="#000" x2="-6" y1="0.5" y2="0.5"></line><text fill="#000" x="-9" y="0.5" dy="0.32em">400</text></g><g class="tick" opacity="1" transform="translate(0,17.54716981132077)"><line stroke="#000" x2="-6" y1="0.5" y2="0.5"></line><text fill="#000" x="-9" y="0.5" dy="0.32em">450</text></g></g></g></svg>