<svg xmlns="http://www.w3.org/2000/svg" width="280" height="160"><defs><style type="text/css"><![CDATA[ 
.bar rect {
  fill-opacity: 0;
  stroke:       black;
  stroke-width: 0.5;
}

.highlight rect {
  fill:       red;
  fill-opacity: 1;
}
.axis path,
.axis line {
  fill: none;
  stroke: #000;
  shape-rendering: crispEdges;
}
 ]]></style></defs><g transform="translate(50,10)"><g class="bar" transform="translate(0,114.20289855072464)"><rect x="1" width="11.5" height="5.79710144927536"></rect></g><g class="bar" transform="translate(12.5,85.87991718426501)"><rect x="1" width="11.5" height="34.12008281573499"></rect></g><g class="bar" transform="translate(25,54.98964803312629)"><rect x="1" width="11.5" height="65.01035196687371"></rect></g><g class="bar" transform="translate(37.5,48.364389233954455)"><rect x="1" width="11.5" height="71.63561076604555"></rect></g><g class="bar" transform="translate(50,34.61697722567287)"><rect x="1" width="11.5" height="85.38302277432713"></rect></g><g class="bar" transform="translate(62.5,17.474120082815745)"><rect x="1" width="11.5" height="102.52587991718426"></rect></g><g class="bar" transform="translate(75,0)"><rect x="1" width="11.5" height="120"></rect></g><g class="bar" transform="translate(87.5,8.447204968944092)"><rect x="1" width="11.5" height="111.55279503105591"></rect></g><g class="bar" transform="translate(100,36.85300207039337)"><rect x="1" width="11.5" height="83.14699792960663"></rect></g><g class="bar" transform="translate(112.5,79.25465838509317)"><rect x="1" width="11.5" height="40.745341614906835"></rect></g><g class="bar" transform="translate(125,104.51345755693582)"><rect x="1" width="11.5" height="15.486542443064181"></rect></g><g class="bar" transform="translate(137.5,118.17805383022774)"><rect x="1" width="11.5" height="1.8219461697722608"></rect></g><g class="bar" transform="translate(150,119.75155279503106)"><rect x="1" width="11.5" height="0.24844720496894013"></rect></g><g class="bar" transform="translate(162.5,120)"><rect x="1" width="11.5" height="0"></rect></g><g class="bar" transform="translate(175,120)"><rect x="1" width="11.5" height="0"></rect></g><g class="bar" transform="translate(187.5,120)"><rect x="1" width="11.5" height="0"></rect></g></g></svg>