<svg xmlns="http://www.w3.org/2000/svg" width="600" height="350"><defs><style type="text/css"><![CDATA[ 
.bar rect {
  fill-opacity: 0;
  stroke:       black;
  stroke-width: 0.5;
}

.highlight rect {
  fill:       red;
  fill-opacity: 1;
}
.axis path,
.axis line {
  fill: none;
  stroke: #000;
  shape-rendering: crispEdges;
}
 ]]></style></defs><g transform="translate(50,10)"><g class="bar" transform="translate(0,302.8618421052632)"><rect x="1" width="11.999999999999996" height="7.138157894736821"></rect></g><g class="bar" transform="translate(12.999999999999996,292.6644736842105)"><rect x="1" width="11.999999999999996" height="17.33552631578948"></rect></g><g class="bar" transform="translate(25.999999999999993,268.1907894736842)"><rect x="1" width="11.999999999999996" height="41.80921052631578"></rect></g><g class="bar" transform="translate(39.00000000000001,238.61842105263156)"><rect x="1" width="11.999999999999996" height="71.38157894736844"></rect></g><g class="bar" transform="translate(52,201.9078947368421)"><rect x="1" width="11.999999999999996" height="108.09210526315789"></rect></g><g class="bar" transform="translate(65,166.72697368421052)"><rect x="1" width="11.999999999999996" height="143.27302631578948"></rect></g><g class="bar" transform="translate(78.00000000000001,140.21381578947367)"><rect x="1" width="11.999999999999996" height="169.78618421052633"></rect></g><g class="bar" transform="translate(91.00000000000001,150.92105263157893)"><rect x="1" width="11.999999999999996" height="159.07894736842107"></rect></g><g class="bar" transform="translate(104,126.44736842105266)"><rect x="1" width="11.999999999999996" height="183.55263157894734"></rect></g><g class="bar" transform="translate(117,124.40789473684211)"><rect x="1" width="11.999999999999996" height="185.5921052631579"></rect></g><g class="bar" transform="translate(130,121.34868421052633)"><rect x="1" width="11.999999999999996" height="188.65131578947367"></rect></g><g class="bar" transform="translate(143,100.95394736842107)"><rect x="1" width="11.999999999999996" height="209.04605263157893"></rect></g><g class="bar" transform="translate(156.00000000000003,62.71381578947367)"><rect x="1" width="11.999999999999996" height="247.28618421052633"></rect></g><g class="bar" transform="translate(169,54.04605263157893)"><rect x="1" width="11.999999999999996" height="255.95394736842107"></rect></g><g class="bar" transform="translate(182.00000000000003,54.04605263157893)"><rect x="1" width="11.999999999999996" height="255.95394736842107"></rect></g><g class="bar" transform="translate(195,32.63157894736844)"><rect x="1" width="11.999999999999996" height="277.36842105263156"></rect></g><g class="bar" transform="translate(208,0)"><rect x="1" width="11.999999999999996" height="310"></rect></g><g class="bar" transform="translate(221.00000000000003,1.0197368421052602)"><rect x="1" width="11.999999999999996" height="308.98026315789474"></rect></g><g class="bar" transform="translate(234,26.51315789473682)"><rect x="1" width="11.999999999999996" height="283.4868421052632"></rect></g><g class="bar" transform="translate(247.00000000000003,64.24342105263159)"><rect x="1" width="11.999999999999996" height="245.7565789473684"></rect></g><g class="bar" transform="translate(260,74.44078947368422)"><rect x="1" width="11.999999999999996" height="235.55921052631578"></rect></g><g class="bar" transform="translate(273,114.21052631578948)"><rect x="1" width="11.999999999999996" height="195.78947368421052"></rect></g><g class="bar" transform="translate(286,164.17763157894737)"><rect x="1" width="11.999999999999996" height="145.82236842105263"></rect></g><g class="bar" transform="translate(299.00000000000006,200.88815789473682)"><rect x="1" width="11.999999999999996" height="109.11184210526318"></rect></g><g class="bar" transform="translate(312.00000000000006,233.51973684210526)"><rect x="1" width="11.999999999999996" height="76.48026315789474"></rect></g><g class="bar" transform="translate(325,250.85526315789474)"><rect x="1" width="11.999999999999996" height="59.14473684210526"></rect></g><g class="bar" transform="translate(338,279.91776315789474)"><rect x="1" width="11.999999999999996" height="30.08223684210526"></rect></g><g class="bar" transform="translate(351,301.8421052631579)"><rect x="1" width="11.999999999999996" height="8.157894736842081"></rect></g><g class="bar" transform="translate(364.00000000000006,302.8618421052632)"><rect x="1" width="11.999999999999996" height="7.138157894736821"></rect></g><g class="bar" transform="translate(377.00000000000006,307.9605263157895)"><rect x="1" width="11.999999999999996" height="2.0394736842105203"></rect></g><g class="bar" transform="translate(390,308.4703947368421)"><rect x="1" width="11.999999999999996" height="1.5296052631579187"></rect></g><g class="bar" transform="translate(403,310)"><rect x="1" width="11.999999999999996" height="0"></rect></g><g class="bar" transform="translate(416,310)"><rect x="1" width="11.999999999999996" height="0"></rect></g><g class="bar" transform="translate(429.00000000000006,310)"><rect x="1" width="11.999999999999996" height="0"></rect></g><g class="bar" transform="translate(442.00000000000006,310)"><rect x="1" width="11.999999999999996" height="0"></rect></g><g class="bar" transform="translate(455,310)"><rect x="1" width="11.999999999999996" height="0"></rect></g><g class="bar" transform="translate(468,310)"><rect x="1" width="11.999999999999996" height="0"></rect></g><g class="bar" transform="translate(481,310)"><rect x="1" width="11.999999999999996" height="0"></rect></g><g class="bar" transform="translate(494.00000000000006,310)"><rect x="1" width="11.999999999999996" height="0"></rect></g><g class="bar" transform="translate(507.00000000000006,310)"><rect x="1" width="11.999999999999996" height="0"></rect></g><g class="axis axis--x" transform="translate(0,310)" fill="none" font-size="10" font-family="sans-serif" text-anchor="middle"><path class="domain" stroke="#000" d="M0.5,6V0.5H520.5V6"></path><g class="tick" opacity="1" transform="translate(0,0)"><line stroke="#000" y2="6" x1="0.5" x2="0.5"></line><text fill="#000" y="9" x="0.5" dy="0.71em">0.01</text></g><g class="tick" opacity="1" transform="translate(130,0)"><line stroke="#000" y2="6" x1="0.5" x2="0.5"></line><text fill="#000" y="9" x="0.5" dy="0.71em">1</text></g><g class="tick" opacity="1" transform="translate(260,0)"><line stroke="#000" y2="6" x1="0.5" x2="0.5"></line><text fill="#000" y="9" x="0.5" dy="0.71em">100</text></g><g class="tick" opacity="1" transform="translate(390,0)"><line stroke="#000" y2="6" x1="0.5" x2="0.5"></line><text fill="#000" y="9" x="0.5" dy="0.71em">10000</text></g><g class="tick" opacity="1" transform="translate(520,0)"><line stroke="#000" y2="6" x1="0.5" x2="0.5"></line><text fill="#000" y="9" x="0.5" dy="0.71em"></text></g></g><g class="axis axis--y" fill="none" font-size="10" font-family="sans-serif" text-anchor="end"><path class="domain" stroke="#000" d="M-6,310.5H0.5V0.5H-6"></path><g class="tick" opacity="1" transform="translate(0,310)"><line stroke="#000" x2="-6" y1="0.5" y2="0.5"></line><text fill="#000" x="-9" y="0.5" dy="0.32em">0</text></g><g class="tick" opacity="1" transform="translate(0,284.50657894736844)"><line stroke="#000" x2="-6" y1="0.5" y2="0.5"></line><text fill="#000" x="-9" y="0.5" dy="0.32em">50</text></g><g class="tick" opacity="1" transform="translate(0,259.0131578947368)"><line stroke="#000" x2="-6" y1="0.5" y2="0.5"></line><text fill="#000" x="-9" y="0.5" dy="0.32em">100</text></g><g class="tick" opacity="1" transform="translate(0,233.51973684210526)"><line stroke="#000" x2="-6" y1="0.5" y2="0.5"></line><text fill="#000" x="-9" y="0.5" dy="0.32em">150</text></g><g class="tick" opacity="1" transform="translate(0,208.02631578947367)"><line stroke="#000" x2="-6" y1="0.5" y2="0.5"></line><text fill="#000" x="-9" y="0.5" dy="0.32em">200</text></g><g class="tick" opacity="1" transform="translate(0,182.5328947368421)"><line stroke="#000" x2="-6" y1="0.5" y2="0.5"></line><text fill="#000" x="-9" y="0.5" dy="0.32em">250</text></g><g class="tick" opacity="1" transform="translate(0,157.03947368421052)"><line stroke="#000" x2="-6" y1="0.5" y2="0.5"></line><text fill="#000" x="-9" y="0.5" dy="0.32em">300</text></g><g class="tick" opacity="1" transform="translate(0,131.54605263157893)"><line stroke="#000" x2="-6" y1="0.5" y2="0.5"></line><text fill="#000" x="-9" y="0.5" dy="0.32em">350</text></g><g class="tick" opacity="1" transform="translate(0,106.05263157894734)"><line stroke="#000" x2="-6" y1="0.5" y2="0.5"></line><text fill="#000" x="-9" y="0.5" dy="0.32em">400</text></g><g class="tick" opacity="1" transform="translate(0,80.55921052631578)"><line stroke="#000" x2="-6" y1="0.5" y2="0.5"></line><text fill="#000" x="-9" y="0.5" dy="0.32em">450</text></g><g class="tick" opacity="1" transform="translate(0,55.06578947368422)"><line stroke="#000" x2="-6" y1="0.5" y2="0.5"></line><text fill="#000" x="-9" y="0.5" dy="0.32em">500</text></g><g class="tick" opacity="1" transform="translate(0,29.57236842105266)"><line stroke="#000" x2="-6" y1="0.5" y2="0.5"></line><text fill="#000" x="-9" y="0.5" dy="0.32em">550</text></g><g class="tick" opacity="1" transform="translate(0,4.078947368421041)"><line stroke="#000" x2="-6" y1="0.5" y2="0.5"></line><text fill="#000" x="-9" y="0.5" dy="0.32em">600</text></g></g></g></svg>