<svg xmlns="http://www.w3.org/2000/svg" width="600" height="350"><defs><style type="text/css"><![CDATA[ 
.bar rect {
  fill-opacity: 0;
  stroke:       black;
  stroke-width: 0.5;
}

.highlight rect {
  fill:       red;
  fill-opacity: 1;
}
.axis path,
.axis line {
  fill: none;
  stroke: #000;
  shape-rendering: crispEdges;
}
 ]]></style></defs><g transform="translate(50,10)"><g class="bar" transform="translate(0,310)"><rect x="1" width="31.5" height="0"></rect></g><g class="bar" transform="translate(32.5,310)"><rect x="1" width="31.5" height="0"></rect></g><g class="bar" transform="translate(65,310)"><rect x="1" width="31.5" height="0"></rect></g><g class="bar" transform="translate(97.5,305.75342465753425)"><rect x="1" width="31.5" height="4.246575342465746"></rect></g><g class="bar" transform="translate(130,284.52054794520546)"><rect x="1" width="31.5" height="25.479452054794535"></rect></g><g class="bar" transform="translate(162.5,276.027397260274)"><rect x="1" width="31.5" height="33.97260273972603"></rect></g><g class="bar" transform="translate(195,239.93150684931507)"><rect x="1" width="31.5" height="70.06849315068493"></rect></g><g class="bar" transform="translate(227.5,169.86301369863014)"><rect x="1" width="31.5" height="140.13698630136986"></rect></g><g class="bar" transform="translate(260,118.9041095890411)"><rect x="1" width="31.5" height="191.0958904109589"></rect></g><g class="bar" transform="translate(292.5,0)"><rect x="1" width="31.5" height="310"></rect></g><g class="bar" transform="translate(325,140.13698630136986)"><rect x="1" width="31.5" height="169.86301369863014"></rect></g><g class="bar" transform="translate(357.5,212.32876712328766)"><rect x="1" width="31.5" height="97.67123287671234"></rect></g><g class="bar" transform="translate(390,284.52054794520546)"><rect x="1" width="31.5" height="25.479452054794535"></rect></g><g class="bar" transform="translate(422.5,303.63013698630135)"><rect x="1" width="31.5" height="6.369863013698648"></rect></g><g class="bar" transform="translate(455,307.8767123287671)"><rect x="1" width="31.5" height="2.1232876712329016"></rect></g><g class="bar" transform="translate(487.5,310)"><rect x="1" width="31.5" height="0"></rect></g><g class="axis axis--x" transform="translate(0,310)" fill="none" font-size="10" font-family="sans-serif" text-anchor="middle"><path class="domain" stroke="#000" d="M0.5,6V0.5H520.5V6"></path><g class="tick" opacity="1" transform="translate(0,0)"><line stroke="#000" y2="6" x1="0.5" x2="0.5"></line><text fill="#000" y="9" x="0.5" dy="0.71em">0.01</text></g><g class="tick" opacity="1" transform="translate(130,0)"><line stroke="#000" y2="6" x1="0.5" x2="0.5"></line><text fill="#000" y="9" x="0.5" dy="0.71em">1</text></g><g class="tick" opacity="1" transform="translate(260,0)"><line stroke="#000" y2="6" x1="0.5" x2="0.5"></line><text fill="#000" y="9" x="0.5" dy="0.71em">100</text></g><g class="tick" opacity="1" transform="translate(390,0)"><line stroke="#000" y2="6" x1="0.5" x2="0.5"></line><text fill="#000" y="9" x="0.5" dy="0.71em">10000</text></g><g class="tick" opacity="1" transform="translate(520,0)"><line stroke="#000" y2="6" x1="0.5" x2="0.5"></line><text fill="#000" y="9" x="0.5" dy="0.71em"></text></g></g><g class="axis axis--y" fill="none" font-size="10" font-family="sans-serif" text-anchor="end"><path class="domain" stroke="#000" d="M-6,310.5H0.5V0.5H-6"></path><g class="tick" opacity="1" transform="translate(0,310)"><line stroke="#000" x2="-6" y1="0.5" y2="0.5"></line><text fill="#000" x="-9" y="0.5" dy="0.32em">0</text></g><g class="tick" opacity="1" transform="translate(0,267.5342465753425)"><line stroke="#000" x2="-6" y1="0.5" y2="0.5"></line><text fill="#000" x="-9" y="0.5" dy="0.32em">20</text></g><g class="tick" opacity="1" transform="translate(0,225.06849315068493)"><line stroke="#000" x2="-6" y1="0.5" y2="0.5"></line><text fill="#000" x="-9" y="0.5" dy="0.32em">40</text></g><g class="tick" opacity="1" transform="translate(0,182.6027397260274)"><line stroke="#000" x2="-6" y1="0.5" y2="0.5"></line><text fill="#000" x="-9" y="0.5" dy="0.32em">60</text></g><g class="tick" opacity="1" transform="translate(0,140.13698630136986)"><line stroke="#000" x2="-6" y1="0.5" y2="0.5"></line><text fill="#000" x="-9" y="0.5" dy="0.32em">80</text></g><g class="tick" opacity="1" transform="translate(0,97.67123287671234)"><line stroke="#000" x2="-6" y1="0.5" y2="0.5"></line><text fill="#000" x="-9" y="0.5" dy="0.32em">100</text></g><g class="tick" opacity="1" transform="translate(0,55.20547945205482)"><line stroke="#000" x2="-6" y1="0.5" y2="0.5"></line><text fill="#000" x="-9" y="0.5" dy="0.32em">120</text></g><g class="tick" opacity="1" transform="translate(0,12.739726027397296)"><line stroke="#000" x2="-6" y1="0.5" y2="0.5"></line><text fill="#000" x="-9" y="0.5" dy="0.32em">140</text></g></g></g></svg>