<svg xmlns="http://www.w3.org/2000/svg" width="600" height="350"><defs><style type="text/css"><![CDATA[ 
.bar rect {
  fill-opacity: 0;
  stroke:       black;
  stroke-width: 0.5;
}

.highlight rect {
  fill:       red;
  fill-opacity: 1;
}
.axis path,
.axis line {
  fill: none;
  stroke: #000;
  shape-rendering: crispEdges;
}
 ]]></style></defs><g transform="translate(50,10)"><g class="bar" transform="translate(0,310)"><rect x="1" width="11.999999999999996" height="0"></rect></g><g class="bar" transform="translate(12.999999999999996,310)"><rect x="1" width="11.999999999999996" height="0"></rect></g><g class="bar" transform="translate(25.999999999999993,310)"><rect x="1" width="11.999999999999996" height="0"></rect></g><g class="bar" transform="translate(39.00000000000001,310)"><rect x="1" width="11.999999999999996" height="0"></rect></g><g class="bar" transform="translate(52,310)"><rect x="1" width="11.999999999999996" height="0"></rect></g><g class="bar" transform="translate(65,310)"><rect x="1" width="11.999999999999996" height="0"></rect></g><g class="bar" transform="translate(78.00000000000001,310)"><rect x="1" width="11.999999999999996" height="0"></rect></g><g class="bar" transform="translate(91.00000000000001,310)"><rect x="1" width="11.999999999999996" height="0"></rect></g><g class="bar" transform="translate(104,305.75342465753425)"><rect x="1" width="11.999999999999996" height="4.246575342465746"></rect></g><g class="bar" transform="translate(117,299.3835616438356)"><rect x="1" width="11.999999999999996" height="10.616438356164394"></rect></g><g class="bar" transform="translate(130,282.3972602739726)"><rect x="1" width="11.999999999999996" height="27.60273972602738"></rect></g><g class="bar" transform="translate(143,267.5342465753425)"><rect x="1" width="11.999999999999996" height="42.46575342465752"></rect></g><g class="bar" transform="translate(156.00000000000003,261.16438356164383)"><rect x="1" width="11.999999999999996" height="48.83561643835617"></rect></g><g class="bar" transform="translate(169,250.54794520547946)"><rect x="1" width="11.999999999999996" height="59.452054794520535"></rect></g><g class="bar" transform="translate(182.00000000000003,242.05479452054794)"><rect x="1" width="11.999999999999996" height="67.94520547945206"></rect></g><g class="bar" transform="translate(195,220.82191780821918)"><rect x="1" width="11.999999999999996" height="89.17808219178082"></rect></g><g class="bar" transform="translate(208,157.12328767123287)"><rect x="1" width="11.999999999999996" height="152.87671232876713"></rect></g><g class="bar" transform="translate(221.00000000000003,184.72602739726028)"><rect x="1" width="11.999999999999996" height="125.27397260273972"></rect></g><g class="bar" transform="translate(234,165.6164383561644)"><rect x="1" width="11.999999999999996" height="144.3835616438356"></rect></g><g class="bar" transform="translate(247.00000000000003,106.16438356164386)"><rect x="1" width="11.999999999999996" height="203.83561643835614"></rect></g><g class="bar" transform="translate(260,131.64383561643837)"><rect x="1" width="11.999999999999996" height="178.35616438356163"></rect></g><g class="bar" transform="translate(273,108.2876712328767)"><rect x="1" width="11.999999999999996" height="201.7123287671233"></rect></g><g class="bar" transform="translate(286,0)"><rect x="1" width="11.999999999999996" height="310"></rect></g><g class="bar" transform="translate(299.00000000000006,87.05479452054794)"><rect x="1" width="11.999999999999996" height="222.94520547945206"></rect></g><g class="bar" transform="translate(312.00000000000006,57.32876712328766)"><rect x="1" width="11.999999999999996" height="252.67123287671234"></rect></g><g class="bar" transform="translate(325,167.73972602739727)"><rect x="1" width="11.999999999999996" height="142.26027397260273"></rect></g><g class="bar" transform="translate(338,225.06849315068493)"><rect x="1" width="11.999999999999996" height="84.93150684931507"></rect></g><g class="bar" transform="translate(351,254.7945205479452)"><rect x="1" width="11.999999999999996" height="55.20547945205479"></rect></g><g class="bar" transform="translate(364.00000000000006,269.6575342465753)"><rect x="1" width="11.999999999999996" height="40.342465753424676"></rect></g><g class="bar" transform="translate(377.00000000000006,269.6575342465753)"><rect x="1" width="11.999999999999996" height="40.342465753424676"></rect></g><g class="bar" transform="translate(390,290.8904109589041)"><rect x="1" width="11.999999999999996" height="19.109589041095887"></rect></g><g class="bar" transform="translate(403,295.13698630136986)"><rect x="1" width="11.999999999999996" height="14.86301369863014"></rect></g><g class="bar" transform="translate(416,307.8767123287671)"><rect x="1" width="11.999999999999996" height="2.1232876712329016"></rect></g><g class="bar" transform="translate(429.00000000000006,310)"><rect x="1" width="11.999999999999996" height="0"></rect></g><g class="bar" transform="translate(442.00000000000006,310)"><rect x="1" width="11.999999999999996" height="0"></rect></g><g class="bar" transform="translate(455,310)"><rect x="1" width="11.999999999999996" height="0"></rect></g><g class="bar" transform="translate(468,310)"><rect x="1" width="11.999999999999996" height="0"></rect></g><g class="bar" transform="translate(481,310)"><rect x="1" width="11.999999999999996" height="0"></rect></g><g class="bar" transform="translate(494.00000000000006,310)"><rect x="1" width="11.999999999999996" height="0"></rect></g><g class="bar" transform="translate(507.00000000000006,310)"><rect x="1" width="11.999999999999996" height="0"></rect></g><g class="axis axis--x" transform="translate(0,310)" fill="none" font-size="10" font-family="sans-serif" text-anchor="middle"><path class="domain" stroke="#000" d="M0.5,6V0.5H520.5V6"></path><g class="tick" opacity="1" transform="translate(0,0)"><line stroke="#000" y2="6" x1="0.5" x2="0.5"></line><text fill="#000" y="9" x="0.5" dy="0.71em">0.01</text></g><g class="tick" opacity="1" transform="translate(130,0)"><line stroke="#000" y2="6" x1="0.5" x2="0.5"></line><text fill="#000" y="9" x="0.5" dy="0.71em">1</text></g><g class="tick" opacity="1" transform="translate(260,0)"><line stroke="#000" y2="6" x1="0.5" x2="0.5"></line><text fill="#000" y="9" x="0.5" dy="0.71em">100</text></g><g class="tick" opacity="1" transform="translate(390,0)"><line stroke="#000" y2="6" x1="0.5" x2="0.5"></line><text fill="#000" y="9" x="0.5" dy="0.71em">10000</text></g><g class="tick" opacity="1" transform="translate(520,0)"><line stroke="#000" y2="6" x1="0.5" x2="0.5"></line><text fill="#000" y="9" x="0.5" dy="0.71em"></text></g></g><g class="axis axis--y" fill="none" font-size="10" font-family="sans-serif" text-anchor="end"><path class="domain" stroke="#000" d="M-6,310.5H0.5V0.5H-6"></path><g class="tick" opacity="1" transform="translate(0,310)"><line stroke="#000" x2="-6" y1="0.5" y2="0.5"></line><text fill="#000" x="-9" y="0.5" dy="0.32em">0</text></g><g class="tick" opacity="1" transform="translate(0,267.5342465753425)"><line stroke="#000" x2="-6" y1="0.5" y2="0.5"></line><text fill="#000" x="-9" y="0.5" dy="0.32em">20</text></g><g class="tick" opacity="1" transform="translate(0,225.06849315068493)"><line stroke="#000" x2="-6" y1="0.5" y2="0.5"></line><text fill="#000" x="-9" y="0.5" dy="0.32em">40</text></g><g class="tick" opacity="1" transform="translate(0,182.6027397260274)"><line stroke="#000" x2="-6" y1="0.5" y2="0.5"></line><text fill="#000" x="-9" y="0.5" dy="0.32em">60</text></g><g class="tick" opacity="1" transform="translate(0,140.13698630136986)"><line stroke="#000" x2="-6" y1="0.5" y2="0.5"></line><text fill="#000" x="-9" y="0.5" dy="0.32em">80</text></g><g class="tick" opacity="1" transform="translate(0,97.67123287671234)"><line stroke="#000" x2="-6" y1="0.5" y2="0.5"></line><text fill="#000" x="-9" y="0.5" dy="0.32em">100</text></g><g class="tick" opacity="1" transform="translate(0,55.20547945205482)"><line stroke="#000" x2="-6" y1="0.5" y2="0.5"></line><text fill="#000" x="-9" y="0.5" dy="0.32em">120</text></g><g class="tick" opacity="1" transform="translate(0,12.739726027397296)"><line stroke="#000" x2="-6" y1="0.5" y2="0.5"></line><text fill="#000" x="-9" y="0.5" dy="0.32em">140</text></g></g></g></svg>