<svg xmlns="http://www.w3.org/2000/svg" width="280" height="160"><defs><style type="text/css"><![CDATA[ 
.bar rect {
  fill-opacity: 0;
  stroke:       black;
  stroke-width: 0.5;
}

.highlight rect {
  fill:       red;
  fill-opacity: 1;
}
.axis path,
.axis line {
  fill: none;
  stroke: #000;
  shape-rendering: crispEdges;
}
 ]]></style></defs><g transform="translate(50,10)"><g class="bar" transform="translate(0,120)"><rect x="1" width="11.5" height="0"></rect></g><g class="bar" transform="translate(12.5,119.8972602739726)"><rect x="1" width="11.5" height="0.10273972602739434"></rect></g><g class="bar" transform="translate(25,118.35616438356165)"><rect x="1" width="11.5" height="1.643835616438352"></rect></g><g class="bar" transform="translate(37.5,112.08904109589041)"><rect x="1" width="11.5" height="7.910958904109592"></rect></g><g class="bar" transform="translate(50,94.10958904109589)"><rect x="1" width="11.5" height="25.890410958904113"></rect></g><g class="bar" transform="translate(62.5,56.5068493150685)"><rect x="1" width="11.5" height="63.4931506849315"></rect></g><g class="bar" transform="translate(75,16.33561643835617)"><rect x="1" width="11.5" height="103.66438356164383"></rect></g><g class="bar" transform="translate(87.5,0)"><rect x="1" width="11.5" height="120"></rect></g><g class="bar" transform="translate(100,12.945205479452056)"><rect x="1" width="11.5" height="107.05479452054794"></rect></g><g class="bar" transform="translate(112.5,70.17123287671232)"><rect x="1" width="11.5" height="49.828767123287676"></rect></g><g class="bar" transform="translate(125,107.15753424657534)"><rect x="1" width="11.5" height="12.842465753424662"></rect></g><g class="bar" transform="translate(137.5,117.73972602739727)"><rect x="1" width="11.5" height="2.2602739726027323"></rect></g><g class="bar" transform="translate(150,119.38356164383562)"><rect x="1" width="11.5" height="0.6164383561643803"></rect></g><g class="bar" transform="translate(162.5,119.8972602739726)"><rect x="1" width="11.5" height="0.10273972602739434"></rect></g><g class="bar" transform="translate(175,120)"><rect x="1" width="11.5" height="0"></rect></g><g class="bar" transform="translate(187.5,120)"><rect x="1" width="11.5" height="0"></rect></g></g></svg>