<svg xmlns="http://www.w3.org/2000/svg" width="600" height="350"><defs><style type="text/css"><![CDATA[ 
.bar rect {
  fill-opacity: 0;
  stroke:       black;
  stroke-width: 0.5;
}

.highlight rect {
  fill:       red;
  fill-opacity: 1;
}
.axis path,
.axis line {
  fill: none;
  stroke: #000;
  shape-rendering: crispEdges;
}
 ]]></style></defs><g transform="translate(50,10)"><g class="bar" transform="translate(0,310)"><rect x="1" width="11.999999999999996" height="0"></rect></g><g class="bar" transform="translate(12.999999999999996,310)"><rect x="1" width="11.999999999999996" height="0"></rect></g><g class="bar" transform="translate(25.999999999999993,310)"><rect x="1" width="11.999999999999996" height="0"></rect></g><g class="bar" transform="translate(39.00000000000001,310)"><rect x="1" width="11.999999999999996" height="0"></rect></g><g class="bar" transform="translate(52,310)"><rect x="1" width="11.999999999999996" height="0"></rect></g><g class="bar" transform="translate(65,305.2490421455939)"><rect x="1" width="11.999999999999996" height="4.750957854406124"></rect></g><g class="bar" transform="translate(78.00000000000001,302.8735632183908)"><rect x="1" width="11.999999999999996" height="7.126436781609186"></rect></g><g class="bar" transform="translate(91.00000000000001,296.93486590038316)"><rect x="1" width="11.999999999999996" height="13.065134099616841"></rect></g><g class="bar" transform="translate(104,286.2452107279694)"><rect x="1" width="11.999999999999996" height="23.75478927203062"></rect></g><g class="bar" transform="translate(117,269.6168582375479)"><rect x="1" width="11.999999999999996" height="40.38314176245211"></rect></g><g class="bar" transform="translate(130,243.48659003831418)"><rect x="1" width="11.999999999999996" height="66.51340996168582"></rect></g><g class="bar" transform="translate(143,198.35249042145594)"><rect x="1" width="11.999999999999996" height="111.64750957854406"></rect></g><g class="bar" transform="translate(156.00000000000003,147.27969348659005)"><rect x="1" width="11.999999999999996" height="162.72030651340995"></rect></g><g class="bar" transform="translate(169,85.51724137931035)"><rect x="1" width="11.999999999999996" height="224.48275862068965"></rect></g><g class="bar" transform="translate(182.00000000000003,55.823754789272016)"><rect x="1" width="11.999999999999996" height="254.17624521072798"></rect></g><g class="bar" transform="translate(195,9.501915708812248)"><rect x="1" width="11.999999999999996" height="300.49808429118775"></rect></g><g class="bar" transform="translate(208,40.38314176245211)"><rect x="1" width="11.999999999999996" height="269.6168582375479"></rect></g><g class="bar" transform="translate(221.00000000000003,26.13026819923374)"><rect x="1" width="11.999999999999996" height="283.86973180076626"></rect></g><g class="bar" transform="translate(234,0)"><rect x="1" width="11.999999999999996" height="310"></rect></g><g class="bar" transform="translate(247.00000000000003,57.011494252873575)"><rect x="1" width="11.999999999999996" height="252.98850574712642"></rect></g><g class="bar" transform="translate(260,76.01532567049807)"><rect x="1" width="11.999999999999996" height="233.98467432950193"></rect></g><g class="bar" transform="translate(273,81.95402298850576)"><rect x="1" width="11.999999999999996" height="228.04597701149424"></rect></g><g class="bar" transform="translate(286,117.58620689655172)"><rect x="1" width="11.999999999999996" height="192.41379310344828"></rect></g><g class="bar" transform="translate(299.00000000000006,150.84291187739464)"><rect x="1" width="11.999999999999996" height="159.15708812260536"></rect></g><g class="bar" transform="translate(312.00000000000006,217.35632183908046)"><rect x="1" width="11.999999999999996" height="92.64367816091954"></rect></g><g class="bar" transform="translate(325,228.04597701149424)"><rect x="1" width="11.999999999999996" height="81.95402298850576"></rect></g><g class="bar" transform="translate(338,252.98850574712645)"><rect x="1" width="11.999999999999996" height="57.01149425287355"></rect></g><g class="bar" transform="translate(351,261.30268199233717)"><rect x="1" width="11.999999999999996" height="48.69731800766283"></rect></g><g class="bar" transform="translate(364.00000000000006,285.0574712643678)"><rect x="1" width="11.999999999999996" height="24.94252873563221"></rect></g><g class="bar" transform="translate(377.00000000000006,302.8735632183908)"><rect x="1" width="11.999999999999996" height="7.126436781609186"></rect></g><g class="bar" transform="translate(390,306.4367816091954)"><rect x="1" width="11.999999999999996" height="3.563218390804593"></rect></g><g class="bar" transform="translate(403,300.49808429118775)"><rect x="1" width="11.999999999999996" height="9.501915708812248"></rect></g><g class="bar" transform="translate(416,307.62452107279694)"><rect x="1" width="11.999999999999996" height="2.375478927203062"></rect></g><g class="bar" transform="translate(429.00000000000006,310)"><rect x="1" width="11.999999999999996" height="0"></rect></g><g class="bar" transform="translate(442.00000000000006,310)"><rect x="1" width="11.999999999999996" height="0"></rect></g><g class="bar" transform="translate(455,310)"><rect x="1" width="11.999999999999996" height="0"></rect></g><g class="bar" transform="translate(468,310)"><rect x="1" width="11.999999999999996" height="0"></rect></g><g class="bar" transform="translate(481,310)"><rect x="1" width="11.999999999999996" height="0"></rect></g><g class="bar" transform="translate(494.00000000000006,310)"><rect x="1" width="11.999999999999996" height="0"></rect></g><g class="bar" transform="translate(507.00000000000006,310)"><rect x="1" width="11.999999999999996" height="0"></rect></g><g class="axis axis--x" transform="translate(0,310)" fill="none" font-size="10" font-family="sans-serif" text-anchor="middle"><path class="domain" stroke="#000" d="M0.5,6V0.5H520.5V6"></path><g class="tick" opacity="1" transform="translate(0,0)"><line stroke="#000" y2="6" x1="0.5" x2="0.5"></line><text fill="#000" y="9" x="0.5" dy="0.71em">0.01</text></g><g class="tick" opacity="1" transform="translate(130,0)"><line stroke="#000" y2="6" x1="0.5" x2="0.5"></line><text fill="#000" y="9" x="0.5" dy="0.71em">1</text></g><g class="tick" opacity="1" transform="translate(260,0)"><line stroke="#000" y2="6" x1="0.5" x2="0.5"></line><text fill="#000" y="9" x="0.5" dy="0.71em">100</text></g><g class="tick" opacity="1" transform="translate(390,0)"><line stroke="#000" y2="6" x1="0.5" x2="0.5"></line><text fill="#000" y="9" x="0.5" dy="0.71em">10000</text></g><g class="tick" opacity="1" transform="translate(520,0)"><line stroke="#000" y2="6" x1="0.5" x2="0.5"></line><text fill="#000" y="9" x="0.5" dy="0.71em"></text></g></g><g class="axis axis--y" fill="none" font-size="10" font-family="sans-serif" text-anchor="end"><path class="domain" stroke="#000" d="M-6,310.5H0.5V0.5H-6"></path><g class="tick" opacity="1" transform="translate(0,310)"><line stroke="#000" x2="-6" y1="0.5" y2="0.5"></line><text fill="#000" x="-9" y="0.5" dy="0.32em">0</text></g><g class="tick" opacity="1" transform="translate(0,286.2452107279694)"><line stroke="#000" x2="-6" y1="0.5" y2="0.5"></line><text fill="#000" x="-9" y="0.5" dy="0.32em">20</text></g><g class="tick" opacity="1" transform="translate(0,262.4904214559387)"><line stroke="#000" x2="-6" y1="0.5" y2="0.5"></line><text fill="#000" x="-9" y="0.5" dy="0.32em">40</text></g><g class="tick" opacity="1" transform="translate(0,238.73563218390805)"><line stroke="#000" x2="-6" y1="0.5" y2="0.5"></line><text fill="#000" x="-9" y="0.5" dy="0.32em">60</text></g><g class="tick" opacity="1" transform="translate(0,214.9808429118774)"><line stroke="#000" x2="-6" y1="0.5" y2="0.5"></line><text fill="#000" x="-9" y="0.5" dy="0.32em">80</text></g><g class="tick" opacity="1" transform="translate(0,191.22605363984673)"><line stroke="#000" x2="-6" y1="0.5" y2="0.5"></line><text fill="#000" x="-9" y="0.5" dy="0.32em">100</text></g><g class="tick" opacity="1" transform="translate(0,167.4712643678161)"><line stroke="#000" x2="-6" y1="0.5" y2="0.5"></line><text fill="#000" x="-9" y="0.5" dy="0.32em">120</text></g><g class="tick" opacity="1" transform="translate(0,143.71647509578546)"><line stroke="#000" x2="-6" y1="0.5" y2="0.5"></line><text fill="#000" x="-9" y="0.5" dy="0.32em">140</text></g><g class="tick" opacity="1" transform="translate(0,119.9616858237548)"><line stroke="#000" x2="-6" y1="0.5" y2="0.5"></line><text fill="#000" x="-9" y="0.5" dy="0.32em">160</text></g><g class="tick" opacity="1" transform="translate(0,96.20689655172413)"><line stroke="#000" x2="-6" y1="0.5" y2="0.5"></line><text fill="#000" x="-9" y="0.5" dy="0.32em">180</text></g><g class="tick" opacity="1" transform="translate(0,72.45210727969348)"><line stroke="#000" x2="-6" y1="0.5" y2="0.5"></line><text fill="#000" x="-9" y="0.5" dy="0.32em">200</text></g><g class="tick" opacity="1" transform="translate(0,48.69731800766283)"><line stroke="#000" x2="-6" y1="0.5" y2="0.5"></line><text fill="#000" x="-9" y="0.5" dy="0.32em">220</text></g><g class="tick" opacity="1" transform="translate(0,24.94252873563221)"><line stroke="#000" x2="-6" y1="0.5" y2="0.5"></line><text fill="#000" x="-9" y="0.5" dy="0.32em">240</text></g><g class="tick" opacity="1" transform="translate(0,1.187739463601531)"><line stroke="#000" x2="-6" y1="0.5" y2="0.5"></line><text fill="#000" x="-9" y="0.5" dy="0.32em">260</text></g></g></g></svg>