<svg xmlns="http://www.w3.org/2000/svg" width="600" height="350"><defs><style type="text/css"><![CDATA[ 
.bar rect {
  fill-opacity: 0;
  stroke:       black;
  stroke-width: 0.5;
}

.highlight rect {
  fill:       red;
  fill-opacity: 1;
}
.axis path,
.axis line {
  fill: none;
  stroke: #000;
  shape-rendering: crispEdges;
}
 ]]></style></defs><g transform="translate(50,10)"><g class="bar" transform="translate(0,310)"><rect x="1" width="5.500000000000005" height="0"></rect></g><g class="bar" transform="translate(6.500000000000005,310)"><rect x="1" width="5.500000000000005" height="0"></rect></g><g class="bar" transform="translate(12.999999999999996,310)"><rect x="1" width="5.500000000000005" height="0"></rect></g><g class="bar" transform="translate(19.500000000000004,310)"><rect x="1" width="5.500000000000005" height="0"></rect></g><g class="bar" transform="translate(25.999999999999993,310)"><rect x="1" width="5.500000000000005" height="0"></rect></g><g class="bar" transform="translate(32.5,310)"><rect x="1" width="5.500000000000005" height="0"></rect></g><g class="bar" transform="translate(39.00000000000001,310)"><rect x="1" width="5.500000000000005" height="0"></rect></g><g class="bar" transform="translate(45.500000000000014,310)"><rect x="1" width="5.500000000000005" height="0"></rect></g><g class="bar" transform="translate(52,310)"><rect x="1" width="5.500000000000005" height="0"></rect></g><g class="bar" transform="translate(58.49999999999999,310)"><rect x="1" width="5.500000000000005" height="0"></rect></g><g class="bar" transform="translate(65,310)"><rect x="1" width="5.500000000000005" height="0"></rect></g><g class="bar" transform="translate(71.5,310)"><rect x="1" width="5.500000000000005" height="0"></rect></g><g class="bar" transform="translate(78.00000000000001,310)"><rect x="1" width="5.500000000000005" height="0"></rect></g><g class="bar" transform="translate(84.5,308.8967971530249)"><rect x="1" width="5.500000000000005" height="1.1032028469750799"></rect></g><g class="bar" transform="translate(91.00000000000001,307.79359430604984)"><rect x="1" width="5.500000000000005" height="2.2064056939501597"></rect></g><g class="bar" transform="translate(97.5,308.8967971530249)"><rect x="1" width="5.500000000000005" height="1.1032028469750799"></rect></g><g class="bar" transform="translate(104,307.79359430604984)"><rect x="1" width="5.500000000000005" height="2.2064056939501597"></rect></g><g class="bar" transform="translate(110.50000000000001,302.2775800711744)"><rect x="1" width="5.500000000000005" height="7.722419928825616"></rect></g><g class="bar" transform="translate(117,284.62633451957294)"><rect x="1" width="5.500000000000005" height="25.373665480427064"></rect></g><g class="bar" transform="translate(123.50000000000001,300.0711743772242)"><rect x="1" width="5.500000000000005" height="9.928825622775776"></rect></g><g class="bar" transform="translate(130,290.1423487544484)"><rect x="1" width="5.500000000000005" height="19.857651245551608"></rect></g><g class="bar" transform="translate(136.5,286.83274021352315)"><rect x="1" width="5.500000000000005" height="23.167259786476848"></rect></g><g class="bar" transform="translate(143,278.0071174377224)"><rect x="1" width="5.500000000000005" height="31.9928825622776"></rect></g><g class="bar" transform="translate(149.50000000000003,272.49110320284694)"><rect x="1" width="5.500000000000005" height="37.50889679715306"></rect></g><g class="bar" transform="translate(156.00000000000003,271.38790035587186)"><rect x="1" width="5.500000000000005" height="38.612099644128136"></rect></g><g class="bar" transform="translate(162.5,242.70462633451956)"><rect x="1" width="5.500000000000005" height="67.29537366548044"></rect></g><g class="bar" transform="translate(169,238.2918149466192)"><rect x="1" width="5.500000000000005" height="71.70818505338079"></rect></g><g class="bar" transform="translate(175.5,211.8149466192171)"><rect x="1" width="5.500000000000005" height="98.1850533807829"></rect></g><g class="bar" transform="translate(182.00000000000003,199.6797153024911)"><rect x="1" width="5.500000000000005" height="110.3202846975089"></rect></g><g class="bar" transform="translate(188.50000000000003,147.82918149466192)"><rect x="1" width="5.500000000000005" height="162.17081850533808"></rect></g><g class="bar" transform="translate(195,120.2491103202847)"><rect x="1" width="5.500000000000005" height="189.7508896797153"></rect></g><g class="bar" transform="translate(201.5,116.93950177935943)"><rect x="1" width="5.500000000000005" height="193.06049822064057"></rect></g><g class="bar" transform="translate(208,97.08185053380782)"><rect x="1" width="5.500000000000005" height="212.91814946619218"></rect></g><g class="bar" transform="translate(214.50000000000003,38.612099644128136)"><rect x="1" width="5.500000000000005" height="271.38790035587186"></rect></g><g class="bar" transform="translate(221.00000000000003,33.09608540925268)"><rect x="1" width="5.500000000000005" height="276.9039145907473"></rect></g><g class="bar" transform="translate(227.5,44.128113879003536)"><rect x="1" width="5.500000000000005" height="265.87188612099646"></rect></g><g class="bar" transform="translate(234,0)"><rect x="1" width="5.500000000000005" height="310"></rect></g><g class="bar" transform="translate(240.5,17.65124555160145)"><rect x="1" width="5.500000000000005" height="292.34875444839855"></rect></g><g class="bar" transform="translate(247.00000000000003,7.722419928825616)"><rect x="1" width="5.500000000000005" height="302.2775800711744"></rect></g><g class="bar" transform="translate(253.50000000000003,7.722419928825616)"><rect x="1" width="5.500000000000005" height="302.2775800711744"></rect></g><g class="bar" transform="translate(260,7.722419928825616)"><rect x="1" width="5.500000000000005" height="302.2775800711744"></rect></g><g class="bar" transform="translate(266.50000000000006,3.3096085409252396)"><rect x="1" width="5.500000000000005" height="306.69039145907476"></rect></g><g class="bar" transform="translate(273,25.373665480427007)"><rect x="1" width="5.500000000000005" height="284.626334519573"></rect></g><g class="bar" transform="translate(279.5,50.74733096085413)"><rect x="1" width="5.500000000000005" height="259.25266903914587"></rect></g><g class="bar" transform="translate(286,82.74021352313167)"><rect x="1" width="5.500000000000005" height="227.25978647686833"></rect></g><g class="bar" transform="translate(292.5,139.0035587188612)"><rect x="1" width="5.500000000000005" height="170.9964412811388"></rect></g><g class="bar" transform="translate(299.00000000000006,178.71886120996442)"><rect x="1" width="5.500000000000005" height="131.28113879003558"></rect></g><g class="bar" transform="translate(305.5,208.5053380782918)"><rect x="1" width="5.500000000000005" height="101.4946619217082"></rect></g><g class="bar" transform="translate(312.00000000000006,236.08540925266902)"><rect x="1" width="5.500000000000005" height="73.91459074733098"></rect></g><g class="bar" transform="translate(318.5,249.3238434163701)"><rect x="1" width="5.500000000000005" height="60.676156583629904"></rect></g><g class="bar" transform="translate(325,261.4590747330961)"><rect x="1" width="5.500000000000005" height="48.54092526690391"></rect></g><g class="bar" transform="translate(331.50000000000006,272.49110320284694)"><rect x="1" width="5.500000000000005" height="37.50889679715306"></rect></g><g class="bar" transform="translate(338,283.52313167259786)"><rect x="1" width="5.500000000000005" height="26.476868327402144"></rect></g><g class="bar" transform="translate(344.50000000000006,286.83274021352315)"><rect x="1" width="5.500000000000005" height="23.167259786476848"></rect></g><g class="bar" transform="translate(351,298.9679715302491)"><rect x="1" width="5.500000000000005" height="11.032028469750912"></rect></g><g class="bar" transform="translate(357.5,301.1743772241993)"><rect x="1" width="5.500000000000005" height="8.825622775800696"></rect></g><g class="bar" transform="translate(364.00000000000006,303.38078291814946)"><rect x="1" width="5.500000000000005" height="6.619217081850536"></rect></g><g class="bar" transform="translate(370.5,302.2775800711744)"><rect x="1" width="5.500000000000005" height="7.722419928825616"></rect></g><g class="bar" transform="translate(377.00000000000006,306.69039145907476)"><rect x="1" width="5.500000000000005" height="3.3096085409252396"></rect></g><g class="bar" transform="translate(383.5,310)"><rect x="1" width="5.500000000000005" height="0"></rect></g><g class="bar" transform="translate(390,304.48398576512454)"><rect x="1" width="5.500000000000005" height="5.516014234875456"></rect></g><g class="bar" transform="translate(396.50000000000006,308.8967971530249)"><rect x="1" width="5.500000000000005" height="1.1032028469750799"></rect></g><g class="bar" transform="translate(403,308.8967971530249)"><rect x="1" width="5.500000000000005" height="1.1032028469750799"></rect></g><g class="bar" transform="translate(409.50000000000006,310)"><rect x="1" width="5.500000000000005" height="0"></rect></g><g class="bar" transform="translate(416,310)"><rect x="1" width="5.500000000000005" height="0"></rect></g><g class="bar" transform="translate(422.5,310)"><rect x="1" width="5.500000000000005" height="0"></rect></g><g class="bar" transform="translate(429.00000000000006,310)"><rect x="1" width="5.500000000000005" height="0"></rect></g><g class="bar" transform="translate(435.5,310)"><rect x="1" width="5.500000000000005" height="0"></rect></g><g class="bar" transform="translate(442.00000000000006,310)"><rect x="1" width="5.500000000000005" height="0"></rect></g><g class="bar" transform="translate(448.5,310)"><rect x="1" width="5.500000000000005" height="0"></rect></g><g class="bar" transform="translate(455,310)"><rect x="1" width="5.500000000000005" height="0"></rect></g><g class="bar" transform="translate(461.50000000000006,310)"><rect x="1" width="5.500000000000005" height="0"></rect></g><g class="bar" transform="translate(468,310)"><rect x="1" width="5.500000000000005" height="0"></rect></g><g class="bar" transform="translate(474.50000000000006,310)"><rect x="1" width="5.500000000000005" height="0"></rect></g><g class="bar" transform="translate(481,310)"><rect x="1" width="5.500000000000005" height="0"></rect></g><g class="bar" transform="translate(487.5,310)"><rect x="1" width="5.500000000000005" height="0"></rect></g><g class="bar" transform="translate(494.00000000000006,310)"><rect x="1" width="5.500000000000005" height="0"></rect></g><g class="bar" transform="translate(500.5,310)"><rect x="1" width="5.500000000000005" height="0"></rect></g><g class="bar" transform="translate(507.00000000000006,310)"><rect x="1" width="5.500000000000005" height="0"></rect></g><g class="bar" transform="translate(513.5,310)"><rect x="1" width="5.500000000000005" height="0"></rect></g><g class="axis axis--x" transform="translate(0,310)" fill="none" font-size="10" font-family="sans-serif" text-anchor="middle"><path class="domain" stroke="#000" d="M0.5,6V0.5H520.5V6"></path><g class="tick" opacity="1" transform="translate(0,0)"><line stroke="#000" y2="6" x1="0.5" x2="0.5"></line><text fill="#000" y="9" x="0.5" dy="0.71em">0.01</text></g><g class="tick" opacity="1" transform="translate(130,0)"><line stroke="#000" y2="6" x1="0.5" x2="0.5"></line><text fill="#000" y="9" x="0.5" dy="0.71em">1</text></g><g class="tick" opacity="1" transform="translate(260,0)"><line stroke="#000" y2="6" x1="0.5" x2="0.5"></line><text fill="#000" y="9" x="0.5" dy="0.71em">100</text></g><g class="tick" opacity="1" transform="translate(390,0)"><line stroke="#000" y2="6" x1="0.5" x2="0.5"></line><text fill="#000" y="9" x="0.5" dy="0.71em">10000</text></g><g class="tick" opacity="1" transform="translate(520,0)"><line stroke="#000" y2="6" x1="0.5" x2="0.5"></line><text fill="#000" y="9" x="0.5" dy="0.71em"></text></g></g><g class="axis axis--y" fill="none" font-size="10" font-family="sans-serif" text-anchor="end"><path class="domain" stroke="#000" d="M-6,310.5H0.5V0.5H-6"></path><g class="tick" opacity="1" transform="translate(0,310)"><line stroke="#000" x2="-6" y1="0.5" y2="0.5"></line><text fill="#000" x="-9" y="0.5" dy="0.32em">0</text></g><g class="tick" opacity="1" transform="translate(0,287.93594306049823)"><line stroke="#000" x2="-6" y1="0.5" y2="0.5"></line><text fill="#000" x="-9" y="0.5" dy="0.32em">20</text></g><g class="tick" opacity="1" transform="translate(0,265.87188612099646)"><line stroke="#000" x2="-6" y1="0.5" y2="0.5"></line><text fill="#000" x="-9" y="0.5" dy="0.32em">40</text></g><g class="tick" opacity="1" transform="translate(0,243.80782918149464)"><line stroke="#000" x2="-6" y1="0.5" y2="0.5"></line><text fill="#000" x="-9" y="0.5" dy="0.32em">60</text></g><g class="tick" opacity="1" transform="translate(0,221.74377224199287)"><line stroke="#000" x2="-6" y1="0.5" y2="0.5"></line><text fill="#000" x="-9" y="0.5" dy="0.32em">80</text></g><g class="tick" opacity="1" transform="translate(0,199.6797153024911)"><line stroke="#000" x2="-6" y1="0.5" y2="0.5"></line><text fill="#000" x="-9" y="0.5" dy="0.32em">100</text></g><g class="tick" opacity="1" transform="translate(0,177.6156583629893)"><line stroke="#000" x2="-6" y1="0.5" y2="0.5"></line><text fill="#000" x="-9" y="0.5" dy="0.32em">120</text></g><g class="tick" opacity="1" transform="translate(0,155.55160142348754)"><line stroke="#000" x2="-6" y1="0.5" y2="0.5"></line><text fill="#000" x="-9" y="0.5" dy="0.32em">140</text></g><g class="tick" opacity="1" transform="translate(0,133.48754448398574)"><line stroke="#000" x2="-6" y1="0.5" y2="0.5"></line><text fill="#000" x="-9" y="0.5" dy="0.32em">160</text></g><g class="tick" opacity="1" transform="translate(0,111.42348754448398)"><line stroke="#000" x2="-6" y1="0.5" y2="0.5"></line><text fill="#000" x="-9" y="0.5" dy="0.32em">180</text></g><g class="tick" opacity="1" transform="translate(0,89.35943060498221)"><line stroke="#000" x2="-6" y1="0.5" y2="0.5"></line><text fill="#000" x="-9" y="0.5" dy="0.32em">200</text></g><g class="tick" opacity="1" transform="translate(0,67.29537366548041)"><line stroke="#000" x2="-6" y1="0.5" y2="0.5"></line><text fill="#000" x="-9" y="0.5" dy="0.32em">220</text></g><g class="tick" opacity="1" transform="translate(0,45.231316725978616)"><line stroke="#000" x2="-6" y1="0.5" y2="0.5"></line><text fill="#000" x="-9" y="0.5" dy="0.32em">240</text></g><g class="tick" opacity="1" transform="translate(0,23.167259786476848)"><line stroke="#000" x2="-6" y1="0.5" y2="0.5"></line><text fill="#000" x="-9" y="0.5" dy="0.32em">260</text></g><g class="tick" opacity="1" transform="translate(0,1.1032028469750799)"><line stroke="#000" x2="-6" y1="0.5" y2="0.5"></line><text fill="#000" x="-9" y="0.5" dy="0.32em">280</text></g></g></g></svg>