<svg xmlns="http://www.w3.org/2000/svg" width="280" height="160"><defs><style type="text/css"><![CDATA[ 
.bar rect {
  fill-opacity: 0;
  stroke:       black;
  stroke-width: 0.5;
}

.highlight rect {
  fill:       red;
  fill-opacity: 1;
}
.axis path,
.axis line {
  fill: none;
  stroke: #000;
  shape-rendering: crispEdges;
}
 ]]></style></defs><g transform="translate(50,10)"><g class="bar" transform="translate(0,120)"><rect x="1" width="11.5" height="0"></rect></g><g class="bar" transform="translate(12.5,120)"><rect x="1" width="11.5" height="0"></rect></g><g class="bar" transform="translate(25,120)"><rect x="1" width="11.5" height="0"></rect></g><g class="bar" transform="translate(37.5,120)"><rect x="1" width="11.5" height="0"></rect></g><g class="bar" transform="translate(50,120)"><rect x="1" width="11.5" height="0"></rect></g><g class="bar" transform="translate(62.5,119.39240506329114)"><rect x="1" width="11.5" height="0.607594936708864"></rect></g><g class="bar" transform="translate(75,90.53164556962025)"><rect x="1" width="11.5" height="29.468354430379748"></rect></g><g class="bar" transform="translate(87.5,20.96202531645571)"><rect x="1" width="11.5" height="99.03797468354429"></rect></g><g class="bar" transform="translate(100,0)"><rect x="1" width="11.5" height="120"></rect></g><g class="bar" transform="translate(112.5,34.0253164556962)"><rect x="1" width="11.5" height="85.9746835443038"></rect></g><g class="bar" transform="translate(125,71.69620253164558)"><rect x="1" width="11.5" height="48.30379746835442"></rect></g><g class="bar" transform="translate(137.5,101.77215189873418)"><rect x="1" width="11.5" height="18.22784810126582"></rect></g><g class="bar" transform="translate(150,116.35443037974683)"><rect x="1" width="11.5" height="3.6455696202531698"></rect></g><g class="bar" transform="translate(162.5,120)"><rect x="1" width="11.5" height="0"></rect></g><g class="bar" transform="translate(175,120)"><rect x="1" width="11.5" height="0"></rect></g><g class="bar" transform="translate(187.5,120)"><rect x="1" width="11.5" height="0"></rect></g></g></svg>