<svg xmlns="http://www.w3.org/2000/svg" width="600" height="350"><defs><style type="text/css"><![CDATA[ 
.bar rect {
  fill-opacity: 0;
  stroke:       black;
  stroke-width: 0.5;
}

.highlight rect {
  fill:       red;
  fill-opacity: 1;
}
.axis path,
.axis line {
  fill: none;
  stroke: #000;
  shape-rendering: crispEdges;
}
 ]]></style></defs><g transform="translate(50,10)"><g class="bar" transform="translate(0,310)"><rect x="1" width="11.999999999999996" height="0"></rect></g><g class="bar" transform="translate(12.999999999999996,310)"><rect x="1" width="11.999999999999996" height="0"></rect></g><g class="bar" transform="translate(25.999999999999993,310)"><rect x="1" width="11.999999999999996" height="0"></rect></g><g class="bar" transform="translate(39.00000000000001,310)"><rect x="1" width="11.999999999999996" height="0"></rect></g><g class="bar" transform="translate(52,310)"><rect x="1" width="11.999999999999996" height="0"></rect></g><g class="bar" transform="translate(65,310)"><rect x="1" width="11.999999999999996" height="0"></rect></g><g class="bar" transform="translate(78.00000000000001,310)"><rect x="1" width="11.999999999999996" height="0"></rect></g><g class="bar" transform="translate(91.00000000000001,310)"><rect x="1" width="11.999999999999996" height="0"></rect></g><g class="bar" transform="translate(104,307.04761904761904)"><rect x="1" width="11.999999999999996" height="2.952380952380963"></rect></g><g class="bar" transform="translate(117,310)"><rect x="1" width="11.999999999999996" height="0"></rect></g><g class="bar" transform="translate(130,310)"><rect x="1" width="11.999999999999996" height="0"></rect></g><g class="bar" transform="translate(143,279.4920634920635)"><rect x="1" width="11.999999999999996" height="30.507936507936506"></rect></g><g class="bar" transform="translate(156.00000000000003,278.5079365079365)"><rect x="1" width="11.999999999999996" height="31.492063492063494"></rect></g><g class="bar" transform="translate(169,207.65079365079367)"><rect x="1" width="11.999999999999996" height="102.34920634920633"></rect></g><g class="bar" transform="translate(182.00000000000003,221.42857142857144)"><rect x="1" width="11.999999999999996" height="88.57142857142856"></rect></g><g class="bar" transform="translate(195,116.12698412698413)"><rect x="1" width="11.999999999999996" height="193.87301587301587"></rect></g><g class="bar" transform="translate(208,91.52380952380952)"><rect x="1" width="11.999999999999996" height="218.47619047619048"></rect></g><g class="bar" transform="translate(221.00000000000003,74.79365079365081)"><rect x="1" width="11.999999999999996" height="235.2063492063492"></rect></g><g class="bar" transform="translate(234,0)"><rect x="1" width="11.999999999999996" height="310"></rect></g><g class="bar" transform="translate(247.00000000000003,96.44444444444446)"><rect x="1" width="11.999999999999996" height="213.55555555555554"></rect></g><g class="bar" transform="translate(260,61.01587301587301)"><rect x="1" width="11.999999999999996" height="248.984126984127"></rect></g><g class="bar" transform="translate(273,60.031746031746025)"><rect x="1" width="11.999999999999996" height="249.96825396825398"></rect></g><g class="bar" transform="translate(286,110.2222222222222)"><rect x="1" width="11.999999999999996" height="199.7777777777778"></rect></g><g class="bar" transform="translate(299.00000000000006,106.28571428571428)"><rect x="1" width="11.999999999999996" height="203.71428571428572"></rect></g><g class="bar" transform="translate(312.00000000000006,166.3174603174603)"><rect x="1" width="11.999999999999996" height="143.6825396825397"></rect></g><g class="bar" transform="translate(325,205.68253968253967)"><rect x="1" width="11.999999999999996" height="104.31746031746033"></rect></g><g class="bar" transform="translate(338,255.87301587301587)"><rect x="1" width="11.999999999999996" height="54.12698412698413"></rect></g><g class="bar" transform="translate(351,264.73015873015873)"><rect x="1" width="11.999999999999996" height="45.269841269841265"></rect></g><g class="bar" transform="translate(364.00000000000006,293.26984126984127)"><rect x="1" width="11.999999999999996" height="16.730158730158735"></rect></g><g class="bar" transform="translate(377.00000000000006,300.1587301587302)"><rect x="1" width="11.999999999999996" height="9.84126984126982"></rect></g><g class="bar" transform="translate(390,308.031746031746)"><rect x="1" width="11.999999999999996" height="1.9682539682539755"></rect></g><g class="bar" transform="translate(403,309.015873015873)"><rect x="1" width="11.999999999999996" height="0.9841269841269877"></rect></g><g class="bar" transform="translate(416,310)"><rect x="1" width="11.999999999999996" height="0"></rect></g><g class="bar" transform="translate(429.00000000000006,310)"><rect x="1" width="11.999999999999996" height="0"></rect></g><g class="bar" transform="translate(442.00000000000006,310)"><rect x="1" width="11.999999999999996" height="0"></rect></g><g class="bar" transform="translate(455,310)"><rect x="1" width="11.999999999999996" height="0"></rect></g><g class="bar" transform="translate(468,310)"><rect x="1" width="11.999999999999996" height="0"></rect></g><g class="bar" transform="translate(481,310)"><rect x="1" width="11.999999999999996" height="0"></rect></g><g class="bar" transform="translate(494.00000000000006,310)"><rect x="1" width="11.999999999999996" height="0"></rect></g><g class="bar" transform="translate(507.00000000000006,310)"><rect x="1" width="11.999999999999996" height="0"></rect></g><g class="axis axis--x" transform="translate(0,310)" fill="none" font-size="10" font-family="sans-serif" text-anchor="middle"><path class="domain" stroke="#000" d="M0.5,6V0.5H520.5V6"></path><g class="tick" opacity="1" transform="translate(0,0)"><line stroke="#000" y2="6" x1="0.5" x2="0.5"></line><text fill="#000" y="9" x="0.5" dy="0.71em">0.01</text></g><g class="tick" opacity="1" transform="translate(130,0)"><line stroke="#000" y2="6" x1="0.5" x2="0.5"></line><text fill="#000" y="9" x="0.5" dy="0.71em">1</text></g><g class="tick" opacity="1" transform="translate(260,0)"><line stroke="#000" y2="6" x1="0.5" x2="0.5"></line><text fill="#000" y="9" x="0.5" dy="0.71em">100</text></g><g class="tick" opacity="1" transform="translate(390,0)"><line stroke="#000" y2="6" x1="0.5" x2="0.5"></line><text fill="#000" y="9" x="0.5" dy="0.71em">10000</text></g><g class="tick" opacity="1" transform="translate(520,0)"><line stroke="#000" y2="6" x1="0.5" x2="0.5"></line><text fill="#000" y="9" x="0.5" dy="0.71em"></text></g></g><g class="axis axis--y" fill="none" font-size="10" font-family="sans-serif" text-anchor="end"><path class="domain" stroke="#000" d="M-6,310.5H0.5V0.5H-6"></path><g class="tick" opacity="1" transform="translate(0,310)"><line stroke="#000" x2="-6" y1="0.5" y2="0.5"></line><text fill="#000" x="-9" y="0.5" dy="0.32em">0</text></g><g class="tick" opacity="1" transform="translate(0,290.3174603174603)"><line stroke="#000" x2="-6" y1="0.5" y2="0.5"></line><text fill="#000" x="-9" y="0.5" dy="0.32em">20</text></g><g class="tick" opacity="1" transform="translate(0,270.63492063492066)"><line stroke="#000" x2="-6" y1="0.5" y2="0.5"></line><text fill="#000" x="-9" y="0.5" dy="0.32em">40</text></g><g class="tick" opacity="1" transform="translate(0,250.95238095238096)"><line stroke="#000" x2="-6" y1="0.5" y2="0.5"></line><text fill="#000" x="-9" y="0.5" dy="0.32em">60</text></g><g class="tick" opacity="1" transform="translate(0,231.26984126984127)"><line stroke="#000" x2="-6" y1="0.5" y2="0.5"></line><text fill="#000" x="-9" y="0.5" dy="0.32em">80</text></g><g class="tick" opacity="1" transform="translate(0,211.5873015873016)"><line stroke="#000" x2="-6" y1="0.5" y2="0.5"></line><text fill="#000" x="-9" y="0.5" dy="0.32em">100</text></g><g class="tick" opacity="1" transform="translate(0,191.90476190476193)"><line stroke="#000" x2="-6" y1="0.5" y2="0.5"></line><text fill="#000" x="-9" y="0.5" dy="0.32em">120</text></g><g class="tick" opacity="1" transform="translate(0,172.22222222222223)"><line stroke="#000" x2="-6" y1="0.5" y2="0.5"></line><text fill="#000" x="-9" y="0.5" dy="0.32em">140</text></g><g class="tick" opacity="1" transform="translate(0,152.53968253968256)"><line stroke="#000" x2="-6" y1="0.5" y2="0.5"></line><text fill="#000" x="-9" y="0.5" dy="0.32em">160</text></g><g class="tick" opacity="1" transform="translate(0,132.85714285714286)"><line stroke="#000" x2="-6" y1="0.5" y2="0.5"></line><text fill="#000" x="-9" y="0.5" dy="0.32em">180</text></g><g class="tick" opacity="1" transform="translate(0,113.17460317460319)"><line stroke="#000" x2="-6" y1="0.5" y2="0.5"></line><text fill="#000" x="-9" y="0.5" dy="0.32em">200</text></g><g class="tick" opacity="1" transform="translate(0,93.4920634920635)"><line stroke="#000" x2="-6" y1="0.5" y2="0.5"></line><text fill="#000" x="-9" y="0.5" dy="0.32em">220</text></g><g class="tick" opacity="1" transform="translate(0,73.80952380952382)"><line stroke="#000" x2="-6" y1="0.5" y2="0.5"></line><text fill="#000" x="-9" y="0.5" dy="0.32em">240</text></g><g class="tick" opacity="1" transform="translate(0,54.126984126984155)"><line stroke="#000" x2="-6" y1="0.5" y2="0.5"></line><text fill="#000" x="-9" y="0.5" dy="0.32em">260</text></g><g class="tick" opacity="1" transform="translate(0,34.44444444444446)"><line stroke="#000" x2="-6" y1="0.5" y2="0.5"></line><text fill="#000" x="-9" y="0.5" dy="0.32em">280</text></g><g class="tick" opacity="1" transform="translate(0,14.76190476190476)"><line stroke="#000" x2="-6" y1="0.5" y2="0.5"></line><text fill="#000" x="-9" y="0.5" dy="0.32em">300</text></g></g></g></svg>