<svg xmlns="http://www.w3.org/2000/svg" width="280" height="160"><defs><style type="text/css"><![CDATA[ 
.bar rect {
  fill-opacity: 0;
  stroke:       black;
  stroke-width: 0.5;
}

.highlight rect {
  fill:       red;
  fill-opacity: 1;
}
.axis path,
.axis line {
  fill: none;
  stroke: #000;
  shape-rendering: crispEdges;
}
 ]]></style></defs><g transform="translate(50,10)"><g class="bar" transform="translate(0,116.03517186251)"><rect x="1" width="11.5" height="3.9648281374900023"></rect></g><g class="bar" transform="translate(12.5,114.88409272581934)"><rect x="1" width="11.5" height="5.115907274180657"></rect></g><g class="bar" transform="translate(25,116.00319744204636)"><rect x="1" width="11.5" height="3.996802557953643"></rect></g><g class="bar" transform="translate(37.5,103.66107114308554)"><rect x="1" width="11.5" height="16.338928856914464"></rect></g><g class="bar" transform="translate(50,45.37170263788968)"><rect x="1" width="11.5" height="74.62829736211032"></rect></g><g class="bar" transform="translate(62.5,0)"><rect x="1" width="11.5" height="120"></rect></g><g class="bar" transform="translate(75,41.63069544364508)"><rect x="1" width="11.5" height="78.36930455635492"></rect></g><g class="bar" transform="translate(87.5,77.37809752198241)"><rect x="1" width="11.5" height="42.62190247801759"></rect></g><g class="bar" transform="translate(100,94.38848920863309)"><rect x="1" width="11.5" height="25.61151079136691"></rect></g><g class="bar" transform="translate(112.5,104.49240607513988)"><rect x="1" width="11.5" height="15.507593924860117"></rect></g><g class="bar" transform="translate(125,114.66027178257394)"><rect x="1" width="11.5" height="5.339728217426057"></rect></g><g class="bar" transform="translate(137.5,119.16866506794564)"><rect x="1" width="11.5" height="0.8313349320543608"></rect></g><g class="bar" transform="translate(150,119.84012789768185)"><rect x="1" width="11.5" height="0.15987210231814686"></rect></g><g class="bar" transform="translate(162.5,120)"><rect x="1" width="11.5" height="0"></rect></g><g class="bar" transform="translate(175,120)"><rect x="1" width="11.5" height="0"></rect></g><g class="bar" transform="translate(187.5,120)"><rect x="1" width="11.5" height="0"></rect></g></g></svg>