<svg xmlns="http://www.w3.org/2000/svg" width="600" height="350"><defs><style type="text/css"><![CDATA[ 
.bar rect {
  fill-opacity: 0;
  stroke:       black;
  stroke-width: 0.5;
}

.highlight rect {
  fill:       red;
  fill-opacity: 1;
}
.axis path,
.axis line {
  fill: none;
  stroke: #000;
  shape-rendering: crispEdges;
}
 ]]></style></defs><g transform="translate(50,10)"><g class="bar" transform="translate(0,299.453219927096)"><rect x="1" width="5.500000000000005" height="10.546780072904028"></rect></g><g class="bar" transform="translate(6.500000000000005,302.4665856622114)"><rect x="1" width="5.500000000000005" height="7.533414337788599"></rect></g><g class="bar" transform="translate(12.999999999999996,301.7132442284326)"><rect x="1" width="5.500000000000005" height="8.286755771567414"></rect></g><g class="bar" transform="translate(19.500000000000004,301.3365735115431)"><rect x="1" width="5.500000000000005" height="8.663426488456878"></rect></g><g class="bar" transform="translate(25.999999999999993,298.3232077764277)"><rect x="1" width="5.500000000000005" height="11.676792223572306"></rect></g><g class="bar" transform="translate(32.5,297.5698663426488)"><rect x="1" width="5.500000000000005" height="12.430133657351178"></rect></g><g class="bar" transform="translate(39.00000000000001,294.93317132442286)"><rect x="1" width="5.500000000000005" height="15.066828675577142"></rect></g><g class="bar" transform="translate(45.500000000000014,295.68651275820173)"><rect x="1" width="5.500000000000005" height="14.31348724179827"></rect></g><g class="bar" transform="translate(52,301.3365735115431)"><rect x="1" width="5.500000000000005" height="8.663426488456878"></rect></g><g class="bar" transform="translate(58.49999999999999,300.20656136087484)"><rect x="1" width="5.500000000000005" height="9.793438639125156"></rect></g><g class="bar" transform="translate(65,297.5698663426488)"><rect x="1" width="5.500000000000005" height="12.430133657351178"></rect></g><g class="bar" transform="translate(71.5,302.4665856622114)"><rect x="1" width="5.500000000000005" height="7.533414337788599"></rect></g><g class="bar" transform="translate(78.00000000000001,301.3365735115431)"><rect x="1" width="5.500000000000005" height="8.663426488456878"></rect></g><g class="bar" transform="translate(84.5,300.9599027946537)"><rect x="1" width="5.500000000000005" height="9.040097205346285"></rect></g><g class="bar" transform="translate(91.00000000000001,300.58323207776425)"><rect x="1" width="5.500000000000005" height="9.41676792223575"></rect></g><g class="bar" transform="translate(97.5,296.81652490887)"><rect x="1" width="5.500000000000005" height="13.183475091129992"></rect></g><g class="bar" transform="translate(104,282.8797083839611)"><rect x="1" width="5.500000000000005" height="27.120291616038912"></rect></g><g class="bar" transform="translate(110.50000000000001,280.2430133657351)"><rect x="1" width="5.500000000000005" height="29.756986634264877"></rect></g><g class="bar" transform="translate(117,267.43620899149454)"><rect x="1" width="5.500000000000005" height="42.56379100850546"></rect></g><g class="bar" transform="translate(123.50000000000001,230.14580801944106)"><rect x="1" width="5.500000000000005" height="79.85419198055894"></rect></g><g class="bar" transform="translate(130,207.54556500607532)"><rect x="1" width="5.500000000000005" height="102.45443499392468"></rect></g><g class="bar" transform="translate(136.5,177.0352369380316)"><rect x="1" width="5.500000000000005" height="132.9647630619684"></rect></g><g class="bar" transform="translate(143,116.0145808019441)"><rect x="1" width="5.500000000000005" height="193.9854191980559"></rect></g><g class="bar" transform="translate(149.50000000000003,92.28432563791009)"><rect x="1" width="5.500000000000005" height="217.7156743620899"></rect></g><g class="bar" transform="translate(156.00000000000003,77.97083839611179)"><rect x="1" width="5.500000000000005" height="232.0291616038882"></rect></g><g class="bar" transform="translate(162.5,25.990279465370577)"><rect x="1" width="5.500000000000005" height="284.0097205346294"></rect></g><g class="bar" transform="translate(169,24.106925880923427)"><rect x="1" width="5.500000000000005" height="285.8930741190766"></rect></g><g class="bar" transform="translate(175.5,0)"><rect x="1" width="5.500000000000005" height="310"></rect></g><g class="bar" transform="translate(182.00000000000003,28.25030376670719)"><rect x="1" width="5.500000000000005" height="281.7496962332928"></rect></g><g class="bar" transform="translate(188.50000000000003,58.00729040097207)"><rect x="1" width="5.500000000000005" height="251.99270959902793"></rect></g><g class="bar" transform="translate(195,87.0109356014581)"><rect x="1" width="5.500000000000005" height="222.9890643985419"></rect></g><g class="bar" transform="translate(201.5,87.76427703523694)"><rect x="1" width="5.500000000000005" height="222.23572296476306"></rect></g><g class="bar" transform="translate(208,126.18469015795867)"><rect x="1" width="5.500000000000005" height="183.81530984204133"></rect></g><g class="bar" transform="translate(214.50000000000003,151.044957472661)"><rect x="1" width="5.500000000000005" height="158.955042527339"></rect></g><g class="bar" transform="translate(221.00000000000003,174.77521263669502)"><rect x="1" width="5.500000000000005" height="135.22478736330498"></rect></g><g class="bar" transform="translate(227.5,184.94532199270958)"><rect x="1" width="5.500000000000005" height="125.05467800729042"></rect></g><g class="bar" transform="translate(234,191.3487241798299)"><rect x="1" width="5.500000000000005" height="118.6512758201701"></rect></g><g class="bar" transform="translate(240.5,216.2089914945322)"><rect x="1" width="5.500000000000005" height="93.7910085054678"></rect></g><g class="bar" transform="translate(247.00000000000003,229.01579586877278)"><rect x="1" width="5.500000000000005" height="80.98420413122722"></rect></g><g class="bar" transform="translate(253.50000000000003,226.37910085054676)"><rect x="1" width="5.500000000000005" height="83.62089914945324"></rect></g><g class="bar" transform="translate(260,232.0291616038882)"><rect x="1" width="5.500000000000005" height="77.97083839611179"></rect></g><g class="bar" transform="translate(266.50000000000006,247.4726609963548)"><rect x="1" width="5.500000000000005" height="62.52733900364521"></rect></g><g class="bar" transform="translate(273,247.09599027946538)"><rect x="1" width="5.500000000000005" height="62.90400972053462"></rect></g><g class="bar" transform="translate(279.5,259.52612393681653)"><rect x="1" width="5.500000000000005" height="50.47387606318347"></rect></g><g class="bar" transform="translate(286,262.16281895504255)"><rect x="1" width="5.500000000000005" height="47.83718104495745"></rect></g><g class="bar" transform="translate(292.5,261.7861482381531)"><rect x="1" width="5.500000000000005" height="48.21385176184691"></rect></g><g class="bar" transform="translate(299.00000000000006,264.4228432563791)"><rect x="1" width="5.500000000000005" height="45.57715674362089"></rect></g><g class="bar" transform="translate(305.5,280.996354799514)"><rect x="1" width="5.500000000000005" height="29.003645200486005"></rect></g><g class="bar" transform="translate(312.00000000000006,279.48967193195625)"><rect x="1" width="5.500000000000005" height="30.510328068043748"></rect></g><g class="bar" transform="translate(318.5,280.61968408262453)"><rect x="1" width="5.500000000000005" height="29.38031591737547"></rect></g><g class="bar" transform="translate(325,287.39975698663426)"><rect x="1" width="5.500000000000005" height="22.60024301336574"></rect></g><g class="bar" transform="translate(331.50000000000006,296.06318347509114)"><rect x="1" width="5.500000000000005" height="13.936816524908863"></rect></g><g class="bar" transform="translate(338,296.43985419198054)"><rect x="1" width="5.500000000000005" height="13.560145808019456"></rect></g><g class="bar" transform="translate(344.50000000000006,301.3365735115431)"><rect x="1" width="5.500000000000005" height="8.663426488456878"></rect></g><g class="bar" transform="translate(351,305.8566221142163)"><rect x="1" width="5.500000000000005" height="4.143377885783707"></rect></g><g class="bar" transform="translate(357.5,303.59659781287974)"><rect x="1" width="5.500000000000005" height="6.403402187120264"></rect></g><g class="bar" transform="translate(364.00000000000006,308.49331713244226)"><rect x="1" width="5.500000000000005" height="1.5066828675577426"></rect></g><g class="bar" transform="translate(370.5,308.49331713244226)"><rect x="1" width="5.500000000000005" height="1.5066828675577426"></rect></g><g class="bar" transform="translate(377.00000000000006,310)"><rect x="1" width="5.500000000000005" height="0"></rect></g><g class="bar" transform="translate(383.5,309.6233292831106)"><rect x="1" width="5.500000000000005" height="0.37667071688940723"></rect></g><g class="bar" transform="translate(390,308.8699878493317)"><rect x="1" width="5.500000000000005" height="1.1300121506682785"></rect></g><g class="bar" transform="translate(396.50000000000006,309.6233292831106)"><rect x="1" width="5.500000000000005" height="0.37667071688940723"></rect></g><g class="bar" transform="translate(403,310)"><rect x="1" width="5.500000000000005" height="0"></rect></g><g class="bar" transform="translate(409.50000000000006,309.6233292831106)"><rect x="1" width="5.500000000000005" height="0.37667071688940723"></rect></g><g class="bar" transform="translate(416,310)"><rect x="1" width="5.500000000000005" height="0"></rect></g><g class="bar" transform="translate(422.5,310)"><rect x="1" width="5.500000000000005" height="0"></rect></g><g class="bar" transform="translate(429.00000000000006,310)"><rect x="1" width="5.500000000000005" height="0"></rect></g><g class="bar" transform="translate(435.5,310)"><rect x="1" width="5.500000000000005" height="0"></rect></g><g class="bar" transform="translate(442.00000000000006,310)"><rect x="1" width="5.500000000000005" height="0"></rect></g><g class="bar" transform="translate(448.5,310)"><rect x="1" width="5.500000000000005" height="0"></rect></g><g class="bar" transform="translate(455,310)"><rect x="1" width="5.500000000000005" height="0"></rect></g><g class="bar" transform="translate(461.50000000000006,310)"><rect x="1" width="5.500000000000005" height="0"></rect></g><g class="bar" transform="translate(468,310)"><rect x="1" width="5.500000000000005" height="0"></rect></g><g class="bar" transform="translate(474.50000000000006,310)"><rect x="1" width="5.500000000000005" height="0"></rect></g><g class="bar" transform="translate(481,310)"><rect x="1" width="5.500000000000005" height="0"></rect></g><g class="bar" transform="translate(487.5,310)"><rect x="1" width="5.500000000000005" height="0"></rect></g><g class="bar" transform="translate(494.00000000000006,310)"><rect x="1" width="5.500000000000005" height="0"></rect></g><g class="bar" transform="translate(500.5,310)"><rect x="1" width="5.500000000000005" height="0"></rect></g><g class="bar" transform="translate(507.00000000000006,310)"><rect x="1" width="5.500000000000005" height="0"></rect></g><g class="bar" transform="translate(513.5,310)"><rect x="1" width="5.500000000000005" height="0"></rect></g><g class="axis axis--x" transform="translate(0,310)" fill="none" font-size="10" font-family="sans-serif" text-anchor="middle"><path class="domain" stroke="#000" d="M0.5,6V0.5H520.5V6"></path><g class="tick" opacity="1" transform="translate(0,0)"><line stroke="#000" y2="6" x1="0.5" x2="0.5"></line><text fill="#000" y="9" x="0.5" dy="0.71em">0.01</text></g><g class="tick" opacity="1" transform="translate(130,0)"><line stroke="#000" y2="6" x1="0.5" x2="0.5"></line><text fill="#000" y="9" x="0.5" dy="0.71em">1</text></g><g class="tick" opacity="1" transform="translate(260,0)"><line stroke="#000" y2="6" x1="0.5" x2="0.5"></line><text fill="#000" y="9" x="0.5" dy="0.71em">100</text></g><g class="tick" opacity="1" transform="translate(390,0)"><line stroke="#000" y2="6" x1="0.5" x2="0.5"></line><text fill="#000" y="9" x="0.5" dy="0.71em">10000</text></g><g class="tick" opacity="1" transform="translate(520,0)"><line stroke="#000" y2="6" x1="0.5" x2="0.5"></line><text fill="#000" y="9" x="0.5" dy="0.71em"></text></g></g><g class="axis axis--y" fill="none" font-size="10" font-family="sans-serif" text-anchor="end"><path class="domain" stroke="#000" d="M-6,310.5H0.5V0.5H-6"></path><g class="tick" opacity="1" transform="translate(0,310)"><line stroke="#000" x2="-6" y1="0.5" y2="0.5"></line><text fill="#000" x="-9" y="0.5" dy="0.32em">0</text></g><g class="tick" opacity="1" transform="translate(0,272.3329283110571)"><line stroke="#000" x2="-6" y1="0.5" y2="0.5"></line><text fill="#000" x="-9" y="0.5" dy="0.32em">100</text></g><g class="tick" opacity="1" transform="translate(0,234.66585662211423)"><line stroke="#000" x2="-6" y1="0.5" y2="0.5"></line><text fill="#000" x="-9" y="0.5" dy="0.32em">200</text></g><g class="tick" opacity="1" transform="translate(0,196.99878493317132)"><line stroke="#000" x2="-6" y1="0.5" y2="0.5"></line><text fill="#000" x="-9" y="0.5" dy="0.32em">300</text></g><g class="tick" opacity="1" transform="translate(0,159.33171324422844)"><line stroke="#000" x2="-6" y1="0.5" y2="0.5"></line><text fill="#000" x="-9" y="0.5" dy="0.32em">400</text></g><g class="tick" opacity="1" transform="translate(0,121.66464155528553)"><line stroke="#000" x2="-6" y1="0.5" y2="0.5"></line><text fill="#000" x="-9" y="0.5" dy="0.32em">500</text></g><g class="tick" opacity="1" transform="translate(0,83.99756986634264)"><line stroke="#000" x2="-6" y1="0.5" y2="0.5"></line><text fill="#000" x="-9" y="0.5" dy="0.32em">600</text></g><g class="tick" opacity="1" transform="translate(0,46.33049817739976)"><line stroke="#000" x2="-6" y1="0.5" y2="0.5"></line><text fill="#000" x="-9" y="0.5" dy="0.32em">700</text></g><g class="tick" opacity="1" transform="translate(0,8.663426488456878)"><line stroke="#000" x2="-6" y1="0.5" y2="0.5"></line><text fill="#000" x="-9" y="0.5" dy="0.32em">800</text></g></g></g></svg>