<svg xmlns="http://www.w3.org/2000/svg" width="600" height="350"><defs><style type="text/css"><![CDATA[ 
.bar rect {
  fill-opacity: 0;
  stroke:       black;
  stroke-width: 0.5;
}

.highlight rect {
  fill:       red;
  fill-opacity: 1;
}
.axis path,
.axis line {
  fill: none;
  stroke: #000;
  shape-rendering: crispEdges;
}
 ]]></style></defs><g transform="translate(50,10)"><g class="bar" transform="translate(0,310)"><rect x="1" width="11.999999999999996" height="0"></rect></g><g class="bar" transform="translate(12.999999999999996,310)"><rect x="1" width="11.999999999999996" height="0"></rect></g><g class="bar" transform="translate(25.999999999999993,310)"><rect x="1" width="11.999999999999996" height="0"></rect></g><g class="bar" transform="translate(39.00000000000001,310)"><rect x="1" width="11.999999999999996" height="0"></rect></g><g class="bar" transform="translate(52,310)"><rect x="1" width="11.999999999999996" height="0"></rect></g><g class="bar" transform="translate(65,308.70563674321505)"><rect x="1" width="11.999999999999996" height="1.2943632567849477"></rect></g><g class="bar" transform="translate(78.00000000000001,304.17536534446765)"><rect x="1" width="11.999999999999996" height="5.82463465553235"></rect></g><g class="bar" transform="translate(91.00000000000001,302.88100208768265)"><rect x="1" width="11.999999999999996" height="7.118997912317354"></rect></g><g class="bar" transform="translate(104,292.52609603340295)"><rect x="1" width="11.999999999999996" height="17.47390396659705"></rect></g><g class="bar" transform="translate(117,275.69937369519835)"><rect x="1" width="11.999999999999996" height="34.30062630480165"></rect></g><g class="bar" transform="translate(130,232.3382045929019)"><rect x="1" width="11.999999999999996" height="77.66179540709811"></rect></g><g class="bar" transform="translate(143,204.50939457202506)"><rect x="1" width="11.999999999999996" height="105.49060542797494"></rect></g><g class="bar" transform="translate(156.00000000000003,176.68058455114823)"><rect x="1" width="11.999999999999996" height="133.31941544885177"></rect></g><g class="bar" transform="translate(169,152.0876826722338)"><rect x="1" width="11.999999999999996" height="157.9123173277662"></rect></g><g class="bar" transform="translate(182.00000000000003,77.66179540709811)"><rect x="1" width="11.999999999999996" height="232.3382045929019"></rect></g><g class="bar" transform="translate(195,60.18789144050103)"><rect x="1" width="11.999999999999996" height="249.81210855949897"></rect></g><g class="bar" transform="translate(208,11.002087682672254)"><rect x="1" width="11.999999999999996" height="298.99791231732775"></rect></g><g class="bar" transform="translate(221.00000000000003,33.65344467640921)"><rect x="1" width="11.999999999999996" height="276.3465553235908"></rect></g><g class="bar" transform="translate(234,0)"><rect x="1" width="11.999999999999996" height="310"></rect></g><g class="bar" transform="translate(247.00000000000003,37.53653444676411)"><rect x="1" width="11.999999999999996" height="272.4634655532359"></rect></g><g class="bar" transform="translate(260,35.59498956158666)"><rect x="1" width="11.999999999999996" height="274.40501043841334"></rect></g><g class="bar" transform="translate(273,88.01670146137786)"><rect x="1" width="11.999999999999996" height="221.98329853862214"></rect></g><g class="bar" transform="translate(286,133.96659707724424)"><rect x="1" width="11.999999999999996" height="176.03340292275576"></rect></g><g class="bar" transform="translate(299.00000000000006,202.56784968684758)"><rect x="1" width="11.999999999999996" height="107.43215031315242"></rect></g><g class="bar" transform="translate(312.00000000000006,240.1043841336117)"><rect x="1" width="11.999999999999996" height="69.89561586638831"></rect></g><g class="bar" transform="translate(325,270.52192066805844)"><rect x="1" width="11.999999999999996" height="39.47807933194156"></rect></g><g class="bar" transform="translate(338,273.7578288100209)"><rect x="1" width="11.999999999999996" height="36.2421711899791"></rect></g><g class="bar" transform="translate(351,294.4676409185804)"><rect x="1" width="11.999999999999996" height="15.5323590814196"></rect></g><g class="bar" transform="translate(364.00000000000006,306.7640918580376)"><rect x="1" width="11.999999999999996" height="3.2359081419623976"></rect></g><g class="bar" transform="translate(377.00000000000006,303.52818371607515)"><rect x="1" width="11.999999999999996" height="6.471816283924852"></rect></g><g class="bar" transform="translate(390,307.41127348643005)"><rect x="1" width="11.999999999999996" height="2.588726513569952"></rect></g><g class="bar" transform="translate(403,308.05845511482255)"><rect x="1" width="11.999999999999996" height="1.94154488517745"></rect></g><g class="bar" transform="translate(416,308.70563674321505)"><rect x="1" width="11.999999999999996" height="1.2943632567849477"></rect></g><g class="bar" transform="translate(429.00000000000006,310)"><rect x="1" width="11.999999999999996" height="0"></rect></g><g class="bar" transform="translate(442.00000000000006,310)"><rect x="1" width="11.999999999999996" height="0"></rect></g><g class="bar" transform="translate(455,310)"><rect x="1" width="11.999999999999996" height="0"></rect></g><g class="bar" transform="translate(468,310)"><rect x="1" width="11.999999999999996" height="0"></rect></g><g class="bar" transform="translate(481,310)"><rect x="1" width="11.999999999999996" height="0"></rect></g><g class="bar" transform="translate(494.00000000000006,310)"><rect x="1" width="11.999999999999996" height="0"></rect></g><g class="bar" transform="translate(507.00000000000006,310)"><rect x="1" width="11.999999999999996" height="0"></rect></g><g class="axis axis--x" transform="translate(0,310)" fill="none" font-size="10" font-family="sans-serif" text-anchor="middle"><path class="domain" stroke="#000" d="M0.5,6V0.5H520.5V6"></path><g class="tick" opacity="1" transform="translate(0,0)"><line stroke="#000" y2="6" x1="0.5" x2="0.5"></line><text fill="#000" y="9" x="0.5" dy="0.71em">0.01</text></g><g class="tick" opacity="1" transform="translate(130,0)"><line stroke="#000" y2="6" x1="0.5" x2="0.5"></line><text fill="#000" y="9" x="0.5" dy="0.71em">1</text></g><g class="tick" opacity="1" transform="translate(260,0)"><line stroke="#000" y2="6" x1="0.5" x2="0.5"></line><text fill="#000" y="9" x="0.5" dy="0.71em">100</text></g><g class="tick" opacity="1" transform="translate(390,0)"><line stroke="#000" y2="6" x1="0.5" x2="0.5"></line><text fill="#000" y="9" x="0.5" dy="0.71em">10000</text></g><g class="tick" opacity="1" transform="translate(520,0)"><line stroke="#000" y2="6" x1="0.5" x2="0.5"></line><text fill="#000" y="9" x="0.5" dy="0.71em"></text></g></g><g class="axis axis--y" fill="none" font-size="10" font-family="sans-serif" text-anchor="end"><path class="domain" stroke="#000" d="M-6,310.5H0.5V0.5H-6"></path><g class="tick" opacity="1" transform="translate(0,310)"><line stroke="#000" x2="-6" y1="0.5" y2="0.5"></line><text fill="#000" x="-9" y="0.5" dy="0.32em">0</text></g><g class="tick" opacity="1" transform="translate(0,277.6409185803758)"><line stroke="#000" x2="-6" y1="0.5" y2="0.5"></line><text fill="#000" x="-9" y="0.5" dy="0.32em">50</text></g><g class="tick" opacity="1" transform="translate(0,245.28183716075156)"><line stroke="#000" x2="-6" y1="0.5" y2="0.5"></line><text fill="#000" x="-9" y="0.5" dy="0.32em">100</text></g><g class="tick" opacity="1" transform="translate(0,212.92275574112733)"><line stroke="#000" x2="-6" y1="0.5" y2="0.5"></line><text fill="#000" x="-9" y="0.5" dy="0.32em">150</text></g><g class="tick" opacity="1" transform="translate(0,180.56367432150313)"><line stroke="#000" x2="-6" y1="0.5" y2="0.5"></line><text fill="#000" x="-9" y="0.5" dy="0.32em">200</text></g><g class="tick" opacity="1" transform="translate(0,148.2045929018789)"><line stroke="#000" x2="-6" y1="0.5" y2="0.5"></line><text fill="#000" x="-9" y="0.5" dy="0.32em">250</text></g><g class="tick" opacity="1" transform="translate(0,115.8455114822547)"><line stroke="#000" x2="-6" y1="0.5" y2="0.5"></line><text fill="#000" x="-9" y="0.5" dy="0.32em">300</text></g><g class="tick" opacity="1" transform="translate(0,83.48643006263046)"><line stroke="#000" x2="-6" y1="0.5" y2="0.5"></line><text fill="#000" x="-9" y="0.5" dy="0.32em">350</text></g><g class="tick" opacity="1" transform="translate(0,51.12734864300626)"><line stroke="#000" x2="-6" y1="0.5" y2="0.5"></line><text fill="#000" x="-9" y="0.5" dy="0.32em">400</text></g><g class="tick" opacity="1" transform="translate(0,18.768267223382054)"><line stroke="#000" x2="-6" y1="0.5" y2="0.5"></line><text fill="#000" x="-9" y="0.5" dy="0.32em">450</text></g></g></g></svg>