<svg xmlns="http://www.w3.org/2000/svg" width="280" height="160"><defs><style type="text/css"><![CDATA[ 
.bar rect {
  fill-opacity: 0;
  stroke:       black;
  stroke-width: 0.5;
}

.highlight rect {
  fill:       red;
  fill-opacity: 1;
}
.axis path,
.axis line {
  fill: none;
  stroke: #000;
  shape-rendering: crispEdges;
}
 ]]></style></defs><g transform="translate(50,10)"><g class="bar" transform="translate(0,120)"><rect x="1" width="11.5" height="0"></rect></g><g class="bar" transform="translate(12.5,120)"><rect x="1" width="11.5" height="0"></rect></g><g class="bar" transform="translate(25,120)"><rect x="1" width="11.5" height="0"></rect></g><g class="bar" transform="translate(37.5,120)"><rect x="1" width="11.5" height="0"></rect></g><g class="bar" transform="translate(50,119.62264150943396)"><rect x="1" width="11.5" height="0.37735849056603854"></rect></g><g class="bar" transform="translate(62.5,110.18867924528303)"><rect x="1" width="11.5" height="9.811320754716974"></rect></g><g class="bar" transform="translate(75,80)"><rect x="1" width="11.5" height="40"></rect></g><g class="bar" transform="translate(87.5,37.358490566037744)"><rect x="1" width="11.5" height="82.64150943396226"></rect></g><g class="bar" transform="translate(100,0)"><rect x="1" width="11.5" height="120"></rect></g><g class="bar" transform="translate(112.5,1.8867924528301927)"><rect x="1" width="11.5" height="118.11320754716981"></rect></g><g class="bar" transform="translate(125,53.9622641509434)"><rect x="1" width="11.5" height="66.0377358490566"></rect></g><g class="bar" transform="translate(137.5,95.47169811320754)"><rect x="1" width="11.5" height="24.528301886792462"></rect></g><g class="bar" transform="translate(150,118.49056603773585)"><rect x="1" width="11.5" height="1.5094339622641542"></rect></g><g class="bar" transform="translate(162.5,119.24528301886792)"><rect x="1" width="11.5" height="0.7547169811320771"></rect></g><g class="bar" transform="translate(175,120)"><rect x="1" width="11.5" height="0"></rect></g><g class="bar" transform="translate(187.5,120)"><rect x="1" width="11.5" height="0"></rect></g></g></svg>