<svg xmlns="http://www.w3.org/2000/svg" width="280" height="160"><defs><style type="text/css"><![CDATA[ 
.bar rect {
  fill-opacity: 0;
  stroke:       black;
  stroke-width: 0.5;
}

.highlight rect {
  fill:       red;
  fill-opacity: 1;
}
.axis path,
.axis line {
  fill: none;
  stroke: #000;
  shape-rendering: crispEdges;
}
 ]]></style></defs><g transform="translate(50,10)"><g class="bar" transform="translate(0,81.24711316397229)"><rect x="1" width="11.5" height="38.75288683602771"></rect></g><g class="bar" transform="translate(12.5,56.258660508083146)"><rect x="1" width="11.5" height="63.741339491916854"></rect></g><g class="bar" transform="translate(25,36.62817551963049)"><rect x="1" width="11.5" height="83.37182448036951"></rect></g><g class="bar" transform="translate(37.5,19.307159353348723)"><rect x="1" width="11.5" height="100.69284064665128"></rect></g><g class="bar" transform="translate(50,0)"><rect x="1" width="11.5" height="120"></rect></g><g class="bar" transform="translate(62.5,2.956120092378754)"><rect x="1" width="11.5" height="117.04387990762125"></rect></g><g class="bar" transform="translate(75,23.926096997690536)"><rect x="1" width="11.5" height="96.07390300230946"></rect></g><g class="bar" transform="translate(87.5,56.62817551963048)"><rect x="1" width="11.5" height="63.37182448036952"></rect></g><g class="bar" transform="translate(100,84.3418013856813)"><rect x="1" width="11.5" height="35.65819861431871"></rect></g><g class="bar" transform="translate(112.5,103.51039260969976)"><rect x="1" width="11.5" height="16.489607390300236"></rect></g><g class="bar" transform="translate(125,115.6581986143187)"><rect x="1" width="11.5" height="4.341801385681293"></rect></g><g class="bar" transform="translate(137.5,116.58198614318707)"><rect x="1" width="11.5" height="3.4180138568129337"></rect></g><g class="bar" transform="translate(150,119.86143187066975)"><rect x="1" width="11.5" height="0.13856812933025253"></rect></g><g class="bar" transform="translate(162.5,120)"><rect x="1" width="11.5" height="0"></rect></g><g class="bar" transform="translate(175,120)"><rect x="1" width="11.5" height="0"></rect></g><g class="bar" transform="translate(187.5,120)"><rect x="1" width="11.5" height="0"></rect></g></g></svg>