<svg xmlns="http://www.w3.org/2000/svg" width="280" height="160"><defs><style type="text/css"><![CDATA[ 
.bar rect {
  fill-opacity: 0;
  stroke:       black;
  stroke-width: 0.5;
}

.highlight rect {
  fill:       red;
  fill-opacity: 1;
}
.axis path,
.axis line {
  fill: none;
  stroke: #000;
  shape-rendering: crispEdges;
}
 ]]></style></defs><g transform="translate(50,10)"><g class="bar" transform="translate(0,119.34711643090316)"><rect x="1" width="11.5" height="0.6528835690968435"></rect></g><g class="bar" transform="translate(12.5,112.94885745375407)"><rect x="1" width="11.5" height="7.051142546245927"></rect></g><g class="bar" transform="translate(25,88.92274211099021)"><rect x="1" width="11.5" height="31.077257889009786"></rect></g><g class="bar" transform="translate(37.5,45.83242655059847)"><rect x="1" width="11.5" height="74.16757344940153"></rect></g><g class="bar" transform="translate(50,27.81284004352557)"><rect x="1" width="11.5" height="92.18715995647443"></rect></g><g class="bar" transform="translate(62.5,21.284004352557133)"><rect x="1" width="11.5" height="98.71599564744287"></rect></g><g class="bar" transform="translate(75,0)"><rect x="1" width="11.5" height="120"></rect></g><g class="bar" transform="translate(87.5,13.31882480957563)"><rect x="1" width="11.5" height="106.68117519042437"></rect></g><g class="bar" transform="translate(100,26.11534276387377)"><rect x="1" width="11.5" height="93.88465723612623"></rect></g><g class="bar" transform="translate(112.5,56.278563656147995)"><rect x="1" width="11.5" height="63.721436343852005"></rect></g><g class="bar" transform="translate(125,97.54080522306856)"><rect x="1" width="11.5" height="22.45919477693144"></rect></g><g class="bar" transform="translate(137.5,114.1240478781284)"><rect x="1" width="11.5" height="5.875952121871606"></rect></g><g class="bar" transform="translate(150,119.60826985854189)"><rect x="1" width="11.5" height="0.3917301414581118"></rect></g><g class="bar" transform="translate(162.5,120)"><rect x="1" width="11.5" height="0"></rect></g><g class="bar" transform="translate(175,120)"><rect x="1" width="11.5" height="0"></rect></g><g class="bar" transform="translate(187.5,120)"><rect x="1" width="11.5" height="0"></rect></g></g></svg>