<svg xmlns="http://www.w3.org/2000/svg" width="600" height="350"><defs><style type="text/css"><![CDATA[ 
.bar rect {
  fill-opacity: 0;
  stroke:       black;
  stroke-width: 0.5;
}

.highlight rect {
  fill:       red;
  fill-opacity: 1;
}
.axis path,
.axis line {
  fill: none;
  stroke: #000;
  shape-rendering: crispEdges;
}
 ]]></style></defs><g transform="translate(50,10)"><g class="bar" transform="translate(0,219.71929824561403)"><rect x="1" width="11.999999999999996" height="90.28070175438597"></rect></g><g class="bar" transform="translate(12.999999999999996,250.17543859649123)"><rect x="1" width="11.999999999999996" height="59.82456140350877"></rect></g><g class="bar" transform="translate(25.999999999999993,249.08771929824562)"><rect x="1" width="11.999999999999996" height="60.91228070175438"></rect></g><g class="bar" transform="translate(39.00000000000001,267.57894736842104)"><rect x="1" width="11.999999999999996" height="42.42105263157896"></rect></g><g class="bar" transform="translate(52,275.1929824561403)"><rect x="1" width="11.999999999999996" height="34.80701754385967"></rect></g><g class="bar" transform="translate(65,254.5263157894737)"><rect x="1" width="11.999999999999996" height="55.4736842105263"></rect></g><g class="bar" transform="translate(78.00000000000001,229.50877192982458)"><rect x="1" width="11.999999999999996" height="80.49122807017542"></rect></g><g class="bar" transform="translate(91.00000000000001,197.96491228070175)"><rect x="1" width="11.999999999999996" height="112.03508771929825"></rect></g><g class="bar" transform="translate(104,177.2982456140351)"><rect x="1" width="11.999999999999996" height="132.7017543859649"></rect></g><g class="bar" transform="translate(117,166.42105263157896)"><rect x="1" width="11.999999999999996" height="143.57894736842104"></rect></g><g class="bar" transform="translate(130,151.19298245614033)"><rect x="1" width="11.999999999999996" height="158.80701754385967"></rect></g><g class="bar" transform="translate(143,105.50877192982455)"><rect x="1" width="11.999999999999996" height="204.49122807017545"></rect></g><g class="bar" transform="translate(156.00000000000003,66.35087719298247)"><rect x="1" width="11.999999999999996" height="243.64912280701753"></rect></g><g class="bar" transform="translate(169,40.245614035087726)"><rect x="1" width="11.999999999999996" height="269.7543859649123"></rect></g><g class="bar" transform="translate(182.00000000000003,27.192982456140385)"><rect x="1" width="11.999999999999996" height="282.8070175438596"></rect></g><g class="bar" transform="translate(195,3.263157894736878)"><rect x="1" width="11.999999999999996" height="306.7368421052631"></rect></g><g class="bar" transform="translate(208,23.929824561403507)"><rect x="1" width="11.999999999999996" height="286.0701754385965"></rect></g><g class="bar" transform="translate(221.00000000000003,0)"><rect x="1" width="11.999999999999996" height="310"></rect></g><g class="bar" transform="translate(234,7.614035087719287)"><rect x="1" width="11.999999999999996" height="302.3859649122807"></rect></g><g class="bar" transform="translate(247.00000000000003,77.2280701754386)"><rect x="1" width="11.999999999999996" height="232.7719298245614"></rect></g><g class="bar" transform="translate(260,59.824561403508795)"><rect x="1" width="11.999999999999996" height="250.1754385964912"></rect></g><g class="bar" transform="translate(273,94.63157894736841)"><rect x="1" width="11.999999999999996" height="215.3684210526316"></rect></g><g class="bar" transform="translate(286,119.64912280701753)"><rect x="1" width="11.999999999999996" height="190.35087719298247"></rect></g><g class="bar" transform="translate(299.00000000000006,169.68421052631578)"><rect x="1" width="11.999999999999996" height="140.31578947368422"></rect></g><g class="bar" transform="translate(312.00000000000006,202.31578947368422)"><rect x="1" width="11.999999999999996" height="107.68421052631578"></rect></g><g class="bar" transform="translate(325,228.42105263157896)"><rect x="1" width="11.999999999999996" height="81.57894736842104"></rect></g><g class="bar" transform="translate(338,239.2982456140351)"><rect x="1" width="11.999999999999996" height="70.7017543859649"></rect></g><g class="bar" transform="translate(351,252.35087719298247)"><rect x="1" width="11.999999999999996" height="57.649122807017534"></rect></g><g class="bar" transform="translate(364.00000000000006,257.7894736842105)"><rect x="1" width="11.999999999999996" height="52.21052631578948"></rect></g><g class="bar" transform="translate(377.00000000000006,303.4736842105263)"><rect x="1" width="11.999999999999996" height="6.526315789473699"></rect></g><g class="bar" transform="translate(390,308.9122807017544)"><rect x="1" width="11.999999999999996" height="1.087719298245588"></rect></g><g class="bar" transform="translate(403,308.9122807017544)"><rect x="1" width="11.999999999999996" height="1.087719298245588"></rect></g><g class="bar" transform="translate(416,310)"><rect x="1" width="11.999999999999996" height="0"></rect></g><g class="bar" transform="translate(429.00000000000006,310)"><rect x="1" width="11.999999999999996" height="0"></rect></g><g class="bar" transform="translate(442.00000000000006,310)"><rect x="1" width="11.999999999999996" height="0"></rect></g><g class="bar" transform="translate(455,310)"><rect x="1" width="11.999999999999996" height="0"></rect></g><g class="bar" transform="translate(468,310)"><rect x="1" width="11.999999999999996" height="0"></rect></g><g class="bar" transform="translate(481,310)"><rect x="1" width="11.999999999999996" height="0"></rect></g><g class="bar" transform="translate(494.00000000000006,310)"><rect x="1" width="11.999999999999996" height="0"></rect></g><g class="bar" transform="translate(507.00000000000006,310)"><rect x="1" width="11.999999999999996" height="0"></rect></g><g class="axis axis--x" transform="translate(0,310)" fill="none" font-size="10" font-family="sans-serif" text-anchor="middle"><path class="domain" stroke="#000" d="M0.5,6V0.5H520.5V6"></path><g class="tick" opacity="1" transform="translate(0,0)"><line stroke="#000" y2="6" x1="0.5" x2="0.5"></line><text fill="#000" y="9" x="0.5" dy="0.71em">0.01</text></g><g class="tick" opacity="1" transform="translate(130,0)"><line stroke="#000" y2="6" x1="0.5" x2="0.5"></line><text fill="#000" y="9" x="0.5" dy="0.71em">1</text></g><g class="tick" opacity="1" transform="translate(260,0)"><line stroke="#000" y2="6" x1="0.5" x2="0.5"></line><text fill="#000" y="9" x="0.5" dy="0.71em">100</text></g><g class="tick" opacity="1" transform="translate(390,0)"><line stroke="#000" y2="6" x1="0.5" x2="0.5"></line><text fill="#000" y="9" x="0.5" dy="0.71em">10000</text></g><g class="tick" opacity="1" transform="translate(520,0)"><line stroke="#000" y2="6" x1="0.5" x2="0.5"></line><text fill="#000" y="9" x="0.5" dy="0.71em"></text></g></g><g class="axis axis--y" fill="none" font-size="10" font-family="sans-serif" text-anchor="end"><path class="domain" stroke="#000" d="M-6,310.5H0.5V0.5H-6"></path><g class="tick" opacity="1" transform="translate(0,310)"><line stroke="#000" x2="-6" y1="0.5" y2="0.5"></line><text fill="#000" x="-9" y="0.5" dy="0.32em">0</text></g><g class="tick" opacity="1" transform="translate(0,288.2456140350877)"><line stroke="#000" x2="-6" y1="0.5" y2="0.5"></line><text fill="#000" x="-9" y="0.5" dy="0.32em">20</text></g><g class="tick" opacity="1" transform="translate(0,266.49122807017545)"><line stroke="#000" x2="-6" y1="0.5" y2="0.5"></line><text fill="#000" x="-9" y="0.5" dy="0.32em">40</text></g><g class="tick" opacity="1" transform="translate(0,244.73684210526318)"><line stroke="#000" x2="-6" y1="0.5" y2="0.5"></line><text fill="#000" x="-9" y="0.5" dy="0.32em">60</text></g><g class="tick" opacity="1" transform="translate(0,222.98245614035088)"><line stroke="#000" x2="-6" y1="0.5" y2="0.5"></line><text fill="#000" x="-9" y="0.5" dy="0.32em">80</text></g><g class="tick" opacity="1" transform="translate(0,201.2280701754386)"><line stroke="#000" x2="-6" y1="0.5" y2="0.5"></line><text fill="#000" x="-9" y="0.5" dy="0.32em">100</text></g><g class="tick" opacity="1" transform="translate(0,179.47368421052633)"><line stroke="#000" x2="-6" y1="0.5" y2="0.5"></line><text fill="#000" x="-9" y="0.5" dy="0.32em">120</text></g><g class="tick" opacity="1" transform="translate(0,157.71929824561406)"><line stroke="#000" x2="-6" y1="0.5" y2="0.5"></line><text fill="#000" x="-9" y="0.5" dy="0.32em">140</text></g><g class="tick" opacity="1" transform="translate(0,135.96491228070175)"><line stroke="#000" x2="-6" y1="0.5" y2="0.5"></line><text fill="#000" x="-9" y="0.5" dy="0.32em">160</text></g><g class="tick" opacity="1" transform="translate(0,114.21052631578948)"><line stroke="#000" x2="-6" y1="0.5" y2="0.5"></line><text fill="#000" x="-9" y="0.5" dy="0.32em">180</text></g><g class="tick" opacity="1" transform="translate(0,92.4561403508772)"><line stroke="#000" x2="-6" y1="0.5" y2="0.5"></line><text fill="#000" x="-9" y="0.5" dy="0.32em">200</text></g><g class="tick" opacity="1" transform="translate(0,70.70175438596493)"><line stroke="#000" x2="-6" y1="0.5" y2="0.5"></line><text fill="#000" x="-9" y="0.5" dy="0.32em">220</text></g><g class="tick" opacity="1" transform="translate(0,48.94736842105266)"><line stroke="#000" x2="-6" y1="0.5" y2="0.5"></line><text fill="#000" x="-9" y="0.5" dy="0.32em">240</text></g><g class="tick" opacity="1" transform="translate(0,27.192982456140385)"><line stroke="#000" x2="-6" y1="0.5" y2="0.5"></line><text fill="#000" x="-9" y="0.5" dy="0.32em">260</text></g><g class="tick" opacity="1" transform="translate(0,5.438596491228111)"><line stroke="#000" x2="-6" y1="0.5" y2="0.5"></line><text fill="#000" x="-9" y="0.5" dy="0.32em">280</text></g></g></g></svg>