<svg xmlns="http://www.w3.org/2000/svg" width="280" height="160"><defs><style type="text/css"><![CDATA[ 
.bar rect {
  fill-opacity: 0;
  stroke:       black;
  stroke-width: 0.5;
}

.highlight rect {
  fill:       red;
  fill-opacity: 1;
}
.axis path,
.axis line {
  fill: none;
  stroke: #000;
  shape-rendering: crispEdges;
}
 ]]></style></defs><g transform="translate(50,10)"><g class="bar" transform="translate(0,120)"><rect x="1" width="11.5" height="0"></rect></g><g class="bar" transform="translate(12.5,120)"><rect x="1" width="11.5" height="0"></rect></g><g class="bar" transform="translate(25,119.79094076655052)"><rect x="1" width="11.5" height="0.20905923344948008"></rect></g><g class="bar" transform="translate(37.5,118.32752613240419)"><rect x="1" width="11.5" height="1.6724738675958122"></rect></g><g class="bar" transform="translate(50,98.88501742160278)"><rect x="1" width="11.5" height="21.114982578397218"></rect></g><g class="bar" transform="translate(62.5,61.045296167247386)"><rect x="1" width="11.5" height="58.954703832752614"></rect></g><g class="bar" transform="translate(75,11.707317073170728)"><rect x="1" width="11.5" height="108.29268292682927"></rect></g><g class="bar" transform="translate(87.5,0)"><rect x="1" width="11.5" height="120"></rect></g><g class="bar" transform="translate(100,6.062717770034851)"><rect x="1" width="11.5" height="113.93728222996515"></rect></g><g class="bar" transform="translate(112.5,25.505226480836242)"><rect x="1" width="11.5" height="94.49477351916376"></rect></g><g class="bar" transform="translate(125,72.9616724738676)"><rect x="1" width="11.5" height="47.038327526132406"></rect></g><g class="bar" transform="translate(137.5,110.80139372822299)"><rect x="1" width="11.5" height="9.19860627177701"></rect></g><g class="bar" transform="translate(150,120)"><rect x="1" width="11.5" height="0"></rect></g><g class="bar" transform="translate(162.5,120)"><rect x="1" width="11.5" height="0"></rect></g><g class="bar" transform="translate(175,120)"><rect x="1" width="11.5" height="0"></rect></g><g class="bar" transform="translate(187.5,120)"><rect x="1" width="11.5" height="0"></rect></g></g></svg>