<svg xmlns="http://www.w3.org/2000/svg" width="280" height="160"><defs><style type="text/css"><![CDATA[ 
.bar rect {
  fill-opacity: 0;
  stroke:       black;
  stroke-width: 0.5;
}

.highlight rect {
  fill:       red;
  fill-opacity: 1;
}
.axis path,
.axis line {
  fill: none;
  stroke: #000;
  shape-rendering: crispEdges;
}
path {
    stroke: red;
    fill: none;
}

line {
    stroke: red;
}

path.marker {
    fill: red;
}
 ]]></style></defs><g transform="translate(50,10)"><g class="bar" transform="translate(0,114.79591836734694)"><rect x="1" width="11.5" height="5.2040816326530575"></rect></g><g class="bar" transform="translate(12.5,90.15306122448979)"><rect x="1" width="11.5" height="29.84693877551021"></rect></g><g class="bar" transform="translate(25,46.14795918367348)"><rect x="1" width="11.5" height="73.85204081632652"></rect></g><g class="bar" transform="translate(37.5,21.734693877551024)"><rect x="1" width="11.5" height="98.26530612244898"></rect></g><g class="bar" transform="translate(50,8.801020408163268)"><rect x="1" width="11.5" height="111.19897959183673"></rect></g><g class="bar" transform="translate(62.5,0)"><rect x="1" width="11.5" height="120"></rect></g><g class="bar" transform="translate(75,6.58163265306122)"><rect x="1" width="11.5" height="113.41836734693878"></rect></g><g class="bar" transform="translate(87.5,31.836734693877546)"><rect x="1" width="11.5" height="88.16326530612245"></rect></g><g class="bar" transform="translate(100,56.70918367346939)"><rect x="1" width="11.5" height="63.29081632653061"></rect></g><g class="bar" transform="translate(112.5,87.93367346938774)"><rect x="1" width="11.5" height="32.06632653061226"></rect></g><g class="bar" transform="translate(125,107.90816326530611)"><rect x="1" width="11.5" height="12.091836734693885"></rect></g><g class="bar" transform="translate(137.5,116.25)"><rect x="1" width="11.5" height="3.75"></rect></g><g class="bar" transform="translate(150,119.9234693877551)"><rect x="1" width="11.5" height="0.07653061224489477"></rect></g><g class="bar" transform="translate(162.5,120)"><rect x="1" width="11.5" height="0"></rect></g><g class="bar" transform="translate(175,120)"><rect x="1" width="11.5" height="0"></rect></g><g class="bar" transform="translate(187.5,120)"><rect x="1" width="11.5" height="0"></rect></g></g></svg>