<svg xmlns="http://www.w3.org/2000/svg" width="600" height="350"><defs><style type="text/css"><![CDATA[ 
.bar rect {
  fill-opacity: 0;
  stroke:       black;
  stroke-width: 0.5;
}

.highlight rect {
  fill:       red;
  fill-opacity: 1;
}
.axis path,
.axis line {
  fill: none;
  stroke: #000;
  shape-rendering: crispEdges;
}
 ]]></style></defs><g transform="translate(50,10)"><g class="bar" transform="translate(0,307.84722222222223)"><rect x="1" width="11.999999999999996" height="2.1527777777777715"></rect></g><g class="bar" transform="translate(12.999999999999996,307.84722222222223)"><rect x="1" width="11.999999999999996" height="2.1527777777777715"></rect></g><g class="bar" transform="translate(25.999999999999993,302.8240740740741)"><rect x="1" width="11.999999999999996" height="7.175925925925924"></rect></g><g class="bar" transform="translate(39.00000000000001,292.06018518518516)"><rect x="1" width="11.999999999999996" height="17.939814814814838"></rect></g><g class="bar" transform="translate(52,279.14351851851853)"><rect x="1" width="11.999999999999996" height="30.856481481481467"></rect></g><g class="bar" transform="translate(65,261.9212962962963)"><rect x="1" width="11.999999999999996" height="48.078703703703695"></rect></g><g class="bar" transform="translate(78.00000000000001,236.08796296296296)"><rect x="1" width="11.999999999999996" height="73.91203703703704"></rect></g><g class="bar" transform="translate(91.00000000000001,193.75)"><rect x="1" width="11.999999999999996" height="116.25"></rect></g><g class="bar" transform="translate(104,169.35185185185185)"><rect x="1" width="11.999999999999996" height="140.64814814814815"></rect></g><g class="bar" transform="translate(117,110.50925925925927)"><rect x="1" width="11.999999999999996" height="199.49074074074073"></rect></g><g class="bar" transform="translate(130,104.05092592592592)"><rect x="1" width="11.999999999999996" height="205.94907407407408"></rect></g><g class="bar" transform="translate(143,63.86574074074073)"><rect x="1" width="11.999999999999996" height="246.13425925925927"></rect></g><g class="bar" transform="translate(156.00000000000003,52.384259259259295)"><rect x="1" width="11.999999999999996" height="257.6157407407407"></rect></g><g class="bar" transform="translate(169,39.46759259259255)"><rect x="1" width="11.999999999999996" height="270.53240740740745"></rect></g><g class="bar" transform="translate(182.00000000000003,0)"><rect x="1" width="11.999999999999996" height="310"></rect></g><g class="bar" transform="translate(195,10.763888888888857)"><rect x="1" width="11.999999999999996" height="299.23611111111114"></rect></g><g class="bar" transform="translate(208,67.4537037037037)"><rect x="1" width="11.999999999999996" height="242.5462962962963"></rect></g><g class="bar" transform="translate(221.00000000000003,78.21759259259258)"><rect x="1" width="11.999999999999996" height="231.78240740740742"></rect></g><g class="bar" transform="translate(234,73.91203703703704)"><rect x="1" width="11.999999999999996" height="236.08796296296296"></rect></g><g class="bar" transform="translate(247.00000000000003,109.07407407407408)"><rect x="1" width="11.999999999999996" height="200.92592592592592"></rect></g><g class="bar" transform="translate(260,152.12962962962962)"><rect x="1" width="11.999999999999996" height="157.87037037037038"></rect></g><g class="bar" transform="translate(273,149.97685185185185)"><rect x="1" width="11.999999999999996" height="160.02314814814815"></rect></g><g class="bar" transform="translate(286,186.57407407407408)"><rect x="1" width="11.999999999999996" height="123.42592592592592"></rect></g><g class="bar" transform="translate(299.00000000000006,221.73611111111111)"><rect x="1" width="11.999999999999996" height="88.26388888888889"></rect></g><g class="bar" transform="translate(312.00000000000006,241.8287037037037)"><rect x="1" width="11.999999999999996" height="68.1712962962963"></rect></g><g class="bar" transform="translate(325,259.0509259259259)"><rect x="1" width="11.999999999999996" height="50.949074074074076"></rect></g><g class="bar" transform="translate(338,269.81481481481484)"><rect x="1" width="11.999999999999996" height="40.18518518518516"></rect></g><g class="bar" transform="translate(351,279.8611111111111)"><rect x="1" width="11.999999999999996" height="30.138888888888914"></rect></g><g class="bar" transform="translate(364.00000000000006,288.47222222222223)"><rect x="1" width="11.999999999999996" height="21.52777777777777"></rect></g><g class="bar" transform="translate(377.00000000000006,302.8240740740741)"><rect x="1" width="11.999999999999996" height="7.175925925925924"></rect></g><g class="bar" transform="translate(390,308.56481481481484)"><rect x="1" width="11.999999999999996" height="1.435185185185162"></rect></g><g class="bar" transform="translate(403,309.2824074074074)"><rect x="1" width="11.999999999999996" height="0.7175925925926094"></rect></g><g class="bar" transform="translate(416,310)"><rect x="1" width="11.999999999999996" height="0"></rect></g><g class="bar" transform="translate(429.00000000000006,310)"><rect x="1" width="11.999999999999996" height="0"></rect></g><g class="bar" transform="translate(442.00000000000006,309.2824074074074)"><rect x="1" width="11.999999999999996" height="0.7175925925926094"></rect></g><g class="bar" transform="translate(455,310)"><rect x="1" width="11.999999999999996" height="0"></rect></g><g class="bar" transform="translate(468,310)"><rect x="1" width="11.999999999999996" height="0"></rect></g><g class="bar" transform="translate(481,310)"><rect x="1" width="11.999999999999996" height="0"></rect></g><g class="bar" transform="translate(494.00000000000006,310)"><rect x="1" width="11.999999999999996" height="0"></rect></g><g class="bar" transform="translate(507.00000000000006,310)"><rect x="1" width="11.999999999999996" height="0"></rect></g><g class="axis axis--x" transform="translate(0,310)" fill="none" font-size="10" font-family="sans-serif" text-anchor="middle"><path class="domain" stroke="#000" d="M0.5,6V0.5H520.5V6"></path><g class="tick" opacity="1" transform="translate(0,0)"><line stroke="#000" y2="6" x1="0.5" x2="0.5"></line><text fill="#000" y="9" x="0.5" dy="0.71em">0.01</text></g><g class="tick" opacity="1" transform="translate(130,0)"><line stroke="#000" y2="6" x1="0.5" x2="0.5"></line><text fill="#000" y="9" x="0.5" dy="0.71em">1</text></g><g class="tick" opacity="1" transform="translate(260,0)"><line stroke="#000" y2="6" x1="0.5" x2="0.5"></line><text fill="#000" y="9" x="0.5" dy="0.71em">100</text></g><g class="tick" opacity="1" transform="translate(390,0)"><line stroke="#000" y2="6" x1="0.5" x2="0.5"></line><text fill="#000" y="9" x="0.5" dy="0.71em">10000</text></g><g class="tick" opacity="1" transform="translate(520,0)"><line stroke="#000" y2="6" x1="0.5" x2="0.5"></line><text fill="#000" y="9" x="0.5" dy="0.71em"></text></g></g><g class="axis axis--y" fill="none" font-size="10" font-family="sans-serif" text-anchor="end"><path class="domain" stroke="#000" d="M-6,310.5H0.5V0.5H-6"></path><g class="tick" opacity="1" transform="translate(0,310)"><line stroke="#000" x2="-6" y1="0.5" y2="0.5"></line><text fill="#000" x="-9" y="0.5" dy="0.32em">0</text></g><g class="tick" opacity="1" transform="translate(0,274.1203703703704)"><line stroke="#000" x2="-6" y1="0.5" y2="0.5"></line><text fill="#000" x="-9" y="0.5" dy="0.32em">50</text></g><g class="tick" opacity="1" transform="translate(0,238.24074074074073)"><line stroke="#000" x2="-6" y1="0.5" y2="0.5"></line><text fill="#000" x="-9" y="0.5" dy="0.32em">100</text></g><g class="tick" opacity="1" transform="translate(0,202.36111111111111)"><line stroke="#000" x2="-6" y1="0.5" y2="0.5"></line><text fill="#000" x="-9" y="0.5" dy="0.32em">150</text></g><g class="tick" opacity="1" transform="translate(0,166.48148148148147)"><line stroke="#000" x2="-6" y1="0.5" y2="0.5"></line><text fill="#000" x="-9" y="0.5" dy="0.32em">200</text></g><g class="tick" opacity="1" transform="translate(0,130.60185185185185)"><line stroke="#000" x2="-6" y1="0.5" y2="0.5"></line><text fill="#000" x="-9" y="0.5" dy="0.32em">250</text></g><g class="tick" opacity="1" transform="translate(0,94.72222222222223)"><line stroke="#000" x2="-6" y1="0.5" y2="0.5"></line><text fill="#000" x="-9" y="0.5" dy="0.32em">300</text></g><g class="tick" opacity="1" transform="translate(0,58.84259259259258)"><line stroke="#000" x2="-6" y1="0.5" y2="0.5"></line><text fill="#000" x="-9" y="0.5" dy="0.32em">350</text></g><g class="tick" opacity="1" transform="translate(0,22.962962962962933)"><line stroke="#000" x2="-6" y1="0.5" y2="0.5"></line><text fill="#000" x="-9" y="0.5" dy="0.32em">400</text></g></g></g></svg>