<svg xmlns="http://www.w3.org/2000/svg" width="280" height="160"><defs><style type="text/css"><![CDATA[ 
.bar rect {
  fill-opacity: 0;
  stroke:       black;
  stroke-width: 0.5;
}

.highlight rect {
  fill:       red;
  fill-opacity: 1;
}
.axis path,
.axis line {
  fill: none;
  stroke: #000;
  shape-rendering: crispEdges;
}
 ]]></style></defs><g transform="translate(50,10)"><g class="bar" transform="translate(0,120)"><rect x="1" width="11.5" height="0"></rect></g><g class="bar" transform="translate(12.5,119.1304347826087)"><rect x="1" width="11.5" height="0.8695652173912976"></rect></g><g class="bar" transform="translate(25,117.82608695652173)"><rect x="1" width="11.5" height="2.173913043478265"></rect></g><g class="bar" transform="translate(37.5,112.6086956521739)"><rect x="1" width="11.5" height="7.391304347826093"></rect></g><g class="bar" transform="translate(50,80.43478260869566)"><rect x="1" width="11.5" height="39.565217391304344"></rect></g><g class="bar" transform="translate(62.5,46.95652173913044)"><rect x="1" width="11.5" height="73.04347826086956"></rect></g><g class="bar" transform="translate(75,22.391304347826093)"><rect x="1" width="11.5" height="97.6086956521739"></rect></g><g class="bar" transform="translate(87.5,0)"><rect x="1" width="11.5" height="120"></rect></g><g class="bar" transform="translate(100,14.130434782608688)"><rect x="1" width="11.5" height="105.86956521739131"></rect></g><g class="bar" transform="translate(112.5,55)"><rect x="1" width="11.5" height="65"></rect></g><g class="bar" transform="translate(125,94.34782608695652)"><rect x="1" width="11.5" height="25.652173913043484"></rect></g><g class="bar" transform="translate(137.5,107.3913043478261)"><rect x="1" width="11.5" height="12.608695652173907"></rect></g><g class="bar" transform="translate(150,117.82608695652173)"><rect x="1" width="11.5" height="2.173913043478265"></rect></g><g class="bar" transform="translate(162.5,120)"><rect x="1" width="11.5" height="0"></rect></g><g class="bar" transform="translate(175,120)"><rect x="1" width="11.5" height="0"></rect></g><g class="bar" transform="translate(187.5,120)"><rect x="1" width="11.5" height="0"></rect></g></g></svg>