<svg xmlns="http://www.w3.org/2000/svg" width="280" height="160"><defs><style type="text/css"><![CDATA[ 
.bar rect {
  fill-opacity: 0;
  stroke:       black;
  stroke-width: 0.5;
}

.highlight rect {
  fill:       red;
  fill-opacity: 1;
}
.axis path,
.axis line {
  fill: none;
  stroke: #000;
  shape-rendering: crispEdges;
}
path {
    stroke: red;
    fill: none;
}

line {
    stroke: red;
}

path.marker {
    fill: red;
}
 ]]></style></defs><g transform="translate(50,10)"><g class="bar" transform="translate(0,117.93696275071633)"><rect x="1" width="11.5" height="2.063037249283667"></rect></g><g class="bar" transform="translate(12.5,112.77936962750717)"><rect x="1" width="11.5" height="7.220630372492835"></rect></g><g class="bar" transform="translate(25,103.49570200573066)"><rect x="1" width="11.5" height="16.504297994269336"></rect></g><g class="bar" transform="translate(37.5,76.16045845272205)"><rect x="1" width="11.5" height="43.839541547277946"></rect></g><g class="bar" transform="translate(50,32.49283667621776)"><rect x="1" width="11.5" height="87.50716332378224"></rect></g><g class="bar" transform="translate(62.5,9.11174785100286)"><rect x="1" width="11.5" height="110.88825214899714"></rect></g><g class="bar" transform="translate(75,0)"><rect x="1" width="11.5" height="120"></rect></g><g class="bar" transform="translate(87.5,11.346704871060183)"><rect x="1" width="11.5" height="108.65329512893982"></rect></g><g class="bar" transform="translate(100,32.32091690544412)"><rect x="1" width="11.5" height="87.67908309455588"></rect></g><g class="bar" transform="translate(112.5,70.48710601719198)"><rect x="1" width="11.5" height="49.51289398280802"></rect></g><g class="bar" transform="translate(125,92.6647564469914)"><rect x="1" width="11.5" height="27.335243553008596"></rect></g><g class="bar" transform="translate(137.5,111.57593123209169)"><rect x="1" width="11.5" height="8.42406876790831"></rect></g><g class="bar" transform="translate(150,120)"><rect x="1" width="11.5" height="0"></rect></g><g class="bar" transform="translate(162.5,120)"><rect x="1" width="11.5" height="0"></rect></g><g class="bar" transform="translate(175,119.82808022922636)"><rect x="1" width="11.5" height="0.1719197707736413"></rect></g><g class="bar" transform="translate(187.5,120)"><rect x="1" width="11.5" height="0"></rect></g></g></svg>