<svg xmlns="http://www.w3.org/2000/svg" width="600" height="350"><defs><style type="text/css"><![CDATA[ 
.bar rect {
  fill-opacity: 0;
  stroke:       black;
  stroke-width: 0.5;
}

.highlight rect {
  fill:       red;
  fill-opacity: 1;
}
.axis path,
.axis line {
  fill: none;
  stroke: #000;
  shape-rendering: crispEdges;
}
 ]]></style></defs><g transform="translate(50,10)"><g class="bar" transform="translate(0,310)"><rect x="1" width="11.999999999999996" height="0"></rect></g><g class="bar" transform="translate(12.999999999999996,308.3979328165375)"><rect x="1" width="11.999999999999996" height="1.602067183462509"></rect></g><g class="bar" transform="translate(25.999999999999993,308.3979328165375)"><rect x="1" width="11.999999999999996" height="1.602067183462509"></rect></g><g class="bar" transform="translate(39.00000000000001,309.19896640826875)"><rect x="1" width="11.999999999999996" height="0.8010335917312545"></rect></g><g class="bar" transform="translate(52,309.19896640826875)"><rect x="1" width="11.999999999999996" height="0.8010335917312545"></rect></g><g class="bar" transform="translate(65,289.97416020671835)"><rect x="1" width="11.999999999999996" height="20.025839793281648"></rect></g><g class="bar" transform="translate(78.00000000000001,306.7958656330749)"><rect x="1" width="11.999999999999996" height="3.204134366925075"></rect></g><g class="bar" transform="translate(91.00000000000001,263.54005167958655)"><rect x="1" width="11.999999999999996" height="46.459948320413446"></rect></g><g class="bar" transform="translate(104,297.984496124031)"><rect x="1" width="11.999999999999996" height="12.015503875968989"></rect></g><g class="bar" transform="translate(117,289.1731266149871)"><rect x="1" width="11.999999999999996" height="20.826873385012902"></rect></g><g class="bar" transform="translate(130,262.7390180878553)"><rect x="1" width="11.999999999999996" height="47.2609819121447"></rect></g><g class="bar" transform="translate(143,242.71317829457365)"><rect x="1" width="11.999999999999996" height="67.28682170542635"></rect></g><g class="bar" transform="translate(156.00000000000003,191.44702842377262)"><rect x="1" width="11.999999999999996" height="118.55297157622738"></rect></g><g class="bar" transform="translate(169,100.12919896640824)"><rect x="1" width="11.999999999999996" height="209.87080103359176"></rect></g><g class="bar" transform="translate(182.00000000000003,85.71059431524546)"><rect x="1" width="11.999999999999996" height="224.28940568475454"></rect></g><g class="bar" transform="translate(195,75.29715762273901)"><rect x="1" width="11.999999999999996" height="234.702842377261"></rect></g><g class="bar" transform="translate(208,0)"><rect x="1" width="11.999999999999996" height="310"></rect></g><g class="bar" transform="translate(221.00000000000003,32.84237726098189)"><rect x="1" width="11.999999999999996" height="277.1576227390181"></rect></g><g class="bar" transform="translate(234,60.07751937984497)"><rect x="1" width="11.999999999999996" height="249.92248062015503"></rect></g><g class="bar" transform="translate(247.00000000000003,59.27648578811372)"><rect x="1" width="11.999999999999996" height="250.72351421188628"></rect></g><g class="bar" transform="translate(260,31.240310077519382)"><rect x="1" width="11.999999999999996" height="278.7596899224806"></rect></g><g class="bar" transform="translate(273,104.93540051679585)"><rect x="1" width="11.999999999999996" height="205.06459948320415"></rect></g><g class="bar" transform="translate(286,112.14470284237726)"><rect x="1" width="11.999999999999996" height="197.85529715762274"></rect></g><g class="bar" transform="translate(299.00000000000006,177.8294573643411)"><rect x="1" width="11.999999999999996" height="132.1705426356589"></rect></g><g class="bar" transform="translate(312.00000000000006,223.48837209302326)"><rect x="1" width="11.999999999999996" height="86.51162790697674"></rect></g><g class="bar" transform="translate(325,263.54005167958655)"><rect x="1" width="11.999999999999996" height="46.459948320413446"></rect></g><g class="bar" transform="translate(338,273.1524547803618)"><rect x="1" width="11.999999999999996" height="36.84754521963822"></rect></g><g class="bar" transform="translate(351,286.7700258397933)"><rect x="1" width="11.999999999999996" height="23.229974160206723"></rect></g><g class="bar" transform="translate(364.00000000000006,288.37209302325584)"><rect x="1" width="11.999999999999996" height="21.627906976744157"></rect></g><g class="bar" transform="translate(377.00000000000006,305.1937984496124)"><rect x="1" width="11.999999999999996" height="4.806201550387584"></rect></g><g class="bar" transform="translate(390,308.3979328165375)"><rect x="1" width="11.999999999999996" height="1.602067183462509"></rect></g><g class="bar" transform="translate(403,309.19896640826875)"><rect x="1" width="11.999999999999996" height="0.8010335917312545"></rect></g><g class="bar" transform="translate(416,310)"><rect x="1" width="11.999999999999996" height="0"></rect></g><g class="bar" transform="translate(429.00000000000006,309.19896640826875)"><rect x="1" width="11.999999999999996" height="0.8010335917312545"></rect></g><g class="bar" transform="translate(442.00000000000006,309.19896640826875)"><rect x="1" width="11.999999999999996" height="0.8010335917312545"></rect></g><g class="bar" transform="translate(455,310)"><rect x="1" width="11.999999999999996" height="0"></rect></g><g class="bar" transform="translate(468,310)"><rect x="1" width="11.999999999999996" height="0"></rect></g><g class="bar" transform="translate(481,310)"><rect x="1" width="11.999999999999996" height="0"></rect></g><g class="bar" transform="translate(494.00000000000006,310)"><rect x="1" width="11.999999999999996" height="0"></rect></g><g class="bar" transform="translate(507.00000000000006,310)"><rect x="1" width="11.999999999999996" height="0"></rect></g><g class="axis axis--x" transform="translate(0,310)" fill="none" font-size="10" font-family="sans-serif" text-anchor="middle"><path class="domain" stroke="#000" d="M0.5,6V0.5H520.5V6"></path><g class="tick" opacity="1" transform="translate(0,0)"><line stroke="#000" y2="6" x1="0.5" x2="0.5"></line><text fill="#000" y="9" x="0.5" dy="0.71em">0.01</text></g><g class="tick" opacity="1" transform="translate(130,0)"><line stroke="#000" y2="6" x1="0.5" x2="0.5"></line><text fill="#000" y="9" x="0.5" dy="0.71em">1</text></g><g class="tick" opacity="1" transform="translate(260,0)"><line stroke="#000" y2="6" x1="0.5" x2="0.5"></line><text fill="#000" y="9" x="0.5" dy="0.71em">100</text></g><g class="tick" opacity="1" transform="translate(390,0)"><line stroke="#000" y2="6" x1="0.5" x2="0.5"></line><text fill="#000" y="9" x="0.5" dy="0.71em">10000</text></g><g class="tick" opacity="1" transform="translate(520,0)"><line stroke="#000" y2="6" x1="0.5" x2="0.5"></line><text fill="#000" y="9" x="0.5" dy="0.71em"></text></g></g><g class="axis axis--y" fill="none" font-size="10" font-family="sans-serif" text-anchor="end"><path class="domain" stroke="#000" d="M-6,310.5H0.5V0.5H-6"></path><g class="tick" opacity="1" transform="translate(0,310)"><line stroke="#000" x2="-6" y1="0.5" y2="0.5"></line><text fill="#000" x="-9" y="0.5" dy="0.32em">0</text></g><g class="tick" opacity="1" transform="translate(0,269.9483204134367)"><line stroke="#000" x2="-6" y1="0.5" y2="0.5"></line><text fill="#000" x="-9" y="0.5" dy="0.32em">50</text></g><g class="tick" opacity="1" transform="translate(0,229.8966408268734)"><line stroke="#000" x2="-6" y1="0.5" y2="0.5"></line><text fill="#000" x="-9" y="0.5" dy="0.32em">100</text></g><g class="tick" opacity="1" transform="translate(0,189.84496124031006)"><line stroke="#000" x2="-6" y1="0.5" y2="0.5"></line><text fill="#000" x="-9" y="0.5" dy="0.32em">150</text></g><g class="tick" opacity="1" transform="translate(0,149.7932816537468)"><line stroke="#000" x2="-6" y1="0.5" y2="0.5"></line><text fill="#000" x="-9" y="0.5" dy="0.32em">200</text></g><g class="tick" opacity="1" transform="translate(0,109.74160206718346)"><line stroke="#000" x2="-6" y1="0.5" y2="0.5"></line><text fill="#000" x="-9" y="0.5" dy="0.32em">250</text></g><g class="tick" opacity="1" transform="translate(0,69.68992248062014)"><line stroke="#000" x2="-6" y1="0.5" y2="0.5"></line><text fill="#000" x="-9" y="0.5" dy="0.32em">300</text></g><g class="tick" opacity="1" transform="translate(0,29.638242894056873)"><line stroke="#000" x2="-6" y1="0.5" y2="0.5"></line><text fill="#000" x="-9" y="0.5" dy="0.32em">350</text></g></g></g></svg>