<svg xmlns="http://www.w3.org/2000/svg" width="280" height="160"><defs><style type="text/css"><![CDATA[ 
.bar rect {
  fill-opacity: 0;
  stroke:       black;
  stroke-width: 0.5;
}

.highlight rect {
  fill:       red;
  fill-opacity: 1;
}
.axis path,
.axis line {
  fill: none;
  stroke: #000;
  shape-rendering: crispEdges;
}
 ]]></style></defs><g transform="translate(50,10)"><g class="bar" transform="translate(0,120)"><rect x="1" width="11.5" height="0"></rect></g><g class="bar" transform="translate(12.5,119.93874425727412)"><rect x="1" width="11.5" height="0.061255742725876416"></rect></g><g class="bar" transform="translate(25,120)"><rect x="1" width="11.5" height="0"></rect></g><g class="bar" transform="translate(37.5,119.6937212863706)"><rect x="1" width="11.5" height="0.3062787136293963"></rect></g><g class="bar" transform="translate(50,117.73353751914242)"><rect x="1" width="11.5" height="2.2664624808575837"></rect></g><g class="bar" transform="translate(62.5,83.18529862174579)"><rect x="1" width="11.5" height="36.81470137825421"></rect></g><g class="bar" transform="translate(75,0)"><rect x="1" width="11.5" height="120"></rect></g><g class="bar" transform="translate(87.5,65.97243491577336)"><rect x="1" width="11.5" height="54.02756508422664"></rect></g><g class="bar" transform="translate(100,99.05053598774884)"><rect x="1" width="11.5" height="20.949464012251156"></rect></g><g class="bar" transform="translate(112.5,103.33843797856049)"><rect x="1" width="11.5" height="16.661562021439508"></rect></g><g class="bar" transform="translate(125,108.17764165390506)"><rect x="1" width="11.5" height="11.822358346094944"></rect></g><g class="bar" transform="translate(137.5,116.69218989280245)"><rect x="1" width="11.5" height="3.307810107197554"></rect></g><g class="bar" transform="translate(150,119.6937212863706)"><rect x="1" width="11.5" height="0.3062787136293963"></rect></g><g class="bar" transform="translate(162.5,120)"><rect x="1" width="11.5" height="0"></rect></g><g class="bar" transform="translate(175,120)"><rect x="1" width="11.5" height="0"></rect></g><g class="bar" transform="translate(187.5,120)"><rect x="1" width="11.5" height="0"></rect></g></g></svg>