<svg xmlns="http://www.w3.org/2000/svg" width="600" height="350"><defs><style type="text/css"><![CDATA[ 
.bar rect {
  fill-opacity: 0;
  stroke:       black;
  stroke-width: 0.5;
}

.highlight rect {
  fill:       red;
  fill-opacity: 1;
}
.axis path,
.axis line {
  fill: none;
  stroke: #000;
  shape-rendering: crispEdges;
}
 ]]></style></defs><g transform="translate(50,10)"><g class="bar" transform="translate(0,310)"><rect x="1" width="11.999999999999996" height="0"></rect></g><g class="bar" transform="translate(12.999999999999996,310)"><rect x="1" width="11.999999999999996" height="0"></rect></g><g class="bar" transform="translate(25.999999999999993,306.5934065934066)"><rect x="1" width="11.999999999999996" height="3.4065934065934016"></rect></g><g class="bar" transform="translate(39.00000000000001,303.1868131868132)"><rect x="1" width="11.999999999999996" height="6.813186813186803"></rect></g><g class="bar" transform="translate(52,304.8901098901099)"><rect x="1" width="11.999999999999996" height="5.109890109890102"></rect></g><g class="bar" transform="translate(65,282.74725274725273)"><rect x="1" width="11.999999999999996" height="27.25274725274727"></rect></g><g class="bar" transform="translate(78.00000000000001,255.4945054945055)"><rect x="1" width="11.999999999999996" height="54.50549450549451"></rect></g><g class="bar" transform="translate(91.00000000000001,180.54945054945054)"><rect x="1" width="11.999999999999996" height="129.45054945054946"></rect></g><g class="bar" transform="translate(104,127.74725274725273)"><rect x="1" width="11.999999999999996" height="182.25274725274727"></rect></g><g class="bar" transform="translate(117,81.75824175824175)"><rect x="1" width="11.999999999999996" height="228.24175824175825"></rect></g><g class="bar" transform="translate(130,93.68131868131869)"><rect x="1" width="11.999999999999996" height="216.3186813186813"></rect></g><g class="bar" transform="translate(143,0)"><rect x="1" width="11.999999999999996" height="310"></rect></g><g class="bar" transform="translate(156.00000000000003,32.36263736263737)"><rect x="1" width="11.999999999999996" height="277.6373626373626"></rect></g><g class="bar" transform="translate(169,1.7032967032967008)"><rect x="1" width="11.999999999999996" height="308.2967032967033"></rect></g><g class="bar" transform="translate(182.00000000000003,15.329670329670364)"><rect x="1" width="11.999999999999996" height="294.67032967032964"></rect></g><g class="bar" transform="translate(195,34.06593406593407)"><rect x="1" width="11.999999999999996" height="275.9340659340659"></rect></g><g class="bar" transform="translate(208,20.43956043956041)"><rect x="1" width="11.999999999999996" height="289.5604395604396"></rect></g><g class="bar" transform="translate(221.00000000000003,25.54945054945057)"><rect x="1" width="11.999999999999996" height="284.45054945054943"></rect></g><g class="bar" transform="translate(234,44.28571428571428)"><rect x="1" width="11.999999999999996" height="265.7142857142857"></rect></g><g class="bar" transform="translate(247.00000000000003,49.39560439560438)"><rect x="1" width="11.999999999999996" height="260.6043956043956"></rect></g><g class="bar" transform="translate(260,27.25274725274727)"><rect x="1" width="11.999999999999996" height="282.74725274725273"></rect></g><g class="bar" transform="translate(273,83.46153846153848)"><rect x="1" width="11.999999999999996" height="226.53846153846152"></rect></g><g class="bar" transform="translate(286,73.24175824175825)"><rect x="1" width="11.999999999999996" height="236.75824175824175"></rect></g><g class="bar" transform="translate(299.00000000000006,102.19780219780222)"><rect x="1" width="11.999999999999996" height="207.80219780219778"></rect></g><g class="bar" transform="translate(312.00000000000006,144.7802197802198)"><rect x="1" width="11.999999999999996" height="165.2197802197802"></rect></g><g class="bar" transform="translate(325,192.47252747252747)"><rect x="1" width="11.999999999999996" height="117.52747252747253"></rect></g><g class="bar" transform="translate(338,236.75824175824175)"><rect x="1" width="11.999999999999996" height="73.24175824175825"></rect></g><g class="bar" transform="translate(351,224.83516483516485)"><rect x="1" width="11.999999999999996" height="85.16483516483515"></rect></g><g class="bar" transform="translate(364.00000000000006,262.3076923076923)"><rect x="1" width="11.999999999999996" height="47.69230769230768"></rect></g><g class="bar" transform="translate(377.00000000000006,294.6703296703297)"><rect x="1" width="11.999999999999996" height="15.329670329670307"></rect></g><g class="bar" transform="translate(390,294.6703296703297)"><rect x="1" width="11.999999999999996" height="15.329670329670307"></rect></g><g class="bar" transform="translate(403,301.4835164835165)"><rect x="1" width="11.999999999999996" height="8.516483516483504"></rect></g><g class="bar" transform="translate(416,310)"><rect x="1" width="11.999999999999996" height="0"></rect></g><g class="bar" transform="translate(429.00000000000006,310)"><rect x="1" width="11.999999999999996" height="0"></rect></g><g class="bar" transform="translate(442.00000000000006,310)"><rect x="1" width="11.999999999999996" height="0"></rect></g><g class="bar" transform="translate(455,310)"><rect x="1" width="11.999999999999996" height="0"></rect></g><g class="bar" transform="translate(468,310)"><rect x="1" width="11.999999999999996" height="0"></rect></g><g class="bar" transform="translate(481,310)"><rect x="1" width="11.999999999999996" height="0"></rect></g><g class="bar" transform="translate(494.00000000000006,310)"><rect x="1" width="11.999999999999996" height="0"></rect></g><g class="bar" transform="translate(507.00000000000006,310)"><rect x="1" width="11.999999999999996" height="0"></rect></g><g class="axis axis--x" transform="translate(0,310)" fill="none" font-size="10" font-family="sans-serif" text-anchor="middle"><path class="domain" stroke="#000" d="M0.5,6V0.5H520.5V6"></path><g class="tick" opacity="1" transform="translate(0,0)"><line stroke="#000" y2="6" x1="0.5" x2="0.5"></line><text fill="#000" y="9" x="0.5" dy="0.71em">0.01</text></g><g class="tick" opacity="1" transform="translate(130,0)"><line stroke="#000" y2="6" x1="0.5" x2="0.5"></line><text fill="#000" y="9" x="0.5" dy="0.71em">1</text></g><g class="tick" opacity="1" transform="translate(260,0)"><line stroke="#000" y2="6" x1="0.5" x2="0.5"></line><text fill="#000" y="9" x="0.5" dy="0.71em">100</text></g><g class="tick" opacity="1" transform="translate(390,0)"><line stroke="#000" y2="6" x1="0.5" x2="0.5"></line><text fill="#000" y="9" x="0.5" dy="0.71em">10000</text></g><g class="tick" opacity="1" transform="translate(520,0)"><line stroke="#000" y2="6" x1="0.5" x2="0.5"></line><text fill="#000" y="9" x="0.5" dy="0.71em"></text></g></g><g class="axis axis--y" fill="none" font-size="10" font-family="sans-serif" text-anchor="end"><path class="domain" stroke="#000" d="M-6,310.5H0.5V0.5H-6"></path><g class="tick" opacity="1" transform="translate(0,310)"><line stroke="#000" x2="-6" y1="0.5" y2="0.5"></line><text fill="#000" x="-9" y="0.5" dy="0.32em">0</text></g><g class="tick" opacity="1" transform="translate(0,275.9340659340659)"><line stroke="#000" x2="-6" y1="0.5" y2="0.5"></line><text fill="#000" x="-9" y="0.5" dy="0.32em">20</text></g><g class="tick" opacity="1" transform="translate(0,241.86813186813185)"><line stroke="#000" x2="-6" y1="0.5" y2="0.5"></line><text fill="#000" x="-9" y="0.5" dy="0.32em">40</text></g><g class="tick" opacity="1" transform="translate(0,207.8021978021978)"><line stroke="#000" x2="-6" y1="0.5" y2="0.5"></line><text fill="#000" x="-9" y="0.5" dy="0.32em">60</text></g><g class="tick" opacity="1" transform="translate(0,173.73626373626374)"><line stroke="#000" x2="-6" y1="0.5" y2="0.5"></line><text fill="#000" x="-9" y="0.5" dy="0.32em">80</text></g><g class="tick" opacity="1" transform="translate(0,139.67032967032966)"><line stroke="#000" x2="-6" y1="0.5" y2="0.5"></line><text fill="#000" x="-9" y="0.5" dy="0.32em">100</text></g><g class="tick" opacity="1" transform="translate(0,105.60439560439562)"><line stroke="#000" x2="-6" y1="0.5" y2="0.5"></line><text fill="#000" x="-9" y="0.5" dy="0.32em">120</text></g><g class="tick" opacity="1" transform="translate(0,71.53846153846152)"><line stroke="#000" x2="-6" y1="0.5" y2="0.5"></line><text fill="#000" x="-9" y="0.5" dy="0.32em">140</text></g><g class="tick" opacity="1" transform="translate(0,37.472527472527474)"><line stroke="#000" x2="-6" y1="0.5" y2="0.5"></line><text fill="#000" x="-9" y="0.5" dy="0.32em">160</text></g><g class="tick" opacity="1" transform="translate(0,3.4065934065934016)"><line stroke="#000" x2="-6" y1="0.5" y2="0.5"></line><text fill="#000" x="-9" y="0.5" dy="0.32em">180</text></g></g></g></svg>