<svg xmlns="http://www.w3.org/2000/svg" width="280" height="160"><defs><style type="text/css"><![CDATA[ 
.bar rect {
  fill-opacity: 0;
  stroke:       black;
  stroke-width: 0.5;
}

.highlight rect {
  fill:       red;
  fill-opacity: 1;
}
.axis path,
.axis line {
  fill: none;
  stroke: #000;
  shape-rendering: crispEdges;
}
path {
    stroke: red;
    fill: none;
}

line {
    stroke: red;
}

path.marker {
    fill: red;
}
 ]]></style></defs><g transform="translate(50,10)"><g class="bar" transform="translate(0,119.92167101827677)"><rect x="1" width="11.5" height="0.07832898172323155"></rect></g><g class="bar" transform="translate(12.5,117.68929503916449)"><rect x="1" width="11.5" height="2.3107049608355084"></rect></g><g class="bar" transform="translate(25,114.43864229765013)"><rect x="1" width="11.5" height="5.561357702349866"></rect></g><g class="bar" transform="translate(37.5,113.57702349869452)"><rect x="1" width="11.5" height="6.4229765013054845"></rect></g><g class="bar" transform="translate(50,102.80678851174935)"><rect x="1" width="11.5" height="17.193211488250654"></rect></g><g class="bar" transform="translate(62.5,42.45430809399478)"><rect x="1" width="11.5" height="77.54569190600522"></rect></g><g class="bar" transform="translate(75,0)"><rect x="1" width="11.5" height="120"></rect></g><g class="bar" transform="translate(87.5,32.78067885117494)"><rect x="1" width="11.5" height="87.21932114882506"></rect></g><g class="bar" transform="translate(100,70.69190600522194)"><rect x="1" width="11.5" height="49.30809399477806"></rect></g><g class="bar" transform="translate(112.5,100.73107049608355)"><rect x="1" width="11.5" height="19.268929503916453"></rect></g><g class="bar" transform="translate(125,115.0261096605744)"><rect x="1" width="11.5" height="4.973890339425594"></rect></g><g class="bar" transform="translate(137.5,119.3733681462141)"><rect x="1" width="11.5" height="0.626631853785895"></rect></g><g class="bar" transform="translate(150,119.92167101827677)"><rect x="1" width="11.5" height="0.07832898172323155"></rect></g><g class="bar" transform="translate(162.5,120)"><rect x="1" width="11.5" height="0"></rect></g><g class="bar" transform="translate(175,120)"><rect x="1" width="11.5" height="0"></rect></g><g class="bar" transform="translate(187.5,120)"><rect x="1" width="11.5" height="0"></rect></g></g></svg>