<svg xmlns="http://www.w3.org/2000/svg" width="600" height="350"><defs><style type="text/css"><![CDATA[ 
.bar rect {
  fill-opacity: 0;
  stroke:       black;
  stroke-width: 0.5;
}

.highlight rect {
  fill:       red;
  fill-opacity: 1;
}
.axis path,
.axis line {
  fill: none;
  stroke: #000;
  shape-rendering: crispEdges;
}
path {
    stroke: red;
    fill: none;
}

line {
    stroke: red;
}

path.marker {
    fill: red;
}
 ]]></style></defs><g transform="translate(50,10)"><g class="bar" transform="translate(0,310)"><rect x="1" width="11.999999999999996" height="0"></rect></g><g class="bar" transform="translate(12.999999999999996,310)"><rect x="1" width="11.999999999999996" height="0"></rect></g><g class="bar" transform="translate(25.999999999999993,310)"><rect x="1" width="11.999999999999996" height="0"></rect></g><g class="bar" transform="translate(39.00000000000001,310)"><rect x="1" width="11.999999999999996" height="0"></rect></g><g class="bar" transform="translate(52,309.41509433962267)"><rect x="1" width="11.999999999999996" height="0.5849056603773306"></rect></g><g class="bar" transform="translate(65,308.8301886792453)"><rect x="1" width="11.999999999999996" height="1.169811320754718"></rect></g><g class="bar" transform="translate(78.00000000000001,302.39622641509436)"><rect x="1" width="11.999999999999996" height="7.603773584905639"></rect></g><g class="bar" transform="translate(91.00000000000001,297.7169811320755)"><rect x="1" width="11.999999999999996" height="12.283018867924511"></rect></g><g class="bar" transform="translate(104,290.1132075471698)"><rect x="1" width="11.999999999999996" height="19.886792452830207"></rect></g><g class="bar" transform="translate(117,279.58490566037733)"><rect x="1" width="11.999999999999996" height="30.41509433962267"></rect></g><g class="bar" transform="translate(130,258.52830188679246)"><rect x="1" width="11.999999999999996" height="51.47169811320754"></rect></g><g class="bar" transform="translate(143,219.33962264150944)"><rect x="1" width="11.999999999999996" height="90.66037735849056"></rect></g><g class="bar" transform="translate(156.00000000000003,191.2641509433962)"><rect x="1" width="11.999999999999996" height="118.7358490566038"></rect></g><g class="bar" transform="translate(169,138.62264150943398)"><rect x="1" width="11.999999999999996" height="171.37735849056602"></rect></g><g class="bar" transform="translate(182.00000000000003,81.8867924528302)"><rect x="1" width="11.999999999999996" height="228.1132075471698"></rect></g><g class="bar" transform="translate(195,69.60377358490564)"><rect x="1" width="11.999999999999996" height="240.39622641509436"></rect></g><g class="bar" transform="translate(208,29.245283018867894)"><rect x="1" width="11.999999999999996" height="280.7547169811321"></rect></g><g class="bar" transform="translate(221.00000000000003,6.433962264150921)"><rect x="1" width="11.999999999999996" height="303.5660377358491"></rect></g><g class="bar" transform="translate(234,0)"><rect x="1" width="11.999999999999996" height="310"></rect></g><g class="bar" transform="translate(247.00000000000003,0)"><rect x="1" width="11.999999999999996" height="310"></rect></g><g class="bar" transform="translate(260,2.339622641509436)"><rect x="1" width="11.999999999999996" height="307.66037735849056"></rect></g><g class="bar" transform="translate(273,40.358490566037744)"><rect x="1" width="11.999999999999996" height="269.64150943396226"></rect></g><g class="bar" transform="translate(286,81.8867924528302)"><rect x="1" width="11.999999999999996" height="228.1132075471698"></rect></g><g class="bar" transform="translate(299.00000000000006,160.26415094339623)"><rect x="1" width="11.999999999999996" height="149.73584905660377"></rect></g><g class="bar" transform="translate(312.00000000000006,226.94339622641508)"><rect x="1" width="11.999999999999996" height="83.05660377358492"></rect></g><g class="bar" transform="translate(325,268.47169811320754)"><rect x="1" width="11.999999999999996" height="41.52830188679246"></rect></g><g class="bar" transform="translate(338,285.4339622641509)"><rect x="1" width="11.999999999999996" height="24.56603773584908"></rect></g><g class="bar" transform="translate(351,294.20754716981133)"><rect x="1" width="11.999999999999996" height="15.792452830188665"></rect></g><g class="bar" transform="translate(364.00000000000006,307.07547169811323)"><rect x="1" width="11.999999999999996" height="2.9245283018867667"></rect></g><g class="bar" transform="translate(377.00000000000006,308.8301886792453)"><rect x="1" width="11.999999999999996" height="1.169811320754718"></rect></g><g class="bar" transform="translate(390,307.66037735849056)"><rect x="1" width="11.999999999999996" height="2.339622641509436"></rect></g><g class="bar" transform="translate(403,309.41509433962267)"><rect x="1" width="11.999999999999996" height="0.5849056603773306"></rect></g><g class="bar" transform="translate(416,310)"><rect x="1" width="11.999999999999996" height="0"></rect></g><g class="bar" transform="translate(429.00000000000006,310)"><rect x="1" width="11.999999999999996" height="0"></rect></g><g class="bar" transform="translate(442.00000000000006,310)"><rect x="1" width="11.999999999999996" height="0"></rect></g><g class="bar" transform="translate(455,310)"><rect x="1" width="11.999999999999996" height="0"></rect></g><g class="bar" transform="translate(468,310)"><rect x="1" width="11.999999999999996" height="0"></rect></g><g class="bar" transform="translate(481,310)"><rect x="1" width="11.999999999999996" height="0"></rect></g><g class="bar" transform="translate(494.00000000000006,310)"><rect x="1" width="11.999999999999996" height="0"></rect></g><g class="bar" transform="translate(507.00000000000006,310)"><rect x="1" width="11.999999999999996" height="0"></rect></g><g class="axis axis--x" transform="translate(0,310)" fill="none" font-size="10" font-family="sans-serif" text-anchor="middle"><path class="domain" stroke="#000" d="M0.5,6V0.5H520.5V6"></path><g class="tick" opacity="1" transform="translate(0.5,0)"><line stroke="#000" y2="6"></line><text fill="#000" y="9" dy="0.71em">0.01</text></g><g class="tick" opacity="1" transform="translate(130.5,0)"><line stroke="#000" y2="6"></line><text fill="#000" y="9" dy="0.71em">1</text></g><g class="tick" opacity="1" transform="translate(260.5,0)"><line stroke="#000" y2="6"></line><text fill="#000" y="9" dy="0.71em">100</text></g><g class="tick" opacity="1" transform="translate(390.5,0)"><line stroke="#000" y2="6"></line><text fill="#000" y="9" dy="0.71em">10000</text></g><g class="tick" opacity="1" transform="translate(520.5,0)"><line stroke="#000" y2="6"></line><text fill="#000" y="9" dy="0.71em"></text></g></g><g class="axis axis--y" fill="none" font-size="10" font-family="sans-serif" text-anchor="end"><path class="domain" stroke="#000" d="M-6,310.5H0.5V0.5H-6"></path><g class="tick" opacity="1" transform="translate(0,310.5)"><line stroke="#000" x2="-6"></line><text fill="#000" x="-9" dy="0.32em">0</text></g><g class="tick" opacity="1" transform="translate(0,281.25471698113205)"><line stroke="#000" x2="-6"></line><text fill="#000" x="-9" dy="0.32em">50</text></g><g class="tick" opacity="1" transform="translate(0,252.00943396226415)"><line stroke="#000" x2="-6"></line><text fill="#000" x="-9" dy="0.32em">100</text></g><g class="tick" opacity="1" transform="translate(0,222.76415094339623)"><line stroke="#000" x2="-6"></line><text fill="#000" x="-9" dy="0.32em">150</text></g><g class="tick" opacity="1" transform="translate(0,193.5188679245283)"><line stroke="#000" x2="-6"></line><text fill="#000" x="-9" dy="0.32em">200</text></g><g class="tick" opacity="1" transform="translate(0,164.27358490566039)"><line stroke="#000" x2="-6"></line><text fill="#000" x="-9" dy="0.32em">250</text></g><g class="tick" opacity="1" transform="translate(0,135.02830188679246)"><line stroke="#000" x2="-6"></line><text fill="#000" x="-9" dy="0.32em">300</text></g><g class="tick" opacity="1" transform="translate(0,105.78301886792454)"><line stroke="#000" x2="-6"></line><text fill="#000" x="-9" dy="0.32em">350</text></g><g class="tick" opacity="1" transform="translate(0,76.53773584905659)"><line stroke="#000" x2="-6"></line><text fill="#000" x="-9" dy="0.32em">400</text></g><g class="tick" opacity="1" transform="translate(0,47.292452830188665)"><line stroke="#000" x2="-6"></line><text fill="#000" x="-9" dy="0.32em">450</text></g><g class="tick" opacity="1" transform="translate(0,18.04716981132077)"><line stroke="#000" x2="-6"></line><text fill="#000" x="-9" dy="0.32em">500</text></g></g></g></svg>