<svg xmlns="http://www.w3.org/2000/svg" width="600" height="350"><defs><style type="text/css"><![CDATA[ 
.bar rect {
  fill-opacity: 0;
  stroke:       black;
  stroke-width: 0.5;
}

.highlight rect {
  fill:       red;
  fill-opacity: 1;
}
.axis path,
.axis line {
  fill: none;
  stroke: #000;
  shape-rendering: crispEdges;
}
path {
    stroke: red;
    fill: none;
}

line {
    stroke: red;
}

path.marker {
    fill: red;
}
 ]]></style></defs><g transform="translate(50,10)"><g class="bar" transform="translate(0,310)"><rect x="1" width="11.999999999999996" height="0"></rect></g><g class="bar" transform="translate(12.999999999999996,310)"><rect x="1" width="11.999999999999996" height="0"></rect></g><g class="bar" transform="translate(25.999999999999993,310)"><rect x="1" width="11.999999999999996" height="0"></rect></g><g class="bar" transform="translate(39.00000000000001,310)"><rect x="1" width="11.999999999999996" height="0"></rect></g><g class="bar" transform="translate(52,310)"><rect x="1" width="11.999999999999996" height="0"></rect></g><g class="bar" transform="translate(65,310)"><rect x="1" width="11.999999999999996" height="0"></rect></g><g class="bar" transform="translate(78.00000000000001,310)"><rect x="1" width="11.999999999999996" height="0"></rect></g><g class="bar" transform="translate(91.00000000000001,310)"><rect x="1" width="11.999999999999996" height="0"></rect></g><g class="bar" transform="translate(104,310)"><rect x="1" width="11.999999999999996" height="0"></rect></g><g class="bar" transform="translate(117,303.2608695652174)"><rect x="1" width="11.999999999999996" height="6.7391304347826235"></rect></g><g class="bar" transform="translate(130,299.89130434782606)"><rect x="1" width="11.999999999999996" height="10.108695652173935"></rect></g><g class="bar" transform="translate(143,276.30434782608694)"><rect x="1" width="11.999999999999996" height="33.69565217391306"></rect></g><g class="bar" transform="translate(156.00000000000003,254.4021739130435)"><rect x="1" width="11.999999999999996" height="55.5978260869565"></rect></g><g class="bar" transform="translate(169,224.07608695652175)"><rect x="1" width="11.999999999999996" height="85.92391304347825"></rect></g><g class="bar" transform="translate(182.00000000000003,207.22826086956522)"><rect x="1" width="11.999999999999996" height="102.77173913043478"></rect></g><g class="bar" transform="translate(195,144.89130434782606)"><rect x="1" width="11.999999999999996" height="165.10869565217394"></rect></g><g class="bar" transform="translate(208,131.41304347826087)"><rect x="1" width="11.999999999999996" height="178.58695652173913"></rect></g><g class="bar" transform="translate(221.00000000000003,107.82608695652175)"><rect x="1" width="11.999999999999996" height="202.17391304347825"></rect></g><g class="bar" transform="translate(234,70.7608695652174)"><rect x="1" width="11.999999999999996" height="239.2391304347826"></rect></g><g class="bar" transform="translate(247.00000000000003,58.967391304347814)"><rect x="1" width="11.999999999999996" height="251.0326086956522"></rect></g><g class="bar" transform="translate(260,13.47826086956519)"><rect x="1" width="11.999999999999996" height="296.5217391304348"></rect></g><g class="bar" transform="translate(273,11.793478260869563)"><rect x="1" width="11.999999999999996" height="298.20652173913044"></rect></g><g class="bar" transform="translate(286,0)"><rect x="1" width="11.999999999999996" height="310"></rect></g><g class="bar" transform="translate(299.00000000000006,26.956521739130437)"><rect x="1" width="11.999999999999996" height="283.04347826086956"></rect></g><g class="bar" transform="translate(312.00000000000006,65.70652173913044)"><rect x="1" width="11.999999999999996" height="244.29347826086956"></rect></g><g class="bar" transform="translate(325,168.47826086956522)"><rect x="1" width="11.999999999999996" height="141.52173913043478"></rect></g><g class="bar" transform="translate(338,210.59782608695653)"><rect x="1" width="11.999999999999996" height="99.40217391304347"></rect></g><g class="bar" transform="translate(351,242.60869565217394)"><rect x="1" width="11.999999999999996" height="67.39130434782606"></rect></g><g class="bar" transform="translate(364.00000000000006,271.25)"><rect x="1" width="11.999999999999996" height="38.75"></rect></g><g class="bar" transform="translate(377.00000000000006,288.0978260869565)"><rect x="1" width="11.999999999999996" height="21.902173913043498"></rect></g><g class="bar" transform="translate(390,304.94565217391306)"><rect x="1" width="11.999999999999996" height="5.054347826086939"></rect></g><g class="bar" transform="translate(403,306.6304347826087)"><rect x="1" width="11.999999999999996" height="3.3695652173913118"></rect></g><g class="bar" transform="translate(416,308.3152173913044)"><rect x="1" width="11.999999999999996" height="1.6847826086956275"></rect></g><g class="bar" transform="translate(429.00000000000006,310)"><rect x="1" width="11.999999999999996" height="0"></rect></g><g class="bar" transform="translate(442.00000000000006,310)"><rect x="1" width="11.999999999999996" height="0"></rect></g><g class="bar" transform="translate(455,310)"><rect x="1" width="11.999999999999996" height="0"></rect></g><g class="bar" transform="translate(468,310)"><rect x="1" width="11.999999999999996" height="0"></rect></g><g class="bar" transform="translate(481,310)"><rect x="1" width="11.999999999999996" height="0"></rect></g><g class="bar" transform="translate(494.00000000000006,310)"><rect x="1" width="11.999999999999996" height="0"></rect></g><g class="bar" transform="translate(507.00000000000006,310)"><rect x="1" width="11.999999999999996" height="0"></rect></g><g class="axis axis--x" transform="translate(0,310)" fill="none" font-size="10" font-family="sans-serif" text-anchor="middle"><path class="domain" stroke="#000" d="M0.5,6V0.5H520.5V6"></path><g class="tick" opacity="1" transform="translate(0.5,0)"><line stroke="#000" y2="6"></line><text fill="#000" y="9" dy="0.71em">0.01</text></g><g class="tick" opacity="1" transform="translate(130.5,0)"><line stroke="#000" y2="6"></line><text fill="#000" y="9" dy="0.71em">1</text></g><g class="tick" opacity="1" transform="translate(260.5,0)"><line stroke="#000" y2="6"></line><text fill="#000" y="9" dy="0.71em">100</text></g><g class="tick" opacity="1" transform="translate(390.5,0)"><line stroke="#000" y2="6"></line><text fill="#000" y="9" dy="0.71em">10000</text></g><g class="tick" opacity="1" transform="translate(520.5,0)"><line stroke="#000" y2="6"></line><text fill="#000" y="9" dy="0.71em"></text></g></g><g class="axis axis--y" fill="none" font-size="10" font-family="sans-serif" text-anchor="end"><path class="domain" stroke="#000" d="M-6,310.5H0.5V0.5H-6"></path><g class="tick" opacity="1" transform="translate(0,310.5)"><line stroke="#000" x2="-6"></line><text fill="#000" x="-9" dy="0.32em">0</text></g><g class="tick" opacity="1" transform="translate(0,276.80434782608694)"><line stroke="#000" x2="-6"></line><text fill="#000" x="-9" dy="0.32em">20</text></g><g class="tick" opacity="1" transform="translate(0,243.10869565217394)"><line stroke="#000" x2="-6"></line><text fill="#000" x="-9" dy="0.32em">40</text></g><g class="tick" opacity="1" transform="translate(0,209.41304347826087)"><line stroke="#000" x2="-6"></line><text fill="#000" x="-9" dy="0.32em">60</text></g><g class="tick" opacity="1" transform="translate(0,175.71739130434784)"><line stroke="#000" x2="-6"></line><text fill="#000" x="-9" dy="0.32em">80</text></g><g class="tick" opacity="1" transform="translate(0,142.02173913043478)"><line stroke="#000" x2="-6"></line><text fill="#000" x="-9" dy="0.32em">100</text></g><g class="tick" opacity="1" transform="translate(0,108.32608695652175)"><line stroke="#000" x2="-6"></line><text fill="#000" x="-9" dy="0.32em">120</text></g><g class="tick" opacity="1" transform="translate(0,74.63043478260869)"><line stroke="#000" x2="-6"></line><text fill="#000" x="-9" dy="0.32em">140</text></g><g class="tick" opacity="1" transform="translate(0,40.934782608695684)"><line stroke="#000" x2="-6"></line><text fill="#000" x="-9" dy="0.32em">160</text></g><g class="tick" opacity="1" transform="translate(0,7.2391304347826235)"><line stroke="#000" x2="-6"></line><text fill="#000" x="-9" dy="0.32em">180</text></g></g></g></svg>