<svg xmlns="http://www.w3.org/2000/svg" width="280" height="160"><defs><style type="text/css"><![CDATA[ 
.bar rect {
  fill-opacity: 0;
  stroke:       black;
  stroke-width: 0.5;
}

.highlight rect {
  fill:       red;
  fill-opacity: 1;
}
.axis path,
.axis line {
  fill: none;
  stroke: #000;
  shape-rendering: crispEdges;
}
 ]]></style></defs><g transform="translate(50,10)"><g class="bar" transform="translate(0,113.3292608430055)"><rect x="1" width="11.5" height="6.6707391569945"></rect></g><g class="bar" transform="translate(12.5,109.1508857666463)"><rect x="1" width="11.5" height="10.849114233353703"></rect></g><g class="bar" transform="translate(25,89.94502138057422)"><rect x="1" width="11.5" height="30.054978619425782"></rect></g><g class="bar" transform="translate(37.5,56.9578497251069)"><rect x="1" width="11.5" height="63.0421502748931"></rect></g><g class="bar" transform="translate(50,25.21686010995724)"><rect x="1" width="11.5" height="94.78313989004276"></rect></g><g class="bar" transform="translate(62.5,0)"><rect x="1" width="11.5" height="120"></rect></g><g class="bar" transform="translate(75,4.471594379963349)"><rect x="1" width="11.5" height="115.52840562003665"></rect></g><g class="bar" transform="translate(87.5,35.626145387904714)"><rect x="1" width="11.5" height="84.37385461209529"></rect></g><g class="bar" transform="translate(100,70.00610873549175)"><rect x="1" width="11.5" height="49.99389126450825"></rect></g><g class="bar" transform="translate(112.5,95.4428833231521)"><rect x="1" width="11.5" height="24.557116676847897"></rect></g><g class="bar" transform="translate(125,102.99328039095907)"><rect x="1" width="11.5" height="17.00671960904093"></rect></g><g class="bar" transform="translate(137.5,117.94746487477093)"><rect x="1" width="11.5" height="2.0525351252290704"></rect></g><g class="bar" transform="translate(150,119.70678069639584)"><rect x="1" width="11.5" height="0.29321930360416104"></rect></g><g class="bar" transform="translate(162.5,120)"><rect x="1" width="11.5" height="0"></rect></g><g class="bar" transform="translate(175,120)"><rect x="1" width="11.5" height="0"></rect></g><g class="bar" transform="translate(187.5,120)"><rect x="1" width="11.5" height="0"></rect></g></g></svg>