<svg xmlns="http://www.w3.org/2000/svg" width="600" height="350"><defs><style type="text/css"><![CDATA[ 
.bar rect {
  fill-opacity: 0;
  stroke:       black;
  stroke-width: 0.5;
}

.highlight rect {
  fill:       red;
  fill-opacity: 1;
}
.axis path,
.axis line {
  fill: none;
  stroke: #000;
  shape-rendering: crispEdges;
}
 ]]></style></defs><g transform="translate(50,10)"><g class="bar" transform="translate(0,290.70911722141824)"><rect x="1" width="11.999999999999996" height="19.29088277858176"></rect></g><g class="bar" transform="translate(12.999999999999996,296.5412445730825)"><rect x="1" width="11.999999999999996" height="13.458755426917492"></rect></g><g class="bar" transform="translate(25.999999999999993,294.29811866859626)"><rect x="1" width="11.999999999999996" height="15.70188133140374"></rect></g><g class="bar" transform="translate(39.00000000000001,284.87698986975397)"><rect x="1" width="11.999999999999996" height="25.12301013024603"></rect></g><g class="bar" transform="translate(52,276.3531114327062)"><rect x="1" width="11.999999999999996" height="33.646888567293786"></rect></g><g class="bar" transform="translate(65,258.85672937771346)"><rect x="1" width="11.999999999999996" height="51.143270622286536"></rect></g><g class="bar" transform="translate(78.00000000000001,222.06946454413895)"><rect x="1" width="11.999999999999996" height="87.93053545586105"></rect></g><g class="bar" transform="translate(91.00000000000001,212.19971056439942)"><rect x="1" width="11.999999999999996" height="97.80028943560058"></rect></g><g class="bar" transform="translate(104,165.09406657018812)"><rect x="1" width="11.999999999999996" height="144.90593342981188"></rect></g><g class="bar" transform="translate(117,122.0260492040521)"><rect x="1" width="11.999999999999996" height="187.9739507959479"></rect></g><g class="bar" transform="translate(130,105.42691751085383)"><rect x="1" width="11.999999999999996" height="204.57308248914617"></rect></g><g class="bar" transform="translate(143,65.0506512301013)"><rect x="1" width="11.999999999999996" height="244.9493487698987"></rect></g><g class="bar" transform="translate(156.00000000000003,42.61939218523878)"><rect x="1" width="11.999999999999996" height="267.3806078147612"></rect></g><g class="bar" transform="translate(169,22.431259044862543)"><rect x="1" width="11.999999999999996" height="287.56874095513746"></rect></g><g class="bar" transform="translate(182.00000000000003,0)"><rect x="1" width="11.999999999999996" height="310"></rect></g><g class="bar" transform="translate(195,16.599131693198274)"><rect x="1" width="11.999999999999996" height="293.4008683068017"></rect></g><g class="bar" transform="translate(208,21.08538350217077)"><rect x="1" width="11.999999999999996" height="288.91461649782923"></rect></g><g class="bar" transform="translate(221.00000000000003,69.53690303907379)"><rect x="1" width="11.999999999999996" height="240.4630969609262"></rect></g><g class="bar" transform="translate(234,90.62228654124456)"><rect x="1" width="11.999999999999996" height="219.37771345875544"></rect></g><g class="bar" transform="translate(247.00000000000003,128.75542691751085)"><rect x="1" width="11.999999999999996" height="181.24457308248915"></rect></g><g class="bar" transform="translate(260,162.40231548480463)"><rect x="1" width="11.999999999999996" height="147.59768451519537"></rect></g><g class="bar" transform="translate(273,198.29232995658467)"><rect x="1" width="11.999999999999996" height="111.70767004341533"></rect></g><g class="bar" transform="translate(286,220.27496382054994)"><rect x="1" width="11.999999999999996" height="89.72503617945006"></rect></g><g class="bar" transform="translate(299.00000000000006,251.23010130246018)"><rect x="1" width="11.999999999999996" height="58.769898697539816"></rect></g><g class="bar" transform="translate(312.00000000000006,261.54848046309695)"><rect x="1" width="11.999999999999996" height="48.45151953690305"></rect></g><g class="bar" transform="translate(325,257.06222865412445)"><rect x="1" width="11.999999999999996" height="52.93777134587555"></rect></g><g class="bar" transform="translate(338,264.68885672937773)"><rect x="1" width="11.999999999999996" height="45.31114327062227"></rect></g><g class="bar" transform="translate(351,301.47612156295224)"><rect x="1" width="11.999999999999996" height="8.523878437047756"></rect></g><g class="bar" transform="translate(364.00000000000006,302.3733719247467)"><rect x="1" width="11.999999999999996" height="7.626628075253279"></rect></g><g class="bar" transform="translate(377.00000000000006,307.75687409551375)"><rect x="1" width="11.999999999999996" height="2.2431259044862486"></rect></g><g class="bar" transform="translate(390,308.6541244573082)"><rect x="1" width="11.999999999999996" height="1.345875542691772"></rect></g><g class="bar" transform="translate(403,309.55137481910276)"><rect x="1" width="11.999999999999996" height="0.44862518089723835"></rect></g><g class="bar" transform="translate(416,310)"><rect x="1" width="11.999999999999996" height="0"></rect></g><g class="bar" transform="translate(429.00000000000006,310)"><rect x="1" width="11.999999999999996" height="0"></rect></g><g class="bar" transform="translate(442.00000000000006,310)"><rect x="1" width="11.999999999999996" height="0"></rect></g><g class="bar" transform="translate(455,310)"><rect x="1" width="11.999999999999996" height="0"></rect></g><g class="bar" transform="translate(468,310)"><rect x="1" width="11.999999999999996" height="0"></rect></g><g class="bar" transform="translate(481,310)"><rect x="1" width="11.999999999999996" height="0"></rect></g><g class="bar" transform="translate(494.00000000000006,310)"><rect x="1" width="11.999999999999996" height="0"></rect></g><g class="bar" transform="translate(507.00000000000006,310)"><rect x="1" width="11.999999999999996" height="0"></rect></g><g class="axis axis--x" transform="translate(0,310)" fill="none" font-size="10" font-family="sans-serif" text-anchor="middle"><path class="domain" stroke="#000" d="M0.5,6V0.5H520.5V6"></path><g class="tick" opacity="1" transform="translate(0,0)"><line stroke="#000" y2="6" x1="0.5" x2="0.5"></line><text fill="#000" y="9" x="0.5" dy="0.71em">0.01</text></g><g class="tick" opacity="1" transform="translate(130,0)"><line stroke="#000" y2="6" x1="0.5" x2="0.5"></line><text fill="#000" y="9" x="0.5" dy="0.71em">1</text></g><g class="tick" opacity="1" transform="translate(260,0)"><line stroke="#000" y2="6" x1="0.5" x2="0.5"></line><text fill="#000" y="9" x="0.5" dy="0.71em">100</text></g><g class="tick" opacity="1" transform="translate(390,0)"><line stroke="#000" y2="6" x1="0.5" x2="0.5"></line><text fill="#000" y="9" x="0.5" dy="0.71em">10000</text></g><g class="tick" opacity="1" transform="translate(520,0)"><line stroke="#000" y2="6" x1="0.5" x2="0.5"></line><text fill="#000" y="9" x="0.5" dy="0.71em"></text></g></g><g class="axis axis--y" fill="none" font-size="10" font-family="sans-serif" text-anchor="end"><path class="domain" stroke="#000" d="M-6,310.5H0.5V0.5H-6"></path><g class="tick" opacity="1" transform="translate(0,310)"><line stroke="#000" x2="-6" y1="0.5" y2="0.5"></line><text fill="#000" x="-9" y="0.5" dy="0.32em">0</text></g><g class="tick" opacity="1" transform="translate(0,287.56874095513746)"><line stroke="#000" x2="-6" y1="0.5" y2="0.5"></line><text fill="#000" x="-9" y="0.5" dy="0.32em">50</text></g><g class="tick" opacity="1" transform="translate(0,265.13748191027497)"><line stroke="#000" x2="-6" y1="0.5" y2="0.5"></line><text fill="#000" x="-9" y="0.5" dy="0.32em">100</text></g><g class="tick" opacity="1" transform="translate(0,242.70622286541243)"><line stroke="#000" x2="-6" y1="0.5" y2="0.5"></line><text fill="#000" x="-9" y="0.5" dy="0.32em">150</text></g><g class="tick" opacity="1" transform="translate(0,220.27496382054994)"><line stroke="#000" x2="-6" y1="0.5" y2="0.5"></line><text fill="#000" x="-9" y="0.5" dy="0.32em">200</text></g><g class="tick" opacity="1" transform="translate(0,197.8437047756874)"><line stroke="#000" x2="-6" y1="0.5" y2="0.5"></line><text fill="#000" x="-9" y="0.5" dy="0.32em">250</text></g><g class="tick" opacity="1" transform="translate(0,175.41244573082489)"><line stroke="#000" x2="-6" y1="0.5" y2="0.5"></line><text fill="#000" x="-9" y="0.5" dy="0.32em">300</text></g><g class="tick" opacity="1" transform="translate(0,152.98118668596237)"><line stroke="#000" x2="-6" y1="0.5" y2="0.5"></line><text fill="#000" x="-9" y="0.5" dy="0.32em">350</text></g><g class="tick" opacity="1" transform="translate(0,130.54992764109986)"><line stroke="#000" x2="-6" y1="0.5" y2="0.5"></line><text fill="#000" x="-9" y="0.5" dy="0.32em">400</text></g><g class="tick" opacity="1" transform="translate(0,108.11866859623734)"><line stroke="#000" x2="-6" y1="0.5" y2="0.5"></line><text fill="#000" x="-9" y="0.5" dy="0.32em">450</text></g><g class="tick" opacity="1" transform="translate(0,85.68740955137483)"><line stroke="#000" x2="-6" y1="0.5" y2="0.5"></line><text fill="#000" x="-9" y="0.5" dy="0.32em">500</text></g><g class="tick" opacity="1" transform="translate(0,63.25615050651231)"><line stroke="#000" x2="-6" y1="0.5" y2="0.5"></line><text fill="#000" x="-9" y="0.5" dy="0.32em">550</text></g><g class="tick" opacity="1" transform="translate(0,40.82489146164977)"><line stroke="#000" x2="-6" y1="0.5" y2="0.5"></line><text fill="#000" x="-9" y="0.5" dy="0.32em">600</text></g><g class="tick" opacity="1" transform="translate(0,18.393632416787284)"><line stroke="#000" x2="-6" y1="0.5" y2="0.5"></line><text fill="#000" x="-9" y="0.5" dy="0.32em">650</text></g></g></g></svg>