<svg xmlns="http://www.w3.org/2000/svg" width="600" height="350"><defs><style type="text/css"><![CDATA[ 
.bar rect {
  fill-opacity: 0;
  stroke:       black;
  stroke-width: 0.5;
}

.highlight rect {
  fill:       red;
  fill-opacity: 1;
}
.axis path,
.axis line {
  fill: none;
  stroke: #000;
  shape-rendering: crispEdges;
}
path {
    stroke: red;
    fill: none;
}

line {
    stroke: red;
}

path.marker {
    fill: red;
}
 ]]></style></defs><g transform="translate(50,10)"><g class="bar" transform="translate(0,304.56140350877195)"><rect x="1" width="11.999999999999996" height="5.438596491228054"></rect></g><g class="bar" transform="translate(12.999999999999996,298.62838915470496)"><rect x="1" width="11.999999999999996" height="11.371610845295038"></rect></g><g class="bar" transform="translate(25.999999999999993,288.74003189792666)"><rect x="1" width="11.999999999999996" height="21.259968102073344"></rect></g><g class="bar" transform="translate(39.00000000000001,277.8628389154705)"><rect x="1" width="11.999999999999996" height="32.13716108452951"></rect></g><g class="bar" transform="translate(52,268.4688995215311)"><rect x="1" width="11.999999999999996" height="41.531100478468886"></rect></g><g class="bar" transform="translate(65,245.23125996810208)"><rect x="1" width="11.999999999999996" height="64.76874003189792"></rect></g><g class="bar" transform="translate(78.00000000000001,229.40988835725676)"><rect x="1" width="11.999999999999996" height="80.59011164274324"></rect></g><g class="bar" transform="translate(91.00000000000001,223.47687400318978)"><rect x="1" width="11.999999999999996" height="86.52312599681022"></rect></g><g class="bar" transform="translate(104,205.1834130781499)"><rect x="1" width="11.999999999999996" height="104.8165869218501"></rect></g><g class="bar" transform="translate(117,188.8676236044657)"><rect x="1" width="11.999999999999996" height="121.1323763955343"></rect></g><g class="bar" transform="translate(130,174.52950558213718)"><rect x="1" width="11.999999999999996" height="135.47049441786282"></rect></g><g class="bar" transform="translate(143,131.0207336523126)"><rect x="1" width="11.999999999999996" height="178.9792663476874"></rect></g><g class="bar" transform="translate(156.00000000000003,83.5566188197767)"><rect x="1" width="11.999999999999996" height="226.4433811802233"></rect></g><g class="bar" transform="translate(169,48.94736842105266)"><rect x="1" width="11.999999999999996" height="261.05263157894734"></rect></g><g class="bar" transform="translate(182.00000000000003,40.542264752791084)"><rect x="1" width="11.999999999999996" height="269.4577352472089"></rect></g><g class="bar" transform="translate(195,0)"><rect x="1" width="11.999999999999996" height="310"></rect></g><g class="bar" transform="translate(208,27.192982456140385)"><rect x="1" width="11.999999999999996" height="282.8070175438596"></rect></g><g class="bar" transform="translate(221.00000000000003,21.259968102073344)"><rect x="1" width="11.999999999999996" height="288.74003189792666"></rect></g><g class="bar" transform="translate(234,18.787878787878753)"><rect x="1" width="11.999999999999996" height="291.21212121212125"></rect></g><g class="bar" transform="translate(247.00000000000003,60.8133971291866)"><rect x="1" width="11.999999999999996" height="249.1866028708134"></rect></g><g class="bar" transform="translate(260,56.363636363636346)"><rect x="1" width="11.999999999999996" height="253.63636363636365"></rect></g><g class="bar" transform="translate(273,109.26634768740033)"><rect x="1" width="11.999999999999996" height="200.73365231259967"></rect></g><g class="bar" transform="translate(286,140.414673046252)"><rect x="1" width="11.999999999999996" height="169.585326953748"></rect></g><g class="bar" transform="translate(299.00000000000006,165.62998405103667)"><rect x="1" width="11.999999999999996" height="144.37001594896333"></rect></g><g class="bar" transform="translate(312.00000000000006,246.2200956937799)"><rect x="1" width="11.999999999999996" height="63.77990430622009"></rect></g><g class="bar" transform="translate(325,276.37958532695376)"><rect x="1" width="11.999999999999996" height="33.62041467304624"></rect></g><g class="bar" transform="translate(338,292.20095693779905)"><rect x="1" width="11.999999999999996" height="17.79904306220095"></rect></g><g class="bar" transform="translate(351,300.6060606060606)"><rect x="1" width="11.999999999999996" height="9.393939393939377"></rect></g><g class="bar" transform="translate(364.00000000000006,302.5837320574163)"><rect x="1" width="11.999999999999996" height="7.4162679425837155"></rect></g><g class="bar" transform="translate(377.00000000000006,307.5279106858054)"><rect x="1" width="11.999999999999996" height="2.4720893141945908"></rect></g><g class="bar" transform="translate(390,309.50558213716107)"><rect x="1" width="11.999999999999996" height="0.4944178628389295"></rect></g><g class="bar" transform="translate(403,309.01116427432214)"><rect x="1" width="11.999999999999996" height="0.988835725677859"></rect></g><g class="bar" transform="translate(416,310)"><rect x="1" width="11.999999999999996" height="0"></rect></g><g class="bar" transform="translate(429.00000000000006,310)"><rect x="1" width="11.999999999999996" height="0"></rect></g><g class="bar" transform="translate(442.00000000000006,310)"><rect x="1" width="11.999999999999996" height="0"></rect></g><g class="bar" transform="translate(455,310)"><rect x="1" width="11.999999999999996" height="0"></rect></g><g class="bar" transform="translate(468,310)"><rect x="1" width="11.999999999999996" height="0"></rect></g><g class="bar" transform="translate(481,310)"><rect x="1" width="11.999999999999996" height="0"></rect></g><g class="bar" transform="translate(494.00000000000006,310)"><rect x="1" width="11.999999999999996" height="0"></rect></g><g class="bar" transform="translate(507.00000000000006,310)"><rect x="1" width="11.999999999999996" height="0"></rect></g><g class="axis axis--x" transform="translate(0,310)" fill="none" font-size="10" font-family="sans-serif" text-anchor="middle"><path class="domain" stroke="#000" d="M0.5,6V0.5H520.5V6"></path><g class="tick" opacity="1" transform="translate(0.5,0)"><line stroke="#000" y2="6"></line><text fill="#000" y="9" dy="0.71em">0.01</text></g><g class="tick" opacity="1" transform="translate(130.5,0)"><line stroke="#000" y2="6"></line><text fill="#000" y="9" dy="0.71em">1</text></g><g class="tick" opacity="1" transform="translate(260.5,0)"><line stroke="#000" y2="6"></line><text fill="#000" y="9" dy="0.71em">100</text></g><g class="tick" opacity="1" transform="translate(390.5,0)"><line stroke="#000" y2="6"></line><text fill="#000" y="9" dy="0.71em">10000</text></g><g class="tick" opacity="1" transform="translate(520.5,0)"><line stroke="#000" y2="6"></line><text fill="#000" y="9" dy="0.71em"></text></g></g><g class="axis axis--y" fill="none" font-size="10" font-family="sans-serif" text-anchor="end"><path class="domain" stroke="#000" d="M-6,310.5H0.5V0.5H-6"></path><g class="tick" opacity="1" transform="translate(0,310.5)"><line stroke="#000" x2="-6"></line><text fill="#000" x="-9" dy="0.32em">0</text></g><g class="tick" opacity="1" transform="translate(0,285.7791068580542)"><line stroke="#000" x2="-6"></line><text fill="#000" x="-9" dy="0.32em">50</text></g><g class="tick" opacity="1" transform="translate(0,261.05821371610847)"><line stroke="#000" x2="-6"></line><text fill="#000" x="-9" dy="0.32em">100</text></g><g class="tick" opacity="1" transform="translate(0,236.33732057416267)"><line stroke="#000" x2="-6"></line><text fill="#000" x="-9" dy="0.32em">150</text></g><g class="tick" opacity="1" transform="translate(0,211.61642743221688)"><line stroke="#000" x2="-6"></line><text fill="#000" x="-9" dy="0.32em">200</text></g><g class="tick" opacity="1" transform="translate(0,186.89553429027114)"><line stroke="#000" x2="-6"></line><text fill="#000" x="-9" dy="0.32em">250</text></g><g class="tick" opacity="1" transform="translate(0,162.17464114832535)"><line stroke="#000" x2="-6"></line><text fill="#000" x="-9" dy="0.32em">300</text></g><g class="tick" opacity="1" transform="translate(0,137.45374800637958)"><line stroke="#000" x2="-6"></line><text fill="#000" x="-9" dy="0.32em">350</text></g><g class="tick" opacity="1" transform="translate(0,112.73285486443379)"><line stroke="#000" x2="-6"></line><text fill="#000" x="-9" dy="0.32em">400</text></g><g class="tick" opacity="1" transform="translate(0,88.01196172248805)"><line stroke="#000" x2="-6"></line><text fill="#000" x="-9" dy="0.32em">450</text></g><g class="tick" opacity="1" transform="translate(0,63.29106858054226)"><line stroke="#000" x2="-6"></line><text fill="#000" x="-9" dy="0.32em">500</text></g><g class="tick" opacity="1" transform="translate(0,38.57017543859649)"><line stroke="#000" x2="-6"></line><text fill="#000" x="-9" dy="0.32em">550</text></g><g class="tick" opacity="1" transform="translate(0,13.8492822966507)"><line stroke="#000" x2="-6"></line><text fill="#000" x="-9" dy="0.32em">600</text></g></g></g></svg>