<svg xmlns="http://www.w3.org/2000/svg" width="600" height="350"><defs><style type="text/css"><![CDATA[ 
.bar rect {
  fill-opacity: 0;
  stroke:       black;
  stroke-width: 0.5;
}

.highlight rect {
  fill:       red;
  fill-opacity: 1;
}
.axis path,
.axis line {
  fill: none;
  stroke: #000;
  shape-rendering: crispEdges;
}
path {
    stroke: red;
    fill: none;
}

line {
    stroke: red;
}

path.marker {
    fill: red;
}
 ]]></style></defs><g transform="translate(50,10)"><g class="bar" transform="translate(0,310)"><rect x="1" width="11.999999999999996" height="0"></rect></g><g class="bar" transform="translate(12.999999999999996,310)"><rect x="1" width="11.999999999999996" height="0"></rect></g><g class="bar" transform="translate(25.999999999999993,310)"><rect x="1" width="11.999999999999996" height="0"></rect></g><g class="bar" transform="translate(39.00000000000001,310)"><rect x="1" width="11.999999999999996" height="0"></rect></g><g class="bar" transform="translate(52,310)"><rect x="1" width="11.999999999999996" height="0"></rect></g><g class="bar" transform="translate(65,310)"><rect x="1" width="11.999999999999996" height="0"></rect></g><g class="bar" transform="translate(78.00000000000001,310)"><rect x="1" width="11.999999999999996" height="0"></rect></g><g class="bar" transform="translate(91.00000000000001,310)"><rect x="1" width="11.999999999999996" height="0"></rect></g><g class="bar" transform="translate(104,307.987012987013)"><rect x="1" width="11.999999999999996" height="2.0129870129870255"></rect></g><g class="bar" transform="translate(117,293.8961038961039)"><rect x="1" width="11.999999999999996" height="16.10389610389609"></rect></g><g class="bar" transform="translate(130,297.9220779220779)"><rect x="1" width="11.999999999999996" height="12.077922077922096"></rect></g><g class="bar" transform="translate(143,285.84415584415586)"><rect x="1" width="11.999999999999996" height="24.155844155844136"></rect></g><g class="bar" transform="translate(156.00000000000003,281.8181818181818)"><rect x="1" width="11.999999999999996" height="28.181818181818187"></rect></g><g class="bar" transform="translate(169,229.4805194805195)"><rect x="1" width="11.999999999999996" height="80.51948051948051"></rect></g><g class="bar" transform="translate(182.00000000000003,187.20779220779218)"><rect x="1" width="11.999999999999996" height="122.79220779220782"></rect></g><g class="bar" transform="translate(195,102.66233766233768)"><rect x="1" width="11.999999999999996" height="207.33766233766232"></rect></g><g class="bar" transform="translate(208,20.12987012987014)"><rect x="1" width="11.999999999999996" height="289.87012987012986"></rect></g><g class="bar" transform="translate(221.00000000000003,30.194805194805213)"><rect x="1" width="11.999999999999996" height="279.8051948051948"></rect></g><g class="bar" transform="translate(234,0)"><rect x="1" width="11.999999999999996" height="310"></rect></g><g class="bar" transform="translate(247.00000000000003,62.402597402597394)"><rect x="1" width="11.999999999999996" height="247.5974025974026"></rect></g><g class="bar" transform="translate(260,38.24675324675326)"><rect x="1" width="11.999999999999996" height="271.75324675324674"></rect></g><g class="bar" transform="translate(273,50.3246753246753)"><rect x="1" width="11.999999999999996" height="259.6753246753247"></rect></g><g class="bar" transform="translate(286,88.57142857142856)"><rect x="1" width="11.999999999999996" height="221.42857142857144"></rect></g><g class="bar" transform="translate(299.00000000000006,118.76623376623377)"><rect x="1" width="11.999999999999996" height="191.23376623376623"></rect></g><g class="bar" transform="translate(312.00000000000006,205.32467532467533)"><rect x="1" width="11.999999999999996" height="104.67532467532467"></rect></g><g class="bar" transform="translate(325,205.32467532467533)"><rect x="1" width="11.999999999999996" height="104.67532467532467"></rect></g><g class="bar" transform="translate(338,243.57142857142856)"><rect x="1" width="11.999999999999996" height="66.42857142857144"></rect></g><g class="bar" transform="translate(351,263.7012987012987)"><rect x="1" width="11.999999999999996" height="46.2987012987013"></rect></g><g class="bar" transform="translate(364.00000000000006,277.7922077922078)"><rect x="1" width="11.999999999999996" height="32.20779220779218"></rect></g><g class="bar" transform="translate(377.00000000000006,289.87012987012986)"><rect x="1" width="11.999999999999996" height="20.12987012987014"></rect></g><g class="bar" transform="translate(390,301.94805194805195)"><rect x="1" width="11.999999999999996" height="8.051948051948045"></rect></g><g class="bar" transform="translate(403,303.961038961039)"><rect x="1" width="11.999999999999996" height="6.03896103896102"></rect></g><g class="bar" transform="translate(416,305.97402597402595)"><rect x="1" width="11.999999999999996" height="4.025974025974051"></rect></g><g class="bar" transform="translate(429.00000000000006,301.94805194805195)"><rect x="1" width="11.999999999999996" height="8.051948051948045"></rect></g><g class="bar" transform="translate(442.00000000000006,307.987012987013)"><rect x="1" width="11.999999999999996" height="2.0129870129870255"></rect></g><g class="bar" transform="translate(455,310)"><rect x="1" width="11.999999999999996" height="0"></rect></g><g class="bar" transform="translate(468,310)"><rect x="1" width="11.999999999999996" height="0"></rect></g><g class="bar" transform="translate(481,310)"><rect x="1" width="11.999999999999996" height="0"></rect></g><g class="bar" transform="translate(494.00000000000006,310)"><rect x="1" width="11.999999999999996" height="0"></rect></g><g class="bar" transform="translate(507.00000000000006,310)"><rect x="1" width="11.999999999999996" height="0"></rect></g><g class="axis axis--x" transform="translate(0,310)" fill="none" font-size="10" font-family="sans-serif" text-anchor="middle"><path class="domain" stroke="#000" d="M0.5,6V0.5H520.5V6"></path><g class="tick" opacity="1" transform="translate(0.5,0)"><line stroke="#000" y2="6"></line><text fill="#000" y="9" dy="0.71em">0.01</text></g><g class="tick" opacity="1" transform="translate(130.5,0)"><line stroke="#000" y2="6"></line><text fill="#000" y="9" dy="0.71em">1</text></g><g class="tick" opacity="1" transform="translate(260.5,0)"><line stroke="#000" y2="6"></line><text fill="#000" y="9" dy="0.71em">100</text></g><g class="tick" opacity="1" transform="translate(390.5,0)"><line stroke="#000" y2="6"></line><text fill="#000" y="9" dy="0.71em">10000</text></g><g class="tick" opacity="1" transform="translate(520.5,0)"><line stroke="#000" y2="6"></line><text fill="#000" y="9" dy="0.71em"></text></g></g><g class="axis axis--y" fill="none" font-size="10" font-family="sans-serif" text-anchor="end"><path class="domain" stroke="#000" d="M-6,310.5H0.5V0.5H-6"></path><g class="tick" opacity="1" transform="translate(0,310.5)"><line stroke="#000" x2="-6"></line><text fill="#000" x="-9" dy="0.32em">0</text></g><g class="tick" opacity="1" transform="translate(0,270.2402597402597)"><line stroke="#000" x2="-6"></line><text fill="#000" x="-9" dy="0.32em">20</text></g><g class="tick" opacity="1" transform="translate(0,229.9805194805195)"><line stroke="#000" x2="-6"></line><text fill="#000" x="-9" dy="0.32em">40</text></g><g class="tick" opacity="1" transform="translate(0,189.7207792207792)"><line stroke="#000" x2="-6"></line><text fill="#000" x="-9" dy="0.32em">60</text></g><g class="tick" opacity="1" transform="translate(0,149.46103896103898)"><line stroke="#000" x2="-6"></line><text fill="#000" x="-9" dy="0.32em">80</text></g><g class="tick" opacity="1" transform="translate(0,109.2012987012987)"><line stroke="#000" x2="-6"></line><text fill="#000" x="-9" dy="0.32em">100</text></g><g class="tick" opacity="1" transform="translate(0,68.94155844155844)"><line stroke="#000" x2="-6"></line><text fill="#000" x="-9" dy="0.32em">120</text></g><g class="tick" opacity="1" transform="translate(0,28.681818181818187)"><line stroke="#000" x2="-6"></line><text fill="#000" x="-9" dy="0.32em">140</text></g></g></g></svg>