<svg xmlns="http://www.w3.org/2000/svg" width="600" height="350"><defs><style type="text/css"><![CDATA[ 
.bar rect {
  fill-opacity: 0;
  stroke:       black;
  stroke-width: 0.5;
}

.highlight rect {
  fill:       red;
  fill-opacity: 1;
}
.axis path,
.axis line {
  fill: none;
  stroke: #000;
  shape-rendering: crispEdges;
}
 ]]></style></defs><g transform="translate(50,10)"><g class="bar" transform="translate(0,310)"><rect x="1" width="31.5" height="0"></rect></g><g class="bar" transform="translate(32.5,305.89403973509934)"><rect x="1" width="31.5" height="4.105960264900659"></rect></g><g class="bar" transform="translate(65,295.6291390728477)"><rect x="1" width="31.5" height="14.370860927152307"></rect></g><g class="bar" transform="translate(97.5,234.03973509933775)"><rect x="1" width="31.5" height="75.96026490066225"></rect></g><g class="bar" transform="translate(130,209.4039735099338)"><rect x="1" width="31.5" height="100.59602649006621"></rect></g><g class="bar" transform="translate(162.5,244.3046357615894)"><rect x="1" width="31.5" height="65.6953642384106"></rect></g><g class="bar" transform="translate(195,166.29139072847684)"><rect x="1" width="31.5" height="143.70860927152316"></rect></g><g class="bar" transform="translate(227.5,69.80132450331126)"><rect x="1" width="31.5" height="240.19867549668874"></rect></g><g class="bar" transform="translate(260,0)"><rect x="1" width="31.5" height="310"></rect></g><g class="bar" transform="translate(292.5,117.01986754966887)"><rect x="1" width="31.5" height="192.98013245033113"></rect></g><g class="bar" transform="translate(325,141.65562913907286)"><rect x="1" width="31.5" height="168.34437086092714"></rect></g><g class="bar" transform="translate(357.5,176.5562913907285)"><rect x="1" width="31.5" height="133.4437086092715"></rect></g><g class="bar" transform="translate(390,252.5165562913907)"><rect x="1" width="31.5" height="57.483443708609286"></rect></g><g class="bar" transform="translate(422.5,307.94701986754967)"><rect x="1" width="31.5" height="2.0529801324503296"></rect></g><g class="bar" transform="translate(455,310)"><rect x="1" width="31.5" height="0"></rect></g><g class="bar" transform="translate(487.5,310)"><rect x="1" width="31.5" height="0"></rect></g><g class="axis axis--x" transform="translate(0,310)" fill="none" font-size="10" font-family="sans-serif" text-anchor="middle"><path class="domain" stroke="#000" d="M0.5,6V0.5H520.5V6"></path><g class="tick" opacity="1" transform="translate(0,0)"><line stroke="#000" y2="6" x1="0.5" x2="0.5"></line><text fill="#000" y="9" x="0.5" dy="0.71em">0.01</text></g><g class="tick" opacity="1" transform="translate(130,0)"><line stroke="#000" y2="6" x1="0.5" x2="0.5"></line><text fill="#000" y="9" x="0.5" dy="0.71em">1</text></g><g class="tick" opacity="1" transform="translate(260,0)"><line stroke="#000" y2="6" x1="0.5" x2="0.5"></line><text fill="#000" y="9" x="0.5" dy="0.71em">100</text></g><g class="tick" opacity="1" transform="translate(390,0)"><line stroke="#000" y2="6" x1="0.5" x2="0.5"></line><text fill="#000" y="9" x="0.5" dy="0.71em">10000</text></g><g class="tick" opacity="1" transform="translate(520,0)"><line stroke="#000" y2="6" x1="0.5" x2="0.5"></line><text fill="#000" y="9" x="0.5" dy="0.71em"></text></g></g><g class="axis axis--y" fill="none" font-size="10" font-family="sans-serif" text-anchor="end"><path class="domain" stroke="#000" d="M-6,310.5H0.5V0.5H-6"></path><g class="tick" opacity="1" transform="translate(0,310)"><line stroke="#000" x2="-6" y1="0.5" y2="0.5"></line><text fill="#000" x="-9" y="0.5" dy="0.32em">0</text></g><g class="tick" opacity="1" transform="translate(0,268.94039735099335)"><line stroke="#000" x2="-6" y1="0.5" y2="0.5"></line><text fill="#000" x="-9" y="0.5" dy="0.32em">20</text></g><g class="tick" opacity="1" transform="translate(0,227.88079470198676)"><line stroke="#000" x2="-6" y1="0.5" y2="0.5"></line><text fill="#000" x="-9" y="0.5" dy="0.32em">40</text></g><g class="tick" opacity="1" transform="translate(0,186.82119205298014)"><line stroke="#000" x2="-6" y1="0.5" y2="0.5"></line><text fill="#000" x="-9" y="0.5" dy="0.32em">60</text></g><g class="tick" opacity="1" transform="translate(0,145.7615894039735)"><line stroke="#000" x2="-6" y1="0.5" y2="0.5"></line><text fill="#000" x="-9" y="0.5" dy="0.32em">80</text></g><g class="tick" opacity="1" transform="translate(0,104.70198675496687)"><line stroke="#000" x2="-6" y1="0.5" y2="0.5"></line><text fill="#000" x="-9" y="0.5" dy="0.32em">100</text></g><g class="tick" opacity="1" transform="translate(0,63.642384105960275)"><line stroke="#000" x2="-6" y1="0.5" y2="0.5"></line><text fill="#000" x="-9" y="0.5" dy="0.32em">120</text></g><g class="tick" opacity="1" transform="translate(0,22.582781456953683)"><line stroke="#000" x2="-6" y1="0.5" y2="0.5"></line><text fill="#000" x="-9" y="0.5" dy="0.32em">140</text></g></g></g></svg>