<svg xmlns="http://www.w3.org/2000/svg" width="600" height="350"><defs><style type="text/css"><![CDATA[ 
.bar rect {
  fill-opacity: 0;
  stroke:       black;
  stroke-width: 0.5;
}

.highlight rect {
  fill:       red;
  fill-opacity: 1;
}
.axis path,
.axis line {
  fill: none;
  stroke: #000;
  shape-rendering: crispEdges;
}
path {
    stroke: red;
    fill: none;
}

line {
    stroke: red;
}

path.marker {
    fill: red;
}
 ]]></style></defs><g transform="translate(50,10)"><g class="bar" transform="translate(0,302.0220588235294)"><rect x="1" width="11.999999999999996" height="7.977941176470608"></rect></g><g class="bar" transform="translate(12.999999999999996,289.8651960784314)"><rect x="1" width="11.999999999999996" height="20.13480392156862"></rect></g><g class="bar" transform="translate(25.999999999999993,279.2279411764706)"><rect x="1" width="11.999999999999996" height="30.77205882352939"></rect></g><g class="bar" transform="translate(39.00000000000001,243.51715686274508)"><rect x="1" width="11.999999999999996" height="66.48284313725492"></rect></g><g class="bar" transform="translate(52,217.68382352941177)"><rect x="1" width="11.999999999999996" height="92.31617647058823"></rect></g><g class="bar" transform="translate(65,207.046568627451)"><rect x="1" width="11.999999999999996" height="102.953431372549"></rect></g><g class="bar" transform="translate(78.00000000000001,173.61519607843138)"><rect x="1" width="11.999999999999996" height="136.38480392156862"></rect></g><g class="bar" transform="translate(91.00000000000001,145.12254901960785)"><rect x="1" width="11.999999999999996" height="164.87745098039215"></rect></g><g class="bar" transform="translate(104,150.44117647058826)"><rect x="1" width="11.999999999999996" height="159.55882352941174"></rect></g><g class="bar" transform="translate(117,143.98284313725492)"><rect x="1" width="11.999999999999996" height="166.01715686274508"></rect></g><g class="bar" transform="translate(130,134.48529411764707)"><rect x="1" width="11.999999999999996" height="175.51470588235293"></rect></g><g class="bar" transform="translate(143,116.25)"><rect x="1" width="11.999999999999996" height="193.75"></rect></g><g class="bar" transform="translate(156.00000000000003,83.19852941176472)"><rect x="1" width="11.999999999999996" height="226.80147058823528"></rect></g><g class="bar" transform="translate(169,79.01960784313724)"><rect x="1" width="11.999999999999996" height="230.98039215686276"></rect></g><g class="bar" transform="translate(182.00000000000003,55.845588235294116)"><rect x="1" width="11.999999999999996" height="254.15441176470588"></rect></g><g class="bar" transform="translate(195,32.671568627450995)"><rect x="1" width="11.999999999999996" height="277.328431372549"></rect></g><g class="bar" transform="translate(208,18.61519607843138)"><rect x="1" width="11.999999999999996" height="291.3848039215686"></rect></g><g class="bar" transform="translate(221.00000000000003,0)"><rect x="1" width="11.999999999999996" height="310"></rect></g><g class="bar" transform="translate(234,28.112745098039227)"><rect x="1" width="11.999999999999996" height="281.8872549019608"></rect></g><g class="bar" transform="translate(247.00000000000003,46.3480392156863)"><rect x="1" width="11.999999999999996" height="263.6519607843137"></rect></g><g class="bar" transform="translate(260,69.52205882352939)"><rect x="1" width="11.999999999999996" height="240.4779411764706"></rect></g><g class="bar" transform="translate(273,129.54656862745097)"><rect x="1" width="11.999999999999996" height="180.45343137254903"></rect></g><g class="bar" transform="translate(286,161.45833333333331)"><rect x="1" width="11.999999999999996" height="148.54166666666669"></rect></g><g class="bar" transform="translate(299.00000000000006,223.00245098039215)"><rect x="1" width="11.999999999999996" height="86.99754901960785"></rect></g><g class="bar" transform="translate(312.00000000000006,238.95833333333334)"><rect x="1" width="11.999999999999996" height="71.04166666666666"></rect></g><g class="bar" transform="translate(325,280.74754901960785)"><rect x="1" width="11.999999999999996" height="29.252450980392155"></rect></g><g class="bar" transform="translate(338,295.9436274509804)"><rect x="1" width="11.999999999999996" height="14.056372549019613"></rect></g><g class="bar" transform="translate(351,306.58088235294116)"><rect x="1" width="11.999999999999996" height="3.4191176470588402"></rect></g><g class="bar" transform="translate(364.00000000000006,306.96078431372547)"><rect x="1" width="11.999999999999996" height="3.039215686274531"></rect></g><g class="bar" transform="translate(377.00000000000006,309.2401960784314)"><rect x="1" width="11.999999999999996" height="0.7598039215686185"></rect></g><g class="bar" transform="translate(390,310)"><rect x="1" width="11.999999999999996" height="0"></rect></g><g class="bar" transform="translate(403,309.6200980392157)"><rect x="1" width="11.999999999999996" height="0.37990196078430927"></rect></g><g class="bar" transform="translate(416,310)"><rect x="1" width="11.999999999999996" height="0"></rect></g><g class="bar" transform="translate(429.00000000000006,310)"><rect x="1" width="11.999999999999996" height="0"></rect></g><g class="bar" transform="translate(442.00000000000006,310)"><rect x="1" width="11.999999999999996" height="0"></rect></g><g class="bar" transform="translate(455,310)"><rect x="1" width="11.999999999999996" height="0"></rect></g><g class="bar" transform="translate(468,310)"><rect x="1" width="11.999999999999996" height="0"></rect></g><g class="bar" transform="translate(481,310)"><rect x="1" width="11.999999999999996" height="0"></rect></g><g class="bar" transform="translate(494.00000000000006,310)"><rect x="1" width="11.999999999999996" height="0"></rect></g><g class="bar" transform="translate(507.00000000000006,310)"><rect x="1" width="11.999999999999996" height="0"></rect></g><g class="axis axis--x" transform="translate(0,310)" fill="none" font-size="10" font-family="sans-serif" text-anchor="middle"><path class="domain" stroke="#000" d="M0.5,6V0.5H520.5V6"></path><g class="tick" opacity="1" transform="translate(0.5,0)"><line stroke="#000" y2="6"></line><text fill="#000" y="9" dy="0.71em">0.01</text></g><g class="tick" opacity="1" transform="translate(130.5,0)"><line stroke="#000" y2="6"></line><text fill="#000" y="9" dy="0.71em">1</text></g><g class="tick" opacity="1" transform="translate(260.5,0)"><line stroke="#000" y2="6"></line><text fill="#000" y="9" dy="0.71em">100</text></g><g class="tick" opacity="1" transform="translate(390.5,0)"><line stroke="#000" y2="6"></line><text fill="#000" y="9" dy="0.71em">10000</text></g><g class="tick" opacity="1" transform="translate(520.5,0)"><line stroke="#000" y2="6"></line><text fill="#000" y="9" dy="0.71em"></text></g></g><g class="axis axis--y" fill="none" font-size="10" font-family="sans-serif" text-anchor="end"><path class="domain" stroke="#000" d="M-6,310.5H0.5V0.5H-6"></path><g class="tick" opacity="1" transform="translate(0,310.5)"><line stroke="#000" x2="-6"></line><text fill="#000" x="-9" dy="0.32em">0</text></g><g class="tick" opacity="1" transform="translate(0,272.5098039215686)"><line stroke="#000" x2="-6"></line><text fill="#000" x="-9" dy="0.32em">100</text></g><g class="tick" opacity="1" transform="translate(0,234.51960784313724)"><line stroke="#000" x2="-6"></line><text fill="#000" x="-9" dy="0.32em">200</text></g><g class="tick" opacity="1" transform="translate(0,196.52941176470586)"><line stroke="#000" x2="-6"></line><text fill="#000" x="-9" dy="0.32em">300</text></g><g class="tick" opacity="1" transform="translate(0,158.5392156862745)"><line stroke="#000" x2="-6"></line><text fill="#000" x="-9" dy="0.32em">400</text></g><g class="tick" opacity="1" transform="translate(0,120.54901960784312)"><line stroke="#000" x2="-6"></line><text fill="#000" x="-9" dy="0.32em">500</text></g><g class="tick" opacity="1" transform="translate(0,82.55882352941174)"><line stroke="#000" x2="-6"></line><text fill="#000" x="-9" dy="0.32em">600</text></g><g class="tick" opacity="1" transform="translate(0,44.56862745098039)"><line stroke="#000" x2="-6"></line><text fill="#000" x="-9" dy="0.32em">700</text></g><g class="tick" opacity="1" transform="translate(0,6.578431372549005)"><line stroke="#000" x2="-6"></line><text fill="#000" x="-9" dy="0.32em">800</text></g></g></g></svg>