<svg xmlns="http://www.w3.org/2000/svg" width="600" height="350"><defs><style type="text/css"><![CDATA[ 
.bar rect {
  fill-opacity: 0;
  stroke:       black;
  stroke-width: 0.5;
}

.highlight rect {
  fill:       red;
  fill-opacity: 1;
}
.axis path,
.axis line {
  fill: none;
  stroke: #000;
  shape-rendering: crispEdges;
}
path {
    stroke: red;
    fill: none;
}

line {
    stroke: red;
}

path.marker {
    fill: red;
}
 ]]></style></defs><g transform="translate(50,10)"><g class="bar" transform="translate(0,310)"><rect x="1" width="11.999999999999996" height="0"></rect></g><g class="bar" transform="translate(12.999999999999996,310)"><rect x="1" width="11.999999999999996" height="0"></rect></g><g class="bar" transform="translate(25.999999999999993,310)"><rect x="1" width="11.999999999999996" height="0"></rect></g><g class="bar" transform="translate(39.00000000000001,310)"><rect x="1" width="11.999999999999996" height="0"></rect></g><g class="bar" transform="translate(52,310)"><rect x="1" width="11.999999999999996" height="0"></rect></g><g class="bar" transform="translate(65,310)"><rect x="1" width="11.999999999999996" height="0"></rect></g><g class="bar" transform="translate(78.00000000000001,310)"><rect x="1" width="11.999999999999996" height="0"></rect></g><g class="bar" transform="translate(91.00000000000001,310)"><rect x="1" width="11.999999999999996" height="0"></rect></g><g class="bar" transform="translate(104,307.9738562091503)"><rect x="1" width="11.999999999999996" height="2.0261437908496873"></rect></g><g class="bar" transform="translate(117,305.9477124183006)"><rect x="1" width="11.999999999999996" height="4.052287581699375"></rect></g><g class="bar" transform="translate(130,310)"><rect x="1" width="11.999999999999996" height="0"></rect></g><g class="bar" transform="translate(143,291.7647058823529)"><rect x="1" width="11.999999999999996" height="18.235294117647072"></rect></g><g class="bar" transform="translate(156.00000000000003,261.37254901960785)"><rect x="1" width="11.999999999999996" height="48.627450980392155"></rect></g><g class="bar" transform="translate(169,235.03267973856208)"><rect x="1" width="11.999999999999996" height="74.96732026143792"></rect></g><g class="bar" transform="translate(182.00000000000003,178.30065359477123)"><rect x="1" width="11.999999999999996" height="131.69934640522877"></rect></g><g class="bar" transform="translate(195,135.7516339869281)"><rect x="1" width="11.999999999999996" height="174.2483660130719"></rect></g><g class="bar" transform="translate(208,109.41176470588235)"><rect x="1" width="11.999999999999996" height="200.58823529411765"></rect></g><g class="bar" transform="translate(221.00000000000003,56.73202614379085)"><rect x="1" width="11.999999999999996" height="253.26797385620915"></rect></g><g class="bar" transform="translate(234,64.83660130718954)"><rect x="1" width="11.999999999999996" height="245.16339869281046"></rect></g><g class="bar" transform="translate(247.00000000000003,42.54901960784315)"><rect x="1" width="11.999999999999996" height="267.45098039215685"></rect></g><g class="bar" transform="translate(260,10.13071895424838)"><rect x="1" width="11.999999999999996" height="299.8692810457516"></rect></g><g class="bar" transform="translate(273,0)"><rect x="1" width="11.999999999999996" height="310"></rect></g><g class="bar" transform="translate(286,48.627450980392155)"><rect x="1" width="11.999999999999996" height="261.37254901960785"></rect></g><g class="bar" transform="translate(299.00000000000006,58.758169934640534)"><rect x="1" width="11.999999999999996" height="251.24183006535947"></rect></g><g class="bar" transform="translate(312.00000000000006,125.62091503267973)"><rect x="1" width="11.999999999999996" height="184.37908496732027"></rect></g><g class="bar" transform="translate(325,174.2483660130719)"><rect x="1" width="11.999999999999996" height="135.7516339869281"></rect></g><g class="bar" transform="translate(338,184.37908496732027)"><rect x="1" width="11.999999999999996" height="125.62091503267973"></rect></g><g class="bar" transform="translate(351,230.98039215686276)"><rect x="1" width="11.999999999999996" height="79.01960784313724"></rect></g><g class="bar" transform="translate(364.00000000000006,259.34640522875816)"><rect x="1" width="11.999999999999996" height="50.65359477124184"></rect></g><g class="bar" transform="translate(377.00000000000006,295.8169934640523)"><rect x="1" width="11.999999999999996" height="14.183006535947698"></rect></g><g class="bar" transform="translate(390,301.8954248366013)"><rect x="1" width="11.999999999999996" height="8.104575163398692"></rect></g><g class="bar" transform="translate(403,305.9477124183006)"><rect x="1" width="11.999999999999996" height="4.052287581699375"></rect></g><g class="bar" transform="translate(416,307.9738562091503)"><rect x="1" width="11.999999999999996" height="2.0261437908496873"></rect></g><g class="bar" transform="translate(429.00000000000006,310)"><rect x="1" width="11.999999999999996" height="0"></rect></g><g class="bar" transform="translate(442.00000000000006,310)"><rect x="1" width="11.999999999999996" height="0"></rect></g><g class="bar" transform="translate(455,307.9738562091503)"><rect x="1" width="11.999999999999996" height="2.0261437908496873"></rect></g><g class="bar" transform="translate(468,310)"><rect x="1" width="11.999999999999996" height="0"></rect></g><g class="bar" transform="translate(481,310)"><rect x="1" width="11.999999999999996" height="0"></rect></g><g class="bar" transform="translate(494.00000000000006,310)"><rect x="1" width="11.999999999999996" height="0"></rect></g><g class="bar" transform="translate(507.00000000000006,310)"><rect x="1" width="11.999999999999996" height="0"></rect></g><g class="axis axis--x" transform="translate(0,310)" fill="none" font-size="10" font-family="sans-serif" text-anchor="middle"><path class="domain" stroke="#000" d="M0.5,6V0.5H520.5V6"></path><g class="tick" opacity="1" transform="translate(0.5,0)"><line stroke="#000" y2="6"></line><text fill="#000" y="9" dy="0.71em">0.01</text></g><g class="tick" opacity="1" transform="translate(130.5,0)"><line stroke="#000" y2="6"></line><text fill="#000" y="9" dy="0.71em">1</text></g><g class="tick" opacity="1" transform="translate(260.5,0)"><line stroke="#000" y2="6"></line><text fill="#000" y="9" dy="0.71em">100</text></g><g class="tick" opacity="1" transform="translate(390.5,0)"><line stroke="#000" y2="6"></line><text fill="#000" y="9" dy="0.71em">10000</text></g><g class="tick" opacity="1" transform="translate(520.5,0)"><line stroke="#000" y2="6"></line><text fill="#000" y="9" dy="0.71em"></text></g></g><g class="axis axis--y" fill="none" font-size="10" font-family="sans-serif" text-anchor="end"><path class="domain" stroke="#000" d="M-6,310.5H0.5V0.5H-6"></path><g class="tick" opacity="1" transform="translate(0,310.5)"><line stroke="#000" x2="-6"></line><text fill="#000" x="-9" dy="0.32em">0</text></g><g class="tick" opacity="1" transform="translate(0,269.97712418300654)"><line stroke="#000" x2="-6"></line><text fill="#000" x="-9" dy="0.32em">20</text></g><g class="tick" opacity="1" transform="translate(0,229.45424836601308)"><line stroke="#000" x2="-6"></line><text fill="#000" x="-9" dy="0.32em">40</text></g><g class="tick" opacity="1" transform="translate(0,188.9313725490196)"><line stroke="#000" x2="-6"></line><text fill="#000" x="-9" dy="0.32em">60</text></g><g class="tick" opacity="1" transform="translate(0,148.40849673202612)"><line stroke="#000" x2="-6"></line><text fill="#000" x="-9" dy="0.32em">80</text></g><g class="tick" opacity="1" transform="translate(0,107.88562091503269)"><line stroke="#000" x2="-6"></line><text fill="#000" x="-9" dy="0.32em">100</text></g><g class="tick" opacity="1" transform="translate(0,67.36274509803923)"><line stroke="#000" x2="-6"></line><text fill="#000" x="-9" dy="0.32em">120</text></g><g class="tick" opacity="1" transform="translate(0,26.839869281045765)"><line stroke="#000" x2="-6"></line><text fill="#000" x="-9" dy="0.32em">140</text></g></g></g></svg>