<svg xmlns="http://www.w3.org/2000/svg" width="600" height="350"><defs><style type="text/css"><![CDATA[ 
.bar rect {
  fill-opacity: 0;
  stroke:       black;
  stroke-width: 0.5;
}

.highlight rect {
  fill:       red;
  fill-opacity: 1;
}
.axis path,
.axis line {
  fill: none;
  stroke: #000;
  shape-rendering: crispEdges;
}
 ]]></style></defs><g transform="translate(50,10)"><g class="bar" transform="translate(0,309.60759493670884)"><rect x="1" width="11.999999999999996" height="0.3924050632911644"></rect></g><g class="bar" transform="translate(12.999999999999996,307.253164556962)"><rect x="1" width="11.999999999999996" height="2.7468354430379804"></rect></g><g class="bar" transform="translate(25.999999999999993,310)"><rect x="1" width="11.999999999999996" height="0"></rect></g><g class="bar" transform="translate(39.00000000000001,307.253164556962)"><rect x="1" width="11.999999999999996" height="2.7468354430379804"></rect></g><g class="bar" transform="translate(52,304.11392405063293)"><rect x="1" width="11.999999999999996" height="5.8860759493670685"></rect></g><g class="bar" transform="translate(65,293.5189873417722)"><rect x="1" width="11.999999999999996" height="16.481012658227826"></rect></g><g class="bar" transform="translate(78.00000000000001,273.11392405063293)"><rect x="1" width="11.999999999999996" height="36.88607594936707"></rect></g><g class="bar" transform="translate(91.00000000000001,231.91139240506328)"><rect x="1" width="11.999999999999996" height="78.08860759493672"></rect></g><g class="bar" transform="translate(104,171.48101265822785)"><rect x="1" width="11.999999999999996" height="138.51898734177215"></rect></g><g class="bar" transform="translate(117,102.41772151898735)"><rect x="1" width="11.999999999999996" height="207.58227848101265"></rect></g><g class="bar" transform="translate(130,84.36708860759495)"><rect x="1" width="11.999999999999996" height="225.63291139240505"></rect></g><g class="bar" transform="translate(143,63.96202531645568)"><rect x="1" width="11.999999999999996" height="246.03797468354432"></rect></g><g class="bar" transform="translate(156.00000000000003,35.70886075949363)"><rect x="1" width="11.999999999999996" height="274.29113924050637"></rect></g><g class="bar" transform="translate(169,15.303797468354446)"><rect x="1" width="11.999999999999996" height="294.69620253164555"></rect></g><g class="bar" transform="translate(182.00000000000003,10.987341772151865)"><rect x="1" width="11.999999999999996" height="299.01265822784814"></rect></g><g class="bar" transform="translate(195,0)"><rect x="1" width="11.999999999999996" height="310"></rect></g><g class="bar" transform="translate(208,25.11392405063293)"><rect x="1" width="11.999999999999996" height="284.88607594936707"></rect></g><g class="bar" transform="translate(221.00000000000003,44.734177215189845)"><rect x="1" width="11.999999999999996" height="265.26582278481015"></rect></g><g class="bar" transform="translate(234,100.06329113924053)"><rect x="1" width="11.999999999999996" height="209.93670886075947"></rect></g><g class="bar" transform="translate(247.00000000000003,134.59493670886076)"><rect x="1" width="11.999999999999996" height="175.40506329113924"></rect></g><g class="bar" transform="translate(260,152.25316455696202)"><rect x="1" width="11.999999999999996" height="157.74683544303798"></rect></g><g class="bar" transform="translate(273,187.17721518987344)"><rect x="1" width="11.999999999999996" height="122.82278481012656"></rect></g><g class="bar" transform="translate(286,218.1772151898734)"><rect x="1" width="11.999999999999996" height="91.82278481012659"></rect></g><g class="bar" transform="translate(299.00000000000006,222.49367088607596)"><rect x="1" width="11.999999999999996" height="87.50632911392404"></rect></g><g class="bar" transform="translate(312.00000000000006,266.8354430379747)"><rect x="1" width="11.999999999999996" height="43.1645569620253"></rect></g><g class="bar" transform="translate(325,280.9620253164557)"><rect x="1" width="11.999999999999996" height="29.03797468354429"></rect></g><g class="bar" transform="translate(338,284.1012658227848)"><rect x="1" width="11.999999999999996" height="25.898734177215204"></rect></g><g class="bar" transform="translate(351,287.24050632911394)"><rect x="1" width="11.999999999999996" height="22.75949367088606"></rect></g><g class="bar" transform="translate(364.00000000000006,304.50632911392404)"><rect x="1" width="11.999999999999996" height="5.493670886075961"></rect></g><g class="bar" transform="translate(377.00000000000006,308.82278481012656)"><rect x="1" width="11.999999999999996" height="1.1772151898734364"></rect></g><g class="bar" transform="translate(390,310)"><rect x="1" width="11.999999999999996" height="0"></rect></g><g class="bar" transform="translate(403,310)"><rect x="1" width="11.999999999999996" height="0"></rect></g><g class="bar" transform="translate(416,310)"><rect x="1" width="11.999999999999996" height="0"></rect></g><g class="bar" transform="translate(429.00000000000006,310)"><rect x="1" width="11.999999999999996" height="0"></rect></g><g class="bar" transform="translate(442.00000000000006,310)"><rect x="1" width="11.999999999999996" height="0"></rect></g><g class="bar" transform="translate(455,310)"><rect x="1" width="11.999999999999996" height="0"></rect></g><g class="bar" transform="translate(468,310)"><rect x="1" width="11.999999999999996" height="0"></rect></g><g class="bar" transform="translate(481,310)"><rect x="1" width="11.999999999999996" height="0"></rect></g><g class="bar" transform="translate(494.00000000000006,310)"><rect x="1" width="11.999999999999996" height="0"></rect></g><g class="bar" transform="translate(507.00000000000006,310)"><rect x="1" width="11.999999999999996" height="0"></rect></g><g class="axis axis--x" transform="translate(0,310)" fill="none" font-size="10" font-family="sans-serif" text-anchor="middle"><path class="domain" stroke="#000" d="M0.5,6V0.5H520.5V6"></path><g class="tick" opacity="1" transform="translate(0,0)"><line stroke="#000" y2="6" x1="0.5" x2="0.5"></line><text fill="#000" y="9" x="0.5" dy="0.71em">0.01</text></g><g class="tick" opacity="1" transform="translate(130,0)"><line stroke="#000" y2="6" x1="0.5" x2="0.5"></line><text fill="#000" y="9" x="0.5" dy="0.71em">1</text></g><g class="tick" opacity="1" transform="translate(260,0)"><line stroke="#000" y2="6" x1="0.5" x2="0.5"></line><text fill="#000" y="9" x="0.5" dy="0.71em">100</text></g><g class="tick" opacity="1" transform="translate(390,0)"><line stroke="#000" y2="6" x1="0.5" x2="0.5"></line><text fill="#000" y="9" x="0.5" dy="0.71em">10000</text></g><g class="tick" opacity="1" transform="translate(520,0)"><line stroke="#000" y2="6" x1="0.5" x2="0.5"></line><text fill="#000" y="9" x="0.5" dy="0.71em"></text></g></g><g class="axis axis--y" fill="none" font-size="10" font-family="sans-serif" text-anchor="end"><path class="domain" stroke="#000" d="M-6,310.5H0.5V0.5H-6"></path><g class="tick" opacity="1" transform="translate(0,310)"><line stroke="#000" x2="-6" y1="0.5" y2="0.5"></line><text fill="#000" x="-9" y="0.5" dy="0.32em">0</text></g><g class="tick" opacity="1" transform="translate(0,270.75949367088606)"><line stroke="#000" x2="-6" y1="0.5" y2="0.5"></line><text fill="#000" x="-9" y="0.5" dy="0.32em">100</text></g><g class="tick" opacity="1" transform="translate(0,231.51898734177215)"><line stroke="#000" x2="-6" y1="0.5" y2="0.5"></line><text fill="#000" x="-9" y="0.5" dy="0.32em">200</text></g><g class="tick" opacity="1" transform="translate(0,192.27848101265823)"><line stroke="#000" x2="-6" y1="0.5" y2="0.5"></line><text fill="#000" x="-9" y="0.5" dy="0.32em">300</text></g><g class="tick" opacity="1" transform="translate(0,153.0379746835443)"><line stroke="#000" x2="-6" y1="0.5" y2="0.5"></line><text fill="#000" x="-9" y="0.5" dy="0.32em">400</text></g><g class="tick" opacity="1" transform="translate(0,113.79746835443038)"><line stroke="#000" x2="-6" y1="0.5" y2="0.5"></line><text fill="#000" x="-9" y="0.5" dy="0.32em">500</text></g><g class="tick" opacity="1" transform="translate(0,74.55696202531644)"><line stroke="#000" x2="-6" y1="0.5" y2="0.5"></line><text fill="#000" x="-9" y="0.5" dy="0.32em">600</text></g><g class="tick" opacity="1" transform="translate(0,35.316455696202524)"><line stroke="#000" x2="-6" y1="0.5" y2="0.5"></line><text fill="#000" x="-9" y="0.5" dy="0.32em">700</text></g></g></g></svg>