<svg xmlns="http://www.w3.org/2000/svg" width="280" height="160"><defs><style type="text/css"><![CDATA[ 
.bar rect {
  fill-opacity: 0;
  stroke:       black;
  stroke-width: 0.5;
}

.highlight rect {
  fill:       red;
  fill-opacity: 1;
}
.axis path,
.axis line {
  fill: none;
  stroke: #000;
  shape-rendering: crispEdges;
}
 ]]></style></defs><g transform="translate(50,10)"><g class="bar" transform="translate(0,120)"><rect x="1" width="11.5" height="0"></rect></g><g class="bar" transform="translate(12.5,120)"><rect x="1" width="11.5" height="0"></rect></g><g class="bar" transform="translate(25,119.27272727272727)"><rect x="1" width="11.5" height="0.7272727272727337"></rect></g><g class="bar" transform="translate(37.5,117.81818181818181)"><rect x="1" width="11.5" height="2.181818181818187"></rect></g><g class="bar" transform="translate(50,106.54545454545455)"><rect x="1" width="11.5" height="13.454545454545453"></rect></g><g class="bar" transform="translate(62.5,80.36363636363636)"><rect x="1" width="11.5" height="39.63636363636364"></rect></g><g class="bar" transform="translate(75,30.424242424242422)"><rect x="1" width="11.5" height="89.57575757575758"></rect></g><g class="bar" transform="translate(87.5,0)"><rect x="1" width="11.5" height="120"></rect></g><g class="bar" transform="translate(100,14.060606060606062)"><rect x="1" width="11.5" height="105.93939393939394"></rect></g><g class="bar" transform="translate(112.5,61.45454545454546)"><rect x="1" width="11.5" height="58.54545454545454"></rect></g><g class="bar" transform="translate(125,103.51515151515152)"><rect x="1" width="11.5" height="16.484848484848484"></rect></g><g class="bar" transform="translate(137.5,116.72727272727273)"><rect x="1" width="11.5" height="3.2727272727272663"></rect></g><g class="bar" transform="translate(150,118.9090909090909)"><rect x="1" width="11.5" height="1.0909090909090935"></rect></g><g class="bar" transform="translate(162.5,120)"><rect x="1" width="11.5" height="0"></rect></g><g class="bar" transform="translate(175,120)"><rect x="1" width="11.5" height="0"></rect></g><g class="bar" transform="translate(187.5,120)"><rect x="1" width="11.5" height="0"></rect></g></g></svg>