<svg xmlns="http://www.w3.org/2000/svg" width="600" height="350"><defs><style type="text/css"><![CDATA[ 
.bar rect {
  fill-opacity: 0;
  stroke:       black;
  stroke-width: 0.5;
}

.highlight rect {
  fill:       red;
  fill-opacity: 1;
}
.axis path,
.axis line {
  fill: none;
  stroke: #000;
  shape-rendering: crispEdges;
}
path {
    stroke: red;
    fill: none;
}

line {
    stroke: red;
}

path.marker {
    fill: red;
}
 ]]></style></defs><g transform="translate(50,10)"><g class="bar" transform="translate(0,310)"><rect x="1" width="11.999999999999996" height="0"></rect></g><g class="bar" transform="translate(12.999999999999996,310)"><rect x="1" width="11.999999999999996" height="0"></rect></g><g class="bar" transform="translate(25.999999999999993,302.3321554770318)"><rect x="1" width="11.999999999999996" height="7.66784452296821"></rect></g><g class="bar" transform="translate(39.00000000000001,292.47349823321554)"><rect x="1" width="11.999999999999996" height="17.526501766784463"></rect></g><g class="bar" transform="translate(52,280.42402826855124)"><rect x="1" width="11.999999999999996" height="29.57597173144876"></rect></g><g class="bar" transform="translate(65,259.6113074204947)"><rect x="1" width="11.999999999999996" height="50.38869257950529"></rect></g><g class="bar" transform="translate(78.00000000000001,223.46289752650176)"><rect x="1" width="11.999999999999996" height="86.53710247349824"></rect></g><g class="bar" transform="translate(91.00000000000001,159.92932862190813)"><rect x="1" width="11.999999999999996" height="150.07067137809187"></rect></g><g class="bar" transform="translate(104,115.01766784452295)"><rect x="1" width="11.999999999999996" height="194.98233215547705"></rect></g><g class="bar" transform="translate(117,54.77031802120143)"><rect x="1" width="11.999999999999996" height="255.22968197879857"></rect></g><g class="bar" transform="translate(130,60.24734982332157)"><rect x="1" width="11.999999999999996" height="249.75265017667843"></rect></g><g class="bar" transform="translate(143,21.90812720848055)"><rect x="1" width="11.999999999999996" height="288.09187279151945"></rect></g><g class="bar" transform="translate(156.00000000000003,12.049469964664354)"><rect x="1" width="11.999999999999996" height="297.95053003533565"></rect></g><g class="bar" transform="translate(169,51.48409893992931)"><rect x="1" width="11.999999999999996" height="258.5159010600707"></rect></g><g class="bar" transform="translate(182.00000000000003,37.24381625441697)"><rect x="1" width="11.999999999999996" height="272.75618374558303"></rect></g><g class="bar" transform="translate(195,18.621908127208485)"><rect x="1" width="11.999999999999996" height="291.3780918727915"></rect></g><g class="bar" transform="translate(208,26.289752650176695)"><rect x="1" width="11.999999999999996" height="283.7102473498233"></rect></g><g class="bar" transform="translate(221.00000000000003,0)"><rect x="1" width="11.999999999999996" height="310"></rect></g><g class="bar" transform="translate(234,59.15194346289752)"><rect x="1" width="11.999999999999996" height="250.84805653710248"></rect></g><g class="bar" transform="translate(247.00000000000003,24.098939929328594)"><rect x="1" width="11.999999999999996" height="285.9010600706714"></rect></g><g class="bar" transform="translate(260,65.72438162544168)"><rect x="1" width="11.999999999999996" height="244.27561837455832"></rect></g><g class="bar" transform="translate(273,94.20494699646645)"><rect x="1" width="11.999999999999996" height="215.79505300353355"></rect></g><g class="bar" transform="translate(286,139.11660777385157)"><rect x="1" width="11.999999999999996" height="170.88339222614843"></rect></g><g class="bar" transform="translate(299.00000000000006,167.59717314487634)"><rect x="1" width="11.999999999999996" height="142.40282685512366"></rect></g><g class="bar" transform="translate(312.00000000000006,199.36395759717317)"><rect x="1" width="11.999999999999996" height="110.63604240282683"></rect></g><g class="bar" transform="translate(325,223.46289752650176)"><rect x="1" width="11.999999999999996" height="86.53710247349824"></rect></g><g class="bar" transform="translate(338,259.6113074204947)"><rect x="1" width="11.999999999999996" height="50.38869257950529"></rect></g><g class="bar" transform="translate(351,271.660777385159)"><rect x="1" width="11.999999999999996" height="38.33922261484099"></rect></g><g class="bar" transform="translate(364.00000000000006,289.18727915194347)"><rect x="1" width="11.999999999999996" height="20.81272084805653"></rect></g><g class="bar" transform="translate(377.00000000000006,293.56890459363956)"><rect x="1" width="11.999999999999996" height="16.43109540636044"></rect></g><g class="bar" transform="translate(390,304.52296819787983)"><rect x="1" width="11.999999999999996" height="5.477031802120166"></rect></g><g class="bar" transform="translate(403,306.71378091872793)"><rect x="1" width="11.999999999999996" height="3.2862190812720655"></rect></g><g class="bar" transform="translate(416,310)"><rect x="1" width="11.999999999999996" height="0"></rect></g><g class="bar" transform="translate(429.00000000000006,308.904593639576)"><rect x="1" width="11.999999999999996" height="1.0954063604240218"></rect></g><g class="bar" transform="translate(442.00000000000006,310)"><rect x="1" width="11.999999999999996" height="0"></rect></g><g class="bar" transform="translate(455,310)"><rect x="1" width="11.999999999999996" height="0"></rect></g><g class="bar" transform="translate(468,310)"><rect x="1" width="11.999999999999996" height="0"></rect></g><g class="bar" transform="translate(481,310)"><rect x="1" width="11.999999999999996" height="0"></rect></g><g class="bar" transform="translate(494.00000000000006,310)"><rect x="1" width="11.999999999999996" height="0"></rect></g><g class="bar" transform="translate(507.00000000000006,310)"><rect x="1" width="11.999999999999996" height="0"></rect></g><g class="axis axis--x" transform="translate(0,310)" fill="none" font-size="10" font-family="sans-serif" text-anchor="middle"><path class="domain" stroke="#000" d="M0.5,6V0.5H520.5V6"></path><g class="tick" opacity="1" transform="translate(0.5,0)"><line stroke="#000" y2="6"></line><text fill="#000" y="9" dy="0.71em">0.01</text></g><g class="tick" opacity="1" transform="translate(130.5,0)"><line stroke="#000" y2="6"></line><text fill="#000" y="9" dy="0.71em">1</text></g><g class="tick" opacity="1" transform="translate(260.5,0)"><line stroke="#000" y2="6"></line><text fill="#000" y="9" dy="0.71em">100</text></g><g class="tick" opacity="1" transform="translate(390.5,0)"><line stroke="#000" y2="6"></line><text fill="#000" y="9" dy="0.71em">10000</text></g><g class="tick" opacity="1" transform="translate(520.5,0)"><line stroke="#000" y2="6"></line><text fill="#000" y="9" dy="0.71em"></text></g></g><g class="axis axis--y" fill="none" font-size="10" font-family="sans-serif" text-anchor="end"><path class="domain" stroke="#000" d="M-6,310.5H0.5V0.5H-6"></path><g class="tick" opacity="1" transform="translate(0,310.5)"><line stroke="#000" x2="-6"></line><text fill="#000" x="-9" dy="0.32em">0</text></g><g class="tick" opacity="1" transform="translate(0,288.59187279151945)"><line stroke="#000" x2="-6"></line><text fill="#000" x="-9" dy="0.32em">20</text></g><g class="tick" opacity="1" transform="translate(0,266.6837455830389)"><line stroke="#000" x2="-6"></line><text fill="#000" x="-9" dy="0.32em">40</text></g><g class="tick" opacity="1" transform="translate(0,244.7756183745583)"><line stroke="#000" x2="-6"></line><text fill="#000" x="-9" dy="0.32em">60</text></g><g class="tick" opacity="1" transform="translate(0,222.86749116607774)"><line stroke="#000" x2="-6"></line><text fill="#000" x="-9" dy="0.32em">80</text></g><g class="tick" opacity="1" transform="translate(0,200.95936395759716)"><line stroke="#000" x2="-6"></line><text fill="#000" x="-9" dy="0.32em">100</text></g><g class="tick" opacity="1" transform="translate(0,179.0512367491166)"><line stroke="#000" x2="-6"></line><text fill="#000" x="-9" dy="0.32em">120</text></g><g class="tick" opacity="1" transform="translate(0,157.14310954063603)"><line stroke="#000" x2="-6"></line><text fill="#000" x="-9" dy="0.32em">140</text></g><g class="tick" opacity="1" transform="translate(0,135.23498233215548)"><line stroke="#000" x2="-6"></line><text fill="#000" x="-9" dy="0.32em">160</text></g><g class="tick" opacity="1" transform="translate(0,113.32685512367493)"><line stroke="#000" x2="-6"></line><text fill="#000" x="-9" dy="0.32em">180</text></g><g class="tick" opacity="1" transform="translate(0,91.41872791519432)"><line stroke="#000" x2="-6"></line><text fill="#000" x="-9" dy="0.32em">200</text></g><g class="tick" opacity="1" transform="translate(0,69.5106007067138)"><line stroke="#000" x2="-6"></line><text fill="#000" x="-9" dy="0.32em">220</text></g><g class="tick" opacity="1" transform="translate(0,47.60247349823322)"><line stroke="#000" x2="-6"></line><text fill="#000" x="-9" dy="0.32em">240</text></g><g class="tick" opacity="1" transform="translate(0,25.694346289752673)"><line stroke="#000" x2="-6"></line><text fill="#000" x="-9" dy="0.32em">260</text></g><g class="tick" opacity="1" transform="translate(0,3.7862190812720655)"><line stroke="#000" x2="-6"></line><text fill="#000" x="-9" dy="0.32em">280</text></g></g></g></svg>