<svg xmlns="http://www.w3.org/2000/svg" width="600" height="350"><defs><style type="text/css"><![CDATA[ 
.bar rect {
  fill-opacity: 0;
  stroke:       black;
  stroke-width: 0.5;
}

.highlight rect {
  fill:       red;
  fill-opacity: 1;
}
.axis path,
.axis line {
  fill: none;
  stroke: #000;
  shape-rendering: crispEdges;
}
path {
    stroke: red;
    fill: none;
}

line {
    stroke: red;
}

path.marker {
    fill: red;
}
 ]]></style></defs><g transform="translate(50,10)"><g class="bar" transform="translate(0,310)"><rect x="1" width="11.999999999999996" height="0"></rect></g><g class="bar" transform="translate(12.999999999999996,310)"><rect x="1" width="11.999999999999996" height="0"></rect></g><g class="bar" transform="translate(25.999999999999993,308.49878934624695)"><rect x="1" width="11.999999999999996" height="1.5012106537530485"></rect></g><g class="bar" transform="translate(39.00000000000001,309.2493946731235)"><rect x="1" width="11.999999999999996" height="0.7506053268764958"></rect></g><g class="bar" transform="translate(52,304.7457627118644)"><rect x="1" width="11.999999999999996" height="5.2542372881355845"></rect></g><g class="bar" transform="translate(65,298.7409200968523)"><rect x="1" width="11.999999999999996" height="11.259079903147722"></rect></g><g class="bar" transform="translate(78.00000000000001,290.48426150121065)"><rect x="1" width="11.999999999999996" height="19.515738498789347"></rect></g><g class="bar" transform="translate(91.00000000000001,274.7215496368039)"><rect x="1" width="11.999999999999996" height="35.2784503631961"></rect></g><g class="bar" transform="translate(104,261.21065375302663)"><rect x="1" width="11.999999999999996" height="48.789346246973366"></rect></g><g class="bar" transform="translate(117,233.43825665859566)"><rect x="1" width="11.999999999999996" height="76.56174334140434"></rect></g><g class="bar" transform="translate(130,202.6634382566586)"><rect x="1" width="11.999999999999996" height="107.3365617433414"></rect></g><g class="bar" transform="translate(143,196.6585956416465)"><rect x="1" width="11.999999999999996" height="113.34140435835349"></rect></g><g class="bar" transform="translate(156.00000000000003,166.63438256658597)"><rect x="1" width="11.999999999999996" height="143.36561743341403"></rect></g><g class="bar" transform="translate(169,127.60290556900725)"><rect x="1" width="11.999999999999996" height="182.39709443099275"></rect></g><g class="bar" transform="translate(182.00000000000003,102.83292978208232)"><rect x="1" width="11.999999999999996" height="207.16707021791768"></rect></g><g class="bar" transform="translate(195,69.05569007263924)"><rect x="1" width="11.999999999999996" height="240.94430992736076"></rect></g><g class="bar" transform="translate(208,0)"><rect x="1" width="11.999999999999996" height="310"></rect></g><g class="bar" transform="translate(221.00000000000003,6.00484261501208)"><rect x="1" width="11.999999999999996" height="303.9951573849879"></rect></g><g class="bar" transform="translate(234,3.00242130750604)"><rect x="1" width="11.999999999999996" height="306.99757869249396"></rect></g><g class="bar" transform="translate(247.00000000000003,13.510895883777266)"><rect x="1" width="11.999999999999996" height="296.48910411622273"></rect></g><g class="bar" transform="translate(260,18.014527845036355)"><rect x="1" width="11.999999999999996" height="291.98547215496365"></rect></g><g class="bar" transform="translate(273,68.30508474576271)"><rect x="1" width="11.999999999999996" height="241.6949152542373"></rect></g><g class="bar" transform="translate(286,106.58595641646491)"><rect x="1" width="11.999999999999996" height="203.4140435835351"></rect></g><g class="bar" transform="translate(299.00000000000006,165.13317191283292)"><rect x="1" width="11.999999999999996" height="144.86682808716708"></rect></g><g class="bar" transform="translate(312.00000000000006,225.18159806295398)"><rect x="1" width="11.999999999999996" height="84.81840193704602"></rect></g><g class="bar" transform="translate(325,250.70217917675546)"><rect x="1" width="11.999999999999996" height="59.297820823244535"></rect></g><g class="bar" transform="translate(338,267.21549636803877)"><rect x="1" width="11.999999999999996" height="42.78450363196123"></rect></g><g class="bar" transform="translate(351,286.73123486682806)"><rect x="1" width="11.999999999999996" height="23.26876513317194"></rect></g><g class="bar" transform="translate(364.00000000000006,297.2397094430993)"><rect x="1" width="11.999999999999996" height="12.760290556900713"></rect></g><g class="bar" transform="translate(377.00000000000006,304.7457627118644)"><rect x="1" width="11.999999999999996" height="5.2542372881355845"></rect></g><g class="bar" transform="translate(390,307.74818401937046)"><rect x="1" width="11.999999999999996" height="2.2518159806295444"></rect></g><g class="bar" transform="translate(403,308.49878934624695)"><rect x="1" width="11.999999999999996" height="1.5012106537530485"></rect></g><g class="bar" transform="translate(416,310)"><rect x="1" width="11.999999999999996" height="0"></rect></g><g class="bar" transform="translate(429.00000000000006,310)"><rect x="1" width="11.999999999999996" height="0"></rect></g><g class="bar" transform="translate(442.00000000000006,310)"><rect x="1" width="11.999999999999996" height="0"></rect></g><g class="bar" transform="translate(455,310)"><rect x="1" width="11.999999999999996" height="0"></rect></g><g class="bar" transform="translate(468,310)"><rect x="1" width="11.999999999999996" height="0"></rect></g><g class="bar" transform="translate(481,310)"><rect x="1" width="11.999999999999996" height="0"></rect></g><g class="bar" transform="translate(494.00000000000006,310)"><rect x="1" width="11.999999999999996" height="0"></rect></g><g class="bar" transform="translate(507.00000000000006,310)"><rect x="1" width="11.999999999999996" height="0"></rect></g><g class="axis axis--x" transform="translate(0,310)" fill="none" font-size="10" font-family="sans-serif" text-anchor="middle"><path class="domain" stroke="#000" d="M0.5,6V0.5H520.5V6"></path><g class="tick" opacity="1" transform="translate(0.5,0)"><line stroke="#000" y2="6"></line><text fill="#000" y="9" dy="0.71em">0.01</text></g><g class="tick" opacity="1" transform="translate(130.5,0)"><line stroke="#000" y2="6"></line><text fill="#000" y="9" dy="0.71em">1</text></g><g class="tick" opacity="1" transform="translate(260.5,0)"><line stroke="#000" y2="6"></line><text fill="#000" y="9" dy="0.71em">100</text></g><g class="tick" opacity="1" transform="translate(390.5,0)"><line stroke="#000" y2="6"></line><text fill="#000" y="9" dy="0.71em">10000</text></g><g class="tick" opacity="1" transform="translate(520.5,0)"><line stroke="#000" y2="6"></line><text fill="#000" y="9" dy="0.71em"></text></g></g><g class="axis axis--y" fill="none" font-size="10" font-family="sans-serif" text-anchor="end"><path class="domain" stroke="#000" d="M-6,310.5H0.5V0.5H-6"></path><g class="tick" opacity="1" transform="translate(0,310.5)"><line stroke="#000" x2="-6"></line><text fill="#000" x="-9" dy="0.32em">0</text></g><g class="tick" opacity="1" transform="translate(0,272.96973365617436)"><line stroke="#000" x2="-6"></line><text fill="#000" x="-9" dy="0.32em">50</text></g><g class="tick" opacity="1" transform="translate(0,235.43946731234865)"><line stroke="#000" x2="-6"></line><text fill="#000" x="-9" dy="0.32em">100</text></g><g class="tick" opacity="1" transform="translate(0,197.909200968523)"><line stroke="#000" x2="-6"></line><text fill="#000" x="-9" dy="0.32em">150</text></g><g class="tick" opacity="1" transform="translate(0,160.37893462469734)"><line stroke="#000" x2="-6"></line><text fill="#000" x="-9" dy="0.32em">200</text></g><g class="tick" opacity="1" transform="translate(0,122.84866828087166)"><line stroke="#000" x2="-6"></line><text fill="#000" x="-9" dy="0.32em">250</text></g><g class="tick" opacity="1" transform="translate(0,85.31840193704599)"><line stroke="#000" x2="-6"></line><text fill="#000" x="-9" dy="0.32em">300</text></g><g class="tick" opacity="1" transform="translate(0,47.788135593220375)"><line stroke="#000" x2="-6"></line><text fill="#000" x="-9" dy="0.32em">350</text></g><g class="tick" opacity="1" transform="translate(0,10.257869249394673)"><line stroke="#000" x2="-6"></line><text fill="#000" x="-9" dy="0.32em">400</text></g></g></g></svg>