<svg xmlns="http://www.w3.org/2000/svg" width="600" height="350"><defs><style type="text/css"><![CDATA[ 
.bar rect {
  fill-opacity: 0;
  stroke:       black;
  stroke-width: 0.5;
}

.highlight rect {
  fill:       red;
  fill-opacity: 1;
}
.axis path,
.axis line {
  fill: none;
  stroke: #000;
  shape-rendering: crispEdges;
}
path {
    stroke: red;
    fill: none;
}

line {
    stroke: red;
}

path.marker {
    fill: red;
}
 ]]></style></defs><g transform="translate(50,10)"><g class="bar" transform="translate(0,310)"><rect x="1" width="11.999999999999996" height="0"></rect></g><g class="bar" transform="translate(12.999999999999996,310)"><rect x="1" width="11.999999999999996" height="0"></rect></g><g class="bar" transform="translate(25.999999999999993,310)"><rect x="1" width="11.999999999999996" height="0"></rect></g><g class="bar" transform="translate(39.00000000000001,310)"><rect x="1" width="11.999999999999996" height="0"></rect></g><g class="bar" transform="translate(52,310)"><rect x="1" width="11.999999999999996" height="0"></rect></g><g class="bar" transform="translate(65,310)"><rect x="1" width="11.999999999999996" height="0"></rect></g><g class="bar" transform="translate(78.00000000000001,309.159891598916)"><rect x="1" width="11.999999999999996" height="0.8401084010840236"></rect></g><g class="bar" transform="translate(91.00000000000001,307.479674796748)"><rect x="1" width="11.999999999999996" height="2.520325203252014"></rect></g><g class="bar" transform="translate(104,305.79945799457994)"><rect x="1" width="11.999999999999996" height="4.200542005420061"></rect></g><g class="bar" transform="translate(117,265.47425474254743)"><rect x="1" width="11.999999999999996" height="44.52574525745257"></rect></g><g class="bar" transform="translate(130,215.90785907859077)"><rect x="1" width="11.999999999999996" height="94.09214092140923"></rect></g><g class="bar" transform="translate(143,202.46612466124662)"><rect x="1" width="11.999999999999996" height="107.53387533875338"></rect></g><g class="bar" transform="translate(156.00000000000003,184.8238482384824)"><rect x="1" width="11.999999999999996" height="125.17615176151759"></rect></g><g class="bar" transform="translate(169,174.74254742547427)"><rect x="1" width="11.999999999999996" height="135.25745257452573"></rect></g><g class="bar" transform="translate(182.00000000000003,162.1409214092141)"><rect x="1" width="11.999999999999996" height="147.8590785907859"></rect></g><g class="bar" transform="translate(195,124.33604336043359)"><rect x="1" width="11.999999999999996" height="185.6639566395664"></rect></g><g class="bar" transform="translate(208,76.44986449864498)"><rect x="1" width="11.999999999999996" height="233.55013550135502"></rect></g><g class="bar" transform="translate(221.00000000000003,40.32520325203251)"><rect x="1" width="11.999999999999996" height="269.6747967479675"></rect></g><g class="bar" transform="translate(234,11.76151761517616)"><rect x="1" width="11.999999999999996" height="298.23848238482384"></rect></g><g class="bar" transform="translate(247.00000000000003,1.6802168021680473)"><rect x="1" width="11.999999999999996" height="308.31978319783195"></rect></g><g class="bar" transform="translate(260,0)"><rect x="1" width="11.999999999999996" height="310"></rect></g><g class="bar" transform="translate(273,10.921409214092137)"><rect x="1" width="11.999999999999996" height="299.07859078590786"></rect></g><g class="bar" transform="translate(286,99.13279132791328)"><rect x="1" width="11.999999999999996" height="210.86720867208672"></rect></g><g class="bar" transform="translate(299.00000000000006,120.13550135501356)"><rect x="1" width="11.999999999999996" height="189.86449864498644"></rect></g><g class="bar" transform="translate(312.00000000000006,152.05962059620597)"><rect x="1" width="11.999999999999996" height="157.94037940379403"></rect></g><g class="bar" transform="translate(325,199.94579945799458)"><rect x="1" width="11.999999999999996" height="110.05420054200542"></rect></g><g class="bar" transform="translate(338,236.07046070460706)"><rect x="1" width="11.999999999999996" height="73.92953929539294"></rect></g><g class="bar" transform="translate(351,288.99728997289975)"><rect x="1" width="11.999999999999996" height="21.00271002710025"></rect></g><g class="bar" transform="translate(364.00000000000006,303.2791327913279)"><rect x="1" width="11.999999999999996" height="6.720867208672075"></rect></g><g class="bar" transform="translate(377.00000000000006,309.159891598916)"><rect x="1" width="11.999999999999996" height="0.8401084010840236"></rect></g><g class="bar" transform="translate(390,310)"><rect x="1" width="11.999999999999996" height="0"></rect></g><g class="bar" transform="translate(403,310)"><rect x="1" width="11.999999999999996" height="0"></rect></g><g class="bar" transform="translate(416,310)"><rect x="1" width="11.999999999999996" height="0"></rect></g><g class="bar" transform="translate(429.00000000000006,310)"><rect x="1" width="11.999999999999996" height="0"></rect></g><g class="bar" transform="translate(442.00000000000006,310)"><rect x="1" width="11.999999999999996" height="0"></rect></g><g class="bar" transform="translate(455,310)"><rect x="1" width="11.999999999999996" height="0"></rect></g><g class="bar" transform="translate(468,310)"><rect x="1" width="11.999999999999996" height="0"></rect></g><g class="bar" transform="translate(481,310)"><rect x="1" width="11.999999999999996" height="0"></rect></g><g class="bar" transform="translate(494.00000000000006,310)"><rect x="1" width="11.999999999999996" height="0"></rect></g><g class="bar" transform="translate(507.00000000000006,310)"><rect x="1" width="11.999999999999996" height="0"></rect></g><g class="axis axis--x" transform="translate(0,310)" fill="none" font-size="10" font-family="sans-serif" text-anchor="middle"><path class="domain" stroke="#000" d="M0.5,6V0.5H520.5V6"></path><g class="tick" opacity="1" transform="translate(0.5,0)"><line stroke="#000" y2="6"></line><text fill="#000" y="9" dy="0.71em">0.01</text></g><g class="tick" opacity="1" transform="translate(130.5,0)"><line stroke="#000" y2="6"></line><text fill="#000" y="9" dy="0.71em">1</text></g><g class="tick" opacity="1" transform="translate(260.5,0)"><line stroke="#000" y2="6"></line><text fill="#000" y="9" dy="0.71em">100</text></g><g class="tick" opacity="1" transform="translate(390.5,0)"><line stroke="#000" y2="6"></line><text fill="#000" y="9" dy="0.71em">10000</text></g><g class="tick" opacity="1" transform="translate(520.5,0)"><line stroke="#000" y2="6"></line><text fill="#000" y="9" dy="0.71em"></text></g></g><g class="axis axis--y" fill="none" font-size="10" font-family="sans-serif" text-anchor="end"><path class="domain" stroke="#000" d="M-6,310.5H0.5V0.5H-6"></path><g class="tick" opacity="1" transform="translate(0,310.5)"><line stroke="#000" x2="-6"></line><text fill="#000" x="-9" dy="0.32em">0</text></g><g class="tick" opacity="1" transform="translate(0,268.49457994579944)"><line stroke="#000" x2="-6"></line><text fill="#000" x="-9" dy="0.32em">50</text></g><g class="tick" opacity="1" transform="translate(0,226.48915989159894)"><line stroke="#000" x2="-6"></line><text fill="#000" x="-9" dy="0.32em">100</text></g><g class="tick" opacity="1" transform="translate(0,184.4837398373984)"><line stroke="#000" x2="-6"></line><text fill="#000" x="-9" dy="0.32em">150</text></g><g class="tick" opacity="1" transform="translate(0,142.47831978319786)"><line stroke="#000" x2="-6"></line><text fill="#000" x="-9" dy="0.32em">200</text></g><g class="tick" opacity="1" transform="translate(0,100.47289972899728)"><line stroke="#000" x2="-6"></line><text fill="#000" x="-9" dy="0.32em">250</text></g><g class="tick" opacity="1" transform="translate(0,58.46747967479675)"><line stroke="#000" x2="-6"></line><text fill="#000" x="-9" dy="0.32em">300</text></g><g class="tick" opacity="1" transform="translate(0,16.462059620596165)"><line stroke="#000" x2="-6"></line><text fill="#000" x="-9" dy="0.32em">350</text></g></g></g></svg>