<svg xmlns="http://www.w3.org/2000/svg" width="600" height="350"><defs><style type="text/css"><![CDATA[ 
.bar rect {
  fill-opacity: 0;
  stroke:       black;
  stroke-width: 0.5;
}

.highlight rect {
  fill:       red;
  fill-opacity: 1;
}
.axis path,
.axis line {
  fill: none;
  stroke: #000;
  shape-rendering: crispEdges;
}
path {
    stroke: red;
    fill: none;
}

line {
    stroke: red;
}

path.marker {
    fill: red;
}
 ]]></style></defs><g transform="translate(50,10)"><g class="bar" transform="translate(0,309.2705882352941)"><rect x="1" width="5.500000000000005" height="0.7294117647059011"></rect></g><g class="bar" transform="translate(6.500000000000005,309.63529411764705)"><rect x="1" width="5.500000000000005" height="0.36470588235295054"></rect></g><g class="bar" transform="translate(12.999999999999996,309.2705882352941)"><rect x="1" width="5.500000000000005" height="0.7294117647059011"></rect></g><g class="bar" transform="translate(19.500000000000004,308.90588235294115)"><rect x="1" width="5.500000000000005" height="1.0941176470588516"></rect></g><g class="bar" transform="translate(25.999999999999993,307.4470588235294)"><rect x="1" width="5.500000000000005" height="2.552941176470597"></rect></g><g class="bar" transform="translate(32.5,309.2705882352941)"><rect x="1" width="5.500000000000005" height="0.7294117647059011"></rect></g><g class="bar" transform="translate(39.00000000000001,309.2705882352941)"><rect x="1" width="5.500000000000005" height="0.7294117647059011"></rect></g><g class="bar" transform="translate(45.500000000000014,308.90588235294115)"><rect x="1" width="5.500000000000005" height="1.0941176470588516"></rect></g><g class="bar" transform="translate(52,310)"><rect x="1" width="5.500000000000005" height="0"></rect></g><g class="bar" transform="translate(58.49999999999999,308.1764705882353)"><rect x="1" width="5.500000000000005" height="1.8235294117646959"></rect></g><g class="bar" transform="translate(65,305.98823529411766)"><rect x="1" width="5.500000000000005" height="4.011764705882342"></rect></g><g class="bar" transform="translate(71.5,304.52941176470586)"><rect x="1" width="5.500000000000005" height="5.470588235294144"></rect></g><g class="bar" transform="translate(78.00000000000001,305.25882352941176)"><rect x="1" width="5.500000000000005" height="4.741176470588243"></rect></g><g class="bar" transform="translate(84.5,300.5176470588235)"><rect x="1" width="5.500000000000005" height="9.482352941176487"></rect></g><g class="bar" transform="translate(91.00000000000001,296.8705882352941)"><rect x="1" width="5.500000000000005" height="13.129411764705878"></rect></g><g class="bar" transform="translate(97.5,287.38823529411764)"><rect x="1" width="5.500000000000005" height="22.611764705882365"></rect></g><g class="bar" transform="translate(104,277.54117647058825)"><rect x="1" width="5.500000000000005" height="32.458823529411745"></rect></g><g class="bar" transform="translate(110.50000000000001,266.2352941176471)"><rect x="1" width="5.500000000000005" height="43.76470588235293"></rect></g><g class="bar" transform="translate(117,232.68235294117648)"><rect x="1" width="5.500000000000005" height="77.31764705882352"></rect></g><g class="bar" transform="translate(123.50000000000001,204.6)"><rect x="1" width="5.500000000000005" height="105.4"></rect></g><g class="bar" transform="translate(130,179.0705882352941)"><rect x="1" width="5.500000000000005" height="130.9294117647059"></rect></g><g class="bar" transform="translate(136.5,129.83529411764707)"><rect x="1" width="5.500000000000005" height="180.16470588235293"></rect></g><g class="bar" transform="translate(143,108.68235294117648)"><rect x="1" width="5.500000000000005" height="201.31764705882352"></rect></g><g class="bar" transform="translate(149.50000000000003,80.96470588235294)"><rect x="1" width="5.500000000000005" height="229.03529411764706"></rect></g><g class="bar" transform="translate(156.00000000000003,37.92941176470589)"><rect x="1" width="5.500000000000005" height="272.0705882352941"></rect></g><g class="bar" transform="translate(162.5,1.0941176470588516)"><rect x="1" width="5.500000000000005" height="308.90588235294115"></rect></g><g class="bar" transform="translate(169,5.105882352941194)"><rect x="1" width="5.500000000000005" height="304.8941176470588"></rect></g><g class="bar" transform="translate(175.5,0)"><rect x="1" width="5.500000000000005" height="310"></rect></g><g class="bar" transform="translate(182.00000000000003,25.894117647058806)"><rect x="1" width="5.500000000000005" height="284.1058823529412"></rect></g><g class="bar" transform="translate(188.50000000000003,71.84705882352944)"><rect x="1" width="5.500000000000005" height="238.15294117647056"></rect></g><g class="bar" transform="translate(195,110.87058823529412)"><rect x="1" width="5.500000000000005" height="199.12941176470588"></rect></g><g class="bar" transform="translate(201.5,156.45882352941177)"><rect x="1" width="5.500000000000005" height="153.54117647058823"></rect></g><g class="bar" transform="translate(208,186.36470588235295)"><rect x="1" width="5.500000000000005" height="123.63529411764705"></rect></g><g class="bar" transform="translate(214.50000000000003,214.81176470588235)"><rect x="1" width="5.500000000000005" height="95.18823529411765"></rect></g><g class="bar" transform="translate(221.00000000000003,232.31764705882352)"><rect x="1" width="5.500000000000005" height="77.68235294117648"></rect></g><g class="bar" transform="translate(227.5,254.2)"><rect x="1" width="5.500000000000005" height="55.80000000000001"></rect></g><g class="bar" transform="translate(234,253.10588235294117)"><rect x="1" width="5.500000000000005" height="56.894117647058835"></rect></g><g class="bar" transform="translate(240.5,264.77647058823527)"><rect x="1" width="5.500000000000005" height="45.22352941176473"></rect></g><g class="bar" transform="translate(247.00000000000003,270.2470588235294)"><rect x="1" width="5.500000000000005" height="39.752941176470586"></rect></g><g class="bar" transform="translate(253.50000000000003,273.52941176470586)"><rect x="1" width="5.500000000000005" height="36.470588235294144"></rect></g><g class="bar" transform="translate(260,275.71764705882356)"><rect x="1" width="5.500000000000005" height="34.28235294117644"></rect></g><g class="bar" transform="translate(266.50000000000006,279.36470588235295)"><rect x="1" width="5.500000000000005" height="30.63529411764705"></rect></g><g class="bar" transform="translate(273,285.9294117647059)"><rect x="1" width="5.500000000000005" height="24.07058823529411"></rect></g><g class="bar" transform="translate(279.5,284.1058823529412)"><rect x="1" width="5.500000000000005" height="25.894117647058806"></rect></g><g class="bar" transform="translate(286,285.9294117647059)"><rect x="1" width="5.500000000000005" height="24.07058823529411"></rect></g><g class="bar" transform="translate(292.5,289.94117647058823)"><rect x="1" width="5.500000000000005" height="20.058823529411768"></rect></g><g class="bar" transform="translate(299.00000000000006,286.6588235294118)"><rect x="1" width="5.500000000000005" height="23.34117647058821"></rect></g><g class="bar" transform="translate(305.5,285.56470588235294)"><rect x="1" width="5.500000000000005" height="24.43529411764706"></rect></g><g class="bar" transform="translate(312.00000000000006,286.6588235294118)"><rect x="1" width="5.500000000000005" height="23.34117647058821"></rect></g><g class="bar" transform="translate(318.5,295.4117647058824)"><rect x="1" width="5.500000000000005" height="14.588235294117624"></rect></g><g class="bar" transform="translate(325,295.77647058823527)"><rect x="1" width="5.500000000000005" height="14.22352941176473"></rect></g><g class="bar" transform="translate(331.50000000000006,300.88235294117646)"><rect x="1" width="5.500000000000005" height="9.117647058823536"></rect></g><g class="bar" transform="translate(338,299.78823529411767)"><rect x="1" width="5.500000000000005" height="10.21176470588233"></rect></g><g class="bar" transform="translate(344.50000000000006,301.61176470588236)"><rect x="1" width="5.500000000000005" height="8.388235294117635"></rect></g><g class="bar" transform="translate(351,301.2470588235294)"><rect x="1" width="5.500000000000005" height="8.752941176470586"></rect></g><g class="bar" transform="translate(357.5,303.43529411764706)"><rect x="1" width="5.500000000000005" height="6.564705882352939"></rect></g><g class="bar" transform="translate(364.00000000000006,301.9764705882353)"><rect x="1" width="5.500000000000005" height="8.023529411764684"></rect></g><g class="bar" transform="translate(370.5,306.7176470588235)"><rect x="1" width="5.500000000000005" height="3.282352941176498"></rect></g><g class="bar" transform="translate(377.00000000000006,307.08235294117645)"><rect x="1" width="5.500000000000005" height="2.9176470588235475"></rect></g><g class="bar" transform="translate(383.5,307.4470588235294)"><rect x="1" width="5.500000000000005" height="2.552941176470597"></rect></g><g class="bar" transform="translate(390,310)"><rect x="1" width="5.500000000000005" height="0"></rect></g><g class="bar" transform="translate(396.50000000000006,309.2705882352941)"><rect x="1" width="5.500000000000005" height="0.7294117647059011"></rect></g><g class="bar" transform="translate(403,309.2705882352941)"><rect x="1" width="5.500000000000005" height="0.7294117647059011"></rect></g><g class="bar" transform="translate(409.50000000000006,310)"><rect x="1" width="5.500000000000005" height="0"></rect></g><g class="bar" transform="translate(416,309.63529411764705)"><rect x="1" width="5.500000000000005" height="0.36470588235295054"></rect></g><g class="bar" transform="translate(422.5,310)"><rect x="1" width="5.500000000000005" height="0"></rect></g><g class="bar" transform="translate(429.00000000000006,310)"><rect x="1" width="5.500000000000005" height="0"></rect></g><g class="bar" transform="translate(435.5,310)"><rect x="1" width="5.500000000000005" height="0"></rect></g><g class="bar" transform="translate(442.00000000000006,310)"><rect x="1" width="5.500000000000005" height="0"></rect></g><g class="bar" transform="translate(448.5,310)"><rect x="1" width="5.500000000000005" height="0"></rect></g><g class="bar" transform="translate(455,310)"><rect x="1" width="5.500000000000005" height="0"></rect></g><g class="bar" transform="translate(461.50000000000006,310)"><rect x="1" width="5.500000000000005" height="0"></rect></g><g class="bar" transform="translate(468,310)"><rect x="1" width="5.500000000000005" height="0"></rect></g><g class="bar" transform="translate(474.50000000000006,310)"><rect x="1" width="5.500000000000005" height="0"></rect></g><g class="bar" transform="translate(481,310)"><rect x="1" width="5.500000000000005" height="0"></rect></g><g class="bar" transform="translate(487.5,310)"><rect x="1" width="5.500000000000005" height="0"></rect></g><g class="bar" transform="translate(494.00000000000006,310)"><rect x="1" width="5.500000000000005" height="0"></rect></g><g class="bar" transform="translate(500.5,310)"><rect x="1" width="5.500000000000005" height="0"></rect></g><g class="bar" transform="translate(507.00000000000006,310)"><rect x="1" width="5.500000000000005" height="0"></rect></g><g class="bar" transform="translate(513.5,310)"><rect x="1" width="5.500000000000005" height="0"></rect></g><g class="axis axis--x" transform="translate(0,310)" fill="none" font-size="10" font-family="sans-serif" text-anchor="middle"><path class="domain" stroke="#000" d="M0.5,6V0.5H520.5V6"></path><g class="tick" opacity="1" transform="translate(0.5,0)"><line stroke="#000" y2="6"></line><text fill="#000" y="9" dy="0.71em">0.01</text></g><g class="tick" opacity="1" transform="translate(130.5,0)"><line stroke="#000" y2="6"></line><text fill="#000" y="9" dy="0.71em">1</text></g><g class="tick" opacity="1" transform="translate(260.5,0)"><line stroke="#000" y2="6"></line><text fill="#000" y="9" dy="0.71em">100</text></g><g class="tick" opacity="1" transform="translate(390.5,0)"><line stroke="#000" y2="6"></line><text fill="#000" y="9" dy="0.71em">10000</text></g><g class="tick" opacity="1" transform="translate(520.5,0)"><line stroke="#000" y2="6"></line><text fill="#000" y="9" dy="0.71em"></text></g></g><g class="axis axis--y" fill="none" font-size="10" font-family="sans-serif" text-anchor="end"><path class="domain" stroke="#000" d="M-6,310.5H0.5V0.5H-6"></path><g class="tick" opacity="1" transform="translate(0,310.5)"><line stroke="#000" x2="-6"></line><text fill="#000" x="-9" dy="0.32em">0</text></g><g class="tick" opacity="1" transform="translate(0,274.02941176470586)"><line stroke="#000" x2="-6"></line><text fill="#000" x="-9" dy="0.32em">100</text></g><g class="tick" opacity="1" transform="translate(0,237.55882352941177)"><line stroke="#000" x2="-6"></line><text fill="#000" x="-9" dy="0.32em">200</text></g><g class="tick" opacity="1" transform="translate(0,201.08823529411762)"><line stroke="#000" x2="-6"></line><text fill="#000" x="-9" dy="0.32em">300</text></g><g class="tick" opacity="1" transform="translate(0,164.61764705882354)"><line stroke="#000" x2="-6"></line><text fill="#000" x="-9" dy="0.32em">400</text></g><g class="tick" opacity="1" transform="translate(0,128.1470588235294)"><line stroke="#000" x2="-6"></line><text fill="#000" x="-9" dy="0.32em">500</text></g><g class="tick" opacity="1" transform="translate(0,91.67647058823528)"><line stroke="#000" x2="-6"></line><text fill="#000" x="-9" dy="0.32em">600</text></g><g class="tick" opacity="1" transform="translate(0,55.20588235294119)"><line stroke="#000" x2="-6"></line><text fill="#000" x="-9" dy="0.32em">700</text></g><g class="tick" opacity="1" transform="translate(0,18.735294117647072)"><line stroke="#000" x2="-6"></line><text fill="#000" x="-9" dy="0.32em">800</text></g></g></g></svg>