<svg xmlns="http://www.w3.org/2000/svg" width="280" height="160"><defs><style type="text/css"><![CDATA[ 
.bar rect {
  fill-opacity: 0;
  stroke:       black;
  stroke-width: 0.5;
}

.highlight rect {
  fill:       red;
  fill-opacity: 1;
}
.axis path,
.axis line {
  fill: none;
  stroke: #000;
  shape-rendering: crispEdges;
}
path {
    stroke: red;
    fill: none;
}

line {
    stroke: red;
}

path.marker {
    fill: red;
}
 ]]></style></defs><g transform="translate(50,10)"><g class="bar" transform="translate(0,119.54602774274906)"><rect x="1" width="11.5" height="0.45397225725093904"></rect></g><g class="bar" transform="translate(12.5,119.63682219419924)"><rect x="1" width="11.5" height="0.36317780580075976"></rect></g><g class="bar" transform="translate(25,116.94325346784363)"><rect x="1" width="11.5" height="3.0567465321563674"></rect></g><g class="bar" transform="translate(37.5,96.63556116015133)"><rect x="1" width="11.5" height="23.364438839848674"></rect></g><g class="bar" transform="translate(50,35.89407313997478)"><rect x="1" width="11.5" height="84.10592686002522"></rect></g><g class="bar" transform="translate(62.5,0)"><rect x="1" width="11.5" height="120"></rect></g><g class="bar" transform="translate(75,66.12862547288776)"><rect x="1" width="11.5" height="53.87137452711224"></rect></g><g class="bar" transform="translate(87.5,100.56998738965952)"><rect x="1" width="11.5" height="19.430012610340484"></rect></g><g class="bar" transform="translate(100,108.46910466582598)"><rect x="1" width="11.5" height="11.53089533417402"></rect></g><g class="bar" transform="translate(112.5,111.22320302648171)"><rect x="1" width="11.5" height="8.776796973518287"></rect></g><g class="bar" transform="translate(125,115.79319041614124)"><rect x="1" width="11.5" height="4.206809583858757"></rect></g><g class="bar" transform="translate(137.5,118.06305170239597)"><rect x="1" width="11.5" height="1.936948297604033"></rect></g><g class="bar" transform="translate(150,119.84867591424968)"><rect x="1" width="11.5" height="0.15132408575031775"></rect></g><g class="bar" transform="translate(162.5,120)"><rect x="1" width="11.5" height="0"></rect></g><g class="bar" transform="translate(175,120)"><rect x="1" width="11.5" height="0"></rect></g><g class="bar" transform="translate(187.5,120)"><rect x="1" width="11.5" height="0"></rect></g></g></svg>