<svg xmlns="http://www.w3.org/2000/svg" width="600" height="350"><defs><style type="text/css"><![CDATA[ 
.bar rect {
  fill-opacity: 0;
  stroke:       black;
  stroke-width: 0.5;
}

.highlight rect {
  fill:       red;
  fill-opacity: 1;
}
.axis path,
.axis line {
  fill: none;
  stroke: #000;
  shape-rendering: crispEdges;
}
 ]]></style></defs><g transform="translate(50,10)"><g class="bar" transform="translate(0,307.89830508474574)"><rect x="1" width="11.999999999999996" height="2.1016949152542566"></rect></g><g class="bar" transform="translate(12.999999999999996,308.9491525423729)"><rect x="1" width="11.999999999999996" height="1.0508474576271283"></rect></g><g class="bar" transform="translate(25.999999999999993,303.6949152542373)"><rect x="1" width="11.999999999999996" height="6.305084745762713"></rect></g><g class="bar" transform="translate(39.00000000000001,308.9491525423729)"><rect x="1" width="11.999999999999996" height="1.0508474576271283"></rect></g><g class="bar" transform="translate(52,310)"><rect x="1" width="11.999999999999996" height="0"></rect></g><g class="bar" transform="translate(65,310)"><rect x="1" width="11.999999999999996" height="0"></rect></g><g class="bar" transform="translate(78.00000000000001,305.79661016949154)"><rect x="1" width="11.999999999999996" height="4.203389830508456"></rect></g><g class="bar" transform="translate(91.00000000000001,300.54237288135596)"><rect x="1" width="11.999999999999996" height="9.45762711864404"></rect></g><g class="bar" transform="translate(104,295.2881355932203)"><rect x="1" width="11.999999999999996" height="14.711864406779682"></rect></g><g class="bar" transform="translate(117,278.47457627118644)"><rect x="1" width="11.999999999999996" height="31.525423728813564"></rect></g><g class="bar" transform="translate(130,263.76271186440675)"><rect x="1" width="11.999999999999996" height="46.237288135593246"></rect></g><g class="bar" transform="translate(143,243.79661016949154)"><rect x="1" width="11.999999999999996" height="66.20338983050846"></rect></g><g class="bar" transform="translate(156.00000000000003,222.77966101694915)"><rect x="1" width="11.999999999999996" height="87.22033898305085"></rect></g><g class="bar" transform="translate(169,190.20338983050846)"><rect x="1" width="11.999999999999996" height="119.79661016949154"></rect></g><g class="bar" transform="translate(182.00000000000003,154.47457627118644)"><rect x="1" width="11.999999999999996" height="155.52542372881356"></rect></g><g class="bar" transform="translate(195,141.864406779661)"><rect x="1" width="11.999999999999996" height="168.135593220339"></rect></g><g class="bar" transform="translate(208,92.47457627118644)"><rect x="1" width="11.999999999999996" height="217.52542372881356"></rect></g><g class="bar" transform="translate(221.00000000000003,59.89830508474574)"><rect x="1" width="11.999999999999996" height="250.10169491525426"></rect></g><g class="bar" transform="translate(234,17.86440677966101)"><rect x="1" width="11.999999999999996" height="292.135593220339"></rect></g><g class="bar" transform="translate(247.00000000000003,23.11864406779665)"><rect x="1" width="11.999999999999996" height="286.88135593220335"></rect></g><g class="bar" transform="translate(260,0)"><rect x="1" width="11.999999999999996" height="310"></rect></g><g class="bar" transform="translate(273,45.18644067796612)"><rect x="1" width="11.999999999999996" height="264.8135593220339"></rect></g><g class="bar" transform="translate(286,76.71186440677965)"><rect x="1" width="11.999999999999996" height="233.28813559322035"></rect></g><g class="bar" transform="translate(299.00000000000006,108.23728813559325)"><rect x="1" width="11.999999999999996" height="201.76271186440675"></rect></g><g class="bar" transform="translate(312.00000000000006,174.4406779661017)"><rect x="1" width="11.999999999999996" height="135.5593220338983"></rect></g><g class="bar" transform="translate(325,202.81355932203388)"><rect x="1" width="11.999999999999996" height="107.18644067796612"></rect></g><g class="bar" transform="translate(338,233.28813559322032)"><rect x="1" width="11.999999999999996" height="76.71186440677968"></rect></g><g class="bar" transform="translate(351,275.3220338983051)"><rect x="1" width="11.999999999999996" height="34.67796610169489"></rect></g><g class="bar" transform="translate(364.00000000000006,295.2881355932203)"><rect x="1" width="11.999999999999996" height="14.711864406779682"></rect></g><g class="bar" transform="translate(377.00000000000006,300.54237288135596)"><rect x="1" width="11.999999999999996" height="9.45762711864404"></rect></g><g class="bar" transform="translate(390,308.9491525423729)"><rect x="1" width="11.999999999999996" height="1.0508474576271283"></rect></g><g class="bar" transform="translate(403,310)"><rect x="1" width="11.999999999999996" height="0"></rect></g><g class="bar" transform="translate(416,308.9491525423729)"><rect x="1" width="11.999999999999996" height="1.0508474576271283"></rect></g><g class="bar" transform="translate(429.00000000000006,308.9491525423729)"><rect x="1" width="11.999999999999996" height="1.0508474576271283"></rect></g><g class="bar" transform="translate(442.00000000000006,310)"><rect x="1" width="11.999999999999996" height="0"></rect></g><g class="bar" transform="translate(455,310)"><rect x="1" width="11.999999999999996" height="0"></rect></g><g class="bar" transform="translate(468,310)"><rect x="1" width="11.999999999999996" height="0"></rect></g><g class="bar" transform="translate(481,310)"><rect x="1" width="11.999999999999996" height="0"></rect></g><g class="bar" transform="translate(494.00000000000006,310)"><rect x="1" width="11.999999999999996" height="0"></rect></g><g class="bar" transform="translate(507.00000000000006,310)"><rect x="1" width="11.999999999999996" height="0"></rect></g><g class="axis axis--x" transform="translate(0,310)" fill="none" font-size="10" font-family="sans-serif" text-anchor="middle"><path class="domain" stroke="#000" d="M0.5,6V0.5H520.5V6"></path><g class="tick" opacity="1" transform="translate(0,0)"><line stroke="#000" y2="6" x1="0.5" x2="0.5"></line><text fill="#000" y="9" x="0.5" dy="0.71em">0.01</text></g><g class="tick" opacity="1" transform="translate(130,0)"><line stroke="#000" y2="6" x1="0.5" x2="0.5"></line><text fill="#000" y="9" x="0.5" dy="0.71em">1</text></g><g class="tick" opacity="1" transform="translate(260,0)"><line stroke="#000" y2="6" x1="0.5" x2="0.5"></line><text fill="#000" y="9" x="0.5" dy="0.71em">100</text></g><g class="tick" opacity="1" transform="translate(390,0)"><line stroke="#000" y2="6" x1="0.5" x2="0.5"></line><text fill="#000" y="9" x="0.5" dy="0.71em">10000</text></g><g class="tick" opacity="1" transform="translate(520,0)"><line stroke="#000" y2="6" x1="0.5" x2="0.5"></line><text fill="#000" y="9" x="0.5" dy="0.71em"></text></g></g><g class="axis axis--y" fill="none" font-size="10" font-family="sans-serif" text-anchor="end"><path class="domain" stroke="#000" d="M-6,310.5H0.5V0.5H-6"></path><g class="tick" opacity="1" transform="translate(0,310)"><line stroke="#000" x2="-6" y1="0.5" y2="0.5"></line><text fill="#000" x="-9" y="0.5" dy="0.32em">0</text></g><g class="tick" opacity="1" transform="translate(0,288.9830508474576)"><line stroke="#000" x2="-6" y1="0.5" y2="0.5"></line><text fill="#000" x="-9" y="0.5" dy="0.32em">20</text></g><g class="tick" opacity="1" transform="translate(0,267.96610169491527)"><line stroke="#000" x2="-6" y1="0.5" y2="0.5"></line><text fill="#000" x="-9" y="0.5" dy="0.32em">40</text></g><g class="tick" opacity="1" transform="translate(0,246.94915254237287)"><line stroke="#000" x2="-6" y1="0.5" y2="0.5"></line><text fill="#000" x="-9" y="0.5" dy="0.32em">60</text></g><g class="tick" opacity="1" transform="translate(0,225.9322033898305)"><line stroke="#000" x2="-6" y1="0.5" y2="0.5"></line><text fill="#000" x="-9" y="0.5" dy="0.32em">80</text></g><g class="tick" opacity="1" transform="translate(0,204.91525423728814)"><line stroke="#000" x2="-6" y1="0.5" y2="0.5"></line><text fill="#000" x="-9" y="0.5" dy="0.32em">100</text></g><g class="tick" opacity="1" transform="translate(0,183.89830508474574)"><line stroke="#000" x2="-6" y1="0.5" y2="0.5"></line><text fill="#000" x="-9" y="0.5" dy="0.32em">120</text></g><g class="tick" opacity="1" transform="translate(0,162.88135593220338)"><line stroke="#000" x2="-6" y1="0.5" y2="0.5"></line><text fill="#000" x="-9" y="0.5" dy="0.32em">140</text></g><g class="tick" opacity="1" transform="translate(0,141.864406779661)"><line stroke="#000" x2="-6" y1="0.5" y2="0.5"></line><text fill="#000" x="-9" y="0.5" dy="0.32em">160</text></g><g class="tick" opacity="1" transform="translate(0,120.84745762711864)"><line stroke="#000" x2="-6" y1="0.5" y2="0.5"></line><text fill="#000" x="-9" y="0.5" dy="0.32em">180</text></g><g class="tick" opacity="1" transform="translate(0,99.83050847457628)"><line stroke="#000" x2="-6" y1="0.5" y2="0.5"></line><text fill="#000" x="-9" y="0.5" dy="0.32em">200</text></g><g class="tick" opacity="1" transform="translate(0,78.81355932203388)"><line stroke="#000" x2="-6" y1="0.5" y2="0.5"></line><text fill="#000" x="-9" y="0.5" dy="0.32em">220</text></g><g class="tick" opacity="1" transform="translate(0,57.796610169491515)"><line stroke="#000" x2="-6" y1="0.5" y2="0.5"></line><text fill="#000" x="-9" y="0.5" dy="0.32em">240</text></g><g class="tick" opacity="1" transform="translate(0,36.77966101694915)"><line stroke="#000" x2="-6" y1="0.5" y2="0.5"></line><text fill="#000" x="-9" y="0.5" dy="0.32em">260</text></g><g class="tick" opacity="1" transform="translate(0,15.762711864406754)"><line stroke="#000" x2="-6" y1="0.5" y2="0.5"></line><text fill="#000" x="-9" y="0.5" dy="0.32em">280</text></g></g></g></svg>