<svg xmlns="http://www.w3.org/2000/svg" width="280" height="160"><defs><style type="text/css"><![CDATA[ 
.bar rect {
  fill-opacity: 0;
  stroke:       black;
  stroke-width: 0.5;
}

.highlight rect {
  fill:       red;
  fill-opacity: 1;
}
.axis path,
.axis line {
  fill: none;
  stroke: #000;
  shape-rendering: crispEdges;
}
path {
    stroke: red;
    fill: none;
}

line {
    stroke: red;
}

path.marker {
    fill: red;
}
 ]]></style></defs><g transform="translate(50,10)"><g class="bar" transform="translate(0,103.97425583266292)"><rect x="1" width="11.5" height="16.02574416733708"></rect></g><g class="bar" transform="translate(12.5,108.51166532582462)"><rect x="1" width="11.5" height="11.488334674175377"></rect></g><g class="bar" transform="translate(25,96.92679002413516)"><rect x="1" width="11.5" height="23.07320997586484"></rect></g><g class="bar" transform="translate(37.5,82.5422365245374)"><rect x="1" width="11.5" height="37.4577634754626"></rect></g><g class="bar" transform="translate(50,56.37972646822204)"><rect x="1" width="11.5" height="63.62027353177796"></rect></g><g class="bar" transform="translate(62.5,42.091713596138376)"><rect x="1" width="11.5" height="77.90828640386162"></rect></g><g class="bar" transform="translate(75,18.7288817377313)"><rect x="1" width="11.5" height="101.2711182622687"></rect></g><g class="bar" transform="translate(87.5,0)"><rect x="1" width="11.5" height="120"></rect></g><g class="bar" transform="translate(100,7.047465808527747)"><rect x="1" width="11.5" height="112.95253419147225"></rect></g><g class="bar" transform="translate(112.5,60.33789219629928)"><rect x="1" width="11.5" height="59.66210780370072"></rect></g><g class="bar" transform="translate(125,108.02896218825423)"><rect x="1" width="11.5" height="11.971037811745774"></rect></g><g class="bar" transform="translate(137.5,117.97264682220434)"><rect x="1" width="11.5" height="2.0273531777956606"></rect></g><g class="bar" transform="translate(150,119.61383748994369)"><rect x="1" width="11.5" height="0.38616251005630886"></rect></g><g class="bar" transform="translate(162.5,120)"><rect x="1" width="11.5" height="0"></rect></g><g class="bar" transform="translate(175,120)"><rect x="1" width="11.5" height="0"></rect></g><g class="bar" transform="translate(187.5,120)"><rect x="1" width="11.5" height="0"></rect></g></g></svg>