<svg xmlns="http://www.w3.org/2000/svg" width="600" height="350"><defs><style type="text/css"><![CDATA[ 
.bar rect {
  fill-opacity: 0;
  stroke:       black;
  stroke-width: 0.5;
}

.highlight rect {
  fill:       red;
  fill-opacity: 1;
}
.axis path,
.axis line {
  fill: none;
  stroke: #000;
  shape-rendering: crispEdges;
}
path {
    stroke: red;
    fill: none;
}

line {
    stroke: red;
}

path.marker {
    fill: red;
}
 ]]></style></defs><g transform="translate(50,10)"><g class="bar" transform="translate(0,310)"><rect x="1" width="11.999999999999996" height="0"></rect></g><g class="bar" transform="translate(12.999999999999996,310)"><rect x="1" width="11.999999999999996" height="0"></rect></g><g class="bar" transform="translate(25.999999999999993,310)"><rect x="1" width="11.999999999999996" height="0"></rect></g><g class="bar" transform="translate(39.00000000000001,310)"><rect x="1" width="11.999999999999996" height="0"></rect></g><g class="bar" transform="translate(52,310)"><rect x="1" width="11.999999999999996" height="0"></rect></g><g class="bar" transform="translate(65,310)"><rect x="1" width="11.999999999999996" height="0"></rect></g><g class="bar" transform="translate(78.00000000000001,310)"><rect x="1" width="11.999999999999996" height="0"></rect></g><g class="bar" transform="translate(91.00000000000001,310)"><rect x="1" width="11.999999999999996" height="0"></rect></g><g class="bar" transform="translate(104,310)"><rect x="1" width="11.999999999999996" height="0"></rect></g><g class="bar" transform="translate(117,310)"><rect x="1" width="11.999999999999996" height="0"></rect></g><g class="bar" transform="translate(130,310)"><rect x="1" width="11.999999999999996" height="0"></rect></g><g class="bar" transform="translate(143,308.9198606271777)"><rect x="1" width="11.999999999999996" height="1.080139372822316"></rect></g><g class="bar" transform="translate(156.00000000000003,305.6794425087108)"><rect x="1" width="11.999999999999996" height="4.3205574912892075"></rect></g><g class="bar" transform="translate(169,301.3588850174216)"><rect x="1" width="11.999999999999996" height="8.641114982578415"></rect></g><g class="bar" transform="translate(182.00000000000003,291.6376306620209)"><rect x="1" width="11.999999999999996" height="18.36236933797909"></rect></g><g class="bar" transform="translate(195,252.7526132404181)"><rect x="1" width="11.999999999999996" height="57.2473867595819"></rect></g><g class="bar" transform="translate(208,168.50174216027875)"><rect x="1" width="11.999999999999996" height="141.49825783972125"></rect></g><g class="bar" transform="translate(221.00000000000003,33.48432055749129)"><rect x="1" width="11.999999999999996" height="276.5156794425087"></rect></g><g class="bar" transform="translate(234,0)"><rect x="1" width="11.999999999999996" height="310"></rect></g><g class="bar" transform="translate(247.00000000000003,10.80139372822299)"><rect x="1" width="11.999999999999996" height="299.198606271777"></rect></g><g class="bar" transform="translate(260,27.003484320557504)"><rect x="1" width="11.999999999999996" height="282.9965156794425"></rect></g><g class="bar" transform="translate(273,77.7700348432056)"><rect x="1" width="11.999999999999996" height="232.2299651567944"></rect></g><g class="bar" transform="translate(286,81.01045296167246)"><rect x="1" width="11.999999999999996" height="228.98954703832754"></rect></g><g class="bar" transform="translate(299.00000000000006,112.33449477351917)"><rect x="1" width="11.999999999999996" height="197.66550522648083"></rect></g><g class="bar" transform="translate(312.00000000000006,179.30313588850174)"><rect x="1" width="11.999999999999996" height="130.69686411149826"></rect></g><g class="bar" transform="translate(325,196.58536585365854)"><rect x="1" width="11.999999999999996" height="113.41463414634146"></rect></g><g class="bar" transform="translate(338,233.31010452961672)"><rect x="1" width="11.999999999999996" height="76.68989547038328"></rect></g><g class="bar" transform="translate(351,262.47386759581883)"><rect x="1" width="11.999999999999996" height="47.52613240418117"></rect></g><g class="bar" transform="translate(364.00000000000006,282.9965156794425)"><rect x="1" width="11.999999999999996" height="27.003484320557504"></rect></g><g class="bar" transform="translate(377.00000000000006,303.5191637630662)"><rect x="1" width="11.999999999999996" height="6.480836236933783"></rect></g><g class="bar" transform="translate(390,308.9198606271777)"><rect x="1" width="11.999999999999996" height="1.080139372822316"></rect></g><g class="bar" transform="translate(403,310)"><rect x="1" width="11.999999999999996" height="0"></rect></g><g class="bar" transform="translate(416,308.9198606271777)"><rect x="1" width="11.999999999999996" height="1.080139372822316"></rect></g><g class="bar" transform="translate(429.00000000000006,310)"><rect x="1" width="11.999999999999996" height="0"></rect></g><g class="bar" transform="translate(442.00000000000006,310)"><rect x="1" width="11.999999999999996" height="0"></rect></g><g class="bar" transform="translate(455,310)"><rect x="1" width="11.999999999999996" height="0"></rect></g><g class="bar" transform="translate(468,310)"><rect x="1" width="11.999999999999996" height="0"></rect></g><g class="bar" transform="translate(481,310)"><rect x="1" width="11.999999999999996" height="0"></rect></g><g class="bar" transform="translate(494.00000000000006,310)"><rect x="1" width="11.999999999999996" height="0"></rect></g><g class="bar" transform="translate(507.00000000000006,310)"><rect x="1" width="11.999999999999996" height="0"></rect></g><g class="axis axis--x" transform="translate(0,310)" fill="none" font-size="10" font-family="sans-serif" text-anchor="middle"><path class="domain" stroke="#000" d="M0.5,6V0.5H520.5V6"></path><g class="tick" opacity="1" transform="translate(0.5,0)"><line stroke="#000" y2="6"></line><text fill="#000" y="9" dy="0.71em">0.01</text></g><g class="tick" opacity="1" transform="translate(130.5,0)"><line stroke="#000" y2="6"></line><text fill="#000" y="9" dy="0.71em">1</text></g><g class="tick" opacity="1" transform="translate(260.5,0)"><line stroke="#000" y2="6"></line><text fill="#000" y="9" dy="0.71em">100</text></g><g class="tick" opacity="1" transform="translate(390.5,0)"><line stroke="#000" y2="6"></line><text fill="#000" y="9" dy="0.71em">10000</text></g><g class="tick" opacity="1" transform="translate(520.5,0)"><line stroke="#000" y2="6"></line><text fill="#000" y="9" dy="0.71em"></text></g></g><g class="axis axis--y" fill="none" font-size="10" font-family="sans-serif" text-anchor="end"><path class="domain" stroke="#000" d="M-6,310.5H0.5V0.5H-6"></path><g class="tick" opacity="1" transform="translate(0,310.5)"><line stroke="#000" x2="-6"></line><text fill="#000" x="-9" dy="0.32em">0</text></g><g class="tick" opacity="1" transform="translate(0,288.897212543554)"><line stroke="#000" x2="-6"></line><text fill="#000" x="-9" dy="0.32em">20</text></g><g class="tick" opacity="1" transform="translate(0,267.29442508710804)"><line stroke="#000" x2="-6"></line><text fill="#000" x="-9" dy="0.32em">40</text></g><g class="tick" opacity="1" transform="translate(0,245.691637630662)"><line stroke="#000" x2="-6"></line><text fill="#000" x="-9" dy="0.32em">60</text></g><g class="tick" opacity="1" transform="translate(0,224.08885017421602)"><line stroke="#000" x2="-6"></line><text fill="#000" x="-9" dy="0.32em">80</text></g><g class="tick" opacity="1" transform="translate(0,202.48606271777004)"><line stroke="#000" x2="-6"></line><text fill="#000" x="-9" dy="0.32em">100</text></g><g class="tick" opacity="1" transform="translate(0,180.88327526132403)"><line stroke="#000" x2="-6"></line><text fill="#000" x="-9" dy="0.32em">120</text></g><g class="tick" opacity="1" transform="translate(0,159.28048780487805)"><line stroke="#000" x2="-6"></line><text fill="#000" x="-9" dy="0.32em">140</text></g><g class="tick" opacity="1" transform="translate(0,137.67770034843207)"><line stroke="#000" x2="-6"></line><text fill="#000" x="-9" dy="0.32em">160</text></g><g class="tick" opacity="1" transform="translate(0,116.07491289198609)"><line stroke="#000" x2="-6"></line><text fill="#000" x="-9" dy="0.32em">180</text></g><g class="tick" opacity="1" transform="translate(0,94.47212543554005)"><line stroke="#000" x2="-6"></line><text fill="#000" x="-9" dy="0.32em">200</text></g><g class="tick" opacity="1" transform="translate(0,72.86933797909407)"><line stroke="#000" x2="-6"></line><text fill="#000" x="-9" dy="0.32em">220</text></g><g class="tick" opacity="1" transform="translate(0,51.26655052264806)"><line stroke="#000" x2="-6"></line><text fill="#000" x="-9" dy="0.32em">240</text></g><g class="tick" opacity="1" transform="translate(0,29.66376306620208)"><line stroke="#000" x2="-6"></line><text fill="#000" x="-9" dy="0.32em">260</text></g><g class="tick" opacity="1" transform="translate(0,8.060975609756099)"><line stroke="#000" x2="-6"></line><text fill="#000" x="-9" dy="0.32em">280</text></g></g></g></svg>