<svg xmlns="http://www.w3.org/2000/svg" width="280" height="160"><defs><style type="text/css"><![CDATA[ 
.bar rect {
  fill-opacity: 0;
  stroke:       black;
  stroke-width: 0.5;
}

.highlight rect {
  fill:       red;
  fill-opacity: 1;
}
.axis path,
.axis line {
  fill: none;
  stroke: #000;
  shape-rendering: crispEdges;
}
path {
    stroke: red;
    fill: none;
}

line {
    stroke: red;
}

path.marker {
    fill: red;
}
 ]]></style></defs><g transform="translate(50,10)"><g class="bar" transform="translate(0,112.79411764705883)"><rect x="1" width="11.5" height="7.205882352941174"></rect></g><g class="bar" transform="translate(12.5,90.22058823529412)"><rect x="1" width="11.5" height="29.779411764705884"></rect></g><g class="bar" transform="translate(25,75.95588235294119)"><rect x="1" width="11.5" height="44.04411764705881"></rect></g><g class="bar" transform="translate(37.5,65.58823529411765)"><rect x="1" width="11.5" height="54.41176470588235"></rect></g><g class="bar" transform="translate(50,42.05882352941177)"><rect x="1" width="11.5" height="77.94117647058823"></rect></g><g class="bar" transform="translate(62.5,17.57352941176471)"><rect x="1" width="11.5" height="102.42647058823529"></rect></g><g class="bar" transform="translate(75,0)"><rect x="1" width="11.5" height="120"></rect></g><g class="bar" transform="translate(87.5,9.191176470588232)"><rect x="1" width="11.5" height="110.80882352941177"></rect></g><g class="bar" transform="translate(100,30.808823529411768)"><rect x="1" width="11.5" height="89.19117647058823"></rect></g><g class="bar" transform="translate(112.5,77.13235294117646)"><rect x="1" width="11.5" height="42.867647058823536"></rect></g><g class="bar" transform="translate(125,107.86764705882354)"><rect x="1" width="11.5" height="12.132352941176464"></rect></g><g class="bar" transform="translate(137.5,118.75)"><rect x="1" width="11.5" height="1.25"></rect></g><g class="bar" transform="translate(150,120)"><rect x="1" width="11.5" height="0"></rect></g><g class="bar" transform="translate(162.5,120)"><rect x="1" width="11.5" height="0"></rect></g><g class="bar" transform="translate(175,120)"><rect x="1" width="11.5" height="0"></rect></g><g class="bar" transform="translate(187.5,120)"><rect x="1" width="11.5" height="0"></rect></g></g></svg>