<svg xmlns="http://www.w3.org/2000/svg" width="600" height="350"><defs><style type="text/css"><![CDATA[ 
.bar rect {
  fill-opacity: 0;
  stroke:       black;
  stroke-width: 0.5;
}

.highlight rect {
  fill:       red;
  fill-opacity: 1;
}
.axis path,
.axis line {
  fill: none;
  stroke: #000;
  shape-rendering: crispEdges;
}
path {
    stroke: red;
    fill: none;
}

line {
    stroke: red;
}

path.marker {
    fill: red;
}
 ]]></style></defs><g transform="translate(50,10)"><g class="bar" transform="translate(0,300.1159420289855)"><rect x="1" width="11.999999999999996" height="9.8840579710145"></rect></g><g class="bar" transform="translate(12.999999999999996,290.6811594202899)"><rect x="1" width="11.999999999999996" height="19.318840579710127"></rect></g><g class="bar" transform="translate(25.999999999999993,274.5072463768116)"><rect x="1" width="11.999999999999996" height="35.49275362318838"></rect></g><g class="bar" transform="translate(39.00000000000001,243.05797101449275)"><rect x="1" width="11.999999999999996" height="66.94202898550725"></rect></g><g class="bar" transform="translate(52,215.65217391304347)"><rect x="1" width="11.999999999999996" height="94.34782608695653"></rect></g><g class="bar" transform="translate(65,210.2608695652174)"><rect x="1" width="11.999999999999996" height="99.7391304347826"></rect></g><g class="bar" transform="translate(78.00000000000001,198.57971014492753)"><rect x="1" width="11.999999999999996" height="111.42028985507247"></rect></g><g class="bar" transform="translate(91.00000000000001,190.4927536231884)"><rect x="1" width="11.999999999999996" height="119.5072463768116"></rect></g><g class="bar" transform="translate(104,182.40579710144928)"><rect x="1" width="11.999999999999996" height="127.59420289855072"></rect></g><g class="bar" transform="translate(117,166.68115942028987)"><rect x="1" width="11.999999999999996" height="143.31884057971013"></rect></g><g class="bar" transform="translate(130,141.52173913043478)"><rect x="1" width="11.999999999999996" height="168.47826086956522"></rect></g><g class="bar" transform="translate(143,105.13043478260872)"><rect x="1" width="11.999999999999996" height="204.86956521739128"></rect></g><g class="bar" transform="translate(156.00000000000003,89.40579710144928)"><rect x="1" width="11.999999999999996" height="220.59420289855072"></rect></g><g class="bar" transform="translate(169,72.78260869565216)"><rect x="1" width="11.999999999999996" height="237.21739130434784"></rect></g><g class="bar" transform="translate(182.00000000000003,39.086956521739125)"><rect x="1" width="11.999999999999996" height="270.9130434782609"></rect></g><g class="bar" transform="translate(195,36.84057971014494)"><rect x="1" width="11.999999999999996" height="273.15942028985506"></rect></g><g class="bar" transform="translate(208,9.8840579710145)"><rect x="1" width="11.999999999999996" height="300.1159420289855"></rect></g><g class="bar" transform="translate(221.00000000000003,0)"><rect x="1" width="11.999999999999996" height="310"></rect></g><g class="bar" transform="translate(234,26.507246376811622)"><rect x="1" width="11.999999999999996" height="283.4927536231884"></rect></g><g class="bar" transform="translate(247.00000000000003,66.4927536231884)"><rect x="1" width="11.999999999999996" height="243.5072463768116"></rect></g><g class="bar" transform="translate(260,64.69565217391306)"><rect x="1" width="11.999999999999996" height="245.30434782608694"></rect></g><g class="bar" transform="translate(273,93.44927536231882)"><rect x="1" width="11.999999999999996" height="216.55072463768118"></rect></g><g class="bar" transform="translate(286,153.20289855072463)"><rect x="1" width="11.999999999999996" height="156.79710144927537"></rect></g><g class="bar" transform="translate(299.00000000000006,192.73913043478262)"><rect x="1" width="11.999999999999996" height="117.26086956521738"></rect></g><g class="bar" transform="translate(312.00000000000006,239.0144927536232)"><rect x="1" width="11.999999999999996" height="70.98550724637681"></rect></g><g class="bar" transform="translate(325,259.6811594202899)"><rect x="1" width="11.999999999999996" height="50.31884057971013"></rect></g><g class="bar" transform="translate(338,290.231884057971)"><rect x="1" width="11.999999999999996" height="19.768115942029"></rect></g><g class="bar" transform="translate(351,303.71014492753625)"><rect x="1" width="11.999999999999996" height="6.289855072463752"></rect></g><g class="bar" transform="translate(364.00000000000006,306.40579710144925)"><rect x="1" width="11.999999999999996" height="3.5942028985507477"></rect></g><g class="bar" transform="translate(377.00000000000006,308.2028985507246)"><rect x="1" width="11.999999999999996" height="1.7971014492753739"></rect></g><g class="bar" transform="translate(390,310)"><rect x="1" width="11.999999999999996" height="0"></rect></g><g class="bar" transform="translate(403,310)"><rect x="1" width="11.999999999999996" height="0"></rect></g><g class="bar" transform="translate(416,310)"><rect x="1" width="11.999999999999996" height="0"></rect></g><g class="bar" transform="translate(429.00000000000006,310)"><rect x="1" width="11.999999999999996" height="0"></rect></g><g class="bar" transform="translate(442.00000000000006,310)"><rect x="1" width="11.999999999999996" height="0"></rect></g><g class="bar" transform="translate(455,310)"><rect x="1" width="11.999999999999996" height="0"></rect></g><g class="bar" transform="translate(468,310)"><rect x="1" width="11.999999999999996" height="0"></rect></g><g class="bar" transform="translate(481,310)"><rect x="1" width="11.999999999999996" height="0"></rect></g><g class="bar" transform="translate(494.00000000000006,310)"><rect x="1" width="11.999999999999996" height="0"></rect></g><g class="bar" transform="translate(507.00000000000006,310)"><rect x="1" width="11.999999999999996" height="0"></rect></g><g class="axis axis--x" transform="translate(0,310)" fill="none" font-size="10" font-family="sans-serif" text-anchor="middle"><path class="domain" stroke="#000" d="M0.5,6V0.5H520.5V6"></path><g class="tick" opacity="1" transform="translate(0.5,0)"><line stroke="#000" y2="6"></line><text fill="#000" y="9" dy="0.71em">0.01</text></g><g class="tick" opacity="1" transform="translate(130.5,0)"><line stroke="#000" y2="6"></line><text fill="#000" y="9" dy="0.71em">1</text></g><g class="tick" opacity="1" transform="translate(260.5,0)"><line stroke="#000" y2="6"></line><text fill="#000" y="9" dy="0.71em">100</text></g><g class="tick" opacity="1" transform="translate(390.5,0)"><line stroke="#000" y2="6"></line><text fill="#000" y="9" dy="0.71em">10000</text></g><g class="tick" opacity="1" transform="translate(520.5,0)"><line stroke="#000" y2="6"></line><text fill="#000" y="9" dy="0.71em"></text></g></g><g class="axis axis--y" fill="none" font-size="10" font-family="sans-serif" text-anchor="end"><path class="domain" stroke="#000" d="M-6,310.5H0.5V0.5H-6"></path><g class="tick" opacity="1" transform="translate(0,310.5)"><line stroke="#000" x2="-6"></line><text fill="#000" x="-9" dy="0.32em">0</text></g><g class="tick" opacity="1" transform="translate(0,288.036231884058)"><line stroke="#000" x2="-6"></line><text fill="#000" x="-9" dy="0.32em">50</text></g><g class="tick" opacity="1" transform="translate(0,265.57246376811594)"><line stroke="#000" x2="-6"></line><text fill="#000" x="-9" dy="0.32em">100</text></g><g class="tick" opacity="1" transform="translate(0,243.10869565217394)"><line stroke="#000" x2="-6"></line><text fill="#000" x="-9" dy="0.32em">150</text></g><g class="tick" opacity="1" transform="translate(0,220.64492753623188)"><line stroke="#000" x2="-6"></line><text fill="#000" x="-9" dy="0.32em">200</text></g><g class="tick" opacity="1" transform="translate(0,198.18115942028987)"><line stroke="#000" x2="-6"></line><text fill="#000" x="-9" dy="0.32em">250</text></g><g class="tick" opacity="1" transform="translate(0,175.71739130434784)"><line stroke="#000" x2="-6"></line><text fill="#000" x="-9" dy="0.32em">300</text></g><g class="tick" opacity="1" transform="translate(0,153.25362318840578)"><line stroke="#000" x2="-6"></line><text fill="#000" x="-9" dy="0.32em">350</text></g><g class="tick" opacity="1" transform="translate(0,130.78985507246375)"><line stroke="#000" x2="-6"></line><text fill="#000" x="-9" dy="0.32em">400</text></g><g class="tick" opacity="1" transform="translate(0,108.32608695652175)"><line stroke="#000" x2="-6"></line><text fill="#000" x="-9" dy="0.32em">450</text></g><g class="tick" opacity="1" transform="translate(0,85.86231884057972)"><line stroke="#000" x2="-6"></line><text fill="#000" x="-9" dy="0.32em">500</text></g><g class="tick" opacity="1" transform="translate(0,63.39855072463769)"><line stroke="#000" x2="-6"></line><text fill="#000" x="-9" dy="0.32em">550</text></g><g class="tick" opacity="1" transform="translate(0,40.934782608695684)"><line stroke="#000" x2="-6"></line><text fill="#000" x="-9" dy="0.32em">600</text></g><g class="tick" opacity="1" transform="translate(0,18.471014492753625)"><line stroke="#000" x2="-6"></line><text fill="#000" x="-9" dy="0.32em">650</text></g></g></g></svg>