<svg xmlns="http://www.w3.org/2000/svg" width="280" height="160"><defs><style type="text/css"><![CDATA[ 
.bar rect {
  fill-opacity: 0;
  stroke:       black;
  stroke-width: 0.5;
}

.highlight rect {
  fill:       red;
  fill-opacity: 1;
}
.axis path,
.axis line {
  fill: none;
  stroke: #000;
  shape-rendering: crispEdges;
}
path {
    stroke: red;
    fill: none;
}

line {
    stroke: red;
}

path.marker {
    fill: red;
}
 ]]></style></defs><g transform="translate(50,10)"><g class="bar" transform="translate(0,120)"><rect x="1" width="11.5" height="0"></rect></g><g class="bar" transform="translate(12.5,120)"><rect x="1" width="11.5" height="0"></rect></g><g class="bar" transform="translate(25,120)"><rect x="1" width="11.5" height="0"></rect></g><g class="bar" transform="translate(37.5,119.7704081632653)"><rect x="1" width="11.5" height="0.22959183673469852"></rect></g><g class="bar" transform="translate(50,111.65816326530611)"><rect x="1" width="11.5" height="8.341836734693885"></rect></g><g class="bar" transform="translate(62.5,54.413265306122454)"><rect x="1" width="11.5" height="65.58673469387755"></rect></g><g class="bar" transform="translate(75,0)"><rect x="1" width="11.5" height="120"></rect></g><g class="bar" transform="translate(87.5,13.23979591836735)"><rect x="1" width="11.5" height="106.76020408163265"></rect></g><g class="bar" transform="translate(100,33.5204081632653)"><rect x="1" width="11.5" height="86.4795918367347"></rect></g><g class="bar" transform="translate(112.5,77.44897959183675)"><rect x="1" width="11.5" height="42.551020408163254"></rect></g><g class="bar" transform="translate(125,106.53061224489795)"><rect x="1" width="11.5" height="13.469387755102048"></rect></g><g class="bar" transform="translate(137.5,118.46938775510205)"><rect x="1" width="11.5" height="1.5306122448979522"></rect></g><g class="bar" transform="translate(150,119.9234693877551)"><rect x="1" width="11.5" height="0.07653061224489477"></rect></g><g class="bar" transform="translate(162.5,120)"><rect x="1" width="11.5" height="0"></rect></g><g class="bar" transform="translate(175,120)"><rect x="1" width="11.5" height="0"></rect></g><g class="bar" transform="translate(187.5,120)"><rect x="1" width="11.5" height="0"></rect></g></g></svg>