<svg xmlns="http://www.w3.org/2000/svg" width="600" height="350"><defs><style type="text/css"><![CDATA[ 
.bar rect {
  fill-opacity: 0;
  stroke:       black;
  stroke-width: 0.5;
}

.highlight rect {
  fill:       red;
  fill-opacity: 1;
}
.axis path,
.axis line {
  fill: none;
  stroke: #000;
  shape-rendering: crispEdges;
}
path {
    stroke: red;
    fill: none;
}

line {
    stroke: red;
}

path.marker {
    fill: red;
}
 ]]></style></defs><g transform="translate(50,10)"><g class="bar" transform="translate(0,310)"><rect x="1" width="11.999999999999996" height="0"></rect></g><g class="bar" transform="translate(12.999999999999996,310)"><rect x="1" width="11.999999999999996" height="0"></rect></g><g class="bar" transform="translate(25.999999999999993,310)"><rect x="1" width="11.999999999999996" height="0"></rect></g><g class="bar" transform="translate(39.00000000000001,310)"><rect x="1" width="11.999999999999996" height="0"></rect></g><g class="bar" transform="translate(52,310)"><rect x="1" width="11.999999999999996" height="0"></rect></g><g class="bar" transform="translate(65,308.6780383795309)"><rect x="1" width="11.999999999999996" height="1.3219616204690965"></rect></g><g class="bar" transform="translate(78.00000000000001,309.33901918976545)"><rect x="1" width="11.999999999999996" height="0.6609808102345482"></rect></g><g class="bar" transform="translate(91.00000000000001,305.3731343283582)"><rect x="1" width="11.999999999999996" height="4.626865671641781"></rect></g><g class="bar" transform="translate(104,301.407249466951)"><rect x="1" width="11.999999999999996" height="8.592750533049013"></rect></g><g class="bar" transform="translate(117,284.8827292110874)"><rect x="1" width="11.999999999999996" height="25.117270788912606"></rect></g><g class="bar" transform="translate(130,264.3923240938166)"><rect x="1" width="11.999999999999996" height="45.607675906183374"></rect></g><g class="bar" transform="translate(143,240.59701492537312)"><rect x="1" width="11.999999999999996" height="69.40298507462688"></rect></g><g class="bar" transform="translate(156.00000000000003,193.00639658848615)"><rect x="1" width="11.999999999999996" height="116.99360341151385"></rect></g><g class="bar" transform="translate(169,93.85927505330488)"><rect x="1" width="11.999999999999996" height="216.14072494669512"></rect></g><g class="bar" transform="translate(182.00000000000003,54.861407249466964)"><rect x="1" width="11.999999999999996" height="255.13859275053304"></rect></g><g class="bar" transform="translate(195,0)"><rect x="1" width="11.999999999999996" height="310"></rect></g><g class="bar" transform="translate(208,27.761194029850742)"><rect x="1" width="11.999999999999996" height="282.23880597014926"></rect></g><g class="bar" transform="translate(221.00000000000003,71.3859275053305)"><rect x="1" width="11.999999999999996" height="238.6140724946695"></rect></g><g class="bar" transform="translate(234,88.57142857142856)"><rect x="1" width="11.999999999999996" height="221.42857142857144"></rect></g><g class="bar" transform="translate(247.00000000000003,99.14712153518121)"><rect x="1" width="11.999999999999996" height="210.8528784648188"></rect></g><g class="bar" transform="translate(260,139.4669509594883)"><rect x="1" width="11.999999999999996" height="170.5330490405117"></rect></g><g class="bar" transform="translate(273,163.92324093816632)"><rect x="1" width="11.999999999999996" height="146.07675906183368"></rect></g><g class="bar" transform="translate(286,212.83582089552237)"><rect x="1" width="11.999999999999996" height="97.16417910447763"></rect></g><g class="bar" transform="translate(299.00000000000006,220.7675906183369)"><rect x="1" width="11.999999999999996" height="89.2324093816631"></rect></g><g class="bar" transform="translate(312.00000000000006,257.7825159914712)"><rect x="1" width="11.999999999999996" height="52.2174840085288"></rect></g><g class="bar" transform="translate(325,271.00213219616205)"><rect x="1" width="11.999999999999996" height="38.99786780383795"></rect></g><g class="bar" transform="translate(338,285.54371002132194)"><rect x="1" width="11.999999999999996" height="24.456289978678058"></rect></g><g class="bar" transform="translate(351,296.78038379530915)"><rect x="1" width="11.999999999999996" height="13.219616204690851"></rect></g><g class="bar" transform="translate(364.00000000000006,302.0682302771855)"><rect x="1" width="11.999999999999996" height="7.931769722814522"></rect></g><g class="bar" transform="translate(377.00000000000006,306.6950959488273)"><rect x="1" width="11.999999999999996" height="3.3049040511726844"></rect></g><g class="bar" transform="translate(390,308.6780383795309)"><rect x="1" width="11.999999999999996" height="1.3219616204690965"></rect></g><g class="bar" transform="translate(403,308.6780383795309)"><rect x="1" width="11.999999999999996" height="1.3219616204690965"></rect></g><g class="bar" transform="translate(416,308.6780383795309)"><rect x="1" width="11.999999999999996" height="1.3219616204690965"></rect></g><g class="bar" transform="translate(429.00000000000006,307.3560767590618)"><rect x="1" width="11.999999999999996" height="2.643923240938193"></rect></g><g class="bar" transform="translate(442.00000000000006,310)"><rect x="1" width="11.999999999999996" height="0"></rect></g><g class="bar" transform="translate(455,310)"><rect x="1" width="11.999999999999996" height="0"></rect></g><g class="bar" transform="translate(468,310)"><rect x="1" width="11.999999999999996" height="0"></rect></g><g class="bar" transform="translate(481,310)"><rect x="1" width="11.999999999999996" height="0"></rect></g><g class="bar" transform="translate(494.00000000000006,310)"><rect x="1" width="11.999999999999996" height="0"></rect></g><g class="bar" transform="translate(507.00000000000006,310)"><rect x="1" width="11.999999999999996" height="0"></rect></g><g class="axis axis--x" transform="translate(0,310)" fill="none" font-size="10" font-family="sans-serif" text-anchor="middle"><path class="domain" stroke="#000" d="M0.5,6V0.5H520.5V6"></path><g class="tick" opacity="1" transform="translate(0.5,0)"><line stroke="#000" y2="6"></line><text fill="#000" y="9" dy="0.71em">0.01</text></g><g class="tick" opacity="1" transform="translate(130.5,0)"><line stroke="#000" y2="6"></line><text fill="#000" y="9" dy="0.71em">1</text></g><g class="tick" opacity="1" transform="translate(260.5,0)"><line stroke="#000" y2="6"></line><text fill="#000" y="9" dy="0.71em">100</text></g><g class="tick" opacity="1" transform="translate(390.5,0)"><line stroke="#000" y2="6"></line><text fill="#000" y="9" dy="0.71em">10000</text></g><g class="tick" opacity="1" transform="translate(520.5,0)"><line stroke="#000" y2="6"></line><text fill="#000" y="9" dy="0.71em"></text></g></g><g class="axis axis--y" fill="none" font-size="10" font-family="sans-serif" text-anchor="end"><path class="domain" stroke="#000" d="M-6,310.5H0.5V0.5H-6"></path><g class="tick" opacity="1" transform="translate(0,310.5)"><line stroke="#000" x2="-6"></line><text fill="#000" x="-9" dy="0.32em">0</text></g><g class="tick" opacity="1" transform="translate(0,277.45095948827293)"><line stroke="#000" x2="-6"></line><text fill="#000" x="-9" dy="0.32em">50</text></g><g class="tick" opacity="1" transform="translate(0,244.40191897654586)"><line stroke="#000" x2="-6"></line><text fill="#000" x="-9" dy="0.32em">100</text></g><g class="tick" opacity="1" transform="translate(0,211.35287846481876)"><line stroke="#000" x2="-6"></line><text fill="#000" x="-9" dy="0.32em">150</text></g><g class="tick" opacity="1" transform="translate(0,178.3038379530917)"><line stroke="#000" x2="-6"></line><text fill="#000" x="-9" dy="0.32em">200</text></g><g class="tick" opacity="1" transform="translate(0,145.25479744136462)"><line stroke="#000" x2="-6"></line><text fill="#000" x="-9" dy="0.32em">250</text></g><g class="tick" opacity="1" transform="translate(0,112.20575692963752)"><line stroke="#000" x2="-6"></line><text fill="#000" x="-9" dy="0.32em">300</text></g><g class="tick" opacity="1" transform="translate(0,79.15671641791045)"><line stroke="#000" x2="-6"></line><text fill="#000" x="-9" dy="0.32em">350</text></g><g class="tick" opacity="1" transform="translate(0,46.107675906183374)"><line stroke="#000" x2="-6"></line><text fill="#000" x="-9" dy="0.32em">400</text></g><g class="tick" opacity="1" transform="translate(0,13.058635394456303)"><line stroke="#000" x2="-6"></line><text fill="#000" x="-9" dy="0.32em">450</text></g></g></g></svg>