<svg xmlns="http://www.w3.org/2000/svg" width="280" height="160"><defs><style type="text/css"><![CDATA[ 
.bar rect {
  fill-opacity: 0;
  stroke:       black;
  stroke-width: 0.5;
}

.highlight rect {
  fill:       red;
  fill-opacity: 1;
}
.axis path,
.axis line {
  fill: none;
  stroke: #000;
  shape-rendering: crispEdges;
}
path {
    stroke: red;
    fill: none;
}

line {
    stroke: red;
}

path.marker {
    fill: red;
}
 ]]></style></defs><g transform="translate(50,10)"><g class="bar" transform="translate(0,120)"><rect x="1" width="11.5" height="0"></rect></g><g class="bar" transform="translate(12.5,120)"><rect x="1" width="11.5" height="0"></rect></g><g class="bar" transform="translate(25,119.55555555555556)"><rect x="1" width="11.5" height="0.44444444444444287"></rect></g><g class="bar" transform="translate(37.5,113.66666666666667)"><rect x="1" width="11.5" height="6.333333333333329"></rect></g><g class="bar" transform="translate(50,92.55555555555556)"><rect x="1" width="11.5" height="27.444444444444443"></rect></g><g class="bar" transform="translate(62.5,29.222222222222214)"><rect x="1" width="11.5" height="90.77777777777779"></rect></g><g class="bar" transform="translate(75,0)"><rect x="1" width="11.5" height="120"></rect></g><g class="bar" transform="translate(87.5,27.666666666666657)"><rect x="1" width="11.5" height="92.33333333333334"></rect></g><g class="bar" transform="translate(100,57.44444444444445)"><rect x="1" width="11.5" height="62.55555555555555"></rect></g><g class="bar" transform="translate(112.5,89.22222222222223)"><rect x="1" width="11.5" height="30.77777777777777"></rect></g><g class="bar" transform="translate(125,107.77777777777777)"><rect x="1" width="11.5" height="12.222222222222229"></rect></g><g class="bar" transform="translate(137.5,117.44444444444444)"><rect x="1" width="11.5" height="2.555555555555557"></rect></g><g class="bar" transform="translate(150,119.55555555555556)"><rect x="1" width="11.5" height="0.44444444444444287"></rect></g><g class="bar" transform="translate(162.5,119.33333333333333)"><rect x="1" width="11.5" height="0.6666666666666714"></rect></g><g class="bar" transform="translate(175,120)"><rect x="1" width="11.5" height="0"></rect></g><g class="bar" transform="translate(187.5,120)"><rect x="1" width="11.5" height="0"></rect></g></g></svg>