<svg xmlns="http://www.w3.org/2000/svg" width="600" height="350"><defs><style type="text/css"><![CDATA[ 
.bar rect {
  fill-opacity: 0;
  stroke:       black;
  stroke-width: 0.5;
}

.highlight rect {
  fill:       red;
  fill-opacity: 1;
}
.axis path,
.axis line {
  fill: none;
  stroke: #000;
  shape-rendering: crispEdges;
}
path {
    stroke: red;
    fill: none;
}

line {
    stroke: red;
}

path.marker {
    fill: red;
}
 ]]></style></defs><g transform="translate(50,10)"><g class="bar" transform="translate(0,309.15531335149865)"><rect x="1" width="11.999999999999996" height="0.8446866485013516"></rect></g><g class="bar" transform="translate(12.999999999999996,310)"><rect x="1" width="11.999999999999996" height="0"></rect></g><g class="bar" transform="translate(25.999999999999993,308.732970027248)"><rect x="1" width="11.999999999999996" height="1.2670299727520273"></rect></g><g class="bar" transform="translate(39.00000000000001,305.3542234332425)"><rect x="1" width="11.999999999999996" height="4.64577656675749"></rect></g><g class="bar" transform="translate(52,301.97547683923705)"><rect x="1" width="11.999999999999996" height="8.024523160762953"></rect></g><g class="bar" transform="translate(65,277.90190735694824)"><rect x="1" width="11.999999999999996" height="32.09809264305176"></rect></g><g class="bar" transform="translate(78.00000000000001,237.77929155313353)"><rect x="1" width="11.999999999999996" height="72.22070844686647"></rect></g><g class="bar" transform="translate(91.00000000000001,186.67574931880108)"><rect x="1" width="11.999999999999996" height="123.32425068119892"></rect></g><g class="bar" transform="translate(104,107.27520435967301)"><rect x="1" width="11.999999999999996" height="202.724795640327"></rect></g><g class="bar" transform="translate(117,55.74931880108991)"><rect x="1" width="11.999999999999996" height="254.2506811989101"></rect></g><g class="bar" transform="translate(130,27.02997275204359)"><rect x="1" width="11.999999999999996" height="282.9700272479564"></rect></g><g class="bar" transform="translate(143,5.912806539509518)"><rect x="1" width="11.999999999999996" height="304.0871934604905"></rect></g><g class="bar" transform="translate(156.00000000000003,9.713896457765657)"><rect x="1" width="11.999999999999996" height="300.28610354223434"></rect></g><g class="bar" transform="translate(169,0)"><rect x="1" width="11.999999999999996" height="310"></rect></g><g class="bar" transform="translate(182.00000000000003,30.408719346049054)"><rect x="1" width="11.999999999999996" height="279.59128065395095"></rect></g><g class="bar" transform="translate(195,68.84196185286103)"><rect x="1" width="11.999999999999996" height="241.15803814713897"></rect></g><g class="bar" transform="translate(208,83.20163487738421)"><rect x="1" width="11.999999999999996" height="226.7983651226158"></rect></g><g class="bar" transform="translate(221.00000000000003,152.04359673024524)"><rect x="1" width="11.999999999999996" height="157.95640326975476"></rect></g><g class="bar" transform="translate(234,194.27792915531336)"><rect x="1" width="11.999999999999996" height="115.72207084468664"></rect></g><g class="bar" transform="translate(247.00000000000003,219.61852861035425)"><rect x="1" width="11.999999999999996" height="90.38147138964575"></rect></g><g class="bar" transform="translate(260,234.82288828337875)"><rect x="1" width="11.999999999999996" height="75.17711171662125"></rect></g><g class="bar" transform="translate(273,262.6975476839237)"><rect x="1" width="11.999999999999996" height="47.30245231607631"></rect></g><g class="bar" transform="translate(286,264.8092643051771)"><rect x="1" width="11.999999999999996" height="45.19073569482288"></rect></g><g class="bar" transform="translate(299.00000000000006,279.16893732970027)"><rect x="1" width="11.999999999999996" height="30.83106267029973"></rect></g><g class="bar" transform="translate(312.00000000000006,285.9264305177112)"><rect x="1" width="11.999999999999996" height="24.073569482288804"></rect></g><g class="bar" transform="translate(325,295.2179836512262)"><rect x="1" width="11.999999999999996" height="14.782016348773823"></rect></g><g class="bar" transform="translate(338,304.50953678474116)"><rect x="1" width="11.999999999999996" height="5.490463215258842"></rect></g><g class="bar" transform="translate(351,308.3106267029973)"><rect x="1" width="11.999999999999996" height="1.6893732970027031"></rect></g><g class="bar" transform="translate(364.00000000000006,308.732970027248)"><rect x="1" width="11.999999999999996" height="1.2670299727520273"></rect></g><g class="bar" transform="translate(377.00000000000006,310)"><rect x="1" width="11.999999999999996" height="0"></rect></g><g class="bar" transform="translate(390,309.5776566757493)"><rect x="1" width="11.999999999999996" height="0.4223433242506758"></rect></g><g class="bar" transform="translate(403,310)"><rect x="1" width="11.999999999999996" height="0"></rect></g><g class="bar" transform="translate(416,310)"><rect x="1" width="11.999999999999996" height="0"></rect></g><g class="bar" transform="translate(429.00000000000006,310)"><rect x="1" width="11.999999999999996" height="0"></rect></g><g class="bar" transform="translate(442.00000000000006,310)"><rect x="1" width="11.999999999999996" height="0"></rect></g><g class="bar" transform="translate(455,310)"><rect x="1" width="11.999999999999996" height="0"></rect></g><g class="bar" transform="translate(468,309.5776566757493)"><rect x="1" width="11.999999999999996" height="0.4223433242506758"></rect></g><g class="bar" transform="translate(481,310)"><rect x="1" width="11.999999999999996" height="0"></rect></g><g class="bar" transform="translate(494.00000000000006,309.5776566757493)"><rect x="1" width="11.999999999999996" height="0.4223433242506758"></rect></g><g class="bar" transform="translate(507.00000000000006,310)"><rect x="1" width="11.999999999999996" height="0"></rect></g><g class="axis axis--x" transform="translate(0,310)" fill="none" font-size="10" font-family="sans-serif" text-anchor="middle"><path class="domain" stroke="#000" d="M0.5,6V0.5H520.5V6"></path><g class="tick" opacity="1" transform="translate(0.5,0)"><line stroke="#000" y2="6"></line><text fill="#000" y="9" dy="0.71em">0.01</text></g><g class="tick" opacity="1" transform="translate(130.5,0)"><line stroke="#000" y2="6"></line><text fill="#000" y="9" dy="0.71em">1</text></g><g class="tick" opacity="1" transform="translate(260.5,0)"><line stroke="#000" y2="6"></line><text fill="#000" y="9" dy="0.71em">100</text></g><g class="tick" opacity="1" transform="translate(390.5,0)"><line stroke="#000" y2="6"></line><text fill="#000" y="9" dy="0.71em">10000</text></g><g class="tick" opacity="1" transform="translate(520.5,0)"><line stroke="#000" y2="6"></line><text fill="#000" y="9" dy="0.71em"></text></g></g><g class="axis axis--y" fill="none" font-size="10" font-family="sans-serif" text-anchor="end"><path class="domain" stroke="#000" d="M-6,310.5H0.5V0.5H-6"></path><g class="tick" opacity="1" transform="translate(0,310.5)"><line stroke="#000" x2="-6"></line><text fill="#000" x="-9" dy="0.32em">0</text></g><g class="tick" opacity="1" transform="translate(0,268.26566757493185)"><line stroke="#000" x2="-6"></line><text fill="#000" x="-9" dy="0.32em">100</text></g><g class="tick" opacity="1" transform="translate(0,226.03133514986376)"><line stroke="#000" x2="-6"></line><text fill="#000" x="-9" dy="0.32em">200</text></g><g class="tick" opacity="1" transform="translate(0,183.79700272479565)"><line stroke="#000" x2="-6"></line><text fill="#000" x="-9" dy="0.32em">300</text></g><g class="tick" opacity="1" transform="translate(0,141.5626702997275)"><line stroke="#000" x2="-6"></line><text fill="#000" x="-9" dy="0.32em">400</text></g><g class="tick" opacity="1" transform="translate(0,99.32833787465941)"><line stroke="#000" x2="-6"></line><text fill="#000" x="-9" dy="0.32em">500</text></g><g class="tick" opacity="1" transform="translate(0,57.09400544959129)"><line stroke="#000" x2="-6"></line><text fill="#000" x="-9" dy="0.32em">600</text></g><g class="tick" opacity="1" transform="translate(0,14.859673024523147)"><line stroke="#000" x2="-6"></line><text fill="#000" x="-9" dy="0.32em">700</text></g></g></g></svg>