<svg xmlns="http://www.w3.org/2000/svg" width="280" height="160"><defs><style type="text/css"><![CDATA[ 
.bar rect {
  fill-opacity: 0;
  stroke:       black;
  stroke-width: 0.5;
}

.highlight rect {
  fill:       red;
  fill-opacity: 1;
}
.axis path,
.axis line {
  fill: none;
  stroke: #000;
  shape-rendering: crispEdges;
}
 ]]></style></defs><g transform="translate(50,10)"><g class="bar" transform="translate(0,110.73359073359073)"><rect x="1" width="11.5" height="9.26640926640927"></rect></g><g class="bar" transform="translate(12.5,89.96138996138995)"><rect x="1" width="11.5" height="30.038610038610045"></rect></g><g class="bar" transform="translate(25,66.94980694980694)"><rect x="1" width="11.5" height="53.05019305019306"></rect></g><g class="bar" transform="translate(37.5,48.957528957528964)"><rect x="1" width="11.5" height="71.04247104247104"></rect></g><g class="bar" transform="translate(50,21.46718146718146)"><rect x="1" width="11.5" height="98.53281853281854"></rect></g><g class="bar" transform="translate(62.5,0)"><rect x="1" width="11.5" height="120"></rect></g><g class="bar" transform="translate(75,4.86486486486487)"><rect x="1" width="11.5" height="115.13513513513513"></rect></g><g class="bar" transform="translate(87.5,12.046332046332054)"><rect x="1" width="11.5" height="107.95366795366795"></rect></g><g class="bar" transform="translate(100,29.498069498069498)"><rect x="1" width="11.5" height="90.5019305019305"></rect></g><g class="bar" transform="translate(112.5,85.71428571428572)"><rect x="1" width="11.5" height="34.28571428571428"></rect></g><g class="bar" transform="translate(125,110.11583011583012)"><rect x="1" width="11.5" height="9.884169884169879"></rect></g><g class="bar" transform="translate(137.5,118.22393822393822)"><rect x="1" width="11.5" height="1.7760617760617805"></rect></g><g class="bar" transform="translate(150,119.45945945945945)"><rect x="1" width="11.5" height="0.5405405405405475"></rect></g><g class="bar" transform="translate(162.5,120)"><rect x="1" width="11.5" height="0"></rect></g><g class="bar" transform="translate(175,120)"><rect x="1" width="11.5" height="0"></rect></g><g class="bar" transform="translate(187.5,120)"><rect x="1" width="11.5" height="0"></rect></g></g></svg>