<svg xmlns="http://www.w3.org/2000/svg" width="600" height="350"><defs><style type="text/css"><![CDATA[ 
.bar rect {
  fill-opacity: 0;
  stroke:       black;
  stroke-width: 0.5;
}

.highlight rect {
  fill:       red;
  fill-opacity: 1;
}
.axis path,
.axis line {
  fill: none;
  stroke: #000;
  shape-rendering: crispEdges;
}
path {
    stroke: red;
    fill: none;
}

line {
    stroke: red;
}

path.marker {
    fill: red;
}
 ]]></style></defs><g transform="translate(50,10)"><g class="bar" transform="translate(0,256.46586345381525)"><rect x="1" width="11.999999999999996" height="53.534136546184754"></rect></g><g class="bar" transform="translate(12.999999999999996,260.82329317269074)"><rect x="1" width="11.999999999999996" height="49.17670682730926"></rect></g><g class="bar" transform="translate(25.999999999999993,267.6706827309237)"><rect x="1" width="11.999999999999996" height="42.329317269076284"></rect></g><g class="bar" transform="translate(39.00000000000001,268.9156626506024)"><rect x="1" width="11.999999999999996" height="41.08433734939757"></rect></g><g class="bar" transform="translate(52,283.855421686747)"><rect x="1" width="11.999999999999996" height="26.14457831325302"></rect></g><g class="bar" transform="translate(65,267.04819277108436)"><rect x="1" width="11.999999999999996" height="42.95180722891564"></rect></g><g class="bar" transform="translate(78.00000000000001,267.6706827309237)"><rect x="1" width="11.999999999999996" height="42.329317269076284"></rect></g><g class="bar" transform="translate(91.00000000000001,242.14859437751005)"><rect x="1" width="11.999999999999996" height="67.85140562248995"></rect></g><g class="bar" transform="translate(104,247.1285140562249)"><rect x="1" width="11.999999999999996" height="62.8714859437751"></rect></g><g class="bar" transform="translate(117,224.71887550200802)"><rect x="1" width="11.999999999999996" height="85.28112449799198"></rect></g><g class="bar" transform="translate(130,176.16465863453817)"><rect x="1" width="11.999999999999996" height="133.83534136546183"></rect></g><g class="bar" transform="translate(143,158.11244979919678)"><rect x="1" width="11.999999999999996" height="151.88755020080322"></rect></g><g class="bar" transform="translate(156.00000000000003,126.36546184738955)"><rect x="1" width="11.999999999999996" height="183.63453815261045"></rect></g><g class="bar" transform="translate(169,75.32128514056225)"><rect x="1" width="11.999999999999996" height="234.67871485943775"></rect></g><g class="bar" transform="translate(182.00000000000003,56.646586345381536)"><rect x="1" width="11.999999999999996" height="253.35341365461846"></rect></g><g class="bar" transform="translate(195,16.184738955823263)"><rect x="1" width="11.999999999999996" height="293.81526104417674"></rect></g><g class="bar" transform="translate(208,4.357429718875494)"><rect x="1" width="11.999999999999996" height="305.6425702811245"></rect></g><g class="bar" transform="translate(221.00000000000003,0)"><rect x="1" width="11.999999999999996" height="310"></rect></g><g class="bar" transform="translate(234,23.03212851405624)"><rect x="1" width="11.999999999999996" height="286.96787148594376"></rect></g><g class="bar" transform="translate(247.00000000000003,37.97188755020079)"><rect x="1" width="11.999999999999996" height="272.0281124497992"></rect></g><g class="bar" transform="translate(260,72.20883534136547)"><rect x="1" width="11.999999999999996" height="237.79116465863453"></rect></g><g class="bar" transform="translate(273,94.61847389558233)"><rect x="1" width="11.999999999999996" height="215.38152610441767"></rect></g><g class="bar" transform="translate(286,167.44979919678715)"><rect x="1" width="11.999999999999996" height="142.55020080321285"></rect></g><g class="bar" transform="translate(299.00000000000006,183.0120481927711)"><rect x="1" width="11.999999999999996" height="126.98795180722891"></rect></g><g class="bar" transform="translate(312.00000000000006,219.73895582329317)"><rect x="1" width="11.999999999999996" height="90.26104417670683"></rect></g><g class="bar" transform="translate(325,240.90361445783134)"><rect x="1" width="11.999999999999996" height="69.09638554216866"></rect></g><g class="bar" transform="translate(338,282.61044176706827)"><rect x="1" width="11.999999999999996" height="27.389558232931734"></rect></g><g class="bar" transform="translate(351,298.17269076305223)"><rect x="1" width="11.999999999999996" height="11.82730923694777"></rect></g><g class="bar" transform="translate(364.00000000000006,301.90763052208837)"><rect x="1" width="11.999999999999996" height="8.092369477911632"></rect></g><g class="bar" transform="translate(377.00000000000006,308.13253012048193)"><rect x="1" width="11.999999999999996" height="1.8674698795180689"></rect></g><g class="bar" transform="translate(390,307.5100401606426)"><rect x="1" width="11.999999999999996" height="2.489959839357425"></rect></g><g class="bar" transform="translate(403,310)"><rect x="1" width="11.999999999999996" height="0"></rect></g><g class="bar" transform="translate(416,308.7550200803213)"><rect x="1" width="11.999999999999996" height="1.2449799196787126"></rect></g><g class="bar" transform="translate(429.00000000000006,310)"><rect x="1" width="11.999999999999996" height="0"></rect></g><g class="bar" transform="translate(442.00000000000006,310)"><rect x="1" width="11.999999999999996" height="0"></rect></g><g class="bar" transform="translate(455,310)"><rect x="1" width="11.999999999999996" height="0"></rect></g><g class="bar" transform="translate(468,310)"><rect x="1" width="11.999999999999996" height="0"></rect></g><g class="bar" transform="translate(481,310)"><rect x="1" width="11.999999999999996" height="0"></rect></g><g class="bar" transform="translate(494.00000000000006,310)"><rect x="1" width="11.999999999999996" height="0"></rect></g><g class="bar" transform="translate(507.00000000000006,310)"><rect x="1" width="11.999999999999996" height="0"></rect></g><g class="axis axis--x" transform="translate(0,310)" fill="none" font-size="10" font-family="sans-serif" text-anchor="middle"><path class="domain" stroke="#000" d="M0.5,6V0.5H520.5V6"></path><g class="tick" opacity="1" transform="translate(0.5,0)"><line stroke="#000" y2="6"></line><text fill="#000" y="9" dy="0.71em">0.01</text></g><g class="tick" opacity="1" transform="translate(130.5,0)"><line stroke="#000" y2="6"></line><text fill="#000" y="9" dy="0.71em">1</text></g><g class="tick" opacity="1" transform="translate(260.5,0)"><line stroke="#000" y2="6"></line><text fill="#000" y="9" dy="0.71em">100</text></g><g class="tick" opacity="1" transform="translate(390.5,0)"><line stroke="#000" y2="6"></line><text fill="#000" y="9" dy="0.71em">10000</text></g><g class="tick" opacity="1" transform="translate(520.5,0)"><line stroke="#000" y2="6"></line><text fill="#000" y="9" dy="0.71em"></text></g></g><g class="axis axis--y" fill="none" font-size="10" font-family="sans-serif" text-anchor="end"><path class="domain" stroke="#000" d="M-6,310.5H0.5V0.5H-6"></path><g class="tick" opacity="1" transform="translate(0,310.5)"><line stroke="#000" x2="-6"></line><text fill="#000" x="-9" dy="0.32em">0</text></g><g class="tick" opacity="1" transform="translate(0,279.37550200803213)"><line stroke="#000" x2="-6"></line><text fill="#000" x="-9" dy="0.32em">50</text></g><g class="tick" opacity="1" transform="translate(0,248.25100401606426)"><line stroke="#000" x2="-6"></line><text fill="#000" x="-9" dy="0.32em">100</text></g><g class="tick" opacity="1" transform="translate(0,217.1265060240964)"><line stroke="#000" x2="-6"></line><text fill="#000" x="-9" dy="0.32em">150</text></g><g class="tick" opacity="1" transform="translate(0,186.00200803212851)"><line stroke="#000" x2="-6"></line><text fill="#000" x="-9" dy="0.32em">200</text></g><g class="tick" opacity="1" transform="translate(0,154.87751004016064)"><line stroke="#000" x2="-6"></line><text fill="#000" x="-9" dy="0.32em">250</text></g><g class="tick" opacity="1" transform="translate(0,123.75301204819274)"><line stroke="#000" x2="-6"></line><text fill="#000" x="-9" dy="0.32em">300</text></g><g class="tick" opacity="1" transform="translate(0,92.6285140562249)"><line stroke="#000" x2="-6"></line><text fill="#000" x="-9" dy="0.32em">350</text></g><g class="tick" opacity="1" transform="translate(0,61.50401606425703)"><line stroke="#000" x2="-6"></line><text fill="#000" x="-9" dy="0.32em">400</text></g><g class="tick" opacity="1" transform="translate(0,30.37951807228916)"><line stroke="#000" x2="-6"></line><text fill="#000" x="-9" dy="0.32em">450</text></g></g></g></svg>