<svg xmlns="http://www.w3.org/2000/svg" width="600" height="350"><defs><style type="text/css"><![CDATA[ 
.bar rect {
  fill-opacity: 0;
  stroke:       black;
  stroke-width: 0.5;
}

.highlight rect {
  fill:       red;
  fill-opacity: 1;
}
.axis path,
.axis line {
  fill: none;
  stroke: #000;
  shape-rendering: crispEdges;
}
path {
    stroke: red;
    fill: none;
}

line {
    stroke: red;
}

path.marker {
    fill: red;
}
 ]]></style></defs><g transform="translate(50,10)"><g class="bar" transform="translate(0,286.3132760267431)"><rect x="1" width="11.999999999999996" height="23.686723973256903"></rect></g><g class="bar" transform="translate(12.999999999999996,253.15186246418338)"><rect x="1" width="11.999999999999996" height="56.84813753581662"></rect></g><g class="bar" transform="translate(25.999999999999993,225.91212989493792)"><rect x="1" width="11.999999999999996" height="84.08787010506208"></rect></g><g class="bar" transform="translate(39.00000000000001,127.31614135625597)"><rect x="1" width="11.999999999999996" height="182.68385864374403"></rect></g><g class="bar" transform="translate(52,60.40114613180518)"><rect x="1" width="11.999999999999996" height="249.59885386819482"></rect></g><g class="bar" transform="translate(65,0)"><rect x="1" width="11.999999999999996" height="310"></rect></g><g class="bar" transform="translate(78.00000000000001,39.97134670487105)"><rect x="1" width="11.999999999999996" height="270.02865329512895"></rect></g><g class="bar" transform="translate(91.00000000000001,83.49570200573066)"><rect x="1" width="11.999999999999996" height="226.50429799426934"></rect></g><g class="bar" transform="translate(104,146.85768863419293)"><rect x="1" width="11.999999999999996" height="163.14231136580707"></rect></g><g class="bar" transform="translate(117,194.52722063037248)"><rect x="1" width="11.999999999999996" height="115.47277936962752"></rect></g><g class="bar" transform="translate(130,213.47659980897805)"><rect x="1" width="11.999999999999996" height="96.52340019102195"></rect></g><g class="bar" transform="translate(143,208.1470869149952)"><rect x="1" width="11.999999999999996" height="101.85291308500479"></rect></g><g class="bar" transform="translate(156.00000000000003,208.73925501432666)"><rect x="1" width="11.999999999999996" height="101.26074498567334"></rect></g><g class="bar" transform="translate(169,203.11365807067813)"><rect x="1" width="11.999999999999996" height="106.88634192932187"></rect></g><g class="bar" transform="translate(182.00000000000003,206.96275071633238)"><rect x="1" width="11.999999999999996" height="103.03724928366762"></rect></g><g class="bar" transform="translate(195,214.06876790830944)"><rect x="1" width="11.999999999999996" height="95.93123209169056"></rect></g><g class="bar" transform="translate(208,219.10219675262655)"><rect x="1" width="11.999999999999996" height="90.89780324737345"></rect></g><g class="bar" transform="translate(221.00000000000003,217.02960840496658)"><rect x="1" width="11.999999999999996" height="92.97039159503342"></rect></g><g class="bar" transform="translate(234,244.86150907354346)"><rect x="1" width="11.999999999999996" height="65.13849092645654"></rect></g><g class="bar" transform="translate(247.00000000000003,243.97325692454632)"><rect x="1" width="11.999999999999996" height="66.02674307545368"></rect></g><g class="bar" transform="translate(260,249.89493791786055)"><rect x="1" width="11.999999999999996" height="60.105062082139455"></rect></g><g class="bar" transform="translate(273,267.956064947469)"><rect x="1" width="11.999999999999996" height="42.043935052531026"></rect></g><g class="bar" transform="translate(286,279.7994269340974)"><rect x="1" width="11.999999999999996" height="30.200573065902574"></rect></g><g class="bar" transform="translate(299.00000000000006,277.4307545367717)"><rect x="1" width="11.999999999999996" height="32.5692454632283"></rect></g><g class="bar" transform="translate(312.00000000000006,288.68194842406876)"><rect x="1" width="11.999999999999996" height="21.318051575931236"></rect></g><g class="bar" transform="translate(325,285.72110792741165)"><rect x="1" width="11.999999999999996" height="24.27889207258835"></rect></g><g class="bar" transform="translate(338,297.8605539637058)"><rect x="1" width="11.999999999999996" height="12.139446036294203"></rect></g><g class="bar" transform="translate(351,304.6704871060172)"><rect x="1" width="11.999999999999996" height="5.3295128939827805"></rect></g><g class="bar" transform="translate(364.00000000000006,307.0391595033429)"><rect x="1" width="11.999999999999996" height="2.960840496657113"></rect></g><g class="bar" transform="translate(377.00000000000006,308.5195797516714)"><rect x="1" width="11.999999999999996" height="1.4804202483285849"></rect></g><g class="bar" transform="translate(390,309.7039159503343)"><rect x="1" width="11.999999999999996" height="0.29608404966569424"></rect></g><g class="bar" transform="translate(403,307.92741165234)"><rect x="1" width="11.999999999999996" height="2.0725883476599734"></rect></g><g class="bar" transform="translate(416,310)"><rect x="1" width="11.999999999999996" height="0"></rect></g><g class="bar" transform="translate(429.00000000000006,309.11174785100286)"><rect x="1" width="11.999999999999996" height="0.8882521489971396"></rect></g><g class="bar" transform="translate(442.00000000000006,310)"><rect x="1" width="11.999999999999996" height="0"></rect></g><g class="bar" transform="translate(455,309.7039159503343)"><rect x="1" width="11.999999999999996" height="0.29608404966569424"></rect></g><g class="bar" transform="translate(468,310)"><rect x="1" width="11.999999999999996" height="0"></rect></g><g class="bar" transform="translate(481,310)"><rect x="1" width="11.999999999999996" height="0"></rect></g><g class="bar" transform="translate(494.00000000000006,310)"><rect x="1" width="11.999999999999996" height="0"></rect></g><g class="bar" transform="translate(507.00000000000006,310)"><rect x="1" width="11.999999999999996" height="0"></rect></g><g class="axis axis--x" transform="translate(0,310)" fill="none" font-size="10" font-family="sans-serif" text-anchor="middle"><path class="domain" stroke="#000" d="M0.5,6V0.5H520.5V6"></path><g class="tick" opacity="1" transform="translate(0.5,0)"><line stroke="#000" y2="6"></line><text fill="#000" y="9" dy="0.71em">0.01</text></g><g class="tick" opacity="1" transform="translate(130.5,0)"><line stroke="#000" y2="6"></line><text fill="#000" y="9" dy="0.71em">1</text></g><g class="tick" opacity="1" transform="translate(260.5,0)"><line stroke="#000" y2="6"></line><text fill="#000" y="9" dy="0.71em">100</text></g><g class="tick" opacity="1" transform="translate(390.5,0)"><line stroke="#000" y2="6"></line><text fill="#000" y="9" dy="0.71em">10000</text></g><g class="tick" opacity="1" transform="translate(520.5,0)"><line stroke="#000" y2="6"></line><text fill="#000" y="9" dy="0.71em"></text></g></g><g class="axis axis--y" fill="none" font-size="10" font-family="sans-serif" text-anchor="end"><path class="domain" stroke="#000" d="M-6,310.5H0.5V0.5H-6"></path><g class="tick" opacity="1" transform="translate(0,310.5)"><line stroke="#000" x2="-6"></line><text fill="#000" x="-9" dy="0.32em">0</text></g><g class="tick" opacity="1" transform="translate(0,280.89159503342887)"><line stroke="#000" x2="-6"></line><text fill="#000" x="-9" dy="0.32em">100</text></g><g class="tick" opacity="1" transform="translate(0,251.28319006685768)"><line stroke="#000" x2="-6"></line><text fill="#000" x="-9" dy="0.32em">200</text></g><g class="tick" opacity="1" transform="translate(0,221.67478510028656)"><line stroke="#000" x2="-6"></line><text fill="#000" x="-9" dy="0.32em">300</text></g><g class="tick" opacity="1" transform="translate(0,192.06638013371537)"><line stroke="#000" x2="-6"></line><text fill="#000" x="-9" dy="0.32em">400</text></g><g class="tick" opacity="1" transform="translate(0,162.4579751671442)"><line stroke="#000" x2="-6"></line><text fill="#000" x="-9" dy="0.32em">500</text></g><g class="tick" opacity="1" transform="translate(0,132.84957020057308)"><line stroke="#000" x2="-6"></line><text fill="#000" x="-9" dy="0.32em">600</text></g><g class="tick" opacity="1" transform="translate(0,103.2411652340019)"><line stroke="#000" x2="-6"></line><text fill="#000" x="-9" dy="0.32em">700</text></g><g class="tick" opacity="1" transform="translate(0,73.63276026743077)"><line stroke="#000" x2="-6"></line><text fill="#000" x="-9" dy="0.32em">800</text></g><g class="tick" opacity="1" transform="translate(0,44.02435530085961)"><line stroke="#000" x2="-6"></line><text fill="#000" x="-9" dy="0.32em">900</text></g><g class="tick" opacity="1" transform="translate(0,14.415950334288425)"><line stroke="#000" x2="-6"></line><text fill="#000" x="-9" dy="0.32em">1,000</text></g></g></g></svg>