<svg xmlns="http://www.w3.org/2000/svg" width="280" height="160"><defs><style type="text/css"><![CDATA[ 
.bar rect {
  fill-opacity: 0;
  stroke:       black;
  stroke-width: 0.5;
}

.highlight rect {
  fill:       red;
  fill-opacity: 1;
}
.axis path,
.axis line {
  fill: none;
  stroke: #000;
  shape-rendering: crispEdges;
}
 ]]></style></defs><g transform="translate(50,10)"><g class="bar" transform="translate(0,120)"><rect x="1" width="11.5" height="0"></rect></g><g class="bar" transform="translate(12.5,120)"><rect x="1" width="11.5" height="0"></rect></g><g class="bar" transform="translate(25,120)"><rect x="1" width="11.5" height="0"></rect></g><g class="bar" transform="translate(37.5,120)"><rect x="1" width="11.5" height="0"></rect></g><g class="bar" transform="translate(50,117.17277486910994)"><rect x="1" width="11.5" height="2.8272251308900564"></rect></g><g class="bar" transform="translate(62.5,91.93717277486911)"><rect x="1" width="11.5" height="28.06282722513089"></rect></g><g class="bar" transform="translate(75,8.167539267015712)"><rect x="1" width="11.5" height="111.83246073298429"></rect></g><g class="bar" transform="translate(87.5,0)"><rect x="1" width="11.5" height="120"></rect></g><g class="bar" transform="translate(100,24.083769633507856)"><rect x="1" width="11.5" height="95.91623036649214"></rect></g><g class="bar" transform="translate(112.5,66.59685863874346)"><rect x="1" width="11.5" height="53.403141361256544"></rect></g><g class="bar" transform="translate(125,102.40837696335079)"><rect x="1" width="11.5" height="17.59162303664921"></rect></g><g class="bar" transform="translate(137.5,116.8586387434555)"><rect x="1" width="11.5" height="3.1413612565444993"></rect></g><g class="bar" transform="translate(150,119.68586387434554)"><rect x="1" width="11.5" height="0.31413612565445703"></rect></g><g class="bar" transform="translate(162.5,120)"><rect x="1" width="11.5" height="0"></rect></g><g class="bar" transform="translate(175,120)"><rect x="1" width="11.5" height="0"></rect></g><g class="bar" transform="translate(187.5,120)"><rect x="1" width="11.5" height="0"></rect></g></g></svg>