<svg xmlns="http://www.w3.org/2000/svg" width="600" height="350"><defs><style type="text/css"><![CDATA[ 
.bar rect {
  fill-opacity: 0;
  stroke:       black;
  stroke-width: 0.5;
}

.highlight rect {
  fill:       red;
  fill-opacity: 1;
}
.axis path,
.axis line {
  fill: none;
  stroke: #000;
  shape-rendering: crispEdges;
}
 ]]></style></defs><g transform="translate(50,10)"><g class="bar" transform="translate(0,310)"><rect x="1" width="5.500000000000005" height="0"></rect></g><g class="bar" transform="translate(6.500000000000005,310)"><rect x="1" width="5.500000000000005" height="0"></rect></g><g class="bar" transform="translate(12.999999999999996,310)"><rect x="1" width="5.500000000000005" height="0"></rect></g><g class="bar" transform="translate(19.500000000000004,310)"><rect x="1" width="5.500000000000005" height="0"></rect></g><g class="bar" transform="translate(25.999999999999993,310)"><rect x="1" width="5.500000000000005" height="0"></rect></g><g class="bar" transform="translate(32.5,310)"><rect x="1" width="5.500000000000005" height="0"></rect></g><g class="bar" transform="translate(39.00000000000001,310)"><rect x="1" width="5.500000000000005" height="0"></rect></g><g class="bar" transform="translate(45.500000000000014,310)"><rect x="1" width="5.500000000000005" height="0"></rect></g><g class="bar" transform="translate(52,310)"><rect x="1" width="5.500000000000005" height="0"></rect></g><g class="bar" transform="translate(58.49999999999999,310)"><rect x="1" width="5.500000000000005" height="0"></rect></g><g class="bar" transform="translate(65,310)"><rect x="1" width="5.500000000000005" height="0"></rect></g><g class="bar" transform="translate(71.5,310)"><rect x="1" width="5.500000000000005" height="0"></rect></g><g class="bar" transform="translate(78.00000000000001,310)"><rect x="1" width="5.500000000000005" height="0"></rect></g><g class="bar" transform="translate(84.5,310)"><rect x="1" width="5.500000000000005" height="0"></rect></g><g class="bar" transform="translate(91.00000000000001,310)"><rect x="1" width="5.500000000000005" height="0"></rect></g><g class="bar" transform="translate(97.5,310)"><rect x="1" width="5.500000000000005" height="0"></rect></g><g class="bar" transform="translate(104,310)"><rect x="1" width="5.500000000000005" height="0"></rect></g><g class="bar" transform="translate(110.50000000000001,310)"><rect x="1" width="5.500000000000005" height="0"></rect></g><g class="bar" transform="translate(117,310)"><rect x="1" width="5.500000000000005" height="0"></rect></g><g class="bar" transform="translate(123.50000000000001,310)"><rect x="1" width="5.500000000000005" height="0"></rect></g><g class="bar" transform="translate(130,308.8967971530249)"><rect x="1" width="5.500000000000005" height="1.1032028469750799"></rect></g><g class="bar" transform="translate(136.5,307.79359430604984)"><rect x="1" width="5.500000000000005" height="2.2064056939501597"></rect></g><g class="bar" transform="translate(143,304.48398576512454)"><rect x="1" width="5.500000000000005" height="5.516014234875456"></rect></g><g class="bar" transform="translate(149.50000000000003,303.38078291814946)"><rect x="1" width="5.500000000000005" height="6.619217081850536"></rect></g><g class="bar" transform="translate(156.00000000000003,295.65836298932385)"><rect x="1" width="5.500000000000005" height="14.341637010676152"></rect></g><g class="bar" transform="translate(162.5,293.4519572953737)"><rect x="1" width="5.500000000000005" height="16.54804270462631"></rect></g><g class="bar" transform="translate(169,280.2135231316726)"><rect x="1" width="5.500000000000005" height="29.786476868327384"></rect></g><g class="bar" transform="translate(175.5,246.01423487544486)"><rect x="1" width="5.500000000000005" height="63.985765124555144"></rect></g><g class="bar" transform="translate(182.00000000000003,234.98220640569394)"><rect x="1" width="5.500000000000005" height="75.01779359430606"></rect></g><g class="bar" transform="translate(188.50000000000003,199.6797153024911)"><rect x="1" width="5.500000000000005" height="110.3202846975089"></rect></g><g class="bar" transform="translate(195,155.55160142348754)"><rect x="1" width="5.500000000000005" height="154.44839857651246"></rect></g><g class="bar" transform="translate(201.5,101.49466192170817)"><rect x="1" width="5.500000000000005" height="208.50533807829183"></rect></g><g class="bar" transform="translate(208,94.87544483985766)"><rect x="1" width="5.500000000000005" height="215.12455516014234"></rect></g><g class="bar" transform="translate(214.50000000000003,0)"><rect x="1" width="5.500000000000005" height="310"></rect></g><g class="bar" transform="translate(221.00000000000003,19.857651245551608)"><rect x="1" width="5.500000000000005" height="290.1423487544484"></rect></g><g class="bar" transform="translate(227.5,55.16014234875445)"><rect x="1" width="5.500000000000005" height="254.83985765124555"></rect></g><g class="bar" transform="translate(234,50.74733096085413)"><rect x="1" width="5.500000000000005" height="259.25266903914587"></rect></g><g class="bar" transform="translate(240.5,30.88967971530252)"><rect x="1" width="5.500000000000005" height="279.1103202846975"></rect></g><g class="bar" transform="translate(247.00000000000003,62.882562277580064)"><rect x="1" width="5.500000000000005" height="247.11743772241994"></rect></g><g class="bar" transform="translate(253.50000000000003,86.04982206405694)"><rect x="1" width="5.500000000000005" height="223.95017793594306"></rect></g><g class="bar" transform="translate(260,91.5658362989324)"><rect x="1" width="5.500000000000005" height="218.4341637010676"></rect></g><g class="bar" transform="translate(266.50000000000006,76.12099644128114)"><rect x="1" width="5.500000000000005" height="233.87900355871886"></rect></g><g class="bar" transform="translate(273,103.70106761565836)"><rect x="1" width="5.500000000000005" height="206.29893238434164"></rect></g><g class="bar" transform="translate(279.5,121.35231316725978)"><rect x="1" width="5.500000000000005" height="188.64768683274022"></rect></g><g class="bar" transform="translate(286,146.72597864768684)"><rect x="1" width="5.500000000000005" height="163.27402135231316"></rect></g><g class="bar" transform="translate(292.5,176.51245551601423)"><rect x="1" width="5.500000000000005" height="133.48754448398577"></rect></g><g class="bar" transform="translate(299.00000000000006,164.37722419928826)"><rect x="1" width="5.500000000000005" height="145.62277580071174"></rect></g><g class="bar" transform="translate(305.5,193.06049822064057)"><rect x="1" width="5.500000000000005" height="116.93950177935943"></rect></g><g class="bar" transform="translate(312.00000000000006,202.98932384341637)"><rect x="1" width="5.500000000000005" height="107.01067615658363"></rect></g><g class="bar" transform="translate(318.5,250.4270462633452)"><rect x="1" width="5.500000000000005" height="59.572953736654796"></rect></g><g class="bar" transform="translate(325,255.94306049822063)"><rect x="1" width="5.500000000000005" height="54.05693950177937"></rect></g><g class="bar" transform="translate(331.50000000000006,264.7686832740213)"><rect x="1" width="5.500000000000005" height="45.23131672597867"></rect></g><g class="bar" transform="translate(338,272.49110320284694)"><rect x="1" width="5.500000000000005" height="37.50889679715306"></rect></g><g class="bar" transform="translate(344.50000000000006,281.3167259786477)"><rect x="1" width="5.500000000000005" height="28.683274021352304"></rect></g><g class="bar" transform="translate(351,290.1423487544484)"><rect x="1" width="5.500000000000005" height="19.857651245551608"></rect></g><g class="bar" transform="translate(357.5,295.65836298932385)"><rect x="1" width="5.500000000000005" height="14.341637010676152"></rect></g><g class="bar" transform="translate(364.00000000000006,298.9679715302491)"><rect x="1" width="5.500000000000005" height="11.032028469750912"></rect></g><g class="bar" transform="translate(370.5,305.5871886120996)"><rect x="1" width="5.500000000000005" height="4.412811387900376"></rect></g><g class="bar" transform="translate(377.00000000000006,307.79359430604984)"><rect x="1" width="5.500000000000005" height="2.2064056939501597"></rect></g><g class="bar" transform="translate(383.5,308.8967971530249)"><rect x="1" width="5.500000000000005" height="1.1032028469750799"></rect></g><g class="bar" transform="translate(390,310)"><rect x="1" width="5.500000000000005" height="0"></rect></g><g class="bar" transform="translate(396.50000000000006,307.79359430604984)"><rect x="1" width="5.500000000000005" height="2.2064056939501597"></rect></g><g class="bar" transform="translate(403,310)"><rect x="1" width="5.500000000000005" height="0"></rect></g><g class="bar" transform="translate(409.50000000000006,308.8967971530249)"><rect x="1" width="5.500000000000005" height="1.1032028469750799"></rect></g><g class="bar" transform="translate(416,310)"><rect x="1" width="5.500000000000005" height="0"></rect></g><g class="bar" transform="translate(422.5,310)"><rect x="1" width="5.500000000000005" height="0"></rect></g><g class="bar" transform="translate(429.00000000000006,310)"><rect x="1" width="5.500000000000005" height="0"></rect></g><g class="bar" transform="translate(435.5,310)"><rect x="1" width="5.500000000000005" height="0"></rect></g><g class="bar" transform="translate(442.00000000000006,310)"><rect x="1" width="5.500000000000005" height="0"></rect></g><g class="bar" transform="translate(448.5,310)"><rect x="1" width="5.500000000000005" height="0"></rect></g><g class="bar" transform="translate(455,310)"><rect x="1" width="5.500000000000005" height="0"></rect></g><g class="bar" transform="translate(461.50000000000006,310)"><rect x="1" width="5.500000000000005" height="0"></rect></g><g class="bar" transform="translate(468,310)"><rect x="1" width="5.500000000000005" height="0"></rect></g><g class="bar" transform="translate(474.50000000000006,310)"><rect x="1" width="5.500000000000005" height="0"></rect></g><g class="bar" transform="translate(481,310)"><rect x="1" width="5.500000000000005" height="0"></rect></g><g class="bar" transform="translate(487.5,310)"><rect x="1" width="5.500000000000005" height="0"></rect></g><g class="bar" transform="translate(494.00000000000006,310)"><rect x="1" width="5.500000000000005" height="0"></rect></g><g class="bar" transform="translate(500.5,310)"><rect x="1" width="5.500000000000005" height="0"></rect></g><g class="bar" transform="translate(507.00000000000006,310)"><rect x="1" width="5.500000000000005" height="0"></rect></g><g class="bar" transform="translate(513.5,310)"><rect x="1" width="5.500000000000005" height="0"></rect></g><g class="axis axis--x" transform="translate(0,310)" fill="none" font-size="10" font-family="sans-serif" text-anchor="middle"><path class="domain" stroke="#000" d="M0.5,6V0.5H520.5V6"></path><g class="tick" opacity="1" transform="translate(0,0)"><line stroke="#000" y2="6" x1="0.5" x2="0.5"></line><text fill="#000" y="9" x="0.5" dy="0.71em">0.01</text></g><g class="tick" opacity="1" transform="translate(130,0)"><line stroke="#000" y2="6" x1="0.5" x2="0.5"></line><text fill="#000" y="9" x="0.5" dy="0.71em">1</text></g><g class="tick" opacity="1" transform="translate(260,0)"><line stroke="#000" y2="6" x1="0.5" x2="0.5"></line><text fill="#000" y="9" x="0.5" dy="0.71em">100</text></g><g class="tick" opacity="1" transform="translate(390,0)"><line stroke="#000" y2="6" x1="0.5" x2="0.5"></line><text fill="#000" y="9" x="0.5" dy="0.71em">10000</text></g><g class="tick" opacity="1" transform="translate(520,0)"><line stroke="#000" y2="6" x1="0.5" x2="0.5"></line><text fill="#000" y="9" x="0.5" dy="0.71em"></text></g></g><g class="axis axis--y" fill="none" font-size="10" font-family="sans-serif" text-anchor="end"><path class="domain" stroke="#000" d="M-6,310.5H0.5V0.5H-6"></path><g class="tick" opacity="1" transform="translate(0,310)"><line stroke="#000" x2="-6" y1="0.5" y2="0.5"></line><text fill="#000" x="-9" y="0.5" dy="0.32em">0</text></g><g class="tick" opacity="1" transform="translate(0,287.93594306049823)"><line stroke="#000" x2="-6" y1="0.5" y2="0.5"></line><text fill="#000" x="-9" y="0.5" dy="0.32em">20</text></g><g class="tick" opacity="1" transform="translate(0,265.87188612099646)"><line stroke="#000" x2="-6" y1="0.5" y2="0.5"></line><text fill="#000" x="-9" y="0.5" dy="0.32em">40</text></g><g class="tick" opacity="1" transform="translate(0,243.80782918149464)"><line stroke="#000" x2="-6" y1="0.5" y2="0.5"></line><text fill="#000" x="-9" y="0.5" dy="0.32em">60</text></g><g class="tick" opacity="1" transform="translate(0,221.74377224199287)"><line stroke="#000" x2="-6" y1="0.5" y2="0.5"></line><text fill="#000" x="-9" y="0.5" dy="0.32em">80</text></g><g class="tick" opacity="1" transform="translate(0,199.6797153024911)"><line stroke="#000" x2="-6" y1="0.5" y2="0.5"></line><text fill="#000" x="-9" y="0.5" dy="0.32em">100</text></g><g class="tick" opacity="1" transform="translate(0,177.6156583629893)"><line stroke="#000" x2="-6" y1="0.5" y2="0.5"></line><text fill="#000" x="-9" y="0.5" dy="0.32em">120</text></g><g class="tick" opacity="1" transform="translate(0,155.55160142348754)"><line stroke="#000" x2="-6" y1="0.5" y2="0.5"></line><text fill="#000" x="-9" y="0.5" dy="0.32em">140</text></g><g class="tick" opacity="1" transform="translate(0,133.48754448398574)"><line stroke="#000" x2="-6" y1="0.5" y2="0.5"></line><text fill="#000" x="-9" y="0.5" dy="0.32em">160</text></g><g class="tick" opacity="1" transform="translate(0,111.42348754448398)"><line stroke="#000" x2="-6" y1="0.5" y2="0.5"></line><text fill="#000" x="-9" y="0.5" dy="0.32em">180</text></g><g class="tick" opacity="1" transform="translate(0,89.35943060498221)"><line stroke="#000" x2="-6" y1="0.5" y2="0.5"></line><text fill="#000" x="-9" y="0.5" dy="0.32em">200</text></g><g class="tick" opacity="1" transform="translate(0,67.29537366548041)"><line stroke="#000" x2="-6" y1="0.5" y2="0.5"></line><text fill="#000" x="-9" y="0.5" dy="0.32em">220</text></g><g class="tick" opacity="1" transform="translate(0,45.231316725978616)"><line stroke="#000" x2="-6" y1="0.5" y2="0.5"></line><text fill="#000" x="-9" y="0.5" dy="0.32em">240</text></g><g class="tick" opacity="1" transform="translate(0,23.167259786476848)"><line stroke="#000" x2="-6" y1="0.5" y2="0.5"></line><text fill="#000" x="-9" y="0.5" dy="0.32em">260</text></g><g class="tick" opacity="1" transform="translate(0,1.1032028469750799)"><line stroke="#000" x2="-6" y1="0.5" y2="0.5"></line><text fill="#000" x="-9" y="0.5" dy="0.32em">280</text></g></g></g></svg>