<svg xmlns="http://www.w3.org/2000/svg" width="280" height="160"><defs><style type="text/css"><![CDATA[ 
.bar rect {
  fill-opacity: 0;
  stroke:       black;
  stroke-width: 0.5;
}

.highlight rect {
  fill:       red;
  fill-opacity: 1;
}
.axis path,
.axis line {
  fill: none;
  stroke: #000;
  shape-rendering: crispEdges;
}
 ]]></style></defs><g transform="translate(50,10)"><g class="bar" transform="translate(0,120)"><rect x="1" width="11.5" height="0"></rect></g><g class="bar" transform="translate(12.5,120)"><rect x="1" width="11.5" height="0"></rect></g><g class="bar" transform="translate(25,119.69620253164557)"><rect x="1" width="11.5" height="0.303797468354432"></rect></g><g class="bar" transform="translate(37.5,118.17721518987342)"><rect x="1" width="11.5" height="1.8227848101265778"></rect></g><g class="bar" transform="translate(50,102.68354430379748)"><rect x="1" width="11.5" height="17.316455696202524"></rect></g><g class="bar" transform="translate(62.5,76.55696202531647)"><rect x="1" width="11.5" height="43.443037974683534"></rect></g><g class="bar" transform="translate(75,49.518987341772146)"><rect x="1" width="11.5" height="70.48101265822785"></rect></g><g class="bar" transform="translate(87.5,17.92405063291139)"><rect x="1" width="11.5" height="102.07594936708861"></rect></g><g class="bar" transform="translate(100,0)"><rect x="1" width="11.5" height="120"></rect></g><g class="bar" transform="translate(112.5,25.215189873417728)"><rect x="1" width="11.5" height="94.78481012658227"></rect></g><g class="bar" transform="translate(125,70.48101265822785)"><rect x="1" width="11.5" height="49.518987341772146"></rect></g><g class="bar" transform="translate(137.5,103.89873417721519)"><rect x="1" width="11.5" height="16.10126582278481"></rect></g><g class="bar" transform="translate(150,118.48101265822785)"><rect x="1" width="11.5" height="1.5189873417721458"></rect></g><g class="bar" transform="translate(162.5,119.39240506329114)"><rect x="1" width="11.5" height="0.607594936708864"></rect></g><g class="bar" transform="translate(175,120)"><rect x="1" width="11.5" height="0"></rect></g><g class="bar" transform="translate(187.5,120)"><rect x="1" width="11.5" height="0"></rect></g></g></svg>