<svg xmlns="http://www.w3.org/2000/svg" width="280" height="160"><defs><style type="text/css"><![CDATA[ 
.bar rect {
  fill-opacity: 0;
  stroke:       black;
  stroke-width: 0.5;
}

.highlight rect {
  fill:       red;
  fill-opacity: 1;
}
.axis path,
.axis line {
  fill: none;
  stroke: #000;
  shape-rendering: crispEdges;
}
 ]]></style></defs><g transform="translate(50,10)"><g class="bar" transform="translate(0,119.77570093457943)"><rect x="1" width="11.5" height="0.224299065420567"></rect></g><g class="bar" transform="translate(12.5,113.79439252336448)"><rect x="1" width="11.5" height="6.205607476635521"></rect></g><g class="bar" transform="translate(25,100.78504672897196)"><rect x="1" width="11.5" height="19.214953271028037"></rect></g><g class="bar" transform="translate(37.5,81.86915887850468)"><rect x="1" width="11.5" height="38.13084112149532"></rect></g><g class="bar" transform="translate(50,63.25233644859813)"><rect x="1" width="11.5" height="56.74766355140187"></rect></g><g class="bar" transform="translate(62.5,39.102803738317746)"><rect x="1" width="11.5" height="80.89719626168225"></rect></g><g class="bar" transform="translate(75,13.383177570093451)"><rect x="1" width="11.5" height="106.61682242990655"></rect></g><g class="bar" transform="translate(87.5,0)"><rect x="1" width="11.5" height="120"></rect></g><g class="bar" transform="translate(100,28.560747663551396)"><rect x="1" width="11.5" height="91.4392523364486"></rect></g><g class="bar" transform="translate(112.5,75.51401869158879)"><rect x="1" width="11.5" height="44.48598130841121"></rect></g><g class="bar" transform="translate(125,109.1588785046729)"><rect x="1" width="11.5" height="10.841121495327101"></rect></g><g class="bar" transform="translate(137.5,118.72897196261682)"><rect x="1" width="11.5" height="1.271028037383175"></rect></g><g class="bar" transform="translate(150,120)"><rect x="1" width="11.5" height="0"></rect></g><g class="bar" transform="translate(162.5,120)"><rect x="1" width="11.5" height="0"></rect></g><g class="bar" transform="translate(175,120)"><rect x="1" width="11.5" height="0"></rect></g><g class="bar" transform="translate(187.5,120)"><rect x="1" width="11.5" height="0"></rect></g></g></svg>