<svg xmlns="http://www.w3.org/2000/svg" width="600" height="350"><defs><style type="text/css"><![CDATA[ 
.bar rect {
  fill-opacity: 0;
  stroke:       black;
  stroke-width: 0.5;
}

.highlight rect {
  fill:       red;
  fill-opacity: 1;
}
.axis path,
.axis line {
  fill: none;
  stroke: #000;
  shape-rendering: crispEdges;
}
 ]]></style></defs><g transform="translate(50,10)"><g class="bar" transform="translate(0,308.268156424581)"><rect x="1" width="11.999999999999996" height="1.7318435754190205"></rect></g><g class="bar" transform="translate(12.999999999999996,296.14525139664806)"><rect x="1" width="11.999999999999996" height="13.854748603351936"></rect></g><g class="bar" transform="translate(25.999999999999993,290.08379888268155)"><rect x="1" width="11.999999999999996" height="19.91620111731845"></rect></g><g class="bar" transform="translate(39.00000000000001,260.64245810055866)"><rect x="1" width="11.999999999999996" height="49.357541899441344"></rect></g><g class="bar" transform="translate(52,237.26256983240222)"><rect x="1" width="11.999999999999996" height="72.73743016759778"></rect></g><g class="bar" transform="translate(65,202.62569832402232)"><rect x="1" width="11.999999999999996" height="107.37430167597768"></rect></g><g class="bar" transform="translate(78.00000000000001,186.1731843575419)"><rect x="1" width="11.999999999999996" height="123.82681564245809"></rect></g><g class="bar" transform="translate(91.00000000000001,105.64245810055866)"><rect x="1" width="11.999999999999996" height="204.35754189944134"></rect></g><g class="bar" transform="translate(104,74.46927374301677)"><rect x="1" width="11.999999999999996" height="235.53072625698323"></rect></g><g class="bar" transform="translate(117,97.8491620111732)"><rect x="1" width="11.999999999999996" height="212.1508379888268"></rect></g><g class="bar" transform="translate(130,57.150837988826794)"><rect x="1" width="11.999999999999996" height="252.8491620111732"></rect></g><g class="bar" transform="translate(143,60.614525139664806)"><rect x="1" width="11.999999999999996" height="249.3854748603352"></rect></g><g class="bar" transform="translate(156.00000000000003,61.48044692737429)"><rect x="1" width="11.999999999999996" height="248.5195530726257"></rect></g><g class="bar" transform="translate(169,30.307262569832403)"><rect x="1" width="11.999999999999996" height="279.6927374301676"></rect></g><g class="bar" transform="translate(182.00000000000003,0)"><rect x="1" width="11.999999999999996" height="310"></rect></g><g class="bar" transform="translate(195,21.648044692737415)"><rect x="1" width="11.999999999999996" height="288.3519553072626"></rect></g><g class="bar" transform="translate(208,56.28491620111731)"><rect x="1" width="11.999999999999996" height="253.7150837988827"></rect></g><g class="bar" transform="translate(221.00000000000003,103.04469273743015)"><rect x="1" width="11.999999999999996" height="206.95530726256985"></rect></g><g class="bar" transform="translate(234,92.6536312849162)"><rect x="1" width="11.999999999999996" height="217.3463687150838"></rect></g><g class="bar" transform="translate(247.00000000000003,130.75418994413408)"><rect x="1" width="11.999999999999996" height="179.24581005586592"></rect></g><g class="bar" transform="translate(260,177.51396648044692)"><rect x="1" width="11.999999999999996" height="132.48603351955308"></rect></g><g class="bar" transform="translate(273,193.10055865921788)"><rect x="1" width="11.999999999999996" height="116.89944134078212"></rect></g><g class="bar" transform="translate(286,226.87150837988827)"><rect x="1" width="11.999999999999996" height="83.12849162011173"></rect></g><g class="bar" transform="translate(299.00000000000006,252.84916201117318)"><rect x="1" width="11.999999999999996" height="57.15083798882682"></rect></g><g class="bar" transform="translate(312.00000000000006,271.8994413407821)"><rect x="1" width="11.999999999999996" height="38.10055865921788"></rect></g><g class="bar" transform="translate(325,264.97206703910615)"><rect x="1" width="11.999999999999996" height="45.02793296089385"></rect></g><g class="bar" transform="translate(338,265.83798882681566)"><rect x="1" width="11.999999999999996" height="44.16201117318434"></rect></g><g class="bar" transform="translate(351,297.0111731843575)"><rect x="1" width="11.999999999999996" height="12.988826815642483"></rect></g><g class="bar" transform="translate(364.00000000000006,290.94972067039106)"><rect x="1" width="11.999999999999996" height="19.05027932960894"></rect></g><g class="bar" transform="translate(377.00000000000006,298.74301675977654)"><rect x="1" width="11.999999999999996" height="11.256983240223462"></rect></g><g class="bar" transform="translate(390,305.6703910614525)"><rect x="1" width="11.999999999999996" height="4.329608938547494"></rect></g><g class="bar" transform="translate(403,304.804469273743)"><rect x="1" width="11.999999999999996" height="5.1955307262570045"></rect></g><g class="bar" transform="translate(416,308.268156424581)"><rect x="1" width="11.999999999999996" height="1.7318435754190205"></rect></g><g class="bar" transform="translate(429.00000000000006,307.4022346368715)"><rect x="1" width="11.999999999999996" height="2.597765363128474"></rect></g><g class="bar" transform="translate(442.00000000000006,310)"><rect x="1" width="11.999999999999996" height="0"></rect></g><g class="bar" transform="translate(455,310)"><rect x="1" width="11.999999999999996" height="0"></rect></g><g class="bar" transform="translate(468,310)"><rect x="1" width="11.999999999999996" height="0"></rect></g><g class="bar" transform="translate(481,310)"><rect x="1" width="11.999999999999996" height="0"></rect></g><g class="bar" transform="translate(494.00000000000006,310)"><rect x="1" width="11.999999999999996" height="0"></rect></g><g class="bar" transform="translate(507.00000000000006,310)"><rect x="1" width="11.999999999999996" height="0"></rect></g><g class="axis axis--x" transform="translate(0,310)" fill="none" font-size="10" font-family="sans-serif" text-anchor="middle"><path class="domain" stroke="#000" d="M0.5,6V0.5H520.5V6"></path><g class="tick" opacity="1" transform="translate(0,0)"><line stroke="#000" y2="6" x1="0.5" x2="0.5"></line><text fill="#000" y="9" x="0.5" dy="0.71em">0.01</text></g><g class="tick" opacity="1" transform="translate(130,0)"><line stroke="#000" y2="6" x1="0.5" x2="0.5"></line><text fill="#000" y="9" x="0.5" dy="0.71em">1</text></g><g class="tick" opacity="1" transform="translate(260,0)"><line stroke="#000" y2="6" x1="0.5" x2="0.5"></line><text fill="#000" y="9" x="0.5" dy="0.71em">100</text></g><g class="tick" opacity="1" transform="translate(390,0)"><line stroke="#000" y2="6" x1="0.5" x2="0.5"></line><text fill="#000" y="9" x="0.5" dy="0.71em">10000</text></g><g class="tick" opacity="1" transform="translate(520,0)"><line stroke="#000" y2="6" x1="0.5" x2="0.5"></line><text fill="#000" y="9" x="0.5" dy="0.71em"></text></g></g><g class="axis axis--y" fill="none" font-size="10" font-family="sans-serif" text-anchor="end"><path class="domain" stroke="#000" d="M-6,310.5H0.5V0.5H-6"></path><g class="tick" opacity="1" transform="translate(0,310)"><line stroke="#000" x2="-6" y1="0.5" y2="0.5"></line><text fill="#000" x="-9" y="0.5" dy="0.32em">0</text></g><g class="tick" opacity="1" transform="translate(0,266.70391061452517)"><line stroke="#000" x2="-6" y1="0.5" y2="0.5"></line><text fill="#000" x="-9" y="0.5" dy="0.32em">50</text></g><g class="tick" opacity="1" transform="translate(0,223.40782122905028)"><line stroke="#000" x2="-6" y1="0.5" y2="0.5"></line><text fill="#000" x="-9" y="0.5" dy="0.32em">100</text></g><g class="tick" opacity="1" transform="translate(0,180.11173184357543)"><line stroke="#000" x2="-6" y1="0.5" y2="0.5"></line><text fill="#000" x="-9" y="0.5" dy="0.32em">150</text></g><g class="tick" opacity="1" transform="translate(0,136.81564245810057)"><line stroke="#000" x2="-6" y1="0.5" y2="0.5"></line><text fill="#000" x="-9" y="0.5" dy="0.32em">200</text></g><g class="tick" opacity="1" transform="translate(0,93.51955307262571)"><line stroke="#000" x2="-6" y1="0.5" y2="0.5"></line><text fill="#000" x="-9" y="0.5" dy="0.32em">250</text></g><g class="tick" opacity="1" transform="translate(0,50.223463687150854)"><line stroke="#000" x2="-6" y1="0.5" y2="0.5"></line><text fill="#000" x="-9" y="0.5" dy="0.32em">300</text></g><g class="tick" opacity="1" transform="translate(0,6.927374301675968)"><line stroke="#000" x2="-6" y1="0.5" y2="0.5"></line><text fill="#000" x="-9" y="0.5" dy="0.32em">350</text></g></g></g></svg>