<svg xmlns="http://www.w3.org/2000/svg" width="600" height="350"><defs><style type="text/css"><![CDATA[ 
.bar rect {
  fill-opacity: 0;
  stroke:       black;
  stroke-width: 0.5;
}

.highlight rect {
  fill:       red;
  fill-opacity: 1;
}
.axis path,
.axis line {
  fill: none;
  stroke: #000;
  shape-rendering: crispEdges;
}
path {
    stroke: red;
    fill: none;
}

line {
    stroke: red;
}

path.marker {
    fill: red;
}
 ]]></style></defs><g transform="translate(50,10)"><g class="bar" transform="translate(0,305.93175853018374)"><rect x="1" width="11.999999999999996" height="4.0682414698162574"></rect></g><g class="bar" transform="translate(12.999999999999996,218.05774278215222)"><rect x="1" width="11.999999999999996" height="91.94225721784778"></rect></g><g class="bar" transform="translate(25.999999999999993,292.9133858267717)"><rect x="1" width="11.999999999999996" height="17.086614173228327"></rect></g><g class="bar" transform="translate(39.00000000000001,302.6771653543307)"><rect x="1" width="11.999999999999996" height="7.322834645669275"></rect></g><g class="bar" transform="translate(52,284.7769028871391)"><rect x="1" width="11.999999999999996" height="25.2230971128609"></rect></g><g class="bar" transform="translate(65,275.8267716535433)"><rect x="1" width="11.999999999999996" height="34.17322834645671"></rect></g><g class="bar" transform="translate(78.00000000000001,256.2992125984252)"><rect x="1" width="11.999999999999996" height="53.700787401574814"></rect></g><g class="bar" transform="translate(91.00000000000001,245.7217847769029)"><rect x="1" width="11.999999999999996" height="64.2782152230971"></rect></g><g class="bar" transform="translate(104,177.3753280839895)"><rect x="1" width="11.999999999999996" height="132.6246719160105"></rect></g><g class="bar" transform="translate(117,213.98950131233596)"><rect x="1" width="11.999999999999996" height="96.01049868766404"></rect></g><g class="bar" transform="translate(130,170.86614173228347)"><rect x="1" width="11.999999999999996" height="139.13385826771653"></rect></g><g class="bar" transform="translate(143,190.3937007874016)"><rect x="1" width="11.999999999999996" height="119.6062992125984"></rect></g><g class="bar" transform="translate(156.00000000000003,180.62992125984252)"><rect x="1" width="11.999999999999996" height="129.37007874015748"></rect></g><g class="bar" transform="translate(169,136.69291338582676)"><rect x="1" width="11.999999999999996" height="173.30708661417324"></rect></g><g class="bar" transform="translate(182.00000000000003,85.43307086614172)"><rect x="1" width="11.999999999999996" height="224.56692913385828"></rect></g><g class="bar" transform="translate(195,86.24671916010499)"><rect x="1" width="11.999999999999996" height="223.753280839895"></rect></g><g class="bar" transform="translate(208,37.42782152230973)"><rect x="1" width="11.999999999999996" height="272.5721784776903"></rect></g><g class="bar" transform="translate(221.00000000000003,0)"><rect x="1" width="11.999999999999996" height="310"></rect></g><g class="bar" transform="translate(234,53.700787401574814)"><rect x="1" width="11.999999999999996" height="256.2992125984252"></rect></g><g class="bar" transform="translate(247.00000000000003,56.14173228346456)"><rect x="1" width="11.999999999999996" height="253.85826771653544"></rect></g><g class="bar" transform="translate(260,32.54593175853017)"><rect x="1" width="11.999999999999996" height="277.4540682414698"></rect></g><g class="bar" transform="translate(273,97.63779527559055)"><rect x="1" width="11.999999999999996" height="212.36220472440945"></rect></g><g class="bar" transform="translate(286,121.23359580052494)"><rect x="1" width="11.999999999999996" height="188.76640419947506"></rect></g><g class="bar" transform="translate(299.00000000000006,176.56167979002626)"><rect x="1" width="11.999999999999996" height="133.43832020997374"></rect></g><g class="bar" transform="translate(312.00000000000006,225.38057742782152)"><rect x="1" width="11.999999999999996" height="84.61942257217848"></rect></g><g class="bar" transform="translate(325,261.18110236220474)"><rect x="1" width="11.999999999999996" height="48.81889763779526"></rect></g><g class="bar" transform="translate(338,273.38582677165357)"><rect x="1" width="11.999999999999996" height="36.61417322834643"></rect></g><g class="bar" transform="translate(351,286.40419947506564)"><rect x="1" width="11.999999999999996" height="23.59580052493436"></rect></g><g class="bar" transform="translate(364.00000000000006,287.2178477690289)"><rect x="1" width="11.999999999999996" height="22.78215223097112"></rect></g><g class="bar" transform="translate(377.00000000000006,304.3044619422572)"><rect x="1" width="11.999999999999996" height="5.6955380577427945"></rect></g><g class="bar" transform="translate(390,310)"><rect x="1" width="11.999999999999996" height="0"></rect></g><g class="bar" transform="translate(403,309.18635170603676)"><rect x="1" width="11.999999999999996" height="0.8136482939632401"></rect></g><g class="bar" transform="translate(416,310)"><rect x="1" width="11.999999999999996" height="0"></rect></g><g class="bar" transform="translate(429.00000000000006,309.18635170603676)"><rect x="1" width="11.999999999999996" height="0.8136482939632401"></rect></g><g class="bar" transform="translate(442.00000000000006,309.18635170603676)"><rect x="1" width="11.999999999999996" height="0.8136482939632401"></rect></g><g class="bar" transform="translate(455,310)"><rect x="1" width="11.999999999999996" height="0"></rect></g><g class="bar" transform="translate(468,310)"><rect x="1" width="11.999999999999996" height="0"></rect></g><g class="bar" transform="translate(481,310)"><rect x="1" width="11.999999999999996" height="0"></rect></g><g class="bar" transform="translate(494.00000000000006,310)"><rect x="1" width="11.999999999999996" height="0"></rect></g><g class="bar" transform="translate(507.00000000000006,310)"><rect x="1" width="11.999999999999996" height="0"></rect></g><g class="axis axis--x" transform="translate(0,310)" fill="none" font-size="10" font-family="sans-serif" text-anchor="middle"><path class="domain" stroke="#000" d="M0.5,6V0.5H520.5V6"></path><g class="tick" opacity="1" transform="translate(0.5,0)"><line stroke="#000" y2="6"></line><text fill="#000" y="9" dy="0.71em">0.01</text></g><g class="tick" opacity="1" transform="translate(130.5,0)"><line stroke="#000" y2="6"></line><text fill="#000" y="9" dy="0.71em">1</text></g><g class="tick" opacity="1" transform="translate(260.5,0)"><line stroke="#000" y2="6"></line><text fill="#000" y="9" dy="0.71em">100</text></g><g class="tick" opacity="1" transform="translate(390.5,0)"><line stroke="#000" y2="6"></line><text fill="#000" y="9" dy="0.71em">10000</text></g><g class="tick" opacity="1" transform="translate(520.5,0)"><line stroke="#000" y2="6"></line><text fill="#000" y="9" dy="0.71em"></text></g></g><g class="axis axis--y" fill="none" font-size="10" font-family="sans-serif" text-anchor="end"><path class="domain" stroke="#000" d="M-6,310.5H0.5V0.5H-6"></path><g class="tick" opacity="1" transform="translate(0,310.5)"><line stroke="#000" x2="-6"></line><text fill="#000" x="-9" dy="0.32em">0</text></g><g class="tick" opacity="1" transform="translate(0,269.81758530183725)"><line stroke="#000" x2="-6"></line><text fill="#000" x="-9" dy="0.32em">50</text></g><g class="tick" opacity="1" transform="translate(0,229.13517060367454)"><line stroke="#000" x2="-6"></line><text fill="#000" x="-9" dy="0.32em">100</text></g><g class="tick" opacity="1" transform="translate(0,188.45275590551182)"><line stroke="#000" x2="-6"></line><text fill="#000" x="-9" dy="0.32em">150</text></g><g class="tick" opacity="1" transform="translate(0,147.77034120734908)"><line stroke="#000" x2="-6"></line><text fill="#000" x="-9" dy="0.32em">200</text></g><g class="tick" opacity="1" transform="translate(0,107.08792650918633)"><line stroke="#000" x2="-6"></line><text fill="#000" x="-9" dy="0.32em">250</text></g><g class="tick" opacity="1" transform="translate(0,66.40551181102362)"><line stroke="#000" x2="-6"></line><text fill="#000" x="-9" dy="0.32em">300</text></g><g class="tick" opacity="1" transform="translate(0,25.7230971128609)"><line stroke="#000" x2="-6"></line><text fill="#000" x="-9" dy="0.32em">350</text></g></g></g></svg>