<svg xmlns="http://www.w3.org/2000/svg" width="280" height="160"><defs><style type="text/css"><![CDATA[ 
.bar rect {
  fill-opacity: 0;
  stroke:       black;
  stroke-width: 0.5;
}

.highlight rect {
  fill:       red;
  fill-opacity: 1;
}
.axis path,
.axis line {
  fill: none;
  stroke: #000;
  shape-rendering: crispEdges;
}
path {
    stroke: red;
    fill: none;
}

line {
    stroke: red;
}

path.marker {
    fill: red;
}
 ]]></style></defs><g transform="translate(50,10)"><g class="bar" transform="translate(0,102.1840490797546)"><rect x="1" width="11.5" height="17.8159509202454"></rect></g><g class="bar" transform="translate(12.5,111.4601226993865)"><rect x="1" width="11.5" height="8.539877300613497"></rect></g><g class="bar" transform="translate(25,97.76687116564418)"><rect x="1" width="11.5" height="22.233128834355824"></rect></g><g class="bar" transform="translate(37.5,73.32515337423314)"><rect x="1" width="11.5" height="46.67484662576686"></rect></g><g class="bar" transform="translate(50,64.34355828220859)"><rect x="1" width="11.5" height="55.65644171779141"></rect></g><g class="bar" transform="translate(62.5,33.42331288343557)"><rect x="1" width="11.5" height="86.57668711656443"></rect></g><g class="bar" transform="translate(75,1.7668711656441758)"><rect x="1" width="11.5" height="118.23312883435582"></rect></g><g class="bar" transform="translate(87.5,0)"><rect x="1" width="11.5" height="120"></rect></g><g class="bar" transform="translate(100,13.104294478527606)"><rect x="1" width="11.5" height="106.8957055214724"></rect></g><g class="bar" transform="translate(112.5,64.63803680981596)"><rect x="1" width="11.5" height="55.36196319018404"></rect></g><g class="bar" transform="translate(125,102.33128834355828)"><rect x="1" width="11.5" height="17.668711656441715"></rect></g><g class="bar" transform="translate(137.5,112.78527607361963)"><rect x="1" width="11.5" height="7.214723926380373"></rect></g><g class="bar" transform="translate(150,119.85276073619632)"><rect x="1" width="11.5" height="0.14723926380368368"></rect></g><g class="bar" transform="translate(162.5,119.70552147239263)"><rect x="1" width="11.5" height="0.29447852760736737"></rect></g><g class="bar" transform="translate(175,120)"><rect x="1" width="11.5" height="0"></rect></g><g class="bar" transform="translate(187.5,120)"><rect x="1" width="11.5" height="0"></rect></g></g></svg>