<svg xmlns="http://www.w3.org/2000/svg" width="600" height="350"><defs><style type="text/css"><![CDATA[ 
.bar rect {
  fill-opacity: 0;
  stroke:       black;
  stroke-width: 0.5;
}

.highlight rect {
  fill:       red;
  fill-opacity: 1;
}
.axis path,
.axis line {
  fill: none;
  stroke: #000;
  shape-rendering: crispEdges;
}
path {
    stroke: red;
    fill: none;
}

line {
    stroke: red;
}

path.marker {
    fill: red;
}
 ]]></style></defs><g transform="translate(50,10)"><g class="bar" transform="translate(0,310)"><rect x="1" width="11.999999999999996" height="0"></rect></g><g class="bar" transform="translate(12.999999999999996,310)"><rect x="1" width="11.999999999999996" height="0"></rect></g><g class="bar" transform="translate(25.999999999999993,310)"><rect x="1" width="11.999999999999996" height="0"></rect></g><g class="bar" transform="translate(39.00000000000001,310)"><rect x="1" width="11.999999999999996" height="0"></rect></g><g class="bar" transform="translate(52,310)"><rect x="1" width="11.999999999999996" height="0"></rect></g><g class="bar" transform="translate(65,309.1755319148936)"><rect x="1" width="11.999999999999996" height="0.824468085106389"></rect></g><g class="bar" transform="translate(78.00000000000001,310)"><rect x="1" width="11.999999999999996" height="0"></rect></g><g class="bar" transform="translate(91.00000000000001,309.1755319148936)"><rect x="1" width="11.999999999999996" height="0.824468085106389"></rect></g><g class="bar" transform="translate(104,305.8776595744681)"><rect x="1" width="11.999999999999996" height="4.122340425531888"></rect></g><g class="bar" transform="translate(117,263.82978723404256)"><rect x="1" width="11.999999999999996" height="46.170212765957444"></rect></g><g class="bar" transform="translate(130,222.6063829787234)"><rect x="1" width="11.999999999999996" height="87.39361702127661"></rect></g><g class="bar" transform="translate(143,201.17021276595744)"><rect x="1" width="11.999999999999996" height="108.82978723404256"></rect></g><g class="bar" transform="translate(156.00000000000003,185.50531914893617)"><rect x="1" width="11.999999999999996" height="124.49468085106383"></rect></g><g class="bar" transform="translate(169,193.75)"><rect x="1" width="11.999999999999996" height="116.25"></rect></g><g class="bar" transform="translate(182.00000000000003,147.57978723404256)"><rect x="1" width="11.999999999999996" height="162.42021276595744"></rect></g><g class="bar" transform="translate(195,126.14361702127658)"><rect x="1" width="11.999999999999996" height="183.85638297872342"></rect></g><g class="bar" transform="translate(208,82.4468085106383)"><rect x="1" width="11.999999999999996" height="227.5531914893617"></rect></g><g class="bar" transform="translate(221.00000000000003,42.872340425531945)"><rect x="1" width="11.999999999999996" height="267.12765957446805"></rect></g><g class="bar" transform="translate(234,15.664893617021278)"><rect x="1" width="11.999999999999996" height="294.3351063829787"></rect></g><g class="bar" transform="translate(247.00000000000003,0)"><rect x="1" width="11.999999999999996" height="310"></rect></g><g class="bar" transform="translate(260,14.840425531914889)"><rect x="1" width="11.999999999999996" height="295.1595744680851"></rect></g><g class="bar" transform="translate(273,12.367021276595722)"><rect x="1" width="11.999999999999996" height="297.6329787234043"></rect></g><g class="bar" transform="translate(286,108.82978723404256)"><rect x="1" width="11.999999999999996" height="201.17021276595744"></rect></g><g class="bar" transform="translate(299.00000000000006,118.72340425531914)"><rect x="1" width="11.999999999999996" height="191.27659574468086"></rect></g><g class="bar" transform="translate(312.00000000000006,162.42021276595744)"><rect x="1" width="11.999999999999996" height="147.57978723404256"></rect></g><g class="bar" transform="translate(325,205.2925531914894)"><rect x="1" width="11.999999999999996" height="104.70744680851061"></rect></g><g class="bar" transform="translate(338,235.79787234042553)"><rect x="1" width="11.999999999999996" height="74.20212765957447"></rect></g><g class="bar" transform="translate(351,288.56382978723406)"><rect x="1" width="11.999999999999996" height="21.436170212765944"></rect></g><g class="bar" transform="translate(364.00000000000006,303.40425531914894)"><rect x="1" width="11.999999999999996" height="6.595744680851055"></rect></g><g class="bar" transform="translate(377.00000000000006,309.1755319148936)"><rect x="1" width="11.999999999999996" height="0.824468085106389"></rect></g><g class="bar" transform="translate(390,310)"><rect x="1" width="11.999999999999996" height="0"></rect></g><g class="bar" transform="translate(403,310)"><rect x="1" width="11.999999999999996" height="0"></rect></g><g class="bar" transform="translate(416,310)"><rect x="1" width="11.999999999999996" height="0"></rect></g><g class="bar" transform="translate(429.00000000000006,310)"><rect x="1" width="11.999999999999996" height="0"></rect></g><g class="bar" transform="translate(442.00000000000006,310)"><rect x="1" width="11.999999999999996" height="0"></rect></g><g class="bar" transform="translate(455,310)"><rect x="1" width="11.999999999999996" height="0"></rect></g><g class="bar" transform="translate(468,310)"><rect x="1" width="11.999999999999996" height="0"></rect></g><g class="bar" transform="translate(481,310)"><rect x="1" width="11.999999999999996" height="0"></rect></g><g class="bar" transform="translate(494.00000000000006,310)"><rect x="1" width="11.999999999999996" height="0"></rect></g><g class="bar" transform="translate(507.00000000000006,310)"><rect x="1" width="11.999999999999996" height="0"></rect></g><g class="axis axis--x" transform="translate(0,310)" fill="none" font-size="10" font-family="sans-serif" text-anchor="middle"><path class="domain" stroke="#000" d="M0.5,6V0.5H520.5V6"></path><g class="tick" opacity="1" transform="translate(0.5,0)"><line stroke="#000" y2="6"></line><text fill="#000" y="9" dy="0.71em">0.01</text></g><g class="tick" opacity="1" transform="translate(130.5,0)"><line stroke="#000" y2="6"></line><text fill="#000" y="9" dy="0.71em">1</text></g><g class="tick" opacity="1" transform="translate(260.5,0)"><line stroke="#000" y2="6"></line><text fill="#000" y="9" dy="0.71em">100</text></g><g class="tick" opacity="1" transform="translate(390.5,0)"><line stroke="#000" y2="6"></line><text fill="#000" y="9" dy="0.71em">10000</text></g><g class="tick" opacity="1" transform="translate(520.5,0)"><line stroke="#000" y2="6"></line><text fill="#000" y="9" dy="0.71em"></text></g></g><g class="axis axis--y" fill="none" font-size="10" font-family="sans-serif" text-anchor="end"><path class="domain" stroke="#000" d="M-6,310.5H0.5V0.5H-6"></path><g class="tick" opacity="1" transform="translate(0,310.5)"><line stroke="#000" x2="-6"></line><text fill="#000" x="-9" dy="0.32em">0</text></g><g class="tick" opacity="1" transform="translate(0,269.27659574468083)"><line stroke="#000" x2="-6"></line><text fill="#000" x="-9" dy="0.32em">50</text></g><g class="tick" opacity="1" transform="translate(0,228.05319148936172)"><line stroke="#000" x2="-6"></line><text fill="#000" x="-9" dy="0.32em">100</text></g><g class="tick" opacity="1" transform="translate(0,186.82978723404256)"><line stroke="#000" x2="-6"></line><text fill="#000" x="-9" dy="0.32em">150</text></g><g class="tick" opacity="1" transform="translate(0,145.60638297872342)"><line stroke="#000" x2="-6"></line><text fill="#000" x="-9" dy="0.32em">200</text></g><g class="tick" opacity="1" transform="translate(0,104.38297872340425)"><line stroke="#000" x2="-6"></line><text fill="#000" x="-9" dy="0.32em">250</text></g><g class="tick" opacity="1" transform="translate(0,63.15957446808511)"><line stroke="#000" x2="-6"></line><text fill="#000" x="-9" dy="0.32em">300</text></g><g class="tick" opacity="1" transform="translate(0,21.936170212765944)"><line stroke="#000" x2="-6"></line><text fill="#000" x="-9" dy="0.32em">350</text></g></g></g></svg>