<svg xmlns="http://www.w3.org/2000/svg" width="280" height="160"><defs><style type="text/css"><![CDATA[ 
.bar rect {
  fill-opacity: 0;
  stroke:       black;
  stroke-width: 0.5;
}

.highlight rect {
  fill:       red;
  fill-opacity: 1;
}
.axis path,
.axis line {
  fill: none;
  stroke: #000;
  shape-rendering: crispEdges;
}
path {
    stroke: red;
    fill: none;
}

line {
    stroke: red;
}

path.marker {
    fill: red;
}
 ]]></style></defs><g transform="translate(50,10)"><g class="bar" transform="translate(0,118.9172932330827)"><rect x="1" width="11.5" height="1.0827067669172976"></rect></g><g class="bar" transform="translate(12.5,114.04511278195488)"><rect x="1" width="11.5" height="5.954887218045116"></rect></g><g class="bar" transform="translate(25,99.24812030075188)"><rect x="1" width="11.5" height="20.75187969924812"></rect></g><g class="bar" transform="translate(37.5,84.63157894736842)"><rect x="1" width="11.5" height="35.368421052631575"></rect></g><g class="bar" transform="translate(50,62.796992481203006)"><rect x="1" width="11.5" height="57.203007518796994"></rect></g><g class="bar" transform="translate(62.5,23.097744360902254)"><rect x="1" width="11.5" height="96.90225563909775"></rect></g><g class="bar" transform="translate(75,14.616541353383454)"><rect x="1" width="11.5" height="105.38345864661655"></rect></g><g class="bar" transform="translate(87.5,0)"><rect x="1" width="11.5" height="120"></rect></g><g class="bar" transform="translate(100,14.796992481203006)"><rect x="1" width="11.5" height="105.203007518797"></rect></g><g class="bar" transform="translate(112.5,42.94736842105263)"><rect x="1" width="11.5" height="77.05263157894737"></rect></g><g class="bar" transform="translate(125,89.86466165413533)"><rect x="1" width="11.5" height="30.135338345864668"></rect></g><g class="bar" transform="translate(137.5,112.9624060150376)"><rect x="1" width="11.5" height="7.037593984962399"></rect></g><g class="bar" transform="translate(150,118.55639097744361)"><rect x="1" width="11.5" height="1.4436090225563873"></rect></g><g class="bar" transform="translate(162.5,120)"><rect x="1" width="11.5" height="0"></rect></g><g class="bar" transform="translate(175,120)"><rect x="1" width="11.5" height="0"></rect></g><g class="bar" transform="translate(187.5,120)"><rect x="1" width="11.5" height="0"></rect></g></g></svg>