<svg xmlns="http://www.w3.org/2000/svg" width="600" height="350"><defs><style type="text/css"><![CDATA[ 
.bar rect {
  fill-opacity: 0;
  stroke:       black;
  stroke-width: 0.5;
}

.highlight rect {
  fill:       red;
  fill-opacity: 1;
}
.axis path,
.axis line {
  fill: none;
  stroke: #000;
  shape-rendering: crispEdges;
}
 ]]></style></defs><g transform="translate(50,10)"><g class="bar" transform="translate(0,310)"><rect x="1" width="11.999999999999996" height="0"></rect></g><g class="bar" transform="translate(12.999999999999996,310)"><rect x="1" width="11.999999999999996" height="0"></rect></g><g class="bar" transform="translate(25.999999999999993,309.3541666666667)"><rect x="1" width="11.999999999999996" height="0.6458333333333144"></rect></g><g class="bar" transform="translate(39.00000000000001,308.0625)"><rect x="1" width="11.999999999999996" height="1.9375"></rect></g><g class="bar" transform="translate(52,304.8333333333333)"><rect x="1" width="11.999999999999996" height="5.166666666666686"></rect></g><g class="bar" transform="translate(65,299.0208333333333)"><rect x="1" width="11.999999999999996" height="10.979166666666686"></rect></g><g class="bar" transform="translate(78.00000000000001,287.3958333333333)"><rect x="1" width="11.999999999999996" height="22.604166666666686"></rect></g><g class="bar" transform="translate(91.00000000000001,280.2916666666667)"><rect x="1" width="11.999999999999996" height="29.708333333333314"></rect></g><g class="bar" transform="translate(104,251.875)"><rect x="1" width="11.999999999999996" height="58.125"></rect></g><g class="bar" transform="translate(117,237.02083333333331)"><rect x="1" width="11.999999999999996" height="72.97916666666669"></rect></g><g class="bar" transform="translate(130,191.16666666666666)"><rect x="1" width="11.999999999999996" height="118.83333333333334"></rect></g><g class="bar" transform="translate(143,154.35416666666666)"><rect x="1" width="11.999999999999996" height="155.64583333333334"></rect></g><g class="bar" transform="translate(156.00000000000003,110.4375)"><rect x="1" width="11.999999999999996" height="199.5625"></rect></g><g class="bar" transform="translate(169,58.125)"><rect x="1" width="11.999999999999996" height="251.875"></rect></g><g class="bar" transform="translate(182.00000000000003,73.625)"><rect x="1" width="11.999999999999996" height="236.375"></rect></g><g class="bar" transform="translate(195,9.041666666666686)"><rect x="1" width="11.999999999999996" height="300.9583333333333"></rect></g><g class="bar" transform="translate(208,0)"><rect x="1" width="11.999999999999996" height="310"></rect></g><g class="bar" transform="translate(221.00000000000003,38.75)"><rect x="1" width="11.999999999999996" height="271.25"></rect></g><g class="bar" transform="translate(234,65.875)"><rect x="1" width="11.999999999999996" height="244.125"></rect></g><g class="bar" transform="translate(247.00000000000003,58.77083333333334)"><rect x="1" width="11.999999999999996" height="251.22916666666666"></rect></g><g class="bar" transform="translate(260,129.8125)"><rect x="1" width="11.999999999999996" height="180.1875"></rect></g><g class="bar" transform="translate(273,133.04166666666669)"><rect x="1" width="11.999999999999996" height="176.95833333333331"></rect></g><g class="bar" transform="translate(286,178.89583333333334)"><rect x="1" width="11.999999999999996" height="131.10416666666666"></rect></g><g class="bar" transform="translate(299.00000000000006,207.95833333333331)"><rect x="1" width="11.999999999999996" height="102.04166666666669"></rect></g><g class="bar" transform="translate(312.00000000000006,233.14583333333331)"><rect x="1" width="11.999999999999996" height="76.85416666666669"></rect></g><g class="bar" transform="translate(325,251.875)"><rect x="1" width="11.999999999999996" height="58.125"></rect></g><g class="bar" transform="translate(338,276.4166666666667)"><rect x="1" width="11.999999999999996" height="33.583333333333314"></rect></g><g class="bar" transform="translate(351,283.5208333333333)"><rect x="1" width="11.999999999999996" height="26.479166666666686"></rect></g><g class="bar" transform="translate(364.00000000000006,299.0208333333333)"><rect x="1" width="11.999999999999996" height="10.979166666666686"></rect></g><g class="bar" transform="translate(377.00000000000006,304.8333333333333)"><rect x="1" width="11.999999999999996" height="5.166666666666686"></rect></g><g class="bar" transform="translate(390,306.7708333333333)"><rect x="1" width="11.999999999999996" height="3.2291666666666856"></rect></g><g class="bar" transform="translate(403,308.7083333333333)"><rect x="1" width="11.999999999999996" height="1.2916666666666856"></rect></g><g class="bar" transform="translate(416,310)"><rect x="1" width="11.999999999999996" height="0"></rect></g><g class="bar" transform="translate(429.00000000000006,310)"><rect x="1" width="11.999999999999996" height="0"></rect></g><g class="bar" transform="translate(442.00000000000006,310)"><rect x="1" width="11.999999999999996" height="0"></rect></g><g class="bar" transform="translate(455,310)"><rect x="1" width="11.999999999999996" height="0"></rect></g><g class="bar" transform="translate(468,310)"><rect x="1" width="11.999999999999996" height="0"></rect></g><g class="bar" transform="translate(481,310)"><rect x="1" width="11.999999999999996" height="0"></rect></g><g class="bar" transform="translate(494.00000000000006,310)"><rect x="1" width="11.999999999999996" height="0"></rect></g><g class="bar" transform="translate(507.00000000000006,310)"><rect x="1" width="11.999999999999996" height="0"></rect></g><g class="axis axis--x" transform="translate(0,310)" fill="none" font-size="10" font-family="sans-serif" text-anchor="middle"><path class="domain" stroke="#000" d="M0.5,6V0.5H520.5V6"></path><g class="tick" opacity="1" transform="translate(0,0)"><line stroke="#000" y2="6" x1="0.5" x2="0.5"></line><text fill="#000" y="9" x="0.5" dy="0.71em">0.01</text></g><g class="tick" opacity="1" transform="translate(130,0)"><line stroke="#000" y2="6" x1="0.5" x2="0.5"></line><text fill="#000" y="9" x="0.5" dy="0.71em">1</text></g><g class="tick" opacity="1" transform="translate(260,0)"><line stroke="#000" y2="6" x1="0.5" x2="0.5"></line><text fill="#000" y="9" x="0.5" dy="0.71em">100</text></g><g class="tick" opacity="1" transform="translate(390,0)"><line stroke="#000" y2="6" x1="0.5" x2="0.5"></line><text fill="#000" y="9" x="0.5" dy="0.71em">10000</text></g><g class="tick" opacity="1" transform="translate(520,0)"><line stroke="#000" y2="6" x1="0.5" x2="0.5"></line><text fill="#000" y="9" x="0.5" dy="0.71em"></text></g></g><g class="axis axis--y" fill="none" font-size="10" font-family="sans-serif" text-anchor="end"><path class="domain" stroke="#000" d="M-6,310.5H0.5V0.5H-6"></path><g class="tick" opacity="1" transform="translate(0,310)"><line stroke="#000" x2="-6" y1="0.5" y2="0.5"></line><text fill="#000" x="-9" y="0.5" dy="0.32em">0</text></g><g class="tick" opacity="1" transform="translate(0,277.7083333333333)"><line stroke="#000" x2="-6" y1="0.5" y2="0.5"></line><text fill="#000" x="-9" y="0.5" dy="0.32em">50</text></g><g class="tick" opacity="1" transform="translate(0,245.41666666666666)"><line stroke="#000" x2="-6" y1="0.5" y2="0.5"></line><text fill="#000" x="-9" y="0.5" dy="0.32em">100</text></g><g class="tick" opacity="1" transform="translate(0,213.125)"><line stroke="#000" x2="-6" y1="0.5" y2="0.5"></line><text fill="#000" x="-9" y="0.5" dy="0.32em">150</text></g><g class="tick" opacity="1" transform="translate(0,180.83333333333331)"><line stroke="#000" x2="-6" y1="0.5" y2="0.5"></line><text fill="#000" x="-9" y="0.5" dy="0.32em">200</text></g><g class="tick" opacity="1" transform="translate(0,148.54166666666666)"><line stroke="#000" x2="-6" y1="0.5" y2="0.5"></line><text fill="#000" x="-9" y="0.5" dy="0.32em">250</text></g><g class="tick" opacity="1" transform="translate(0,116.25)"><line stroke="#000" x2="-6" y1="0.5" y2="0.5"></line><text fill="#000" x="-9" y="0.5" dy="0.32em">300</text></g><g class="tick" opacity="1" transform="translate(0,83.95833333333334)"><line stroke="#000" x2="-6" y1="0.5" y2="0.5"></line><text fill="#000" x="-9" y="0.5" dy="0.32em">350</text></g><g class="tick" opacity="1" transform="translate(0,51.66666666666663)"><line stroke="#000" x2="-6" y1="0.5" y2="0.5"></line><text fill="#000" x="-9" y="0.5" dy="0.32em">400</text></g><g class="tick" opacity="1" transform="translate(0,19.375)"><line stroke="#000" x2="-6" y1="0.5" y2="0.5"></line><text fill="#000" x="-9" y="0.5" dy="0.32em">450</text></g></g></g></svg>