<svg xmlns="http://www.w3.org/2000/svg" width="280" height="160"><defs><style type="text/css"><![CDATA[ 
.bar rect {
  fill-opacity: 0;
  stroke:       black;
  stroke-width: 0.5;
}

.highlight rect {
  fill:       red;
  fill-opacity: 1;
}
.axis path,
.axis line {
  fill: none;
  stroke: #000;
  shape-rendering: crispEdges;
}
path {
    stroke: red;
    fill: none;
}

line {
    stroke: red;
}

path.marker {
    fill: red;
}
 ]]></style></defs><g transform="translate(50,10)"><g class="bar" transform="translate(0,118.5929648241206)"><rect x="1" width="11.5" height="1.4070351758794004"></rect></g><g class="bar" transform="translate(12.5,110.55276381909547)"><rect x="1" width="11.5" height="9.447236180904525"></rect></g><g class="bar" transform="translate(25,102.51256281407035)"><rect x="1" width="11.5" height="17.48743718592965"></rect></g><g class="bar" transform="translate(37.5,86.83417085427136)"><rect x="1" width="11.5" height="33.16582914572864"></rect></g><g class="bar" transform="translate(50,56.281407035175874)"><rect x="1" width="11.5" height="63.718592964824126"></rect></g><g class="bar" transform="translate(62.5,22.1105527638191)"><rect x="1" width="11.5" height="97.8894472361809"></rect></g><g class="bar" transform="translate(75,3.6180904522613133)"><rect x="1" width="11.5" height="116.38190954773869"></rect></g><g class="bar" transform="translate(87.5,0)"><rect x="1" width="11.5" height="120"></rect></g><g class="bar" transform="translate(100,21.306532663316588)"><rect x="1" width="11.5" height="98.69346733668341"></rect></g><g class="bar" transform="translate(112.5,55.07537688442211)"><rect x="1" width="11.5" height="64.92462311557789"></rect></g><g class="bar" transform="translate(125,87.43718592964824)"><rect x="1" width="11.5" height="32.56281407035176"></rect></g><g class="bar" transform="translate(137.5,105.52763819095478)"><rect x="1" width="11.5" height="14.472361809045225"></rect></g><g class="bar" transform="translate(150,119.59798994974874)"><rect x="1" width="11.5" height="0.40201005025126335"></rect></g><g class="bar" transform="translate(162.5,119.79899497487438)"><rect x="1" width="11.5" height="0.20100502512562457"></rect></g><g class="bar" transform="translate(175,120)"><rect x="1" width="11.5" height="0"></rect></g><g class="bar" transform="translate(187.5,120)"><rect x="1" width="11.5" height="0"></rect></g></g></svg>