<svg xmlns="http://www.w3.org/2000/svg" width="280" height="160"><defs><style type="text/css"><![CDATA[ 
.bar rect {
  fill-opacity: 0;
  stroke:       black;
  stroke-width: 0.5;
}

.highlight rect {
  fill:       red;
  fill-opacity: 1;
}
.axis path,
.axis line {
  fill: none;
  stroke: #000;
  shape-rendering: crispEdges;
}
 ]]></style></defs><g transform="translate(50,10)"><g class="bar" transform="translate(0,113.2258064516129)"><rect x="1" width="11.5" height="6.774193548387103"></rect></g><g class="bar" transform="translate(12.5,95.90322580645162)"><rect x="1" width="11.5" height="24.096774193548384"></rect></g><g class="bar" transform="translate(25,62.32258064516129)"><rect x="1" width="11.5" height="57.67741935483871"></rect></g><g class="bar" transform="translate(37.5,38.41935483870968)"><rect x="1" width="11.5" height="81.58064516129032"></rect></g><g class="bar" transform="translate(50,13.064516129032256)"><rect x="1" width="11.5" height="106.93548387096774"></rect></g><g class="bar" transform="translate(62.5,9.58064516129032)"><rect x="1" width="11.5" height="110.41935483870968"></rect></g><g class="bar" transform="translate(75,0)"><rect x="1" width="11.5" height="120"></rect></g><g class="bar" transform="translate(87.5,26.80645161290323)"><rect x="1" width="11.5" height="93.19354838709677"></rect></g><g class="bar" transform="translate(100,57.774193548387096)"><rect x="1" width="11.5" height="62.225806451612904"></rect></g><g class="bar" transform="translate(112.5,101.80645161290323)"><rect x="1" width="11.5" height="18.19354838709677"></rect></g><g class="bar" transform="translate(125,111.87096774193549)"><rect x="1" width="11.5" height="8.129032258064512"></rect></g><g class="bar" transform="translate(137.5,111.87096774193549)"><rect x="1" width="11.5" height="8.129032258064512"></rect></g><g class="bar" transform="translate(150,119.12903225806451)"><rect x="1" width="11.5" height="0.8709677419354875"></rect></g><g class="bar" transform="translate(162.5,120)"><rect x="1" width="11.5" height="0"></rect></g><g class="bar" transform="translate(175,120)"><rect x="1" width="11.5" height="0"></rect></g><g class="bar" transform="translate(187.5,120)"><rect x="1" width="11.5" height="0"></rect></g></g></svg>