<svg xmlns="http://www.w3.org/2000/svg" width="600" height="350"><defs><style type="text/css"><![CDATA[ 
.bar rect {
  fill-opacity: 0;
  stroke:       black;
  stroke-width: 0.5;
}

.highlight rect {
  fill:       red;
  fill-opacity: 1;
}
.axis path,
.axis line {
  fill: none;
  stroke: #000;
  shape-rendering: crispEdges;
}
 ]]></style></defs><g transform="translate(50,10)"><g class="bar" transform="translate(0,303.4296724470135)"><rect x="1" width="11.999999999999996" height="6.570327552986498"></rect></g><g class="bar" transform="translate(12.999999999999996,290.88631984585743)"><rect x="1" width="11.999999999999996" height="19.11368015414257"></rect></g><g class="bar" transform="translate(25.999999999999993,276.5510597302505)"><rect x="1" width="11.999999999999996" height="33.44894026974953"></rect></g><g class="bar" transform="translate(39.00000000000001,261.0211946050096)"><rect x="1" width="11.999999999999996" height="48.97880539499039"></rect></g><g class="bar" transform="translate(52,227.57225433526014)"><rect x="1" width="11.999999999999996" height="82.42774566473986"></rect></g><g class="bar" transform="translate(65,192.92870905587668)"><rect x="1" width="11.999999999999996" height="117.07129094412332"></rect></g><g class="bar" transform="translate(78.00000000000001,153.5067437379576)"><rect x="1" width="11.999999999999996" height="156.4932562620424"></rect></g><g class="bar" transform="translate(91.00000000000001,126.03082851637765)"><rect x="1" width="11.999999999999996" height="183.96917148362235"></rect></g><g class="bar" transform="translate(104,129.01734104046244)"><rect x="1" width="11.999999999999996" height="180.98265895953756"></rect></g><g class="bar" transform="translate(117,88.99807321772639)"><rect x="1" width="11.999999999999996" height="221.0019267822736"></rect></g><g class="bar" transform="translate(130,36.43545279383426)"><rect x="1" width="11.999999999999996" height="273.56454720616574"></rect></g><g class="bar" transform="translate(143,47.78420038535643)"><rect x="1" width="11.999999999999996" height="262.2157996146436"></rect></g><g class="bar" transform="translate(156.00000000000003,68.68978805394991)"><rect x="1" width="11.999999999999996" height="241.3102119460501"></rect></g><g class="bar" transform="translate(169,39.4219653179191)"><rect x="1" width="11.999999999999996" height="270.5780346820809"></rect></g><g class="bar" transform="translate(182.00000000000003,16.12716763005784)"><rect x="1" width="11.999999999999996" height="293.87283236994216"></rect></g><g class="bar" transform="translate(195,0)"><rect x="1" width="11.999999999999996" height="310"></rect></g><g class="bar" transform="translate(208,16.724470134874764)"><rect x="1" width="11.999999999999996" height="293.27552986512524"></rect></g><g class="bar" transform="translate(221.00000000000003,53.15992292870908)"><rect x="1" width="11.999999999999996" height="256.8400770712909"></rect></g><g class="bar" transform="translate(234,54.35452793834298)"><rect x="1" width="11.999999999999996" height="255.64547206165702"></rect></g><g class="bar" transform="translate(247.00000000000003,109.90366088631984)"><rect x="1" width="11.999999999999996" height="200.09633911368016"></rect></g><g class="bar" transform="translate(260,132.60115606936415)"><rect x="1" width="11.999999999999996" height="177.39884393063585"></rect></g><g class="bar" transform="translate(273,163.06358381502892)"><rect x="1" width="11.999999999999996" height="146.93641618497108"></rect></g><g class="bar" transform="translate(286,212.63969171483623)"><rect x="1" width="11.999999999999996" height="97.36030828516377"></rect></g><g class="bar" transform="translate(299.00000000000006,263.4104046242775)"><rect x="1" width="11.999999999999996" height="46.589595375722524"></rect></g><g class="bar" transform="translate(312.00000000000006,281.92678227360307)"><rect x="1" width="11.999999999999996" height="28.073217726396933"></rect></g><g class="bar" transform="translate(325,287.89980732177264)"><rect x="1" width="11.999999999999996" height="22.10019267822736"></rect></g><g class="bar" transform="translate(338,289.6917148362235)"><rect x="1" width="11.999999999999996" height="20.308285163776475"></rect></g><g class="bar" transform="translate(351,288.4971098265896)"><rect x="1" width="11.999999999999996" height="21.50289017341038"></rect></g><g class="bar" transform="translate(364.00000000000006,286.10789980732176)"><rect x="1" width="11.999999999999996" height="23.892100192678242"></rect></g><g class="bar" transform="translate(377.00000000000006,297.4566473988439)"><rect x="1" width="11.999999999999996" height="12.543352601156073"></rect></g><g class="bar" transform="translate(390,305.22157996146433)"><rect x="1" width="11.999999999999996" height="4.778420038535671"></rect></g><g class="bar" transform="translate(403,309.402697495183)"><rect x="1" width="11.999999999999996" height="0.5973025048169802"></rect></g><g class="bar" transform="translate(416,310)"><rect x="1" width="11.999999999999996" height="0"></rect></g><g class="bar" transform="translate(429.00000000000006,310)"><rect x="1" width="11.999999999999996" height="0"></rect></g><g class="bar" transform="translate(442.00000000000006,310)"><rect x="1" width="11.999999999999996" height="0"></rect></g><g class="bar" transform="translate(455,310)"><rect x="1" width="11.999999999999996" height="0"></rect></g><g class="bar" transform="translate(468,310)"><rect x="1" width="11.999999999999996" height="0"></rect></g><g class="bar" transform="translate(481,310)"><rect x="1" width="11.999999999999996" height="0"></rect></g><g class="bar" transform="translate(494.00000000000006,310)"><rect x="1" width="11.999999999999996" height="0"></rect></g><g class="bar" transform="translate(507.00000000000006,310)"><rect x="1" width="11.999999999999996" height="0"></rect></g><g class="axis axis--x" transform="translate(0,310)" fill="none" font-size="10" font-family="sans-serif" text-anchor="middle"><path class="domain" stroke="#000" d="M0.5,6V0.5H520.5V6"></path><g class="tick" opacity="1" transform="translate(0,0)"><line stroke="#000" y2="6" x1="0.5" x2="0.5"></line><text fill="#000" y="9" x="0.5" dy="0.71em">0.01</text></g><g class="tick" opacity="1" transform="translate(130,0)"><line stroke="#000" y2="6" x1="0.5" x2="0.5"></line><text fill="#000" y="9" x="0.5" dy="0.71em">1</text></g><g class="tick" opacity="1" transform="translate(260,0)"><line stroke="#000" y2="6" x1="0.5" x2="0.5"></line><text fill="#000" y="9" x="0.5" dy="0.71em">100</text></g><g class="tick" opacity="1" transform="translate(390,0)"><line stroke="#000" y2="6" x1="0.5" x2="0.5"></line><text fill="#000" y="9" x="0.5" dy="0.71em">10000</text></g><g class="tick" opacity="1" transform="translate(520,0)"><line stroke="#000" y2="6" x1="0.5" x2="0.5"></line><text fill="#000" y="9" x="0.5" dy="0.71em"></text></g></g><g class="axis axis--y" fill="none" font-size="10" font-family="sans-serif" text-anchor="end"><path class="domain" stroke="#000" d="M-6,310.5H0.5V0.5H-6"></path><g class="tick" opacity="1" transform="translate(0,310)"><line stroke="#000" x2="-6" y1="0.5" y2="0.5"></line><text fill="#000" x="-9" y="0.5" dy="0.32em">0</text></g><g class="tick" opacity="1" transform="translate(0,280.13487475915224)"><line stroke="#000" x2="-6" y1="0.5" y2="0.5"></line><text fill="#000" x="-9" y="0.5" dy="0.32em">50</text></g><g class="tick" opacity="1" transform="translate(0,250.26974951830442)"><line stroke="#000" x2="-6" y1="0.5" y2="0.5"></line><text fill="#000" x="-9" y="0.5" dy="0.32em">100</text></g><g class="tick" opacity="1" transform="translate(0,220.40462427745663)"><line stroke="#000" x2="-6" y1="0.5" y2="0.5"></line><text fill="#000" x="-9" y="0.5" dy="0.32em">150</text></g><g class="tick" opacity="1" transform="translate(0,190.53949903660885)"><line stroke="#000" x2="-6" y1="0.5" y2="0.5"></line><text fill="#000" x="-9" y="0.5" dy="0.32em">200</text></g><g class="tick" opacity="1" transform="translate(0,160.67437379576108)"><line stroke="#000" x2="-6" y1="0.5" y2="0.5"></line><text fill="#000" x="-9" y="0.5" dy="0.32em">250</text></g><g class="tick" opacity="1" transform="translate(0,130.80924855491327)"><line stroke="#000" x2="-6" y1="0.5" y2="0.5"></line><text fill="#000" x="-9" y="0.5" dy="0.32em">300</text></g><g class="tick" opacity="1" transform="translate(0,100.94412331406551)"><line stroke="#000" x2="-6" y1="0.5" y2="0.5"></line><text fill="#000" x="-9" y="0.5" dy="0.32em">350</text></g><g class="tick" opacity="1" transform="translate(0,71.07899807321772)"><line stroke="#000" x2="-6" y1="0.5" y2="0.5"></line><text fill="#000" x="-9" y="0.5" dy="0.32em">400</text></g><g class="tick" opacity="1" transform="translate(0,41.21387283236993)"><line stroke="#000" x2="-6" y1="0.5" y2="0.5"></line><text fill="#000" x="-9" y="0.5" dy="0.32em">450</text></g><g class="tick" opacity="1" transform="translate(0,11.34874759152217)"><line stroke="#000" x2="-6" y1="0.5" y2="0.5"></line><text fill="#000" x="-9" y="0.5" dy="0.32em">500</text></g></g></g></svg>