<svg xmlns="http://www.w3.org/2000/svg" width="600" height="350"><defs><style type="text/css"><![CDATA[ 
.bar rect {
  fill-opacity: 0;
  stroke:       black;
  stroke-width: 0.5;
}

.highlight rect {
  fill:       red;
  fill-opacity: 1;
}
.axis path,
.axis line {
  fill: none;
  stroke: #000;
  shape-rendering: crispEdges;
}
 ]]></style></defs><g transform="translate(50,10)"><g class="bar" transform="translate(0,306.4516129032258)"><rect x="1" width="11.999999999999996" height="3.5483870967742064"></rect></g><g class="bar" transform="translate(12.999999999999996,292.258064516129)"><rect x="1" width="11.999999999999996" height="17.741935483870975"></rect></g><g class="bar" transform="translate(25.999999999999993,287.741935483871)"><rect x="1" width="11.999999999999996" height="22.258064516129025"></rect></g><g class="bar" transform="translate(39.00000000000001,266.4516129032258)"><rect x="1" width="11.999999999999996" height="43.548387096774206"></rect></g><g class="bar" transform="translate(52,235.48387096774195)"><rect x="1" width="11.999999999999996" height="74.51612903225805"></rect></g><g class="bar" transform="translate(65,205.80645161290323)"><rect x="1" width="11.999999999999996" height="104.19354838709677"></rect></g><g class="bar" transform="translate(78.00000000000001,176.4516129032258)"><rect x="1" width="11.999999999999996" height="133.5483870967742"></rect></g><g class="bar" transform="translate(91.00000000000001,167.41935483870967)"><rect x="1" width="11.999999999999996" height="142.58064516129033"></rect></g><g class="bar" transform="translate(104,143.8709677419355)"><rect x="1" width="11.999999999999996" height="166.1290322580645"></rect></g><g class="bar" transform="translate(117,166.1290322580645)"><rect x="1" width="11.999999999999996" height="143.8709677419355"></rect></g><g class="bar" transform="translate(130,157.74193548387098)"><rect x="1" width="11.999999999999996" height="152.25806451612902"></rect></g><g class="bar" transform="translate(143,148.38709677419354)"><rect x="1" width="11.999999999999996" height="161.61290322580646"></rect></g><g class="bar" transform="translate(156.00000000000003,120.64516129032256)"><rect x="1" width="11.999999999999996" height="189.35483870967744"></rect></g><g class="bar" transform="translate(169,104.19354838709677)"><rect x="1" width="11.999999999999996" height="205.80645161290323"></rect></g><g class="bar" transform="translate(182.00000000000003,54.83870967741936)"><rect x="1" width="11.999999999999996" height="255.16129032258064"></rect></g><g class="bar" transform="translate(195,39.0322580645161)"><rect x="1" width="11.999999999999996" height="270.9677419354839"></rect></g><g class="bar" transform="translate(208,17.096774193548356)"><rect x="1" width="11.999999999999996" height="292.90322580645164"></rect></g><g class="bar" transform="translate(221.00000000000003,0)"><rect x="1" width="11.999999999999996" height="310"></rect></g><g class="bar" transform="translate(234,19.032258064516157)"><rect x="1" width="11.999999999999996" height="290.96774193548384"></rect></g><g class="bar" transform="translate(247.00000000000003,62.903225806451616)"><rect x="1" width="11.999999999999996" height="247.09677419354838"></rect></g><g class="bar" transform="translate(260,81.29032258064515)"><rect x="1" width="11.999999999999996" height="228.70967741935485"></rect></g><g class="bar" transform="translate(273,136.7741935483871)"><rect x="1" width="11.999999999999996" height="173.2258064516129"></rect></g><g class="bar" transform="translate(286,174.51612903225805)"><rect x="1" width="11.999999999999996" height="135.48387096774195"></rect></g><g class="bar" transform="translate(299.00000000000006,206.4516129032258)"><rect x="1" width="11.999999999999996" height="103.5483870967742"></rect></g><g class="bar" transform="translate(312.00000000000006,255.16129032258064)"><rect x="1" width="11.999999999999996" height="54.83870967741936"></rect></g><g class="bar" transform="translate(325,285.48387096774195)"><rect x="1" width="11.999999999999996" height="24.51612903225805"></rect></g><g class="bar" transform="translate(338,300.96774193548384)"><rect x="1" width="11.999999999999996" height="9.032258064516157"></rect></g><g class="bar" transform="translate(351,308.06451612903226)"><rect x="1" width="11.999999999999996" height="1.9354838709677438"></rect></g><g class="bar" transform="translate(364.00000000000006,309.03225806451616)"><rect x="1" width="11.999999999999996" height="0.9677419354838435"></rect></g><g class="bar" transform="translate(377.00000000000006,310)"><rect x="1" width="11.999999999999996" height="0"></rect></g><g class="bar" transform="translate(390,309.6774193548387)"><rect x="1" width="11.999999999999996" height="0.32258064516128115"></rect></g><g class="bar" transform="translate(403,310)"><rect x="1" width="11.999999999999996" height="0"></rect></g><g class="bar" transform="translate(416,310)"><rect x="1" width="11.999999999999996" height="0"></rect></g><g class="bar" transform="translate(429.00000000000006,310)"><rect x="1" width="11.999999999999996" height="0"></rect></g><g class="bar" transform="translate(442.00000000000006,310)"><rect x="1" width="11.999999999999996" height="0"></rect></g><g class="bar" transform="translate(455,310)"><rect x="1" width="11.999999999999996" height="0"></rect></g><g class="bar" transform="translate(468,310)"><rect x="1" width="11.999999999999996" height="0"></rect></g><g class="bar" transform="translate(481,310)"><rect x="1" width="11.999999999999996" height="0"></rect></g><g class="bar" transform="translate(494.00000000000006,310)"><rect x="1" width="11.999999999999996" height="0"></rect></g><g class="bar" transform="translate(507.00000000000006,310)"><rect x="1" width="11.999999999999996" height="0"></rect></g><g class="axis axis--x" transform="translate(0,310)" fill="none" font-size="10" font-family="sans-serif" text-anchor="middle"><path class="domain" stroke="#000" d="M0.5,6V0.5H520.5V6"></path><g class="tick" opacity="1" transform="translate(0,0)"><line stroke="#000" y2="6" x1="0.5" x2="0.5"></line><text fill="#000" y="9" x="0.5" dy="0.71em">0.01</text></g><g class="tick" opacity="1" transform="translate(130,0)"><line stroke="#000" y2="6" x1="0.5" x2="0.5"></line><text fill="#000" y="9" x="0.5" dy="0.71em">1</text></g><g class="tick" opacity="1" transform="translate(260,0)"><line stroke="#000" y2="6" x1="0.5" x2="0.5"></line><text fill="#000" y="9" x="0.5" dy="0.71em">100</text></g><g class="tick" opacity="1" transform="translate(390,0)"><line stroke="#000" y2="6" x1="0.5" x2="0.5"></line><text fill="#000" y="9" x="0.5" dy="0.71em">10000</text></g><g class="tick" opacity="1" transform="translate(520,0)"><line stroke="#000" y2="6" x1="0.5" x2="0.5"></line><text fill="#000" y="9" x="0.5" dy="0.71em"></text></g></g><g class="axis axis--y" fill="none" font-size="10" font-family="sans-serif" text-anchor="end"><path class="domain" stroke="#000" d="M-6,310.5H0.5V0.5H-6"></path><g class="tick" opacity="1" transform="translate(0,310)"><line stroke="#000" x2="-6" y1="0.5" y2="0.5"></line><text fill="#000" x="-9" y="0.5" dy="0.32em">0</text></g><g class="tick" opacity="1" transform="translate(0,277.741935483871)"><line stroke="#000" x2="-6" y1="0.5" y2="0.5"></line><text fill="#000" x="-9" y="0.5" dy="0.32em">100</text></g><g class="tick" opacity="1" transform="translate(0,245.48387096774195)"><line stroke="#000" x2="-6" y1="0.5" y2="0.5"></line><text fill="#000" x="-9" y="0.5" dy="0.32em">200</text></g><g class="tick" opacity="1" transform="translate(0,213.22580645161293)"><line stroke="#000" x2="-6" y1="0.5" y2="0.5"></line><text fill="#000" x="-9" y="0.5" dy="0.32em">300</text></g><g class="tick" opacity="1" transform="translate(0,180.96774193548387)"><line stroke="#000" x2="-6" y1="0.5" y2="0.5"></line><text fill="#000" x="-9" y="0.5" dy="0.32em">400</text></g><g class="tick" opacity="1" transform="translate(0,148.70967741935485)"><line stroke="#000" x2="-6" y1="0.5" y2="0.5"></line><text fill="#000" x="-9" y="0.5" dy="0.32em">500</text></g><g class="tick" opacity="1" transform="translate(0,116.45161290322582)"><line stroke="#000" x2="-6" y1="0.5" y2="0.5"></line><text fill="#000" x="-9" y="0.5" dy="0.32em">600</text></g><g class="tick" opacity="1" transform="translate(0,84.1935483870968)"><line stroke="#000" x2="-6" y1="0.5" y2="0.5"></line><text fill="#000" x="-9" y="0.5" dy="0.32em">700</text></g><g class="tick" opacity="1" transform="translate(0,51.935483870967744)"><line stroke="#000" x2="-6" y1="0.5" y2="0.5"></line><text fill="#000" x="-9" y="0.5" dy="0.32em">800</text></g><g class="tick" opacity="1" transform="translate(0,19.67741935483872)"><line stroke="#000" x2="-6" y1="0.5" y2="0.5"></line><text fill="#000" x="-9" y="0.5" dy="0.32em">900</text></g></g></g></svg>