<svg xmlns="http://www.w3.org/2000/svg" width="600" height="350"><defs><style type="text/css"><![CDATA[ 
.bar rect {
  fill-opacity: 0;
  stroke:       black;
  stroke-width: 0.5;
}

.highlight rect {
  fill:       red;
  fill-opacity: 1;
}
.axis path,
.axis line {
  fill: none;
  stroke: #000;
  shape-rendering: crispEdges;
}
 ]]></style></defs><g transform="translate(50,10)"><g class="bar" transform="translate(0,310)"><rect x="1" width="11.999999999999996" height="0"></rect></g><g class="bar" transform="translate(12.999999999999996,310)"><rect x="1" width="11.999999999999996" height="0"></rect></g><g class="bar" transform="translate(25.999999999999993,310)"><rect x="1" width="11.999999999999996" height="0"></rect></g><g class="bar" transform="translate(39.00000000000001,310)"><rect x="1" width="11.999999999999996" height="0"></rect></g><g class="bar" transform="translate(52,309.1292134831461)"><rect x="1" width="11.999999999999996" height="0.8707865168539115"></rect></g><g class="bar" transform="translate(65,303.03370786516854)"><rect x="1" width="11.999999999999996" height="6.966292134831463"></rect></g><g class="bar" transform="translate(78.00000000000001,281.26404494382024)"><rect x="1" width="11.999999999999996" height="28.735955056179762"></rect></g><g class="bar" transform="translate(91.00000000000001,265.58988764044943)"><rect x="1" width="11.999999999999996" height="44.41011235955057"></rect></g><g class="bar" transform="translate(104,209.85955056179773)"><rect x="1" width="11.999999999999996" height="100.14044943820227"></rect></g><g class="bar" transform="translate(117,180.25280898876403)"><rect x="1" width="11.999999999999996" height="129.74719101123597"></rect></g><g class="bar" transform="translate(130,148.90449438202248)"><rect x="1" width="11.999999999999996" height="161.09550561797752"></rect></g><g class="bar" transform="translate(143,142.80898876404495)"><rect x="1" width="11.999999999999996" height="167.19101123595505"></rect></g><g class="bar" transform="translate(156.00000000000003,62.69662921348316)"><rect x="1" width="11.999999999999996" height="247.30337078651684"></rect></g><g class="bar" transform="translate(169,45.28089887640448)"><rect x="1" width="11.999999999999996" height="264.7191011235955"></rect></g><g class="bar" transform="translate(182.00000000000003,22.64044943820221)"><rect x="1" width="11.999999999999996" height="287.3595505617978"></rect></g><g class="bar" transform="translate(195,0)"><rect x="1" width="11.999999999999996" height="310"></rect></g><g class="bar" transform="translate(208,45.28089887640448)"><rect x="1" width="11.999999999999996" height="264.7191011235955"></rect></g><g class="bar" transform="translate(221.00000000000003,42.66853932584269)"><rect x="1" width="11.999999999999996" height="267.3314606741573"></rect></g><g class="bar" transform="translate(234,54.85955056179776)"><rect x="1" width="11.999999999999996" height="255.14044943820224"></rect></g><g class="bar" transform="translate(247.00000000000003,62.69662921348316)"><rect x="1" width="11.999999999999996" height="247.30337078651684"></rect></g><g class="bar" transform="translate(260,108.84831460674158)"><rect x="1" width="11.999999999999996" height="201.15168539325842"></rect></g><g class="bar" transform="translate(273,138.45505617977528)"><rect x="1" width="11.999999999999996" height="171.54494382022472"></rect></g><g class="bar" transform="translate(286,162.8370786516854)"><rect x="1" width="11.999999999999996" height="147.1629213483146"></rect></g><g class="bar" transform="translate(299.00000000000006,199.41011235955057)"><rect x="1" width="11.999999999999996" height="110.58988764044943"></rect></g><g class="bar" transform="translate(312.00000000000006,205.5056179775281)"><rect x="1" width="11.999999999999996" height="104.49438202247191"></rect></g><g class="bar" transform="translate(325,259.4943820224719)"><rect x="1" width="11.999999999999996" height="50.50561797752812"></rect></g><g class="bar" transform="translate(338,273.4269662921348)"><rect x="1" width="11.999999999999996" height="36.57303370786519"></rect></g><g class="bar" transform="translate(351,276.0393258426966)"><rect x="1" width="11.999999999999996" height="33.9606741573034"></rect></g><g class="bar" transform="translate(364.00000000000006,297.80898876404495)"><rect x="1" width="11.999999999999996" height="12.191011235955045"></rect></g><g class="bar" transform="translate(377.00000000000006,297.80898876404495)"><rect x="1" width="11.999999999999996" height="12.191011235955045"></rect></g><g class="bar" transform="translate(390,305.64606741573033)"><rect x="1" width="11.999999999999996" height="4.353932584269671"></rect></g><g class="bar" transform="translate(403,309.1292134831461)"><rect x="1" width="11.999999999999996" height="0.8707865168539115"></rect></g><g class="bar" transform="translate(416,308.2584269662921)"><rect x="1" width="11.999999999999996" height="1.7415730337078799"></rect></g><g class="bar" transform="translate(429.00000000000006,309.1292134831461)"><rect x="1" width="11.999999999999996" height="0.8707865168539115"></rect></g><g class="bar" transform="translate(442.00000000000006,310)"><rect x="1" width="11.999999999999996" height="0"></rect></g><g class="bar" transform="translate(455,310)"><rect x="1" width="11.999999999999996" height="0"></rect></g><g class="bar" transform="translate(468,310)"><rect x="1" width="11.999999999999996" height="0"></rect></g><g class="bar" transform="translate(481,310)"><rect x="1" width="11.999999999999996" height="0"></rect></g><g class="bar" transform="translate(494.00000000000006,310)"><rect x="1" width="11.999999999999996" height="0"></rect></g><g class="bar" transform="translate(507.00000000000006,310)"><rect x="1" width="11.999999999999996" height="0"></rect></g><g class="axis axis--x" transform="translate(0,310)" fill="none" font-size="10" font-family="sans-serif" text-anchor="middle"><path class="domain" stroke="#000" d="M0.5,6V0.5H520.5V6"></path><g class="tick" opacity="1" transform="translate(0,0)"><line stroke="#000" y2="6" x1="0.5" x2="0.5"></line><text fill="#000" y="9" x="0.5" dy="0.71em">0.01</text></g><g class="tick" opacity="1" transform="translate(130,0)"><line stroke="#000" y2="6" x1="0.5" x2="0.5"></line><text fill="#000" y="9" x="0.5" dy="0.71em">1</text></g><g class="tick" opacity="1" transform="translate(260,0)"><line stroke="#000" y2="6" x1="0.5" x2="0.5"></line><text fill="#000" y="9" x="0.5" dy="0.71em">100</text></g><g class="tick" opacity="1" transform="translate(390,0)"><line stroke="#000" y2="6" x1="0.5" x2="0.5"></line><text fill="#000" y="9" x="0.5" dy="0.71em">10000</text></g><g class="tick" opacity="1" transform="translate(520,0)"><line stroke="#000" y2="6" x1="0.5" x2="0.5"></line><text fill="#000" y="9" x="0.5" dy="0.71em"></text></g></g><g class="axis axis--y" fill="none" font-size="10" font-family="sans-serif" text-anchor="end"><path class="domain" stroke="#000" d="M-6,310.5H0.5V0.5H-6"></path><g class="tick" opacity="1" transform="translate(0,310)"><line stroke="#000" x2="-6" y1="0.5" y2="0.5"></line><text fill="#000" x="-9" y="0.5" dy="0.32em">0</text></g><g class="tick" opacity="1" transform="translate(0,266.46067415730334)"><line stroke="#000" x2="-6" y1="0.5" y2="0.5"></line><text fill="#000" x="-9" y="0.5" dy="0.32em">50</text></g><g class="tick" opacity="1" transform="translate(0,222.92134831460675)"><line stroke="#000" x2="-6" y1="0.5" y2="0.5"></line><text fill="#000" x="-9" y="0.5" dy="0.32em">100</text></g><g class="tick" opacity="1" transform="translate(0,179.38202247191012)"><line stroke="#000" x2="-6" y1="0.5" y2="0.5"></line><text fill="#000" x="-9" y="0.5" dy="0.32em">150</text></g><g class="tick" opacity="1" transform="translate(0,135.84269662921346)"><line stroke="#000" x2="-6" y1="0.5" y2="0.5"></line><text fill="#000" x="-9" y="0.5" dy="0.32em">200</text></g><g class="tick" opacity="1" transform="translate(0,92.30337078651684)"><line stroke="#000" x2="-6" y1="0.5" y2="0.5"></line><text fill="#000" x="-9" y="0.5" dy="0.32em">250</text></g><g class="tick" opacity="1" transform="translate(0,48.76404494382024)"><line stroke="#000" x2="-6" y1="0.5" y2="0.5"></line><text fill="#000" x="-9" y="0.5" dy="0.32em">300</text></g><g class="tick" opacity="1" transform="translate(0,5.224719101123583)"><line stroke="#000" x2="-6" y1="0.5" y2="0.5"></line><text fill="#000" x="-9" y="0.5" dy="0.32em">350</text></g></g></g></svg>