<svg xmlns="http://www.w3.org/2000/svg" width="280" height="160"><defs><style type="text/css"><![CDATA[ 
.bar rect {
  fill-opacity: 0;
  stroke:       black;
  stroke-width: 0.5;
}

.highlight rect {
  fill:       red;
  fill-opacity: 1;
}
.axis path,
.axis line {
  fill: none;
  stroke: #000;
  shape-rendering: crispEdges;
}
 ]]></style></defs><g transform="translate(50,10)"><g class="bar" transform="translate(0,119.18128654970761)"><rect x="1" width="11.5" height="0.8187134502923925"></rect></g><g class="bar" transform="translate(12.5,115.32163742690058)"><rect x="1" width="11.5" height="4.67836257309942"></rect></g><g class="bar" transform="translate(25,100.23391812865498)"><rect x="1" width="11.5" height="19.766081871345023"></rect></g><g class="bar" transform="translate(37.5,69.12280701754386)"><rect x="1" width="11.5" height="50.87719298245614"></rect></g><g class="bar" transform="translate(50,34.736842105263165)"><rect x="1" width="11.5" height="85.26315789473684"></rect></g><g class="bar" transform="translate(62.5,3.391812865497073)"><rect x="1" width="11.5" height="116.60818713450293"></rect></g><g class="bar" transform="translate(75,0)"><rect x="1" width="11.5" height="120"></rect></g><g class="bar" transform="translate(87.5,21.403508771929822)"><rect x="1" width="11.5" height="98.59649122807018"></rect></g><g class="bar" transform="translate(100,56.02339181286549)"><rect x="1" width="11.5" height="63.97660818713451"></rect></g><g class="bar" transform="translate(112.5,82.57309941520468)"><rect x="1" width="11.5" height="37.42690058479532"></rect></g><g class="bar" transform="translate(125,103.04093567251462)"><rect x="1" width="11.5" height="16.95906432748538"></rect></g><g class="bar" transform="translate(137.5,114.15204678362574)"><rect x="1" width="11.5" height="5.847953216374265"></rect></g><g class="bar" transform="translate(150,119.29824561403508)"><rect x="1" width="11.5" height="0.701754385964918"></rect></g><g class="bar" transform="translate(162.5,120)"><rect x="1" width="11.5" height="0"></rect></g><g class="bar" transform="translate(175,120)"><rect x="1" width="11.5" height="0"></rect></g><g class="bar" transform="translate(187.5,120)"><rect x="1" width="11.5" height="0"></rect></g></g></svg>