<svg xmlns="http://www.w3.org/2000/svg" width="600" height="350"><defs><style type="text/css"><![CDATA[ 
.bar rect {
  fill-opacity: 0;
  stroke:       black;
  stroke-width: 0.5;
}

.highlight rect {
  fill:       red;
  fill-opacity: 1;
}
.axis path,
.axis line {
  fill: none;
  stroke: #000;
  shape-rendering: crispEdges;
}
 ]]></style></defs><g transform="translate(50,10)"><g class="bar" transform="translate(0,310)"><rect x="1" width="11.999999999999996" height="0"></rect></g><g class="bar" transform="translate(12.999999999999996,310)"><rect x="1" width="11.999999999999996" height="0"></rect></g><g class="bar" transform="translate(25.999999999999993,310)"><rect x="1" width="11.999999999999996" height="0"></rect></g><g class="bar" transform="translate(39.00000000000001,310)"><rect x="1" width="11.999999999999996" height="0"></rect></g><g class="bar" transform="translate(52,309.4183864915572)"><rect x="1" width="11.999999999999996" height="0.5816135084427856"></rect></g><g class="bar" transform="translate(65,310)"><rect x="1" width="11.999999999999996" height="0"></rect></g><g class="bar" transform="translate(78.00000000000001,308.83677298311443)"><rect x="1" width="11.999999999999996" height="1.1632270168855712"></rect></g><g class="bar" transform="translate(91.00000000000001,307.09193245778613)"><rect x="1" width="11.999999999999996" height="2.908067542213871"></rect></g><g class="bar" transform="translate(104,300.1125703564728)"><rect x="1" width="11.999999999999996" height="9.887429643527184"></rect></g><g class="bar" transform="translate(117,290.80675422138836)"><rect x="1" width="11.999999999999996" height="19.19324577861164"></rect></g><g class="bar" transform="translate(130,246.60412757973734)"><rect x="1" width="11.999999999999996" height="63.39587242026266"></rect></g><g class="bar" transform="translate(143,175.64727954971858)"><rect x="1" width="11.999999999999996" height="134.35272045028142"></rect></g><g class="bar" transform="translate(156.00000000000003,82.58911819887427)"><rect x="1" width="11.999999999999996" height="227.41088180112573"></rect></g><g class="bar" transform="translate(169,45.94746716697932)"><rect x="1" width="11.999999999999996" height="264.0525328330207"></rect></g><g class="bar" transform="translate(182.00000000000003,0)"><rect x="1" width="11.999999999999996" height="310"></rect></g><g class="bar" transform="translate(195,22.682926829268297)"><rect x="1" width="11.999999999999996" height="287.3170731707317"></rect></g><g class="bar" transform="translate(208,18.611632270168855)"><rect x="1" width="11.999999999999996" height="291.38836772983115"></rect></g><g class="bar" transform="translate(221.00000000000003,23.264540337711082)"><rect x="1" width="11.999999999999996" height="286.7354596622889"></rect></g><g class="bar" transform="translate(234,39.54971857410885)"><rect x="1" width="11.999999999999996" height="270.45028142589115"></rect></g><g class="bar" transform="translate(247.00000000000003,84.33395872420263)"><rect x="1" width="11.999999999999996" height="225.66604127579737"></rect></g><g class="bar" transform="translate(260,86.07879924953093)"><rect x="1" width="11.999999999999996" height="223.92120075046907"></rect></g><g class="bar" transform="translate(273,120.97560975609755)"><rect x="1" width="11.999999999999996" height="189.02439024390245"></rect></g><g class="bar" transform="translate(286,147.1482176360225)"><rect x="1" width="11.999999999999996" height="162.8517823639775"></rect></g><g class="bar" transform="translate(299.00000000000006,204.7279549718574)"><rect x="1" width="11.999999999999996" height="105.2720450281426"></rect></g><g class="bar" transform="translate(312.00000000000006,232.06378986866793)"><rect x="1" width="11.999999999999996" height="77.93621013133207"></rect></g><g class="bar" transform="translate(325,258.81801125703566)"><rect x="1" width="11.999999999999996" height="51.181988742964336"></rect></g><g class="bar" transform="translate(338,266.37898686679176)"><rect x="1" width="11.999999999999996" height="43.62101313320824"></rect></g><g class="bar" transform="translate(351,284.9906191369606)"><rect x="1" width="11.999999999999996" height="25.009380863039382"></rect></g><g class="bar" transform="translate(364.00000000000006,304.765478424015)"><rect x="1" width="11.999999999999996" height="5.234521575985013"></rect></g><g class="bar" transform="translate(377.00000000000006,307.09193245778613)"><rect x="1" width="11.999999999999996" height="2.908067542213871"></rect></g><g class="bar" transform="translate(390,309.4183864915572)"><rect x="1" width="11.999999999999996" height="0.5816135084427856"></rect></g><g class="bar" transform="translate(403,310)"><rect x="1" width="11.999999999999996" height="0"></rect></g><g class="bar" transform="translate(416,309.4183864915572)"><rect x="1" width="11.999999999999996" height="0.5816135084427856"></rect></g><g class="bar" transform="translate(429.00000000000006,310)"><rect x="1" width="11.999999999999996" height="0"></rect></g><g class="bar" transform="translate(442.00000000000006,310)"><rect x="1" width="11.999999999999996" height="0"></rect></g><g class="bar" transform="translate(455,310)"><rect x="1" width="11.999999999999996" height="0"></rect></g><g class="bar" transform="translate(468,310)"><rect x="1" width="11.999999999999996" height="0"></rect></g><g class="bar" transform="translate(481,310)"><rect x="1" width="11.999999999999996" height="0"></rect></g><g class="bar" transform="translate(494.00000000000006,310)"><rect x="1" width="11.999999999999996" height="0"></rect></g><g class="bar" transform="translate(507.00000000000006,310)"><rect x="1" width="11.999999999999996" height="0"></rect></g><g class="axis axis--x" transform="translate(0,310)" fill="none" font-size="10" font-family="sans-serif" text-anchor="middle"><path class="domain" stroke="#000" d="M0.5,6V0.5H520.5V6"></path><g class="tick" opacity="1" transform="translate(0,0)"><line stroke="#000" y2="6" x1="0.5" x2="0.5"></line><text fill="#000" y="9" x="0.5" dy="0.71em">0.01</text></g><g class="tick" opacity="1" transform="translate(130,0)"><line stroke="#000" y2="6" x1="0.5" x2="0.5"></line><text fill="#000" y="9" x="0.5" dy="0.71em">1</text></g><g class="tick" opacity="1" transform="translate(260,0)"><line stroke="#000" y2="6" x1="0.5" x2="0.5"></line><text fill="#000" y="9" x="0.5" dy="0.71em">100</text></g><g class="tick" opacity="1" transform="translate(390,0)"><line stroke="#000" y2="6" x1="0.5" x2="0.5"></line><text fill="#000" y="9" x="0.5" dy="0.71em">10000</text></g><g class="tick" opacity="1" transform="translate(520,0)"><line stroke="#000" y2="6" x1="0.5" x2="0.5"></line><text fill="#000" y="9" x="0.5" dy="0.71em"></text></g></g><g class="axis axis--y" fill="none" font-size="10" font-family="sans-serif" text-anchor="end"><path class="domain" stroke="#000" d="M-6,310.5H0.5V0.5H-6"></path><g class="tick" opacity="1" transform="translate(0,310)"><line stroke="#000" x2="-6" y1="0.5" y2="0.5"></line><text fill="#000" x="-9" y="0.5" dy="0.32em">0</text></g><g class="tick" opacity="1" transform="translate(0,280.9193245778612)"><line stroke="#000" x2="-6" y1="0.5" y2="0.5"></line><text fill="#000" x="-9" y="0.5" dy="0.32em">50</text></g><g class="tick" opacity="1" transform="translate(0,251.83864915572232)"><line stroke="#000" x2="-6" y1="0.5" y2="0.5"></line><text fill="#000" x="-9" y="0.5" dy="0.32em">100</text></g><g class="tick" opacity="1" transform="translate(0,222.75797373358347)"><line stroke="#000" x2="-6" y1="0.5" y2="0.5"></line><text fill="#000" x="-9" y="0.5" dy="0.32em">150</text></g><g class="tick" opacity="1" transform="translate(0,193.67729831144464)"><line stroke="#000" x2="-6" y1="0.5" y2="0.5"></line><text fill="#000" x="-9" y="0.5" dy="0.32em">200</text></g><g class="tick" opacity="1" transform="translate(0,164.59662288930582)"><line stroke="#000" x2="-6" y1="0.5" y2="0.5"></line><text fill="#000" x="-9" y="0.5" dy="0.32em">250</text></g><g class="tick" opacity="1" transform="translate(0,135.51594746716697)"><line stroke="#000" x2="-6" y1="0.5" y2="0.5"></line><text fill="#000" x="-9" y="0.5" dy="0.32em">300</text></g><g class="tick" opacity="1" transform="translate(0,106.43527204502814)"><line stroke="#000" x2="-6" y1="0.5" y2="0.5"></line><text fill="#000" x="-9" y="0.5" dy="0.32em">350</text></g><g class="tick" opacity="1" transform="translate(0,77.35459662288932)"><line stroke="#000" x2="-6" y1="0.5" y2="0.5"></line><text fill="#000" x="-9" y="0.5" dy="0.32em">400</text></g><g class="tick" opacity="1" transform="translate(0,48.273921200750465)"><line stroke="#000" x2="-6" y1="0.5" y2="0.5"></line><text fill="#000" x="-9" y="0.5" dy="0.32em">450</text></g><g class="tick" opacity="1" transform="translate(0,19.19324577861164)"><line stroke="#000" x2="-6" y1="0.5" y2="0.5"></line><text fill="#000" x="-9" y="0.5" dy="0.32em">500</text></g></g></g></svg>