<svg xmlns="http://www.w3.org/2000/svg" width="280" height="160"><defs><style type="text/css"><![CDATA[ 
.bar rect {
  fill-opacity: 0;
  stroke:       black;
  stroke-width: 0.5;
}

.highlight rect {
  fill:       red;
  fill-opacity: 1;
}
.axis path,
.axis line {
  fill: none;
  stroke: #000;
  shape-rendering: crispEdges;
}
path {
    stroke: red;
    fill: none;
}

line {
    stroke: red;
}

path.marker {
    fill: red;
}
 ]]></style></defs><g transform="translate(50,10)"><g class="bar" transform="translate(0,120)"><rect x="1" width="11.5" height="0"></rect></g><g class="bar" transform="translate(12.5,118.45824411134903)"><rect x="1" width="11.5" height="1.5417558886509681"></rect></g><g class="bar" transform="translate(25,115.88865096359743)"><rect x="1" width="11.5" height="4.111349036402572"></rect></g><g class="bar" transform="translate(37.5,107.92291220556746)"><rect x="1" width="11.5" height="12.077087794432543"></rect></g><g class="bar" transform="translate(50,93.53319057815845)"><rect x="1" width="11.5" height="26.466809421841546"></rect></g><g class="bar" transform="translate(62.5,62.441113490364025)"><rect x="1" width="11.5" height="57.558886509635975"></rect></g><g class="bar" transform="translate(75,30.32119914346896)"><rect x="1" width="11.5" height="89.67880085653104"></rect></g><g class="bar" transform="translate(87.5,8.736616702355462)"><rect x="1" width="11.5" height="111.26338329764454"></rect></g><g class="bar" transform="translate(100,0)"><rect x="1" width="11.5" height="120"></rect></g><g class="bar" transform="translate(112.5,23.897216274089928)"><rect x="1" width="11.5" height="96.10278372591007"></rect></g><g class="bar" transform="translate(125,76.83083511777302)"><rect x="1" width="11.5" height="43.16916488222698"></rect></g><g class="bar" transform="translate(137.5,104.58244111349036)"><rect x="1" width="11.5" height="15.417558886509639"></rect></g><g class="bar" transform="translate(150,118.71520342612419)"><rect x="1" width="11.5" height="1.2847965738758091"></rect></g><g class="bar" transform="translate(162.5,120)"><rect x="1" width="11.5" height="0"></rect></g><g class="bar" transform="translate(175,120)"><rect x="1" width="11.5" height="0"></rect></g><g class="bar" transform="translate(187.5,120)"><rect x="1" width="11.5" height="0"></rect></g></g></svg>