<svg xmlns="http://www.w3.org/2000/svg" width="280" height="160"><defs><style type="text/css"><![CDATA[ 
.bar rect {
  fill-opacity: 0;
  stroke:       black;
  stroke-width: 0.5;
}

.highlight rect {
  fill:       red;
  fill-opacity: 1;
}
.axis path,
.axis line {
  fill: none;
  stroke: #000;
  shape-rendering: crispEdges;
}
path {
    stroke: red;
    fill: none;
}

line {
    stroke: red;
}

path.marker {
    fill: red;
}
 ]]></style></defs><g transform="translate(50,10)"><g class="bar" transform="translate(0,120)"><rect x="1" width="11.5" height="0"></rect></g><g class="bar" transform="translate(12.5,120)"><rect x="1" width="11.5" height="0"></rect></g><g class="bar" transform="translate(25,118.59512195121951)"><rect x="1" width="11.5" height="1.404878048780489"></rect></g><g class="bar" transform="translate(37.5,117.19024390243902)"><rect x="1" width="11.5" height="2.809756097560978"></rect></g><g class="bar" transform="translate(50,106.06829268292682)"><rect x="1" width="11.5" height="13.931707317073176"></rect></g><g class="bar" transform="translate(62.5,69.19024390243902)"><rect x="1" width="11.5" height="50.80975609756098"></rect></g><g class="bar" transform="translate(75,23.297560975609755)"><rect x="1" width="11.5" height="96.70243902439024"></rect></g><g class="bar" transform="translate(87.5,0)"><rect x="1" width="11.5" height="120"></rect></g><g class="bar" transform="translate(100,23.297560975609755)"><rect x="1" width="11.5" height="96.70243902439024"></rect></g><g class="bar" transform="translate(112.5,75.0439024390244)"><rect x="1" width="11.5" height="44.95609756097561"></rect></g><g class="bar" transform="translate(125,106.53658536585365)"><rect x="1" width="11.5" height="13.463414634146346"></rect></g><g class="bar" transform="translate(137.5,116.37073170731708)"><rect x="1" width="11.5" height="3.629268292682923"></rect></g><g class="bar" transform="translate(150,119.53170731707317)"><rect x="1" width="11.5" height="0.4682926829268297"></rect></g><g class="bar" transform="translate(162.5,119.64878048780488)"><rect x="1" width="11.5" height="0.35121951219511516"></rect></g><g class="bar" transform="translate(175,120)"><rect x="1" width="11.5" height="0"></rect></g><g class="bar" transform="translate(187.5,120)"><rect x="1" width="11.5" height="0"></rect></g></g></svg>