<svg xmlns="http://www.w3.org/2000/svg" width="280" height="160"><defs><style type="text/css"><![CDATA[ 
.bar rect {
  fill-opacity: 0;
  stroke:       black;
  stroke-width: 0.5;
}

.highlight rect {
  fill:       red;
  fill-opacity: 1;
}
.axis path,
.axis line {
  fill: none;
  stroke: #000;
  shape-rendering: crispEdges;
}
 ]]></style></defs><g transform="translate(50,10)"><g class="bar" transform="translate(0,120)"><rect x="1" width="11.5" height="0"></rect></g><g class="bar" transform="translate(12.5,120)"><rect x="1" width="11.5" height="0"></rect></g><g class="bar" transform="translate(25,119.09604519774011)"><rect x="1" width="11.5" height="0.9039548022598893"></rect></g><g class="bar" transform="translate(37.5,114.80225988700565)"><rect x="1" width="11.5" height="5.197740112994353"></rect></g><g class="bar" transform="translate(50,95.14124293785311)"><rect x="1" width="11.5" height="24.858757062146893"></rect></g><g class="bar" transform="translate(62.5,64.18079096045197)"><rect x="1" width="11.5" height="55.81920903954803"></rect></g><g class="bar" transform="translate(75,38.64406779661017)"><rect x="1" width="11.5" height="81.35593220338983"></rect></g><g class="bar" transform="translate(87.5,6.779661016949163)"><rect x="1" width="11.5" height="113.22033898305084"></rect></g><g class="bar" transform="translate(100,0)"><rect x="1" width="11.5" height="120"></rect></g><g class="bar" transform="translate(112.5,28.0225988700565)"><rect x="1" width="11.5" height="91.9774011299435"></rect></g><g class="bar" transform="translate(125,74.80225988700565)"><rect x="1" width="11.5" height="45.19774011299435"></rect></g><g class="bar" transform="translate(137.5,111.41242937853107)"><rect x="1" width="11.5" height="8.587570621468927"></rect></g><g class="bar" transform="translate(150,118.4180790960452)"><rect x="1" width="11.5" height="1.5819209039547957"></rect></g><g class="bar" transform="translate(162.5,120)"><rect x="1" width="11.5" height="0"></rect></g><g class="bar" transform="translate(175,120)"><rect x="1" width="11.5" height="0"></rect></g><g class="bar" transform="translate(187.5,120)"><rect x="1" width="11.5" height="0"></rect></g></g></svg>