<svg xmlns="http://www.w3.org/2000/svg" width="600" height="350"><defs><style type="text/css"><![CDATA[ 
.bar rect {
  fill-opacity: 0;
  stroke:       black;
  stroke-width: 0.5;
}

.highlight rect {
  fill:       red;
  fill-opacity: 1;
}
.axis path,
.axis line {
  fill: none;
  stroke: #000;
  shape-rendering: crispEdges;
}
 ]]></style></defs><g transform="translate(50,10)"><g class="bar" transform="translate(0,310)"><rect x="1" width="11.999999999999996" height="0"></rect></g><g class="bar" transform="translate(12.999999999999996,310)"><rect x="1" width="11.999999999999996" height="0"></rect></g><g class="bar" transform="translate(25.999999999999993,310)"><rect x="1" width="11.999999999999996" height="0"></rect></g><g class="bar" transform="translate(39.00000000000001,310)"><rect x="1" width="11.999999999999996" height="0"></rect></g><g class="bar" transform="translate(52,310)"><rect x="1" width="11.999999999999996" height="0"></rect></g><g class="bar" transform="translate(65,308.66379310344826)"><rect x="1" width="11.999999999999996" height="1.3362068965517437"></rect></g><g class="bar" transform="translate(78.00000000000001,308.66379310344826)"><rect x="1" width="11.999999999999996" height="1.3362068965517437"></rect></g><g class="bar" transform="translate(91.00000000000001,301.98275862068965)"><rect x="1" width="11.999999999999996" height="8.017241379310349"></rect></g><g class="bar" transform="translate(104,299.3103448275862)"><rect x="1" width="11.999999999999996" height="10.68965517241378"></rect></g><g class="bar" transform="translate(117,295.30172413793105)"><rect x="1" width="11.999999999999996" height="14.698275862068954"></rect></g><g class="bar" transform="translate(130,277.9310344827586)"><rect x="1" width="11.999999999999996" height="32.068965517241395"></rect></g><g class="bar" transform="translate(143,244.52586206896552)"><rect x="1" width="11.999999999999996" height="65.47413793103448"></rect></g><g class="bar" transform="translate(156.00000000000003,213.79310344827587)"><rect x="1" width="11.999999999999996" height="96.20689655172413"></rect></g><g class="bar" transform="translate(169,184.39655172413794)"><rect x="1" width="11.999999999999996" height="125.60344827586206"></rect></g><g class="bar" transform="translate(182.00000000000003,152.32758620689657)"><rect x="1" width="11.999999999999996" height="157.67241379310343"></rect></g><g class="bar" transform="translate(195,149.65517241379308)"><rect x="1" width="11.999999999999996" height="160.34482758620692"></rect></g><g class="bar" transform="translate(208,101.55172413793102)"><rect x="1" width="11.999999999999996" height="208.44827586206898"></rect></g><g class="bar" transform="translate(221.00000000000003,80.17241379310343)"><rect x="1" width="11.999999999999996" height="229.82758620689657"></rect></g><g class="bar" transform="translate(234,37.413793103448256)"><rect x="1" width="11.999999999999996" height="272.58620689655174"></rect></g><g class="bar" transform="translate(247.00000000000003,30.73275862068965)"><rect x="1" width="11.999999999999996" height="279.26724137931035"></rect></g><g class="bar" transform="translate(260,32.068965517241395)"><rect x="1" width="11.999999999999996" height="277.9310344827586"></rect></g><g class="bar" transform="translate(273,0)"><rect x="1" width="11.999999999999996" height="310"></rect></g><g class="bar" transform="translate(286,73.4913793103448)"><rect x="1" width="11.999999999999996" height="236.5086206896552"></rect></g><g class="bar" transform="translate(299.00000000000006,66.81034482758622)"><rect x="1" width="11.999999999999996" height="243.18965517241378"></rect></g><g class="bar" transform="translate(312.00000000000006,124.26724137931035)"><rect x="1" width="11.999999999999996" height="185.73275862068965"></rect></g><g class="bar" transform="translate(325,188.4051724137931)"><rect x="1" width="11.999999999999996" height="121.59482758620689"></rect></g><g class="bar" transform="translate(338,189.74137931034483)"><rect x="1" width="11.999999999999996" height="120.25862068965517"></rect></g><g class="bar" transform="translate(351,265.9051724137931)"><rect x="1" width="11.999999999999996" height="44.09482758620692"></rect></g><g class="bar" transform="translate(364.00000000000006,288.62068965517244)"><rect x="1" width="11.999999999999996" height="21.37931034482756"></rect></g><g class="bar" transform="translate(377.00000000000006,299.3103448275862)"><rect x="1" width="11.999999999999996" height="10.68965517241378"></rect></g><g class="bar" transform="translate(390,301.98275862068965)"><rect x="1" width="11.999999999999996" height="8.017241379310349"></rect></g><g class="bar" transform="translate(403,308.66379310344826)"><rect x="1" width="11.999999999999996" height="1.3362068965517437"></rect></g><g class="bar" transform="translate(416,310)"><rect x="1" width="11.999999999999996" height="0"></rect></g><g class="bar" transform="translate(429.00000000000006,310)"><rect x="1" width="11.999999999999996" height="0"></rect></g><g class="bar" transform="translate(442.00000000000006,310)"><rect x="1" width="11.999999999999996" height="0"></rect></g><g class="bar" transform="translate(455,310)"><rect x="1" width="11.999999999999996" height="0"></rect></g><g class="bar" transform="translate(468,310)"><rect x="1" width="11.999999999999996" height="0"></rect></g><g class="bar" transform="translate(481,310)"><rect x="1" width="11.999999999999996" height="0"></rect></g><g class="bar" transform="translate(494.00000000000006,310)"><rect x="1" width="11.999999999999996" height="0"></rect></g><g class="bar" transform="translate(507.00000000000006,310)"><rect x="1" width="11.999999999999996" height="0"></rect></g><g class="axis axis--x" transform="translate(0,310)" fill="none" font-size="10" font-family="sans-serif" text-anchor="middle"><path class="domain" stroke="#000" d="M0.5,6V0.5H520.5V6"></path><g class="tick" opacity="1" transform="translate(0,0)"><line stroke="#000" y2="6" x1="0.5" x2="0.5"></line><text fill="#000" y="9" x="0.5" dy="0.71em">0.01</text></g><g class="tick" opacity="1" transform="translate(130,0)"><line stroke="#000" y2="6" x1="0.5" x2="0.5"></line><text fill="#000" y="9" x="0.5" dy="0.71em">1</text></g><g class="tick" opacity="1" transform="translate(260,0)"><line stroke="#000" y2="6" x1="0.5" x2="0.5"></line><text fill="#000" y="9" x="0.5" dy="0.71em">100</text></g><g class="tick" opacity="1" transform="translate(390,0)"><line stroke="#000" y2="6" x1="0.5" x2="0.5"></line><text fill="#000" y="9" x="0.5" dy="0.71em">10000</text></g><g class="tick" opacity="1" transform="translate(520,0)"><line stroke="#000" y2="6" x1="0.5" x2="0.5"></line><text fill="#000" y="9" x="0.5" dy="0.71em"></text></g></g><g class="axis axis--y" fill="none" font-size="10" font-family="sans-serif" text-anchor="end"><path class="domain" stroke="#000" d="M-6,310.5H0.5V0.5H-6"></path><g class="tick" opacity="1" transform="translate(0,310)"><line stroke="#000" x2="-6" y1="0.5" y2="0.5"></line><text fill="#000" x="-9" y="0.5" dy="0.32em">0</text></g><g class="tick" opacity="1" transform="translate(0,283.2758620689655)"><line stroke="#000" x2="-6" y1="0.5" y2="0.5"></line><text fill="#000" x="-9" y="0.5" dy="0.32em">20</text></g><g class="tick" opacity="1" transform="translate(0,256.55172413793105)"><line stroke="#000" x2="-6" y1="0.5" y2="0.5"></line><text fill="#000" x="-9" y="0.5" dy="0.32em">40</text></g><g class="tick" opacity="1" transform="translate(0,229.82758620689654)"><line stroke="#000" x2="-6" y1="0.5" y2="0.5"></line><text fill="#000" x="-9" y="0.5" dy="0.32em">60</text></g><g class="tick" opacity="1" transform="translate(0,203.10344827586206)"><line stroke="#000" x2="-6" y1="0.5" y2="0.5"></line><text fill="#000" x="-9" y="0.5" dy="0.32em">80</text></g><g class="tick" opacity="1" transform="translate(0,176.3793103448276)"><line stroke="#000" x2="-6" y1="0.5" y2="0.5"></line><text fill="#000" x="-9" y="0.5" dy="0.32em">100</text></g><g class="tick" opacity="1" transform="translate(0,149.65517241379308)"><line stroke="#000" x2="-6" y1="0.5" y2="0.5"></line><text fill="#000" x="-9" y="0.5" dy="0.32em">120</text></g><g class="tick" opacity="1" transform="translate(0,122.93103448275863)"><line stroke="#000" x2="-6" y1="0.5" y2="0.5"></line><text fill="#000" x="-9" y="0.5" dy="0.32em">140</text></g><g class="tick" opacity="1" transform="translate(0,96.20689655172413)"><line stroke="#000" x2="-6" y1="0.5" y2="0.5"></line><text fill="#000" x="-9" y="0.5" dy="0.32em">160</text></g><g class="tick" opacity="1" transform="translate(0,69.48275862068965)"><line stroke="#000" x2="-6" y1="0.5" y2="0.5"></line><text fill="#000" x="-9" y="0.5" dy="0.32em">180</text></g><g class="tick" opacity="1" transform="translate(0,42.758620689655174)"><line stroke="#000" x2="-6" y1="0.5" y2="0.5"></line><text fill="#000" x="-9" y="0.5" dy="0.32em">200</text></g><g class="tick" opacity="1" transform="translate(0,16.034482758620697)"><line stroke="#000" x2="-6" y1="0.5" y2="0.5"></line><text fill="#000" x="-9" y="0.5" dy="0.32em">220</text></g></g></g></svg>