<svg xmlns="http://www.w3.org/2000/svg" width="600" height="350"><defs><style type="text/css"><![CDATA[ 
.bar rect {
  fill-opacity: 0;
  stroke:       black;
  stroke-width: 0.5;
}

.highlight rect {
  fill:       red;
  fill-opacity: 1;
}
.axis path,
.axis line {
  fill: none;
  stroke: #000;
  shape-rendering: crispEdges;
}
path {
    stroke: red;
    fill: none;
}

line {
    stroke: red;
}

path.marker {
    fill: red;
}
 ]]></style></defs><g transform="translate(50,10)"><g class="bar" transform="translate(0,257.2198275862069)"><rect x="1" width="11.999999999999996" height="52.78017241379308"></rect></g><g class="bar" transform="translate(12.999999999999996,274.5905172413793)"><rect x="1" width="11.999999999999996" height="35.4094827586207"></rect></g><g class="bar" transform="translate(25.999999999999993,291.96120689655174)"><rect x="1" width="11.999999999999996" height="18.038793103448256"></rect></g><g class="bar" transform="translate(39.00000000000001,285.2801724137931)"><rect x="1" width="11.999999999999996" height="24.719827586206918"></rect></g><g class="bar" transform="translate(52,274.5905172413793)"><rect x="1" width="11.999999999999996" height="35.4094827586207"></rect></g><g class="bar" transform="translate(65,279.26724137931035)"><rect x="1" width="11.999999999999996" height="30.73275862068965"></rect></g><g class="bar" transform="translate(78.00000000000001,274.5905172413793)"><rect x="1" width="11.999999999999996" height="35.4094827586207"></rect></g><g class="bar" transform="translate(91.00000000000001,255.88362068965517)"><rect x="1" width="11.999999999999996" height="54.116379310344826"></rect></g><g class="bar" transform="translate(104,249.20258620689657)"><rect x="1" width="11.999999999999996" height="60.79741379310343"></rect></g><g class="bar" transform="translate(117,251.20689655172413)"><rect x="1" width="11.999999999999996" height="58.79310344827587"></rect></g><g class="bar" transform="translate(130,219.13793103448276)"><rect x="1" width="11.999999999999996" height="90.86206896551724"></rect></g><g class="bar" transform="translate(143,204.43965517241378)"><rect x="1" width="11.999999999999996" height="105.56034482758622"></rect></g><g class="bar" transform="translate(156.00000000000003,124.93534482758622)"><rect x="1" width="11.999999999999996" height="185.06465517241378"></rect></g><g class="bar" transform="translate(169,88.85775862068965)"><rect x="1" width="11.999999999999996" height="221.14224137931035"></rect></g><g class="bar" transform="translate(182.00000000000003,26.724137931034477)"><rect x="1" width="11.999999999999996" height="283.2758620689655"></rect></g><g class="bar" transform="translate(195,0)"><rect x="1" width="11.999999999999996" height="310"></rect></g><g class="bar" transform="translate(208,13.362068965517267)"><rect x="1" width="11.999999999999996" height="296.63793103448273"></rect></g><g class="bar" transform="translate(221.00000000000003,12.025862068965523)"><rect x="1" width="11.999999999999996" height="297.9741379310345"></rect></g><g class="bar" transform="translate(234,11.357758620689651)"><rect x="1" width="11.999999999999996" height="298.64224137931035"></rect></g><g class="bar" transform="translate(247.00000000000003,41.42241379310343)"><rect x="1" width="11.999999999999996" height="268.57758620689657"></rect></g><g class="bar" transform="translate(260,130.94827586206898)"><rect x="1" width="11.999999999999996" height="179.05172413793102"></rect></g><g class="bar" transform="translate(273,169.0301724137931)"><rect x="1" width="11.999999999999996" height="140.9698275862069"></rect></g><g class="bar" transform="translate(286,191.74568965517238)"><rect x="1" width="11.999999999999996" height="118.25431034482762"></rect></g><g class="bar" transform="translate(299.00000000000006,223.81465517241378)"><rect x="1" width="11.999999999999996" height="86.18534482758622"></rect></g><g class="bar" transform="translate(312.00000000000006,246.5301724137931)"><rect x="1" width="11.999999999999996" height="63.46982758620689"></rect></g><g class="bar" transform="translate(325,233.83620689655174)"><rect x="1" width="11.999999999999996" height="76.16379310344826"></rect></g><g class="bar" transform="translate(338,246.5301724137931)"><rect x="1" width="11.999999999999996" height="63.46982758620689"></rect></g><g class="bar" transform="translate(351,287.95258620689657)"><rect x="1" width="11.999999999999996" height="22.04741379310343"></rect></g><g class="bar" transform="translate(364.00000000000006,300.6465517241379)"><rect x="1" width="11.999999999999996" height="9.353448275862092"></rect></g><g class="bar" transform="translate(377.00000000000006,306.6594827586207)"><rect x="1" width="11.999999999999996" height="3.3405172413793025"></rect></g><g class="bar" transform="translate(390,310)"><rect x="1" width="11.999999999999996" height="0"></rect></g><g class="bar" transform="translate(403,308.66379310344826)"><rect x="1" width="11.999999999999996" height="1.3362068965517437"></rect></g><g class="bar" transform="translate(416,308.66379310344826)"><rect x="1" width="11.999999999999996" height="1.3362068965517437"></rect></g><g class="bar" transform="translate(429.00000000000006,310)"><rect x="1" width="11.999999999999996" height="0"></rect></g><g class="bar" transform="translate(442.00000000000006,310)"><rect x="1" width="11.999999999999996" height="0"></rect></g><g class="bar" transform="translate(455,310)"><rect x="1" width="11.999999999999996" height="0"></rect></g><g class="bar" transform="translate(468,310)"><rect x="1" width="11.999999999999996" height="0"></rect></g><g class="bar" transform="translate(481,310)"><rect x="1" width="11.999999999999996" height="0"></rect></g><g class="bar" transform="translate(494.00000000000006,310)"><rect x="1" width="11.999999999999996" height="0"></rect></g><g class="bar" transform="translate(507.00000000000006,310)"><rect x="1" width="11.999999999999996" height="0"></rect></g><g class="axis axis--x" transform="translate(0,310)" fill="none" font-size="10" font-family="sans-serif" text-anchor="middle"><path class="domain" stroke="#000" d="M0.5,6V0.5H520.5V6"></path><g class="tick" opacity="1" transform="translate(0.5,0)"><line stroke="#000" y2="6"></line><text fill="#000" y="9" dy="0.71em">0.01</text></g><g class="tick" opacity="1" transform="translate(130.5,0)"><line stroke="#000" y2="6"></line><text fill="#000" y="9" dy="0.71em">1</text></g><g class="tick" opacity="1" transform="translate(260.5,0)"><line stroke="#000" y2="6"></line><text fill="#000" y="9" dy="0.71em">100</text></g><g class="tick" opacity="1" transform="translate(390.5,0)"><line stroke="#000" y2="6"></line><text fill="#000" y="9" dy="0.71em">10000</text></g><g class="tick" opacity="1" transform="translate(520.5,0)"><line stroke="#000" y2="6"></line><text fill="#000" y="9" dy="0.71em"></text></g></g><g class="axis axis--y" fill="none" font-size="10" font-family="sans-serif" text-anchor="end"><path class="domain" stroke="#000" d="M-6,310.5H0.5V0.5H-6"></path><g class="tick" opacity="1" transform="translate(0,310.5)"><line stroke="#000" x2="-6"></line><text fill="#000" x="-9" dy="0.32em">0</text></g><g class="tick" opacity="1" transform="translate(0,277.0948275862069)"><line stroke="#000" x2="-6"></line><text fill="#000" x="-9" dy="0.32em">50</text></g><g class="tick" opacity="1" transform="translate(0,243.68965517241378)"><line stroke="#000" x2="-6"></line><text fill="#000" x="-9" dy="0.32em">100</text></g><g class="tick" opacity="1" transform="translate(0,210.2844827586207)"><line stroke="#000" x2="-6"></line><text fill="#000" x="-9" dy="0.32em">150</text></g><g class="tick" opacity="1" transform="translate(0,176.8793103448276)"><line stroke="#000" x2="-6"></line><text fill="#000" x="-9" dy="0.32em">200</text></g><g class="tick" opacity="1" transform="translate(0,143.47413793103448)"><line stroke="#000" x2="-6"></line><text fill="#000" x="-9" dy="0.32em">250</text></g><g class="tick" opacity="1" transform="translate(0,110.06896551724137)"><line stroke="#000" x2="-6"></line><text fill="#000" x="-9" dy="0.32em">300</text></g><g class="tick" opacity="1" transform="translate(0,76.66379310344828)"><line stroke="#000" x2="-6"></line><text fill="#000" x="-9" dy="0.32em">350</text></g><g class="tick" opacity="1" transform="translate(0,43.258620689655174)"><line stroke="#000" x2="-6"></line><text fill="#000" x="-9" dy="0.32em">400</text></g><g class="tick" opacity="1" transform="translate(0,9.853448275862036)"><line stroke="#000" x2="-6"></line><text fill="#000" x="-9" dy="0.32em">450</text></g></g></g></svg>