<svg xmlns="http://www.w3.org/2000/svg" width="280" height="160"><defs><style type="text/css"><![CDATA[ 
.bar rect {
  fill-opacity: 0;
  stroke:       black;
  stroke-width: 0.5;
}

.highlight rect {
  fill:       red;
  fill-opacity: 1;
}
.axis path,
.axis line {
  fill: none;
  stroke: #000;
  shape-rendering: crispEdges;
}
path {
    stroke: red;
    fill: none;
}

line {
    stroke: red;
}

path.marker {
    fill: red;
}
 ]]></style></defs><g transform="translate(50,10)"><g class="bar" transform="translate(0,120)"><rect x="1" width="11.5" height="0"></rect></g><g class="bar" transform="translate(12.5,120)"><rect x="1" width="11.5" height="0"></rect></g><g class="bar" transform="translate(25,120)"><rect x="1" width="11.5" height="0"></rect></g><g class="bar" transform="translate(37.5,120)"><rect x="1" width="11.5" height="0"></rect></g><g class="bar" transform="translate(50,120)"><rect x="1" width="11.5" height="0"></rect></g><g class="bar" transform="translate(62.5,120)"><rect x="1" width="11.5" height="0"></rect></g><g class="bar" transform="translate(75,120)"><rect x="1" width="11.5" height="0"></rect></g><g class="bar" transform="translate(87.5,80.27210884353741)"><rect x="1" width="11.5" height="39.72789115646259"></rect></g><g class="bar" transform="translate(100,24.217687074829925)"><rect x="1" width="11.5" height="95.78231292517007"></rect></g><g class="bar" transform="translate(112.5,0)"><rect x="1" width="11.5" height="120"></rect></g><g class="bar" transform="translate(125,57.14285714285714)"><rect x="1" width="11.5" height="62.85714285714286"></rect></g><g class="bar" transform="translate(137.5,111.29251700680273)"><rect x="1" width="11.5" height="8.707482993197274"></rect></g><g class="bar" transform="translate(150,118.91156462585035)"><rect x="1" width="11.5" height="1.088435374149654"></rect></g><g class="bar" transform="translate(162.5,119.72789115646259)"><rect x="1" width="11.5" height="0.27210884353740994"></rect></g><g class="bar" transform="translate(175,120)"><rect x="1" width="11.5" height="0"></rect></g><g class="bar" transform="translate(187.5,120)"><rect x="1" width="11.5" height="0"></rect></g></g></svg>