<svg xmlns="http://www.w3.org/2000/svg" width="280" height="160"><defs><style type="text/css"><![CDATA[ 
.bar rect {
  fill-opacity: 0;
  stroke:       black;
  stroke-width: 0.5;
}

.highlight rect {
  fill:       red;
  fill-opacity: 1;
}
.axis path,
.axis line {
  fill: none;
  stroke: #000;
  shape-rendering: crispEdges;
}
path {
    stroke: red;
    fill: none;
}

line {
    stroke: red;
}

path.marker {
    fill: red;
}
 ]]></style></defs><g transform="translate(50,10)"><g class="bar" transform="translate(0,120)"><rect x="1" width="11.5" height="0"></rect></g><g class="bar" transform="translate(12.5,120)"><rect x="1" width="11.5" height="0"></rect></g><g class="bar" transform="translate(25,119.19821826280624)"><rect x="1" width="11.5" height="0.8017817371937639"></rect></g><g class="bar" transform="translate(37.5,115.18930957683742)"><rect x="1" width="11.5" height="4.810690423162583"></rect></g><g class="bar" transform="translate(50,98.61915367483296)"><rect x="1" width="11.5" height="21.38084632516704"></rect></g><g class="bar" transform="translate(62.5,46.77060133630289)"><rect x="1" width="11.5" height="73.22939866369711"></rect></g><g class="bar" transform="translate(75,0.5345211581291807)"><rect x="1" width="11.5" height="119.46547884187082"></rect></g><g class="bar" transform="translate(87.5,0)"><rect x="1" width="11.5" height="120"></rect></g><g class="bar" transform="translate(100,21.38084632516704)"><rect x="1" width="11.5" height="98.61915367483296"></rect></g><g class="bar" transform="translate(112.5,58.530066815144764)"><rect x="1" width="11.5" height="61.469933184855236"></rect></g><g class="bar" transform="translate(125,98.08463251670378)"><rect x="1" width="11.5" height="21.915367483296222"></rect></g><g class="bar" transform="translate(137.5,113.3184855233853)"><rect x="1" width="11.5" height="6.681514476614694"></rect></g><g class="bar" transform="translate(150,117.86191536748329)"><rect x="1" width="11.5" height="2.1380846325167084"></rect></g><g class="bar" transform="translate(162.5,118.66369710467706)"><rect x="1" width="11.5" height="1.3363028953229446"></rect></g><g class="bar" transform="translate(175,119.73273942093542)"><rect x="1" width="11.5" height="0.2672605790645832"></rect></g><g class="bar" transform="translate(187.5,120)"><rect x="1" width="11.5" height="0"></rect></g></g></svg>