<svg xmlns="http://www.w3.org/2000/svg" width="600" height="350"><defs><style type="text/css"><![CDATA[ 
.bar rect {
  fill-opacity: 0;
  stroke:       black;
  stroke-width: 0.5;
}

.highlight rect {
  fill:       red;
  fill-opacity: 1;
}
.axis path,
.axis line {
  fill: none;
  stroke: #000;
  shape-rendering: crispEdges;
}
path {
    stroke: red;
    fill: none;
}

line {
    stroke: red;
}

path.marker {
    fill: red;
}
 ]]></style></defs><g transform="translate(50,10)"><g class="bar" transform="translate(0,310)"><rect x="1" width="11.999999999999996" height="0"></rect></g><g class="bar" transform="translate(12.999999999999996,310)"><rect x="1" width="11.999999999999996" height="0"></rect></g><g class="bar" transform="translate(25.999999999999993,310)"><rect x="1" width="11.999999999999996" height="0"></rect></g><g class="bar" transform="translate(39.00000000000001,310)"><rect x="1" width="11.999999999999996" height="0"></rect></g><g class="bar" transform="translate(52,310)"><rect x="1" width="11.999999999999996" height="0"></rect></g><g class="bar" transform="translate(65,307.0334928229665)"><rect x="1" width="11.999999999999996" height="2.9665071770335203"></rect></g><g class="bar" transform="translate(78.00000000000001,310)"><rect x="1" width="11.999999999999996" height="0"></rect></g><g class="bar" transform="translate(91.00000000000001,307.0334928229665)"><rect x="1" width="11.999999999999996" height="2.9665071770335203"></rect></g><g class="bar" transform="translate(104,301.1004784688995)"><rect x="1" width="11.999999999999996" height="8.899521531100504"></rect></g><g class="bar" transform="translate(117,293.6842105263158)"><rect x="1" width="11.999999999999996" height="16.31578947368422"></rect></g><g class="bar" transform="translate(130,287.7511961722488)"><rect x="1" width="11.999999999999996" height="22.248803827751203"></rect></g><g class="bar" transform="translate(143,258.0861244019139)"><rect x="1" width="11.999999999999996" height="51.91387559808612"></rect></g><g class="bar" transform="translate(156.00000000000003,207.6555023923445)"><rect x="1" width="11.999999999999996" height="102.34449760765551"></rect></g><g class="bar" transform="translate(169,175.02392344497608)"><rect x="1" width="11.999999999999996" height="134.97607655502392"></rect></g><g class="bar" transform="translate(182.00000000000003,96.4114832535885)"><rect x="1" width="11.999999999999996" height="213.5885167464115"></rect></g><g class="bar" transform="translate(195,71.19617224880383)"><rect x="1" width="11.999999999999996" height="238.80382775119617"></rect></g><g class="bar" transform="translate(208,51.91387559808612)"><rect x="1" width="11.999999999999996" height="258.0861244019139"></rect></g><g class="bar" transform="translate(221.00000000000003,0)"><rect x="1" width="11.999999999999996" height="310"></rect></g><g class="bar" transform="translate(234,44.49760765550241)"><rect x="1" width="11.999999999999996" height="265.5023923444976"></rect></g><g class="bar" transform="translate(247.00000000000003,53.397129186602854)"><rect x="1" width="11.999999999999996" height="256.60287081339715"></rect></g><g class="bar" transform="translate(260,78.61244019138755)"><rect x="1" width="11.999999999999996" height="231.38755980861245"></rect></g><g class="bar" transform="translate(273,94.9282296650718)"><rect x="1" width="11.999999999999996" height="215.0717703349282"></rect></g><g class="bar" transform="translate(286,121.62679425837322)"><rect x="1" width="11.999999999999996" height="188.37320574162678"></rect></g><g class="bar" transform="translate(299.00000000000006,152.77511961722487)"><rect x="1" width="11.999999999999996" height="157.22488038277513"></rect></g><g class="bar" transform="translate(312.00000000000006,213.58851674641147)"><rect x="1" width="11.999999999999996" height="96.41148325358853"></rect></g><g class="bar" transform="translate(325,249.1866028708134)"><rect x="1" width="11.999999999999996" height="60.8133971291866"></rect></g><g class="bar" transform="translate(338,261.0526315789474)"><rect x="1" width="11.999999999999996" height="48.9473684210526"></rect></g><g class="bar" transform="translate(351,289.23444976076553)"><rect x="1" width="11.999999999999996" height="20.76555023923447"></rect></g><g class="bar" transform="translate(364.00000000000006,287.7511961722488)"><rect x="1" width="11.999999999999996" height="22.248803827751203"></rect></g><g class="bar" transform="translate(377.00000000000006,304.066985645933)"><rect x="1" width="11.999999999999996" height="5.933014354066984"></rect></g><g class="bar" transform="translate(390,301.1004784688995)"><rect x="1" width="11.999999999999996" height="8.899521531100504"></rect></g><g class="bar" transform="translate(403,307.0334928229665)"><rect x="1" width="11.999999999999996" height="2.9665071770335203"></rect></g><g class="bar" transform="translate(416,310)"><rect x="1" width="11.999999999999996" height="0"></rect></g><g class="bar" transform="translate(429.00000000000006,304.066985645933)"><rect x="1" width="11.999999999999996" height="5.933014354066984"></rect></g><g class="bar" transform="translate(442.00000000000006,308.51674641148327)"><rect x="1" width="11.999999999999996" height="1.4832535885167317"></rect></g><g class="bar" transform="translate(455,308.51674641148327)"><rect x="1" width="11.999999999999996" height="1.4832535885167317"></rect></g><g class="bar" transform="translate(468,310)"><rect x="1" width="11.999999999999996" height="0"></rect></g><g class="bar" transform="translate(481,310)"><rect x="1" width="11.999999999999996" height="0"></rect></g><g class="bar" transform="translate(494.00000000000006,310)"><rect x="1" width="11.999999999999996" height="0"></rect></g><g class="bar" transform="translate(507.00000000000006,310)"><rect x="1" width="11.999999999999996" height="0"></rect></g><g class="axis axis--x" transform="translate(0,310)" fill="none" font-size="10" font-family="sans-serif" text-anchor="middle"><path class="domain" stroke="#000" d="M0.5,6V0.5H520.5V6"></path><g class="tick" opacity="1" transform="translate(0.5,0)"><line stroke="#000" y2="6"></line><text fill="#000" y="9" dy="0.71em">0.01</text></g><g class="tick" opacity="1" transform="translate(130.5,0)"><line stroke="#000" y2="6"></line><text fill="#000" y="9" dy="0.71em">1</text></g><g class="tick" opacity="1" transform="translate(260.5,0)"><line stroke="#000" y2="6"></line><text fill="#000" y="9" dy="0.71em">100</text></g><g class="tick" opacity="1" transform="translate(390.5,0)"><line stroke="#000" y2="6"></line><text fill="#000" y="9" dy="0.71em">10000</text></g><g class="tick" opacity="1" transform="translate(520.5,0)"><line stroke="#000" y2="6"></line><text fill="#000" y="9" dy="0.71em"></text></g></g><g class="axis axis--y" fill="none" font-size="10" font-family="sans-serif" text-anchor="end"><path class="domain" stroke="#000" d="M-6,310.5H0.5V0.5H-6"></path><g class="tick" opacity="1" transform="translate(0,310.5)"><line stroke="#000" x2="-6"></line><text fill="#000" x="-9" dy="0.32em">0</text></g><g class="tick" opacity="1" transform="translate(0,280.8349282296651)"><line stroke="#000" x2="-6"></line><text fill="#000" x="-9" dy="0.32em">20</text></g><g class="tick" opacity="1" transform="translate(0,251.16985645933013)"><line stroke="#000" x2="-6"></line><text fill="#000" x="-9" dy="0.32em">40</text></g><g class="tick" opacity="1" transform="translate(0,221.50478468899522)"><line stroke="#000" x2="-6"></line><text fill="#000" x="-9" dy="0.32em">60</text></g><g class="tick" opacity="1" transform="translate(0,191.83971291866027)"><line stroke="#000" x2="-6"></line><text fill="#000" x="-9" dy="0.32em">80</text></g><g class="tick" opacity="1" transform="translate(0,162.17464114832535)"><line stroke="#000" x2="-6"></line><text fill="#000" x="-9" dy="0.32em">100</text></g><g class="tick" opacity="1" transform="translate(0,132.50956937799043)"><line stroke="#000" x2="-6"></line><text fill="#000" x="-9" dy="0.32em">120</text></g><g class="tick" opacity="1" transform="translate(0,102.84449760765548)"><line stroke="#000" x2="-6"></line><text fill="#000" x="-9" dy="0.32em">140</text></g><g class="tick" opacity="1" transform="translate(0,73.17942583732057)"><line stroke="#000" x2="-6"></line><text fill="#000" x="-9" dy="0.32em">160</text></g><g class="tick" opacity="1" transform="translate(0,43.51435406698562)"><line stroke="#000" x2="-6"></line><text fill="#000" x="-9" dy="0.32em">180</text></g><g class="tick" opacity="1" transform="translate(0,13.8492822966507)"><line stroke="#000" x2="-6"></line><text fill="#000" x="-9" dy="0.32em">200</text></g></g></g></svg>