<svg xmlns="http://www.w3.org/2000/svg" width="600" height="350"><defs><style type="text/css"><![CDATA[ 
.bar rect {
  fill-opacity: 0;
  stroke:       black;
  stroke-width: 0.5;
}

.highlight rect {
  fill:       red;
  fill-opacity: 1;
}
.axis path,
.axis line {
  fill: none;
  stroke: #000;
  shape-rendering: crispEdges;
}
path {
    stroke: red;
    fill: none;
}

line {
    stroke: red;
}

path.marker {
    fill: red;
}
 ]]></style></defs><g transform="translate(50,10)"><g class="bar" transform="translate(0,293.731778425656)"><rect x="1" width="11.999999999999996" height="16.26822157434401"></rect></g><g class="bar" transform="translate(12.999999999999996,112.9737609329446)"><rect x="1" width="11.999999999999996" height="197.0262390670554"></rect></g><g class="bar" transform="translate(25.999999999999993,288.3090379008746)"><rect x="1" width="11.999999999999996" height="21.690962099125386"></rect></g><g class="bar" transform="translate(39.00000000000001,272.0408163265306)"><rect x="1" width="11.999999999999996" height="37.9591836734694"></rect></g><g class="bar" transform="translate(52,296.4431486880467)"><rect x="1" width="11.999999999999996" height="13.556851311953324"></rect></g><g class="bar" transform="translate(65,292.8279883381924)"><rect x="1" width="11.999999999999996" height="17.172011661807574"></rect></g><g class="bar" transform="translate(78.00000000000001,281.07871720116617)"><rect x="1" width="11.999999999999996" height="28.92128279883383"></rect></g><g class="bar" transform="translate(91.00000000000001,284.6938775510204)"><rect x="1" width="11.999999999999996" height="25.30612244897958"></rect></g><g class="bar" transform="translate(104,272.94460641399417)"><rect x="1" width="11.999999999999996" height="37.055393586005835"></rect></g><g class="bar" transform="translate(117,268.42565597667635)"><rect x="1" width="11.999999999999996" height="41.57434402332365"></rect></g><g class="bar" transform="translate(130,253.96501457725947)"><rect x="1" width="11.999999999999996" height="56.03498542274053"></rect></g><g class="bar" transform="translate(143,219.62099125364432)"><rect x="1" width="11.999999999999996" height="90.37900874635568"></rect></g><g class="bar" transform="translate(156.00000000000003,199.73760932944606)"><rect x="1" width="11.999999999999996" height="110.26239067055394"></rect></g><g class="bar" transform="translate(169,133.76093294460642)"><rect x="1" width="11.999999999999996" height="176.23906705539358"></rect></g><g class="bar" transform="translate(182.00000000000003,103.93586005830903)"><rect x="1" width="11.999999999999996" height="206.06413994169097"></rect></g><g class="bar" transform="translate(195,111.1661807580175)"><rect x="1" width="11.999999999999996" height="198.8338192419825"></rect></g><g class="bar" transform="translate(208,65.0728862973761)"><rect x="1" width="11.999999999999996" height="244.9271137026239"></rect></g><g class="bar" transform="translate(221.00000000000003,50.61224489795916)"><rect x="1" width="11.999999999999996" height="259.38775510204084"></rect></g><g class="bar" transform="translate(234,6.326530612244881)"><rect x="1" width="11.999999999999996" height="303.6734693877551"></rect></g><g class="bar" transform="translate(247.00000000000003,20.787172011661823)"><rect x="1" width="11.999999999999996" height="289.2128279883382"></rect></g><g class="bar" transform="translate(260,0)"><rect x="1" width="11.999999999999996" height="310"></rect></g><g class="bar" transform="translate(273,28.92128279883383)"><rect x="1" width="11.999999999999996" height="281.07871720116617"></rect></g><g class="bar" transform="translate(286,59.65014577259478)"><rect x="1" width="11.999999999999996" height="250.34985422740522"></rect></g><g class="bar" transform="translate(299.00000000000006,76.82215743440236)"><rect x="1" width="11.999999999999996" height="233.17784256559764"></rect></g><g class="bar" transform="translate(312.00000000000006,116.58892128279885)"><rect x="1" width="11.999999999999996" height="193.41107871720115"></rect></g><g class="bar" transform="translate(325,183.46938775510205)"><rect x="1" width="11.999999999999996" height="126.53061224489795"></rect></g><g class="bar" transform="translate(338,251.2536443148688)"><rect x="1" width="11.999999999999996" height="58.74635568513119"></rect></g><g class="bar" transform="translate(351,281.07871720116617)"><rect x="1" width="11.999999999999996" height="28.92128279883383"></rect></g><g class="bar" transform="translate(364.00000000000006,302.76967930029156)"><rect x="1" width="11.999999999999996" height="7.230320699708443"></rect></g><g class="bar" transform="translate(377.00000000000006,309.09620991253644)"><rect x="1" width="11.999999999999996" height="0.9037900874635625"></rect></g><g class="bar" transform="translate(390,310)"><rect x="1" width="11.999999999999996" height="0"></rect></g><g class="bar" transform="translate(403,310)"><rect x="1" width="11.999999999999996" height="0"></rect></g><g class="bar" transform="translate(416,310)"><rect x="1" width="11.999999999999996" height="0"></rect></g><g class="bar" transform="translate(429.00000000000006,310)"><rect x="1" width="11.999999999999996" height="0"></rect></g><g class="bar" transform="translate(442.00000000000006,310)"><rect x="1" width="11.999999999999996" height="0"></rect></g><g class="bar" transform="translate(455,310)"><rect x="1" width="11.999999999999996" height="0"></rect></g><g class="bar" transform="translate(468,310)"><rect x="1" width="11.999999999999996" height="0"></rect></g><g class="bar" transform="translate(481,310)"><rect x="1" width="11.999999999999996" height="0"></rect></g><g class="bar" transform="translate(494.00000000000006,310)"><rect x="1" width="11.999999999999996" height="0"></rect></g><g class="bar" transform="translate(507.00000000000006,310)"><rect x="1" width="11.999999999999996" height="0"></rect></g><g class="axis axis--x" transform="translate(0,310)" fill="none" font-size="10" font-family="sans-serif" text-anchor="middle"><path class="domain" stroke="#000" d="M0.5,6V0.5H520.5V6"></path><g class="tick" opacity="1" transform="translate(0.5,0)"><line stroke="#000" y2="6"></line><text fill="#000" y="9" dy="0.71em">0.01</text></g><g class="tick" opacity="1" transform="translate(130.5,0)"><line stroke="#000" y2="6"></line><text fill="#000" y="9" dy="0.71em">1</text></g><g class="tick" opacity="1" transform="translate(260.5,0)"><line stroke="#000" y2="6"></line><text fill="#000" y="9" dy="0.71em">100</text></g><g class="tick" opacity="1" transform="translate(390.5,0)"><line stroke="#000" y2="6"></line><text fill="#000" y="9" dy="0.71em">10000</text></g><g class="tick" opacity="1" transform="translate(520.5,0)"><line stroke="#000" y2="6"></line><text fill="#000" y="9" dy="0.71em"></text></g></g><g class="axis axis--y" fill="none" font-size="10" font-family="sans-serif" text-anchor="end"><path class="domain" stroke="#000" d="M-6,310.5H0.5V0.5H-6"></path><g class="tick" opacity="1" transform="translate(0,310.5)"><line stroke="#000" x2="-6"></line><text fill="#000" x="-9" dy="0.32em">0</text></g><g class="tick" opacity="1" transform="translate(0,265.31049562682216)"><line stroke="#000" x2="-6"></line><text fill="#000" x="-9" dy="0.32em">50</text></g><g class="tick" opacity="1" transform="translate(0,220.12099125364432)"><line stroke="#000" x2="-6"></line><text fill="#000" x="-9" dy="0.32em">100</text></g><g class="tick" opacity="1" transform="translate(0,174.93148688046648)"><line stroke="#000" x2="-6"></line><text fill="#000" x="-9" dy="0.32em">150</text></g><g class="tick" opacity="1" transform="translate(0,129.7419825072886)"><line stroke="#000" x2="-6"></line><text fill="#000" x="-9" dy="0.32em">200</text></g><g class="tick" opacity="1" transform="translate(0,84.5524781341108)"><line stroke="#000" x2="-6"></line><text fill="#000" x="-9" dy="0.32em">250</text></g><g class="tick" opacity="1" transform="translate(0,39.36297376093296)"><line stroke="#000" x2="-6"></line><text fill="#000" x="-9" dy="0.32em">300</text></g></g></g></svg>