<svg xmlns="http://www.w3.org/2000/svg" width="280" height="160"><defs><style type="text/css"><![CDATA[ 
.bar rect {
  fill-opacity: 0;
  stroke:       black;
  stroke-width: 0.5;
}

.highlight rect {
  fill:       red;
  fill-opacity: 1;
}
.axis path,
.axis line {
  fill: none;
  stroke: #000;
  shape-rendering: crispEdges;
}
 ]]></style></defs><g transform="translate(50,10)"><g class="bar" transform="translate(0,120)"><rect x="1" width="11.5" height="0"></rect></g><g class="bar" transform="translate(12.5,119.9229781771502)"><rect x="1" width="11.5" height="0.07702182284980097"></rect></g><g class="bar" transform="translate(25,119.46084724005135)"><rect x="1" width="11.5" height="0.5391527599486494"></rect></g><g class="bar" transform="translate(37.5,113.6842105263158)"><rect x="1" width="11.5" height="6.315789473684205"></rect></g><g class="bar" transform="translate(50,94.50577663671373)"><rect x="1" width="11.5" height="25.494223363286267"></rect></g><g class="bar" transform="translate(62.5,32.50320924261874)"><rect x="1" width="11.5" height="87.49679075738126"></rect></g><g class="bar" transform="translate(75,0)"><rect x="1" width="11.5" height="120"></rect></g><g class="bar" transform="translate(87.5,25.9563543003851)"><rect x="1" width="11.5" height="94.0436456996149"></rect></g><g class="bar" transform="translate(100,69.70474967907573)"><rect x="1" width="11.5" height="50.29525032092427"></rect></g><g class="bar" transform="translate(112.5,93.81258023106547)"><rect x="1" width="11.5" height="26.187419768934532"></rect></g><g class="bar" transform="translate(125,111.98973042362003)"><rect x="1" width="11.5" height="8.010269576379969"></rect></g><g class="bar" transform="translate(137.5,117.45827984595635)"><rect x="1" width="11.5" height="2.541720154043645"></rect></g><g class="bar" transform="translate(150,119.07573812580232)"><rect x="1" width="11.5" height="0.9242618741976827"></rect></g><g class="bar" transform="translate(162.5,119.9229781771502)"><rect x="1" width="11.5" height="0.07702182284980097"></rect></g><g class="bar" transform="translate(175,120)"><rect x="1" width="11.5" height="0"></rect></g><g class="bar" transform="translate(187.5,120)"><rect x="1" width="11.5" height="0"></rect></g></g></svg>