<svg xmlns="http://www.w3.org/2000/svg" width="600" height="350"><defs><style type="text/css"><![CDATA[ 
.bar rect {
  fill-opacity: 0;
  stroke:       black;
  stroke-width: 0.5;
}

.highlight rect {
  fill:       red;
  fill-opacity: 1;
}
.axis path,
.axis line {
  fill: none;
  stroke: #000;
  shape-rendering: crispEdges;
}
path {
    stroke: red;
    fill: none;
}

line {
    stroke: red;
}

path.marker {
    fill: red;
}
 ]]></style></defs><g transform="translate(50,10)"><g class="bar" transform="translate(0,310)"><rect x="1" width="11.999999999999996" height="0"></rect></g><g class="bar" transform="translate(12.999999999999996,310)"><rect x="1" width="11.999999999999996" height="0"></rect></g><g class="bar" transform="translate(25.999999999999993,310)"><rect x="1" width="11.999999999999996" height="0"></rect></g><g class="bar" transform="translate(39.00000000000001,310)"><rect x="1" width="11.999999999999996" height="0"></rect></g><g class="bar" transform="translate(52,309.29384965831434)"><rect x="1" width="11.999999999999996" height="0.7061503416856567"></rect></g><g class="bar" transform="translate(65,310)"><rect x="1" width="11.999999999999996" height="0"></rect></g><g class="bar" transform="translate(78.00000000000001,307.88154897494303)"><rect x="1" width="11.999999999999996" height="2.11845102505697"></rect></g><g class="bar" transform="translate(91.00000000000001,307.88154897494303)"><rect x="1" width="11.999999999999996" height="2.11845102505697"></rect></g><g class="bar" transform="translate(104,299.40774487471526)"><rect x="1" width="11.999999999999996" height="10.592255125284737"></rect></g><g class="bar" transform="translate(117,281.753986332574)"><rect x="1" width="11.999999999999996" height="28.246013667425984"></rect></g><g class="bar" transform="translate(130,271.86788154897494)"><rect x="1" width="11.999999999999996" height="38.132118451025065"></rect></g><g class="bar" transform="translate(143,213.9635535307517)"><rect x="1" width="11.999999999999996" height="96.03644646924829"></rect></g><g class="bar" transform="translate(156.00000000000003,199.84054669703875)"><rect x="1" width="11.999999999999996" height="110.15945330296125"></rect></g><g class="bar" transform="translate(169,132.75626423690204)"><rect x="1" width="11.999999999999996" height="177.24373576309796"></rect></g><g class="bar" transform="translate(182.00000000000003,103.80410022779043)"><rect x="1" width="11.999999999999996" height="206.19589977220957"></rect></g><g class="bar" transform="translate(195,88.26879271070618)"><rect x="1" width="11.999999999999996" height="221.73120728929382"></rect></g><g class="bar" transform="translate(208,43.075170842824605)"><rect x="1" width="11.999999999999996" height="266.9248291571754"></rect></g><g class="bar" transform="translate(221.00000000000003,19.06605922551256)"><rect x="1" width="11.999999999999996" height="290.93394077448744"></rect></g><g class="bar" transform="translate(234,0)"><rect x="1" width="11.999999999999996" height="310"></rect></g><g class="bar" transform="translate(247.00000000000003,7.06150341685651)"><rect x="1" width="11.999999999999996" height="302.9384965831435"></rect></g><g class="bar" transform="translate(260,24.715261958997758)"><rect x="1" width="11.999999999999996" height="285.28473804100224"></rect></g><g class="bar" transform="translate(273,58.61047835990888)"><rect x="1" width="11.999999999999996" height="251.38952164009112"></rect></g><g class="bar" transform="translate(286,114.39635535307517)"><rect x="1" width="11.999999999999996" height="195.60364464692483"></rect></g><g class="bar" transform="translate(299.00000000000006,190.66059225512527)"><rect x="1" width="11.999999999999996" height="119.33940774487473"></rect></g><g class="bar" transform="translate(312.00000000000006,223.8496583143508)"><rect x="1" width="11.999999999999996" height="86.15034168564921"></rect></g><g class="bar" transform="translate(325,254.92027334851937)"><rect x="1" width="11.999999999999996" height="55.07972665148063"></rect></g><g class="bar" transform="translate(338,278.92938496583145)"><rect x="1" width="11.999999999999996" height="31.070615034168554"></rect></g><g class="bar" transform="translate(351,286.69703872437356)"><rect x="1" width="11.999999999999996" height="23.302961275626444"></rect></g><g class="bar" transform="translate(364.00000000000006,307.17539863325743)"><rect x="1" width="11.999999999999996" height="2.82460136674257"></rect></g><g class="bar" transform="translate(377.00000000000006,305.7630979498861)"><rect x="1" width="11.999999999999996" height="4.236902050113883"></rect></g><g class="bar" transform="translate(390,310)"><rect x="1" width="11.999999999999996" height="0"></rect></g><g class="bar" transform="translate(403,309.29384965831434)"><rect x="1" width="11.999999999999996" height="0.7061503416856567"></rect></g><g class="bar" transform="translate(416,307.88154897494303)"><rect x="1" width="11.999999999999996" height="2.11845102505697"></rect></g><g class="bar" transform="translate(429.00000000000006,309.29384965831434)"><rect x="1" width="11.999999999999996" height="0.7061503416856567"></rect></g><g class="bar" transform="translate(442.00000000000006,310)"><rect x="1" width="11.999999999999996" height="0"></rect></g><g class="bar" transform="translate(455,310)"><rect x="1" width="11.999999999999996" height="0"></rect></g><g class="bar" transform="translate(468,310)"><rect x="1" width="11.999999999999996" height="0"></rect></g><g class="bar" transform="translate(481,310)"><rect x="1" width="11.999999999999996" height="0"></rect></g><g class="bar" transform="translate(494.00000000000006,310)"><rect x="1" width="11.999999999999996" height="0"></rect></g><g class="bar" transform="translate(507.00000000000006,310)"><rect x="1" width="11.999999999999996" height="0"></rect></g><g class="axis axis--x" transform="translate(0,310)" fill="none" font-size="10" font-family="sans-serif" text-anchor="middle"><path class="domain" stroke="#000" d="M0.5,6V0.5H520.5V6"></path><g class="tick" opacity="1" transform="translate(0.5,0)"><line stroke="#000" y2="6"></line><text fill="#000" y="9" dy="0.71em">0.01</text></g><g class="tick" opacity="1" transform="translate(130.5,0)"><line stroke="#000" y2="6"></line><text fill="#000" y="9" dy="0.71em">1</text></g><g class="tick" opacity="1" transform="translate(260.5,0)"><line stroke="#000" y2="6"></line><text fill="#000" y="9" dy="0.71em">100</text></g><g class="tick" opacity="1" transform="translate(390.5,0)"><line stroke="#000" y2="6"></line><text fill="#000" y="9" dy="0.71em">10000</text></g><g class="tick" opacity="1" transform="translate(520.5,0)"><line stroke="#000" y2="6"></line><text fill="#000" y="9" dy="0.71em"></text></g></g><g class="axis axis--y" fill="none" font-size="10" font-family="sans-serif" text-anchor="end"><path class="domain" stroke="#000" d="M-6,310.5H0.5V0.5H-6"></path><g class="tick" opacity="1" transform="translate(0,310.5)"><line stroke="#000" x2="-6"></line><text fill="#000" x="-9" dy="0.32em">0</text></g><g class="tick" opacity="1" transform="translate(0,275.19248291571756)"><line stroke="#000" x2="-6"></line><text fill="#000" x="-9" dy="0.32em">50</text></g><g class="tick" opacity="1" transform="translate(0,239.88496583143507)"><line stroke="#000" x2="-6"></line><text fill="#000" x="-9" dy="0.32em">100</text></g><g class="tick" opacity="1" transform="translate(0,204.57744874715263)"><line stroke="#000" x2="-6"></line><text fill="#000" x="-9" dy="0.32em">150</text></g><g class="tick" opacity="1" transform="translate(0,169.26993166287016)"><line stroke="#000" x2="-6"></line><text fill="#000" x="-9" dy="0.32em">200</text></g><g class="tick" opacity="1" transform="translate(0,133.9624145785877)"><line stroke="#000" x2="-6"></line><text fill="#000" x="-9" dy="0.32em">250</text></g><g class="tick" opacity="1" transform="translate(0,98.65489749430523)"><line stroke="#000" x2="-6"></line><text fill="#000" x="-9" dy="0.32em">300</text></g><g class="tick" opacity="1" transform="translate(0,63.347380410022794)"><line stroke="#000" x2="-6"></line><text fill="#000" x="-9" dy="0.32em">350</text></g><g class="tick" opacity="1" transform="translate(0,28.039863325740328)"><line stroke="#000" x2="-6"></line><text fill="#000" x="-9" dy="0.32em">400</text></g></g></g></svg>