<svg xmlns="http://www.w3.org/2000/svg" width="280" height="160"><defs><style type="text/css"><![CDATA[ 
.bar rect {
  fill-opacity: 0;
  stroke:       black;
  stroke-width: 0.5;
}

.highlight rect {
  fill:       red;
  fill-opacity: 1;
}
.axis path,
.axis line {
  fill: none;
  stroke: #000;
  shape-rendering: crispEdges;
}
path {
    stroke: red;
    fill: none;
}

line {
    stroke: red;
}

path.marker {
    fill: red;
}
 ]]></style></defs><g transform="translate(50,10)"><g class="bar" transform="translate(0,73.19080274304156)"><rect x="1" width="11.5" height="46.80919725695844"></rect></g><g class="bar" transform="translate(12.5,61.427995159338444)"><rect x="1" width="11.5" height="58.572004840661556"></rect></g><g class="bar" transform="translate(25,51.98870512303348)"><rect x="1" width="11.5" height="68.01129487696652"></rect></g><g class="bar" transform="translate(37.5,37.17628075837031)"><rect x="1" width="11.5" height="82.82371924162969"></rect></g><g class="bar" transform="translate(50,19.169019766034694)"><rect x="1" width="11.5" height="100.8309802339653"></rect></g><g class="bar" transform="translate(62.5,0)"><rect x="1" width="11.5" height="120"></rect></g><g class="bar" transform="translate(75,2.759177087535292)"><rect x="1" width="11.5" height="117.24082291246471"></rect></g><g class="bar" transform="translate(87.5,36.54699475594998)"><rect x="1" width="11.5" height="83.45300524405002"></rect></g><g class="bar" transform="translate(100,72.36789027833804)"><rect x="1" width="11.5" height="47.63210972166196"></rect></g><g class="bar" transform="translate(112.5,96.81323114158936)"><rect x="1" width="11.5" height="23.186768858410645"></rect></g><g class="bar" transform="translate(125,114.43323920935862)"><rect x="1" width="11.5" height="5.566760790641382"></rect></g><g class="bar" transform="translate(137.5,118.49939491730537)"><rect x="1" width="11.5" height="1.5006050826946336"></rect></g><g class="bar" transform="translate(150,119.85478015328762)"><rect x="1" width="11.5" height="0.1452198467123793"></rect></g><g class="bar" transform="translate(162.5,120)"><rect x="1" width="11.5" height="0"></rect></g><g class="bar" transform="translate(175,120)"><rect x="1" width="11.5" height="0"></rect></g><g class="bar" transform="translate(187.5,120)"><rect x="1" width="11.5" height="0"></rect></g></g></svg>