<svg xmlns="http://www.w3.org/2000/svg" width="600" height="350"><defs><style type="text/css"><![CDATA[ 
.bar rect {
  fill-opacity: 0;
  stroke:       black;
  stroke-width: 0.5;
}

.highlight rect {
  fill:       red;
  fill-opacity: 1;
}
.axis path,
.axis line {
  fill: none;
  stroke: #000;
  shape-rendering: crispEdges;
}
path {
    stroke: red;
    fill: none;
}

line {
    stroke: red;
}

path.marker {
    fill: red;
}
 ]]></style></defs><g transform="translate(50,10)"><g class="bar" transform="translate(0,285.44554455445547)"><rect x="1" width="11.999999999999996" height="24.554455445544534"></rect></g><g class="bar" transform="translate(12.999999999999996,274.7029702970297)"><rect x="1" width="11.999999999999996" height="35.29702970297029"></rect></g><g class="bar" transform="translate(25.999999999999993,263.1930693069307)"><rect x="1" width="11.999999999999996" height="46.80693069306932"></rect></g><g class="bar" transform="translate(39.00000000000001,244.00990099009903)"><rect x="1" width="11.999999999999996" height="65.99009900990097"></rect></g><g class="bar" transform="translate(52,225.59405940594058)"><rect x="1" width="11.999999999999996" height="84.40594059405942"></rect></g><g class="bar" transform="translate(65,217.15346534653466)"><rect x="1" width="11.999999999999996" height="92.84653465346534"></rect></g><g class="bar" transform="translate(78.00000000000001,169.57920792079207)"><rect x="1" width="11.999999999999996" height="140.42079207920793"></rect></g><g class="bar" transform="translate(91.00000000000001,154.23267326732673)"><rect x="1" width="11.999999999999996" height="155.76732673267327"></rect></g><g class="bar" transform="translate(104,147.32673267326732)"><rect x="1" width="11.999999999999996" height="162.67326732673268"></rect></g><g class="bar" transform="translate(117,120.47029702970298)"><rect x="1" width="11.999999999999996" height="189.52970297029702"></rect></g><g class="bar" transform="translate(130,108.19306930693068)"><rect x="1" width="11.999999999999996" height="201.80693069306932"></rect></g><g class="bar" transform="translate(143,76.73267326732673)"><rect x="1" width="11.999999999999996" height="233.26732673267327"></rect></g><g class="bar" transform="translate(156.00000000000003,62.15346534653463)"><rect x="1" width="11.999999999999996" height="247.84653465346537"></rect></g><g class="bar" transform="translate(169,63.68811881188117)"><rect x="1" width="11.999999999999996" height="246.31188118811883"></rect></g><g class="bar" transform="translate(182.00000000000003,29.925742574257413)"><rect x="1" width="11.999999999999996" height="280.0742574257426"></rect></g><g class="bar" transform="translate(195,4.603960396039611)"><rect x="1" width="11.999999999999996" height="305.3960396039604"></rect></g><g class="bar" transform="translate(208,6.905940594059416)"><rect x="1" width="11.999999999999996" height="303.0940594059406"></rect></g><g class="bar" transform="translate(221.00000000000003,29.158415841584144)"><rect x="1" width="11.999999999999996" height="280.84158415841586"></rect></g><g class="bar" transform="translate(234,5.371287128712879)"><rect x="1" width="11.999999999999996" height="304.6287128712871"></rect></g><g class="bar" transform="translate(247.00000000000003,0)"><rect x="1" width="11.999999999999996" height="310"></rect></g><g class="bar" transform="translate(260,8.440594059405953)"><rect x="1" width="11.999999999999996" height="301.55940594059405"></rect></g><g class="bar" transform="translate(273,68.29207920792078)"><rect x="1" width="11.999999999999996" height="241.70792079207922"></rect></g><g class="bar" transform="translate(286,90.54455445544556)"><rect x="1" width="11.999999999999996" height="219.45544554455444"></rect></g><g class="bar" transform="translate(299.00000000000006,144.25742574257424)"><rect x="1" width="11.999999999999996" height="165.74257425742576"></rect></g><g class="bar" transform="translate(312.00000000000006,217.92079207920793)"><rect x="1" width="11.999999999999996" height="92.07920792079207"></rect></g><g class="bar" transform="translate(325,258.58910891089107)"><rect x="1" width="11.999999999999996" height="51.41089108910893"></rect></g><g class="bar" transform="translate(338,273.16831683168317)"><rect x="1" width="11.999999999999996" height="36.83168316831683"></rect></g><g class="bar" transform="translate(351,288.5148514851485)"><rect x="1" width="11.999999999999996" height="21.485148514851517"></rect></g><g class="bar" transform="translate(364.00000000000006,292.3514851485148)"><rect x="1" width="11.999999999999996" height="17.648514851485174"></rect></g><g class="bar" transform="translate(377.00000000000006,302.3267326732673)"><rect x="1" width="11.999999999999996" height="7.6732673267326845"></rect></g><g class="bar" transform="translate(390,306.9306930693069)"><rect x="1" width="11.999999999999996" height="3.069306930693074"></rect></g><g class="bar" transform="translate(403,310)"><rect x="1" width="11.999999999999996" height="0"></rect></g><g class="bar" transform="translate(416,310)"><rect x="1" width="11.999999999999996" height="0"></rect></g><g class="bar" transform="translate(429.00000000000006,310)"><rect x="1" width="11.999999999999996" height="0"></rect></g><g class="bar" transform="translate(442.00000000000006,310)"><rect x="1" width="11.999999999999996" height="0"></rect></g><g class="bar" transform="translate(455,310)"><rect x="1" width="11.999999999999996" height="0"></rect></g><g class="bar" transform="translate(468,310)"><rect x="1" width="11.999999999999996" height="0"></rect></g><g class="bar" transform="translate(481,310)"><rect x="1" width="11.999999999999996" height="0"></rect></g><g class="bar" transform="translate(494.00000000000006,310)"><rect x="1" width="11.999999999999996" height="0"></rect></g><g class="bar" transform="translate(507.00000000000006,310)"><rect x="1" width="11.999999999999996" height="0"></rect></g><g class="axis axis--x" transform="translate(0,310)" fill="none" font-size="10" font-family="sans-serif" text-anchor="middle"><path class="domain" stroke="#000" d="M0.5,6V0.5H520.5V6"></path><g class="tick" opacity="1" transform="translate(0.5,0)"><line stroke="#000" y2="6"></line><text fill="#000" y="9" dy="0.71em">0.01</text></g><g class="tick" opacity="1" transform="translate(130.5,0)"><line stroke="#000" y2="6"></line><text fill="#000" y="9" dy="0.71em">1</text></g><g class="tick" opacity="1" transform="translate(260.5,0)"><line stroke="#000" y2="6"></line><text fill="#000" y="9" dy="0.71em">100</text></g><g class="tick" opacity="1" transform="translate(390.5,0)"><line stroke="#000" y2="6"></line><text fill="#000" y="9" dy="0.71em">10000</text></g><g class="tick" opacity="1" transform="translate(520.5,0)"><line stroke="#000" y2="6"></line><text fill="#000" y="9" dy="0.71em"></text></g></g><g class="axis axis--y" fill="none" font-size="10" font-family="sans-serif" text-anchor="end"><path class="domain" stroke="#000" d="M-6,310.5H0.5V0.5H-6"></path><g class="tick" opacity="1" transform="translate(0,310.5)"><line stroke="#000" x2="-6"></line><text fill="#000" x="-9" dy="0.32em">0</text></g><g class="tick" opacity="1" transform="translate(0,272.13366336633663)"><line stroke="#000" x2="-6"></line><text fill="#000" x="-9" dy="0.32em">50</text></g><g class="tick" opacity="1" transform="translate(0,233.76732673267327)"><line stroke="#000" x2="-6"></line><text fill="#000" x="-9" dy="0.32em">100</text></g><g class="tick" opacity="1" transform="translate(0,195.4009900990099)"><line stroke="#000" x2="-6"></line><text fill="#000" x="-9" dy="0.32em">150</text></g><g class="tick" opacity="1" transform="translate(0,157.03465346534654)"><line stroke="#000" x2="-6"></line><text fill="#000" x="-9" dy="0.32em">200</text></g><g class="tick" opacity="1" transform="translate(0,118.66831683168317)"><line stroke="#000" x2="-6"></line><text fill="#000" x="-9" dy="0.32em">250</text></g><g class="tick" opacity="1" transform="translate(0,80.3019801980198)"><line stroke="#000" x2="-6"></line><text fill="#000" x="-9" dy="0.32em">300</text></g><g class="tick" opacity="1" transform="translate(0,41.93564356435644)"><line stroke="#000" x2="-6"></line><text fill="#000" x="-9" dy="0.32em">350</text></g><g class="tick" opacity="1" transform="translate(0,3.569306930693074)"><line stroke="#000" x2="-6"></line><text fill="#000" x="-9" dy="0.32em">400</text></g></g></g></svg>