<svg xmlns="http://www.w3.org/2000/svg" width="280" height="160"><defs><style type="text/css"><![CDATA[ 
.bar rect {
  fill-opacity: 0;
  stroke:       black;
  stroke-width: 0.5;
}

.highlight rect {
  fill:       red;
  fill-opacity: 1;
}
.axis path,
.axis line {
  fill: none;
  stroke: #000;
  shape-rendering: crispEdges;
}
 ]]></style></defs><g transform="translate(50,10)"><g class="bar" transform="translate(0,119.19153031761309)"><rect x="1" width="11.5" height="0.8084696823869137"></rect></g><g class="bar" transform="translate(12.5,116.99711260827719)"><rect x="1" width="11.5" height="3.0028873917228083"></rect></g><g class="bar" transform="translate(25,104.75457170356111)"><rect x="1" width="11.5" height="15.245428296438888"></rect></g><g class="bar" transform="translate(37.5,80.38498556304138)"><rect x="1" width="11.5" height="39.61501443695862"></rect></g><g class="bar" transform="translate(50,37.76708373435996)"><rect x="1" width="11.5" height="82.23291626564004"></rect></g><g class="bar" transform="translate(62.5,5.428296438883535)"><rect x="1" width="11.5" height="114.57170356111646"></rect></g><g class="bar" transform="translate(75,0)"><rect x="1" width="11.5" height="120"></rect></g><g class="bar" transform="translate(87.5,11.549566891241582)"><rect x="1" width="11.5" height="108.45043310875842"></rect></g><g class="bar" transform="translate(100,38.92204042348412)"><rect x="1" width="11.5" height="81.07795957651588"></rect></g><g class="bar" transform="translate(112.5,73.33974975938402)"><rect x="1" width="11.5" height="46.66025024061598"></rect></g><g class="bar" transform="translate(125,99.44177093358999)"><rect x="1" width="11.5" height="20.558229066410007"></rect></g><g class="bar" transform="translate(137.5,114.57170356111646)"><rect x="1" width="11.5" height="5.428296438883535"></rect></g><g class="bar" transform="translate(150,119.65351299326275)"><rect x="1" width="11.5" height="0.34648700673724875"></rect></g><g class="bar" transform="translate(162.5,120)"><rect x="1" width="11.5" height="0"></rect></g><g class="bar" transform="translate(175,120)"><rect x="1" width="11.5" height="0"></rect></g><g class="bar" transform="translate(187.5,120)"><rect x="1" width="11.5" height="0"></rect></g></g></svg>