<svg xmlns="http://www.w3.org/2000/svg" width="600" height="350"><defs><style type="text/css"><![CDATA[ 
.bar rect {
  fill-opacity: 0;
  stroke:       black;
  stroke-width: 0.5;
}

.highlight rect {
  fill:       red;
  fill-opacity: 1;
}
.axis path,
.axis line {
  fill: none;
  stroke: #000;
  shape-rendering: crispEdges;
}
 ]]></style></defs><g transform="translate(50,10)"><g class="bar" transform="translate(0,310)"><rect x="1" width="11.999999999999996" height="0"></rect></g><g class="bar" transform="translate(12.999999999999996,306.4449541284404)"><rect x="1" width="11.999999999999996" height="3.555045871559628"></rect></g><g class="bar" transform="translate(25.999999999999993,307.1559633027523)"><rect x="1" width="11.999999999999996" height="2.8440366972477023"></rect></g><g class="bar" transform="translate(39.00000000000001,302.1788990825688)"><rect x="1" width="11.999999999999996" height="7.821100917431181"></rect></g><g class="bar" transform="translate(52,300.75688073394497)"><rect x="1" width="11.999999999999996" height="9.243119266055032"></rect></g><g class="bar" transform="translate(65,292.9357798165138)"><rect x="1" width="11.999999999999996" height="17.064220183486214"></rect></g><g class="bar" transform="translate(78.00000000000001,260.22935779816515)"><rect x="1" width="11.999999999999996" height="49.770642201834846"></rect></g><g class="bar" transform="translate(91.00000000000001,246.72018348623854)"><rect x="1" width="11.999999999999996" height="63.27981651376146"></rect></g><g class="bar" transform="translate(104,221.83486238532112)"><rect x="1" width="11.999999999999996" height="88.16513761467888"></rect></g><g class="bar" transform="translate(117,190.55045871559633)"><rect x="1" width="11.999999999999996" height="119.44954128440367"></rect></g><g class="bar" transform="translate(130,134.38073394495413)"><rect x="1" width="11.999999999999996" height="175.61926605504587"></rect></g><g class="bar" transform="translate(143,98.11926605504587)"><rect x="1" width="11.999999999999996" height="211.88073394495413"></rect></g><g class="bar" transform="translate(156.00000000000003,56.169724770642205)"><rect x="1" width="11.999999999999996" height="253.8302752293578"></rect></g><g class="bar" transform="translate(169,49.770642201834846)"><rect x="1" width="11.999999999999996" height="260.22935779816515"></rect></g><g class="bar" transform="translate(182.00000000000003,0)"><rect x="1" width="11.999999999999996" height="310"></rect></g><g class="bar" transform="translate(195,2.8440366972477023)"><rect x="1" width="11.999999999999996" height="307.1559633027523"></rect></g><g class="bar" transform="translate(208,7.110091743119256)"><rect x="1" width="11.999999999999996" height="302.88990825688074"></rect></g><g class="bar" transform="translate(221.00000000000003,39.81651376146789)"><rect x="1" width="11.999999999999996" height="270.1834862385321"></rect></g><g class="bar" transform="translate(234,29.86238532110093)"><rect x="1" width="11.999999999999996" height="280.13761467889907"></rect></g><g class="bar" transform="translate(247.00000000000003,63.990825688073386)"><rect x="1" width="11.999999999999996" height="246.0091743119266"></rect></g><g class="bar" transform="translate(260,98.11926605504587)"><rect x="1" width="11.999999999999996" height="211.88073394495413"></rect></g><g class="bar" transform="translate(273,123.00458715596329)"><rect x="1" width="11.999999999999996" height="186.9954128440367"></rect></g><g class="bar" transform="translate(286,132.95871559633028)"><rect x="1" width="11.999999999999996" height="177.04128440366972"></rect></g><g class="bar" transform="translate(299.00000000000006,191.26146788990826)"><rect x="1" width="11.999999999999996" height="118.73853211009174"></rect></g><g class="bar" transform="translate(312.00000000000006,218.27981651376146)"><rect x="1" width="11.999999999999996" height="91.72018348623854"></rect></g><g class="bar" transform="translate(325,241.74311926605503)"><rect x="1" width="11.999999999999996" height="68.25688073394497"></rect></g><g class="bar" transform="translate(338,258.8073394495413)"><rect x="1" width="11.999999999999996" height="51.1926605504587"></rect></g><g class="bar" transform="translate(351,290.802752293578)"><rect x="1" width="11.999999999999996" height="19.19724770642199"></rect></g><g class="bar" transform="translate(364.00000000000006,292.9357798165138)"><rect x="1" width="11.999999999999996" height="17.064220183486214"></rect></g><g class="bar" transform="translate(377.00000000000006,305.73394495412845)"><rect x="1" width="11.999999999999996" height="4.266055045871553"></rect></g><g class="bar" transform="translate(390,308.57798165137615)"><rect x="1" width="11.999999999999996" height="1.4220183486238511"></rect></g><g class="bar" transform="translate(403,309.2889908256881)"><rect x="1" width="11.999999999999996" height="0.7110091743119256"></rect></g><g class="bar" transform="translate(416,310)"><rect x="1" width="11.999999999999996" height="0"></rect></g><g class="bar" transform="translate(429.00000000000006,310)"><rect x="1" width="11.999999999999996" height="0"></rect></g><g class="bar" transform="translate(442.00000000000006,310)"><rect x="1" width="11.999999999999996" height="0"></rect></g><g class="bar" transform="translate(455,310)"><rect x="1" width="11.999999999999996" height="0"></rect></g><g class="bar" transform="translate(468,310)"><rect x="1" width="11.999999999999996" height="0"></rect></g><g class="bar" transform="translate(481,310)"><rect x="1" width="11.999999999999996" height="0"></rect></g><g class="bar" transform="translate(494.00000000000006,310)"><rect x="1" width="11.999999999999996" height="0"></rect></g><g class="bar" transform="translate(507.00000000000006,310)"><rect x="1" width="11.999999999999996" height="0"></rect></g><g class="axis axis--x" transform="translate(0,310)" fill="none" font-size="10" font-family="sans-serif" text-anchor="middle"><path class="domain" stroke="#000" d="M0.5,6V0.5H520.5V6"></path><g class="tick" opacity="1" transform="translate(0,0)"><line stroke="#000" y2="6" x1="0.5" x2="0.5"></line><text fill="#000" y="9" x="0.5" dy="0.71em">0.01</text></g><g class="tick" opacity="1" transform="translate(130,0)"><line stroke="#000" y2="6" x1="0.5" x2="0.5"></line><text fill="#000" y="9" x="0.5" dy="0.71em">1</text></g><g class="tick" opacity="1" transform="translate(260,0)"><line stroke="#000" y2="6" x1="0.5" x2="0.5"></line><text fill="#000" y="9" x="0.5" dy="0.71em">100</text></g><g class="tick" opacity="1" transform="translate(390,0)"><line stroke="#000" y2="6" x1="0.5" x2="0.5"></line><text fill="#000" y="9" x="0.5" dy="0.71em">10000</text></g><g class="tick" opacity="1" transform="translate(520,0)"><line stroke="#000" y2="6" x1="0.5" x2="0.5"></line><text fill="#000" y="9" x="0.5" dy="0.71em"></text></g></g><g class="axis axis--y" fill="none" font-size="10" font-family="sans-serif" text-anchor="end"><path class="domain" stroke="#000" d="M-6,310.5H0.5V0.5H-6"></path><g class="tick" opacity="1" transform="translate(0,310)"><line stroke="#000" x2="-6" y1="0.5" y2="0.5"></line><text fill="#000" x="-9" y="0.5" dy="0.32em">0</text></g><g class="tick" opacity="1" transform="translate(0,274.44954128440367)"><line stroke="#000" x2="-6" y1="0.5" y2="0.5"></line><text fill="#000" x="-9" y="0.5" dy="0.32em">50</text></g><g class="tick" opacity="1" transform="translate(0,238.89908256880733)"><line stroke="#000" x2="-6" y1="0.5" y2="0.5"></line><text fill="#000" x="-9" y="0.5" dy="0.32em">100</text></g><g class="tick" opacity="1" transform="translate(0,203.348623853211)"><line stroke="#000" x2="-6" y1="0.5" y2="0.5"></line><text fill="#000" x="-9" y="0.5" dy="0.32em">150</text></g><g class="tick" opacity="1" transform="translate(0,167.79816513761466)"><line stroke="#000" x2="-6" y1="0.5" y2="0.5"></line><text fill="#000" x="-9" y="0.5" dy="0.32em">200</text></g><g class="tick" opacity="1" transform="translate(0,132.24770642201835)"><line stroke="#000" x2="-6" y1="0.5" y2="0.5"></line><text fill="#000" x="-9" y="0.5" dy="0.32em">250</text></g><g class="tick" opacity="1" transform="translate(0,96.69724770642202)"><line stroke="#000" x2="-6" y1="0.5" y2="0.5"></line><text fill="#000" x="-9" y="0.5" dy="0.32em">300</text></g><g class="tick" opacity="1" transform="translate(0,61.14678899082571)"><line stroke="#000" x2="-6" y1="0.5" y2="0.5"></line><text fill="#000" x="-9" y="0.5" dy="0.32em">350</text></g><g class="tick" opacity="1" transform="translate(0,25.59633027522932)"><line stroke="#000" x2="-6" y1="0.5" y2="0.5"></line><text fill="#000" x="-9" y="0.5" dy="0.32em">400</text></g></g></g></svg>