<svg xmlns="http://www.w3.org/2000/svg" width="600" height="350"><defs><style type="text/css"><![CDATA[ 
.bar rect {
  fill-opacity: 0;
  stroke:       black;
  stroke-width: 0.5;
}

.highlight rect {
  fill:       red;
  fill-opacity: 1;
}
.axis path,
.axis line {
  fill: none;
  stroke: #000;
  shape-rendering: crispEdges;
}
 ]]></style></defs><g transform="translate(50,10)"><g class="bar" transform="translate(0,310)"><rect x="1" width="5.500000000000005" height="0"></rect></g><g class="bar" transform="translate(6.500000000000005,310)"><rect x="1" width="5.500000000000005" height="0"></rect></g><g class="bar" transform="translate(12.999999999999996,310)"><rect x="1" width="5.500000000000005" height="0"></rect></g><g class="bar" transform="translate(19.500000000000004,310)"><rect x="1" width="5.500000000000005" height="0"></rect></g><g class="bar" transform="translate(25.999999999999993,310)"><rect x="1" width="5.500000000000005" height="0"></rect></g><g class="bar" transform="translate(32.5,310)"><rect x="1" width="5.500000000000005" height="0"></rect></g><g class="bar" transform="translate(39.00000000000001,310)"><rect x="1" width="5.500000000000005" height="0"></rect></g><g class="bar" transform="translate(45.500000000000014,310)"><rect x="1" width="5.500000000000005" height="0"></rect></g><g class="bar" transform="translate(52,310)"><rect x="1" width="5.500000000000005" height="0"></rect></g><g class="bar" transform="translate(58.49999999999999,310)"><rect x="1" width="5.500000000000005" height="0"></rect></g><g class="bar" transform="translate(65,308.5547785547786)"><rect x="1" width="5.500000000000005" height="1.4452214452214207"></rect></g><g class="bar" transform="translate(71.5,308.5547785547786)"><rect x="1" width="5.500000000000005" height="1.4452214452214207"></rect></g><g class="bar" transform="translate(78.00000000000001,308.5547785547786)"><rect x="1" width="5.500000000000005" height="1.4452214452214207"></rect></g><g class="bar" transform="translate(84.5,302.05128205128204)"><rect x="1" width="5.500000000000005" height="7.948717948717956"></rect></g><g class="bar" transform="translate(91.00000000000001,299.8834498834499)"><rect x="1" width="5.500000000000005" height="10.116550116550115"></rect></g><g class="bar" transform="translate(97.5,302.7738927738928)"><rect x="1" width="5.500000000000005" height="7.226107226107217"></rect></g><g class="bar" transform="translate(104,284.7086247086247)"><rect x="1" width="5.500000000000005" height="25.29137529137529"></rect></g><g class="bar" transform="translate(110.50000000000001,262.3076923076923)"><rect x="1" width="5.500000000000005" height="47.69230769230768"></rect></g><g class="bar" transform="translate(117,226.17715617715618)"><rect x="1" width="5.500000000000005" height="83.82284382284382"></rect></g><g class="bar" transform="translate(123.50000000000001,189.32400932400935)"><rect x="1" width="5.500000000000005" height="120.67599067599065"></rect></g><g class="bar" transform="translate(130,158.25174825174824)"><rect x="1" width="5.500000000000005" height="151.74825174825176"></rect></g><g class="bar" transform="translate(136.5,99.7202797202797)"><rect x="1" width="5.500000000000005" height="210.2797202797203"></rect></g><g class="bar" transform="translate(143,61.4219114219114)"><rect x="1" width="5.500000000000005" height="248.5780885780886"></rect></g><g class="bar" transform="translate(149.50000000000003,59.97668997668998)"><rect x="1" width="5.500000000000005" height="250.02331002331002"></rect></g><g class="bar" transform="translate(156.00000000000003,41.91142191142188)"><rect x="1" width="5.500000000000005" height="268.0885780885781"></rect></g><g class="bar" transform="translate(162.5,42.63403263403262)"><rect x="1" width="5.500000000000005" height="267.3659673659674"></rect></g><g class="bar" transform="translate(169,0)"><rect x="1" width="5.500000000000005" height="310"></rect></g><g class="bar" transform="translate(175.5,28.90442890442887)"><rect x="1" width="5.500000000000005" height="281.09557109557113"></rect></g><g class="bar" transform="translate(182.00000000000003,23.84615384615381)"><rect x="1" width="5.500000000000005" height="286.1538461538462"></rect></g><g class="bar" transform="translate(188.50000000000003,37.575757575757564)"><rect x="1" width="5.500000000000005" height="272.42424242424244"></rect></g><g class="bar" transform="translate(195,17.342657342657333)"><rect x="1" width="5.500000000000005" height="292.65734265734267"></rect></g><g class="bar" transform="translate(201.5,36.853146853146825)"><rect x="1" width="5.500000000000005" height="273.1468531468532"></rect></g><g class="bar" transform="translate(208,74.42890442890442)"><rect x="1" width="5.500000000000005" height="235.57109557109558"></rect></g><g class="bar" transform="translate(214.50000000000003,40.46620046620046)"><rect x="1" width="5.500000000000005" height="269.53379953379954"></rect></g><g class="bar" transform="translate(221.00000000000003,47.69230769230768)"><rect x="1" width="5.500000000000005" height="262.3076923076923"></rect></g><g class="bar" transform="translate(227.5,67.2027972027972)"><rect x="1" width="5.500000000000005" height="242.7972027972028"></rect></g><g class="bar" transform="translate(234,98.997668997669)"><rect x="1" width="5.500000000000005" height="211.002331002331"></rect></g><g class="bar" transform="translate(240.5,97.55244755244755)"><rect x="1" width="5.500000000000005" height="212.44755244755245"></rect></g><g class="bar" transform="translate(247.00000000000003,125.01165501165502)"><rect x="1" width="5.500000000000005" height="184.98834498834498"></rect></g><g class="bar" transform="translate(253.50000000000003,166.9230769230769)"><rect x="1" width="5.500000000000005" height="143.0769230769231"></rect></g><g class="bar" transform="translate(260,179.2074592074592)"><rect x="1" width="5.500000000000005" height="130.7925407925408"></rect></g><g class="bar" transform="translate(266.50000000000006,188.6013986013986)"><rect x="1" width="5.500000000000005" height="121.39860139860139"></rect></g><g class="bar" transform="translate(273,214.6153846153846)"><rect x="1" width="5.500000000000005" height="95.38461538461539"></rect></g><g class="bar" transform="translate(279.5,244.96503496503496)"><rect x="1" width="5.500000000000005" height="65.03496503496504"></rect></g><g class="bar" transform="translate(286,251.46853146853147)"><rect x="1" width="5.500000000000005" height="58.53146853146853"></rect></g><g class="bar" transform="translate(292.5,260.86247086247084)"><rect x="1" width="5.500000000000005" height="49.13752913752916"></rect></g><g class="bar" transform="translate(299.00000000000006,273.1468531468531)"><rect x="1" width="5.500000000000005" height="36.85314685314688"></rect></g><g class="bar" transform="translate(305.5,268.08857808857806)"><rect x="1" width="5.500000000000005" height="41.91142191142194"></rect></g><g class="bar" transform="translate(312.00000000000006,278.20512820512823)"><rect x="1" width="5.500000000000005" height="31.794871794871767"></rect></g><g class="bar" transform="translate(318.5,282.54079254079255)"><rect x="1" width="5.500000000000005" height="27.459207459207448"></rect></g><g class="bar" transform="translate(325,292.65734265734267)"><rect x="1" width="5.500000000000005" height="17.342657342657333"></rect></g><g class="bar" transform="translate(331.50000000000006,289.04428904428903)"><rect x="1" width="5.500000000000005" height="20.95571095571097"></rect></g><g class="bar" transform="translate(338,292.65734265734267)"><rect x="1" width="5.500000000000005" height="17.342657342657333"></rect></g><g class="bar" transform="translate(344.50000000000006,300.6060606060606)"><rect x="1" width="5.500000000000005" height="9.393939393939377"></rect></g><g class="bar" transform="translate(351,296.993006993007)"><rect x="1" width="5.500000000000005" height="13.006993006993014"></rect></g><g class="bar" transform="translate(357.5,296.993006993007)"><rect x="1" width="5.500000000000005" height="13.006993006993014"></rect></g><g class="bar" transform="translate(364.00000000000006,301.3286713286713)"><rect x="1" width="5.500000000000005" height="8.671328671328695"></rect></g><g class="bar" transform="translate(370.5,304.94172494172494)"><rect x="1" width="5.500000000000005" height="5.058275058275058"></rect></g><g class="bar" transform="translate(377.00000000000006,308.5547785547786)"><rect x="1" width="5.500000000000005" height="1.4452214452214207"></rect></g><g class="bar" transform="translate(383.5,307.1095571095571)"><rect x="1" width="5.500000000000005" height="2.8904428904428983"></rect></g><g class="bar" transform="translate(390,302.05128205128204)"><rect x="1" width="5.500000000000005" height="7.948717948717956"></rect></g><g class="bar" transform="translate(396.50000000000006,309.27738927738926)"><rect x="1" width="5.500000000000005" height="0.7226107226107388"></rect></g><g class="bar" transform="translate(403,308.5547785547786)"><rect x="1" width="5.500000000000005" height="1.4452214452214207"></rect></g><g class="bar" transform="translate(409.50000000000006,309.27738927738926)"><rect x="1" width="5.500000000000005" height="0.7226107226107388"></rect></g><g class="bar" transform="translate(416,310)"><rect x="1" width="5.500000000000005" height="0"></rect></g><g class="bar" transform="translate(422.5,309.27738927738926)"><rect x="1" width="5.500000000000005" height="0.7226107226107388"></rect></g><g class="bar" transform="translate(429.00000000000006,310)"><rect x="1" width="5.500000000000005" height="0"></rect></g><g class="bar" transform="translate(435.5,310)"><rect x="1" width="5.500000000000005" height="0"></rect></g><g class="bar" transform="translate(442.00000000000006,310)"><rect x="1" width="5.500000000000005" height="0"></rect></g><g class="bar" transform="translate(448.5,310)"><rect x="1" width="5.500000000000005" height="0"></rect></g><g class="bar" transform="translate(455,310)"><rect x="1" width="5.500000000000005" height="0"></rect></g><g class="bar" transform="translate(461.50000000000006,310)"><rect x="1" width="5.500000000000005" height="0"></rect></g><g class="bar" transform="translate(468,310)"><rect x="1" width="5.500000000000005" height="0"></rect></g><g class="bar" transform="translate(474.50000000000006,310)"><rect x="1" width="5.500000000000005" height="0"></rect></g><g class="bar" transform="translate(481,310)"><rect x="1" width="5.500000000000005" height="0"></rect></g><g class="bar" transform="translate(487.5,310)"><rect x="1" width="5.500000000000005" height="0"></rect></g><g class="bar" transform="translate(494.00000000000006,310)"><rect x="1" width="5.500000000000005" height="0"></rect></g><g class="bar" transform="translate(500.5,310)"><rect x="1" width="5.500000000000005" height="0"></rect></g><g class="bar" transform="translate(507.00000000000006,310)"><rect x="1" width="5.500000000000005" height="0"></rect></g><g class="bar" transform="translate(513.5,310)"><rect x="1" width="5.500000000000005" height="0"></rect></g><g class="axis axis--x" transform="translate(0,310)" fill="none" font-size="10" font-family="sans-serif" text-anchor="middle"><path class="domain" stroke="#000" d="M0.5,6V0.5H520.5V6"></path><g class="tick" opacity="1" transform="translate(0,0)"><line stroke="#000" y2="6" x1="0.5" x2="0.5"></line><text fill="#000" y="9" x="0.5" dy="0.71em">0.01</text></g><g class="tick" opacity="1" transform="translate(130,0)"><line stroke="#000" y2="6" x1="0.5" x2="0.5"></line><text fill="#000" y="9" x="0.5" dy="0.71em">1</text></g><g class="tick" opacity="1" transform="translate(260,0)"><line stroke="#000" y2="6" x1="0.5" x2="0.5"></line><text fill="#000" y="9" x="0.5" dy="0.71em">100</text></g><g class="tick" opacity="1" transform="translate(390,0)"><line stroke="#000" y2="6" x1="0.5" x2="0.5"></line><text fill="#000" y="9" x="0.5" dy="0.71em">10000</text></g><g class="tick" opacity="1" transform="translate(520,0)"><line stroke="#000" y2="6" x1="0.5" x2="0.5"></line><text fill="#000" y="9" x="0.5" dy="0.71em"></text></g></g><g class="axis axis--y" fill="none" font-size="10" font-family="sans-serif" text-anchor="end"><path class="domain" stroke="#000" d="M-6,310.5H0.5V0.5H-6"></path><g class="tick" opacity="1" transform="translate(0,310)"><line stroke="#000" x2="-6" y1="0.5" y2="0.5"></line><text fill="#000" x="-9" y="0.5" dy="0.32em">0</text></g><g class="tick" opacity="1" transform="translate(0,273.86946386946386)"><line stroke="#000" x2="-6" y1="0.5" y2="0.5"></line><text fill="#000" x="-9" y="0.5" dy="0.32em">50</text></g><g class="tick" opacity="1" transform="translate(0,237.73892773892774)"><line stroke="#000" x2="-6" y1="0.5" y2="0.5"></line><text fill="#000" x="-9" y="0.5" dy="0.32em">100</text></g><g class="tick" opacity="1" transform="translate(0,201.60839160839163)"><line stroke="#000" x2="-6" y1="0.5" y2="0.5"></line><text fill="#000" x="-9" y="0.5" dy="0.32em">150</text></g><g class="tick" opacity="1" transform="translate(0,165.47785547785548)"><line stroke="#000" x2="-6" y1="0.5" y2="0.5"></line><text fill="#000" x="-9" y="0.5" dy="0.32em">200</text></g><g class="tick" opacity="1" transform="translate(0,129.34731934731934)"><line stroke="#000" x2="-6" y1="0.5" y2="0.5"></line><text fill="#000" x="-9" y="0.5" dy="0.32em">250</text></g><g class="tick" opacity="1" transform="translate(0,93.21678321678323)"><line stroke="#000" x2="-6" y1="0.5" y2="0.5"></line><text fill="#000" x="-9" y="0.5" dy="0.32em">300</text></g><g class="tick" opacity="1" transform="translate(0,57.086247086247084)"><line stroke="#000" x2="-6" y1="0.5" y2="0.5"></line><text fill="#000" x="-9" y="0.5" dy="0.32em">350</text></g><g class="tick" opacity="1" transform="translate(0,20.95571095571097)"><line stroke="#000" x2="-6" y1="0.5" y2="0.5"></line><text fill="#000" x="-9" y="0.5" dy="0.32em">400</text></g></g></g></svg>