<svg xmlns="http://www.w3.org/2000/svg" width="600" height="350"><defs><style type="text/css"><![CDATA[ 
.bar rect {
  fill-opacity: 0;
  stroke:       black;
  stroke-width: 0.5;
}

.highlight rect {
  fill:       red;
  fill-opacity: 1;
}
.axis path,
.axis line {
  fill: none;
  stroke: #000;
  shape-rendering: crispEdges;
}
path {
    stroke: red;
    fill: none;
}

line {
    stroke: red;
}

path.marker {
    fill: red;
}
 ]]></style></defs><g transform="translate(50,10)"><g class="bar" transform="translate(0,196.82539682539684)"><rect x="1" width="11.999999999999996" height="113.17460317460316"></rect></g><g class="bar" transform="translate(12.999999999999996,193.38095238095238)"><rect x="1" width="11.999999999999996" height="116.61904761904762"></rect></g><g class="bar" transform="translate(25.999999999999993,170.25396825396825)"><rect x="1" width="11.999999999999996" height="139.74603174603175"></rect></g><g class="bar" transform="translate(39.00000000000001,139.25396825396825)"><rect x="1" width="11.999999999999996" height="170.74603174603175"></rect></g><g class="bar" transform="translate(52,125.96825396825398)"><rect x="1" width="11.999999999999996" height="184.03174603174602"></rect></g><g class="bar" transform="translate(65,80.69841269841268)"><rect x="1" width="11.999999999999996" height="229.30158730158732"></rect></g><g class="bar" transform="translate(78.00000000000001,45.269841269841265)"><rect x="1" width="11.999999999999996" height="264.73015873015873"></rect></g><g class="bar" transform="translate(91.00000000000001,30.507936507936506)"><rect x="1" width="11.999999999999996" height="279.4920634920635"></rect></g><g class="bar" transform="translate(104,30.015873015873012)"><rect x="1" width="11.999999999999996" height="279.984126984127"></rect></g><g class="bar" transform="translate(117,30.015873015873012)"><rect x="1" width="11.999999999999996" height="279.984126984127"></rect></g><g class="bar" transform="translate(130,35.428571428571445)"><rect x="1" width="11.999999999999996" height="274.57142857142856"></rect></g><g class="bar" transform="translate(143,0)"><rect x="1" width="11.999999999999996" height="310"></rect></g><g class="bar" transform="translate(156.00000000000003,16.730158730158735)"><rect x="1" width="11.999999999999996" height="293.26984126984127"></rect></g><g class="bar" transform="translate(169,44.77777777777777)"><rect x="1" width="11.999999999999996" height="265.22222222222223"></rect></g><g class="bar" transform="translate(182.00000000000003,82.17460317460316)"><rect x="1" width="11.999999999999996" height="227.82539682539684"></rect></g><g class="bar" transform="translate(195,106.28571428571428)"><rect x="1" width="11.999999999999996" height="203.71428571428572"></rect></g><g class="bar" transform="translate(208,160.4126984126984)"><rect x="1" width="11.999999999999996" height="149.5873015873016"></rect></g><g class="bar" transform="translate(221.00000000000003,163.36507936507937)"><rect x="1" width="11.999999999999996" height="146.63492063492063"></rect></g><g class="bar" transform="translate(234,90.04761904761904)"><rect x="1" width="11.999999999999996" height="219.95238095238096"></rect></g><g class="bar" transform="translate(247.00000000000003,51.66666666666663)"><rect x="1" width="11.999999999999996" height="258.33333333333337"></rect></g><g class="bar" transform="translate(260,80.69841269841268)"><rect x="1" width="11.999999999999996" height="229.30158730158732"></rect></g><g class="bar" transform="translate(273,93)"><rect x="1" width="11.999999999999996" height="217"></rect></g><g class="bar" transform="translate(286,157.46031746031747)"><rect x="1" width="11.999999999999996" height="152.53968253968253"></rect></g><g class="bar" transform="translate(299.00000000000006,217.984126984127)"><rect x="1" width="11.999999999999996" height="92.01587301587301"></rect></g><g class="bar" transform="translate(312.00000000000006,235.20634920634922)"><rect x="1" width="11.999999999999996" height="74.79365079365078"></rect></g><g class="bar" transform="translate(325,261.77777777777777)"><rect x="1" width="11.999999999999996" height="48.22222222222223"></rect></g><g class="bar" transform="translate(338,288.8412698412698)"><rect x="1" width="11.999999999999996" height="21.15873015873018"></rect></g><g class="bar" transform="translate(351,299.6666666666667)"><rect x="1" width="11.999999999999996" height="10.333333333333314"></rect></g><g class="bar" transform="translate(364.00000000000006,304.58730158730157)"><rect x="1" width="11.999999999999996" height="5.4126984126984325"></rect></g><g class="bar" transform="translate(377.00000000000006,305.07936507936506)"><rect x="1" width="11.999999999999996" height="4.920634920634939"></rect></g><g class="bar" transform="translate(390,308.5238095238095)"><rect x="1" width="11.999999999999996" height="1.4761904761904816"></rect></g><g class="bar" transform="translate(403,310)"><rect x="1" width="11.999999999999996" height="0"></rect></g><g class="bar" transform="translate(416,310)"><rect x="1" width="11.999999999999996" height="0"></rect></g><g class="bar" transform="translate(429.00000000000006,310)"><rect x="1" width="11.999999999999996" height="0"></rect></g><g class="bar" transform="translate(442.00000000000006,310)"><rect x="1" width="11.999999999999996" height="0"></rect></g><g class="bar" transform="translate(455,310)"><rect x="1" width="11.999999999999996" height="0"></rect></g><g class="bar" transform="translate(468,310)"><rect x="1" width="11.999999999999996" height="0"></rect></g><g class="bar" transform="translate(481,310)"><rect x="1" width="11.999999999999996" height="0"></rect></g><g class="bar" transform="translate(494.00000000000006,310)"><rect x="1" width="11.999999999999996" height="0"></rect></g><g class="bar" transform="translate(507.00000000000006,310)"><rect x="1" width="11.999999999999996" height="0"></rect></g><g class="axis axis--x" transform="translate(0,310)" fill="none" font-size="10" font-family="sans-serif" text-anchor="middle"><path class="domain" stroke="#000" d="M0.5,6V0.5H520.5V6"></path><g class="tick" opacity="1" transform="translate(0.5,0)"><line stroke="#000" y2="6"></line><text fill="#000" y="9" dy="0.71em">0.01</text></g><g class="tick" opacity="1" transform="translate(130.5,0)"><line stroke="#000" y2="6"></line><text fill="#000" y="9" dy="0.71em">1</text></g><g class="tick" opacity="1" transform="translate(260.5,0)"><line stroke="#000" y2="6"></line><text fill="#000" y="9" dy="0.71em">100</text></g><g class="tick" opacity="1" transform="translate(390.5,0)"><line stroke="#000" y2="6"></line><text fill="#000" y="9" dy="0.71em">10000</text></g><g class="tick" opacity="1" transform="translate(520.5,0)"><line stroke="#000" y2="6"></line><text fill="#000" y="9" dy="0.71em"></text></g></g><g class="axis axis--y" fill="none" font-size="10" font-family="sans-serif" text-anchor="end"><path class="domain" stroke="#000" d="M-6,310.5H0.5V0.5H-6"></path><g class="tick" opacity="1" transform="translate(0,310.5)"><line stroke="#000" x2="-6"></line><text fill="#000" x="-9" dy="0.32em">0</text></g><g class="tick" opacity="1" transform="translate(0,285.8968253968254)"><line stroke="#000" x2="-6"></line><text fill="#000" x="-9" dy="0.32em">50</text></g><g class="tick" opacity="1" transform="translate(0,261.2936507936508)"><line stroke="#000" x2="-6"></line><text fill="#000" x="-9" dy="0.32em">100</text></g><g class="tick" opacity="1" transform="translate(0,236.6904761904762)"><line stroke="#000" x2="-6"></line><text fill="#000" x="-9" dy="0.32em">150</text></g><g class="tick" opacity="1" transform="translate(0,212.0873015873016)"><line stroke="#000" x2="-6"></line><text fill="#000" x="-9" dy="0.32em">200</text></g><g class="tick" opacity="1" transform="translate(0,187.484126984127)"><line stroke="#000" x2="-6"></line><text fill="#000" x="-9" dy="0.32em">250</text></g><g class="tick" opacity="1" transform="translate(0,162.88095238095238)"><line stroke="#000" x2="-6"></line><text fill="#000" x="-9" dy="0.32em">300</text></g><g class="tick" opacity="1" transform="translate(0,138.27777777777777)"><line stroke="#000" x2="-6"></line><text fill="#000" x="-9" dy="0.32em">350</text></g><g class="tick" opacity="1" transform="translate(0,113.67460317460319)"><line stroke="#000" x2="-6"></line><text fill="#000" x="-9" dy="0.32em">400</text></g><g class="tick" opacity="1" transform="translate(0,89.07142857142856)"><line stroke="#000" x2="-6"></line><text fill="#000" x="-9" dy="0.32em">450</text></g><g class="tick" opacity="1" transform="translate(0,64.46825396825398)"><line stroke="#000" x2="-6"></line><text fill="#000" x="-9" dy="0.32em">500</text></g><g class="tick" opacity="1" transform="translate(0,39.86507936507934)"><line stroke="#000" x2="-6"></line><text fill="#000" x="-9" dy="0.32em">550</text></g><g class="tick" opacity="1" transform="translate(0,15.26190476190476)"><line stroke="#000" x2="-6"></line><text fill="#000" x="-9" dy="0.32em">600</text></g></g></g></svg>