<svg xmlns="http://www.w3.org/2000/svg" width="600" height="350"><defs><style type="text/css"><![CDATA[ 
.bar rect {
  fill-opacity: 0;
  stroke:       black;
  stroke-width: 0.5;
}

.highlight rect {
  fill:       red;
  fill-opacity: 1;
}
.axis path,
.axis line {
  fill: none;
  stroke: #000;
  shape-rendering: crispEdges;
}
path {
    stroke: red;
    fill: none;
}

line {
    stroke: red;
}

path.marker {
    fill: red;
}
 ]]></style></defs><g transform="translate(50,10)"><g class="bar" transform="translate(0,310)"><rect x="1" width="5.500000000000005" height="0"></rect></g><g class="bar" transform="translate(6.500000000000005,310)"><rect x="1" width="5.500000000000005" height="0"></rect></g><g class="bar" transform="translate(12.999999999999996,310)"><rect x="1" width="5.500000000000005" height="0"></rect></g><g class="bar" transform="translate(19.500000000000004,310)"><rect x="1" width="5.500000000000005" height="0"></rect></g><g class="bar" transform="translate(25.999999999999993,310)"><rect x="1" width="5.500000000000005" height="0"></rect></g><g class="bar" transform="translate(32.5,310)"><rect x="1" width="5.500000000000005" height="0"></rect></g><g class="bar" transform="translate(39.00000000000001,310)"><rect x="1" width="5.500000000000005" height="0"></rect></g><g class="bar" transform="translate(45.500000000000014,310)"><rect x="1" width="5.500000000000005" height="0"></rect></g><g class="bar" transform="translate(52,310)"><rect x="1" width="5.500000000000005" height="0"></rect></g><g class="bar" transform="translate(58.49999999999999,310)"><rect x="1" width="5.500000000000005" height="0"></rect></g><g class="bar" transform="translate(65,310)"><rect x="1" width="5.500000000000005" height="0"></rect></g><g class="bar" transform="translate(71.5,310)"><rect x="1" width="5.500000000000005" height="0"></rect></g><g class="bar" transform="translate(78.00000000000001,310)"><rect x="1" width="5.500000000000005" height="0"></rect></g><g class="bar" transform="translate(84.5,310)"><rect x="1" width="5.500000000000005" height="0"></rect></g><g class="bar" transform="translate(91.00000000000001,310)"><rect x="1" width="5.500000000000005" height="0"></rect></g><g class="bar" transform="translate(97.5,310)"><rect x="1" width="5.500000000000005" height="0"></rect></g><g class="bar" transform="translate(104,309.4503546099291)"><rect x="1" width="5.500000000000005" height="0.5496453900709071"></rect></g><g class="bar" transform="translate(110.50000000000001,301.75531914893617)"><rect x="1" width="5.500000000000005" height="8.244680851063833"></rect></g><g class="bar" transform="translate(117,307.8014184397163)"><rect x="1" width="5.500000000000005" height="2.198581560283685"></rect></g><g class="bar" transform="translate(123.50000000000001,305.60283687943263)"><rect x="1" width="5.500000000000005" height="4.39716312056737"></rect></g><g class="bar" transform="translate(130,300.1063829787234)"><rect x="1" width="5.500000000000005" height="9.893617021276611"></rect></g><g class="bar" transform="translate(136.5,282.5177304964539)"><rect x="1" width="5.500000000000005" height="27.482269503546092"></rect></g><g class="bar" transform="translate(143,281.968085106383)"><rect x="1" width="5.500000000000005" height="28.031914893617"></rect></g><g class="bar" transform="translate(149.50000000000003,266.57801418439715)"><rect x="1" width="5.500000000000005" height="43.42198581560285"></rect></g><g class="bar" transform="translate(156.00000000000003,236.89716312056737)"><rect x="1" width="5.500000000000005" height="73.10283687943263"></rect></g><g class="bar" transform="translate(162.5,206.11702127659572)"><rect x="1" width="5.500000000000005" height="103.88297872340428"></rect></g><g class="bar" transform="translate(169,148.40425531914892)"><rect x="1" width="5.500000000000005" height="161.59574468085108"></rect></g><g class="bar" transform="translate(175.5,103.33333333333334)"><rect x="1" width="5.500000000000005" height="206.66666666666666"></rect></g><g class="bar" transform="translate(182.00000000000003,58.26241134751774)"><rect x="1" width="5.500000000000005" height="251.73758865248226"></rect></g><g class="bar" transform="translate(188.50000000000003,14.840425531914889)"><rect x="1" width="5.500000000000005" height="295.1595744680851"></rect></g><g class="bar" transform="translate(195,0)"><rect x="1" width="5.500000000000005" height="310"></rect></g><g class="bar" transform="translate(201.5,15.390070921985796)"><rect x="1" width="5.500000000000005" height="294.6099290780142"></rect></g><g class="bar" transform="translate(208,23.085106382978722)"><rect x="1" width="5.500000000000005" height="286.9148936170213"></rect></g><g class="bar" transform="translate(214.50000000000003,73.10283687943263)"><rect x="1" width="5.500000000000005" height="236.89716312056737"></rect></g><g class="bar" transform="translate(221.00000000000003,79.69858156028369)"><rect x="1" width="5.500000000000005" height="230.30141843971631"></rect></g><g class="bar" transform="translate(227.5,136.86170212765958)"><rect x="1" width="5.500000000000005" height="173.13829787234042"></rect></g><g class="bar" transform="translate(234,173.68794326241135)"><rect x="1" width="5.500000000000005" height="136.31205673758865"></rect></g><g class="bar" transform="translate(240.5,193.47517730496455)"><rect x="1" width="5.500000000000005" height="116.52482269503545"></rect></g><g class="bar" transform="translate(247.00000000000003,201.17021276595744)"><rect x="1" width="5.500000000000005" height="108.82978723404256"></rect></g><g class="bar" transform="translate(253.50000000000003,207.2163120567376)"><rect x="1" width="5.500000000000005" height="102.78368794326241"></rect></g><g class="bar" transform="translate(260,212.71276595744683)"><rect x="1" width="5.500000000000005" height="97.28723404255317"></rect></g><g class="bar" transform="translate(266.50000000000006,241.29432624113474)"><rect x="1" width="5.500000000000005" height="68.70567375886526"></rect></g><g class="bar" transform="translate(273,236.89716312056737)"><rect x="1" width="5.500000000000005" height="73.10283687943263"></rect></g><g class="bar" transform="translate(279.5,241.29432624113474)"><rect x="1" width="5.500000000000005" height="68.70567375886526"></rect></g><g class="bar" transform="translate(286,246.24113475177305)"><rect x="1" width="5.500000000000005" height="63.758865248226954"></rect></g><g class="bar" transform="translate(292.5,248.43971631205673)"><rect x="1" width="5.500000000000005" height="61.56028368794327"></rect></g><g class="bar" transform="translate(299.00000000000006,255.03546099290782)"><rect x="1" width="5.500000000000005" height="54.964539007092185"></rect></g><g class="bar" transform="translate(305.5,260.531914893617)"><rect x="1" width="5.500000000000005" height="49.468085106383"></rect></g><g class="bar" transform="translate(312.00000000000006,266.57801418439715)"><rect x="1" width="5.500000000000005" height="43.42198581560285"></rect></g><g class="bar" transform="translate(318.5,268.77659574468083)"><rect x="1" width="5.500000000000005" height="41.22340425531917"></rect></g><g class="bar" transform="translate(325,274.822695035461)"><rect x="1" width="5.500000000000005" height="35.17730496453902"></rect></g><g class="bar" transform="translate(331.50000000000006,266.02836879432624)"><rect x="1" width="5.500000000000005" height="43.97163120567376"></rect></g><g class="bar" transform="translate(338,286.9148936170213)"><rect x="1" width="5.500000000000005" height="23.085106382978722"></rect></g><g class="bar" transform="translate(344.50000000000006,303.40425531914894)"><rect x="1" width="5.500000000000005" height="6.595744680851055"></rect></g><g class="bar" transform="translate(351,297.9078014184397)"><rect x="1" width="5.500000000000005" height="12.092198581560297"></rect></g><g class="bar" transform="translate(357.5,303.95390070921985)"><rect x="1" width="5.500000000000005" height="6.046099290780148"></rect></g><g class="bar" transform="translate(364.00000000000006,307.2517730496454)"><rect x="1" width="5.500000000000005" height="2.748226950354592"></rect></g><g class="bar" transform="translate(370.5,307.2517730496454)"><rect x="1" width="5.500000000000005" height="2.748226950354592"></rect></g><g class="bar" transform="translate(377.00000000000006,308.3510638297872)"><rect x="1" width="5.500000000000005" height="1.648936170212778"></rect></g><g class="bar" transform="translate(383.5,310)"><rect x="1" width="5.500000000000005" height="0"></rect></g><g class="bar" transform="translate(390,308.90070921985813)"><rect x="1" width="5.500000000000005" height="1.099290780141871"></rect></g><g class="bar" transform="translate(396.50000000000006,309.4503546099291)"><rect x="1" width="5.500000000000005" height="0.5496453900709071"></rect></g><g class="bar" transform="translate(403,310)"><rect x="1" width="5.500000000000005" height="0"></rect></g><g class="bar" transform="translate(409.50000000000006,310)"><rect x="1" width="5.500000000000005" height="0"></rect></g><g class="bar" transform="translate(416,310)"><rect x="1" width="5.500000000000005" height="0"></rect></g><g class="bar" transform="translate(422.5,310)"><rect x="1" width="5.500000000000005" height="0"></rect></g><g class="bar" transform="translate(429.00000000000006,310)"><rect x="1" width="5.500000000000005" height="0"></rect></g><g class="bar" transform="translate(435.5,310)"><rect x="1" width="5.500000000000005" height="0"></rect></g><g class="bar" transform="translate(442.00000000000006,310)"><rect x="1" width="5.500000000000005" height="0"></rect></g><g class="bar" transform="translate(448.5,310)"><rect x="1" width="5.500000000000005" height="0"></rect></g><g class="bar" transform="translate(455,310)"><rect x="1" width="5.500000000000005" height="0"></rect></g><g class="bar" transform="translate(461.50000000000006,310)"><rect x="1" width="5.500000000000005" height="0"></rect></g><g class="bar" transform="translate(468,310)"><rect x="1" width="5.500000000000005" height="0"></rect></g><g class="bar" transform="translate(474.50000000000006,310)"><rect x="1" width="5.500000000000005" height="0"></rect></g><g class="bar" transform="translate(481,310)"><rect x="1" width="5.500000000000005" height="0"></rect></g><g class="bar" transform="translate(487.5,310)"><rect x="1" width="5.500000000000005" height="0"></rect></g><g class="bar" transform="translate(494.00000000000006,310)"><rect x="1" width="5.500000000000005" height="0"></rect></g><g class="bar" transform="translate(500.5,310)"><rect x="1" width="5.500000000000005" height="0"></rect></g><g class="bar" transform="translate(507.00000000000006,310)"><rect x="1" width="5.500000000000005" height="0"></rect></g><g class="bar" transform="translate(513.5,310)"><rect x="1" width="5.500000000000005" height="0"></rect></g><g class="axis axis--x" transform="translate(0,310)" fill="none" font-size="10" font-family="sans-serif" text-anchor="middle"><path class="domain" stroke="#000" d="M0.5,6V0.5H520.5V6"></path><g class="tick" opacity="1" transform="translate(0.5,0)"><line stroke="#000" y2="6"></line><text fill="#000" y="9" dy="0.71em">0.01</text></g><g class="tick" opacity="1" transform="translate(130.5,0)"><line stroke="#000" y2="6"></line><text fill="#000" y="9" dy="0.71em">1</text></g><g class="tick" opacity="1" transform="translate(260.5,0)"><line stroke="#000" y2="6"></line><text fill="#000" y="9" dy="0.71em">100</text></g><g class="tick" opacity="1" transform="translate(390.5,0)"><line stroke="#000" y2="6"></line><text fill="#000" y="9" dy="0.71em">10000</text></g><g class="tick" opacity="1" transform="translate(520.5,0)"><line stroke="#000" y2="6"></line><text fill="#000" y="9" dy="0.71em"></text></g></g><g class="axis axis--y" fill="none" font-size="10" font-family="sans-serif" text-anchor="end"><path class="domain" stroke="#000" d="M-6,310.5H0.5V0.5H-6"></path><g class="tick" opacity="1" transform="translate(0,310.5)"><line stroke="#000" x2="-6"></line><text fill="#000" x="-9" dy="0.32em">0</text></g><g class="tick" opacity="1" transform="translate(0,283.0177304964539)"><line stroke="#000" x2="-6"></line><text fill="#000" x="-9" dy="0.32em">50</text></g><g class="tick" opacity="1" transform="translate(0,255.53546099290782)"><line stroke="#000" x2="-6"></line><text fill="#000" x="-9" dy="0.32em">100</text></g><g class="tick" opacity="1" transform="translate(0,228.05319148936172)"><line stroke="#000" x2="-6"></line><text fill="#000" x="-9" dy="0.32em">150</text></g><g class="tick" opacity="1" transform="translate(0,200.5709219858156)"><line stroke="#000" x2="-6"></line><text fill="#000" x="-9" dy="0.32em">200</text></g><g class="tick" opacity="1" transform="translate(0,173.0886524822695)"><line stroke="#000" x2="-6"></line><text fill="#000" x="-9" dy="0.32em">250</text></g><g class="tick" opacity="1" transform="translate(0,145.60638297872342)"><line stroke="#000" x2="-6"></line><text fill="#000" x="-9" dy="0.32em">300</text></g><g class="tick" opacity="1" transform="translate(0,118.12411347517732)"><line stroke="#000" x2="-6"></line><text fill="#000" x="-9" dy="0.32em">350</text></g><g class="tick" opacity="1" transform="translate(0,90.6418439716312)"><line stroke="#000" x2="-6"></line><text fill="#000" x="-9" dy="0.32em">400</text></g><g class="tick" opacity="1" transform="translate(0,63.15957446808511)"><line stroke="#000" x2="-6"></line><text fill="#000" x="-9" dy="0.32em">450</text></g><g class="tick" opacity="1" transform="translate(0,35.67730496453902)"><line stroke="#000" x2="-6"></line><text fill="#000" x="-9" dy="0.32em">500</text></g><g class="tick" opacity="1" transform="translate(0,8.195035460992926)"><line stroke="#000" x2="-6"></line><text fill="#000" x="-9" dy="0.32em">550</text></g></g></g></svg>