<svg xmlns="http://www.w3.org/2000/svg" width="600" height="350"><defs><style type="text/css"><![CDATA[ 
.bar rect {
  fill-opacity: 0;
  stroke:       black;
  stroke-width: 0.5;
}

.highlight rect {
  fill:       red;
  fill-opacity: 1;
}
.axis path,
.axis line {
  fill: none;
  stroke: #000;
  shape-rendering: crispEdges;
}
path {
    stroke: red;
    fill: none;
}

line {
    stroke: red;
}

path.marker {
    fill: red;
}
 ]]></style></defs><g transform="translate(50,10)"><g class="bar" transform="translate(0,310)"><rect x="1" width="11.999999999999996" height="0"></rect></g><g class="bar" transform="translate(12.999999999999996,310)"><rect x="1" width="11.999999999999996" height="0"></rect></g><g class="bar" transform="translate(25.999999999999993,310)"><rect x="1" width="11.999999999999996" height="0"></rect></g><g class="bar" transform="translate(39.00000000000001,310)"><rect x="1" width="11.999999999999996" height="0"></rect></g><g class="bar" transform="translate(52,310)"><rect x="1" width="11.999999999999996" height="0"></rect></g><g class="bar" transform="translate(65,310)"><rect x="1" width="11.999999999999996" height="0"></rect></g><g class="bar" transform="translate(78.00000000000001,310)"><rect x="1" width="11.999999999999996" height="0"></rect></g><g class="bar" transform="translate(91.00000000000001,310)"><rect x="1" width="11.999999999999996" height="0"></rect></g><g class="bar" transform="translate(104,310)"><rect x="1" width="11.999999999999996" height="0"></rect></g><g class="bar" transform="translate(117,305.60283687943263)"><rect x="1" width="11.999999999999996" height="4.39716312056737"></rect></g><g class="bar" transform="translate(130,299.0070921985816)"><rect x="1" width="11.999999999999996" height="10.992907801418426"></rect></g><g class="bar" transform="translate(143,255.03546099290782)"><rect x="1" width="11.999999999999996" height="54.964539007092185"></rect></g><g class="bar" transform="translate(156.00000000000003,228.65248226950354)"><rect x="1" width="11.999999999999996" height="81.34751773049646"></rect></g><g class="bar" transform="translate(169,171.48936170212767)"><rect x="1" width="11.999999999999996" height="138.51063829787233"></rect></g><g class="bar" transform="translate(182.00000000000003,125.31914893617022)"><rect x="1" width="11.999999999999996" height="184.68085106382978"></rect></g><g class="bar" transform="translate(195,92.34042553191489)"><rect x="1" width="11.999999999999996" height="217.6595744680851"></rect></g><g class="bar" transform="translate(208,79.14893617021278)"><rect x="1" width="11.999999999999996" height="230.85106382978722"></rect></g><g class="bar" transform="translate(221.00000000000003,76.9503546099291)"><rect x="1" width="11.999999999999996" height="233.0496453900709"></rect></g><g class="bar" transform="translate(234,0)"><rect x="1" width="11.999999999999996" height="310"></rect></g><g class="bar" transform="translate(247.00000000000003,43.97163120567376)"><rect x="1" width="11.999999999999996" height="266.02836879432624"></rect></g><g class="bar" transform="translate(260,101.13475177304966)"><rect x="1" width="11.999999999999996" height="208.86524822695034"></rect></g><g class="bar" transform="translate(273,76.9503546099291)"><rect x="1" width="11.999999999999996" height="233.0496453900709"></rect></g><g class="bar" transform="translate(286,105.53191489361703)"><rect x="1" width="11.999999999999996" height="204.46808510638297"></rect></g><g class="bar" transform="translate(299.00000000000006,138.51063829787233)"><rect x="1" width="11.999999999999996" height="171.48936170212767"></rect></g><g class="bar" transform="translate(312.00000000000006,167.0921985815603)"><rect x="1" width="11.999999999999996" height="142.9078014184397"></rect></g><g class="bar" transform="translate(325,224.25531914893617)"><rect x="1" width="11.999999999999996" height="85.74468085106383"></rect></g><g class="bar" transform="translate(338,230.85106382978722)"><rect x="1" width="11.999999999999996" height="79.14893617021278"></rect></g><g class="bar" transform="translate(351,244.04255319148936)"><rect x="1" width="11.999999999999996" height="65.95744680851064"></rect></g><g class="bar" transform="translate(364.00000000000006,263.82978723404256)"><rect x="1" width="11.999999999999996" height="46.170212765957444"></rect></g><g class="bar" transform="translate(377.00000000000006,285.8156028368794)"><rect x="1" width="11.999999999999996" height="24.184397163120593"></rect></g><g class="bar" transform="translate(390,285.8156028368794)"><rect x="1" width="11.999999999999996" height="24.184397163120593"></rect></g><g class="bar" transform="translate(403,292.4113475177305)"><rect x="1" width="11.999999999999996" height="17.58865248226948"></rect></g><g class="bar" transform="translate(416,303.40425531914894)"><rect x="1" width="11.999999999999996" height="6.595744680851055"></rect></g><g class="bar" transform="translate(429.00000000000006,307.8014184397163)"><rect x="1" width="11.999999999999996" height="2.198581560283685"></rect></g><g class="bar" transform="translate(442.00000000000006,310)"><rect x="1" width="11.999999999999996" height="0"></rect></g><g class="bar" transform="translate(455,310)"><rect x="1" width="11.999999999999996" height="0"></rect></g><g class="bar" transform="translate(468,310)"><rect x="1" width="11.999999999999996" height="0"></rect></g><g class="bar" transform="translate(481,310)"><rect x="1" width="11.999999999999996" height="0"></rect></g><g class="bar" transform="translate(494.00000000000006,310)"><rect x="1" width="11.999999999999996" height="0"></rect></g><g class="bar" transform="translate(507.00000000000006,310)"><rect x="1" width="11.999999999999996" height="0"></rect></g><g class="axis axis--x" transform="translate(0,310)" fill="none" font-size="10" font-family="sans-serif" text-anchor="middle"><path class="domain" stroke="#000" d="M0.5,6V0.5H520.5V6"></path><g class="tick" opacity="1" transform="translate(0.5,0)"><line stroke="#000" y2="6"></line><text fill="#000" y="9" dy="0.71em">0.01</text></g><g class="tick" opacity="1" transform="translate(130.5,0)"><line stroke="#000" y2="6"></line><text fill="#000" y="9" dy="0.71em">1</text></g><g class="tick" opacity="1" transform="translate(260.5,0)"><line stroke="#000" y2="6"></line><text fill="#000" y="9" dy="0.71em">100</text></g><g class="tick" opacity="1" transform="translate(390.5,0)"><line stroke="#000" y2="6"></line><text fill="#000" y="9" dy="0.71em">10000</text></g><g class="tick" opacity="1" transform="translate(520.5,0)"><line stroke="#000" y2="6"></line><text fill="#000" y="9" dy="0.71em"></text></g></g><g class="axis axis--y" fill="none" font-size="10" font-family="sans-serif" text-anchor="end"><path class="domain" stroke="#000" d="M-6,310.5H0.5V0.5H-6"></path><g class="tick" opacity="1" transform="translate(0,310.5)"><line stroke="#000" x2="-6"></line><text fill="#000" x="-9" dy="0.32em">0</text></g><g class="tick" opacity="1" transform="translate(0,288.51418439716315)"><line stroke="#000" x2="-6"></line><text fill="#000" x="-9" dy="0.32em">10</text></g><g class="tick" opacity="1" transform="translate(0,266.52836879432624)"><line stroke="#000" x2="-6"></line><text fill="#000" x="-9" dy="0.32em">20</text></g><g class="tick" opacity="1" transform="translate(0,244.54255319148936)"><line stroke="#000" x2="-6"></line><text fill="#000" x="-9" dy="0.32em">30</text></g><g class="tick" opacity="1" transform="translate(0,222.55673758865248)"><line stroke="#000" x2="-6"></line><text fill="#000" x="-9" dy="0.32em">40</text></g><g class="tick" opacity="1" transform="translate(0,200.5709219858156)"><line stroke="#000" x2="-6"></line><text fill="#000" x="-9" dy="0.32em">50</text></g><g class="tick" opacity="1" transform="translate(0,178.58510638297872)"><line stroke="#000" x2="-6"></line><text fill="#000" x="-9" dy="0.32em">60</text></g><g class="tick" opacity="1" transform="translate(0,156.59929078014184)"><line stroke="#000" x2="-6"></line><text fill="#000" x="-9" dy="0.32em">70</text></g><g class="tick" opacity="1" transform="translate(0,134.61347517730496)"><line stroke="#000" x2="-6"></line><text fill="#000" x="-9" dy="0.32em">80</text></g><g class="tick" opacity="1" transform="translate(0,112.62765957446808)"><line stroke="#000" x2="-6"></line><text fill="#000" x="-9" dy="0.32em">90</text></g><g class="tick" opacity="1" transform="translate(0,90.6418439716312)"><line stroke="#000" x2="-6"></line><text fill="#000" x="-9" dy="0.32em">100</text></g><g class="tick" opacity="1" transform="translate(0,68.65602836879432)"><line stroke="#000" x2="-6"></line><text fill="#000" x="-9" dy="0.32em">110</text></g><g class="tick" opacity="1" transform="translate(0,46.670212765957444)"><line stroke="#000" x2="-6"></line><text fill="#000" x="-9" dy="0.32em">120</text></g><g class="tick" opacity="1" transform="translate(0,24.684397163120593)"><line stroke="#000" x2="-6"></line><text fill="#000" x="-9" dy="0.32em">130</text></g><g class="tick" opacity="1" transform="translate(0,2.698581560283685)"><line stroke="#000" x2="-6"></line><text fill="#000" x="-9" dy="0.32em">140</text></g></g></g></svg>