<svg xmlns="http://www.w3.org/2000/svg" width="280" height="160"><defs><style type="text/css"><![CDATA[ 
.bar rect {
  fill-opacity: 0;
  stroke:       black;
  stroke-width: 0.5;
}

.highlight rect {
  fill:       red;
  fill-opacity: 1;
}
.axis path,
.axis line {
  fill: none;
  stroke: #000;
  shape-rendering: crispEdges;
}
 ]]></style></defs><g transform="translate(50,10)"><g class="bar" transform="translate(0,120)"><rect x="1" width="11.5" height="0"></rect></g><g class="bar" transform="translate(12.5,119.88582302568982)"><rect x="1" width="11.5" height="0.11417697431018325"></rect></g><g class="bar" transform="translate(25,119.54329210275928)"><rect x="1" width="11.5" height="0.4567078972407188"></rect></g><g class="bar" transform="translate(37.5,106.07040913415794)"><rect x="1" width="11.5" height="13.929590865842059"></rect></g><g class="bar" transform="translate(50,74.3292102759277)"><rect x="1" width="11.5" height="45.67078972407231"></rect></g><g class="bar" transform="translate(62.5,61.31303520456708)"><rect x="1" width="11.5" height="58.68696479543292"></rect></g><g class="bar" transform="translate(75,28.201712654614653)"><rect x="1" width="11.5" height="91.79828734538535"></rect></g><g class="bar" transform="translate(87.5,0)"><rect x="1" width="11.5" height="120"></rect></g><g class="bar" transform="translate(100,14.614652711703144)"><rect x="1" width="11.5" height="105.38534728829686"></rect></g><g class="bar" transform="translate(112.5,53.43482397716461)"><rect x="1" width="11.5" height="66.56517602283539"></rect></g><g class="bar" transform="translate(125,93.62511893434824)"><rect x="1" width="11.5" height="26.374881065651763"></rect></g><g class="bar" transform="translate(137.5,118.62987630827783)"><rect x="1" width="11.5" height="1.3701236917221706"></rect></g><g class="bar" transform="translate(150,120)"><rect x="1" width="11.5" height="0"></rect></g><g class="bar" transform="translate(162.5,120)"><rect x="1" width="11.5" height="0"></rect></g><g class="bar" transform="translate(175,120)"><rect x="1" width="11.5" height="0"></rect></g><g class="bar" transform="translate(187.5,120)"><rect x="1" width="11.5" height="0"></rect></g></g></svg>