<svg xmlns="http://www.w3.org/2000/svg" width="600" height="350"><defs><style type="text/css"><![CDATA[ 
.bar rect {
  fill-opacity: 0;
  stroke:       black;
  stroke-width: 0.5;
}

.highlight rect {
  fill:       red;
  fill-opacity: 1;
}
.axis path,
.axis line {
  fill: none;
  stroke: #000;
  shape-rendering: crispEdges;
}
 ]]></style></defs><g transform="translate(50,10)"><g class="bar" transform="translate(0,310)"><rect x="1" width="11.999999999999996" height="0"></rect></g><g class="bar" transform="translate(12.999999999999996,310)"><rect x="1" width="11.999999999999996" height="0"></rect></g><g class="bar" transform="translate(25.999999999999993,310)"><rect x="1" width="11.999999999999996" height="0"></rect></g><g class="bar" transform="translate(39.00000000000001,310)"><rect x="1" width="11.999999999999996" height="0"></rect></g><g class="bar" transform="translate(52,309.30337078651684)"><rect x="1" width="11.999999999999996" height="0.6966292134831633"></rect></g><g class="bar" transform="translate(65,309.30337078651684)"><rect x="1" width="11.999999999999996" height="0.6966292134831633"></rect></g><g class="bar" transform="translate(78.00000000000001,308.60674157303373)"><rect x="1" width="11.999999999999996" height="1.3932584269662698"></rect></g><g class="bar" transform="translate(91.00000000000001,304.4269662921348)"><rect x="1" width="11.999999999999996" height="5.573033707865193"></rect></g><g class="bar" transform="translate(104,287.70786516853934)"><rect x="1" width="11.999999999999996" height="22.292134831460658"></rect></g><g class="bar" transform="translate(117,252.17977528089887)"><rect x="1" width="11.999999999999996" height="57.820224719101134"></rect></g><g class="bar" transform="translate(130,209.68539325842698)"><rect x="1" width="11.999999999999996" height="100.31460674157302"></rect></g><g class="bar" transform="translate(143,190.87640449438203)"><rect x="1" width="11.999999999999996" height="119.12359550561797"></rect></g><g class="bar" transform="translate(156.00000000000003,187.3932584269663)"><rect x="1" width="11.999999999999996" height="122.6067415730337"></rect></g><g class="bar" transform="translate(169,181.12359550561797)"><rect x="1" width="11.999999999999996" height="128.87640449438203"></rect></g><g class="bar" transform="translate(182.00000000000003,144.20224719101122)"><rect x="1" width="11.999999999999996" height="165.79775280898878"></rect></g><g class="bar" transform="translate(195,104.49438202247191)"><rect x="1" width="11.999999999999996" height="205.5056179775281"></rect></g><g class="bar" transform="translate(208,79.41573033707866)"><rect x="1" width="11.999999999999996" height="230.58426966292134"></rect></g><g class="bar" transform="translate(221.00000000000003,66.17977528089887)"><rect x="1" width="11.999999999999996" height="243.82022471910113"></rect></g><g class="bar" transform="translate(234,7.662921348314626)"><rect x="1" width="11.999999999999996" height="302.3370786516854"></rect></g><g class="bar" transform="translate(247.00000000000003,0)"><rect x="1" width="11.999999999999996" height="310"></rect></g><g class="bar" transform="translate(260,20.202247191011224)"><rect x="1" width="11.999999999999996" height="289.7977528089888"></rect></g><g class="bar" transform="translate(273,51.55056179775278)"><rect x="1" width="11.999999999999996" height="258.4494382022472"></rect></g><g class="bar" transform="translate(286,112.85393258426964)"><rect x="1" width="11.999999999999996" height="197.14606741573036"></rect></g><g class="bar" transform="translate(299.00000000000006,146.2921348314607)"><rect x="1" width="11.999999999999996" height="163.7078651685393"></rect></g><g class="bar" transform="translate(312.00000000000006,169.97752808988764)"><rect x="1" width="11.999999999999996" height="140.02247191011236"></rect></g><g class="bar" transform="translate(325,214.561797752809)"><rect x="1" width="11.999999999999996" height="95.43820224719099"></rect></g><g class="bar" transform="translate(338,256.35955056179773)"><rect x="1" width="11.999999999999996" height="53.64044943820227"></rect></g><g class="bar" transform="translate(351,294.6741573033708)"><rect x="1" width="11.999999999999996" height="15.325842696629195"></rect></g><g class="bar" transform="translate(364.00000000000006,305.82022471910113)"><rect x="1" width="11.999999999999996" height="4.179775280898866"></rect></g><g class="bar" transform="translate(377.00000000000006,309.30337078651684)"><rect x="1" width="11.999999999999996" height="0.6966292134831633"></rect></g><g class="bar" transform="translate(390,310)"><rect x="1" width="11.999999999999996" height="0"></rect></g><g class="bar" transform="translate(403,310)"><rect x="1" width="11.999999999999996" height="0"></rect></g><g class="bar" transform="translate(416,310)"><rect x="1" width="11.999999999999996" height="0"></rect></g><g class="bar" transform="translate(429.00000000000006,310)"><rect x="1" width="11.999999999999996" height="0"></rect></g><g class="bar" transform="translate(442.00000000000006,310)"><rect x="1" width="11.999999999999996" height="0"></rect></g><g class="bar" transform="translate(455,310)"><rect x="1" width="11.999999999999996" height="0"></rect></g><g class="bar" transform="translate(468,310)"><rect x="1" width="11.999999999999996" height="0"></rect></g><g class="bar" transform="translate(481,310)"><rect x="1" width="11.999999999999996" height="0"></rect></g><g class="bar" transform="translate(494.00000000000006,310)"><rect x="1" width="11.999999999999996" height="0"></rect></g><g class="bar" transform="translate(507.00000000000006,310)"><rect x="1" width="11.999999999999996" height="0"></rect></g><g class="axis axis--x" transform="translate(0,310)" fill="none" font-size="10" font-family="sans-serif" text-anchor="middle"><path class="domain" stroke="#000" d="M0.5,6V0.5H520.5V6"></path><g class="tick" opacity="1" transform="translate(0,0)"><line stroke="#000" y2="6" x1="0.5" x2="0.5"></line><text fill="#000" y="9" x="0.5" dy="0.71em">0.01</text></g><g class="tick" opacity="1" transform="translate(130,0)"><line stroke="#000" y2="6" x1="0.5" x2="0.5"></line><text fill="#000" y="9" x="0.5" dy="0.71em">1</text></g><g class="tick" opacity="1" transform="translate(260,0)"><line stroke="#000" y2="6" x1="0.5" x2="0.5"></line><text fill="#000" y="9" x="0.5" dy="0.71em">100</text></g><g class="tick" opacity="1" transform="translate(390,0)"><line stroke="#000" y2="6" x1="0.5" x2="0.5"></line><text fill="#000" y="9" x="0.5" dy="0.71em">10000</text></g><g class="tick" opacity="1" transform="translate(520,0)"><line stroke="#000" y2="6" x1="0.5" x2="0.5"></line><text fill="#000" y="9" x="0.5" dy="0.71em"></text></g></g><g class="axis axis--y" fill="none" font-size="10" font-family="sans-serif" text-anchor="end"><path class="domain" stroke="#000" d="M-6,310.5H0.5V0.5H-6"></path><g class="tick" opacity="1" transform="translate(0,310)"><line stroke="#000" x2="-6" y1="0.5" y2="0.5"></line><text fill="#000" x="-9" y="0.5" dy="0.32em">0</text></g><g class="tick" opacity="1" transform="translate(0,275.1685393258427)"><line stroke="#000" x2="-6" y1="0.5" y2="0.5"></line><text fill="#000" x="-9" y="0.5" dy="0.32em">50</text></g><g class="tick" opacity="1" transform="translate(0,240.33707865168537)"><line stroke="#000" x2="-6" y1="0.5" y2="0.5"></line><text fill="#000" x="-9" y="0.5" dy="0.32em">100</text></g><g class="tick" opacity="1" transform="translate(0,205.5056179775281)"><line stroke="#000" x2="-6" y1="0.5" y2="0.5"></line><text fill="#000" x="-9" y="0.5" dy="0.32em">150</text></g><g class="tick" opacity="1" transform="translate(0,170.67415730337078)"><line stroke="#000" x2="-6" y1="0.5" y2="0.5"></line><text fill="#000" x="-9" y="0.5" dy="0.32em">200</text></g><g class="tick" opacity="1" transform="translate(0,135.84269662921346)"><line stroke="#000" x2="-6" y1="0.5" y2="0.5"></line><text fill="#000" x="-9" y="0.5" dy="0.32em">250</text></g><g class="tick" opacity="1" transform="translate(0,101.01123595505618)"><line stroke="#000" x2="-6" y1="0.5" y2="0.5"></line><text fill="#000" x="-9" y="0.5" dy="0.32em">300</text></g><g class="tick" opacity="1" transform="translate(0,66.17977528089887)"><line stroke="#000" x2="-6" y1="0.5" y2="0.5"></line><text fill="#000" x="-9" y="0.5" dy="0.32em">350</text></g><g class="tick" opacity="1" transform="translate(0,31.348314606741553)"><line stroke="#000" x2="-6" y1="0.5" y2="0.5"></line><text fill="#000" x="-9" y="0.5" dy="0.32em">400</text></g></g></g></svg>