<svg xmlns="http://www.w3.org/2000/svg" width="280" height="160"><defs><style type="text/css"><![CDATA[ 
.bar rect {
  fill-opacity: 0;
  stroke:       black;
  stroke-width: 0.5;
}

.highlight rect {
  fill:       red;
  fill-opacity: 1;
}
.axis path,
.axis line {
  fill: none;
  stroke: #000;
  shape-rendering: crispEdges;
}
 ]]></style></defs><g transform="translate(50,10)"><g class="bar" transform="translate(0,114.86842105263158)"><rect x="1" width="11.5" height="5.131578947368425"></rect></g><g class="bar" transform="translate(12.5,107.36842105263158)"><rect x="1" width="11.5" height="12.631578947368425"></rect></g><g class="bar" transform="translate(25,89.21052631578948)"><rect x="1" width="11.5" height="30.78947368421052"></rect></g><g class="bar" transform="translate(37.5,77.13157894736842)"><rect x="1" width="11.5" height="42.868421052631575"></rect></g><g class="bar" transform="translate(50,51.78947368421052)"><rect x="1" width="11.5" height="68.21052631578948"></rect></g><g class="bar" transform="translate(62.5,15.473684210526315)"><rect x="1" width="11.5" height="104.52631578947368"></rect></g><g class="bar" transform="translate(75,0)"><rect x="1" width="11.5" height="120"></rect></g><g class="bar" transform="translate(87.5,13.89473684210526)"><rect x="1" width="11.5" height="106.10526315789474"></rect></g><g class="bar" transform="translate(100,32.368421052631575)"><rect x="1" width="11.5" height="87.63157894736842"></rect></g><g class="bar" transform="translate(112.5,74.68421052631578)"><rect x="1" width="11.5" height="45.31578947368422"></rect></g><g class="bar" transform="translate(125,110.84210526315789)"><rect x="1" width="11.5" height="9.15789473684211"></rect></g><g class="bar" transform="translate(137.5,117.78947368421052)"><rect x="1" width="11.5" height="2.2105263157894797"></rect></g><g class="bar" transform="translate(150,119.76315789473684)"><rect x="1" width="11.5" height="0.23684210526316463"></rect></g><g class="bar" transform="translate(162.5,120)"><rect x="1" width="11.5" height="0"></rect></g><g class="bar" transform="translate(175,120)"><rect x="1" width="11.5" height="0"></rect></g><g class="bar" transform="translate(187.5,120)"><rect x="1" width="11.5" height="0"></rect></g></g></svg>