<svg xmlns="http://www.w3.org/2000/svg" width="280" height="160"><defs><style type="text/css"><![CDATA[ 
.bar rect {
  fill-opacity: 0;
  stroke:       black;
  stroke-width: 0.5;
}

.highlight rect {
  fill:       red;
  fill-opacity: 1;
}
.axis path,
.axis line {
  fill: none;
  stroke: #000;
  shape-rendering: crispEdges;
}
path {
    stroke: red;
    fill: none;
}

line {
    stroke: red;
}

path.marker {
    fill: red;
}
 ]]></style></defs><g transform="translate(50,10)"><g class="bar" transform="translate(0,120)"><rect x="1" width="11.5" height="0"></rect></g><g class="bar" transform="translate(12.5,117.27272727272727)"><rect x="1" width="11.5" height="2.7272727272727337"></rect></g><g class="bar" transform="translate(25,110.11363636363636)"><rect x="1" width="11.5" height="9.88636363636364"></rect></g><g class="bar" transform="translate(37.5,99.54545454545455)"><rect x="1" width="11.5" height="20.454545454545453"></rect></g><g class="bar" transform="translate(50,77.72727272727272)"><rect x="1" width="11.5" height="42.27272727272728"></rect></g><g class="bar" transform="translate(62.5,74.6590909090909)"><rect x="1" width="11.5" height="45.34090909090909"></rect></g><g class="bar" transform="translate(75,63.06818181818182)"><rect x="1" width="11.5" height="56.93181818181818"></rect></g><g class="bar" transform="translate(87.5,23.52272727272728)"><rect x="1" width="11.5" height="96.47727272727272"></rect></g><g class="bar" transform="translate(100,2.0454545454545467)"><rect x="1" width="11.5" height="117.95454545454545"></rect></g><g class="bar" transform="translate(112.5,0)"><rect x="1" width="11.5" height="120"></rect></g><g class="bar" transform="translate(125,59.31818181818181)"><rect x="1" width="11.5" height="60.68181818181819"></rect></g><g class="bar" transform="translate(137.5,98.86363636363636)"><rect x="1" width="11.5" height="21.13636363636364"></rect></g><g class="bar" transform="translate(150,118.97727272727273)"><rect x="1" width="11.5" height="1.0227272727272663"></rect></g><g class="bar" transform="translate(162.5,119.31818181818181)"><rect x="1" width="11.5" height="0.681818181818187"></rect></g><g class="bar" transform="translate(175,120)"><rect x="1" width="11.5" height="0"></rect></g><g class="bar" transform="translate(187.5,120)"><rect x="1" width="11.5" height="0"></rect></g></g></svg>