<svg xmlns="http://www.w3.org/2000/svg" width="600" height="350"><defs><style type="text/css"><![CDATA[ 
.bar rect {
  fill-opacity: 0;
  stroke:       black;
  stroke-width: 0.5;
}

.highlight rect {
  fill:       red;
  fill-opacity: 1;
}
.axis path,
.axis line {
  fill: none;
  stroke: #000;
  shape-rendering: crispEdges;
}
path {
    stroke: red;
    fill: none;
}

line {
    stroke: red;
}

path.marker {
    fill: red;
}
 ]]></style></defs><g transform="translate(50,10)"><g class="bar" transform="translate(0,310)"><rect x="1" width="11.999999999999996" height="0"></rect></g><g class="bar" transform="translate(12.999999999999996,310)"><rect x="1" width="11.999999999999996" height="0"></rect></g><g class="bar" transform="translate(25.999999999999993,310)"><rect x="1" width="11.999999999999996" height="0"></rect></g><g class="bar" transform="translate(39.00000000000001,310)"><rect x="1" width="11.999999999999996" height="0"></rect></g><g class="bar" transform="translate(52,310)"><rect x="1" width="11.999999999999996" height="0"></rect></g><g class="bar" transform="translate(65,310)"><rect x="1" width="11.999999999999996" height="0"></rect></g><g class="bar" transform="translate(78.00000000000001,310)"><rect x="1" width="11.999999999999996" height="0"></rect></g><g class="bar" transform="translate(91.00000000000001,307.86206896551727)"><rect x="1" width="11.999999999999996" height="2.137931034482733"></rect></g><g class="bar" transform="translate(104,303.58620689655174)"><rect x="1" width="11.999999999999996" height="6.413793103448256"></rect></g><g class="bar" transform="translate(117,301.44827586206895)"><rect x="1" width="11.999999999999996" height="8.551724137931046"></rect></g><g class="bar" transform="translate(130,284.3448275862069)"><rect x="1" width="11.999999999999996" height="25.655172413793082"></rect></g><g class="bar" transform="translate(143,275.7931034482759)"><rect x="1" width="11.999999999999996" height="34.20689655172413"></rect></g><g class="bar" transform="translate(156.00000000000003,256.55172413793105)"><rect x="1" width="11.999999999999996" height="53.448275862068954"></rect></g><g class="bar" transform="translate(169,250.13793103448276)"><rect x="1" width="11.999999999999996" height="59.86206896551724"></rect></g><g class="bar" transform="translate(182.00000000000003,237.31034482758622)"><rect x="1" width="11.999999999999996" height="72.68965517241378"></rect></g><g class="bar" transform="translate(195,224.48275862068965)"><rect x="1" width="11.999999999999996" height="85.51724137931035"></rect></g><g class="bar" transform="translate(208,158.20689655172416)"><rect x="1" width="11.999999999999996" height="151.79310344827584"></rect></g><g class="bar" transform="translate(221.00000000000003,186)"><rect x="1" width="11.999999999999996" height="124"></rect></g><g class="bar" transform="translate(234,147.51724137931032)"><rect x="1" width="11.999999999999996" height="162.48275862068968"></rect></g><g class="bar" transform="translate(247.00000000000003,113.31034482758619)"><rect x="1" width="11.999999999999996" height="196.6896551724138"></rect></g><g class="bar" transform="translate(260,136.82758620689654)"><rect x="1" width="11.999999999999996" height="173.17241379310346"></rect></g><g class="bar" transform="translate(273,109.0344827586207)"><rect x="1" width="11.999999999999996" height="200.9655172413793"></rect></g><g class="bar" transform="translate(286,0)"><rect x="1" width="11.999999999999996" height="310"></rect></g><g class="bar" transform="translate(299.00000000000006,81.24137931034483)"><rect x="1" width="11.999999999999996" height="228.75862068965517"></rect></g><g class="bar" transform="translate(312.00000000000006,40.62068965517244)"><rect x="1" width="11.999999999999996" height="269.37931034482756"></rect></g><g class="bar" transform="translate(325,173.17241379310346)"><rect x="1" width="11.999999999999996" height="136.82758620689654"></rect></g><g class="bar" transform="translate(338,237.31034482758622)"><rect x="1" width="11.999999999999996" height="72.68965517241378"></rect></g><g class="bar" transform="translate(351,252.27586206896552)"><rect x="1" width="11.999999999999996" height="57.72413793103448"></rect></g><g class="bar" transform="translate(364.00000000000006,269.37931034482756)"><rect x="1" width="11.999999999999996" height="40.62068965517244"></rect></g><g class="bar" transform="translate(377.00000000000006,269.37931034482756)"><rect x="1" width="11.999999999999996" height="40.62068965517244"></rect></g><g class="bar" transform="translate(390,286.48275862068965)"><rect x="1" width="11.999999999999996" height="23.51724137931035"></rect></g><g class="bar" transform="translate(403,299.3103448275862)"><rect x="1" width="11.999999999999996" height="10.68965517241378"></rect></g><g class="bar" transform="translate(416,310)"><rect x="1" width="11.999999999999996" height="0"></rect></g><g class="bar" transform="translate(429.00000000000006,307.86206896551727)"><rect x="1" width="11.999999999999996" height="2.137931034482733"></rect></g><g class="bar" transform="translate(442.00000000000006,310)"><rect x="1" width="11.999999999999996" height="0"></rect></g><g class="bar" transform="translate(455,310)"><rect x="1" width="11.999999999999996" height="0"></rect></g><g class="bar" transform="translate(468,310)"><rect x="1" width="11.999999999999996" height="0"></rect></g><g class="bar" transform="translate(481,310)"><rect x="1" width="11.999999999999996" height="0"></rect></g><g class="bar" transform="translate(494.00000000000006,310)"><rect x="1" width="11.999999999999996" height="0"></rect></g><g class="bar" transform="translate(507.00000000000006,310)"><rect x="1" width="11.999999999999996" height="0"></rect></g><g class="axis axis--x" transform="translate(0,310)" fill="none" font-size="10" font-family="sans-serif" text-anchor="middle"><path class="domain" stroke="#000" d="M0.5,6V0.5H520.5V6"></path><g class="tick" opacity="1" transform="translate(0.5,0)"><line stroke="#000" y2="6"></line><text fill="#000" y="9" dy="0.71em">0.01</text></g><g class="tick" opacity="1" transform="translate(130.5,0)"><line stroke="#000" y2="6"></line><text fill="#000" y="9" dy="0.71em">1</text></g><g class="tick" opacity="1" transform="translate(260.5,0)"><line stroke="#000" y2="6"></line><text fill="#000" y="9" dy="0.71em">100</text></g><g class="tick" opacity="1" transform="translate(390.5,0)"><line stroke="#000" y2="6"></line><text fill="#000" y="9" dy="0.71em">10000</text></g><g class="tick" opacity="1" transform="translate(520.5,0)"><line stroke="#000" y2="6"></line><text fill="#000" y="9" dy="0.71em"></text></g></g><g class="axis axis--y" fill="none" font-size="10" font-family="sans-serif" text-anchor="end"><path class="domain" stroke="#000" d="M-6,310.5H0.5V0.5H-6"></path><g class="tick" opacity="1" transform="translate(0,310.5)"><line stroke="#000" x2="-6"></line><text fill="#000" x="-9" dy="0.32em">0</text></g><g class="tick" opacity="1" transform="translate(0,267.7413793103448)"><line stroke="#000" x2="-6"></line><text fill="#000" x="-9" dy="0.32em">20</text></g><g class="tick" opacity="1" transform="translate(0,224.98275862068965)"><line stroke="#000" x2="-6"></line><text fill="#000" x="-9" dy="0.32em">40</text></g><g class="tick" opacity="1" transform="translate(0,182.22413793103448)"><line stroke="#000" x2="-6"></line><text fill="#000" x="-9" dy="0.32em">60</text></g><g class="tick" opacity="1" transform="translate(0,139.4655172413793)"><line stroke="#000" x2="-6"></line><text fill="#000" x="-9" dy="0.32em">80</text></g><g class="tick" opacity="1" transform="translate(0,96.70689655172413)"><line stroke="#000" x2="-6"></line><text fill="#000" x="-9" dy="0.32em">100</text></g><g class="tick" opacity="1" transform="translate(0,53.948275862068954)"><line stroke="#000" x2="-6"></line><text fill="#000" x="-9" dy="0.32em">120</text></g><g class="tick" opacity="1" transform="translate(0,11.18965517241378)"><line stroke="#000" x2="-6"></line><text fill="#000" x="-9" dy="0.32em">140</text></g></g></g></svg>