<svg xmlns="http://www.w3.org/2000/svg" width="600" height="350"><defs><style type="text/css"><![CDATA[ 
.bar rect {
  fill-opacity: 0;
  stroke:       black;
  stroke-width: 0.5;
}

.highlight rect {
  fill:       red;
  fill-opacity: 1;
}
.axis path,
.axis line {
  fill: none;
  stroke: #000;
  shape-rendering: crispEdges;
}
path {
    stroke: red;
    fill: none;
}

line {
    stroke: red;
}

path.marker {
    fill: red;
}
 ]]></style></defs><g transform="translate(50,10)"><g class="bar" transform="translate(0,307.8169014084507)"><rect x="1" width="11.999999999999996" height="2.18309859154931"></rect></g><g class="bar" transform="translate(12.999999999999996,309.2723004694836)"><rect x="1" width="11.999999999999996" height="0.7276995305164178"></rect></g><g class="bar" transform="translate(25.999999999999993,309.2723004694836)"><rect x="1" width="11.999999999999996" height="0.7276995305164178"></rect></g><g class="bar" transform="translate(39.00000000000001,307.0892018779343)"><rect x="1" width="11.999999999999996" height="2.910798122065728"></rect></g><g class="bar" transform="translate(52,299.0845070422535)"><rect x="1" width="11.999999999999996" height="10.915492957746494"></rect></g><g class="bar" transform="translate(65,296.1737089201878)"><rect x="1" width="11.999999999999996" height="13.826291079812222"></rect></g><g class="bar" transform="translate(78.00000000000001,288.8967136150235)"><rect x="1" width="11.999999999999996" height="21.103286384976514"></rect></g><g class="bar" transform="translate(91.00000000000001,257.6056338028169)"><rect x="1" width="11.999999999999996" height="52.3943661971831"></rect></g><g class="bar" transform="translate(104,246.69014084507043)"><rect x="1" width="11.999999999999996" height="63.30985915492957"></rect></g><g class="bar" transform="translate(117,208.12206572769952)"><rect x="1" width="11.999999999999996" height="101.87793427230048"></rect></g><g class="bar" transform="translate(130,117.88732394366198)"><rect x="1" width="11.999999999999996" height="192.11267605633802"></rect></g><g class="bar" transform="translate(143,98.2394366197183)"><rect x="1" width="11.999999999999996" height="211.7605633802817"></rect></g><g class="bar" transform="translate(156.00000000000003,69.13145539906102)"><rect x="1" width="11.999999999999996" height="240.86854460093898"></rect></g><g class="bar" transform="translate(169,24.01408450704224)"><rect x="1" width="11.999999999999996" height="285.98591549295776"></rect></g><g class="bar" transform="translate(182.00000000000003,5.821596244131456)"><rect x="1" width="11.999999999999996" height="304.17840375586854"></rect></g><g class="bar" transform="translate(195,10.187793427230076)"><rect x="1" width="11.999999999999996" height="299.8122065727699"></rect></g><g class="bar" transform="translate(208,0)"><rect x="1" width="11.999999999999996" height="310"></rect></g><g class="bar" transform="translate(221.00000000000003,25.469483568075134)"><rect x="1" width="11.999999999999996" height="284.53051643192487"></rect></g><g class="bar" transform="translate(234,58.21596244131456)"><rect x="1" width="11.999999999999996" height="251.78403755868544"></rect></g><g class="bar" transform="translate(247.00000000000003,76.40845070422534)"><rect x="1" width="11.999999999999996" height="233.59154929577466"></rect></g><g class="bar" transform="translate(260,117.15962441314554)"><rect x="1" width="11.999999999999996" height="192.84037558685446"></rect></g><g class="bar" transform="translate(273,143.3568075117371)"><rect x="1" width="11.999999999999996" height="166.6431924882629"></rect></g><g class="bar" transform="translate(286,189.92957746478874)"><rect x="1" width="11.999999999999996" height="120.07042253521126"></rect></g><g class="bar" transform="translate(299.00000000000006,204.48356807511738)"><rect x="1" width="11.999999999999996" height="105.51643192488262"></rect></g><g class="bar" transform="translate(312.00000000000006,236.50234741784038)"><rect x="1" width="11.999999999999996" height="73.49765258215962"></rect></g><g class="bar" transform="translate(325,267.793427230047)"><rect x="1" width="11.999999999999996" height="42.20657276995303"></rect></g><g class="bar" transform="translate(338,273.61502347417843)"><rect x="1" width="11.999999999999996" height="36.38497652582157"></rect></g><g class="bar" transform="translate(351,285.25821596244134)"><rect x="1" width="11.999999999999996" height="24.74178403755866"></rect></g><g class="bar" transform="translate(364.00000000000006,293.99061032863847)"><rect x="1" width="11.999999999999996" height="16.009389671361532"></rect></g><g class="bar" transform="translate(377.00000000000006,305.6338028169014)"><rect x="1" width="11.999999999999996" height="4.36619718309862"></rect></g><g class="bar" transform="translate(390,307.0892018779343)"><rect x="1" width="11.999999999999996" height="2.910798122065728"></rect></g><g class="bar" transform="translate(403,307.8169014084507)"><rect x="1" width="11.999999999999996" height="2.18309859154931"></rect></g><g class="bar" transform="translate(416,307.8169014084507)"><rect x="1" width="11.999999999999996" height="2.18309859154931"></rect></g><g class="bar" transform="translate(429.00000000000006,310)"><rect x="1" width="11.999999999999996" height="0"></rect></g><g class="bar" transform="translate(442.00000000000006,310)"><rect x="1" width="11.999999999999996" height="0"></rect></g><g class="bar" transform="translate(455,310)"><rect x="1" width="11.999999999999996" height="0"></rect></g><g class="bar" transform="translate(468,310)"><rect x="1" width="11.999999999999996" height="0"></rect></g><g class="bar" transform="translate(481,310)"><rect x="1" width="11.999999999999996" height="0"></rect></g><g class="bar" transform="translate(494.00000000000006,310)"><rect x="1" width="11.999999999999996" height="0"></rect></g><g class="bar" transform="translate(507.00000000000006,310)"><rect x="1" width="11.999999999999996" height="0"></rect></g><g class="axis axis--x" transform="translate(0,310)" fill="none" font-size="10" font-family="sans-serif" text-anchor="middle"><path class="domain" stroke="#000" d="M0.5,6V0.5H520.5V6"></path><g class="tick" opacity="1" transform="translate(0.5,0)"><line stroke="#000" y2="6"></line><text fill="#000" y="9" dy="0.71em">0.01</text></g><g class="tick" opacity="1" transform="translate(130.5,0)"><line stroke="#000" y2="6"></line><text fill="#000" y="9" dy="0.71em">1</text></g><g class="tick" opacity="1" transform="translate(260.5,0)"><line stroke="#000" y2="6"></line><text fill="#000" y="9" dy="0.71em">100</text></g><g class="tick" opacity="1" transform="translate(390.5,0)"><line stroke="#000" y2="6"></line><text fill="#000" y="9" dy="0.71em">10000</text></g><g class="tick" opacity="1" transform="translate(520.5,0)"><line stroke="#000" y2="6"></line><text fill="#000" y="9" dy="0.71em"></text></g></g><g class="axis axis--y" fill="none" font-size="10" font-family="sans-serif" text-anchor="end"><path class="domain" stroke="#000" d="M-6,310.5H0.5V0.5H-6"></path><g class="tick" opacity="1" transform="translate(0,310.5)"><line stroke="#000" x2="-6"></line><text fill="#000" x="-9" dy="0.32em">0</text></g><g class="tick" opacity="1" transform="translate(0,274.11502347417843)"><line stroke="#000" x2="-6"></line><text fill="#000" x="-9" dy="0.32em">50</text></g><g class="tick" opacity="1" transform="translate(0,237.7300469483568)"><line stroke="#000" x2="-6"></line><text fill="#000" x="-9" dy="0.32em">100</text></g><g class="tick" opacity="1" transform="translate(0,201.34507042253523)"><line stroke="#000" x2="-6"></line><text fill="#000" x="-9" dy="0.32em">150</text></g><g class="tick" opacity="1" transform="translate(0,164.9600938967136)"><line stroke="#000" x2="-6"></line><text fill="#000" x="-9" dy="0.32em">200</text></g><g class="tick" opacity="1" transform="translate(0,128.575117370892)"><line stroke="#000" x2="-6"></line><text fill="#000" x="-9" dy="0.32em">250</text></g><g class="tick" opacity="1" transform="translate(0,92.19014084507043)"><line stroke="#000" x2="-6"></line><text fill="#000" x="-9" dy="0.32em">300</text></g><g class="tick" opacity="1" transform="translate(0,55.80516431924883)"><line stroke="#000" x2="-6"></line><text fill="#000" x="-9" dy="0.32em">350</text></g><g class="tick" opacity="1" transform="translate(0,19.420187793427203)"><line stroke="#000" x2="-6"></line><text fill="#000" x="-9" dy="0.32em">400</text></g></g></g></svg>