<svg xmlns="http://www.w3.org/2000/svg" width="600" height="350"><defs><style type="text/css"><![CDATA[ 
.bar rect {
  fill-opacity: 0;
  stroke:       black;
  stroke-width: 0.5;
}

.highlight rect {
  fill:       red;
  fill-opacity: 1;
}
.axis path,
.axis line {
  fill: none;
  stroke: #000;
  shape-rendering: crispEdges;
}
path {
    stroke: red;
    fill: none;
}

line {
    stroke: red;
}

path.marker {
    fill: red;
}
 ]]></style></defs><g transform="translate(50,10)"><g class="bar" transform="translate(0,310)"><rect x="1" width="11.999999999999996" height="0"></rect></g><g class="bar" transform="translate(12.999999999999996,310)"><rect x="1" width="11.999999999999996" height="0"></rect></g><g class="bar" transform="translate(25.999999999999993,310)"><rect x="1" width="11.999999999999996" height="0"></rect></g><g class="bar" transform="translate(39.00000000000001,310)"><rect x="1" width="11.999999999999996" height="0"></rect></g><g class="bar" transform="translate(52,309.6497175141243)"><rect x="1" width="11.999999999999996" height="0.3502824858757094"></rect></g><g class="bar" transform="translate(65,310)"><rect x="1" width="11.999999999999996" height="0"></rect></g><g class="bar" transform="translate(78.00000000000001,310)"><rect x="1" width="11.999999999999996" height="0"></rect></g><g class="bar" transform="translate(91.00000000000001,310)"><rect x="1" width="11.999999999999996" height="0"></rect></g><g class="bar" transform="translate(104,308.59887005649716)"><rect x="1" width="11.999999999999996" height="1.4011299435028377"></rect></g><g class="bar" transform="translate(117,309.6497175141243)"><rect x="1" width="11.999999999999996" height="0.3502824858757094"></rect></g><g class="bar" transform="translate(130,308.24858757062145)"><rect x="1" width="11.999999999999996" height="1.7514124293785471"></rect></g><g class="bar" transform="translate(143,305.44632768361583)"><rect x="1" width="11.999999999999996" height="4.553672316384166"></rect></g><g class="bar" transform="translate(156.00000000000003,289.683615819209)"><rect x="1" width="11.999999999999996" height="20.316384180790976"></rect></g><g class="bar" transform="translate(169,248)"><rect x="1" width="11.999999999999996" height="62"></rect></g><g class="bar" transform="translate(182.00000000000003,178.6440677966102)"><rect x="1" width="11.999999999999996" height="131.3559322033898"></rect></g><g class="bar" transform="translate(195,68.30508474576271)"><rect x="1" width="11.999999999999996" height="241.6949152542373"></rect></g><g class="bar" transform="translate(208,0)"><rect x="1" width="11.999999999999996" height="310"></rect></g><g class="bar" transform="translate(221.00000000000003,74.25988700564972)"><rect x="1" width="11.999999999999996" height="235.74011299435028"></rect></g><g class="bar" transform="translate(234,184.94915254237287)"><rect x="1" width="11.999999999999996" height="125.05084745762713"></rect></g><g class="bar" transform="translate(247.00000000000003,236.090395480226)"><rect x="1" width="11.999999999999996" height="73.909604519774"></rect></g><g class="bar" transform="translate(260,260.2598870056497)"><rect x="1" width="11.999999999999996" height="49.740112994350284"></rect></g><g class="bar" transform="translate(273,260.6101694915254)"><rect x="1" width="11.999999999999996" height="49.389830508474574"></rect></g><g class="bar" transform="translate(286,275.3220338983051)"><rect x="1" width="11.999999999999996" height="34.67796610169489"></rect></g><g class="bar" transform="translate(299.00000000000006,266.56497175141243)"><rect x="1" width="11.999999999999996" height="43.43502824858757"></rect></g><g class="bar" transform="translate(312.00000000000006,272.87005649717514)"><rect x="1" width="11.999999999999996" height="37.12994350282486"></rect></g><g class="bar" transform="translate(325,275.3220338983051)"><rect x="1" width="11.999999999999996" height="34.67796610169489"></rect></g><g class="bar" transform="translate(338,288.28248587570624)"><rect x="1" width="11.999999999999996" height="21.717514124293757"></rect></g><g class="bar" transform="translate(351,292.8361581920904)"><rect x="1" width="11.999999999999996" height="17.16384180790959"></rect></g><g class="bar" transform="translate(364.00000000000006,302.29378531073445)"><rect x="1" width="11.999999999999996" height="7.7062146892655505"></rect></g><g class="bar" transform="translate(377.00000000000006,305.44632768361583)"><rect x="1" width="11.999999999999996" height="4.553672316384166"></rect></g><g class="bar" transform="translate(390,309.2994350282486)"><rect x="1" width="11.999999999999996" height="0.7005649717514189"></rect></g><g class="bar" transform="translate(403,308.9491525423729)"><rect x="1" width="11.999999999999996" height="1.0508474576271283"></rect></g><g class="bar" transform="translate(416,310)"><rect x="1" width="11.999999999999996" height="0"></rect></g><g class="bar" transform="translate(429.00000000000006,310)"><rect x="1" width="11.999999999999996" height="0"></rect></g><g class="bar" transform="translate(442.00000000000006,310)"><rect x="1" width="11.999999999999996" height="0"></rect></g><g class="bar" transform="translate(455,310)"><rect x="1" width="11.999999999999996" height="0"></rect></g><g class="bar" transform="translate(468,310)"><rect x="1" width="11.999999999999996" height="0"></rect></g><g class="bar" transform="translate(481,310)"><rect x="1" width="11.999999999999996" height="0"></rect></g><g class="bar" transform="translate(494.00000000000006,310)"><rect x="1" width="11.999999999999996" height="0"></rect></g><g class="bar" transform="translate(507.00000000000006,310)"><rect x="1" width="11.999999999999996" height="0"></rect></g><g class="axis axis--x" transform="translate(0,310)" fill="none" font-size="10" font-family="sans-serif" text-anchor="middle"><path class="domain" stroke="#000" d="M0.5,6V0.5H520.5V6"></path><g class="tick" opacity="1" transform="translate(0.5,0)"><line stroke="#000" y2="6"></line><text fill="#000" y="9" dy="0.71em">0.01</text></g><g class="tick" opacity="1" transform="translate(130.5,0)"><line stroke="#000" y2="6"></line><text fill="#000" y="9" dy="0.71em">1</text></g><g class="tick" opacity="1" transform="translate(260.5,0)"><line stroke="#000" y2="6"></line><text fill="#000" y="9" dy="0.71em">100</text></g><g class="tick" opacity="1" transform="translate(390.5,0)"><line stroke="#000" y2="6"></line><text fill="#000" y="9" dy="0.71em">10000</text></g><g class="tick" opacity="1" transform="translate(520.5,0)"><line stroke="#000" y2="6"></line><text fill="#000" y="9" dy="0.71em"></text></g></g><g class="axis axis--y" fill="none" font-size="10" font-family="sans-serif" text-anchor="end"><path class="domain" stroke="#000" d="M-6,310.5H0.5V0.5H-6"></path><g class="tick" opacity="1" transform="translate(0,310.5)"><line stroke="#000" x2="-6"></line><text fill="#000" x="-9" dy="0.32em">0</text></g><g class="tick" opacity="1" transform="translate(0,275.4717514124294)"><line stroke="#000" x2="-6"></line><text fill="#000" x="-9" dy="0.32em">100</text></g><g class="tick" opacity="1" transform="translate(0,240.44350282485874)"><line stroke="#000" x2="-6"></line><text fill="#000" x="-9" dy="0.32em">200</text></g><g class="tick" opacity="1" transform="translate(0,205.41525423728814)"><line stroke="#000" x2="-6"></line><text fill="#000" x="-9" dy="0.32em">300</text></g><g class="tick" opacity="1" transform="translate(0,170.3870056497175)"><line stroke="#000" x2="-6"></line><text fill="#000" x="-9" dy="0.32em">400</text></g><g class="tick" opacity="1" transform="translate(0,135.35875706214688)"><line stroke="#000" x2="-6"></line><text fill="#000" x="-9" dy="0.32em">500</text></g><g class="tick" opacity="1" transform="translate(0,100.33050847457628)"><line stroke="#000" x2="-6"></line><text fill="#000" x="-9" dy="0.32em">600</text></g><g class="tick" opacity="1" transform="translate(0,65.30225988700565)"><line stroke="#000" x2="-6"></line><text fill="#000" x="-9" dy="0.32em">700</text></g><g class="tick" opacity="1" transform="translate(0,30.274011299435017)"><line stroke="#000" x2="-6"></line><text fill="#000" x="-9" dy="0.32em">800</text></g></g></g></svg>