<svg xmlns="http://www.w3.org/2000/svg" width="600" height="350"><defs><style type="text/css"><![CDATA[ 
.bar rect {
  fill-opacity: 0;
  stroke:       black;
  stroke-width: 0.5;
}

.highlight rect {
  fill:       red;
  fill-opacity: 1;
}
.axis path,
.axis line {
  fill: none;
  stroke: #000;
  shape-rendering: crispEdges;
}
 ]]></style></defs><g transform="translate(50,10)"><g class="bar" transform="translate(0,310)"><rect x="1" width="11.999999999999996" height="0"></rect></g><g class="bar" transform="translate(12.999999999999996,307.91946308724835)"><rect x="1" width="11.999999999999996" height="2.080536912751654"></rect></g><g class="bar" transform="translate(25.999999999999993,305.83892617449663)"><rect x="1" width="11.999999999999996" height="4.161073825503365"></rect></g><g class="bar" transform="translate(39.00000000000001,297.51677852348996)"><rect x="1" width="11.999999999999996" height="12.483221476510039"></rect></g><g class="bar" transform="translate(52,291.9686800894855)"><rect x="1" width="11.999999999999996" height="18.031319910514526"></rect></g><g class="bar" transform="translate(65,282.9530201342282)"><rect x="1" width="11.999999999999996" height="27.04697986577179"></rect></g><g class="bar" transform="translate(78.00000000000001,256.59955257270695)"><rect x="1" width="11.999999999999996" height="53.400447427293045"></rect></g><g class="bar" transform="translate(91.00000000000001,228.165548098434)"><rect x="1" width="11.999999999999996" height="81.83445190156601"></rect></g><g class="bar" transform="translate(104,217.7628635346756)"><rect x="1" width="11.999999999999996" height="92.2371364653244"></rect></g><g class="bar" transform="translate(117,173.37807606263982)"><rect x="1" width="11.999999999999996" height="136.62192393736018"></rect></g><g class="bar" transform="translate(130,118.59060402684563)"><rect x="1" width="11.999999999999996" height="191.40939597315437"></rect></g><g class="bar" transform="translate(143,109.57494407158836)"><rect x="1" width="11.999999999999996" height="200.42505592841164"></rect></g><g class="bar" transform="translate(156.00000000000003,76.97986577181209)"><rect x="1" width="11.999999999999996" height="233.0201342281879"></rect></g><g class="bar" transform="translate(169,40.917225950783006)"><rect x="1" width="11.999999999999996" height="269.082774049217"></rect></g><g class="bar" transform="translate(182.00000000000003,10.402684563758385)"><rect x="1" width="11.999999999999996" height="299.5973154362416"></rect></g><g class="bar" transform="translate(195,0)"><rect x="1" width="11.999999999999996" height="310"></rect></g><g class="bar" transform="translate(208,37.44966442953023)"><rect x="1" width="11.999999999999996" height="272.55033557046977"></rect></g><g class="bar" transform="translate(221.00000000000003,48.54586129753915)"><rect x="1" width="11.999999999999996" height="261.45413870246085"></rect></g><g class="bar" transform="translate(234,60.33557046979868)"><rect x="1" width="11.999999999999996" height="249.66442953020132"></rect></g><g class="bar" transform="translate(247.00000000000003,86.68903803131991)"><rect x="1" width="11.999999999999996" height="223.3109619686801"></rect></g><g class="bar" transform="translate(260,140.78299776286352)"><rect x="1" width="11.999999999999996" height="169.21700223713648"></rect></g><g class="bar" transform="translate(273,167.13646532438477)"><rect x="1" width="11.999999999999996" height="142.86353467561523"></rect></g><g class="bar" transform="translate(286,187.94183445190157)"><rect x="1" width="11.999999999999996" height="122.05816554809843"></rect></g><g class="bar" transform="translate(299.00000000000006,206.66666666666669)"><rect x="1" width="11.999999999999996" height="103.33333333333331"></rect></g><g class="bar" transform="translate(312.00000000000006,239.26174496644296)"><rect x="1" width="11.999999999999996" height="70.73825503355704"></rect></g><g class="bar" transform="translate(325,259.3736017897092)"><rect x="1" width="11.999999999999996" height="50.6263982102908"></rect></g><g class="bar" transform="translate(338,279.4854586129754)"><rect x="1" width="11.999999999999996" height="30.51454138702462"></rect></g><g class="bar" transform="translate(351,281.5659955257271)"><rect x="1" width="11.999999999999996" height="28.43400447427291"></rect></g><g class="bar" transform="translate(364.00000000000006,296.8232662192394)"><rect x="1" width="11.999999999999996" height="13.176733780760628"></rect></g><g class="bar" transform="translate(377.00000000000006,295.43624161073825)"><rect x="1" width="11.999999999999996" height="14.56375838926175"></rect></g><g class="bar" transform="translate(390,307.22595078299776)"><rect x="1" width="11.999999999999996" height="2.7740492170022435"></rect></g><g class="bar" transform="translate(403,309.30648769574947)"><rect x="1" width="11.999999999999996" height="0.6935123042505325"></rect></g><g class="bar" transform="translate(416,310)"><rect x="1" width="11.999999999999996" height="0"></rect></g><g class="bar" transform="translate(429.00000000000006,310)"><rect x="1" width="11.999999999999996" height="0"></rect></g><g class="bar" transform="translate(442.00000000000006,310)"><rect x="1" width="11.999999999999996" height="0"></rect></g><g class="bar" transform="translate(455,310)"><rect x="1" width="11.999999999999996" height="0"></rect></g><g class="bar" transform="translate(468,310)"><rect x="1" width="11.999999999999996" height="0"></rect></g><g class="bar" transform="translate(481,310)"><rect x="1" width="11.999999999999996" height="0"></rect></g><g class="bar" transform="translate(494.00000000000006,310)"><rect x="1" width="11.999999999999996" height="0"></rect></g><g class="bar" transform="translate(507.00000000000006,310)"><rect x="1" width="11.999999999999996" height="0"></rect></g><g class="axis axis--x" transform="translate(0,310)" fill="none" font-size="10" font-family="sans-serif" text-anchor="middle"><path class="domain" stroke="#000" d="M0.5,6V0.5H520.5V6"></path><g class="tick" opacity="1" transform="translate(0,0)"><line stroke="#000" y2="6" x1="0.5" x2="0.5"></line><text fill="#000" y="9" x="0.5" dy="0.71em">0.01</text></g><g class="tick" opacity="1" transform="translate(130,0)"><line stroke="#000" y2="6" x1="0.5" x2="0.5"></line><text fill="#000" y="9" x="0.5" dy="0.71em">1</text></g><g class="tick" opacity="1" transform="translate(260,0)"><line stroke="#000" y2="6" x1="0.5" x2="0.5"></line><text fill="#000" y="9" x="0.5" dy="0.71em">100</text></g><g class="tick" opacity="1" transform="translate(390,0)"><line stroke="#000" y2="6" x1="0.5" x2="0.5"></line><text fill="#000" y="9" x="0.5" dy="0.71em">10000</text></g><g class="tick" opacity="1" transform="translate(520,0)"><line stroke="#000" y2="6" x1="0.5" x2="0.5"></line><text fill="#000" y="9" x="0.5" dy="0.71em"></text></g></g><g class="axis axis--y" fill="none" font-size="10" font-family="sans-serif" text-anchor="end"><path class="domain" stroke="#000" d="M-6,310.5H0.5V0.5H-6"></path><g class="tick" opacity="1" transform="translate(0,310)"><line stroke="#000" x2="-6" y1="0.5" y2="0.5"></line><text fill="#000" x="-9" y="0.5" dy="0.32em">0</text></g><g class="tick" opacity="1" transform="translate(0,275.324384787472)"><line stroke="#000" x2="-6" y1="0.5" y2="0.5"></line><text fill="#000" x="-9" y="0.5" dy="0.32em">50</text></g><g class="tick" opacity="1" transform="translate(0,240.64876957494408)"><line stroke="#000" x2="-6" y1="0.5" y2="0.5"></line><text fill="#000" x="-9" y="0.5" dy="0.32em">100</text></g><g class="tick" opacity="1" transform="translate(0,205.9731543624161)"><line stroke="#000" x2="-6" y1="0.5" y2="0.5"></line><text fill="#000" x="-9" y="0.5" dy="0.32em">150</text></g><g class="tick" opacity="1" transform="translate(0,171.29753914988814)"><line stroke="#000" x2="-6" y1="0.5" y2="0.5"></line><text fill="#000" x="-9" y="0.5" dy="0.32em">200</text></g><g class="tick" opacity="1" transform="translate(0,136.62192393736018)"><line stroke="#000" x2="-6" y1="0.5" y2="0.5"></line><text fill="#000" x="-9" y="0.5" dy="0.32em">250</text></g><g class="tick" opacity="1" transform="translate(0,101.94630872483219)"><line stroke="#000" x2="-6" y1="0.5" y2="0.5"></line><text fill="#000" x="-9" y="0.5" dy="0.32em">300</text></g><g class="tick" opacity="1" transform="translate(0,67.27069351230423)"><line stroke="#000" x2="-6" y1="0.5" y2="0.5"></line><text fill="#000" x="-9" y="0.5" dy="0.32em">350</text></g><g class="tick" opacity="1" transform="translate(0,32.595078299776276)"><line stroke="#000" x2="-6" y1="0.5" y2="0.5"></line><text fill="#000" x="-9" y="0.5" dy="0.32em">400</text></g></g></g></svg>